<svg id="Layer_1" data-name="Layer 1" xmlns="http://www.w3.org/2000/svg" xmlns:xlink="http://www.w3.org/1999/xlink" width="389.1" height="416.18" viewBox="0 0 389.1 416.18">
  <defs>
    <style>
      .cls-1, .cls-13, .cls-6 {
        fill: none;
      }

      .cls-2 {
        clip-path: url(#clip-path);
      }

      .cls-3 {
        fill: #de1959;
      }

      .cls-19, .cls-4 {
        fill: #ee4984;
      }

      .cls-5 {
        fill: #991a5a;
      }

      .cls-6 {
        stroke: #991a5a;
      }

      .cls-13, .cls-19, .cls-6 {
        stroke-miterlimit: 10;
      }

      .cls-7 {
        fill: #e10058;
      }

      .cls-8 {
        fill: #f7f5f2;
      }

      .cls-9 {
        opacity: 0.28;
      }

      .cls-10 {
        fill: #9642e7;
      }

      .cls-11 {
        fill: #130101;
      }

      .cls-12 {
        fill: #b71a53;
      }

      .cls-13 {
        stroke: #050505;
      }

      .cls-14 {
        fill: #680d2e;
      }

      .cls-15 {
        fill: #ff839b;
      }

      .cls-16 {
        fill: #fff3df;
      }

      .cls-17 {
        opacity: 0.3;
      }

      .cls-18 {
        fill: #fff;
      }

      .cls-19 {
        stroke: #96154a;
      }

      .cls-20 {
        fill: #f49093;
      }
    </style>
    <clipPath id="clip-path">
      <rect class="cls-1" x="-3281.94" y="1120.94" width="1600" height="900"/>
    </clipPath>
  </defs>
  <g>
    <g>
      <path class="cls-3" d="M176.75,257.29c-3.24,5-6.17,9.43-8.75,13.31l-.22.33c-1.66,2.5-3.18,4.75-4.55,6.78l-2.38,3.49c-.68,1-1.31,1.9-1.89,2.76-1.39,2.05-2.52,3.81-3.53,5.65a43.38,43.38,0,0,0-2.31,5c-2.85,7.29-4.22,15.77-5,20.29-.32,1.91-.5,3.52-.68,4.58.8.18-3.61,37.31-19.12,25.41-5,0,3.09-16,3.15-16.44,1.73-10.64,3.34-14.42,3.34-14.42,6-13.92,5.57-19.12,9.84-20.29a6.93,6.93,0,0,1,4.4.37q1-3.35,2.09-6.69l1.95-6.22,2.79-8.89c.76-2.41,1.52-4.83,2.27-7.24.92-2.92,1.84-5.85,2.75-8.77q1-3.25,2.05-6.51A30.78,30.78,0,0,0,176.75,257.29Z"/>
      <path class="cls-4" d="M168.5,270.77l-.72.16c-1.66,2.5-3.18,4.75-4.55,6.78a28.08,28.08,0,0,1-6.66-4.79c-.22-.21-.43-.43-.64-.65.76-2.41,1.52-4.83,2.27-7.24a28.94,28.94,0,0,0,5.87,3.9A32,32,0,0,0,168,270.6Z"/>
      <path class="cls-4" d="M159.14,284c-1.44,2.11-2.63,3.88-3.67,5.62a17.72,17.72,0,0,1-4.56-2.45l2-6.22a18.21,18.21,0,0,0,2.3,1.48A17.55,17.55,0,0,0,159.14,284Z"/>
      <path class="cls-5" d="M128.08,344.75c3.79-2.25,5.07-5.23,4.34-9.54a6.23,6.23,0,0,1-4.34,9.54Z"/>
      <path class="cls-5" d="M133,347.2c3.79-2.25,5.07-5.23,4.34-9.54A6.23,6.23,0,0,1,133,347.2Z"/>
      <path class="cls-6" d="M176.75,257.29c-3.24,5-6.17,9.43-8.75,13.31l-.22.33c-1.66,2.5-3.18,4.75-4.55,6.78l-2.38,3.49c-.68,1-1.31,1.9-1.89,2.76-1.39,2.05-2.52,3.81-3.53,5.65a43.38,43.38,0,0,0-2.31,5c-2.85,7.29-4.22,15.77-5,20.29-.3,1.82-.48,3.37-.66,4.42v.2c-.81,4.2-3.91,37-19.15,25.37-5,0,3.09-16,3.15-16.44,1.73-10.64,3.34-14.42,3.34-14.42,6-13.92,5.57-19.12,9.84-20.29a6.93,6.93,0,0,1,4.4.37q1-3.35,2.09-6.69l1.95-6.22,2.79-8.89c.76-2.41,1.52-4.83,2.27-7.24.92-2.92,1.84-5.85,2.75-8.77l7-2.69A33.76,33.76,0,0,0,176.75,257.29Z"/>
    </g>
    <g>
      <path class="cls-3" d="M231.28,257.29c-3.24,5-6.17,9.43-8.75,13.31l-.22.33c-1.66,2.5-3.18,4.75-4.55,6.78l-2.38,3.49c-.68,1-1.31,1.9-1.89,2.76-1.39,2.05-2.52,3.81-3.53,5.65a43.38,43.38,0,0,0-2.31,5c-2.85,7.29-4.22,15.77-5,20.29-.32,1.91-.5,3.52-.68,4.58.8.18-3.61,37.31-19.13,25.41-5,0,3.1-16,3.16-16.44,1.73-10.64,3.34-14.42,3.34-14.42,6-13.92,5.57-19.12,9.84-20.29a6.89,6.89,0,0,1,4.39.37l2.1-6.69,1.95-6.22,2.79-8.89c.76-2.41,1.52-4.83,2.27-7.24.92-2.92,1.84-5.85,2.75-8.77q1-3.25,2.05-6.51A30.72,30.72,0,0,0,231.28,257.29Z"/>
      <path class="cls-4" d="M223,270.77l-.72.16c-1.66,2.5-3.18,4.75-4.55,6.78a28.08,28.08,0,0,1-6.66-4.79c-.22-.21-.43-.43-.64-.65.76-2.41,1.52-4.83,2.27-7.24a28.94,28.94,0,0,0,5.87,3.9,32,32,0,0,0,3.93,1.67Z"/>
      <path class="cls-4" d="M213.67,284c-1.44,2.11-2.63,3.88-3.67,5.62a18.39,18.39,0,0,1-2.43-1.09,19,19,0,0,1-2.13-1.36l1.95-6.22a18.21,18.21,0,0,0,2.3,1.48A17.55,17.55,0,0,0,213.67,284Z"/>
      <path class="cls-5" d="M182.61,344.75c3.79-2.25,5.07-5.23,4.34-9.54a6.23,6.23,0,0,1-4.34,9.54Z"/>
      <path class="cls-5" d="M187.52,347.2c3.79-2.25,5.07-5.23,4.34-9.54a6.23,6.23,0,0,1-4.34,9.54Z"/>
      <path class="cls-6" d="M231.28,257.29c-3.24,5-6.17,9.43-8.75,13.31l-.22.33c-1.66,2.5-3.18,4.75-4.55,6.78l-2.38,3.49c-.68,1-1.31,1.9-1.89,2.76-1.39,2.05-2.52,3.81-3.53,5.65a43.38,43.38,0,0,0-2.31,5c-2.85,7.29-4.22,15.77-5,20.29-.3,1.82-.48,3.37-.66,4.42v.2c-.81,4.2-3.92,37-19.16,25.37-5,0,3.1-16,3.16-16.44,1.73-10.64,3.34-14.42,3.34-14.42,6-13.92,5.57-19.12,9.84-20.29a6.89,6.89,0,0,1,4.39.37l2.1-6.69,1.95-6.22,2.79-8.89c.76-2.41,1.52-4.83,2.27-7.24.92-2.92,1.84-5.85,2.75-8.77l7-2.69A33.76,33.76,0,0,0,231.28,257.29Z"/>
    </g>
    <g>
      <g>
        <g>
          <path class="cls-3" d="M248.87,173.79c-8.91,6.71-3.78,22.69.16,23.2,13.55-26.89,15.89-32.07,17.1-35.23.94-2.41,2.1-4.7,3.05-7.11a12.88,12.88,0,0,1,2-3.93c.8-1.07,1.29-1.22,3.15-2.82a8.69,8.69,0,0,1-1.46-.81c-2.82-2.13-3.27-3.47-4.1-4.15l.29.4A103.72,103.72,0,0,1,260.52,159c-.29.45-.59.89-.89,1.32h0C256,165.68,248.87,173.79,248.87,173.79Z"/>
          <path class="cls-6" d="M249,196.8c13.54-26.89,15.89-32.07,17.1-35.24.94-2.41,2.09-4.7,3-7.1a12.77,12.77,0,0,1,2-3.93c.81-1.08,1.18-.33,3-1.93a56.27,56.27,0,0,1-4-4.77c-.07,0-1.25-.74-1.21-.69a103.16,103.16,0,0,1-8.53,15.69l-.89,1.32h0a107.33,107.33,0,0,1-10.75,13.42l0,0s10-9.18,20.22-29.76h0l5.13,4.76"/>
        </g>
        <path class="cls-3" d="M263,133.35c0,.11,0,.23,0,.34a7.1,7.1,0,0,0,.13,1.14,4.59,4.59,0,0,0,.1.51c.05.22.11.45.18.68s.11.37.18.55a5.59,5.59,0,0,0,.22.57l.22.52s0,0,0,.05.16.35.26.52.18.35.28.52.16.28.25.41l.06.09c.2.33.43.64.64.95q.51.69,1.05,1.29c.35.4.71.77,1.06,1.1.11.11.22.22.34.32.38.36.74.67,1.06.93a12.7,12.7,0,0,0,1.5,1.08s-.21.94,2.6,3.07a9.1,9.1,0,0,0,1.46.81,5.54,5.54,0,0,0,1,.35l.24.06a3.81,3.81,0,0,0,2-.15,3.1,3.1,0,0,0,.58-.28,4.2,4.2,0,0,0,.76-.59,7.48,7.48,0,0,0,1.64-2.63c.07-.18.13-.36.19-.52a12.19,12.19,0,0,0,.43-1.64s4,1.67,6.88-.26c3.86-4.09-2-9.93-2.18-9.68.11-6.68-5.49-7.52-5.37-7.39-8.76-9.36-10.18-.27-10.18-.27s-3.5-3.15-6.44,2.33A10.68,10.68,0,0,0,263,133.35Z"/>
      </g>
      <path class="cls-4" d="M251.5,171.74c.78,1.44,1.87,2.13,3.82,3.44,1.36.91,1.84,1.46,3.1,1.75,1.84-3.72,3.36-6.86,4.42-9.09a7.55,7.55,0,0,1-2.4-1.24,10,10,0,0,1-2.86-2.66C255.56,166.61,253.45,169.6,251.5,171.74Z"/>
      <path class="cls-4" d="M261.42,158.67c-.38,1.05,2.31,3.31,4.09,3,.7-1.6,1.43-3,2.07-4.62a36.17,36.17,0,0,1,1.53-3.78,4.81,4.81,0,0,1-3.41-1.89C264.54,153.7,262.93,156.23,261.42,158.67Z"/>
      <path class="cls-6" d="M263,133.35c0,.11,0,.23,0,.34a7.1,7.1,0,0,0,.13,1.14,4.59,4.59,0,0,0,.1.51c.05.22.11.45.18.68s.11.37.18.55a5.59,5.59,0,0,0,.22.57l.22.52s0,0,0,.05.16.35.26.52.18.35.28.52.16.28.25.41l.06.09c.2.33.43.64.64.95q.51.69,1.05,1.29c.35.4.71.77,1.06,1.1.11.11.22.22.34.32.38.36.74.67,1.06.93a12.7,12.7,0,0,0,1.5,1.08s-.21.94,2.6,3.07a9.1,9.1,0,0,0,1.46.81,5.54,5.54,0,0,0,1,.35l.24.06a3.81,3.81,0,0,0,2-.15,3.1,3.1,0,0,0,.58-.28,4.2,4.2,0,0,0,.76-.59,7.48,7.48,0,0,0,1.64-2.63c.07-.18.13-.36.19-.52a12.19,12.19,0,0,0,.43-1.64s4,1.67,6.88-.26c3.86-4.09-2-9.93-2.18-9.68.11-6.68-5.49-7.52-5.37-7.39-8.76-9.36-10.18-.27-10.18-.27s-3.5-3.15-6.44,2.33A10.68,10.68,0,0,0,263,133.35Z"/>
      <g>
        <path class="cls-6" d="M263,133.35c0,.11,0,.23,0,.34a7.1,7.1,0,0,0,.13,1.14,4.59,4.59,0,0,0,.1.51c.05.22.11.45.18.68s.11.37.18.55a5.59,5.59,0,0,0,.22.57l.22.52s0,0,0,.05.16.35.26.52.18.35.28.52.16.28.25.41l.06.09c.2.33.43.64.64.95q.51.69,1.05,1.29c.36.4.71.77,1.06,1.1.11.11.22.22.34.32.38.36.74.67,1.06.93a12.7,12.7,0,0,0,1.5,1.08s-.21.94,2.6,3.07a9.1,9.1,0,0,0,1.46.81,4.9,4.9,0,0,0,1,.35l.24.06a3.61,3.61,0,0,0,2-.15,3.1,3.1,0,0,0,.58-.28,3.61,3.61,0,0,0,.76-.59,7.48,7.48,0,0,0,1.64-2.63c.07-.18.13-.36.19-.52a12.19,12.19,0,0,0,.43-1.64s4,1.67,6.88-.26c3.86-4.09-2-9.93-2.18-9.68.11-6.68-5.49-7.52-5.37-7.39-8.76-9.36-10.18-.27-10.18-.27s-3.5-3.15-6.44,2.33A10.68,10.68,0,0,0,263,133.35Z"/>
        <path class="cls-5" d="M271,125.39c3.05,2.32,6.21,6.26,4.61,10.27l-.26.61c-.58,1.16-2.23.8-3.15.5a9,9,0,0,1-4.18-3,8.85,8.85,0,0,0,4.25,2.77c1.26.33,2.62.5,2.93-1a6.3,6.3,0,0,0-1.16-5.84,14.56,14.56,0,0,0-3.6-3.45l.56-.83Z"/>
        <path class="cls-5" d="M281.39,126c.16,3.17.7,13.4-4.7,11.57a7.77,7.77,0,0,1-1.76-1,7.47,7.47,0,0,0,1.8.92c5.13,1.5,4-8.43,3.67-11.33l1-.12Z"/>
        <path class="cls-5" d="M286.76,133.54c-1.06,5.57-4.21,11.74-8.37,3.82.95,1.36,2,3.25,3.82,3.41,2.55-.35,3.19-5.27,3.56-7.38l1,.15Z"/>
        <path class="cls-5" d="M270.68,144.43a6.14,6.14,0,0,0,6.5-2.51,6.11,6.11,0,0,1-2.72,2.76,7.48,7.48,0,0,1-4,.74l.18-1Z"/>
      </g>
    </g>
    <path class="cls-7" d="M215.9,263.81l-3.58,3.25C213.54,265.36,214.86,263.87,215.9,263.81Z"/>
    <path class="cls-4" d="M246,210.2c-.38,0,9.25,8.49,2,13.34.25-.28,1-7.81-2.48-7.45-.15.37-5.22,19.41,2,29.64-.3-.08-5.87,3.35-11.22,0-.07-.06.7,5.5,7.88,7.33a8.82,8.82,0,0,1-10.65-1.43c.62.6,6.87,7,3.05,15.22-.14-.21-1.68-9.21-6.68-11.82.07.14,5.28,22.8-5.49,27.65.14-.21,5.28-16.18-5.56-19.56.21.15,3,16.47-6.83,20.83.21.07,1.55-9.22-2.67-12.88.14,0-9.78,18.58-26.88,11,.17,0,9.39-3.91,10.05-10.3-.39.63-12.24,7.18-20,4,.1,0,11.78-6,4.56-10.77a15.45,15.45,0,0,1-8.49,5.82l-.72.16a13.66,13.66,0,0,1-5.89-.2,9.07,9.07,0,0,0,2.18-1.8c2.65-2.65,6.56-7.83,5.11-12.84a52.92,52.92,0,0,1-8.23.17c-2.57-.2-5-.73-6-2,0-.06,6.08-3.16,4.65-8.83-.29.39-13.48,9.4-21-3.11a16.69,16.69,0,0,0,10-1.33,18.2,18.2,0,0,0,6.7-6,27.39,27.39,0,0,0,4.22-8.5c3-9.41,13.4-34.48,13.52-38.36a.89.89,0,0,0-.15-.55c-1.07-1.51-7.64,1.64-7.64,1.64s3-10.55,6.53-12.14,5.36-9.77,5.36-9.77a13.7,13.7,0,0,0,5.34-5.83c.87-2.36,5.09-36,32.43-39s35.65,17.39,37,22.42,0,24,.87,26.4,3.53,7.76,2.47,9.5-5.89,5.78-5.89,7.13-1.44,16.5,4.73,18.91C259,209.14,249.59,211.84,246,210.2Z"/>
    <path class="cls-6" d="M246,210.42c-.39,0,9.25,8.48,2,13.33.25-.28,1-7.81-2.48-7.45-.15.37-5.22,19.41,1.94,29.64-.3-.08-5.86,3.35-11.21,0-.07-.06.7,5.5,7.87,7.33a8.8,8.8,0,0,1-10.64-1.43c.62.6,6.87,7,3.05,15.22-.14-.21-1.69-9.21-6.68-11.82.06.15,5.27,22.8-5.49,27.66.14-.22,5.27-16.19-5.57-19.56.22.14,3,16.46-6.82,20.82.21.07,1.55-9.21-2.67-12.88.14,0-9.79,18.58-26.89,11,.18,0,9.4-3.91,10.06-10.3-.39.63-12.24,7.19-20,4,.11.05,11.79-6,4.57-10.77a15.39,15.39,0,0,1-8.49,5.82l-.73.16a13.47,13.47,0,0,1-5.88-.2,9,9,0,0,0,2.18-1.8c2.65-2.65,6.55-7.83,5.11-12.84a52.92,52.92,0,0,1-8.23.17c-2.57-.2-5-.73-6-2,0-.06,6.08-3.16,4.64-8.83-.28.39-13.47,9.4-21-3.1a16.68,16.68,0,0,0,10-1.34,18.15,18.15,0,0,0,6.71-6,27.64,27.64,0,0,0,4.22-8.51c3-9.41,13.4-34.48,13.52-38.36a.9.9,0,0,0-.15-.55c-1.07-1.51-7.64,1.64-7.64,1.64s3-10.55,6.53-12.14,5.36-9.77,5.36-9.77a13.7,13.7,0,0,0,5.34-5.83c.87-2.36,5.09-36,32.42-39s35.66,17.39,37,22.42,0,24,.88,26.4,3.53,7.76,2.46,9.5-5.88,5.78-5.88,7.13S247.87,204.63,254,207C259,209.35,249.6,212.05,246,210.42Z"/>
    <path class="cls-8" d="M251.57,161.48c0,3.2.07,7.85-3.08,11.19a8.93,8.93,0,0,1-5.38,2.88,8.41,8.41,0,0,1-2.9-.22,9.36,9.36,0,0,1-4.55-2.46,6.56,6.56,0,0,1-.82-1,18.1,18.1,0,0,1-3.16-8.18c-.48-5.22,2.32-14.41,8.56-15.14,4.54-.55,9.18,3.57,10.72,7.75A15,15,0,0,1,251.57,161.48Z"/>
    <path class="cls-9" d="M245.69,150a8.46,8.46,0,0,0-5.61-1.49c-6.22.77-9.05,10-8.54,15.17a18.05,18.05,0,0,0,3.16,8.18,12.17,12.17,0,0,0,.83,1,9.72,9.72,0,0,0,7.45,2.67l.63-.09a7.74,7.74,0,0,1-2.13.56,9.72,9.72,0,0,1-3.07-.21,10.4,10.4,0,0,1-4.82-2.56,7.47,7.47,0,0,1-.9-1,19.05,19.05,0,0,1-3.32-8.64c-.51-5.5,2.44-15.2,9.06-16A9.47,9.47,0,0,1,245.69,150Z"/>
    <g>
      <ellipse class="cls-10" cx="245.35" cy="156.23" rx="5.79" ry="4.44" transform="matrix(0.05, -1, 1, 0.05, 77.52, 393.79)"/>
      <ellipse class="cls-11" cx="245.33" cy="155.93" rx="3.09" ry="2.37" transform="translate(77.8 393.49) rotate(-87.25)"/>
      <ellipse class="cls-8" cx="244.22" cy="153.56" rx="1.13" ry="0.87" transform="translate(79.11 390.13) rotate(-87.25)"/>
    </g>
    <path class="cls-6" d="M251.57,161.48c0,3.2.07,7.85-3.08,11.19a8.93,8.93,0,0,1-5.38,2.88,8.41,8.41,0,0,1-2.9-.22,9.36,9.36,0,0,1-4.55-2.46,6.56,6.56,0,0,1-.82-1,18.1,18.1,0,0,1-3.16-8.18c-.48-5.22,2.32-14.41,8.56-15.14,4.54-.55,9.18,3.57,10.72,7.75A15,15,0,0,1,251.57,161.48Z"/>
    <path class="cls-8" d="M228.22,160.52c-.19,3.7-.46,9.06-4.33,12.7a10.34,10.34,0,0,1-6.4,2.95,9.57,9.57,0,0,1-3.34-.45,10.75,10.75,0,0,1-5.08-3.15,7.82,7.82,0,0,1-.88-1.17,20.78,20.78,0,0,1-3.08-9.66c-.2-6.06,3.67-16.47,10.92-16.89,5.28-.31,10.35,4.77,11.84,9.69A17.64,17.64,0,0,1,228.22,160.52Z"/>
    <path class="cls-9" d="M222.23,146.8a9.88,9.88,0,0,0-6.37-2.11c-7.23.46-11.14,10.89-10.91,16.93a20.9,20.9,0,0,0,3.09,9.66c.15.22.45.65.88,1.17a10.62,10.62,0,0,0,5.08,3.14,9.87,9.87,0,0,0,3.33.46l.75-.06a9,9,0,0,1-2.51.5A11.1,11.1,0,0,1,212,176a12,12,0,0,1-5.38-3.29,9.16,9.16,0,0,1-1-1.23,22.23,22.23,0,0,1-3.24-10.2c-.2-6.39,3.87-17.38,11.57-17.87A10.91,10.91,0,0,1,222.23,146.8Z"/>
    <ellipse class="cls-10" cx="220.2" cy="153.83" rx="5.13" ry="6.7" transform="translate(-8.19 12.44) rotate(-3.18)"/>
    <ellipse class="cls-11" cx="220.86" cy="153.49" rx="2.74" ry="3.57" transform="translate(-8.17 12.48) rotate(-3.18)"/>
    <ellipse class="cls-8" cx="218.88" cy="151.86" rx="1" ry="1.31" transform="translate(-8.08 12.36) rotate(-3.18)"/>
    <path class="cls-6" d="M228.22,160.52c-.19,3.7-.46,9.06-4.33,12.7a10.34,10.34,0,0,1-6.4,2.95,9.57,9.57,0,0,1-3.34-.45,10.75,10.75,0,0,1-5.08-3.15,7.82,7.82,0,0,1-.88-1.17,20.78,20.78,0,0,1-3.08-9.66c-.2-6.06,3.67-16.47,10.92-16.89,5.28-.31,10.35,4.77,11.84,9.69A17.64,17.64,0,0,1,228.22,160.52Z"/>
    <path class="cls-12" d="M214.63,134.52c-.13,0-5.2-2-6.14-1.13s-1.19,2.38.89,3.1c0,0-6.39.19-5,3.35-.12-.11-4.67,1.52-1.62,3.44-.2,0-3.19,2.74-1.23,4.49,4.66-5.87,7.49-7.32,9.24-7.46a16,16,0,0,0,2.93-.54c1.82-.5,3.36-.93,3.61-1.91S216.41,135.49,214.63,134.52Z"/>
    <path class="cls-12" d="M237.45,138.41c.07,0,2.92-2.54,3.73-2.23s1.36,1.26.18,2.24c0,0,4.22-1.43,4.11,1,.05-.1,3.42-.15,1.9,1.85.13,0,2.75,1,1.9,2.63-4.48-2.7-6.68-3-7.86-2.61a11.38,11.38,0,0,1-2,.36c-1.31.11-2.42.21-2.83-.37S236.52,139.48,237.45,138.41Z"/>
    <path class="cls-5" d="M242.2,189.79a30.54,30.54,0,0,0,10.73-5.7,31.17,31.17,0,0,1-10.43,6.65l-.3-1Z"/>
    <path class="cls-13" d="M198.89,173.55h0"/>
    <path class="cls-14" d="M245.79,216.56c-.22.26-.45.51-.68.76a20.57,20.57,0,0,1-4.71,3.74,24.1,24.1,0,0,1-7.39,2.77l-.37.07c-.24,0-.49.09-.73.12s-.72.13-1.08.18l-.34,0-1.11.11a30,30,0,0,1-3,.1,1.92,1.92,0,0,1-.24,0c-1.23,0-2.48-.08-3.71-.2l-.86-.1c-.9-.12-1.79-.25-2.68-.43-.3-.05-.59-.1-.88-.17l-.1,0h0c-6.39-1.34-12.1-3.95-15.4-6.61a11.51,11.51,0,0,1-2-2,2.62,2.62,0,0,1-.24-.34,28.24,28.24,0,0,1-1.67-4.77c-3.74-14.23.37-34,.23-36.84a31.39,31.39,0,0,0,1.42,5.1,23,23,0,0,0,3.49,6.23,18.91,18.91,0,0,0,3.07,3.12l.14.12a23.19,23.19,0,0,0,2.33,1.63,26.4,26.4,0,0,0,8.81,3.21c.62.12,1.26.21,1.89.3l.82.09h.07l1.08.09h0c.73.06,1.45.09,2.17.11a54.89,54.89,0,0,0,7.27-.34l.23,0c1.86-.22,3.58-.51,5.1-.81,1.22-.23,2.32-.49,3.24-.71l1.48-.37.53-.16a1.58,1.58,0,0,0,.31-.09c-.29,1.61-.52,3.13-.69,4.55C239.36,213,245.36,217,245.79,216.56Z"/>
    <path class="cls-15" d="M245.11,217.32a20.57,20.57,0,0,1-4.71,3.74,24.1,24.1,0,0,1-7.39,2.77l-.37.07c-.24,0-.49.09-.73.12s-.72.13-1.08.18l-.34,0-1.11.11a30,30,0,0,1-3,.1,1.92,1.92,0,0,1-.24,0c-1.23,0-2.48-.08-3.71-.2l-.86-.1c-.9-.12-1.79-.25-2.68-.43-.3-.05-.59-.1-.88-.17l-.1,0h0c-6.39-1.34-12.1-3.95-15.4-6.61a11.51,11.51,0,0,1-2-2,2.62,2.62,0,0,1-.24-.34,28.24,28.24,0,0,1-1.67-4.77c6.34-1.31,16.77-1.93,24.81,5.17C224.12,214.81,235.92,208.43,245.11,217.32Z"/>
    <g>
      <path class="cls-16" d="M231.61,192.61l-.17.31-.3.62-.07.13-.18.37c-.87,1.83-1.08,2.62-1.42,3.3a4.68,4.68,0,0,1-4.11,2.72c-1.89-.09-4.4-2.46-6.58-6.33-.24-.43-.48-.88-.71-1.35.62.12,1.26.21,1.89.3l.82.09h.07l1.08.09h0c.73.06,1.45.09,2.17.11a54.89,54.89,0,0,0,7.27-.34Z"/>
      <path class="cls-16" d="M220,192.68c-.31.26-.71.6-1.18,1l-.1.09a1.09,1.09,0,0,1-.11.1l-.29.28c-1.46,1.41-1.94,2.08-2.5,2.59a4.65,4.65,0,0,1-4.8,1.1c-1.7-.73-3.18-3.71-3.88-7.93-.13-.8-.24-1.65-.31-2.54l.14.12a23.19,23.19,0,0,0,2.33,1.63,26.4,26.4,0,0,0,8.81,3.21C218.69,192.5,219.33,192.59,220,192.68Z"/>
      <path class="cls-16" d="M209.26,189.17c-.28.09-.59.19-.94.32l-.13,0-.39.14-.7.28c-1.39.54-2,.9-2.62,1.11a4.67,4.67,0,0,1-4.84-.89c-1.6-1.69-1.47-6.46.59-12.11a23,23,0,0,0,3.49,6.23,18.91,18.91,0,0,0,3.07,3.12l.14.12A23.19,23.19,0,0,0,209.26,189.17Z"/>
      <path class="cls-16" d="M242,190.56c-2,6.43-5.81,8.75-8.1,7.07a7.19,7.19,0,0,1-2.16-3.76c-.07-.21-.13-.42-.18-.62s-.06-.22-.08-.33l-.06-.28.23,0c1.86-.22,3.58-.51,5.1-.81,1.22-.23,2.32-.49,3.24-.71l1.48-.37Z"/>
      <path class="cls-16" d="M217.9,223.53c-6.39-1.34-12.1-3.95-15.4-6.61a11.51,11.51,0,0,1-2-2c1.52-2.1,3.87-4.52,6.52-4.33s4.7,3.14,8.18,8.32C216.32,220.64,217.21,222.2,217.9,223.53Z"/>
      <path class="cls-16" d="M228.55,224.35c-.72.06-1.44.09-2.17.1a1.92,1.92,0,0,1-.24,0c-1.23,0-2.48-.08-3.71-.2l-.86-.1c-.9-.12-1.79-.25-2.68-.43-.3-.05-.59-.1-.88-.17a6,6,0,0,1,.17-4.37c.68-1.5,2.18-3.34,3.88-3.47C224.48,215.52,227.54,218.82,228.55,224.35Z"/>
      <path class="cls-16" d="M240.4,221.06a24.1,24.1,0,0,1-7.39,2.77c-.73.14-1.46.26-2.18.37l-.33,0h0a6.34,6.34,0,0,1-1.37-4.43c.16-1.67,1-3.93,2.54-4.61C233.82,214.28,237.65,216.33,240.4,221.06Z"/>
    </g>
    <path class="cls-6" d="M241.71,194.8c.17-1.42.4-2.94.68-4.55l-.84.25-1.48.37c-.92.22-2,.47-3.23.71a58.42,58.42,0,0,1-12.6,1.18c-.72,0-1.45,0-2.18-.11h0l-1.09-.09h-.06a26.19,26.19,0,0,1-13.86-5.23,19.64,19.64,0,0,1-3.2-3.24A25.61,25.61,0,0,1,199,172.91a0,0,0,1,0,0,0c0,3.79-4.9,27.57,1.44,41.45a2.7,2.7,0,0,0,.25.34,11.17,11.17,0,0,0,2,2c3.3,2.66,9,5.27,15.4,6.61h0l1,.19c.88.17,1.78.31,2.68.43l.85.1a36.79,36.79,0,0,0,7,.09,27,27,0,0,0,3.25-.44,22.28,22.28,0,0,0,13.11-7.29s0,0,0,0C245.1,216.49,239.56,212.15,241.71,194.8Z"/>
    <g class="cls-17">
      <ellipse class="cls-18" cx="192.75" cy="144.93" rx="6.65" ry="3.33" transform="translate(-20.69 257.18) rotate(-64.68)"/>
      <ellipse class="cls-18" cx="187.51" cy="166.83" rx="10.33" ry="5.31" transform="translate(-33.44 285.89) rotate(-69.98)"/>
    </g>
    <path class="cls-5" d="M194.46,173.8c.74-1.77,2.7-3.86,4.59-3.42a6.81,6.81,0,0,1,1.89,1.29,11,11,0,0,1,1.5,1.63c-.67-.32-1.3-.68-1.92-1a16.33,16.33,0,0,0-1.74-.94c-1.28-.18-3.07,1.48-4.32,2.48Z"/>
    <path class="cls-5" d="M207.31,183.58a39.51,39.51,0,0,0,37.14,2.31,42.17,42.17,0,0,0,4.92-2.62c-11.91,9.43-30,9.59-42.06.31Z"/>
    <path class="cls-5" d="M194.46,204.26c.17,2,.46,4,.72,6,.43,2.36.58,4.93,1.8,7,1.68,1.34,4.41,2.53,6.32,3.64a26,26,0,0,0,2.69,1.35,38.76,38.76,0,0,1-8.4-3.41,4.18,4.18,0,0,1-1.37-1c-1.47-2.22-1.55-5-1.81-7.5a34,34,0,0,1,.05-6.05Z"/>
    <path class="cls-19" d="M215.2,123.06s2.6-4.87-6.76-6.92c-.31.39,8.34-4.32,10.85,5.58.55,0,3.93-8.49-9-12.73.16-.32,12.74,0,14.47,12.66-.08-.16,3.85-4.49,0-8.73.31-.16,5.74.31,4.4,10.53"/>
    <path class="cls-19" d="M215.2,123.06s2.6-4.87-6.76-6.92c-.31.39,8.34-4.32,10.85,5.58.55,0,3.93-8.49-9-12.73.16-.32,12.74,0,14.47,12.66-.08-.16,3.85-4.49,0-8.73.31-.16,5.74.31,4.4,10.53"/>
    <g>
      <path class="cls-19" d="M235.92,126.93s8.05-22.41-4.11-25.4-15.62,12.35-3.44,7.87c3.38-2,2.36-4.25,2.36-4.25s6.21,2,2.83,20"/>
      <path class="cls-19" d="M235.92,126.93s8.05-22.41-4.11-25.4-15.62,12.35-3.44,7.87c3.38-2,2.36-4.25,2.36-4.25s6.21,2,2.83,20"/>
      <path class="cls-20" d="M227.79,108.92c-4.7,1.73-8.37-1.09-4.41-2.54,1.2-.69,4.18-.39,5.75-.52a.81.81,0,0,1,.77,1.21A5.48,5.48,0,0,1,227.79,108.92Z"/>
    </g>
    <path class="cls-19" d="M212.34,125.91c-.32-.23-.48-12.5-21.47-5.58s-13,24.53-2.28,12.66c4.8-5.42.32-6.92.32-6.92s15.33-9.12,20.44,1.18"/>
    <path class="cls-19" d="M212.34,125.92c-.32-.24-.48-12.5-21.47-5.58s-13,24.53-2.28,12.66c4.8-5.43.32-6.92.32-6.92s15.33-9.12,20.44,1.18"/>
    <g>
      <g>
        <g>
          <path class="cls-3" d="M177.76,168.39c8,7.79.86,23-3.12,23-10-28.39-11.68-33.83-12.47-37.12-.63-2.51-1.48-4.93-2.12-7.43a12.8,12.8,0,0,0-1.48-4.16c-.66-1.17-1.13-1.37-2.77-3.2a8.83,8.83,0,0,0,1.55-.61c3.07-1.76,3.69-3,4.6-3.6l-.34.36a103.66,103.66,0,0,0,6.47,16.64c.23.48.47,1,.71,1.42h0C171.69,159.44,177.76,168.39,177.76,168.39Z"/>
          <path class="cls-6" d="M174.66,191.19c-10-28.4-11.68-33.83-12.47-37.12-.63-2.51-1.48-4.93-2.12-7.44a12.82,12.82,0,0,0-1.48-4.15c-.66-1.17-1.13-.48-2.77-2.31a54.94,54.94,0,0,0,4.53-4.22c.07,0,1.33-.58,1.28-.53a103.37,103.37,0,0,0,6.47,16.65c.23.48.47,1,.71,1.42h0a106,106,0,0,0,9,14.68v0s-8.78-10.38-16.27-32.09h0l-5.69,4.06"/>
        </g>
        <path class="cls-3" d="M168.88,126.48a2,2,0,0,1-.06.34,6.94,6.94,0,0,1-.28,1.11c0,.17-.1.33-.15.49s-.17.44-.27.65-.16.36-.25.53-.19.36-.29.53-.19.33-.29.49l0,0-.32.48-.35.48-.3.38a.5.5,0,0,0-.07.08c-.25.3-.51.58-.76.86-.4.41-.8.79-1.21,1.14s-.8.67-1.19,1l-.37.27c-.42.31-.82.57-1.18.79a12.89,12.89,0,0,1-1.62.88s.09,1-3,2.71a8.47,8.47,0,0,1-1.55.62,6,6,0,0,1-1.07.22l-.25,0a3.7,3.7,0,0,1-2-.4,2.61,2.61,0,0,1-.55-.36,3.86,3.86,0,0,1-.67-.67,7.48,7.48,0,0,1-1.3-2.83l-.12-.54a11.16,11.16,0,0,1-.21-1.67s-4.14,1.15-6.8-1.14c-3.3-4.54,3.24-9.59,3.4-9.32.74-6.64,6.4-6.76,6.27-6.65,9.87-8.16,10.13,1,10.13,1s3.87-2.68,6.08,3.14A10.48,10.48,0,0,1,168.88,126.48Z"/>
      </g>
      <path class="cls-4" d="M175.41,166c-1,1.33-2.13,1.87-4.23,2.92-1.47.73-2,1.21-3.3,1.34-1.35-3.92-2.46-7.23-3.23-9.58a7.28,7.28,0,0,0,2.54-.92,10.35,10.35,0,0,0,3.18-2.27C172,160.42,173.75,163.65,175.41,166Z"/>
      <path class="cls-4" d="M167.23,151.79c.25,1.1-2.71,3-4.44,2.5-.49-1.68-1-3.15-1.47-4.85a37.15,37.15,0,0,0-1-3.94c1,.24,3.31-.77,3.62-1.44C164.78,146.47,166.05,149.19,167.23,151.79Z"/>
      <path class="cls-6" d="M168.88,126.48a2,2,0,0,1-.06.34,6.94,6.94,0,0,1-.28,1.11c0,.17-.1.33-.15.49s-.17.44-.27.65-.16.36-.25.53-.19.36-.29.53-.19.33-.29.49l0,0-.32.48-.35.48-.3.38a.5.5,0,0,0-.07.08c-.25.3-.51.58-.76.86-.4.41-.8.79-1.21,1.14s-.8.67-1.19,1l-.37.27c-.42.31-.82.57-1.18.79a12.89,12.89,0,0,1-1.62.88s.09,1-3,2.71a8.47,8.47,0,0,1-1.55.62,6,6,0,0,1-1.07.22l-.25,0a3.7,3.7,0,0,1-2-.4,2.61,2.61,0,0,1-.55-.36,3.86,3.86,0,0,1-.67-.67,7.48,7.48,0,0,1-1.3-2.83l-.12-.54a11.16,11.16,0,0,1-.21-1.67s-4.14,1.15-6.8-1.14c-3.3-4.54,3.24-9.59,3.4-9.32.74-6.64,6.4-6.76,6.27-6.65,9.87-8.16,10.13,1,10.13,1s3.87-2.68,6.08,3.14A10.48,10.48,0,0,1,168.88,126.48Z"/>
      <g>
        <path class="cls-6" d="M168.88,126.48a2,2,0,0,1-.06.34,6.94,6.94,0,0,1-.28,1.11c0,.17-.1.33-.15.49s-.17.44-.27.65-.16.36-.25.53-.19.36-.29.53-.19.33-.29.49l0,0-.32.48-.35.48-.3.38a.5.5,0,0,0-.07.08c-.25.3-.51.58-.76.86-.4.41-.8.79-1.21,1.14s-.8.67-1.19,1l-.37.27c-.42.31-.82.57-1.18.79a12.89,12.89,0,0,1-1.62.88s.09,1-3,2.71a8.47,8.47,0,0,1-1.55.62,5.23,5.23,0,0,1-1.07.22l-.25,0a3.59,3.59,0,0,1-2-.4,2.61,2.61,0,0,1-.55-.36,3.27,3.27,0,0,1-.67-.67,7.48,7.48,0,0,1-1.3-2.83l-.12-.54a11.16,11.16,0,0,1-.21-1.67s-4.14,1.15-6.8-1.14c-3.3-4.54,3.24-9.59,3.4-9.32.74-6.64,6.4-6.76,6.27-6.65,9.87-8.16,10.13,1,10.13,1s3.87-2.68,6.08,3.14A10.48,10.48,0,0,1,168.88,126.48Z"/>
        <path class="cls-5" d="M162.42,118.46c-3.37,1.64-7.59,5.68-5.49,9.67,2.15,1.15,5.22-.39,6.93-1.88a9,9,0,0,1-4.53,2.45,3.46,3.46,0,0,1-2.64-.28c-.39-.26-.48-.85-.6-1.26a6.91,6.91,0,0,1,1.76-6.23,15.42,15.42,0,0,1,4.12-3.36l.45.89Z"/>
        <path class="cls-5" d="M152.55,117.1c-.69,2.82-3.08,12.54,2.2,11.71a7.71,7.71,0,0,0,1.9-.68,7.3,7.3,0,0,1-1.88.8c-4.36,1-4-5.2-3.79-8a35.68,35.68,0,0,1,.6-4.09l1,.24Z"/>
        <path class="cls-5" d="M146.3,123.62c.06,2.35.3,9.61,4.2,7.33a11,11,0,0,0,2.61-2.45,11.34,11.34,0,0,1-2.47,2.66c-2.8,2.11-4.39-1.61-4.81-3.86a25,25,0,0,1-.53-3.66l1,0Z"/>
        <path class="cls-5" d="M159.92,137.49a6.65,6.65,0,0,1-6.19-4.31,6.19,6.19,0,0,0,6.13,3.32l.06,1Z"/>
      </g>
    </g>
    <path class="cls-20" d="M187.35,133.5c-4.75,5.28-13,2.82-4.26-2.85a31.63,31.63,0,0,1,5.52-3.27,1.23,1.23,0,0,1,1.66.93C190.43,129.48,189.52,131.05,187.35,133.5Z"/>
  </g>
</svg>
