<svg id="Layer_1" data-name="Layer 1" xmlns="http://www.w3.org/2000/svg" xmlns:xlink="http://www.w3.org/1999/xlink" width="389.1" height="416.18" viewBox="0 0 389.1 416.18">
  <defs>
    <style>
      .cls-1, .cls-13, .cls-6 {
        fill: none;
      }

      .cls-2 {
        clip-path: url(#clip-path);
      }

      .cls-3 {
        fill: #de1959;
      }

      .cls-18, .cls-4 {
        fill: #ee4984;
      }

      .cls-5 {
        fill: #991a5a;
      }

      .cls-6 {
        stroke: #991a5a;
      }

      .cls-13, .cls-18, .cls-6 {
        stroke-miterlimit: 10;
      }

      .cls-7 {
        fill: #e10058;
      }

      .cls-8 {
        fill: #f7f5f2;
      }

      .cls-9 {
        opacity: 0.28;
      }

      .cls-10 {
        fill: #9642e7;
      }

      .cls-11 {
        fill: #130101;
      }

      .cls-12 {
        fill: #b71a53;
      }

      .cls-13 {
        stroke: #050505;
      }

      .cls-14 {
        fill: #680d2e;
      }

      .cls-15 {
        fill: #ff839b;
      }

      .cls-16 {
        fill: #fff3df;
      }

      .cls-17 {
        fill: #fff;
        opacity: 0.3;
      }

      .cls-18 {
        stroke: #96154a;
      }

      .cls-19 {
        fill: #f49093;
      }
    </style>
    <clipPath id="clip-path">
      <rect class="cls-1" x="-3740.76" y="1120.94" width="1600" height="900"/>
    </clipPath>
  </defs>
  <g>
    <g>
      <path class="cls-3" d="M194.21,260.63c.36,5.94.64,11.24.87,15.9,0,.13,0,.27,0,.4q.22,4.49.37,8.15c.06,1.52.11,2.92.16,4.23s.08,2.3.12,3.34c.11,2.48.24,4.56.52,6.64a44,44,0,0,0,1.09,5.36c2,7.56,6,15.19,8.08,19.26.89,1.73,1.69,3.13,2.17,4.09.76-.33,19.28,32.15-.27,31.8-4,3-7-14.66-7.23-15.09-4.94-9.59-5.89-13.58-5.89-13.58-3.44-14.77-6.88-18.69-4.15-22.17a7,7,0,0,1,3.76-2.32q-1.16-3.3-2.29-6.62l-2.13-6.16c-1-2.94-2-5.87-3-8.81-.82-2.39-1.65-4.79-2.48-7.18l-3-8.68-2.22-6.45A30.83,30.83,0,0,0,194.21,260.63Z"/>
      <path class="cls-4" d="M195.58,276.37c-.15.19-.31.38-.48.56q.22,4.49.37,8.15a27.63,27.63,0,0,1-8.2.11l-.9-.14c-.82-2.39-1.65-4.79-2.48-7.18a28.81,28.81,0,0,0,7-.34,32.37,32.37,0,0,0,4.15-1Z"/>
      <path class="cls-4" d="M195.93,292.58c.09,2.56.19,4.68.39,6.7a17.61,17.61,0,0,1-5.12.74c-.72-2-1.42-4.11-2.13-6.16a18.47,18.47,0,0,0,2.72-.17A17.37,17.37,0,0,0,195.93,292.58Z"/>
      <path class="cls-5" d="M207.05,359.89c1.71-4.06,1-7.22-2.18-10.26a6.24,6.24,0,0,1,2.18,10.26Z"/>
      <path class="cls-5" d="M212.46,358.94c1.71-4.06,1-7.22-2.18-10.25a6.23,6.23,0,0,1,2.18,10.25Z"/>
      <path class="cls-6" d="M194.21,260.63c.36,5.94.64,11.24.87,15.9,0,.13,0,.27,0,.4q.22,4.49.37,8.15c.06,1.52.11,2.92.16,4.23s.08,2.3.12,3.34c.11,2.48.24,4.56.52,6.64a44,44,0,0,0,1.09,5.36c2,7.56,6,15.19,8.08,19.26.84,1.65,1.62,3,2.1,3.95l.13.15c1.85,3.86,18.87,32.13-.33,31.79-4,3-7-14.66-7.23-15.09-4.94-9.59-5.89-13.58-5.89-13.58-3.44-14.77-6.88-18.69-4.15-22.17a7,7,0,0,1,3.76-2.32q-1.16-3.3-2.29-6.62l-2.13-6.16c-1-2.94-2-5.87-3-8.81-.82-2.39-1.65-4.79-2.48-7.18l-3-8.68,4-6.31A34.1,34.1,0,0,0,194.21,260.63Z"/>
    </g>
    <g>
      <g>
        <path class="cls-3" d="M253.51,280.27c-22.33,13.55-29.65-5.86-24.89-15.62a22.17,22.17,0,0,1,2.2-3.36,47.92,47.92,0,0,1,3.56-4.86c1-1.19,2-2.32,3-3.41,1.9-2,7.66-10.16,9.36-11.67-34.07-9.93-15-18-15-18,.79-.06,4.76,4.1,6.14,4.07,4.39-.16,26.11,7.14,27.41,13.23.47,2.16-1.62,3.83-11.32,11.34l-1.77,1.36-4.09,3.2c-2,1.54-3.57,2.81-4.74,3.71-6.32,6.06-8.32,7.83-.67,11.24,5.21,2.32,9.55,2.91,11.46,5.38C255.57,278.66,254.8,279.07,253.51,280.27Z"/>
        <path class="cls-4" d="M254.37,251.69c-.24.12-6.94,5.38-7,5.38a70.44,70.44,0,0,1-11.7-1.89,22.34,22.34,0,0,1,4.89-5.69c5.23,1.46,8.23,1.61,13.69,2.19Z"/>
        <path class="cls-4" d="M247.83,243.25c-4.91-.41-4.33-1.47-9.16-2.54-.14-.11,7-9.8,8.9-11,5.23,1.46,12.9,5.86,12.9,5.86S247.85,243.25,247.83,243.25Z"/>
        <path class="cls-6" d="M253.51,280.27c-22.33,13.55-29.65-5.86-24.89-15.62a22.17,22.17,0,0,1,2.2-3.36,47.92,47.92,0,0,1,3.56-4.86c1-1.19,2-2.32,3-3.41,1.9-2,7.66-10.16,9.36-11.67-34.07-9.93-15-18-15-18,.79-.06,4.76,4.1,6.14,4.07,4.39-.16,26.11,7.14,27.41,13.23.47,2.16-1.62,3.83-11.32,11.34l-1.77,1.36-4.09,3.2c-2,1.54-3.57,2.81-4.74,3.71-6.32,6.06-8.32,7.83-.67,11.24,5.21,2.32,9.55,2.91,11.46,5.38C255.57,278.66,254.8,279.07,253.51,280.27Z"/>
      </g>
      <path class="cls-5" d="M240.88,285.34c1.72-4.06,1-7.22-2.17-10.25a6.23,6.23,0,0,1,2.17,10.25Z"/>
      <path class="cls-5" d="M247.34,283.17c1.35-3.5.32-6.15-2.19-8.74a6.51,6.51,0,0,1,2.17,1.45,5.13,5.13,0,0,1,0,7.29Z"/>
    </g>
    <g>
      <g>
        <g>
          <path class="cls-3" d="M202.57,150.61c-3.17,10.69,10.45,20.5,13.93,18.56-5.09-29.67-6.28-35.23-7.19-38.5-.68-2.49-1.11-5-1.78-7.52a13.14,13.14,0,0,1-.73-4.35c0-1.34.32-1.75.86-4.14a8.57,8.57,0,0,1-1.65.22c-3.54,0-4.7-.85-5.77-.9l.47.14a103.74,103.74,0,0,1,2.46,17.69c0,.53.05,1.06.07,1.59h0C203.51,139.84,202.57,150.61,202.57,150.61Z"/>
          <path class="cls-6" d="M216.39,169c-5.1-29.67-6.29-35.23-7.2-38.49-.67-2.5-1.1-5-1.77-7.52a13.18,13.18,0,0,1-.73-4.35c0-1.35.75-1,1.3-3.36a56.76,56.76,0,0,1-6-1.49c-.08,0-1.44.14-1.38.16a104,104,0,0,1,2.46,17.69c0,.53.05,1.06.07,1.59h0a106.15,106.15,0,0,1-.67,17.18v0s2.62-13.33-1.42-35.95h0l7,.79"/>
        </g>
        <path class="cls-3" d="M189.91,109.69c.07.08.14.18.22.26a7.76,7.76,0,0,0,.78.84l.38.35c.18.15.36.3.55.44s.31.23.48.34.33.22.51.32l.49.28.05,0,.52.27.53.24c.16.07.3.14.45.19l.1,0c.36.14.72.26,1.08.38.55.16,1.09.3,1.61.41s1,.19,1.5.25l.47.06c.52.06,1,.1,1.41.11a12.5,12.5,0,0,0,1.84,0s.39.87,3.92.92a8.79,8.79,0,0,0,1.66-.22,6.69,6.69,0,0,0,1-.33l.23-.1a3.73,3.73,0,0,0,1.55-1.33,3.46,3.46,0,0,0,.3-.57,4.2,4.2,0,0,0,.26-.92,7.44,7.44,0,0,0-.25-3.1l-.15-.53a11.44,11.44,0,0,0-.63-1.57s4.17-1,5.38-4.3c.67-5.58-7.5-6.8-7.51-6.49-3.88-5.44-8.88-2.78-8.71-2.75-12.6-2.32-8.35,5.84-8.35,5.84s-4.68-.47-3.78,5.69A10.6,10.6,0,0,0,189.91,109.69Z"/>
      </g>
      <path class="cls-4" d="M203.47,147.41c1.49.69,2.77.6,5.12.49,1.64-.08,2.35.08,3.54-.44-.73-4.09-1.38-7.51-1.85-9.94a7.4,7.4,0,0,1-2.67.43,10.21,10.21,0,0,1-3.88-.43C203.69,140.86,203.77,144.52,203.47,147.41Z"/>
      <path class="cls-4" d="M203.68,131c.32,1.08,3.83,1.29,5.1,0-.39-1.71-.63-3.26-1.08-4.95a33.65,33.65,0,0,1-1-4c-.76.7-3.27.94-3.86.51C203.23,125.14,203.45,128.13,203.68,131Z"/>
      <path class="cls-6" d="M189.91,109.69c.07.08.14.18.22.26a7.76,7.76,0,0,0,.78.84l.38.35c.18.15.36.3.55.44s.31.23.48.34.33.22.51.32l.49.28.05,0,.52.27.53.24c.16.07.3.14.45.19l.1,0c.36.14.72.26,1.08.38.55.16,1.09.3,1.61.41s1,.19,1.5.25l.47.06c.52.06,1,.1,1.41.11a12.5,12.5,0,0,0,1.84,0s.39.87,3.92.92a8.79,8.79,0,0,0,1.66-.22,6.69,6.69,0,0,0,1-.33l.23-.1a3.73,3.73,0,0,0,1.55-1.33,3.46,3.46,0,0,0,.3-.57,4.2,4.2,0,0,0,.26-.92,7.44,7.44,0,0,0-.25-3.1l-.15-.53a11.44,11.44,0,0,0-.63-1.57s4.17-1,5.38-4.3c.67-5.58-7.5-6.8-7.51-6.49-3.88-5.44-8.88-2.78-8.71-2.75-12.6-2.32-8.35,5.84-8.35,5.84s-4.68-.47-3.78,5.69A10.6,10.6,0,0,0,189.91,109.69Z"/>
      <g>
        <path class="cls-6" d="M189.91,109.69c.07.08.14.18.22.26a7.76,7.76,0,0,0,.78.84l.38.35c.18.15.36.3.55.44s.31.23.48.34.33.22.51.32l.49.28.05,0,.52.27.53.24c.16.07.3.14.45.19l.1,0c.36.14.72.26,1.08.38.55.16,1.09.3,1.61.41s1,.19,1.5.25l.47.06c.52.06,1,.1,1.41.11a12.5,12.5,0,0,0,1.84,0s.39.87,3.92.92a8.79,8.79,0,0,0,1.66-.22,4.71,4.71,0,0,0,1-.33l.23-.1a3.67,3.67,0,0,0,1.55-1.33,3.46,3.46,0,0,0,.3-.57,3.84,3.84,0,0,0,.26-.92,7.44,7.44,0,0,0-.25-3.1l-.15-.53a11.44,11.44,0,0,0-.63-1.57s4.17-1,5.38-4.3c.67-5.58-7.5-6.8-7.51-6.49-3.88-5.44-8.88-2.78-8.71-2.75-12.6-2.32-8.35,5.84-8.35,5.84s-4.68-.47-3.78,5.69A10.6,10.6,0,0,0,189.91,109.69Z"/>
        <path class="cls-5" d="M191.6,98.53c3.83.06,8.72,1.35,9.82,5.52l.15.65c.22,1.28-1.31,2-2.24,2.28a9,9,0,0,1-5.14,0c2.21.48,5.65.33,7-1.73.09-2.47-2.29-4.47-4.56-5.13a14.6,14.6,0,0,0-5-.64l0-1Z"/>
        <path class="cls-5" d="M200.33,92.86c2,2.45,8.53,10.36,3.1,12.1a7.82,7.82,0,0,1-2,.21,7.41,7.41,0,0,0,2-.33c5-1.85-1.8-9.16-3.78-11.3l.72-.68Z"/>
        <path class="cls-5" d="M209.12,95.72c2.46,5.12,3.59,12-4.45,8,1.57.53,3.56,1.41,5.09.47,1.84-1.83-.56-6.11-1.52-8l.88-.47Z"/>
        <path class="cls-5" d="M202.67,114a6.16,6.16,0,0,0,3.73-5.89,6,6,0,0,1-.55,3.84,7.42,7.42,0,0,1-2.75,3l-.43-.9Z"/>
      </g>
    </g>
    <path class="cls-7" d="M229.57,242.6l-.95,4.74C228.59,245.25,228.77,243.27,229.57,242.6Z"/>
    <path class="cls-4" d="M221.93,181.59c-.31.23,12.48,1.33,9.51,9.55,0-.37-3.82-6.89-6.42-4.52.1.39,7.33,18.72,19.18,22.68-.29.12-2.73,6.18-9,6.67-.09,0,3.83,4,10.69,1.22a8.8,8.8,0,0,1-9.41,5.17c.86.12,9.67,1.54,11.5,10.43-.24-.09-6.83-6.41-12.4-5.53.14.07,17.79,15.2,12,25.5,0-.26-5.37-16.15-16.1-12.43.26,0,12.22,11.45,6.89,20.81.21-.07-4.23-8.33-9.8-8.77.11-.08,3.17,20.76-15.1,24.81.15-.11,5.23-8.73,2-14.26.05.74-5.58,13.05-13.76,15.1.11,0,5.89-11.87-2.72-11.38a15.42,15.42,0,0,1-3.38,9.73c-.15.19-.31.38-.48.56a13.53,13.53,0,0,1-4.85,3.34,9.05,9.05,0,0,0,.68-2.74c.56-3.71.62-10.2-3.52-13.37a52.77,52.77,0,0,1-6.52,5c-2.18,1.37-4.46,2.39-6,2,0,0,3-6.15-1.52-9.86,0,.49-5.25,15.57-18.77,10a16.7,16.7,0,0,0,7.25-7,18.23,18.23,0,0,0,1.8-8.83,27.49,27.49,0,0,0-1.66-9.35c-3.21-9.33-9.72-35.7-11.93-38.89a1,1,0,0,0-.44-.36c-1.76-.57-5.17,5.87-5.17,5.87s-3.85-10.28-2-13.64-1.5-11-1.5-11a13.7,13.7,0,0,0,.82-7.86c-.7-2.42-17.32-32,2.89-50.65s39-7.2,43.1-4,14.29,19.33,16.4,20.71,7.45,4.14,7.62,6.17-1.29,8.15-.48,9.24,8.64,14.12,15,12.4C231.7,173.05,225.77,180.78,221.93,181.59Z"/>
    <path class="cls-6" d="M222.06,181.75c-.31.23,12.48,1.33,9.51,9.56,0-.37-3.82-6.89-6.42-4.52.1.39,7.34,18.71,19.18,22.68-.29.12-2.72,6.18-9,6.66-.09,0,3.83,4,10.69,1.22a8.8,8.8,0,0,1-9.41,5.18c.86.11,9.68,1.54,11.5,10.43-.23-.09-6.83-6.41-12.4-5.54.14.08,17.8,15.2,12,25.5,0-.25-5.37-16.15-16.1-12.42.26,0,12.22,11.44,6.9,20.81.21-.07-4.24-8.34-9.81-8.77.12-.09,3.18,20.75-15.09,24.8.14-.1,5.23-8.73,2-14.26.06.74-5.58,13.06-13.75,15.1.11,0,5.88-11.86-2.73-11.37a15.44,15.44,0,0,1-3.37,9.73l-.49.56a13.69,13.69,0,0,1-4.85,3.34,9.25,9.25,0,0,0,.69-2.75c.55-3.7.61-10.19-3.53-13.36a54.31,54.31,0,0,1-6.52,5c-2.18,1.37-4.46,2.39-6,2,0-.05,3-6.15-1.52-9.86,0,.49-5.25,15.57-18.76,10a16.72,16.72,0,0,0,7.24-7,18.13,18.13,0,0,0,1.8-8.84,27.55,27.55,0,0,0-1.66-9.35c-3.21-9.33-9.71-35.69-11.93-38.88a.86.86,0,0,0-.44-.36c-1.76-.58-5.17,5.86-5.17,5.86s-3.85-10.27-2-13.64-1.5-11-1.5-11a13.81,13.81,0,0,0,.83-7.87c-.7-2.41-17.33-32,2.88-50.64s39-7.21,43.1-4,14.29,19.33,16.4,20.71,7.45,4.14,7.63,6.17-1.3,8.14-.49,9.24,8.64,14.12,15,12.39C231.83,173.21,225.9,181,222.06,181.75Z"/>
    <path class="cls-8" d="M197.43,139.11c1.93,2.56,4.72,6.27,4.17,10.83a8.94,8.94,0,0,1-2.61,5.51,8.17,8.17,0,0,1-2.46,1.54,9.2,9.2,0,0,1-5.12.73,7.42,7.42,0,0,1-1.24-.28,18.19,18.19,0,0,1-7.4-4.7c-3.49-3.91-6.7-13-2.12-17.26,3.34-3.14,9.51-2.59,13.23-.15A15.12,15.12,0,0,1,197.43,139.11Z"/>
    <path class="cls-9" d="M185.85,133.33a8.51,8.51,0,0,0-5.4,2.13c-4.54,4.32-1.35,13.41,2.16,17.28a17.86,17.86,0,0,0,7.4,4.7,12.32,12.32,0,0,0,1.23.29,9.29,9.29,0,0,0,5.12-.73,8.89,8.89,0,0,0,2.46-1.55l.46-.45a7.78,7.78,0,0,1-1.38,1.72,9.58,9.58,0,0,1-2.6,1.65,10.49,10.49,0,0,1-5.4.81,8.69,8.69,0,0,1-1.32-.29,19.09,19.09,0,0,1-7.81-5c-3.68-4.12-7.07-13.68-2.23-18.27A9.44,9.44,0,0,1,185.85,133.33Z"/>
    <g>
      <ellipse class="cls-10" cx="195.78" cy="148.87" rx="4.44" ry="5.79" transform="translate(-39.45 77.05) rotate(-20.27)"/>
      <ellipse class="cls-11" cx="195.65" cy="148.61" rx="2.37" ry="3.09" transform="translate(-39.37 76.99) rotate(-20.27)"/>
      <ellipse class="cls-8" cx="193.7" cy="146.86" rx="0.87" ry="1.13" transform="translate(-38.89 76.21) rotate(-20.27)"/>
    </g>
    <path class="cls-6" d="M197.43,139.11c1.93,2.56,4.72,6.27,4.17,10.83a8.94,8.94,0,0,1-2.61,5.51,8.17,8.17,0,0,1-2.46,1.54,9.2,9.2,0,0,1-5.12.73,7.42,7.42,0,0,1-1.24-.28,18.19,18.19,0,0,1-7.4-4.7c-3.49-3.91-6.7-13-2.12-17.26,3.34-3.14,9.51-2.59,13.23-.15A15.12,15.12,0,0,1,197.43,139.11Z"/>
    <path class="cls-8" d="M178.09,152.22c2,3.08,5,7.56,4.06,12.78a10.39,10.39,0,0,1-3.4,6.18,9.79,9.79,0,0,1-2.95,1.62,10.61,10.61,0,0,1-6,.48,8.41,8.41,0,0,1-1.41-.41,21,21,0,0,1-8.22-5.93c-3.76-4.76-6.83-15.43-1.25-20.08,4.06-3.39,11.15-2.32,15.28.75A17.77,17.77,0,0,1,178.09,152.22Z"/>
    <path class="cls-9" d="M165.11,144.75a9.77,9.77,0,0,0-6.37,2.09c-5.55,4.66-2.49,15.37,1.29,20.09a20.73,20.73,0,0,0,8.22,5.93,14.24,14.24,0,0,0,1.4.42,10.78,10.78,0,0,0,6-.49,10,10,0,0,0,2.95-1.62c.18-.15.38-.34.56-.48a9.42,9.42,0,0,1-1.72,1.89,11,11,0,0,1-3.11,1.72,12.1,12.1,0,0,1-6.29.56,9.23,9.23,0,0,1-1.5-.42,22.07,22.07,0,0,1-8.67-6.28c-4-5-7.22-16.27-1.32-21.24A10.89,10.89,0,0,1,165.11,144.75Z"/>
    <ellipse class="cls-10" cx="174.54" cy="163.31" rx="5.13" ry="6.7" transform="translate(-33.25 45.18) rotate(-13.48)"/>
    <ellipse class="cls-11" cx="175.13" cy="162.86" rx="2.74" ry="3.57" transform="translate(-33.13 45.3) rotate(-13.48)"/>
    <ellipse class="cls-8" cx="172.89" cy="161.61" rx="1" ry="1.31" transform="translate(-32.9 44.75) rotate(-13.48)"/>
    <path class="cls-6" d="M178.09,152.22c2,3.08,5,7.56,4.06,12.78a10.39,10.39,0,0,1-3.4,6.18,9.79,9.79,0,0,1-2.95,1.62,10.61,10.61,0,0,1-6,.48,8.41,8.41,0,0,1-1.41-.41,21,21,0,0,1-8.22-5.93c-3.76-4.76-6.83-15.43-1.25-20.08,4.06-3.39,11.15-2.32,15.28.75A17.77,17.77,0,0,1,178.09,152.22Z"/>
    <path class="cls-12" d="M151.7,139.38c-.12.05-5.34,1.52-5.61,2.75s.46,2.62,2.56,2c0,0-5,3.95-2.07,5.69-.16,0-2.85,4,.74,3.74-.16.11-.94,4.09,1.68,4.33.26-7.49,1.67-10.33,3-11.49a15.58,15.58,0,0,0,2-2.17c1.16-1.49,2.15-2.75,1.77-3.69S153.71,139.11,151.7,139.38Z"/>
    <path class="cls-12" d="M172.36,129c0-.09.84-3.78,1.68-4s1.85.21,1.47,1.69c0,0,2.54-3.66,3.88-1.67,0-.11,2.66-2.15,2.63.36.07-.12,2.81-.82,3.09,1-5.2.49-7.12,1.59-7.87,2.56a11.63,11.63,0,0,1-1.43,1.51c-1,.87-1.83,1.61-2.49,1.38S172.26,130.36,172.36,129Z"/>
    <path class="cls-5" d="M206.72,167.44a30.8,30.8,0,0,0,5.25-11A31.22,31.22,0,0,1,207.53,168l-.81-.59Z"/>
    <path class="cls-13" d="M162.24,180.13h0"/>
    <path class="cls-14" d="M225.52,186.84c0,.34-.06.68-.1,1a20.59,20.59,0,0,1-1.56,5.81,23.86,23.86,0,0,1-4.3,6.62c-.08.1-.17.19-.25.28l-.51.53c-.25.26-.51.53-.77.78l-.25.24c-.27.25-.54.5-.82.74-.76.66-1.54,1.29-2.36,1.87l-.19.15c-1,.72-2,1.41-3.1,2l-.76.42q-1.19.67-2.4,1.26l-.82.38-.09,0h0c-5.94,2.72-12.08,4-16.32,3.84a11.67,11.67,0,0,1-2.8-.41l-.4-.13a29.17,29.17,0,0,1-4.18-2.85c-11.46-9.22-19.9-27.55-21.71-29.76A30.93,30.93,0,0,0,166,183a22.86,22.86,0,0,0,6.52,2.94,18.67,18.67,0,0,0,4.32.68l.18,0a24.37,24.37,0,0,0,2.84-.08,26.23,26.23,0,0,0,9-2.65c.58-.28,1.15-.58,1.71-.89l.71-.41.06,0,.93-.57h0c.62-.39,1.22-.8,1.82-1.21a54.32,54.32,0,0,0,5.63-4.59l.17-.16c1.37-1.29,2.58-2.54,3.63-3.69.84-.91,1.56-1.76,2.17-2.49.37-.44.7-.84,1-1.18.12-.14.23-.29.34-.44l.2-.26c.72,1.47,1.44,2.82,2.15,4.07C218.21,187.76,225.43,187.44,225.52,186.84Z"/>
    <path class="cls-15" d="M225.42,187.85a20.59,20.59,0,0,1-1.56,5.81,23.86,23.86,0,0,1-4.3,6.62c-.08.1-.17.19-.25.28l-.51.53c-.25.26-.51.53-.77.78l-.25.24c-.27.25-.54.5-.82.74-.76.66-1.54,1.29-2.36,1.87l-.19.15c-1,.72-2,1.41-3.1,2l-.76.42q-1.19.67-2.4,1.26l-.82.38-.09,0h0c-5.94,2.72-12.08,4-16.32,3.84a11.67,11.67,0,0,1-2.8-.41l-.4-.13a29.17,29.17,0,0,1-4.18-2.85c4.32-4.82,12.34-11.52,23-10.58C207.05,198.31,212.75,186.16,225.42,187.85Z"/>
    <g>
      <path class="cls-16" d="M199.88,176c0,.11,0,.23.05.35s.08.43.12.67a.68.68,0,0,1,0,.15c0,.13.06.26.08.4.39,2,.69,2.75.82,3.5a4.69,4.69,0,0,1-1.68,4.63c-1.58,1.06-5,.64-9.06-1.18q-.67-.3-1.38-.66c.58-.28,1.15-.58,1.71-.89l.71-.41.06,0,.93-.57h0c.62-.39,1.22-.8,1.82-1.21a54.32,54.32,0,0,0,5.63-4.59Z"/>
      <path class="cls-16" d="M190.56,183c-.1.4-.21.91-.33,1.55a.59.59,0,0,0,0,.14s0,.08,0,.14-.05.27-.07.4c-.34,2-.33,2.82-.47,3.57a4.63,4.63,0,0,1-3.21,3.73c-1.8.43-4.76-1.09-7.84-4.07-.58-.56-1.17-1.18-1.75-1.86l.18,0a24.37,24.37,0,0,0,2.84-.08,26.23,26.23,0,0,0,9-2.65C189.43,183.59,190,183.29,190.56,183Z"/>
      <path class="cls-16" d="M179.86,186.52c-.17.24-.36.51-.56.82l-.08.12a4,4,0,0,0-.22.34c-.15.23-.29.44-.41.64-.79,1.26-1.06,1.91-1.44,2.46a4.7,4.7,0,0,1-4.42,2.16c-2.29-.42-5-4.33-6.73-10.1a22.86,22.86,0,0,0,6.52,2.94,18.67,18.67,0,0,0,4.32.68l.18,0A24.37,24.37,0,0,0,179.86,186.52Z"/>
      <path class="cls-16" d="M207,168.21c2.25,6.33.52,10.49-2.32,10.49a7.18,7.18,0,0,1-4-1.73c-.17-.14-.35-.26-.51-.4l-.26-.21-.22-.19.17-.16c1.37-1.29,2.58-2.54,3.63-3.69.84-.91,1.56-1.76,2.17-2.49.37-.44.7-.84,1-1.18C206.77,168.51,206.88,168.36,207,168.21Z"/>
      <path class="cls-16" d="M207.23,209c-5.93,2.72-12.07,4-16.31,3.84a11.67,11.67,0,0,1-2.8-.41c0-2.6.42-5.94,2.67-7.36s5.64-.27,11.52,1.83A51.1,51.1,0,0,1,207.23,209Z"/>
      <path class="cls-16" d="M216.29,203.34c-.55.48-1.11.94-1.69,1.38l-.19.15c-1,.72-2,1.41-3.1,2l-.76.42q-1.19.67-2.4,1.26l-.82.38a6,6,0,0,1-2.46-3.61c-.34-1.61-.23-4,1.06-5.1C207.76,198.67,212.19,199.5,216.29,203.34Z"/>
      <path class="cls-16" d="M223.86,193.66a23.86,23.86,0,0,1-4.3,6.62q-.75.83-1.53,1.59l-.24.24h0a6.32,6.32,0,0,1-3.73-2.75c-.87-1.43-1.55-3.74-.7-5.22C214.54,192.11,218.84,191.5,223.86,193.66Z"/>
    </g>
    <path class="cls-6" d="M209.3,171.77q-1.06-1.87-2.14-4.07l-.54.7c-.27.34-.6.74-1,1.18-.61.72-1.33,1.58-2.17,2.49a59.26,59.26,0,0,1-9.43,8.44c-.6.41-1.2.82-1.82,1.2h0l-.93.57-.06,0a26.15,26.15,0,0,1-14.25,4,19.67,19.67,0,0,1-4.5-.7,25.6,25.6,0,0,1-10.57-6.08s0,0,0,0c2.24,3,12.44,25.09,25.79,32.49.13.05.26.08.4.12a11.16,11.16,0,0,0,2.8.42c4.24.17,10.38-1.12,16.32-3.85h0c.31-.13.6-.27.91-.42q1.22-.59,2.4-1.26l.76-.42a37.71,37.71,0,0,0,5.64-4.06,31.94,31.94,0,0,0,2.36-2.29,22.28,22.28,0,0,0,6.2-13.65s0,0,0,0C224.93,187.19,217.89,187,209.3,171.77Z"/>
    <g>
      <ellipse class="cls-17" cx="140.29" cy="160.76" rx="3.33" ry="6.65" transform="translate(-28.43 30.16) rotate(-11.15)"/>
      <ellipse class="cls-17" cx="149.1" cy="181.49" rx="5.31" ry="10.33" transform="translate(-45.28 49.64) rotate(-16.45)"/>
    </g>
    <path class="cls-5" d="M158.83,183c-.46-1.86-.12-4.71,1.66-5.48a6.72,6.72,0,0,1,2.28-.08,10.88,10.88,0,0,1,2.18.41c-.73.15-1.46.23-2.17.31-.54.06-1.4.14-1.91.26-1.19.59-1.62,3-2,4.58Z"/>
    <path class="cls-5" d="M175,183.19A39.53,39.53,0,0,0,206.21,163a41.42,41.42,0,0,0,2.4-5c-4,14.66-18.43,25.55-33.63,25.25Z"/>
    <path class="cls-5" d="M176.93,207.45c1.33,1.51,2.74,2.94,4.13,4.38,1.75,1.65,3.4,3.62,5.59,4.53,2.15.08,5-.58,7.25-.83a26.92,26.92,0,0,0,3-.51,38.4,38.4,0,0,1-8.78,2.25,4.51,4.51,0,0,1-1.68,0c-2.5-.92-4.21-3.1-5.92-5a34.94,34.94,0,0,1-3.55-4.9Z"/>
    <path class="cls-18" d="M145.35,129.83s-.81-5.47-9.55-1.55c0,.5,4.13-8.43,12-2,.44-.33-1.89-9.16-14.85-4.87-.06-.34,10.25-7.57,19.16,1.58-.16-.08.44-5.89-5.19-7,.16-.31,4.81-3.15,9.81,5.86"/>
    <path class="cls-18" d="M145.35,129.83s-.81-5.47-9.55-1.55c0,.5,4.13-8.43,12-2,.44-.33-1.89-9.16-14.85-4.87-.06-.34,10.25-7.57,19.16,1.58-.16-.08.44-5.89-5.19-7,.16-.31,4.81-3.15,9.81,5.86"/>
    <g>
      <path class="cls-18" d="M164.31,120.62s-6.84-22.8-18.4-18-5.23,19.22,1.91,8.37c1.55-3.59-.63-4.82-.63-4.82s6.17-2.11,14.15,14.38"/>
      <path class="cls-18" d="M164.31,120.62s-6.84-22.8-18.4-18-5.23,19.22,1.91,8.37c1.55-3.59-.63-4.82-.63-4.82s6.17-2.11,14.15,14.38"/>
      <path class="cls-19" d="M147.07,111c-2.75,4.19-7.38,4.11-5.06.58.55-1.27,3.13-2.8,4.32-3.83a.8.8,0,0,1,1.33.51A5.41,5.41,0,0,1,147.07,111Z"/>
    </g>
    <path class="cls-18" d="M144.74,133.83c-.39,0-7.81-9.78-20.58,8.26s4.15,27.44,5.69,11.54c.63-7.21-3.86-5.75-3.86-5.75s6.91-16.45,17.14-11.2"/>
    <path class="cls-18" d="M144.74,133.83c-.39,0-7.81-9.77-20.58,8.27s4.15,27.44,5.69,11.53c.64-7.21-3.86-5.75-3.86-5.75s6.91-16.45,17.15-11.2"/>
    <g>
      <g>
        <g>
          <path class="cls-3" d="M142.18,188.54c11,1.52,14.36,18,11.16,20.34-24.93-16.89-29.5-20.26-32.1-22.44-2-1.65-4.12-3.08-6.12-4.72a12.7,12.7,0,0,0-3.66-2.46c-1.23-.55-1.72-.44-4.12-.93a8.72,8.72,0,0,0,.88-1.42c1.42-3.23,1.16-4.63,1.55-5.62,0,.23,0,.42-.06.49a104,104,0,0,0,15.1,9.54c.47.24.94.49,1.42.72h0C132,185,142.18,188.54,142.18,188.54Z"/>
          <path class="cls-6" d="M153.24,208.72c-24.93-16.89-29.5-20.27-32.1-22.45-2-1.64-4.11-3.08-6.12-4.72a12.91,12.91,0,0,0-3.66-2.46c-1.22-.54-1.19.29-3.59-.21a56.87,56.87,0,0,0,1.13-6.08c0-.06.72-1.26.72-1.19a103,103,0,0,0,15.09,9.54c.47.25,1,.49,1.42.72h0a106,106,0,0,0,15.93,6.48h0s-13.23-3.12-32.15-16.14h0l-2.16,6.65"/>
        </g>
        <path class="cls-3" d="M110.14,160.11l.15.31a8.58,8.58,0,0,1,.43,1.05,4.75,4.75,0,0,1,.17.49c.06.23.12.45.17.69s.08.37.11.57.06.4.09.6,0,.37,0,.56c0,0,0,0,0,.06,0,.19,0,.39,0,.58s0,.4,0,.59,0,.33,0,.49a.45.45,0,0,1,0,.11c0,.38-.06.76-.1,1.13a16,16,0,0,1-.29,1.64c-.11.52-.24,1-.38,1.48,0,.15-.09.3-.14.44-.16.5-.32.95-.48,1.33a12.22,12.22,0,0,1-.78,1.68s.64.71-.78,4a9,9,0,0,1-.88,1.41,6,6,0,0,1-.73.82l-.19.16a3.82,3.82,0,0,1-1.85.87,3.55,3.55,0,0,1-.65,0,5.11,5.11,0,0,1-.94-.15,7.43,7.43,0,0,1-2.72-1.5l-.42-.36a12.34,12.34,0,0,1-1.17-1.22s-2.64,3.38-6.14,3.12c-5.36-1.69-3.09-9.64-2.81-9.52-3.35-5.77,1.14-9.24,1.09-9.07,3.09-12.43,8.77-5.19,8.77-5.19s1.51-4.46,6.75-1.1A10.75,10.75,0,0,1,110.14,160.11Z"/>
      </g>
      <path class="cls-4" d="M138.89,188c0,1.64-.6,2.77-1.67,4.86-.75,1.46-.89,2.18-1.85,3.05-3.43-2.36-6.28-4.36-8.29-5.79a7.59,7.59,0,0,0,1.49-2.25,10.05,10.05,0,0,0,1.2-3.72C132.84,185.53,136.14,187.11,138.89,188Z"/>
      <path class="cls-4" d="M123.85,181.45c.85.73-.4,4-2.08,4.65-1.4-1.06-2.71-1.92-4.07-3a35.69,35.69,0,0,0-3.17-2.56,4.85,4.85,0,0,0,2.06-3.31C118.71,178.62,121.35,180.05,123.85,181.45Z"/>
      <path class="cls-6" d="M110.14,160.11l.15.31a8.58,8.58,0,0,1,.43,1.05,4.75,4.75,0,0,1,.17.49c.06.23.12.45.17.69s.08.37.11.57.06.4.09.6,0,.37,0,.56c0,0,0,0,0,.06,0,.19,0,.39,0,.58s0,.4,0,.59,0,.33,0,.49a.45.45,0,0,1,0,.11c0,.38-.06.76-.1,1.13a16,16,0,0,1-.29,1.64c-.11.52-.24,1-.38,1.48,0,.15-.09.3-.14.44-.16.5-.32.95-.48,1.33a12.22,12.22,0,0,1-.78,1.68s.64.71-.78,4a9,9,0,0,1-.88,1.41,6,6,0,0,1-.73.82l-.19.16a3.82,3.82,0,0,1-1.85.87,3.55,3.55,0,0,1-.65,0,5.11,5.11,0,0,1-.94-.15,7.43,7.43,0,0,1-2.72-1.5l-.42-.36a12.34,12.34,0,0,1-1.17-1.22s-2.64,3.38-6.14,3.12c-5.36-1.69-3.09-9.64-2.81-9.52-3.35-5.77,1.14-9.24,1.09-9.07,3.09-12.43,8.77-5.19,8.77-5.19s1.51-4.46,6.75-1.1A10.75,10.75,0,0,1,110.14,160.11Z"/>
      <g>
        <path class="cls-6" d="M110.14,160.11l.15.31a8.58,8.58,0,0,1,.43,1.05,4.75,4.75,0,0,1,.17.49c.06.23.12.45.17.69s.08.37.11.57.06.4.09.6,0,.37,0,.56c0,0,0,0,0,.06,0,.19,0,.39,0,.58s0,.4,0,.59,0,.33,0,.49a.45.45,0,0,1,0,.11c0,.38-.06.76-.1,1.13a16,16,0,0,1-.29,1.64c-.12.52-.24,1-.38,1.48,0,.15-.09.3-.14.44-.16.5-.32.95-.48,1.33a12.22,12.22,0,0,1-.78,1.68s.64.71-.78,4a9,9,0,0,1-.88,1.41,5,5,0,0,1-.73.82l-.19.16a3.68,3.68,0,0,1-1.85.87,3.55,3.55,0,0,1-.65,0,3.76,3.76,0,0,1-.94-.15,7.43,7.43,0,0,1-2.72-1.5l-.42-.36a12.34,12.34,0,0,1-1.17-1.22s-2.64,3.38-6.14,3.12c-5.36-1.69-3.09-9.64-2.81-9.52-3.35-5.77,1.14-9.24,1.09-9.07,3.09-12.43,8.77-5.19,8.77-5.19s1.51-4.46,6.75-1.1A10.75,10.75,0,0,1,110.14,160.11Z"/>
        <path class="cls-5" d="M100.17,157.5c-1.38,2.85-2.38,6.68-.47,9.52.43.51,1.14,1.42,1.8,1.52a3.19,3.19,0,0,0,2.09-1.14,8.82,8.82,0,0,0,2.36-4.49,9,9,0,0,1-2.18,4.66c-.66.72-1.92,1.83-3,1.1l-.53-.4A6.94,6.94,0,0,1,98,162.2a15.41,15.41,0,0,1,1.32-5.15l.89.45Z"/>
        <path class="cls-5" d="M91.42,162.27c1.13,2.68,5,11.92,8.73,8.12a7.79,7.79,0,0,0,1.13-1.69,7.54,7.54,0,0,1-1,1.77c-2.92,3.37-6.31-1.8-7.79-4.17a36.37,36.37,0,0,1-2-3.65l.92-.38Z"/>
        <path class="cls-5" d="M90.27,171.23c1.44,1.85,6,7.56,7.74,3.4a11.3,11.3,0,0,0,.64-3.52,11.36,11.36,0,0,1-.41,3.61c-1,3.35-4.48,1.31-6.16-.25a23.92,23.92,0,0,1-2.6-2.63l.79-.61Z"/>
        <path class="cls-5" d="M109.47,174.29a6.65,6.65,0,0,1-7.54.21,6.17,6.17,0,0,0,6.9-1l.64.77Z"/>
      </g>
    </g>
    <path class="cls-19" d="M129.16,154.78c-.69,7.06-8.75,10-5.13.24a33,33,0,0,1,2.5-5.92,1.24,1.24,0,0,1,1.89-.24C129.24,149.71,129.44,151.51,129.16,154.78Z"/>
  </g>
</svg>
