<svg xmlns="http://www.w3.org/2000/svg" xmlns:xlink="http://www.w3.org/1999/xlink" width="279.53" height="218.34" viewBox="0 0 279.53 218.34">
  <defs>
    <style>
      .cls-1 {
        fill: none;
      }

      .cls-2 {
        isolation: isolate;
      }

      .cls-3 {
        clip-path: url(#clip-path);
      }

      .cls-4 {
        fill: url(#linear-gradient);
      }

      .cls-5 {
        opacity: 0.5;
        fill: url(#linear-gradient-2);
      }

      .cls-6 {
        fill: url(#linear-gradient-3);
      }

      .cls-7 {
        mix-blend-mode: screen;
        opacity: 0.13;
        fill: url(#linear-gradient-4);
      }

      .cls-8 {
        fill: #0c4c29;
      }

      .cls-10, .cls-11, .cls-9 {
        mix-blend-mode: multiply;
        opacity: 0.43;
      }

      .cls-9 {
        fill: url(#linear-gradient-5);
      }

      .cls-10 {
        fill: url(#linear-gradient-6);
      }

      .cls-11 {
        fill: url(#linear-gradient-7);
      }

      .cls-12 {
        clip-path: url(#clip-path-2);
      }

      .cls-13 {
        clip-path: url(#clip-path-3);
      }

      .cls-14 {
        opacity: 0.6;
        fill: url(#linear-gradient-8);
      }

      .cls-15 {
        fill: #f8f6f0;
      }

      .cls-16 {
        fill: #7e57a3;
      }

      .cls-17 {
        fill: #12170d;
      }

      .cls-18 {
        fill: #de195a;
      }
    </style>
    <clipPath id="clip-path">
      <rect class="cls-1" x="-1669.71" y="367.06" width="1600" height="900"/>
    </clipPath>
    <linearGradient id="linear-gradient" x1="-3540.64" y1="2889.48" x2="-3540.64" y2="-1324.87" gradientUnits="userSpaceOnUse">
      <stop offset="0.2" stop-color="#ffffca"/>
      <stop offset="0.67" stop-color="#9edcff"/>
      <stop offset="1" stop-color="#4e9dff"/>
    </linearGradient>
    <linearGradient id="linear-gradient-2" x1="-3541.52" y1="-1320.84" x2="-3487.69" y2="5180.09" gradientUnits="userSpaceOnUse">
      <stop offset="0.46" stop-color="#fff" stop-opacity="0"/>
      <stop offset="0.5" stop-color="#fef9e8" stop-opacity="0.21"/>
      <stop offset="0.55" stop-color="#fef4d3" stop-opacity="0.39"/>
      <stop offset="0.6" stop-color="#fdf0c1" stop-opacity="0.56"/>
      <stop offset="0.65" stop-color="#fdecb2" stop-opacity="0.69"/>
      <stop offset="0.7" stop-color="#fde9a6" stop-opacity="0.81"/>
      <stop offset="0.76" stop-color="#fce79c" stop-opacity="0.89"/>
      <stop offset="0.82" stop-color="#fce595" stop-opacity="0.95"/>
      <stop offset="0.89" stop-color="#fce491" stop-opacity="0.99"/>
      <stop offset="1" stop-color="#fce490"/>
    </linearGradient>
    <linearGradient id="linear-gradient-3" x1="12708.59" y1="562.74" x2="13740.18" y2="562.74" gradientTransform="matrix(-1, 0, 0, 1, 12845.27, 0)" gradientUnits="userSpaceOnUse">
      <stop offset="0.03" stop-color="#452500"/>
      <stop offset="0.11" stop-color="#502e0a"/>
      <stop offset="0.25" stop-color="#6e4723"/>
      <stop offset="0.34" stop-color="#845a36"/>
      <stop offset="0.47" stop-color="#66401c"/>
      <stop offset="0.6" stop-color="#4e2c08"/>
      <stop offset="0.67" stop-color="#452500"/>
    </linearGradient>
    <linearGradient id="linear-gradient-4" x1="12708.59" y1="472.05" x2="13740.18" y2="472.05" gradientTransform="matrix(-1, 0, 0, 1, 12845.27, 0)" gradientUnits="userSpaceOnUse">
      <stop offset="0.21" stop-color="#cc925e"/>
      <stop offset="0.48" stop-color="#a56752"/>
      <stop offset="0.8" stop-color="#6d3134"/>
      <stop offset="1" stop-color="#292937"/>
    </linearGradient>
    <linearGradient id="linear-gradient-5" x1="7916.57" y1="-1714.02" x2="8027.33" y2="-1275.79" gradientTransform="matrix(-0.77, 0.07, 0.01, 0.99, 6615.62, 1152.94)" gradientUnits="userSpaceOnUse">
      <stop offset="0" stop-color="#96880c"/>
      <stop offset="0.31" stop-color="#002405"/>
      <stop offset="0.62" stop-color="#000b00"/>
      <stop offset="1" stop-color="#596b00"/>
    </linearGradient>
    <linearGradient id="linear-gradient-6" x1="8554.17" y1="-4699.08" x2="8726.93" y2="-4044.29" gradientTransform="matrix(-0.71, 0.38, 0.3, 0.92, 6978.43, 598.46)" xlink:href="#linear-gradient-5"/>
    <linearGradient id="linear-gradient-7" x1="4463.65" y1="-1756.39" x2="4549.26" y2="-1417.68" gradientTransform="matrix(0.77, 0.07, -0.01, 0.99, -3178.19, 1152.94)" xlink:href="#linear-gradient-5"/>
    <clipPath id="clip-path-2">
      <rect class="cls-1" x="-1509.71" y="-663.88" width="1280" height="720"/>
    </clipPath>
    <clipPath id="clip-path-3">
      <rect class="cls-1" x="-1669.71" y="-753.88" width="1600" height="900"/>
    </clipPath>
    <linearGradient id="linear-gradient-8" x1="-936.08" y1="-942.07" x2="410.17" y2="263.13" gradientTransform="matrix(0.98, -0.19, 0.19, 0.98, 23.53, -111.79)" gradientUnits="userSpaceOnUse">
      <stop offset="0" stop-color="#2a52cb"/>
      <stop offset="0.05" stop-color="#284dc3"/>
      <stop offset="0.32" stop-color="#20379b"/>
      <stop offset="0.56" stop-color="#1b277f"/>
      <stop offset="0.78" stop-color="#171d6d"/>
      <stop offset="0.93" stop-color="#161a67"/>
    </linearGradient>
  </defs>
  <g class="cls-2">
    <g id="Layer_1" data-name="Layer 1">
      <g class="cls-3">
        <g>
          <path class="cls-4" d="M-7581.29,2512.53c2487.5,398.63,5210.4,342.31,8081.3,0V108.87h-8081.3Z"/>
          <rect class="cls-1" x="-7544.72" y="139.46" width="8000" height="2700"/>
          <rect class="cls-5" x="-7581.64" y="100.15" width="8127.09" height="2814.71"/>
          <g>
            <path class="cls-6" d="M-926.2,72C-826,91.17-853.78,17.9-867.42-15.06S-970-187.38-970-187.38s40.9-55.31,48.91-42.54S-850.58-73.57-815.29-10.81-637.29,113.64-554.7,170s183.22,179.23,189.23,145.72,3.61-232.94,4-324.41c-.05-3.27-.14-6.51-.26-9.74,0-1-.09-2-.13-3.08-.09-2.21-.2-4.42-.32-6.61-.07-1.16-.14-2.32-.22-3.48q-.19-3.14-.45-6.26c-.08-1.11-.17-2.22-.26-3.33-.2-2.35-.43-4.68-.66-7-.08-.78-.15-1.57-.23-2.34q-.5-4.62-1.08-9.18c-.09-.71-.19-1.41-.28-2.11-.31-2.34-.63-4.68-1-7-.15-1-.32-2.08-.48-3.12-.31-2-.63-4-1-6-.18-1.07-.36-2.13-.55-3.19-.36-2-.74-4.07-1.12-6.09-.18-.92-.35-1.86-.53-2.78q-.82-4.17-1.72-8.3c0-.12-.05-.24-.08-.36-.63-2.9-1.29-5.77-2-8.63l-.6-2.43c-.5-2-1-4.08-1.54-6.11-.24-.94-.49-1.88-.74-2.82q-.78-2.91-1.59-5.81c-.25-.87-.49-1.75-.74-2.62-.63-2.19-1.28-4.38-1.94-6.55-.16-.55-.33-1.11-.5-1.66-.85-2.79-1.73-5.55-2.63-8.3l-.24-.72q-1.22-3.69-2.49-7.32c-.23-.68-.47-1.36-.71-2q-1.08-3-2.19-6.06l-.78-2.1q-1.19-3.17-2.4-6.28l-.59-1.53q-3.17-8-6.53-15.77l-.22-.49q-1.56-3.58-3.17-7.13c-.17-.38-.35-.77-.53-1.15q-1.53-3.37-3.11-6.7l-.39-.83a617.29,617.29,0,0,0-45.2-78.51c-6.53-9.74-13.15-19.13-19.76-28.19-18.43-25.25-36.76-47.95-52.91-68.55-1.76-2.23-3.49-4.45-5.19-6.64l-1.43-1.83q-3.48-4.5-6.79-8.87c-72.17-95.19-169.19-176-169.19-176s6.81-68.07,32.07-47.33,125.09,186.67,131.1,65.41-40.89-263.24-40.89-263.24,14.43-9.58,48.1-19.15c0,0,45.71,62.22,42.1,209S-425.61-407-365.47-263.42q1.38,3.27,2.73,6.5c.35.86.7,1.7,1.06,2.55q3.8,9.09,7.39,17.78l.21.5.09.23q2.46,5.93,4.82,11.65c.11.26.23.53.33.79h0c12.15,29.36,22.64,54.79,31.9,75.54.17.39.34.77.52,1.16l1.13,2.53c.26.57.51,1.13.77,1.69l.87,1.92c.3.65.59,1.29.89,1.92s.47,1,.7,1.54c.33.7.66,1.4,1,2.1.19.41.38.81.58,1.22l1,2.22c.16.32.31.63.46,1,.38.8.77,1.6,1.15,2.39.06.13.13.27.2.4q4.33,8.94,8.32,16.11l.07.14c.43.76.85,1.51,1.27,2.24l.11.18c.42.74.84,1.45,1.26,2.16l.05.09a93.18,93.18,0,0,0,10,14.18l.06.07c.38.42.75.82,1.12,1.2l.1.1c.36.38.73.74,1.09,1.09l.08.07a20,20,0,0,0,6.67,4.41l.11,0c.31.11.61.19.91.27l.25.07.83.15.31,0c.26,0,.53,0,.8.06h.33c.26,0,.52,0,.77,0l.35,0c.25,0,.5-.07.76-.13l.33-.08c.26-.07.51-.13.77-.22a2.18,2.18,0,0,0,.23-.09,11.62,11.62,0,0,0,2.52-1.3c.16-.11.31-.2.47-.32l.58-.45.52-.43.55-.5.55-.53.53-.55c.19-.2.37-.41.56-.63s.34-.39.51-.6.4-.49.59-.74.33-.42.49-.64.42-.58.62-.89l.45-.64c.24-.36.47-.73.7-1.1l.37-.59c.36-.59.72-1.2,1.08-1.84,7.74-13.86,8.3-203.87,0-397.26-10.84-252.09-154-392.49-154-392.49a346.49,346.49,0,0,1,37.29-59c79.38,76.58,141.8,248.75,154,335,18,128.18,47.71,257.93,57.33,127.11q.22-3.06.43-6.29t.4-6.6c.13-2.25.26-4.55.37-6.9,1.73-34,2.38-77.94,2.38-125.14,0-151.36-6.79-336.36-6.79-336.36h0s51.72-3.19,56.53,35.1c3.35,26.67-.11,174,1.06,349.49.51,76.46,8.82,167.71,7.36,240.84C-108.08-99.1-87.63-103.87-73.2-131,37.45-410.21,263.57-636.77,281.61-721.33c20.44-121.25,60.14-303.14,60.14-303.14s36.08-15.94,67.35,28.73c-55.32,127.63-102.23,314.3-73.37,299.94,23.78-11.82,120.14-101.55,153.41-132.85l0,0c7.06-6.65,11.26-10.65,11.26-10.65h.06l.07-.07s45.7,3.19,15.23,58.5C487.17-729,395.16-651,346.78-627.42c-3.26,1.59-6.33,2.94-9.17,4-.6.23-1.19.48-1.79.72-.93.37-1.87.74-2.79,1.13l-2,.88c-1,.47-2.06.94-3.08,1.43l-1.53.76c-1.33.67-2.66,1.36-4,2.07-.21.12-.42.22-.62.34q-2.34,1.3-4.64,2.7l-.82.52c-1.26.78-2.51,1.59-3.74,2.41l-1,.69q-2,1.34-3.93,2.76l-.42.3c-3.05,2.24-6,4.59-8.95,7.07l-.33.29c-12,10.16-23.06,22.26-34.12,35.58v0c-12,14.43-23.91,30.29-36.83,46.68C190.2-470.3,106.81-329.9,63.51-281s-85,219.1-94.62,248.89c-9.35,29,5.57,255.28,6.38,459.52.07,5.4.12,58.09.17,63.43C11,554,19.73,583.65,28.09,658.72l.14.56c-2.11,83.6-14.43,387.17-8,595.65S80.75,1557,116.83,1624s101,67,157.56,63.81,71,9.58,113.06,16,67.35,43.08,91.41,71.8c0,0-43.3-4.79-84.19-20.74s-109.46-11.17-120.28,4.79c8.42,12.75,38.49,47.86,78.18,54.24s93.81,73.39,103.44,119.66c-20.45-17.55-79.39-57.44-117.87-55.84s-56.53,0-113.06-46.27c-1.54-1.26-3-2.43-4.53-3.57-.69-.52-1.38-1-2.06-1.52s-1.06-.77-1.58-1.15c-50.71-35.81-73.33,3.44-98.87,4.65-26.46,6.38-55.33-3.19-55.33,1.59a88.24,88.24,0,0,0,12,42.55c11.22,19.14,32.87,53.17,72.16,90.4s85.65,60.7,101.69,142.61c-15.19-27.55-59.81-28.28-89-59.57-13.9-14.89-42.67-29.69-58.54-40.42-37-25-84.48-26.19-96.87-36.24-28.87-23.39-117.07-62.74-133.11-51,0,13.83,4.81,65.94,28.06,89.35S-20,2090-12,2152.72c-10.43-20.22-72.17-85.1-95.43-102.12s-68.81-13.89-96.87-39.42-66.3-82.37-125.08-104.24c-32.8-12.21-120.42-1-146.08,21.34s-105,35.1-129.1,56.38-72,44.59-106.5,48.85-73.77,33-107.44,50c19.29-52.57,75.37-81.9,93-98.91s26-22.56,52.12-44.68c57.58-48.86,137.77-62.68,185.88-124.37a37.26,37.26,0,0,0-8.37.63l0,0c-31.93,5.14-118.5,38.23-161.32,52.69l-.93.31-3.06,1-2.1.69-1.58.52-2.87.91-1,.33-2.77.84-.69.2c-.91.27-1.78.52-2.58.73l-.33.09c-.85.22-1.64.42-2.34.58-2.12.48-4.18.92-6.22,1.34l-2,.39c-1.34.27-2.66.52-4,.76l-2.37.42c-1.12.19-2.23.38-3.33.55-.85.14-1.7.28-2.54.4s-1.88.28-2.8.41l-2.82.39-1.3.16c-22.4,2.83-40.3,2.46-59.38,4.69l.17,0c-17.43,2-35.85,6.22-59.64,17.06,40.21-41.3,94-47.26,176.8-79.77,33.56-13.18,59.78-32.47,113-60.63,54.08-36.76,92.52-95.9,119.83-164.24h0c1-2.45,1.95-4.92,2.9-7.4.26-.69.52-1.37.79-2.06q4.45-11.74,8.52-23.8l.36-1.07c.9-2.67,1.77-5.34,2.64-8,.12-.37.23-.74.35-1.11q4-12.42,7.55-25.07c.1-.38.21-.76.32-1.14,3.26-11.62,6.29-23.38,9.08-35.2,0-.18.09-.37.13-.55q3.15-13.38,5.93-26.85a.5.5,0,0,0,0-.12q3.75-18.16,6.85-36.37l0-.15c7.27-42.51,12.07-84.71,15.21-124.18v0c.89-11.16,1.65-22.11,2.29-32.79,0-.23,0-.45,0-.68q.7-11.85,1.24-23.23c0-.08,0-.17,0-.25q.18-3.72.33-7.38l0-.72q.46-10.77.78-21c0-.46,0-.93,0-1.39q.1-3.27.19-6.48a2.26,2.26,0,0,0,0-.26q.18-6.51.31-12.75l0-1.12c0-1.91.07-3.78.1-5.65,0-.67,0-1.34,0-2q.15-8.52.22-16.47c0-.74,0-1.49,0-2.23q0-2.31,0-4.56c0-.81,0-1.61,0-2.41,0-2.73,0-5.41,0-8v-1.87c0-1.33,0-2.62,0-3.91,0-.94,0-1.87,0-2.78v-3.38c0-1,0-2.06,0-3.09,0-1.82,0-3.61,0-5.35,0-.86,0-1.73,0-2.57s0-1.94,0-2.9,0-1.92,0-2.86c0-1.15,0-2.29,0-3.4s0-2.46,0-3.63c0-3.84-.06-7.38-.09-10.55,0-1.9,0-3.88,0-5.89v-1.93c0-1.51,0-3.06,0-4.64v-1.94q0-3,0-6.22c0-1,0-2,0-2.92,0-1.28,0-2.58,0-3.89s0-2.47,0-3.73c0-.86,0-1.73,0-2.6,1-77.18,5.38-205.51.77-324.58q-.42-10.78-.94-21.47c0-.52,0-1-.07-1.54q-.52-10.44-1.14-20.73c0-.29,0-.57-.05-.86C-350,691-351,677-352.22,663.31c-.08-.93-.17-1.84-.26-2.77q-.75-8.19-1.59-16.17c-.19-1.85-.39-3.67-.6-5.51q-.74-6.63-1.53-13.1c-.25-2-.51-4-.76-6.06-.56-4.24-1.14-8.41-1.74-12.55-.27-1.79-.51-3.6-.78-5.37-.88-5.77-1.8-11.44-2.78-16.95-.79-4.4-1.74-8.79-2.77-13.17-.21-.92-.42-1.84-.65-2.76-1-4.23-2.18-8.46-3.43-12.66-.24-.78-.5-1.57-.74-2.35q-1.75-5.76-3.78-11.44c-.24-.71-.47-1.42-.73-2.13-1.48-4.11-3.08-8.21-4.75-12.3-.43-1.06-.88-2.13-1.33-3.21q-2.55-6.07-5.33-12.11c-.29-.64-.61-1.27-.91-1.91q-2.51-5.3-5.19-10.56l-1.77-3.47q-3-5.64-6.07-11.23c-.7-1.24-1.41-2.48-2.12-3.72-1.74-3-3.51-6.06-5.32-9.06-.63-1.05-1.25-2.1-1.89-3.15-2.18-3.56-4.43-7.09-6.7-10.61-.94-1.45-1.87-2.9-2.83-4.33C-472.74,372.6-550.82,302.3-596.5,258.85l-.39-.38-2.81-2.68-2.18-2.09-2-1.92q-2-1.91-3.85-3.74l-1.28-1.25-2.91-2.87-1.08-1.07c-1.22-1.23-2.41-2.43-3.54-3.59l-.63-.65c-.94-1-1.85-1.91-2.72-2.83l-.84-.9c-1-1.1-2-2.17-2.93-3.18C-669.36,180.64-821.71,124.28-942,101.94S-1193,70-1193,70V66.68S-1026.43,52.87-926.2,72Z"/>
            <path class="cls-7" d="M67.88,1671.32c-36.08-67-90.21-160.61-96.62-369.08s5.91-512,8-595.65l-.14-.56c-.4-79.9-17.07-152-52.65-215.16q-.08-8-.17-16.12C-74.5,270.51-89.42,44.2-80.06,15.23c9.62-29.79,51.32-200,94.62-248.89S141.25-423,178.13-469.79C191-486.18,203-502,215-516.46v0c11-13.32,22.16-25.42,34.11-35.58l.34-.29q4.38-3.71,8.94-7.06l.43-.31c1.29-1,2.6-1.86,3.93-2.76l1-.69c1.24-.82,2.49-1.63,3.75-2.41.27-.17.54-.35.82-.51q2.29-1.41,4.63-2.71l.62-.33q2-1.08,4-2.08c.51-.26,1-.51,1.54-.75,1-.5,2-1,3.07-1.44.66-.29,1.31-.59,2-.87.92-.4,1.85-.77,2.78-1.14.6-.24,1.19-.49,1.8-.72,2.84-1.07,5.91-2.42,9.17-4,48.37-23.56,140.39-101.61,169-153.47,8.92-16.19,11.28-27.89,10.2-36.37,4.61-4.31,8.73-8.17,12.15-11.39l0,0C496.18-788,500.38-792,500.38-792h.06l.07-.07s45.7,3.19,15.23,58.5c-28.57,51.86-120.58,129.91-169,153.47-3.26,1.6-6.33,3-9.17,4-.6.23-1.19.48-1.79.72-.93.37-1.87.74-2.79,1.14-.66.28-1.31.58-2,.87-1,.47-2.06.94-3.08,1.44l-1.53.75c-1.33.67-2.66,1.36-4,2.08-.21.11-.42.21-.62.33q-2.34,1.31-4.64,2.71l-.82.51c-1.26.78-2.51,1.59-3.74,2.41l-1,.69c-1.32.9-2.63,1.81-3.93,2.76l-.42.31c-3.05,2.23-6,4.59-8.95,7.06L298-552c-12,10.16-23.06,22.26-34.12,35.58v0c-12,14.43-23.91,30.28-36.83,46.67C190.2-423,106.81-282.59,63.51-233.66s-85,219.1-94.62,248.89c-9.35,29,5.57,255.28,6.38,459.52q.11,8.1.17,16.12C11,554,27.7,626.13,28.09,706l.14.56c-2.11,83.6-14.43,387.17-8,595.65s60.54,302.07,96.62,369.08c25.1,46.61,64.17,60.78,104.65,64C165.91,1738.29,103.12,1736.77,67.88,1671.32Z"/>
          </g>
          <g>
            <g>
              <path class="cls-8" d="M-397.56,210c9.3-15.84,53.88-10.45,100,11.87-14.17-15.53-19.91-31.5-12.78-36.17,6.32-4.22,20.8,2,34.41,13.94a167.5,167.5,0,0,1-7.13-18c-13.1-39.89-7.93-74.61,11.52-77.62,17.73-2.78,41.1,21.86,55,56.39,2.74-28.64,15.76-49.57,30.71-48,.64.11,1.17.27,1.71.37-27.27-36.07-36-71.34-19.15-80.32C-185.74,23.05-146.7,46-116.3,83.82a8.17,8.17,0,0,0,1.18,1.41c-1-3.15-1.76-6.47-2.56-9.73-11.15-49.07-.67-90.33,23.49-92.28,18.22-1.41,39.08,20.21,53,52.12l-.06-.38c-2.5-32.33,8.53-58.16,24.65-57.64,9,.22,17.8,8.8,24.11,22,1-4.08,3-7,6.33-8,5.68-1.7,13.69,2.56,21.31,10.35-.42-14.23,4.22-24.9,11.94-25.2,4.14-.16,8.54,2.77,12.31,7.67C47.1-43.65,47.22-67.7,60.81-72.2c10.51-3.37,26.26,5.73,40.79,22.1C99-75.4,106.66-95.56,119.37-95.71,127-95.82,134.75-88.9,140.69-78c-.74-22,6.49-38.46,18.19-38.81S183.09-101,189.35-78.88a81.52,81.52,0,0,1,6.73-15.7c12-21.86,31.13-35.34,42.68-30.17,2.25-16.81,9.66-28.51,19.55-28.34,9.65.21,19.08,11.78,24.56,28.29,2-10.67,7-17.81,13.58-17.68,6.23.11,12.26,6.86,16.3,16.8,5.71-.5,14.11,3.77,22.69,11.08-8.07-16.07-8.93-29.19-.76-32.73s23.6,3.85,38.55,17.55c5.88-8.46,32.72-3.58,59.94,11A161.49,161.49,0,0,1,451-107.71c-9.41-16.82-12.33-31.7-7.85-38.94l28.5,3.16a112.64,112.64,0,0,1,21.7,19.78c-2.12-7.19-2.37-13.29-.62-17.44l31,3.43a121,121,0,0,1,24.63,24.37c-.06-8.45,1.23-15.66,3.62-21.24L593.05-130a115.78,115.78,0,0,1,17.89,31.38c-.55-5.56.94-9.54,4.64-10.81,6.81-2.43,19,5,29.76,17.4.47-9.34,4-15.69,10.18-16.22,3.59-.32,7.56,1.45,11.5,4.61-2.53-7.28-3.36-13.61-2.46-18.46q22.11,2.44,44.2,4.84a161.44,161.44,0,0,1,27.66,27.4l.16.13a127.61,127.61,0,0,1-7.3-25.29q43.5,4.78,87,9.52A239.35,239.35,0,0,1,833.1-81.7c2,3.09,3.72,6.16,5.39,9.29,0,0,0-1.14-.08-1.7A135.55,135.55,0,0,1,839.2-103l75.62,8.27a150.19,150.19,0,0,1,4.17,22,3.93,3.93,0,0,1,1-.87c11.65-6.63,39,6.84,63.43,30.47-7.42-17.26-10.87-33.19-10.29-45.25l61.46,6.71A178.44,178.44,0,0,1,1056.76-48a177.33,177.33,0,0,1,7.84,17.93c2.4-15,10-25.27,18.66-23.87,9.68,1.53,17.14,17.17,17,35.32,22.16-35,56.24-55,76.48-44.67,18.85,9.62,19,42.23,1.43,75.29,14.41-15.3,31.63-22.69,42.46-17,13.58,7.2,12,32.16-3.46,55.74a23,23,0,0,1-2,2.88c.64-.27,1.19-.48,1.19-.48,34.51-11.19,68.57-9.71,76.86,3,7.18,11.1-7.66,27.13-34,38.36,28.34-3.3,53.92,1.94,58.16,12.4,3.69,9-9.73,19-31.4,24.71,16.41,6.76,27.36,15.34,26.15,21.86-1,5.09-9.27,7.67-21.12,7.57,24.49,9.18,41.27,22,39.11,30.77s-21.86,10.59-46.43,5.55c36.49,20.29,59.32,44.89,51.88,57.21-6,10.08-30.6,9.05-60.34-1,22.23,12.67,35.6,26.7,32,35.76-4.6,11.5-35,10.77-69.7-1,.45.46.83.87,1.2,1.33C1259,314,1266.29,338.09,1255,343.55c-9.13,4.35-27.61-4.81-45.1-21.25a99.14,99.14,0,0,1,1.47,13.92c1.25,31.81-11.42,56.08-28,54.21-14.67-1.67-27.52-22.71-31.35-49.22a74.81,74.81,0,0,1-8.68,10.66c-16,16.26-36.91,23.9-46.61,17.1-7-4.88-6.36-15.7.2-27.39-18.75,5-36.15,3.73-41.23-3.46-3.46-4.95-.23-11.57,7.5-17.84-17.49,2.72-33,.29-36.59-6.35l-.08-.14c-12.25,9.74-25.57,13.74-33.24,8.94-5.1-3.16-6.7-9.68-5-17.54-7.78,12.79-18.27,19.94-27.5,17.06-9.48-2.9-14.87-15.77-14.44-31.76-3.68,7.8-9.23,12.26-15.6,11.58-11.86-1.29-22.31-20.28-23.72-42.81-1.64,1.83-3.43,3.6-5.21,5.43-23.19,22-52.74,31.82-66,22.07-4.46-3.32-6.43-8.48-6.33-14.75-4,3.69-8.33,5.41-12.49,4.32a11.62,11.62,0,0,1-4.57-2.51c3,13.77.73,24.05-7.06,25.78-6.93,1.55-16.59-4-25.85-13.8,3.42,21-1.44,36.78-12.93,37.83-7.81.6-17.06-5.67-25.3-16.15-1.73,4.41-4.64,7.1-8.62,7.46-3.29.28-7-1.1-10.6-3.79,4.83,15.16,3.41,26.94-4.87,29.39s-21.39-4.83-33.72-17.66c-.53,9.26-3.92,15.69-9.49,16.7,14.23,21.75,18.06,40.36,7.6,46.44-8.78,5.12-25.72.15-44.48-11.67,4.23,18.38.28,33.08-9.23,33.5-7.67.37-16.79-8.73-23-21.91-1,2.45-43.79-11.36-44.88-9.29,0,0-23,52.61-38,53.92-12.42,1.11-38.94-39.81-38.94-39.81-2.53-1.3-41,7.79-43.66,6,4.83,13.46,4.07,24.41-2.82,26.77-8.44,2.88-23.18-8.41-33.78-25.53-6.91,16.57-17.53,26.67-29.08,25.38-13.58-1.6-24.72-18.81-29.36-42.37-5.5,1.08-13.35-3.29-21.05-11-.64,15.23-6.14,26-15.13,26.82s-19.27-8.83-26.94-23.55c-1,3.57-3,6.07-6.12,6.94-3.63,1.08-8.33-.25-13.11-3.4,1,11.82-2,20.41-9.26,22.56-10.57,3.13-27-8.72-40.23-27.9-.4,11.53-4.4,19.69-11.46,20.78-8.07,1.21-18-6.8-26-19.65a6,6,0,0,1-2,3.7c-2.82,2.38-7.89,2.48-14.14.68,5,5.23,7.3,10.42,6,14.79-3.81,12.94-36.76,14.68-73.57,3.91-2.92-.88-5.76-1.83-8.69-2.78,16.27,19.69,22,39.55,12.82,44.84-4.88,2.82-13.13.75-22.34-4.58,12.69,13.55,18.08,26.47,12.23,32.24-5.67,5.59-20.22,3.1-36.71-5.18,7.46,6.23,11.1,12.31,9.21,16.84-2.85,6.72-17.41,7.94-35.46,3.7l.15.27c2.06,6.92-9.32,14.39-26.39,18.07,11.35,2.71,19.26,7.26,20.14,12.67,1.23,7.93-12.78,15-32.58,17.28C-1.71,536.78,7.13,545.85,5,552.37c-3.1,9.21-26.89,9.87-53.13,1.45a127.87,127.87,0,0,1-15.72-6.09c17.26,24,22.48,46.56,11.31,53-12.93,7.42-42.4-9.07-66-36.67-3.5-4.13-6.68-8.31-9.55-12.45-2.23,20.14-10.91,34.32-22.11,33.75-13.92-.68-26.3-23.82-27.72-51.68a13.9,13.9,0,0,0,0-1.58c-20.64,22.18-46.09,33.29-58.85,25-10-6.45-9.58-23.13-.24-41.66-17.68,18.91-37.94,28.23-50.92,21.76-15.88-8-15.4-37,.17-67-17.12,12.79-35.41,17.92-43.94,11.31-8.68-6.8-4.25-23.6,9.66-39.88-10.14,4.22-19.13,4.88-24,.84-6-5.17-3.38-16.31,5.59-27.76-23,2.65-42.34-1.29-46.18-10.33-4.33-10.41,13.44-23.73,40.29-30.72-31.22-.53-56.27-9.12-58.73-21.1-2.8-13.76,25.32-26.76,62.82-29.08l2-.05c-1.38-.59-2.6-1.12-3.91-1.77-31.48-14.87-52.06-35.66-46-46.5,4.89-8.66,25.36-8.29,49.42-.2C-381.23,252.78-406.36,224.77-397.56,210Z"/>
              <path class="cls-9" d="M-405,352.59c-1.51-7.21,5.64-14.26,18.17-19.57,8.53,3,21.27,3.87,35.44,2.26-9,11.45-11.6,22.58-5.58,27.7,4.75,4,13.89,3.38,24-.78-13.84,16.29-18.35,33.07-9.67,39.88,8.46,6.6,26.84,1.48,43.95-11.37-15.49,30.05-16.05,59-.17,67,13,6.54,33.16-2.79,50.92-21.69-9.33,18.53-9.86,35.2.24,41.66,12.83,8.22,38.22-2.9,58.83-25a12.89,12.89,0,0,0,.11,1.59c1.34,27.86,13.72,50.93,27.56,51.67,11.28.51,20.05-13.67,22.27-33.75a155.89,155.89,0,0,0,9.53,12.39c23.5,27.65,53.06,44.09,65.83,36.72,11.25-6.47,6-28.93-11.15-53a129.43,129.43,0,0,0,15.64,6.08C-32.85,482.79-9,482.13-6,472.91c2.14-6.58-6.68-15.59-21.33-23.3,19.88-2.31,33.89-9.4,32.58-17.22-.87-5.46-8.79-10.08-20.2-12.74,17.05-3.74,28.43-11.15,26.44-18.06a.47.47,0,0,0-.06-.2c18.06,4.11,32.6,3,35.45-3.78,1.9-4.51-1.83-10.6-9.29-16.76,16.5,8.26,31,10.69,36.73,5.11,5.85-5.83.45-18.69-12.17-32.23,9.12,5.39,17.32,7.32,22.26,4.51,9.18-5.23,3.37-25.1-12.72-44.84,2.76,1,5.6,1.88,8.6,2.78,36.8,10.83,69.76,9.09,73.57-3.85,1.27-4.44-1-9.55-5.94-14.84,6.23,1.79,11.31,1.76,14-.63a6.14,6.14,0,0,0,1.94-3.7c8,12.85,17.93,20.87,25.92,19.64,7.22-1.07,11.13-9.18,11.46-20.78,13.32,19.13,29.74,31,40.31,27.85,7.18-2.15,10.17-10.76,9.18-22.51,4.93,3.16,9.56,4.48,13.18,3.41,3.09-.93,5.05-3.37,6.21-6.93,7.58,14.7,17.79,24.24,26.86,23.47s14.58-11.46,15.2-26.8c7.55,7.79,15.56,12.16,21.05,11,4.49,23.54,15.62,40.81,29.35,42.43,11.48,1.33,22.1-8.82,29-25.39C402.23,335.7,417,347,425.5,344.11c6.79-2.36,7.55-13.31,2.73-26.77,2.73,1.76,41.13-7.34,43.72-6,0,0,26.46,40.86,38.9,39.75,15-1.32,37.9-53.87,37.9-53.87,1.24-2.06,44,11.75,45,9.3,6.25,13.12,15.38,22.28,23,21.91,9.53-.42,13.4-15.19,9.24-33.5,18.77,11.76,35.62,16.79,44.49,11.67,10.45-6.08,6.7-24.68-7.62-46.51,5.49-.88,9-7.37,9.5-16.69,12.41,12.9,25.43,20.18,33.71,17.72s9.7-14.18,4.8-29.39c3.7,2.63,7.31,4.07,10.67,3.79,4-.35,6.91-3,8.65-7.45,8.22,10.48,17.45,16.74,25.27,16.08,11.5-1,16.36-16.8,13-37.77,9.19,9.73,18.85,15.35,25.78,13.8,7.86-1.73,10.15-12,7-25.78a11.62,11.62,0,0,0,4.5,2.5c4.24,1.1,8.68-.61,12.65-4.31-.26,6.21,1.79,11.43,6.31,14.75,7.43,5.47,20,4.74,33.72-.81-12.66-5.18-20.4-11.8-19.83-18.36,1.08-11,25.57-17.44,55.71-15.22-30.66-10.55-51.11-26.69-47.35-38.49,4.37-13.59,38.85-16.5,77.25-6.43.69.17,1.31.4,2,.57-1-.94-2-1.89-2.92-2.9-23.57-23.89-33.26-49.79-21.63-57.81,9.23-6.41,29.26.59,49,15.93-28.7-33.66-39.15-67.66-23-78.45,17.38-11.51,58.9,7.93,93,43.46-6-18.95-3.54-35.49,6-37.49,8.41-1.82,19.6,8.55,26.9,24.05a135.3,135.3,0,0,1,2.18-19c5.72-31,20.3-55.93,36.09-64.66,5.11,6.43,8.48,17.46,8.37,29.64a132.58,132.58,0,0,1,20.18-24.78c10.27,11.81,15.07,35.2,12.19,61.83,17.42-25.53,41.1-40.65,55.17-34.3l.91.63A122,122,0,0,1,1178.2,12c14.41-15.3,31.63-22.69,42.46-17,13.58,7.2,12,32.16-3.46,55.74a23,23,0,0,1-2,2.88c.64-.27,1.19-.48,1.19-.48,34.51-11.19,68.57-9.71,76.86,3,7.18,11.1-7.66,27.13-34,38.36,28.34-3.3,53.92,1.94,58.16,12.4,3.69,9-9.73,19-31.4,24.71,16.41,6.76,27.36,15.34,26.15,21.86-1,5.09-9.27,7.67-21.12,7.57,24.49,9.18,41.27,22,39.11,30.77s-21.87,10.59-46.43,5.55c4.94,2.78,9.66,5.61,14.06,8.49,1.51,1,3,2,4.48,3,.67.5,1.36,1,2,1.46,1.14.77,2.2,1.54,3.25,2.3.69.55,1.44,1.1,2.13,1.65,1,.69,1.88,1.44,2.79,2.14.67.55,1.43,1.16,2,1.64.9.75,1.73,1.44,2.55,2.18l1.81,1.63,2.4,2.17c.53.54,1,1,1.58,1.55.74.75,1.57,1.55,2.23,2.36.45.46.82.87,1.28,1.27,1,1.2,2.08,2.4,3,3.53l.29.34c.82,1.06,1.63,2.12,2.29,3.17a5.46,5.46,0,0,1,.73,1.11c.52.79.95,1.51,1.4,2.23a10.23,10.23,0,0,0,.56,1.23c.37.65.65,1.31.94,1.95a12.28,12.28,0,0,0,.5,1.23c.12.63.34,1.21.46,1.79,0,0,.21.83.27,1.21,0,0,.11,1.14.17,1.71a4.86,4.86,0,0,1,0,1,6.14,6.14,0,0,1-.23,1.73V252a12.2,12.2,0,0,1-1.13,2.57c-6,10.08-30.6,9.05-60.34-1,22.23,12.67,35.6,26.7,32,35.76-4.6,11.5-35,10.77-69.7-1,.45.46.83.87,1.2,1.33C1259,314,1266.29,338.09,1255,343.55c-9.13,4.35-27.61-4.81-45.1-21.25a99.14,99.14,0,0,1,1.47,13.92c1.25,31.81-11.42,56.08-28,54.21-14.67-1.67-27.52-22.71-31.35-49.22a74.81,74.81,0,0,1-8.68,10.66c-16,16.26-36.91,23.9-46.61,17.1-7-4.88-6.36-15.7.2-27.39-18.75,5-36.15,3.74-41.23-3.46-3.46-4.95-.23-11.57,7.5-17.84-17.49,2.72-33,.29-36.59-6.35l-.08-.14c-12.25,9.74-25.57,13.74-33.24,8.95-5.1-3.17-6.7-9.69-5-17.55-7.78,12.79-18.27,19.94-27.5,17.06-9.48-2.9-14.87-15.77-14.44-31.76-3.68,7.8-9.23,12.26-15.6,11.58-11.86-1.29-22.31-20.28-23.72-42.81-1.64,1.83-3.43,3.6-5.21,5.43-2.11,2-4.29,3.79-6.55,5.59-.4.35-.72.65-1.13,1-2.25,1.8-4.5,3.47-6.74,5l-.33.29c-19.79,13.32-40.63,18.07-51.3,10.25-4.46-3.32-6.43-8.48-6.33-14.75-4,3.69-8.33,5.41-12.49,4.32a11.62,11.62,0,0,1-4.57-2.51c3,13.77.73,24.05-7.06,25.78-6.93,1.55-16.59-4-25.85-13.8,3.42,21-1.44,36.79-12.93,37.83-7.81.6-17.06-5.67-25.3-16.15-1.73,4.41-4.64,7.1-8.62,7.46-3.29.28-7-1.1-10.6-3.79,4.83,15.16,3.41,26.94-4.87,29.39s-21.39-4.83-33.72-17.66c-.53,9.26-3.92,15.69-9.49,16.7,14.23,21.75,18.06,40.36,7.6,46.44-8.78,5.12-25.72.15-44.48-11.67,4.23,18.38.28,33.08-9.23,33.5-7.67.37-16.79-8.73-23-21.91-1,2.45-43.79-11.36-44.88-9.29,0,0-23,52.61-38,53.92-12.42,1.11-38.94-39.81-38.94-39.81-2.53-1.3-41,7.79-43.66,6,4.83,13.46,4.07,24.41-2.82,26.77-8.44,2.88-23.18-8.41-33.78-25.53-6.91,16.57-17.53,26.67-29.08,25.38-13.58-1.6-24.72-18.81-29.36-42.37-5.5,1.08-13.35-3.29-21.05-11-.64,15.23-6.14,26-15.13,26.82s-19.27-8.83-26.94-23.55c-1,3.57-3,6.07-6.12,6.94-3.63,1.08-8.33-.25-13.11-3.4,1,11.82-2,20.41-9.26,22.56-10.57,3.13-27-8.72-40.23-27.9-.4,11.53-4.4,19.69-11.46,20.78-8.07,1.21-18-6.8-26-19.65a6,6,0,0,1-2,3.7c-2.82,2.38-7.89,2.48-14.14.68,5,5.23,7.3,10.42,6,14.79-3.81,12.94-36.76,14.68-73.57,3.91-2.92-.88-5.76-1.83-8.69-2.78,16.26,19.69,22,39.55,12.82,44.84-4.88,2.82-13.13.75-22.34-4.58,12.69,13.55,18.08,26.47,12.23,32.24-5.67,5.59-20.22,3.1-36.72-5.17,7.47,6.22,11.11,12.3,9.22,16.83-2.85,6.72-17.41,7.94-35.46,3.7l.15.27c2.06,6.92-9.32,14.39-26.39,18.07,11.35,2.71,19.26,7.26,20.14,12.67,1.23,7.93-12.78,15-32.58,17.28C-1.71,536.78,7.13,545.85,5,552.37c-3.1,9.21-26.89,9.87-53.13,1.45a127.87,127.87,0,0,1-15.72-6.09c17.26,24,22.48,46.56,11.31,53-12.93,7.42-42.4-9.07-66-36.67-3.5-4.13-6.68-8.31-9.55-12.45-2.23,20.14-10.91,34.32-22.11,33.75-13.92-.68-26.3-23.82-27.72-51.68a13.9,13.9,0,0,0,0-1.58c-20.64,22.18-46.09,33.29-58.85,25-10-6.45-9.58-23.13-.24-41.66-17.68,18.91-37.94,28.23-50.92,21.76-16-8-15.4-37,.17-67-17.12,12.79-35.41,17.92-43.94,11.31-8.68-6.8-4.25-23.6,9.66-39.88-10.14,4.22-19.13,4.88-24,.84-6-5.17-3.38-16.31,5.59-27.76-23,2.65-42.34-1.29-46.18-10.33-4.33-10.41,13.44-23.73,40.29-30.72C-377.52,373.16-402.57,364.57-405,352.59Z"/>
              <g>
                <path class="cls-8" d="M-1182.47,297.32c-3.62-9.4,12.88-21.9,37.27-28.67-28,0-50.24-7.37-52-18.33-2-12.54,23.8-24.86,57.53-27.58,0,0,1.2,0,1.81-.08-1.16-.55-2.29-1-3.44-1.55-27.75-13.1-45.52-31.8-39.65-41.73,4.73-8,23.07-8,44.5-1-35.65-19.61-57.23-44.79-48.79-58.46,9-14.58,48.84-10.37,89.46,9.29-12.22-14-16.74-28.44-10.19-32.81,5.88-3.94,18.64,1.45,30.44,12.17a147.12,147.12,0,0,1-5.81-16.37c-10.25-36.18-4.37-68,13.29-71,15.93-2.8,36,19.28,47.3,50.66,3.48-26.25,16-45.57,29.33-44.29a14.76,14.76,0,0,1,1.52.27c-23.18-32.54-29.68-64.61-14.19-73.12C-988-54.15-953.72-33.78-927.85.24a14.87,14.87,0,0,1,1,1.31c-.64-2.89-1.35-5.91-1.89-8.92C-936.91-51.91-926-89.83-904.33-92c16.57-1.55,34.43,17.85,45.8,46.73l-.07-.31c-1.06-29.49,9.78-53.22,24.21-53,8.23.1,15.75,7.77,20.92,19.69,1-3.75,3-6.43,6-7.39,5.16-1.64,12.18,2.14,18.72,9.2.14-13.07,4.75-22.9,11.71-23.29,3.7-.21,7.52,2.4,10.83,6.85-10.09-25.19-9.1-47.21,3.34-51.47,9.52-3.33,23.34,4.82,35.83,19.49-1.42-23.12,6.21-41.62,17.63-41.95,6.86-.22,13.56,6,18.53,15.86.11-20,7.15-35.23,17.68-35.72s21.26,14.05,26,34.16a84.62,84.62,0,0,1,6.61-14.44c11.7-20.23,29.38-32.74,39.62-28.21,2.56-15.5,9.64-26.25,18.49-26.22,8.68,0,16.74,10.41,21.12,25.4,2.16-9.72,6.88-16.31,12.77-16.35,5.6,0,10.8,6,14.06,15.06,5.1-.48,12.51,3.29,20,9.77-6.67-14.53-7-26.54.52-29.9s21.06,3.21,34,15.4c5.66-7.79,29.49-3.73,53.47,9.13a135,135,0,0,1,15.67,9.85c-9.83-19-10.79-35.6-1.36-39.23s26,6.79,40,23.91c-2.63-10.39-1.18-18.28,4.84-20.67,10.11-4.06,29.42,8.86,44.15,29.27.55-17.41,6.83-29.6,17.26-30.45,13.57-1.07,29.7,17.47,38.49,42.84-.25-5,1.21-8.72,4.54-10,6.23-2.26,17,4.42,26.08,15.6.78-8.59,4.22-14.49,9.77-15.06,3.22-.37,6.76,1.21,10.23,4.07-3.74-12.27-2.58-21.72,4.32-24.95,12.28-5.67,38,10.55,57.5,36.33l.21.26c-10.35-29.1-8.34-52.65,6.94-57.57,20.1-6.42,55.65,21.88,79.51,63.3,1.56,2.79,3,5.6,4.52,8.35,0-.52-.11-1-.11-1.49-1.27-39.12,13.94-69.61,34-68.18C-10.83-226,5.8-196,8.4-159.28c.36-.26.7-.58,1-.83,10.67-6.19,34.73,5.71,55.8,26.81-12-31.15-10-57.8,5.68-61.52,17.15-4.1,44.27,21,60.48,55.92a161.87,161.87,0,0,1,6.41,16.28c2.65-13.73,9.85-23.26,17.63-22.13,8.66,1.28,14.74,15.43,14,32,21.24-32.35,52.53-51.19,70.32-42.06,16.62,8.53,15.61,38.26-1.38,68.75,13.43-14.18,29.21-21.19,38.72-16.13C289-95.87,286.71-73,272-51.26c-.59.93-1.2,1.79-1.85,2.62,0,0,1.11-.39,1.59-.54,30.83-10.58,61.44-9.83,68.44,1.66,6,10-7.89,24.91-32,35.58,25.65-3.48,48.43.87,51.88,10.33,3,8.21-9.48,17.55-29.19,23.17,14.54,5.86,24.08,13.55,22.72,19.55-1,4.67-8.56,7.11-19.2,7.25,21.59,8,36.24,19.34,33.91,27.46-2.2,7.87-19.91,10-41.83,5.77,32,18,51.64,40.13,44.55,51.47-5.88,9.26-27.93,8.78-54.28.07,19.57,11.18,31,23.79,27.52,32.12-4.66,10.57-31.89,10.4-62.66.14.35.41.66.83,1,1.24,17.32,21.86,23,43.78,12.6,48.88-8.38,4.14-24.65-3.92-39.77-18.61a117.18,117.18,0,0,1,.88,12.66c-.15,29-12.34,51.36-27.33,49.93-13-1.25-23.82-20.28-26.25-44.45a78.39,78.39,0,0,1-8.25,9.88c-15,15.11-34,22.42-42.52,16.3-6-4.24-5.09-14.14,1.25-24.89-17.15,4.75-32.74,3.91-36.95-2.55-2.89-4.46.2-10.58,7.38-16.44-15.8,2.76-29.67.81-32.67-5.14l-.14-.29C79.52,201.1,67.37,205,60.63,200.78c-4.5-2.84-5.65-8.83-3.84-16-7.44,11.8-17.22,18.48-25.32,16.06C23,198.27,18.68,186.65,19.59,172c-3.61,7.15-8.71,11.36-14.43,10.8-10.63-1-19.28-18.18-19.71-38.71-1.59,1.67-3.19,3.35-4.94,5-21.64,20.45-48.55,30-60.16,21.23-3.89-2.91-5.45-7.63-5.11-13.4-3.69,3.46-7.73,5.11-11.43,4.19a9.44,9.44,0,0,1-4-2.22c2.31,12.51-.16,21.94-7.22,23.69-6.29,1.5-14.78-3.44-22.75-12.21,2.3,19.08-2.62,33.61-13,34.71-7.11.71-15.14-4.92-22.12-14.3-1.71,4-4.49,6.53-8.08,7-3,.29-6.23-.93-9.39-3.38,3.79,13.86,2.13,24.54-5.46,27s-19-4.12-29.6-15.64c-.94,8.43-4.18,14.4-9.19,15.39,12.05,19.6,14.78,36.61,5.16,42.3-8.13,4.79-23.17.51-39.55-10,3.06,16.7-1,30.26-9.54,30.8-7,.39-14.78-7.76-20-19.68-.9,2.24-38.9-9.66-40-7.77,0,0-22.59,48.37-36.13,49.82-11.2,1.25-33.5-35.65-33.5-35.65-2.31-1.2-37.11,7.74-39.46,6.15,3.79,12.2,2.74,22.2-3.49,24.47-7.76,2.79-20.58-7.23-29.45-22.75-6.9,15.27-16.75,24.7-27.08,23.65-12.22-1.26-21.57-16.8-24.85-38.29-5,1.1-11.93-2.75-18.49-9.68-1.16,14-6.52,23.91-14.64,24.7s-17-7.72-23.25-21.08c-1.16,3.33-3.11,5.59-5.81,6.51-3.37,1-7.42-.11-11.76-2.94.56,10.78-2.53,18.68-9,20.72-9.72,3.07-24-7.54-35.16-24.78-.76,10.57-4.7,18-11.1,19.17-7.24,1.22-15.87-5.93-22.55-17.6a6,6,0,0,1-2,3.48c-2.54,2.2-7.09,2.36-12.65.8,4.25,4.74,6.22,9.44,4.82,13.45-3.9,11.9-33.55,14-66.28,4.71-2.61-.7-5.15-1.56-7.7-2.41,13.89,17.77,18.34,35.8,9.83,40.77-4.43,2.65-11.76,1-19.84-3.84,10.91,12.22,15.25,23.89,9.79,29.29-5.25,5.2-18.35,3.17-32.82-4.17,6.45,5.57,9.55,11.09,7.75,15.23-2.87,6.24-15.92,7.53-32,4l0,.2c1.62,6.29-9,13.31-24.39,16.94C-831.9,380-825,384.1-824.46,389c.85,7.16-11.93,13.81-29.91,16.25,12.91,6.81,20.51,15,18.33,21-3.12,8.45-24.52,9.4-47.78,2.16a107.57,107.57,0,0,1-13.88-5.34c14.62,21.64,18.48,42.19,8.12,48.2-11.79,7-37.78-7.59-57.91-32.46-2.91-3.72-5.68-7.43-8.06-11.2-2.73,18.42-11.12,31.53-21.18,31.19-12.46-.44-22.75-21.38-22.95-46.71,0,0,0-1,0-1.47-19.41,20.56-42.61,31.11-53.83,23.8-8.79-5.85-7.74-21,1.28-38-16.62,17.53-35,26.31-46.51,20.6-14-7-12.49-33.49,2.62-61.14-15.87,12-32.57,16.95-40,11-7.55-6-2.9-21.4,10.15-36.52-9.24,4-17.37,4.76-21.55,1.14-5.23-4.59-2.45-14.85,6.09-25.42C-1162.2,308.78-1179.45,305.46-1182.47,297.32Z"/>
                <path class="cls-10" d="M-1055.77,331.52c0,.39,0,.88,0,1.35-.88,24,8.6,43.52,21.1,43.56,10.09.07,19.05-12.58,22.57-30.07a104.11,104.11,0,0,0,7.63,10.34c19.2,23,44.59,36,56.71,29.09,10.65-6.05,7.62-25.29-6.08-45.39a110.33,110.33,0,0,0,13.64,4.69c23.12,6.17,44.57,4.67,48.1-3.46,2.38-5.73-4.87-13.23-17.57-19.3,18.11-2.82,63-7,62.42-13.83-.37-4.59-74.72-30.89-23.82-29.27l-.08-.17c16,2.88,30.3,1.58,32.36-4.64,3.31-10.52-65.09-47.69-71.38-52.78,14.28,6.47,86.86,46.67,92.36,41.65,5.67-5.33,6.5-16.25-3.94-27.5,7.9,4.27,15.15,5.64,19.77,3.06,8.71-4.91,5-21.85-8.17-38.28,2.49.74,5,1.41,7.64,2.09,32.39,7.85,62.24,5,66.65-6.37,1.51-3.9-.18-8.24-4.28-12.55,5.43,1.33,29.42,12.91,36.72,11.47,6.52-1.24,10.7-8.38,11.91-18.38,10.49,16,24.46,25.58,34.32,22.47,6.63-2.14,26.45-20.57,27.61-23.76,5.77,12.45,16.64,47,24.78,45.89s11.71-37.13,13.48-50.37c6.29,6.35,29.24,43.3,41.47,44.09,10.26.73,20.63-8.47,28.11-23.07,8.3,14.37,20.75,23.54,28.61,20.63,6.31-2.29,30.37-42.59,27.06-54,2.25,1.43,40.91,70.54,69.48,59.34,35.83-14-5.4-79.51-4.38-81.67,4.65,11.18,57,62,81.63,55.12,8.23-2.35,16.43-20.86,3.16-46.56,14.56,18.47,31.65,31.17,47,25.44,25.12-9.35,6.34-55.9,7.54-64,10.13,10.62,35,32,47.22,21.84,5.89-4.88-10.08-26-22.91-61.5,9,20.7,32.89,48.16,50.4,40.89,20.34-8.37-21-71-22.59-89,7.62,8,52.13,73.61,58.51,71.95,7.19-1.8,10-10.74,8.28-22.51A8.86,8.86,0,0,0-138.9,70c3.73.78,7.86-.83,11.67-4.2-.61,5.4.79,9.78,4.6,12.51,11.24,7.85,38.67-1.88,61.25-21.79,1.75-1.67,3.47-3.26,5.07-4.87-.36,19.4,7.59,35.36,18.23,36,5.69.37,11-3.77,14.9-10.64-1.47,13.81,2.4,24.72,10.72,26.92C-4.37,106.05,19,76.69,27,65.25c-2,6.89-9.76,37.46,2.55,38.43,12,.93,46.16-42.44,46.16-42.44-6.91,15.74-17.55,43.53-3.6,52.57C78.58,118,125.91,89,143.23,84c-6.77,10.37-42.4,50.85-36.46,54.79,8.28,5.47,27.7-2,43.31-16.71a79.71,79.71,0,0,0,8.65-9.55c1.49,22.76,11.53,40.46,24.59,41.3,14.9.94,28.08-20.53,29.33-48a84.36,84.36,0,0,0-.26-11.94c14.57,13.48,30.5,20.65,39.11,16.5,10.71-5.14,5.87-25.68-10.61-45.89l-.71-.76c30.26,8.44,57.53,7.87,62.5-2.22,4-8-7-19.68-26.11-29.68,26.06,7.49,48.2,7.34,54.4-1.56A10.39,10.39,0,0,0,332.24,22c14.27,5.81,23.5,13.34,22.17,19.26-1,4.67-8.56,7.12-19.2,7.25,21.59,8,36.24,19.35,33.91,27.46-2.2,7.87-19.91,10-41.83,5.77,32,18,51.64,40.14,44.55,51.48-5.88,9.26-27.93,8.77-54.28.06,19.57,11.18,31,23.8,27.52,32.12-4.66,10.57-31.89,10.41-62.66.15.35.41.66.83,1,1.24,17.32,21.85,23,43.77,12.6,48.87-8.38,4.14-24.65-3.91-39.77-18.61a117.36,117.36,0,0,1,.88,12.66c-.15,29-12.34,51.37-27.33,49.93-13-1.24-23.82-20.28-26.25-44.45a78.39,78.39,0,0,1-8.25,9.88c-15,15.11-34,22.43-42.52,16.31-6-4.25-5.09-14.15,1.25-24.89-17.15,4.75-32.74,3.9-37-2.56-2.89-4.46.2-10.58,7.38-16.43-15.8,2.75-29.67.8-32.67-5.15l-.14-.28c-11.26,9.18-23.4,13.08-30.14,8.86-4.51-2.84-5.66-8.82-3.85-16C50.24,196.7,40.46,203.38,32.36,201c-8.49-2.53-12.79-14.16-11.88-28.76-3.61,7.15-8.71,11.36-14.43,10.79-10.63-1-19.28-18.18-19.71-38.71-1.59,1.67-3.19,3.36-4.94,5-21.64,20.45-48.55,29.95-60.16,21.22-3.89-2.91-5.45-7.63-5.11-13.39-3.69,3.45-7.73,5.11-11.43,4.18a9.32,9.32,0,0,1-4-2.21c2.31,12.5-.16,21.93-7.22,23.69-6.29,1.49-14.78-3.44-22.75-12.21,2.3,19.08-2.62,33.6-13,34.71-7.11.7-15.14-4.93-22.12-14.3-1.71,4-4.49,6.53-8.08,7-3,.29-6.23-.93-9.39-3.37,3.79,13.86,2.13,24.54-5.46,27s-19-4.12-29.6-15.64c-.94,8.44-4.18,14.4-9.19,15.39,12,19.6,14.78,36.61,5.16,42.31-8.13,4.79-23.17.5-39.55-10,3.06,16.7-1,30.26-9.54,30.8-6.95.38-14.78-7.77-20-19.69-.9,2.24-38.9-9.66-40-7.77,0,0-22.59,48.38-36.13,49.82-11.2,1.25-33.5-35.64-33.5-35.64-2.31-1.21-37.11,7.73-39.46,6.14,3.79,12.21,2.74,22.21-3.49,24.47-7.76,2.8-20.58-7.23-29.45-22.75-6.9,15.28-16.75,24.7-27.08,23.66-12.22-1.26-21.57-16.81-24.85-38.29-5,1.1-11.93-2.76-18.49-9.68-1.16,14-6.52,23.91-14.64,24.7s-17-7.72-23.25-21.09c-1.16,3.33-3.11,5.59-5.81,6.52-3.37,1-7.42-.12-11.76-2.95.56,10.78-2.53,18.68-9,20.73-9.72,3.06-24-7.55-35.15-24.79-.77,10.58-4.71,18-11.11,19.17-7.24,1.23-15.87-5.93-22.55-17.6a6,6,0,0,1-2,3.48c-2.54,2.2-7.09,2.36-12.65.81,4.25,4.73,6.22,9.44,4.82,13.44-3.9,11.9-33.55,14-66.28,4.71-2.61-.7-5.15-1.56-7.7-2.41,13.89,17.78,18.34,35.8,9.83,40.78-4.43,2.64-11.76,1-19.84-3.84,10.91,12.21,15.25,23.89,9.79,29.29-5.25,5.2-18.35,3.16-32.82-4.17,6.45,5.56,9.55,11.08,7.75,15.22-2.87,6.24-15.92,7.53-32,4l0,.19c1.62,6.29-8.95,13.31-24.39,16.94,10.23,2.28,17.14,6.36,17.67,11.29.85,7.16-11.93,13.81-29.91,16.25,12.91,6.81,20.51,15,18.33,21-3.12,8.45-24.52,9.4-47.78,2.15a107.57,107.57,0,0,1-13.88-5.34c14.62,21.65,18.48,42.2,8.12,48.21-11.79,7-37.78-7.59-57.91-32.47a136.48,136.48,0,0,1-8.06-11.2c-2.73,18.42-11.12,31.54-21.18,31.19-12.46-.44-22.75-21.38-22.95-46.71,0,0,0-1,0-1.47-19.41,20.56-42.61,31.12-53.83,23.8-8.79-5.84-7.74-21,1.28-38-16.62,17.54-35.05,26.31-46.51,20.6-13.9-7-12.48-33.16,2.35-60.71C-1083.79,353.63-1069,344.65-1055.77,331.52Z"/>
              </g>
            </g>
            <g>
              <path class="cls-8" d="M973.6-122.85c-7.19-12.24-41.65-8.07-77.26,9.18,11-12,15.39-24.35,9.88-28-4.89-3.26-16.08,1.52-26.6,10.78a127.21,127.21,0,0,0,5.51-13.92c10.13-30.84,6.13-57.67-8.9-60-13.7-2.14-31.77,16.9-42.49,43.59-2.11-22.14-12.17-38.31-23.73-37.11-.49.09-.9.22-1.32.29,21.08-27.88,27.79-55.14,14.8-62.08-13.61-7.29-43.78,10.47-67.28,39.68a6,6,0,0,1-.92,1.09c.76-2.43,1.37-5,2-7.52,8.63-37.93.53-69.82-18.15-71.33-14.08-1.09-30.2,15.63-40.94,40.29l.06-.3c1.92-25-6.6-44.95-19.06-44.55-7,.17-13.76,6.8-18.64,17-.73-3.15-2.33-5.43-4.89-6.17-4.39-1.31-10.58,2-16.47,8,.33-11-3.26-19.25-9.23-19.48-3.2-.13-6.6,2.14-9.51,5.93,9.47-21.47,9.38-40.06-1.12-43.53-8.13-2.61-20.3,4.42-31.53,17.07,2-19.55-3.91-35.13-13.73-35.25-5.91-.08-11.89,5.27-16.48,13.69.57-17-5-29.72-14.06-30S524.81-363.23,520-346.16a62.9,62.9,0,0,0-5.2-12.13c-9.3-16.9-24.06-27.32-33-23.32-1.74-13-7.47-22-15.12-21.9-7.46.16-14.75,9.1-19,21.86-1.55-8.25-5.44-13.77-10.5-13.67-4.81.09-9.47,5.3-12.6,13-4.41-.38-10.9,2.92-17.53,8.56,6.24-12.42,6.9-22.56.58-25.29s-18.23,3-29.79,13.56c-4.54-6.54-25.29-2.76-46.33,8.51a125.87,125.87,0,0,0-13.8,8.55c7.27-13,9.53-24.51,6.07-30.1l-22,2.45A86.81,86.81,0,0,0,285-380.81c1.63-5.56,1.83-10.27.48-13.48l-23.93,2.66a92.93,92.93,0,0,0-19,18.83,41.34,41.34,0,0,0-2.8-16.42l-31.76,3.53a89.55,89.55,0,0,0-13.83,24.25c.43-4.3-.72-7.38-3.58-8.35-5.27-1.88-14.73,3.9-23,13.45-.36-7.22-3.08-12.13-7.86-12.54-2.78-.25-5.85,1.12-8.89,3.56,2-5.63,2.6-10.52,1.9-14.27q-17.08,1.89-34.16,3.74a125,125,0,0,0-21.38,21.18l-.12.1a98.75,98.75,0,0,0,5.64-19.54Q69-370.42,35.38-366.75a182.8,182.8,0,0,0-13,18.41c-1.53,2.39-2.87,4.77-4.17,7.18,0,0,0-.88.07-1.31a104.22,104.22,0,0,0-.62-22.35l-58.44,6.39a116.4,116.4,0,0,0-3.23,17,3,3,0,0,0-.81-.67c-9-5.12-30.14,5.29-49,23.55,5.73-13.34,8.4-25.65,8-35l-47.5,5.19a137.14,137.14,0,0,0-17.1,26,136.33,136.33,0,0,0-6.06,13.86C-158.4-320-164.27-328-171-326.88c-7.48,1.18-13.25,13.27-13.16,27.3-17.13-27.06-43.48-42.52-59.12-34.53-14.57,7.44-14.67,32.65-1.11,58.2-11.13-11.83-24.44-17.54-32.81-13.14-10.5,5.57-9.28,24.86,2.67,43.09a18,18,0,0,0,1.54,2.22l-.93-.37c-26.67-8.65-53-7.51-59.4,2.34-5.55,8.58,5.92,21,26.27,29.66-21.91-2.56-41.68,1.49-45,9.58-2.85,6.94,7.52,14.69,24.28,19.1-12.69,5.22-21.15,11.86-20.22,16.89.77,3.94,7.17,5.93,16.33,5.85-18.93,7.1-31.9,17-30.24,23.79s16.9,8.19,35.9,4.28c-28.21,15.69-45.85,34.7-40.1,44.23,4.65,7.79,23.65,7,46.64-.76-17.19,9.79-27.52,20.63-24.71,27.64,3.56,8.88,27,8.32,53.88-.81-.35.36-.64.68-.92,1-15.68,18.83-21.3,37.42-12.57,41.64,7.06,3.36,21.34-3.72,34.86-16.43A76,76,0,0,0-270-25.32c-1,24.59,8.83,43.35,21.66,41.91C-237,15.29-227-1-224.09-21.46a58.49,58.49,0,0,0,6.71,8.24C-205-.65-188.85,5.25-181.35,0c5.38-3.76,4.92-12.13-.15-21.16,14.49,3.83,27.94,2.88,31.87-2.68,2.67-3.82.17-8.94-5.8-13.78,13.51,2.09,25.54.22,28.27-4.92l.07-.1c9.46,7.52,19.76,10.62,25.69,6.91,3.94-2.45,5.18-7.49,3.91-13.56,6,9.89,14.11,15.41,21.25,13.18,7.32-2.23,11.49-12.18,11.16-24.54,2.85,6,7.14,9.47,12.06,8.95,9.17-1,17.24-15.68,18.33-33.09,1.27,1.42,2.65,2.78,4,4.2C-12.74-63.6,10.1-56,20.39-63.54c3.45-2.57,5-6.56,4.89-11.4,3.07,2.84,6.44,4.17,9.66,3.33a9,9,0,0,0,3.53-1.94C36.13-62.91,37.9-55,43.93-53.62c5.35,1.19,12.82-3.09,20-10.67C61.26-48,65-35.86,73.9-35c6,.47,13.19-4.38,19.55-12.48,1.34,3.41,3.59,5.49,6.67,5.77,2.54.21,5.38-.85,8.19-2.93C104.58-33,105.67-23.87,112.07-22s16.54-3.74,26.07-13.66c.41,7.16,3,12.13,7.33,12.91-11,16.81-13.95,31.19-5.87,35.89,6.79,4,19.88.12,34.38-9-3.27,14.2-.22,25.56,7.14,25.89,5.92.28,13-6.75,17.8-16.94.73,1.9,33.84-8.78,34.69-7.18,0,0,17.75,40.67,29.37,41.68,9.6.85,30.1-30.77,30.1-30.77,1.95-1,31.69,6,33.74,4.67-3.73,10.4-3.14,18.86,2.19,20.69,6.52,2.23,17.91-6.5,26.1-19.73,5.35,12.8,13.56,20.61,22.48,19.61,10.5-1.23,19.11-14.53,22.69-32.75,4.26.83,10.32-2.54,16.28-8.52.49,11.77,4.74,20.12,11.69,20.73s14.9-6.83,20.82-18.21c.77,2.77,2.35,4.7,4.73,5.37,2.8.83,6.44-.19,10.14-2.63-.77,9.14,1.55,15.78,7.15,17.44C479.26,25.93,492,16.77,502.19,2c.31,8.91,3.39,15.21,8.85,16.06,6.24.93,13.94-5.26,20.09-15.19a4.69,4.69,0,0,0,1.51,2.86c2.18,1.84,6.1,1.92,10.93.52-3.87,4.05-5.64,8.06-4.66,11.44,2.94,10,28.41,11.34,56.86,3,2.26-.68,4.46-1.42,6.72-2.15-12.57,15.22-17,30.57-9.91,34.66,3.77,2.17,10.15.58,17.26-3.54-9.8,10.47-14,20.45-9.45,24.92,4.39,4.31,15.63,2.39,28.38-4-5.76,4.81-8.58,9.52-7.12,13,2.2,5.2,13.45,6.14,27.41,2.87l-.12.2c-1.59,5.35,7.2,11.13,20.4,14-8.77,2.1-14.89,5.61-15.57,9.79-.95,6.13,9.88,11.58,25.18,13.36-11.31,6-18.14,13-16.48,18,2.4,7.12,20.78,7.63,41.06,1.13a100.7,100.7,0,0,0,12.15-4.71c-13.34,18.57-17.37,36-8.74,40.94,10,5.74,32.78-7,51-28.34,2.71-3.19,5.17-6.42,7.38-9.62,1.73,15.57,8.44,26.52,17.09,26.09,10.76-.53,20.33-18.42,21.43-39.95a9.93,9.93,0,0,1,0-1.22c15.95,17.14,35.62,25.73,45.49,19.33,7.74-5,7.39-17.88.18-32.2C863.18,127.82,878.83,135,888.87,130c12.27-6.17,11.9-28.58-.14-51.76C902,88.15,916.1,92.11,922.7,87s3.28-18.24-7.47-30.82c7.84,3.26,14.79,3.77,18.52.65,4.65-4,2.61-12.6-4.32-21.46,17.8,2.05,32.72-1,35.69-8,3.35-8-10.38-18.34-31.14-23.74,24.13-.41,43.5-7.06,45.4-16.32,2.16-10.63-19.58-20.68-48.56-22.47l-1.57,0c1.07-.46,2-.86,3-1.37C956.61-48,972.51-64.11,967.84-72.49c-3.78-6.69-19.6-6.41-38.2-.16C961-89.81,980.4-111.46,973.6-122.85Z"/>
              <path class="cls-11" d="M979.38-12.67c1.16-5.57-4.36-11-14-15.12-6.59,2.28-16.44,3-27.39,1.74,6.93,8.86,9,17.46,4.31,21.42-3.67,3.11-10.73,2.61-18.52-.61,10.7,12.59,14.18,25.57,7.47,30.83-6.53,5.1-20.74,1.15-34-8.79,12,23.23,12.41,45.59.13,51.75-10,5-25.63-2.16-39.36-16.77,7.21,14.32,7.62,27.21-.19,32.2-9.91,6.35-29.53-2.24-45.46-19.33,0,.4-.05.79-.09,1.23-1,21.53-10.6,39.36-21.3,39.94-8.72.39-15.5-10.57-17.22-26.09-2.21,3.16-4.62,6.39-7.36,9.58-18.17,21.37-41,34.08-50.89,28.38-8.69-5-4.65-22.36,8.63-40.93a100.4,100.4,0,0,1-12.1,4.7c-20.33,6.51-38.72,6-41.06-1.13-1.66-5.08,5.17-12,16.49-18-15.37-1.78-26.2-7.26-25.19-13.31.68-4.21,6.8-7.78,15.62-9.84-13.18-2.9-22-8.62-20.44-14a.28.28,0,0,1,0-.15c-14,3.17-25.2,2.32-27.41-2.92-1.46-3.49,1.42-8.2,7.19-13-12.75,6.39-24,8.26-28.39,4-4.53-4.51-.35-14.45,9.41-24.91-7.06,4.16-13.39,5.65-17.21,3.48-7.09-4-2.6-19.4,9.83-34.65-2.13.77-4.32,1.45-6.65,2.14-28.44,8.38-53.91,7-56.86-3-1-3.43.79-7.38,4.59-11.47-4.82,1.38-8.74,1.36-10.85-.49a4.7,4.7,0,0,1-1.51-2.86c-6.22,9.93-13.86,16.13-20,15.18-5.57-.83-8.6-7.09-8.85-16.06-10.29,14.78-23,24-31.15,21.53-5.55-1.67-7.87-8.32-7.1-17.4-3.81,2.44-7.39,3.46-10.19,2.63-2.38-.71-3.9-2.6-4.8-5.36-5.86,11.37-13.75,18.75-20.76,18.15S425.48-48.79,425-60.65c-5.83,6-12,9.4-16.27,8.53-3.47,18.2-12.07,31.54-22.69,32.79-8.87,1-17.07-6.81-22.42-19.62-8.2,13.23-19.64,22-26.18,19.73-5.25-1.83-5.84-10.29-2.11-20.69-2.12,1.36-31.79-5.67-33.8-4.67,0,0-20.45,31.58-30.06,30.72-11.61-1-29.29-41.63-29.29-41.63-1-1.59-34,9.08-34.76,7.19-4.83,10.14-11.88,17.21-17.79,16.93-7.37-.33-10.36-11.74-7.15-25.89-14.51,9.09-27.53,13-34.39,9C140-52.94,142.92-67.32,154-84.19c-4.24-.68-6.92-5.7-7.34-12.9-9.59,10-19.66,15.6-26.06,13.7s-7.49-11-3.7-22.72c-2.86,2-5.65,3.15-8.25,2.93-3.08-.28-5.34-2.36-6.69-5.76C95.59-100.84,88.45-96,82.41-96.51c-8.89-.76-12.64-13-10.06-29.19-7.1,7.52-14.57,11.86-19.92,10.67-6.07-1.34-7.84-9.29-5.45-19.94A8.93,8.93,0,0,1,43.5-133c-3.28.85-6.71-.48-9.77-3.33.19,4.8-1.39,8.83-4.89,11.4-5.74,4.22-15.46,3.67-26-.63,9.78-4,15.76-9.12,15.32-14.19-.83-8.48-19.76-13.48-43.06-11.77,23.7-8.15,39.5-20.62,36.6-29.74-3.38-10.51-30-12.75-59.71-5-.53.14-1,.32-1.55.45.76-.73,1.51-1.46,2.26-2.24,18.22-18.47,25.71-38.49,16.72-44.68-7.13-5-22.62.45-37.86,12.3,22.18-26,30.26-52.29,17.75-60.63-13.44-8.9-45.52,6.13-71.92,33.59,4.64-14.64,2.73-27.43-4.62-29-6.51-1.41-15.15,6.6-20.8,18.59a105.46,105.46,0,0,0-1.68-14.65c-4.42-24-15.69-43.23-27.9-50-4,5-6.55,13.49-6.46,22.91a102.21,102.21,0,0,0-15.6-19.15c-7.94,9.13-11.65,27.2-9.42,47.79-13.47-19.74-31.77-31.43-42.65-26.52l-.7.49a94.32,94.32,0,0,0,8.14,21.06c-11.13-11.83-24.44-17.54-32.81-13.14-10.5,5.57-9.28,24.86,2.67,43.09a18,18,0,0,0,1.54,2.22l-.93-.37c-26.67-8.65-53-7.51-59.4,2.34-5.55,8.58,5.92,21,26.27,29.66-21.91-2.56-41.68,1.49-45,9.58-2.85,6.94,7.52,14.69,24.28,19.1-12.69,5.22-21.15,11.86-20.22,16.89.77,3.94,7.17,5.93,16.33,5.85-18.93,7.1-31.9,17-30.24,23.79s16.91,8.18,35.9,4.28c-3.83,2.16-7.47,4.35-10.87,6.56-1.17.76-2.35,1.57-3.46,2.32l-1.59,1.13c-.87.6-1.7,1.18-2.51,1.77-.53.43-1.11.85-1.64,1.28-.75.54-1.45,1.11-2.16,1.65-.51.43-1.1.9-1.57,1.27-.7.58-1.34,1.11-2,1.69l-1.4,1.26-1.86,1.67c-.41.42-.81.79-1.22,1.2-.57.58-1.21,1.2-1.73,1.82-.34.36-.63.68-1,1-.8.92-1.61,1.85-2.3,2.73l-.22.26c-.64.82-1.26,1.63-1.78,2.45a4.24,4.24,0,0,0-.56.86c-.4.61-.73,1.17-1.08,1.72a6.72,6.72,0,0,1-.44.95c-.28.51-.5,1-.72,1.51-.11.3-.22.59-.38,1s-.26.93-.36,1.38c0,0-.17.64-.21.94,0,0-.09.88-.13,1.32a3.39,3.39,0,0,0,0,.78,5,5,0,0,0,.17,1.34v.44a9,9,0,0,0,.88,2c4.65,7.79,23.65,7,46.64-.76-17.19,9.79-27.52,20.63-24.71,27.64,3.56,8.88,27,8.32,53.88-.81-.35.36-.64.68-.92,1-15.68,18.83-21.3,37.42-12.57,41.64,7.06,3.36,21.34-3.72,34.86-16.43A76,76,0,0,0-270-25.32c-1,24.59,8.83,43.35,21.66,41.91C-237,15.29-227-1-224.09-21.46a58.49,58.49,0,0,0,6.71,8.24C-205-.65-188.85,5.25-181.35,0c5.38-3.76,4.92-12.13-.15-21.16,14.49,3.83,27.94,2.88,31.87-2.68,2.67-3.82.17-8.94-5.8-13.78,13.51,2.09,25.54.22,28.27-4.92l.07-.1c9.46,7.52,19.76,10.62,25.69,6.92,3.94-2.46,5.18-7.5,3.91-13.57,6,9.89,14.11,15.41,21.25,13.18,7.32-2.23,11.49-12.18,11.16-24.54,2.85,6,7.14,9.47,12.06,8.95,9.17-1,17.24-15.68,18.33-33.09,1.27,1.42,2.65,2.78,4,4.2,1.63,1.53,3.32,2.93,5.06,4.32.31.27.56.5.87.76,1.75,1.39,3.48,2.68,5.22,3.83l.25.22c15.3,10.29,31.41,14,39.65,7.93,3.45-2.57,5-6.56,4.89-11.4,3.07,2.84,6.44,4.17,9.66,3.33a9,9,0,0,0,3.53-1.94C36.13-62.91,37.9-55,43.93-53.62c5.35,1.19,12.82-3.09,20-10.67C61.26-48,65-35.85,73.9-35c6,.47,13.19-4.38,19.55-12.48,1.34,3.41,3.59,5.49,6.67,5.77,2.54.21,5.39-.85,8.19-2.93C104.58-33,105.67-23.87,112.07-22s16.54-3.74,26.07-13.66c.41,7.16,3,12.13,7.33,12.91-11,16.81-13.95,31.19-5.87,35.89,6.79,4,19.88.12,34.38-9-3.27,14.2-.22,25.56,7.14,25.89,5.92.28,13-6.75,17.8-16.94.73,1.9,33.84-8.78,34.69-7.18,0,0,17.75,40.67,29.37,41.68,9.6.85,30.1-30.77,30.1-30.77,1.95-1,31.69,6,33.74,4.67-3.73,10.4-3.14,18.86,2.19,20.69,6.52,2.23,17.91-6.5,26.1-19.73,5.35,12.8,13.56,20.61,22.48,19.61,10.5-1.23,19.11-14.53,22.69-32.75,4.26.83,10.32-2.54,16.28-8.52.49,11.77,4.74,20.12,11.69,20.73s14.9-6.83,20.82-18.21c.77,2.77,2.35,4.7,4.73,5.37,2.8.83,6.44-.19,10.14-2.63-.77,9.14,1.55,15.78,7.15,17.44C479.26,25.93,492,16.77,502.19,2c.31,8.91,3.39,15.21,8.85,16.06,6.24.93,13.94-5.26,20.09-15.19a4.69,4.69,0,0,0,1.51,2.86c2.18,1.84,6.1,1.92,10.93.52-3.87,4.05-5.64,8.06-4.66,11.44,2.94,10,28.41,11.34,56.86,3,2.26-.68,4.46-1.42,6.72-2.15-12.56,15.22-17,30.57-9.91,34.66,3.77,2.17,10.15.58,17.26-3.54-9.8,10.47-14,20.45-9.45,24.92,4.39,4.31,15.63,2.39,28.38-4-5.76,4.8-8.58,9.51-7.12,13,2.2,5.2,13.45,6.14,27.41,2.87l-.12.2c-1.59,5.35,7.2,11.13,20.4,14-8.77,2.1-14.89,5.61-15.57,9.79-.95,6.13,9.88,11.58,25.18,13.36-11.31,6-18.14,13-16.48,18,2.4,7.12,20.78,7.63,41.06,1.13a100.7,100.7,0,0,0,12.15-4.71c-13.33,18.58-17.37,36-8.74,40.94,10,5.74,32.78-7,51-28.34,2.71-3.19,5.17-6.42,7.38-9.62,1.73,15.57,8.44,26.52,17.09,26.09,10.76-.53,20.33-18.42,21.43-39.95a9.93,9.93,0,0,1,0-1.22c15.95,17.14,35.62,25.73,45.49,19.33,7.74-5,7.39-17.88.18-32.2C863.18,127.82,878.83,135,888.87,130c12.33-6.17,11.9-28.58-.14-51.76C902,88.15,916.1,92.11,922.7,87s3.28-18.24-7.47-30.82c7.84,3.26,14.79,3.77,18.52.65,4.65-4,2.61-12.6-4.32-21.46,17.8,2.05,32.72-1,35.69-8,3.35-8-10.38-18.34-31.14-23.74C958.11,3.24,977.48-3.41,979.38-12.67Z"/>
            </g>
            <path class="cls-8" d="M17.45-145.6c.9-7.74-13.85-13.93-33.41-14.32,21-5.35,36.2-15.16,35.43-23.7-.9-9.78-22.59-14-48.37-9.61,0,0-.91.22-1.37.28.76-.62,1.51-1.2,2.28-1.81C-9.73-209.9,0-227.3-6.32-233.62c-5.08-5.08-18.8-1.54-33.5,7.82,22.93-21.53,34.25-44.52,25.31-53.13-9.51-9.2-38.56,1.61-65.2,24.12,6.47-12.81,7.08-24.51,1.34-26.52-5.16-1.83-13.68,4.66-20.46,14.95a113.91,113.91,0,0,0,1.21-13.37c.73-29.05-9.77-51.73-23.59-50.64-12.46,1-23.28,21.36-25.69,47-7.64-19-20.7-31.05-30.46-27.54-.37.12-.71.34-1.09.5,11.12-28.81,9.83-54.07-3.41-57.47-13.77-3.54-35.5,18.29-48.35,48.72a12.56,12.56,0,0,0-.48,1.17c-.07-2.29-.12-4.68-.3-7-2.44-34.91-17.88-61.21-34.53-58.68-12.7,2-22.35,20-25.33,43.78v-.25c-4.87-22.28-17.54-38-28.31-35.07-6.14,1.65-10.3,8.84-11.88,18.75-1.5-2.61-3.5-4.23-5.93-4.37-4.19-.24-8.71,3.94-12.26,10.48-2.61-9.76-7.95-16.23-13.23-15.19-2.81.55-5.17,3.24-6.79,7.21,2.71-20.8-2.26-37.09-12.38-37.9-7.77-.67-16.56,8.09-23.1,21.48-3.36-17.59-12.63-30-21.25-28-5.17,1.16-9,7.1-10.82,15.44-3.94-15-12.12-25-20.1-23.36s-13.21,14.6-12.92,30.57a66.07,66.07,0,0,0-7.72-9.54c-12.64-12.9-28.28-18.87-35.08-13.51-4.89-11.12-12.26-17.81-18.88-16.09s-10.53,11-10.93,23.07c-3.49-6.86-8.28-10.89-12.71-9.79-4.18,1.09-6.92,6.57-7.63,14-3.91.62-8.74,4.87-13.09,11.16,2.2-12.16.11-21.21-6.13-22.29s-15.15,6.45-22.5,18.06c-5.73-4.75-22.8,2.86-38.28,17.09a103.19,103.19,0,0,0-9.84,10.39c3.7-16.15,1.24-28.73-6.51-29.64s-18.14,10.07-25.36,25.58c0-8.29-2.63-13.91-7.6-14.55-8.35-1.1-20.33,12.28-27.43,30.4-3.76-12.94-10.8-20.86-18.77-19.49-10.36,1.8-18.88,18.78-20.6,39.46-.77-3.82-2.58-6.3-5.32-6.61-5.1-.51-11.85,6.56-16.53,16.67-2.23-6.27-5.94-10-10.2-9.39-2.49.34-4.83,2.2-6.88,5,.44-9.91-2.24-16.76-8-17.85-10.29-1.89-26.47,15.2-36.09,38.23l-.1.24c2.16-23.78-3.86-41-16.25-41.77-16.28-.95-37.47,27.06-47.38,62.65-.64,2.39-1.21,4.77-1.78,7.12-.09-.4-.11-.79-.21-1.14-6.55-29.53-23.79-49.44-38.55-44.52-14,4.69-20.73,30.35-15.62,58.35-.32-.12-.63-.29-1-.42-9.17-2.58-24.9,10.95-36.63,30.78,3-25.61-3.58-45.19-16.05-45-13.64.23-29.13,24.21-34.56,53.48a123.77,123.77,0,0,0-1.67,13.42c-4.62-9.78-11.85-15.53-17.45-13.19-6.24,2.62-8.07,14.38-4.29,26.67-22.12-20.14-49.16-28.25-60.73-18-10.81,9.57-4.34,31.63,14.23,51.21-12.78-8-25.94-10.26-32.09-4.65-7.72,7-1.63,23.66,13.59,37.12.62.58,1.24,1.11,1.89,1.61l-1.3-.1c-25.11-2-47.89,4.43-50.92,14.38-2.59,8.66,10.69,17.13,30.81,20.49-19.87,2.32-36.09,10-36.87,17.69-.67,6.72,10.47,11.32,26.31,11.75-9.76,7.17-15.43,14.76-13.26,19,1.68,3.3,7.78,3.69,15.76,1.75-14.63,10.09-23.41,21.43-20.11,27.06,3.16,5.47,16.83,3.68,32.42-3.71-20.5,19.63-31,40-23.47,47.09,6.18,5.81,22.59,1.21,40.65-10.36C-1149,31.3-1155.16,43-1150.94,48.51c5.52,7,25.87,1.67,47-11.92-.19.37-.34.75-.53,1.12-8.78,19.69-8.83,37.2-.06,39,7.07,1.49,17.71-7.67,26.2-21.57a93.87,93.87,0,0,0,1.78,9.65c5.69,21.72,19.1,36.09,30,32.14,9.52-3.43,14-19.76,11.13-38.32a60.69,60.69,0,0,0,8.07,5.81c14.13,8.44,29.77,10.27,35,4,3.71-4.34,1.1-11.57-5.71-18.4,13.75.27,25.26-3.36,27.18-9,1.31-3.89-2.18-7.88-8.68-10.89,12.36-1,22.37-5.09,23.47-10.12l0-.24c10.19,4.71,20,5.3,24.27.85C-929,17.7-929.28,13-932,8c7.83,7.41,16.43,10.53,22,7.17,5.87-3.53,6.86-13.06,3.38-23.82,4.07,4.66,8.7,6.83,12.87,5.31,7.77-2.79,11-17.31,7.33-32.76,1.52.94,3,1.89,4.66,2.8,20.13,11.16,42.1,13.11,49.12,4.35,2.36-2.93,2.62-6.76,1.25-11,3.43,1.88,6.77,2.34,9.37.94a7.28,7.28,0,0,0,2.59-2.44c.67,9.81,4.33,16.4,9.95,16.36,5-.09,10.41-5.42,14.69-13.51,1.94,14.73,8.41,24.66,16.4,23.49,5.46-.84,10.38-6.59,13.81-14.95,2,2.66,4.62,4,7.39,3.67,2.31-.36,4.49-1.89,6.38-4.33C-751-19.67-747.67-12-741.52-11.6s13.45-6.74,19.17-17.39c2.32,6.13,5.89,10,9.83,9.75-5.26,17-4,30.25,4.25,32.67,7,2,17.45-4.07,27.7-15.06.92,13.1,6.55,22.47,13.06,21.23,5.28-1,9.57-8.65,11.17-18.57,1.11,1.51,27.27-14.7,28.43-13.49,0,0,26.2,31.89,36.61,30.37,8.63-1.21,18.24-33.12,18.24-33.12,1.5-1.34,29.28-1.33,30.73-3C-542.83-8.31-540.12-1-535-.53c6.34.61,14-9.36,17.68-22.68,8.1,10.11,17.28,15.28,24.81,12.51,8.91-3.29,12.93-16.72,11.26-33.43,3.92-.13,8.41-4.36,12-10.8,3.55,10.23,9.47,16.65,15.7,15.68s11.27-9,13.36-20.24c1.51,2.26,3.4,3.58,5.6,3.76,2.72.12,5.54-1.51,8.24-4.46,1.65,8.17,5.48,13.5,10.75,13.78,7.87.43,16.5-10.25,21.56-25.31,2.6,7.77,7,12.61,12,12.22C-376.42-60-371.33-67-368.57-77a4.64,4.64,0,0,0,2.15,2.22c2.33,1.16,5.76.41,9.63-1.82-2.27,4.36-2.85,8.26-1,11,5.2,8.16,27.81,4.07,50.53-9.19,1.82-1,3.56-2.16,5.3-3.29-7,16-6.86,30.33.47,32.42,3.82,1.13,9-1.53,14.12-6.68-5.83,11.24-6.84,20.81-1.71,23.81,4.92,2.88,14.34-1.16,23.77-9.42-3.76,5.4-5,10.13-2.88,12.88,3.34,4.12,13.36,2.59,24.75-3.14l0,.15c0,5,9.25,8.24,21.52,8C-229.16-16.41-233.55-12-233-8.23c.73,5.53,11.58,8.05,25.51,6.43-8.35,7.57-12.48,15.14-9.7,19.22,4,5.73,20.17,2.33,36.19-7.56a82.57,82.57,0,0,0,9.37-6.66c-6.79,19-5.74,35.14,3.17,37.65,10.17,3,26.83-12.93,37.13-35.42,1.46-3.34,2.82-6.65,3.88-9.94,5.58,13.27,14.38,21.48,21.85,19.3,9.24-2.73,12.93-20.38,8.21-39.38,0,0-.18-.74-.28-1.1C-79.19-14-59.79-10.57-52.79-18.21-47.34-24.27-51-35.43-61-46.42c15.81,9.94,31.29,13,38.78,6.5,9.14-7.95,2.92-27.47-13.7-45.28,14.18,5.92,27.64,6.45,32,.56S-5.89-101.22-18.56-110c7.69,1.25,13.92.23,16.36-3.28,3-4.44-1-11.59-9.45-17.87C4.47-133.13,16.75-138.93,17.45-145.6Z"/>
          </g>
          <rect class="cls-1" x="-7581.64" y="100.15" width="8127.09" height="2814.71"/>
        </g>
      </g>
      <g class="cls-12">
        <g class="cls-13">
          <path class="cls-14" d="M-924.68-747.84A408.51,408.51,0,0,0-832.61-916c13.84-51.42,23.62-113.83,71.93-136.22,23.3-10.81,50.63-8.89,75.45-2.32,56.58,15,106.45,53.71,134.93,104.83,56.74,101.85,29.45,242.26,107.93,328.48,38.74,42.55,96.27,62.59,152.58,74.39s114.45,17.17,168.19,37.75c94,36,166.25,116.55,208.86,207.75,25.2,54,41.23,112,69.49,164.45,86,159.59,291.62,243.39,464.68,189.41-91.26,23.29-186.75,34.07-280,20.67S157.17,21,90-45C4-129.54-42.87-256.34-150-311.67c-88.72-45.83-194.87-29.95-294.52-23.65s-213.71-4.79-275-83.6c-21.55-27.71-35.35-62.61-64.08-82.77C-831.46-535.28-896.94-514-951-491.74c0,0-281.37,115.39-380.83-162.59S-924.68-747.84-924.68-747.84Z"/>
        </g>
      </g>
      <g>
        <g>
          <ellipse class="cls-15" cx="109.02" cy="102.94" rx="33.29" ry="37.79"/>
          <ellipse class="cls-16" cx="117.7" cy="106.31" rx="18.97" ry="21.54"/>
          <ellipse class="cls-17" cx="118.29" cy="105.73" rx="6.84" ry="7.77"/>
          <ellipse class="cls-15" cx="125.13" cy="100.14" rx="5.56" ry="6.31"/>
        </g>
        <g>
          <ellipse class="cls-15" cx="173.06" cy="102.13" rx="30.74" ry="34.9"/>
          <ellipse class="cls-16" cx="181.07" cy="105.25" rx="17.52" ry="19.89"/>
          <ellipse class="cls-17" cx="181.61" cy="104.71" rx="6.32" ry="7.17"/>
          <ellipse class="cls-15" cx="187.93" cy="99.55" rx="5.14" ry="5.83"/>
        </g>
      </g>
      <path class="cls-18" d="M83.59,127.31c6.1,8.2,15.23,13.42,25.43,13.42,12.46,0,22.44-6.11,28.15-17.62C123.27,146.67,92.78,139.73,83.59,127.31Z"/>
      <path class="cls-18" d="M109,65.14c-18.39,0-33.29,16.92-33.29,37.8,5.45-44.41,57.45-51.47,66.58,0C142.31,82.06,127.41,65.14,109,65.14Z"/>
      <path class="cls-18" d="M149,123.78c5.64,8.07,14.34,13.25,24.11,13.25,8.76,0,16.67-4.17,22.27-10.85C178,142.41,159.08,135.62,149,123.78Z"/>
      <path class="cls-18" d="M203.8,102.13c0-19.28-13.76-34.9-30.74-34.9s-30.75,15.62-30.75,34.9C152.59,48.65,203.8,69,203.8,102.13Z"/>
    </g>
  </g>
</svg>
