<svg id="Layer_1" data-name="Layer 1" xmlns="http://www.w3.org/2000/svg" xmlns:xlink="http://www.w3.org/1999/xlink" width="389.1" height="416.18" viewBox="0 0 389.1 416.18">
  <defs>
    <style>
      .cls-1, .cls-8 {
        fill: none;
      }

      .cls-2 {
        clip-path: url(#clip-path);
      }

      .cls-3 {
        fill: #0c4c29;
      }

      .cls-4 {
        fill: #de1959;
      }

      .cls-18, .cls-5 {
        fill: #ee4984;
      }

      .cls-6 {
        fill: #991a5a;
      }

      .cls-7 {
        fill: #a5cf47;
      }

      .cls-8 {
        stroke: #991a5a;
      }

      .cls-16, .cls-18, .cls-8 {
        stroke-miterlimit: 10;
      }

      .cls-9 {
        fill: #680d2e;
      }

      .cls-10 {
        fill: #ff839b;
      }

      .cls-11 {
        fill: #fff3df;
      }

      .cls-12, .cls-16 {
        fill: #f7f5f2;
      }

      .cls-13 {
        opacity: 0.28;
      }

      .cls-14 {
        fill: #9642e7;
      }

      .cls-15 {
        fill: #130101;
      }

      .cls-16 {
        stroke: #2d6eb5;
      }

      .cls-17 {
        fill: #b71a53;
      }

      .cls-18 {
        stroke: #96154a;
      }

      .cls-19 {
        opacity: 0.3;
      }

      .cls-20 {
        fill: #fff;
      }

      .cls-21 {
        fill: #f49093;
      }
    </style>
    <clipPath id="clip-path">
      <rect class="cls-1" x="-2365" y="1120.94" width="1600" height="900"/>
    </clipPath>
  </defs>
  <g class="cls-2">
    <path class="cls-3" d="M278.31,631c-7.19-12.25-41.65-8.08-77.26,9.17,10.95-12,15.38-24.34,9.87-28C206,609,194.85,613.77,184.33,623a131.35,131.35,0,0,0,5.51-13.92c10.12-30.83,6.13-57.67-8.91-60-13.7-2.14-31.76,16.9-42.48,43.59-2.12-22.14-12.17-38.31-23.73-37.1-.5.08-.91.21-1.33.29,21.08-27.89,27.79-55.14,14.81-62.09-13.62-7.29-43.79,10.48-67.28,39.68a6.54,6.54,0,0,1-.92,1.09c.75-2.43,1.36-5,2-7.52,8.62-37.93.52-69.82-18.16-71.32-14.08-1.1-30.2,15.62-40.93,40.28l0-.29c1.93-25-6.6-45-19.06-44.56-7,.17-13.75,6.8-18.63,17-.74-3.15-2.33-5.43-4.89-6.17-4.39-1.31-10.58,2-16.48,8,.33-11-3.25-19.25-9.23-19.48-3.19-.13-6.59,2.14-9.5,5.93,9.47-21.46,9.37-40.06-1.13-43.53-8.12-2.61-20.29,4.42-31.53,17.08,2-19.56-3.91-35.14-13.73-35.25-5.91-.09-11.89,5.26-16.48,13.68.57-17-5-29.72-14.06-30s-18.71,12.24-23.55,29.31a62.9,62.9,0,0,0-5.2-12.13c-9.3-16.9-24.06-27.32-33-23.32-1.74-13-7.47-22-15.11-21.9-7.46.16-14.75,9.1-19,21.86-1.55-8.25-5.45-13.76-10.5-13.67-4.82.09-9.48,5.31-12.6,13-4.41-.38-10.9,2.92-17.54,8.56,6.24-12.41,6.91-22.56.59-25.29s-18.24,3-29.79,13.57c-4.55-6.55-25.3-2.77-46.33,8.5a124.93,124.93,0,0,0-13.8,8.55c7.27-13,9.53-24.5,6.07-30.09l-22,2.44a86.84,86.84,0,0,0-16.78,15.28c1.64-5.56,1.83-10.27.49-13.47l-23.94,2.65a94,94,0,0,0-19,18.83,41.27,41.27,0,0,0-2.79-16.41l-31.76,3.52a89.44,89.44,0,0,0-13.83,24.25c.43-4.3-.72-7.37-3.59-8.35-5.26-1.88-14.72,3.9-23,13.45-.36-7.22-3.09-12.13-7.87-12.54-2.77-.25-5.84,1.12-8.88,3.56,1.95-5.62,2.6-10.52,1.9-14.26L-576.8,378a125,125,0,0,0-21.38,21.17l-.12.11a99.1,99.1,0,0,0,5.65-19.55l-67.26,7.36a181.82,181.82,0,0,0-13,18.42c-1.53,2.38-2.88,4.76-4.17,7.17,0,0,0-.87.07-1.31a104.87,104.87,0,0,0-.62-22.35l-58.44,6.39a116.29,116.29,0,0,0-3.23,17,3.26,3.26,0,0,0-.81-.68c-9-5.12-30.14,5.29-49,23.55,5.74-13.34,8.4-25.65,8-35l-47.51,5.19a138,138,0,0,0-17.1,26,138.45,138.45,0,0,0-6.05,13.86c-1.86-11.57-7.73-19.53-14.42-18.45-7.49,1.18-13.26,13.27-13.17,27.3-17.13-27.05-43.47-42.52-59.11-34.53-14.57,7.44-14.68,32.65-1.11,58.2-11.14-11.82-24.45-17.54-32.82-13.14-10.49,5.57-9.28,24.86,2.68,43.09a18,18,0,0,0,1.53,2.23l-.92-.38c-26.67-8.65-53-7.5-59.41,2.35-5.55,8.57,5.92,21,26.27,29.65-21.9-2.56-41.67,1.49-45,9.58-2.85,6.94,7.52,14.69,24.27,19.1-12.68,5.23-21.15,11.86-20.21,16.89.76,3.94,7.17,5.93,16.32,5.86-18.93,7.09-31.89,17-30.23,23.78s16.9,8.19,35.89,4.29c-28.2,15.68-45.85,34.69-40.1,44.22,4.65,7.79,23.65,7,46.64-.76-17.18,9.79-27.52,20.64-24.7,27.64,3.56,8.89,27,8.33,53.88-.81-.35.36-.65.68-.93,1-15.67,18.83-21.3,37.42-12.56,41.64,7.06,3.36,21.34-3.72,34.86-16.43a77.66,77.66,0,0,0-1.14,10.76c-1,24.59,8.83,43.35,21.66,41.91,11.34-1.3,21.27-17.56,24.23-38.05a57.93,57.93,0,0,0,6.71,8.24c12.38,12.57,28.53,18.47,36,13.22,5.39-3.77,4.92-12.14-.15-21.17,14.5,3.83,27.94,2.88,31.87-2.67,2.67-3.83.18-8.95-5.8-13.79,13.52,2.1,25.54.22,28.28-4.92l.06-.1c9.47,7.53,19.77,10.62,25.7,6.91,3.94-2.45,5.17-7.48,3.9-13.56,6,9.89,14.12,15.41,21.26,13.19,7.32-2.24,11.49-12.19,11.16-24.55,2.84,6,7.13,9.47,12,8.95,9.17-1,17.25-15.68,18.34-33.09,1.27,1.42,2.65,2.78,4,4.2,17.93,17,40.77,24.6,51.06,17.06,3.44-2.57,5-6.56,4.89-11.4,3.07,2.85,6.44,4.18,9.65,3.33a8.93,8.93,0,0,0,3.54-1.94c-2.34,10.65-.57,18.59,5.45,19.93,5.36,1.2,12.82-3.09,20-10.67-2.65,16.26,1.11,28.43,10,29.25,6,.46,13.2-4.39,19.56-12.48,1.34,3.4,3.59,5.48,6.67,5.76,2.54.22,5.38-.85,8.19-2.93-3.73,11.71-2.64,20.82,3.76,22.72s16.53-3.74,26.06-13.65c.41,7.15,3,12.12,7.34,12.91-11,16.81-14,31.19-5.88,35.88,6.79,4,19.89.12,34.38-9-3.27,14.21-.21,25.56,7.14,25.89,5.92.28,13-6.75,17.81-16.93.73,1.89,33.84-8.79,34.69-7.19,0,0,17.75,40.67,29.36,41.68,9.61.86,30.11-30.77,30.11-30.77,1.95-1,31.69,6,33.74,4.67-3.73,10.4-3.14,18.86,2.18,20.69,6.53,2.23,17.92-6.5,26.11-19.73,5.34,12.81,13.55,20.61,22.48,19.61,10.5-1.23,19.11-14.53,22.69-32.75,4.25.84,10.32-2.54,16.27-8.52.49,11.77,4.74,20.13,11.69,20.73s14.9-6.83,20.83-18.2c.77,2.76,2.35,4.69,4.73,5.36,2.8.83,6.44-.19,10.13-2.62-.77,9.13,1.55,15.77,7.16,17.43,8.17,2.42,20.86-6.74,31.09-21.56.31,8.91,3.4,15.21,8.86,16.06,6.24.94,13.94-5.26,20.09-15.19a4.68,4.68,0,0,0,1.5,2.86c2.19,1.84,6.1,1.92,10.93.52-3.87,4-5.64,8.06-4.66,11.44,2.95,10,28.42,11.35,56.87,3,2.25-.68,4.45-1.41,6.71-2.15-12.57,15.22-17,30.57-9.9,34.66,3.77,2.17,10.14.58,17.26-3.54-9.81,10.47-14,20.46-9.45,24.92s15.63,2.39,28.38-4c-5.77,4.82-8.59,9.52-7.12,13,2.2,5.19,13.45,6.13,27.4,2.86l-.11.21c-1.59,5.35,7.2,11.12,20.39,14-8.77,2.09-14.88,5.61-15.56,9.79-.95,6.13,9.87,11.57,25.18,13.35-11.32,6-18.14,13-16.48,18,2.39,7.12,20.78,7.64,41.06,1.13a99.06,99.06,0,0,0,12.15-4.71C7.05,910.62,3,928,11.64,933c10,5.73,32.78-7,51-28.35,2.71-3.19,5.16-6.42,7.38-9.62,1.72,15.57,8.43,26.53,17.09,26.09,10.76-.53,20.33-18.41,21.42-40,0-.38,0-.82,0-1.22,16,17.14,35.63,25.73,45.49,19.33,7.75-5,7.4-17.88.19-32.2,13.66,14.62,29.32,21.82,39.35,16.82,12.28-6.17,11.9-28.58-.13-51.76,13.23,9.89,27.37,13.85,34,8.75,6.71-5.26,3.29-18.24-7.46-30.83,7.84,3.27,14.79,3.77,18.51.65,4.65-4,2.62-12.6-4.31-21.46,17.79,2,32.72-1,35.69-8,3.35-8-10.39-18.34-31.15-23.74,24.13-.41,43.5-7.06,45.4-16.32,2.16-10.62-19.57-20.67-48.56-22.47l-1.56,0c1.06-.45,2-.86,3-1.36,24.33-11.5,40.24-27.57,35.57-36-3.78-6.69-19.6-6.41-38.2-.15C265.69,664.08,285.11,642.43,278.31,631Z"/>
  </g>
  <g>
    <path class="cls-4" d="M244.69,311.05a2.22,2.22,0,0,1-1.49,1,40.25,40.25,0,0,1-7.81,1.06,37.82,37.82,0,0,1-9.15-.78c-9.43-1.91-9.36-5.53-17-6.45-4.61-.57-8.09.28-9.22-1.78-.93-1.63-.5-5-.5-5a3.45,3.45,0,0,0,.07-.85c.78-7.37-.14-16.88-5.6-28.16,10.07-2.48,20.07-5,20.07-4.9a60.53,60.53,0,0,0-2.84,5.68,65.06,65.06,0,0,0-4.11,11.78c-.92,4-2,9.08.71,11.63a4.45,4.45,0,0,0,1.35.85c18.94-2.06,28.94-1.35,30.08,2.27a3.25,3.25,0,0,1-.22,2.27c2.35,1.56,6.32,4.54,5.68,6.17-.14.43-.64.86-2,1.07h0C244.62,308.15,245.26,310,244.69,311.05Z"/>
    <path class="cls-5" d="M199.69,296.94a44.3,44.3,0,0,0,0-6.81,12.35,12.35,0,0,1,6.49-2.34,8.58,8.58,0,0,0,1,5.7C204.32,293.71,201.56,295.45,199.69,296.94Z"/>
    <path class="cls-4" d="M214.11,265.22a60.53,60.53,0,0,0-2.84,5.68c-.42,1-.92,2.13-1.41,3.26a63,63,0,0,1-12.92,2.91,56.67,56.67,0,0,0-2.9-6.95C204.18,267.57,214.11,265.08,214.11,265.22Z"/>
    <path class="cls-6" d="M242.82,307.22a22.18,22.18,0,0,0-9-2.76,22.72,22.72,0,0,0-3.19-.15c1.06-.07,2.13-.07,3.19-.07a22.67,22.67,0,0,1,9.37,2.34l-.36.64Z"/>
    <path class="cls-7" d="M170.55,303.39c-.14.71-.21,1.42-.28,2.13"/>
    <path class="cls-7" d="M165,304c.07,1.21.14,1.92.14,2.13"/>
    <path class="cls-4" d="M182.83,315.67c-10.86,7.94-32.14,2.83-31.57-1.28.49-3.48,10.07-8.8,13.76-10.36-.92-10.29-6-53.21-6-53.63s22.63,16.46,22.63,16.46-8.23,19-11,36.53C178.36,306.51,183.54,313.68,182.83,315.67Z"/>
    <path class="cls-5" d="M172.55,295.52c-.52,2.15-1,4.32-1.4,6.49a35.66,35.66,0,0,0-6.38-.24c-.19-1.85-.43-4.08-.7-6.55A36.79,36.79,0,0,1,172.55,295.52Z"/>
    <path class="cls-4" d="M181.55,268.42s-1.63,3.83-3.76,9.72a64.64,64.64,0,0,1-16.1-4.9c-1.21-10.5-2.27-19.72-2.42-21.07C162.18,254,181.55,268.42,181.55,268.42Z"/>
    <polygon class="cls-6" points="209.42 295.6 203.11 295.95 209.35 294.89 209.42 295.6"/>
    <path class="cls-6" d="M239.08,300.17a12.28,12.28,0,0,0-8-1.56,12.46,12.46,0,0,1,8.44,1c-.07-.07-.42.56-.42.56Z"/>
    <path class="cls-5" d="M210,273.76a66.2,66.2,0,0,0-2.37,6.8,21.58,21.58,0,0,0-8.94,3.38,51.66,51.66,0,0,0-1.56-5.67C199.61,276.47,204.84,273.27,210,273.76Z"/>
    <path class="cls-5" d="M178.61,276c-1,2.72-2.09,5.94-3.17,9.43-4-2.19-8.94-2-12.23-1.43-.42-3.66-.86-7.45-1.28-11.1C165.56,272.1,173.68,271,178.61,276Z"/>
    <path class="cls-8" d="M244.69,311.05a2.22,2.22,0,0,1-1.49,1,40.25,40.25,0,0,1-7.81,1.06,37.82,37.82,0,0,1-9.15-.78c-9.43-1.91-9.36-5.53-17-6.45-4.61-.57-8.09.28-9.22-1.78-.93-1.63-.5-5-.5-5a3.45,3.45,0,0,0,.07-.85c.78-7.37-.14-16.88-5.6-28.16,10.07-2.48,20.07-5,20.07-4.9a60.53,60.53,0,0,0-2.84,5.68,65.06,65.06,0,0,0-4.11,11.78c-.92,4-2,9.08.71,11.63a4.45,4.45,0,0,0,1.35.85c18.94-2.06,28.94-1.35,30.08,2.27a3.25,3.25,0,0,1-.22,2.27c2.35,1.56,6.32,4.54,5.68,6.17-.14.43-.64.86-2,1.07h0C244.62,308.15,245.26,310,244.69,311.05Z"/>
    <path class="cls-8" d="M183.11,315.67c-10.85,7.94-32.14,2.83-31.57-1.28.5-3.48,10.07-8.8,13.76-10.36-.92-10.29-6-53.21-6-53.63s22.63,16.46,22.63,16.46-8.15,19-11,36.53C178.71,306.51,183.89,313.68,183.11,315.67Z"/>
    <path class="cls-5" d="M266.72,218.75c2.76-2.27,8.65-6.46,11.28-3.48,3.33,3.9,3.76,6.88,1.06,9.65-.21.07,2.77,2.13-.57,6.1.08.28,1.64,6.38-6.1,8.16-8.08,1.84-7.8-1.56-7.8-1.56a9.38,9.38,0,0,1-8.51-2.49c-.22.07-18.95,1.56-21.71-.35s-5.54-10.43-5.54-10.43V193.14s7,20.21,9.3,22.48,15.82,15.26,19.93,13.13l-.85-.07s-5.11-5.39,1.35-9.86,8.94-1,9.36,4,.07,8.94-2.62,9.15-4.12-5.18-1.35-6"/>
    <path class="cls-4" d="M254.06,235.42c-1.49.11-3.76.25-6.23.35a11.47,11.47,0,0,1-.13-11.43,38.68,38.68,0,0,0,5.17,3.45,11.31,11.31,0,0,0,1.19,7.63Z"/>
    <path class="cls-4" d="M239.33,235.49c-2.48-.07-4.39-.36-5.17-.85-2.77-1.85-5.54-10.43-5.54-10.43V206.83c.64-2.77,1.63-4.83,2.91-5.75,2.2,5.89,5,13.13,6.39,14.4l.49.5A56.18,56.18,0,0,0,239.33,235.49Z"/>
    <path class="cls-8" d="M266.72,218.75c2.76-2.27,8.65-6.46,11.28-3.48,3.33,3.9,3.76,6.88,1.06,9.65-.21.07,2.77,2.13-.57,6.1.08.28,1.64,6.38-6.1,8.16-8.08,1.84-7.8-1.56-7.8-1.56a9.38,9.38,0,0,1-8.51-2.49c-.22.07-18.95,1.56-21.71-.35s-5.54-10.43-5.54-10.43V193.14s7,20.21,9.3,22.48,15.82,15.26,19.93,13.13l-.85-.07s-5.11-5.39,1.35-9.86,8.94-1,9.36,4,.07,8.94-2.62,9.15-4.12-5.18-1.35-6"/>
    <path class="cls-6" d="M279.2,225.27a12.07,12.07,0,0,1-9.15.64,12.27,12.27,0,0,0,8.8-1.2l.35.56Z"/>
    <path class="cls-6" d="M278.71,231.3a12.07,12.07,0,0,1-9.15.64,12.25,12.25,0,0,0,8.79-1.2l.36.56Z"/>
    <path class="cls-6" d="M264.52,237.69c1.56-2.91,5.25-3.62,8.3-3.34l1.35.22H274c-.14.07-.07.07-.07.07.22-.71.36-1.92-.56-2.2v-.07a.86.86,0,0,1,.78.28,2.76,2.76,0,0,1,.42,2.2.42.42,0,0,1-.35.35,16.56,16.56,0,0,0-5.25-.21,7,7,0,0,0-4.4,2.7Z"/>
    <path class="cls-5" d="M241.83,251.59c.41.06-4.16,5.31-11.21,4.65-.49.11,1.73,3.21,5.72,2.18a26.32,26.32,0,0,1-17.72,2.86c.21.42,2.86,5.1,12.09,3.55a22.54,22.54,0,0,1-20.81,3.85,12.16,12.16,0,0,0,13.39,4.51c-.2.06-11.91,9.6-25.56-2.7-.09.23-8.68,12.4-25.87,7.24-.48-.43,9.67-4.24,10.41-10.07,0-.12,0-.24,0-.36a1.37,1.37,0,0,1-.35.33c-2,1.59-12.58,7.67-22.67,4.73.43-.11,8.87-4.3,10.36-7.73a2.69,2.69,0,0,0,.16-.45,7.59,7.59,0,0,1-.73.23c-3.34.94-17.05,4.15-20.31,2.72.52,0,6.78-6.43,10-7.66-.17-.15-11.51,3.16-13.25,2.72s1.9-6.41,1-10.24-3.78-10.75-4.77-14.14a59.15,59.15,0,0,1-1-9.33v0a73.78,73.78,0,0,1-.19-10.13c1.26-36.75,32.17-83,65.95-82.14,17.32.41,36.77,13.22,37.13,23.94.26,7.8-9.4,20.91-7.45,27.78.28,1,1.06,3-.14,4.64s-3.83,1.94-4.83,4.23a5.58,5.58,0,0,0-.36,1.17,96.19,96.19,0,0,0-.42,22.38c.47,4.29.84,7.58,1,10.25h0a7.24,7.24,0,0,0,6.63,4.69c-.09.16-2,1.53-6.6,1-.05.52-.12,1-.21,1.51a19.91,19.91,0,0,1-.56,2.28,15.44,15.44,0,0,0,7.37,3,20.77,20.77,0,0,1-9.35,1.66,13.57,13.57,0,0,1-3.56-.8c.11.09,1,1.29,2.42,2.75C230.49,249.67,235.75,253.62,241.83,251.59Z"/>
    <path class="cls-8" d="M241.83,251.59c.41.06-4.16,5.31-11.21,4.65-.49.11,1.73,3.21,5.72,2.18a26.32,26.32,0,0,1-17.72,2.86c.21.42,2.86,5.1,12.09,3.55a22.54,22.54,0,0,1-20.81,3.85,12.16,12.16,0,0,0,13.39,4.51c-.2.06-11.91,9.6-25.56-2.7-.09.23-8.68,12.4-25.87,7.24-.48-.43,9.67-4.24,10.41-10.07,0-.12,0-.24,0-.36a1.37,1.37,0,0,1-.35.33c-2,1.59-12.58,7.67-22.67,4.73.43-.11,8.87-4.3,10.36-7.73a2.69,2.69,0,0,0,.16-.45,7.59,7.59,0,0,1-.73.23c-3.34.94-17.05,4.15-20.31,2.72.52,0,6.78-6.43,10-7.66-.17-.15-11.51,3.16-13.25,2.72s1.9-6.41,1-10.24-3.78-10.75-4.77-14.14a59.15,59.15,0,0,1-1-9.33v0a73.78,73.78,0,0,1-.19-10.13c1.26-36.75,32.17-83,65.95-82.14,17.32.41,36.77,13.22,37.13,23.94.26,7.8-9.4,20.91-7.45,27.78.28,1,1.06,3-.14,4.64s-3.83,1.94-4.83,4.23a5.58,5.58,0,0,0-.36,1.17,96.19,96.19,0,0,0-.42,22.38c.47,4.29.84,7.58,1,10.25h0a7.24,7.24,0,0,0,6.63,4.69c-.09.16-2,1.53-6.6,1-.05.52-.12,1-.21,1.51a19.91,19.91,0,0,1-.56,2.28,15.44,15.44,0,0,0,7.37,3,20.77,20.77,0,0,1-9.35,1.66,13.57,13.57,0,0,1-3.56-.8c.11.09,1,1.29,2.42,2.75C230.49,249.67,235.75,253.62,241.83,251.59Z"/>
    <path class="cls-9" d="M222.42,206.07a12.64,12.64,0,0,0,.22,3.21c0,.15.05.3.09.44q.09.43.21.84a19.07,19.07,0,0,0,.8,2.32v0c.25.58.5,1.12.74,1.61s.53,1,.74,1.4a5.51,5.51,0,0,1,.55,1.13v0a6.26,6.26,0,0,1-1.64,4.86,10.77,10.77,0,0,1-2.58,2,18.11,18.11,0,0,1-1.65.82,23.17,23.17,0,0,1-2.85,1c-.68.19-1.39.36-2.12.51s-1.48.28-2.26.39h0c-1.16.16-2.36.28-3.59.35h0c-.7,0-1.48.08-2.19.05a49.67,49.67,0,0,1-15.13-2.33c-.64-.22-1.28-.43-1.92-.7a1.39,1.39,0,0,1-.26-.1c-1.16-.5-2.33-1-3.43-1.58l-4.51-3.08a15.18,15.18,0,0,1-3.43-4.07,11,11,0,0,1-.88-1.71,6,6,0,0,1-.26-.71q-.37-1.11-.69-2.19a44.26,44.26,0,0,1-1.16-5.24c-.16-1-.27-1.91-.35-2.83-1.18-12.87,3.77-22.2,4.16-22.38,0,0,0,0,0,0,.29.72.6,1.41.92,2.08a40.16,40.16,0,0,0,6.73,10.06c.42.45.84.88,1.28,1.28.25.25.51.49.77.72l.19.16a28.58,28.58,0,0,0,4.54,3.28,29.67,29.67,0,0,0,5.78,2.61c.43.14.85.27,1.28.39l.22.07a8.75,8.75,0,0,0,1.23.28,37.73,37.73,0,0,0,10.65.83l.88-.06c1.39-.1,2.74-.26,4-.45,1.63-.26,3.19-.6,4.66-1,.95-.24,1.86-.49,2.71-.73l-.08.1A10.83,10.83,0,0,0,222.42,206.07Z"/>
    <path class="cls-10" d="M225.82,217.05a.17.17,0,0,1,0,.1,6.16,6.16,0,0,1-1.64,4.85c-2.74,3.07-8.47,4.82-15.05,5.13-.71,0-1.43.08-2.2.06a50,50,0,0,1-15.13-2.34c-.73-.25-1.45-.49-2.18-.8a36.24,36.24,0,0,1-3.43-1.58l-4.51-3.08a15.33,15.33,0,0,1-3.43-4.07,11.13,11.13,0,0,1-1.14-2.42c-.26-.75-.5-1.51-.71-2.26h0c7.65-1.38,22.36-2.58,29.55,6.62.11,0,10.94-6.81,19.27-1.35,0,0,0,0,0,0A5.23,5.23,0,0,1,225.82,217.05Z"/>
    <path class="cls-11" d="M191.05,218.47a11.13,11.13,0,0,1-1.21,5.61,1.39,1.39,0,0,1-.26-.1c-1.16-.5-2.33-1-3.43-1.58l-4.51-3.08a15.29,15.29,0,0,1-3.43-4.06,12,12,0,0,1-.88-1.71c2.89-2.78,6.82-3.56,9.53-2.3C189.2,212.39,190.86,215.21,191.05,218.47Z"/>
    <path class="cls-11" d="M206.88,227.11a49.35,49.35,0,0,1-15.12-2.33c-.73-.24-1.45-.48-2.18-.8a11.26,11.26,0,0,1,3.61-5.25c2.78-2.22,6.3-2.92,8.92-1.72C205.25,218.47,207.41,222.61,206.88,227.11Z"/>
    <path class="cls-11" d="M224.14,221.93c-2.74,3.07-8.47,4.75-15.06,5.13a11.48,11.48,0,0,1,1.9-6.65c.39-.52,3.74-5.33,8.05-4.51a6.23,6.23,0,0,1,4.22,3A15.45,15.45,0,0,1,224.14,221.93Z"/>
    <path class="cls-11" d="M188,193.59c-2.68,1.29-5.61,1.19-7.47-.18-2.76-2-3.51-7.2-.53-11.16a39.63,39.63,0,0,0,6.73,10.06C187.12,192.76,187.55,193.19,188,193.59Z"/>
    <path class="cls-11" d="M193.48,197.75a29.67,29.67,0,0,0,5.78,2.61,8,8,0,0,1-3.28,3.2,6,6,0,0,1-5.53-.12c-2.09-1.39-2.94-5-1.51-9A28.58,28.58,0,0,0,193.48,197.75Z"/>
    <path class="cls-11" d="M202,201.1a37.73,37.73,0,0,0,10.65.83,21.23,21.23,0,0,1-2.88,3.64c-1.46,1.46-2.77,2.73-4.52,2.65a5.32,5.32,0,0,1-4.09-3,7.64,7.64,0,0,1-.61-4.45l.22.07A9.43,9.43,0,0,0,202,201.1Z"/>
    <path class="cls-11" d="M222.22,200.45c-.8,5.29-3.21,8.68-5.48,8.71a3.86,3.86,0,0,1-3.07-1.9c-1-1.65-.63-3.79-.15-5.39,1.39-.1,2.74-.26,4-.45C219.19,201.16,220.76,200.82,222.22,200.45Z"/>
    <path class="cls-8" d="M225.22,215.87a8.69,8.69,0,0,1,.57,1.14.22.22,0,0,1,0,.11,6.17,6.17,0,0,1-1.64,4.85c-2.74,3.07-8.47,4.82-15.06,5.13-.71,0-1.42.08-2.2.05a49.65,49.65,0,0,1-15.12-2.33c-.73-.25-1.46-.49-2.18-.8a36.25,36.25,0,0,1-3.43-1.59l-4.51-3.08a15.29,15.29,0,0,1-3.43-4.06,11.36,11.36,0,0,1-1.14-2.42c-.26-.76-.5-1.52-.71-2.26a42.68,42.68,0,0,1-1.15-5.24c-.15-1-.26-1.91-.35-2.84-1.16-13,4-22.43,4.18-22.32.3.69.6,1.37.92,2a43.81,43.81,0,0,0,2.63,4.78,37.93,37.93,0,0,0,4.11,5.34c.41.42.81.84,1.22,1.23s.66.62,1,.91a29.22,29.22,0,0,0,10.29,5.9c.43.14.87.27,1.31.39l.24.07c.43.12.79.17,1.23.29a37.45,37.45,0,0,0,10.58.86l.91-.07c1.4-.1,2.76-.26,4.08-.47,1.62-.27,3.18-.61,4.64-1,.93-.23,1.81-.47,2.65-.71l.08,0a10.74,10.74,0,0,0-2.52,6.27,13.16,13.16,0,0,0,.22,3.22c0,.14.06.29.09.44s.13.56.21.84a18,18,0,0,0,.8,2.32,0,0,0,0,0,0,0c.24.59.49,1.12.74,1.61S225,215.48,225.22,215.87Z"/>
    <path class="cls-6" d="M224.58,199.56c2.86-1,5.78-2.1,8.08-4.08-2.15,2.18-5,3.48-7.83,4.71l-.25-.63Z"/>
    <path class="cls-12" d="M234.94,183.41c-1.22,3.34-3,8.19-7.58,10.44a10,10,0,0,1-6.72.89,9,9,0,0,1-2.93-1.36,10.39,10.39,0,0,1-3.78-4.33,8.1,8.1,0,0,1-.48-1.33,20.06,20.06,0,0,1-.09-9.74c1.54-5.62,8-14.09,14.82-12.42,4.94,1.21,8.16,7.3,8.13,12.25A16.79,16.79,0,0,1,234.94,183.41Z"/>
    <path class="cls-13" d="M233.32,169.1a9.45,9.45,0,0,0-5.25-3.74c-6.78-1.63-13.32,6.85-14.82,12.46a20.09,20.09,0,0,0,.1,9.75,12.7,12.7,0,0,0,.48,1.32,10.2,10.2,0,0,0,3.77,4.33,9.89,9.89,0,0,0,2.94,1.37l.7.15a8.11,8.11,0,0,1-2.45-.25,10.41,10.41,0,0,1-3.11-1.42,11.69,11.69,0,0,1-4-4.55,8.77,8.77,0,0,1-.53-1.4,21.48,21.48,0,0,1-.09-10.3c1.62-5.93,8.48-14.87,15.7-13.13A10.47,10.47,0,0,1,233.32,169.1Z"/>
    <g>
      <ellipse class="cls-14" cx="221.1" cy="183.12" rx="6.44" ry="4.94" transform="translate(-11.2 351.81) rotate(-75.62)"/>
      <ellipse class="cls-15" cx="221.14" cy="182.79" rx="3.43" ry="2.64" transform="translate(-10.85 351.6) rotate(-75.62)"/>
      <ellipse class="cls-12" cx="219.5" cy="181.2" rx="1.26" ry="0.96" transform="translate(-10.54 348.82) rotate(-75.62)"/>
    </g>
    <path class="cls-8" d="M234.94,183.41c-1.22,3.34-3,8.19-7.58,10.44a10,10,0,0,1-6.72.89,9,9,0,0,1-2.93-1.36,10.39,10.39,0,0,1-3.78-4.33,8.1,8.1,0,0,1-.48-1.33,20.06,20.06,0,0,1-.09-9.74c1.54-5.62,8-14.09,14.82-12.42,4.94,1.21,8.16,7.3,8.13,12.25A16.79,16.79,0,0,1,234.94,183.41Z"/>
    <path class="cls-16" d="M211,173.29c-1.64,3.77-4,9.24-9.47,11.52a11.47,11.47,0,0,1-7.81.57,10.46,10.46,0,0,1-3.3-1.78,11.86,11.86,0,0,1-4.05-5.26,8.31,8.31,0,0,1-.47-1.56,23.23,23.23,0,0,1,.57-11.25c2.16-6.39,10.25-15.71,18-13.31,5.62,1.73,8.92,9,8.54,14.7A19.36,19.36,0,0,1,211,173.29Z"/>
    <path class="cls-13" d="M210.13,156.67a10.89,10.89,0,0,0-5.8-4.69c-7.71-2.35-15.85,7-18,13.36a23.11,23.11,0,0,0-.56,11.25,15.63,15.63,0,0,0,.46,1.57,11.92,11.92,0,0,0,4.06,5.26,11.62,11.62,0,0,0,3.29,1.78l.8.22a9.73,9.73,0,0,1-2.8-.45,12.67,12.67,0,0,1-3.5-1.86,13.47,13.47,0,0,1-4.32-5.53,11.11,11.11,0,0,1-.52-1.66,24.78,24.78,0,0,1,.61-11.89c2.28-6.73,10.82-16.57,19-14.07C206.13,150.87,208.57,153.49,210.13,156.67Z"/>
    <g>
      <ellipse class="cls-14" cx="197.27" cy="174.4" rx="7.45" ry="5.71" transform="translate(-11.98 334.23) rotate(-78.85)"/>
      <ellipse class="cls-15" cx="197.3" cy="174.03" rx="3.97" ry="3.05" transform="translate(-11.59 333.96) rotate(-78.85)"/>
      <ellipse class="cls-12" cx="195.31" cy="172.3" rx="1.45" ry="1.11" transform="translate(-11.5 330.61) rotate(-78.85)"/>
    </g>
    <path class="cls-8" d="M211,173.29c-1.64,3.77-4,9.24-9.47,11.52a11.47,11.47,0,0,1-7.81.57,10.46,10.46,0,0,1-3.3-1.78,11.86,11.86,0,0,1-4.05-5.26,8.31,8.31,0,0,1-.47-1.56,23.23,23.23,0,0,1,.57-11.25c2.16-6.39,10.25-15.71,18-13.31,5.62,1.73,8.92,9,8.54,14.7A19.36,19.36,0,0,1,211,173.29Z"/>
    <path class="cls-17" d="M207,140.91c-.12-.08-4.64-4.06-6-3.57s-2.17,2-.28,3.57c0,0-6.73-2.3-6.56,1.51-.08-.16-5.46-.24-3,3-.2-.08-4.39,1.6-3,4.18,7.14-4.29,10.65-4.69,12.53-4.15A17.81,17.81,0,0,0,204,146c2.09.19,3.86.35,4.51-.57S208.49,142.62,207,140.91Z"/>
    <path class="cls-17" d="M229.25,153.88c.1,0,4-1.51,4.76-.86s.92,1.84-.69,2.39c0,0,5,.16,3.91,2.61.09-.09,3.62,1.18,1.25,2.67.15,0,2.47,2.12,1,3.48-3.61-4.56-5.8-5.68-7.16-5.79A13.37,13.37,0,0,1,230,158c-1.41-.39-2.61-.72-2.8-1.48S227.87,154.63,229.25,153.88Z"/>
    <g>
      <path class="cls-18" d="M219.33,139.27c.51-.61,4.14-3.68.94-7.59.12,0,5.95,2.92,2.84,8.9.21-.19,6.12-5,.85-10.19,0,.12,7.3,1.49,2.51,11.5a6.84,6.84,0,0,0,5.42-5.74c.14.32,2.46,4.15-1.1,9"/>
      <path class="cls-18" d="M219.33,139.53c.51-.61,4.14-3.68.94-7.59.12,0,5.95,2.92,2.84,8.89.21-.18,6.12-5,.85-10.18,0,.12,7.3,1.49,2.51,11.5a6.84,6.84,0,0,0,5.42-5.75c.14.33,2.46,4.16-1.1,9"/>
    </g>
    <g class="cls-19">
      <ellipse class="cls-20" cx="179.06" cy="155.44" rx="6.7" ry="3.35" transform="translate(-58.06 156.39) rotate(-41.19)"/>
      <ellipse class="cls-20" cx="166.59" cy="170.1" rx="10.41" ry="5.35" transform="translate(-59.12 245.88) rotate(-64.16)"/>
    </g>
    <path class="cls-18" d="M212.66,137.72c.51-.83,5.08-17.71-10.33-23.55-6.6-1.1-11.75,12.5,1.48,10.68,4.2-1.19,4-1.92,4-1.92s8.81,9.22-.09,15.42"/>
    <ellipse class="cls-21" cx="199.97" cy="120.15" rx="2.04" ry="4.18" transform="translate(-22.67 50.47) rotate(-13.62)"/>
    <path class="cls-18" d="M235.26,148.65c10.2-4.06,11.76-15.83,11.47-15.84-5.44.51-11.87-3-12.65-8.15.9-5.73,16.86-7.56,17,4-1,19.15-14.22,22.58-14.22,22.58"/>
    <ellipse class="cls-21" cx="238.76" cy="126.72" rx="2.04" ry="4.18" transform="translate(-31.38 136.19) rotate(-29.96)"/>
    <path class="cls-6" d="M173.85,180.05c1.91-3.41,7.6-3.5,9.52,0a7.83,7.83,0,0,0-9.52,0Z"/>
    <path class="cls-6" d="M188.23,189.58c9.35,8.68,16.23,10.42,28.73,8.79,1.5-.14,3-.35,4.5-.54-13.66,3.56-23.61,3.19-33.23-8.25Z"/>
    <path class="cls-6" d="M170.22,203A30.46,30.46,0,0,0,183,225.13a32.44,32.44,0,0,0,3.21,2.06,25,25,0,0,1-16-24.24Z"/>
    <path class="cls-4" d="M157,198.18c-7.66-2.34-25.89,9.86-25.61,9.86-2.41,3.48-2.27,22.07-2.2,30.16,3.4-.15,9.58-.22,10.92,1.27,1.78,1.92,4.55,14.62-1,17.1-3,1.56-5.18.71-5.74-3.62a.79.79,0,0,0-.08-.42h0c.08.07.08.21.08.42-.15,1.28-1.78,5-3.27,5-1.13-.07-2.62-2.27-2.62-5.54-.64,3.48-2.42,5.89-4.12,6-2.34.07-3.9-4.68-4.18-5.6-1.78-5.61.28-11,1.7-14-.14-4.82-.28-8.65-.36-10.85-.49-13.84-.78-18.09,2-22.77.21-.29,1.42-1.78,3.9-4.76,5.61-6.67,8.37-10.07,11.07-12.77A67,67,0,0,1,152.2,176.4a13.94,13.94,0,0,1,4.54,5.11,14.6,14.6,0,0,1,1.34,8.37"/>
    <path class="cls-5" d="M129.39,231.71c0,1.83,0,3.6,0,5.22a14.82,14.82,0,0,0-8.37,1.7c-.08-2.51-.15-4.62-.2-6.21C123.37,231.37,126.49,230.71,129.39,231.71Z"/>
    <path class="cls-5" d="M146.88,199.84a53,53,0,0,0-6.38,2.68c0-4.76-2.82-8.9-5.74-11.89.56-.62,1.1-1.18,1.63-1.72,1.12-1.14,2.48-2.42,4.11-3.79C144.08,188.55,147.93,193.77,146.88,199.84Z"/>
    <path class="cls-6" d="M132.87,252.53c.09-2.54-.25-5.5,1.26-7.67-1.2,2.28-.5,5.13-.26,7.57l-1,.1Z"/>
    <path class="cls-6" d="M127,252.72c.09-2.54-.25-5.5,1.26-7.67-1.19,2.28-.49,5.12-.26,7.57l-1,.1Z"/>
    <path class="cls-5" d="M131.2,208.6c-.85,1.54-1.37,5.09-1.67,9.35a21.27,21.27,0,0,0-9.22-5.15,16,16,0,0,1,2.17-7.34l.49-.61A24.71,24.71,0,0,1,131.2,208.6Z"/>
    <path class="cls-13" d="M157.48,194.68l-.42,3.26c-7.73-2.34-25.9,9.86-25.61,9.86-2.41,3.48-2.27,22.14-2.13,30.15,3.41-.14,9.58-.21,10.93,1.28,1.06,1.21,2.48,6.32,2.27,10.71-.29-4-1.57-7.94-2.49-9-1.56-1.63-8.51-1.63-12.34-1.41-.07-9-.29-29.73,2.48-33.56C129.75,206,148.12,193.83,157.48,194.68Z"/>
    <path class="cls-6" d="M157.08,198.23c-6.87-1.74-19.59,5.94-25.35,9.79a1.47,1.47,0,0,0-.13.1s0,0,0,0-.13-.26-.14-.2l.12.23c-1.17,2.18-1.28,4.86-1.58,7.3s-.35,5-.43,7.57c-.15,5.06-.12,10.13-.06,15.19l-.26-.25c1.6-.06,3.21-.1,4.82-.05,2,.12,4.18.07,6,1.11,1,.83,1.31,2.15,1.71,3.32,1.09,4.31,2.18,10.64-1.52,14-4.08,2.73-6.65,1.05-7.19-3.47a4.5,4.5,0,0,1,0-1.15l.52.59a.6.6,0,0,1,.16.43,8,8,0,0,1-1.15,3.39c-.58.95-1.35,2.32-2.67,2.15-2.29-.88-2.7-3.73-2.8-5.87l.77.07c-.55,2.45-1.39,5.35-4.1,6.25-1.5.29-2.62-1-3.33-2.08a16.58,16.58,0,0,1-2.21-10.92,24.63,24.63,0,0,1,2.23-7.14l0,.22-.59-17c0-5.64-.79-11.88,2.31-16.93,6.8-7.89,13-16.5,21.28-22.9a74.93,74.93,0,0,1,8.72-5.74l.13-.07.12.08a14,14,0,0,1,5.81,13.68h-.1a14.71,14.71,0,0,0-1.08-7.54,13.51,13.51,0,0,0-4.89-5.74h.25a73.52,73.52,0,0,0-8.59,5.81c-8.17,6.44-14.21,15.11-20.86,23-2.81,4.62-2.18,10.9-2.1,16.31l.55,17v.11c-2.14,4.32-3.26,9.39-1.68,14,.66,1.76,1.75,5.13,3.91,5,2.14-.69,3.06-3.51,3.5-5.59l.77.07c.05,1.8.41,4.31,2.17,5.15.8.06,1.48-1.11,1.89-1.78a8,8,0,0,0,1.08-3c0-.06,0-.07,0,0l.6-.21a12.67,12.67,0,0,0,.62,2.58c.92,2.59,3.63,2,5.5.65,3.63-2.63,2.52-13.26-.11-16.33-3.27-1.51-7.19-1-10.73-1v-.26c0-8.86-.2-17.8,1.15-26.58a11.29,11.29,0,0,1,1.18-3.66l.12.23c0,.05-.21-.11-.13-.21l0,0,0,0,0,0,.05,0,.09-.06c5.39-3.63,19.4-11.82,25.52-9.56Z"/>
  </g>
</svg>
