<svg id="Layer_1" data-name="Layer 1" xmlns="http://www.w3.org/2000/svg" xmlns:xlink="http://www.w3.org/1999/xlink" width="389.1" height="416.18" viewBox="0 0 389.1 416.18">
  <defs>
    <style>
      .cls-1, .cls-13, .cls-4 {
        fill: none;
      }

      .cls-2 {
        clip-path: url(#clip-path);
      }

      .cls-3 {
        fill: #de1959;
      }

      .cls-4 {
        stroke: #991a5a;
      }

      .cls-13, .cls-19, .cls-4 {
        stroke-miterlimit: 10;
      }

      .cls-19, .cls-5 {
        fill: #ee4984;
      }

      .cls-6 {
        fill: #991a5a;
      }

      .cls-7 {
        fill: #e10058;
      }

      .cls-8 {
        fill: #f7f5f2;
      }

      .cls-9 {
        opacity: 0.28;
      }

      .cls-10 {
        fill: #9642e7;
      }

      .cls-11 {
        fill: #130101;
      }

      .cls-12 {
        fill: #b71a53;
      }

      .cls-13 {
        stroke: #050505;
      }

      .cls-14 {
        fill: #680d2e;
      }

      .cls-15 {
        fill: #ff839b;
      }

      .cls-16 {
        fill: #fff3df;
      }

      .cls-17 {
        opacity: 0.3;
      }

      .cls-18 {
        fill: #fff;
      }

      .cls-19 {
        stroke: #96154a;
      }

      .cls-20 {
        fill: #f49093;
      }
    </style>
    <clipPath id="clip-path">
      <rect class="cls-1" x="-2801.24" y="1120.94" width="1600" height="900"/>
    </clipPath>
  </defs>
  <g>
    <g>
      <g>
        <g>
          <path class="cls-3" d="M260.54,173.79c-8.9,6.71-3.78,22.69.17,23.2,13.54-26.89,15.89-32.07,17.1-35.23.94-2.41,2.09-4.7,3-7.11a12.88,12.88,0,0,1,2-3.93c.81-1.07,1.3-1.22,3.15-2.82a9.1,9.1,0,0,1-1.46-.81c-2.81-2.13-3.27-3.47-4.09-4.15l.29.4A104.61,104.61,0,0,1,272.2,159c-.29.45-.59.89-.89,1.32h0C267.7,165.68,260.54,173.79,260.54,173.79Z"/>
          <path class="cls-4" d="M260.72,196.8c13.54-26.89,15.89-32.07,17.09-35.24.95-2.41,2.1-4.7,3.05-7.1a12.77,12.77,0,0,1,2-3.93c.8-1.08,1.18-.33,3-1.93a58.25,58.25,0,0,1-3.95-4.77c-.06,0-1.24-.74-1.2-.69a103.3,103.3,0,0,1-8.54,15.69c-.29.44-.58.88-.88,1.32h0a106.44,106.44,0,0,1-10.76,13.42v0s10-9.18,20.22-29.76h0l5.12,4.76"/>
        </g>
        <path class="cls-3" d="M274.68,133.35c0,.11,0,.23,0,.34a7.1,7.1,0,0,0,.14,1.14c0,.17.06.34.09.51s.11.45.18.68.12.37.19.55.14.38.21.57.15.34.23.52l0,.05c.09.17.17.35.26.52s.19.35.29.52.16.28.25.41l.06.09c.2.33.42.64.64.95q.51.69,1.05,1.29c.35.4.71.77,1.06,1.1.11.11.22.22.34.32a13.56,13.56,0,0,0,1.06.93,14.22,14.22,0,0,0,1.49,1.08s-.2.94,2.61,3.07a9.1,9.1,0,0,0,1.46.81,5.45,5.45,0,0,0,1,.35,2.27,2.27,0,0,0,.25.06,3.76,3.76,0,0,0,2-.15,2.91,2.91,0,0,0,.59-.28,3.82,3.82,0,0,0,.75-.59,7.37,7.37,0,0,0,1.65-2.63c.06-.18.13-.36.19-.52a11.17,11.17,0,0,0,.42-1.64s4,1.67,6.89-.26c3.85-4.09-2-9.93-2.18-9.68.11-6.68-5.49-7.52-5.37-7.39-8.76-9.36-10.19-.27-10.19-.27s-3.49-3.15-6.43,2.33A10.81,10.81,0,0,0,274.68,133.35Z"/>
      </g>
      <path class="cls-5" d="M263.17,171.74c.79,1.44,1.87,2.13,3.82,3.44,1.37.91,1.85,1.46,3.11,1.75,1.84-3.72,3.36-6.86,4.42-9.09a7.55,7.55,0,0,1-2.4-1.24,10,10,0,0,1-2.86-2.66C267.24,166.61,265.13,169.6,263.17,171.74Z"/>
      <path class="cls-5" d="M273.1,158.67c-.39,1.05,2.31,3.31,4.08,3,.71-1.6,1.44-3,2.08-4.62a34.26,34.26,0,0,1,1.52-3.78,4.79,4.79,0,0,1-3.4-1.89C276.21,153.7,274.61,156.23,273.1,158.67Z"/>
      <path class="cls-4" d="M274.68,133.35c0,.11,0,.23,0,.34a7.1,7.1,0,0,0,.14,1.14c0,.17.06.34.09.51s.11.45.18.68.12.37.19.55.14.38.21.57.15.34.23.52l0,.05c.09.17.17.35.26.52s.19.35.29.52.16.28.25.41l.06.09c.2.33.42.64.64.95q.51.69,1.05,1.29c.35.4.71.77,1.06,1.1.11.11.22.22.34.32a13.56,13.56,0,0,0,1.06.93,14.22,14.22,0,0,0,1.49,1.08s-.2.94,2.61,3.07a9.1,9.1,0,0,0,1.46.81,5.45,5.45,0,0,0,1,.35,2.27,2.27,0,0,0,.25.06,3.76,3.76,0,0,0,2-.15,2.91,2.91,0,0,0,.59-.28,3.82,3.82,0,0,0,.75-.59,7.37,7.37,0,0,0,1.65-2.63c.06-.18.13-.36.19-.52a11.17,11.17,0,0,0,.42-1.64s4,1.67,6.89-.26c3.85-4.09-2-9.93-2.18-9.68.11-6.68-5.49-7.52-5.37-7.39-8.76-9.36-10.19-.27-10.19-.27s-3.49-3.15-6.43,2.33A10.81,10.81,0,0,0,274.68,133.35Z"/>
      <g>
        <path class="cls-4" d="M274.68,133.35c0,.11,0,.23,0,.34a7.1,7.1,0,0,0,.14,1.14c0,.17.06.34.09.51s.11.45.18.68.12.37.19.55.14.38.21.57.15.34.23.52l0,.05c.09.17.17.35.26.52s.19.35.29.52.16.28.25.41l.06.09c.2.33.42.64.64.95q.51.69,1.05,1.29c.36.4.71.77,1.06,1.1.11.11.22.22.34.32a13.56,13.56,0,0,0,1.06.93,14.22,14.22,0,0,0,1.49,1.08s-.2.94,2.61,3.07a9.1,9.1,0,0,0,1.46.81,4.83,4.83,0,0,0,1,.35,2.27,2.27,0,0,0,.25.06,3.57,3.57,0,0,0,2-.15,2.91,2.91,0,0,0,.59-.28,3.31,3.31,0,0,0,.75-.59,7.37,7.37,0,0,0,1.65-2.63c.06-.18.13-.36.19-.52a11.17,11.17,0,0,0,.42-1.64s4,1.67,6.89-.26c3.85-4.09-2-9.93-2.18-9.68.11-6.68-5.49-7.52-5.37-7.39-8.76-9.36-10.19-.27-10.19-.27s-3.49-3.15-6.43,2.33A10.81,10.81,0,0,0,274.68,133.35Z"/>
        <path class="cls-6" d="M282.67,125.39c3.05,2.32,6.22,6.26,4.62,10.27l-.27.61c-.58,1.16-2.22.8-3.14.5a9,9,0,0,1-4.18-3,8.8,8.8,0,0,0,4.25,2.77c1.25.33,2.62.5,2.93-1a6.33,6.33,0,0,0-1.16-5.84,14.56,14.56,0,0,0-3.6-3.45l.55-.83Z"/>
        <path class="cls-6" d="M293.07,126c.16,3.17.7,13.4-4.7,11.57a7.77,7.77,0,0,1-1.76-1,7.29,7.29,0,0,0,1.8.92c5.13,1.5,4-8.43,3.67-11.33l1-.12Z"/>
        <path class="cls-6" d="M298.44,133.54c-1.06,5.57-4.21,11.74-8.37,3.82.95,1.36,2,3.25,3.81,3.41,2.55-.35,3.2-5.27,3.57-7.38l1,.15Z"/>
        <path class="cls-6" d="M282.36,144.43a6.15,6.15,0,0,0,6.5-2.51,6.11,6.11,0,0,1-2.72,2.76,7.48,7.48,0,0,1-4,.74l.18-1Z"/>
      </g>
    </g>
    <path class="cls-3" d="M188.43,257.29c-3.24,5-6.17,9.43-8.75,13.31l-.23.33c-1.65,2.5-3.17,4.75-4.54,6.78-.86,1.25-1.65,2.41-2.38,3.49s-1.31,1.9-1.89,2.76c-1.39,2.05-2.52,3.81-3.53,5.65a40.22,40.22,0,0,0-2.31,5c-2.85,7.29-4.22,15.77-5,20.29-.32,1.91-.5,3.52-.69,4.58.81.18,8.48,2.16,10.09,8a4.47,4.47,0,0,1,.06,3.22c-.81,1.67-3,2-16.46,2.1-5,0-8.23,0-9.34-2a3.91,3.91,0,0,1-.31-2.42c1.73-10.64,3.34-14.42,3.34-14.42,6-13.92,5.57-19.12,9.84-20.29a6.89,6.89,0,0,1,4.39.37l2.1-6.69,1.95-6.22q1.4-4.44,2.78-8.89c.77-2.41,1.52-4.83,2.28-7.24.91-2.92,1.84-5.85,2.75-8.77l2-6.51A30.82,30.82,0,0,0,188.43,257.29Z"/>
    <path class="cls-5" d="M180.18,270.77l-.73.16c-1.65,2.5-3.17,4.75-4.54,6.78a28.08,28.08,0,0,1-6.66-4.79l-.65-.65c.77-2.41,1.52-4.83,2.28-7.24a28.94,28.94,0,0,0,5.87,3.9,30.74,30.74,0,0,0,3.93,1.67Z"/>
    <path class="cls-5" d="M170.82,284c-1.45,2.11-2.63,3.88-3.67,5.62a17.83,17.83,0,0,1-2.43-1.09,19,19,0,0,1-2.13-1.36l1.95-6.22a18.21,18.21,0,0,0,2.3,1.48A17.37,17.37,0,0,0,170.82,284Z"/>
    <path class="cls-4" d="M188.43,257.29c-3.24,5-6.17,9.43-8.75,13.31l-.23.33c-1.65,2.5-3.17,4.75-4.54,6.78-.86,1.25-1.65,2.41-2.38,3.49s-1.31,1.9-1.89,2.76c-1.39,2.05-2.52,3.81-3.53,5.65a40.22,40.22,0,0,0-2.31,5c-2.85,7.29-4.22,15.77-5,20.29-.32,1.91-.5,3.52-.69,4.58.81.18,8.48,2.16,10.09,8a4.47,4.47,0,0,1,.06,3.22c-.81,1.67-3,2-16.46,2.1-5,0-8.23,0-9.34-2a3.91,3.91,0,0,1-.31-2.42c1.73-10.64,3.34-14.42,3.34-14.42,6-13.92,5.57-19.12,9.84-20.29a6.89,6.89,0,0,1,4.39.37l2.1-6.69,1.95-6.22q1.4-4.44,2.78-8.89c.77-2.41,1.52-4.83,2.28-7.24.91-2.92,1.84-5.85,2.75-8.77l2-6.51A30.82,30.82,0,0,0,188.43,257.29Z"/>
    <path class="cls-6" d="M165.78,332.54c-1.17-4.24-3.72-6.26-8.07-6.69a6.23,6.23,0,0,1,8.07,6.69Z"/>
    <path class="cls-6" d="M158.22,332.8c-1.17-4.25-3.72-6.26-8.07-6.69a6.23,6.23,0,0,1,8.07,6.69Z"/>
    <path class="cls-6" d="M158.7,319.9a4.83,4.83,0,0,0-2.94-.21A5.29,5.29,0,0,1,159,319l-.32.95Z"/>
    <path class="cls-7" d="M227.58,263.81,224,267.06C225.21,265.36,226.54,263.87,227.58,263.81Z"/>
    <path class="cls-3" d="M286.25,259c-1.43,4.3-3.34,6.89-8.8,13.71-9.61,12-11.38,13.56-14.38,14.93-1,.48-8.18,3.75-11.39.75-1.77-1.64-1.63-4.43-1.5-6.27.22-3,.6-6.05,1.08-9.05.37-2.28.79-4.52,1.24-6.7.84-4,1.79-7.78,2.66-11-16.77,10.5-24,13.09-25.57,11.25-.61-.75-.61-2.46-1.63-2.8a1,1,0,0,0-.38,0L253,240.74c.69-.61,1.64-1.57,2.87-2.52,3.88-3.14,13.36-9.61,16.29-7.43,2,1.5.21,6.34-5.25,23.11l-1,3c-.84,2.58-1.6,5-2.29,7.11-1.1,3.43-2,6.24-2.65,8.25a49.76,49.76,0,0,1,9.34-13.37c5-5,13.77-11.79,16.57-9.68C289,250.83,287.07,256.63,286.25,259Z"/>
    <path class="cls-5" d="M263.15,232.86a126.32,126.32,0,0,1-12.28,24.81c-8.7,5.27-14.39,8-17.78,9,10.72-6.8,18.79-18.27,24.75-30.3A59.55,59.55,0,0,1,263.15,232.86Z"/>
    <path class="cls-5" d="M266,256.9c-.08.26-.16.52-.25.79L263.71,264l0,0A111.4,111.4,0,0,1,251.8,273l-.54.07c.37-2.28.79-4.52,1.24-6.7A98.38,98.38,0,0,0,266,257Z"/>
    <path class="cls-4" d="M224,267.06c1.21-1.7,2.54-3.19,3.58-3.25a1,1,0,0,1,.38,0c1,.34,1,2,1.63,2.8,1.57,1.84,8.8-.75,25.57-11.25-.87,3.2-1.82,7-2.66,11-.45,2.18-.87,4.42-1.24,6.7-.48,3-.86,6.06-1.08,9.05-.13,1.84-.27,4.63,1.5,6.27,3.21,3,10.36-.27,11.39-.75,3-1.37,4.77-2.93,14.38-14.93,5.46-6.82,7.37-9.41,8.8-13.71.82-2.38,2.72-8.18.68-9.75-2.8-2.11-11.59,4.64-16.57,9.68A49.76,49.76,0,0,0,261,272.31c.66-2,1.55-4.82,2.65-8.25.69-2.14,1.45-4.53,2.29-7.11l1-3c5.46-16.77,7.23-21.61,5.25-23.11-2.93-2.18-12.41,4.29-16.29,7.43-1.23.95-2.18,1.91-2.87,2.52"/>
    <path class="cls-5" d="M257.7,210.2c-.39,0,9.25,8.49,2,13.34.25-.28,1-7.81-2.48-7.45-.15.37-5.22,19.41,1.94,29.64-.3-.08-5.86,3.35-11.21,0-.07-.06.7,5.5,7.87,7.33a8.8,8.8,0,0,1-10.64-1.43c.62.6,6.87,7,3,15.22-.14-.21-1.69-9.21-6.68-11.82.06.14,5.27,22.8-5.49,27.65.14-.21,5.27-16.18-5.57-19.56.22.15,3,16.47-6.82,20.83.21.07,1.55-9.22-2.67-12.88.14,0-9.79,18.58-26.89,11,.18,0,9.4-3.91,10.06-10.3-.39.63-12.24,7.18-20,4,.11,0,11.79-6,4.57-10.77a15.45,15.45,0,0,1-8.49,5.82l-.73.16a13.62,13.62,0,0,1-5.88-.2,9.28,9.28,0,0,0,2.18-1.8c2.65-2.65,6.55-7.83,5.11-12.84a52.92,52.92,0,0,1-8.23.17c-2.57-.2-5-.73-6-2,0-.06,6.08-3.16,4.64-8.83-.28.39-13.47,9.4-21-3.11a16.66,16.66,0,0,0,10-1.33,18.16,18.16,0,0,0,6.71-6,27.63,27.63,0,0,0,4.22-8.5c3-9.41,13.4-34.48,13.52-38.36a.89.89,0,0,0-.15-.55c-1.07-1.51-7.64,1.64-7.64,1.64s3-10.55,6.53-12.14,5.36-9.77,5.36-9.77a13.7,13.7,0,0,0,5.34-5.83c.87-2.36,5.09-36,32.42-39s35.66,17.39,37,22.42,0,24,.88,26.4,3.53,7.76,2.46,9.5-5.88,5.78-5.88,7.13-1.44,16.5,4.73,18.91C270.63,209.14,261.27,211.84,257.7,210.2Z"/>
    <path class="cls-4" d="M257.71,210.42c-.39,0,9.24,8.48,2,13.33.24-.28,1-7.81-2.48-7.45-.15.37-5.22,19.41,1.94,29.64-.3-.08-5.86,3.35-11.21,0-.07-.06.7,5.5,7.87,7.33a8.8,8.8,0,0,1-10.64-1.43c.62.6,6.86,7,3.05,15.22-.14-.21-1.69-9.21-6.69-11.82.07.15,5.28,22.8-5.48,27.66.14-.22,5.27-16.19-5.57-19.56.21.14,3,16.46-6.82,20.82.21.07,1.54-9.21-2.68-12.88.15,0-9.78,18.58-26.88,11,.18,0,9.4-3.91,10.06-10.3-.4.63-12.25,7.19-20,4,.1.05,11.79-6,4.57-10.77a15.39,15.39,0,0,1-8.5,5.82l-.72.16a13.47,13.47,0,0,1-5.88-.2,9,9,0,0,0,2.18-1.8c2.64-2.65,6.55-7.83,5.11-12.84a52.92,52.92,0,0,1-8.23.17c-2.57-.2-5-.73-6-2,0-.06,6.07-3.16,4.64-8.83-.28.39-13.48,9.4-21-3.1a16.68,16.68,0,0,0,10-1.34,18.19,18.19,0,0,0,6.7-6,27.4,27.4,0,0,0,4.22-8.51c3-9.41,13.41-34.48,13.52-38.36a.88.88,0,0,0-.14-.55c-1.07-1.51-7.64,1.64-7.64,1.64s3-10.55,6.53-12.14,5.36-9.77,5.36-9.77a13.7,13.7,0,0,0,5.34-5.83c.87-2.36,5.09-36,32.42-39s35.66,17.39,37,22.42,0,24,.87,26.4,3.54,7.76,2.47,9.5-5.88,5.78-5.88,7.13-1.45,16.5,4.72,18.91C270.64,209.35,261.27,212.05,257.71,210.42Z"/>
    <path class="cls-8" d="M263.25,161.48c0,3.2.07,7.85-3.09,11.19a8.92,8.92,0,0,1-5.37,2.88,8.41,8.41,0,0,1-2.9-.22,9.36,9.36,0,0,1-4.55-2.46,6.56,6.56,0,0,1-.82-1,18,18,0,0,1-3.16-8.18c-.48-5.22,2.32-14.41,8.55-15.14,4.55-.55,9.18,3.57,10.73,7.75A15,15,0,0,1,263.25,161.48Z"/>
    <path class="cls-9" d="M257.36,150a8.43,8.43,0,0,0-5.6-1.49c-6.22.77-9.06,10-8.54,15.17a18.05,18.05,0,0,0,3.16,8.18c.14.18.42.54.82,1a9.29,9.29,0,0,0,4.55,2.45,9.07,9.07,0,0,0,2.9.22l.64-.09a7.72,7.72,0,0,1-2.14.56,9.78,9.78,0,0,1-3.07-.21,10.53,10.53,0,0,1-4.82-2.56,8,8,0,0,1-.89-1,19.17,19.17,0,0,1-3.33-8.64c-.51-5.5,2.44-15.2,9.07-16A9.43,9.43,0,0,1,257.36,150Z"/>
    <g>
      <ellipse class="cls-10" cx="257.03" cy="156.23" rx="5.79" ry="4.44" transform="translate(88.64 405.45) rotate(-87.25)"/>
      <ellipse class="cls-11" cx="257.01" cy="155.93" rx="3.09" ry="2.37" transform="translate(88.91 405.16) rotate(-87.25)"/>
      <ellipse class="cls-8" cx="255.9" cy="153.56" rx="1.13" ry="0.87" transform="translate(90.22 401.79) rotate(-87.25)"/>
    </g>
    <path class="cls-4" d="M263.25,161.48c0,3.2.07,7.85-3.09,11.19a8.92,8.92,0,0,1-5.37,2.88,8.41,8.41,0,0,1-2.9-.22,9.36,9.36,0,0,1-4.55-2.46,6.56,6.56,0,0,1-.82-1,18,18,0,0,1-3.16-8.18c-.48-5.22,2.32-14.41,8.55-15.14,4.55-.55,9.18,3.57,10.73,7.75A15,15,0,0,1,263.25,161.48Z"/>
    <path class="cls-8" d="M239.9,160.52c-.19,3.7-.47,9.06-4.33,12.7a10.38,10.38,0,0,1-6.41,2.95,9.5,9.5,0,0,1-3.33-.45,10.69,10.69,0,0,1-5.08-3.15,7.82,7.82,0,0,1-.88-1.17,20.9,20.9,0,0,1-3.09-9.66c-.19-6.06,3.68-16.47,10.93-16.89,5.28-.31,10.35,4.77,11.84,9.69A17.64,17.64,0,0,1,239.9,160.52Z"/>
    <path class="cls-9" d="M233.91,146.8a9.9,9.9,0,0,0-6.37-2.11c-7.24.46-11.14,10.89-10.91,16.93a20.89,20.89,0,0,0,3.08,9.66,14,14,0,0,0,.89,1.17,10.62,10.62,0,0,0,5.08,3.14,9.82,9.82,0,0,0,3.33.46l.74-.06a8.8,8.8,0,0,1-2.5.5,11.1,11.1,0,0,1-3.53-.46,12.09,12.09,0,0,1-5.39-3.29,9.75,9.75,0,0,1-1-1.23,22.23,22.23,0,0,1-3.24-10.2c-.21-6.39,3.87-17.38,11.57-17.87A10.93,10.93,0,0,1,233.91,146.8Z"/>
    <ellipse class="cls-10" cx="231.88" cy="153.83" rx="5.13" ry="6.7" transform="translate(-8.17 13.09) rotate(-3.18)"/>
    <ellipse class="cls-11" cx="232.54" cy="153.49" rx="2.74" ry="3.57" transform="translate(-8.15 13.12) rotate(-3.18)"/>
    <ellipse class="cls-8" cx="230.56" cy="151.86" rx="1" ry="1.31" transform="translate(-8.06 13.01) rotate(-3.18)"/>
    <path class="cls-4" d="M239.9,160.52c-.19,3.7-.47,9.06-4.33,12.7a10.38,10.38,0,0,1-6.41,2.95,9.5,9.5,0,0,1-3.33-.45,10.69,10.69,0,0,1-5.08-3.15,7.82,7.82,0,0,1-.88-1.17,20.9,20.9,0,0,1-3.09-9.66c-.19-6.06,3.68-16.47,10.93-16.89,5.28-.31,10.35,4.77,11.84,9.69A17.64,17.64,0,0,1,239.9,160.52Z"/>
    <path class="cls-12" d="M226.31,134.52c-.13,0-5.2-2-6.14-1.13s-1.19,2.38.89,3.1c0,0-6.39.19-5.05,3.35-.12-.11-4.67,1.52-1.62,3.44-.2,0-3.19,2.74-1.24,4.49,4.67-5.87,7.49-7.32,9.25-7.46a16,16,0,0,0,2.92-.54c1.82-.5,3.37-.93,3.62-1.91S228.08,135.49,226.31,134.52Z"/>
    <path class="cls-12" d="M249.12,138.41c.08,0,2.92-2.54,3.74-2.23s1.36,1.26.17,2.24c0,0,4.22-1.43,4.12,1,.05-.1,3.42-.15,1.9,1.85.13,0,2.75,1,1.9,2.63-4.48-2.7-6.68-3-7.86-2.61a11.6,11.6,0,0,1-2,.36c-1.31.11-2.43.21-2.83-.37S248.2,139.48,249.12,138.41Z"/>
    <path class="cls-6" d="M253.88,189.79a30.62,30.62,0,0,0,10.73-5.7,31.27,31.27,0,0,1-10.43,6.65l-.3-1Z"/>
    <path class="cls-13" d="M210.57,173.55h0"/>
    <path class="cls-14" d="M257.47,216.56c-.22.26-.45.51-.69.76a20.15,20.15,0,0,1-4.71,3.74,23.91,23.91,0,0,1-7.39,2.77l-.37.07c-.23,0-.48.09-.72.12s-.72.13-1.08.18l-.34,0-1.11.11a30,30,0,0,1-3,.1,1.92,1.92,0,0,1-.24,0c-1.24,0-2.48-.08-3.71-.2l-.86-.1c-.9-.12-1.79-.25-2.68-.43-.3-.05-.59-.1-.89-.17l-.09,0h0c-6.39-1.34-12.1-3.95-15.4-6.61a11.51,11.51,0,0,1-2-2c-.09-.11-.17-.22-.25-.34a29.13,29.13,0,0,1-1.66-4.77c-3.74-14.23.37-34,.22-36.84a31.37,31.37,0,0,0,1.43,5.1,23,23,0,0,0,3.49,6.23,18.91,18.91,0,0,0,3.07,3.12l.13.12a23.32,23.32,0,0,0,2.34,1.63,26.34,26.34,0,0,0,8.8,3.21c.63.12,1.27.21,1.9.3l.82.09h.07l1.08.09h0c.73.06,1.45.09,2.17.11a54.82,54.82,0,0,0,7.26-.34l.23,0c1.87-.22,3.59-.51,5.11-.81,1.22-.23,2.31-.49,3.23-.71.56-.13,1.06-.26,1.48-.37l.54-.16a1.81,1.81,0,0,0,.31-.09c-.29,1.61-.52,3.13-.69,4.55C251,213,257,217,257.47,216.56Z"/>
    <path class="cls-15" d="M256.78,217.32a20.15,20.15,0,0,1-4.71,3.74,23.91,23.91,0,0,1-7.39,2.77l-.37.07c-.23,0-.48.09-.72.12s-.72.13-1.08.18l-.34,0-1.11.11a30,30,0,0,1-3,.1,1.92,1.92,0,0,1-.24,0c-1.24,0-2.48-.08-3.71-.2l-.86-.1c-.9-.12-1.79-.25-2.68-.43-.3-.05-.59-.1-.89-.17l-.09,0h0c-6.39-1.34-12.1-3.95-15.4-6.61a11.51,11.51,0,0,1-2-2c-.09-.11-.17-.22-.25-.34a29.13,29.13,0,0,1-1.66-4.77c6.33-1.31,16.76-1.93,24.8,5.17C235.8,214.81,247.6,208.43,256.78,217.32Z"/>
    <g>
      <path class="cls-16" d="M243.28,192.61l-.16.31c-.09.19-.2.4-.31.62l-.06.13c-.07.12-.12.24-.18.37-.87,1.83-1.08,2.62-1.43,3.3a4.66,4.66,0,0,1-4.1,2.72c-1.9-.09-4.4-2.46-6.58-6.33q-.36-.64-.72-1.35c.63.12,1.27.21,1.9.3l.82.09h.07l1.08.09h0c.73.06,1.45.09,2.17.11a54.82,54.82,0,0,0,7.26-.34Z"/>
      <path class="cls-16" d="M231.64,192.68c-.31.26-.71.6-1.18,1l-.1.09-.11.1-.29.28c-1.46,1.41-1.94,2.08-2.51,2.59a4.63,4.63,0,0,1-4.79,1.1c-1.7-.73-3.18-3.71-3.89-7.93-.12-.8-.23-1.65-.3-2.54l.13.12a23.32,23.32,0,0,0,2.34,1.63,26.34,26.34,0,0,0,8.8,3.21C230.37,192.5,231,192.59,231.64,192.68Z"/>
      <path class="cls-16" d="M220.94,189.17c-.28.09-.6.19-.94.32l-.13,0-.39.14-.71.28c-1.38.54-2,.9-2.61,1.11a4.66,4.66,0,0,1-4.84-.89c-1.6-1.69-1.47-6.46.59-12.11a23,23,0,0,0,3.49,6.23,18.91,18.91,0,0,0,3.07,3.12l.13.12A23.32,23.32,0,0,0,220.94,189.17Z"/>
      <path class="cls-16" d="M253.64,190.56c-2,6.43-5.81,8.75-8.11,7.07a7.33,7.33,0,0,1-2.16-3.76c-.06-.21-.12-.42-.17-.62s-.06-.22-.08-.33a2.86,2.86,0,0,1-.07-.28l.23,0c1.87-.22,3.59-.51,5.11-.81,1.22-.23,2.31-.49,3.23-.71.56-.13,1.06-.26,1.48-.37Z"/>
      <path class="cls-16" d="M229.58,223.53c-6.4-1.34-12.1-3.95-15.4-6.61a11.17,11.17,0,0,1-2-2c1.52-2.1,3.86-4.52,6.51-4.33s4.71,3.14,8.19,8.32C228,220.64,228.89,222.2,229.58,223.53Z"/>
      <path class="cls-16" d="M240.23,224.35c-.72.06-1.44.09-2.17.1a1.92,1.92,0,0,1-.24,0c-1.24,0-2.48-.08-3.71-.2l-.86-.1c-.9-.12-1.79-.25-2.68-.43-.3-.05-.59-.1-.89-.17a6.11,6.11,0,0,1,.17-4.37c.69-1.5,2.19-3.34,3.89-3.47C236.15,215.52,239.22,218.82,240.23,224.35Z"/>
      <path class="cls-16" d="M252.07,221.06a23.91,23.91,0,0,1-7.39,2.77c-.72.14-1.45.26-2.17.37l-.34,0h0a6.29,6.29,0,0,1-1.37-4.43c.15-1.67,1-3.93,2.54-4.61C245.5,214.28,249.33,216.33,252.07,221.06Z"/>
    </g>
    <path class="cls-4" d="M253.38,194.8c.17-1.42.41-2.94.69-4.55l-.84.25c-.43.11-.92.24-1.48.37-.92.22-2,.47-3.23.71a58.42,58.42,0,0,1-12.6,1.18c-.73,0-1.45,0-2.18-.11h0l-1.08-.09h-.07a26.19,26.19,0,0,1-13.85-5.23,19.7,19.7,0,0,1-3.21-3.24,25.72,25.72,0,0,1-4.88-11.17,0,0,0,1,0,0,0c0,3.79-4.9,27.57,1.44,41.45a2.62,2.62,0,0,0,.24.34,11.87,11.87,0,0,0,2,2c3.3,2.66,9,5.27,15.41,6.61h0l1,.19c.89.17,1.78.31,2.68.43l.86.1a36.79,36.79,0,0,0,7,.09,27.29,27.29,0,0,0,3.25-.44,22.25,22.25,0,0,0,13.1-7.29s0,0,0,0C256.78,216.49,251.23,212.15,253.38,194.8Z"/>
    <g class="cls-17">
      <ellipse class="cls-18" cx="204.42" cy="144.93" rx="6.65" ry="3.33" transform="translate(-14.01 267.73) rotate(-64.68)"/>
      <ellipse class="cls-18" cx="199.19" cy="166.83" rx="10.33" ry="5.31" transform="translate(-25.76 296.86) rotate(-69.98)"/>
    </g>
    <path class="cls-6" d="M206.14,173.8c.74-1.77,2.7-3.86,4.59-3.42a7,7,0,0,1,1.89,1.29,11.6,11.6,0,0,1,1.5,1.63c-.68-.32-1.3-.68-1.93-1a15.29,15.29,0,0,0-1.73-.94c-1.28-.18-3.07,1.48-4.32,2.48Z"/>
    <path class="cls-6" d="M219,183.58a39.51,39.51,0,0,0,37.14,2.31,42.85,42.85,0,0,0,4.91-2.62c-11.9,9.43-30,9.59-42.05.31Z"/>
    <path class="cls-6" d="M206.14,204.26c.17,2,.46,4,.72,6,.42,2.36.58,4.93,1.8,7,1.68,1.34,4.41,2.53,6.32,3.64a26,26,0,0,0,2.69,1.35,38.55,38.55,0,0,1-8.4-3.41,4.18,4.18,0,0,1-1.37-1c-1.47-2.22-1.55-5-1.82-7.5a34.92,34.92,0,0,1,.06-6.05Z"/>
    <path class="cls-19" d="M226.88,123.06s2.6-4.87-6.76-6.92c-.31.39,8.33-4.32,10.85,5.58.55,0,3.93-8.49-9-12.73.16-.32,12.74,0,14.47,12.66-.08-.16,3.85-4.49,0-8.73.31-.16,5.74.31,4.4,10.53"/>
    <path class="cls-19" d="M226.88,123.06s2.6-4.87-6.76-6.92c-.31.39,8.33-4.32,10.85,5.58.55,0,3.93-8.49-9-12.73.16-.32,12.74,0,14.47,12.66-.08-.16,3.85-4.49,0-8.73.31-.16,5.74.31,4.4,10.53"/>
    <g>
      <path class="cls-19" d="M247.6,126.93s8.05-22.41-4.11-25.4-15.63,12.35-3.44,7.87c3.38-2,2.36-4.25,2.36-4.25s6.21,2,2.83,20"/>
      <path class="cls-19" d="M247.6,126.93s8.05-22.41-4.11-25.4-15.63,12.35-3.44,7.87c3.38-2,2.36-4.25,2.36-4.25s6.21,2,2.83,20"/>
      <path class="cls-20" d="M239.47,108.92c-4.7,1.73-8.37-1.09-4.41-2.54,1.2-.69,4.17-.39,5.75-.52a.81.81,0,0,1,.77,1.21A5.48,5.48,0,0,1,239.47,108.92Z"/>
    </g>
    <path class="cls-19" d="M224,125.91c-.31-.23-.47-12.5-21.46-5.58s-13,24.53-2.28,12.66c4.8-5.42.31-6.92.31-6.92S215.92,117,221,127.25"/>
    <path class="cls-19" d="M224,125.92c-.31-.24-.47-12.5-21.46-5.58s-13,24.53-2.28,12.66c4.8-5.43.31-6.92.31-6.92S215.92,117,221,127.26"/>
    <g>
      <g>
        <g>
          <path class="cls-3" d="M189.44,168.39c8,7.79.85,23-3.13,23-10-28.39-11.67-33.83-12.47-37.12-.62-2.51-1.47-4.93-2.11-7.43a12.8,12.8,0,0,0-1.48-4.16c-.67-1.17-1.13-1.37-2.77-3.2a8.83,8.83,0,0,0,1.55-.61c3.07-1.76,3.69-3,4.6-3.6l-.34.36a103.66,103.66,0,0,0,6.47,16.64c.23.48.47,1,.71,1.42h0C183.37,159.44,189.44,168.39,189.44,168.39Z"/>
          <path class="cls-4" d="M186.33,191.19c-10-28.4-11.67-33.83-12.47-37.12-.62-2.51-1.48-4.93-2.11-7.44a12.82,12.82,0,0,0-1.48-4.15c-.67-1.17-1.13-.48-2.77-2.31A54.94,54.94,0,0,0,172,136c.07,0,1.32-.58,1.28-.53a103.37,103.37,0,0,0,6.47,16.65c.23.48.47,1,.71,1.42h0a107,107,0,0,0,8.95,14.68l0,0s-8.78-10.38-16.27-32.09h0l-5.69,4.06"/>
        </g>
        <path class="cls-3" d="M180.56,126.48c0,.11,0,.23-.06.34a8.19,8.19,0,0,1-.28,1.11,4,4,0,0,1-.16.49c-.08.22-.16.44-.26.65s-.16.36-.25.53-.19.36-.29.53-.19.33-.29.49l0,0c-.11.16-.21.32-.33.48a5.92,5.92,0,0,1-.35.48c-.1.13-.19.26-.3.38a.5.5,0,0,1-.07.08c-.24.3-.5.58-.75.86s-.81.79-1.21,1.14-.8.67-1.19,1c-.12.09-.25.19-.38.27-.42.31-.81.57-1.17.79a12.89,12.89,0,0,1-1.62.88s.09,1-3,2.71a8.2,8.2,0,0,1-1.55.62,5.66,5.66,0,0,1-1.07.22l-.25,0a3.74,3.74,0,0,1-2-.4,2.82,2.82,0,0,1-.54-.36,3.86,3.86,0,0,1-.67-.67,7.33,7.33,0,0,1-1.3-2.83c0-.18-.09-.36-.12-.54a12.19,12.19,0,0,1-.22-1.67s-4.14,1.15-6.79-1.14c-3.31-4.54,3.24-9.59,3.4-9.32.73-6.64,6.4-6.76,6.27-6.65,9.87-8.16,10.13,1,10.13,1s3.86-2.68,6.08,3.14A10.59,10.59,0,0,1,180.56,126.48Z"/>
      </g>
      <path class="cls-5" d="M187.09,166c-1,1.33-2.13,1.87-4.23,2.92-1.47.73-2,1.21-3.3,1.34-1.36-3.92-2.46-7.23-3.23-9.58a7.35,7.35,0,0,0,2.54-.92,10.47,10.47,0,0,0,3.18-2.27C183.71,160.42,185.42,163.65,187.09,166Z"/>
      <path class="cls-5" d="M178.91,151.79c.25,1.1-2.72,3-4.44,2.5-.49-1.68-1-3.15-1.47-4.85a37.15,37.15,0,0,0-1-3.94,4.8,4.8,0,0,0,3.62-1.44C176.45,146.47,177.72,149.19,178.91,151.79Z"/>
      <path class="cls-4" d="M180.56,126.48c0,.11,0,.23-.06.34a8.19,8.19,0,0,1-.28,1.11,4,4,0,0,1-.16.49c-.08.22-.16.44-.26.65s-.16.36-.25.53-.19.36-.29.53-.19.33-.29.49l0,0c-.11.16-.21.32-.33.48a5.92,5.92,0,0,1-.35.48c-.1.13-.19.26-.3.38a.5.5,0,0,1-.07.08c-.24.3-.5.58-.75.86s-.81.79-1.21,1.14-.8.67-1.19,1c-.12.09-.25.19-.38.27-.42.31-.81.57-1.17.79a12.89,12.89,0,0,1-1.62.88s.09,1-3,2.71a8.2,8.2,0,0,1-1.55.62,5.66,5.66,0,0,1-1.07.22l-.25,0a3.74,3.74,0,0,1-2-.4,2.82,2.82,0,0,1-.54-.36,3.86,3.86,0,0,1-.67-.67,7.33,7.33,0,0,1-1.3-2.83c0-.18-.09-.36-.12-.54a12.19,12.19,0,0,1-.22-1.67s-4.14,1.15-6.79-1.14c-3.31-4.54,3.24-9.59,3.4-9.32.73-6.64,6.4-6.76,6.27-6.65,9.87-8.16,10.13,1,10.13,1s3.86-2.68,6.08,3.14A10.59,10.59,0,0,1,180.56,126.48Z"/>
      <g>
        <path class="cls-4" d="M180.56,126.48c0,.11,0,.23-.06.34a8.19,8.19,0,0,1-.28,1.11,4,4,0,0,1-.16.49c-.08.22-.16.44-.26.65s-.16.36-.25.53-.19.36-.29.53-.19.33-.29.49l0,0c-.11.16-.21.32-.33.48a5.92,5.92,0,0,1-.35.48c-.1.13-.19.26-.3.38a.5.5,0,0,1-.07.08c-.24.3-.5.58-.75.86s-.81.79-1.21,1.14-.8.67-1.19,1c-.12.09-.25.19-.38.27-.42.31-.81.57-1.17.79a12.89,12.89,0,0,1-1.62.88s.09,1-3,2.71a8.2,8.2,0,0,1-1.55.62,5.1,5.1,0,0,1-1.07.22l-.25,0a3.63,3.63,0,0,1-2-.4,2.82,2.82,0,0,1-.54-.36,3.27,3.27,0,0,1-.67-.67,7.33,7.33,0,0,1-1.3-2.83c0-.18-.09-.36-.12-.54a12.19,12.19,0,0,1-.22-1.67s-4.14,1.15-6.79-1.14c-3.31-4.54,3.24-9.59,3.4-9.32.73-6.64,6.4-6.76,6.27-6.65,9.87-8.16,10.13,1,10.13,1s3.86-2.68,6.08,3.14A10.59,10.59,0,0,1,180.56,126.48Z"/>
        <path class="cls-6" d="M174.1,118.46c-3.37,1.64-7.59,5.68-5.49,9.67,2.14,1.15,5.22-.39,6.92-1.88A8.93,8.93,0,0,1,171,128.7a3.45,3.45,0,0,1-2.64-.28c-.39-.26-.48-.85-.61-1.26a6.91,6.91,0,0,1,1.77-6.23,15.42,15.42,0,0,1,4.12-3.36l.45.89Z"/>
        <path class="cls-6" d="M164.23,117.1c-.69,2.82-3.08,12.54,2.19,11.71a7.78,7.78,0,0,0,1.91-.68,7.45,7.45,0,0,1-1.88.8c-4.36,1-4-5.2-3.8-8a38.07,38.07,0,0,1,.61-4.09l1,.24Z"/>
        <path class="cls-6" d="M158,123.62c.06,2.35.29,9.61,4.2,7.33a11.21,11.21,0,0,0,2.61-2.45,11.38,11.38,0,0,1-2.48,2.66c-2.79,2.11-4.38-1.61-4.81-3.86a25,25,0,0,1-.52-3.66l1,0Z"/>
        <path class="cls-6" d="M171.6,137.49a6.63,6.63,0,0,1-6.19-4.31,6.17,6.17,0,0,0,6.13,3.32l.06,1Z"/>
      </g>
    </g>
    <path class="cls-20" d="M199,133.5c-4.75,5.28-13,2.82-4.27-2.85a31.67,31.67,0,0,1,5.53-3.27,1.23,1.23,0,0,1,1.66.93C202.1,129.48,201.2,131.05,199,133.5Z"/>
  </g>
</svg>
