<svg xmlns="http://www.w3.org/2000/svg" xmlns:xlink="http://www.w3.org/1999/xlink" width="279.53" height="218.34" viewBox="0 0 279.53 218.34">
  <defs>
    <style>
      .cls-1 {
        fill: none;
      }

      .cls-2 {
        isolation: isolate;
      }

      .cls-3 {
        clip-path: url(#clip-path);
      }

      .cls-4 {
        fill: url(#linear-gradient);
      }

      .cls-5 {
        mix-blend-mode: screen;
        opacity: 0.13;
        fill: url(#linear-gradient-2);
      }

      .cls-6 {
        fill: #0c4c29;
      }

      .cls-7 {
        mix-blend-mode: multiply;
        opacity: 0.43;
        fill: url(#linear-gradient-3);
      }

      .cls-8 {
        clip-path: url(#clip-path-2);
      }

      .cls-9 {
        clip-path: url(#clip-path-3);
      }

      .cls-10 {
        opacity: 0.6;
        fill: url(#linear-gradient-4);
      }

      .cls-11 {
        fill: #f8f6f0;
      }

      .cls-12 {
        fill: #7e57a3;
      }

      .cls-13 {
        fill: #12170d;
      }

      .cls-14 {
        fill: #de195a;
      }
    </style>
    <clipPath id="clip-path">
      <rect class="cls-1" x="-1669.71" y="869.65" width="1600" height="900"/>
    </clipPath>
    <linearGradient id="linear-gradient" x1="12708.59" y1="1065.33" x2="13740.18" y2="1065.33" gradientTransform="matrix(-1, 0, 0, 1, 12845.27, 0)" gradientUnits="userSpaceOnUse">
      <stop offset="0.03" stop-color="#452500"/>
      <stop offset="0.11" stop-color="#502e0a"/>
      <stop offset="0.25" stop-color="#6e4723"/>
      <stop offset="0.34" stop-color="#845a36"/>
      <stop offset="0.47" stop-color="#66401c"/>
      <stop offset="0.6" stop-color="#4e2c08"/>
      <stop offset="0.67" stop-color="#452500"/>
    </linearGradient>
    <linearGradient id="linear-gradient-2" x1="12708.59" y1="974.64" x2="13740.18" y2="974.64" gradientTransform="matrix(-1, 0, 0, 1, 12845.27, 0)" gradientUnits="userSpaceOnUse">
      <stop offset="0.21" stop-color="#cc925e"/>
      <stop offset="0.48" stop-color="#a56752"/>
      <stop offset="0.8" stop-color="#6d3134"/>
      <stop offset="1" stop-color="#292937"/>
    </linearGradient>
    <linearGradient id="linear-gradient-3" x1="4463.65" y1="-1253.81" x2="4549.26" y2="-915.09" gradientTransform="matrix(0.77, 0.07, -0.01, 0.99, -3174.5, 1155.59)" gradientUnits="userSpaceOnUse">
      <stop offset="0" stop-color="#96880c"/>
      <stop offset="0.31" stop-color="#002405"/>
      <stop offset="0.62" stop-color="#000b00"/>
      <stop offset="1" stop-color="#596b00"/>
    </linearGradient>
    <clipPath id="clip-path-2">
      <rect class="cls-1" x="-1509.71" y="-161.29" width="1280" height="720"/>
    </clipPath>
    <clipPath id="clip-path-3">
      <rect class="cls-1" x="-1669.71" y="-251.29" width="1600" height="900"/>
    </clipPath>
    <linearGradient id="linear-gradient-4" x1="-936.08" y1="-439.48" x2="410.17" y2="765.71" gradientTransform="matrix(0.98, -0.19, 0.19, 0.98, -72.49, -102.53)" gradientUnits="userSpaceOnUse">
      <stop offset="0" stop-color="#2a52cb"/>
      <stop offset="0.05" stop-color="#284dc3"/>
      <stop offset="0.32" stop-color="#20379b"/>
      <stop offset="0.56" stop-color="#1b277f"/>
      <stop offset="0.78" stop-color="#171d6d"/>
      <stop offset="0.93" stop-color="#161a67"/>
    </linearGradient>
  </defs>
  <g class="cls-2">
    <g id="Layer_1" data-name="Layer 1">
      <g class="cls-3">
        <g>
          <g>
            <path class="cls-4" d="M-926.2,574.61c100.23,19.14,72.42-54.12,58.78-87.08S-970,315.21-970,315.21s40.9-55.31,48.91-42.54S-850.58,429-815.29,491.77s178,124.46,260.59,180.82,183.22,179.24,189.23,145.73,3.61-232.94,4-324.41c-.05-3.27-.14-6.51-.26-9.74,0-1-.09-2.06-.13-3.08q-.13-3.33-.32-6.61c-.07-1.16-.14-2.32-.22-3.48-.13-2.1-.28-4.18-.45-6.26-.08-1.11-.17-2.23-.26-3.33-.2-2.35-.43-4.68-.66-7-.08-.77-.15-1.56-.23-2.33-.33-3.08-.69-6.15-1.08-9.19-.09-.7-.19-1.4-.28-2.1-.31-2.35-.63-4.68-1-7-.15-1-.32-2.08-.48-3.12-.31-2-.63-4-1-6-.18-1.07-.36-2.13-.55-3.19-.36-2-.74-4.07-1.12-6.09-.18-.93-.35-1.86-.53-2.78q-.82-4.19-1.72-8.31c0-.11-.05-.24-.08-.35-.63-2.9-1.29-5.77-2-8.63l-.6-2.44c-.5-2-1-4.08-1.54-6.1-.24-.94-.49-1.88-.74-2.82q-.78-2.91-1.59-5.81c-.25-.87-.49-1.75-.74-2.62q-.94-3.3-1.94-6.55c-.16-.55-.33-1.11-.5-1.66-.85-2.79-1.73-5.55-2.63-8.3l-.24-.72q-1.22-3.69-2.49-7.33c-.23-.67-.47-1.35-.71-2q-1.08-3-2.19-6.06l-.78-2.1q-1.19-3.17-2.4-6.28l-.59-1.53q-3.17-8-6.53-15.77c-.07-.17-.15-.33-.22-.49q-1.56-3.59-3.17-7.13c-.17-.38-.35-.77-.53-1.15q-1.53-3.37-3.11-6.7l-.39-.83a616.6,616.6,0,0,0-45.2-78.51c-6.53-9.74-13.15-19.13-19.76-28.19-18.43-25.26-36.76-47.95-52.91-68.55q-2.64-3.36-5.19-6.64l-1.43-1.84q-3.48-4.48-6.79-8.86c-72.17-95.19-169.19-176-169.19-176S-701-135.77-675.78-115s125.09,186.67,131.1,65.41-40.89-263.24-40.89-263.24,14.43-9.58,48.1-19.15c0,0,45.71,62.22,42.1,209s69.76,218.58,129.9,362.17l2.73,6.51c.35.86.7,1.7,1.06,2.55q3.8,9.09,7.39,17.78l.21.5.09.23q2.46,5.92,4.82,11.65c.11.26.23.53.33.79h0c12.15,29.36,22.64,54.79,31.9,75.54.17.39.34.77.52,1.15l1.13,2.54c.26.57.51,1.13.77,1.69l.87,1.92.89,1.92c.23.52.47,1,.7,1.53l1,2.1c.19.41.38.82.58,1.22l1,2.22c.16.32.31.64.46,1,.38.8.77,1.6,1.15,2.38.06.14.13.27.2.41q4.33,8.94,8.32,16.11l.07.14c.43.76.85,1.51,1.27,2.24l.11.18q.63,1.09,1.26,2.16l.05.09a93.18,93.18,0,0,0,10,14.18l.06.07c.38.42.75.82,1.12,1.2l.1.1c.36.38.73.74,1.09,1.08l.08.07a19.86,19.86,0,0,0,6.67,4.42l.11,0c.31.11.61.19.91.27a1.83,1.83,0,0,0,.25.06c.28.07.56.12.83.16l.31,0a7,7,0,0,0,.8.06h.33c.26,0,.52,0,.77,0l.35,0a7,7,0,0,0,.76-.12l.33-.08c.26-.07.51-.13.77-.22a2.18,2.18,0,0,0,.23-.09,12.08,12.08,0,0,0,2.52-1.3l.47-.32.58-.45.52-.43.55-.5.55-.53.53-.55.56-.63.51-.6c.2-.24.4-.49.59-.75s.33-.41.49-.63.42-.59.62-.89l.45-.64c.24-.36.47-.73.7-1.1l.37-.59c.36-.59.72-1.2,1.08-1.84,7.74-13.86,8.3-203.88,0-397.27-10.84-252.08-154-392.49-154-392.49a346.63,346.63,0,0,1,37.29-59c79.38,76.58,141.8,248.75,154,335,18,128.18,47.71,257.93,57.33,127.11.15-2.05.29-4.14.43-6.29s.27-4.35.4-6.6.26-4.55.37-6.9c1.73-34,2.38-77.95,2.38-125.14,0-151.36-6.79-336.37-6.79-336.37h0s51.72-3.18,56.53,35.11c3.35,26.67-.11,174,1.06,349.48.51,76.47,8.82,167.72,7.36,240.84-4.81,240.91,15.64,236.13,30.07,209C37.45,92.38,263.57-134.18,281.61-218.74,302.05-340,341.75-521.88,341.75-521.88s36.08-16,67.35,28.73c-55.32,127.63-102.23,314.3-73.37,299.94C359.51-205,455.87-294.77,489.14-326.06c0,0,0,0,0,0,7.06-6.64,11.26-10.64,11.26-10.64h.06l.07-.07s45.7,3.19,15.23,58.5c-28.57,51.86-120.58,129.9-169,153.47-3.26,1.59-6.33,2.94-9.17,4-.6.23-1.19.48-1.79.72-.93.37-1.87.74-2.79,1.13l-2,.88c-1,.47-2.06.94-3.08,1.43l-1.53.75c-1.33.67-2.66,1.37-4,2.08l-.62.33c-1.56.87-3.11,1.78-4.64,2.71l-.82.52q-1.89,1.17-3.74,2.41l-1,.68q-2,1.35-3.93,2.77l-.42.3c-3.05,2.23-6,4.59-8.95,7.07l-.33.28c-12,10.17-23.06,22.27-34.12,35.59v0c-12,14.43-23.91,30.29-36.83,46.68C190.2,32.28,106.81,172.69,63.51,221.62s-85,219.1-94.62,248.88c-9.35,29,5.57,255.29,6.38,459.53.07,5.4.12,58.09.17,63.43,35.58,63.12,44.29,92.78,52.65,167.85l.14.56c-2.11,83.6-14.43,387.17-8,595.65s60.54,302.07,96.62,369.08,101,67,157.56,63.81,71,9.58,113.06,16,67.35,43.08,91.41,71.8c0,0-43.3-4.79-84.19-20.75s-109.46-11.16-120.28,4.79c8.42,12.76,38.49,47.87,78.18,54.25s93.81,73.39,103.44,119.66c-20.45-17.56-79.39-57.44-117.87-55.84s-56.53,0-113.06-46.28c-1.54-1.26-3-2.43-4.53-3.56-.69-.52-1.38-1-2.06-1.52s-1.06-.77-1.58-1.15c-50.71-35.82-73.33,3.44-98.87,4.64-26.46,6.38-55.33-3.19-55.33,1.59a88.27,88.27,0,0,0,12,42.56c11.22,19.14,32.87,53.17,72.16,90.4s85.65,60.7,101.69,142.6c-15.19-27.55-59.81-28.27-89-59.56-13.9-14.89-42.67-29.7-58.54-40.42-37-25-84.48-26.19-96.87-36.24-28.87-23.39-117.07-62.75-133.11-51.05,0,13.83,4.81,65.94,28.06,89.34S-20,2592.55-12,2655.31c-10.43-20.22-72.17-85.1-95.43-102.12s-68.81-13.9-96.87-39.42-66.3-82.37-125.08-104.24c-32.8-12.21-120.42-1-146.08,21.34s-105,35.1-129.1,56.37-72,44.6-106.5,48.85-73.77,33-107.44,50c19.29-52.57,75.37-81.9,93-98.92s26-22.55,52.12-44.67c57.58-48.86,137.77-62.69,185.88-124.37a37.26,37.26,0,0,0-8.37.63l0,0c-31.93,5.14-118.5,38.23-161.32,52.69l-.93.31-3.06,1-2.1.69-1.58.52-2.87.91-1,.33-2.77.84-.69.2c-.91.27-1.78.51-2.58.73l-.33.08c-.85.23-1.64.43-2.34.59-2.12.48-4.18.92-6.22,1.34l-2,.39c-1.34.27-2.66.52-4,.76l-2.37.42c-1.12.19-2.23.38-3.33.55-.85.14-1.7.28-2.54.4l-2.8.41-2.82.39-1.3.16c-22.4,2.83-40.3,2.46-59.38,4.69l.17,0c-17.43,2-35.85,6.22-59.64,17.06,40.21-41.3,94-47.27,176.8-79.77,33.56-13.18,59.78-32.47,113-60.64,54.08-36.75,92.52-95.89,119.83-164.23h0c1-2.45,1.95-4.92,2.9-7.4.26-.69.52-1.37.79-2.06q4.45-11.74,8.52-23.8l.36-1.08c.9-2.66,1.77-5.33,2.64-8,.12-.37.23-.74.35-1.11q4-12.42,7.55-25.07c.1-.38.21-.76.32-1.14q4.89-17.45,9.08-35.2c0-.18.09-.37.13-.55q3.15-13.38,5.93-26.85a.5.5,0,0,0,0-.12q3.75-18.17,6.85-36.37l0-.15c7.27-42.51,12.07-84.71,15.21-124.18v0q1.34-16.76,2.29-32.79c0-.23,0-.46,0-.68q.7-11.85,1.24-23.23c0-.08,0-.17,0-.25q.18-3.72.33-7.38l0-.72c.31-7.18.56-14.2.78-21,0-.46,0-.93,0-1.39q.1-3.27.19-6.48a2.35,2.35,0,0,0,0-.26q.18-6.51.31-12.75l0-1.13c0-1.9.07-3.77.1-5.64,0-.67,0-1.34,0-2q.15-8.52.22-16.47c0-.75,0-1.5,0-2.24,0-1.53,0-3,0-4.55,0-.81,0-1.61,0-2.41,0-2.73,0-5.41,0-8v-1.87c0-1.33,0-2.62,0-3.92,0-.93,0-1.86,0-2.77v-3.38c0-1,0-2.07,0-3.09,0-1.82,0-3.61,0-5.35,0-.86,0-1.73,0-2.57s0-1.95,0-2.9,0-1.92,0-2.86c0-1.16,0-2.3,0-3.4s0-2.46,0-3.63c0-3.85-.06-7.38-.09-10.56,0-1.89,0-3.87,0-5.89v-1.92c0-1.52,0-3.06,0-4.64v-1.94q0-3,0-6.22c0-1,0-1.95,0-2.92,0-1.29,0-2.58,0-3.89s0-2.47,0-3.73c0-.86,0-1.73,0-2.6,1-77.18,5.38-205.51.77-324.58q-.42-10.8-.94-21.48c0-.51,0-1-.07-1.54-.35-7-.72-13.87-1.14-20.72,0-.29,0-.58-.05-.86-.87-14.26-1.9-28.27-3.12-41.9-.08-.93-.17-1.84-.26-2.77q-.75-8.19-1.59-16.17c-.19-1.85-.39-3.68-.6-5.51q-.74-6.63-1.53-13.1c-.25-2-.51-4.06-.76-6.06-.56-4.25-1.14-8.41-1.74-12.55-.27-1.79-.51-3.61-.78-5.37-.88-5.77-1.8-11.44-2.78-16.95-.79-4.4-1.74-8.79-2.77-13.17-.21-.92-.42-1.84-.65-2.76q-1.56-6.35-3.43-12.67c-.24-.78-.5-1.57-.74-2.35q-1.75-5.74-3.78-11.43c-.24-.71-.47-1.42-.73-2.13-1.48-4.11-3.08-8.21-4.75-12.3-.43-1.07-.88-2.13-1.33-3.21-1.7-4.05-3.47-8.1-5.33-12.11-.29-.64-.61-1.27-.91-1.91-1.67-3.54-3.4-7-5.19-10.56l-1.77-3.47q-3-5.65-6.07-11.23c-.7-1.25-1.41-2.48-2.12-3.72q-2.61-4.56-5.32-9.06c-.63-1.06-1.25-2.1-1.89-3.15-2.18-3.56-4.43-7.09-6.7-10.61-.94-1.46-1.87-2.9-2.83-4.33-54.17-82.06-132.25-152.36-177.93-195.81l-.39-.38-2.81-2.68-2.18-2.09-2-1.92q-2-1.9-3.85-3.74l-1.28-1.25-2.91-2.87-1.08-1.08c-1.22-1.22-2.41-2.42-3.54-3.58l-.63-.65c-.94-1-1.85-1.91-2.72-2.83-.28-.31-.57-.61-.84-.9-1-1.1-2-2.17-2.93-3.19-45.7-51-198.05-107.42-318.33-129.75s-251-31.92-251-31.92v-3.34S-1026.43,555.46-926.2,574.61Z"/>
            <path class="cls-5" d="M67.88,2173.91c-36.08-67-90.21-160.61-96.62-369.08s5.91-512,8-595.65l-.14-.56c-.4-79.91-17.07-152-52.65-215.16q-.08-8-.17-16.12c-.82-204.24-15.74-430.55-6.38-459.52,9.62-29.79,51.32-200,94.62-248.89S141.25,79.6,178.13,32.8C191,16.41,203,.55,215-13.88v0c11-13.32,22.16-25.42,34.11-35.59l.34-.28q4.38-3.72,8.94-7.07l.43-.3q1.94-1.42,3.93-2.77l1-.68c1.24-.82,2.49-1.63,3.75-2.41l.82-.52q2.29-1.4,4.63-2.7c.21-.12.42-.22.62-.34q2-1.06,4-2.07l1.54-.76c1-.49,2-1,3.07-1.43l2-.88c.92-.39,1.85-.76,2.78-1.13.6-.24,1.19-.49,1.8-.72,2.84-1.08,5.91-2.43,9.17-4,48.37-23.57,140.39-101.61,169-153.47,8.92-16.19,11.28-27.89,10.2-36.37,4.61-4.31,8.73-8.17,12.15-11.39l0,0c7.06-6.65,11.26-10.65,11.26-10.65h.06l.07-.07s45.7,3.19,15.23,58.5c-28.57,51.86-120.58,129.9-169,153.47-3.26,1.59-6.33,2.94-9.17,4-.6.23-1.19.48-1.79.72-.93.37-1.87.74-2.79,1.13l-2,.88c-1,.47-2.06.94-3.08,1.43l-1.53.76c-1.33.67-2.66,1.36-4,2.07-.21.12-.42.22-.62.34q-2.34,1.31-4.64,2.7l-.82.52c-1.26.78-2.51,1.59-3.74,2.41l-1,.68q-2,1.35-3.93,2.77l-.42.3c-3.05,2.23-6,4.59-8.95,7.07l-.33.28c-12,10.17-23.06,22.27-34.12,35.59v0C251.93.55,240,16.41,227.08,32.8,190.2,79.6,106.81,220,63.51,268.93s-85,219.1-94.62,248.89c-9.35,29,5.57,255.28,6.38,459.52q.11,8.1.17,16.12C11,1056.58,27.7,1128.71,28.09,1208.62l.14.56c-2.11,83.6-14.43,387.17-8,595.65s60.54,302.07,96.62,369.08c25.1,46.61,64.17,60.78,104.65,64C165.91,2240.88,103.12,2239.36,67.88,2173.91Z"/>
          </g>
          <g>
            <g>
              <path class="cls-6" d="M973.6,379.74c-7.19-12.24-41.65-8.07-77.26,9.18,11-12,15.39-24.35,9.88-28-4.89-3.26-16.08,1.52-26.6,10.78a128,128,0,0,0,5.51-13.92c10.13-30.84,6.13-57.67-8.9-60-13.7-2.15-31.77,16.9-42.49,43.59-2.11-22.14-12.17-38.31-23.73-37.11-.49.09-.9.21-1.32.29,21.08-27.88,27.79-55.14,14.8-62.08-13.61-7.29-43.78,10.47-67.28,39.68a5.65,5.65,0,0,1-.92,1.08c.76-2.43,1.37-5,2-7.51,8.63-37.93.53-69.82-18.15-71.33-14.08-1.09-30.2,15.62-40.94,40.29l.06-.3c1.92-25-6.6-44.95-19.06-44.55-7,.17-13.76,6.8-18.64,17-.73-3.16-2.33-5.43-4.89-6.18-4.39-1.31-10.58,2-16.47,8,.33-11-3.26-19.24-9.23-19.47-3.2-.13-6.6,2.14-9.51,5.93,9.47-21.47,9.38-40.06-1.12-43.54-8.13-2.6-20.3,4.43-31.53,17.08,2-19.55-3.91-35.14-13.73-35.25-5.91-.08-11.89,5.26-16.48,13.69.57-17-5-29.72-14.06-30S524.81,139.35,520,156.43a62.9,62.9,0,0,0-5.2-12.13c-9.3-16.9-24.06-27.32-33-23.32-1.74-13-7.47-22-15.12-21.91-7.46.17-14.75,9.11-19,21.87-1.55-8.25-5.44-13.77-10.5-13.67-4.81.08-9.47,5.3-12.6,13-4.41-.38-10.9,2.92-17.53,8.57,6.24-12.42,6.9-22.56.58-25.29s-18.23,3-29.79,13.56c-4.54-6.54-25.29-2.77-46.33,8.51a124.36,124.36,0,0,0-13.8,8.55c7.27-13,9.53-24.51,6.07-30.1l-22,2.44A87.21,87.21,0,0,0,285,121.78c1.63-5.56,1.83-10.27.48-13.48L261.53,111a93.25,93.25,0,0,0-19,18.84,41.34,41.34,0,0,0-2.8-16.42l-31.76,3.52a89.77,89.77,0,0,0-13.83,24.26c.43-4.3-.72-7.38-3.58-8.36-5.27-1.88-14.73,3.91-23,13.45-.36-7.21-3.08-12.13-7.86-12.53-2.78-.25-5.85,1.12-8.89,3.56,2-5.63,2.6-10.52,1.9-14.27q-17.08,1.89-34.16,3.74a125,125,0,0,0-21.38,21.18L97,148a99.14,99.14,0,0,0,5.64-19.54l-67.26,7.35a184.09,184.09,0,0,0-13,18.42c-1.53,2.39-2.87,4.76-4.17,7.18,0,0,0-.88.07-1.32a104.13,104.13,0,0,0-.62-22.34l-58.44,6.39a116.4,116.4,0,0,0-3.23,17,3,3,0,0,0-.81-.67c-9-5.13-30.14,5.29-49,23.55,5.73-13.34,8.4-25.65,8-35l-47.5,5.18a137.55,137.55,0,0,0-17.1,26,136.33,136.33,0,0,0-6.06,13.86c-1.86-11.58-7.73-19.53-14.42-18.46-7.48,1.19-13.25,13.28-13.16,27.31-17.13-27.06-43.48-42.53-59.12-34.53-14.57,7.44-14.67,32.64-1.11,58.19-11.13-11.82-24.44-17.53-32.81-13.13-10.5,5.56-9.28,24.86,2.67,43.09a18,18,0,0,0,1.54,2.22c-.5-.21-.93-.37-.93-.37-26.67-8.65-53-7.51-59.4,2.34-5.55,8.58,5.92,21,26.27,29.65-21.91-2.55-41.68,1.5-45,9.59-2.85,6.94,7.52,14.69,24.28,19.1-12.69,5.22-21.15,11.85-20.22,16.89.77,3.94,7.17,5.93,16.33,5.85-18.93,7.1-31.9,17-30.24,23.78s16.9,8.19,35.9,4.29c-28.21,15.69-45.85,34.7-40.1,44.22,4.65,7.8,23.65,7,46.64-.76-17.19,9.8-27.52,20.64-24.71,27.64,3.56,8.89,27,8.33,53.88-.8-.35.36-.64.68-.92,1-15.68,18.83-21.3,37.42-12.57,41.64,7.06,3.36,21.34-3.72,34.86-16.43A76,76,0,0,0-270,477.27c-1,24.58,8.83,43.35,21.66,41.9,11.33-1.29,21.26-17.55,24.22-38a59.07,59.07,0,0,0,6.71,8.24c12.39,12.57,28.53,18.47,36,13.21,5.38-3.76,4.92-12.13-.15-21.17,14.49,3.84,27.94,2.88,31.87-2.67,2.67-3.82.17-8.94-5.8-13.79,13.51,2.1,25.54.22,28.27-4.91l.07-.11c9.46,7.53,19.76,10.62,25.69,6.92,3.94-2.45,5.18-7.49,3.91-13.56,6,9.89,14.11,15.41,21.25,13.18,7.32-2.24,11.49-12.18,11.16-24.54,2.85,6,7.14,9.47,12.06,8.95,9.17-1,17.24-15.68,18.33-33.1,1.27,1.43,2.65,2.79,4,4.2,17.92,17,40.76,24.6,51.05,17.06,3.45-2.56,5-6.55,4.89-11.4,3.07,2.85,6.44,4.18,9.66,3.34A9,9,0,0,0,38.47,429c-2.34,10.64-.57,18.59,5.46,19.93,5.35,1.19,12.82-3.1,20-10.67-2.65,16.25,1.11,28.43,10,29.24,6,.47,13.19-4.38,19.55-12.48,1.34,3.41,3.59,5.48,6.67,5.77,2.54.21,5.38-.85,8.19-2.94-3.73,11.72-2.64,20.82,3.76,22.72s16.54-3.73,26.07-13.65c.41,7.16,3,12.13,7.33,12.91-11,16.81-13.95,31.19-5.87,35.89,6.79,4,19.88.12,34.38-9-3.27,14.2-.22,25.56,7.14,25.89,5.92.28,13-6.75,17.8-16.94.73,1.9,33.84-8.78,34.69-7.18,0,0,17.75,40.66,29.37,41.68,9.6.85,30.1-30.78,30.1-30.78,1.95-1,31.69,6,33.74,4.68-3.73,10.4-3.14,18.86,2.19,20.69,6.52,2.23,17.91-6.5,26.1-19.73,5.35,12.8,13.56,20.6,22.48,19.61,10.5-1.24,19.11-14.54,22.69-32.75,4.26.83,10.32-2.54,16.28-8.52.49,11.76,4.74,20.12,11.69,20.73s14.9-6.83,20.82-18.21c.77,2.77,2.35,4.7,4.73,5.37,2.8.83,6.44-.19,10.14-2.63-.77,9.14,1.55,15.78,7.15,17.44,8.17,2.42,20.86-6.75,31.1-21.56.31,8.91,3.39,15.21,8.85,16.05,6.24.94,13.94-5.25,20.09-15.19a4.72,4.72,0,0,0,1.51,2.87c2.18,1.84,6.1,1.92,10.93.52-3.87,4.05-5.64,8.06-4.66,11.44,2.94,10,28.41,11.34,56.86,3,2.26-.68,4.46-1.42,6.72-2.15-12.57,15.22-17,30.57-9.91,34.66,3.77,2.17,10.15.57,17.26-3.54-9.8,10.47-14,20.45-9.45,24.91s15.63,2.4,28.38-4c-5.76,4.81-8.58,9.51-7.12,13,2.2,5.2,13.45,6.14,27.41,2.87l-.12.2c-1.59,5.35,7.2,11.12,20.4,14-8.77,2.1-14.89,5.61-15.57,9.79-.95,6.13,9.88,11.58,25.18,13.36-11.31,6-18.14,13-16.48,18,2.4,7.12,20.78,7.63,41.06,1.12a99.05,99.05,0,0,0,12.15-4.7c-13.34,18.57-17.37,36-8.74,40.94,10,5.74,32.78-7,51-28.34,2.71-3.19,5.17-6.42,7.38-9.62,1.73,15.56,8.44,26.52,17.09,26.08,10.76-.52,20.33-18.41,21.43-39.94a9.93,9.93,0,0,1,0-1.22c15.95,17.14,35.62,25.72,45.49,19.33,7.74-5,7.39-17.88.18-32.21,13.67,14.62,29.32,21.82,39.36,16.83,12.27-6.17,11.9-28.58-.14-51.76,13.24,9.89,27.37,13.85,34,8.74s3.28-18.24-7.47-30.82c7.84,3.26,14.79,3.77,18.52.65,4.65-4,2.61-12.61-4.32-21.46,17.8,2,32.72-1,35.69-8,3.35-8-10.38-18.34-31.14-23.74,24.13-.4,43.5-7.05,45.4-16.31,2.16-10.63-19.58-20.68-48.56-22.47l-1.57,0c1.07-.46,2-.86,3-1.37,24.34-11.5,40.24-27.56,35.57-35.94-3.78-6.7-19.6-6.41-38.2-.16C961,412.78,980.4,391.13,973.6,379.74Z"/>
              <path class="cls-7" d="M979.38,489.92c1.16-5.57-4.36-11-14-15.12-6.59,2.28-16.44,3-27.39,1.74,6.93,8.86,9,17.46,4.31,21.42-3.67,3.11-10.73,2.61-18.52-.61,10.7,12.59,14.18,25.57,7.47,30.82-6.53,5.1-20.74,1.15-34-8.78,12,23.23,12.41,45.59.13,51.75-10,5.05-25.63-2.16-39.36-16.77,7.21,14.32,7.62,27.21-.19,32.2-9.91,6.35-29.53-2.24-45.46-19.33,0,.4-.05.79-.09,1.23-1,21.53-10.6,39.36-21.3,39.94-8.72.39-15.5-10.57-17.22-26.09-2.21,3.16-4.62,6.39-7.36,9.58-18.17,21.37-41,34.08-50.89,28.38-8.69-5-4.65-22.36,8.63-40.93a100.4,100.4,0,0,1-12.1,4.7c-20.33,6.51-38.72,6-41.06-1.13-1.66-5.08,5.17-12,16.49-18-15.37-1.78-26.2-7.26-25.19-13.31.68-4.22,6.8-7.79,15.62-9.84-13.18-2.9-22-8.62-20.44-14,0,0,0-.15,0-.15-14,3.18-25.2,2.33-27.41-2.91-1.46-3.5,1.42-8.2,7.19-13-12.75,6.39-24,8.26-28.39,4-4.53-4.51-.35-14.45,9.41-24.92-7.06,4.17-13.39,5.66-17.21,3.49-7.09-4-2.6-19.4,9.83-34.65-2.13.77-4.32,1.45-6.65,2.14-28.44,8.38-53.91,7-56.86-3-1-3.43.79-7.38,4.59-11.47-4.82,1.38-8.74,1.36-10.85-.49a4.7,4.7,0,0,1-1.51-2.86c-6.22,9.93-13.86,16.13-20,15.18-5.57-.83-8.6-7.09-8.85-16.06-10.29,14.78-23,24-31.15,21.52-5.55-1.66-7.87-8.31-7.1-17.39-3.81,2.44-7.39,3.46-10.19,2.63-2.38-.71-3.9-2.6-4.8-5.36-5.86,11.37-13.75,18.74-20.76,18.15S425.48,453.8,425,441.94c-5.83,6-12,9.4-16.27,8.52-3.47,18.2-12.07,31.55-22.69,32.8-8.87,1-17.07-6.82-22.42-19.62-8.2,13.23-19.64,22-26.18,19.73-5.25-1.83-5.84-10.29-2.11-20.69-2.12,1.36-31.79-5.68-33.8-4.67,0,0-20.45,31.58-30.06,30.72-11.61-1-29.29-41.64-29.29-41.64-1-1.58-34,9.09-34.76,7.2-4.83,10.13-11.88,17.21-17.79,16.93-7.37-.33-10.36-11.74-7.15-25.89-14.51,9.09-27.53,13-34.39,9-8.07-4.69-5.17-19.07,5.89-35.94-4.24-.68-6.92-5.7-7.34-12.9-9.59,10-19.66,15.6-26.06,13.7s-7.49-11-3.7-22.72c-2.86,2-5.65,3.15-8.25,2.93-3.08-.28-5.34-2.36-6.69-5.76-6.35,8.1-13.49,12.94-19.53,12.43-8.89-.76-12.64-13-10.06-29.19-7.1,7.51-14.57,11.86-19.92,10.66-6.07-1.33-7.84-9.28-5.45-19.93a8.78,8.78,0,0,1-3.48,1.93c-3.28.86-6.71-.47-9.77-3.32.19,4.8-1.39,8.83-4.89,11.4-5.74,4.22-15.46,3.66-26-.63,9.78-4,15.76-9.12,15.32-14.19-.83-8.49-19.76-13.48-43.06-11.77,23.7-8.15,39.5-20.62,36.6-29.74-3.38-10.51-30-12.75-59.71-5-.53.14-1,.32-1.55.45.76-.73,1.51-1.46,2.26-2.24,18.22-18.47,25.71-38.49,16.72-44.69-7.13-4.95-22.62.46-37.86,12.31,22.18-26,30.26-52.29,17.75-60.63-13.44-8.9-45.52,6.13-71.92,33.59,4.64-14.64,2.73-27.43-4.62-29-6.51-1.4-15.15,6.61-20.8,18.59a105.63,105.63,0,0,0-1.68-14.65c-4.42-24-15.69-43.22-27.9-50-4,5-6.55,13.5-6.46,22.92a102.21,102.21,0,0,0-15.6-19.15c-7.94,9.12-11.65,27.2-9.42,47.78-13.47-19.73-31.77-31.42-42.65-26.51l-.7.49a94.25,94.25,0,0,0,8.14,21c-11.13-11.82-24.44-17.53-32.81-13.13-10.5,5.56-9.28,24.86,2.67,43.09a18,18,0,0,0,1.54,2.22c-.5-.21-.93-.37-.93-.37-26.67-8.65-53-7.51-59.4,2.34-5.55,8.58,5.92,21,26.27,29.65-21.91-2.55-41.68,1.5-45,9.59-2.85,6.94,7.52,14.69,24.28,19.1-12.69,5.22-21.15,11.85-20.22,16.89.77,3.94,7.17,5.93,16.33,5.85-18.93,7.1-31.9,17-30.24,23.78s16.91,8.19,35.9,4.29c-3.83,2.16-7.47,4.34-10.87,6.56-1.17.76-2.35,1.57-3.46,2.32l-1.59,1.13c-.87.59-1.7,1.18-2.51,1.77-.53.43-1.11.85-1.64,1.28-.75.54-1.45,1.11-2.16,1.65-.51.42-1.1.9-1.57,1.27-.7.58-1.34,1.11-2,1.69l-1.4,1.26-1.86,1.67c-.41.42-.81.79-1.22,1.2-.57.58-1.21,1.2-1.73,1.82-.34.36-.63.68-1,1-.8.92-1.61,1.85-2.3,2.72l-.22.27a29.7,29.7,0,0,0-1.78,2.45,4.24,4.24,0,0,0-.56.86c-.4.61-.73,1.16-1.08,1.72a6.72,6.72,0,0,1-.44.95c-.28.5-.5,1-.72,1.51-.11.3-.22.59-.38.95s-.26.93-.36,1.38c0,0-.17.64-.21.93,0,0-.09.89-.13,1.33a3.39,3.39,0,0,0,0,.78,5,5,0,0,0,.17,1.34v.44a8.69,8.69,0,0,0,.88,2c4.65,7.8,23.65,7,46.64-.76-17.19,9.8-27.52,20.64-24.71,27.64,3.56,8.89,27,8.33,53.88-.8-.35.36-.64.68-.92,1-15.68,18.83-21.3,37.42-12.57,41.64,7.06,3.36,21.34-3.72,34.86-16.43A76,76,0,0,0-270,477.27c-1,24.58,8.83,43.35,21.66,41.9,11.33-1.29,21.26-17.55,24.22-38a59.07,59.07,0,0,0,6.71,8.24c12.39,12.57,28.53,18.47,36,13.21,5.38-3.76,4.92-12.13-.15-21.17,14.49,3.84,27.94,2.89,31.87-2.67,2.67-3.82.17-8.94-5.8-13.79,13.51,2.1,25.54.22,28.27-4.91l.07-.11c9.46,7.53,19.76,10.62,25.69,6.93,3.94-2.46,5.18-7.5,3.91-13.57,6,9.89,14.11,15.41,21.25,13.18,7.32-2.24,11.49-12.18,11.16-24.54,2.85,6,7.14,9.47,12.06,8.95,9.17-1,17.24-15.68,18.33-33.1,1.27,1.43,2.65,2.79,4,4.2,1.63,1.54,3.32,2.94,5.06,4.33.31.26.56.49.87.76,1.75,1.39,3.48,2.68,5.22,3.83l.25.22c15.3,10.29,31.41,14,39.65,7.92,3.45-2.56,5-6.55,4.89-11.4,3.07,2.85,6.44,4.18,9.66,3.34A9,9,0,0,0,38.47,429c-2.34,10.64-.57,18.59,5.46,19.93,5.35,1.19,12.82-3.1,20-10.67-2.65,16.25,1.11,28.43,10,29.24,6,.47,13.19-4.38,19.55-12.48,1.34,3.41,3.59,5.48,6.67,5.77,2.54.21,5.39-.86,8.19-2.94-3.73,11.72-2.64,20.82,3.76,22.72s16.54-3.73,26.07-13.65c.41,7.16,3,12.13,7.33,12.91-11,16.81-13.95,31.19-5.87,35.89,6.79,4,19.88.12,34.38-9-3.27,14.2-.22,25.56,7.14,25.89,5.92.28,13-6.75,17.8-16.94.73,1.9,33.84-8.78,34.69-7.18,0,0,17.75,40.66,29.37,41.68,9.6.85,30.1-30.78,30.1-30.78,1.95-1,31.69,6,33.74,4.68-3.73,10.4-3.14,18.86,2.19,20.69,6.52,2.23,17.91-6.5,26.1-19.73,5.35,12.8,13.56,20.6,22.48,19.61,10.5-1.24,19.11-14.54,22.69-32.75,4.26.83,10.32-2.54,16.28-8.52.49,11.76,4.74,20.12,11.69,20.73s14.9-6.83,20.82-18.21c.77,2.77,2.35,4.7,4.73,5.37,2.8.83,6.44-.19,10.14-2.63-.77,9.14,1.55,15.78,7.15,17.44,8.17,2.42,20.86-6.75,31.1-21.56.31,8.91,3.39,15.21,8.85,16.05,6.24.94,13.94-5.25,20.09-15.19a4.72,4.72,0,0,0,1.51,2.87c2.18,1.84,6.1,1.92,10.93.52-3.87,4.05-5.64,8.06-4.66,11.44,2.94,10,28.41,11.34,56.86,3,2.26-.68,4.46-1.42,6.72-2.15-12.56,15.22-17,30.57-9.91,34.66,3.77,2.17,10.15.57,17.26-3.54-9.8,10.47-14,20.45-9.45,24.91s15.63,2.4,28.38-4c-5.76,4.8-8.58,9.5-7.12,13,2.2,5.2,13.45,6.14,27.41,2.87l-.12.2c-1.59,5.35,7.2,11.12,20.4,14-8.77,2.1-14.89,5.61-15.57,9.79-.95,6.13,9.88,11.58,25.18,13.36-11.31,6-18.14,13-16.48,18,2.4,7.12,20.78,7.63,41.06,1.12a99.05,99.05,0,0,0,12.15-4.7c-13.33,18.58-17.37,36-8.74,40.94,10,5.74,32.78-7,51-28.34,2.71-3.19,5.17-6.42,7.38-9.62,1.73,15.56,8.44,26.52,17.09,26.08,10.76-.52,20.33-18.41,21.43-39.94a9.93,9.93,0,0,1,0-1.22c15.95,17.14,35.62,25.72,45.49,19.33,7.74-5,7.39-17.88.18-32.21,13.67,14.62,29.32,21.82,39.36,16.83,12.33-6.18,11.9-28.58-.14-51.76,13.24,9.89,27.37,13.85,34,8.74s3.28-18.24-7.47-30.82c7.84,3.26,14.79,3.77,18.52.65,4.65-4,2.61-12.61-4.32-21.46,17.8,2,32.72-1,35.69-8,3.35-8-10.38-18.34-31.14-23.74C958.11,505.83,977.48,499.18,979.38,489.92Z"/>
            </g>
            <path class="cls-6" d="M17.45,357c.9-7.74-13.85-13.93-33.41-14.32,21-5.35,36.2-15.16,35.43-23.7-.9-9.78-22.59-14.05-48.37-9.61,0,0-.91.22-1.37.28.76-.62,1.51-1.2,2.28-1.82C-9.73,292.69,0,275.28-6.32,269c-5.08-5.08-18.8-1.54-33.5,7.82,22.93-21.53,34.25-44.52,25.31-53.13-9.51-9.2-38.56,1.6-65.2,24.11,6.47-12.8,7.08-24.5,1.34-26.51-5.16-1.83-13.68,4.66-20.46,15a113.91,113.91,0,0,0,1.21-13.37c.73-29.06-9.77-51.73-23.59-50.64-12.46,1-23.28,21.36-25.69,47-7.64-19-20.7-31.05-30.46-27.54-.37.12-.71.34-1.09.5,11.12-28.81,9.83-54.07-3.41-57.47-13.77-3.54-35.5,18.28-48.35,48.72a11.53,11.53,0,0,0-.48,1.17c-.07-2.29-.12-4.68-.3-7-2.44-34.91-17.88-61.21-34.53-58.69-12.7,2-22.35,20-25.33,43.79v-.25c-4.87-22.28-17.54-38-28.31-35.07-6.14,1.65-10.3,8.83-11.88,18.75-1.5-2.61-3.5-4.23-5.93-4.37-4.19-.24-8.71,3.93-12.26,10.48-2.61-9.76-7.95-16.23-13.23-15.19-2.81.55-5.17,3.24-6.79,7.21,2.71-20.8-2.26-37.09-12.38-37.9-7.77-.67-16.56,8.09-23.1,21.47-3.36-17.58-12.63-30-21.25-28-5.17,1.15-9,7.09-10.82,15.43-3.94-15-12.12-25-20.1-23.35s-13.21,14.6-12.92,30.57a65.53,65.53,0,0,0-7.72-9.54C-490.18,100-505.82,94-512.62,99.34c-4.89-11.11-12.26-17.8-18.88-16.08s-10.53,11-10.93,23.07c-3.49-6.86-8.28-10.89-12.71-9.79-4.18,1.08-6.92,6.57-7.63,14-3.91.62-8.74,4.87-13.09,11.16,2.2-12.17.11-21.21-6.13-22.29s-15.15,6.44-22.5,18.05c-5.73-4.75-22.8,2.87-38.28,17.1a103.14,103.14,0,0,0-9.84,10.38c3.7-16.14,1.24-28.72-6.51-29.63s-18.14,10.07-25.36,25.58c0-8.29-2.63-13.91-7.6-14.55-8.35-1.1-20.33,12.28-27.43,30.39-3.76-12.93-10.8-20.85-18.77-19.49-10.36,1.81-18.88,18.79-20.6,39.47-.77-3.82-2.58-6.3-5.32-6.62-5.1-.5-11.85,6.57-16.53,16.68-2.23-6.27-5.94-10-10.2-9.39-2.49.33-4.83,2.2-6.88,5,.44-9.9-2.24-16.75-8-17.85-10.29-1.89-26.47,15.21-36.09,38.24l-.1.23c2.16-23.77-3.86-41-16.25-41.76-16.28-1-37.47,27.06-47.38,62.65-.64,2.38-1.21,4.77-1.78,7.12-.09-.4-.11-.79-.21-1.14-6.55-29.54-23.79-49.44-38.55-44.52-14,4.69-20.73,30.34-15.62,58.35-.32-.12-.63-.3-1-.42-9.17-2.58-24.9,10.94-36.63,30.78,3-25.61-3.58-45.2-16.05-45-13.64.23-29.13,24.21-34.56,53.47a123.94,123.94,0,0,0-1.67,13.43c-4.62-9.78-11.85-15.53-17.45-13.19-6.24,2.62-8.07,14.38-4.29,26.67-22.12-20.14-49.16-28.25-60.73-18-10.81,9.57-4.34,31.63,14.23,51.2-12.78-8-25.94-10.26-32.09-4.65-7.72,7-1.63,23.67,13.59,37.13a23.22,23.22,0,0,0,1.89,1.6l-1.3-.09c-25.11-2-47.89,4.43-50.92,14.38-2.59,8.66,10.69,17.13,30.81,20.49-19.87,2.32-36.09,9.95-36.87,17.69-.67,6.72,10.47,11.32,26.31,11.75-9.76,7.17-15.43,14.76-13.26,19,1.68,3.3,7.78,3.68,15.76,1.74-14.63,10.1-23.41,21.44-20.11,27.07,3.16,5.47,16.83,3.68,32.42-3.71-20.5,19.63-31,40-23.47,47.09,6.18,5.81,22.59,1.21,40.65-10.37-12.51,12.13-18.66,23.77-14.44,29.33,5.52,7,25.87,1.68,47-11.91-.19.37-.34.75-.53,1.12-8.78,19.69-8.83,37.2-.06,39,7.07,1.5,17.71-7.66,26.2-21.56a94.37,94.37,0,0,0,1.78,9.65c5.69,21.71,19.1,36.09,30,32.13,9.52-3.43,14-19.75,11.13-38.31a60.69,60.69,0,0,0,8.07,5.81c14.13,8.44,29.77,10.26,35,4.05,3.71-4.34,1.1-11.57-5.71-18.4,13.75.27,25.26-3.36,27.18-9,1.31-3.9-2.18-7.89-8.68-10.89,12.36-1,22.37-5.09,23.47-10.13l0-.23c10.19,4.71,20,5.3,24.27.85,2.83-3,2.54-7.69-.19-12.74,7.83,7.41,16.43,10.53,22,7.16,5.87-3.52,6.86-13.05,3.38-23.81,4.07,4.66,8.7,6.83,12.87,5.31,7.77-2.79,11-17.31,7.33-32.76,1.52.94,3,1.89,4.66,2.8,20.13,11.16,42.1,13.11,49.12,4.35,2.36-2.93,2.62-6.76,1.25-11,3.43,1.87,6.77,2.34,9.37.94a7.36,7.36,0,0,0,2.59-2.44c.67,9.81,4.33,16.4,9.95,16.35,5-.08,10.41-5.41,14.69-13.5,1.94,14.73,8.41,24.66,16.4,23.49,5.46-.84,10.38-6.59,13.81-14.95,2,2.66,4.62,4,7.39,3.67,2.31-.36,4.49-1.89,6.38-4.33-.18,11.11,3.12,18.78,9.27,19.18s13.45-6.74,19.17-17.4c2.32,6.14,5.89,10,9.83,9.76-5.26,17-4,30.25,4.25,32.67,7,2,17.45-4.07,27.7-15.06.92,13.09,6.55,22.47,13.06,21.23,5.28-1.05,9.57-8.65,11.17-18.57,1.11,1.5,27.27-14.7,28.43-13.49,0,0,26.2,31.88,36.61,30.37,8.63-1.22,18.24-33.12,18.24-33.12,1.5-1.34,29.28-1.33,30.73-3-.5,9.87,2.21,17.15,7.31,17.65,6.34.61,14-9.36,17.68-22.68,8.1,10.11,17.28,15.28,24.81,12.51,8.91-3.29,12.93-16.72,11.26-33.44,3.92-.12,8.41-4.35,12-10.79,3.55,10.22,9.47,16.65,15.7,15.68s11.27-9,13.36-20.25c1.51,2.27,3.4,3.59,5.6,3.76,2.72.13,5.54-1.5,8.24-4.46,1.65,8.18,5.48,13.5,10.75,13.78,7.87.43,16.5-10.24,21.56-25.3,2.6,7.77,7,12.61,12,12.22,5.66-.47,10.75-7.48,13.51-17.5a4.64,4.64,0,0,0,2.15,2.22c2.33,1.16,5.76.41,9.63-1.82-2.27,4.36-2.85,8.26-1,11,5.2,8.16,27.81,4.07,50.53-9.19,1.82-1,3.56-2.16,5.3-3.29-7,16-6.86,30.33.47,32.42,3.82,1.13,9-1.53,14.12-6.68-5.83,11.23-6.84,20.81-1.71,23.8,4.92,2.89,14.34-1.15,23.77-9.42-3.76,5.41-5,10.14-2.88,12.89,3.34,4.12,13.36,2.58,24.75-3.15l0,.15c0,5,9.25,8.25,21.52,8-7.23,3.66-11.62,8.05-11.07,11.84.73,5.53,11.58,8.05,25.51,6.43-8.35,7.57-12.48,15.14-9.7,19.22,4,5.72,20.17,2.33,36.19-7.56a82.57,82.57,0,0,0,9.37-6.66c-6.79,19-5.74,35.14,3.17,37.65,10.17,3,26.83-12.93,37.13-35.42,1.46-3.34,2.82-6.65,3.88-9.94,5.58,13.27,14.38,21.48,21.85,19.3,9.24-2.73,12.93-20.38,8.21-39.38,0,0-.18-.75-.28-1.1,18.48,11.66,37.88,15.11,44.88,7.48,5.45-6.06,1.76-17.22-8.26-28.21,15.81,9.94,31.29,13,38.78,6.5,9.14-8,2.92-27.47-13.7-45.28,14.18,5.91,27.64,6.45,32,.55s-1.94-16.58-14.61-25.4c7.69,1.26,13.92.24,16.36-3.27,3-4.44-1-11.59-9.45-17.87C4.47,369.46,16.75,363.66,17.45,357Z"/>
          </g>
        </g>
      </g>
      <g class="cls-8">
        <g class="cls-9">
          <path class="cls-10" d="M-924.68-245.25a408.51,408.51,0,0,0,92.07-168.17c13.84-51.42,23.62-113.83,71.93-136.23,23.3-10.8,50.63-8.88,75.45-2.31,56.58,15,106.45,53.7,134.93,104.83,56.74,101.85,29.45,242.26,107.93,328.48,38.74,42.55,96.27,62.58,152.58,74.39S-175.34-27.09-121.6-6.51c94,36,166.25,116.55,208.86,207.75,25.2,53.95,41.23,112,69.49,164.45,86,159.59,291.62,243.39,464.68,189.41-91.26,23.29-186.75,34.07-280,20.66S157.17,523.56,90,457.54C4,373.05-42.87,246.24-150,190.92c-88.72-45.83-194.87-29.95-294.52-23.65s-213.71-4.79-275-83.6C-741.06,56-754.86,21.06-783.59.9c-47.87-33.59-113.35-12.32-167.41,10,0,0-281.37,115.39-380.83-162.59S-924.68-245.25-924.68-245.25Z"/>
        </g>
      </g>
      <g>
        <g>
          <ellipse class="cls-11" cx="109.02" cy="102.94" rx="33.29" ry="37.79"/>
          <ellipse class="cls-12" cx="117.7" cy="106.31" rx="18.97" ry="21.54"/>
          <ellipse class="cls-13" cx="118.29" cy="105.73" rx="6.84" ry="7.77"/>
          <ellipse class="cls-11" cx="125.13" cy="100.14" rx="5.56" ry="6.31"/>
        </g>
        <g>
          <ellipse class="cls-11" cx="173.06" cy="102.13" rx="30.74" ry="34.9"/>
          <ellipse class="cls-12" cx="181.07" cy="105.25" rx="17.52" ry="19.89"/>
          <ellipse class="cls-13" cx="181.61" cy="104.71" rx="6.32" ry="7.17"/>
          <ellipse class="cls-11" cx="187.93" cy="99.55" rx="5.14" ry="5.83"/>
        </g>
      </g>
      <path class="cls-14" d="M83.59,127.31c6.1,8.2,15.23,13.42,25.43,13.42,12.46,0,22.44-6.11,28.15-17.62C116.66,134.21,95.13,129.89,83.59,127.31Z"/>
      <path class="cls-14" d="M109,65.14c-18.39,0-33.29,16.92-33.29,37.8,0,9.29,1.92,14.18,1.92,14.18,11.54,2.58,42.51,8.65,63-2.45a41.58,41.58,0,0,0,1.64-11.73C142.31,82.06,127.41,65.14,109,65.14Z"/>
      <path class="cls-14" d="M149,123.78c5.64,8.07,14.34,13.25,24.11,13.25,8.76,0,16.67-4.17,22.27-10.85C176,131.39,157.52,126.69,149,123.78Z"/>
      <path class="cls-14" d="M201,116.73s2.82-5.28,2.82-14.6c0-19.28-13.76-34.9-30.74-34.9s-30.75,15.62-30.75,34.9c0,8.18,2.31,12.94,2.31,12.94C153.18,118,181.67,122,201,116.73Z"/>
    </g>
  </g>
</svg>
