<svg xmlns="http://www.w3.org/2000/svg" xmlns:xlink="http://www.w3.org/1999/xlink" width="279.53" height="218.34" viewBox="0 0 279.53 218.34">
  <defs>
    <style>
      .cls-1 {
        fill: none;
      }

      .cls-2 {
        isolation: isolate;
      }

      .cls-3 {
        clip-path: url(#clip-path);
      }

      .cls-4 {
        fill: url(#linear-gradient);
      }

      .cls-5 {
        mix-blend-mode: screen;
        opacity: 0.13;
        fill: url(#linear-gradient-2);
      }

      .cls-6 {
        clip-path: url(#clip-path-2);
      }

      .cls-7 {
        clip-path: url(#clip-path-3);
      }

      .cls-8 {
        opacity: 0.6;
        fill: url(#linear-gradient-3);
      }

      .cls-9 {
        fill: #f8f6f0;
      }

      .cls-10 {
        fill: #7e57a3;
      }

      .cls-11 {
        fill: #12170d;
      }

      .cls-12 {
        fill: #de195a;
      }
    </style>
    <clipPath id="clip-path">
      <rect class="cls-1" x="-1669.71" y="1120.94" width="1600" height="900"/>
    </clipPath>
    <linearGradient id="linear-gradient" x1="12708.59" y1="1316.62" x2="13740.18" y2="1316.62" gradientTransform="matrix(-1, 0, 0, 1, 12845.27, 0)" gradientUnits="userSpaceOnUse">
      <stop offset="0.03" stop-color="#452500"/>
      <stop offset="0.11" stop-color="#502e0a"/>
      <stop offset="0.25" stop-color="#6e4723"/>
      <stop offset="0.34" stop-color="#845a36"/>
      <stop offset="0.47" stop-color="#66401c"/>
      <stop offset="0.6" stop-color="#4e2c08"/>
      <stop offset="0.67" stop-color="#452500"/>
    </linearGradient>
    <linearGradient id="linear-gradient-2" x1="12708.59" y1="1225.93" x2="13740.18" y2="1225.93" gradientTransform="matrix(-1, 0, 0, 1, 12845.27, 0)" gradientUnits="userSpaceOnUse">
      <stop offset="0.21" stop-color="#cc925e"/>
      <stop offset="0.48" stop-color="#a56752"/>
      <stop offset="0.8" stop-color="#6d3134"/>
      <stop offset="1" stop-color="#292937"/>
    </linearGradient>
    <clipPath id="clip-path-2">
      <rect class="cls-1" x="-1509.71" y="90" width="1280" height="720"/>
    </clipPath>
    <clipPath id="clip-path-3">
      <rect class="cls-1" x="-1669.71" width="1600" height="900"/>
    </clipPath>
    <linearGradient id="linear-gradient-3" x1="-936.08" y1="-188.19" x2="410.17" y2="1017.01" gradientTransform="matrix(0.98, -0.19, 0.19, 0.98, -120.5, -97.9)" gradientUnits="userSpaceOnUse">
      <stop offset="0" stop-color="#2a52cb"/>
      <stop offset="0.05" stop-color="#284dc3"/>
      <stop offset="0.32" stop-color="#20379b"/>
      <stop offset="0.56" stop-color="#1b277f"/>
      <stop offset="0.78" stop-color="#171d6d"/>
      <stop offset="0.93" stop-color="#161a67"/>
    </linearGradient>
  </defs>
  <g class="cls-2">
    <g id="Layer_1" data-name="Layer 1">
      <g class="cls-3">
        <g>
          <path class="cls-4" d="M-926.2,825.9c100.23,19.15,72.42-54.11,58.78-87.08S-970,566.51-970,566.51s40.9-55.31,48.91-42.55,70.56,156.35,105.85,219.11,178,124.45,260.59,180.82,183.22,179.23,189.23,145.72,3.61-232.94,4-324.41c-.05-3.27-.14-6.51-.26-9.74,0-1-.09-2.05-.13-3.08q-.13-3.32-.32-6.61c-.07-1.16-.14-2.32-.22-3.47q-.19-3.15-.45-6.27c-.08-1.11-.17-2.22-.26-3.33-.2-2.34-.43-4.68-.66-7-.08-.78-.15-1.56-.23-2.34q-.5-4.62-1.08-9.18c-.09-.71-.19-1.4-.28-2.11-.31-2.34-.63-4.68-1-7-.15-1-.32-2.08-.48-3.11-.31-2-.63-4-1-6-.18-1.06-.36-2.13-.55-3.19-.36-2-.74-4.07-1.12-6.09-.18-.92-.35-1.85-.53-2.78q-.82-4.17-1.72-8.3c0-.12-.05-.24-.08-.36-.63-2.9-1.29-5.77-2-8.63l-.6-2.43c-.5-2.05-1-4.08-1.54-6.11-.24-.94-.49-1.88-.74-2.81q-.78-2.92-1.59-5.81l-.74-2.63c-.63-2.19-1.28-4.38-1.94-6.55-.16-.55-.33-1.11-.5-1.66q-1.28-4.17-2.63-8.3l-.24-.72c-.81-2.45-1.64-4.9-2.49-7.32-.23-.68-.47-1.35-.71-2q-1.08-3-2.19-6.06l-.78-2.1c-.79-2.1-1.59-4.2-2.4-6.28l-.59-1.53q-3.17-8-6.53-15.77c-.07-.16-.15-.32-.22-.49q-1.56-3.59-3.17-7.12c-.17-.39-.35-.77-.53-1.16q-1.53-3.37-3.11-6.69l-.39-.84a618,618,0,0,0-45.2-78.51c-6.53-9.74-13.15-19.13-19.76-28.18-18.43-25.26-36.76-47.95-52.91-68.55q-2.64-3.36-5.19-6.65l-1.43-1.83q-3.48-4.5-6.79-8.86c-72.17-95.2-169.19-176-169.19-176s6.81-68.06,32.07-47.33,125.09,186.67,131.1,65.42S-585.57-61.57-585.57-61.57s14.43-9.58,48.1-19.15c0,0,45.71,62.22,42.1,209s69.76,218.58,129.9,362.17q1.38,3.27,2.73,6.51c.35.85.7,1.7,1.06,2.55q3.8,9.09,7.39,17.78l.21.49.09.23q2.46,5.93,4.82,11.65c.11.26.23.53.33.79h0c12.15,29.36,22.64,54.79,31.9,75.54.17.39.34.77.52,1.16l1.13,2.53c.26.57.51,1.13.77,1.69s.58,1.29.87,1.92.59,1.29.89,1.93l.7,1.53c.33.7.66,1.4,1,2.1.19.41.38.81.58,1.22l1,2.22c.16.32.31.63.46,1,.38.8.77,1.6,1.15,2.39.06.14.13.27.2.4q4.33,8.94,8.32,16.12l.07.13c.43.76.85,1.51,1.27,2.24l.11.18q.63,1.11,1.26,2.16l.05.09a92.67,92.67,0,0,0,10,14.18l.06.07c.38.42.75.82,1.12,1.2l.1.1c.36.38.73.74,1.09,1.09l.08.07a20,20,0,0,0,6.67,4.41l.11,0a8.46,8.46,0,0,0,.91.27l.25.07c.28.06.56.12.83.16l.31,0c.26,0,.53.05.8.06h.33c.26,0,.52,0,.77,0l.35,0,.76-.12.33-.09c.26-.06.51-.13.77-.21a2.18,2.18,0,0,1,.23-.09,11.67,11.67,0,0,0,2.52-1.31l.47-.31.58-.46c.17-.14.35-.27.52-.42l.55-.51.55-.52.53-.56c.19-.2.37-.41.56-.63s.34-.39.51-.6.4-.49.59-.74.33-.42.49-.64.42-.58.62-.88l.45-.65c.24-.35.47-.73.7-1.1.13-.2.25-.38.37-.59q.54-.87,1.08-1.83c7.74-13.87,8.3-203.88,0-397.27-10.84-252.09-154-392.49-154-392.49a346.2,346.2,0,0,1,37.29-59c79.38,76.58,141.8,248.75,154,335,18,128.18,47.71,257.94,57.33,127.11q.22-3.06.43-6.29t.4-6.6c.13-2.25.26-4.55.37-6.89,1.73-34,2.38-77.95,2.38-125.15,0-151.36-6.79-336.36-6.79-336.36h0s51.72-3.19,56.53,35.1c3.35,26.68-.11,174,1.06,349.49.51,76.46,8.82,167.71,7.36,240.84-4.81,240.91,15.64,236.13,30.07,209C37.45,343.68,263.57,117.12,281.61,32.56c20.44-121.26,60.14-303.14,60.14-303.14s36.08-15.95,67.35,28.72C353.78-114.22,306.87,72.44,335.73,58.08,359.51,46.26,455.87-43.47,489.14-74.77l0,0c7.06-6.65,11.26-10.64,11.26-10.64h.06l.07-.07s45.7,3.19,15.23,58.5c-28.57,51.86-120.58,129.91-169,153.47-3.26,1.6-6.33,3-9.17,4-.6.23-1.19.48-1.79.72-.93.37-1.87.74-2.79,1.14-.66.28-1.31.58-2,.87-1,.47-2.06.94-3.08,1.44q-.76.36-1.53.75c-1.33.67-2.66,1.36-4,2.08l-.62.33q-2.34,1.31-4.64,2.71l-.82.51q-1.89,1.18-3.74,2.41l-1,.69q-2,1.35-3.93,2.76l-.42.31c-3.05,2.23-6,4.59-8.95,7.06l-.33.29c-12,10.16-23.06,22.26-34.12,35.58v0c-12,14.43-23.91,30.29-36.83,46.67C190.2,283.58,106.81,424,63.51,472.91S-21.48,692-31.11,721.8c-9.35,29,5.57,255.29,6.38,459.52.07,5.4.12,58.1.17,63.43,35.58,63.12,44.29,92.78,52.65,167.85l.14.56c-2.11,83.6-14.43,387.17-8,595.65s60.54,302.07,96.62,369.09,101,67,157.56,63.81,71,9.58,113.06,15.95,67.35,43.08,91.41,71.81c0,0-43.3-4.79-84.19-20.75s-109.46-11.17-120.28,4.79c8.42,12.76,38.49,47.86,78.18,54.24s93.81,73.39,103.44,119.67c-20.45-17.56-79.39-57.45-117.87-55.85s-56.53,0-113.06-46.27c-1.54-1.26-3-2.43-4.53-3.57-.69-.52-1.38-1-2.06-1.52l-1.58-1.14c-50.71-35.82-73.33,3.44-98.87,4.64-26.46,6.38-55.33-3.19-55.33,1.59a88.24,88.24,0,0,0,12,42.55C86,2647,107.61,2681,146.9,2718.25s85.65,60.71,101.69,142.61c-15.19-27.55-59.81-28.27-89-59.57-13.9-14.89-42.67-29.69-58.54-40.42-37-25-84.48-26.18-96.87-36.24-28.87-23.39-117.07-62.74-133.11-51.05,0,13.84,4.81,66,28.06,89.35S-20,2843.84-12,2906.6c-10.43-20.21-72.17-85.09-95.43-102.12s-68.81-13.89-96.87-39.42-66.3-82.37-125.08-104.24c-32.8-12.2-120.42-1-146.08,21.34s-105,35.11-129.1,56.38-72,44.59-106.5,48.85-73.77,33-107.44,50c19.29-52.58,75.37-81.91,93-98.92s26-22.56,52.12-44.68c57.58-48.86,137.77-62.68,185.88-124.37a37.87,37.87,0,0,0-8.37.63l0,0c-31.93,5.14-118.5,38.24-161.32,52.69l-.93.32-3.06,1-2.1.69-1.58.51-2.87.92-1,.32-2.77.84-.69.2c-.91.27-1.78.52-2.58.73l-.33.09c-.85.22-1.64.43-2.34.59-2.12.48-4.18.92-6.22,1.33l-2,.4c-1.34.26-2.66.52-4,.75l-2.37.42-3.33.56-2.54.4-2.8.4-2.82.39-1.3.16c-22.4,2.83-40.3,2.47-59.38,4.69l.17,0c-17.43,2-35.85,6.22-59.64,17.06,40.21-41.3,94-47.26,176.8-79.77,33.56-13.17,59.78-32.47,113-60.63,54.08-36.76,92.52-95.9,119.83-164.23h0c1-2.46,1.95-4.93,2.9-7.41.26-.68.52-1.37.79-2.05q4.45-11.74,8.52-23.8l.36-1.08c.9-2.67,1.77-5.34,2.64-8,.12-.37.23-.75.35-1.12q4-12.42,7.55-25.07c.1-.38.21-.75.32-1.13q4.89-17.45,9.08-35.21c0-.18.09-.36.13-.55q3.15-13.38,5.93-26.85a.5.5,0,0,0,0-.12q3.75-18.16,6.85-36.36l0-.16c7.27-42.51,12.07-84.71,15.21-124.18h0q1.34-16.76,2.29-32.8c0-.22,0-.45,0-.68q.7-11.85,1.24-23.23c0-.08,0-.16,0-.25q.18-3.7.33-7.37l0-.73q.46-10.77.78-21c0-.46,0-.92,0-1.39.07-2.17.13-4.34.19-6.48a2.26,2.26,0,0,0,0-.26c.12-4.34.22-8.58.31-12.75l0-1.12c0-1.9.07-3.78.1-5.64,0-.68,0-1.35,0-2q.15-8.52.22-16.47c0-.74,0-1.49,0-2.23q0-2.31,0-4.56c0-.81,0-1.6,0-2.4,0-2.74,0-5.41,0-8v-1.87c0-1.32,0-2.62,0-3.91,0-.94,0-1.86,0-2.78v-3.38c0-1.05,0-2.06,0-3.08,0-1.83,0-3.62,0-5.36,0-.86,0-1.73,0-2.56,0-1,0-2,0-2.9s0-1.93,0-2.87c0-1.15,0-2.29,0-3.4s0-2.46,0-3.63c0-3.84-.06-7.37-.09-10.55,0-1.89,0-3.87,0-5.89v-1.93c0-1.51,0-3.06,0-4.63v-1.95q0-3,0-6.22c0-1,0-1.94,0-2.92,0-1.28,0-2.57,0-3.89s0-2.47,0-3.73c0-.85,0-1.73,0-2.59,1-77.18,5.38-205.51.77-324.58q-.42-10.8-.94-21.48c0-.52,0-1-.07-1.54-.35-7-.72-13.88-1.14-20.73,0-.29,0-.57-.05-.86-.87-14.26-1.9-28.26-3.12-41.9-.08-.93-.17-1.84-.26-2.76q-.75-8.19-1.59-16.18c-.19-1.85-.39-3.67-.6-5.51q-.74-6.62-1.53-13.09c-.25-2-.51-4.06-.76-6.07-.56-4.24-1.14-8.41-1.74-12.55-.27-1.78-.51-3.6-.78-5.37-.88-5.77-1.8-11.43-2.78-16.94-.79-4.41-1.74-8.79-2.77-13.18-.21-.92-.42-1.83-.65-2.75q-1.56-6.36-3.43-12.67c-.24-.78-.5-1.57-.74-2.35q-1.75-5.74-3.78-11.44c-.24-.71-.47-1.42-.73-2.13-1.48-4.11-3.08-8.21-4.75-12.29-.43-1.07-.88-2.14-1.33-3.21-1.7-4-3.47-8.1-5.33-12.12-.29-.63-.61-1.26-.91-1.91q-2.51-5.3-5.19-10.55l-1.77-3.48q-3-5.64-6.07-11.23c-.7-1.24-1.41-2.48-2.12-3.72q-2.61-4.55-5.32-9c-.63-1.06-1.25-2.11-1.89-3.16-2.18-3.56-4.43-7.09-6.7-10.61-.94-1.45-1.87-2.89-2.83-4.33-54.17-82.06-132.25-152.36-177.93-195.81l-.39-.38-2.81-2.67-2.18-2.09-2-1.92c-1.32-1.28-2.6-2.52-3.85-3.75l-1.28-1.25c-1-1-2-1.93-2.91-2.87l-1.08-1.07c-1.22-1.23-2.41-2.43-3.54-3.59l-.63-.65c-.94-1-1.85-1.91-2.72-2.83-.28-.3-.57-.6-.84-.9-1-1.09-2-2.16-2.93-3.18C-669.36,934.52-821.71,878.16-942,855.82s-251-31.91-251-31.91v-3.34S-1026.43,806.75-926.2,825.9Z"/>
          <path class="cls-5" d="M67.88,2425.21c-36.08-67-90.21-160.62-96.62-369.09s5.91-512,8-595.65l-.14-.56c-.4-79.9-17.07-152-52.65-215.16q-.08-8-.17-16.12c-.82-204.23-15.74-430.54-6.38-459.52,9.62-29.78,51.32-200,94.62-248.89S141.25,330.89,178.13,284.09C191,267.71,203,251.85,215,237.42v0c11-13.32,22.16-25.42,34.11-35.58l.34-.29q4.38-3.7,8.94-7.06l.43-.31q1.94-1.41,3.93-2.76l1-.68c1.24-.83,2.49-1.63,3.75-2.42l.82-.51q2.29-1.41,4.63-2.71l.62-.33q2-1.08,4-2.08L279,182c1-.49,2-1,3.07-1.43.66-.3,1.31-.6,2-.88.92-.4,1.85-.76,2.78-1.14.6-.23,1.19-.49,1.8-.72,2.84-1.07,5.91-2.42,9.17-4,48.37-23.56,140.39-101.61,169-153.47C475.71,4.11,478.07-7.58,477-16.07c4.61-4.31,8.73-8.17,12.15-11.39l0,0c7.06-6.65,11.26-10.64,11.26-10.64h.06l.07-.07s45.7,3.19,15.23,58.5c-28.57,51.86-120.58,129.91-169,153.47-3.26,1.6-6.33,2.95-9.17,4-.6.23-1.19.49-1.79.72-.93.38-1.87.74-2.79,1.14-.66.28-1.31.58-2,.88-1,.46-2.06.94-3.08,1.43l-1.53.75c-1.33.67-2.66,1.36-4,2.08l-.62.33q-2.34,1.31-4.64,2.71l-.82.51c-1.26.79-2.51,1.59-3.74,2.42l-1,.68q-2,1.35-3.93,2.76l-.42.31c-3.05,2.23-6,4.59-8.95,7.06l-.33.29c-12,10.16-23.06,22.26-34.12,35.58v0c-12,14.43-23.91,30.29-36.83,46.67-36.88,46.8-120.27,187.2-163.57,236.13s-85,219.11-94.62,248.89c-9.35,29,5.57,255.29,6.38,459.52q.11,8.11.17,16.12C11,1307.87,27.7,1380,28.09,1459.91l.14.56c-2.11,83.61-14.43,387.17-8,595.65s60.54,302.08,96.62,369.09c25.1,46.6,64.17,60.78,104.65,64C165.91,2492.17,103.12,2490.65,67.88,2425.21Z"/>
        </g>
      </g>
      <g class="cls-6">
        <g class="cls-7">
          <path class="cls-8" d="M-924.68,6a408.51,408.51,0,0,0,92.07-168.17c13.84-51.42,23.62-113.82,71.93-136.22,23.3-10.8,50.63-8.89,75.45-2.32,56.58,15,106.45,53.71,134.93,104.83C-493.56-94-520.85,46.43-442.37,132.64c38.74,42.55,96.27,62.59,152.58,74.4s114.45,17.16,168.19,37.74c94,36,166.25,116.55,208.86,207.75,25.2,54,41.23,112,69.49,164.46,86,159.58,291.62,243.38,464.68,189.4-91.26,23.29-186.75,34.07-280,20.67S157.17,774.85,90,708.84C4,624.35-42.87,497.54-150,442.21c-88.72-45.82-194.87-29.95-294.52-23.64s-213.71-4.79-275-83.61c-21.55-27.7-35.35-62.61-64.08-82.77-47.87-33.58-113.35-12.31-167.41,9.95,0,0-281.37,115.39-380.83-162.59S-924.68,6-924.68,6Z"/>
        </g>
      </g>
      <ellipse class="cls-9" cx="109.02" cy="102.94" rx="33.29" ry="37.79"/>
      <ellipse class="cls-10" cx="117.7" cy="106.31" rx="18.97" ry="21.54"/>
      <ellipse class="cls-11" cx="118.29" cy="105.73" rx="6.84" ry="7.77"/>
      <ellipse class="cls-9" cx="125.13" cy="100.14" rx="5.56" ry="6.31"/>
      <ellipse class="cls-9" cx="173.06" cy="102.13" rx="30.74" ry="34.9"/>
      <ellipse class="cls-10" cx="181.07" cy="105.25" rx="17.52" ry="19.89"/>
      <ellipse class="cls-11" cx="181.61" cy="104.71" rx="6.32" ry="7.17"/>
      <ellipse class="cls-9" cx="187.93" cy="99.55" rx="5.14" ry="5.83"/>
      <ellipse class="cls-12" cx="173.06" cy="102.13" rx="30.74" ry="34.9"/>
      <ellipse class="cls-12" cx="109.02" cy="102.94" rx="33.29" ry="37.79"/>
    </g>
  </g>
</svg>
