<svg xmlns="http://www.w3.org/2000/svg" viewBox="0 0 181.82 121.41"><defs><style>.cls-1{isolation:isolate;}.cls-2,.cls-7{fill:#bc7b18;}.cls-3{fill:#bc6b00;}.cls-25,.cls-27,.cls-4{fill:#fedcae;}.cls-26,.cls-27,.cls-31,.cls-35,.cls-4,.cls-5{stroke:#894f1a;}.cls-12,.cls-24,.cls-26,.cls-27,.cls-29,.cls-31,.cls-35,.cls-36,.cls-4,.cls-5,.cls-7,.cls-9{stroke-miterlimit:10;}.cls-12,.cls-24,.cls-26,.cls-30,.cls-31,.cls-35,.cls-36,.cls-5,.cls-9{fill:none;}.cls-6{fill:#ffbe72;}.cls-29,.cls-7{stroke:#bc7b18;}.cls-8{fill:#e07e1e;}.cls-12,.cls-9{stroke:#231f20;}.cls-10{fill:#f3d9ab;}.cls-11{fill:#f3daac;}.cls-12,.cls-35{stroke-width:0.25px;}.cls-13{fill:#f6f6f6;}.cls-14{fill:#3d3123;}.cls-15{fill:#fff;}.cls-16{fill:#894f1a;}.cls-17{fill:#231f20;}.cls-18{fill:#af6104;}.cls-19{fill:#874207;}.cls-20{fill:#9e4808;}.cls-21{fill:#f76f6f;}.cls-22,.cls-23{fill:#f2dcad;}.cls-22{mix-blend-mode:screen;opacity:0.2;}.cls-24{stroke:#800001;}.cls-26,.cls-27{stroke-width:0.5px;}.cls-28{fill:#911919;}.cls-29{fill:#cc821f;}.cls-31{stroke-width:0.75px;}.cls-32{fill:#7f0000;}.cls-33{fill:#ce4545;}.cls-34{fill:#590000;}.cls-36{stroke:#512e11;}</style></defs><g class="cls-1"><g id="Layer_1" data-name="Layer 1"><path class="cls-2" d="M107.62,63.64h0a20.55,20.55,0,0,0,2.93,10.71A14.65,14.65,0,0,0,111.71,76a18.79,18.79,0,0,0,3.85,3.63l.72.53a15.65,15.65,0,0,0,6.2-1.19A12.09,12.09,0,0,0,130,68.19c.14-2.94.25-5.65,2.23-8.16a10.21,10.21,0,0,1,.8-.9,10.89,10.89,0,0,1,2.64-1.92c-.48.47-4,4-3.38,8.91.55,4.57,4.2,7,5.36,7.78a16.38,16.38,0,0,0,16.57.33c7.94-4.72,10.64-18.24,6.21-28.89a24.36,24.36,0,0,0-2.15-4.07,26.1,26.1,0,0,0-26-11C122.42,32.13,116.76,40,116,41.08c-5.73,8-4.21,15.51-7.33,21A10.93,10.93,0,0,1,107.62,63.64Z"/><path class="cls-3" d="M101.13,76.85A24.72,24.72,0,0,0,122.48,79,18.83,18.83,0,0,1,106.54,60.5a10.85,10.85,0,0,1-1.84,1.8,29.28,29.28,0,0,1-1.54,10.2A24,24,0,0,1,101.13,76.85Z"/><path class="cls-4" d="M109.18,62.55c.48.29,1.88-1.28,2.35-1.8,3.62-4,7-13.57,10.68-17.93,5.93-7.15,17.31-6.39,19.35-6.25a28.48,28.48,0,0,1,18.81,9.23,25,25,0,0,0-27.83-15.08c-9.78,1.87-15.37,9.78-16.12,10.83C110.76,49.54,112.27,57.05,109.18,62.55Z"/><path class="cls-5" d="M109.18,62.55c.48.29,1.88-1.28,2.35-1.8,3.62-4,7-13.57,10.68-17.93,5.93-7.15,17.31-6.39,19.35-6.25a28.48,28.48,0,0,1,18.81,9.23"/><path class="cls-6" d="M24.42,62.44c.47.81,1.06,1.7,1.77,2.77,1.47.37,7.12,1.43,8-1.84h0c-2.69-1.47-1.52-3.74-.43-4.75l.11-.11a1.79,1.79,0,0,1,.83-.47c.41-.07.82-.11,1.23-.14a32.28,32.28,0,0,0-6.09-.26c.11.48.18,1.13-.19,1.41C29.1,59.5,25,60.21,24.42,62.44Z"/><path class="cls-2" d="M46.2,41.16c-.12-.26-3.38-8.13-7.31-6.94-1.57,1,1.14,6.47,1.14,6.47Z"/><path class="cls-7" d="M23.22,58.87a8.79,8.79,0,0,1,1.46.1,13.32,13.32,0,0,1,4.91-1.3l.42,0h0a30.87,30.87,0,0,1,6,.26h0a12.13,12.13,0,0,1,2,.05,6.72,6.72,0,0,1-3.53-5.26c-.33-3.94,3.1-7.3,6.92-7.45s7.49,3,7.47,6.88a7.2,7.2,0,0,1-6.81,6.8c.43.15.85.32,1.26.5l.16.07a28.42,28.42,0,0,1,6,3.75l.06,0c.72-1.06,1.46-2.12,2.18-3.13,5.37,1.26,5,6.65,4.95,6.88,5.5-1.45,2.81-8.91,2.63-9.16,1.26.42,2.14,2.76,2.46,2.76s.7-2.3-1.23-4.5a10.23,10.23,0,0,1-2-2h0a14.63,14.63,0,0,1-2.39-5.88,2.27,2.27,0,0,0-.63-1c-.82-.83-2.42-1.94-5.16-4.28a2.11,2.11,0,0,0-.23-.19,11.32,11.32,0,0,0-4-1.79,30,30,0,0,0-6.34-.94,14.61,14.61,0,0,0-3.42.05c-.06.19,1.35,1.65,1,2s-7,1.39-11,7C24.6,51.73,22.69,55.35,23.22,58.87Z"/><path class="cls-2" d="M43.45,73s0,0,0,0c.25-1,2.88-5.1,5.76-9.29,0,0,0,0,0,0l.15-.21.06-.09c.71-1,1.43-2.06,2.14-3a1.73,1.73,0,0,1,.53-.14c1.89-.21,3.53,2.67,4,3.51a4.87,4.87,0,0,1,.66,1.93,4.28,4.28,0,0,1-.08,1.22,3.69,3.69,0,0,0,2.06-.91c2.1-1.93,1-6.13.75-7a9.18,9.18,0,0,0-.29-.91s-.08-.2,0-.25.11,0,.15,0a5,5,0,0,1,1.23.94,4.16,4.16,0,0,1,1,1.65c0,.05,0,.36.1.37h0a4.85,4.85,0,0,0,.08-1.58,5,5,0,0,0-1.38-2.84,10.2,10.2,0,0,1-1.55-1.41c-.18-.2-.34-.4-.49-.6a.29.29,0,0,1,.1,0,.1.1,0,0,1,.07,0l.46.12a16.76,16.76,0,0,0,5.65.28,4,4,0,0,0,1-.26l.11,0c3.9-1.66,8.09-9.3,15-12.25l.31-.12c.27-.11.55-.22.84-.31A15.06,15.06,0,0,1,85.66,41h.07a28.61,28.61,0,0,1,5.6.57c11.31,2.84,15.6,9.72,15.6,9.72a19.58,19.58,0,0,1,2.84,8.67,25.54,25.54,0,0,1-1,10.74,28.07,28.07,0,0,1-6.57,10.56l-.16.15a15.61,15.61,0,0,1-4.69,3.17,3.61,3.61,0,0,0-1.56,1.07l.43.28c2.6,1.82,4.22,5.67,2.66,6.68a.94.94,0,0,1-.3.15,3,3,0,0,1-1.64,0c-4.65-1.14-19.41-.61-19.41-.61a5.68,5.68,0,0,1-1-.42c-2.38-1.33.76-3.15,3.86-4.43l.52-.22.24-.09c1.06-.42,2.06-.76,2.77-1l.13,0a25.36,25.36,0,0,1-8.66-2.47v.1c-.11,4.39,0,3.86-.12,4.43a5.57,5.57,0,0,1-3,4l-.16.07a5.3,5.3,0,0,1-1.14.26,49.12,49.12,0,0,1-6.74.09c-1.25,0-2.15-.1-2.3-.09s-.21-.29-.14-.83c.22-1.68,2.2-3.15,4.12-3.64a6.44,6.44,0,0,1,1.82-.2h0v0A14.39,14.39,0,0,0,67,83.12c-.3.06-.61.12-.91.16l-.15,0a17.05,17.05,0,0,1-2.43.2c-.29,0-.59,0-.88,0a20.49,20.49,0,0,1-3.92-.5h-.07c-5.42-1.23-9.39-4.33-10-5.66a4.45,4.45,0,0,0-.54-.82,17.55,17.55,0,0,0-4.65-3.37h0S43.43,73,43.45,73Z"/><path class="cls-8" d="M56.25,91.31a11.55,11.55,0,0,0,2,.07l3.63,0c.16-1,1.07-2.76,4.24-3.54v-4.6a20,20,0,0,1-7.3-.31,6.88,6.88,0,0,1,1.38,4.7C60.16,87.52,56.37,88,56.25,91.31Z"/><path class="cls-6" d="M31.39,69.53a4.83,4.83,0,0,0,1.12,2.34,5.34,5.34,0,0,0,2.56,1.53c1.27.45,3.2,1.12,4.4.11a2.45,2.45,0,0,0,.72-1.1h.07c0-1.63,0-7.26-.81-7.64,0,.3,0,.65,0,1,0,2.36-.42,6-3.26,5.62a4.63,4.63,0,0,1-2-.65,2.4,2.4,0,0,1-.7-.73h0a2,2,0,0,1-.2-.49h-.64Z"/><line class="cls-9" x1="58.6" y1="54.15" x2="58.59" y2="54.15"/><path class="cls-10" d="M24.23,62.86a5.39,5.39,0,0,1,1,.87,6,6,0,0,1,1,1.48c1.47.37,7.12,1.43,8-1.84h0c-2.69-1.47-1.52-3.74-.43-4.75l.11-.11a1.79,1.79,0,0,1,.83-.47c.41-.07.82-.11,1.23-.14a32.28,32.28,0,0,0-6.09-.26,20.85,20.85,0,0,0-2.6.39c-1.28.28-1.44.45-2.62.69-1.95.4-2.51.16-2.72.57C21.52,60.08,23.06,62,24.23,62.86Z"/><path class="cls-11" d="M25.91,65.17a1.94,1.94,0,0,0,.35.11c-.71-1.08-1.3-2-1.77-2.8a1.55,1.55,0,0,0,0,.21,1.32,1.32,0,0,0,0,.27h0A17.29,17.29,0,0,1,22.89,61,9.72,9.72,0,0,1,22,59.31a1,1,0,0,0-.45.15,1.3,1.3,0,0,0-.48.88A3.25,3.25,0,0,0,21,61.51a4.53,4.53,0,0,0,.77,2.05,3.78,3.78,0,0,0,1.82,1.55A3.6,3.6,0,0,0,25.91,65.17Z"/><path class="cls-12" d="M31.27,69.5a.13.13,0,0,0,0,.06"/><path class="cls-13" d="M26.26,65.21l.24.36a19.56,19.56,0,0,0,2.32,2.69,5.12,5.12,0,0,0,1.52,1.12q.54.06,1.14.09t1.32.06h.64c.9,0,1.74,0,2.52-.12a12.91,12.91,0,0,1-.68-3.55,13.9,13.9,0,0,1,.11-2.42v-.06a7.23,7.23,0,0,0-1-.07l0,0h0l0,.07C33.38,66.65,27.73,65.58,26.26,65.21Z"/><path class="cls-13" d="M35.12,53.07a4.84,4.84,0,0,0,4.7,4.2h.46A4.61,4.61,0,1,0,40,48.05h-.21A4.86,4.86,0,0,0,35.12,53.07Zm4.47,4a3.22,3.22,0,0,1-3.25-3,3.09,3.09,0,1,1,6.14-.24A3.23,3.23,0,0,1,39.59,57Z"/><path class="cls-14" d="M36.34,54a3.07,3.07,0,1,0,6.14-.24,3.09,3.09,0,1,0-6.14.24Zm.63-1.4a1,1,0,1,1,2-.08,1,1,0,1,1-2,.08Z"/><path class="cls-15" d="M37,52.63a1,1,0,1,0,2-.08,1,1,0,1,0-2,.08Z"/><path class="cls-16" d="M58.15,91.34a4.2,4.2,0,0,1,3-3.36,4.21,4.21,0,0,0-1.53,1.49,3.6,3.6,0,0,0-.43,2l-1-.08Z"/><path class="cls-17" d="M33.1,69.8a15.57,15.57,0,0,1-2.62-4.2,15.27,15.27,0,0,0,3.14,3.66l-.52.54Z"/><path class="cls-2" d="M53.87,48.71c0-.1,8.32-4.54.61-14.47-1.37-1.45-3.29-.26-4.27,2.09s.09,8.18.39,8.78Z"/><path class="cls-18" d="M52.93,34.24c6,7.73,2.27,12.14.34,13.75l.66.72c0-.1,8.32-4.54.61-14.47a1.77,1.77,0,0,0-2.17-.44A2,2,0,0,1,52.93,34.24Z"/><path class="cls-16" d="M43.46,72.42a15.31,15.31,0,0,0,8.73-1.63,15.83,15.83,0,0,1-8.77,2.63l0-1Z"/><path class="cls-19" d="M35.15,64.43c3.06.4,3.8,3.41,4,4.64a14.31,14.31,0,0,0,.35-4.25,13.48,13.48,0,0,0-4.24-1.45A10.5,10.5,0,0,0,35.15,64.43Z"/><path class="cls-20" d="M33.27,69.57a2.12,2.12,0,0,0,.91,1.25,4.68,4.68,0,0,0,2,.68c1.58.23,2.43-.77,2.89-2.11,0-.11.06-.21.1-.32-.2-1.23-.94-4.24-4-4.64,0,.14,0,.28,0,.43,0,.32,0,.65,0,1a13.15,13.15,0,0,0,.68,3.58C35,69.52,34.18,69.57,33.27,69.57Z"/><path class="cls-21" d="M33.22,69.53a2.1,2.1,0,0,0,.91,1.24,4.54,4.54,0,0,0,2,.69,2.3,2.3,0,0,0,2.47-1.19h0s-.94-3.41-3.29-2.74a14,14,0,0,0,.48,1.89C35,69.48,34.13,69.52,33.22,69.53Z"/><path class="cls-22" d="M58.6,54.19a.86.86,0,0,0,.07.1c.15.19.3.37.47.56a10.76,10.76,0,0,0,1.47,1.35c1.88,2.13,1.59,4.35,1.27,4.48h0c-.35-.15-1.21-2.34-2.43-2.75l0,0h0l-.07,0c.12.17,1.5,3.9.39,6.61a1,1,0,0,0,0,.1,1.38,1.38,0,0,0,.06.19S68,66,70,61.6c4.54-19.4,27.13-16.31,27.13-16.31a9.52,9.52,0,0,1,2.56.11c.27,0,.52.1.76.16l-.31-.25a25.06,25.06,0,0,0-2.54-1.41c-.55-.27-1-.45-1.92-.83a28.65,28.65,0,0,0-3.47-1.25c-.12,0-.57-.15-1.17-.28a21.26,21.26,0,0,0-4-.46c-.67,0-1.17,0-1.53,0a16.85,16.85,0,0,0-3.28.5l-.41.14-.54.2-.31.13c-7,2.94-11.13,10.58-15,12.24l-.12,0a3.9,3.9,0,0,1-1,.26,16.85,16.85,0,0,1-5.66-.28l-.46-.12Z"/><path class="cls-23" d="M65.87,79.81s-6.65.47-10.44-3-7.14-1.23-6.92-.38,2.56,5.14,10.29,6.48c5.77,1,7.37.3,8.38,0"/><path class="cls-23" d="M75.63,79.93s5.08,2.45,9.2,2.75c0-.05,2,2.55,2.61,3.12,0,0-3.15.08-3.47,0s-7.25-1.59-8.46-2.61C75.55,83.33,75.64,80.41,75.63,79.93Z"/><ellipse class="cls-24" cx="31.54" cy="60.18" rx="0.24" ry="0.31"/><ellipse class="cls-24" cx="31.14" cy="61.9" rx="0.24" ry="0.31" transform="translate(-12.07 7.73) rotate(-11.87)"/><ellipse class="cls-24" cx="32.01" cy="63.37" rx="0.24" ry="0.31" transform="translate(-12.35 7.94) rotate(-11.87)"/><path class="cls-25" d="M23.41,58.71h.06A8.92,8.92,0,0,0,26.63,57c2.36-2,2.26-4.19,5.14-8a21.06,21.06,0,0,1,3.72-4c5.09-3.67,13.12-.66,15.56.35l-.49-.78-.18-.8c-.06-.26-.11-.52-.16-.78a8,8,0,0,0-.74-.58,7.14,7.14,0,0,0-3-1.18h0s-.51-.09-.52-.11c-.58-.13-1.22-.24-1.94-.34-.55-.09-1.13-.17-1.72-.24s-1.34-.13-2-.17-1.09-.08-1.69-.09-1.25,0-1.81,0a10.13,10.13,0,0,1,.78,1.27.73.73,0,0,1,.08.35,1,1,0,0,1,0,.19c-.13.36-1.63.73-2,.83,0,0-.57.22-1.67.65a18,18,0,0,0-7.18,5.18l-.09.12C24.78,51.57,22.87,55.19,23.41,58.71Z"/><path class="cls-26" d="M23.52,58.71h.07A8.86,8.86,0,0,0,26.74,57c2.36-2,2.27-4.19,5.14-8a21,21,0,0,1,3.73-4c5.08-3.67,13.11-.66,15.56.35l-.5-.78-.18-.8c-.06-.26-.11-.52-.16-.78a7.76,7.76,0,0,0-.73-.58,7.19,7.19,0,0,0-3-1.18h0s-.5-.09-.52-.11c-.57-.13-1.21-.24-1.94-.34-.55-.09-1.12-.17-1.72-.24s-1.34-.13-2-.17-1.09-.08-1.69-.09-1.25,0-1.81,0a11.58,11.58,0,0,1,.78,1.27.7.7,0,0,1,.07.35.53.53,0,0,1,0,.19c-.12.36-1.63.73-2,.83l-1.66.65a18,18,0,0,0-7.19,5.18l-.08.12C24.89,51.57,23,55.19,23.52,58.71Z"/><path class="cls-3" d="M98.35,92.84a2.16,2.16,0,0,0,1-.73h0c.73-1.41-.77-4.57-3-6.16l-.42-.28a3.56,3.56,0,0,1,1.52-1,15.29,15.29,0,0,0,4.65-3.21l.1-.09c6-5.84,7.31-14.56,7.31-14.56a21.19,21.19,0,0,0-.85-11.5,17,17,0,0,0-8.52-9.65c7.13,14,3.34,27.69-4.18,31.4-6,3-13.51-.87-15.18-1.78a29.75,29.75,0,0,0,6.59,10.87c-3.15,2.17-4.57,2.74-5.27,2.79A8.21,8.21,0,0,0,81,89a8.63,8.63,0,0,0-1.46.43c-1,.41-2.92,1.55-2.78,2.23s2.39.62,5.57.84C82.28,92.54,96.4,93.55,98.35,92.84Z"/><ellipse class="cls-24" cx="22.66" cy="61.24" rx="0.14" ry="0.18"/><ellipse class="cls-24" cx="22.88" cy="62.26" rx="0.18" ry="0.14" transform="translate(-42.76 71.84) rotate(-78.13)"/><ellipse class="cls-24" cx="22.32" cy="63.09" rx="0.18" ry="0.14" transform="matrix(0.21, -0.98, 0.98, 0.21, -44.01, 71.94)"/><path class="cls-16" d="M51.72,60.17a6.44,6.44,0,0,1,5.41,6.93l-.52-.46c3.74-1,3.44-5.58,2.37-8.48l.54-.72c1.28.57,1.69,1.62,2.33,2.62l.16.23s0,0-.1,0a.39.39,0,0,0-.2,0c-.15.12-.05,0-.05,0,.47-2-1-3.87-2.37-5.19a6.67,6.67,0,0,1-1-1.36,8.23,8.23,0,0,0,1.17,1.19c1.69,1.25,3.18,3,3,5.27,0,.42-.37,1.13-.92.73-.75-.73-1.34-2.27-2.31-2.58l.53-.73A2.85,2.85,0,0,1,60,58c.86,2.54,1.29,5.72-.57,8a6.22,6.22,0,0,1-3.15,1.63,6.42,6.42,0,0,0-4.51-7.46Z"/><path class="cls-16" d="M52.62,48.14c-.11-.42.24-.59.51-.81a7,7,0,0,0,2.65-5.67A13.26,13.26,0,0,0,53.39,35c-.56-.76-1.52-.54-2.12.2-1.89,2.27-.88,5.54-.79,8.24-.26-2.89-1.76-8,1.81-9.32a1.58,1.58,0,0,1,1.48.63c3,4,4.24,10-.19,13.48l-.13.11a.5.5,0,0,0,.13-.49l-1,.28Z"/><path class="cls-16" d="M66.7,83.15a17,17,0,0,0-4-7.56,17.56,17.56,0,0,1,5,7.27l-1,.29Z"/><path class="cls-16" d="M71.56,71.68c4.72,2.38,4.68,9.43,3.73,13.93-.15-1.26-.18-2.52-.28-3.76-.36-3.54-.65-7.64-3.45-10.17Z"/><path class="cls-16" d="M83.21,62.66c-4.23,5.33-2.83,12.66.51,18,1.11,1.88,2.44,3.6,3.72,5.37-.79-.75-1.55-1.56-2.33-2.34-5.16-5.58-8.22-15.19-1.9-21.08Z"/><path class="cls-16" d="M141.36,70.76C161,69.65,157.5,42.45,139,43.39c-21.67,1.56-10.57,27.82-28,31,15.39-3.37,7.27-25.31,22.3-30.7,7.26-3.08,16.62-.46,20.34,6.72,4.88,9.82-1,20.6-12.24,20.39Z"/><path class="cls-16" d="M102.8,77.85c8.43,3.75,21.08,3.87,25.71-5.49a13.13,13.13,0,0,0,1.29-4.54c.13-1.65-.09-3.36.47-5a9.84,9.84,0,0,1,7.27-6.66c3.25-.64,7.41-.18,9.25,3,1.2,2.26,1,5.56-1.19,7.11-2.07,1.46-6.14.59-5.87-2.42.12-1.94,2.64-2.38,4-1.32-1.29-.91-3.64-.46-3.68,1.34-.13,2.7,3.52,3.22,5.28,1.94s1.93-4.39.84-6.27c-1.67-2.69-5.51-3.09-8.39-2.47a8.91,8.91,0,0,0-6.51,6.06c-.54,1.54-.31,3.16-.47,4.77a14.13,14.13,0,0,1-1.42,4.85c-4.84,9.71-18.06,9.54-26.53,5.09Z"/><path class="cls-16" d="M63.87,91.92c-.09.25,0,.08,0,0a2.75,2.75,0,0,1,1.62-2.2,7,7,0,0,1,2.65-.58,13.19,13.19,0,0,0-1.26.4c-1,.4-2.18,1.2-2,2.43,0,.08.06,0,0,.38l-.88-.48Z"/><path class="cls-16" d="M76.14,91.23a7.86,7.86,0,0,1,6.2-2.67,8.15,8.15,0,0,0-3.11,1.06A6.48,6.48,0,0,0,77,91.8l-.83-.57Z"/><path class="cls-18" d="M39,34.85c3.26-1,6,4.92,6.7,6.49l.45,0c-.12-.25-3.17-8.05-6.86-6.86A.85.85,0,0,0,39,34.85Z"/><path class="cls-27" d="M34.28,52.7a6.74,6.74,0,0,0,3.5,5.2l.06,0,0,0h0a17.55,17.55,0,0,1,4.12,1h.17a7.37,7.37,0,0,0,6.66-5.76l0-.16c0-.12,0-.23,0-.34s0-.34,0-.52,0-.38,0-.57,0-.35-.07-.52l0-.17a7.41,7.41,0,0,0-7.14-5.63h-.33C37.43,45.4,34,48.76,34.28,52.7Zm6,4.57h-.5a4.61,4.61,0,1,1,0-9.21H40A4.88,4.88,0,0,1,45,52.69,4.88,4.88,0,0,1,40.32,57.27Z"/><path class="cls-2" d="M34.18,63.43h0l0,0a9,9,0,0,1,1,.06h0a13.64,13.64,0,0,1,4.18,1.39c.82.39.83,6,.81,7.64l.44.07a21.15,21.15,0,0,0,2.95.32h.08a14.78,14.78,0,0,1,1.94-3.72l.15-.24c1-1.68,2.35-3.71,3.71-5.73,0,0,0,0,0,0a28.43,28.43,0,0,0-6.13-3.7l-.17-.07c-.43-.19-.88-.36-1.34-.53h0a17.34,17.34,0,0,0-4.1-.92h0a12.17,12.17,0,0,0-3.24.13,1.54,1.54,0,0,0-.74.42l-.12.1C32.65,59.65,31.48,61.94,34.18,63.43Z"/><path class="cls-28" d="M31.38,59.69c4.8-2.33,10.56-2.47,15.77-1.45a25.49,25.49,0,0,0-14.56,1.93c-.31.14-.68.38-1,.5l-.21-1Z"/><path class="cls-28" d="M31,61.43c4.12-2,9.21-2.11,13.72-1.19a21.9,21.9,0,0,0-13,1.92,2.13,2.13,0,0,1-.5.25l-.21-1Z"/><path class="cls-28" d="M31.93,62.88c3.54-1.71,8.09-1.82,12-1a19.16,19.16,0,0,0-11.36,1.74,2.2,2.2,0,0,1-.46.23l-.2-1Z"/><path class="cls-5" d="M66.13,83.28a20,20,0,0,1-3.62.17,20.48,20.48,0,0,1-3.81-.54"/><path class="cls-5" d="M104.41,78.6a25.73,25.73,0,0,0,3.82-6.85,26.37,26.37,0,0,0,1.68-10.39L109.73,59"/><path class="cls-5" d="M66.05,83.29V87.8h.12a13.5,13.5,0,0,1,1.64-.29h0v0A14.45,14.45,0,0,0,67.17,83l-.1,0-.48.09C66.3,83.2,66.05,83.29,66.05,83.29Z"/><path class="cls-29" d="M44.9,40.66c-.09-.18-2.4-5.77-5.19-4.92-1.11.7.81,4.59.81,4.59Z"/><path class="cls-30" d="M45.07,40.66c-.09-.18-2.4-5.77-5.19-4.92-1.11.7.81,4.59.81,4.59Z"/><path class="cls-5" d="M46.54,41.16a46.8,46.8,0,0,0-6.88-1"/><path class="cls-29" d="M53.15,46c0-.06,5.32-2.9.39-9.24-.87-.93-2.1-.17-2.73,1.33s.06,5.23.25,5.61Z"/><path class="cls-30" d="M53.17,46.2c0-.06,5.32-2.89.39-9.24-.87-.92-2.1-.16-2.73,1.34s.06,5.22.25,5.61Z"/><path class="cls-31" d="M21,60.28a1.3,1.3,0,0,1,.48-.88.92.92,0,0,1,.45-.15h0c0-.06,0-.11,0-.17a2.5,2.5,0,0,1,.71-.25,3.18,3.18,0,0,1,.43-.06h.1c-.51-3.51,1.38-7.11,3.29-9.74,4-5.56,10.7-6.63,11-7a.23.23,0,0,0,0-.19,3.81,3.81,0,0,0-.37-.72c-.32-.47-.73-1-.7-1.06a14.8,14.8,0,0,1,3.25-.06c-.64-1.44-2.12-5.09-.86-5.89a2.86,2.86,0,0,1,1.69,0c3,.69,5.34,5.9,5.76,6.84A11.47,11.47,0,0,1,50,42.7a28.4,28.4,0,0,1-.27-3,8.74,8.74,0,0,1,.4-3.39c.69-1.66,1.84-2.73,2.94-2.72a1.76,1.76,0,0,1,1.38.63c5.32,6.84,3,11.08,1.07,13.08a2.33,2.33,0,0,1,.63,1,14.63,14.63,0,0,0,2.39,5.88h0l0,0s0,0,0,0l.06,0,.46.12a16.66,16.66,0,0,0,5.63.28,4,4,0,0,0,1-.26l.11,0c3.89-1.66,8-9.3,15-12.25l.3-.12c.28-.11.56-.22.84-.31a14.61,14.61,0,0,1,3.62-.72h.07a28.46,28.46,0,0,1,5.58.57c12,3,16.16,10.74,16.16,10.74a19.13,19.13,0,0,1,2.13,6.79h0c0,.23.07.47.1.7C111.44,54.4,111,47.89,115.93,41c.75-1,6.42-9,16.31-10.82a26.1,26.1,0,0,1,26,11,25.12,25.12,0,0,1,2.15,4.07c4.43,10.65,1.73,24.17-6.21,28.89a16.38,16.38,0,0,1-16.57-.33,14.48,14.48,0,0,1-2.82-2.37A11,11,0,0,1,132.41,63a8.91,8.91,0,0,1,2.37-4.81c.06,0,.5-.37.47-.41a4.29,4.29,0,0,0-1,.53,7.38,7.38,0,0,0-2.2,2.28,9.57,9.57,0,0,0-1.26,3,13,13,0,0,0-.3,1.67,11.66,11.66,0,0,0-.05,1.86,13.25,13.25,0,0,1-1.27,5.14A14.12,14.12,0,0,1,126.72,76,14.55,14.55,0,0,1,120,79.87a18.46,18.46,0,0,1-5.28.52,27,27,0,0,1-4.06-.19,24.58,24.58,0,0,1-4.18-.94c-.73-.22-1.42-.46-2.06-.72l-.09.13a22.36,22.36,0,0,1-2.24,2.58l-.1.09a15.41,15.41,0,0,1-4.65,3.21,3.34,3.34,0,0,0-1.39.91l.24.16a8.28,8.28,0,0,1,3.08,4.49,2.69,2.69,0,0,1,0,1.93h0l-.18.2a1.18,1.18,0,0,1-.31.28,1.3,1.3,0,0,1-.26.14l-.25.11a8.09,8.09,0,0,1-4.56.3c-1.52-.19-.56.12-4.57,0-4.67-.18-9.52-.74-11.71-1L77,91.88l-.2-.08-.36-.18c-.93-.52-1-1.11-.6-1.71.55-1,2.54-2,4.53-2.88l.52-.21.23-.09c.95-.37,1.84-.68,2.52-.9h0a25.31,25.31,0,0,1-8.22-2.38c-.1,4.28,0,3.76-.11,4.33a6.69,6.69,0,0,1-.94,2.2,4.73,4.73,0,0,1-2.19,1.91L72,92a5.3,5.3,0,0,1-1.14.26,49.16,49.16,0,0,1-6.74.09c-1.25,0-2.15-.1-2.3-.09s-.22-.33-.14-.83v0l-3.54,0a11.55,11.55,0,0,1-2-.07,3.45,3.45,0,0,1,.14-.88c.62-2.43,3.48-2.92,3.79-2.92a7.13,7.13,0,0,0-.17-2A7.27,7.27,0,0,0,58.77,83l-.1,0H58.6a22.63,22.63,0,0,1-3-.9,15.11,15.11,0,0,1-4.19-2.11,8.77,8.77,0,0,1-2.88-2.65,3.93,3.93,0,0,0-.53-.82,17.87,17.87,0,0,0-4.65-3.37h0s0-.1,0-.16a0,0,0,0,1,0,0h0a23.61,23.61,0,0,1-2.75-.31l-.44-.07v0l0,0a9.64,9.64,0,0,1-.71,1.1c-1.2,1-3.12.34-4.39-.11a6.36,6.36,0,0,1-2-1,4.33,4.33,0,0,1-.67-.63,5,5,0,0,1-1.12-2.3l-1-.13a4.86,4.86,0,0,1-.56-.31,6.3,6.3,0,0,1-1.06-.87,19.83,19.83,0,0,1-2.31-2.69l-.2-.3h-.05v0l-.1,0-.14,0a4.39,4.39,0,0,1-2.3-.06,3.34,3.34,0,0,1-.38-.17,3.88,3.88,0,0,1-1.56-1.44,4.41,4.41,0,0,1-.77-2A3.25,3.25,0,0,1,21,60.28Z"/><path class="cls-32" d="M26.71,64.33c.49-.07,1-.91,1.87-1.92,1-1.17,1.87-1.48,2.36-2.15s-2.09-2.21-4.63-2.12S22.81,59.05,23,60,25.1,64.44,26.71,64.33Z"/><path class="cls-33" d="M23.7,59.32c1.83-1,4.46-.82,6.43-.27a7.57,7.57,0,0,0-3.82-.91c-2.4.1-3.5.91-3.32,1.84a9.61,9.61,0,0,0,.5.94C23.28,60.08,23.32,59.58,23.7,59.32Z"/><path class="cls-34" d="M30.11,59c.53,1-1.52,1.5-2.34,2.32-.63.62-.92,1.83-1.62,1.9-1,0-2-1.64-3.06-2.95.45,1.23,2.16,4.12,3.62,4,.49-.07,1-.91,1.87-1.92,1-1.17,1.87-1.48,2.36-2.15C31.18,59.91,30.81,59.45,30.11,59Z"/><path class="cls-35" d="M26.55,58.18h-.26a4.41,4.41,0,0,0-3.12,1,.85.85,0,0,0-.18.71c.18.89,2.08,4.41,3.63,4.41h.06c.28,0,.63-.48,1.08-1,.21-.28.46-.58.75-.91a10,10,0,0,1,1.56-1.41,4.06,4.06,0,0,0,.9-.83.26.26,0,0,0,0-.3C30.63,59.16,28.7,58.18,26.55,58.18Z"/><path class="cls-36" d="M21,61.45s0,0,0-.05A2.55,2.55,0,0,1,21,61s-1.47-1,.05-.49a2.34,2.34,0,0,1,0-.26,1.39,1.39,0,0,1,.49-.89,1,1,0,0,1,.45-.14h0A1.36,1.36,0,0,1,22,59a2.25,2.25,0,0,1,.71-.26,3.18,3.18,0,0,1,.43-.06h.1c-.51-3.53,1.39-7.16,3.3-9.82,4-5.59,10.72-6.67,11-7a.18.18,0,0,0,0-.19A3.81,3.81,0,0,0,37.2,41a5.53,5.53,0,0,1-.7-1.07,13.54,13.54,0,0,1,3.26-.06c-.64-1.45-2.13-5.14-.87-5.93a2.81,2.81,0,0,1,1.7,0c3,.69,5.35,5.95,5.77,6.89a14.16,14.16,0,0,1,2.22.81l.49.25a7.6,7.6,0,0,1,1,.64,26.37,26.37,0,0,1-.27-3.07A9.12,9.12,0,0,1,50.23,36c.7-1.66,1.85-2.75,3-2.74a1.7,1.7,0,0,1,1.14.42,2.07,2.07,0,0,1,.32.28c5.32,6.9,3,11.17,1.06,13.19a2.41,2.41,0,0,1,.64.95A14.65,14.65,0,0,0,58.69,54l0,0,.06,0,.46.13a16.72,16.72,0,0,0,5.64.28,4,4,0,0,0,1-.27l.11,0c3.89-1.68,8.07-9.38,15-12.34l.31-.13c.28-.11.56-.22.84-.31a15.11,15.11,0,0,1,3.62-.73h.07a29.39,29.39,0,0,1,5.59.56A27.77,27.77,0,0,1,106,49.66a14.53,14.53,0,0,1,1.15,1.46,9.42,9.42,0,0,1,.53.84A17.68,17.68,0,0,1,109,55.19a20.73,20.73,0,0,1,.82,3.46c0,.16,0,.32.07.48l.05-.17,0,.32c1.67-5.18,1.33-11.65,6.19-18.46.75-1.06,6.42-9,16.33-10.91a26.2,26.2,0,0,1,21,5.49,24.7,24.7,0,0,1,5.15,5.67,25.41,25.41,0,0,1,2.15,4.1c4.44,10.73,1.73,24.35-6.22,29.11-4.57,2.73-11.93,3.35-16.89,0A14.69,14.69,0,0,1,136,73.06c-.38-.32-5.29-3.73-3.06-13-3.31,3.9-1.48,7.42-3.46,12.19v0c-.09.19-.17.36-.26.53A11.86,11.86,0,0,1,122.92,79l-.24.12a14.78,14.78,0,0,1-2.42.89,14.15,14.15,0,0,1-2.61.45c-1,.1-1.89.13-2.74.14h-.72a24.09,24.09,0,0,1-3.22-.2,24.46,24.46,0,0,1-4-.91c-.78-.23-1.51-.49-2.2-.76l-.18.23a21,21,0,0,1-2.16,2.5l-.09.09a15.55,15.55,0,0,1-4.66,3.23,3.52,3.52,0,0,0-1.39.92.91.91,0,0,1,.16.11,8.59,8.59,0,0,1,2.78,3.56,3.69,3.69,0,0,1,.36,3h0a1.66,1.66,0,0,1-.23.26h0a1.64,1.64,0,0,1-.25.21,1.4,1.4,0,0,1-.3.15h0l-.19.1a2.75,2.75,0,0,1-.58.12,8.61,8.61,0,0,1-4.07.12h0l-1.37,0a28.29,28.29,0,0,1-3.2,0c-2.66-.1-5.37-.33-7.62-.55-2.61-.16-4.46-.16-4.78-.7a2.1,2.1,0,0,1-.26-.13,2.37,2.37,0,0,1-.42-.29,1,1,0,0,1-.25-1.5c.54-1,2.55-2.06,4.53-2.89L81,87l.23-.09c.91-.36,1.76-.66,2.44-.88a25.29,25.29,0,0,1-8.18-2.41c0,.2,0,.4,0,.6-.06,3.11,0,3.24-.06,3.55a2.16,2.16,0,0,1-.06.4,5.65,5.65,0,0,1-3,4l-.17.07a4.76,4.76,0,0,1-1.14.27,50.94,50.94,0,0,1-6.75.09c-1.25-.06-2.15-.11-2.3-.09s-.06,0-.08-.07-.21-.33-.14-.84v0l-3,0h-.87a8.35,8.35,0,0,1-1.62-.07,4.06,4.06,0,0,1,.13-.89c.62-2.45,3.49-2.94,3.8-2.94a7.21,7.21,0,0,0-1.28-4.53h-.06l-.07,0a23,23,0,0,1-3.1-1A15.15,15.15,0,0,1,51.57,80c-.4-.26-.75-.52-1.07-.77l0,0L50.15,79a5.65,5.65,0,0,1-1.47-1.63,4.52,4.52,0,0,0-.54-.83A8.81,8.81,0,0,0,47,75.39a26.69,26.69,0,0,0-3.44-2.21h0v0l-.06,0h0a.19.19,0,0,1,0-.15,25,25,0,0,1-2.67-.31l-.44-.07v0h-.07v0l0,0a2.35,2.35,0,0,1-.71,1.09,2.42,2.42,0,0,1-1.6.54,8.63,8.63,0,0,1-2.81-.64l-.46-.16,0,0a7.09,7.09,0,0,1-1-.46h0a5.59,5.59,0,0,1-.71-.52,4.62,4.62,0,0,1-.45-.44,5,5,0,0,1-1.11-2.32l-.93-.13H30.4a5.12,5.12,0,0,1-1.06-.7,7.29,7.29,0,0,1-.54-.49,20.57,20.57,0,0,1-2.31-2.71l-.2-.3h0l0,.06a1.43,1.43,0,0,1-.33-.1l-.15,0a3.53,3.53,0,0,1-2.18-.1,3,3,0,0,1-.83-.47,3,3,0,0,1-.26-.21l-.12-.12a5.16,5.16,0,0,1-1-1.35s-1.3-.77-.16-.37A2.92,2.92,0,0,1,21.1,62S19.65,61.07,21,61.45Z"/><path class="cls-28" d="M22.56,61.73a14.66,14.66,0,0,0-9-1.62,14.94,14.94,0,0,1,9,.57l.21.09-.06,0-.2,1Z"/><path class="cls-28" d="M22.78,62.74A12.8,12.8,0,0,0,15,61.27a12.92,12.92,0,0,1,8,.49l.06,0-.07,0-.2,1Z"/><path class="cls-28" d="M22.24,63.58a11.13,11.13,0,0,0-6.82-1.35,11.41,11.41,0,0,1,7,.37l.05,0-.07,0-.21,1Z"/></g></g></svg>