<svg id="Layer_1" data-name="Layer 1" xmlns="http://www.w3.org/2000/svg" viewBox="0 0 686.41 402.35"><defs><style>.cls-1{opacity:0.5;}.cls-2{fill:#ca30ce;}.cls-3{fill:#820443;}.cls-4{opacity:0.88;}.cls-5{fill:#680099;}.cls-6{fill:#ffd2d2;}.cls-7{fill:#840384;}</style></defs><path class="cls-1" d="M642,143.89a20.11,20.11,0,0,0,1.48-7.55,81.93,81.93,0,0,1,1.24-12.2,20,20,0,0,0-8-19.92,20,20,0,0,0-19-22.19c-.42,0-10.35-.45-20.33-.59H597a20,20,0,0,0-19.18,14.33c-.88,3-1.69,6-2.44,9a38.31,38.31,0,0,0-8.43-2.34l-.28,0a43.65,43.65,0,0,0-6.12-.44,41,41,0,0,0-6.2.47,20.07,20.07,0,0,0-7.67-1.53,19.86,19.86,0,0,0-6.86,1.22,31.91,31.91,0,0,1-5.38,1.27,19.88,19.88,0,0,0-16.24-2.46,53.29,53.29,0,0,1-12.19,1.16c-.88,0-1.47,0-1.56,0h-.74a20,20,0,0,0-8.75,2c-3.76-.67-8.5-1.54-13.12-2.4a19.91,19.91,0,0,0-18.3,6.07,39.77,39.77,0,0,0-21-6h-.38a39.25,39.25,0,0,0-12,2c-2.76-11.06-9-23-23-29.88a49.94,49.94,0,0,0-22.49-5.34,52.61,52.61,0,0,0-25.8,6.94c-18.54,10.31-29.19,31.86-29.36,58.6a50.62,50.62,0,0,0-8.85-16.42,41.12,41.12,0,0,0-32.27-15.46h-1c-1,0-2,.08-2.95.17A20,20,0,0,0,274,99.46a19,19,0,0,0-2.7.19l-2.46.34c-.09-.41-.16-.82-.27-1.23,0-.11-.05-.21-.08-.32-3.45-12.54-15.1-21-29-21a35,35,0,0,0-14.23,3.07,31.51,31.51,0,0,0-18.34,21l-.55-.09c.43-7.13,1-14,1.58-20.25a20,20,0,0,0-22.7-21.77c-12.56,1.78-24.2,3.95-24.69,4a20,20,0,0,0-13.84,10.06,56.72,56.72,0,0,0-25.66-6c-1.44,0-2.91.05-4.37.15-28.5,2-42.74,24.43-42.08,45.44a43.23,43.23,0,0,0,11.91,29.2C83.39,146.64,79.34,152.43,76,158a20,20,0,0,0,.71,21.6c12.17,17.67,30.87,27.4,52.66,27.4a55.56,55.56,0,0,0,7.55-.52,19.92,19.92,0,0,0-2.62,14.19c5.11,27,4.61,64.73,1,81.62a20,20,0,0,0,12.86,23.07c11.36,4,23.08,4.88,30.9,4.88a99.49,99.49,0,0,0,16.36-1.31,19.92,19.92,0,0,0,7.15,21.19c.41.3,10,7.58,20,14.84a20,20,0,0,0,28.35-5.05c11.85-17.67,20.1-45.48,28.08-72.38,3.89-13.09,7.56-25.46,11.21-35.05.12-.3.22-.61.32-.92,0,7,.12,14,.5,21a20,20,0,0,0-3.88,12.84C288.51,313.67,308.06,332,337,332l1.68,0c16.28-.43,30.66-7,40.48-18.54,9.1-10.68,13.88-25.21,13.46-40.92v-.12A53.36,53.36,0,0,0,384.5,245a20,20,0,0,0,1.75-8.78c-.15-5,1.57-15.3,2.84-21a19.92,19.92,0,0,0,0-8.76A45.6,45.6,0,0,0,413.38,197l.73-.61A44.46,44.46,0,0,0,442.82,207c1,0,1.93,0,2.93-.1a43.71,43.71,0,0,0,24.12-9,35.9,35.9,0,0,0,16.58,6.6,48.41,48.41,0,0,0,6.2.41,45.13,45.13,0,0,0,5.47-.34,20.1,20.1,0,0,0,8.66,2,20.37,20.37,0,0,0,4.24-.45,59.64,59.64,0,0,1,8.09-1.08,20,20,0,0,0,10.45,3h.59c1.33,0,2.78-.06,4.29-.06,7.24,0,13.87.45,13.93.46.46,0,.92.05,1.38.05a20,20,0,0,0,11.69-3.78c3.65.54,8.06,1.24,12.25,2a20.39,20.39,0,0,0,3.62.33A20,20,0,0,0,591,201.53a37.3,37.3,0,0,0,12.71,4.81,40.89,40.89,0,0,0,7.36.68c16.68,0,37.4-11.41,40.92-43.56A20,20,0,0,0,642,143.89Z"/><path class="cls-2" d="M634,134.89a20.11,20.11,0,0,0,1.48-7.55,81.93,81.93,0,0,1,1.24-12.2,20,20,0,0,0-8-19.92,20,20,0,0,0-19-22.19c-.42,0-10.35-.45-20.33-.59H589a20,20,0,0,0-19.18,14.33c-.88,3-1.69,6-2.44,9A38.31,38.31,0,0,0,559,93.44l-.28,0a43.65,43.65,0,0,0-6.12-.44,41,41,0,0,0-6.2.47,20.07,20.07,0,0,0-7.67-1.53,19.86,19.86,0,0,0-6.86,1.22,31.91,31.91,0,0,1-5.38,1.27,19.88,19.88,0,0,0-16.24-2.46,53.29,53.29,0,0,1-12.19,1.16c-.88,0-1.47,0-1.56,0h-.74a20,20,0,0,0-8.75,2c-3.76-.67-8.5-1.54-13.12-2.4a19.91,19.91,0,0,0-18.3,6.07,39.77,39.77,0,0,0-21-6h-.38a39.25,39.25,0,0,0-12,2c-2.76-11.06-9-23-23-29.88a49.94,49.94,0,0,0-22.49-5.34,52.61,52.61,0,0,0-25.8,6.94c-18.54,10.31-29.19,31.86-29.36,58.6a50.62,50.62,0,0,0-8.85-16.42A41.12,41.12,0,0,0,280.37,93.2h-1c-1,0-2,.08-2.95.17A20,20,0,0,0,266,90.46a19,19,0,0,0-2.7.19l-2.46.34c-.09-.41-.16-.82-.27-1.23,0-.11-.05-.21-.08-.32-3.45-12.54-15.1-21-29-21a35,35,0,0,0-14.23,3.07,31.51,31.51,0,0,0-18.34,21l-.55-.09c.43-7.13,1-14,1.58-20.25a20,20,0,0,0-22.7-21.77c-12.56,1.78-24.2,3.95-24.69,4a20,20,0,0,0-13.84,10.06,56.72,56.72,0,0,0-25.66-6c-1.44,0-2.91,0-4.37.15-28.5,2-42.74,24.43-42.08,45.44a43.23,43.23,0,0,0,11.91,29.2C75.39,137.64,71.34,143.43,68,149a20,20,0,0,0,.71,21.6C80.92,188.22,99.62,198,121.41,198a55.56,55.56,0,0,0,7.55-.52,19.92,19.92,0,0,0-2.62,14.19c5.11,27,4.61,64.73,1,81.62a20,20,0,0,0,12.86,23.07c11.36,4,23.08,4.88,30.9,4.88a99.49,99.49,0,0,0,16.36-1.31,19.92,19.92,0,0,0,7.15,21.19c.41.3,10,7.58,20,14.84a20,20,0,0,0,28.35-5.05c11.85-17.67,20.1-45.48,28.08-72.38,3.89-13.09,7.56-25.46,11.21-35.05.12-.3.22-.61.32-.92,0,7,.12,14,.5,21a20,20,0,0,0-3.88,12.84C280.51,304.67,300.06,323,329,323l1.68,0c16.28-.43,30.66-7,40.48-18.54,9.1-10.68,13.88-25.21,13.46-40.92v-.12A53.36,53.36,0,0,0,376.5,236a20,20,0,0,0,1.75-8.78c-.15-5,1.57-15.3,2.84-21a19.92,19.92,0,0,0,0-8.76A45.6,45.6,0,0,0,405.38,188l.73-.61A44.46,44.46,0,0,0,434.82,198c1,0,1.93,0,2.93-.1a43.71,43.71,0,0,0,24.12-9,35.9,35.9,0,0,0,16.58,6.6,48.41,48.41,0,0,0,6.2.41,45.13,45.13,0,0,0,5.47-.34,20.1,20.1,0,0,0,8.66,2,20.37,20.37,0,0,0,4.24-.45,59.64,59.64,0,0,1,8.09-1.08,20,20,0,0,0,10.45,3h.59c1.33,0,2.78-.06,4.29-.06,7.24,0,13.87.45,13.93.46.46,0,.92.05,1.38.05a20,20,0,0,0,11.69-3.78c3.65.54,8.06,1.24,12.25,2a20.39,20.39,0,0,0,3.62.33A20,20,0,0,0,583,192.53a37.3,37.3,0,0,0,12.71,4.81,40.89,40.89,0,0,0,7.36.68c16.68,0,37.4-11.41,40.92-43.56A20,20,0,0,0,634,134.89Z"/><path class="cls-3" d="M633.81,134.94c1.42-3.41,1.48-6.91,1.57-10.54s.75-7.1,1.32-10.59a19.87,19.87,0,0,0-8.14-18.42l-.1-.07,0-.12a19.79,19.79,0,0,0-19.21-21.94l-11-.3c-3.53,0-7.64-.39-11-.16-10,1-16.26,8.26-18.06,17.73l-1.43,5.33-.1.35a39.81,39.81,0,0,0-21.29-2.43,19.76,19.76,0,0,0-9.91-1.39c-3.4.41-6.61,2-10,2.39a19.61,19.61,0,0,0-9.46-3.17c-3.41-.37-6.6.87-9.93,1.33a69.46,69.46,0,0,1-10.19.54,19.9,19.9,0,0,0-9.64,2l-.12.06-.13,0c-3-.49-9.53-1.77-12.35-2.25a19.7,19.7,0,0,0-18.66,5.81l-.26.28-.32-.2a39.58,39.58,0,0,0-33.06-3.89l-.51.17-.14-.53c-4.78-20.5-21.19-33.31-42-34.67C360,59,340.46,70.06,331.23,87.39c-7.11,12.71-9.37,27.59-9.05,42.05l-1.36-4.14C315.23,107.41,299.4,93.65,280.17,94c-1.31,0-2.62.14-3.93.19a19.3,19.3,0,0,0-7.45-2.72,28.1,28.1,0,0,0-8.52.44l-.16-.72c-7.52-31.28-53.57-27.41-60.48,2.36l-.79-.14-.55-.09-.78-.13.06-.77,1-12.39c.18-3.28,1-8.89.54-12.18a19.2,19.2,0,0,0-18-16.65c-7.12.22-14.21,1.92-21.26,3-2.67.58-9.16,1.28-11.76,2.83a19.36,19.36,0,0,0-8.85,8.83l-.83-.42c-18.95-9.56-45.16-8.12-59.77,8.4-10.84,12-13.8,30.32-7.85,45.29A43.88,43.88,0,0,0,80,133.2l-.53.72c-2.72,3.73-5.36,7.51-7.85,11.38a60.32,60.32,0,0,0-3.47,5.85A18.84,18.84,0,0,0,67,164a19.31,19.31,0,0,0,2.7,5.93,66,66,0,0,0,8.88,10.35,60.31,60.31,0,0,0,36.68,16.24,62,62,0,0,0,16.09-.56L130,198.05a18.79,18.79,0,0,0-2.62,12.22c.41,2.65,1,5.34,1.31,8a279.35,279.35,0,0,1,2.68,43.44,225.31,225.31,0,0,1-1.54,24.48c-.26,2.41-.94,5.68-1.35,8.08a18.59,18.59,0,0,0,3.46,14.36c3.07,4.3,7.9,6.47,12.91,7.76a100.61,100.61,0,0,0,44.54,1.75c-2.94,8.18-.55,17.2,6.74,22.28L215.79,355a18.62,18.62,0,0,0,21.35-.25c18.06-15.34,32.66-82.08,41.89-107,1.35-3.49,3.8-10.85,5-14.51,0,10-.13,20.78.51,30.7a19.23,19.23,0,0,0-3.67,15l.14,1.6.07.8a62.39,62.39,0,0,0,1.47,7L283,290l.22.77a55.85,55.85,0,0,0,2.77,6.6,42.47,42.47,0,0,0,12,14.58c9.44,7.09,21.47,9.89,33.14,9.5,33.19-.91,54.27-28.32,52-60.51A51.38,51.38,0,0,0,375,236.11a19.12,19.12,0,0,0,1.91-7.26c-.06-7.45,1.26-14.74,2.74-22a19.53,19.53,0,0,0,.2-9.15l-.31-1.38,1.4-.12a44.24,44.24,0,0,0,24.4-9.76l.76-.64c15,13.87,39.88,14.77,55.73,1.76,8,6.22,18.52,8.26,28.43,7a19.17,19.17,0,0,0,10.16,2c3.62-.5,7.23-1.31,10.9-1.45a19.14,19.14,0,0,0,10.15,3c2.21-.05,8.48-.06,10.94.06,3.57,0,7.26.52,10.82.38A19.32,19.32,0,0,0,553,195l.26-.19.3.05,7.68,1.29,3.85.64a19.58,19.58,0,0,0,17.45-4.74l.36-.33.42.25c15.66,9.78,37.63,6.09,49.1-8.48a50,50,0,0,0,10-21.49,53.24,53.24,0,0,0,1.42-10.15,20.06,20.06,0,0,0-10-16.92Zm.29-.1a20.11,20.11,0,0,1,10.22,17,58.8,58.8,0,0,1-1,8.59l-.39,1.69a68.84,68.84,0,0,1-2.32,8.33c-3.4,9.21-9.51,17.6-18,22.66a39.36,39.36,0,0,1-40,0l.77-.09a20.75,20.75,0,0,1-6.75,4.27,21.08,21.08,0,0,1-11.84.94L561,197.6l-7.67-1.23.56-.14a20.93,20.93,0,0,1-10.51,3.89c-3.63.18-7.38-.31-11-.32-3-.11-7.8,0-10.9,0a20.82,20.82,0,0,1-10.83-3.07l.53.13c-3.59.16-7,1-10.58,1.49a21,21,0,0,1-10.89-2l.52.09c-10,1.28-20.72-.67-29-6.77l1.25,0a43.56,43.56,0,0,1-13.6,7.19,45.72,45.72,0,0,1-43.57-8.61l1.52,0a43.66,43.66,0,0,1-12.05,7.14,49.66,49.66,0,0,1-13.62,3.24l1.09-1.51c1.64,6.65-1.18,13.19-1.85,19.77a74.44,74.44,0,0,0-.9,9.54,22.21,22.21,0,0,1-1.84,10.06l-.1-1.24a53.94,53.94,0,0,1,8.2,25.4c1.3,17.84-4.43,36.62-17.75,49-17.13,16.18-45.55,19.32-66.14,8.24a52.71,52.71,0,0,1-5.73-3.65,48.09,48.09,0,0,1-7.32-7.08,50.79,50.79,0,0,1-4.79-7c-.75-1.49-1.56-3.07-2.2-4.59l-1.2-3.17-.3-.79c-.1-.3-.56-2.06-.67-2.44a53.17,53.17,0,0,1-1.63-8.28c-.17-1.68-.32-3.36-.42-5.06a21.46,21.46,0,0,1,4.19-13.23l-.29,1c-.39-7-.52-14.07-.5-21.1L284,243c-5.15,13.38-10.51,33-14.76,46.8-6.72,21.45-13,43.8-25.64,62.76-6.55,9.14-20.26,11.43-29.41,4.85l-19.76-14.69a23,23,0,0,1-4.68-4.51,21.35,21.35,0,0,1-3.61-18.67l1.57,1.75a103.75,103.75,0,0,1-21.91,1.17c-10-.65-20.4-2-29.54-6.48a21.41,21.41,0,0,1-10.32-22.13c3.37-17.66,3.33-35.82,2.48-53.73-.41-7.19-1.07-14.36-2.11-21.46-.35-2.69-.91-5.37-1.3-8a21.12,21.12,0,0,1,3-13.77l1.17,1.8a55.64,55.64,0,0,1-7.07.52,63.92,63.92,0,0,1-54.25-28,21.2,21.2,0,0,1-1.66-20.95c3.31-6.22,7.49-11.86,11.57-17.57l.08,1.38a45.55,45.55,0,0,1-9-14.16C62.54,104.11,65.66,85,77.06,72.42c15.31-17.21,42.4-18.74,62.15-8.75l-1.27.39a21,21,0,0,1,9.27-8.8c3.15-1.73,8.73-2.26,12.26-3,6.16-1,12.22-2.09,18.44-2.83,14-1.55,25,10.87,22.84,24.52-.31,3.71-1.13,14.6-1.45,18.51l-.72-.91.55.1-1,.64a31.7,31.7,0,0,1,11.8-17.46c17.84-13.65,46.56-7.44,51.71,16l-.88-.62a37.52,37.52,0,0,1,4.07-.45,20.18,20.18,0,0,1,12,3l-.47-.11a44.74,44.74,0,0,1,7.59,0c12.72.9,24.48,8.22,31.57,18.72a52.08,52.08,0,0,1,6.63,13.54l-1.37.22c.09-19.67,6.33-40.71,21.9-53.69C369.86,48.48,414.31,58,422.61,94.64l-.65-.36a40.53,40.53,0,0,1,33.86,4.07l-.58.07a20.51,20.51,0,0,1,19.5-6l4.11.76,8.22,1.51-.25,0a20.6,20.6,0,0,1,10-2,68.85,68.85,0,0,0,10-.51c3.36-.47,6.63-1.69,10.09-1.31a20.43,20.43,0,0,1,9.69,3.23l-.25,0c3.43-.38,6.49-2,9.92-2.34a19.55,19.55,0,0,1,10,1.4,40.51,40.51,0,0,1,21.21,2.4l-.42.21c.72-2.65,2.08-8,3-10.66a20.39,20.39,0,0,1,17-12.78c4.43-.24,6.94.15,11.07.18l11,.33a20.22,20.22,0,0,1,19.59,22.47l-.08-.19a20.28,20.28,0,0,1,8.25,18.81c-.58,3.52-1.11,7-1.34,10.56s-.09,7.22-1.61,10.42Z"/><g class="cls-4"><path class="cls-5" d="M129.08,182.83c-14.42,0-27.26-5.77-36.2-18.75a232.27,232.27,0,0,1,14.42-20.62c6.64,12.83,22.5,18.89,27.84,12.83,4.32-4.76,0-12.4-13.85-18.75-13.12-6-26.53-13.12-27-29.13-.29-9.23,5.19-23.65,23.5-25s31.58,9.52,38.36,23.8a149.29,149.29,0,0,0-20.33,12.55C133.7,113.6,128.22,109,123.17,109c-4,0-6.06,2.88-5.63,6.2.58,6.2,6.64,8.37,17,12.26,15.43,5.48,24.37,15.14,24.66,27.11C159.51,173.6,143.65,182.83,129.08,182.83Z"/><path class="cls-5" d="M199,186.14c-1.3-13.26-6.78-25.38-14-29.27.29,8.94.86,17.16,1.58,24.08-10.09,0-22.35,2.45-22.35,2.45,4-28.26,3.75-75.56-.29-104.41,0,0,11.54-2.16,23.8-3.89-1.88,19-3,44.13-2.89,67.06,7.07-3.17,12.41-12.4,13.56-26,0,0,13.85,3,22.93,2.31-2.16,13.7-9.52,25.67-21.92,32.3,10.53,4.33,19.9,14.71,22.64,28.56A80.17,80.17,0,0,0,199,186.14Z"/><path class="cls-5" d="M241.27,112.88c-6.64,2.17-13.7,0-15.15-5.48-1.44-5,1.16-10.24,6.93-12.69,6.63-3,14.27-.86,15.86,4.91C250.21,104.66,248.48,110.43,241.27,112.88Zm-12.69,70.38c2.88-18.17,1.73-45-.87-62.73a145.73,145.73,0,0,0,20.48-3.18c-1.16,16.16.14,47.59,2.16,63C250.35,180.37,239.68,181.53,228.58,183.26Z"/><path class="cls-5" d="M287.12,180.66A20.78,20.78,0,0,1,271.4,174c.58,17,2,34.18,4.18,47.3-10.09-3.46-22.35-3.46-22.35-3.46,3.32-26.25,4.18-71.39,2.31-99.65,8.65-1.59,18.17-2.89,18.17-2.89-.58,2.46-.87,5.49-1.3,8.8a23.24,23.24,0,0,1,15.14-6c14-.29,23.51,12,24.52,28.55C312.94,162.06,305.58,180.52,287.12,180.66Zm-8.8-46.15c-6.05,2.31-7.64,11.4-5.19,18.61,2.31,6.63,8.94,9.37,14.14,6.2,4.61-2.74,5.33-11.11,3.31-17.16C288.71,136.68,283.66,132.5,278.32,134.51Z"/><path class="cls-5" d="M400.61,177.2c-8.8,7.07-22.21,6.35-29.86,2.31-10.52-5.62-19.46-16.44-21.34-42.26-2-26.67,7.93-42.39,18.89-48.45,9.38-5.34,20.05-5.91,29.57-1.15,11.68,5.76,14.13,18,14.13,33.89a115.51,115.51,0,0,0-23.08,2.88c-.57-10.38-3.17-15.86-7.78-15.57s-12.26,8.94-12,27.11c.29,19.32,6.34,25.52,10.38,26.53,5.19,1.16,9.95-3.89,9.95-11.82a147,147,0,0,1,24.23-1.59C414.16,161.34,409.4,170.28,400.61,177.2Z"/><path class="cls-5" d="M444,182.83c-8.51.57-22.07-3.61-25.67-21.06-4.18-20,5.62-44,23.65-44.13,13-.14,24.23,12.55,25.38,32.45C468.38,167.4,460.31,181.67,444,182.83ZM441.7,139c-6.2.57-9.95,10.67-8.36,19.75,1.15,7.65,5.19,10.82,9.08,10.39,5.77-.58,8.8-8.08,8.22-15.72C449.92,144.32,446,138.7,441.7,139Z"/><path class="cls-5" d="M506.45,182.39c.14-2.16.29-4.47.29-6.63a23.26,23.26,0,0,1-18,4.76c-17.6-2.31-21.92-29.28-10.82-63.31,10.1,1.87,20.63,3.75,20.63,3.75-7.07,20.19-7.07,41.53-.15,42.69,3,.57,5.91-.58,8.37-3.75-.44-14.43-1.74-29.42-3.32-42,0,0,11.68.43,19.9-1.87-2.16,21.77-1.88,45.13,1,64.6A90.77,90.77,0,0,0,506.45,182.39Z"/><path class="cls-5" d="M555.47,179.51c7.07-20.19,5.2-42.54-.86-44.27-2.89-.87-5.63.29-8.08,3.6.58,16.44,1.73,34,2.89,45.43,0,0-10.39-.72-20.19-.43a378,378,0,0,0-.58-63.89s10.24-.43,17.74-3.17v6.34a20.85,20.85,0,0,1,17.16-5c17.45,2.74,21.78,27.54,13.41,64.75C566.72,181,555.47,179.51,555.47,179.51Z"/><path class="cls-5" d="M607,182.54c-16.73-3-19.76-26.83-17-51.92-3.31.15-5.33.29-5.33.29.29-6.49,1.15-12.55,1.15-12.55l6.06-.28a192.37,192.37,0,0,1,4.9-20.77c9.81.14,19.76.58,19.76.58a121.79,121.79,0,0,0-6.06,19.18l14.28-.73a102,102,0,0,0-1.59,15.87,145.44,145.44,0,0,0-15.57-1.59c-3,18-2.17,32.16,1,33.31s4.9-5.76,4.76-14.13c9.66,3.32,18.46,7.36,18.46,7.36C629.59,176.91,618.78,184.7,607,182.54Z"/><path class="cls-5" d="M198.51,303.49c-11.83,3.61-30.58,3.61-44-1.15,4.33-20,4.62-60.57-.86-89.56,23.07-6.34,52.78-5.19,56.38,18.75,1.73,11.39-4.76,20.62-14.27,25.09,9.8,1.73,17.59,6.35,19.9,18.17C218.55,289.93,210.19,299.89,198.51,303.49Zm-24.95-70.81c.86,5.92,1.44,12.69,1.87,19.47,8.08-1.3,14.28-4.76,14.71-10.67C190.57,234.27,184.23,230.23,173.56,232.68Zm2.45,34c.29,7.35.29,14.27,0,19.61,13.41,1.3,19.47-3.75,18.6-10.82C193.89,269.46,187.4,266,176,266.72Z"/><path class="cls-5" d="M234,344.59C224,337.38,214.36,330,214.36,330c7.94-8.66,15-20.19,20.63-33-14-27.4-23.08-51.19-23.08-51.19a198.94,198.94,0,0,1,22.36-2.31s2.59,17.16,8.65,32.16a180.44,180.44,0,0,0,7.64-37.93s11,1.87,20.62,3.46C259.94,270.75,249.55,321.37,234,344.59Z"/><path class="cls-5" d="M337.8,307.82c-18.75.43-30.14-9.52-31-27.55a174.47,174.47,0,0,1,24.38-7.5c-1.3,17.16,20.76,14.86,18.6-3.6-1.88-17.45-27-9.95-39.08-1.59-1-17.88-.29-36.77.57-53.07,16.88-4.76,41.68-6.92,58-7.79,0,0-3.61,16.16-3.32,26-10.53-2.31-27-2.31-37.64.29-.86,6.78-1,12.26-1,12.26,26.54-12.12,44.27,1.3,45,23.65C372.84,290.66,360,307.24,337.8,307.82Z"/></g><path class="cls-6" d="M121.41,178c-14.42,0-27.25-5.77-36.19-18.74a229.21,229.21,0,0,1,14.42-20.63c6.63,12.84,22.5,18.9,27.83,12.84,4.33-4.76,0-12.4-13.84-18.75-13.13-6.06-26.54-13.12-27-29.13-.29-9.23,5.19-23.65,23.51-25s31.58,9.52,38.36,23.8a148.43,148.43,0,0,0-20.34,12.54c-2.16-6.2-7.64-10.81-12.69-10.81-4,0-6.06,2.88-5.62,6.2.57,6.2,6.63,8.36,17,12.26,15.43,5.48,24.38,15.14,24.66,27.11C151.84,168.72,136,178,121.41,178Z"/><path class="cls-7" d="M121.41,178.1a43.12,43.12,0,0,1-36.49-18.88,221.21,221.21,0,0,1,14.37-20.91l.42-.55a29.71,29.71,0,0,0,7.69,9.56c4.4,3.49,10.06,6.45,15.78,5.61,3.64-.51,6.26-4.3,4.65-7.8-4.53-8.94-15.42-11.36-23.55-16.1-11.36-5.93-19.92-15.31-18.52-28.93,2.65-24.12,30.82-28.24,48.4-16.72,7.31,4.73,12.75,11.84,16.31,19.65a149.7,149.7,0,0,0-23,14.4l-.72-2c-1.64-4.55-5.64-9.19-10.57-9.75-2.94-.4-5.28,1.52-4.77,4.54a6.76,6.76,0,0,0,2.34,4.54c4,3.34,9.76,4.93,14.68,7a45.84,45.84,0,0,1,14.77,8.78c6.71,6,10.19,14.45,8.76,23.41-1.8,15.14-16,24.28-30.53,24.15Zm0-.3c15.13-.07,29.19-10.07,29.4-26.06.75-10.63-6.77-19.53-15.81-24.18-4.88-2.73-10.25-4.23-15.45-6.33-4.28-1.74-9.88-4.21-11-9.46-1.34-5.43,2.3-9.72,7.87-9.13a14.2,14.2,0,0,1,8.32,4.14,19.76,19.76,0,0,1,4.89,7.64l-2.41-.73a150.4,150.4,0,0,1,20.61-12.62l-.66,2C141,89,126.68,78.56,111,79.78c-12.86.36-22.43,9-23.24,22a23.81,23.81,0,0,0,7.93,19,47.77,47.77,0,0,0,9.49,6.67c8.36,4.91,19.59,7.62,24.12,17.12,1.94,4.3-1.28,9.17-5.85,9.73-6.18.83-12.12-2.37-16.72-6.15a30.66,30.66,0,0,1-7.46-9.36l.75.07q-3.9,4.92-7.58,10c-2.44,3.4-4.79,6.87-7,10.44v-.27a41.92,41.92,0,0,0,36,18.74Z"/><path class="cls-6" d="M191.35,181.27c-1.3-13.27-6.78-25.38-14-29.28.29,8.95.87,17.17,1.59,24.09-10.1,0-22.35,2.45-22.35,2.45,4-28.27,3.75-75.57-.29-104.41,0,0,11.53-2.16,23.79-3.89-1.87,19-3,44.12-2.88,67.05,7.06-3.17,12.4-12.4,13.55-25.95,0,0,13.85,3,22.93,2.3-2.16,13.71-9.51,25.67-21.92,32.31,10.53,4.32,19.9,14.71,22.64,28.55A80.14,80.14,0,0,0,191.35,181.27Z"/><path class="cls-7" d="M191.28,181.4c-1.46-10.34-4.6-23.28-14.08-29.11l.5-.31c.31,8,.85,16.06,1.72,24.05l.05.51H179a130.44,130.44,0,0,0-23,2.72c1.21-8.89,1.87-17.86,2.27-26.83,1-26.06.52-52.31-2.92-78.17l-.14-1q13.09-2.49,26.3-4.41a679.61,679.61,0,0,0-2.69,68.43l-2.12-1.37c4.3-2,7.3-6.09,9.2-10.4a49.14,49.14,0,0,0,3.6-16.05c4.25.94,8.62,1.71,12.95,2.22a64.58,64.58,0,0,0,13.09.39l-.3,1.79c-2.1,13.7-10.31,26.71-22.81,33.09l-.11-2.07a38,38,0,0,1,15.1,12A41.31,41.31,0,0,1,215.17,175a83.45,83.45,0,0,0-23.89,6.36Zm.14-.26c0-.07-.06,0,0-.09l.17-.09.34-.16a77.94,77.94,0,0,1,22.39-6.93l-.54.74c-2.57-12.05-10.95-23-22.46-27.61l-2.26-.9c12.88-6.12,21.25-18.7,23.17-32.69l1.56,1.68c-8,.51-15.63-.76-23.37-2.26l1.86-1.37a47.63,47.63,0,0,1-3.68,15.31c-2.21,4.94-5.71,9.57-10.8,11.89l-2.11,1c-.07-12,.23-24,.79-36,.53-11.2,1.3-22.38,2.43-33.55l1.33,1.28c-7.94,1.09-15.88,2.37-23.77,3.78l.87-1.2c3.24,26,3.53,52.36,2.28,78.54-.49,8.72-1.21,17.44-2.47,26.1l-.7-.66A128.51,128.51,0,0,1,179,175.61l-.47.52c-.78-8-1.23-16.07-1.45-24.12l0-.6.51.29c9.28,5.72,13,19.18,13.9,29.44Z"/><path class="cls-6" d="M233.6,108c-6.63,2.16-13.7,0-15.14-5.48-1.44-5,1.15-10.24,6.92-12.69,6.63-3,14.28-.87,15.86,4.9C242.54,99.79,240.81,105.56,233.6,108Zm-12.69,70.38c2.88-18.17,1.73-45-.87-62.74a146.55,146.55,0,0,0,20.48-3.17c-1.15,16.15.15,47.59,2.16,63C242.68,175.5,232,176.65,220.91,178.39Z"/><path class="cls-7" d="M233.65,108.15c-5.42,1.67-13.34,1.28-15.73-4.86a10.64,10.64,0,0,1,.78-9.12c4.09-6.7,14.59-9.56,21-4.52,4,3.2,4.22,9.59,1.35,13.57a14,14,0,0,1-7.4,4.93Zm-.1-.28a9.78,9.78,0,0,0,6.14-13c-3.86-8.79-19.59-5.11-20.71,4-1.08,8.15,7.86,11.51,14.57,9Z"/><path class="cls-7" d="M220.8,178.49c1.94-15.63,1.5-31.48.15-47.14-.5-5.55-1.15-11.08-2-16.57,3.75-.32,7.51-.8,11.25-1.42,3.91-.63,7.79-1.46,11.62-2.42l-.09,1.63c-.52,10.43-.15,21,.26,31.4.39,10.85.86,21.72,1.89,32.52-7.56.54-15.49,1.44-23.06,2Zm.22-.21c.73-.18,1.82-.48,2.56-.62,6.15-1.24,12.79-2.34,19-3.23l-.95,1.21c-.83-5.24-1.38-10.49-1.82-15.75a315,315,0,0,1-.47-47.49l1.47,1.24a144.23,144.23,0,0,1-20.69,3l.89-1.11c2.49,20.8,3.34,42,0,62.77Z"/><path class="cls-6" d="M279.45,175.79a20.78,20.78,0,0,1-15.71-6.63,389.37,389.37,0,0,0,4.18,47.3C257.82,213,245.56,213,245.56,213c3.32-26.25,4.19-71.39,2.31-99.65,8.66-1.59,18.17-2.89,18.17-2.89-.57,2.45-.86,5.48-1.29,8.8a23.28,23.28,0,0,1,15.14-6.06c14-.29,23.5,12,24.51,28.56C305.27,157.19,297.91,175.65,279.45,175.79Zm-8.79-46.15C264.6,132,263,141,265.47,148.25c2.3,6.63,8.94,9.37,14.13,6.2,4.61-2.74,5.34-11.11,3.32-17.17C281,131.8,276,127.62,270.66,129.64Z"/><path class="cls-7" d="M279.46,175.94a21.08,21.08,0,0,1-15.83-6.68l.26-.11c.12,4,.35,7.91.61,11.86a346.3,346.3,0,0,0,4,35.35l.17,1-1-.32a78.45,78.45,0,0,0-23.05-3.25c1-8.52,1.66-17.1,2.11-25.69a640.81,640.81,0,0,0-.39-75.91c2.33-.41,19.46-3.2,21.61-3.57a83.81,83.81,0,0,0-1.72,10.85l-2.57-1.35c11.13-10.19,28.83-8.07,36.48,5.18,11.12,18.08,4.44,52.48-20.73,52.65Zm0-.3c24.49-.37,29.67-34,18.47-50.91-7.06-11.47-22.26-13.24-32.14-4.32l-3.15,2.78c.69-4.27,1-8.72,1.95-13.07l1.67,1.84-18.13,2.76,1.14-1.47a671.68,671.68,0,0,1-.62,74.95c-.53,8.31-1.22,16.62-2.29,24.9l-.78-.9a76.62,76.62,0,0,1,22.54,3.68l-.79.68c-2.37-15.7-3.18-31.55-3.73-47.4l0-.39.27.28a20.8,20.8,0,0,0,15.61,6.59Z"/><path class="cls-7" d="M270.71,129.78c-7.34,3-6.69,13.86-3.71,19.81,3.53,6.84,13.51,6.91,15-1.34,1.67-7.2-1.38-21.13-11.28-18.47Zm-.11-.28c4.7-2,10,.95,12.49,5.07A18.86,18.86,0,0,1,284.86,149a9.93,9.93,0,0,1-16.39,5.32c-6.76-5.75-6.48-21,2.13-24.81Z"/><path class="cls-6" d="M392.94,172.33c-8.8,7.06-22.21,6.34-29.85,2.31-10.53-5.63-19.47-16.44-21.35-42.26-2-26.68,7.94-42.4,18.9-48.45,9.37-5.34,20-5.92,29.56-1.16,11.68,5.77,14.13,18,14.13,33.89a115.79,115.79,0,0,0-23.07,2.89c-.58-10.39-3.17-15.87-7.79-15.58s-12.26,8.94-12,27.11c.29,19.33,6.35,25.53,10.38,26.54,5.2,1.15,10-3.89,10-11.83a147.66,147.66,0,0,1,24.22-1.58C406.5,156.47,401.74,165.41,392.94,172.33Z"/><path class="cls-7" d="M393,172.45c-10.37,8-26.14,6.79-36-1.54C346.77,162.58,343,149,341.53,136.38c-1.49-12.83-.93-26.37,4.92-38.13,7.64-16.56,28-24.9,44.55-16.27,8.31,3.91,12.64,13,13.73,21.69a95.81,95.81,0,0,1,.89,14.24A110.55,110.55,0,0,0,380,121.34c-.35-4.27-.66-15.2-5.94-15.85-4.28.15-7.1,6-8.53,9.53-3.05,8.43-2.86,17.83-1.59,26.61,1,5.48,2.51,11.9,7.73,14.57,6.32,2,9.56-6,9.27-11.25a147.28,147.28,0,0,1,25.18-1.26l.5,0v.48A33.42,33.42,0,0,1,393,172.45Zm-.18-.24a31.89,31.89,0,0,0,12.7-28l.5.49a144.61,144.61,0,0,0-24.06,2l.81-1c.41,6.58-4.33,15.35-12.09,12.79-6.32-2.75-8.52-10.38-9.72-16.44-1.51-9.37-1.63-19.16,1.57-28.22,1.63-4.08,3.88-8.26,7.87-10.55,3.67-2.21,8-.18,9.66,3.5,2,4,2.29,8.29,2.58,12.6l-1.76-1.3a113.29,113.29,0,0,1,23.41-2.79l-1.27,1.28c.1-11.93-1.05-26.81-13-32.76-11.11-6-25.56-3.48-34.66,5-6.12,5.79-9.76,13.79-11.6,22-3.13,15.15-1.74,36,5.62,49.81,4.06,7.39,10.92,13.58,19.16,15.81,8.18,2.08,17.55,1,24.32-4.31Z"/><path class="cls-6" d="M436.34,178c-8.51.58-22.06-3.6-25.67-21-4.18-20.05,5.63-44,23.65-44.13,13-.14,24.23,12.55,25.38,32.45C460.71,162.52,452.64,176.8,436.34,178ZM434,134.11c-6.2.58-9.95,10.67-8.36,19.76,1.15,7.64,5.19,10.81,9.09,10.38,5.76-.57,8.79-8.07,8.22-15.72C442.26,139.45,438.36,133.82,434,134.11Z"/><path class="cls-7" d="M436.35,178.1c-27.9.9-33-33.22-22.05-53.06,5.94-11.31,18.59-17.24,30.47-10.93,7.16,3.84,11.86,11,14.25,18.61,6,18.49.08,44-22.67,45.38Zm0-.3c21.8-1.71,25.2-27.1,19.72-44.14-2.14-6.9-6.21-13.57-12.57-17.2-10.55-6-22-.54-27.48,9.54-10.76,18.69-7,52.95,20.33,51.8Z"/><path class="cls-7" d="M434.05,134.26c-8,1.27-8.79,13.57-7.45,19.91.56,2.88,1.7,5.91,4,7.74,3.72,2.91,8.13.06,9.48-3.91,2.53-5.53,2.37-23.51-6-23.74Zm0-.3c3.51-.23,6.09,2.82,7.68,5.61,3.2,6,4,13.32,1.09,19.64-2.24,5.31-8.71,8.54-13.56,4.38-2.68-2.33-3.83-5.77-4.33-9.12-1.31-6.79,1.12-19.1,9.12-20.51Z"/><path class="cls-6" d="M498.78,177.52c.14-2.16.29-4.47.29-6.63a23.25,23.25,0,0,1-18,4.76c-17.59-2.31-21.92-29.28-10.81-63.31,10.09,1.87,20.62,3.75,20.62,3.75-7.07,20.19-7.07,41.53-.15,42.68,3,.58,5.92-.57,8.37-3.75-.43-14.42-1.73-29.42-3.32-42,0,0,11.68.43,19.9-1.88-2.16,21.78-1.87,45.14,1,64.61A90.77,90.77,0,0,0,498.78,177.52Z"/><path class="cls-7" d="M498.68,177.63l.19-6.74.32.15a23.36,23.36,0,0,1-16.05,5.13c-10.82-.1-16.8-9.27-18.57-19-2.82-15.1.38-30.64,4.85-45.1l.22-.7.74.13L491,115.13l1.11.2a104.15,104.15,0,0,0-3.89,14.19c-1.21,6-3.78,24.55,2.29,27.94,2.91.82,5.71-.76,7.51-3.23l-.27.83c-.54-14-1.78-27.94-3.56-41.81l-.24-1.79a108.4,108.4,0,0,0,11.68-.21,54.14,54.14,0,0,0,11.72-2.1l-.22,2.18a291.05,291.05,0,0,0,.14,64.37l.09.75-.73,0a98.42,98.42,0,0,0-18,1.2Zm.2-.22a78.26,78.26,0,0,1,17.79-2.26l-.64.73c-.92-5.34-1.55-10.72-2-16.12a274.44,274.44,0,0,1,.17-48.73l1.91,1.6a65.74,65.74,0,0,1-15.25,2c-1.71.05-3.38.07-5.12,0l1.6-1.75q2.59,21.23,3.09,42.6c-2.34,3.33-6.53,5.69-10.67,4.32-5.53-2.47-5.31-11.83-5.28-16.89a94.41,94.41,0,0,1,5.5-27.12l.75,1.27-20.61-3.87,1-.57c-4.55,14.2-7.94,29.46-5.41,44.36,1.27,7.13,4.82,14.92,12.08,17.5A23,23,0,0,0,499,170.73l.34-.27,0,.43-.39,6.52Z"/><path class="cls-6" d="M547.81,174.64c7.06-20.19,5.19-42.55-.87-44.28-2.88-.86-5.62.29-8.07,3.61.57,16.44,1.73,34,2.88,45.42,0,0-10.38-.72-20.19-.43a376.8,376.8,0,0,0-.58-63.88s10.24-.44,17.74-3.18v6.35a20.9,20.9,0,0,1,17.16-5c17.45,2.74,21.78,27.55,13.41,64.75C559.06,176.08,547.81,174.64,547.81,174.64Z"/><path class="cls-7" d="M547.68,174.71A84.32,84.32,0,0,0,552,147.2c-.22-4.61-.71-17.62-7.45-16.56-2.15.25-3.9,1.87-5.21,3.66l.11-.35c.68,15.14,1.64,30.29,3.18,45.36l.11,1c-7-.42-14.11-.61-21.13-.38l-1.08,0,.08-1.08a368.89,368.89,0,0,0-1-63.67l-.15-1.43a82.52,82.52,0,0,0,10.26-1.12,53.28,53.28,0,0,0,10.48-2.89c0,1.31,0,7,0,8.47l-2.51-1.15c6.06-5.47,15.35-7.35,22.95-4.1,20.58,9.47,13.56,47.49,9.31,65.11l-.16.68-.66-.13c-6.49-1.34-13.49-2.56-20-3.66l-1-.16a1,1,0,0,1-.44-.13Zm.25-.15c.05,0,0-.07.07-.06l1.18.12c6.63.69,13.67,1.59,20.24,2.63l-.82.55c3.2-16.33,9.38-53.44-9.11-62a19.4,19.4,0,0,0-19.78,3.59l-2.52,2.15v-3.3l0-6.35,2,1.41A67.38,67.38,0,0,1,521,116.44l1.31-1.5a380.07,380.07,0,0,1,.18,64.1l-1-1.06c6.78-.13,13.53.1,20.28.55l-.92.95c-.71-7.57-1.22-15.15-1.65-22.73s-.73-15.17-.94-22.76v-.2c1.47-2,3.5-3.9,6.11-4.17,7.81-1,8.09,12.23,8.29,17.57a79.53,79.53,0,0,1-4.77,27.37Z"/><path class="cls-6" d="M599.28,177.67c-16.72-3-19.75-26.83-17-51.92-3.32.14-5.34.29-5.34.29.29-6.49,1.16-12.55,1.16-12.55l6-.29A192.74,192.74,0,0,1,589,92.44c9.81.14,19.76.57,19.76.57a123.45,123.45,0,0,0-6,19.18l14.27-.72a102.66,102.66,0,0,0-1.58,15.87,145.62,145.62,0,0,0-15.58-1.59c-3,18-2.16,32.16,1,33.31,3.17,1.3,4.9-5.77,4.76-14.13,9.66,3.32,18.46,7.35,18.46,7.35C621.93,172,611.11,179.83,599.28,177.67Z"/><path class="cls-7" d="M599.26,177.81c-20.22-4.05-19-36.21-17.58-52.13l.61.66-5.31.34-.72,0c.15-4.47.5-8.91,1.07-13.35l.08-.62.64,0,6.05-.33-.74.66a194.27,194.27,0,0,1,5-21.57l.71,0,19.79.46,1.48,0a124.47,124.47,0,0,0-6.45,20.45L602.69,111c.77-.07,15.55-.88,15.84-.91a100.6,100.6,0,0,0-1.71,17.22V129a144.79,144.79,0,0,0-17.05-1.72l1.56-1.24a114.19,114.19,0,0,0-1.64,24.81c.25,2.36.39,4.85,1.57,6.71.16.16.08.11.24.17l.08,0s.08,0,.29-.16c1.4-1.66,1.7-4.14,2.07-6.47a59.51,59.51,0,0,0,.37-8A205.4,205.4,0,0,1,625,151.78c-1.56,14-9.48,29-25.78,26Zm0-.29c15.76,2.6,23-11.8,23.92-25.33l.5.88c-6.07-2.56-12.29-4.84-18.53-6.9l1.74-1.26a47.2,47.2,0,0,1-.19,6.5c-.47,3-.73,7.3-3.9,9.05-2.22.95-4.25-.8-4.9-2.77a24.88,24.88,0,0,1-1.31-6.63c-.63-8.61.34-17.11,1.75-25.56l.22-1.33,1.34.09A144.21,144.21,0,0,1,615.66,126l-1.61,1.37a100,100,0,0,1,1.73-16.1l1.31,1.49-14.29.63-1.54.06.35-1.49a123.48,123.48,0,0,1,6.23-19.31l.92,1.43L589,93.36l.9-.66a192.06,192.06,0,0,0-5,20.64l-.12.63c-.36,0-6.18.29-6.69.28l.72-.65c-.58,4.12-1,8.3-1.26,12.47l-.69-.68c.43,0,5.85-.27,6-.26l-.08.68c-1.76,15.85-3.88,47.48,16.46,51.71Z"/><path class="cls-6" d="M190.84,298.62c-11.82,3.6-30.57,3.6-44-1.16,4.32-20,4.61-60.57-.87-89.55,23.07-6.35,52.78-5.19,56.39,18.75,1.73,11.39-4.76,20.62-14.28,25.09,9.81,1.73,17.59,6.34,19.9,18.17C210.89,285.06,202.52,295,190.84,298.62Zm-25-70.81c.87,5.91,1.44,12.69,1.88,19.47,8.07-1.3,14.27-4.76,14.71-10.67C182.91,229.4,176.56,225.36,165.89,227.81Zm2.45,34c.29,7.36.29,14.28,0,19.62,13.42,1.29,19.47-3.75,18.61-10.82C186.22,264.58,179.74,261.12,168.34,261.84Z"/><path class="cls-7" d="M190.88,298.76a74.3,74.3,0,0,1-22.12,2.57,73.94,73.94,0,0,1-22-3.48l-.34-.11.07-.36c3.79-22.1,3.32-44.81,1.52-67.09a222.48,222.48,0,0,0-3.27-23.18,91.22,91.22,0,0,1,25.62-3.75c10.45.11,22.09,2.66,28.79,11.37C209,228.33,204,246.24,188.7,253l-.36-2.66a34.13,34.13,0,0,1,8.17,2.56c8.22,3.5,12.55,12.33,12.67,20.93.85,11.81-7.17,21.79-18.3,24.91Zm-.08-.29c10.91-3.28,18.34-13,17-24.53-.44-5.33-2.25-10.7-5.91-14.4-4.57-4.9-11.87-6.17-18.34-7.12,4.78-2.2,9.81-4.84,13-9.11,6.2-7.51,5.82-19,.18-26.77-3.53-4.7-8.95-7.59-14.58-9-11.74-3-24.21-1.53-35.86,1.48l.8-1.28c1.35,7.43,2.23,14.92,2.83,22.42,1.54,22.45,1.82,45.28-2.65,67.43l-.27-.47a75.45,75.45,0,0,0,43.81,1.39Z"/><path class="cls-7" d="M166,227.89a185.07,185.07,0,0,1,2.63,19.33l-1-.8c4.71-1,10-2.57,12.51-6.84a7.81,7.81,0,0,0-.68-8.15c-3.11-3.81-8.87-3.6-13.45-3.54Zm-.24-.17a17.86,17.86,0,0,1,10.85-1.2A9.43,9.43,0,0,1,182.47,241c-3.44,5.12-9.94,6.55-15.54,7.31-.22-6.85-.57-13.73-1.16-20.56Z"/><path class="cls-7" d="M168.45,261.94a174.93,174.93,0,0,1,.72,19.56l-.75-.86c5.45.22,12,.18,15.68-4.16a7.8,7.8,0,0,0-2-10.92c-3.94-2.63-9-3-13.62-3.62Zm-.22-.2c6.07-1.26,13.39-1.31,18,3.59a9.89,9.89,0,0,1-.12,12.85c-3,3.35-7.55,4.22-11.75,4.39a46.78,46.78,0,0,1-6.91-.37c.59-6.78.66-13.66.77-20.46Z"/><path class="cls-6" d="M226.31,339.72c-9.95-7.21-19.61-14.57-19.61-14.57,7.93-8.65,15-20.19,20.62-33-14-27.4-23.07-51.2-23.07-51.2a199.94,199.94,0,0,1,22.35-2.3s2.6,17.16,8.65,32.15a179.72,179.72,0,0,0,7.64-37.92s11,1.87,20.63,3.46C252.27,265.88,241.89,316.5,226.31,339.72Z"/><path class="cls-7" d="M226.34,339.87,206.5,325.41l-.28-.21a101.73,101.73,0,0,0,11.71-16,144.28,144.28,0,0,0,8.85-17.34v.51q-12.91-25-23.41-51.14l-.41-1q6.14-1.05,12.32-1.73c4-.45,8.11-.76,12.18-.94a158.93,158.93,0,0,0,8.91,32.79l-2.29.09a179.75,179.75,0,0,0,7.34-37.69l.12-1.59,1.59.26,20.63,3.38,1.88.31c-3.52,9.09-6.42,18.44-9.34,27.81-6.17,19.7-11.76,39.72-20,58.71a103.92,103.92,0,0,1-10,18.26Zm-.06-.3a143.43,143.43,0,0,0,11.22-24.89c6.14-17.29,10.86-35,16-52.63,2.59-8.82,5.32-17.61,8.55-26.29l1.2,2.1-20.61-3.55,1.71-1.33a186.59,186.59,0,0,1-9,41.48l-1.24-3.22a161.06,161.06,0,0,1-8.55-32.46l1.07.89a195.11,195.11,0,0,0-22.24,2.17l.71-1.24c6.74,17.42,14.41,34.53,22.74,51.26l.13.25-.12.26c-5.36,11.9-12.05,23.35-20.93,33l0-.47,19.39,14.67Z"/><path class="cls-6" d="M330.13,302.94c-18.75.44-30.14-9.51-31-27.54a174.12,174.12,0,0,1,24.37-7.5c-1.3,17.16,20.77,14.85,18.6-3.61-1.87-17.44-27-10-39.08-1.58-1-17.88-.29-36.78.58-53.07,16.87-4.76,41.68-6.92,58-7.79,0,0-3.6,16.15-3.32,26-10.52-2.31-27-2.31-37.64.29-.86,6.78-1,12.26-1,12.26,26.54-12.12,44.28,1.29,45,23.65C365.18,285.78,352.34,302.37,330.13,302.94Z"/><path class="cls-7" d="M330.14,303.09c-18,.53-30.36-9.27-31.26-27.68v-.17l.17-.07q5.93-2.4,12-4.28c4.24-1.33,8.53-2.52,12.87-3.53-.28,3.46.21,7.42,2.94,9.8a7.87,7.87,0,0,0,9.15.69c4.5-2.48,6-8.19,5.4-13.05-1.23-14.75-19.65-10.49-28.9-6.3a56.23,56.23,0,0,0-10.33,5.86c-1.18-18.52-.59-37.09.32-55.57,19.2-5.31,39.17-7,59-8.31l1.78-.1c-1,4.81-1.94,9.69-2.6,14.57a81.93,81.93,0,0,0-.89,14.71,94.68,94.68,0,0,0-38.81-.07l1.16-1.3q-.39,3-.65,6.05c-.17,2-.31,4.06-.38,6.06L319,239c21.78-10.23,44.35-3.32,46.34,22.93,1.27,22.1-11.95,40.95-35.18,41.18Zm0-.3c10-.24,20.09-4.43,26.19-12.54,6.13-7.94,8.1-18.38,7.33-28.21-1.91-20.11-17.82-29.15-36.55-23a82.34,82.34,0,0,0-9.08,3.65l.08-2.4c.15-4.53.55-9,1.12-13.46,9.75-2.41,19.83-2.69,29.79-1.9a76.21,76.21,0,0,1,9.56,1.39l-1.81,1.5c0-9,1.65-17.59,3.47-26.3l1.41,1.67a373.51,373.51,0,0,0-43.54,4.39c-4.79.84-9.54,1.81-14.2,3.1l.8-1c-1,17.65-1.68,35.33-.78,53l-1.41-.7c8.77-5.8,25.39-12.75,35.31-6.76,7.43,4.85,6.69,19.55-1.22,23.66-8.21,4.14-14.5-2.72-13.52-11l.51.44a167,167,0,0,0-24.37,7.32l.15-.24c.32,7.68,2.85,15.74,8.92,20.8s14.13,6.76,21.84,6.6Z"/></svg>