<?xml version="1.0" encoding="utf-8"?>
<!-- Generator: Adobe Illustrator 26.0.3, SVG Export Plug-In . SVG Version: 6.00 Build 0)  -->
<svg version="1.1" id="Layer_1" xmlns="http://www.w3.org/2000/svg" xmlns:xlink="http://www.w3.org/1999/xlink" x="0px" y="0px"
	 viewBox="0 0 368.5 162.2" style="enable-background:new 0 0 368.5 162.2;" xml:space="preserve">
<style type="text/css">
	.st0{opacity:0.2;enable-background:new    ;}
	.st1{fill:url(#SVGID_1_);}
	.st2{fill:#E28D39;}
	.st3{opacity:0.1;enable-background:new    ;}
	.st4{fill:#682612;}
	.st5{fill:#753523;}
	.st6{fill:#BF9158;stroke:#471D00;stroke-width:0.5;stroke-miterlimit:10;}
	.st7{fill:#CCC6C2;}
	.st8{opacity:0.3;fill:#FFFFFF;enable-background:new    ;}
	.st9{fill:#1C0E03;}
	.st10{fill:url(#SVGID_00000022522805104425249070000013855361403655123632_);}
	.st11{fill:url(#SVGID_00000163070823095001689130000007687800697380963727_);}
	.st12{fill:url(#SVGID_00000164486282775691375600000012018958689054511285_);}
	.st13{fill:url(#SVGID_00000181083599702461147780000015705119714995030688_);}
	.st14{fill:url(#SVGID_00000159463587800965794100000004547163781438641316_);}
	.st15{fill:#BC7B18;stroke:#BC7B18;stroke-miterlimit:10;}
	.st16{fill:#BC7B18;stroke:#492E0A;stroke-miterlimit:10;}
	.st17{fill:#B76D0B;}
	.st18{fill:#BC7B18;}
	.st19{fill:#F6F6F6;}
	.st20{fill:#BC7B18;stroke:#894F1A;stroke-miterlimit:10;}
	.st21{fill:none;stroke:#894F1A;stroke-miterlimit:10;}
	.st22{fill:none;stroke:#894F1A;stroke-width:0.75;stroke-miterlimit:10;}
	.st23{fill:#FBB264;}
	.st24{fill:#683615;}
	.st25{fill:#532B11;}
	.st26{fill:#E89B58;}
	.st27{fill:#C98E4F;}
	.st28{fill:#B97D45;}
	.st29{fill:#826546;}
	.st30{fill:#BC8F5A;}
	.st31{fill:#A27642;}
	.st32{fill:#894F1A;}
	.st33{fill:#3F0B0B;}
	.st34{fill:#F2DCAD;}
	.st35{fill:#512D10;}
	.st36{fill:none;stroke:#894F1A;stroke-width:0.25;stroke-miterlimit:10;}
	.st37{fill:#3D3123;}
	.st38{fill:none;stroke:#231F20;stroke-width:0.75;stroke-miterlimit:10;}
	.st39{fill:none;}
	.st40{fill:#4C2A0F;}
	.st41{fill:#FEDCAE;stroke:#6D3D15;stroke-width:0.25;stroke-miterlimit:10;}
	.st42{fill:#FFE8E2;}
	.st43{fill:#EC9F43;}
	.st44{fill:#4F2C0F;}
	.st45{fill:#911919;}
	.st46{fill:#FEDCAE;stroke:#894F1A;stroke-width:0.5;stroke-miterlimit:10;}
	.st47{fill:none;stroke:#4F2C0F;stroke-width:0.75;stroke-miterlimit:10;}
	.st48{fill:#CC821F;stroke:#BC7B18;stroke-miterlimit:10;}
	.st49{fill:none;stroke:#3F220A;stroke-miterlimit:10;}
	.st50{fill:#590000;}
	.st51{fill:none;stroke:#3F0B0B;stroke-miterlimit:10;}
	.st52{fill:#911919;stroke:#3F0B0B;stroke-miterlimit:10;}
	.st53{fill:#800001;}
	.st54{fill:#7F0000;}
	.st55{fill:#CE4545;}
</style>
<path class="st0" d="M224.5,112.9c-60.2,0-111.4,5.6-130.5,13.5c-9.8-2.3-19.6-3.8-29.6-4.5c-31.6-2.4-57.6,2.7-58.1,11.3
	s24.8,17.6,56.4,19.9c25.8,1.9,47.9-1.1,55.4-7c25.4,4.5,63.6,7.3,106.4,7.3c76.5,0,138.4-9.1,138.4-20.3S301,112.9,224.5,112.9z"/>
<linearGradient id="SVGID_1_" gradientUnits="userSpaceOnUse" x1="1327.3154" y1="6400.4209" x2="1327.3154" y2="6387.7808" gradientTransform="matrix(0.7275 0.6861 0.6861 -0.7275 -5162.4609 3828.5684)">
	<stop  offset="0" style="stop-color:#7C3A25"/>
	<stop  offset="0.49" style="stop-color:#8C4638"/>
	<stop  offset="1" style="stop-color:#7C3A25"/>
</linearGradient>
<path class="st1" d="M197.7,81.1c0,0-3.3-1.8-15,5.3l-2,1.6l3.3,3.2l1.9-1.9c0,0,4.2-2.9,11.2-1.3C199.8,88.5,200.2,82.8,197.7,81.1
	z"/>
<path class="st2" d="M188.3,120.5c-8.3-13.3-19.9-24.3-33.7-31.8c-0.5,0.2-1,0.4-1.5,0.5c-9.7,10.3-22.8,31.7-11.7,42.2
	c-1.1,1.6-1.4,3.3-0.6,4.1s2.5,0.4,4.1-0.8c13.3,12.6,33.2-3.3,42.9-13.5l0,0C187.9,120.9,188.1,120.7,188.3,120.5z"/>
<path class="st3" d="M185,111.7c0,0,6.3,5.8,2.4,9.9c-5,5.2-13.1,12.1-20.2,15.2c-6.2,2.7-14.8,5.1-22.4-2.1c0,0-2.7,2.1-4,0.9
	c1.3-0.4,2.5-1,3.5-1.9C144.3,133.6,164,134,185,111.7z"/>
<path class="st0" d="M153.1,89.2c0,0-1.4,1.5-1.9,2.2c1.8,0.4,3.5,1,5.1,1.8c3.8,2,17.3,11.7,26,25c1.1,1.6,2.5,4.1,2.7,5.6
	c0,0,1.9-1.8,2.3-2.3c0,0,3.1-6.1,2.5-8.2c-2.4-8.8-18.3-21.8-27.1-24.2C160.4,88.4,153.1,89.2,153.1,89.2z"/>
<path class="st4" d="M153.1,89.2c7.2,3.1,13.9,7.5,19.7,12.8c6,5.6,10.9,12.2,14.6,19.4c0,0,11.9,2.3,9.3-10.1
	c-3-14.1-6.8-18.4-10.7-22.1c-3.3-3.2-8.3-7-22.2-9C152,78.5,151.9,85.8,153.1,89.2z"/>
<path class="st5" d="M184.1,87.8l-1.4-0.2l-0.6-0.1c-1.6-0.3-3.1-0.6-4.7-0.8l-0.9-0.1c-1.7-0.2-3.3-0.3-5-0.4c-0.3,0-0.7,0-1,0
	c-1.8,0-3.7,0-5.5,0.2c-0.4,0-0.7,0.1-1.1,0.1h-0.5c-2,0.2-4,0.6-5.9,1.1l-1.3,0.3c-0.7,0.2-2.6,0.7-3.3,0.9
	c-0.1-0.4-0.2-0.9-0.3-1.4l3.8-0.9l1.3-0.3c2.1-0.4,4.1-0.7,6.2-0.9l1.1-0.1c1.8-0.1,3.6-0.1,5.4-0.1h1c1.6,0.1,3.3,0.2,4.9,0.5
	l0.9,0.1c1.6,0.3,4.4,0.7,5.9,1.2C183.1,87,184.1,87.8,184.1,87.8z"/>
<path class="st5" d="M190.2,94.2c-0.2,0-1.2-0.4-1.4-0.4c-1.6-0.3-3.1-0.6-4.7-0.8l-0.9-0.1c-1.7-0.2-3.3-0.3-5-0.4
	c-0.3,0-0.7,0-1,0c-1.8,0-3.7,0-5.5,0.2l-1.1,0.1h-0.5c-2,0.2-4,0.6-5.9,1.1l-1.6,0.4c-0.1-0.1-1.3-0.8-1.5-0.9
	c0.4-0.1,1.6-0.4,2-0.5l1.3-0.3c2.1-0.4,4.1-0.7,6.2-0.9l1.1-0.1c1.8-0.1,3.6-0.1,5.4-0.1h1c1.7,0.1,3.3,0.2,4.9,0.5l0.9,0.1
	c1.6,0.3,3.2,0.6,4.7,1l1.1,0.4C189.8,93.6,190.1,94.1,190.2,94.2z"/>
<path class="st5" d="M193.1,99.7c-0.7-0.1-1.6-0.2-2.2-0.3l-0.9-0.1c-1.6-0.2-3.3-0.3-5-0.4c-0.3,0-0.7,0-1,0c-1.8,0-3.7,0-5.5,0.2
	l-1.1,0.1h-0.5c-2,0.2-4,0.6-5.9,1.1h-0.2l-1.2-1h0.3l1.3-0.3c2.1-0.4,4.1-0.7,6.2-0.9l1.1-0.1c1.8-0.1,3.6-0.1,5.4-0.1h1
	c1.6,0.1,3.3,0.2,4.9,0.5l0.9,0.1c0.6,0.1,1.5,0.3,2.1,0.4C192.9,99.2,193,99.4,193.1,99.7z"/>
<path class="st5" d="M195.1,105.4c-1-0.1-2.3-0.2-3.3-0.2c-0.3,0-0.7,0-1,0c-1.8,0-3.7,0-5.5,0.2l-1.1,0.1h-0.5
	c-2,0.2-4,0.6-5.9,1.1h-0.1l0,0l-0.4-0.4l-0.5-0.5l-0.1-0.1h0.1l1.3-0.3c2.1-0.4,4.1-0.7,6.2-0.9l1.1-0.1c1.8-0.1,3.6-0.1,5.4-0.1h1
	c0.9,0,2.2,0.1,3.1,0.2C194.9,104.8,195,105.1,195.1,105.4z"/>
<path class="st5" d="M195.9,118.6c-0.1,0-4.6,0.7-4.7,0.7c-0.4,0.1-0.9,0.2-1.3,0.3c-1,0.2-2.2,0.6-3.1,0.8c0-0.1-0.4-0.8-0.6-1.2
	c1-0.3,2.9-0.8,4-1l1.3-0.3l5.1-0.9C196.5,117.7,196.2,118.2,195.9,118.6z"/>
<path class="st5" d="M196.6,111.7c-0.9,0-3.7,0-4.6,0c-0.4,0-0.7,0.1-1.1,0.1h-0.5c-2,0.3-4,0.7-5.9,1.2c-0.4,0.1-1.7,0.3-2,0.4
	c-0.1-0.1-0.6-0.9-0.8-1.1c0.3-0.1,1.4-0.3,1.7-0.4l1.3-0.3c2.1-0.4,4.1-0.7,6.2-0.9l1.1-0.1c0.9-0.1,3.4,0,4.4,0
	C196.5,111,196.5,111.2,196.6,111.7z"/>
<path class="st5" d="M189.5,121.7c0.2-0.7,0.3-1.3,0.4-2c0.1-0.4,0.2-0.9,0.2-1.4c0.4-2,0.6-4,0.7-6c0-0.2,0-0.3,0-0.5
	c0-0.4,0-0.8,0-1.1c0.1-1.8,0-3.7-0.1-5.5c0-0.3,0-0.7-0.1-1c-0.1-1.7-0.4-3.3-0.7-5c-0.1-0.3-0.1-0.6-0.2-0.9
	c-0.3-1.5-0.6-3.1-1-4.6l-0.1-0.6c0-0.1-0.5-1.5-0.5-1.6l0.8,1c0.5,1.5,1.4,4.4,1.7,5.9c0.1,0.3,0.1,0.6,0.2,0.8
	c0.3,1.6,0.6,3.2,0.8,4.9c0,0.3,0.1,0.7,0.1,1c0.2,1.8,0.2,3.6,0.2,5.4c0,0.4,0,0.7,0,1.1c-0.1,2.1-0.2,4.2-0.6,6.3
	c-0.1,0.4-0.1,0.9-0.2,1.3c0,0.2-0.4,2-0.5,2.2c-0.2,0-0.4,0.1-0.6,0.1L189.5,121.7z"/>
<path class="st5" d="M183.8,115.4c-0.1-0.1-0.9-1.3-0.9-1.4c0.1-0.3,0.5-1.7,0.6-2c0.3-2,0.6-4,0.7-6c0-0.2,0-0.3,0-0.5
	c0-0.4,0-0.7,0.1-1.1c0.1-1.8,0-3.7-0.1-5.5l-0.1-1c-0.2-1.7-0.4-3.3-0.7-5c-0.1-0.3-0.1-0.6-0.2-0.9c-0.3-1.5-0.6-3.1-1-4.6
	c-0.1-0.2-0.5-1.4-0.5-1.6c0.1,0.1,0.6,0.4,0.6,0.4l0.5,1.3c0.5,1.5,1,3.1,1.3,4.7c0.1,0.3,0.1,0.6,0.2,0.8c0.3,1.6,0.6,3.2,0.8,4.9
	c0,0.3,0.1,0.7,0.1,1c0.2,1.8,0.2,3.6,0.2,5.4v1.1c-0.1,2.1-0.2,4.2-0.5,6.3c-0.1,0.4-0.1,0.9-0.2,1.3S183.9,115,183.8,115.4z"/>
<path class="st5" d="M177.6,107.2c0,0-0.9-1-1-1.2c0,0,0.1-0.4,0.1-0.4c0.3-2,0.6-4,0.7-6c0-0.2,0-0.3,0-0.5c0-0.4,0-0.7,0-1.1
	c0.1-1.8,0-3.7-0.1-5.5c0-0.3-0.1-0.7-0.1-1c-0.2-1.7-0.4-3.3-0.7-5c-0.1-0.3-0.1-0.6-0.2-0.9c-0.1-0.7-0.3-1.9-0.5-2.6
	c0.3,0.1,0.6,0.2,0.8,0.3c0.2,0.6,0.4,1.8,0.5,2.4l0.2,0.8c0.3,1.6,0.6,3.2,0.8,4.9c0,0.3,0.1,0.7,0.1,1c0.2,1.8,0.2,3.6,0.2,5.4
	c0,0.4,0,0.7,0,1.1c-0.1,2.1-0.2,4.2-0.5,6.3l-0.2,1.3L177.6,107.2z"/>
<path class="st5" d="M171,100.5l-1.1-1l0.1-0.3c0.4-2,0.6-4,0.7-6v-0.5c0-0.4,0-0.7,0-1.1c0.1-1.8,0-3.7-0.1-5.5
	c0-0.3-0.1-0.7-0.1-1c-0.1-1-0.4-2.8-0.5-3.8c0.3,0,0.7,0.2,1,0.2c0.2,0.9,0.4,2.7,0.5,3.6c0,0.3,0.1,0.7,0.1,1
	c0.2,1.8,0.2,3.6,0.2,5.4c0,0.4,0,0.7,0,1.1c-0.1,2.1-0.2,4.2-0.6,6.3c-0.1,0.4-0.1,0.9-0.2,1.3C171,100.3,171,100.4,171,100.5z"/>
<path class="st5" d="M156.9,91c-0.4-0.2-0.9-0.5-1.1-0.5c0.2-0.9,0.2-1.6,0.4-2.6c0.1-0.5,0.2-0.9,0.2-1.4c0.3-2,0.2-3.9-0.1-5.9
	c0.5-0.2,1-0.3,1.6-0.4c-0.1,0.4,0.1,4.4-0.1,6c-0.1,0.4-0.1,0.9-0.2,1.3C157.3,88.6,157.1,89.9,156.9,91z"/>
<path class="st5" d="M164,95.2l-1.2-0.8c0.1-0.3,0.3-1.2,0.4-1.5c0.3-2,0.6-4,0.7-6c0-0.2,0-0.3,0-0.5c0-0.4,0-0.7,0.1-1.1
	c0-0.9-0.3-4.2-0.3-5.1c0.4,0,1,0.2,1.2,0.2c0,1,0.3,3.9,0.2,4.9c0,0.4,0,0.7,0,1.1c-0.1,2.1-0.2,4.2-0.5,6.3
	c-0.1,0.4-0.1,0.9-0.2,1.3C164.2,94.2,164,94.9,164,95.2z"/>
<path class="st6" d="M199.2,84.1c0.4,2-0.4,3.2-1.6,3.8c-1.1,0.5-2.1-2.6-2.2-3.2s-0.2-3.4,0.9-3.6S198.7,81.5,199.2,84.1z"/>
<g>
	<path class="st7" d="M197.5,85C197.5,85,197.5,85,197.5,85c-0.1,0-0.1,0-0.1,0c0,0-0.1-0.1-0.1-0.1c-0.2-0.7,0.3-1.3,0.4-0.4
		s-0.3,1.6-0.6,0.7c-0.3-1.1,0.2-2.4,0.5-2.1c0.6,0.4,0.7,3.2-0.1,3.8c-0.4,0.3-0.7-0.2-0.9-0.7c-0.4-1.2-0.5-2.5-0.2-3.7
		c0.2-0.9,0.5-1.5,0.3-1.2c0,0.1-0.1,0.2-0.1,0.2c-0.8,1.8-0.5,5.6,0.7,5.6c0.8,0.1,1.2-1.7,1.1-2.8c-0.2-2-1.3-2.1-1.4-0.5
		c-0.1,0.6,0.1,1.5,0.4,1.7s0.7-1,0.4-1.6c-0.2-0.4-0.5-0.3-0.5,0.3S197.4,85.2,197.5,85C197.5,84.9,197.5,84.9,197.5,85z"/>
</g>
<path class="st8" d="M153.2,98.4c0,0,3-2.9,0.4-3.8s-12.9,14.2-13.3,24s0.4,6.6,2.9-1.5S153.2,98.4,153.2,98.4z"/>
<path class="st9" d="M160.5,81L160.5,81c1,0,2,0.1,3,0.2h0.1h0.1l0.8,0.1h0.1c1.9,0.3,3.6,0.6,5.2,1h0.1l0.2,0.1l0,0l0.6,0.2
	c1.6,0.4,3.3,0.9,4.8,1.4l0.3,0.1l0,0l0.5,0.2c1.6,0.7,3.2,1.5,4.7,2.4l0.2,0.2l0.3,0.2l0.3,0.2l0.6,0.4l0.6-0.5l0.1-0.1
	c7.7-4.6,11.6-5.3,13.2-5.3c0.3,0,0.6,0,0.8,0.1c1,1.1,1.4,2.7,1,4.2c-0.1,0.3-0.3,0.8-0.7,0.8h-0.1h-0.1l0,0
	c-1.4-0.3-2.9-0.5-4.3-0.5c-2.7-0.1-5.4,0.6-7.7,2l-1,0.7l0.9,0.8c0.6,0.6,1.5,1.4,2.3,2.4c0.5,0.6,1,1.2,1.5,1.9l0.1,0.1
	c1.1,1.6,2.1,3.4,2.9,5.2c0,0.1,0.1,0.1,0.1,0.2l0.2,0.4c0.7,1.6,1.3,3.3,1.8,5v0.1c0,0,0,0.1,0,0.1c0.5,1.7,1,3.5,1.4,5.5l0,0l0,0
	v0.2l0.1,0.5c0.5,1.7,0.5,3.6,0.1,5.3v0.1l0,0v0.1c0,0.1-0.1,0.2-0.1,0.3l-0.1,0.2v0.1v0.1v0.1l-0.1,0.1c-0.8,1.5-2.4,2.4-4.8,2.7
	h-0.3h-0.6v1l-0.1-1h-0.1c-0.6,0-1.2,0-1.7-0.1l-0.5-0.1l-0.4,0.4c-5,5.3-13.1,12-19.9,14.9c-3.3,1.5-6.8,2.4-10.4,2.6
	c-3.8,0-7.4-1.4-10.2-3.9l-0.6-0.6l-0.6-0.6l-0.7,0.5l-0.1,0.1c-0.4,0.3-0.9,0.6-1.4,0.8c-0.3,0.1-0.5,0.2-0.8,0.2
	c-0.1,0-0.2,0-0.3-0.1l-0.1-0.1l0,0c-0.3-0.3-0.2-1.4,0.7-2.8l0.5-0.7l-0.6-0.6c-5.8-5.4-4.1-13.9-1.7-20.1
	c3.1-8,8.9-15.8,13.4-20.6l0.1-0.1l1-1.1l-0.9-0.4c0-0.2-0.1-0.3-0.1-0.4s0-0.2-0.1-0.2s-0.1-0.3-0.1-0.4v-0.1
	c-0.2-1.6-0.1-4.5,3-5.7l0.3-0.1c0.1,0,0.4-0.1,0.7-0.2h0.1h0.3C158.9,81,159.7,80.9,160.5,81 M160.5,79.9c-0.9,0-1.7,0.1-2.6,0.2
	l0,0l-0.3,0.1h-0.1c-0.4,0.1-0.8,0.2-1.1,0.3l0,0c-3.4,1.3-4,4.3-3.6,6.8l0,0c0,0,0,0.1,0,0.1c0,0.2,0.1,0.3,0.1,0.5s0,0.2,0,0.3
	c0.1,0.3,0.2,0.7,0.3,1l0,0c-9.7,10.3-22.8,31.7-11.7,42.2c-1.1,1.6-1.4,3.3-0.6,4.1h0.1l0,0c0.3,0.3,0.7,0.4,1.1,0.4
	c0.4,0,0.8-0.1,1.2-0.3c0.6-0.2,1.1-0.5,1.6-0.9l0.1-0.1c0.2,0.2,0.4,0.4,0.6,0.6c3,2.7,6.9,4.2,10.9,4.1c3.7-0.1,7.4-1,10.8-2.6
	c7.1-3.1,15.3-9.9,20.2-15.2l0,0c0.6,0.1,1.3,0.1,1.9,0.1h0.2h0.6c0.2,0,0.3,0,0.5,0c2.3-0.1,4.3-1.3,5.5-3.2c0-0.1,0.1-0.1,0.1-0.2
	c0-0.1,0.1-0.1,0.1-0.2c0-0.1,0.1-0.2,0.1-0.3c0.1-0.1,0.1-0.3,0.1-0.4c0-0.1,0-0.1,0.1-0.2l0,0c0.5-1.9,0.5-3.9,0-5.8
	c0-0.2-0.1-0.4-0.1-0.7l0,0l0,0c-0.4-2.1-0.9-3.9-1.4-5.6c0-0.1-0.1-0.2-0.1-0.2c-0.5-1.7-1.1-3.4-1.8-5.1l0,0
	c-0.1-0.2-0.2-0.4-0.3-0.7c-0.8-1.9-1.8-3.7-3-5.3l-0.1-0.1l0,0c-0.5-0.7-1-1.3-1.6-1.9l0,0l0,0c-0.8-0.9-1.6-1.7-2.4-2.4
	c2.2-1.3,4.6-1.9,7.2-1.8c1.4,0,2.8,0.2,4.1,0.5l0,0c0.1,0,0.1,0,0.2,0h0.2c2.4,0,2.6-5.2,0.2-6.9c-0.4-0.2-0.9-0.2-1.3-0.2
	c-1.9,0-5.9,0.8-13.7,5.5l-0.2,0.1l-0.3-0.2l0,0l-0.6-0.4c-1.5-1-3.2-1.8-4.9-2.5l0,0c-0.3-0.1-0.5-0.2-0.8-0.3l0,0
	c-1.6-0.6-3.3-1.1-5-1.5l0,0h-0.1l-0.3-0.1l-0.5-0.1c-1.6-0.4-3.4-0.7-5.3-1c-0.2,0-0.6-0.1-0.9-0.1h-0.2
	C162.6,80.1,161.5,80,160.5,79.9L160.5,79.9z"/>
<path class="st8" d="M201.7,56.7c0,0-1.3-3.9-3.2-2s7.1,17.8,15.7,22.5s6.1,2.6-0.1-3.3S201.7,56.7,201.7,56.7z"/>
<linearGradient id="SVGID_00000006705631368139035960000008670000084381852057_" gradientUnits="userSpaceOnUse" x1="210.3179" y1="118.2956" x2="210.3179" y2="105.6456" gradientTransform="matrix(1 0 0 -1 0 163.2756)">
	<stop  offset="0" style="stop-color:#7C3A25"/>
	<stop  offset="0.49" style="stop-color:#8C4638"/>
	<stop  offset="1" style="stop-color:#7C3A25"/>
</linearGradient>
<path style="fill:url(#SVGID_00000006705631368139035960000008670000084381852057_);" d="M211.7,41.4c0,0-3.6,0.9-7.3,14.2l-0.4,2.5
	l4.6,0.1v-2.7c0,0,1.1-5,7.3-8.7C218.3,45.4,214.6,41,211.7,41.4z"/>
<path class="st2" d="M231.9,76.6c-15.2-4.1-31.1-4.1-46.3,0c-0.2,0.5-0.5,1-0.8,1.4c0,14.2,5.1,38.7,20.4,38.7
	c0.3,1.9,1.2,3.3,2.4,3.3s2.1-1.4,2.4-3.4c18.3,0,21.9-25.2,21.9-39.2l0,0C231.9,77.1,231.9,76.8,231.9,76.6z"/>
<path class="st3" d="M223.4,72.4c0,0,8.6-0.2,8.6,5.5c0,7.2-1.2,17.8-4.3,24.9c-2.7,6.2-7.3,13.8-17.7,13.8c0,0-0.5,3.4-2.3,3.4
	c0.7-1.2,1.1-2.5,1.2-3.8C208.9,116.2,223.4,103.1,223.4,72.4z"/>
<path class="st0" d="M184.8,77.9c0,0,0,2.1,0.1,2.9c1.6-0.9,3.3-1.6,5-2.2c4.1-1.1,20.6-3.3,36.1,0.3c1.9,0.4,4.6,1.2,5.8,2.2
	c0,0,0.1-2.6,0.1-3.3c0,0-2-6.6-3.8-7.7c-7.8-4.7-28.3-3.3-36.3,0.9C189.6,72.3,184.8,77.9,184.8,77.9z"/>
<path class="st4" d="M184.8,78c7.4-2.7,15.2-4.1,23.1-4.2c8.2,0,16.3,1.4,23.9,4.2c0,0,10.2-6.5-0.2-13.7c-11.8-8.2-17.6-8.7-23-8.7
	c-4.6,0-10.9,0.5-22.4,8.7C176.7,70.9,181.6,76.2,184.8,78z"/>
<path class="st5" d="M206.4,55.6l-1.2,0.8l-0.5,0.3c-1.3,0.9-2.6,1.7-3.9,2.6l-0.7,0.5c-1.3,1-2.6,2-3.9,3.1
	c-0.2,0.2-0.5,0.4-0.7,0.7c-1.4,1.2-2.7,2.5-3.9,3.9c-0.2,0.3-0.5,0.6-0.7,0.8l-0.3,0.3c-1.3,1.5-2.5,3.2-3.6,4.8
	c-0.3,0.4-0.5,0.8-0.8,1.2c-0.4,0.6-1.4,2.3-1.8,2.9c-0.4-0.2-0.8-0.5-1.1-0.8c0.1-0.2,2-3.1,2.1-3.2l0.8-1.1
	c1.2-1.7,2.5-3.4,3.9-4.9l0.7-0.8c1.2-1.3,2.5-2.6,3.9-3.8c0.2-0.2,0.5-0.4,0.8-0.6c1.3-1.1,2.6-2.1,3.9-3l0.7-0.5
	c1.3-0.9,3.7-2.5,5.1-3.2L206.4,55.6z"/>
<path class="st5" d="M215.2,56.1c-0.2,0.1-1.1,0.5-1.3,0.6c-1.4,0.8-2.6,1.7-3.9,2.6l-0.7,0.5c-1.3,1-2.6,2-3.9,3.1l-0.8,0.7
	c-1.4,1.2-2.7,2.5-3.9,3.9c-0.2,0.3-0.5,0.6-0.7,0.8l-0.3,0.3c-1.3,1.5-2.5,3.2-3.6,4.8c-0.2,0.3-0.7,1.1-0.9,1.4
	c-0.1,0-1.5,0.3-1.7,0.3c0.2-0.4,0.8-1.4,1.1-1.8s0.5-0.7,0.8-1.1c1.2-1.7,2.5-3.4,3.9-4.9l0.7-0.8c1.2-1.3,2.5-2.6,3.9-3.8l0.7-0.6
	c1.3-1.1,2.6-2.1,3.9-3l0.7-0.5c1.3-0.9,2.7-1.7,4.1-2.5l1.1-0.5C214.6,56,215.1,56.1,215.2,56.1z"/>
<path class="st5" d="M221.1,58.1c-0.6,0.4-1.3,0.9-1.9,1.3l-0.7,0.5c-1.3,1-2.6,2-3.9,3.1c-0.2,0.2-0.5,0.4-0.7,0.7
	c-1.4,1.2-2.7,2.5-3.9,3.9c-0.2,0.3-0.5,0.6-0.7,0.8l-0.3,0.3c-1.3,1.5-2.5,3.2-3.6,4.8l-0.1,0.2l-1.6,0.1l0.2-0.3
	c0.2-0.4,0.5-0.7,0.7-1.1c1.2-1.7,2.5-3.4,3.9-4.9l0.7-0.8c1.2-1.3,2.5-2.6,3.9-3.8c0.2-0.2,0.5-0.4,0.8-0.6c1.3-1.1,2.6-2.1,3.9-3
	l0.7-0.5c0.5-0.3,1.2-0.8,1.8-1.1L221.1,58.1z"/>
<path class="st5" d="M226.5,60.9c-0.8,0.6-1.8,1.5-2.5,2.1c-0.2,0.2-0.5,0.4-0.7,0.7c-1.4,1.2-2.7,2.5-3.9,3.9
	c-0.2,0.3-0.5,0.6-0.7,0.8l-0.3,0.3c-1.3,1.5-2.5,3.2-3.6,4.8c0,0-0.1,0.1-0.1,0.1l0,0H214h-0.8h-0.1v-0.1c0.2-0.4,0.5-0.7,0.8-1.1
	c1.2-1.7,2.5-3.4,3.9-4.9l0.7-0.8c1.2-1.3,2.5-2.6,3.9-3.8c0.2-0.2,0.5-0.4,0.8-0.6c0.7-0.6,1.7-1.4,2.4-2
	C225.9,60.6,226.2,60.7,226.5,60.9z"/>
<path class="st5" d="M236.2,69.9c-0.1,0.1-2.9,3.6-2.9,3.7c-0.3,0.4-0.5,0.8-0.8,1.2c-0.5,0.8-1.2,1.9-1.7,2.8
	c-0.1-0.1-0.9-0.3-1.2-0.4c0.5-1,1.6-2.6,2.2-3.5c0.2-0.4,0.5-0.7,0.8-1.1s2.9-3.9,3.1-4.2C235.9,68.9,236.1,69.4,236.2,69.9z"/>
<path class="st5" d="M231.9,64.4c-0.6,0.7-2.7,2.5-3.3,3.2c-0.2,0.3-0.5,0.6-0.7,0.8l-0.3,0.3c-1.3,1.5-2.5,3.2-3.5,4.8
	c-0.2,0.3-1,1.4-1.1,1.7c-0.1,0-1.1-0.2-1.3-0.3l1-1.4c0.2-0.4,0.5-0.7,0.8-1.1c1.2-1.7,2.5-3.4,3.9-4.9l0.7-0.8
	c0.6-0.7,2.5-2.4,3.2-3C231.3,64,231.5,64.1,231.9,64.4z"/>
<path class="st5" d="M233.5,76.6c-0.4-0.6-0.7-1.1-1-1.7c-0.2-0.4-0.5-0.8-0.8-1.2c-1.1-1.7-2.3-3.3-3.6-4.8l-0.3-0.3
	c-0.2-0.3-0.5-0.6-0.7-0.8c-1.2-1.4-2.5-2.7-3.9-3.9l-0.8-0.7c-1.2-1.1-2.5-2.1-3.9-3.1l-0.7-0.5c-1.3-0.9-2.6-1.8-3.9-2.6l-0.5-0.3
	c-0.1,0-1.4-0.8-1.4-0.8l1.2,0.1c1.4,0.7,4,2.3,5.3,3.1l0.7,0.5c1.3,0.9,2.6,1.9,3.9,3L224,63c1.4,1.2,2.7,2.5,3.9,3.8l0.7,0.8
	c1.4,1.6,2.7,3.2,3.9,4.9l0.8,1.1c0.1,0.2,1.1,1.8,1.2,2c-0.1,0.2-0.3,0.3-0.4,0.5C233.9,76.2,233.7,76.4,233.5,76.6z"/>
<path class="st5" d="M225.1,75.9l-1.6-0.4c-0.2-0.3-0.8-1.6-1-1.9c-1.1-1.7-2.3-3.3-3.6-4.8l-0.3-0.3c-0.2-0.3-0.5-0.6-0.7-0.8
	c-1.2-1.4-2.5-2.7-3.9-3.9l-0.8-0.7c-1.2-1.1-2.5-2.1-3.9-3.1l-0.7-0.5c-1.3-0.9-2.6-1.8-3.9-2.6c-0.1-0.1-1.3-0.7-1.4-0.8l0.8-0.1
	c0.1,0,1.1,0.6,1.2,0.6c1.4,0.8,2.8,1.6,4.1,2.5l0.7,0.5c1.3,0.9,2.6,1.9,3.9,3l0.7,0.6c1.4,1.2,2.6,2.5,3.9,3.8l0.7,0.8
	c1.4,1.6,2.7,3.2,3.9,4.9c0.2,0.4,0.5,0.7,0.7,1.1S224.9,75.6,225.1,75.9z"/>
<path class="st5" d="M215,74.2c0,0-1.3-0.1-1.6-0.2l-0.2-0.3c-1.1-1.7-2.3-3.3-3.6-4.8l-0.3-0.3c-0.2-0.3-0.5-0.6-0.7-0.8
	c-1.2-1.4-2.5-2.7-3.9-3.9c-0.2-0.2-0.5-0.5-0.7-0.7c-1.2-1.1-2.5-2.1-3.9-3.1l-0.7-0.5c-0.6-0.4-1.5-1.2-2.1-1.5
	c0.3-0.1,0.5-0.2,0.8-0.3c0.5,0.3,1.5,1.1,2,1.4l0.7,0.5c1.3,0.9,2.6,1.9,3.9,3c0.3,0.2,0.5,0.4,0.8,0.6c1.4,1.2,2.6,2.5,3.9,3.8
	l0.7,0.8c1.4,1.6,2.7,3.2,4,4.9l0.8,1.1C214.8,73.7,215,74.1,215,74.2z"/>
<path class="st5" d="M205.6,73.9l-1.5,0.1l-0.1-0.2c-1.1-1.7-2.3-3.3-3.6-4.8l-0.3-0.3c-0.2-0.3-0.5-0.6-0.7-0.8
	c-1.2-1.4-2.5-2.7-3.9-3.9l-0.8-0.7c-0.7-0.7-2.2-1.8-3-2.4c0.2-0.2,0.6-0.3,0.9-0.5c0.8,0.6,2.1,1.6,2.9,2.3l0.7,0.6
	c1.4,1.2,2.7,2.5,3.9,3.8l0.7,0.8c1.4,1.6,2.7,3.2,3.9,4.9c0.3,0.4,0.5,0.7,0.8,1.1C205.4,73.7,205.5,73.8,205.6,73.9z"/>
<path class="st5" d="M188.8,76.7c-0.4,0.1-1,0.3-1.1,0.3c-0.5-0.9-1-1.3-1.5-2.2c-0.2-0.4-0.5-0.8-0.8-1.2c-1.1-1.6-2.5-3-4.1-4.2
	c0.2-0.5,0.5-1,0.8-1.4c0.2,0.3,3.1,3.1,4,4.5c0.3,0.4,0.5,0.7,0.8,1.1C187.5,74.6,188.2,75.7,188.8,76.7z"/>
<path class="st5" d="M196.8,74.8l-1.4,0.2c-0.2-0.3-0.6-1.1-0.8-1.4c-1.1-1.7-2.3-3.3-3.6-4.8l-0.3-0.3c-0.2-0.3-0.5-0.6-0.7-0.8
	c-0.6-0.7-3.1-2.8-3.8-3.5c0.3-0.2,0.9-0.6,1-0.7c0.7,0.7,2.9,2.7,3.5,3.4l0.7,0.8c1.4,1.6,2.7,3.2,3.9,4.9c0.2,0.4,0.5,0.7,0.7,1.1
	S196.6,74.6,196.8,74.8z"/>
<path class="st6" d="M214.8,42.6c1.6,1.2,1.9,2.6,1.4,3.9c-0.4,1.1-3.3-0.4-3.8-0.8s-2.5-2.3-1.8-3.3S212.7,41,214.8,42.6z"/>
<g>
	<path class="st7" d="M214.2,44.4C214.2,44.4,214.2,44.4,214.2,44.4C214.2,44.5,214.2,44.4,214.2,44.4c-0.1,0.1-0.2,0-0.2,0
		c-0.6-0.4-0.7-1.2,0-0.5s0.8,1.4,0.1,0.9c-1-0.6-1.5-1.8-1-1.9c0.8-0.1,2.7,1.9,2.6,2.8c-0.1,0.5-0.7,0.4-1.1,0.1
		c-1.1-0.6-2-1.5-2.7-2.5c-0.5-0.8-0.7-1.5-0.6-1.1c0,0.1,0,0.2,0.1,0.3c0.6,1.9,3.5,4.4,4.3,3.6c0.6-0.5-0.3-2-1.1-2.8
		c-1.5-1.3-2.3-0.6-1.4,0.7c0.4,0.5,1.1,1.1,1.5,1s-0.2-1.2-0.8-1.5c-0.4-0.2-0.5,0.2-0.1,0.6S214.3,44.6,214.2,44.4
		C214.2,44.3,214.2,44.3,214.2,44.4z"/>
</g>
<path class="st8" d="M191.2,84.6c0,0,0.2-4.1-2.3-3s0.4,19.2,6.8,26.6s4.8,4.6,1.1-3.1S191.2,84.6,191.2,84.6z"/>
<path class="st9" d="M212.1,42.4L212.1,42.4c1.6,0.2,2.9,1.2,3.5,2.6c0.2,0.6,0,0.8-0.1,0.9h-0.1l0,0l0,0l0,0
	c-6.5,3.8-7.6,9.1-7.7,9.3l-0.2,1.2h1.2c0.9,0,2.1,0,3.3,0.1l0,0c0.8,0.1,1.6,0.2,2.4,0.3h0.1h0.1c1.9,0.4,3.8,1,5.7,1.8l0.2,0.1
	l0.4,0.2c1.5,0.7,3,1.5,4.7,2.5l0.1,0l0.1,0.1c1.5,0.9,3.1,1.9,4.8,3h0.1l0,0l0.2,0.1l0.4,0.2c1.5,1,2.8,2.3,3.7,3.8l0.1,0.1v0.1
	l0.1,0.3l0.1,0.2v0.1v0.1v0.1v0.1c0.5,1.7-0.1,3.4-1.6,5.2c-0.1,0.1-0.1,0.2-0.2,0.2c-0.1,0.1-0.1,0.1-0.2,0.2
	c-0.1,0.1-0.1,0.2-0.2,0.2l0.7,0.7l-0.7-0.7c-0.4,0.4-0.9,0.8-1.4,1.2l-0.4,0.3v0.5c0,7.3-1.3,17.7-4.2,24.5
	c-2.6,5.9-6.7,12.8-15.9,13.2h-0.8H209l-0.1,0.8v0.1c-0.1,0.5-0.2,1-0.5,1.5c-0.1,0.3-0.4,0.8-0.7,0.9h-0.2c-0.4,0-1.1-0.9-1.4-2.5
	l-0.1-0.8h-0.9c-14.1,0-19.4-22.9-19.4-37.5l0,0v0v-1.4l-0.9,0.4l-0.4-0.2l-0.2-0.1l-0.3-0.3l0,0l0,0c-1.3-1-3.1-3.2-1.7-6.2
	l0.1-0.3c0.1-0.1,0.2-0.3,0.4-0.6l0.1-0.1l0.1-0.2c1.1-1.5,2.4-2.7,3.9-3.8l0.1-0.1l0.1-0.1c0.2-0.2,0.5-0.3,0.6-0.5l0.1-0.1
	c1.6-1.1,3.1-2,4.5-2.9l0,0l0,0l0.2-0.1l0,0l0.6-0.3c1.5-0.8,3-1.6,4.6-2.3l0.4-0.2l0.4-0.2c1.6-0.7,3.3-1.2,5.1-1.5l0.3-0.1
	l0.4-0.1l0.3,0l0.8-0.1l0.1-0.7v-0.1c3.1-11.2,6.1-13.2,6.6-13.4L212.1,42.4 M212,41.4h-0.4c0,0-3.6,0.9-7.3,14.2v0.2l-0.4,0.1l0,0
	l-0.7,0.1c-1.8,0.3-3.5,0.9-5.2,1.5l0,0c-0.3,0.1-0.5,0.2-0.8,0.3l0,0c-1.6,0.7-3.1,1.5-4.6,2.3l0,0l-0.1,0.1l-0.3,0.2
	c-0.2,0.1-0.3,0.2-0.5,0.3c-1.4,0.8-2.9,1.8-4.6,2.9l-0.8,0.5l-0.2,0.1c-1.6,1.1-3,2.4-4.2,3.9l0,0l-0.2,0.2l-0.1,0.1
	c-0.2,0.3-0.4,0.6-0.6,1l0,0c-1.5,3.3,0.1,5.9,2,7.4l0,0l0.1,0.1l0.4,0.3l0.2,0.2c0.3,0.2,0.6,0.4,0.9,0.5l0,0l0,0l0,0
	c0,14.2,5.1,38.7,20.4,38.7c0.3,1.9,1.2,3.3,2.4,3.3h0.1c0.8-0.1,1.5-0.7,1.8-1.5c0.3-0.6,0.5-1.2,0.6-1.8c0-0.1,0-0.2,0-0.2h0.9
	c9.8-0.4,14.2-7.8,16.8-13.8c3.1-7.1,4.3-17.7,4.3-24.9l0,0c0.6-0.4,1.1-0.8,1.6-1.3l0,0l0,0l0,0c0.2-0.2,0.3-0.3,0.4-0.4
	c0.1-0.1,0.2-0.2,0.3-0.3c1.6-1.6,2.3-3.9,1.8-6.1c0-0.1,0-0.1-0.1-0.2c0-0.1,0-0.1-0.1-0.2c0-0.1-0.1-0.2-0.1-0.3
	c0-0.1-0.1-0.3-0.2-0.4c0-0.1-0.1-0.1-0.1-0.2l0,0c-1-1.7-2.3-3.1-4-4.2l-0.6-0.4l0,0l0,0c-1.7-1.2-3.4-2.2-4.8-3.1l-0.2-0.1
	c-1.6-0.9-3.2-1.7-4.8-2.5l0,0l-0.6-0.3c-1.9-0.8-3.8-1.5-5.8-1.9h-0.2l0,0c-0.9-0.2-1.7-0.3-2.4-0.3l0,0c-1.2-0.1-2.3-0.1-3.4-0.1
	c0,0,1.1-5,7.3-8.7l0,0c0.1,0,0.2-0.1,0.2-0.2c1.9-1.5-1.2-5.3-4-5.3L212,41.4z"/>
<linearGradient id="SVGID_00000167383264103936773920000010399773430241015462_" gradientUnits="userSpaceOnUse" x1="-3524.1267" y1="-3135.4651" x2="-3524.1267" y2="-3148.1052" gradientTransform="matrix(0.8623 -0.5063 -0.5063 -0.8623 1640.6149 -4409.0425)">
	<stop  offset="0" style="stop-color:#7C3A25"/>
	<stop  offset="0.49" style="stop-color:#8C4638"/>
	<stop  offset="1" style="stop-color:#7C3A25"/>
</linearGradient>
<path style="fill:url(#SVGID_00000167383264103936773920000010399773430241015462_);" d="M188.6,75.4c0,0-2.6,2.6,0.9,15.9l1,2.3
	l4-2.2l-1.3-2.3c0,0-1.6-4.9,1.9-11.2C196.3,75.6,190.9,73.6,188.6,75.4z"/>
<path class="st2" d="M223.8,95.6c-15.1,4.2-28.9,12.3-39.9,23.4c0.1,0.5,0.1,1.1,0.1,1.6c7.2,12.2,24,30.8,37.2,23
	c1.2,1.5,2.8,2.2,3.7,1.7s1.1-2.3,0.3-4.1c15.8-9.3,6.1-32.8-1-44.9l0,0L223.8,95.6z"/>
<path class="st3" d="M214.4,96.2c0,0,7.3-4.5,10.2,0.4c3.6,6.2,7.9,16,8.9,23.7c0.8,6.7,0.7,15.6-8.3,20.9c0,0,1.3,3.2-0.3,4.1
	c0-1.3-0.3-2.7-0.9-3.9C224,141.4,229.9,122.7,214.4,96.2z"/>
<path class="st0" d="M183.9,120.6c0,0,1,1.8,1.6,2.5c0.9-1.6,1.9-3,3.2-4.4c3-3,16.1-13.3,31.3-18c1.9-0.6,4.6-1.2,6.1-1.1
	c0,0-1.2-2.3-1.6-2.9c0,0-5-4.7-7.1-4.7c-9.1-0.1-26,11.5-30.8,19.2C185.2,113.3,183.9,120.6,183.9,120.6z"/>
<path class="st4" d="M183.9,120.6c5-6.1,11.1-11.2,17.8-15.3c7-4.2,14.7-7,22.8-8.5c0,0,5.6-10.8-7.1-11.7
	c-14.3-1.1-19.6,1.4-24.3,4.1c-3.9,2.3-9.1,6-14.9,18.8C173.3,118.7,180.2,120.8,183.9,120.6z"/>
<path class="st5" d="M191.2,90.4c0,0.1-0.6,1.2-0.6,1.3s-0.2,0.3-0.3,0.5c-0.7,1.4-1.4,2.8-2,4.3c-0.1,0.3-0.2,0.6-0.4,0.8
	c-0.6,1.5-1.2,3.1-1.8,4.7c-0.1,0.3-0.2,0.6-0.3,1c-0.6,1.8-1,3.6-1.4,5.4c-0.1,0.4-0.1,0.7-0.2,1.1c0,0.2-0.1,0.3-0.1,0.4
	c-0.3,2-0.5,4-0.6,6c0,0.5,0,0.9-0.1,1.4c0,0.7-0.1,2.7-0.1,3.4c-0.5,0-0.9,0-1.4-0.1l0.2-3.9c0-0.4,0.1-0.9,0.1-1.3
	c0.2-2.1,0.5-4.2,0.9-6.2c0.1-0.4,0.1-0.7,0.2-1.1c0.4-1.8,0.9-3.5,1.4-5.2c0.1-0.3,0.2-0.6,0.3-0.9c0.6-1.6,1.2-3.1,1.9-4.6
	l0.4-0.8c0.7-1.4,1.9-4,2.8-5.3L191.2,90.4z"/>
<path class="st5" d="M199.1,86.3c-0.1,0.2-0.7,1-0.8,1.2c-0.7,1.4-1.4,2.8-2,4.3l-0.4,0.8c-0.6,1.5-1.2,3.1-1.8,4.7
	c-0.1,0.3-0.2,0.6-0.3,1c-0.6,1.8-1,3.6-1.4,5.4c-0.1,0.4-0.1,0.7-0.2,1.1c0,0.2-0.1,0.3-0.1,0.5c-0.3,2-0.5,4-0.6,6
	c0,0.3,0,1.3,0,1.7l-1.4,1.1c0-0.4,0-1.6,0-2.1s0.1-0.9,0.1-1.3c0.2-2.1,0.5-4.2,0.9-6.2c0.1-0.3,0.1-0.7,0.2-1.1
	c0.4-1.8,0.9-3.5,1.4-5.2c0.1-0.3,0.2-0.6,0.3-0.9c0.5-1.6,1.2-3.1,1.9-4.6c0.1-0.3,0.2-0.5,0.4-0.8c0.7-1.4,1.5-2.9,2.3-4.2
	c0-0.1,0.6-0.9,0.7-0.9S198.9,86.4,199.1,86.3z"/>
<path class="st5" d="M205.2,85.1c-0.3,0.6-0.7,1.4-0.9,2c-0.1,0.3-0.2,0.6-0.4,0.8c-0.7,1.5-1.3,3.1-1.8,4.7c-0.1,0.3-0.2,0.6-0.3,1
	c-0.6,1.8-1,3.6-1.4,5.4c-0.1,0.4-0.1,0.7-0.2,1.1c0,0.2,0,0.3-0.1,0.4c-0.3,2-0.5,4-0.6,6c0,0,0,0.2,0,0.2l-1.3,0.9
	c0,0,0-0.3,0-0.3c0-0.4,0.1-0.9,0.1-1.3c0.2-2.1,0.5-4.2,0.9-6.2c0.1-0.3,0.1-0.7,0.2-1.1c0.4-1.8,0.9-3.5,1.4-5.2
	c0.1-0.3,0.2-0.6,0.3-0.9c0.6-1.6,1.2-3.1,1.9-4.6l0.4-0.8c0.3-0.6,0.7-1.3,0.9-1.9L205.2,85.1z"/>
<path class="st5" d="M211.2,84.8c-0.4,0.9-0.8,2.2-1.1,3.1c-0.1,0.3-0.2,0.6-0.3,1c-0.6,1.8-1,3.6-1.4,5.4c-0.1,0.4-0.1,0.7-0.2,1.1
	c0,0.2-0.1,0.3-0.1,0.5c-0.3,2-0.6,4-0.6,6c0,0,0,0.1,0,0.1l0,0l-0.6,0.3l-0.7,0.4h-0.1v-0.1l0.1-1.3c0.2-2.1,0.5-4.2,0.9-6.2
	c0.1-0.4,0.1-0.7,0.2-1.1c0.4-1.8,0.9-3.5,1.4-5.2c0.1-0.3,0.2-0.6,0.3-0.9c0.3-0.9,0.8-2.1,1.1-2.9
	C210.6,84.8,210.9,84.8,211.2,84.8z"/>
<path class="st5" d="M224.1,87.7c0,0.1-0.6,4.6-0.6,4.7c0,0.5,0,0.9-0.1,1.4c0,1-0.1,2.2-0.1,3.2c-0.1,0-0.9,0.2-1.3,0.2
	c0-1.1,0-3,0.1-4.1c0-0.4,0.1-0.9,0.1-1.3s0.6-4.8,0.6-5.2C223.3,86.9,223.8,87.3,224.1,87.7z"/>
<path class="st5" d="M217.7,85.1c-0.2,0.9-1.1,3.5-1.2,4.4c-0.1,0.4-0.1,0.7-0.2,1.1c0,0.2-0.1,0.3-0.1,0.4c-0.3,2-0.5,4-0.6,6
	c0,0.4-0.1,1.7-0.1,2.1c-0.1,0-1.1,0.3-1.3,0.4c0-0.3,0.1-1.5,0.1-1.7c0-0.4,0-0.9,0.1-1.3c0.2-2.1,0.5-4.2,0.9-6.2
	c0.1-0.3,0.1-0.7,0.2-1.1c0.2-0.9,0.9-3.3,1.2-4.2C216.9,85,217.2,85,217.7,85.1z"/>
<path class="st5" d="M225.2,94.7l-1.8-1c-0.4-0.2-0.8-0.4-1.2-0.6c-1.8-0.9-3.6-1.7-5.5-2.4l-0.4-0.2c-0.4-0.1-0.7-0.2-1.1-0.4
	c-1.8-0.6-3.5-1-5.4-1.4c-0.3-0.1-0.7-0.1-1-0.2c-1.6-0.3-3.3-0.6-4.9-0.7l-0.9-0.1c-1.6-0.1-3.1-0.2-4.7-0.3h-0.6
	c-0.1,0-1.6,0-1.6,0l1.2-0.5c1.6-0.1,4.6-0.1,6.2,0l0.9,0.1c1.6,0.1,3.3,0.3,4.9,0.6l1,0.2c1.8,0.3,3.5,0.8,5.3,1.3l1,0.3
	c2,0.6,4,1.4,5.9,2.3c0.4,0.2,0.8,0.4,1.2,0.6c0.2,0.1,1.8,1,2,1.1c0,0.2-0.1,0.4-0.1,0.6C225.3,94.3,225.3,94.5,225.2,94.7z"/>
<path class="st5" d="M217.6,98.4c-0.2,0.1-1.5,0.5-1.6,0.5c-0.3-0.2-1.5-1-1.8-1.1c-1.8-0.9-3.7-1.7-5.5-2.4l-0.4-0.2l-1.1-0.3
	c-1.8-0.6-3.5-1-5.4-1.4l-1-0.2c-1.6-0.3-3.3-0.6-5-0.7c-0.3,0-0.6-0.1-0.9-0.1c-1.6-0.2-3.1-0.2-4.7-0.3c-0.2,0-1.5,0.1-1.6,0.1
	c0.1-0.1,0.5-0.4,0.6-0.5l1.4-0.1c1.6-0.1,3.2-0.1,4.8,0c0.3,0,0.6,0,0.9,0.1c1.6,0.1,3.3,0.3,4.9,0.6l1,0.2
	c1.8,0.3,3.5,0.8,5.3,1.3l1,0.3c2,0.6,4,1.4,5.9,2.3l1.2,0.6C215.9,97.3,217.2,98.2,217.6,98.4z"/>
<path class="st5" d="M208,102c-0.1,0-1.2,0.6-1.4,0.7l-0.4-0.2c-1.8-0.9-3.6-1.7-5.5-2.4l-0.4-0.2c-0.3-0.1-0.7-0.2-1-0.4
	c-1.8-0.6-3.5-1-5.4-1.4l-1-0.2c-1.6-0.3-3.3-0.6-4.9-0.7l-0.9-0.1c-0.7-0.1-1.9-0.2-2.6-0.3c0.2-0.2,0.3-0.5,0.5-0.7
	c0.6,0,1.8,0.2,2.4,0.2l0.9,0.1c1.6,0.1,3.3,0.3,4.9,0.6l1,0.2c1.8,0.3,3.5,0.8,5.3,1.3l1,0.3c2,0.6,4,1.4,5.9,2.3
	c0.4,0.2,0.8,0.4,1.2,0.6L208,102z"/>
<path class="st5" d="M199.7,106.6l-1.2,0.8l-0.2-0.1c-1.8-0.9-3.7-1.7-5.5-2.4l-0.4-0.2c-0.4-0.1-0.7-0.2-1.1-0.4
	c-1.8-0.6-3.5-1-5.4-1.4c-0.3-0.1-0.7-0.1-1-0.2c-1-0.2-2.8-0.4-3.8-0.6c0.1-0.3,0.4-0.6,0.5-0.9c0.9,0.1,2.6,0.3,3.6,0.5l1,0.2
	c1.8,0.3,3.5,0.8,5.3,1.3c0.4,0.1,0.7,0.2,1,0.3c2,0.6,4,1.4,5.9,2.3l1.2,0.6L199.7,106.6z"/>
<path class="st5" d="M186.7,117.5c-0.3,0.3-0.7,0.8-0.8,0.9c-0.9-0.5-1.5-0.7-2.4-1.1c-0.4-0.2-0.8-0.4-1.2-0.6
	c-1.8-0.8-3.7-1.3-5.7-1.5c-0.1-0.5-0.1-1.1,0-1.6c0.3,0.2,4.3,1.1,5.8,1.8l1.2,0.6C184.5,116.3,185.7,116.9,186.7,117.5z"/>
<path class="st5" d="M192.6,111.8l-1.1,0.9c-0.3-0.2-1-0.6-1.4-0.8c-1.8-0.9-3.7-1.7-5.6-2.3c-0.1-0.1-0.3-0.1-0.4-0.2
	c-0.3-0.1-0.7-0.2-1.1-0.4c-0.9-0.3-4.1-0.9-5-1.1c0.1-0.4,0.4-1,0.5-1.1c0.9,0.2,3.8,0.8,4.7,1.1l1,0.3c2,0.6,4,1.4,5.9,2.3
	c0.4,0.2,0.8,0.4,1.2,0.6C191.8,111.3,192.4,111.7,192.6,111.8z"/>
<path class="st6" d="M191.8,74.9c2,0.2,2.9,1.2,3.2,2.7c0.2,1.2-3,1.3-3.7,1.2s-3.3-0.8-3.2-1.9S189.2,74.6,191.8,74.9z"/>
<g>
	<path class="st7" d="M192.2,76.7L192.2,76.7c0,0.1,0,0.1-0.1,0.1c0,0-0.1,0-0.1,0c-0.7,0-1.2-0.6-0.2-0.5s1.4,0.8,0.5,0.8
		c-1.2,0-2.2-0.8-1.9-1.1c0.6-0.4,3.3,0.2,3.6,1.2c0.2,0.5-0.4,0.6-0.9,0.7c-1.3,0-2.5-0.3-3.6-0.8c-0.8-0.4-1.3-0.9-1.1-0.7
		c0.1,0.1,0.1,0.1,0.2,0.2c1.5,1.3,5.2,2,5.6,0.9c0.3-0.8-1.3-1.6-2.4-1.8c-1.9-0.4-2.3,0.6-0.8,1.3c0.6,0.2,1.5,0.4,1.7,0.1
		s-0.7-0.9-1.4-0.9c-0.4,0-0.4,0.4,0.1,0.6S192.4,76.9,192.2,76.7C192.2,76.7,192.2,76.7,192.2,76.7z"/>
</g>
<path class="st8" d="M192.8,123.1c0,0-1.9-3.7-3.5-1.4s10,16.4,19.3,19.5s6.5,1.5-0.6-3.2S192.8,123.1,192.8,123.1z"/>
<path class="st9" d="M191,75.7c1.1,0,2.2,0.4,3,1.2c0.1,0.1,0.2,0.3,0.1,0.5v0.1l0,0v0.1l0,0c-3.6,6.6-2,11.7-1.9,11.9l0.4,1.2
	l1.1-0.6c0.8-0.4,1.8-1,2.9-1.6c0.7-0.3,1.4-0.6,2.2-0.9h0.1l0,0h0.1c1.9-0.7,3.8-1.1,5.8-1.3h0.2l0.5-0.1c1.8-0.2,3.5-0.3,5.3-0.3
	h0.3c1.7,0,3.6,0.1,5.6,0.2h0.3h0.5c1.8,0.1,3.5,0.6,5.1,1.4l0.1,0.1h0.1l0.3,0.2L223,88h0.1l0.1,0.1v0.1l0.1,0.1
	c1.2,1.2,1.7,3,1.2,5.3c0,0.1,0,0.2-0.1,0.3c0,0.1,0,0.2-0.1,0.3s0,0.2-0.1,0.3l0,0c-0.2,0.6-0.4,1.2-0.6,1.8l-0.2,0.5l0.3,0.5l0,0
	l0,0c3.7,6.3,7.8,15.9,8.8,23.2c0.8,6.4,0.7,14.4-7.1,19.4l-0.7,0.4l-0.7,0.4l0.3,0.8l0.1,0.1c0.2,0.5,0.3,1,0.4,1.6
	c0.1,0.4,0,0.8-0.2,1.1l-0.1,0.1l0,0c-0.1,0-0.1,0-0.2,0c-0.9-0.2-1.7-0.7-2.2-1.5l-0.5-0.7l-0.7,0.4c-1.9,1.1-4,1.7-6.2,1.7
	c-11.1,0-23.7-14.4-29.5-24.2l0,0l-0.2-0.2l-0.8-1.2l-0.6,0.7h-0.4h-0.2h-0.4h-0.1c-1.6-0.3-4.3-1.2-4.6-4.5v-0.1c0-0.3,0-0.7,0-1
	v-0.1v-0.3c0.2-1.8,0.7-3.5,1.5-5.2v-0.1v-0.1l0.3-0.7v-0.1c0.8-1.7,1.6-3.3,2.4-4.8l0,0l0,0l0.1-0.1l0,0l0.4-0.7
	c0.9-1.5,1.8-2.9,2.8-4.3l0.2-0.3l0.3-0.4c1.1-1.4,2.4-2.7,3.8-3.9l0.2-0.2l0.3-0.2l0.3-0.2l0.6-0.5l-0.3-0.7l-0.1-0.1
	c-3-11.2-1.4-14.5-1.1-14.9C189.8,75.8,190.4,75.7,191,75.7 M191,74.7c-0.9,0-1.7,0.2-2.4,0.7c0,0-2.6,2.6,0.9,15.9l0.1,0.2
	l-0.3,0.2l0,0l-0.5,0.4c-1.4,1.2-2.6,2.6-3.7,4l0,0c-0.2,0.2-0.4,0.5-0.5,0.7l0,0c-1,1.4-2,2.8-2.8,4.3l0,0l-0.1,0.1l-0.2,0.3
	c-0.1,0.1-0.2,0.3-0.2,0.5c-0.8,1.4-1.6,3-2.5,4.8c-0.1,0.2-0.2,0.5-0.4,0.8l-0.1,0.2c-0.8,1.7-1.4,3.6-1.6,5.5l0,0
	c0,0.1,0,0.2,0,0.3s0,0.1,0,0.2c0,0.4,0,0.8,0,1.2l0,0c0.3,3.6,3.1,5,5.5,5.4l0,0h0.1l0.5,0.1h0.3h0.7h0.4l0,0l0,0
	c6,10.2,18.8,24.9,30.5,24.9c2.4,0,4.7-0.6,6.7-1.8c0.7,1,1.8,1.7,3,1.9c0.3,0,0.5-0.1,0.8-0.2h0.1l0,0c0.7-0.5,1-1.3,0.8-2.1
	c-0.1-0.6-0.2-1.2-0.4-1.8l-0.1-0.1c0.2-0.1,0.5-0.3,0.7-0.5c8.2-5.3,8.3-13.9,7.5-20.4c-1-7.7-5.2-17.4-8.9-23.7l0,0
	c0.3-0.6,0.5-1.3,0.7-1.9l0,0v-0.1c0.1-0.2,0.1-0.4,0.1-0.6s0.1-0.3,0.1-0.4c0.6-2.2,0-4.5-1.5-6.2c0,0-0.1-0.1-0.1-0.1l-0.2-0.1
	l-0.2-0.2c-0.1-0.1-0.2-0.2-0.4-0.2l-0.2-0.1l0,0c-1.7-1-3.6-1.5-5.6-1.6h-0.7l0,0c-2.1-0.2-4-0.2-5.7-0.2h-0.3
	c-1.8,0-3.6,0.1-5.4,0.3l0,0c-0.2,0-0.5,0.1-0.7,0.1c-2,0.2-4.1,0.7-6,1.4l-0.1,0.1l0,0c-0.8,0.3-1.5,0.6-2.3,1l0,0
	c-1.1,0.5-2,1-3,1.6c0,0-1.6-4.9,1.9-11.2l0,0c0.1-0.1,0.1-0.2,0.1-0.2c0.6-1.7-1.8-3-4-3L191,74.7z"/>
<linearGradient id="SVGID_00000023241549811270672510000017794539667659644813_" gradientUnits="userSpaceOnUse" x1="270.139" y1="111.8656" x2="270.139" y2="99.2156" gradientTransform="matrix(1 0 0 -1 0 163.2756)">
	<stop  offset="0" style="stop-color:#7C3A25"/>
	<stop  offset="0.49" style="stop-color:#8C4638"/>
	<stop  offset="1" style="stop-color:#7C3A25"/>
</linearGradient>
<path style="fill:url(#SVGID_00000023241549811270672510000017794539667659644813_);" d="M271.5,47.8c0,0-3.6,0.9-7.3,14.2l-0.3,2.5
	l4.5,0.1l0-2.7c0,0,1-5,7.3-8.7C278.1,51.8,274.4,47.4,271.5,47.8z"/>
<path class="st2" d="M291.7,83c-15.2-4.1-31.1-4.1-46.3,0c-0.2,0.5-0.5,1-0.8,1.4c0,14.2,5.1,38.7,20.4,38.7
	c0.3,1.9,1.2,3.3,2.4,3.3s2.1-1.4,2.4-3.4c18.3,0,21.9-25.2,21.9-39.2l0,0C291.7,83.5,291.7,83.2,291.7,83z"/>
<path class="st3" d="M283.2,78.8c0,0,8.5-0.2,8.5,5.5c0,7.2-1.2,17.8-4.3,24.9c-2.7,6.2-7.3,13.8-17.7,13.8c0,0-0.5,3.4-2.3,3.4
	c0.7-1.2,1.1-2.5,1.2-3.8C268.7,122.7,283.2,109.5,283.2,78.8z"/>
<path class="st0" d="M244.6,84.4c0,0,0,2.1,0.1,2.9c1.6-0.9,3.2-1.6,4.9-2.2c4.1-1.1,20.6-3.3,36.1,0.3c1.9,0.4,4.6,1.2,5.8,2.2
	c0,0,0.1-2.6,0.1-3.3c0,0-2-6.6-3.8-7.7c-7.8-4.7-28.3-3.3-36.3,0.9C249.4,78.8,244.6,84.4,244.6,84.4z"/>
<path class="st4" d="M244.6,84.4c7.4-2.7,15.2-4.1,23.1-4.2c8.2,0,16.3,1.4,23.9,4.2c0,0,10.2-6.5-0.2-13.7
	c-11.8-8.2-17.6-8.7-23-8.7c-4.6,0-10.9,0.5-22.4,8.7C236.5,77.4,241.4,82.7,244.6,84.4z"/>
<path class="st5" d="M266.2,62l-1.2,0.8l-0.5,0.3c-1.3,0.8-2.6,1.7-3.9,2.6l-0.7,0.5c-1.3,1-2.6,2-3.9,3.1c-0.3,0.2-0.5,0.4-0.8,0.7
	c-1.4,1.2-2.7,2.5-3.9,3.9c-0.2,0.3-0.5,0.6-0.7,0.8l-0.3,0.3c-1.3,1.5-2.5,3.2-3.6,4.8c-0.3,0.4-0.5,0.8-0.8,1.2
	c-0.4,0.6-1.4,2.3-1.8,2.9c-0.4-0.2-0.8-0.5-1.1-0.8l2.1-3.2l0.8-1.1c1.2-1.7,2.5-3.4,3.9-4.9l0.7-0.8c1.2-1.3,2.5-2.6,3.9-3.8
	l0.8-0.6c1.3-1.1,2.6-2.1,3.9-3l0.7-0.5c1.3-0.9,3.7-2.5,5.1-3.2L266.2,62z"/>
<path class="st5" d="M275,62.5c-0.1,0.1-1.1,0.5-1.3,0.6c-1.3,0.8-2.6,1.7-3.9,2.6l-0.7,0.5c-1.3,1-2.6,2-3.9,3.1l-0.7,0.7
	c-1.4,1.2-2.7,2.5-3.9,3.9c-0.2,0.3-0.5,0.6-0.7,0.8l-0.3,0.3c-1.3,1.5-2.4,3.2-3.5,4.8c-0.2,0.3-0.7,1.1-0.9,1.4
	c-0.1,0-1.5,0.3-1.7,0.3c0.2-0.4,0.8-1.4,1.1-1.8s0.5-0.7,0.8-1.1c1.2-1.7,2.5-3.4,3.9-4.9l0.7-0.8c1.2-1.3,2.5-2.6,3.9-3.8l0.8-0.6
	c1.3-1.1,2.6-2.1,3.9-3c0.2-0.2,0.5-0.3,0.7-0.5c1.3-0.9,2.7-1.7,4.1-2.5l1.1-0.5C274.4,62.4,274.9,62.5,275,62.5z"/>
<path class="st5" d="M281,64.5l-1.9,1.3l-0.7,0.5c-1.3,1-2.6,2-3.9,3.1c-0.3,0.2-0.5,0.4-0.8,0.7c-1.4,1.2-2.7,2.6-3.9,3.9
	c-0.2,0.3-0.5,0.6-0.7,0.8l-0.3,0.3c-1.3,1.5-2.5,3.2-3.6,4.8l-0.2,0.2l-1.5,0.1l0.2-0.3c0.2-0.4,0.5-0.7,0.8-1.1
	c1.2-1.7,2.5-3.4,3.9-4.9c0.2-0.3,0.5-0.5,0.7-0.8c1.2-1.3,2.5-2.6,3.9-3.8l0.8-0.6c1.3-1.1,2.6-2.1,3.9-3l0.7-0.5
	c0.5-0.3,1.2-0.8,1.8-1.1L281,64.5z"/>
<path class="st5" d="M286.3,67.3c-0.8,0.6-1.8,1.5-2.5,2.1l-0.7,0.7c-1.4,1.2-2.7,2.5-3.9,3.9c-0.2,0.3-0.5,0.6-0.7,0.8l-0.3,0.3
	c-1.3,1.5-2.5,3.2-3.6,4.8l-0.1,0.1l0,0c-0.2,0-0.4,0-0.6,0H273h0c0,0,0,0,0-0.1c0.2-0.4,0.5-0.7,0.8-1.1c1.2-1.7,2.5-3.4,3.9-4.9
	l0.7-0.8c1.2-1.3,2.5-2.6,3.9-3.8l0.8-0.6c0.7-0.6,1.7-1.4,2.5-2C285.7,67,286,67.2,286.3,67.3z"/>
<path class="st5" d="M296,76.4c-0.1,0.1-2.9,3.6-2.9,3.7c-0.3,0.4-0.5,0.8-0.8,1.2c-0.5,0.8-1.2,1.9-1.7,2.8
	c-0.1-0.1-0.9-0.3-1.2-0.4c0.5-0.9,1.5-2.6,2.2-3.5l0.8-1.1c0.2-0.3,2.9-3.9,3.1-4.2C295.7,75.3,295.9,75.8,296,76.4z"/>
<path class="st5" d="M291.7,70.9c-0.6,0.7-2.7,2.5-3.3,3.2c-0.2,0.3-0.5,0.6-0.7,0.8l-0.3,0.3c-1.3,1.5-2.5,3.2-3.6,4.8
	c-0.2,0.3-1,1.4-1.2,1.7c-0.1,0-1.1-0.2-1.3-0.3c0.1-0.2,0.8-1.2,1-1.4s0.5-0.7,0.8-1.1c1.2-1.7,2.5-3.4,3.9-4.9l0.7-0.8
	c0.6-0.7,2.5-2.4,3.2-3C291.1,70.4,291.3,70.6,291.7,70.9z"/>
<path class="st5" d="M293.3,83c-0.4-0.6-0.7-1.1-1-1.7c-0.2-0.4-0.5-0.8-0.8-1.2c-1.1-1.7-2.3-3.3-3.5-4.8l-0.3-0.3
	c-0.2-0.3-0.5-0.6-0.7-0.8c-1.2-1.4-2.5-2.7-3.9-3.9c-0.2-0.2-0.5-0.4-0.8-0.7c-1.2-1.1-2.5-2.1-3.9-3.1l-0.7-0.5
	c-1.3-0.9-2.6-1.8-3.9-2.6l-0.5-0.3c-0.1,0-1.4-0.8-1.4-0.8l1.2,0.1c1.4,0.7,4,2.3,5.3,3.1l0.7,0.5c1.4,0.9,2.7,1.9,3.9,3
	c0.2,0.2,0.5,0.4,0.7,0.6c1.4,1.2,2.7,2.5,3.9,3.8c0.2,0.3,0.5,0.5,0.7,0.8c1.4,1.6,2.7,3.2,3.9,4.9l0.8,1.1c0.1,0.2,1.1,1.8,1.2,2
	c0,0-0.2,0.3-0.4,0.5L293.3,83z"/>
<path class="st5" d="M284.9,82.3l-1.6-0.3c-0.2-0.3-0.8-1.6-1-1.9c-1.1-1.7-2.3-3.3-3.6-4.8l-0.3-0.3c-0.2-0.3-0.5-0.6-0.7-0.8
	c-1.2-1.4-2.5-2.7-3.9-3.9l-0.8-0.7c-1.2-1.1-2.5-2.1-3.9-3.1l-0.7-0.5c-1.3-0.9-2.6-1.8-3.9-2.6c-0.2-0.1-1.3-0.7-1.5-0.8l0.8-0.1
	l1.2,0.6c1.4,0.8,2.8,1.6,4.1,2.5l0.7,0.5c1.4,0.9,2.7,1.9,3.9,3l0.8,0.6c1.4,1.2,2.7,2.5,3.9,3.8c0.2,0.3,0.5,0.5,0.7,0.8
	c1.4,1.6,2.7,3.2,3.9,4.9l0.8,1.1C284,80.5,284.7,82,284.9,82.3z"/>
<path class="st5" d="M274.8,80.6c0,0-1.3-0.1-1.6-0.2c0,0-0.2-0.3-0.2-0.3c-1.1-1.7-2.3-3.3-3.6-4.8c-0.1-0.1-0.2-0.2-0.3-0.3
	c-0.2-0.3-0.5-0.6-0.7-0.8c-1.2-1.4-2.5-2.7-3.9-3.9l-0.8-0.7c-1.2-1.1-2.5-2.1-3.9-3.1l-0.7-0.5c-0.5-0.4-1.5-1.2-2.1-1.6
	c0.3-0.1,0.5-0.2,0.8-0.3c0.5,0.3,1.5,1.1,2,1.4l0.7,0.5c1.4,0.9,2.6,1.9,3.9,3c0.2,0.2,0.5,0.4,0.7,0.6c1.4,1.2,2.7,2.5,3.9,3.8
	l0.7,0.8c1.4,1.6,2.7,3.2,3.9,4.9c0.3,0.4,0.5,0.7,0.8,1.1C274.5,80.2,274.7,80.6,274.8,80.6z"/>
<path class="st5" d="M265.3,80.3l-1.5,0.1c0,0-0.1-0.2-0.1-0.2c-1.1-1.7-2.3-3.3-3.6-4.8l-0.3-0.3c-0.2-0.3-0.5-0.6-0.7-0.8
	c-1.2-1.4-2.5-2.7-3.9-3.9c-0.2-0.2-0.5-0.4-0.8-0.7c-0.7-0.7-2.2-1.8-3-2.4c0.2-0.2,0.6-0.3,0.9-0.5c0.8,0.6,2.1,1.6,2.8,2.3
	l0.8,0.6c1.3,1.2,2.6,2.5,3.9,3.8c0.2,0.3,0.5,0.5,0.7,0.8c1.4,1.6,2.7,3.2,3.9,4.9l0.8,1.1L265.3,80.3z"/>
<path class="st5" d="M248.6,83.1c-0.4,0.1-1,0.3-1.1,0.3c-0.5-0.9-1-1.3-1.5-2.2c-0.2-0.4-0.5-0.8-0.8-1.2c-1.2-1.6-2.6-3-4.2-4.2
	c0.2-0.5,0.5-1,0.8-1.4c0.2,0.3,3.1,3.1,4.1,4.5l0.8,1.1C247.3,81,248,82.2,248.6,83.1z"/>
<path class="st5" d="M256.6,81.2c-0.2,0-1.2,0.2-1.4,0.2c-0.2-0.3-0.6-1.1-0.8-1.4c-1.1-1.7-2.3-3.3-3.6-4.8
	c-0.1-0.1-0.2-0.2-0.3-0.3c-0.2-0.3-0.5-0.6-0.7-0.8c-0.6-0.7-3.1-2.8-3.8-3.5c0.3-0.2,0.9-0.6,1-0.7c0.7,0.7,2.9,2.7,3.5,3.4
	l0.7,0.8c1.4,1.6,2.7,3.2,3.9,4.9l0.8,1.1C256.1,80.3,256.5,81,256.6,81.2z"/>
<path class="st6" d="M274.6,49c1.6,1.2,1.9,2.6,1.4,3.9c-0.4,1.1-3.3-0.4-3.8-0.8s-2.5-2.3-1.8-3.3S272.5,47.4,274.6,49z"/>
<g>
	<path class="st7" d="M274,50.8C274,50.8,274,50.8,274,50.8C274,50.9,274,50.9,274,50.8c-0.1,0.1-0.2,0-0.2,0
		c-0.6-0.4-0.7-1.2,0-0.5s0.8,1.4,0.1,0.9c-1-0.6-1.5-1.8-1-1.9c0.7-0.1,2.7,1.8,2.6,2.8c0,0.5-0.7,0.4-1.1,0.1
		c-1.1-0.6-2-1.5-2.7-2.5c-0.5-0.8-0.7-1.5-0.6-1.1c0,0.1,0,0.2,0,0.3c0.6,1.9,3.5,4.4,4.4,3.6c0.6-0.5-0.3-2-1.2-2.8
		c-1.5-1.3-2.3-0.6-1.4,0.7c0.4,0.5,1.1,1.1,1.5,1s-0.2-1.2-0.8-1.5c-0.4-0.2-0.5,0.2-0.2,0.6S274,51.1,274,50.8
		C274,50.8,274,50.8,274,50.8z"/>
</g>
<path class="st8" d="M251,91c0,0,0.2-4.1-2.3-3s0.4,19.2,6.8,26.6s4.8,4.6,1.1-3.1S251,91,251,91z"/>
<path class="st9" d="M271.9,48.8L271.9,48.8c1.5,0.2,2.9,1.2,3.5,2.6c0.2,0.6,0,0.8-0.1,0.9l0,0l0,0h-0.1l0,0
	c-6.5,3.8-7.7,9.1-7.7,9.3l-0.2,1.2h1.2c0.9,0,2.1,0,3.3,0.1l0,0c0.8,0.1,1.6,0.2,2.4,0.3h0.1h0.1c1.9,0.4,3.8,1,5.7,1.8l0.2,0.1
	l0.4,0.2c1.6,0.7,3.2,1.6,4.7,2.4h0.1l0.1,0.1c1.5,0.9,3.1,1.9,4.8,3l0,0l0,0l0.2,0.1l0.4,0.3c1.5,1,2.8,2.3,3.7,3.8l0,0.1l0,0v0.1
	c0,0.1,0.1,0.2,0.1,0.3l0.1,0.2v0.1v0.1V76v0.1c0.5,1.7-0.1,3.4-1.6,5.2c-0.1,0.1-0.1,0.2-0.2,0.2l-0.2,0.2l-0.2,0.2h0l0,0
	c-0.4,0.4-0.9,0.8-1.4,1.2l-0.4,0.3v0.5c0,7.3-1.3,17.7-4.2,24.5c-2.5,5.9-6.7,12.8-15.9,13.2h-0.8h-0.9l-0.1,0.8v0.1
	c-0.1,0.5-0.2,1-0.5,1.5c-0.1,0.3-0.4,0.8-0.8,0.9h-0.2c-0.4,0-1.1-0.9-1.4-2.5l-0.1-0.8H265c-14,0-19.3-22.8-19.4-37.4l0,0v-0.3
	v-1.5l-0.9,0.4c-0.1-0.1-0.3-0.2-0.4-0.2l-0.2-0.1l-0.3-0.3h-0.1l0,0c-1.2-1-3.1-3.2-1.7-6.2l0,0l0,0c0.1-0.3,0.3-0.6,0.5-0.8
	l0.1-0.1l0.1-0.2c1.1-1.4,2.4-2.7,3.9-3.7l0.1-0.1l0.1-0.1l0.6-0.4l0.1-0.1c1.5-1.1,3.1-2,4.5-2.9l0,0l0,0c0.1-0.1,0.2-0.1,0.3-0.2
	l0,0l0.5-0.3c1.5-0.8,3-1.6,4.6-2.3l0.4-0.2l0.4-0.2c1.6-0.7,3.3-1.2,5.1-1.5l0.3-0.1l0.4-0.1l0.3,0l0.7-0.1l0.1-0.8v-0.1
	c3.1-11.2,6.1-13.2,6.6-13.4h0.2 M271.8,47.7c-0.1,0-0.3,0-0.4,0c0,0-3.6,0.9-7.3,14.2V62h-0.4l0,0l-0.7,0.1
	c-1.8,0.3-3.6,0.9-5.2,1.5l0,0c-0.3,0.1-0.5,0.2-0.8,0.3l0,0c-1.6,0.7-3.1,1.5-4.6,2.3l0,0l-0.1,0.1l-0.3,0.2
	c-0.2,0.1-0.3,0.2-0.4,0.3c-1.4,0.8-2.9,1.8-4.6,2.9c-0.2,0.1-0.5,0.3-0.8,0.5l-0.2,0.1c-1.6,1.1-3,2.4-4.2,3.9l0,0
	c-0.1,0.1-0.1,0.1-0.2,0.2l-0.1,0.1c-0.2,0.3-0.4,0.6-0.6,1l0,0c-1.5,3.3,0.1,5.9,2,7.4l0,0l0.1,0.1l0.4,0.3l0.2,0.2
	c0.3,0.2,0.6,0.4,0.9,0.5l0,0c0,14.2,5.1,38.7,20.4,38.7c0.3,1.9,1.2,3.3,2.4,3.3h0.1c0.8,0,1.4-0.7,1.7-1.5
	c0.3-0.6,0.5-1.2,0.6-1.8c0-0.1,0-0.2,0-0.2h0.9c9.8-0.4,14.2-7.8,16.8-13.8c3-7.1,4.3-17.7,4.3-24.9l0,0c0.6-0.4,1.1-0.8,1.6-1.3
	l0,0l0,0l0,0c0.2-0.2,0.3-0.3,0.4-0.4s0.2-0.2,0.3-0.3c1.6-1.6,2.3-3.9,1.8-6.1c0-0.1,0-0.1,0-0.2l-0.1-0.2c0-0.1-0.1-0.2-0.1-0.3
	s-0.1-0.3-0.2-0.4l-0.1-0.2l0,0c-1-1.7-2.3-3.1-4-4.2l-0.6-0.4l0,0l0,0c-1.7-1.2-3.4-2.2-4.8-3.1l-0.2-0.1c-1.6-0.9-3.2-1.7-4.8-2.5
	l0,0l-0.7-0.3c-1.9-0.8-3.8-1.4-5.9-1.8h-0.1l0,0c-0.9-0.2-1.7-0.3-2.5-0.3l0,0c-1.2-0.1-2.3-0.1-3.4-0.1c0,0,1-5,7.3-8.7l0,0
	c0.1,0,0.2-0.1,0.2-0.2C277.7,51.5,274.6,47.7,271.8,47.7L271.8,47.7z"/>
<linearGradient id="SVGID_00000088811460687800407100000001546522601338962853_" gradientUnits="userSpaceOnUse" x1="239.1638" y1="86.9156" x2="239.1638" y2="73.9756" gradientTransform="matrix(1 0 0 -1 0 163.2756)">
	<stop  offset="0" style="stop-color:#7C3A25"/>
	<stop  offset="0.49" style="stop-color:#8C4638"/>
	<stop  offset="1" style="stop-color:#7C3A25"/>
</linearGradient>
<path style="fill:url(#SVGID_00000088811460687800407100000001546522601338962853_);" d="M240.5,72.7c0,0-3.7,1-7.5,14.5l-0.4,2.6
	l4.6,0.1l0.1-2.7c0,0,1.1-5.1,7.4-8.9C247.3,76.8,243.6,72.2,240.5,72.7z"/>
<path class="st2" d="M261.2,108.7c-15.5-4.1-31.8-4.1-47.4,0c-0.2,0.5-0.5,1-0.8,1.5c0,14.5,5.2,39.6,20.9,39.6
	c0.3,2,1.3,3.4,2.4,3.4s2.1-1.5,2.4-3.5c18.7,0,22.4-25.8,22.4-40.1l0,0C261.2,109.2,261.2,108.9,261.2,108.7z"/>
<path class="st3" d="M252.5,104.4c0,0,8.8-0.2,8.8,5.7c0,7.4-1.3,18.2-4.4,25.5c-2.7,6.4-7.4,14.1-18.1,14.1c0,0-0.5,3.5-2.4,3.5
	c0.7-1.2,1.1-2.5,1.2-3.9C237.7,149.2,252.5,135.8,252.5,104.4z"/>
<path class="st0" d="M213.1,110.1c0,0,0,2.1,0.1,3c1.6-0.9,3.3-1.7,5.1-2.2c4.2-1.1,21.1-3.4,36.9,0.3c2,0.5,4.7,1.3,6,2.2
	c0,0,0.1-2.6,0.1-3.4c0,0-2-6.7-3.9-7.8c-8-4.8-28.9-3.3-37.1,1C218,104.3,213.1,110.1,213.1,110.1z"/>
<path class="st4" d="M213,110.1c7.6-2.7,15.6-4.2,23.6-4.3c8.3,0,16.6,1.4,24.5,4.3c0,0,10.4-6.7-0.2-14c-12.1-8.4-18-8.9-23.5-8.9
	c-4.7,0-11.1,0.6-22.9,8.9C204.7,102.9,209.7,108.3,213,110.1z"/>
<path class="st5" d="M235.1,87.2l-1.2,0.8l-0.5,0.3c-1.4,0.9-2.7,1.8-4,2.7l-0.7,0.5c-1.4,1-2.7,2.1-4,3.2c-0.2,0.2-0.5,0.4-0.8,0.7
	c-1.4,1.3-2.7,2.6-4,4c-0.3,0.3-0.5,0.6-0.8,0.9l-0.3,0.4c-1.3,1.6-2.5,3.3-3.7,5c-0.3,0.4-0.5,0.8-0.8,1.2c-0.4,0.6-1.4,2.3-1.8,3
	c-0.4-0.2-0.8-0.5-1.2-0.8l2.2-3.3c0.2-0.4,0.5-0.8,0.8-1.1c1.2-1.7,2.6-3.4,4-5c0.2-0.3,0.5-0.6,0.7-0.8c1.3-1.4,2.6-2.6,4-3.9
	c0.2-0.2,0.5-0.4,0.8-0.7c1.3-1.1,2.6-2.1,4-3.1l0.7-0.5c1.4-0.9,3.8-2.5,5.2-3.3L235.1,87.2z"/>
<path class="st5" d="M244.2,87.8c-0.2,0.1-1.2,0.5-1.3,0.7c-1.4,0.9-2.7,1.8-4,2.7l-0.7,0.5c-1.4,1-2.7,2.1-4,3.2
	c-0.3,0.2-0.5,0.4-0.8,0.7c-1.4,1.3-2.7,2.6-4,4c-0.3,0.3-0.5,0.6-0.8,0.9l-0.3,0.4c-1.3,1.6-2.5,3.3-3.7,5
	c-0.2,0.3-0.7,1.2-0.9,1.4c-0.1,0-1.6,0.3-1.7,0.3c0.2-0.4,0.9-1.4,1.1-1.8s0.5-0.8,0.8-1.1c1.2-1.7,2.6-3.4,4-5
	c0.2-0.3,0.5-0.6,0.7-0.8c1.3-1.4,2.6-2.7,4-3.9c0.2-0.2,0.5-0.4,0.8-0.7c1.3-1.1,2.6-2.1,4-3.1l0.7-0.5c1.4-0.9,2.8-1.8,4.2-2.5
	l1.1-0.5L244.2,87.8z"/>
<path class="st5" d="M250.2,89.8c-0.6,0.4-1.3,0.9-1.9,1.3l-0.7,0.5c-1.4,1-2.7,2.1-4,3.2c-0.3,0.2-0.5,0.4-0.8,0.7
	c-1.4,1.3-2.7,2.6-4,4c-0.2,0.3-0.5,0.6-0.8,0.9l-0.3,0.4c-1.3,1.6-2.5,3.3-3.7,5l-0.2,0.2l-1.6,0.1l0.2-0.3
	c0.2-0.4,0.5-0.8,0.8-1.1c1.2-1.7,2.6-3.4,4-5c0.2-0.3,0.5-0.6,0.7-0.8c1.3-1.4,2.6-2.7,4-3.9c0.2-0.2,0.5-0.4,0.8-0.7
	c1.3-1.1,2.6-2.1,4-3.1l0.7-0.5c0.5-0.3,1.3-0.8,1.8-1.2C249.7,89.5,249.9,89.7,250.2,89.8z"/>
<path class="st5" d="M255.7,92.7c-0.8,0.6-1.9,1.5-2.6,2.2c-0.3,0.2-0.5,0.4-0.8,0.7c-1.4,1.3-2.7,2.6-4,4c-0.2,0.3-0.5,0.6-0.8,0.9
	l-0.3,0.4c-1.3,1.6-2.5,3.3-3.7,5l-0.1,0.1l0,0h-0.6c-0.3,0-0.5,0-0.8,0H242c0,0,0,0,0-0.1c0.2-0.4,0.5-0.8,0.8-1.1
	c1.2-1.7,2.6-3.4,4-5c0.2-0.3,0.5-0.6,0.7-0.8c1.3-1.4,2.6-2.7,4-3.9c0.3-0.2,0.5-0.4,0.8-0.7c0.7-0.6,1.7-1.4,2.5-2
	C255.1,92.3,255.4,92.5,255.7,92.7z"/>
<path class="st5" d="M265.6,101.9c-0.1,0.1-2.9,3.7-3,3.8c-0.3,0.4-0.5,0.8-0.8,1.2c-0.5,0.8-1.2,1.9-1.7,2.8
	c-0.1-0.1-0.9-0.3-1.2-0.4c0.5-1,1.6-2.6,2.2-3.6c0.2-0.4,0.5-0.8,0.8-1.1s3-4,3.2-4.3C265.3,100.8,265.5,101.3,265.6,101.9z"/>
<path class="st5" d="M261.2,96.3c-0.7,0.7-2.8,2.6-3.4,3.3c-0.2,0.3-0.5,0.6-0.7,0.9l-0.3,0.4c-1.3,1.6-2.5,3.3-3.7,5
	c-0.2,0.3-1,1.4-1.2,1.7c-0.1,0-1.1-0.2-1.4-0.3c0.1-0.2,0.8-1.2,1-1.5s0.5-0.8,0.8-1.1c1.2-1.7,2.6-3.4,4-5
	c0.2-0.3,0.5-0.6,0.8-0.8c0.7-0.7,2.5-2.4,3.2-3.1C260.6,95.8,260.8,96,261.2,96.3z"/>
<path class="st5" d="M262.9,108.7c-0.4-0.6-0.7-1.2-1.1-1.8c-0.2-0.4-0.5-0.8-0.8-1.2c-1.1-1.7-2.3-3.4-3.7-5l-0.3-0.4
	c-0.2-0.3-0.5-0.6-0.8-0.9c-1.3-1.4-2.6-2.7-4-4c-0.2-0.2-0.5-0.5-0.8-0.7c-1.3-1.1-2.6-2.2-4-3.2l-0.7-0.5c-1.3-0.9-2.6-1.8-4-2.7
	l-0.5-0.3c-0.1,0-1.4-0.8-1.5-0.8l1.3,0.1c1.4,0.8,4.1,2.3,5.4,3.2l0.7,0.5c1.4,1,2.7,2,4,3.1c0.2,0.2,0.5,0.4,0.8,0.7
	c1.4,1.2,2.7,2.5,4,3.9c0.2,0.3,0.5,0.6,0.7,0.8c1.4,1.6,2.8,3.3,4,5c0.3,0.4,0.5,0.8,0.8,1.1c0.1,0.2,1.1,1.8,1.2,2
	c-0.1,0.2-0.3,0.3-0.4,0.5L262.9,108.7z"/>
<path class="st5" d="M254.3,108c-0.2,0-1.6-0.3-1.7-0.4c-0.2-0.3-0.8-1.6-1-1.9c-1.1-1.7-2.3-3.4-3.7-5l-0.3-0.4
	c-0.2-0.3-0.5-0.6-0.7-0.9c-1.3-1.4-2.6-2.7-4-4c-0.3-0.2-0.5-0.5-0.8-0.7c-1.3-1.1-2.6-2.2-4-3.2l-0.7-0.5c-1.3-0.9-2.6-1.8-4-2.7
	c-0.2-0.1-1.3-0.7-1.5-0.8l0.8-0.1l1.2,0.6c1.5,0.8,2.9,1.6,4.2,2.5l0.7,0.5c1.4,1,2.7,2,4,3.1l0.8,0.7c1.4,1.2,2.7,2.5,4,3.9
	c0.3,0.3,0.5,0.6,0.8,0.8c1.4,1.6,2.8,3.3,4,5c0.3,0.4,0.5,0.8,0.8,1.1S254.1,107.6,254.3,108z"/>
<path class="st5" d="M243.9,106.2c-0.1,0-1.3-0.2-1.6-0.2c0,0-0.2-0.3-0.2-0.3c-1.1-1.7-2.4-3.4-3.7-5l-0.3-0.4
	c-0.2-0.3-0.5-0.6-0.7-0.9c-1.3-1.4-2.6-2.7-4-4c-0.2-0.2-0.5-0.5-0.8-0.7c-1.3-1.1-2.6-2.2-4-3.2l-0.7-0.5
	c-0.6-0.4-1.6-1.2-2.1-1.6c0.3-0.1,0.5-0.2,0.8-0.3c0.5,0.3,1.5,1.1,2.1,1.4l0.7,0.5c1.4,1,2.7,2,4,3.1c0.3,0.2,0.5,0.4,0.8,0.7
	c1.4,1.2,2.7,2.5,4,3.9c0.3,0.3,0.5,0.6,0.8,0.8c1.4,1.6,2.8,3.3,4,5c0.3,0.4,0.5,0.8,0.8,1.1C243.6,105.8,243.9,106.2,243.9,106.2z
	"/>
<path class="st5" d="M234.3,105.9l-1.5,0.1c0,0-0.1-0.2-0.1-0.2c-1.1-1.7-2.4-3.4-3.7-5l-0.3-0.4c-0.2-0.3-0.5-0.6-0.7-0.9
	c-1.3-1.4-2.6-2.7-4-4c-0.2-0.2-0.5-0.5-0.8-0.7c-0.8-0.7-2.3-1.8-3-2.4c0.3-0.2,0.6-0.3,0.9-0.5c0.8,0.6,2.2,1.7,2.9,2.3
	c0.3,0.2,0.5,0.4,0.8,0.7c1.4,1.2,2.7,2.5,4,3.9c0.2,0.3,0.5,0.6,0.8,0.8c1.4,1.6,2.8,3.3,4,5c0.3,0.4,0.5,0.8,0.8,1.1L234.3,105.9z
	"/>
<path class="st5" d="M217.1,108.8c-0.4,0.1-1,0.3-1.2,0.4c-0.5-0.9-1-1.4-1.5-2.2c-0.2-0.4-0.5-0.8-0.8-1.2
	c-1.2-1.6-2.6-3.1-4.2-4.3c0.2-0.5,0.5-1,0.9-1.4c0.2,0.3,3.2,3.2,4.1,4.6c0.3,0.4,0.5,0.8,0.8,1.1
	C215.8,106.7,216.6,107.8,217.1,108.8z"/>
<path class="st5" d="M225.3,106.9c-0.2,0-1.3,0.2-1.4,0.2c-0.2-0.3-0.6-1.1-0.8-1.4c-1.1-1.7-2.4-3.4-3.7-5l-0.3-0.4
	c-0.2-0.3-0.5-0.6-0.7-0.9c-0.6-0.7-3.2-2.9-3.8-3.6c0.3-0.2,0.9-0.6,1-0.7c0.7,0.7,2.9,2.7,3.6,3.4l0.8,0.8c1.4,1.6,2.8,3.3,4,5
	c0.3,0.4,0.5,0.8,0.8,1.1S225.2,106.6,225.3,106.9z"/>
<path class="st6" d="M243.7,73.9c1.7,1.3,2,2.6,1.4,4c-0.4,1.1-3.4-0.4-3.9-0.9s-2.6-2.4-1.9-3.4S241.6,72.3,243.7,73.9z"/>
<g>
	<path class="st7" d="M243.1,75.7C243.1,75.8,243.1,75.8,243.1,75.7C243.1,75.8,243.1,75.8,243.1,75.7h-0.2c-0.6-0.4-0.7-1.2,0-0.6
		s0.9,1.4,0.1,0.9c-1-0.6-1.6-1.9-1.1-1.9c0.8-0.1,2.8,1.9,2.6,2.9c-0.1,0.5-0.7,0.4-1.1,0.1c-1.1-0.6-2.1-1.5-2.8-2.6
		c-0.5-0.8-0.7-1.5-0.6-1.1c0,0.1,0,0.2,0.1,0.3c0.6,1.9,3.5,4.5,4.4,3.7c0.7-0.5-0.3-2.1-1.2-2.8c-1.5-1.3-2.4-0.7-1.4,0.7
		c0.4,0.5,1.1,1.1,1.5,1s-0.2-1.2-0.8-1.5c-0.4-0.2-0.5,0.2-0.2,0.6S243.1,76,243.1,75.7C243.1,75.7,243.1,75.7,243.1,75.7z"/>
</g>
<path class="st8" d="M219.6,116.9c0,0,0.2-4.2-2.4-3.1s0.4,19.7,6.9,27.2s4.9,4.7,1.1-3.2S219.6,116.9,219.6,116.9z"/>
<path class="st9" d="M240.9,73.7L240.9,73.7c1.6,0.2,3,1.2,3.6,2.7c0.2,0.7,0,0.8-0.1,0.9h-0.1h-0.1l0,0c-6.6,3.9-7.8,9.3-7.9,9.5
	l-0.2,1.2h1.2c0.9,0,2.1,0,3.4,0.1c0.8,0.1,1.6,0.2,2.4,0.3h0.1h0.1c2,0.4,3.9,1,5.8,1.8l0.2,0.1l0.4,0.2c1.7,0.7,3.3,1.6,4.9,2.5
	h0.1l0.1,0.1c1.5,0.9,3.2,2,4.9,3.1l0,0l0,0l0.2,0.1l0.4,0.2c1.5,1,2.8,2.3,3.8,3.9l0,0.1v0.1l0.1,0.3l0.1,0.2v0.1v0.1v0.1v0.1
	c0.5,1.8-0.1,3.5-1.7,5.4c-0.1,0.1-0.7,0.7-0.7,0.7c-0.5,0.4-0.9,0.8-1.5,1.2l-0.4,0.3v0.6l0,0c0,7.5-1.3,18.1-4.3,25
	c-2.6,6.1-6.8,13.1-16.3,13.5h-1.7l-0.1,0.9v0.1c-0.1,0.5-0.2,1.1-0.5,1.6c-0.1,0.3-0.4,0.8-0.8,0.9h-0.2c-0.4,0-1.2-0.9-1.4-2.6
	l-0.1-0.9h-0.9c-14.4,0-19.8-23.4-19.9-38.4l0,0v-0.2v-1.4l-0.9,0.4l-0.4-0.3c-0.1,0-0.1-0.1-0.2-0.2L212,108l0,0l0,0
	c-1.3-1.1-3.2-3.3-1.8-6.4l0,0l0,0c0.1-0.3,0.3-0.6,0.5-0.8l0.1-0.1l0.1-0.2c1.1-1.5,2.5-2.7,4-3.8l0.1-0.1l0.1-0.1l0.7-0.5l0.1-0.1
	c1.6-1.1,3.1-2.1,4.6-2.9l0,0l0,0l0.2-0.1l0,0l0.6-0.3c1.5-0.9,3.1-1.6,4.7-2.3l0.4-0.2l0.4-0.2c1.7-0.7,3.4-1.2,5.2-1.5l0.4-0.1
	l0,0h0.3l0.4-0.1l0.8-0.1l0.1-0.8v-0.1c3.2-11.5,6.3-13.5,6.7-13.7h0.2 M240.7,72.6c-0.1,0-0.3,0-0.4,0c0,0-3.7,1-7.5,14.5v0.2h-0.4
	l0,0l-0.7,0.1c-1.8,0.4-3.6,0.9-5.4,1.6l0,0c-0.3,0.1-0.6,0.2-0.8,0.3l0,0c-1.6,0.7-3.1,1.6-4.6,2.5l0,0l-0.1,0.1l-0.3,0.2l-0.5,0.3
	c-1.5,0.8-3,1.8-4.7,3l-0.8,0.5l-0.2,0.1c-1.6,1.1-3.1,2.4-4.3,4l0,0l-0.2,0.2l-0.1,0.1c-0.2,0.3-0.4,0.7-0.6,1.1l0,0
	c-1.6,3.3,0.1,6,2,7.6l0,0l0.1,0.1c0.1,0.1,0.3,0.2,0.4,0.3l0.2,0.2c0.3,0.2,0.6,0.4,0.9,0.5l0,0l0,0l0,0c0,14.5,5.2,39.6,20.9,39.6
	c0.3,2,1.3,3.4,2.4,3.4h0.1c0.8-0.1,1.5-0.7,1.8-1.5c0.3-0.6,0.5-1.2,0.6-1.8v-0.2c0.3,0,0.6,0,0.9,0c10-0.4,14.6-7.9,17.2-14.1
	c3.1-7.3,4.4-18.1,4.4-25.5l0,0c0.6-0.4,1.1-0.8,1.6-1.3l0,0l0,0l0,0l0.4-0.4c0.1-0.1,0.2-0.2,0.3-0.3c1.6-1.6,2.3-4,1.8-6.2
	c0-0.1,0-0.1,0-0.2c0-0.1-0.1-0.1-0.1-0.2c0-0.1-0.1-0.2-0.1-0.3s-0.1-0.3-0.2-0.4l-0.1-0.2l0,0c-1-1.7-2.4-3.2-4.1-4.3l-0.6-0.4
	l0,0l0,0c-1.8-1.2-3.4-2.3-5-3.2l-0.2-0.1c-1.6-0.9-3.2-1.8-4.9-2.5l0,0l-0.7-0.3c-1.9-0.8-3.9-1.5-6-1.9h-0.2l0,0
	c-0.9-0.2-1.7-0.3-2.5-0.3l0,0c-1.2-0.1-2.3-0.1-3.5-0.1c0,0,1.1-5.1,7.4-8.9l0,0c0.1,0,0.2-0.1,0.2-0.2c1.9-1.5-1.3-5.4-4.1-5.4
	L240.7,72.6z"/>
<path class="st8" d="M332.7,87.2c0,0,3.1-2.8,0.5-3.8s-13.7,14.1-14.4,24.1s0.2,6.8,3-1.4S332.7,87.2,332.7,87.2z"/>
<linearGradient id="SVGID_00000038383327787548447030000010096198836723987114_" gradientUnits="userSpaceOnUse" x1="1130.4075" y1="7646.2021" x2="1130.4075" y2="7633.2725" gradientTransform="matrix(0.6089 0.7932 0.7932 -0.6089 -6420.0625 3848.3499)">
	<stop  offset="0" style="stop-color:#7C3A25"/>
	<stop  offset="0.49" style="stop-color:#8C4638"/>
	<stop  offset="1" style="stop-color:#7C3A25"/>
</linearGradient>
<path style="fill:url(#SVGID_00000038383327787548447030000010096198836723987114_);" d="M337.3,88.1c0,0-3-2.3-16,2.9l-2.3,1.3
	l2.8,3.7l2.2-1.6c0,0,4.7-2.3,11.6,0.5C338.2,96,339.5,90.2,337.3,88.1z"/>
<path class="st2" d="M321.4,126.4c-6.2-14.8-16.1-27.8-28.8-37.6c-0.5,0.2-1.1,0.2-1.6,0.3c-11.5,8.8-28.2,28.3-18.7,40.7
	c-1.4,1.4-1.9,3.1-1.2,4s2.5,0.8,4.2-0.2c11.4,14.9,34.1,2.1,45.5-6.7l0,0C321,126.7,321.2,126.6,321.4,126.4z"/>
<path class="st3" d="M319.5,116.9c0,0,5.5,6.8,0.9,10.4c-5.9,4.5-15.2,10.1-22.9,12c-6.7,1.7-15.8,2.7-22.2-5.8c0,0-3.1,1.7-4.2,0.2
	c1.4-0.2,2.7-0.6,3.8-1.4C274.8,132.4,294.6,136,319.5,116.9z"/>
<path class="st0" d="M291,89.1c0,0-1.7,1.3-2.3,1.9c1.7,0.7,3.3,1.6,4.8,2.7c3.5,2.7,15.6,14.7,22.2,29.5c0.8,1.8,1.9,4.5,1.9,6.1
	c0,0,2.2-1.5,2.7-2c0,0,4.1-5.7,3.9-7.9c-1-9.2-14.9-25-23.4-28.9C298.5,89.5,291,89.1,291,89.1z"/>
<path class="st4" d="M290.9,89.1c6.8,4.4,12.8,9.8,17.8,16.2c5.1,6.6,9,14,11.5,22c0,0,11.6,4.2,11-8.7c-0.7-14.7-3.9-19.7-7.2-24.1
	c-2.9-3.7-7.2-8.5-21-12.7C291.6,78.1,290.3,85.4,290.9,89.1z"/>
<path class="st5" d="M322.5,92.7c-0.1,0-1.3-0.4-1.4-0.5l-0.6-0.2c-1.5-0.6-3-1.1-4.6-1.5l-0.9-0.2c-1.6-0.5-3.3-0.9-5-1.2l-1-0.2
	c-1.9-0.3-3.7-0.6-5.6-0.7c-0.4,0-0.8-0.1-1.1-0.1h-0.5c-2.1-0.1-4.1-0.1-6.2,0.1l-1.4,0.1c-0.7,0.1-2.7,0.3-3.4,0.4
	c-0.1-0.5-0.1-1-0.1-1.4l4-0.3l1.4-0.1c2.1-0.1,4.3-0.1,6.4,0.1l1.1,0.1c1.9,0.2,3.7,0.4,5.5,0.8l1,0.2c1.7,0.4,3.3,0.8,4.9,1.3
	l0.9,0.3c1.5,0.5,4.3,1.5,5.7,2.1C321.6,91.7,322.5,92.7,322.5,92.7z"/>
<path class="st5" d="M327.6,100.2c-0.2-0.1-1.1-0.6-1.3-0.7c-1.5-0.6-3-1.1-4.6-1.5l-0.9-0.2c-1.6-0.5-3.3-0.9-5-1.2l-1-0.2
	c-1.9-0.3-3.7-0.6-5.6-0.7l-1.1-0.1h-0.5c-2.1-0.1-4.1-0.1-6.2,0.1l-1.7,0.2c-0.1-0.1-1.2-1-1.3-1.2c0.4,0,1.6-0.2,2.1-0.2l1.4-0.1
	c2.1-0.1,4.3-0.1,6.4,0.1l1.1,0.1c1.8,0.2,3.7,0.4,5.5,0.8l1,0.2c1.7,0.4,3.3,0.8,4.9,1.3l0.8,0.3c1.6,0.5,3.1,1.1,4.6,1.8l1,0.6
	C327.3,99.5,327.5,100,327.6,100.2z"/>
<path class="st5" d="M329.7,106.2l-2.2-0.7l-0.9-0.2c-1.6-0.5-3.3-0.9-5-1.2l-1-0.2c-1.9-0.3-3.7-0.6-5.6-0.7l-1.1-0.1h-0.5
	c-2.1-0.1-4.1-0.1-6.2,0.1c0,0-0.2,0-0.2,0c-0.2-0.2-1-1.2-1-1.2h0.4l1.4-0.1c2.1-0.1,4.3-0.1,6.4,0.1c0.4,0,0.7,0,1.1,0.1
	c1.9,0.2,3.7,0.4,5.5,0.8c0.3,0.1,0.7,0.1,1,0.2c1.6,0.4,3.3,0.8,4.9,1.3l0.9,0.3c0.6,0.2,1.4,0.5,2,0.7
	C329.5,105.6,329.6,105.9,329.7,106.2z"/>
<path class="st5" d="M330.7,112.3c-1-0.2-2.3-0.5-3.3-0.7l-1-0.2c-1.9-0.3-3.7-0.6-5.6-0.7l-1.1-0.1h-0.5c-2.1-0.1-4.1-0.1-6.2,0.1
	h-0.1c-0.1-0.2-0.2-0.4-0.4-0.5l-0.5-0.6l0-0.1h0.1l1.4-0.1c2.1-0.1,4.3-0.1,6.4,0.1l1.1,0.1c1.8,0.2,3.7,0.4,5.5,0.8l1,0.2
	c1,0.2,2.2,0.5,3.1,0.8C330.6,111.6,330.7,112,330.7,112.3z"/>
<path class="st5" d="M329.4,125.8c-0.1,0-4.7-0.1-4.9-0.1c-0.5,0-0.9,0-1.4,0.1c-1,0.1-2.3,0.2-3.3,0.3c0-0.1-0.3-0.9-0.4-1.3
	c1.1-0.2,3.1-0.3,4.2-0.4c0.5,0,0.9-0.1,1.4-0.1s5,0,5.3-0.1C330.1,124.9,329.8,125.3,329.4,125.8z"/>
<path class="st5" d="M331.2,118.9c-0.9-0.1-3.7-0.6-4.7-0.7l-1.1-0.1h-0.5c-2.1-0.1-4.1,0-6.2,0.1c-0.4,0-1.7,0.1-2.1,0.1
	c-0.1-0.1-0.5-1-0.6-1.2c0.3,0,1.5-0.1,1.8-0.1l1.4-0.1c2.1-0.1,4.3-0.1,6.4,0.1l1.1,0.1c1,0.1,3.5,0.5,4.4,0.7
	C331.2,118.1,331.2,118.3,331.2,118.9z"/>
<path class="st5" d="M322.4,127.8c0.3-0.7,0.5-1.3,0.8-1.9l0.5-1.3c0.7-1.9,1.2-3.9,1.7-5.9c0-0.2,0.1-0.3,0.1-0.5
	c0.1-0.4,0.2-0.8,0.2-1.1c0.4-1.9,0.6-3.7,0.8-5.6c0-0.3,0-0.7,0.1-1c0.1-1.7,0.1-3.4,0.1-5.1c0-0.3,0-0.6,0-0.9
	c0-1.6-0.1-3.2-0.3-4.8l-0.1-0.6c0-0.1-0.2-1.6-0.2-1.7l0.7,1.1c0.3,1.6,0.6,4.7,0.8,6.3c0,0.3,0,0.6,0,0.9c0.1,1.7,0.1,3.4,0,5.1
	l-0.1,1c-0.1,1.8-0.3,3.7-0.6,5.5c-0.1,0.4-0.1,0.7-0.2,1.1c-0.4,2.1-0.9,4.2-1.6,6.2c-0.1,0.4-0.3,0.9-0.4,1.3
	c-0.1,0.2-0.8,2-0.9,2.2c0,0-0.4,0-0.6,0L322.4,127.8z"/>
<path class="st5" d="M317.7,120.5c-0.1-0.2-0.7-1.4-0.7-1.6c0.1-0.3,0.8-1.7,0.9-2c0.7-1.9,1.2-3.9,1.7-5.9c0-0.2,0.1-0.3,0.1-0.5
	c0.1-0.4,0.1-0.7,0.2-1.1c0.4-1.9,0.6-3.7,0.8-5.6c0-0.3,0.1-0.7,0.1-1c0.1-1.7,0.1-3.4,0.1-5.1c0-0.3,0-0.6,0-0.9
	c0-1.6-0.1-3.2-0.3-4.8c0-0.2-0.2-1.5-0.3-1.7c0.1,0.1,0.5,0.5,0.6,0.5s0.2,1.3,0.3,1.3c0.3,1.6,0.5,3.3,0.6,4.9c0,0.3,0,0.6,0,0.9
	c0.1,1.7,0.1,3.4,0,5.1l-0.1,1c-0.1,1.9-0.3,3.7-0.7,5.5c-0.1,0.4-0.1,0.7-0.2,1.1c-0.4,2.1-0.9,4.2-1.6,6.2
	c-0.1,0.4-0.3,0.9-0.4,1.3S317.9,120.1,317.7,120.5z"/>
<path class="st5" d="M312.8,111.2c0,0-0.7-1.2-0.9-1.4l0.1-0.4c0.7-1.9,1.2-3.9,1.7-5.9c0-0.2,0.1-0.3,0.1-0.5
	c0.1-0.4,0.2-0.7,0.2-1.1c0.4-1.9,0.6-3.7,0.8-5.6c0-0.3,0.1-0.7,0.1-1c0.1-1.7,0.1-3.4,0.1-5.1c0-0.3,0-0.6,0-0.9c0-0.7,0-2,0-2.7
	c0.3,0.2,0.5,0.3,0.8,0.4c0.1,0.6,0.1,1.9,0.1,2.5c0,0.3,0,0.6,0,0.9c0.1,1.7,0.1,3.4,0,5.1c0,0.3,0,0.7-0.1,1
	c-0.1,1.8-0.3,3.7-0.6,5.5c-0.1,0.4-0.1,0.7-0.2,1.1c-0.4,2.1-0.9,4.2-1.6,6.2c-0.1,0.4-0.3,0.9-0.4,1.3
	C313,110.7,312.8,111.2,312.8,111.2z"/>
<path class="st5" d="M307.2,103.3l-1-1.2l0.1-0.3c0.7-1.9,1.3-3.9,1.7-5.9c0-0.2,0.1-0.3,0.1-0.5c0.1-0.4,0.2-0.7,0.2-1.1
	c0.4-1.9,0.6-3.7,0.8-5.6c0-0.3,0-0.7,0.1-1c0.1-1,0.1-2.9,0.1-3.9c0.3,0.1,0.6,0.3,1,0.4c0,1,0,2.7-0.1,3.7l-0.1,1
	c-0.1,1.8-0.3,3.7-0.6,5.5c-0.1,0.4-0.1,0.7-0.2,1.1c-0.4,2.1-0.9,4.2-1.6,6.2c-0.1,0.4-0.3,0.9-0.4,1.3
	C307.2,103.2,307.2,103.3,307.2,103.3z"/>
<path class="st5" d="M294.5,91.5c-0.4-0.2-0.8-0.6-1-0.7c0.4-0.9,0.5-1.6,0.8-2.6c0.2-0.4,0.3-0.9,0.5-1.3c0.6-1.9,0.9-4,0.8-6
	c0.5-0.1,1.1-0.2,1.7-0.2c-0.1,0.4-0.6,4.5-1.1,6.1c-0.1,0.4-0.3,0.9-0.4,1.3C295.3,89.2,294.9,90.5,294.5,91.5z"/>
<path class="st5" d="M301,96.9c-0.2-0.2-1-0.9-1-1c0.1-0.3,0.5-1.2,0.6-1.5c0.7-1.9,1.2-3.9,1.7-5.9c0-0.2,0.1-0.3,0.1-0.5
	c0.1-0.4,0.1-0.7,0.2-1.1c0.2-0.9,0.4-4.3,0.5-5.2c0.4,0.1,1,0.3,1.1,0.4c-0.1,1-0.4,4-0.5,4.9c-0.1,0.4-0.1,0.7-0.2,1.1
	c-0.4,2.1-0.9,4.2-1.6,6.2c-0.1,0.4-0.3,0.9-0.4,1.3S301,96.6,301,96.9z"/>
<path class="st6" d="M338.3,91.4c0,2.1-0.9,3.1-2.3,3.6c-1.1,0.4-1.7-2.9-1.7-3.6s0.3-3.5,1.5-3.5S338.3,88.7,338.3,91.4z"/>
<g>
	<path class="st7" d="M336.5,92L336.5,92c-0.1,0-0.1,0-0.1-0.1c0,0,0-0.1,0-0.1c0-0.7,0.5-1.3,0.5-0.3s-0.6,1.5-0.7,0.6
		c-0.1-1.2,0.5-2.4,0.9-2c0.5,0.5,0.2,3.3-0.7,3.9c-0.4,0.3-0.7-0.3-0.8-0.8c-0.2-1.3-0.1-2.6,0.4-3.8c0.3-0.9,0.8-1.4,0.5-1.2
		c-0.1,0.1-0.1,0.1-0.2,0.2c-1.1,1.7-1.4,5.5-0.2,5.8c0.8,0.2,1.5-1.5,1.5-2.7c0.1-2-0.9-2.3-1.4-0.7c-0.2,0.6-0.2,1.6,0.1,1.8
		s0.9-0.9,0.7-1.5c-0.1-0.4-0.5-0.3-0.6,0.2S336.3,92.2,336.5,92L336.5,92z"/>
</g>
<path class="st8" d="M289.5,98.4c0,0,3.5-2.4,1-3.7s-15.4,12.3-17.4,22s-0.7,6.8,3.2-1.1S289.5,98.4,289.5,98.4z"/>
<path class="st9" d="M297.6,81.7c1.7,0,3.5,0.3,5.1,0.9h0.1h0.1c0.3,0.1,0.6,0.2,0.8,0.2h0.1c1.8,0.6,3.5,1.2,5.1,1.9l0,0l0,0
	l0.2,0.1l0,0l0.6,0.3c1.6,0.7,3.2,1.4,4.7,2.3l0.4,0.2l0,0l0.4,0.2c1.6,0.9,3,2,4.4,3.2l0.4,0.3l0,0l0.1,0.1l0.2,0.2l0.5,0.5
	l0.6-0.4l0.1-0.1c6.9-2.8,10.8-3.3,12.9-3.3c0.7,0,1.4,0.1,2.1,0.3c0.8,1.2,1,2.8,0.4,4.1c-0.2,0.5-0.5,1-0.9,1H336l0,0.1h-0.1l0,0
	c-2.2-0.9-4.6-1.4-7-1.4c-1.8,0-3.6,0.3-5.3,1l-1.1,0.5l0.8,1c0.5,0.7,1.3,1.7,2,2.8c0.5,0.7,0.8,1.4,1.2,2.1l0,0l0,0l0,0.1
	c0.9,1.8,1.6,3.7,2.1,5.7c0,0.1,0,0.1,0,0.2l0.1,0.5c0.4,1.8,0.8,3.6,1,5.4v0.1c0,0.1,0,0.1,0,0.2c0.2,1.8,0.4,3.7,0.5,5.8l0,0l0,0
	v0.2v0.5c0.2,1.8-0.1,3.7-0.8,5.4l-0.1,0.1v0.1c-0.1,0.1-0.1,0.2-0.2,0.3l-0.1,0.2v0.1l-0.1,0.1v0.1l-0.1,0.1
	c-1.1,1.4-2.9,2.1-4.6,2h-0.6h-0.3h-0.3h-0.3l-0.1,1l0.1-1c-0.6-0.1-1.3-0.2-1.9-0.4l-0.5-0.1l-0.4,0.3c-5.9,4.5-15.2,10-22.5,11.8
	c-2.6,0.7-5.2,1.1-7.9,1.1c-4.9,0.2-9.7-2-12.8-5.9c-0.2-0.2-0.4-0.4-0.5-0.7l-0.5-0.7l-0.8,0.4l-0.1,0.1c-0.5,0.3-1,0.5-1.5,0.6
	c-0.2,0-0.4,0.1-0.6,0.1c-0.2,0-0.4,0-0.5-0.1l-0.1-0.1l0,0c-0.2-0.4,0-1.5,1.2-2.7l0.6-0.6l-0.5-0.7c-8.8-11.4,6.5-30,18.4-39.1
	l0,0l0.2-0.2l1.1-0.9l-0.8-0.5c0-0.2,0-0.3,0-0.5s0-0.2,0-0.2v-0.7c0.1-1.7,0.7-4.6,4-5.3h0.1c0.3-0.1,0.7-0.1,1-0.1h0.7
	 M297.5,80.8h-0.3H297c-0.4,0-0.8,0.1-1.2,0.2l0,0c-3.6,0.8-4.7,3.7-4.8,6.2l0,0v0.6c0,0.1,0,0.2,0,0.3c0,0.3,0.1,0.7,0.1,1l0,0l0,0
	c-11.5,8.8-28.2,28.3-18.7,40.7c-1.4,1.4-1.9,3.1-1.2,4l0,0l0,0c0.3,0.4,0.9,0.6,1.4,0.6c0.3,0,0.6,0,0.9-0.1
	c0.6-0.1,1.2-0.4,1.8-0.7l0.1-0.1l0.6,0.7c3.3,4.1,8.3,6.4,13.6,6.2c2.7,0,5.5-0.4,8.1-1.2c7.7-2,17-7.5,22.9-12l0,0
	c0.7,0.2,1.3,0.4,2,0.5h0.1l0.6,0.1c0.1,0,0.3,0,0.5,0h0.6c2.1,0.1,4.1-0.7,5.4-2.3c0,0,0.1-0.1,0.1-0.2l0.1-0.2
	c0.1-0.1,0.1-0.2,0.2-0.3l0.2-0.4l0.1-0.2l0,0c0.8-1.8,1.1-3.9,0.9-5.8v-0.7l0,0l0,0c-0.1-2.2-0.3-4.1-0.5-5.8c0-0.1,0-0.2,0-0.3
	c-0.2-1.8-0.6-3.7-1-5.4l0,0c-0.1-0.2-0.1-0.5-0.2-0.7c-0.5-2-1.2-4-2.1-5.9l-0.1-0.2l0,0c-0.4-0.8-0.8-1.5-1.2-2.2l0,0l0,0
	c-0.6-1-1.3-1.9-2-2.8c1.5-0.6,3.2-0.9,4.9-0.9c2.3,0,4.6,0.5,6.7,1.4l0,0c0.1,0.1,0.2,0.1,0.2,0.1c0.1,0,0.3,0,0.4,0
	c2.2,0,3.1-5,1.1-6.9c-0.8-0.4-1.8-0.6-2.7-0.5c-2.3,0-6.4,0.7-13.3,3.4l-0.2,0.1l-0.3-0.3l0,0c0-0.1-0.4-0.4-0.5-0.5
	c-1.4-1.2-2.9-2.3-4.5-3.3l0,0c-0.2-0.2-0.5-0.3-0.8-0.4l0,0c-1.5-0.9-3.1-1.6-4.8-2.3l0,0h-0.1l-0.3-0.1c-0.2-0.1-0.3-0.1-0.5-0.2
	c-1.6-0.6-3.3-1.3-5.2-1.9c-0.2-0.1-0.6-0.2-0.9-0.3l-0.2-0.1c-1.7-0.6-3.6-0.9-5.4-1h-0.4L297.5,80.8z"/>
<path class="st15" d="M24.4,86.7c-2.4,9.2-5.9,22.6,0.9,34.5c6.2,10.8,17.7,14.7,18.8,15.1c4,1.3,8.2,1.7,12.3,1.4
	c-1.2-1.3-2.3-2.7-3.1-4.3c-0.9-1.7-1.5-3.5-1.8-5.3c-0.2-1.4-0.3-2.8-0.2-4.2c0.5-8.6,7.2-11.3,12.4-22.3c1.4-3,2.5-6.2,3.3-9.4
	c-0.6-3.5-0.3-6.8,1-9.1l0.3-0.3c-2.6-2.1-4.6-4.9-5.9-7.9c-0.9-2.1-2.8-6.6-1.3-11.2c1.3-3.9,3.9-4.3,6.5-8.2
	c1.8-2.6,3.5-6.7,3.3-13.4l0.8-0.4c-1.1-3.2-1.4-6.6-0.7-9.9c0.2-1.2,0.6-2.5,1.2-3.6c-4.5-3.1-16-9.6-29.7-6.4
	c-8.9,2.1-21.9,9-23.4,19.8c-1.1,8,4.5,15.7,5.7,15.4c1-0.3-1-6.1,2.1-9c1.6-1.4,4-1.8,6-1c2.1,1,2.8,3.4,3.1,4.3
	C38.4,58.8,28.2,72.1,24.4,86.7z"/>
<path class="st16" d="M51.5,128.7c0.3,1.9,0.9,3.7,1.8,5.4c0.8,1.6,1.8,3.1,3.1,4.4c1.1,1.2,2.4,2.2,3.7,3.1l0,0
	c-0.5,1.6-0.3,3.2,0.4,4.7c1,1.6,3,2.5,9,2.7s6.9-0.6,11.9-0.6c8.3,0,13.7,2.2,14.7,0.1c0.3-1,0.2-2.1-0.2-3.1
	c-0.3-0.8-0.9-1.4-1.6-1.8l0,0c0.1-0.5,0.1-1,0-1.5c-0.2-0.6-0.7-1.2-1.3-1.5c-1.8-0.9-3.8-1.4-5.8-1.4c-1.7-0.1-3.4-0.2-5.2-0.1
	c0.8-0.7,1.5-1.5,2.1-2.4c3.5-6.1-1.8-14.5-2.4-15.5c-2.1-2.9-4.3-5.7-6.7-8.4c-0.5-2-0.4-4.2,0.3-6.2l-0.5-0.2
	c-3.8-1.8-6.9-8.1-7.8-14c-0.8,3.3-1.9,6.5-3.3,9.5c-5.2,11.2-11.8,14-12.4,22.6C51.2,126,51.3,127.4,51.5,128.7z"/>
<path class="st15" d="M87.3,139.1c2,0,4,0.5,5.8,1.4c0.6,0.1,1.5,0.1,2.5,0.3c1.3,0.1,2.6,0.3,3.8,0.6c1.3,0.3,2.6,0.8,3.9,1.4
	c0.8,0.4,1.7,0.7,2.7,0.8c0.4,0.1,0.8,0,1.2-0.1c0.5-0.2,0.9-0.6,1.1-1.2c0.1-0.5,0-1-0.2-1.4c0.2,0,0.5-0.1,0.7-0.2
	c0.2-0.1,0.4-0.3,0.6-0.6c0.4-0.7-0.8-2.3-1.6-3c-1.2-1-2.7-1.7-4.3-1.7c4.2-2.1,7.3-5.8,8.6-10.3c1.5-6-0.4-12.4-5-16.6l-0.1,0.2
	l-0.2,0.2c-0.2,0.3-0.5,0.6-0.8,0.8l-0.1,0.1l-0.3,0.3c-1.3,1.2-2.8,2.2-4.5,3c-0.1,4.9-1.2,16.3-9.6,23.2
	C90.1,137.6,88.7,138.4,87.3,139.1z"/>
<path class="st17" d="M84.4,38.4c3.3-0.1,6.6,0.3,9.7,1.3c0.7-1,1.3-2,1.8-3.1c0.2-0.5,2.3-6.1-0.3-9.2c-0.6-0.7-1.4-1.2-2.4-1.4
	c-1.2,0-2.3,0.5-3.1,1.4c-1,1-1.6,2.2-1.9,3.6c-0.5,1.8-0.2,2.3-0.6,3.6C87.1,36.1,85.9,37.5,84.4,38.4z"/>
<path class="st18" d="M94.2,39.6h0.1c3.4,1.1,6.6,2.9,9.3,5.3C100.9,42.4,97.7,40.6,94.2,39.6C94.2,39.5,94.2,39.5,94.2,39.6z
	 M105.8,73.3c0,0.2,0,0.4,0.1,0.4s0.2-0.1,0.2-0.3s0-0.4-0.1-0.4S105.8,73.1,105.8,73.3z M113.4,72.8c0,0.1,0.1,0.2,0.2,0.2
	c0.1,0,0.2-0.1,0.2-0.2c0,0,0,0,0,0l0,0c0-0.1,0-0.2-0.1-0.2C113.5,72.6,113.5,72.7,113.4,72.8C113.4,72.8,113.4,72.8,113.4,72.8
	L113.4,72.8z M113.8,73.8c0,0.1,0.1,0.2,0.2,0.2c0.1,0,0.2-0.1,0.2-0.2c0,0,0,0,0,0l0,0c0-0.1-0.1-0.2-0.1-0.2
	C113.9,73.7,113.8,73.7,113.8,73.8L113.8,73.8z M114,72c0.1,0,0.2,0,0.2-0.2c0,0,0,0,0-0.1c0-0.1,0-0.1-0.1-0.2
	c-0.1,0-0.2,0.1-0.2,0.2C113.9,71.9,113.9,72,114,72C114,72,114,72,114,72z M116,69.8l-0.1-0.2C116,69.7,116,69.8,116,69.8z
	 M116.3,73.5c0,0,0-0.1,0-0.1c0,0.1,0,0.2,0,0.2C116.3,73.5,116.3,73.5,116.3,73.5L116.3,73.5z M116.3,73.3v-0.1V73.3z M116,70
	l-0.1-0.1L116,70z M116.4,71.4c-0.1-0.5-0.2-1-0.4-1.4C116.2,70.5,116.3,70.9,116.4,71.4c0,0.4,0.1,0.7,0,1.1c0,0.2,0,0.5-0.1,0.7
	c0-0.2,0.1-0.5,0.1-0.7C116.4,72.1,116.4,71.8,116.4,71.4L116.4,71.4z"/>
<path class="st19" d="M103.3,84.5c0.8,0.3,1.7,0.3,2.5,0.1c1.5-0.5,2.8-1.5,3.6-2.8c0.9-1.2,1.7-2.5,2.2-3.9
	c-0.9,0.2-1.8,0.1-2.7-0.1c-0.2-0.1-0.4-0.2-0.6-0.4l0,0c-0.4,1.3-1.1,2.6-1.9,3.8c-0.1,0.1-0.1,0.2-0.2,0.3
	C105.4,82.6,104.4,83.6,103.3,84.5z"/>
<path class="st20" d="M62.4,74.8c1.3,3.1,3.3,5.8,5.9,8c9.4-8.2,15.7,5,15.7,5c1.3-2.7,5.8-4.7,5.8-4.7c1.4-0.6,2.9-0.6,4.3,0
	c1,0.9,2.1,1.6,3.3,2.1c2.2,0.9,3.7,0.4,4.6-0.3c0.3-0.2,0.5-0.4,0.7-0.7c-1.1-0.5-2-1.2-2.8-2c0.3-0.4,0.5-0.9,0.6-1.3
	c-2.1-1.1-3.7-2.8-4.6-4.9c0.6-0.5,1.1-1,1.6-1.7c0.9,1.2,2.1,2.3,3.5,3c1.5,0.9,3.3,1.2,5.1,0.8c0.8-0.2,1.5-0.4,2.2-0.8l0,0l0,0
	c0.2,0.2,0.4,0.3,0.6,0.4c0.9,0.2,1.8,0.3,2.7,0.1c2.2-0.4,4-2,4.6-4.2v-0.1l0,0c0.1-0.4,0.1-0.7,0.2-1.1c0-0.4,0-0.7-0.1-1.1
	c-0.1-0.5-0.2-1.1-0.4-1.6l-0.1-0.2c0,0,0-0.1,0-0.1l0,0c-0.1-0.4-0.3-0.7-0.6-1c-0.6-0.8-1.4-1.5-2.4-1.8l-0.1-0.1
	c0-2.3-0.3-13-8.2-20.8l-0.3-0.3l-0.1-0.1l-0.4-0.3l-0.2-0.2c-2.7-2.4-5.9-4.2-9.3-5.3h-0.1l0,0h-0.1c-3.1-1-6.4-1.5-9.7-1.3l0,0
	c-1.6,0.1-3.3,0.2-4.9,0.6c-1.3,0.3-2.6,0.6-3.8,1c-1.4,0.5-2.8,1-4.1,1.6c-0.3,0.1-0.5,0.2-0.8,0.4c0.2,6.7-1.5,10.9-3.3,13.5
	c-2.6,3.9-5.2,4.3-6.5,8.3C59.6,68.1,61.5,72.7,62.4,74.8z M114,72c-0.1,0-0.1-0.1-0.1-0.2c0-0.1,0.1-0.2,0.2-0.2
	c0.1,0,0.1,0.1,0.1,0.2c0,0,0,0,0,0.1C114.2,71.9,114.1,72,114,72z M113.8,73.9c0-0.1,0.1-0.2,0.2-0.2c0.1,0,0.1,0.1,0.1,0.2l0,0
	c0,0.1-0.1,0.2-0.2,0.2c0,0,0,0,0,0C113.8,74.1,113.8,74,113.8,73.9L113.8,73.9z M113.4,72.9c0-0.1,0-0.2,0.1-0.2
	c0.1,0,0.2,0,0.2,0.1c0,0,0,0.1,0,0.1l0,0c0,0.1-0.1,0.2-0.1,0.2c0,0,0,0,0,0C113.5,73,113.4,72.9,113.4,72.9L113.4,72.9z
	 M105.8,73.4c0-0.2,0.1-0.3,0.2-0.3s0.1,0.2,0.1,0.4s-0.2,0.3-0.2,0.3S105.8,73.5,105.8,73.4L105.8,73.4z M80.2,47.5
	c3.6-2.2,9.3,1.2,12.2,4.4c5.6,6.2,3.9,15.4,3.4,17.7c-0.6-0.3-1.2-0.5-1.8-0.7c-0.3-0.1-0.7-0.2-1-0.3c-2.2-0.5-4.5-0.7-6.7-0.6H86
	c-0.6,0-1.1,0.1-1.7,0.2c-0.6,0.1-1.1,0.2-1.7,0.3c-3.3-3.2-5.3-7.4-5.5-12C77.1,55,77,49.5,80.2,47.5z"/>
<path class="st21" d="M114.2,71.8C114.2,71.8,114.2,71.8,114.2,71.8c0-0.1,0-0.2-0.1-0.2c-0.1,0-0.2,0.1-0.2,0.2
	c0,0.1,0,0.2,0.1,0.2C114.1,72,114.2,71.9,114.2,71.8z"/>
<path class="st21" d="M114,73.7c-0.1,0-0.2,0.1-0.2,0.2s0.1,0.2,0.2,0.2c0.1,0,0.2-0.1,0.2-0.2c0,0,0,0,0,0l0,0
	C114.2,73.8,114.1,73.7,114,73.7C114,73.7,114,73.7,114,73.7z"/>
<path class="st21" d="M113.7,72.8L113.7,72.8c0-0.1,0-0.2-0.1-0.2c-0.1,0-0.2,0-0.2,0.1c0,0,0,0.1,0,0.1c0,0.1,0.1,0.2,0.2,0.2
	C113.7,73,113.7,72.9,113.7,72.8C113.7,72.8,113.7,72.8,113.7,72.8z"/>
<path class="st21" d="M106.1,73.3c0-0.2,0-0.4-0.1-0.4s-0.2,0.1-0.2,0.3s0,0.4,0.1,0.4S106.1,73.5,106.1,73.3z"/>
<path class="st21" d="M95.7,69.6c0.5-2.3,2.2-11.5-3.4-17.7c-2.8-3.2-8.6-6.6-12.2-4.4c-3.2,2-3.1,7.5-3.1,9c0.3,4.6,2.2,8.8,5.5,12
	c0.5-0.1,1.1-0.2,1.7-0.3s1.1-0.1,1.7-0.2h0.2c2.3-0.1,4.5,0.1,6.7,0.6c0.3,0.1,0.7,0.2,1,0.3C94.5,69.1,95.1,69.4,95.7,69.6z"/>
<path class="st22" d="M26.9,47.8c1.6-1.5,4-1.9,6-1.1c2.1,1,2.8,3.4,3.1,4.3c0.2,0.7,0.3,1.5,0.3,2.3c0.1,8-8.6,20.3-12,33.6
	c-1.5,5.7-3.3,12.9-3,20.5c0.1,5.1,1.5,10,3.9,14.5c6.2,11,17.7,14.9,18.8,15.2c4,1.3,8.2,1.8,12.3,1.4l0.2,0.2
	c1.1,1.1,2.3,2,3.5,2.9l0,0l0,0c0,0-0.5,3.1,0.5,4.7s3,2.5,9,2.7s6.9-0.6,11.9-0.6c8.6,0,13.5,2.3,14.7,0.1c0.4-1,0.4-2.2-0.1-3.1
	c-0.3-0.8-0.9-1.4-1.6-1.9l-0.1-0.1c0.1-0.5,0.1-1,0-1.5c-0.2-0.5-0.5-1-0.9-1.4c0.5,0.1,1.3,0.2,2.2,0.3c2.1,0.3,3.2,0.5,3.8,0.6
	c1.3,0.3,2.6,0.8,3.9,1.4c0.8,0.5,1.8,0.8,2.7,0.9c0.4,0.1,0.8,0,1.2-0.1c0.6-0.3,1.1-0.9,1.2-1.6c0.1-0.3,0.1-0.7,0-1l0.2-0.1
	l0.2-0.1c0.3-0.2,0.5-0.4,0.7-0.7c0.3-0.6-0.3-2.1-1.5-3.1c-0.9-0.8-2-1.3-3.2-1.6c-0.2,0-0.8-0.1-0.8-0.3s0.1-0.1,0.2-0.2
	c3.8-2.1,6.6-5.6,7.8-9.8c0.1-0.4,2-7.6-2.2-13.6c-0.8-1.1-1.7-2.1-2.8-3l0.2-0.2c0.2,0.2,0.4,0.4,0.6,0.6c0.3,0.2,0.6,0.4,1,0.4
	c0.4,0,0.8-0.1,1.2-0.4c0.3-0.3,0.5-0.7,0.5-1.2c0,0,0-0.1,0-0.2s0-0.4-0.1-0.5c0.1,0,0.3,0.1,0.4,0.1c0.4,0,0.8-0.1,1.2-0.4
	c0.3-0.3,0.5-0.7,0.5-1.2c0-0.5-0.4-0.8-0.9-1.2c-0.1-0.1-0.3-0.3-0.5-0.4c0.5-1.3,0.7-2.6,0.7-4c-0.1-1.5-0.4-3-0.9-4.4l0,0l0,0
	c-0.2-0.4-0.4-0.7-0.7-1.1s-0.1-0.3,0.1-0.5c1.8-1.5,3-3.5,3.6-5.8c0-0.1,0-0.2,0-0.3c0.2-0.5,0-1.1-0.5-1.4c-0.6-0.4-1.3-0.6-2-0.5
	c-0.3,0-0.6,0.2-0.8,0.4c-0.2,0.2-0.4,0.5-0.4,0.8c-0.1,0.5-0.2,1-0.2,1.5c-0.1,1.2-0.6,2.3-1.4,3.2c0,0-0.1,0.1-0.1,0.1
	c-1.3-1.2-2.8-2.3-4.4-3.1l-0.4-0.2l-0.7-0.3c-0.4-0.2-1.9-0.7-3.9-1.3c-0.2-0.3-0.4-0.6-0.6-1s-0.4-0.7-0.5-1.1
	c1,0.3,2.9,0.7,4.3-0.3l0.2-0.2l0,0c0.2-0.2,0.3-0.3,0.5-0.5l0,0c0.2,0.1,0.3,0.1,0.5,0.2c0.8,0.3,1.7,0.3,2.5,0.1
	c1.6-0.4,2.7-1.7,3.6-2.8c0.9-1.2,1.7-2.5,2.2-3.9l0,0c2.2-0.5,4-2.2,4.7-4.4c-0.6,2.2-2.4,3.8-4.6,4.2c-0.9,0.2-1.8,0.1-2.7-0.1
	c-0.2-0.1-0.4-0.2-0.6-0.4l0,0l0,0c-0.7,0.4-1.4,0.7-2.2,0.8c-1.7,0.3-3.5,0-5.1-0.8c-1.4-0.7-2.5-1.8-3.5-3c-0.5,0.6-1,1.1-1.6,1.6
	c0.9,2.2,2.5,3.9,4.6,5c-0.2,0.5-0.4,0.9-0.6,1.3c0.8,0.8,1.8,1.5,2.8,2c-0.2,0.3-0.5,0.5-0.7,0.7c-0.9,0.7-2.3,1.2-4.6,0.3
	c-1.2-0.5-2.3-1.2-3.3-2.1c-1.4-0.6-2.9-0.6-4.3,0c0,0-4.5,1.9-5.8,4.7c0,0-6.3-13.1-15.7-4.9c-2.6-2.2-4.6-4.9-5.9-8
	c-0.9-2.1-2.8-6.7-1.3-11.3c1.3-4,3.9-4.3,6.5-8.3c1.8-2.6,3.5-6.8,3.3-13.5c0.2-0.1,0.5-0.3,0.8-0.4c1.3-0.6,2.7-1.2,4.1-1.6
	c1.3-0.4,2.5-0.7,3.8-1c1.6-0.3,3.3-0.5,4.9-0.6l0,0c3.3-0.1,6.6,0.3,9.7,1.3h0.1c0.7-0.9,1.2-1.9,1.7-3c0.2-0.5,2.3-6.1-0.3-9.2
	c-0.6-0.8-1.4-1.3-2.4-1.4c-1.2,0-2.3,0.5-3.1,1.4c-1,1-1.6,2.2-1.9,3.6c-0.1,0.4-0.2,0.8-0.2,1.2c-0.2,1.2-0.3,2.1-0.3,2.4
	c-0.1,0.8-0.7,2.1-3.1,3.6c-0.4,0-0.8,0-1.2,0c-1.2,0.1-2.4,0.2-3.6,0.4c0.3-1,2-7.3-1.2-11c-0.3-0.4-2.4-2.7-4.3-2.2
	c-0.8,0.2-1.5,0.8-1.9,1.5c-0.2,0.3-0.3,0.7-0.4,1l0,0c-4.5-3.1-16-9.7-29.7-6.5c-8.9,2.1-21.9,9.1-23.3,20.1
	c-0.1,0.7-0.1,1.5-0.1,2.2l0,0c0,0.2,0,0.5,0,0.7c0.4,7,4.8,12.9,5.8,12.6S23.7,50.7,26.9,47.8z"/>
<path class="st23" d="M89.1,106.7c0,0.5,0,0.9,0,1.4c0.1,1.5,0.4,2.9,1.2,4.1c0.1,0.1,0.1,0.2,0.2,0.3c0.1,0.2,0.1,0.4,0.1,0.6
	c-0.2,0.5-0.2,1-0.2,1.5c0,0.1,0,0.1,0.1,0.2c0.5,0.3,0.9,0,1.4-0.3c0.1,0,0.1-0.1,0.1-0.1c0.2-0.4,0.6-0.4,0.9-0.3H93l0,0
	c2.3,0.6,4.8,0.4,6.9-0.5l0,0l0.4-0.2l0.5-0.2c1.6-0.8,3.1-1.8,4.5-3l0.3-0.3l0.1-0.1c0.3-0.3,0.6-0.6,0.8-0.8l0.2-0.2l0.1-0.2
	c0.5-0.6,1-1.3,1.5-2c0-1-0.5-2-1.2-2.7c-1.1-1-2.3-1.9-3.5-2.7c-1.3-0.9-2.6-1.7-3.9-2.4c-1-0.6-2.1-1.2-3.2-1.7s-2.3-1.1-3.5-1.6
	c-0.2-0.1-0.5-0.2-0.8-0.2l0,0l0,0c-0.3,0.3-0.4,0.7-0.6,1.1c-0.7,1.6-1.2,3.2-1.6,4.9C89.5,103.1,89.2,104.9,89.1,106.7z"/>
<path class="st24" d="M109,105.9c0.8,0.1,1.6-0.5,1.8-1.3c0.6-1.4,0.9-2.9,0.9-4.5c-0.1-2.6-1.2-5.1-2.9-7.1c-0.9-1.1-2-2-3.2-2.8
	c-0.6-0.4-1.1-0.7-1.1-0.7c-0.4-0.3-0.9-0.5-1.4-0.7c-0.7-0.3-1.4-0.6-2.2-0.7c-1.4-0.2-1.4,0.6-3,0.6c-0.7-0.1-1.3,0-2,0.1
	c-0.9,0.2-1.2,0.9-1.4,1.7c-0.1,0.5,0,1,0.1,1.4c0.4,1.1,1,2.1,1.9,2.9c0.4,0.4,0.8,0.8,1.1,1.2s0.8,0.6,1.2,0.9
	c0.2,0.1,0.4,0.3,0.5,0.5c0.1,0.1,0.2,0.2,0.4,0.3c2.4,1.3,4.6,2.8,6.7,4.4c0.4,0.3,0.9,0.7,1.3,1.1c0.5,0.5,0.9,1.2,1,2
	C108.8,105.6,108.7,105.8,109,105.9z"/>
<path class="st25" d="M99.3,97.5c-0.1-0.4-0.5-0.6-0.8-0.8c-0.5-0.3-1-0.7-1.3-1.2c-0.7-0.7-1.3-1.5-1.9-2.3
	c-0.8-1.1-0.9-2.6-0.1-3.8c0.2-0.3,0.6-0.4,0.9-0.5c0.8-0.2,1.7-0.2,2.5,0c1.2,0.2,2.4,0.5,3.6,0.8l0.6,0.2c1.8,0.6,3.4,1.3,5,2.3
	c1,0.7,1.3,1,1.4,1c-1.4-1.7-3.2-3.1-5.2-4c-0.5-0.2-0.8-0.4-1.1-0.5c-1.9-0.9-4-1.4-6.2-1.4c-2.9-0.1-5.6,1.1-7.5,3.3
	c-0.5,0.5-0.9,1.1-1.2,1.7c-0.4,0.5-0.4,1.3,0,1.8c0.2,0.2,0.3,0.1,0.5,0c0.9-0.5,2-0.5,2.9-0.1c0.5,0.2,1,0.4,1.6,0.6
	c1.3,0.5,2.6,1.1,4,1.7c0.4,0.1,0.7,0.3,1,0.5l1,0.6C99,97.5,99.1,97.6,99.3,97.5z"/>
<path class="st26" d="M86.2,105c0.1,1.1,0.4,2.2,0.8,3.2c0.1,0.2,0.2,0.4,0.2,0.6c0.2,0.5,0.5,1,0.8,1.5c0.5,0.9,1.2,1.7,2,2.3
	c0.1,0.1,0.2,0.3,0.1,0.4c-0.2,0.5-0.2,1.1,0,1.6c0.1,0.2,0.2,0.3,0.3,0.3c0-0.6,0.1-1.3,0.3-1.9c0.1-0.1,0-0.3-0.1-0.4l-0.1-0.2
	c-0.9-1.6-1.4-3.5-1.3-5.3v-0.5c0.1-1.6,0.3-3.1,0.7-4.6c0.3-1,0.6-2.1,1-3.1c0.4-1.1,0.9-2.2,1.3-3.2l0,0l0,0l0,0
	c0,0-0.1-0.1-0.1-0.1c-1-0.5-2.1-0.8-3.2-0.9c-0.5-0.1-1,0.1-1.4,0.5l0,0c-0.8,1.9-1.2,4-1.4,6.1C86.1,102.5,86.1,103.7,86.2,105z"
	/>
<path class="st27" d="M99.3,97.5l-1.5-0.8c-0.3-0.1-0.6-0.4-1-0.5c-1.3-0.7-2.6-1.2-4-1.8c-0.4,0.3-0.6,0.7-0.6,1.1l0,0
	c0.5,0.1,1,0.3,1.5,0.5c1.7,0.7,3.4,1.6,5.1,2.5c1.2,0.7,2.4,1.4,3.6,2.1c0.9,0.6,1.8,1.2,2.8,1.8c0.8,0.5,1.5,1.1,2.1,1.7
	c0.4,0.4,0.7,1,0.9,1.5c0.1,0.3,0.2,0.6,0.3,0.9l0.5-0.8c-0.1-0.7-0.3-1.4-0.7-2.1c-0.5-0.6-1.1-1.2-1.8-1.6
	c-1.1-0.9-2.3-1.7-3.5-2.5c-0.9-0.6-1.9-1.1-2.8-1.7L99.3,97.5z"/>
<path class="st28" d="M92.2,95.6l0.6-1.1c-0.7-0.3-1.4-0.5-2.1-0.8c-0.8-0.2-1.6-0.1-2.3,0.2c-0.2,0.1-0.3,0.2-0.5,0.1
	c-0.1,0.4-0.2,0.7-0.4,1.1c1-0.5,2.2-0.5,3.3,0L92.2,95.6z"/>
<path class="st24" d="M96.8,96.2c0.3,0.2,0.6,0.4,1,0.5C97.5,96.5,97.2,96.3,96.8,96.2z"/>
<path class="st24" d="M110.1,94.2c1.8-1.5,3-3.5,3.6-5.8c0-0.1,0-0.2,0-0.3c0,0-0.1-0.1-0.1-0.1h-0.1c-0.3,0.2-0.6,0.3-0.9,0.2
	c-0.2,0-0.4,0-0.5,0.1l0,0l0,0c-0.6,1.3-1.3,2.6-2.2,3.8c-0.3,0.4-0.6,0.7-1,1l-0.1,0.1l0.1,0.1l1.8,2.4l0,0l0,0
	c-0.2-0.4-0.4-0.7-0.6-1.1S109.9,94.3,110.1,94.2z"/>
<path class="st25" d="M107.8,91.9L107.8,91.9l1,1.3l0.1,0.1l0.1-0.1c0.6-0.5,1.1-1.1,1.5-1.7c0.6-0.9,1.1-1.8,1.5-2.7
	c0-0.1,0.1-0.2,0.1-0.3l0,0c-0.1-0.1-0.2-0.1-0.3-0.2c-0.5-0.2-0.9-0.4-1.3-0.7h-0.1l-0.1-0.1c-0.1-0.1-0.2-0.1-0.2,0
	c-0.1,0.5-0.2,1-0.2,1.5c-0.1,1.2-0.6,2.4-1.4,3.2c-0.1,0.1-0.2,0.2-0.3,0.1l0,0c0,0-0.1,0-0.1-0.1C108,92.1,107.9,92,107.8,91.9z"
	/>
<path class="st29" d="M110,87.4c0.2,0,0.2,0.2,0.4,0.2c-0.1-0.5,0.3-1.1,0.8-1.2c0,0,0,0,0,0c0.6-0.1,1.3,0.1,1.8,0.5
	c0.3,0.2,0.5,0.6,0.5,1c0,0.1,0,0.2,0.1,0.2h0.1c0.2-0.5,0-1.1-0.5-1.4c-0.6-0.4-1.3-0.6-2-0.5C110.6,86.3,110.1,86.8,110,87.4z"/>
<path class="st30" d="M113.6,88.1c0.2-0.6-0.1-1.2-0.6-1.4c-0.5-0.3-1-0.4-1.6-0.4c-0.4,0.1-0.8,0.3-1,0.6c-0.2,0.2-0.1,0.5,0,0.7
	c0.5,0.4,1.1,0.7,1.7,0.8h1C113.3,88.4,113.5,88.3,113.6,88.1z"/>
<path class="st31" d="M113.1,87.9c-0.6,0-1.2,0-1.8-0.2c-0.2-0.1-0.6-0.1-0.6-0.4s0.4-0.3,0.7-0.3c0.3,0,0.5,0,0.8,0.1
	c-0.2,0-0.4,0-0.6,0s-0.2,0.1-0.2,0.2c0,0.1,0.1,0.2,0.2,0.2c0.3,0.1,0.7,0.2,1,0.1c0.1,0,0.2-0.1,0.2-0.3c0-0.1-0.1-0.3-0.2-0.3
	c-0.5-0.3-1.1-0.3-1.7-0.1c-0.2,0-0.3,0.2-0.3,0.4c0,0.2,0.2,0.3,0.3,0.4C111.5,88,112.3,88.1,113.1,87.9z"/>
<path class="st30" d="M112.1,87.2c-0.2-0.1-0.4-0.1-0.6,0C111.6,87.5,111.9,87.3,112.1,87.2z"/>
<path class="st18" d="M67,92.4c0.9,5.9,4,12.2,7.8,14l0.5,0.2c5.9,2.8,11.8,3.7,13.2-0.6l0.4-0.3c1.2-1.1,4.2-4,5.2-6.1l0,0
	c1.2-0.2,3.3-0.9,3.3-2.4c0-0.9-0.6-1.7-1.4-2.1l0,0l0,0c0,0,1.6-3.4-2.7-3.9l0,0c-0.7-1.1-1.8-1.7-3.1-1.8c0.1-0.1,0.3-0.2,0.6-0.4
	c1.1-0.7,2.3-1.2,3.6-1.4c1.4-0.3,2.9-0.3,4.3,0c-0.2-0.3-0.3-0.7-0.5-1s-0.5-0.8-0.7-1.2c-1.2-0.5-2.3-1.2-3.3-2.1
	c-1.4-0.6-2.9-0.6-4.3,0c0,0-4.5,1.9-5.8,4.7c0,0-6.3-13.1-15.7-4.9L68,83.2C66.7,85.4,66.5,88.8,67,92.4z"/>
<path class="st32" d="M84.1,97.1c-2.1,0.3-3.9,1.8-4.5,3.9c0.1-0.5,0.2-1.1,0.5-1.6c0.8-1.5,2.2-2.6,3.9-3L84.1,97.1L84.1,97.1z"/>
<path class="st32" d="M96.5,95.2c-2.2,0.3-3.9,1.8-4.5,3.9c0.1-0.5,0.2-1.1,0.5-1.6c0.8-1.5,2.2-2.6,3.9-3L96.5,95.2L96.5,95.2z"/>
<path class="st32" d="M93.4,91c-2,1-3.1,3.1-2.9,5.4c-0.1-0.5-0.2-1.1-0.1-1.7c0.3-1.7,1.2-3.3,2.7-4.3L93.4,91L93.4,91z"/>
<path class="st33" d="M60.3,141.1c2.9,2.1,6.2,3.5,9.7,4.2c-3.6-0.4-7.1-1.6-10.2-3.4L60.3,141.1L60.3,141.1z"/>
<path class="st34" d="M75,112.8c2.4,2.6,4.6,5.4,6.7,8.3c0.7,1,5.9,9.4,2.4,15.5c-0.5,0.9-1.2,1.7-2.1,2.4c1.7-0.1,3.4,0,5.2,0.1
	c1.4-0.7,2.8-1.6,4-2.6c8.4-6.9,9.5-18.3,9.6-23.2c-0.2,0.1-0.3,0.1-0.5,0.2l-0.4,0.2l0,0c-2.2,1-4.7,1.2-7,0.5l0,0
	c-0.1,0-0.1,0-0.2,0c-0.4-0.1-0.7-0.1-0.9,0.3c0,0.1-0.1,0.1-0.1,0.1c-0.4,0.3-0.8,0.6-1.4,0.3c-0.2-0.1-0.3-0.2-0.3-0.3
	c-0.2-0.5-0.2-1.1,0-1.6c0.1-0.2,0-0.3-0.1-0.4c-0.8-0.7-1.5-1.4-2-2.3c-0.3-0.5-0.5-1-0.8-1.5c-0.1-0.2-0.2-0.4-0.2-0.6
	c-2.5,1.7-7.1,0.6-11.6-1.6C74.6,108.7,74.5,110.8,75,112.8z"/>
<path class="st35" d="M108.2,141.4c-1.4-2.2-4-3.2-6.5-3.6c2.5,0,4.9,1,6.7,2.7c0,0.1,0.3,0.4,0.5,0.5L108.2,141.4z"/>
<path class="st35" d="M104.2,135.7c-2.5,1-5.1,1.5-7.8,1.3c2.6,0,5.2-0.7,7.4-1.9L104.2,135.7L104.2,135.7z"/>
<path class="st32" d="M83.3,69c-1.7,0.2-3.5,0.7-5.1,1.3c1.6-0.8,3.3-1.5,5-2L83.3,69L83.3,69z"/>
<path class="st19" d="M100,82.3c0.8,0.8,1.8,1.5,2.8,2c0.2,0.1,0.3,0.1,0.5,0.2c1.1-0.9,2.1-1.9,2.9-3c0.1-0.1,0.1-0.2,0.2-0.3
	c0.8-1.2,1.4-2.5,1.9-3.8c-0.7,0.4-1.4,0.7-2.2,0.8c-1.7,0.3-3.5,0-5.1-0.8c0.1,1.2,0,2.5-0.4,3.6C100.5,81.4,100.3,81.9,100,82.3z"
	/>
<path class="st36" d="M103.3,84.5c0.8,0.3,1.7,0.3,2.5,0.1c1.5-0.5,2.8-1.5,3.6-2.8c0.9-1.2,1.7-2.5,2.2-3.9
	c-0.9,0.2-1.8,0.1-2.7-0.1c-0.2-0.1-0.4-0.2-0.6-0.4l0,0c-0.5,1.3-1.1,2.6-1.9,3.8c-0.1,0.1-0.1,0.2-0.2,0.3
	C105.4,82.6,104.4,83.6,103.3,84.5z"/>
<path class="st36" d="M100,82.3c0.8,0.8,1.8,1.5,2.8,2c0.2,0.1,0.3,0.1,0.5,0.2c1.1-0.9,2.1-1.9,2.9-3c0.1-0.1,0.1-0.2,0.2-0.3
	c0.8-1.2,1.4-2.5,1.9-3.8c-0.7,0.4-1.4,0.7-2.2,0.8c-1.7,0.3-3.5,0-5.1-0.8c0.1,1.2,0,2.5-0.4,3.6C100.5,81.5,100.3,81.9,100,82.3z"
	/>
<path class="st15" d="M71.6,41.3c1.3-0.6,2.7-1.2,4.1-1.6c2.1-5.2,1.9-9.7-0.2-11.7c-0.8-0.7-1.8-1.2-2.8-1.3
	c-0.2,0.3-0.4,0.6-0.6,1c-0.5,1.2-0.9,2.4-1.2,3.7C70.3,34.7,70.5,38.1,71.6,41.3z"/>
<path class="st17" d="M72.6,26.7c1.1,0.1,2.1,0.6,2.8,1.3c2.2,2.1,2.3,6.6,0.2,11.7c1.3-0.4,2.5-0.7,3.8-1c0.8-2.8,1.6-7.7-1.1-11.1
	c-0.3-0.4-2.1-2.7-4-2.3C73.7,25.6,73.1,26,72.6,26.7z"/>
<path class="st22" d="M72.6,26.7c1.1,0.1,2.1,0.6,2.8,1.3c2.2,2.1,2.3,6.6,0.2,11.7c1.3-0.4,2.5-0.7,3.8-1c0.8-2.8,1.6-7.7-1.1-11.1
	c-0.3-0.4-2.1-2.7-4-2.3C73.7,25.6,73.1,26,72.6,26.7z"/>
<path class="st37" d="M85.1,65.2c0,0.7,0.2,1.4,0.4,2l0,0c0.2,0.3,0.5,0.6,0.7,0.8c2.3-0.1,4.5,0.1,6.7,0.6c0.8-0.8,1.3-1.7,1.4-2.8
	l0,0c0-0.4,0-0.9,0-1.4l0,0c-0.3-2.5-2.6-4.3-5.2-4C86.8,60.7,85,62.7,85.1,65.2L85.1,65.2z M86.8,64.7c0-0.7,0.6-1.2,1.3-1.1
	c0.7,0,1.2,0.6,1.1,1.3c0,0.7-0.6,1.2-1.2,1.1C87.3,66,86.8,65.4,86.8,64.7C86.8,64.7,86.8,64.7,86.8,64.7z"/>
<path class="st38" d="M94.3,65.8c0-0.2,0-0.4,0-0.6c0-0.2,0-0.5,0-0.7C94.3,65,94.3,65.4,94.3,65.8z"/>
<path class="st39" d="M86.8,64.8c0,0.7,0.6,1.2,1.3,1.2s1.2-0.6,1.2-1.3c0-0.7-0.6-1.2-1.2-1.2C87.3,63.5,86.7,64,86.8,64.8
	C86.7,64.7,86.7,64.7,86.8,64.8z"/>
<path class="st32" d="M76.1,66c-3.7,0.6-6.6,3.7-7,7.4c-0.1,1.2,0,2.5,0.3,3.7C66.7,72.2,70.3,65.8,76.1,66L76.1,66z"/>
<path class="st40" d="M68.3,83c-5.5-4.5-10-13.5-7.1-20.5c1-2.4,3.4-3.9,4.9-5.8c3.3-3.9,4.5-9.3,4.4-14.4V42c0-0.5,0.7-0.8,1.1-1
	c2.9-1.5,6-2.4,9.2-2.7c1.3-0.1,2.5-0.2,3.8-0.5c3.3,0,6.6,0.5,9.8,1.6c-3.2-0.9-6.5-1.3-9.8-1.2c-2.5,0.5-5.1,0.5-7.5,1.2
	c-2.1,0.6-4.1,1.5-6,2.5v0.2c0.2,5.2-0.9,10.8-4.5,14.9c-1.7,2-4,3.3-4.9,5.6C59,69.5,63.2,78.3,68.3,83z"/>
<path class="st41" d="M77.1,56.5c0.3,4.6,2.2,8.8,5.5,12c0.5-0.1,1.1-0.2,1.7-0.3S85.4,68,86,68c-0.2-0.2-0.3-0.5-0.5-0.8l0,0
	c-1.5-1.8-2.3-4.1-2.4-6.4c0-0.9-0.1-4.2,1.8-5.5C87,54,90.3,56.1,92,58c1.5,1.8,2.3,4.1,2.3,6.4l0,0c0,0.2,0,0.5,0,0.7
	c0,0.2,0,0.4,0,0.6l0,0c0,1.1-0.1,2.2-0.4,3.2c0.6,0.2,1.2,0.4,1.8,0.7c0.5-2.3,2.3-11.5-3.3-17.7c-2.8-3.2-8.6-6.6-12.2-4.4
	C77,49.5,77.1,55,77.1,56.5z"/>
<path class="st42" d="M83.1,60.9c0.1,2.3,0.9,4.6,2.4,6.4c-0.3-0.6-0.4-1.3-0.4-2.1c-0.2-2.6,1.7-4.8,4.3-4.9
	c2.5-0.2,4.7,1.7,4.9,4.2c0-2.3-0.8-4.6-2.3-6.4c-1.7-1.9-5-4-7.1-2.7C83,56.6,83.1,60,83.1,60.9z"/>
<path class="st43" d="M109,105.8C109,105.8,109,105.8,109,105.8c0.1,0.6,0.3,1,0.7,1.3c0.3,0.3,0.6,0.4,1,0.4c0.5,0,0.9-0.2,1.2-0.6
	c0.3-0.3,0.5-0.7,0.5-1.2c0-0.5-0.4-0.8-0.9-1.2c-0.3-0.3-0.5-0.4-0.8-0.5c-0.2,0-0.4,0-0.6,0.1C109.5,104.4,109,105.1,109,105.8z"
	/>
<path class="st43" d="M107,107.9c0,0.5,0.3,1,0.7,1.3c0.3,0.3,0.6,0.4,1,0.4c0.5,0,0.9-0.2,1.2-0.6c0.3-0.3,0.5-0.7,0.5-1.2
	c0-0.5-0.4-0.8-0.9-1.2c-0.3-0.3-0.5-0.5-0.8-0.5c-0.3,0-0.6,0.1-0.9,0.3l-0.6,0.7l0,0C107.1,107.4,107,107.6,107,107.9z"/>
<path class="st32" d="M94.5,79.4c1.7,2.9,4.7,4.4,7.8,5.4C99,84.9,95.2,82.8,94.5,79.4z"/>
<path class="st32" d="M98.2,86.7c-2.1-2.6-5.3-3.6-8.6-4.1C92.9,82,97,83.5,98.2,86.7z"/>
<path class="st44" d="M84,87.8c-3.5-6.6-9.9-10.3-15.8-4.5c-1.4,2.7-1.3,6-0.9,9h-0.7h0.7c0.9,5,2.9,10.6,7.2,13.5
	c3.6,1.8,11.9,5.5,13.8,0c2.4-1.6,4.3-3.7,5.7-6.2c0.1-0.1,0-0.1,0.2-0.1c1.6-0.2,3.8-1.2,3.1-3.2c-0.1-0.6-0.6-1.1-1.3-1.2l0.1-0.2
	c0.8-2.2-0.6-3.7-2.7-3.9c-0.4-0.6-1-1.1-1.6-1.5c-0.6-0.4-1.4-0.5-2.1-0.3c0.7-0.2,1.5-0.2,2.1,0.2c0.6,0.3,1.2,0.8,1.6,1.4
	c2.3,0.2,3.8,1.8,3,4.2l-0.1-0.2c0.7,0.2,1.2,0.7,1.4,1.4c0.8,2.2-1.5,3.5-3.4,3.8l0.2-0.1c-0.6,1.3-1.4,2.5-2.4,3.6
	c-1,1-2.1,2-3.3,2.9l0.1-0.2c-2.2,5.9-10.8,2.2-14.7,0.2c-4.6-3.1-6.5-8.8-7.5-14l0.7-0.1l-0.7,0.1c-0.2-1.6-0.3-3.2-0.2-4.8
	c0.1-1.7,0.5-3.3,1.3-4.7c1.3-1.2,2.8-2.1,4.4-2.7C77.5,78.6,81.9,83.5,84,87.8L84,87.8z"/>
<path class="st45" d="M104.4,74.8C97.7,74,91,75.8,85.8,80c5.2-4.4,11.9-6.6,18.7-6L104.4,74.8L104.4,74.8z"/>
<ellipse transform="matrix(6.418397e-02 -0.9979 0.9979 6.418397e-02 23.5695 173.9157)" class="st45" cx="104.5" cy="74.4" rx="0.3" ry="0.2"/>
<path class="st45" d="M104.3,72.4C98,70.3,91,70.7,85.1,73.8c5.9-3.3,13-4,19.5-2.1L104.3,72.4z"/>
<ellipse transform="matrix(0.1905 -0.9817 0.9817 0.1905 13.7911 160.8613)" class="st45" cx="104.4" cy="72.1" rx="0.3" ry="0.2"/>
<path class="st35" d="M70.1,105.6c0.9,4.1,4.8,6.3,7.3,9.4c6.2,6.7,13.9,20.8,1.9,25.8c-1.9,0.8-3.9,1.2-5.9,1.2
	c2-0.1,4-0.6,5.8-1.5c11.2-5.1,3.5-18.6-2.2-25.1C74.6,112.2,70.7,109.8,70.1,105.6L70.1,105.6z"/>
<path class="st33" d="M93.4,140.8c-3.8-1-7.6-1.1-11.4-1.7C85.7,138.4,90.1,138.6,93.4,140.8z"/>
<path class="st35" d="M101.3,112.8c-0.3,10.3-4.3,21.7-14,26.5c9.5-5,13.2-16.4,13.2-26.5L101.3,112.8z"/>
<path class="st32" d="M106.8,108.9c-3.3,4.4-9.6,7.1-14.2,5.6c-1.9,1.3-3.2,0.9-2.8-1.6c0-0.1-0.2-0.3-0.3-0.3
	c-1.2-1.2-2.1-2.7-2.6-4.3c0.7,1.5,1.7,2.9,2.9,4c0.2,0.2,0.5,0.4,0.5,0.6s0,0.5,0,0.7c-0.1,1.6,0.9,1.1,1.8,0.5
	c0.1-0.1,0.3-0.2,0.5-0.2C97.9,115.2,103.1,112.5,106.8,108.9L106.8,108.9z"/>
<path class="st46" d="M72,41.1c15.7-0.8,22.6,3.3,25.8,7.8c4,5.5,4,13.6,8.9,14.8c2,0.4,4.1-0.2,5.7-1.5c-0.8-6.2-3.5-11.9-7.8-16.4
	c-0.1-0.1-0.2-0.2-0.3-0.3l-0.1-0.1l-0.4-0.3l-0.2-0.2c-2.7-2.4-5.9-4.2-9.3-5.3h-0.1l0,0h-0.1c-3.1-1-6.4-1.5-9.7-1.3
	c-1.6,0.1-3.3,0.2-4.9,0.6c-1.3,0.2-2.6,0.6-3.8,1C74.4,40.1,73.2,40.6,72,41.1z"/>
<path class="st34" d="M24.4,86.8c-2.4,9.3-5.9,22.9,0.9,34.9c5.8,10.2,16.1,14.3,18.4,15.1c-2.5-4.7-4.7-9.5-6.6-14.5
	c-4.4-10.6-0.5-19.9-0.2-19.8c0.1,2.2,1.8,6,1.9,6.3c-0.1-4.6,0.8-9.3,2.7-13.5c-0.3,0.8,0.5,4.7,0.5,4.7s2-2.8,6.2-16.5
	s1.6-28.1,1.5-28.1c0.4-0.9,3-0.1,3.6,0.2s1.5,0.9,1.5,0.5c-0.9-2.7-4.9-4-4.9-4s2-2.2,2.1-3.5c0.4-5.7-5-10.9-5-10.8
	c0.4,3.3,0.2,6.6-0.6,9.8c-1.3-4.4-5.6-8.6-5.7-8.6c1.1,1.7,1.1,5.9,1,5.9c-10.8-6.4-17.9-5.1-22.5-1.4c0.1,7.2,4.7,13.5,5.8,13.2
	s-1-6.2,2.2-9.2c1.6-1.5,4-1.9,6-1.1c2.1,1,2.8,3.4,3.1,4.3C38.4,58.5,28.2,72.1,24.4,86.8z"/>
<path class="st34" d="M81.2,90.8c0.1,0.3,0.2,0.5,0.4,0.8c0.9,1.6,1.6,3.3,2.2,5.1l0,0h0.1c0.2,0,0.4,0,0.5,0.2
	c-0.2-0.9,1.4-2.3,1.4-2.3S85.4,93.4,87,91c0.8-1,1.9-1.6,3.1-1.7L90,89.2C89,88.5,83.9,85.5,81.2,90.8z"/>
<path class="st47" d="M81.3,90.8c0.1,0.3,0.2,0.5,0.4,0.8c0.9,1.6,1.6,3.3,2.2,5.1l0,0H84c0.2,0,0.4,0,0.5,0.2
	c-0.2-0.9,1.4-2.3,1.4-2.3s-0.3-1.2,1.3-3.6c0.8-1,1.9-1.6,3.1-1.7l-0.1-0.1C89.1,88.6,84,85.5,81.3,90.8z"/>
<path class="st44" d="M80.8,87.2c-0.1,1.7,0.4,3.4,1.4,4.7c0.9,1.5,1.6,3.1,2.1,4.7l-0.4-0.3c0.4,0,0.8,0,1,0.4L84,97
	c-0.1-1.1,0.8-1.9,1.5-2.6l-0.1,0.3c0-2.5,2.2-5.4,4.9-5.4c-1.8,0.4-3.3,1.8-3.8,3.6c-0.3,0.6-0.4,1.2-0.3,1.9
	c-0.5,0.5-1.4,1.3-1.4,2L84,96.9c0,0.1,0.1,0.1,0.1,0.2c-0.2,0-0.4,0-0.6,0c-0.5-1.7-1.2-3.4-1.9-4.9C80.8,90.7,80.2,88.8,80.8,87.2
	L80.8,87.2z"/>
<path class="st48" d="M72.1,40.8c1.1-0.5,2.2-1,3.3-1.3c1.7-4.2,1.6-7.9-0.2-9.5c-0.6-0.6-1.4-0.9-2.3-1c-0.2,0.2-0.3,0.5-0.4,0.8
	c-0.4,1-0.7,2-0.9,3C70.9,35.4,71.1,38.2,72.1,40.8z"/>
<path class="st49" d="M71.2,41.3c1.3-0.6,2.7-1.1,4.1-1.5c2.1-4.8,1.9-9.1-0.2-11c-0.8-0.7-1.8-1.1-2.8-1.2
	c-0.2,0.3-0.4,0.6-0.6,0.9c-0.5,1.1-0.9,2.3-1.2,3.5C69.9,35.1,70.1,38.4,71.2,41.3z"/>
<path class="st22" d="M24.4,86.8c-2.4,9.3-5.9,22.9,0.9,34.9c5.8,10.2,16.1,14.3,18.4,15.1c-2.5-4.7-4.7-9.5-6.6-14.5
	c-4.4-10.6-0.5-19.9-0.2-19.8c0.1,2.2,1.8,6,1.9,6.3c-0.1-4.6,0.8-9.3,2.7-13.5c-0.3,0.8,0.5,4.7,0.5,4.7s2-2.8,6.2-16.5
	s1.6-28.1,1.5-28.1c0.4-0.9,3-0.1,3.6,0.2s1.5,0.9,1.5,0.5c-0.9-2.7-4.9-4-4.9-4s2-2.2,2.1-3.5c0.4-5.7-5-10.9-5-10.8
	c0.4,3.3,0.2,6.6-0.6,9.8c-1.3-4.4-5.6-8.6-5.7-8.6c1.1,1.7,1.1,5.9,1,5.9c-10.8-6.4-17.9-5.1-22.5-1.4c0.1,7.2,4.7,13.5,5.8,13.2
	s-1-6.2,2.2-9.2c1.6-1.5,4-1.9,6-1.1c2.1,1,2.8,3.4,3.1,4.3C38.4,58.5,28.2,72.1,24.4,86.8z"/>
<path class="st50" d="M105.3,66.5c-0.6,1.2,1.9,1.9,2.9,2.9c0.8,0.8,1.1,2.3,2,2.4c1.3,0,2.4-2.1,3.7-3.7c-0.6,1.6-2.6,5.2-4.4,5.1
	c-0.6-0.1-1.2-1.1-2.3-2.4c-1.3-1.5-2.3-1.9-2.9-2.7C104,67.6,104.5,67,105.3,66.5z"/>
<path class="st39" d="M104.3,67.4c-0.1,0.1-0.1,0.3,0,0.4c0.3,0.4,0.7,0.8,1.1,1.1c0.7,0.5,1.3,1.1,1.9,1.8c0.3,0.4,0.7,0.8,0.9,1.2
	c0.6,0.7,1,1.3,1.3,1.3h0.1c1.9,0,4.2-4.4,4.4-5.6c0.1-0.3,0-0.6-0.2-0.9c-0.6-0.7-1.9-1.2-3.8-1.2h-0.3
	C107.1,65.4,104.7,66.6,104.3,67.4z"/>
<path class="st45" d="M105.8,73.7c-6.4-1.8-13.3-1-19.2,2.3c5.8-3.6,12.8-4.6,19.4-3L105.8,73.7L105.8,73.7z"/>
<path class="st45" d="M105.9,73.7c0.1,0,0.2-0.1,0.2-0.3s0-0.4-0.1-0.4s-0.2,0.1-0.2,0.3S105.8,73.6,105.9,73.7z"/>
<path class="st51" d="M25.1,55.6c0-0.5,0-1,0-1.7c0-2,0.2-4.4,1.9-6c1.6-1.4,4-1.8,6-1c1.1,0.6,2,1.5,2.5,2.7c0.2,0.5,0.4,1,0.5,1.5
	c0.2,0.7,0.3,1.5,0.3,2.3c0,0.5,0,1-0.1,1.5c0,0,0,0.1,0,0.1c0,0.4-0.1,0.9-0.2,1.3s-0.1,0.6-0.2,0.9s-0.1,0.4-0.2,0.7
	c-1.4,5-4.5,11.1-7.3,17.7c-1.6,3.6-2.9,7.3-3.9,11.1c-1.4,4.8-2.3,9.7-2.9,14.7c0,0.5-0.1,0.9-0.1,1.4c0,0.1,0,0.2,0,0.3
	c-0.1,1.5-0.1,3-0.1,4.5c0.1,5.1,1.5,10,3.9,14.5c6.2,11,17.7,14.9,18.8,15.2c4,1.3,8.2,1.8,12.3,1.4l0.2,0.2c1.1,1.1,2.3,2,3.5,2.9
	l0,0v0.1c-0.2,1-0.2,2.1,0,3.1c0.1,0.5,0.2,1,0.5,1.5c1,1.6,3,2.5,9,2.7s6.9-0.6,11.9-0.6c8.6,0,13.5,2.3,14.7,0.1
	c0.4-1,0.4-2.2-0.1-3.1c-0.3-0.8-0.9-1.4-1.6-1.9l-0.1-0.1v-0.2l0,0c0.1-0.4,0-0.8-0.1-1.2l0,0c0-0.1,0-0.1-0.1-0.2
	c-0.2-0.5-0.5-0.9-0.8-1.2c0.5,0.1,1.3,0.2,2.2,0.3c2.1,0.3,3.2,0.5,3.8,0.6c1.3,0.3,2.6,0.8,3.9,1.4c0.8,0.4,1.8,0.7,2.7,0.8
	c0.4,0.1,0.8,0,1.2-0.1c0.3-0.2,0.6-0.5,0.8-0.9c0.1-0.2,0.3-0.4,0.3-0.6c0-0.1,0.1-0.2,0.1-0.3c0-0.3,0-0.6-0.1-0.9l0.2-0.1l0,0
	l0.2-0.1c0.3-0.2,0.5-0.4,0.7-0.7c0.3-0.6-0.3-2.1-1.5-3.1c-0.9-0.8-2-1.3-3.2-1.6c-0.2,0-0.8-0.1-0.8-0.3s0,0,0,0h0.1h0
	c0,0,0.1-0.1,0.1-0.1c3.8-2.1,6.6-5.6,7.8-9.8c0.1-0.2,0.1-0.4,0.2-0.6c0.5-2.2,0.6-4.5,0.1-6.7c-0.3-2.3-1.2-4.4-2.5-6.3
	c-0.3-0.4-0.6-0.8-0.9-1.2c-0.5-0.7-1.1-1.3-1.8-1.9c0,0,0-0.1,0.1-0.1c0.2,0.2,0.4,0.4,0.6,0.6c0.3,0.2,0.6,0.4,1,0.4
	c0.4,0,0.8-0.1,1.2-0.4c0.2-0.2,0.4-0.6,0.5-0.9c0-0.2,0-0.3,0-0.5c0-0.1-0.1-0.3-0.1-0.4c0,0,0-0.1,0-0.1l0,0
	c0.1,0.1,0.3,0.1,0.4,0.1l0,0c0.4,0,0.8-0.1,1.2-0.4c0.2-0.2,0.4-0.5,0.4-0.8c0.1-0.2,0.1-0.3,0.1-0.5c0-0.5-0.4-0.8-0.9-1.2
	c-0.2-0.1-0.3-0.3-0.5-0.4c0.2-0.5,0.3-0.9,0.4-1.4c0.2-0.9,0.3-1.7,0.3-2.6c0-1.3-0.3-2.5-0.8-3.7c-0.1-0.3-0.2-0.5-0.2-0.5l0,0
	l0,0c-0.1-0.2-0.3-0.4-0.4-0.7s-0.2-0.3-0.2-0.4l0,0l0.7,1l0,0l0,0c-0.2-0.4-0.4-0.7-0.6-1.1c0-0.1-0.1-0.1-0.1-0.2
	c0,0,0-0.1,0.1-0.1c1.8-1.5,3-3.5,3.6-5.8c0,0,0-0.1,0-0.1v-0.1c0-0.1,0-0.2,0-0.3l0,0c0.2-0.5,0-1.1-0.5-1.4
	c-0.6-0.4-1.3-0.6-2-0.5c-0.6,0.1-1.1,0.5-1.2,1.2l0,0c0,0,0,0.1,0,0.1s0,0,0,0c-0.1,0.5-0.2,1-0.2,1.5c0,0.3-0.1,0.5-0.1,0.8
	c-0.2,0.8-0.6,1.6-1.2,2.2c0,0-0.1,0.1-0.1,0.1c-1.3-1.2-2.8-2.3-4.4-3.1c-0.5-0.2-0.8-0.4-1.1-0.5c-1.3-0.5-2.6-0.9-4-1.2
	c-0.2-0.3-0.3-0.6-0.5-0.9s-0.4-0.7-0.5-1.1c1,0.3,2.9,0.7,4.3-0.3l0.2-0.2l0,0c0.2-0.2,0.3-0.3,0.5-0.5l0,0
	c0.2,0.1,0.3,0.1,0.5,0.2c0.8,0.3,1.7,0.3,2.5,0.1c1.6-0.4,2.7-1.7,3.6-2.8c0.9-1.2,1.7-2.5,2.2-3.9l0,0c2.1-0.5,3.8-1.9,4.5-3.9
	l0.2-0.6c0-0.2,0.1-0.4,0.1-0.4v0.1c0.1-0.6,0.1-1.2,0-1.8c0-0.5-0.1-1-0.3-1.5c0,0.1,0.1,0.2,0.1,0.3c-0.1-0.2-0.1-0.3-0.2-0.5
	l-0.1-0.2c0,0,0-0.1,0-0.1l0,0c-0.1-0.4-0.3-0.7-0.6-1c-0.4-0.5-0.8-0.9-1.3-1.2c0,0,0-0.1,0-0.2c0-0.1-0.1-0.2-0.1-0.3v-0.1
	c0,0,0-0.1-0.1-0.2s-0.1-0.1-0.2-0.2l0,0c-0.1-0.1-0.2-0.2-0.3-0.2c-0.2-0.1-0.4-0.2-0.6-0.3c0-1.3-0.1-2.5-0.3-3.8l0,0
	c-0.8-6.2-3.5-11.9-7.8-16.4c-0.1-0.1-0.2-0.2-0.3-0.3l-0.1-0.1l-0.4-0.3l-0.2-0.2c-2.7-2.4-5.9-4.2-9.3-5.3l0,0l0,0
	c0.7-0.9,1.2-1.9,1.6-2.9c0.2-0.5,2.3-6.1-0.3-9.2c-0.2-0.3-0.5-0.5-0.8-0.8c-0.5-0.4-1-0.6-1.6-0.7c-1.2,0-2.3,0.5-3.1,1.4
	c-1,1-1.6,2.2-1.9,3.6c-0.1,0.4-0.2,0.8-0.2,1.2c-0.2,1.2-0.3,2.1-0.3,2.4c0,0.1,0,0.2-0.1,0.2c-0.2,0.5-0.4,0.9-0.7,1.3
	c-0.7,0.8-1.5,1.5-2.3,2l0,0c-0.4,0-0.8,0-1.2,0c-1.2,0.1-2.4,0.2-3.6,0.4c0.3-1,2-7.3-1.2-11c-0.3-0.4-2.4-2.7-4.3-2.2
	c-0.8,0.2-1.5,0.8-1.9,1.5c-0.1,0.3-0.2,0.6-0.3,1c0,0,0,0.1,0,0.1c-4.6-3.1-16-9.7-29.6-6.5c-9,2.1-22,9-23.5,20
	c-0.1,0.7-0.1,1.5-0.1,2.2l0,0c0,0.2,0,0.5,0,0.7c0.4,7,4.8,12.9,5.8,12.6h0C25,56.9,25.1,56.3,25.1,55.6z M116.4,71.4
	c0-0.3-0.1-0.6-0.2-0.9C116.3,70.8,116.3,71.1,116.4,71.4z"/>
<path class="st52" d="M116.3,73.5c0,0,0,0.1,0,0.1c0-0.1,0-0.2,0-0.2C116.3,73.4,116.3,73.4,116.3,73.5z"/>
<path class="st53" d="M113.8,73.9c0,0.1,0.1,0.2,0.2,0.2c0.1,0,0.2-0.1,0.2-0.2c0,0,0,0,0,0l0,0c0-0.1-0.1-0.2-0.1-0.2
	C113.9,73.7,113.8,73.7,113.8,73.9z"/>
<path class="st53" d="M113.4,72.8c0,0.1,0.1,0.2,0.2,0.2c0.1,0,0.2-0.1,0.2-0.2c0,0,0,0,0,0l0,0c0-0.1,0-0.2-0.1-0.2
	C113.5,72.6,113.5,72.7,113.4,72.8C113.4,72.8,113.4,72.8,113.4,72.8L113.4,72.8z"/>
<path class="st53" d="M114,72c0.1,0,0.2,0,0.2-0.2c0,0,0,0,0-0.1c0-0.1,0-0.1-0.1-0.2c-0.1,0-0.2,0.1-0.2,0.2
	C113.9,71.9,113.9,72,114,72C114,72,114,72,114,72z"/>
<path class="st45" d="M114.1,71.4c3.4-0.6,6.9,0,9.9,1.5c-3-1.3-6.3-1.6-9.5-0.9c-0.1,0-0.3,0.1-0.4,0.1L114.1,71.4L114.1,71.4z"/>
<path class="st45" d="M113.6,72.4c2.9-0.5,5.9,0,8.6,1.4c-2.6-1.1-5.6-1.4-8.4-0.7c-0.1,0-0.2,0-0.2,0L113.6,72.4L113.6,72.4z"/>
<path class="st45" d="M113.9,73.5c1.3-0.2,2.6-0.2,3.8,0c1.3,0.2,2.5,0.7,3.7,1.2c-0.6-0.2-1.2-0.4-1.8-0.6c-1.8-0.5-3.7-0.5-5.5,0
	h-0.2L113.9,73.5L113.9,73.5z"/>
<path class="st54" d="M109.5,73.2c-0.6-0.1-1.2-1.1-2.3-2.4c-1.3-1.5-2.3-1.9-2.9-2.7s2.6-2.8,5.7-2.7c2.9,0.1,4.3,1.2,4.1,2.3
	S111.5,73.3,109.5,73.2z"/>
<path class="st55" d="M113.2,66.8c-2.2-1.3-5.5-1-7.9-0.3c1.4-0.8,3.1-1.2,4.7-1.2c2.9,0.1,4.3,1.2,4.1,2.3
	c-0.2,0.4-0.4,0.8-0.6,1.2C113.7,67.8,113.6,67.2,113.2,66.8z"/>
<ellipse class="st42" cx="88.2" cy="64.8" rx="1.3" ry="1.5"/>
<path class="st25" d="M100.5,80.6c0,0,0.5,0.7,0.5-3.3c0,0-2.7-1.2-3.5-3c0,0-1.4,1.9-1.6,1.7c0,0,1.9,3.9,4.7,5"/>
</svg>
