<svg id="Layer_1" data-name="Layer 1" xmlns="http://www.w3.org/2000/svg" xmlns:xlink="http://www.w3.org/1999/xlink" viewBox="0 0 1362.8 273.93"><defs><style>.cls-1{fill:none;}.cls-2{clip-path:url(#clip-path);}.cls-3{fill:url(#linear-gradient);}.cls-4{fill:#024e20;}.cls-5{fill:#032616;}.cls-6{fill:#011c24;}.cls-7{fill:#042f33;}</style><clipPath id="clip-path"><rect class="cls-1" y="-626.07" width="1600" height="900"/></clipPath><linearGradient id="linear-gradient" x1="205.61" y1="415.14" x2="944.4" y2="244.61" gradientUnits="userSpaceOnUse"><stop offset="0.02" stop-color="#024e20"/><stop offset="0.82" stop-color="#024e20"/><stop offset="0.94" stop-color="#024e20"/></linearGradient></defs><g class="cls-2"><path class="cls-3" d="M-41.74,238.07s185.87-42.9,519.94,28.59,731.45,15.46,777.94-.88c-1.52,50.15-5.61,98.47-9.49,143.24L-41.74,407.6Z"/><path class="cls-4" d="M980.79,304s7.19-37.72,17.66-48.06c9-8.87-10-11.29-20.72,9.86S980.79,304,980.79,304Z"/><path class="cls-4" d="M450.57,273.18S478.83,267.78,478,253,450.57,273.18,450.57,273.18Z"/><path class="cls-4" d="M445.08,279.18s15.69-37.09,27.47-46.53-20.41-10.21-27.47,28.61Z"/><path class="cls-4" d="M443.9,274.18s7.92-28.86-21.59-30.35C409,243.16,443.9,274.18,443.9,274.18Z"/><path class="cls-4" d="M317.77,246.11s11-9.48,32.18-11.82-22.76-12.45-38.46,11.82C311.49,246.11,304.43,256.9,317.77,246.11Z"/><path class="cls-4" d="M288,247.46s32.18-30.34,51-38.43-18.06-8.77-43.17,16.52C295.8,225.55,283.24,240.72,288,247.46Z"/><path class="cls-4" d="M278.53,247.46s21.38-49.22,31.1-55.29-15.4-9.44-31.1,30.68C278.53,222.85,272.25,244.09,278.53,247.46Z"/><path class="cls-4" d="M267.15,247.46s8.24-45.18,16.09-51.92S253.41,203,267.15,247.46Z"/><path class="cls-4" d="M262.44,247.46S262.83,209.82,246,204,255.77,228.58,262.44,247.46Z"/><path class="cls-4" d="M256.94,247.46s-10.59-43.13-36.5-44.15S240.85,219.14,256.94,247.46Z"/><path class="cls-4" d="M254.72,247.46s-13.87-17.53-37.42-16.18S249,242.07,254.72,247.46Z"/><path class="cls-5" d="M717.07,354.25s-.77-62-72.61-44c0,0,32.45-50,78-10,0,0-.77-50-49.44-76,0,0,44.44-17,79.39,76,0,0-17.59-95-27.63-101,0,0,36.56-2,41.07,98,0,0,5.69-61-13.44-98,0,0,39.68,8,26.88,95,0,0,18.1-80,66-72,0,0-50.92,59-52.11,98,0,0,28.16-39,60.6-27,0,0-58.64,35-60.6,69l-34.41,25Z"/><path class="cls-6" d="M-44.5,341.18S-208.18,296.59-207,251.86s137.07,31.81,190.59,76.46C-172.24,143.18-91.8,248.39-135.68,185.73S-131.89,92-53.62,187c62.68,92.1,81.16,119,81.16,119S-18.16,181-36,115s40.44-110,85.5,5.23C59.41,83.94,60.3,80.35,60.3,80.35s-13.37,54.62.36-9.23S130,45.7,99.1,139.35c33.59-34.25-10.57,4.57,36.5-29.36s104.71,4.5,44,81.55-42.11,55.37-42.11,55.37l-42.55,48,112.5-47.62c77-25.28,110.07,9.47,23,64-56.22,28-103.93,49.08-103.93,49.08s48-.68,126-5.23,77.16,61.41-11.75,59.7C137.42,387.1-44.5,341.18-44.5,341.18"/><path class="cls-7" d="M72.66,343.12,259.9,259.33S99.31,341.6,72.66,343.12"/><path class="cls-7" d="M62.73,276.08,174.94,119.65S91.27,257.42,62.73,276.08"/><path class="cls-7" d="M80.69,59.67S48.13,266.4,50.19,296c9.37-10,36.74-232.07,30.5-236.3"/><path class="cls-7" d="M44.06,281.68S-12.75,83.59-13.79,75.88s67.6,179.46,57.85,205.8"/><path class="cls-7" d="M-124.52,157.89S-3.29,325.45,13.11,340.66c0,0-122.77-179.32-137.63-182.77"/><path class="cls-7" d="M98.91,225.64l52.94-12.78s-44.95,1.64-52.94,12.78"/><path class="cls-7" d="M116.75,200.78s-4.21-47.88-5-53.14,11.38,34.89,5,53.14"/><path class="cls-7" d="M138.76,176.88s49.61-11.39,50.8-16.74-43.95,14-50.8,16.74"/><path class="cls-7" d="M141.23,161.89l-3.8-39.34s11.23,24.23,3.8,39.34"/><path class="cls-7" d="M197.51,287.25S204.84,256.4,210.8,253s-7.35,31.6-13.29,34.26"/><path class="cls-7" d="M69.72,187.88c.33-2.51,23-23.61,23-23.61s-11.83.11-22.7,21.1"/><path class="cls-7" d="M64.3,160.28s-9.93-29.94-10.84-29.09,12.39,9.12,10.84,29.09"/><path class="cls-7" d="M76.81,128.55l17.8-33.8s-15.06,9.36-17.8,33.8"/><path class="cls-7" d="M27.61,195.64s8.3-53.74,9.23-56-14,25.47-9.23,56"/><path class="cls-7" d="M6.85,131.31s-2.29-31,1.64-40.83,1.41,31.93-1.64,40.83"/><path class="cls-7" d="M9.79,161.44l-33-28.95s19,7.39,33,28.95"/><path class="cls-7" d="M29.59,231.07-3.5,209.91s21.92,7.17,33.09,21.16"/><path class="cls-6" d="M1066.15,360.34s-68.79-3.89-72.1-21.76,57.14,1.06,82.18,14.28c-77.54-60.4-36.7-25.39-59.43-46.58s-6.41-37.56,32.71-6.44c32.68,31.3,42.29,40.44,42.29,40.44s-28.7-45.79-41.38-70.53,6.78-47.14,34.41-5.14c.89-15.24.94-16.74.94-16.74s-.7,22.83-.64-3.7,25.42-16,21,23.86c10.46-16.44-3.81,2.71,12-14.74s42-7.06,24.36,28.68-12,25.56-12,25.56l-12.85,22.67,40.67-28.42c28.46-16.54,44.54-5.53,14.55,23.47-20,15.86-37.14,28.27-37.14,28.27s19-4.31,49.62-12.71,35.84,17.88.37,24.71c-43.41-2.29-119.57-5.18-119.57-5.18"/><path class="cls-7" d="M1103.26,325.42l31.37-71.62s-21.61,61.8-31.37,71.62"/><path class="cls-7" d="M1092.12,237.93s4.52,84.88,7.84,96.46c2.87-4.78-5-95.31-7.84-96.46"/><path class="cls-7" d="M1096.31,329.23S1057,255.32,1056,252.35s42,65.59,40.36,76.88"/><path class="cls-7" d="M1118.36,291s-5.71-18.67-6.46-20.69,7.47,12.9,6.46,20.69"/><path class="cls-7" d="M1125.09,279.6s18.75-8.72,18.77-10.94-16.28,9.26-18.77,10.94"/><path class="cls-7" d="M1124.8,273.43,1120,258.12s6.51,8.68,4.83,15.31"/><path class="cls-7" d="M1094.11,279.28s-6.48-11-6.77-10.64,5.69,2.58,6.77,10.64"/><path class="cls-7" d="M1096.39,265.62l4.22-14.93s-5.19,5-4.22,14.93"/><path class="cls-7" d="M1082.51,296.43s-1.24-22.05-1-23-3.42,11.3,1,23"/><path class="cls-7" d="M1068.84,272.63s-3.54-12.14-2.8-16.36,3.26,12.56,2.8,16.36"/></g></svg>