<svg xmlns="http://www.w3.org/2000/svg" xmlns:xlink="http://www.w3.org/1999/xlink" viewBox="0 0 948.88 276.71"><defs><style>.cls-1{isolation:isolate;}.cls-2{fill:url(#linear-gradient);}.cls-3{fill:url(#linear-gradient-2);}.cls-4{opacity:0.1;}.cls-5{opacity:0.2;}.cls-6{fill:url(#linear-gradient-3);}.cls-7{fill:#753523;}.cls-8{fill:#bf9158;stroke:#471d00;stroke-miterlimit:10;stroke-width:0.5px;}.cls-9{mix-blend-mode:multiply;}.cls-10{fill:#ccc6c2;}.cls-11{fill:#fff;mix-blend-mode:screen;opacity:0.3;}.cls-12{fill:#1c0e03;}.cls-13{fill:url(#linear-gradient-4);}.cls-14{fill:url(#linear-gradient-5);}.cls-15{fill:url(#linear-gradient-6);}.cls-16{fill:url(#linear-gradient-7);}.cls-17{fill:url(#linear-gradient-8);}.cls-18{fill:url(#linear-gradient-9);}.cls-19{fill:url(#linear-gradient-10);}.cls-20{fill:url(#linear-gradient-11);}.cls-21{fill:url(#linear-gradient-12);}.cls-22{fill:url(#linear-gradient-13);}.cls-23{fill:url(#linear-gradient-14);}.cls-24{fill:url(#linear-gradient-15);}.cls-25{fill:url(#linear-gradient-16);}.cls-26{fill:url(#linear-gradient-17);}.cls-27{fill:url(#linear-gradient-18);}.cls-28{fill:url(#linear-gradient-19);}.cls-29{fill:url(#linear-gradient-20);}.cls-30{fill:url(#linear-gradient-21);}.cls-31{fill:url(#linear-gradient-22);}.cls-32{fill:url(#linear-gradient-23);}.cls-33{fill:url(#linear-gradient-24);}.cls-34{fill:url(#linear-gradient-25);}.cls-35{fill:url(#linear-gradient-26);}.cls-36{fill:url(#linear-gradient-27);}.cls-37{fill:url(#linear-gradient-28);}.cls-38{fill:url(#linear-gradient-29);}.cls-39{fill:url(#linear-gradient-30);}.cls-40{fill:#510000;}</style><linearGradient id="linear-gradient" x1="33.04" y1="108.19" x2="33.04" y2="118.26" gradientUnits="userSpaceOnUse"><stop offset="0" stop-color="#7c3a25"/><stop offset="0.49" stop-color="#8c4638"/><stop offset="1" stop-color="#7c3a25"/></linearGradient><linearGradient id="linear-gradient-2" x1="21.21" y1="123.24" x2="42.62" y2="160.33" gradientUnits="userSpaceOnUse"><stop offset="0" stop-color="#e9e86f"/><stop offset="0.17" stop-color="#e6c65f"/><stop offset="0.4" stop-color="#e39f4d"/><stop offset="0.61" stop-color="#e0823f"/><stop offset="0.79" stop-color="#df7137"/><stop offset="0.92" stop-color="#de6b34"/></linearGradient><linearGradient id="linear-gradient-3" x1="31.53" y1="115.55" x2="31.55" y2="131.42" xlink:href="#linear-gradient"/><linearGradient id="linear-gradient-4" x1="892.49" y1="98.38" x2="892.49" y2="120.55" xlink:href="#linear-gradient"/><linearGradient id="linear-gradient-5" x1="866.45" y1="131.5" x2="913.6" y2="213.16" xlink:href="#linear-gradient-2"/><linearGradient id="linear-gradient-6" x1="889.17" y1="114.58" x2="889.21" y2="149.51" xlink:href="#linear-gradient"/><linearGradient id="linear-gradient-7" x1="761.51" y1="58.67" x2="761.51" y2="77.3" xlink:href="#linear-gradient"/><linearGradient id="linear-gradient-8" x1="739.62" y1="86.51" x2="779.25" y2="155.14" xlink:href="#linear-gradient-2"/><linearGradient id="linear-gradient-9" x1="758.72" y1="72.29" x2="758.75" y2="101.64" xlink:href="#linear-gradient"/><linearGradient id="linear-gradient-10" x1="638.81" y1="27.13" x2="638.81" y2="44.05" xlink:href="#linear-gradient"/><linearGradient id="linear-gradient-11" x1="618.94" y1="52.4" x2="654.91" y2="114.71" xlink:href="#linear-gradient-2"/><linearGradient id="linear-gradient-12" x1="636.28" y1="39.49" x2="636.31" y2="66.14" xlink:href="#linear-gradient"/><linearGradient id="linear-gradient-13" x1="524.95" y1="23.12" x2="524.95" y2="36.2" xlink:href="#linear-gradient"/><linearGradient id="linear-gradient-14" x1="509.58" y1="42.66" x2="537.4" y2="90.84" xlink:href="#linear-gradient-2"/><linearGradient id="linear-gradient-15" x1="522.99" y1="32.68" x2="523.01" y2="53.28" xlink:href="#linear-gradient"/><linearGradient id="linear-gradient-16" x1="421.76" y1="35.06" x2="421.76" y2="46.5" xlink:href="#linear-gradient"/><linearGradient id="linear-gradient-17" x1="408.33" y1="52.15" x2="432.64" y2="94.26" xlink:href="#linear-gradient-2"/><linearGradient id="linear-gradient-18" x1="420.04" y1="43.42" x2="420.06" y2="61.44" xlink:href="#linear-gradient"/><linearGradient id="linear-gradient-19" x1="327.36" y1="59.5" x2="327.36" y2="70.88" xlink:href="#linear-gradient"/><linearGradient id="linear-gradient-20" x1="314" y1="76.5" x2="338.2" y2="118.42" xlink:href="#linear-gradient-2"/><linearGradient id="linear-gradient-21" x1="325.66" y1="67.82" x2="325.68" y2="85.75" xlink:href="#linear-gradient"/><linearGradient id="linear-gradient-22" x1="250.48" y1="83.63" x2="250.48" y2="95.01" xlink:href="#linear-gradient"/><linearGradient id="linear-gradient-23" x1="237.11" y1="100.63" x2="261.31" y2="142.55" xlink:href="#linear-gradient-2"/><linearGradient id="linear-gradient-24" x1="248.77" y1="91.95" x2="248.79" y2="109.88" xlink:href="#linear-gradient"/><linearGradient id="linear-gradient-25" x1="169.78" y1="104.65" x2="169.78" y2="114.93" xlink:href="#linear-gradient"/><linearGradient id="linear-gradient-26" x1="157.7" y1="120.01" x2="179.57" y2="157.89" xlink:href="#linear-gradient-2"/><linearGradient id="linear-gradient-27" x1="168.24" y1="112.16" x2="168.26" y2="128.37" xlink:href="#linear-gradient"/><linearGradient id="linear-gradient-28" x1="100.01" y1="114.77" x2="100.01" y2="125.05" xlink:href="#linear-gradient"/><linearGradient id="linear-gradient-29" x1="87.93" y1="130.13" x2="109.8" y2="168.02" xlink:href="#linear-gradient-2"/><linearGradient id="linear-gradient-30" x1="98.47" y1="122.29" x2="98.49" y2="138.49" xlink:href="#linear-gradient"/></defs><g class="cls-1"><g id="Layer_1" data-name="Layer 1"><path class="cls-2" d="M34.1,105.33s-2.88.75-5.82,11.29l-.28,2,3.63.07,0-2.12s.84-4,5.78-6.92C39.37,108.51,36.46,105,34.1,105.33Z"/><path class="cls-3" d="M50.18,133.34a68.91,68.91,0,0,0-18.44-2.42,69,69,0,0,0-18.44,2.42,5.61,5.61,0,0,1-.6,1.14c0,11.28,4.08,30.83,16.25,30.83.24,1.53,1,2.66,1.9,2.66s1.67-1.15,1.9-2.71c14.58,0,17.44-20.07,17.44-31.24v0C50.19,133.76,50.19,133.55,50.18,133.34Z"/><path class="cls-4" d="M43.45,130s6.81-.12,6.81,4.4c0,5.75-1,14.18-3.42,19.84-2.13,5-5.81,11-14.09,11,0,0-.39,2.71-1.86,2.71a7.28,7.28,0,0,0,1-3S43.45,154.45,43.45,130Z"/><path class="cls-5" d="M12.71,134.44s0,1.65.07,2.34a17.65,17.65,0,0,1,3.94-1.72c3.29-.88,16.43-2.67,28.74.25a14.91,14.91,0,0,1,4.64,1.75s.08-2.05.07-2.62c0,0-1.56-5.22-3-6.1-6.19-3.74-22.52-2.61-28.92.74C16.52,130,12.71,134.44,12.71,134.44Z"/><path class="cls-6" d="M12.69,134.46a56.38,56.38,0,0,1,18.4-3.31,55.5,55.5,0,0,1,19.06,3.31s8.12-5.18-.17-10.94c-9.4-6.53-14-7-18.31-7-3.65,0-8.64.44-17.82,6.92C6.22,128.87,10.12,133.1,12.69,134.46Z"/><path class="cls-7" d="M29.89,116.67c-.06,0-.91.6-1,.64l-.41.25c-1.06.68-2.1,1.38-3.12,2.11l-.57.42c-1.07.79-2.1,1.62-3.1,2.49l-.59.53A40,40,0,0,0,18,126.24l-.58.67-.24.28a38.74,38.74,0,0,0-2.85,3.86q-.31.47-.6.93c-.3.48-1.12,1.81-1.4,2.29a5.48,5.48,0,0,1-.91-.64l1.71-2.58c.19-.29.4-.59.6-.88a41.57,41.57,0,0,1,3.11-3.93c.19-.21.38-.43.58-.64a42.05,42.05,0,0,1,3.1-3l.59-.51c1-.85,2.05-1.66,3.12-2.4l.57-.39c1.06-.71,2.94-2,4-2.54Z"/><path class="cls-7" d="M36.94,117.06c-.13.07-.91.42-1,.5-1.07.68-2.11,1.38-3.12,2.11l-.58.42c-1.06.79-2.1,1.62-3.09,2.49l-.6.53a41.77,41.77,0,0,0-3.11,3.13c-.19.23-.39.45-.58.67l-.24.28a40.38,40.38,0,0,0-2.85,3.86c-.15.22-.56.89-.7,1.12-.1,0-1.22.25-1.35.28.18-.29.66-1.11.85-1.4l.6-.88a41.57,41.57,0,0,1,3.11-3.93c.19-.21.38-.43.58-.64q1.49-1.59,3.1-3l.59-.51c1-.85,2.05-1.66,3.12-2.4l.57-.39c1.08-.72,2.18-1.38,3.29-2l.84-.38Z"/><path class="cls-7" d="M41.65,118.64c-.45.3-1,.71-1.48,1l-.57.42c-1.07.79-2.1,1.62-3.1,2.49l-.59.53a40.07,40.07,0,0,0-3.12,3.13c-.19.23-.39.45-.58.67l-.23.28a40.49,40.49,0,0,0-2.86,3.86s-.12.13-.12.15l-1.24.06.17-.21.59-.88a45.08,45.08,0,0,1,3.11-3.93l.58-.64c1-1.06,2-2.07,3.1-3l.6-.51c1-.85,2.05-1.66,3.11-2.4l.58-.39c.41-.28,1-.66,1.4-.91C41.23,118.45,41.43,118.55,41.65,118.64Z"/><path class="cls-7" d="M45.9,120.89c-.6.47-1.43,1.18-2,1.69l-.59.53a40,40,0,0,0-3.11,3.13l-.58.67-.24.28a40.49,40.49,0,0,0-2.86,3.86.41.41,0,0,0,0,.09h0l-.49,0-.61,0h-.06l0,0c.19-.29.39-.59.6-.88A41.57,41.57,0,0,1,39,126.24c.19-.21.38-.43.58-.64a42.05,42.05,0,0,1,3.1-3l.59-.51c.57-.49,1.35-1.12,2-1.57C45.45,120.64,45.7,120.74,45.9,120.89Z"/><path class="cls-7" d="M53.61,128.07l-2.34,3c-.21.31-.4.62-.6.93-.41.66-1,1.51-1.34,2.19-.06-.07-.71-.23-1-.34.43-.76,1.24-2.05,1.72-2.78l.6-.88c.17-.24,2.33-3.09,2.5-3.32A4.74,4.74,0,0,1,53.61,128.07Z"/><path class="cls-7" d="M50.2,123.69c-.51.52-2.15,2-2.64,2.55-.19.23-.39.45-.58.67l-.24.28a40.38,40.38,0,0,0-2.85,3.86c-.16.24-.78,1.11-.93,1.35l-1.05-.21c.12-.19.66-.95.78-1.14l.6-.88a41.57,41.57,0,0,1,3.11-3.93c.19-.21.38-.43.58-.64.52-.56,2-1.88,2.52-2.41C49.73,123.35,49.88,123.45,50.2,123.69Z"/><path class="cls-7" d="M51.51,133.36c-.28-.48-.54-.91-.84-1.38q-.29-.47-.6-.93a38.74,38.74,0,0,0-2.85-3.86l-.24-.28-.58-.67a40,40,0,0,0-3.11-3.13l-.59-.53c-1-.87-2-1.7-3.1-2.49l-.58-.42c-1-.73-2.05-1.43-3.11-2.11l-.41-.25s-1.08-.61-1.13-.65l1,.11c1.1.58,3.19,1.8,4.24,2.51l.57.39c1.07.74,2.11,1.55,3.12,2.4l.59.51a42.05,42.05,0,0,1,3.1,3c.2.21.39.43.58.64a41.57,41.57,0,0,1,3.11,3.93c.2.29.41.59.6.88.08.12.85,1.43.93,1.56a4.84,4.84,0,0,1-.32.38Z"/><path class="cls-7" d="M44.81,132.82c-.14,0-1.21-.27-1.31-.28-.14-.23-.66-1.27-.81-1.49a40.38,40.38,0,0,0-2.85-3.86l-.24-.28c-.19-.22-.39-.44-.58-.67a41.77,41.77,0,0,0-3.11-3.13l-.6-.53c-1-.87-2-1.7-3.1-2.49l-.57-.42c-1-.73-2.05-1.43-3.12-2.11-.12-.08-1-.55-1.15-.63.11,0,.54-.1.6-.1l1,.48a37,37,0,0,1,3.28,2l.58.39c1.07.74,2.11,1.55,3.12,2.4l.59.51q1.62,1.42,3.1,3l.58.64a41.57,41.57,0,0,1,3.11,3.93l.6.88C44.08,131.34,44.63,132.54,44.81,132.82Z"/><path class="cls-7" d="M36.73,131.44l-1.25-.12-.17-.27a40.49,40.49,0,0,0-2.86-3.86l-.24-.28c-.18-.22-.38-.44-.58-.67a40,40,0,0,0-3.11-3.13l-.59-.53c-1-.87-2-1.7-3.1-2.49l-.57-.42c-.44-.32-1.23-.93-1.68-1.24.22-.09.43-.19.65-.27.42.26,1.19.84,1.6,1.12l.57.39c1.07.74,2.12,1.55,3.12,2.4l.6.51c1.07,1,2.11,2,3.09,3,.2.21.4.43.58.64a43.37,43.37,0,0,1,3.12,3.93l.59.88S36.71,131.4,36.73,131.44Z"/><path class="cls-7" d="M29.22,131.19l-1.18.05a1.86,1.86,0,0,0-.11-.19,40.49,40.49,0,0,0-2.86-3.86l-.24-.28-.58-.67a40,40,0,0,0-3.11-3.13l-.59-.53c-.59-.51-1.76-1.42-2.37-1.9.2-.15.49-.27.7-.41.6.45,1.68,1.31,2.26,1.8l.59.51a42.05,42.05,0,0,1,3.1,3c.2.21.39.43.58.64a41.57,41.57,0,0,1,3.11,3.93c.21.29.41.59.6.88Z"/><path class="cls-7" d="M15.85,133.42c-.32.11-.78.23-.91.28-.38-.69-.77-1.06-1.18-1.72-.2-.31-.37-.64-.6-.93a14.54,14.54,0,0,0-3.3-3.34,6.91,6.91,0,0,1,.67-1.12c.17.25,2.47,2.5,3.23,3.58l.6.88C14.83,131.77,15.43,132.67,15.85,133.42Z"/><path class="cls-7" d="M22.26,132l-1.09.19c-.15-.24-.47-.85-.63-1.09a40.38,40.38,0,0,0-2.85-3.86l-.24-.28c-.19-.22-.39-.44-.58-.67-.49-.55-2.47-2.26-3-2.78l.76-.53c.55.53,2.29,2.11,2.81,2.67.2.21.39.43.58.64a41.57,41.57,0,0,1,3.11,3.93l.6.88C21.86,131.24,22.14,131.76,22.26,132Z"/><path class="cls-8" d="M36.57,106.28a2.51,2.51,0,0,1,1.13,3.1c-.31.89-2.61-.33-3-.67s-2-1.86-1.45-2.61S34.9,105,36.57,106.28Z"/><g class="cls-9"><path class="cls-10" d="M36.11,107.7a.13.13,0,0,1,0,.06.06.06,0,0,1-.07,0,.27.27,0,0,1-.11,0c-.45-.3-.58-.93,0-.43s.66,1.09.07.73c-.8-.48-1.21-1.47-.84-1.48.59-.08,2.14,1.48,2,2.27,0,.4-.52.29-.89.11a6.33,6.33,0,0,1-2.16-2c-.4-.61-.52-1.16-.46-.87a1.29,1.29,0,0,0,.06.21c.5,1.48,2.76,3.48,3.46,2.89.52-.42-.25-1.62-.92-2.19-1.18-1-1.86-.5-1.09.53.3.39.86.86,1.16.76s-.13-.94-.61-1.15c-.31-.14-.42.11-.12.45s.51.36.48.16C36.11,107.68,36.1,107.68,36.11,107.7Z"/></g><path class="cls-11" d="M17.8,139.73s.17-3.29-1.85-2.37.3,15.3,5.39,21.16,3.85,3.63.87-2.47S17.8,139.73,17.8,139.73Z"/><path class="cls-12" d="M34.42,105.31v1a3.29,3.29,0,0,1,2.59,2c.13.36,0,.44,0,.47l0,0h0l0,0c-5.25,3.1-6.2,7.38-6.24,7.57l-.25,1.2h1.23c.7,0,1.63,0,2.61.1h0a18.5,18.5,0,0,1,1.86.26h.12a22.23,22.23,0,0,1,4.47,1.41l.15.06.33.15a39.14,39.14,0,0,1,3.76,2l0,0,.1.06c1.19.7,2.47,1.51,3.78,2.42l0,0h0l.15.1.29.2a8.73,8.73,0,0,1,2.87,3l0,.08,0,0a1.56,1.56,0,0,1,.11.26c0,.06,0,.12.07.17l0,.06,0,.11,0,.07a4.3,4.3,0,0,1-1.25,4c-.05,0-.1.13-.15.18s-.11.11-.17.17l-.21.2a9.8,9.8,0,0,1-1.12.93l-.44.31v.54c0,5.81-1,14.07-3.34,19.44-2,4.68-5.25,10.08-12.52,10.39H31.88l-.12.86,0,.1a4,4,0,0,1-.36,1.16c-.17.36-.34.54-.45.58h-.1c-.19,0-.7-.6-.89-1.82l-.13-.84H29c-11,0-15.19-18.07-15.25-29.61h0v-.23l0-1.47-.92.37-.2-.14-.16-.11-.26-.2,0,0,0,0a3.73,3.73,0,0,1-1.32-4.72l0-.06,0,0a5.19,5.19,0,0,1,.36-.61l.06-.09.11-.16a13.21,13.21,0,0,1,3.09-2.88l.05,0,.09-.06.51-.36.07,0c1.22-.85,2.42-1.61,3.57-2.28l0,0,0,0h0l.57-.32A36.49,36.49,0,0,1,23,119.35l.3-.13.32-.13a22.29,22.29,0,0,1,4-1.19l.45-.08h.11l.23,0,.74-.11.11-.74v-.09c2.41-8.6,4.7-10.29,5.1-10.52h.06v-1m0,0a1.67,1.67,0,0,0-.32,0s-2.88.75-5.82,11.29l0,.16-.29,0h0a4.51,4.51,0,0,0-.56.1,22.38,22.38,0,0,0-4.17,1.23h0c-.22.08-.43.18-.65.27h0a37.28,37.28,0,0,0-3.71,1.84h0l-.08,0-.22.12-.36.21c-1.14.66-2.34,1.43-3.64,2.32l-.6.42-.13.09a13.89,13.89,0,0,0-3.32,3.12h0l-.13.19-.07.11a5.31,5.31,0,0,0-.47.82h0c-1.22,2.6.08,4.67,1.59,5.92h0l.07.06.3.23.18.13a5.67,5.67,0,0,0,.69.41h0c0,11.28,4.08,30.83,16.25,30.83.24,1.53,1,2.66,1.9,2.66h0a1.67,1.67,0,0,0,1.39-1.16,5.15,5.15,0,0,0,.45-1.42c0-.08,0-.13,0-.13h.69c7.8-.33,11.33-6.18,13.4-11,2.43-5.66,3.42-14.09,3.42-19.84v0a9.76,9.76,0,0,0,1.25-1h0l0,0h0l.34-.34a3.22,3.22,0,0,0,.24-.28,5.31,5.31,0,0,0,1.44-4.85.83.83,0,0,1,0-.15,1,1,0,0,1-.05-.16l-.09-.23c0-.1-.09-.21-.14-.31a1.11,1.11,0,0,0-.07-.16h0A9.65,9.65,0,0,0,50,123.52l-.45-.31,0,0h0c-1.38-1-2.66-1.76-3.85-2.46l-.18-.1a40.93,40.93,0,0,0-3.83-2h0l-.52-.22A23.66,23.66,0,0,0,36.47,117l-.13,0h0c-.68-.13-1.32-.21-2-.27h0c-.94-.08-1.83-.1-2.7-.1,0,0,.84-4,5.78-6.92h0a.57.57,0,0,0,.18-.12c1.47-1.18-1-4.21-3.21-4.21Z"/><path class="cls-13" d="M894.82,92.08s-6.33,1.65-12.81,24.86l-.6,4.37,8,.16.08-4.67s1.84-8.82,12.73-15.23C906.43,99.09,900,91.32,894.82,92.08Z"/><path class="cls-14" d="M930.23,153.74a157.5,157.5,0,0,0-81.18,0,13.08,13.08,0,0,1-1.32,2.5c0,24.84,9,67.87,35.77,67.87.51,3.38,2.18,5.86,4.17,5.86s3.68-2.53,4.18-5.95c32.11,0,38.4-44.19,38.4-68.78v-.09C930.25,154.68,930.25,154.21,930.23,153.74Z"/><path class="cls-4" d="M915.42,146.44s15-.27,15,9.68c0,12.65-2.19,31.22-7.54,43.67-4.68,10.9-12.78,24.23-31,24.23,0,0-.85,6-4.08,6,0,0,2.13-3.62,2.13-6.66C889.9,223.32,915.42,200.2,915.42,146.44Z"/><path class="cls-5" d="M847.74,156.17s0,3.63.16,5.14a39.05,39.05,0,0,1,8.68-3.79c7.23-1.92,36.16-5.87,63.26.57,3.33.79,8.06,2.18,10.21,3.84,0,0,.18-4.52.17-5.76,0,0-3.44-11.51-6.65-13.44-13.64-8.23-49.58-5.75-63.68,1.64C856.14,146.34,847.74,156.17,847.74,156.17Z"/><path class="cls-15" d="M847.69,156.22a124,124,0,0,1,40.51-7.3,122.12,122.12,0,0,1,42,7.3s17.88-11.41-.37-24.09C909.1,117.75,899,116.8,889.48,116.8c-8,0-19,1-39.23,15.24C833.46,143.9,842,153.2,847.69,156.22Z"/><path class="cls-7" d="M885.55,117c-.12.07-2,1.32-2.11,1.41l-.89.56c-2.35,1.48-4.63,3-6.86,4.64l-1.26.92c-2.35,1.74-4.63,3.56-6.82,5.49-.44.38-.88.77-1.31,1.17a87.23,87.23,0,0,0-6.84,6.89c-.44.49-.87,1-1.29,1.48-.18.2-.35.41-.52.61a92.56,92.56,0,0,0-6.29,8.49c-.45.68-.88,1.36-1.31,2-.66,1.06-2.46,4-3.08,5.06a14.37,14.37,0,0,1-2-1.41c.18-.29,3.57-5.41,3.76-5.69.43-.64.87-1.3,1.32-1.93a91.56,91.56,0,0,1,6.85-8.65c.41-.47.84-1,1.27-1.42q3.26-3.49,6.82-6.64l1.31-1.13c2.22-1.88,4.51-3.65,6.87-5.28l1.26-.87c2.32-1.56,6.46-4.3,8.87-5.58Z"/><path class="cls-7" d="M901.08,117.9c-.28.16-2,.93-2.27,1.11q-3.52,2.22-6.87,4.64l-1.26.92c-2.35,1.74-4.62,3.56-6.82,5.49-.44.38-.87.77-1.31,1.17a87.23,87.23,0,0,0-6.84,6.89c-.44.49-.87,1-1.28,1.48-.19.2-.36.41-.53.61a90.64,90.64,0,0,0-6.28,8.49c-.33.49-1.22,2-1.53,2.46-.23,0-2.69.56-3,.61.39-.63,1.46-2.44,1.88-3.07s.86-1.3,1.31-1.93a91.56,91.56,0,0,1,6.85-8.65c.42-.47.84-1,1.28-1.42q3.26-3.49,6.82-6.64l1.3-1.13c2.22-1.88,4.51-3.65,6.87-5.28l1.26-.87a82.85,82.85,0,0,1,7.24-4.33l1.85-.83C899.9,117.63,900.8,117.85,901.08,117.9Z"/><path class="cls-7" d="M911.44,121.38c-1,.67-2.29,1.57-3.24,2.27l-1.27.92c-2.35,1.74-4.62,3.56-6.81,5.49-.44.38-.88.77-1.31,1.17a89.1,89.1,0,0,0-6.85,6.89c-.43.49-.87,1-1.28,1.48-.18.2-.36.41-.52.61a90.75,90.75,0,0,0-6.29,8.49s-.26.29-.28.33c-.44,0-2.62.14-2.71.14l.36-.47c.43-.64.87-1.3,1.31-1.93a91.56,91.56,0,0,1,6.85-8.65l1.28-1.42q3.26-3.49,6.82-6.64l1.31-1.13c2.22-1.88,4.51-3.65,6.86-5.28l1.26-.87c.9-.6,2.19-1.44,3.1-2C910.52,121,911,121.19,911.44,121.38Z"/><path class="cls-7" d="M920.82,126.33c-1.34,1-3.17,2.6-4.45,3.73-.44.38-.87.77-1.31,1.17a87.23,87.23,0,0,0-6.84,6.89c-.44.49-.87,1-1.29,1.48-.18.2-.35.41-.52.61a90.75,90.75,0,0,0-6.29,8.49,2.12,2.12,0,0,0-.12.2h0l-1.08-.05-1.35,0h-.13l.07-.1c.42-.64.86-1.3,1.31-1.93a91.56,91.56,0,0,1,6.85-8.65c.41-.47.84-1,1.27-1.42,2.17-2.33,4.46-4.55,6.82-6.64l1.31-1.13c1.27-1.08,3-2.47,4.29-3.47C919.81,125.78,920.38,126,920.82,126.33Z"/><path class="cls-7" d="M937.78,142.14c-.12.18-5,6.38-5.15,6.56-.45.68-.89,1.36-1.31,2-.92,1.46-2.12,3.32-3,4.82-.13-.15-1.56-.51-2.14-.75.94-1.65,2.73-4.51,3.79-6.11.43-.64.87-1.3,1.32-1.93s5.12-6.8,5.49-7.32A10.55,10.55,0,0,1,937.78,142.14Z"/><path class="cls-7" d="M930.29,132.5c-1.14,1.13-4.75,4.41-5.82,5.62-.43.49-.87,1-1.28,1.48l-.53.61a92.56,92.56,0,0,0-6.29,8.49c-.34.52-1.7,2.45-2,3-.22,0-1.91-.41-2.33-.47.27-.42,1.46-2.1,1.73-2.51.43-.64.86-1.3,1.31-1.93a91.56,91.56,0,0,1,6.85-8.65c.42-.47.84-1,1.28-1.42,1.14-1.23,4.35-4.14,5.55-5.3C929.23,131.75,929.58,132,930.29,132.5Z"/><path class="cls-7" d="M933.15,153.79c-.61-1.06-1.18-2-1.83-3q-.65-1-1.32-2a90.64,90.64,0,0,0-6.28-8.49l-.53-.61c-.41-.51-.85-1-1.28-1.48a89.1,89.1,0,0,0-6.85-6.89c-.43-.4-.86-.79-1.31-1.17-2.19-1.93-4.46-3.75-6.82-5.49l-1.26-.92q-3.33-2.41-6.86-4.64c-.3-.2-.59-.38-.89-.56-.11-.08-2.38-1.35-2.5-1.42l2.19.24c2.41,1.28,7,4,9.32,5.51l1.27.87c2.35,1.63,4.65,3.4,6.86,5.28l1.31,1.13q3.55,3.13,6.82,6.64l1.28,1.42a93.2,93.2,0,0,1,6.85,8.65c.44.63.88,1.29,1.31,1.93.18.27,1.88,3.16,2,3.42a7.41,7.41,0,0,1-.7.84C933.73,153.2,933.52,153.44,933.15,153.79Z"/><path class="cls-7" d="M918.4,152.61c-.3-.05-2.66-.61-2.88-.63-.31-.5-1.45-2.79-1.77-3.28a92.45,92.45,0,0,0-6.28-8.49c-.17-.2-.35-.41-.54-.61-.41-.51-.84-1-1.27-1.48a89.1,89.1,0,0,0-6.85-6.89c-.44-.4-.87-.79-1.31-1.17-2.19-1.93-4.47-3.75-6.82-5.49l-1.26-.92q-3.33-2.41-6.87-4.64c-.28-.19-2.26-1.22-2.53-1.38.23-.06,1.18-.23,1.31-.24l2.11,1.06a81.4,81.4,0,0,1,7.24,4.33l1.26.87c2.36,1.63,4.65,3.4,6.87,5.28l1.31,1.13c2.36,2.09,4.65,4.31,6.81,6.64.44.47.87,1,1.29,1.42a93.1,93.1,0,0,1,6.84,8.65c.45.63.89,1.29,1.31,1.93S918,152,918.4,152.61Z"/><path class="cls-7" d="M900.62,149.55c-.09,0-2.3-.24-2.75-.25l-.37-.6a92.56,92.56,0,0,0-6.29-8.49l-.53-.61c-.41-.51-.85-1-1.28-1.48a87.35,87.35,0,0,0-6.85-6.89c-.43-.4-.86-.79-1.3-1.17-2.2-1.93-4.47-3.75-6.82-5.49l-1.26-.92c-1-.7-2.7-2.06-3.69-2.73.48-.19.93-.41,1.43-.59.92.56,2.62,1.85,3.52,2.45l1.26.87c2.35,1.63,4.65,3.4,6.86,5.28.45.37.88.75,1.31,1.13q3.55,3.13,6.82,6.64c.44.47.86,1,1.28,1.42a91.56,91.56,0,0,1,6.85,8.65c.45.63.88,1.29,1.31,1.93C900.17,148.77,900.57,149.48,900.62,149.55Z"/><path class="cls-7" d="M884.09,149l-2.59.13-.26-.43a90.64,90.64,0,0,0-6.28-8.49l-.53-.61c-.42-.51-.85-1-1.28-1.48a89.1,89.1,0,0,0-6.85-6.89c-.43-.4-.86-.79-1.31-1.17-1.28-1.13-3.86-3.13-5.21-4.2.44-.33,1.08-.58,1.54-.89,1.32,1,3.71,2.88,5,4l1.31,1.13q3.55,3.13,6.82,6.64l1.28,1.42a91.45,91.45,0,0,1,6.84,8.65c.45.63.89,1.29,1.32,1.93A3.3,3.3,0,0,0,884.09,149Z"/><path class="cls-7" d="M854.67,153.92c-.73.23-1.74.49-2,.61-.83-1.5-1.69-2.33-2.61-3.79-.43-.68-.82-1.4-1.32-2-4.36-5.59-7.25-7.35-7.25-7.35a14.71,14.71,0,0,1,1.46-2.46c.39.53,5.45,5.49,7.11,7.88.44.64.89,1.29,1.31,1.93C852.42,150.29,853.73,152.27,854.67,153.92Z"/><path class="cls-7" d="M868.76,150.68c-.41.06-2.17.4-2.39.43-.33-.53-1-1.89-1.38-2.41a90.75,90.75,0,0,0-6.29-8.49c-.17-.2-.34-.41-.53-.61-.41-.51-.84-1-1.27-1.48-1.09-1.22-5.44-5-6.58-6.12.57-.43,1.51-1.05,1.68-1.18,1.21,1.17,5,4.64,6.17,5.88.44.47.86,1,1.29,1.42a93.1,93.1,0,0,1,6.84,8.65c.45.63.89,1.29,1.32,1.93C867.89,149.11,868.49,150.27,868.76,150.68Z"/><path class="cls-8" d="M900.27,94.16c2.89,2.17,3.35,4.49,2.5,6.85-.71,1.94-5.76-.74-6.66-1.48s-4.43-4.1-3.2-5.76S896.59,91.4,900.27,94.16Z"/><g class="cls-9"><path class="cls-10" d="M899.25,97.31a.26.26,0,0,1,0,.11.13.13,0,0,1-.15,0,.52.52,0,0,1-.24-.11c-1-.65-1.28-2,0-.94,1.17,1,1.45,2.39.14,1.61-1.75-1.07-2.65-3.24-1.84-3.27,1.31-.16,4.72,3.26,4.5,5-.1.89-1.17.63-2,.24A13.85,13.85,0,0,1,895,95.57c-.9-1.35-1.15-2.56-1-1.93a3.09,3.09,0,0,0,.13.46c1.11,3.27,6.08,7.66,7.62,6.37,1.14-.93-.54-3.56-2-4.82-2.6-2.3-4.09-1.12-2.39,1.16.66.85,1.9,1.89,2.56,1.67.88-.33-.29-2.06-1.35-2.54-.68-.3-.93.26-.28,1,.51.58,1.13.79,1.06.35C899.25,97.25,899.24,97.25,899.25,97.31Z"/></g><path class="cls-11" d="M859,167.81s.37-7.23-4.07-5.22.66,33.69,11.87,46.59,8.46,8,1.9-5.45S859,167.81,859,167.81Z"/><path class="cls-12" d="M895.55,93c2.83,0,6,2.75,6.82,5.11a2,2,0,0,1-.4,2.38l-.08,0-.06.07-.07,0-.07,0h0c-11.12,6.56-13.1,15.5-13.18,15.88l-.25,1.2h1.23c1.57,0,3.65,0,5.86.22h.07c1.44.13,2.8.32,4.17.57h.06l.21,0a49.83,49.83,0,0,1,10.07,3.16l.34.15.76.33a91.32,91.32,0,0,1,8.36,4.33l.16.09.21.13c2.64,1.54,5.47,3.36,8.42,5.37l.08.06.33.22.65.45a20.28,20.28,0,0,1,6.69,7l.1.2.05.12c.1.21.19.42.28.63s.12.31.17.46l0,.11.06.2a.94.94,0,0,1,0,.16l0,.14c.85,3.23-.14,6.52-3,9.81a4.42,4.42,0,0,1-.44.5l-.35.36-.36.36-.12.11a21.69,21.69,0,0,1-2.61,2.16l-.44.3v.59h0c0,12.9-2.31,31.29-7.46,43.28-4.21,9.78-11.75,22.87-28.61,23.58l-1.49,0H891l-.13.85s0,.09,0,.25a10.18,10.18,0,0,1-.89,2.87c-.55,1.16-1.18,1.82-1.87,2h-.39c-1.38,0-2.75-2.15-3.19-5l-.13-.85h-.85c-25.26,0-34.72-40.76-34.77-66.63h0v-.27l0-1.44-.92.35c-.34-.19-.68-.41-1-.64l-.37-.26-.63-.49-.09-.06,0,0c-2.37-2-5.93-6.09-3.23-11.84l.27-.56c.15-.28.38-.65.69-1.13l.15-.22.27-.38a30,30,0,0,1,7.06-6.62l.14-.1.16-.11c.38-.28.84-.59,1.14-.8l.17-.11c2.72-1.87,5.39-3.58,7.94-5.07l0,0,0,0a6.28,6.28,0,0,1,.72-.42l.06,0h0l.59-.34a84.57,84.57,0,0,1,8.06-4l.94-.4h0l.47-.19a50.58,50.58,0,0,1,9-2.68l.83-.15h0l.38-.06.58-.09.74-.11.1-.74,0-.28c5.9-21.08,11.61-23.9,12.06-24.09a4.07,4.07,0,0,1,.5,0m0-1a4.4,4.4,0,0,0-.73,0s-6.33,1.65-12.81,24.86l0,.35-.63.1h0c-.12,0-.89.15-1.22.21a51.68,51.68,0,0,0-9.2,2.73h0c-.5.18-.95.39-1.43.59h0a84,84,0,0,0-8.16,4h0l-.17.1-.48.27a6.74,6.74,0,0,0-.8.47c-2.5,1.46-5.16,3.14-8,5.11-.29.19-.87.58-1.33.92l-.28.2a30.45,30.45,0,0,0-7.3,6.86h0l-.28.41-.16.23a11.07,11.07,0,0,0-1,1.82h0c-2.69,5.72.17,10.28,3.49,13h0a1.58,1.58,0,0,0,.15.12l.67.52.39.28a15.93,15.93,0,0,0,1.51.91h0v0h0c0,24.84,9,67.87,35.77,67.87.51,3.38,2.18,5.86,4.17,5.86h.1c1.46,0,2.43-1.22,3.06-2.55a11,11,0,0,0,1-3.13c0-.17,0-.28,0-.28.52,0,1,0,1.54,0,17.16-.73,24.93-13.61,29.48-24.19,5.35-12.45,7.54-31,7.54-43.67v-.07a22.28,22.28,0,0,0,2.74-2.26h0l.05,0,0,0c.31-.3.52-.53.75-.75a5.88,5.88,0,0,0,.52-.6c2.26-2.61,4.31-6.36,3.16-10.69a3,3,0,0,0-.08-.32,3.59,3.59,0,0,0-.12-.35c-.06-.18-.12-.35-.19-.51a5.79,5.79,0,0,0-.29-.68l-.17-.36h0c-1.2-2.34-3.38-4.81-7-7.33l-1-.68-.07,0h0c-3-2.09-5.87-3.88-8.49-5.42l-.39-.23a90.77,90.77,0,0,0-8.43-4.36h0c-.38-.16-.75-.33-1.14-.48A50.62,50.62,0,0,0,900,117.68l-.27-.06h0c-1.5-.28-2.92-.47-4.3-.59h0c-2.07-.19-4-.23-5.95-.23,0,0,1.84-8.82,12.73-15.23h0a1.11,1.11,0,0,0,.37-.27c3.25-2.6-2.18-9.27-7-9.27Z"/><path class="cls-16" d="M763.47,53.37s-5.32,1.4-10.77,20.9l-.5,3.67,6.71.13.07-3.92s1.55-7.41,10.69-12.8C773.22,59.26,767.84,52.74,763.47,53.37Z"/><path class="cls-17" d="M793.22,105.2a132.38,132.38,0,0,0-68.22,0,11.32,11.32,0,0,1-1.11,2.1c0,20.87,7.53,57,30.06,57,.43,2.84,1.84,4.92,3.5,4.92s3.1-2.12,3.52-5c27,0,32.27-37.14,32.27-57.8v-.08C793.24,106,793.24,105.59,793.22,105.2Z"/><path class="cls-4" d="M780.78,99.06s12.6-.22,12.6,8.14c0,10.63-1.84,26.24-6.34,36.7-3.94,9.16-10.74,20.36-26.07,20.36,0,0-.72,5-3.43,5a13.53,13.53,0,0,0,1.79-5.6S780.78,144.25,780.78,99.06Z"/><path class="cls-5" d="M723.89,107.24s0,3.05.15,4.32a32.27,32.27,0,0,1,7.29-3.18c6.08-1.62,30.39-4.94,53.16.47,2.8.67,6.78,1.84,8.59,3.23,0,0,.14-3.8.14-4.84,0,0-2.9-9.67-5.59-11.3C776.16,89,746,91.11,734.11,97.32,731,99,723.89,107.24,723.89,107.24Z"/><path class="cls-18" d="M723.86,107.28a104.11,104.11,0,0,1,34-6.14,102.52,102.52,0,0,1,35.27,6.14s15-9.59-.3-20.25C775.47,75,767,74.15,759,74.15c-6.75,0-16,.81-33,12.81C711.9,96.93,719.11,104.75,723.86,107.28Z"/><path class="cls-7" d="M755.68,74.35c-.11.06-1.67,1.11-1.78,1.19l-.74.46c-2,1.26-3.9,2.55-5.77,3.91-.36.25-.71.51-1.06.77-2,1.46-3.89,3-5.73,4.62-.37.31-.74.64-1.1,1a73.22,73.22,0,0,0-5.75,5.8c-.37.41-.74.82-1.08,1.24-.16.17-.3.35-.45.52a78.08,78.08,0,0,0-5.28,7.13c-.38.57-.74,1.14-1.1,1.72-.56.88-2.07,3.35-2.59,4.25a11.26,11.26,0,0,1-1.68-1.19c.15-.24,3-4.55,3.16-4.78.36-.54.73-1.09,1.11-1.62a77.1,77.1,0,0,1,5.75-7.27c.35-.4.72-.8,1.08-1.19a77.25,77.25,0,0,1,5.73-5.58c.37-.33.73-.64,1.1-1a71.42,71.42,0,0,1,5.77-4.44l1.06-.73c1.95-1.31,5.43-3.62,7.46-4.69C753.84,74.47,755.67,74.35,755.68,74.35Z"/><path class="cls-7" d="M768.72,75.07c-.22.14-1.67.79-1.9.93-2,1.26-3.9,2.55-5.77,3.91l-1.06.77c-2,1.46-3.89,3-5.73,4.62-.37.31-.74.64-1.1,1a75.09,75.09,0,0,0-5.76,5.8c-.36.41-.72.82-1.07,1.24-.16.17-.3.35-.45.52A78.08,78.08,0,0,0,740.6,101c-.27.41-1,1.65-1.28,2.07-.19,0-2.26.47-2.51.51.33-.53,1.23-2.05,1.58-2.58s.73-1.09,1.11-1.62a77.1,77.1,0,0,1,5.75-7.27c.35-.4.71-.8,1.08-1.19a77.25,77.25,0,0,1,5.73-5.58c.36-.33.73-.64,1.1-1a71.42,71.42,0,0,1,5.77-4.44l1.06-.73a69.25,69.25,0,0,1,6.08-3.64l1.55-.7C767.74,74.85,768.49,75,768.72,75.07Z"/><path class="cls-7" d="M777.44,78c-.83.56-1.93,1.32-2.73,1.91-.36.25-.71.51-1.06.77-2,1.46-3.89,3-5.73,4.62-.37.31-.74.64-1.1,1a75.09,75.09,0,0,0-5.76,5.8c-.36.41-.73.82-1.07,1.24l-.44.52a76.37,76.37,0,0,0-5.29,7.13l-.23.28-2.28.12.3-.4c.36-.54.73-1.09,1.11-1.62a75.51,75.51,0,0,1,5.75-7.27c.36-.4.71-.8,1.08-1.19a77.25,77.25,0,0,1,5.73-5.58c.36-.33.73-.64,1.1-1a71.42,71.42,0,0,1,5.77-4.44l1.06-.73c.75-.51,1.84-1.21,2.6-1.68C776.66,77.65,777,77.84,777.44,78Z"/><path class="cls-7" d="M785.32,82.16c-1.13.88-2.67,2.19-3.74,3.14-.37.31-.74.64-1.1,1a75.09,75.09,0,0,0-5.76,5.8c-.36.41-.72.82-1.07,1.24-.16.17-.3.35-.45.52a78.08,78.08,0,0,0-5.28,7.13l-.1.17h0l-.91,0-1.13,0h-.11l.06-.09c.35-.54.72-1.09,1.1-1.62a77.1,77.1,0,0,1,5.75-7.27c.35-.4.72-.8,1.08-1.19a77.25,77.25,0,0,1,5.73-5.58c.37-.33.73-.64,1.1-1,1.06-.91,2.49-2.08,3.6-2.92C784.47,81.7,785,81.88,785.32,82.16Z"/><path class="cls-7" d="M799.57,95.45c-.1.15-4.22,5.36-4.33,5.51-.38.57-.74,1.14-1.1,1.72-.77,1.22-1.78,2.79-2.49,4-.11-.13-1.31-.43-1.8-.63.78-1.39,2.29-3.8,3.18-5.14.36-.54.73-1.09,1.11-1.62s4.3-5.72,4.62-6.15A9.12,9.12,0,0,1,799.57,95.45Z"/><path class="cls-7" d="M793.27,87.34c-.95,1-4,3.71-4.89,4.73-.36.41-.72.82-1.07,1.24l-.44.52a74.64,74.64,0,0,0-5.29,7.13c-.29.44-1.43,2.06-1.7,2.5-.19,0-1.61-.34-2-.39.22-.35,1.22-1.76,1.44-2.11.37-.54.73-1.09,1.11-1.62a77.1,77.1,0,0,1,5.75-7.27c.36-.4.71-.8,1.08-1.19,1-1,3.65-3.48,4.66-4.46C792.39,86.72,792.68,86.9,793.27,87.34Z"/><path class="cls-7" d="M795.68,105.24c-.51-.9-1-1.68-1.54-2.56-.36-.58-.73-1.15-1.11-1.72a76.26,76.26,0,0,0-5.28-7.13l-.44-.52c-.35-.42-.71-.83-1.08-1.24a75,75,0,0,0-5.75-5.8c-.36-.33-.73-.66-1.1-1-1.84-1.63-3.75-3.16-5.73-4.62l-1.06-.77c-1.87-1.36-3.8-2.65-5.77-3.91l-.75-.46c-.09-.07-2-1.14-2.1-1.2l1.85.21c2,1.07,5.88,3.33,7.83,4.63l1.06.73a71.42,71.42,0,0,1,5.77,4.44c.37.31.73.62,1.1,1a77.25,77.25,0,0,1,5.73,5.58c.36.39.72.79,1.07,1.19a75.62,75.62,0,0,1,5.76,7.27c.37.53.74,1.08,1.1,1.62.15.22,1.58,2.66,1.73,2.88a7.35,7.35,0,0,1-.59.7C796.17,104.75,796,104.94,795.68,105.24Z"/><path class="cls-7" d="M783.28,104.24c-.24,0-2.23-.5-2.42-.52-.26-.42-1.21-2.35-1.49-2.76a76.26,76.26,0,0,0-5.28-7.13l-.44-.52c-.35-.42-.71-.83-1.08-1.24a73.22,73.22,0,0,0-5.75-5.8c-.37-.33-.73-.66-1.1-1-1.85-1.63-3.76-3.16-5.73-4.62l-1.06-.77c-1.87-1.36-3.79-2.65-5.77-3.91-.24-.15-1.9-1-2.14-1.16l1.11-.2,1.77.9A68,68,0,0,1,760,79.18l1.06.73a71.42,71.42,0,0,1,5.77,4.44c.37.31.73.62,1.1,1a77.25,77.25,0,0,1,5.73,5.58c.36.39.72.79,1.07,1.19a77.21,77.21,0,0,1,5.76,7.27c.37.53.75,1.08,1.1,1.62S783,103.71,783.28,104.24Z"/><path class="cls-7" d="M768.34,101.68c-.08,0-1.93-.21-2.31-.22,0,0-.29-.47-.31-.5a78.2,78.2,0,0,0-5.29-7.13l-.44-.52c-.35-.42-.71-.83-1.08-1.24a75,75,0,0,0-5.75-5.8c-.36-.33-.73-.66-1.1-1-1.84-1.63-3.76-3.16-5.73-4.62l-1.06-.77c-.81-.59-2.27-1.73-3.1-2.3.4-.16.78-.35,1.2-.49.77.47,2.2,1.55,3,2.06l1.06.73a71.42,71.42,0,0,1,5.77,4.44c.37.31.73.62,1.1,1A77.25,77.25,0,0,1,760,90.88c.36.39.72.79,1.07,1.19a77.21,77.21,0,0,1,5.76,7.27c.38.53.74,1.08,1.1,1.62Z"/><path class="cls-7" d="M754.45,101.21l-2.18.11-.22-.36a74.52,74.52,0,0,0-5.28-7.13l-.44-.52c-.35-.42-.71-.83-1.08-1.24a73.22,73.22,0,0,0-5.75-5.8c-.37-.33-.73-.66-1.1-1-1.08-1-3.25-2.64-4.38-3.53.37-.28.9-.49,1.29-.75,1.11.84,3.12,2.42,4.19,3.33.37.31.73.62,1.1,1a77.25,77.25,0,0,1,5.73,5.58c.36.39.72.79,1.07,1.19a77.21,77.21,0,0,1,5.76,7.27c.37.53.74,1.08,1.1,1.62Z"/><path class="cls-7" d="M729.72,105.35c-.61.19-1.46.41-1.69.51-.7-1.26-1.42-2-2.19-3.18a19.39,19.39,0,0,0-1.11-1.72c-3.66-4.7-6.1-6.18-6.1-6.18a12.72,12.72,0,0,1,1.23-2.06c.33.44,4.58,4.61,6,6.62.37.53.74,1.08,1.1,1.62C727.83,102.3,728.93,104,729.72,105.35Z"/><path class="cls-7" d="M741.56,102.63c-.34,0-1.82.33-2,.35-.28-.44-.88-1.58-1.17-2a76.26,76.26,0,0,0-5.28-7.13l-.44-.52c-.35-.42-.71-.83-1.08-1.24-.91-1-4.56-4.18-5.52-5.15.47-.36,1.26-.88,1.41-1,1,1,4.22,3.9,5.19,4.95l1.08,1.19a78.76,78.76,0,0,1,5.75,7.27c.38.53.74,1.08,1.1,1.62C740.83,101.31,741.34,102.28,741.56,102.63Z"/><path class="cls-8" d="M768.05,55.13c2.43,1.82,2.81,3.77,2.09,5.75-.59,1.63-4.83-.63-5.59-1.24s-3.72-3.45-2.69-4.85S765,52.8,768.05,55.13Z"/><g class="cls-9"><path class="cls-10" d="M767.19,57.77a.16.16,0,0,1,0,.09.1.1,0,0,1-.13,0,.64.64,0,0,1-.2-.08c-.83-.55-1.07-1.72,0-.79s1.23,2,.13,1.34c-1.48-.89-2.23-2.71-1.55-2.74,1.1-.14,4,2.73,3.78,4.2-.08.74-1,.53-1.65.2a11.6,11.6,0,0,1-4-3.72c-.75-1.14-1-2.15-.85-1.63a2,2,0,0,0,.11.39c.93,2.75,5.1,6.44,6.4,5.36,1-.78-.46-3-1.71-4-2.19-1.94-3.44-.94-2,1,.56.72,1.6,1.59,2.15,1.41.75-.28-.24-1.74-1.13-2.14-.57-.25-.78.22-.23.85s.94.66.89.29C767.19,57.72,767.18,57.72,767.19,57.77Z"/></g><path class="cls-11" d="M733.32,117s.31-6.08-3.42-4.39.56,28.32,10,39.16,7.12,6.72,1.6-4.58S733.32,117,733.32,117Z"/><path class="cls-12" d="M764.08,54.33c2.31,0,4.9,2.25,5.58,4.19.44,1.25-.11,1.68-.29,1.83l-.07.06,0,0-.07,0-.06,0C759.75,66.05,758.06,73.63,758,74l-.26,1.2H759c1.31,0,3.06,0,4.91.19h0c1.21.11,2.36.27,3.51.48h0l.17,0a41.63,41.63,0,0,1,8.44,2.65l.28.12.64.28a76.68,76.68,0,0,1,7,3.63l.13.08.17.1c2.22,1.3,4.6,2.82,7.08,4.52l.57-.83-.51.87.27.18.56.39a16.76,16.76,0,0,1,5.56,5.79l.09.17,0,.09c.08.17.16.34.23.52s.1.25.14.38l0,.09.06.17,0,.12,0,.12c.7,2.66-.12,5.38-2.48,8.1a2.8,2.8,0,0,1-.35.41l-.29.3-.36.36,0,0a18.69,18.69,0,0,1-2.18,1.8l-.44.3v.58c0,10.82-1.94,26.25-6.26,36.31-3.52,8.18-9.82,19.12-23.9,19.72-.41,0-.83,0-1.25,0h-.86l-.13.85,0,.21a8.35,8.35,0,0,1-.74,2.37c-.44.93-.92,1.45-1.46,1.56h-.32c-1.07,0-2.14-1.77-2.49-4.07l-.13-.85H754c-21.1,0-29-34.15-29.06-55.82v-1.7l-.95.36-.79-.5-.3-.22-.53-.4-.06,0,0,0c-2-1.62-4.9-5-2.67-9.76l.23-.49c.12-.22.31-.53.56-.92l.13-.18.22-.31a25.1,25.1,0,0,1,5.9-5.54l.11-.07.14-.1c.32-.23.7-.49,1-.66l.14-.1c2.28-1.57,4.53-3,6.66-4.25l0,0,0,0a5.13,5.13,0,0,1,.6-.34h0l.53-.3a70.51,70.51,0,0,1,6.76-3.36l.67-.28h0l.51-.2a41.65,41.65,0,0,1,7.56-2.24l.7-.13h0l.32-.05.48-.08.74-.11.1-.74,0-.23c4.9-17.48,9.63-19.94,10-20.12l.38,0m0-1a4.08,4.08,0,0,0-.61,0s-5.32,1.39-10.77,20.9l0,.29-.53.09h0l-1,.19a42.45,42.45,0,0,0-7.73,2.29h0c-.42.14-.8.33-1.2.49h0A70,70,0,0,0,735.31,81h0l-.14.08-.41.23a6.19,6.19,0,0,0-.67.39c-2.1,1.23-4.33,2.65-6.73,4.3-.24.16-.73.49-1.12.77L726,87a25.88,25.88,0,0,0-6.14,5.76h0l-.24.34-.13.2a9.86,9.86,0,0,0-.87,1.52h0c-2.27,4.81.14,8.65,2.93,11h0l.12.1.57.43.33.23a12.83,12.83,0,0,0,1.27.78l0,0v0h0c0,20.87,7.53,57,30.06,57,.43,2.84,1.84,4.92,3.51,4.92h.08c1.23,0,2.05-1,2.57-2.15a8.93,8.93,0,0,0,.82-2.63c0-.15,0-.23,0-.23q.66,0,1.29,0c14.43-.61,21-11.44,24.78-20.33,4.5-10.46,6.34-26.07,6.34-36.7,0,0,0,0,0-.06a19,19,0,0,0,2.31-1.9h0l.05,0,0,0,.63-.63c.14-.14.31-.35.44-.51,1.89-2.19,3.62-5.34,2.65-9l-.06-.27c0-.09-.07-.19-.1-.29s-.11-.29-.16-.43-.16-.38-.25-.57l-.14-.3h0A17.65,17.65,0,0,0,792.87,87l-.84-.57,0,0h0c-2.56-1.75-4.93-3.26-7.13-4.55l-.33-.2A76.05,76.05,0,0,0,777.42,78h0c-.33-.13-.64-.27-1-.41a42.8,42.8,0,0,0-8.62-2.7l-.24,0h0c-1.25-.24-2.45-.39-3.6-.5h0c-1.74-.15-3.38-.19-5-.19,0,0,1.55-7.41,10.69-12.8h0a.83.83,0,0,0,.32-.22c2.72-2.19-1.83-7.8-5.92-7.8Z"/><path class="cls-19" d="M640.59,22.32s-4.83,1.27-9.78,19l-.46,3.33,6.1.12.06-3.56s1.41-6.73,9.71-11.62C649.44,27.67,644.55,21.75,640.59,22.32Z"/><path class="cls-20" d="M667.6,69.37a120.15,120.15,0,0,0-61.94,0,9.67,9.67,0,0,1-1,1.91c0,19,6.84,51.78,27.29,51.78.4,2.58,1.67,4.47,3.19,4.47s2.81-1.93,3.19-4.54c24.5,0,29.3-33.72,29.3-52.47v-.08C667.62,70.08,667.61,69.73,667.6,69.37Z"/><path class="cls-4" d="M656.3,63.8s11.44-.2,11.44,7.39c0,9.65-1.67,23.82-5.76,33.32-3.57,8.31-9.74,18.48-23.66,18.48,0,0-.65,4.54-3.11,4.54a12.31,12.31,0,0,0,1.62-5.08S656.3,104.82,656.3,63.8Z"/><path class="cls-5" d="M604.66,71.22s0,2.78.13,3.92a29.51,29.51,0,0,1,6.62-2.88c5.52-1.47,27.59-4.49,48.26.43,2.54.6,6.15,1.66,7.79,2.93,0,0,.14-3.45.13-4.4,0,0-2.62-8.77-5.07-10.25-10.41-6.28-37.83-4.39-48.59,1.25C611.07,63.72,604.66,71.22,604.66,71.22Z"/><path class="cls-21" d="M604.63,71.26a94.58,94.58,0,0,1,30.9-5.57,93.1,93.1,0,0,1,32,5.57s13.64-8.7-.28-18.38c-15.79-11-23.52-11.69-30.76-11.69-6.13,0-14.52.73-29.93,11.62C593.77,61.86,600.31,69,604.63,71.26Z"/><path class="cls-7" d="M633.51,41.37l-1.61,1.07-.68.43q-2.69,1.7-5.23,3.54l-1,.71c-1.8,1.32-3.54,2.71-5.21,4.19-.33.28-.67.58-1,.88a68.33,68.33,0,0,0-5.23,5.26c-.33.38-.66.75-1,1.13l-.4.47a70.11,70.11,0,0,0-4.79,6.47c-.35.52-.68,1-1,1.56-.5.81-1.87,3-2.34,3.86a10.68,10.68,0,0,1-1.53-1.08l2.87-4.34,1-1.47a70.11,70.11,0,0,1,5.23-6.6l1-1.08a71,71,0,0,1,5.21-5.06c.33-.3.66-.59,1-.87,1.69-1.43,3.44-2.78,5.23-4l1-.66c1.77-1.19,4.92-3.28,6.77-4.26Z"/><path class="cls-7" d="M645.36,42c-.21.13-1.52.71-1.73.85-1.8,1.13-3.54,2.31-5.24,3.54-.32.24-.65.47-1,.71-1.8,1.32-3.53,2.71-5.21,4.19-.33.28-.66.58-1,.88A70.05,70.05,0,0,0,626,57.45c-.33.38-.66.75-1,1.13-.15.16-.28.31-.41.47a70.11,70.11,0,0,0-4.79,6.47c-.25.38-.93,1.51-1.17,1.88-.17,0-2,.43-2.27.47.3-.49,1.12-1.87,1.43-2.35s.66-1,1-1.47a70,70,0,0,1,5.22-6.6l1-1.08a68.88,68.88,0,0,1,5.2-5.06q.49-.45,1-.87c1.69-1.43,3.44-2.78,5.25-4,.31-.23.64-.44,1-.66A62.45,62.45,0,0,1,643,42.44l1.41-.63C644.46,41.82,645.14,42,645.36,42Z"/><path class="cls-7" d="M653.27,44.68c-.75.51-1.75,1.2-2.48,1.73l-1,.71c-1.8,1.32-3.53,2.71-5.2,4.19-.34.28-.67.58-1,.88a68.33,68.33,0,0,0-5.23,5.26c-.33.38-.66.75-1,1.13-.14.16-.28.31-.41.47a70.11,70.11,0,0,0-4.79,6.47s-.2.23-.21.26l-2.07.1s.24-.3.27-.36l1-1.47a71.77,71.77,0,0,1,5.23-6.6c.32-.36.64-.72,1-1.08a68.88,68.88,0,0,1,5.2-5.06c.33-.3.66-.59,1-.87,1.69-1.43,3.44-2.78,5.23-4l1-.66c.68-.46,1.67-1.1,2.36-1.52C652.56,44.37,652.9,44.53,653.27,44.68Z"/><path class="cls-7" d="M660.42,48.45c-1,.81-2.42,2-3.4,2.86-.33.28-.66.58-1,.88a68.33,68.33,0,0,0-5.23,5.26c-.33.38-.66.75-1,1.13-.14.16-.28.31-.41.47a70.11,70.11,0,0,0-4.79,6.47l-.1.16h0l-.83,0-1,0h-.1a.35.35,0,0,1,0-.08c.32-.49.66-1,1-1.47a71.66,71.66,0,0,1,5.22-6.6l1-1.08a68.88,68.88,0,0,1,5.2-5.06c.33-.3.66-.59,1-.87,1-.82,2.26-1.89,3.27-2.64C659.65,48,660.08,48.2,660.42,48.45Z"/><path class="cls-7" d="M673.36,60.52c-.09.14-3.84,4.87-3.93,5-.34.52-.68,1-1,1.56-.7,1.12-1.62,2.54-2.26,3.68a16.87,16.87,0,0,0-1.64-.57c.72-1.26,2.09-3.45,2.89-4.67l1-1.47c.28-.4,3.91-5.19,4.19-5.58A8,8,0,0,1,673.36,60.52Z"/><path class="cls-7" d="M667.64,53.16c-.87.87-3.62,3.37-4.44,4.29-.33.38-.66.75-1,1.13l-.4.47a68.45,68.45,0,0,0-4.8,6.47c-.26.4-1.3,1.88-1.55,2.28-.17,0-1.46-.32-1.77-.36.2-.32,1.11-1.6,1.31-1.92l1-1.47a70,70,0,0,1,5.22-6.6l1-1.08c.87-.94,3.31-3.16,4.23-4C666.84,52.59,667.1,52.76,667.64,53.16Z"/><path class="cls-7" d="M669.83,69.41c-.47-.81-.9-1.53-1.4-2.33-.33-.52-.66-1-1-1.56a70.11,70.11,0,0,0-4.79-6.47l-.4-.47c-.32-.38-.65-.75-1-1.13A70.05,70.05,0,0,0,656,52.19c-.33-.3-.66-.6-1-.88-1.67-1.48-3.41-2.87-5.2-4.19l-1-.71c-1.69-1.23-3.44-2.41-5.23-3.54l-.68-.43L641,41.36l1.68.19c1.83,1,5.34,3,7.11,4.2.32.22.64.43,1,.66,1.8,1.25,3.55,2.6,5.24,4q.5.42,1,.87a69,69,0,0,1,5.21,5.06l1,1.08a70.11,70.11,0,0,1,5.23,6.6l1,1.47c.14.21,1.43,2.41,1.57,2.62a6.63,6.63,0,0,1-.54.64C670.27,69,670.11,69.14,669.83,69.41Z"/><path class="cls-7" d="M658.57,68.5c-.22,0-2-.45-2.19-.47-.24-.38-1.11-2.13-1.36-2.51a70.11,70.11,0,0,0-4.79-6.47l-.4-.47c-.32-.38-.65-.75-1-1.13a70.05,70.05,0,0,0-5.22-5.26c-.33-.3-.67-.6-1-.88-1.68-1.48-3.41-2.87-5.2-4.19-.32-.24-.65-.47-1-.71q-2.55-1.84-5.25-3.54c-.21-.14-1.72-.92-1.93-1,.18,0,.9-.18,1-.19s1.53.78,1.61.81a64.1,64.1,0,0,1,5.53,3.31c.31.22.64.43,1,.66,1.8,1.25,3.55,2.6,5.24,4l1,.87c1.8,1.58,3.54,3.28,5.2,5.06.33.36.66.72,1,1.08a71.77,71.77,0,0,1,5.23,6.6c.34.49.68,1,1,1.47S658.27,68,658.57,68.5Z"/><path class="cls-7" d="M645,66.18c-.07,0-1.76-.19-2.1-.2,0,0-.27-.43-.28-.46a72.11,72.11,0,0,0-4.8-6.47l-.4-.47c-.32-.38-.65-.75-1-1.13a68.33,68.33,0,0,0-5.23-5.26c-.32-.3-.66-.6-1-.88-1.67-1.48-3.41-2.87-5.2-4.19l-1-.71c-.73-.53-2.06-1.57-2.81-2.08.36-.15.71-.32,1.09-.45.7.42,2,1.41,2.69,1.87l1,.66c1.79,1.25,3.54,2.6,5.23,4,.34.28.67.57,1,.87a71,71,0,0,1,5.21,5.06l1,1.08a70.11,70.11,0,0,1,5.23,6.6l1,1.47Z"/><path class="cls-7" d="M632.4,65.76l-2,.09-.2-.33a70.11,70.11,0,0,0-4.79-6.47l-.4-.47c-.32-.38-.65-.75-1-1.13a70.05,70.05,0,0,0-5.22-5.26c-.34-.3-.66-.6-1-.88-1-.87-3-2.4-4-3.21.34-.25.82-.45,1.17-.68,1,.76,2.84,2.2,3.81,3l1,.87A71,71,0,0,1,625,56.37l1,1.08a70,70,0,0,1,5.22,6.6c.35.49.68,1,1,1.47Z"/><path class="cls-7" d="M610,69.51c-.55.17-1.32.37-1.53.46-.64-1.14-1.3-1.77-2-2.89a17.17,17.17,0,0,0-1-1.56c-3.33-4.26-5.54-5.6-5.54-5.6A11.93,11.93,0,0,1,601,58c.3.41,4.16,4.19,5.42,6l1,1.47C608.23,66.74,609.23,68.25,610,69.51Z"/><path class="cls-7" d="M620.7,67c-.31,0-1.66.3-1.82.32-.25-.4-.79-1.44-1.06-1.84A70.11,70.11,0,0,0,613,59.05c-.13-.16-.27-.31-.41-.47-.31-.38-.64-.75-1-1.13-.83-.93-4.14-3.8-5-4.67.43-.33,1.15-.8,1.29-.9.92.9,3.83,3.54,4.7,4.49.34.36.66.72,1,1.08a71.77,71.77,0,0,1,5.23,6.6l1,1.47C620,65.84,620.5,66.72,620.7,67Z"/><path class="cls-8" d="M644.74,23.92c2.21,1.65,2.56,3.42,1.91,5.22-.54,1.48-4.39-.57-5.08-1.13s-3.38-3.13-2.44-4.4S641.94,21.8,644.74,23.92Z"/><g class="cls-9"><path class="cls-10" d="M644,26.31a.31.31,0,0,1,0,.09.11.11,0,0,1-.12,0,.55.55,0,0,1-.18-.08c-.76-.5-1-1.56,0-.72s1.11,1.82.11,1.22c-1.34-.81-2-2.46-1.41-2.49,1-.12,3.6,2.48,3.43,3.82-.07.67-.88.48-1.49.18A10.57,10.57,0,0,1,640.7,25c-.69-1-.88-1.95-.78-1.48a3.1,3.1,0,0,0,.1.36c.84,2.49,4.64,5.84,5.81,4.86.87-.71-.41-2.72-1.55-3.68-2-1.76-3.12-.85-1.82.88.5.66,1.45,1.45,1.95,1.28.68-.25-.22-1.57-1-1.94-.51-.23-.7.2-.21.77s.86.6.81.27C644,26.27,644,26.27,644,26.31Z"/></g><path class="cls-11" d="M613.22,80.11s.28-5.52-3.11-4,.51,25.71,9.06,35.55,6.45,6.1,1.45-4.16S613.22,80.11,613.22,80.11Z"/><path class="cls-12" d="M641.14,23.28c2.06,0,4.37,2,5,3.75.37,1.07-.08,1.43-.23,1.55l-.08.06v0h0l-.06,0,0,0c-8.57,5.06-10.1,12-10.16,12.26l-.25,1.21h1.23c1.19,0,2.77,0,4.45.17h0c1.09.1,2.13.24,3.21.44l.16,0a38,38,0,0,1,7.64,2.4l.25.1.58.26a68.78,68.78,0,0,1,6.36,3.3l.11.06.16.1c2,1.18,4.17,2.55,6.42,4.09l.56-.82-.51.86.25.17.5.34a15.23,15.23,0,0,1,5,5.23l.08.15,0,.08c.08.16.14.31.21.48l.12.33,0,.09a1.21,1.21,0,0,1,0,.14l0,.11,0,.11c.63,2.38-.11,4.82-2.23,7.27a3.78,3.78,0,0,1-.32.37l-.27.27-.32.32.7.72-.74-.68a16.12,16.12,0,0,1-2,1.62l-.44.3v.58c0,9.82-1.76,23.8-5.68,32.92-3.18,7.41-8.88,17.31-21.62,17.85-.37,0-.74,0-1.12,0h-.86l-.13.85,0,.19a7.71,7.71,0,0,1-.66,2.13c-.27.57-.7,1.23-1.25,1.35l-.23,0h-.06c-.8,0-1.83-1.38-2.17-3.62l-.13-.85h-.86c-19,0-26.21-30.8-26.29-50.45h0v-.35l0-1.46-.92.36c-.22-.13-.45-.27-.67-.42l-.28-.19-.47-.37-.06,0,0,0c-1.75-1.45-4.39-4.51-2.4-8.75l.2-.43c.11-.2.28-.48.52-.83l.11-.17.2-.28a22.61,22.61,0,0,1,5.33-5l.11-.07.12-.09.87-.61.12-.08c2.07-1.42,4.11-2.72,6-3.86l0,0,0,0c.11-.08.26-.16.43-.26h0l.59-.34a61.88,61.88,0,0,1,6.12-3l.58-.25h0l.49-.2a38.17,38.17,0,0,1,6.85-2l.57-.11h0l.31-.06.47-.07.74-.11.11-.74,0-.2c4.41-15.75,8.66-18,9-18.2l.33,0h0m0-1a4.91,4.91,0,0,0-.55,0s-4.83,1.27-9.78,19l0,.26-.49.08h0l-.93.17a38.61,38.61,0,0,0-7,2.08h0c-.38.13-.72.3-1.09.45h0A62.6,62.6,0,0,0,615,47.42h0l-.13.08-.37.2c-.21.12-.42.23-.61.36-1.9,1.11-3.93,2.4-6.1,3.9l-1,.7-.21.15A23.21,23.21,0,0,0,601,58.05h0l-.21.31-.12.18a8.77,8.77,0,0,0-.79,1.38h0c-2.06,4.36.12,7.84,2.66,9.94h0l.11.09a6.41,6.41,0,0,0,.52.39l.3.22c.39.26.78.5,1.15.7h0v0h0c0,19,6.84,51.78,27.29,51.78.4,2.58,1.67,4.47,3.19,4.47h.08c1.11,0,1.85-.93,2.33-2a8.29,8.29,0,0,0,.75-2.39l0-.2c.4,0,.78,0,1.17,0,13.1-.55,19-10.38,22.49-18.45,4.09-9.51,5.76-23.67,5.76-33.32,0,0,0,0,0-.06a17.36,17.36,0,0,0,2.1-1.72h0a.08.08,0,0,1,0,0l0,0c.24-.23.4-.41.57-.57a4.51,4.51,0,0,0,.4-.47c1.72-2,3.29-4.85,2.41-8.15l-.06-.24-.09-.27a3.53,3.53,0,0,0-.15-.39c-.06-.17-.14-.35-.22-.52s-.08-.18-.13-.27h0a16.13,16.13,0,0,0-5.35-5.59l-.75-.52-.06,0h0c-2.32-1.6-4.48-3-6.47-4.14-.11,0-.2-.12-.31-.17a67,67,0,0,0-6.43-3.33h0l-.87-.37a39.63,39.63,0,0,0-7.83-2.46l-.21,0h0c-1.14-.21-2.23-.35-3.28-.45h0c-1.58-.14-3.07-.17-4.54-.17,0,0,1.41-6.73,9.71-11.62h0a.72.72,0,0,0,.28-.2c2.48-2-1.66-7.08-5.37-7.08Z"/><path class="cls-22" d="M526.32,19.4s-3.73,1-7.56,14.67l-.35,2.58,4.71.09,0-2.75s1.09-5.21,7.51-9C533.17,23.53,529.39,19,526.32,19.4Z"/><path class="cls-23" d="M547.21,55.78a92.91,92.91,0,0,0-47.9,0,7.77,7.77,0,0,1-.78,1.47c0,14.66,5.29,40.05,21.11,40.05.3,2,1.29,3.46,2.46,3.46s2.17-1.5,2.47-3.52c18.94,0,22.65-26.07,22.65-40.58v0C547.22,56.33,547.22,56.05,547.21,55.78Z"/><path class="cls-4" d="M538.47,51.47s8.85-.16,8.85,5.72c0,7.46-1.3,18.41-4.45,25.76-2.77,6.43-7.54,14.29-18.3,14.29,0,0-.51,3.52-2.41,3.52a9.52,9.52,0,0,0,1.26-3.93S538.47,83.19,538.47,51.47Z"/><path class="cls-5" d="M498.54,57.21s0,2.15.1,3A23.19,23.19,0,0,1,503.76,58c4.26-1.13,21.33-3.46,37.32.33,2,.47,4.76,1.29,6,2.27,0,0,.11-2.66.1-3.4,0,0-2-6.79-3.92-7.93-8-4.85-29.25-3.39-37.57,1C503.5,51.41,498.54,57.21,498.54,57.21Z"/><path class="cls-24" d="M498.51,57.24a73.1,73.1,0,0,1,23.9-4.31,72,72,0,0,1,24.76,4.31S557.72,50.51,547,43c-12.21-8.49-18.2-9-23.79-9-4.74,0-11.23.56-23.15,9C490.12,50,495.18,55.46,498.51,57.24Z"/><path class="cls-7" d="M520.85,34.13l-1.24.83c-.18.1-.35.21-.53.33Q517,36.6,515,38l-.74.55c-1.39,1-2.73,2.1-4,3.24-.26.22-.51.45-.77.69a53.39,53.39,0,0,0-4,4.06c-.25.29-.51.58-.75.87l-.31.37a53.39,53.39,0,0,0-3.71,5c-.27.4-.53.81-.78,1.21-.39.62-1.45,2.35-1.81,3a8.42,8.42,0,0,1-1.19-.83l2.23-3.36c.25-.37.51-.76.77-1.13a54.92,54.92,0,0,1,4-5.11l.76-.83a55,55,0,0,1,4-3.92l.77-.67q2-1.66,4-3.12l.75-.51c1.37-.92,3.81-2.53,5.23-3.29Z"/><path class="cls-7" d="M530,34.63c-.16.1-1.18.55-1.34.66q-2.08,1.3-4,2.73l-.74.55c-1.39,1-2.73,2.1-4,3.24l-.77.69a51.6,51.6,0,0,0-4,4.06c-.25.29-.51.58-.75.87l-.32.37a55.1,55.1,0,0,0-3.7,5c-.19.29-.72,1.17-.9,1.46-.14,0-1.59.33-1.76.36.23-.38.86-1.44,1.11-1.82s.51-.76.77-1.13a54.92,54.92,0,0,1,4-5.11l.76-.83a55,55,0,0,1,4-3.92l.77-.67q2-1.66,4-3.12l.75-.51A49.07,49.07,0,0,1,528.15,35l1.09-.49C529.32,34.48,529.85,34.61,530,34.63Z"/><path class="cls-7" d="M536.13,36.69c-.58.39-1.36.92-1.92,1.33l-.75.55c-1.38,1-2.72,2.1-4,3.24-.26.22-.51.45-.77.69a53.39,53.39,0,0,0-4,4.06c-.25.29-.51.58-.75.87l-.31.37a53.39,53.39,0,0,0-3.71,5l-.16.2-1.61.08s.19-.23.22-.28c.25-.37.51-.76.77-1.13a54.92,54.92,0,0,1,4-5.11l.76-.83a55,55,0,0,1,4-3.92c.25-.23.51-.45.77-.67q2-1.66,4.05-3.12l.74-.51,1.83-1.17C535.58,36.44,535.84,36.57,536.13,36.69Z"/><path class="cls-7" d="M541.66,39.6c-.79.63-1.87,1.54-2.63,2.21-.26.22-.51.45-.77.69a51.6,51.6,0,0,0-4,4.06l-.76.87c-.1.13-.21.25-.31.37a55.1,55.1,0,0,0-3.7,5,.83.83,0,0,0-.08.12h0l-.64,0-.79,0h-.08a.25.25,0,0,1,0-.07c.25-.37.51-.76.77-1.13a54.92,54.92,0,0,1,4-5.11l.75-.83a55.14,55.14,0,0,1,4-3.92l.77-.67c.75-.63,1.75-1.46,2.53-2C541.06,39.28,541.4,39.41,541.66,39.6Z"/><path class="cls-7" d="M551.66,48.94c-.07.1-3,3.76-3,3.86-.27.4-.53.81-.78,1.21-.54.86-1.25,2-1.75,2.84-.07-.09-.92-.3-1.26-.44.55-1,1.61-2.66,2.23-3.61l.78-1.13c.22-.31,3-4,3.24-4.32A6,6,0,0,1,551.66,48.94Z"/><path class="cls-7" d="M547.24,43.24c-.67.68-2.79,2.61-3.43,3.32-.25.29-.51.58-.75.87l-.31.37a53.39,53.39,0,0,0-3.71,5c-.21.31-1,1.45-1.2,1.76-.13,0-1.13-.24-1.37-.27.16-.25.86-1.24,1-1.49s.51-.76.77-1.13a54.92,54.92,0,0,1,4-5.11l.76-.83c.67-.73,2.56-2.44,3.27-3.13C546.62,42.81,546.83,42.93,547.24,43.24Z"/><path class="cls-7" d="M548.93,55.81c-.36-.63-.69-1.18-1.08-1.8-.25-.4-.51-.81-.78-1.21a53.27,53.27,0,0,0-3.7-5c-.1-.12-.21-.24-.31-.37l-.76-.87a51.6,51.6,0,0,0-4-4.06c-.25-.24-.51-.47-.77-.69-1.29-1.14-2.64-2.21-4-3.24l-.74-.55q-2-1.43-4.05-2.73l-.52-.33c-.07-.05-1.41-.8-1.48-.84l1.3.14c1.42.76,4.13,2.34,5.49,3.25l.75.51q2.09,1.45,4,3.12l.77.67a55.14,55.14,0,0,1,4,3.92l.75.83a54.92,54.92,0,0,1,4,5.11l.78,1.13c.1.16,1.1,1.87,1.21,2a5.17,5.17,0,0,1-.42.49C549.28,55.46,549.15,55.6,548.93,55.81Z"/><path class="cls-7" d="M540.23,55.11l-1.7-.37c-.18-.29-.85-1.65-1-1.94a55.22,55.22,0,0,0-3.71-5l-.32-.37q-.36-.43-.75-.87a51.6,51.6,0,0,0-4-4.06c-.25-.24-.51-.47-.77-.69-1.29-1.14-2.64-2.21-4-3.24l-.75-.55q-2-1.43-4-2.73c-.16-.11-1.33-.72-1.5-.82l.78-.14,1.25.63q2.17,1.15,4.27,2.55l.74.51c1.39,1,2.75,2,4,3.12.26.22.52.44.77.67a53.07,53.07,0,0,1,4,3.92c.26.28.52.55.76.83a54.92,54.92,0,0,1,4,5.11L539,52.8C539.28,53.18,540,54.73,540.23,55.11Z"/><path class="cls-7" d="M529.74,53.31s-1.36-.15-1.62-.15c0,0-.21-.33-.22-.36a55.22,55.22,0,0,0-3.71-5c-.1-.12-.21-.24-.31-.37l-.76-.87a51.6,51.6,0,0,0-4-4.06c-.25-.24-.51-.47-.77-.69-1.29-1.14-2.64-2.21-4-3.24l-.75-.55c-.57-.41-1.59-1.21-2.17-1.61.28-.11.55-.24.84-.34.54.33,1.55,1.09,2.08,1.44L515,38q2.09,1.45,4.05,3.12c.26.22.52.44.77.67a55.14,55.14,0,0,1,4,3.92l.75.83a54.92,54.92,0,0,1,4,5.11c.27.37.52.76.78,1.13C529.48,52.85,529.71,53.27,529.74,53.31Z"/><path class="cls-7" d="M520,53l-1.53.08-.15-.26a53.39,53.39,0,0,0-3.71-5l-.31-.37-.76-.87a51.6,51.6,0,0,0-4-4.06c-.25-.24-.51-.47-.77-.69-.76-.67-2.28-1.85-3.07-2.48.26-.19.63-.34.9-.53.78.59,2.19,1.7,2.94,2.34.26.22.52.44.77.67a55.14,55.14,0,0,1,4,3.92c.25.28.51.55.75.83a54.92,54.92,0,0,1,4,5.11c.27.37.53.76.78,1.13A1.18,1.18,0,0,0,520,53Z"/><path class="cls-7" d="M502.63,55.88l-1.19.36c-.49-.88-1-1.37-1.54-2.23-.25-.4-.48-.83-.77-1.21a19.24,19.24,0,0,0-4.28-4.33,8.12,8.12,0,0,1,.86-1.45c.23.31,3.21,3.24,4.19,4.65l.78,1.13C501.3,53.74,502.07,54.91,502.63,55.88Z"/><path class="cls-7" d="M510.94,54c-.24,0-1.28.23-1.41.25-.19-.31-.61-1.12-.81-1.43a53.39,53.39,0,0,0-3.71-5c-.1-.12-.21-.24-.31-.37l-.76-.87c-.64-.71-3.2-2.93-3.88-3.61.34-.25.89-.62,1-.69.71.69,3,2.74,3.64,3.47l.75.83a54.92,54.92,0,0,1,4,5.11c.27.37.52.76.78,1.13S510.79,53.73,510.94,54Z"/><path class="cls-8" d="M529.54,20.63c1.7,1.28,2,2.65,1.47,4-.42,1.14-3.4-.44-3.93-.87s-2.61-2.42-1.89-3.4S527.36,19,529.54,20.63Z"/><g class="cls-9"><path class="cls-10" d="M528.93,22.48a.17.17,0,0,1,0,.07s0,0-.09,0l-.14-.06c-.59-.39-.75-1.2,0-.56s.86,1.41.09.95c-1-.63-1.57-1.91-1.09-1.93.77-.09,2.78,1.92,2.65,2.95-.06.52-.69.37-1.16.15a8.18,8.18,0,0,1-2.8-2.62c-.53-.8-.68-1.51-.6-1.14a1.76,1.76,0,0,0,.07.27c.66,1.93,3.59,4.52,4.5,3.76.67-.55-.32-2.1-1.2-2.84-1.54-1.36-2.41-.66-1.41.68.39.5,1.12,1.12,1.51,1s-.17-1.22-.8-1.5c-.4-.18-.54.15-.16.59s.67.47.62.21C528.93,22.45,528.93,22.45,528.93,22.48Z"/></g><path class="cls-11" d="M505.16,64.08s.21-4.27-2.4-3.08.38,19.88,7,27.49,5,4.72,1.12-3.22S505.16,64.08,505.16,64.08Z"/><path class="cls-12" d="M526.75,20.37a4.58,4.58,0,0,1,3.64,2.74c.23.68,0,.88-.11.95l0,0-.05,0,0,0c-6.69,4-7.89,9.39-7.94,9.62L521.94,35h1.23c.91,0,2.13,0,3.42.12l0-.37,0,.38a23.32,23.32,0,0,1,2.43.33h.06l.1,0a29.24,29.24,0,0,1,5.87,1.85l.2.08.43.2a51.74,51.74,0,0,1,4.91,2.54l.07,0,.13.08c1.55.91,3.21,2,4.93,3.14l0,0h0l.19.13.39.27a11.52,11.52,0,0,1,3.81,4l.06.11,0,.06.15.36.09.24,0,.07,0,.1,0,.08,0,.08c.47,1.77-.09,3.59-1.68,5.43-.07.08-.15.19-.22.26l-.22.22-.22.22,0,.05h0a11.74,11.74,0,0,1-1.49,1.23l-.44.3v.58h0c0,7.57-1.36,18.33-4.37,25.35C539.3,88.7,535,95.82,525.43,96.22l-.86,0h-.86l-.13.85,0,.15a5.23,5.23,0,0,1-.49,1.58c-.15.32-.44.84-.8.92h-.19c-.45,0-1.19-.93-1.44-2.6l-.13-.85h-.86c-14.55,0-20-23.62-20.11-38.73h0v-.34l0-1.45-.91.35-.41-.26c-.07,0-.14-.09-.21-.15l-.36-.27,0,0,0,0c-1.3-1.08-3.27-3.36-1.79-6.5l0,0,0-.05a6.14,6.14,0,0,1,.5-.85l.08-.13.16-.21a16.85,16.85,0,0,1,4.07-3.82l.08,0,.1-.07c.22-.17.5-.35.67-.47l.09-.06c1.59-1.1,3.16-2.1,4.66-3l0,0,0,0,.21-.13h0l.57-.31a47.52,47.52,0,0,1,4.69-2.34,3.27,3.27,0,0,0,.33-.14l0,0h0l.46-.18a29.32,29.32,0,0,1,5.26-1.56l.37-.07h0l.3,0h.07l.29-.05.74-.1.1-.75,0-.14c3.26-11.64,6.39-13.66,6.83-13.9h.18m0-1a3,3,0,0,0-.43,0s-3.73,1-7.56,14.67l0,.2-.37.06h0l-.72.13a29.29,29.29,0,0,0-5.43,1.61h0c-.29.1-.56.23-.84.34h0a47.43,47.43,0,0,0-4.81,2.39h0a.53.53,0,0,1-.1.06l-.28.16a4.17,4.17,0,0,0-.47.28c-1.48.86-3.05,1.86-4.73,3l-.78.55L500,43a18,18,0,0,0-4.31,4h0c0,.06-.1.15-.17.24l-.09.14a6.08,6.08,0,0,0-.6,1.07h0c-1.59,3.37.1,6.07,2.06,7.69h0l.09.07.4.3.23.17c.31.2.61.39.89.54h0v0h0c0,14.66,5.29,40.05,21.11,40.05.3,2,1.29,3.46,2.46,3.46h.06c.86,0,1.43-.72,1.81-1.51a6.38,6.38,0,0,0,.57-1.85l0-.16.9,0c10.13-.43,14.71-8,17.4-14.27,3.15-7.35,4.45-18.3,4.45-25.76,0,0,0,0,0,0a12.22,12.22,0,0,0,1.62-1.33h0s0,0,0,0l0,0,.44-.44c.1-.1.22-.25.31-.36a6.93,6.93,0,0,0,1.87-6.3c0-.06,0-.13-.05-.19l-.07-.21-.11-.3c-.06-.13-.11-.27-.18-.4a2,2,0,0,0-.1-.21h0A12.4,12.4,0,0,0,547,43l-.59-.4,0,0h0c-1.8-1.23-3.46-2.29-5-3.2l-.23-.13a52.37,52.37,0,0,0-5-2.58h0l-.68-.29a30.5,30.5,0,0,0-6.05-1.9l-.16,0h0a24.48,24.48,0,0,0-2.54-.35h0c-1.22-.11-2.38-.13-3.51-.13,0,0,1.09-5.21,7.51-9h0a.52.52,0,0,0,.22-.16c1.92-1.53-1.28-5.47-4.15-5.47Z"/><path class="cls-25" d="M423,31.81s-3.27.86-6.61,12.83L416,46.89l4.12.08,0-2.4s.95-4.55,6.57-7.86C428.94,35.43,425.64,31.42,423,31.81Z"/><path class="cls-26" d="M441.22,63.62a81.06,81.06,0,0,0-41.87,0,6.81,6.81,0,0,1-.68,1.29c0,12.81,4.62,35,18.45,35,.26,1.75,1.12,3,2.15,3s1.9-1.3,2.16-3.07c16.56,0,19.8-22.79,19.8-35.47v0C441.23,64.1,441.23,63.86,441.22,63.62Z"/><path class="cls-4" d="M433.58,59.85s7.73-.14,7.73,5c0,6.52-1.13,16.1-3.89,22.52-2.41,5.62-6.59,12.49-16,12.49,0,0-.45,3.08-2.11,3.08a8.32,8.32,0,0,0,1.1-3.44S433.58,87.58,433.58,59.85Z"/><path class="cls-5" d="M398.67,64.87s0,1.87.09,2.65a19.9,19.9,0,0,1,4.47-2c3.73-1,18.65-3,32.63.29a16.93,16.93,0,0,1,5.27,2s.09-2.33.08-3c0,0-1.77-5.93-3.43-6.93-7-4.24-25.56-3-32.84.84C403,59.8,398.67,64.87,398.67,64.87Z"/><path class="cls-27" d="M398.65,64.89a64,64,0,0,1,20.89-3.76,63.09,63.09,0,0,1,21.65,3.76S450.41,59,441,52.47c-10.68-7.42-15.91-7.9-20.8-7.9-4.14,0-9.81.49-20.23,7.85C391.31,58.54,395.73,63.34,398.65,64.89Z"/><path class="cls-7" d="M418.18,44.69c-.07,0-1,.68-1.09.72l-.46.29q-1.81,1.15-3.54,2.4l-.65.47c-1.21.9-2.39,1.84-3.52,2.84-.23.19-.45.39-.67.59a47.45,47.45,0,0,0-3.53,3.56c-.23.25-.45.5-.66.76l-.28.32A48.49,48.49,0,0,0,400.54,61c-.23.35-.46.7-.68,1-.34.55-1.26,2.06-1.58,2.61a7.72,7.72,0,0,1-1-.73c.1-.15,1.85-2.79,1.95-2.93l.67-1a48.77,48.77,0,0,1,3.54-4.46c.21-.24.43-.49.66-.73a45.25,45.25,0,0,1,3.51-3.42l.68-.59a43.78,43.78,0,0,1,3.54-2.72l.65-.45c1.2-.81,3.33-2.22,4.58-2.88Z"/><path class="cls-7" d="M426.18,45.13c-.14.08-1,.48-1.17.57q-1.81,1.15-3.54,2.4l-.65.47c-1.21.9-2.38,1.84-3.52,2.84l-.67.59a47.45,47.45,0,0,0-3.53,3.56c-.23.25-.45.5-.66.76a3.82,3.82,0,0,0-.27.32A46.66,46.66,0,0,0,408.93,61c-.17.25-.63,1-.79,1.27-.12,0-1.39.29-1.54.31.2-.33.76-1.26,1-1.58l.68-1a47,47,0,0,1,3.53-4.46l.66-.73A45.38,45.38,0,0,1,416,51.41c.22-.2.44-.4.67-.59,1.14-1,2.33-1.88,3.54-2.72l.65-.45a43.48,43.48,0,0,1,3.74-2.24l.95-.42C425.58,45,426,45.11,426.18,45.13Z"/><path class="cls-7" d="M431.53,46.93c-.51.34-1.18.81-1.67,1.17l-.66.47c-1.21.9-2.38,1.84-3.51,2.84L425,52a47.45,47.45,0,0,0-3.53,3.56c-.22.25-.45.5-.66.76l-.27.32A46.66,46.66,0,0,0,417.31,61l-.14.17c-.23,0-1.36.07-1.4.07s.16-.21.18-.24l.68-1a47,47,0,0,1,3.53-4.46l.66-.73a47.23,47.23,0,0,1,3.52-3.42l.67-.59q1.73-1.45,3.54-2.72l.65-.45c.47-.31,1.13-.74,1.6-1C431.05,46.71,431.28,46.83,431.53,46.93Z"/><path class="cls-7" d="M436.37,49.48c-.69.54-1.64,1.34-2.3,1.93-.23.19-.45.39-.67.59a45.62,45.62,0,0,0-3.53,3.56c-.23.25-.45.5-.67.76l-.27.32A48.49,48.49,0,0,0,425.69,61l-.06.1h0l-.56,0-.69,0h-.07l0,0c.22-.33.44-.67.67-1a48.77,48.77,0,0,1,3.54-4.46l.65-.73a47.23,47.23,0,0,1,3.52-3.42l.68-.59c.65-.55,1.53-1.27,2.21-1.79C435.85,49.2,436.14,49.31,436.37,49.48Z"/><path class="cls-7" d="M445.11,57.64c-.06.09-2.59,3.28-2.65,3.38-.24.35-.46.7-.68,1-.47.75-1.09,1.71-1.53,2.49a10.78,10.78,0,0,0-1.11-.39c.49-.85,1.41-2.33,2-3.15l.68-1c.19-.27,2.64-3.51,2.83-3.77A5.07,5.07,0,0,1,445.11,57.64Z"/><path class="cls-7" d="M441.25,52.66c-.59.59-2.45,2.28-3,2.9-.22.25-.45.5-.66.76a3.82,3.82,0,0,0-.27.32A46.77,46.77,0,0,0,434.07,61c-.17.27-.87,1.26-1,1.53-.12,0-1-.21-1.2-.24l.89-1.29.68-1a47,47,0,0,1,3.53-4.46c.22-.24.43-.49.66-.73.59-.63,2.24-2.13,2.86-2.73C440.7,52.28,440.88,52.39,441.25,52.66Z"/><path class="cls-7" d="M442.73,63.64c-.32-.55-.61-1-1-1.57-.22-.35-.45-.7-.68-1a46.66,46.66,0,0,0-3.24-4.38l-.27-.32c-.21-.26-.44-.51-.66-.76A47.45,47.45,0,0,0,433.4,52l-.68-.59c-1.13-1-2.3-1.94-3.52-2.84l-.65-.47q-1.71-1.24-3.54-2.4l-.45-.29-1.29-.73,1.13.13c1.24.66,3.61,2,4.8,2.84l.66.45q1.81,1.26,3.54,2.72l.67.59a47.23,47.23,0,0,1,3.52,3.42l.66.73A48.66,48.66,0,0,1,441.78,60l.68,1c.09.13,1,1.63,1.06,1.76a5.58,5.58,0,0,1-.37.44C443,63.34,442.91,63.46,442.73,63.64Z"/><path class="cls-7" d="M435.12,63c-.15,0-1.37-.31-1.49-.32-.16-.26-.74-1.44-.91-1.69a46.66,46.66,0,0,0-3.24-4.38l-.28-.32c-.21-.26-.43-.51-.65-.76A47.58,47.58,0,0,0,425,52c-.22-.2-.44-.4-.67-.59-1.13-1-2.31-1.94-3.52-2.84l-.65-.47q-1.73-1.24-3.54-2.4c-.14-.09-1.17-.62-1.31-.71.12,0,.61-.12.68-.12l1.09.54a43.32,43.32,0,0,1,3.73,2.24c.22.15.44.29.65.45A43.78,43.78,0,0,1,425,50.82l.68.59a45.25,45.25,0,0,1,3.51,3.42c.23.24.45.49.67.73A50.44,50.44,0,0,1,433.4,60c.23.33.46.67.67,1S434.92,62.7,435.12,63Z"/><path class="cls-7" d="M426,61.46c-.05,0-1.19-.13-1.42-.14l-.19-.3a46.77,46.77,0,0,0-3.25-4.38,3.82,3.82,0,0,0-.27-.32c-.21-.26-.43-.51-.66-.76A47.45,47.45,0,0,0,416.63,52l-.67-.59c-1.13-1-2.31-1.94-3.52-2.84l-.65-.47c-.5-.36-1.39-1.06-1.9-1.41.24-.1.48-.21.73-.3.48.28,1.36,1,1.82,1.26l.65.45c1.21.84,2.4,1.75,3.54,2.72.23.19.45.39.67.59a45.38,45.38,0,0,1,3.52,3.42c.23.24.45.49.66.73A47,47,0,0,1,425,60c.24.33.46.67.68,1C425.72,61.05,425.92,61.42,426,61.46Z"/><path class="cls-7" d="M417.42,61.17l-1.34.07A1.59,1.59,0,0,0,416,61a45,45,0,0,0-3.24-4.38l-.27-.32c-.21-.26-.44-.51-.66-.76A47.45,47.45,0,0,0,408.25,52l-.68-.59c-.66-.59-2-1.62-2.68-2.17.22-.17.55-.3.79-.46.68.51,1.91,1.48,2.57,2,.23.19.45.39.67.59a47.23,47.23,0,0,1,3.52,3.42l.66.73A47,47,0,0,1,416.63,60l.68,1Z"/><path class="cls-7" d="M402.25,63.71c-.38.12-.9.25-1,.31-.43-.77-.87-1.2-1.35-1.95-.22-.35-.42-.72-.67-1a16.28,16.28,0,0,0-3.75-3.79A7.35,7.35,0,0,1,396.2,56c.2.27,2.81,2.83,3.66,4.06l.68,1C401.09,61.84,401.76,62.86,402.25,63.71Z"/><path class="cls-7" d="M409.52,62l-1.24.22c-.16-.27-.53-1-.71-1.24a46.66,46.66,0,0,0-3.24-4.38l-.27-.32-.66-.76c-.56-.63-2.8-2.57-3.39-3.16.29-.22.77-.54.86-.61.63.61,2.59,2.4,3.19,3l.66.73A50.44,50.44,0,0,1,408.25,60l.68,1C409.07,61.23,409.38,61.83,409.52,62Z"/><path class="cls-8" d="M425.77,32.89c1.49,1.12,1.72,2.31,1.28,3.53-.36,1-3-.38-3.43-.76s-2.28-2.12-1.65-3S423.87,31.46,425.77,32.89Z"/><g class="cls-9"><path class="cls-10" d="M425.24,34.51a.15.15,0,0,1,0,.06s0,0-.08,0a.21.21,0,0,1-.12-.05c-.52-.34-.66-1,0-.48s.76,1.23.08.82c-.9-.55-1.37-1.67-.95-1.68.67-.09,2.43,1.68,2.32,2.58-.05.45-.6.32-1,.12A7.14,7.14,0,0,1,423,33.61c-.46-.69-.59-1.31-.52-1a2.17,2.17,0,0,0,.07.24c.57,1.68,3.13,4,3.93,3.28.58-.48-.28-1.83-1.05-2.48-1.34-1.19-2.11-.58-1.24.59.35.44,1,1,1.32.87s-.15-1.07-.69-1.31c-.35-.16-.48.13-.14.52s.58.4.54.18C425.24,34.48,425.24,34.48,425.24,34.51Z"/></g><path class="cls-11" d="M404.46,70.88s.19-3.74-2.1-2.7.34,17.38,6.12,24,4.36,4.12,1-2.81S404.46,70.88,404.46,70.88Z"/><path class="cls-12" d="M423.33,32.79a3.82,3.82,0,0,1,3.06,2.31c.18.51,0,.64-.05.69l0,0h0l-.06,0c-5.89,3.49-7,8.29-7,8.49L419,45.57h1.23c.8,0,1.86,0,3,.11h.11c.7.06,1.36.16,2,.28h.06l.08,0a25.43,25.43,0,0,1,5.1,1.6l.17.07.38.18a46.63,46.63,0,0,1,4.29,2.21l.06,0,.11.06c1.35.8,2.8,1.72,4.3,2.75l.05,0h0l.18.11.33.23a10,10,0,0,1,3.29,3.42l0,.09,0,.06.13.3a1.72,1.72,0,0,1,.07.21l0,.06,0,.08,0,.06,0,.08c.4,1.5-.08,3.05-1.45,4.63a1.92,1.92,0,0,1-.18.22l-.19.19-.18.17-.06.06A10.89,10.89,0,0,1,440.74,64l-.44.32v.54c0,6.6-1.18,16-3.81,22.12-2.29,5.35-6,11.52-14.33,11.88h-1.61l-.12.86,0,.12a4.86,4.86,0,0,1-.43,1.35c-.07.16-.33.66-.6.74h-.15c-.34,0-.93-.8-1.14-2.17l-.13-.85h-.85c-12.62,0-17.38-20.55-17.45-33.72h0v-.31l0-1.46-.92.37-.3-.2-.17-.12-.31-.24,0,0,0,0c-1.36-1.13-2.72-3-1.53-5.53l0,0,0,0a4.53,4.53,0,0,1,.42-.72l.07-.11.13-.18a15,15,0,0,1,3.53-3.31l.08-.05.08-.06.57-.4.1-.06c1.39-1,2.76-1.83,4.06-2.6l0,0,0,0,0,0,.64-.36a41.77,41.77,0,0,1,4.09-2l.3-.13h0l.41-.16A24.81,24.81,0,0,1,415.57,46l.27-.05.36-.06.27,0,.74-.11.11-.74v-.12c2.8-10,5.47-11.82,5.89-12.05h.11m0-1-.37,0s-3.27.86-6.61,12.83l0,.18-.33,0h0c-.06,0-.46.08-.63.11a25.93,25.93,0,0,0-4.74,1.41h0l-.73.31h0a39.86,39.86,0,0,0-4.21,2.09h0l-.09,0-.25.14a4,4,0,0,0-.41.24c-1.29.75-2.66,1.62-4.13,2.64l-.69.47-.14.1A15.75,15.75,0,0,0,396.2,56h0l-.15.21-.08.12a5.58,5.58,0,0,0-.53.94h0c-1.38,3,.09,5.3,1.8,6.72h0l.08.06.35.27.2.14a8.5,8.5,0,0,0,.78.47h0v0h0c0,12.81,4.62,35,18.45,35,.26,1.75,1.12,3,2.15,3h.05a1.9,1.9,0,0,0,1.58-1.32,5.71,5.71,0,0,0,.5-1.62l0-.14c.26,0,.53,0,.79,0,8.85-.37,12.86-7,15.2-12.47,2.76-6.42,3.89-16,3.89-22.52v0a11.65,11.65,0,0,0,1.42-1.17h0l0,0,0,0c.16-.15.27-.27.38-.38a2.69,2.69,0,0,0,.27-.32,6,6,0,0,0,1.63-5.51.94.94,0,0,0,0-.16L445,57a2.77,2.77,0,0,0-.1-.26,2.63,2.63,0,0,0-.15-.35,1.42,1.42,0,0,1-.08-.18h0A10.79,10.79,0,0,0,441,52.47l-.51-.35,0,0h0q-2.35-1.62-4.38-2.8l-.2-.12a44.74,44.74,0,0,0-4.35-2.25h0l-.59-.25A25.6,25.6,0,0,0,425.65,45l-.14,0h0c-.77-.15-1.51-.24-2.22-.31h0c-1.07-.09-2.07-.11-3.07-.11,0,0,.95-4.55,6.57-7.86h0a.72.72,0,0,0,.2-.14c1.67-1.34-1.13-4.78-3.64-4.78Z"/><path class="cls-28" d="M328.56,56.26S325.31,57.12,322,69l-.31,2.24,4.1.08.05-2.39s.94-4.53,6.53-7.82C334.52,59.86,331.23,55.88,328.56,56.26Z"/><path class="cls-29" d="M346.74,87.92a80.91,80.91,0,0,0-41.68,0,6.68,6.68,0,0,1-.68,1.28c0,12.76,4.61,34.85,18.37,34.85.26,1.73,1.12,3,2.14,3s1.89-1.29,2.15-3c16.48,0,19.71-22.69,19.71-35.31v0C346.75,88.4,346.75,88.16,346.74,87.92Z"/><path class="cls-4" d="M339.13,84.17s7.7-.14,7.7,5c0,6.5-1.12,16-3.87,22.42C340.55,117.15,336.4,124,327,124c0,0-.44,3.06-2.1,3.06a8.3,8.3,0,0,0,1.09-3.42S339.13,111.77,339.13,84.17Z"/><path class="cls-5" d="M304.39,89.17s0,1.86.08,2.64a20,20,0,0,1,4.46-2c3.71-1,18.56-3,32.47.29a16.66,16.66,0,0,1,5.25,2s.09-2.32.08-3c0,0-1.77-5.91-3.41-6.9-7-4.22-25.45-3-32.69.84C308.7,84.12,304.39,89.17,304.39,89.17Z"/><path class="cls-30" d="M304.37,89.19a63.57,63.57,0,0,1,20.79-3.75,62.62,62.62,0,0,1,21.54,3.75s9.18-5.85-.18-12.36C335.89,69.44,330.69,69,325.82,69c-4.13,0-9.77.49-20.14,7.82C297.06,82.87,301.46,87.65,304.37,89.19Z"/><path class="cls-7" d="M323.8,69.08l-1.08.72-.46.29c-1.2.76-2.38,1.56-3.52,2.38l-.65.48c-1.21.89-2.37,1.82-3.5,2.82-.23.19-.45.39-.67.59a45.11,45.11,0,0,0-3.51,3.54c-.23.25-.45.5-.66.76a3.82,3.82,0,0,0-.27.32,44.48,44.48,0,0,0-3.23,4.35c-.23.35-.46.7-.68,1-.34.54-1.26,2.05-1.57,2.6a7.09,7.09,0,0,1-1-.73l1.93-2.92.67-1a49.68,49.68,0,0,1,3.52-4.44l.66-.73a44.86,44.86,0,0,1,3.5-3.4c.22-.2.44-.4.67-.59,1.14-1,2.31-1.87,3.52-2.71l.65-.44c1.2-.8,3.32-2.21,4.56-2.87Z"/><path class="cls-7" d="M331.77,69.52c-.14.08-1,.48-1.16.57-1.21.76-2.39,1.56-3.53,2.38l-.65.48c-1.2.89-2.37,1.82-3.5,2.82l-.67.59a45.11,45.11,0,0,0-3.51,3.54c-.23.25-.45.5-.66.76l-.27.32a48,48,0,0,0-3.23,4.35c-.16.25-.62,1-.78,1.27-.12,0-1.38.29-1.53.31.2-.33.75-1.25,1-1.58l.68-1a49.56,49.56,0,0,1,3.51-4.44l.66-.73a46.69,46.69,0,0,1,3.5-3.4l.67-.59c1.14-1,2.32-1.87,3.53-2.71l.64-.44a42,42,0,0,1,3.72-2.23l1-.42Z"/><path class="cls-7" d="M337.09,71.31c-.5.34-1.18.8-1.66,1.16l-.65.48c-1.21.89-2.38,1.82-3.5,2.82-.23.19-.45.39-.67.59a47,47,0,0,0-3.52,3.54l-.66.76-.27.32a46,46,0,0,0-3.22,4.35l-.14.17-1.4.08.19-.25.67-1a47.94,47.94,0,0,1,3.52-4.44l.65-.73a46.82,46.82,0,0,1,3.51-3.4c.22-.2.44-.4.67-.59,1.13-1,2.31-1.87,3.52-2.71l.65-.44c.46-.31,1.12-.74,1.59-1Z"/><path class="cls-7" d="M341.91,73.85c-.69.54-1.63,1.33-2.29,1.92-.23.19-.45.39-.67.59a45.11,45.11,0,0,0-3.51,3.54c-.23.25-.45.5-.66.76a3.82,3.82,0,0,0-.27.32,46.16,46.16,0,0,0-3.23,4.35l-.06.11h0l-.55,0-.69,0h-.07l0-.06.68-1a49.56,49.56,0,0,1,3.51-4.44l.66-.73a44.86,44.86,0,0,1,3.5-3.4c.22-.2.44-.4.67-.59.65-.55,1.52-1.27,2.2-1.78C341.39,73.57,341.68,73.68,341.91,73.85Z"/><path class="cls-7" d="M350.61,82c-.06.09-2.58,3.27-2.64,3.36-.23.35-.46.7-.67,1-.48.75-1.09,1.71-1.53,2.48-.06-.08-.8-.26-1.1-.39.48-.85,1.4-2.32,1.95-3.14l.68-1c.18-.27,2.62-3.49,2.82-3.76A5.55,5.55,0,0,1,350.61,82Z"/><path class="cls-7" d="M346.77,77c-.59.59-2.44,2.27-3,2.89-.22.25-.45.5-.66.76l-.27.32a48,48,0,0,0-3.23,4.35c-.17.27-.87,1.26-1,1.53-.11,0-1-.21-1.19-.24l.89-1.29.67-1a49.56,49.56,0,0,1,3.51-4.44l.66-.73c.59-.63,2.23-2.12,2.85-2.72C346.22,76.63,346.4,76.74,346.77,77Z"/><path class="cls-7" d="M348.24,88c-.32-.55-.61-1-.94-1.57-.22-.35-.45-.7-.68-1A46.16,46.16,0,0,0,343.39,81a3.82,3.82,0,0,0-.27-.32c-.21-.26-.43-.51-.66-.76A45.11,45.11,0,0,0,339,76.36c-.22-.2-.44-.4-.67-.59-1.13-1-2.29-1.93-3.5-2.82l-.65-.48c-1.14-.82-2.32-1.62-3.52-2.38l-.46-.29-1.28-.73,1.12.13c1.24.66,3.6,2,4.79,2.83l.65.44c1.21.84,2.38,1.75,3.52,2.71.23.19.45.39.67.59a44.86,44.86,0,0,1,3.5,3.4l.66.73a49.68,49.68,0,0,1,3.52,4.44l.67,1c.09.14,1,1.62,1,1.76a3.87,3.87,0,0,1-.36.43Z"/><path class="cls-7" d="M340.66,87.34c-.15,0-1.36-.31-1.47-.32-.16-.26-.75-1.44-.91-1.69A48,48,0,0,0,335.05,81l-.27-.32c-.21-.26-.43-.51-.66-.76a46.92,46.92,0,0,0-3.51-3.54l-.67-.59c-1.13-1-2.3-1.93-3.51-2.82l-.64-.48c-1.15-.82-2.32-1.62-3.53-2.38-.14-.09-1.16-.62-1.3-.71.12,0,.6-.12.67-.12l1.09.54A40.5,40.5,0,0,1,326.43,72l.65.44c1.21.84,2.39,1.75,3.53,2.71l.67.59a48.68,48.68,0,0,1,3.5,3.4l.66.73A49.56,49.56,0,0,1,339,84.34c.23.33.46.66.67,1S340.46,87,340.66,87.34Z"/><path class="cls-7" d="M331.54,85.77c-.05,0-1.18-.12-1.41-.13,0,0-.18-.29-.2-.31A46,46,0,0,0,326.71,81l-.28-.32c-.21-.26-.43-.51-.65-.76a47,47,0,0,0-3.52-3.54c-.22-.2-.44-.4-.67-.59-1.12-1-2.29-1.93-3.5-2.82l-.65-.48c-.49-.36-1.38-1-1.89-1.4.25-.1.48-.21.73-.3.48.28,1.35,1,1.81,1.26l.65.44c1.21.84,2.38,1.75,3.52,2.71.23.19.45.39.67.59a44.86,44.86,0,0,1,3.5,3.4l.66.73a49.68,49.68,0,0,1,3.52,4.44l.67,1S331.51,85.73,331.54,85.77Z"/><path class="cls-7" d="M323.05,85.49l-1.33.06-.13-.22A46.16,46.16,0,0,0,318.36,81a3.82,3.82,0,0,0-.27-.32c-.21-.26-.43-.51-.66-.76a45.11,45.11,0,0,0-3.51-3.54l-.67-.59c-.66-.59-2-1.61-2.68-2.16.23-.17.55-.3.79-.46.68.51,1.91,1.48,2.56,2,.23.19.45.39.67.59a44.86,44.86,0,0,1,3.5,3.4l.66.73a49.56,49.56,0,0,1,3.51,4.44l.68,1Z"/><path class="cls-7" d="M308,88l-1,.31c-.43-.77-.87-1.19-1.35-1.94a9.78,9.78,0,0,0-.67-1,16.38,16.38,0,0,0-3.73-3.77,7.28,7.28,0,0,1,.76-1.26c.2.27,2.79,2.82,3.64,4l.68,1C306.79,86.15,307.46,87.17,308,88Z"/><path class="cls-7" d="M315.18,86.35l-1.23.22c-.16-.27-.53-1-.71-1.24A46,46,0,0,0,310,81l-.27-.32c-.21-.26-.44-.51-.66-.76-.56-.62-2.79-2.55-3.38-3.14.29-.22.78-.54.87-.61.62.61,2.58,2.39,3.17,3l.66.73a49.56,49.56,0,0,1,3.51,4.44l.67,1C314.73,85.54,315,86.14,315.18,86.35Z"/><path class="cls-8" d="M331.36,57.34c1.48,1.11,1.72,2.3,1.28,3.51-.36,1-2.95-.38-3.42-.76s-2.27-2.1-1.64-3S329.47,55.92,331.36,57.34Z"/><g class="cls-9"><path class="cls-10" d="M330.83,59a.15.15,0,0,1,0,.06s0,0-.08,0a.24.24,0,0,1-.12-.05c-.51-.34-.65-1,0-.48s.75,1.22.07.82c-.9-.55-1.36-1.66-.94-1.68.67-.08,2.42,1.67,2.3,2.57,0,.45-.59.32-1,.12a7,7,0,0,1-2.44-2.27c-.46-.7-.59-1.31-.53-1a1.55,1.55,0,0,0,.07.23c.57,1.68,3.12,3.93,3.91,3.28.59-.48-.28-1.83-1-2.48-1.34-1.18-2.1-.57-1.23.59.34.44,1,1,1.31.86s-.14-1.06-.69-1.3c-.34-.16-.47.13-.14.52s.58.4.54.18C330.83,58.92,330.83,58.92,330.83,59Z"/></g><path class="cls-11" d="M310.15,95.15s.19-3.72-2.09-2.69.34,17.3,6.09,23.92,4.34,4.11,1-2.8S310.15,95.15,310.15,95.15Z"/><path class="cls-12" d="M328.93,56.24v1a3.85,3.85,0,0,1,3.05,2.3c.17.5,0,.63-.06.68l0,0,0,0-.07,0h0c-5.85,3.48-6.91,8.24-7,8.44L324.59,70h1.23c.79,0,1.85,0,3,.11.72.07,1.41.16,2.1.29H331l.08,0a25.47,25.47,0,0,1,5.08,1.6l.18.07.37.17a44.88,44.88,0,0,1,4.26,2.2l.06,0,.11.06c1.35.79,2.79,1.72,4.28,2.73l0,0h0l.17.12.34.23A9.93,9.93,0,0,1,349.22,81l0,.1,0,0,.13.3a1.72,1.72,0,0,1,.07.21l0,.06,0,.08,0,.06,0,.08c.39,1.49-.08,3-1.44,4.61a1.81,1.81,0,0,1-.18.21c-.07.06-.13.13-.19.19l-.17.17-.07.07a10.23,10.23,0,0,1-1.28,1l-.43.3v.58h0c0,6.57-1.18,15.91-3.79,22-2.29,5.31-6,11.46-14.26,11.81l-.74,0h-.86l-.13.85,0,.12a5.21,5.21,0,0,1-.42,1.35c-.08.16-.33.65-.59.73h-.15c-.29,0-.91-.68-1.14-2.15l-.13-.85h-.85c-12.53,0-17.27-20.35-17.37-33.45h0V87.75l-.93.34-.31-.2-.17-.12-.31-.24,0,0,0,0c-1.35-1.12-2.71-3-1.52-5.5l0,0,0,0a4.71,4.71,0,0,1,.42-.71l.07-.11.13-.19a15,15,0,0,1,3.51-3.28l.07,0,.09-.06.57-.4.09-.06c1.39-1,2.75-1.83,4.05-2.58l0,0,0,0,0,0,.64-.36a41.47,41.47,0,0,1,4.08-2l.29-.13h0l.42-.17a24.57,24.57,0,0,1,4.56-1.35l.25,0,.34,0,.3,0,.75-.11.1-.74,0-.12c2.78-9.92,5.43-11.75,5.85-12h.11v-1m0,0-.37,0S325.31,57.12,322,69l0,.18-.32.05h0c-.06,0-.45.08-.62.11a26.47,26.47,0,0,0-4.72,1.4h0c-.25.09-.48.2-.73.3h0a42.56,42.56,0,0,0-4.19,2.08h0l-.09,0-.24.14-.42.24c-1.28.75-2.64,1.62-4.11,2.62l-.68.48-.14.1a15.58,15.58,0,0,0-3.75,3.52h0l-.15.21a.83.83,0,0,1-.08.12,5.54,5.54,0,0,0-.53.93h0c-1.39,2.93.08,5.28,1.79,6.69h0l.07.06.35.27.2.14a7.34,7.34,0,0,0,.78.47h0v0h0c0,12.76,4.61,34.85,18.37,34.85.26,1.73,1.12,3,2.14,3h.05c.75,0,1.25-.63,1.57-1.32a5.57,5.57,0,0,0,.5-1.6l0-.14.78,0c8.82-.37,12.8-7,15.14-12.42,2.75-6.39,3.87-15.92,3.87-22.42v0A12.47,12.47,0,0,0,348.24,88h0l0,0h0l.38-.39a2,2,0,0,0,.27-.31,6,6,0,0,0,1.62-5.49.94.94,0,0,0,0-.16l-.06-.18a2,2,0,0,0-.1-.26,2.17,2.17,0,0,0-.15-.35c0-.06-.05-.12-.08-.19h0a10.67,10.67,0,0,0-3.59-3.76l-.51-.35,0,0h0c-1.56-1.07-3-2-4.36-2.78l-.2-.12a47.88,47.88,0,0,0-4.32-2.24h0l-.58-.25a26.19,26.19,0,0,0-5.27-1.65l-.14,0h0a20.61,20.61,0,0,0-2.2-.3h0c-1.06-.09-2.06-.11-3.05-.11,0,0,.94-4.53,6.53-7.82h0a.67.67,0,0,0,.19-.14c1.66-1.33-1.12-4.76-3.62-4.76Zm-.06,12.83Z"/><path class="cls-31" d="M251.67,80.39s-3.25.85-6.57,12.77l-.31,2.24,4.1.08,0-2.39s.95-4.53,6.53-7.82C257.63,84,254.34,80,251.67,80.39Z"/><path class="cls-32" d="M269.85,112.05a80.91,80.91,0,0,0-41.68,0,6.68,6.68,0,0,1-.68,1.28c0,12.75,4.61,34.85,18.37,34.85.26,1.73,1.12,3,2.14,3s1.89-1.29,2.15-3.05c16.48,0,19.71-22.69,19.71-35.31v0C269.86,112.53,269.86,112.29,269.85,112.05Z"/><path class="cls-4" d="M262.24,108.3s7.7-.14,7.7,5c0,6.5-1.12,16-3.87,22.42-2.4,5.59-6.56,12.44-15.92,12.44,0,0-.44,3.05-2.1,3.05a8.18,8.18,0,0,0,1.1-3.41S262.24,135.9,262.24,108.3Z"/><path class="cls-5" d="M227.5,113.29s0,1.87.09,2.64A20,20,0,0,1,232,114c3.71-1,18.56-3,32.47.29a16.9,16.9,0,0,1,5.25,2s.09-2.32.08-3c0,0-1.76-5.9-3.41-6.89-7-4.23-25.45-3-32.69.84C231.81,108.25,227.5,113.29,227.5,113.29Z"/><path class="cls-33" d="M227.48,113.32a63.57,63.57,0,0,1,20.79-3.75,62.64,62.64,0,0,1,21.55,3.75s9.18-5.86-.19-12.37c-10.63-7.38-15.83-7.86-20.7-7.86-4.12,0-9.77.49-20.14,7.82C220.17,107,224.57,111.77,227.48,113.32Z"/><path class="cls-7" d="M246.91,93.21c-.06,0-1,.68-1.08.72l-.46.29c-1.2.76-2.38,1.55-3.52,2.38l-.65.48c-1.21.89-2.37,1.82-3.5,2.81l-.67.6a43.45,43.45,0,0,0-3.51,3.54c-.23.25-.45.5-.66.76a3.74,3.74,0,0,0-.27.31,47.62,47.62,0,0,0-3.23,4.36l-.68,1.05c-.33.54-1.26,2-1.57,2.6a7.09,7.09,0,0,1-1-.73c.09-.15,1.83-2.78,1.93-2.92l.67-1A48.29,48.29,0,0,1,232.2,104l.66-.73a46.89,46.89,0,0,1,3.5-3.41l.67-.58c1.14-1,2.32-1.87,3.52-2.71l.65-.44c1.2-.81,3.32-2.21,4.56-2.87Z"/><path class="cls-7" d="M254.88,93.65c-.14.08-1,.48-1.16.57-1.21.76-2.38,1.55-3.53,2.38-.21.16-.43.31-.64.48-1.21.89-2.38,1.82-3.51,2.81l-.67.6a45.12,45.12,0,0,0-3.51,3.54c-.22.25-.45.5-.66.76l-.27.31a49.55,49.55,0,0,0-3.23,4.36c-.16.25-.62,1-.78,1.27-.11,0-1.38.28-1.53.31.2-.33.75-1.26,1-1.58s.44-.66.67-1a48.18,48.18,0,0,1,3.51-4.44l.66-.73q1.68-1.8,3.5-3.41l.67-.58c1.14-1,2.32-1.87,3.53-2.71l.65-.44a40.5,40.5,0,0,1,3.71-2.23l1-.42C254.28,93.51,254.74,93.63,254.88,93.65Z"/><path class="cls-7" d="M260.2,95.44c-.5.34-1.17.8-1.66,1.16l-.65.48c-1.21.89-2.37,1.82-3.5,2.81l-.67.6A45.24,45.24,0,0,0,250.2,104c-.22.25-.44.5-.65.76a3.74,3.74,0,0,0-.27.31,45.84,45.84,0,0,0-3.23,4.36l-.14.17-1.39.07.18-.24.67-1a48.29,48.29,0,0,1,3.52-4.44c.22-.24.43-.49.66-.73a46.89,46.89,0,0,1,3.5-3.41l.67-.58c1.14-1,2.31-1.87,3.52-2.71l.65-.44c.46-.31,1.12-.74,1.59-1C259.73,95.22,260,95.34,260.2,95.44Z"/><path class="cls-7" d="M265,98c-.69.55-1.63,1.34-2.29,1.92l-.67.6a43.45,43.45,0,0,0-3.51,3.54c-.23.25-.45.5-.66.76l-.27.31a49.55,49.55,0,0,0-3.23,4.36l-.06.1h0l-.56,0-.69,0H253l0-.05.68-1a48.18,48.18,0,0,1,3.51-4.44l.66-.73c1.11-1.2,2.29-2.34,3.5-3.41l.67-.58c.65-.55,1.53-1.27,2.2-1.78C264.5,97.69,264.79,97.8,265,98Z"/><path class="cls-7" d="M273.72,106.09c-.06.1-2.58,3.28-2.64,3.37-.23.35-.45.7-.67,1.05-.47.75-1.09,1.7-1.52,2.47-.07-.08-.81-.26-1.11-.38.49-.85,1.41-2.32,2-3.14l.68-1c.18-.27,2.63-3.49,2.82-3.76A5.11,5.11,0,0,1,273.72,106.09Z"/><path class="cls-7" d="M269.88,101.14c-.59.59-2.44,2.27-3,2.89l-.66.76-.27.31a47.5,47.5,0,0,0-3.22,4.36c-.18.27-.88,1.26-1.05,1.53-.11,0-1-.21-1.19-.24l.89-1.29.67-1a46.64,46.64,0,0,1,3.52-4.44l.65-.73c.59-.63,2.24-2.12,2.85-2.72C269.34,100.76,269.51,100.87,269.88,101.14Z"/><path class="cls-7" d="M271.35,112.08c-.32-.55-.61-1-.94-1.57-.22-.35-.45-.7-.68-1.05a45.84,45.84,0,0,0-3.23-4.36,3.74,3.74,0,0,0-.27-.31c-.21-.26-.43-.51-.65-.76a45.24,45.24,0,0,0-3.52-3.54l-.67-.6c-1.12-1-2.29-1.92-3.5-2.81l-.65-.48c-1.14-.83-2.32-1.62-3.52-2.38l-.46-.29L252,93.2l1.13.13c1.23.65,3.59,2,4.78,2.83l.65.44c1.21.84,2.38,1.75,3.52,2.71l.67.58a46.89,46.89,0,0,1,3.5,3.41c.23.24.45.49.66.73a48.29,48.29,0,0,1,3.52,4.44l.67,1,1.06,1.76a4.45,4.45,0,0,1-.37.43Z"/><path class="cls-7" d="M263.78,111.47c-.16,0-1.37-.31-1.48-.32-.16-.26-.74-1.44-.91-1.69a49.55,49.55,0,0,0-3.23-4.36,3.74,3.74,0,0,0-.27-.31c-.21-.26-.43-.51-.66-.76a43.45,43.45,0,0,0-3.51-3.54l-.67-.6c-1.13-1-2.3-1.92-3.5-2.81l-.65-.48c-1.14-.83-2.32-1.62-3.53-2.38-.14-.1-1.16-.62-1.3-.71.12,0,.61-.12.67-.12l1.09.54a42,42,0,0,1,3.72,2.23l.64.44c1.21.84,2.39,1.75,3.53,2.71l.67.58a46.89,46.89,0,0,1,3.5,3.41l.66.73a48.18,48.18,0,0,1,3.51,4.44l.68,1C263,109.78,263.57,111.14,263.78,111.47Z"/><path class="cls-7" d="M254.65,109.9c-.05,0-1.18-.13-1.41-.13,0,0-.18-.29-.2-.31a47.5,47.5,0,0,0-3.22-4.36l-.27-.31-.66-.76a45.24,45.24,0,0,0-3.52-3.54l-.67-.6c-1.12-1-2.29-1.92-3.5-2.81-.21-.17-.43-.32-.65-.48-.49-.36-1.38-1.06-1.89-1.4.25-.1.48-.21.73-.3.48.28,1.35.95,1.81,1.26l.65.44c1.21.84,2.39,1.75,3.52,2.71l.67.58q1.83,1.6,3.51,3.41l.65.73a46.64,46.64,0,0,1,3.52,4.44l.67,1S254.62,109.86,254.65,109.9Z"/><path class="cls-7" d="M246.16,109.62l-1.33.06-.13-.22a45.84,45.84,0,0,0-3.23-4.36,3.74,3.74,0,0,0-.27-.31c-.21-.26-.43-.51-.66-.76a43.45,43.45,0,0,0-3.51-3.54l-.67-.6c-.66-.58-2-1.61-2.68-2.15.23-.17.56-.3.79-.46.68.51,1.91,1.48,2.56,2l.67.58a46.89,46.89,0,0,1,3.5,3.41l.66.73a46.53,46.53,0,0,1,3.51,4.44l.68,1Z"/><path class="cls-7" d="M231.06,112.14c-.37.12-.89.25-1,.31-.43-.77-.87-1.19-1.35-1.94a9.78,9.78,0,0,0-.67-1.05,16.51,16.51,0,0,0-3.72-3.77,6.64,6.64,0,0,1,.75-1.26c.2.27,2.79,2.81,3.64,4l.68,1C229.9,110.28,230.58,111.3,231.06,112.14Z"/><path class="cls-7" d="M238.29,110.48l-1.22.22c-.17-.27-.54-1-.71-1.24a49.55,49.55,0,0,0-3.23-4.36l-.27-.31c-.21-.26-.44-.51-.66-.76-.55-.63-2.79-2.56-3.37-3.14.29-.22.77-.54.86-.61.62.6,2.58,2.39,3.17,3l.66.73a48.18,48.18,0,0,1,3.51,4.44l.67,1C237.84,109.67,238.16,110.27,238.29,110.48Z"/><path class="cls-8" d="M254.47,81.46c1.48,1.12,1.72,2.31,1.28,3.52-.36,1-2.95-.38-3.42-.76s-2.27-2.11-1.64-3S252.58,80,254.47,81.46Z"/><g class="cls-9"><path class="cls-10" d="M253.94,83.08a.18.18,0,0,1,0,.06.06.06,0,0,1-.07,0,.43.43,0,0,1-.13,0c-.51-.34-.65-1,0-.49s.75,1.23.07.83c-.9-.55-1.36-1.66-.94-1.68.67-.08,2.42,1.67,2.31,2.57,0,.45-.6.32-1,.12a7.06,7.06,0,0,1-2.44-2.28c-.46-.69-.59-1.31-.52-1a1.4,1.4,0,0,0,.06.24c.57,1.68,3.12,3.93,3.91,3.27.59-.47-.27-1.83-1-2.47-1.34-1.19-2.1-.58-1.23.59.34.44,1,1,1.32.86s-.15-1.06-.69-1.3c-.35-.16-.48.13-.15.51s.58.41.54.19C254,83.05,253.94,83.05,253.94,83.08Z"/></g><path class="cls-11" d="M233.26,119.27s.19-3.71-2.09-2.68.34,17.3,6.09,23.92,4.34,4.1,1-2.8S233.26,119.27,233.26,119.27Z"/><path class="cls-12" d="M252,81.37h0a3.85,3.85,0,0,1,3.05,2.3c.17.5,0,.63-.05.68l0,0,0,0,0,0h0c-5.88,3.47-6.94,8.26-7,8.46l-.25,1.21h1.23c.79,0,1.85,0,3,.11h0a20.23,20.23,0,0,1,2.11.29h.05l.08,0a25.21,25.21,0,0,1,5.08,1.59l.17.07.38.17a47.6,47.6,0,0,1,4.26,2.21l.06,0,.11.06c1.35.79,2.79,1.71,4.29,2.74l0,0h0l.14.1.36.25a9.84,9.84,0,0,1,3.27,3.39l.05.1,0,0c0,.1.09.19.13.3l.08.21,0,.06,0,.08V106l0,.08c.39,1.49-.08,3-1.44,4.61-.05.06-.12.15-.18.21l-.19.19-.2.2.7.71-.74-.68a9.71,9.71,0,0,1-1.28,1.06l-.43.34v.52c0,6.57-1.17,15.93-3.79,22-2.28,5.31-6,11.46-14.26,11.81l-.74,0h-.86l-.13.85,0,.12a5.21,5.21,0,0,1-.42,1.35c-.08.15-.32.64-.59.72H248c-.29,0-.91-.68-1.13-2.16l-.13-.84h-.86c-12.58,0-17.31-20.53-17.37-33.62h0v-.24l0-1.43-.91.34-.3-.2-.18-.13-.31-.23,0,0,0,0c-1.35-1.12-2.71-3-1.53-5.5l0,0,0,0a5.08,5.08,0,0,1,.42-.72l.07-.1.13-.19a15.09,15.09,0,0,1,3.52-3.28l.06,0,.09-.07.57-.39.09-.06c1.39-1,2.75-1.83,4-2.59l0,0,0,0,.13-.08h0l.54-.3a40.29,40.29,0,0,1,4.07-2l.29-.13.06,0h0l.37-.15a24.26,24.26,0,0,1,4.55-1.35l.26,0,.33-.06.31,0,.74-.11.1-.75,0-.11c2.78-9.92,5.43-11.76,5.85-12H252m0-1a2.3,2.3,0,0,0-.37,0s-3.25.85-6.57,12.77l0,.18-.32,0h0c-.06,0-.45.07-.62.11a25.67,25.67,0,0,0-4.72,1.4h0c-.25.09-.48.2-.73.3h0a42.56,42.56,0,0,0-4.19,2.08h0l-.09,0-.24.14a3.16,3.16,0,0,0-.41.24c-1.28.75-2.65,1.61-4.11,2.62-.15.1-.45.3-.69.48l-.14.1a15.58,15.58,0,0,0-3.75,3.52h0s-.09.13-.15.2a.83.83,0,0,1-.08.12,4.84,4.84,0,0,0-.52.94h0c-1.38,2.93.08,5.28,1.79,6.69h0l.08.06.34.26.2.15a8.5,8.5,0,0,0,.78.47h0c0,12.75,4.61,34.85,18.37,34.85.26,1.73,1.12,3,2.14,3h.05a1.88,1.88,0,0,0,1.57-1.31,5.54,5.54,0,0,0,.5-1.61l0-.13.78,0c8.82-.38,12.8-7,15.14-12.42,2.75-6.39,3.87-15.92,3.87-22.42v0a12,12,0,0,0,1.41-1.17h0l0,0v0c.16-.15.27-.27.38-.38a3.74,3.74,0,0,0,.27-.31,6,6,0,0,0,1.63-5.49s0-.11-.05-.16a1.27,1.27,0,0,0-.06-.18l-.09-.27c-.05-.11-.1-.23-.16-.35l-.08-.18h0a10.91,10.91,0,0,0-3.6-3.77l-.51-.34,0,0h0c-1.56-1.07-3-2-4.35-2.78l-.21-.12a45.43,45.43,0,0,0-4.32-2.24h0l-.58-.25a26.54,26.54,0,0,0-5.27-1.66l-.14,0h0c-.77-.15-1.5-.24-2.2-.31h0c-1.06-.09-2.06-.11-3-.11,0,0,.95-4.53,6.53-7.82h0a.5.5,0,0,0,.19-.13c1.67-1.34-1.12-4.76-3.62-4.76Z"/><path class="cls-34" d="M170.86,101.72s-2.94.77-5.94,11.54l-.28,2,3.7.07,0-2.17s.86-4.09,5.9-7.06C176.24,105,173.27,101.37,170.86,101.72Z"/><path class="cls-35" d="M187.28,130.33a73,73,0,0,0-37.66,0,5.81,5.81,0,0,1-.61,1.16C149,143,153.17,163,165.6,163c.24,1.56,1,2.71,1.94,2.71s1.71-1.17,1.94-2.76c14.9,0,17.81-20.5,17.81-31.9V131C187.29,130.76,187.29,130.54,187.28,130.33Z"/><path class="cls-4" d="M180.41,126.94s7-.12,7,4.49c0,5.87-1,14.49-3.5,20.26-2.17,5.06-5.93,11.24-14.39,11.24,0,0-.4,2.76-1.89,2.76a7.4,7.4,0,0,0,1-3.08S180.41,151.88,180.41,126.94Z"/><path class="cls-5" d="M149,131.45s0,1.69.08,2.39a18.33,18.33,0,0,1,4-1.76c3.35-.89,16.77-2.72,29.34.27a14.78,14.78,0,0,1,4.74,1.78s.08-2.1.08-2.68c0,0-1.6-5.33-3.09-6.23-6.32-3.81-23-2.67-29.54.76C152.91,126.89,149,131.45,149,131.45Z"/><path class="cls-36" d="M149,131.48a57.43,57.43,0,0,1,18.79-3.39,56.61,56.61,0,0,1,19.47,3.39s8.29-5.29-.17-11.18c-9.61-6.67-14.31-7.11-18.71-7.11-3.73,0-8.83.45-18.2,7.07C142.39,125.76,146.37,130.08,149,131.48Z"/><path class="cls-7" d="M166.56,113.3l-1,.66-.41.25c-1.09.7-2.15,1.41-3.19,2.16l-.58.43c-1.09.8-2.15,1.65-3.17,2.54l-.6.54a43.65,43.65,0,0,0-3.18,3.2c-.2.23-.4.45-.59.69s-.17.19-.25.28A43.43,43.43,0,0,0,150.7,128c-.21.31-.41.63-.61,1-.31.49-1.14,1.85-1.43,2.34a6.14,6.14,0,0,1-.93-.65l1.75-2.64.61-.9a43.24,43.24,0,0,1,3.17-4l.6-.66a43.72,43.72,0,0,1,3.16-3.08l.61-.52c1-.87,2.09-1.69,3.18-2.45l.59-.4c1.08-.73,3-2,4.11-2.59Z"/><path class="cls-7" d="M173.76,113.7c-.13.08-.92.43-1,.51-1.09.7-2.15,1.41-3.19,2.16l-.58.43c-1.09.8-2.15,1.65-3.17,2.54l-.6.54a43.65,43.65,0,0,0-3.18,3.2c-.2.23-.4.45-.59.69s-.17.19-.25.28a43.43,43.43,0,0,0-2.91,3.94c-.15.23-.57.91-.71,1.14-.1,0-1.25.26-1.38.29.18-.3.68-1.14.87-1.43l.61-.9a43.24,43.24,0,0,1,3.17-4l.6-.66a43.72,43.72,0,0,1,3.16-3.08l.61-.52c1-.87,2.09-1.69,3.18-2.45l.59-.4a36.35,36.35,0,0,1,3.36-2s.81-.36.85-.39Z"/><path class="cls-7" d="M178.57,115.32c-.46.31-1.07.73-1.51,1.05l-.58.43c-1.09.8-2.15,1.65-3.16,2.54l-.61.54a43.65,43.65,0,0,0-3.18,3.2c-.2.23-.4.45-.59.69s-.17.19-.25.28a45.41,45.41,0,0,0-2.91,3.94l-.13.15-1.26.07.17-.22.61-.9a41.74,41.74,0,0,1,3.18-4l.59-.66a43.72,43.72,0,0,1,3.16-3.08l.61-.52c1-.87,2.09-1.69,3.18-2.45l.59-.4c.42-.28,1-.67,1.43-.93Z"/><path class="cls-7" d="M182.92,117.61c-.62.49-1.47,1.21-2.07,1.73l-.6.54a43.65,43.65,0,0,0-3.18,3.2c-.2.23-.4.45-.59.69s-.17.19-.25.28a43.43,43.43,0,0,0-2.91,3.94l-.06.09h0l-.51,0-.62,0h-.06l0,0,.61-.9a43.24,43.24,0,0,1,3.17-4l.6-.66a43.72,43.72,0,0,1,3.16-3.08l.61-.52c.58-.5,1.38-1.15,2-1.61C182.45,117.36,182.71,117.46,182.92,117.61Z"/><path class="cls-7" d="M190.79,125l-2.39,3c-.21.31-.41.63-.61,1-.43.68-1,1.54-1.38,2.23-.06-.07-.72-.23-1-.35.43-.76,1.27-2.09,1.76-2.83l.61-.9c.17-.24,2.37-3.15,2.55-3.39A5,5,0,0,1,190.79,125Z"/><path class="cls-7" d="M187.31,120.47c-.53.53-2.2,2-2.7,2.61-.2.23-.4.45-.59.69s-.17.19-.25.28a43.43,43.43,0,0,0-2.91,3.94c-.16.24-.79,1.14-.94,1.38-.11,0-.89-.19-1.08-.21.12-.2.67-1,.8-1.17l.61-.9a43.24,43.24,0,0,1,3.17-4l.6-.66c.53-.57,2-1.91,2.57-2.45C186.82,120.13,187,120.23,187.31,120.47Z"/><path class="cls-7" d="M188.64,130.35c-.28-.49-.55-.93-.85-1.41-.2-.32-.4-.64-.61-1a43.55,43.55,0,0,0-2.92-3.94l-.24-.28c-.19-.24-.39-.46-.6-.69a41.62,41.62,0,0,0-3.17-3.2l-.61-.54c-1-.89-2.07-1.74-3.16-2.54l-.59-.43c-1-.75-2.09-1.46-3.18-2.16l-.41-.25-1.16-.66,1,.11c1.12.59,3.25,1.84,4.33,2.56l.58.4c1.1.76,2.16,1.58,3.19,2.45l.6.52q1.65,1.45,3.17,3.08l.59.66a43.36,43.36,0,0,1,3.18,4l.61.9c.08.12.87,1.47.95,1.59a3.51,3.51,0,0,1-.33.39C188.91,130.08,188.81,130.19,188.64,130.35Z"/><path class="cls-7" d="M181.8,129.8c-.14,0-1.23-.28-1.34-.29-.14-.23-.67-1.29-.82-1.52a43.55,43.55,0,0,0-2.92-3.94l-.24-.28c-.19-.24-.39-.46-.6-.69a41.62,41.62,0,0,0-3.17-3.2l-.61-.54c-1-.89-2.07-1.74-3.16-2.54l-.59-.43c-1-.75-2.09-1.46-3.18-2.16l-1.18-.64.61-.11,1,.5a36.35,36.35,0,0,1,3.36,2l.58.4c1.1.76,2.16,1.58,3.19,2.45l.61.52c1.09,1,2.15,2,3.16,3.08l.59.66a45.11,45.11,0,0,1,3.18,4l.61.9C181.05,128.28,181.61,129.51,181.8,129.8Z"/><path class="cls-7" d="M173.55,128.39s-1.07-.12-1.28-.12l-.17-.28a43.55,43.55,0,0,0-2.92-3.94l-.24-.28c-.19-.24-.4-.46-.59-.69-1-1.13-2.07-2.19-3.18-3.2l-.61-.54c-1-.89-2.07-1.74-3.16-2.54l-.59-.43c-.44-.32-1.25-1-1.71-1.27.22-.09.43-.19.66-.27.43.26,1.22.86,1.64,1.14l.58.4c1.1.76,2.16,1.58,3.19,2.45l.6.52q1.65,1.45,3.17,3.08l.59.66a45.11,45.11,0,0,1,3.18,4l.61.9Z"/><path class="cls-7" d="M165.88,128.13l-1.2.06-.12-.2a43.55,43.55,0,0,0-2.92-3.94l-.24-.28c-.19-.24-.39-.46-.6-.69a41.62,41.62,0,0,0-3.17-3.2l-.61-.54c-.6-.52-1.79-1.45-2.42-1.94.21-.16.5-.28.72-.42.61.46,1.72,1.34,2.31,1.84l.6.52q1.65,1.45,3.17,3.08l.59.66a45.11,45.11,0,0,1,3.18,4l.61.9Z"/><path class="cls-7" d="M152.23,130.41c-.34.11-.8.23-.93.28-.39-.69-.79-1.07-1.21-1.75-.2-.32-.38-.65-.61-1a15.14,15.14,0,0,0-3.37-3.41,7.61,7.61,0,0,1,.68-1.14c.18.25,2.53,2.55,3.3,3.65l.61.9C151.19,128.73,151.79,129.65,152.23,130.41Z"/><path class="cls-7" d="M158.77,128.91l-1.11.2c-.15-.25-.48-.88-.64-1.12a43.55,43.55,0,0,0-2.92-3.94l-.24-.28c-.19-.24-.4-.46-.6-.69-.5-.56-2.52-2.31-3-2.84.27-.2.7-.49.78-.54.57.54,2.33,2.15,2.87,2.72l.59.66a45.11,45.11,0,0,1,3.18,4l.61.9C158.36,128.18,158.64,128.72,158.77,128.91Z"/><path class="cls-8" d="M173.39,102.69a2.57,2.57,0,0,1,1.15,3.17c-.32.91-2.66-.34-3.09-.68s-2-1.9-1.48-2.67S171.68,101.41,173.39,102.69Z"/><g class="cls-9"><path class="cls-10" d="M172.91,104.15a.11.11,0,0,1,0,0s0,0-.07,0a.3.3,0,0,1-.11,0c-.46-.31-.59-1,0-.44s.68,1.11.07.74C172,104,171.58,103,172,103c.6-.08,2.19,1.51,2.08,2.32,0,.41-.54.29-.91.11a6.47,6.47,0,0,1-2.2-2.06c-.42-.63-.54-1.18-.47-.89a.73.73,0,0,0,.06.21c.51,1.52,2.82,3.55,3.53,3,.53-.43-.25-1.66-.94-2.24-1.21-1.07-1.9-.52-1.11.54.31.39.88.88,1.19.77s-.14-1-.63-1.17c-.31-.15-.43.12-.13.46s.52.37.49.17C172.91,104.12,172.91,104.12,172.91,104.15Z"/></g><path class="cls-11" d="M154.22,136.86s.17-3.36-1.89-2.43.31,15.63,5.51,21.62,3.92,3.71.88-2.53S154.22,136.86,154.22,136.86Z"/><path class="cls-12" d="M171.19,102.7a3.39,3.39,0,0,1,2.66,2c.14.39,0,.48,0,.51l0,0-.05,0,0,0c-5.33,3.16-6.29,7.5-6.33,7.69l-.25,1.2h1.23c.72,0,1.67,0,2.69.11a16.41,16.41,0,0,1,1.9.26h.12a23.22,23.22,0,0,1,4.57,1.44l.15.06.34.15c1.2.54,2.48,1.2,3.85,2l.05,0a.28.28,0,0,0,.1.06c1.21.72,2.52,1.55,3.86,2.47l0,0h0l.15.11.31.2a9,9,0,0,1,2.93,3l0,.08,0,.05c0,.09.08.17.12.27l.06.18,0,.05,0,.12,0,.08a4.43,4.43,0,0,1-1.29,4.08l-.15.18-.17.17-.22.21a9.26,9.26,0,0,1-1.14,1l-.44.3v.58c0,5.93-1.06,14.35-3.42,19.84-2,4.78-5.36,10.3-12.8,10.61l-.67,0h-.86l-.13.85,0,.11a3.78,3.78,0,0,1-.37,1.19,1.24,1.24,0,0,1-.46.61h-.12c-.2,0-.73-.59-.93-1.87l-.13-.84h-.86c-11.31,0-15.55-18.54-15.59-30.34h0V130l-.92.35-.22-.15-.16-.11-.27-.21,0,0,0,0c-1.19-1-2.4-2.63-1.35-4.85l0-.06v0s.13-.25.37-.62l.07-.1.12-.16a13.28,13.28,0,0,1,3.14-3l.06,0,.09-.06c.17-.13.38-.27.52-.36l.07-.06c1.26-.86,2.48-1.64,3.66-2.33l0,0,0,0h0l.58-.33a37.69,37.69,0,0,1,3.67-1.82l.26-.11h0l.39-.15a23.23,23.23,0,0,1,4.09-1.22l.23,0,.3,0,.28,0,.74-.11.1-.74,0-.1c2.47-8.81,4.82-10.53,5.22-10.76h.07m0-1-.33,0s-2.94.77-5.94,11.54l0,.16-.29,0h0l-.57.11a23.06,23.06,0,0,0-4.26,1.26h0c-.23.08-.44.18-.66.27h0a38.8,38.8,0,0,0-3.78,1.88h0l-.08,0-.23.12a3.28,3.28,0,0,0-.37.22c-1.15.68-2.39,1.46-3.71,2.37-.13.09-.41.27-.62.43l-.13.09a14.29,14.29,0,0,0-3.39,3.18h0l-.13.19-.07.11a4.8,4.8,0,0,0-.48.84h0c-1.25,2.65.08,4.77,1.62,6h0l.07.05c.1.09.21.16.31.24l.19.13a6.6,6.6,0,0,0,.7.43h0C149,143,153.17,163,165.6,163c.24,1.56,1,2.71,1.94,2.71h.05a1.7,1.7,0,0,0,1.42-1.18,5.37,5.37,0,0,0,.45-1.45c0-.08,0-.13,0-.13l.71,0c8-.33,11.57-6.31,13.68-11.22,2.48-5.77,3.5-14.39,3.5-20.26v0a11,11,0,0,0,1.27-1.05h0l0,0,0,0L189,130l.25-.28a5.43,5.43,0,0,0,1.46-5l0-.15-.06-.16-.09-.24c0-.1-.08-.21-.13-.32s0-.1-.08-.16h0a9.83,9.83,0,0,0-3.25-3.4l-.46-.31,0,0h0q-2.11-1.45-3.93-2.52a1.18,1.18,0,0,1-.19-.11,42.34,42.34,0,0,0-3.91-2h0l-.53-.23a23.35,23.35,0,0,0-4.76-1.49l-.13,0h0c-.69-.13-1.35-.21-2-.27h0c-1-.09-1.87-.11-2.76-.11,0,0,.86-4.09,5.9-7.06h0a.3.3,0,0,0,.17-.12c1.51-1.2-1-4.3-3.27-4.3Zm-.05,11.6Z"/><path class="cls-37" d="M101.09,111.85s-2.93.76-5.94,11.53l-.28,2,3.71.07,0-2.16s.86-4.1,5.91-7.07C106.48,115.1,103.5,111.5,101.09,111.85Z"/><path class="cls-38" d="M117.52,140.45a73,73,0,0,0-37.66,0,6,6,0,0,1-.62,1.16c0,11.52,4.16,31.49,16.6,31.49.24,1.57,1,2.72,1.93,2.72s1.71-1.18,1.94-2.77c14.9,0,17.82-20.5,17.82-31.9v-.05C117.53,140.89,117.53,140.67,117.52,140.45Z"/><path class="cls-4" d="M110.65,137.06s6.95-.12,6.95,4.5c0,5.87-1,14.48-3.5,20.26-2.17,5.05-5.92,11.23-14.39,11.23,0,0-.39,2.77-1.89,2.77a7.47,7.47,0,0,0,1-3.09S110.65,162,110.65,137.06Z"/><path class="cls-5" d="M79.25,141.58s0,1.68.08,2.38a18.08,18.08,0,0,1,4-1.75c3.36-.9,16.78-2.73,29.35.26a15,15,0,0,1,4.73,1.78s.09-2.1.08-2.67c0,0-1.59-5.34-3.08-6.24-6.33-3.81-23-2.66-29.54.76C83.15,137,79.25,141.58,79.25,141.58Z"/><path class="cls-39" d="M79.23,141.6A57.43,57.43,0,0,1,98,138.21a56.61,56.61,0,0,1,19.47,3.39s8.29-5.29-.17-11.17c-9.6-6.68-14.31-7.11-18.71-7.11-3.72,0-8.82.44-18.2,7.06C72.63,135.89,76.6,140.2,79.23,141.6Z"/><path class="cls-7" d="M96.79,123.42l-1,.66-.41.26c-1.09.69-2.15,1.4-3.18,2.15l-.59.43c-1.09.81-2.15,1.65-3.16,2.55-.21.17-.41.35-.61.54a39.77,39.77,0,0,0-3.17,3.19q-.31.35-.6.69c-.08.1-.17.19-.24.29a42.06,42.06,0,0,0-2.92,3.93l-.61.95c-.31.49-1.14,1.85-1.43,2.35a7.11,7.11,0,0,1-.93-.66l1.75-2.64c.2-.3.4-.6.61-.89a42.19,42.19,0,0,1,3.18-4l.59-.65a41.66,41.66,0,0,1,3.16-3.08l.61-.53c1-.87,2.09-1.69,3.19-2.45l.58-.4c1.08-.72,3-2,4.12-2.59Z"/><path class="cls-7" d="M104,123.82c-.12.08-.92.44-1,.52-1.09.69-2.15,1.4-3.18,2.15l-.59.43c-1.09.81-2.14,1.65-3.16,2.55-.21.17-.41.35-.61.54a41.62,41.62,0,0,0-3.18,3.19l-.59.69c-.08.1-.17.19-.24.29a42.06,42.06,0,0,0-2.92,3.93c-.15.23-.56.92-.71,1.15-.1,0-1.24.26-1.38.28.18-.3.68-1.14.87-1.43s.4-.6.61-.89a43.84,43.84,0,0,1,3.18-4l.59-.65a43.61,43.61,0,0,1,3.16-3.08l.61-.53c1-.87,2.09-1.69,3.19-2.45l.58-.4a36.35,36.35,0,0,1,3.36-2l.86-.38C103.45,123.7,103.86,123.8,104,123.82Z"/><path class="cls-7" d="M108.8,125.44c-.45.31-1.06.73-1.5,1l-.59.43c-1.09.81-2.14,1.65-3.16,2.55-.21.17-.41.35-.61.54a41.62,41.62,0,0,0-3.18,3.19l-.59.69-.24.29A42.06,42.06,0,0,0,96,138.11l-.13.16-1.26.06a1.84,1.84,0,0,0,.17-.22c.2-.3.4-.6.61-.89a42.19,42.19,0,0,1,3.18-4l.59-.65a41.78,41.78,0,0,1,3.17-3.08l.6-.53c1-.87,2.09-1.69,3.19-2.45l.58-.4c.42-.28,1-.67,1.44-.93Z"/><path class="cls-7" d="M113.15,127.73c-.62.49-1.47,1.21-2.06,1.74-.21.17-.41.35-.61.54a39.77,39.77,0,0,0-3.17,3.19q-.32.35-.6.69c-.08.1-.17.19-.24.29a42.06,42.06,0,0,0-2.92,3.93l-.06.1h0l-.5,0-.63,0h-.06l0,0c.2-.3.4-.6.61-.89a43.84,43.84,0,0,1,3.18-4l.59-.65a43.61,43.61,0,0,1,3.16-3.08l.61-.53c.59-.5,1.38-1.15,2-1.61C112.68,127.48,113,127.58,113.15,127.73Z"/><path class="cls-7" d="M121,135.07l-2.39,3-.61.95c-.42.68-1,1.54-1.37,2.24a8.92,8.92,0,0,0-1-.35c.44-.77,1.27-2.1,1.76-2.84l.61-.89c.17-.25,2.38-3.16,2.55-3.4A5,5,0,0,1,121,135.07Z"/><path class="cls-7" d="M117.54,130.6c-.52.52-2.2,2-2.7,2.6l-.59.69-.24.29a42.06,42.06,0,0,0-2.92,3.93c-.16.24-.79,1.14-.94,1.39-.1,0-.89-.2-1.08-.22.13-.2.68-1,.8-1.17s.4-.6.61-.89a43.84,43.84,0,0,1,3.18-4l.59-.65c.53-.57,2-1.92,2.58-2.46C117.05,130.25,117.22,130.35,117.54,130.6Z"/><path class="cls-7" d="M118.87,140.48c-.28-.5-.54-.93-.85-1.42l-.61-.95a43.8,43.8,0,0,0-2.91-3.93l-.25-.29-.59-.69a41.62,41.62,0,0,0-3.18-3.19c-.2-.19-.4-.37-.61-.54-1-.9-2.07-1.74-3.16-2.55l-.58-.43c-1-.75-2.1-1.46-3.19-2.15l-.41-.26s-1.11-.63-1.16-.66l1,.11c1.11.6,3.25,1.84,4.32,2.56l.59.4c1.09.76,2.15,1.58,3.18,2.45.21.17.41.35.61.53a39.88,39.88,0,0,1,3.16,3.08l.59.65a42.19,42.19,0,0,1,3.18,4c.21.29.41.59.61.89.08.13.87,1.47,1,1.59a4.36,4.36,0,0,1-.32.39C119.14,140.2,119,140.31,118.87,140.48Z"/><path class="cls-7" d="M112,139.92c-.14,0-1.23-.27-1.34-.29-.14-.23-.67-1.29-.82-1.52a42,42,0,0,0-2.91-3.93l-.25-.29-.59-.69a41.62,41.62,0,0,0-3.18-3.19q-.3-.28-.6-.54c-1-.9-2.08-1.74-3.17-2.55l-.58-.43c-1-.75-2.1-1.46-3.19-2.15-.13-.09-1.05-.56-1.18-.64a6.18,6.18,0,0,1,.61-.11l1,.49a36.35,36.35,0,0,1,3.36,2l.59.4c1.09.76,2.15,1.58,3.18,2.45l.61.53a39.88,39.88,0,0,1,3.16,3.08l.6.65a42.08,42.08,0,0,1,3.17,4c.21.29.41.59.61.89S111.85,139.63,112,139.92Z"/><path class="cls-7" d="M103.78,138.51l-1.27-.12-.18-.28a43.8,43.8,0,0,0-2.91-3.93l-.25-.29-.59-.69A41.62,41.62,0,0,0,95.4,130c-.2-.19-.4-.37-.61-.54-1-.9-2.07-1.74-3.16-2.55l-.58-.43c-.45-.32-1.26-.95-1.71-1.26.22-.09.43-.2.66-.28.42.26,1.21.86,1.63,1.14l.59.4c1.09.76,2.15,1.58,3.18,2.45.21.17.41.35.61.53a39.88,39.88,0,0,1,3.16,3.08l.59.65a40.66,40.66,0,0,1,3.18,4c.21.29.41.59.61.89Z"/><path class="cls-7" d="M96.11,138.25l-1.2.06-.12-.2a42,42,0,0,0-2.91-3.93l-.25-.29L91,133.2A41.62,41.62,0,0,0,87.86,130c-.2-.19-.4-.37-.61-.54-.59-.53-1.79-1.46-2.41-2,.2-.16.5-.27.71-.42.61.47,1.72,1.34,2.31,1.84.21.17.41.35.61.53a39.88,39.88,0,0,1,3.16,3.08l.59.65a42.19,42.19,0,0,1,3.18,4c.21.29.41.59.61.89Z"/><path class="cls-7" d="M82.46,140.53c-.33.11-.8.23-.93.29-.38-.7-.78-1.08-1.21-1.76-.2-.32-.38-.65-.61-.95a14.89,14.89,0,0,0-3.37-3.41,7.61,7.61,0,0,1,.68-1.14c.18.25,2.53,2.55,3.3,3.66.21.29.41.59.61.89C81.42,138.85,82,139.77,82.46,140.53Z"/><path class="cls-7" d="M89,139l-1.11.2c-.15-.24-.48-.88-.64-1.12a40.36,40.36,0,0,0-2.92-3.93c-.07-.1-.16-.19-.24-.29l-.59-.69c-.5-.56-2.52-2.3-3-2.84.26-.19.7-.48.78-.54.56.54,2.33,2.15,2.86,2.73l.6.65a42.08,42.08,0,0,1,3.17,4c.21.29.41.59.61.89S88.88,138.84,89,139Z"/><path class="cls-8" d="M103.62,112.81a2.59,2.59,0,0,1,1.16,3.18c-.33.9-2.67-.35-3.09-.69s-2-1.9-1.48-2.67S101.91,111.53,103.62,112.81Z"/><g class="cls-9"><path class="cls-10" d="M103.15,114.27s0,0,0,0a.08.08,0,0,1-.07,0l-.12,0c-.46-.3-.59-1,0-.44s.67,1.11.07.75c-.82-.5-1.24-1.5-.86-1.52.61-.08,2.19,1.51,2.09,2.32,0,.41-.54.29-.91.11a6.31,6.31,0,0,1-2.21-2.06c-.42-.62-.53-1.18-.47-.89a1.29,1.29,0,0,0,.06.21c.51,1.52,2.82,3.56,3.53,3,.53-.43-.25-1.65-.94-2.24-1.21-1.07-1.9-.51-1.11.54.31.4.88.88,1.19.78s-.14-1-.63-1.18c-.31-.14-.43.12-.12.46s.52.37.48.17C103.15,114.24,103.14,114.24,103.15,114.27Z"/></g><path class="cls-11" d="M84.45,147s.17-3.36-1.89-2.42.31,15.63,5.51,21.61,3.92,3.71.88-2.53S84.45,147,84.45,147Z"/><path class="cls-12" d="M101.43,112.82a3.41,3.41,0,0,1,2.66,2c.13.38,0,.48,0,.51l0,0,0,0,0,0c-5.33,3.16-6.3,7.52-6.34,7.7l-.25,1.21h1.23c.72,0,1.67,0,2.67.1h0c.65.06,1.27.14,1.89.26h.12a23.52,23.52,0,0,1,4.58,1.44l.14.06.35.16a39.67,39.67,0,0,1,3.84,2l0,0,.1.06c1.22.71,2.52,1.54,3.86,2.46l.05,0h0l.16.1.3.21a8.81,8.81,0,0,1,2.93,3l0,.09,0,0,.12.27a1.34,1.34,0,0,1,.07.18l0,.06,0,.11,0,.08a4.4,4.4,0,0,1-1.28,4.08l-.16.18c0,.06-.11.11-.17.17s-.1.11-.18.18h0l0,0a9.9,9.9,0,0,1-1.15.95l-.43.3v.58h0c0,5.93-1.06,14.36-3.42,19.84-2.05,4.78-5.36,10.3-12.8,10.62H98.85l-.12.86,0,.1a4.57,4.57,0,0,1-.37,1.2,1.25,1.25,0,0,1-.47.6h-.11c-.21,0-.74-.59-.93-1.86l-.13-.85h-.86c-11.27,0-15.53-18.4-15.6-30.2h0v-.3l0-1.45-.91.35-.23-.14-.16-.12-.27-.2L78.6,140c-1.19-1-2.39-2.63-1.35-4.85l0-.06,0,0a3.65,3.65,0,0,1,.37-.63l.06-.09.12-.17a13.35,13.35,0,0,1,3.15-3l.07,0,.07-.05.53-.36.07-.05c1.25-.86,2.48-1.65,3.65-2.33l0,0,0,0,0,0h0L86,128a35.93,35.93,0,0,1,3.69-1.83L90,126l.34-.14a22.21,22.21,0,0,1,4.1-1.21l.22,0h0l.3,0,.28,0,.75-.11.1-.74v-.1c2.47-8.81,4.83-10.52,5.22-10.76h.08m0-1-.34,0s-2.93.77-5.94,11.54l0,.16-.3,0h0l-.56.1A23.7,23.7,0,0,0,90,125h0c-.23.08-.44.18-.66.27h0a35.76,35.76,0,0,0-3.79,1.88h0l-.08.05-.22.13-.37.21c-1.16.68-2.4,1.46-3.72,2.37l-.62.43-.13.09A14.22,14.22,0,0,0,77,133.57h0l-.13.19-.07.11a5.19,5.19,0,0,0-.48.84h0c-1.25,2.66.07,4.77,1.61,6.05h0l.07.05a3.33,3.33,0,0,0,.32.24l.18.13a6,6,0,0,0,.7.43h0c0,11.52,4.16,31.49,16.6,31.49.24,1.57,1,2.72,1.93,2.72h0c.68,0,1.13-.57,1.42-1.19a4.94,4.94,0,0,0,.45-1.45.59.59,0,0,0,0-.13h.72c8-.34,11.56-6.32,13.67-11.22,2.49-5.78,3.5-14.39,3.5-20.26v0a10,10,0,0,0,1.27-1.05h0l0,0h0l.35-.35a3.22,3.22,0,0,0,.24-.28,5.44,5.44,0,0,0,1.47-5,.83.83,0,0,1,0-.15l-.06-.16a2.25,2.25,0,0,0-.08-.24c-.05-.1-.09-.21-.14-.31l-.08-.17h0a9.75,9.75,0,0,0-3.25-3.4l-.46-.32,0,0h0c-1.42-1-2.73-1.8-3.94-2.52l-.18-.1a44,44,0,0,0-3.91-2h0l-.53-.22a23.25,23.25,0,0,0-4.76-1.5l-.12,0h0a19.17,19.17,0,0,0-2-.28h0c-1-.09-1.86-.1-2.76-.1,0,0,.86-4.1,5.91-7.07h0a.57.57,0,0,0,.18-.12c1.5-1.21-1-4.31-3.27-4.31Z"/><path class="cls-40" d="M29.81,158.48v-17c-.41.48-.81.91-1.19,1.3s-.78.8-1.22,1.24l-2.06-2.82c.63-.54,1.23-1.08,1.81-1.62s1-.95,1.54-1.47A18.55,18.55,0,0,0,30,136.65h4v21.83Z"/><path class="cls-40" d="M91.52,164.77l0-2.36c.62-.72,1.28-1.45,2-2.16l2-2.14c.68-.7,1.33-1.4,2-2.07a18.51,18.51,0,0,0,1.63-2,11.53,11.53,0,0,0,1.13-2,5.24,5.24,0,0,0,.42-2,2.23,2.23,0,0,0-.78-1.77,2.83,2.83,0,0,0-1.92-.68,3.3,3.3,0,0,0-1.46.32,3.87,3.87,0,0,0-1.11.84,6,6,0,0,0-.81,1.12A9.84,9.84,0,0,0,94,151l-2.88-2.1c.2-.45.45-1,.75-1.54a6,6,0,0,1,1.31-1.66,7.39,7.39,0,0,1,2.22-1.33,9.6,9.6,0,0,1,3.5-.54,8.5,8.5,0,0,1,2.64.39,6,6,0,0,1,2.06,1.13,4.9,4.9,0,0,1,1.32,1.77,5.64,5.64,0,0,1,.46,2.33,7.86,7.86,0,0,1-.89,3.57,19,19,0,0,1-2.14,3.32,25.52,25.52,0,0,1-2.64,2.82c-.92.84-1.7,1.53-2.34,2.08h8.19v3.54Z"/><path class="cls-40" d="M176.44,149.72a5.62,5.62,0,0,1-.56,2.53,5.54,5.54,0,0,1-1.63,2,8,8,0,0,1-2.59,1.29,11.64,11.64,0,0,1-3.4.47,14.29,14.29,0,0,1-2.57-.21,9.28,9.28,0,0,1-2.15-.66,8.13,8.13,0,0,1-1.89-1.2,14.12,14.12,0,0,1-1.8-1.82l2.2-3a7.42,7.42,0,0,0,5.55,2.92,4,4,0,0,0,2.61-.76,2.68,2.68,0,0,0,1-2,2.6,2.6,0,0,0-.26-1.44,2.65,2.65,0,0,0-1.13-1.12,6.44,6.44,0,0,0-2.23-.65,17.28,17.28,0,0,0-3.53-.07v-3.93a25.66,25.66,0,0,0,3.35,0,6.26,6.26,0,0,0,2.06-.45,2.26,2.26,0,0,0,1.06-1,3,3,0,0,0,.32-1.45,2.4,2.4,0,0,0-1-1.84,3.75,3.75,0,0,0-2.39-.7,5.52,5.52,0,0,0-2.36.52,9.57,9.57,0,0,0-2.4,1.69l-1.86-3.15q2.49-3,7.68-3a9.9,9.9,0,0,1,2.94.41,6.54,6.54,0,0,1,2.23,1.2,5.16,5.16,0,0,1,1.43,1.85,5.77,5.77,0,0,1,.5,2.43,5.06,5.06,0,0,1-1,3.2,7.64,7.64,0,0,1-3.2,2.15,6.18,6.18,0,0,1,3.68,1.87A5.55,5.55,0,0,1,176.44,149.72Z"/><path class="cls-40" d="M254.19,140h-4.57V133.6h-9.48V114.16h4.72v15.31h4.76v-6.23h4.54v6.23h3.28v4.1h-3.25Z"/><path class="cls-40" d="M334.22,109.47a8,8,0,0,1-2.48,6.3A10,10,0,0,1,324.8,118a13,13,0,0,1-5.1-1,11.32,11.32,0,0,1-4-2.88l2.14-3.78q3.42,3.11,6.67,3.11a5.15,5.15,0,0,0,3.34-1,3.33,3.33,0,0,0,1.3-2.7A3.78,3.78,0,0,0,328,106.8a5.23,5.23,0,0,0-5.18-.56,8.11,8.11,0,0,0-1.89,1.37l-3.3-1.88L318,91.24h15.33l0,4.52H323l-.19,6.29c.37-.18.69-.33,1-.44a7.84,7.84,0,0,1,.8-.29,3.68,3.68,0,0,1,.84-.15c.3,0,.63,0,1,0a8.33,8.33,0,0,1,3.2.6,7.15,7.15,0,0,1,2.47,1.69,7.94,7.94,0,0,1,1.6,2.64A9.84,9.84,0,0,1,334.22,109.47Z"/><path class="cls-40" d="M428.21,84a9.43,9.43,0,0,1-.62,3.49,7.47,7.47,0,0,1-4.46,4.34,10.05,10.05,0,0,1-3.57.6,9.8,9.8,0,0,1-3.74-.68,8.1,8.1,0,0,1-2.88-1.94,9,9,0,0,1-1.85-3,10.94,10.94,0,0,1-.66-3.91,14,14,0,0,1,.8-4.6,24.14,24.14,0,0,1,2.07-4.44,32,32,0,0,1,2.86-4.07,39,39,0,0,1,3.22-3.47h6.32a41.12,41.12,0,0,0-8.41,10.82c.39-.23.74-.41,1.06-.56a7.66,7.66,0,0,1,.9-.36,5.08,5.08,0,0,1,.86-.19,9.61,9.61,0,0,1,1,0,7,7,0,0,1,2.88.58,6.39,6.39,0,0,1,2.23,1.66,8,8,0,0,1,1.47,2.56A9.56,9.56,0,0,1,428.21,84Zm-5,.1a3.69,3.69,0,0,0-.88-2.6,3.08,3.08,0,0,0-2.38-1A4.92,4.92,0,0,0,416.5,82q-.12.57-.15.84a5,5,0,0,0,0,.74,4.16,4.16,0,0,0,1,2.9A3.41,3.41,0,0,0,420,87.59a3.07,3.07,0,0,0,2.37-1A3.56,3.56,0,0,0,423.23,84.08Z"/><path class="cls-40" d="M522.15,89.77h-6.43l11.15-24.7H513.5v-5h20.06v4.42Z"/><path class="cls-40" d="M648.27,102.21a8.38,8.38,0,0,1-3.44,7.11q-3.44,2.55-9.58,2.55a21.09,21.09,0,0,1-5.71-.72,14.22,14.22,0,0,1-4.41-2,9.33,9.33,0,0,1-2.85-3.13,9.06,9.06,0,0,1,.82-9.65,15.48,15.48,0,0,1,6.12-3.88c-1.5-.93-2.7-1.75-3.62-2.45a10.16,10.16,0,0,1-2.11-2.08,6,6,0,0,1-1-2.15,11.71,11.71,0,0,1-.27-2.7,8.41,8.41,0,0,1,3.18-7q3.18-2.48,9.77-2.48a19.05,19.05,0,0,1,5.19.65,12.39,12.39,0,0,1,4,1.83,8,8,0,0,1,3.4,6.69,8.48,8.48,0,0,1-1.62,5.21,16,16,0,0,1-5.35,4.19,13.54,13.54,0,0,1,5.73,4.13A9.7,9.7,0,0,1,648.27,102.21Zm-7.3-.7a3.83,3.83,0,0,0-.44-1.89,4.23,4.23,0,0,0-1.29-1.39,11.93,11.93,0,0,0-2-1.13c-.79-.36-1.67-.72-2.66-1.09a11.37,11.37,0,0,0-4,2,3.69,3.69,0,0,0-1.15,2.81,3.91,3.91,0,0,0,1.65,3.33,7.38,7.38,0,0,0,4.44,1.21,6.83,6.83,0,0,0,4-1.06A3.31,3.31,0,0,0,641,101.51Zm-1-17.41a3.54,3.54,0,0,0-1.46-2.93A6,6,0,0,0,634.66,80a5.32,5.32,0,0,0-3.41,1,3.32,3.32,0,0,0-1.31,2.7c0,1.92,1.75,3.63,5.27,5.14a8.38,8.38,0,0,0,3.68-2.08A4.12,4.12,0,0,0,639.93,84.1Z"/><path class="cls-40" d="M767.63,153.23h-8.42l.5-18.55a11.38,11.38,0,0,1-3.58,2.2,12.59,12.59,0,0,1-4.22.63,13.31,13.31,0,0,1-5.25-1,11.65,11.65,0,0,1-4-2.86,13,13,0,0,1-2.61-4.43,17.24,17.24,0,0,1-.91-5.79,17,17,0,0,1,1.1-6.25,13.21,13.21,0,0,1,3.11-4.75,13.55,13.55,0,0,1,4.94-3,19.31,19.31,0,0,1,6.5-1q6.54,0,10.19,3.64t3.45,10.12Zm-8-32a5,5,0,0,0-.41-2,5.16,5.16,0,0,0-1.13-1.6,5,5,0,0,0-1.73-1.07,6.1,6.1,0,0,0-2.14-.38,5.77,5.77,0,0,0-4.59,2,7.87,7.87,0,0,0-1.7,5.34,6.94,6.94,0,0,0,1.48,4.72,5.17,5.17,0,0,0,4.12,1.69,5.66,5.66,0,0,0,4.27-1.69,7,7,0,0,0,1.76-4.72Z"/><path class="cls-40" d="M867.63,202.42V170.69c-.77.89-1.51,1.7-2.21,2.41s-1.45,1.49-2.27,2.3l-3.84-5.23q1.74-1.51,3.38-3,1.39-1.27,2.85-2.73a34.2,34.2,0,0,0,2.4-2.62h7.44v40.63Z"/><path class="cls-40" d="M916.24,181.41q0,11.1-3.82,16.05t-11.35,5q-7.52,0-11.34-5t-3.82-15.3q0-10.26,3.82-15.3t11.34-5.05Q916.23,161.79,916.24,181.41Zm-9.14.33c-.11-4.47-.62-7.65-1.52-9.57a4.6,4.6,0,0,0-4.45-2.87,4.89,4.89,0,0,0-4.5,3.11q-1.41,3-1.58,10.28.16,6.06,1.52,9.09a4.85,4.85,0,0,0,4.56,3.13,4.62,4.62,0,0,0,4.36-3Q906.93,188.86,907.1,181.74Z"/></g></g></svg>