<svg xmlns="http://www.w3.org/2000/svg" xmlns:xlink="http://www.w3.org/1999/xlink" viewBox="0 0 331.87 466.33"><defs><style>.cls-1,.cls-15,.cls-19,.cls-22,.cls-34,.cls-36,.cls-40,.cls-44,.cls-45{fill:none;}.cls-2{isolation:isolate;}.cls-3{fill:#775a07;}.cls-4{fill:#211201;}.cls-5,.cls-6{mix-blend-mode:multiply;opacity:0.5;}.cls-5{fill:url(#linear-gradient);}.cls-6{fill:url(#linear-gradient-2);}.cls-7{fill:#724526;}.cls-8,.cls-9{opacity:0.39;}.cls-8{fill:url(#linear-gradient-3);}.cls-9{fill:url(#linear-gradient-4);}.cls-10{fill:#916b0c;}.cls-11{clip-path:url(#clip-path);}.cls-12,.cls-17{fill:#bc7b18;}.cls-13{fill:#bc6b00;}.cls-14,.cls-35,.cls-37{fill:#fedcae;}.cls-14,.cls-15,.cls-36,.cls-37,.cls-40,.cls-44{stroke:#894f1a;}.cls-14,.cls-15,.cls-17,.cls-19,.cls-22,.cls-34,.cls-36,.cls-37,.cls-39,.cls-40,.cls-44,.cls-45{stroke-miterlimit:10;}.cls-16{fill:#ffbe72;}.cls-17,.cls-39{stroke:#bc7b18;}.cls-18{fill:#e07e1e;}.cls-19,.cls-22{stroke:#231f20;}.cls-20{fill:#f3d9ab;}.cls-21{fill:#f3daac;}.cls-22,.cls-44{stroke-width:0.25px;}.cls-23{fill:#f6f6f6;}.cls-24{fill:#3d3123;}.cls-25{fill:#fff;}.cls-26{fill:#894f1a;}.cls-27{fill:#231f20;}.cls-28{fill:#af6104;}.cls-29{fill:#874207;}.cls-30{fill:#9e4808;}.cls-31{fill:#f76f6f;}.cls-32,.cls-33{fill:#f2dcad;}.cls-32{mix-blend-mode:screen;opacity:0.2;}.cls-34{stroke:#800001;}.cls-36,.cls-37{stroke-width:0.5px;}.cls-38{fill:#911919;}.cls-39{fill:#cc821f;}.cls-40{stroke-width:0.75px;}.cls-41{fill:#7f0000;}.cls-42{fill:#ce4545;}.cls-43{fill:#590000;}.cls-45{stroke:#512e11;}</style><linearGradient id="linear-gradient" x1="-7108.11" y1="189.18" x2="-7254.18" y2="180.39" gradientTransform="matrix(-1, -0.05, -0.05, 1, -6958.09, -160.14)" gradientUnits="userSpaceOnUse"><stop offset="0" stop-color="#563628"/><stop offset="0.15" stop-color="#83593d"/><stop offset="0.3" stop-color="#ab784f"/><stop offset="0.43" stop-color="#c38b5a"/><stop offset="0.5" stop-color="#cc925e"/><stop offset="0.64" stop-color="#c98e5b"/><stop offset="0.78" stop-color="#bf8152"/><stop offset="0.93" stop-color="#af6d43"/><stop offset="1" stop-color="#a5603a"/></linearGradient><linearGradient id="linear-gradient-2" x1="-7086.12" y1="170.63" x2="-7252.37" y2="160.63" xlink:href="#linear-gradient"/><linearGradient id="linear-gradient-3" x1="-7234.5" y1="122.73" x2="-7041.01" y2="122.73" gradientTransform="matrix(-1, -0.05, -0.05, 1, -6958.09, -160.14)" gradientUnits="userSpaceOnUse"><stop offset="0" stop-color="#542c28"/><stop offset="0.17" stop-color="#442321"/><stop offset="0.45" stop-color="#2f1619"/><stop offset="0.73" stop-color="#220f14"/><stop offset="0.99" stop-color="#1e0c12"/></linearGradient><linearGradient id="linear-gradient-4" x1="-7254.57" y1="7.41" x2="-7083.39" y2="7.41" xlink:href="#linear-gradient-3"/><clipPath id="clip-path"><path class="cls-1" d="M262.6,153.21c1.13-.23,8.71,67.87-3.79,107.62-12.27,39-63.81,29.29-63.81,29.29L52.83,280.67S-35.5,231.38-15.39,164.16,86.38,84.41,133.08,119.37,262.6,153.21,262.6,153.21Z"/></clipPath></defs><g class="cls-2"><g id="Layer_1" data-name="Layer 1"><path class="cls-3" d="M121.75,139.36s2.74,71.65,5.94,118,22.38,44.8,49.52,52.05,66.23,3.2,80,.86,24.06-14.88,25.68-68.06.74-99.19-9-159.67S190.25,20.2,170.66,33C137.2,55,134,62.59,121.75,139.36Z"/><path class="cls-4" d="M265.2,214c-5.48,65.34-12,83.79-46.57,86.89-3.19.29-31.58,6.13-34.71,6.07-30.81-.52-41.48-22.46-46.23-56.07-13.63-96.58,5-165,5-165C154.7,55.4,168.89,49.05,188,44s21.07-1.09,41.76,3.73C239,49.93,219,51,231,56.9,255.28,68.86,269.28,165.38,265.2,214Z"/><path class="cls-5" d="M278.68,274.92s-20.14,45.34-86.61,26.38c-6-1.72-12.34-.12-18.45,1.37-21.81,5.31-20.35,4.72-40.87,1.53,0,0-2.79,9.12,55.41,46.7,7.93,5.12,2.08,41.36,3.88,54.63,2.07,15.21,7.12,36.3,17.58,35.44,9.9-.81,29,13.53,36.71-42.94,2.25-16.57.54-51.19,10.74-57.23C276.14,329.52,276.91,311.69,278.68,274.92Z"/><path class="cls-6" d="M248.61,329c-9.43,4.46-12.58,14.95-16,27.08-3.86,13.48-1.45,47.63-16.46,44.06s-18.2-40.35-20.23-51.87c-1.76-10-28.8-8.89-36.19-12.83-11-5.88-12.76-21.62-19.91-27.09,26.48,1.51,47.06,3.19,60.46.67,5.67-1.06,15.81-1.65,21.53-1.91,48.86-2.16,55.28-30.26,55.28-30.26.1.94.17,1.87.23,2.79C273.56,303.52,262.88,322.29,248.61,329Z"/><path class="cls-7" d="M262.21,296.3c12.56,5.77-136.95,31.76-186-11.54,0,0-36.27-22,68.7-15.35C242.58,282.9,267.87,270.47,262.21,296.3Z"/><path class="cls-8" d="M76.35,281.55c57.76,36.49,176.35,19,186.13,8.06,1,1.18-.13,6.46-.3,7.24,12.57,5.77-136.95,31.76-186-11.54,0,0-8.22-5-5.5-9.48C72.07,279,76.35,281.55,76.35,281.55Z"/><path class="cls-9" d="M251.17,303.14c13.8-2.34,24.06-14.88,25.68-68.06s-.07-87.52-9.8-148c-4.4-27.4-7-31.62-22.26-43.06,19.33,10.56,25.81,16.25,31,48.71,9.73,60.48,11.42,94.82,9.8,148s-11.88,65.72-25.68,68.06-32.44,10.09-89,10.27c-6.19,0-54.82-13.18-59.5-17.13,2.41,1.15,49.06,7.12,56.15,7.36C195.28,310.22,237.38,305.49,251.17,303.14Z"/><path class="cls-10" d="M263.45,279.76s-40.27,35.91-187.09,1.74c0,0-36.28-22,68.7-15.35Z"/><g class="cls-11"><path class="cls-12" d="M243.57,210.13h0a52.68,52.68,0,0,0,6.45,27.7,43.06,43.06,0,0,0,2.82,4.37,48.05,48.05,0,0,0,9.5,9.65c.59.47,1.2,1,1.82,1.44,5-.22,8.47.32,16-2.47,19.4-7.21,20.45-26.36,20.35-26.9.64-7.5,1.17-14.43,6.48-20.68A23.91,23.91,0,0,1,309.1,201a27.74,27.74,0,0,1,6.94-4.65c-1.28,1.16-10.54,9.83-9.5,22.49,1,11.74,10.08,18.33,13,20.42,12.36,8.94,30.46,8.94,42.4,2.43,20.78-11.32,29-45.65,18.67-73.35a63,63,0,0,0-5.11-10.63C361.79,135.1,334.31,123.4,310,127.05c-25.5,3.83-40.75,23.53-42.78,26.14-15.43,19.92-12.25,39.3-20.78,53.08A28,28,0,0,1,243.57,210.13Z"/><path class="cls-13" d="M225.68,243.32a63.32,63.32,0,0,0,54.45,7.51,48.21,48.21,0,0,1-39-48.82,29.52,29.52,0,0,1-4.88,4.42,74.63,74.63,0,0,1-4.93,26A60.1,60.1,0,0,1,225.68,243.32Z"/><path class="cls-14" d="M247.66,207.5c1.2.78,4.94-3.1,6.19-4.39,9.67-10,19.37-34.05,29.06-44.88,15.88-17.73,44.93-14.68,50.15-14.13,27.72,2.91,43.89,21.41,47.26,25.44a62.58,62.58,0,0,0-5.05-10.62c-13.51-22.64-40.67-34.33-64.73-30.66-25.22,3.84-40.31,23.54-42.31,26.16C253,174.34,256.1,193.72,247.66,207.5Z"/><path class="cls-15" d="M247.66,207.5c1.2.78,4.94-3.1,6.19-4.39,9.67-10,19.37-34.05,29.06-44.88,15.88-17.73,44.93-14.68,50.15-14.13,27.72,2.91,43.89,21.41,47.26,25.44"/><path class="cls-16" d="M30.67,199.07c1.13,2.11,2.55,4.44,4.27,7.25,3.73,1.09,18.09,4.35,20.75-3.94h0c-6.75-4-3.54-9.72-.65-12.2l.3-.26a4.51,4.51,0,0,1,2.16-1.14c1.05-.13,2.11-.2,3.16-.23a83.22,83.22,0,0,0-15.56-1.26c.24,1.25.35,2.92-.62,3.6C42.93,192,32.33,193.41,30.67,199.07Z"/><path class="cls-12" d="M88.48,146.67c-.3-.67-7.87-21.13-18-18.45-4.12,2.38,2.28,16.65,2.28,16.65Z"/><path class="cls-17" d="M28,189.81a21.51,21.51,0,0,1,3.7.39,34.33,34.33,0,0,1,12.71-2.85l1.07,0h0s0,0,0,0a80,80,0,0,1,15.42,1.26h0a32.18,32.18,0,0,1,5.11.31,17.25,17.25,0,0,1-8.53-13.81c-.46-10.1,8.63-18.38,18.43-18.4S94.79,165,94.36,175c-.42,9.47-9.1,16.55-18.08,16.74,1.08.44,2.14.91,3.16,1.41l.41.2A71.67,71.67,0,0,1,95,203.56l.15.13c2-2.64,3.95-5.28,5.89-7.8,13.62,3.73,12.11,17.49,12,18.08,14.24-3.19,8-22.55,7.62-23.2,3.19,1.21,5.21,7.27,6,7.3s2-5.81-2.73-11.62a26.56,26.56,0,0,1-4.91-5.32h0c-4.51-6.45-5-13.15-5.55-15.28a6,6,0,0,0-1.54-2.5c-2-2.2-6-5.2-12.78-11.46-.18-.17-.38-.34-.58-.51a29.37,29.37,0,0,0-9.93-5,79.45,79.45,0,0,0-16.16-3c-5-.46-8.7-.38-8.76-.2-.16.5,3.3,4.37,2.46,5.16s-18,2.88-28.87,16.72C32.15,171.67,26.92,180.75,28,189.81Z"/><path class="cls-12" d="M78.38,227.85a.31.31,0,0,1,0-.08c.74-2.45,7.86-12.78,15.65-23.22l0-.07.39-.53.17-.21c1.92-2.58,3.88-5.14,5.77-7.59a5,5,0,0,1,1.39-.32c4.84-.36,8.76,7.18,9.9,9.39a11.79,11.79,0,0,1,1.51,5,11,11,0,0,1-.3,3.11,9.6,9.6,0,0,0,5.35-2.13c5.55-4.74,3.08-15.62,2.59-17.8-.23-1-.47-1.82-.65-2.37,0-.12-.18-.53,0-.63s.28,0,.39.09a12.62,12.62,0,0,1,3.05,2.52c.81,1,2.46,3,2.52,4.32,0,.14,0,.94.2,1h.06a12.34,12.34,0,0,0,.36-4,12.94,12.94,0,0,0-3.25-7.41,26.2,26.2,0,0,1-3.84-3.75c-.43-.53-.83-1.06-1.19-1.57a.4.4,0,0,1,.26-.08.33.33,0,0,1,.16.05l1.16.36a43.13,43.13,0,0,0,14.46,1.26,9.9,9.9,0,0,0,2.67-.57l.3-.12c10.14-3.87,21.59-23,39.67-29.9l.8-.29c.73-.26,1.45-.5,2.2-.71a38.32,38.32,0,0,1,9.36-1.5h.17a73.18,73.18,0,0,1,14.3,2c28.69,8.37,39,26.38,39,26.38a50.08,50.08,0,0,1,6.43,22.48,65.3,65.3,0,0,1-3.64,27.39s-5.75,15.92-17.84,26.42l-.42.36c-5.67,4.9-10.68,7.18-12.32,7.67a9.15,9.15,0,0,0-4.1,2.59c.37.23.72.48,1.08.75,6.47,4.91,10.27,14.94,6.18,17.37a2.83,2.83,0,0,1-.79.35,7.53,7.53,0,0,1-4.21-.23c-11.78-3.38-49.61-3.43-49.61-3.43a15.08,15.08,0,0,1-2.52-1.17c-6-3.63,2.23-8,10.29-11l1.36-.49.61-.22c2.76-1,5.35-1.74,7.19-2.24l.34-.09a64.69,64.69,0,0,1-21.93-7.15c0,.08,0,.17,0,.25-.7,11.24-.35,9.89-.72,11.33s-2.19,7.65-8.14,9.85l-.42.15a12.47,12.47,0,0,1-2.94.57,128.06,128.06,0,0,1-17.27-.42c-3.19-.25-5.5-.47-5.88-.45s-.52-.78-.29-2.15c.73-4.28,5.94-7.84,10.89-8.92a16.67,16.67,0,0,1,4.7-.32h0a.46.46,0,0,1,0-.1,37.08,37.08,0,0,0-1.22-11.45c-.78.13-1.57.24-2.34.33l-.41.05a47,47,0,0,1-6.23.27c-.75,0-1.5-.05-2.24-.1a52.18,52.18,0,0,1-10-1.64l-.17,0c-13.77-3.66-23.62-12-25.11-15.44a10.36,10.36,0,0,0-1.3-2.15c-3.26-4.3-10-8.05-11.58-9.08,0,0,0,0,0,0S78.33,228,78.38,227.85Z"/><path class="cls-18" d="M109.39,276.05a31.06,31.06,0,0,0,5.09.35c3.25.11,7.25.18,9.3.22.5-2.63,3-7,11.18-8.64l.45-11.77a50.86,50.86,0,0,1-18.66-1.52c1.72,2.76,4,7.56,3.09,12.17C119.77,266.71,110,267.62,109.39,276.05Z"/><path class="cls-16" d="M47.82,217.88A12.73,12.73,0,0,0,50.47,224a14,14,0,0,0,6.41,4.16c3.21,1.26,8.09,3.17,11.26.68a6.06,6.06,0,0,0,1.94-2.74l.18,0c.19-4.17.72-18.58-1.34-19.63,0,.75,0,1.66,0,2.65-.19,6-1.65,15.35-8.91,14.09a11.68,11.68,0,0,1-5-1.87,5.5,5.5,0,0,1-1.72-1.93l0,0a5.18,5.18,0,0,1-.46-1.26h0l-1.59-.06C50,218.05,48.91,218,47.82,217.88Z"/><line class="cls-19" x1="118.96" y1="181.13" x2="118.95" y2="181.13"/><path class="cls-20" d="M30.15,200.12a15.62,15.62,0,0,1,2.43,2.31,15.14,15.14,0,0,1,2.36,3.89c3.73,1.09,18.09,4.35,20.75-3.94h0c-6.75-4-3.54-9.72-.65-12.2l.3-.26a4.51,4.51,0,0,1,2.16-1.14c1.05-.13,2.11-.2,3.16-.23a83.22,83.22,0,0,0-15.56-1.26,53.33,53.33,0,0,0-6.7.77c-3.3.59-3.71,1-6.77,1.5-5,.84-6.44.18-7,1.21C23.47,192.74,27.22,197.73,30.15,200.12Z"/><path class="cls-21" d="M34.21,206.21a8.75,8.75,0,0,0,.89.3c-1.72-2.84-3.14-5.19-4.26-7.33-.05.16-.09.34-.13.53a4.48,4.48,0,0,0-.07.68h0a41.93,41.93,0,0,1-3.75-5.07,22,22,0,0,1-2.06-4.5,2.4,2.4,0,0,0-1.17.33,3.4,3.4,0,0,0-1.32,2.21,9.14,9.14,0,0,0-.32,3,11.48,11.48,0,0,0,1.78,5.32,9.76,9.76,0,0,0,4.51,4.15A9.35,9.35,0,0,0,34.21,206.21Z"/><path class="cls-22" d="M47.52,217.8a1,1,0,0,0,0,.16"/><path class="cls-23" d="M35.11,206.32l.59,1a50.23,50.23,0,0,0,5.66,7.1,14,14,0,0,0,3.79,3c.93.13,1.9.24,2.91.34s2.21.2,3.38.26c.55,0,1.09.06,1.63.08,2.3.07,4.47,0,6.46-.07a33.43,33.43,0,0,1-.87-15.34l0-.15a18.53,18.53,0,0,0-2.64-.29l-.12-.08h0a1.27,1.27,0,0,1-.06.18C53.2,210.71,38.84,207.42,35.11,206.32Z"/><path class="cls-23" d="M59,176.11c.29,6.16,5.77,10.76,11.63,11.19a9,9,0,0,0,1.16,0c6.1-.12,12-4.88,12.28-11.26.29-6.6-5.56-12.08-12-12.35h-.52C64.83,163.73,58.66,169.31,59,176.11Zm11,10.54a8.22,8.22,0,0,1-8-8c-.2-4.83,3.67-8.78,7.85-8.79s8.06,4,7.88,8.77A8.25,8.25,0,0,1,70,186.65Z"/><path class="cls-24" d="M62,178.69a8.22,8.22,0,0,0,8,8,8.25,8.25,0,0,0,7.71-8c.18-4.81-3.69-8.77-7.88-8.77S61.8,173.86,62,178.69Zm1.75-3.54a2.62,2.62,0,1,1,2.67,2.65A2.74,2.74,0,0,1,63.75,175.15Z"/><path class="cls-25" d="M63.75,175.15a2.62,2.62,0,1,0,5.23,0,2.63,2.63,0,1,0-5.23,0Z"/><path class="cls-26" d="M115,276.38a10.45,10.45,0,0,1,7.13-8.41A9.91,9.91,0,0,0,116,276.5l-1-.12Z"/><path class="cls-27" d="M52.6,218.34a36.07,36.07,0,0,1-6.71-10.6,35.78,35.78,0,0,0,7.25,10.08l-.54.52Z"/><path class="cls-12" d="M107.38,166.74c-.07-.25,21.75-10.82,3-37-3.36-3.85-8.38-1-11.12,4.93s-.57,21,.14,22.53Z"/><path class="cls-28" d="M106.37,129.59c14.64,20.4,4.64,31.32-.44,35.24l1.6,1.91c-.07-.24,21.75-10.81,3-37a4.5,4.5,0,0,0-5.49-1.32A5.83,5.83,0,0,1,106.37,129.59Z"/><path class="cls-26" d="M78.38,227.23A39.66,39.66,0,0,0,101,223.1a40.11,40.11,0,0,1-22.66,5.13l.08-1Z"/><path class="cls-29" d="M58,205.19c7.79,1.31,9.4,9.09,9.78,12.25a36.63,36.63,0,0,0,1.33-10.84,35.15,35.15,0,0,0-10.73-4.12C58.18,203.31,58.05,204.21,58,205.19Z"/><path class="cls-30" d="M52.64,218.17a5.49,5.49,0,0,0,2.2,3.28,11.93,11.93,0,0,0,5,1.94c4,.74,6.32-1.74,7.61-5.14.1-.26.19-.53.28-.81-.38-3.16-2-10.94-9.78-12.25,0,.35-.06.72-.09,1.09,0,.82-.08,1.69-.07,2.58a33.25,33.25,0,0,0,1.4,9.24C57.17,218.21,55,218.25,52.64,218.17Z"/><path class="cls-31" d="M52.52,218.06a5.47,5.47,0,0,0,2.19,3.27,12,12,0,0,0,5,1.95,5.9,5.9,0,0,0,6.45-2.82h0s-2.08-8.83-8.17-7.35A33.54,33.54,0,0,0,59.07,218C57.05,218.1,54.85,218.13,52.52,218.06Z"/><path class="cls-32" d="M119,181.24l.18.25c.35.5.74,1,1.15,1.48a28,28,0,0,0,3.62,3.59c4.63,5.63,3.66,11.3,2.83,11.6h0c-.87-.42-2.86-6.11-6-7.28a.38.38,0,0,1,0,.11s0,0-.06,0l-.19-.09c.3.46,3.47,10.13.37,17,0,.1,0,.19.08.27.08.31.13.48.13.48s20.65,3.76,26.37-7.29c13.49-49.21,71-39.15,71-39.15a25.12,25.12,0,0,1,6.55.53c.68.14,1.32.31,1.92.49l-.77-.67a63.15,63.15,0,0,0-6.36-3.86c-1.38-.73-2.53-1.25-4.83-2.3a70.94,70.94,0,0,0-8.77-3.54c-.31-.1-1.43-.44-2.95-.82a54.25,54.25,0,0,0-10.18-1.57c-1.71-.1-3-.08-3.92-.06a43.53,43.53,0,0,0-8.45.95l-1.08.32c-.52.16-.92.32-1.39.47l-.8.29c-18.07,6.86-29.53,26-39.67,29.9l-.3.11a9.19,9.19,0,0,1-2.67.57,43.16,43.16,0,0,1-14.46-1.26l-1.16-.35Z"/><path class="cls-33" d="M135.11,247.53s-17.06.56-26.43-8.83S90.52,234.87,91,237.06s6,13.42,25.72,17.6c14.68,3.14,18.84,1.48,21.44.76"/><path class="cls-33" d="M160.09,248.77s12.79,6.76,23.3,7.91c-.09-.13,4.76,6.73,6.39,8.25,0,0-8.09-.09-8.9-.21s-18.41-4.75-21.42-7.48C159.56,257.45,160.06,250,160.09,248.77Z"/><ellipse class="cls-34" cx="49.1" cy="193.96" rx="0.79" ry="0.62" transform="translate(-146.56 235.74) rotate(-87.85)"/><ellipse class="cls-34" cx="47.91" cy="198.32" rx="0.62" ry="0.79" transform="translate(-32.81 10.94) rotate(-9.72)"/><ellipse class="cls-34" cx="50" cy="202.16" rx="0.62" ry="0.79" transform="translate(-33.43 11.35) rotate(-9.72)"/><path class="cls-35" d="M28.43,189.41h.17a23,23,0,0,0,8.25-4.1c6.24-4.91,6.2-10.5,13.93-20a53.64,53.64,0,0,1,9.91-9.78c13.37-8.91,33.65-.43,39.81,2.4l-1.2-2.06c-.13-.67-.26-1.36-.38-2.05s-.23-1.35-.34-2a18.39,18.39,0,0,0-1.82-1.56,18.7,18.7,0,0,0-7.62-3.31h0a10.24,10.24,0,0,1-1.31-.35c-1.46-.37-3.09-.71-4.94-1.06-1.4-.27-2.87-.53-4.39-.75-1.73-.27-3.4-.47-5-.63-1.33-.18-2.78-.33-4.32-.41s-3.2-.1-4.63-.06A26.93,26.93,0,0,1,66.42,147a1.77,1.77,0,0,1,0,1.41c-.35.89-4.25,1.69-5.23,1.91l-4.32,1.52A46.07,46.07,0,0,0,38,164.4s-.12.14-.23.29C32.63,171.28,27.41,180.36,28.43,189.41Z"/><path class="cls-36" d="M28.72,189.42h.17a23.21,23.21,0,0,0,8.25-4.09c6.24-4.92,6.2-10.51,13.93-20A53.64,53.64,0,0,1,61,155.54c13.37-8.91,33.65-.43,39.81,2.4l-1.2-2.06c-.13-.67-.26-1.36-.38-2s-.23-1.35-.34-2a18.24,18.24,0,0,0-1.82-1.57,18.7,18.7,0,0,0-7.62-3.31h0a10.24,10.24,0,0,1-1.31-.35c-1.46-.36-3.09-.71-4.94-1-1.4-.28-2.87-.53-4.39-.76-1.73-.27-3.4-.47-5-.63-1.33-.18-2.78-.33-4.32-.41s-3.2-.1-4.63-.06A26.93,26.93,0,0,1,66.71,147a1.77,1.77,0,0,1,0,1.41c-.35.89-4.25,1.69-5.23,1.91l-4.32,1.52a46.07,46.07,0,0,0-18.89,12.57s-.12.14-.23.29C32.92,171.29,27.7,180.37,28.72,189.42Z"/><path class="cls-13" d="M217,284a5.47,5.47,0,0,0,2.64-1.77v0c2-3.53-1.53-11.77-7.11-16.06q-.52-.4-1-.75a9,9,0,0,1,4-2.56c1.61-.49,6.6-2.81,12.21-7.77l.25-.22c15.9-14.36,20.12-36.57,20.12-36.57A54.43,54.43,0,0,0,247,188.75a44.5,44.5,0,0,0-8.1-15,43.87,43.87,0,0,0-12.79-10.49c16.9,36.62,5.88,71.2-13.73,80-15.69,7-34.49-3.53-38.69-6a75.7,75.7,0,0,0,15.83,28.46c-8.26,5.25-12,6.59-13.76,6.65a21,21,0,0,0-3,.28,22.63,22.63,0,0,0-3.77,1c-2.57.94-7.64,3.68-7.35,5.45s6.08,1.8,14.18,2.68C175.9,281.7,212,285.62,217,284Z"/><ellipse class="cls-34" cx="26.27" cy="195.81" rx="0.47" ry="0.37" transform="translate(-170.38 214.72) rotate(-87.85)"/><ellipse class="cls-34" cx="26.74" cy="198.46" rx="0.47" ry="0.37" transform="translate(-172.28 176.31) rotate(-75.97)"/><ellipse class="cls-34" cx="25.22" cy="200.52" rx="0.47" ry="0.37" transform="translate(-175.43 176.39) rotate(-75.97)"/><path class="cls-26" d="M100.78,195.88c8.53,1.89,13.32,9.64,12.54,18.15l-.51-.48c10.09-2,10.11-13.91,7.64-21.83-.17-.57-.49-1.25-.69-1.76l1,.38c3.1,1.36,4.15,4.8,6,7.32,0,0,0,0,0,0s-.12,0-.13,0a2.73,2.73,0,0,0,.36-1c.57-3.59-1-7.31-3.21-10.14-1.86-2-4.19-4.07-5.54-6.57a9,9,0,0,0,1.28,1.73c1.44,1.61,3,3.11,4.58,4.58,2.45,2.88,4.12,6.67,3.62,10.53-.29,1.81-1.24,2.23-2.2.48a32.07,32.07,0,0,0-3-4.6,5.55,5.55,0,0,0-2-1.54l.54-.67a27.14,27.14,0,0,1,1.46,14.08,11.83,11.83,0,0,1-10,9.9l.08-.61c.94-8.23-3.6-15.74-11.71-18Z"/><path class="cls-26" d="M105,165a.55.55,0,0,1,.22-.56,19.76,19.76,0,0,0,6.09-6.7c3-5.46,2.66-12.15.55-17.89a45.39,45.39,0,0,0-4.08-8.38,3.26,3.26,0,0,0-2.93-1.47c-3,.56-4.76,3.81-5.67,6.47-.9,5.43-.31,11,0,16.51a96.64,96.64,0,0,1-.57-14.73,11.3,11.3,0,0,1,2.94-6.73c1.19-1.38,3.3-2.58,5.12-1.58a4.66,4.66,0,0,1,1.46,1.29,46.08,46.08,0,0,1,4.25,8.41c3.62,9,2,19.37-6.17,25.28-.08,0-.33.25-.4.29s.06-.07.07-.08.12-.26,0-.37l-1,.24Z"/><path class="cls-26" d="M137.67,256a43.89,43.89,0,0,0-10.29-19.53,44.38,44.38,0,0,1,11.26,19.28l-1,.25Z"/><path class="cls-26" d="M150.46,227.26c9.41,5.55,10,21.53,8.88,31.23l-.66,4.79c.39-11,1.38-28.58-8.22-36Z"/><path class="cls-26" d="M181.17,205.28c-7.75,8.18-10,20.42-7.25,31.16,1.86,8.12,6.05,15.66,10.78,22.48,1.2,1.71,3.74,5.1,5.05,6.73-1.43-1.56-4.15-4.77-5.45-6.44-5.08-6.73-9.38-14.27-11.35-22.54-2.7-10.92-.26-23.63,8.22-31.39Z"/><path class="cls-26" d="M329.26,231.61c14.06.41,28.2-7.05,33.39-20.48a35.11,35.11,0,0,0,2.13-16c-.72-9.63-4.89-19-12.39-25.2-11-9.79-27.09-11.71-40.71-6.94a35.85,35.85,0,0,0-17.37,12.31c-12,15.6-11.3,37.61-24.16,52.66a30.51,30.51,0,0,1-19.08,9.88,30.93,30.93,0,0,0,23-16c7.18-12.8,8.65-27.91,15.63-40.82a40.07,40.07,0,0,1,11.85-13.91c17.49-12,43.34-9.8,56.54,7.53,7.79,9.85,9.8,25.1,5.17,36.73-5.43,13.62-19.72,20.88-34,20.25Z"/><path class="cls-26" d="M229.87,246.05a67.51,67.51,0,0,0,30.2,7.53c10.41.67,21.06-2.25,29-9.17,8.07-6.75,12.23-17.18,12-27.59a24.14,24.14,0,0,1,8.49-16.72c6.47-5.75,15.92-7.17,24.11-4.87,4.1,1.14,8.11,3.58,10.07,7.49,4,7.77.52,19.55-9.6,19a10.27,10.27,0,0,1-6-2.1c-3.45-2.79-2.94-9.29,1.84-10.2a7.46,7.46,0,0,1,6,1.39c-3.28-2.58-9.36-1.73-9.76,3-.71,7.14,8.9,9.1,13.79,5.86,5.24-3.5,5.76-11.38,3.05-16.63-1.91-3.68-5.72-5.94-9.62-7-7.91-2.18-17-.81-23.25,4.76A24,24,0,0,0,301.93,220a35.2,35.2,0,0,1-12.31,25c-8.1,7-19,9.86-29.57,9.08a66.88,66.88,0,0,1-30.18-8.09Z"/><path class="cls-26" d="M129.49,278.73c.19-5.07,6.08-6.72,10.46-7l-1.67.3c-3.42.68-7.78,2.49-7.82,6.55a1.57,1.57,0,0,1-.1.63l-.87-.51Z"/><path class="cls-26" d="M161,278.22c3.75-4.56,9.71-6.78,15.51-6.72a24,24,0,0,0-4.24.62,18.3,18.3,0,0,0-10.47,6.7l-.8-.6Z"/><path class="cls-28" d="M70.7,129.83c8.44-2.34,14.93,13.17,16.52,17.27l1.15.14c-.27-.65-7.34-20.91-16.9-18.24A2.28,2.28,0,0,0,70.7,129.83Z"/><path class="cls-37" d="M56.86,175.07a17.23,17.23,0,0,0,8.44,13.66l.15.09.09.06h0A43.72,43.72,0,0,1,76,191.75h0a3.1,3.1,0,0,0,.43,0c8.12-.35,15.88-6.11,17.6-14.1,0-.14,0-.28.08-.42,0-.29.09-.58.14-.86,0-.44.09-.88.11-1.32s0-1,0-1.46-.07-.9-.13-1.33l-.06-.44c-1.36-8.27-9.17-14.7-17.73-15.1-.29,0-.57,0-.86,0C65.62,156.69,56.38,165,56.86,175.07Zm15,12.28h-.11a9,9,0,0,1-1.16,0c-5.86-.49-11.33-5.06-11.61-11.19-.32-6.8,5.9-12.38,12.61-12.39H72c6.56.21,12.53,5.71,12.24,12.35C84,182.46,78,187.23,71.87,187.35Z"/><path class="cls-12" d="M55.55,202.54h0l.11.07a18.46,18.46,0,0,1,2.64.27h0a34.89,34.89,0,0,1,10.57,4c2.07,1.06,1.54,15.47,1.35,19.63l1.11.23a56.9,56.9,0,0,0,7.51,1.09h.2c-.1-.78,2-4.39,5.34-9.34.13-.2.26-.4.4-.6,2.8-4.19,6.37-9.25,10.06-14.32l.09-.12a72.11,72.11,0,0,0-15.34-10.06l-.41-.2c-1.09-.52-2.22-1-3.38-1.46h0a43.18,43.18,0,0,0-10.4-2.76h0a31.32,31.32,0,0,0-8.32,0,4.14,4.14,0,0,0-1.94,1l-.3.26C52,192.71,48.8,198.47,55.55,202.54Z"/><path class="cls-38" d="M48.89,193.46c11-5,23.51-5.71,35.31-3.91,1.69.27,3.37.63,5,.94-1.69-.27-3.37-.59-5.07-.82-10.94-1.4-22.43-.66-32.67,3.68-.67.28-1.37.62-2,.93a4.08,4.08,0,0,1-.42.17l-.17-1Z"/><path class="cls-38" d="M47.75,197.89c9.54-4.36,20.45-4.93,30.71-3.34,1.47.23,2.93.55,4.39.82-1.47-.23-2.94-.51-4.41-.7-9.87-1.24-20.27-.5-29.38,3.7a11.57,11.57,0,0,1-1.14.5l-.17-1Z"/><path class="cls-38" d="M50,201.67c9.59-4.35,20.61-4.35,30.75-2.14-1.29-.2-2.57-.44-3.87-.61-8.79-1.08-18.07-.37-26.14,3.5a4.87,4.87,0,0,1-.57.24l-.17-1Z"/><path class="cls-15" d="M135.46,256.43a51.59,51.59,0,0,1-19-1.66"/><path class="cls-15" d="M233.91,248.13A65.7,65.7,0,0,0,244.34,231a67.42,67.42,0,0,0,5.3-26.44l-.22-6"/><path class="cls-15" d="M135.25,256.46,134.82,268l.14,0,.16,0a34,34,0,0,1,4.22-.57h0s0-.05,0-.1a37.44,37.44,0,0,0-1.2-11.45l-.27,0-1.23.18C135.9,256.25,135.25,256.46,135.25,256.46Z"/><path class="cls-39" d="M85.19,145.27c-.2-.47-5.58-15-12.8-13.09C69.47,133.87,74,144,74,144Z"/><path class="cls-1" d="M85.62,145.28c-.21-.47-5.58-15-12.8-13.08C69.9,133.89,74.44,144,74.44,144Z"/><path class="cls-15" d="M89.33,146.7a120.48,120.48,0,0,0-17.49-3.21"/><path class="cls-39" d="M105.81,159.68c0-.15,13.89-6.9,1.88-23.62-2.14-2.46-5.35-.62-7.1,3.15s-.37,13.39.09,14.39Z"/><path class="cls-1" d="M105.83,160.26c0-.15,13.9-6.91,1.89-23.63-2.15-2.45-5.36-.62-7.1,3.16s-.37,13.39.08,14.39Z"/><path class="cls-40" d="M22.17,193.2A3.38,3.38,0,0,1,23.48,191a2.4,2.4,0,0,1,1.17-.33h0a3.58,3.58,0,0,1-.09-.45,6,6,0,0,1,1.83-.58,8.47,8.47,0,0,1,1.12-.1h.24c-1-9,4.24-18.05,9.38-24.61C48,151.08,65.17,149,66,148.19a.54.54,0,0,0,.12-.47,8.32,8.32,0,0,0-.88-1.88c-.78-1.24-1.79-2.53-1.7-2.8s3.52-.25,8.35.16c-1.51-3.73-5-13.24-1.65-15.14a7.27,7.27,0,0,1,4.34.19c7.59,2.05,13.1,15.63,14.07,18.07A29.59,29.59,0,0,1,98.09,151a69.24,69.24,0,0,1-.4-7.81c0-3.36.38-6.57,1.34-8.65,1.93-4.16,5-6.81,7.8-6.67a4.6,4.6,0,0,1,3.48,1.74c13,18,6.62,28.66,1.45,33.61a5.94,5.94,0,0,1,1.54,2.49c.55,2.13,1,8.83,5.55,15.28h0l0,.05c0-.06.09-.11.11-.11l.15.06c.37.12.75.24,1.16.35a42.77,42.77,0,0,0,14.4,1.26,9.2,9.2,0,0,0,2.66-.57l.3-.11c10.1-3.87,21.5-23,39.51-29.91l.8-.29c.72-.26,1.44-.5,2.18-.71a38.16,38.16,0,0,1,9.33-1.5h.17a75.92,75.92,0,0,1,14.24,2c30.44,8.93,40.35,29,40.35,29A49.59,49.59,0,0,1,249,198.12h0c.08.61.14,1.21.2,1.81,5-13.1,4.53-29.8,17.78-46.91,2-2.61,17.28-22.31,42.78-26.14,24.33-3.65,51.82,8,65.49,30.69a63,63,0,0,1,5.11,10.63c10.32,27.69,2.12,62-18.67,73.35-11.94,6.51-30,6.51-42.4-2.43a37.24,37.24,0,0,1-7-6.34c-.76-.9-7.75-10.34-5.23-22,1.2-5.59,4.34-10.51,6.52-12.08.16-.11,1.3-.92,1.24-1a12,12,0,0,0-2.54,1.25,19.19,19.19,0,0,0-5.85,5.64,24.31,24.31,0,0,0-3.51,7.6,31.2,31.2,0,0,0-.92,4.25,30.76,30.76,0,0,0-.33,4.75c0,5.63-3.11,11.79-3.74,13a35.44,35.44,0,0,1-6.71,9.34,36.64,36.64,0,0,1-11.17,7.3,38,38,0,0,1-6.29,2c-4.63,1.07-8.16,1-13.58.82a67.73,67.73,0,0,1-10.38-.89A63.51,63.51,0,0,1,239.23,250c-1.83-.64-3.57-1.33-5.18-2l-.26.32a55,55,0,0,1-6,6.38l-.25.22c-5.61,5-10.59,7.28-12.21,7.77a8.83,8.83,0,0,0-3.65,2.2l.6.44a21.16,21.16,0,0,1,7.46,11.78,7,7,0,0,1-.25,4.95v0l-.5.5a3,3,0,0,1-.81.69,2.57,2.57,0,0,1-.69.32l-.64.26c-4.6,1.79-8.76.82-11.72.34-3.86-.63-1.44.26-11.69-.53-11.93-.91-24.28-2.8-29.87-3.7-.46-.17-.83-.35-1.11-.45a3,3,0,0,1-.51-.24q-.49-.24-.9-.48c-2.33-1.42-2.5-2.94-1.37-4.45,1.49-2.5,6.7-5,11.86-6.92l1.36-.49.61-.22c2.45-.86,4.76-1.57,6.53-2.07l-.09,0a64.3,64.3,0,0,1-20.81-6.89c-.67,11-.34,9.65-.7,11.08a17.13,17.13,0,0,1-2.61,5.56A12,12,0,0,1,150,279l-.42.15a12.47,12.47,0,0,1-2.94.57,128.06,128.06,0,0,1-17.27-.42c-3.19-.25-5.5-.47-5.88-.45s-.52-.86-.28-2.15a.69.69,0,0,1,0-.13c-1.1,0-6.16-.11-9-.21a31.08,31.08,0,0,1-5.07-.35,9.56,9.56,0,0,1,.43-2.25c1.82-6.15,9.19-7.14,10-7.1a18.39,18.39,0,0,0-2.93-11.78l-.26-.06-.17,0a58.23,58.23,0,0,1-7.49-2.57,39,39,0,0,1-10.52-5.82c-3.89-2.76-6.41-5.44-7.1-7a10.36,10.36,0,0,0-1.3-2.15c-3.25-4.3-10-8.05-11.58-9.08,0,0,0,0,0,0s0-.26,0-.41a.13.13,0,0,1,0-.08v0a61.08,61.08,0,0,1-7-1.05l-1.11-.23v-.14L70,226.1a24.13,24.13,0,0,1-1.93,2.74c-3.16,2.48-8,.58-11.22-.68A16.43,16.43,0,0,1,52,225.5a11,11,0,0,1-1.68-1.67,12.6,12.6,0,0,1-2.63-6c-.49-.09-1.78-.34-2.46-.43a11.9,11.9,0,0,1-1.39-.87,14.38,14.38,0,0,1-2.63-2.31,51.2,51.2,0,0,1-5.66-7.1l-.49-.8-.13,0,0,0-.25-.07-.36-.06a11.23,11.23,0,0,1-5.88-.38,7,7,0,0,1-.95-.48,10,10,0,0,1-3.86-3.84,11.6,11.6,0,0,1-1.78-5.32A8.94,8.94,0,0,1,22.17,193.2Z"/><path class="cls-41" d="M36.35,204.12c1.26-.13,2.57-2.23,5-4.74,2.77-2.9,4.93-3.61,6.26-5.28,1.49-2-5.14-5.86-11.65-5.85-6.15,0-9.06,2-8.67,4.37S32.21,204.25,36.35,204.12Z"/><path class="cls-42" d="M29.12,191c4.78-2.38,11.5-1.68,16.49-.07a19.18,19.18,0,0,0-9.69-2.69c-6.15,0-9.06,2-8.67,4.37a17.91,17.91,0,0,0,1.19,2.46C28,192.91,28.12,191.63,29.12,191Z"/><path class="cls-43" d="M45.57,190.91c1.25,2.49-4,3.69-6.23,5.71-1.67,1.53-2.52,4.6-4.33,4.71-2.63-.11-4.93-4.38-7.54-7.86,1,3.21,5.13,10.77,8.88,10.65,1.26-.13,2.57-2.23,5-4.74,2.77-2.9,4.93-3.61,6.26-5.28C48.22,193.24,47.33,192,45.57,190.91Z"/><path class="cls-44" d="M36.52,188.37h-.66c-3.94,0-6.88.81-8.08,2.22a2.14,2.14,0,0,0-.53,1.8c.37,2.3,4.91,11.48,8.86,11.63h.17c.7-.07,1.65-1.17,2.85-2.56.59-.68,1.25-1.44,2-2.25a26,26,0,0,1,4.12-3.46,11.37,11.37,0,0,0,2.4-2c.1-.13.21-.35,0-.78C46.88,191.25,42,188.57,36.52,188.37Z"/><path class="cls-45" d="M22,196.2a.51.51,0,0,1,0-.13A7.13,7.13,0,0,1,22,195s-3.66-2.7.19-1.27a5.87,5.87,0,0,1,.14-.65,3.42,3.42,0,0,1,1.32-2.22,2.43,2.43,0,0,1,1.17-.34h0c0-.15-.06-.3-.08-.44a5.77,5.77,0,0,1,1.83-.59,8.81,8.81,0,0,1,1.13-.11h.23c-1-9.09,4.25-18.2,9.4-24.81,10.86-13.95,28.08-16.06,28.93-16.86a.58.58,0,0,0,.12-.48,8.37,8.37,0,0,0-.88-1.89c-.79-1.25-1.79-2.55-1.7-2.82s3.52-.26,8.36.16c-1.51-3.76-5-13.34-1.65-15.27a7.27,7.27,0,0,1,4.34.2c7.61,2.06,13.13,15.74,14.1,18.2a36.89,36.89,0,0,1,5.62,2.3c.41.2.82.42,1.24.67a21.08,21.08,0,0,1,2.58,1.73,70.51,70.51,0,0,1-.4-7.88c0-3.38.38-6.61,1.35-8.71,1.93-4.19,5-6.86,7.81-6.73a4.39,4.39,0,0,1,2.88,1.18,5.38,5.38,0,0,1,.78.74c13,18.17,6.63,28.88,1.45,33.87a6,6,0,0,1,1.54,2.51c.55,2.13,1,8.8,5.46,15.25,0,0,0-.07.07-.07l.15.05c.37.12.75.25,1.16.36A42.65,42.65,0,0,0,135,182.34a9.56,9.56,0,0,0,2.66-.58l.3-.11c10.12-3.91,21.55-23.23,39.58-30.15.27-.11.53-.2.8-.29q1.08-.41,2.19-.72A37.79,37.79,0,0,1,189.9,149h.17a75.35,75.35,0,0,1,14.27,2c19.89,5.86,31,16.51,36.32,23.22a32.21,32.21,0,0,1,2.79,3.85c.88,1.37,1.3,2.2,1.3,2.2a47.42,47.42,0,0,1,3.14,8.41,52.92,52.92,0,0,1,1.75,8.93c.06.41.1.82.15,1.23l.13-.44,0,.84c4.78-13.11,4.54-29.69,17.62-46.67,2-2.63,17.31-22.49,42.85-26.36,18.34-2.77,38.46,3.22,53.13,16.07a62.32,62.32,0,0,1,12.64,15A63.4,63.4,0,0,1,381.31,168c10.33,27.91,2.1,62.51-18.72,73.93-12,6.55-30.88,7.43-43.25-1.57a43.4,43.4,0,0,1-4.13-3.34c-.94-.87-13.18-10.06-6.57-33.63-8.85,9.67-4.5,18.86-10,30.89l-.05.1c-.23.47-.47.9-.71,1.33a30.4,30.4,0,0,1-16.58,15.16l-.62.29a38.16,38.16,0,0,1-6.31,2,34.49,34.49,0,0,1-6.71.89,67.19,67.19,0,0,1-7,.1l-1.71-.06h-.14a60.06,60.06,0,0,1-18.5-3.52q-3-1-5.54-2.18l-.49.59a54.77,54.77,0,0,1-5.77,6.18l-.25.22c-5.62,5-10.62,7.34-12.24,7.83a9,9,0,0,0-3.63,2.21l.4.29a21.94,21.94,0,0,1,6.75,9.4c1.27,3,1.63,5.88.65,7.62l0,0a4.44,4.44,0,0,1-.62.65l0,0h0a3.28,3.28,0,0,1-.64.53,3.23,3.23,0,0,1-.8.35h0c-.17.07-.31.16-.5.22a7.71,7.71,0,0,1-1.49.26c-4.08,1.17-7.75.36-10.43-.08h0l-3.51-.2a71.87,71.87,0,0,1-8.2-.33c-6.78-.52-13.7-1.36-19.44-2.15-6.68-.66-11.4-.83-12.18-2.24-.21-.12-.45-.23-.64-.35a5.86,5.86,0,0,1-1-.79,2.53,2.53,0,0,1-.51-3.86c1.49-2.51,6.72-5,11.89-7l1.36-.5c.2-.07.4-.15.61-.21,2.36-.84,4.57-1.53,6.32-2a64.4,64.4,0,0,1-20.69-6.95c0,.5-.07,1-.12,1.53-.46,8-.33,8.3-.5,9.09a4.28,4.28,0,0,1-.19,1c-.32,1.29-2.19,7.71-8.15,9.93l-.42.15a13,13,0,0,1-3,.58,128.48,128.48,0,0,1-17.3-.43c-3.19-.25-5.5-.47-5.89-.45-.06,0-.13-.06-.19-.17-.28,0-.5-.88-.27-2.16a.5.5,0,0,0,0-.12c-1.9,0-5-.09-7.75-.18h0l-1,0-1.18,0a21.7,21.7,0,0,1-4.14-.32,9.73,9.73,0,0,1,.43-2.27c1.83-6.2,9.21-7.19,10-7.16A18.54,18.54,0,0,0,117,255.37l-.15,0-.18-.05a57.43,57.43,0,0,1-7.82-2.74,38.54,38.54,0,0,1-10.36-5.83c-1-.71-1.87-1.41-2.67-2.09l0,0c-.28-.24-.56-.48-.81-.71a14.55,14.55,0,0,1-3.62-4.31A10.75,10.75,0,0,0,90,237.4a21.58,21.58,0,0,0-2.85-3,64.93,64.93,0,0,0-8.57-6l0,0s0,0,0-.06l-.14-.08,0,0c-.08-.09,0-.24,0-.38a59.52,59.52,0,0,1-6.81-1l-1.12-.23v-.12l-.18,0v-.14l0,0a5.84,5.84,0,0,1-6.07,3.95,22.15,22.15,0,0,1-7.15-1.9l-1.16-.47-.13-.06a16.44,16.44,0,0,1-2.42-1.26h0a11.28,11.28,0,0,1-1.77-1.41,12.32,12.32,0,0,1-1.1-1.16,12.63,12.63,0,0,1-2.62-6c-.47-.09-1.66-.31-2.37-.42l-.16,0a12.67,12.67,0,0,1-2.63-1.88,17,17,0,0,1-1.34-1.32,51.23,51.23,0,0,1-5.67-7.15l-.47-.79h0l.11.17a8.15,8.15,0,0,1-.86-.28l-.37.06a9.23,9.23,0,0,1-5.58-.46,8.13,8.13,0,0,1-2.08-1.31c-.24-.18-.43-.37-.64-.56s-.21-.2-.31-.3a13.24,13.24,0,0,1-1.66-2.18,11.33,11.33,0,0,1-.73-1.38s-3.26-2.09-.39-1a11.19,11.19,0,0,1-.43-1.53S18.58,195.1,22,196.2Z"/><path class="cls-38" d="M26.15,196.3c-6.89-4.07-15.18-5.07-23-4.24a49.57,49.57,0,0,1,6-.51,35.07,35.07,0,0,1,17.12,3.66l.17.09,0,0-.25,1Z"/><path class="cls-38" d="M26.62,198.92A31.38,31.38,0,0,0,9.19,195c-.87,0-1.73.12-2.59.18A39.65,39.65,0,0,1,17,194.93a28.28,28.28,0,0,1,9.86,3s0,0,0,0l-.24,1Z"/><path class="cls-38" d="M25.17,201c-5.24-3.13-11.52-3.95-17.52-3.35,5.63-.86,11.62-.53,16.85,1.91l.9.46s-.24,1-.23,1Z"/></g></g></g></svg>