<svg xmlns="http://www.w3.org/2000/svg" xmlns:xlink="http://www.w3.org/1999/xlink" viewBox="0 0 185.46 205.85"><defs><style>.cls-1,.cls-15,.cls-19,.cls-22,.cls-34,.cls-36,.cls-40,.cls-44,.cls-45{fill:none;}.cls-2{isolation:isolate;}.cls-3{fill:#775a07;}.cls-4{fill:#211201;}.cls-5,.cls-6{mix-blend-mode:multiply;opacity:0.5;}.cls-5{fill:url(#linear-gradient);}.cls-6{fill:url(#linear-gradient-2);}.cls-7{fill:#724526;}.cls-8,.cls-9{opacity:0.39;}.cls-8{fill:url(#linear-gradient-3);}.cls-9{fill:url(#linear-gradient-4);}.cls-10{fill:#916b0c;}.cls-11{clip-path:url(#clip-path);}.cls-12,.cls-17{fill:#bc7b18;}.cls-13{fill:#bc6b00;}.cls-14,.cls-35,.cls-37{fill:#fedcae;}.cls-14,.cls-15,.cls-36,.cls-37,.cls-40,.cls-44{stroke:#894f1a;}.cls-14,.cls-15,.cls-17,.cls-19,.cls-22,.cls-34,.cls-36,.cls-37,.cls-39,.cls-40,.cls-44,.cls-45{stroke-miterlimit:10;}.cls-16{fill:#ffbe72;}.cls-17,.cls-39{stroke:#bc7b18;}.cls-18{fill:#e07e1e;}.cls-19,.cls-22{stroke:#231f20;}.cls-20{fill:#f3d9ab;}.cls-21{fill:#f3daac;}.cls-22,.cls-44{stroke-width:0.25px;}.cls-23{fill:#f6f6f6;}.cls-24{fill:#3d3123;}.cls-25{fill:#fff;}.cls-26{fill:#894f1a;}.cls-27{fill:#231f20;}.cls-28{fill:#af6104;}.cls-29{fill:#874207;}.cls-30{fill:#9e4808;}.cls-31{fill:#f76f6f;}.cls-32,.cls-33{fill:#f2dcad;}.cls-32{mix-blend-mode:screen;opacity:0.2;}.cls-34{stroke:#800001;}.cls-36,.cls-37{stroke-width:0.5px;}.cls-38{fill:#911919;}.cls-39{fill:#cc821f;}.cls-40{stroke-width:0.75px;}.cls-41{fill:#7f0000;}.cls-42{fill:#ce4545;}.cls-43{fill:#590000;}.cls-45{stroke:#512e11;}</style><linearGradient id="linear-gradient" x1="-6691.64" y1="41.26" x2="-6757.14" y2="37.32" gradientTransform="matrix(1, -0.05, 0.05, 1, 6776.78, -195.11)" gradientUnits="userSpaceOnUse"><stop offset="0" stop-color="#563628"/><stop offset="0.15" stop-color="#83593d"/><stop offset="0.3" stop-color="#ab784f"/><stop offset="0.43" stop-color="#c38b5a"/><stop offset="0.5" stop-color="#cc925e"/><stop offset="0.64" stop-color="#c98e5b"/><stop offset="0.78" stop-color="#bf8152"/><stop offset="0.93" stop-color="#af6d43"/><stop offset="1" stop-color="#a5603a"/></linearGradient><linearGradient id="linear-gradient-2" x1="-6681.79" y1="32.94" x2="-6756.33" y2="28.46" xlink:href="#linear-gradient"/><linearGradient id="linear-gradient-3" x1="-6748.32" y1="11.46" x2="-6661.56" y2="11.46" gradientTransform="matrix(1, -0.05, 0.05, 1, 6776.78, -195.11)" gradientUnits="userSpaceOnUse"><stop offset="0" stop-color="#542c28"/><stop offset="0.17" stop-color="#442321"/><stop offset="0.45" stop-color="#2f1619"/><stop offset="0.73" stop-color="#220f14"/><stop offset="0.99" stop-color="#1e0c12"/></linearGradient><linearGradient id="linear-gradient-4" x1="-6757.32" y1="-40.24" x2="-6680.56" y2="-40.24" xlink:href="#linear-gradient-3"/><clipPath id="clip-path"><path class="cls-1" d="M37.9,53.24c-.59-.15-6,36-.13,57.37,5.75,21,33.39,16.88,33.39,16.88L147,125.3s48-24.48,38.66-60.68-52.6-44.49-78.16-26.81S37.9,53.24,37.9,53.24Z"/></clipPath></defs><g class="cls-2"><g id="Layer_1" data-name="Layer 1"><path class="cls-3" d="M99.59,59s-1.22,32.12-2.66,52.89-10,20.09-22.2,23.34-29.7,1.44-35.89.38-10.79-6.67-11.52-30.52-.33-44.47,4-71.59S68.88,5.53,77.66,11.28C92.67,21.11,94.1,24.53,99.59,59Z"/><path class="cls-4" d="M35.27,92.44c2.46,29.29,5.37,37.56,20.88,39,1.44.12,14.16,2.74,15.57,2.72C85.53,133.88,90.32,124,92.44,109c6.12-43.3-2.23-74-2.23-74C84.82,21.31,78.46,18.46,69.9,16.21s-9.44-.49-18.72,1.67C47,18.86,56,19.35,50.62,22,39.72,27.35,33.44,70.63,35.27,92.44Z"/><path class="cls-5" d="M29.22,119.74s9,20.33,38.84,11.83c2.71-.77,5.53,0,8.27.61,9.78,2.38,9.13,2.12,18.33.69,0,0,1.25,4.09-24.85,20.94-3.55,2.29-.93,18.55-1.74,24.49-.92,6.82-3.19,16.28-7.88,15.9-4.43-.37-13,6.06-16.46-19.26-1-7.43-.24-22.95-4.81-25.66C30.37,144.22,30,136.23,29.22,119.74Z"/><path class="cls-6" d="M42.71,144c4.23,2,5.64,6.7,7.19,12.14,1.73,6,.65,21.36,7.38,19.76s8.16-18.09,9.07-23.26c.79-4.5,12.92-4,16.23-5.76,4.94-2.63,5.72-9.69,8.93-12.14-11.87.67-21.1,1.43-27.11.3a86.86,86.86,0,0,0-9.66-.86c-21.9-1-24.78-13.57-24.78-13.57-.05.43-.08.84-.11,1.25C31.52,132.57,36.31,141,42.71,144Z"/><path class="cls-7" d="M36.61,129.33C31,131.92,98,143.57,120,124.15c0,0,16.27-9.85-30.8-6.88C45.41,123.32,34.07,117.75,36.61,129.33Z"/><path class="cls-8" d="M120,122.72c-25.9,16.36-79.08,8.51-83.46,3.61-.47.53.06,2.89.13,3.24C31,132.16,98,143.82,120,124.4c0,0,3.69-2.23,2.47-4.25A7.35,7.35,0,0,1,120,122.72Z"/><path class="cls-9" d="M41.56,132.4c-6.19-1.06-10.79-6.68-11.51-30.52s0-39.24,4.39-66.36c2-12.29,3.14-14.18,10-19.31-8.67,4.73-11.57,7.28-13.91,21.84-4.36,27.12-5.12,42.52-4.39,66.36s5.32,29.47,11.51,30.52,14.54,4.52,39.9,4.6c2.78,0,24.58-5.91,26.68-7.68-1.08.52-22,3.19-25.18,3.3C66.62,135.57,47.75,133.45,41.56,132.4Z"/><path class="cls-10" d="M36.06,121.91s18,16.1,83.89.78c0,0,16.26-9.85-30.81-6.88Z"/><g class="cls-11"><path class="cls-12" d="M46.9,83.92h0a28.08,28.08,0,0,1-4,14.62,24.63,24.63,0,0,1-1.59,2.27,25.79,25.79,0,0,1-5.25,5l-1,.73c-2.64-.22-4.52,0-8.46-1.64A16.5,16.5,0,0,1,16.32,90.14c-.19-4-.34-7.71-3-11.15a13.09,13.09,0,0,0-1.09-1.22,14.92,14.92,0,0,0-3.61-2.62c.66.65,5.42,5.45,4.61,12.17-.74,6.23-5.73,9.56-7.31,10.61-6.76,4.51-16.4,4.15-22.63.45C-27.59,91.94-31.27,73.49-25.22,59a34.3,34.3,0,0,1,2.93-5.56c7.74-11.78,22.6-17.46,35.49-15,13.5,2.55,21.23,13.35,22.25,14.78,7.82,10.91,5.74,21.16,10,28.67A14.65,14.65,0,0,0,46.9,83.92Z"/><path class="cls-13" d="M55.75,102a33.74,33.74,0,0,1-29.14,2.9A26.07,26.07,0,0,0,42,96.48a26.11,26.11,0,0,0,6.42-16.83,15.81,15.81,0,0,0,2.51,2.45A39.79,39.79,0,0,0,53,96,33,33,0,0,0,55.75,102Z"/><path class="cls-14" d="M44.77,82.44c-.65.39-2.57-1.75-3.21-2.46-5-5.51-9.63-18.52-14.57-24.48C18.89,45.74,3.36,46.79.57,47A38.87,38.87,0,0,0-25.11,59.58,34.15,34.15,0,0,1-22.21,54,35.06,35.06,0,0,1,12.88,39c13.35,2.55,21,13.35,22,14.78C42.61,64.68,40.55,74.93,44.77,82.44Z"/><path class="cls-15" d="M44.77,82.44c-.65.39-2.57-1.75-3.21-2.46-5-5.51-9.63-18.52-14.57-24.48C18.89,45.74,3.36,46.79.57,47A38.87,38.87,0,0,0-25.11,59.58"/><path class="cls-16" d="M160.47,82.29c-.64,1.11-1.44,2.32-2.41,3.78-2,.5-9.72,2-11-2.51h0c3.68-2,2.09-5.1.6-6.48l-.16-.14a2.38,2.38,0,0,0-1.12-.65c-.56-.09-1.12-.15-1.68-.19a44.36,44.36,0,0,1,8.3-.36c-.15.67-.24,1.55.26,1.93C154.09,78.27,159.7,79.24,160.47,82.29Z"/><path class="cls-12" d="M130.74,53.24c.17-.35,4.61-11.1,10-9.47,2.15,1.35-1.55,8.83-1.55,8.83Z"/><path class="cls-17" d="M162.11,77.42a10.89,10.89,0,0,0-2,.13,18.23,18.23,0,0,0-6.71-1.77l-.57,0h0v0a42,42,0,0,0-8.24.36h0a17.73,17.73,0,0,0-2.73.06A9.18,9.18,0,0,0,146.69,69c.45-5.37-4.23-10-9.45-10.17s-10.23,4-10.2,9.4c0,5,4.52,9,9.3,9.27-.59.22-1.16.45-1.72.69l-.22.1a37.54,37.54,0,0,0-8.25,5.12l-.09.07c-1-1.45-2-2.9-3-4.28-7.33,1.72-6.8,9.07-6.76,9.39-7.52-2-3.83-12.17-3.59-12.51-1.73.58-2.92,3.77-3.36,3.77s-.95-3.14,1.68-6.13A14.61,14.61,0,0,0,113.78,71h0a19.88,19.88,0,0,0,3.27-8,3.05,3.05,0,0,1,.87-1.3c1.11-1.13,3.3-2.65,7-5.85l.32-.26a15.56,15.56,0,0,1,5.39-2.44,42.55,42.55,0,0,1,8.66-1.29,20.91,20.91,0,0,1,4.67.08c.07.26-1.85,2.25-1.41,2.69s9.54,1.9,15,9.48C160.23,67.67,162.83,72.62,162.11,77.42Z"/><path class="cls-12" d="M134.49,96.66a.06.06,0,0,0,0,0c-.34-1.32-3.93-7-7.86-12.68l0,0c-.07-.1-.13-.2-.2-.29l-.08-.12c-1-1.41-2-2.82-2.92-4.15a2.15,2.15,0,0,0-.73-.2c-2.58-.29-4.81,3.64-5.47,4.79a6.48,6.48,0,0,0-.9,2.64,5.88,5.88,0,0,0,.1,1.67,5.09,5.09,0,0,1-2.8-1.25c-2.87-2.63-1.33-8.38-1-9.52.14-.53.29-1,.39-1.25,0-.07.11-.28,0-.34s-.15,0-.21,0a6.52,6.52,0,0,0-1.68,1.28,5.72,5.72,0,0,0-1.42,2.25c0,.08,0,.5-.13.51s0,0,0,0a6.31,6.31,0,0,1-.11-2.16,6.91,6.91,0,0,1,1.87-3.88A13,13,0,0,0,113.4,72c.25-.28.47-.55.67-.81a.2.2,0,0,0-.14,0l-.08,0-.63.17a22.82,22.82,0,0,1-7.72.38,4.58,4.58,0,0,1-1.41-.36l-.16-.06C98.61,69,92.89,58.6,83.4,54.58L83,54.41c-.37-.15-.76-.29-1.15-.42a20.46,20.46,0,0,0-5-1h-.1a39.3,39.3,0,0,0-7.65.77C53.69,57.65,47.84,67,47.84,67A26.7,26.7,0,0,0,44,78.87a35.08,35.08,0,0,0,1.39,14.66s2.75,8.59,9,14.43l.21.2A21.53,21.53,0,0,0,61,112.49,4.87,4.87,0,0,1,63.08,114a6.51,6.51,0,0,0-.59.38c-3.55,2.48-5.77,7.74-3.64,9.12a1.42,1.42,0,0,0,.41.2,4,4,0,0,0,2.25,0c6.34-1.56,26.49-.83,26.49-.83a7.85,7.85,0,0,0,1.36-.57c3.26-1.81-1-4.3-5.26-6.06l-.71-.29-.32-.12c-1.46-.57-2.82-1-3.79-1.34l-.17-.06A34.19,34.19,0,0,0,90.92,111v.14c.15,6,0,5.27.16,6s1,4.11,4.14,5.4l.22.09A6.41,6.41,0,0,0,97,123a66.16,66.16,0,0,0,9.21.12c1.7-.07,2.93-.14,3.14-.12s.29-.4.19-1.14c-.3-2.29-3-4.29-5.62-5a8.68,8.68,0,0,0-2.49-.27h0a.11.11,0,0,0,0,0,20.53,20.53,0,0,1,.88-6.08c.42.09.83.17,1.24.23l.22,0a23.56,23.56,0,0,0,3.31.27c.4,0,.8,0,1.19,0a28.07,28.07,0,0,0,5.37-.67l.09,0c7.4-1.68,12.82-5.91,13.68-7.72a5.36,5.36,0,0,1,.73-1.12c1.82-2.23,5.47-4.09,6.35-4.61h0S134.52,96.74,134.49,96.66Z"/><path class="cls-18" d="M117,121.71a17,17,0,0,1-2.71.08c-1.74,0-3.87-.05-5-.07-.22-1.41-1.46-3.76-5.79-4.82v-6.28a27.19,27.19,0,0,0,10-.43c-1,1.43-2.31,3.94-1.89,6.41C111.68,116.53,116.86,117.21,117,121.71Z"/><path class="cls-16" d="M151,92a6.71,6.71,0,0,1-1.53,3.21,7.5,7.5,0,0,1-3.49,2.09c-1.74.6-4.38,1.52-6,.14a3.44,3.44,0,0,1-1-1.5h-.1c0-2.22,0-9.9,1.11-10.42,0,.4,0,.88-.05,1.41,0,3.22.57,8.21,4.46,7.68a6.35,6.35,0,0,0,2.68-.89,3.11,3.11,0,0,0,1-1h0a3.13,3.13,0,0,0,.27-.67h.86C149.78,92,150.38,92,151,92Z"/><line class="cls-19" x1="113.82" y1="70.98" x2="113.83" y2="70.98"/><path class="cls-20" d="M160.73,82.86a8,8,0,0,0-2.67,3.21c-2,.5-9.72,2-11-2.51h0c3.68-2,2.09-5.1.6-6.48l-.16-.14a2.38,2.38,0,0,0-1.12-.65c-.56-.09-1.12-.15-1.68-.19a44.36,44.36,0,0,1,8.3-.36,27.17,27.17,0,0,1,3.56.55c1.74.38,1.95.6,3.57.93,2.67.55,3.43.22,3.72.78C164.43,79.07,162.34,81.65,160.73,82.86Z"/><path class="cls-21" d="M158.44,86a2,2,0,0,1-.48.14c1-1.47,1.78-2.7,2.42-3.81,0,.08,0,.18.06.28a2.43,2.43,0,0,1,0,.36h0a21.22,21.22,0,0,0,2.1-2.62A12.19,12.19,0,0,0,163.75,78a1.21,1.21,0,0,1,.61.2,1.79,1.79,0,0,1,.66,1.2,4.68,4.68,0,0,1,.11,1.6,6.09,6.09,0,0,1-1,2.8,5.25,5.25,0,0,1-2.48,2.12A5,5,0,0,1,158.44,86Z"/><path class="cls-22" d="M151.13,91.93s0,0,0,.08"/><path class="cls-23" d="M158,86.07l-.33.5a27.13,27.13,0,0,1-3.16,3.67,7.43,7.43,0,0,1-2.07,1.53q-.75.08-1.56.12c-.58,0-1.18.06-1.81.07h-.86c-1.23,0-2.38-.07-3.44-.17a17.72,17.72,0,0,0,.77-8.15.19.19,0,0,1,0-.08,11.11,11.11,0,0,1,1.4-.1l.07,0h0s0,.07,0,.1C148.25,88,156,86.58,158,86.07Z"/><path class="cls-23" d="M139.45,62.65h-.28a6.3,6.3,0,1,0-.34,12.58h.62a6.58,6.58,0,0,0,6.41-5.73C146.17,65.89,143,62.79,139.45,62.65Zm-3.62,7.84a4.21,4.21,0,1,1,8.37.32,4.19,4.19,0,1,1-8.37-.32Z"/><path class="cls-24" d="M140.2,66a4.45,4.45,0,0,0-4.37,4.51,4.19,4.19,0,1,0,8.37.32A4.45,4.45,0,0,0,140.2,66Zm1.66,4.27a1.46,1.46,0,0,1-1.31-1.47,1.4,1.4,0,1,1,2.79.11A1.46,1.46,0,0,1,141.86,70.25Z"/><path class="cls-25" d="M143.34,68.9a1.4,1.4,0,1,1-2.79-.11,1.4,1.4,0,1,1,2.79.11Z"/><path class="cls-26" d="M113.25,121.83a5.16,5.16,0,0,0-2.86-4.68,6.08,6.08,0,0,1,2.56,1.69,5.9,5.9,0,0,1,1.3,2.91l-1,.08Z"/><path class="cls-27" d="M148,91.7a19,19,0,0,0,4.19-5.09,19.38,19.38,0,0,1-3.67,5.63L148,91.7Z"/><path class="cls-12" d="M120.28,63.54c0-.12-11.37-6.19-.83-19.75,1.86-2,4.48-.35,5.82,2.85s-.12,11.18-.53,12Z"/><path class="cls-28" d="M121.56,43.79c-8.21,10.56-3.1,16.58-.47,18.77l-.9,1c0-.12-11.36-6.19-.83-19.75a2.42,2.42,0,0,1,3-.6A2.79,2.79,0,0,0,121.56,43.79Z"/><path class="cls-26" d="M134.54,97.1a21.45,21.45,0,0,1-12-3.42A21,21,0,0,0,134.5,96.1l0,1Z"/><path class="cls-29" d="M145.82,85c-4.17.54-5.18,4.65-5.45,6.33a19.53,19.53,0,0,1-.49-5.81,19,19,0,0,1,5.8-2C145.74,84,145.79,84.48,145.82,85Z"/><path class="cls-30" d="M148.4,92a3,3,0,0,1-1.24,1.71,6.5,6.5,0,0,1-2.71.93c-2.15.31-3.32-1-3.94-2.89,0-.14-.1-.29-.14-.43.27-1.68,1.28-5.79,5.45-6.33a5.35,5.35,0,0,1,0,.58c0,.44,0,.9,0,1.38a18.06,18.06,0,0,1-.93,4.89C146,92,147.15,92,148.4,92Z"/><path class="cls-31" d="M148.46,92a2.93,2.93,0,0,1-1.23,1.7,6.5,6.5,0,0,1-2.71.93A3.14,3.14,0,0,1,141.14,93h0s1.28-4.66,4.5-3.75A17.66,17.66,0,0,1,145,91.8C146.05,91.9,147.22,92,148.46,92Z"/><path class="cls-32" d="M113.82,71a1.47,1.47,0,0,1-.1.13c-.2.26-.42.52-.64.77a15.59,15.59,0,0,1-2,1.84c-2.58,2.9-2.18,5.94-1.74,6.12h0c.48-.21,1.65-3.2,3.32-3.76l0,.06,0,0,.11,0c-.17.24-2,5.33-.54,9a1.09,1.09,0,0,1,0,.14l-.08.26S101,87.14,98.21,81.14c-6.2-26.48-37-22.27-37-22.27a13.79,13.79,0,0,0-3.5.15c-.36.07-.7.14-1,.23l.42-.35A35.71,35.71,0,0,1,60.54,57c.75-.36,1.37-.62,2.62-1.13a38,38,0,0,1,4.74-1.71c.16,0,.77-.21,1.58-.38a28.94,28.94,0,0,1,5.45-.63c.92,0,1.6,0,2.09,0a24.08,24.08,0,0,1,4.49.68l.56.19.73.28.42.17c9.49,4,15.2,14.45,20.53,16.71l.15.07a5.32,5.32,0,0,0,1.41.36,23.13,23.13,0,0,0,7.73-.38l.62-.17Z"/><path class="cls-33" d="M103.9,106s9.07.65,14.25-4.17,9.74-1.67,9.44-.52-3.5,7-14,8.86c-7.88,1.38-10.06.41-11.43,0"/><path class="cls-33" d="M90.57,106.17s-6.94,3.34-12.56,3.74a54.65,54.65,0,0,1-3.57,4.27s4.31.11,4.74.06,9.9-2.16,11.56-3.55C90.68,110.8,90.56,106.82,90.57,106.17Z"/><ellipse class="cls-34" cx="150.76" cy="79.2" rx="0.33" ry="0.42"/><ellipse class="cls-34" cx="151.31" cy="81.55" rx="0.42" ry="0.33" transform="translate(40.37 212.84) rotate(-78.13)"/><ellipse class="cls-34" cx="150.12" cy="83.55" rx="0.42" ry="0.33" transform="translate(37.46 213.27) rotate(-78.13)"/><path class="cls-35" d="M161.86,77.19h-.09a12.37,12.37,0,0,1-4.31-2.34c-3.23-2.75-3.09-5.72-7-10.93a28.33,28.33,0,0,0-5.08-5.41c-6.94-5-17.91-.9-21.24.48l.67-1.07c.09-.36.17-.72.25-1.09s.15-.71.22-1.06a9.46,9.46,0,0,1,1-.8,10,10,0,0,1,4.12-1.61h0a4.68,4.68,0,0,0,.7-.16c.79-.17,1.66-.32,2.65-.47.76-.11,1.54-.22,2.36-.31s1.82-.18,2.68-.24c.71-.07,1.48-.11,2.3-.13s1.71,0,2.47.07a13.21,13.21,0,0,0-1.06,1.72,1.12,1.12,0,0,0-.11.48,1.07,1.07,0,0,0,.06.27c.17.48,2.23,1,2.75,1.12l2.27.9a24.48,24.48,0,0,1,9.8,7.06l.12.16C160,67.46,162.58,72.39,161.86,77.19Z"/><path class="cls-36" d="M161.7,77.19h-.09a12.37,12.37,0,0,1-4.31-2.34c-3.22-2.75-3.09-5.72-7-10.93a28.31,28.31,0,0,0-5.09-5.41c-6.94-5-17.9-.9-21.24.48l.68-1.07c.08-.36.17-.72.24-1.09s.16-.71.22-1.06a9.62,9.62,0,0,1,1-.8,9.94,9.94,0,0,1,4.12-1.61h0a5.1,5.1,0,0,0,.71-.16c.78-.17,1.66-.32,2.65-.47.75-.11,1.54-.22,2.35-.31s1.82-.18,2.68-.24,1.49-.11,2.31-.13,1.71,0,2.47.07a15.07,15.07,0,0,0-1.07,1.72,1,1,0,0,0-.1.48,1.39,1.39,0,0,0,.05.27c.18.48,2.23,1,2.75,1.12l2.27.9a24.56,24.56,0,0,1,9.81,7.06l.12.16C159.83,67.46,162.43,72.39,161.7,77.19Z"/><path class="cls-13" d="M59.55,123.79a2.89,2.89,0,0,1-1.37-1h0c-1-1.92,1.06-6.24,4.11-8.41.19-.14.38-.26.58-.38a4.86,4.86,0,0,0-2.08-1.44,21,21,0,0,1-6.35-4.38l-.13-.12c-8.18-8-10-19.88-10-19.88a29.06,29.06,0,0,1,1.15-15.7,23.85,23.85,0,0,1,4.62-7.84,23.25,23.25,0,0,1,7-5.33c-9.73,19.16-4.56,37.79,5.71,42.87,8.21,4.06,18.43-1.2,20.72-2.44a40.93,40.93,0,0,1-3.12,6.94,40.52,40.52,0,0,1-5.88,7.9c4.3,3,6.25,3.75,7.2,3.82a12.21,12.21,0,0,1,1.56.2,13.26,13.26,0,0,1,2,.6c1.36.55,4,2.11,3.81,3s-3.27.84-7.61,1.14C81.49,123.38,62.21,124.75,59.55,123.79Z"/><ellipse class="cls-34" cx="162.88" cy="80.65" rx="0.2" ry="0.25"/><ellipse class="cls-34" cx="162.58" cy="82.05" rx="0.2" ry="0.25" transform="translate(-13.4 35.21) rotate(-11.87)"/><ellipse class="cls-34" cx="163.35" cy="83.17" rx="0.2" ry="0.25" transform="translate(-13.62 35.39) rotate(-11.87)"/><path class="cls-26" d="M123.2,79.19a8.73,8.73,0,0,0-6.33,10,6.62,6.62,0,0,1-5.58-5.73,14.46,14.46,0,0,1,1.09-7.63l.54.72c-1.13.38-2,2-2.74,3.06-.19.24-.33.53-.69.63s-.7-.41-.72-.59a7.15,7.15,0,0,1,2.15-6.05c.89-.73,1.77-1.49,2.59-2.3a5.09,5.09,0,0,0,.74-.87,4.7,4.7,0,0,1-.65.95,31.66,31.66,0,0,1-2.37,2.5c-1.28,1.48-2.19,4-1.73,5.62-.06,0-.13,0-.17,0s-.11.06-.08,0c.38-.49.66-1.08,1-1.62a5.21,5.21,0,0,1,2.34-2.22l.7-.28-.17,1c-1.55,4.05-1.88,10.49,3.35,11.82l-.53.46c-.29-4.46,2.7-8.83,7.23-9.44Z"/><path class="cls-26" d="M120.85,62.44a.48.48,0,0,0,.12.48l-.19-.16c-6-4.8-4.36-12.75-.28-18.23,1-1.34,2.73-.91,3.63.31a6,6,0,0,1,1.42,3.69,50.26,50.26,0,0,1-.65,7.84,51.24,51.24,0,0,0,.41-7.83,5.84,5.84,0,0,0-1.45-3.47c-.76-1-2.2-1.41-3-.25C117.24,50,115.6,57.65,121.4,62l.28.23a.53.53,0,0,1,.13.49l-1-.27Z"/><path class="cls-26" d="M101.63,110.22a23.86,23.86,0,0,1,6.6-10,23.36,23.36,0,0,0-5.64,10.26l-1-.28Z"/><path class="cls-26" d="M96.13,94.9c-5.25,4.63-4.62,12.62-5.1,19l-.37-2.56c-.51-5.56-.08-13.5,5.47-16.46Z"/><path class="cls-26" d="M80.22,82.59c5.13,4.78,5.76,12.82,3.25,19.11a35.52,35.52,0,0,1-5.91,9.61c-1,1.09-2.06,2.19-3.12,3.25.89-1.21,1.83-2.37,2.73-3.55,6.14-8.28,10.18-19.44,3-28.42Z"/><path class="cls-26" d="M.84,93.65c-7.78.23-15.95-4.56-18.13-12.35-2.17-7.61.28-16.56,6.62-21.48,9.24-7.74,24.9-5.74,31.8,4.17,6.09,8.61,5.14,20.33,11.48,28.74a16.21,16.21,0,0,0,9.74,5.82,16.12,16.12,0,0,1-10-5.58C25.71,84.71,26.46,73,20.4,64.5c-6.66-9.4-21.62-11.27-30.51-4a19.14,19.14,0,0,0-7.06,13c-1.65,11.21,7,19.91,18,20.1Z"/><path class="cls-26" d="M53.47,103.33c-11.58,5.91-29.46,6.2-36.06-7a20.21,20.21,0,0,1-2-9.94,12.33,12.33,0,0,0-3.94-8.57c-5.9-6-20.8-4-17.85,6.67,1,4.32,9.17,4.9,9.14-.21-.09-2.5-3.3-3.1-5.07-1.83A4,4,0,0,1,.9,81.77c2.57.56,2.75,4.14.82,5.58a6,6,0,0,1-6.61.1c-3-2.09-3.18-6.54-1.56-9.56,3.72-6,13.9-5.34,18.56-.79a13,13,0,0,1,4.26,9.23,19.23,19.23,0,0,0,1.86,9.57c6.41,12.89,23.71,12.64,35.24,7.43Z"/><path class="cls-26" d="M105.59,123.1a.93.93,0,0,1-.07-.44c.11-2.45-2.71-3.4-4.69-3.85,2.25.16,5.24.92,5.63,3.56l0,.24s.06.24,0,0l-.88.48Z"/><path class="cls-26" d="M88.89,122.26a10.24,10.24,0,0,0-7.49-4.32A11.14,11.14,0,0,1,88,120a8.58,8.58,0,0,1,1.74,1.67l-.82.56Z"/><path class="cls-28" d="M140.54,44.62c-4.44-1.41-8.21,6.72-9.14,8.87l-.61,0c.15-.34,4.32-11,9.36-9.37A1.13,1.13,0,0,1,140.54,44.62Z"/><path class="cls-37" d="M137.41,58.82H137a10.1,10.1,0,0,0-9.74,7.68,2.23,2.23,0,0,0,0,.23c0,.24-.07.47-.1.71s0,.52,0,.78,0,.47,0,.7,0,.31,0,.46l0,.23c.75,4.29,4.77,7.51,9.08,7.86l.24,0h0a23.27,23.27,0,0,1,5.62-1.32h0l0,0,.08,0A9.17,9.17,0,0,0,147,69C147.46,63.62,142.71,59,137.41,58.82Zm-5,10.16c0-3.54,3.26-6.35,6.76-6.33h.22c3.57.14,6.77,3.24,6.46,6.85a6.61,6.61,0,0,1-6.4,5.73h-.68C135.5,75,132.43,72.39,132.41,69Z"/><path class="cls-12" d="M147.16,83.64h0l-.06,0a9.54,9.54,0,0,0-1.41.09h0a18.39,18.39,0,0,0-5.71,1.9c-1.12.52-1.13,8.2-1.11,10.42l-.6.1a28.47,28.47,0,0,1-4,.43h-.1c.06-.41-1-2.38-2.66-5.08-.06-.11-.13-.22-.2-.33-1.41-2.29-3.21-5-5.07-7.82l-.05-.07a38.59,38.59,0,0,1,8.37-5l.23-.1c.59-.25,1.2-.49,1.82-.71h0a23,23,0,0,1,5.59-1.25h0a16.5,16.5,0,0,1,4.43.18,2.11,2.11,0,0,1,1,.57l.16.14C149.24,78.48,150.83,81.61,147.16,83.64Z"/><path class="cls-38" d="M150.72,79.69c-6.45-3.51-14.08-4.16-21.27-3.14a41.82,41.82,0,0,1,10.94-.64,29.62,29.62,0,0,1,10.5,2.78l0,0-.21,1Z"/><path class="cls-38" d="M151.24,82.07c-5.6-3.06-12.22-3.66-18.48-2.79a31.65,31.65,0,0,1,16.58.91,21.5,21.5,0,0,1,2.09.89h0l-.21,1Z"/><path class="cls-38" d="M150,84c-4.9-2.69-10.69-3.25-16.17-2.5a27,27,0,0,1,15.53,1.13c.22.1.64.28.85.39,0,0-.2,1-.21,1Z"/><path class="cls-15" d="M103.53,110.74a27.22,27.22,0,0,0,10.15-.51"/><path class="cls-15" d="M51.28,104.35A35.09,35.09,0,0,1,46.07,95a35.94,35.94,0,0,1-2.29-14.18l.23-3.2"/><path class="cls-15" d="M103.64,110.76v6.16l-.08,0-.08,0a15.94,15.94,0,0,0-2.24-.39h0v0a20,20,0,0,1,.87-6.08l.15,0c.21,0,.43.09.64.12Z"/><path class="cls-39" d="M132.52,52.56c.12-.25,3.27-7.87,7.08-6.72,1.52,1-1.1,6.26-1.1,6.26Z"/><path class="cls-1" d="M132.29,52.56c.12-.25,3.27-7.87,7.08-6.72,1.52,1-1.1,6.26-1.1,6.26Z"/><path class="cls-15" d="M130.28,53.24a64,64,0,0,1,9.38-1.36"/><path class="cls-39" d="M121.26,59.82c0-.08-7.26-4-.53-12.62,1.18-1.26,2.86-.22,3.71,1.82s-.07,7.14-.33,7.66Z"/><path class="cls-1" d="M121.23,60.13c0-.08-7.26-4-.53-12.62,1.19-1.27,2.86-.22,3.72,1.82s-.08,7.14-.34,7.66Z"/><path class="cls-40" d="M165.12,79.34a1.85,1.85,0,0,0-.66-1.21,1.48,1.48,0,0,0-.62-.2h0l.06-.23a2.85,2.85,0,0,0-1-.35,4.11,4.11,0,0,0-.6-.08h-.13c.7-4.78-1.89-9.69-4.5-13.29-5.49-7.58-14.6-9-15-9.48a.31.31,0,0,1,0-.26,5.05,5.05,0,0,1,.5-1c.45-.64,1-1.31,1-1.46a21.13,21.13,0,0,0-4.45-.08c.88-1.95,2.9-6.95,1.18-8a3.87,3.87,0,0,0-2.31,0c-4.09.94-7.29,8.06-7.86,9.34a15.69,15.69,0,0,0-5.11,2.29,37.66,37.66,0,0,0,.37-4.15,12.19,12.19,0,0,0-.54-4.63c-1-2.25-2.52-3.73-4-3.71a2.44,2.44,0,0,0-1.89.86c-7.25,9.34-4.1,15.12-1.45,17.86a3.11,3.11,0,0,0-.86,1.3,20,20,0,0,1-3.27,8h0l0,0s0-.06,0-.06l-.09,0c-.19.06-.4.12-.62.17a22.63,22.63,0,0,1-7.69.38,4.86,4.86,0,0,1-1.41-.35l-.15-.07c-5.3-2.26-11-12.7-20.44-16.71L83,54.13c-.38-.16-.76-.3-1.15-.43a20.3,20.3,0,0,0-4.94-1h-.09a39.85,39.85,0,0,0-7.62.77C52.8,57.62,47.13,68.14,47.13,68.14a26.3,26.3,0,0,0-2.91,9.28h0c0,.33-.1.65-.14,1-2.4-7.08-1.82-16-8.53-25.34-1-1.43-8.76-12.22-22.26-14.77-12.88-2.43-27.74,3.25-35.48,15a33.53,33.53,0,0,0-2.93,5.56c-6.05,14.54-2.37,33,8.47,39.43C-10.42,102-.78,102.36,6,97.85a20.45,20.45,0,0,0,3.85-3.23c.42-.47,4.33-5.36,3.22-11.62-.53-3-2.1-5.68-3.23-6.56-.08-.07-.67-.52-.64-.57a6.88,6.88,0,0,1,1.33.72,10.17,10.17,0,0,1,3,3.12,13,13,0,0,1,1.72,4.12,17.09,17.09,0,0,1,.4,2.28,16.42,16.42,0,0,1,.08,2.53,17.74,17.74,0,0,0,1.73,7,19,19,0,0,0,3.39,5.11,19.47,19.47,0,0,0,5.8,4.11,21.23,21.23,0,0,0,3.31,1.21,25.81,25.81,0,0,0,7.22.71,37.12,37.12,0,0,0,5.54-.27,33.9,33.9,0,0,0,5.71-1.28c1-.3,1.92-.63,2.8-1l.13.18A28.59,28.59,0,0,0,54.4,108l.13.13a21.12,21.12,0,0,0,6.34,4.38,4.73,4.73,0,0,1,1.91,1.24,2.75,2.75,0,0,0-.33.23,11.24,11.24,0,0,0-4.21,6.12,3.74,3.74,0,0,0,0,2.64h0a3.18,3.18,0,0,0,.26.27,1.64,1.64,0,0,0,.77.57l.34.15a11,11,0,0,0,6.23.42c2.07-.26.76.16,6.24-.05,6.36-.24,13-1,16-1.37.25-.08.45-.17.61-.22a1.31,1.31,0,0,0,.27-.12,4.48,4.48,0,0,0,.49-.23c1.27-.71,1.39-1.52.82-2.35-.74-1.35-3.47-2.79-6.18-3.92l-.71-.29-.32-.12c-1.29-.51-2.51-.93-3.44-1.24h.05A34.3,34.3,0,0,0,90.9,111c.14,5.85,0,5.15.15,5.92a9.09,9.09,0,0,0,1.28,3,6.45,6.45,0,0,0,3,2.6l.22.09a6.41,6.41,0,0,0,1.55.36,67.72,67.72,0,0,0,9.21.12c1.7-.07,2.93-.14,3.13-.12s.3-.45.2-1.14c0,0,0,0,0-.07.59,0,3.28.06,4.82.07a16.79,16.79,0,0,0,2.7-.08,5,5,0,0,0-.18-1.21c-.85-3.31-4.75-4-5.18-4a9.71,9.71,0,0,1,.24-2.74,9.93,9.93,0,0,1,1.56-3.47l.13,0,.1,0a32.43,32.43,0,0,0,4-1.22,20.75,20.75,0,0,0,5.71-2.89,12,12,0,0,0,3.93-3.61,5.36,5.36,0,0,1,.73-1.12c1.82-2.23,5.46-4.09,6.35-4.61h0s0-.14,0-.22a.06.06,0,0,0,0,0h0a31.59,31.59,0,0,0,3.75-.42l.6-.1v-.08l0,0a12.88,12.88,0,0,0,1,1.5c1.63,1.38,4.26.46,6-.14a9.09,9.09,0,0,0,2.67-1.32,6.52,6.52,0,0,0,.92-.85A6.69,6.69,0,0,0,151.05,92c.26,0,1-.15,1.32-.18a7.62,7.62,0,0,0,.76-.44,7.43,7.43,0,0,0,1.44-1.18,26.78,26.78,0,0,0,3.16-3.66l.27-.42h.08l0,0,.14,0,.19,0a6,6,0,0,0,3.14-.08,4,4,0,0,0,.51-.24,5.46,5.46,0,0,0,2.14-2,6.21,6.21,0,0,0,1-2.81A4.63,4.63,0,0,0,165.12,79.34Z"/><path class="cls-41" d="M157.35,84.87c-.67-.1-1.33-1.24-2.55-2.62-1.41-1.6-2.55-2-3.23-2.94-.75-1.08,2.86-3,6.32-2.88,3.28.12,4.79,1.23,4.53,2.5S159.55,85,157.35,84.87Z"/><path class="cls-42" d="M161.46,78c-2.5-1.37-6.09-1.13-8.78-.38a10.24,10.24,0,0,1,5.21-1.23c3.28.12,4.79,1.23,4.53,2.5a8.91,8.91,0,0,1-.68,1.28C162,79.07,162,78.38,161.46,78Z"/><path class="cls-43" d="M152.7,77.65c-.71,1.3,2.08,2,3.2,3.17.86.84,1.25,2.49,2.22,2.59,1.4,0,2.71-2.23,4.17-4-.61,1.68-2.95,5.63-4.94,5.49-.67-.1-1.33-1.24-2.55-2.62-1.41-1.6-2.55-2-3.23-2.94C151.24,78.84,151.75,78.21,152.7,77.65Z"/><path class="cls-44" d="M151.54,78.69a.35.35,0,0,0,0,.41,6.3,6.3,0,0,0,1.24,1.13,13.93,13.93,0,0,1,2.12,1.92c.4.45.73.87,1,1.24.61.76,1.09,1.37,1.47,1.42h.09c2.1,0,4.7-4.79,5-6a1.16,1.16,0,0,0-.25-1c-.61-.77-2.16-1.26-4.26-1.35h-.35C154.64,76.48,152,77.81,151.54,78.69Z"/><path class="cls-45" d="M165.15,80.94l0-.07a4.14,4.14,0,0,0,0-.58s2-1.37-.07-.68a2.41,2.41,0,0,0-.07-.35,1.82,1.82,0,0,0-.65-1.21,1.27,1.27,0,0,0-.62-.2h0c0-.08,0-.16.05-.23a2.85,2.85,0,0,0-1-.35,4.11,4.11,0,0,0-.6-.08h-.12c.69-4.82-1.9-9.77-4.51-13.4-5.51-7.64-14.63-9.11-15.07-9.55a.28.28,0,0,1,0-.26,4.59,4.59,0,0,1,.5-1,7.44,7.44,0,0,0,1-1.46,20,20,0,0,0-4.46-.09c.88-2,2.91-7,1.19-8.09a3.9,3.9,0,0,0-2.32,0c-4.09.94-7.3,8.12-7.87,9.41a19.47,19.47,0,0,0-3,1.11c-.22.09-.44.21-.67.33a10.83,10.83,0,0,0-1.41.87,38.19,38.19,0,0,0,.37-4.19,12.35,12.35,0,0,0-.54-4.66c-.95-2.27-2.53-3.76-4-3.74a2.31,2.31,0,0,0-1.56.57,3.66,3.66,0,0,0-.43.38c-7.26,9.41-4.1,15.24-1.45,18a3.32,3.32,0,0,0-.87,1.3,20.1,20.1,0,0,1-3.21,8s0,0,0,0l-.09,0c-.19.06-.4.12-.62.17a22.7,22.7,0,0,1-7.71.39,5.16,5.16,0,0,1-1.4-.36l-.16-.07c-5.31-2.28-11-12.8-20.47-16.84l-.42-.18c-.38-.15-.76-.29-1.15-.42a20.4,20.4,0,0,0-5-1H76.6A40,40,0,0,0,69,53.2c-10.71,2.73-16.83,8.17-19.81,11.64a19.16,19.16,0,0,0-1.56,2c-.49.71-.73,1.15-.73,1.15A24.92,24.92,0,0,0,45,72.4a28.38,28.38,0,0,0-1.12,4.71c0,.22-.07.44-.1.66l-.06-.24,0,.45c-2.28-7.08-1.81-15.9-8.44-25.21-1-1.44-8.77-12.31-22.29-14.88a35.73,35.73,0,0,0-28.61,7.49,33.27,33.27,0,0,0-7,7.73,34.77,34.77,0,0,0-2.94,5.6C-31.66,73.37-28,92-17.11,98.45c6.23,3.73,16.29,4.58,23.06,0a21.73,21.73,0,0,0,2.26-1.69c.52-.45,7.22-5.09,4.18-17.78,4.51,5.33,2,10.13,4.72,16.65l0,.06.35.72a16.21,16.21,0,0,0,8.53,8.4l.32.16a19.87,19.87,0,0,0,3.32,1.22,18,18,0,0,0,3.56.61c1.32.14,2.57.18,3.74.19.3,0,.61,0,.91,0h.08a33.87,33.87,0,0,0,4.39-.27,33.19,33.19,0,0,0,5.53-1.24c1.06-.32,2.06-.67,3-1l.25.32a28.39,28.39,0,0,0,2.95,3.4l.13.13a20.76,20.76,0,0,0,6.36,4.41A4.77,4.77,0,0,1,62.43,114l-.22.15A11.68,11.68,0,0,0,58.43,119c-.74,1.57-1,3.1-.5,4h0a1.94,1.94,0,0,0,.32.36v0h0a1.32,1.32,0,0,0,.33.29,1.42,1.42,0,0,0,.41.2h0l.26.13a4.06,4.06,0,0,0,.78.17,12.21,12.21,0,0,0,5.56.17h0l1.87,0a41.26,41.26,0,0,0,4.38,0c3.62-.14,7.32-.45,10.39-.76,3.57-.22,6.09-.21,6.53-1,.12-.06.25-.11.35-.17a4.16,4.16,0,0,0,.58-.4,1.34,1.34,0,0,0,.34-2c-.74-1.37-3.48-2.82-6.19-4l-.71-.29-.32-.13c-1.24-.49-2.41-.9-3.33-1.2a34.21,34.21,0,0,0,11.16-3.29l0,.82c.09,4.25,0,4.43.08,4.85a3.17,3.17,0,0,0,.08.55c.15.69,1,4.14,4.15,5.45l.22.08a6.49,6.49,0,0,0,1.56.37,67.85,67.85,0,0,0,9.22.12c1.7-.07,2.94-.14,3.14-.12,0,0,.07,0,.1-.09s.29-.46.19-1.14a.17.17,0,0,0,0-.07c1,0,2.65,0,4.14.06h1.19A11.58,11.58,0,0,0,117,122a5.59,5.59,0,0,0-.18-1.21c-.85-3.34-4.77-4-5.19-4a9.9,9.9,0,0,1,.24-2.76,10.09,10.09,0,0,1,1.51-3.43h.09l.09,0a32.63,32.63,0,0,0,4.22-1.3,20.57,20.57,0,0,0,5.63-2.9c.54-.36,1-.71,1.47-1.06l0,0,.45-.36a7.84,7.84,0,0,0,2-2.23,5.34,5.34,0,0,1,.74-1.13,11.48,11.48,0,0,1,1.57-1.54,34.71,34.71,0,0,1,4.69-3h0a0,0,0,0,0,0,0l.07,0h0s0-.12,0-.2a31.85,31.85,0,0,0,3.64-.42l.6-.09v-.07l.1,0V96l0,0a3.24,3.24,0,0,0,1,1.49,3.3,3.3,0,0,0,2.18.73,11.74,11.74,0,0,0,3.84-.87l.63-.23.07,0a9.8,9.8,0,0,0,1.32-.62h0a5.22,5.22,0,0,0,1-.71,5.73,5.73,0,0,0,.61-.6A6.69,6.69,0,0,0,151,92c.25,0,.89-.13,1.27-.17h.08a6.3,6.3,0,0,0,1.44-1,8.89,8.89,0,0,0,.74-.68,27.1,27.1,0,0,0,3.16-3.69c.1-.14.18-.28.27-.41h0l-.06.09a3.79,3.79,0,0,0,.46-.13l.2,0a4.85,4.85,0,0,0,3-.14,4.24,4.24,0,0,0,1.13-.65A3.37,3.37,0,0,0,163,85l.17-.15a6.56,6.56,0,0,0,.93-1.13,6.68,6.68,0,0,0,.42-.72s1.77-1,.22-.5a5.36,5.36,0,0,0,.26-.8S167,80.42,165.15,80.94Z"/><path class="cls-38" d="M162.78,80.16c3.71-1.79,8.41-1.9,12.51-1a19.86,19.86,0,0,0-11.84,1.8,2.56,2.56,0,0,1-.47.23l-.2-1Z"/><path class="cls-38" d="M162.47,81.54a17.67,17.67,0,0,1,10.9-.85A17.27,17.27,0,0,0,163,82.4a1.11,1.11,0,0,1-.27.12l-.21-1Z"/><path class="cls-38" d="M163.21,82.69a14.33,14.33,0,0,1,7.15-1.06,21.38,21.38,0,0,1,2.4.37,21.73,21.73,0,0,0-2.41-.12,13.71,13.71,0,0,0-6.68,1.67,1,1,0,0,1-.26.12l-.2-1Z"/></g></g></g></svg>