<svg id="Layer_1" data-name="Layer 1" xmlns="http://www.w3.org/2000/svg" viewBox="0 0 38.12 34.27"><defs><style>.cls-1{fill:#fff;}.cls-2{fill:#66441c;}.cls-3{fill:#30200f;}.cls-4{fill:#efdece;}</style></defs><ellipse class="cls-1" cx="11.17" cy="19.33" rx="5.16" ry="6.09"/><path class="cls-2" d="M16.33,19.33c-.24,8.42-10.51,8.37-10.83,0,.32-8.37,10.59-8.42,10.83,0Zm0,0c-.27-7.7-9.63-7.74-9.83,0,.19,7.75,9.56,7.7,9.83,0Z"/><ellipse class="cls-1" cx="26.66" cy="19.62" rx="5.16" ry="6.09"/><path class="cls-2" d="M21.5,19.62c.27,7.7,9.63,7.75,9.82,0-.19-7.75-9.55-7.7-9.82,0Zm0,0c.23-8.43,10.51-8.37,10.82,0C32,28,21.73,28,21.5,19.62Z"/><ellipse class="cls-3" cx="11.3" cy="21.35" rx="3.19" ry="3.68" transform="translate(-1.41 0.81) rotate(-3.86)"/><ellipse class="cls-4" cx="12.3" cy="19.84" rx="1.28" ry="1.47" transform="translate(-1.31 0.87) rotate(-3.86)"/><ellipse class="cls-3" cx="26.22" cy="21.61" rx="3.19" ry="3.68" transform="matrix(1, -0.07, 0.07, 1, -1.39, 1.81)"/><ellipse class="cls-4" cx="27.23" cy="20.1" rx="1.28" ry="1.47" transform="translate(-1.29 1.88) rotate(-3.86)"/><path class="cls-2" d="M10.86,7.43c-.24.06-4.08,2.55-3.76,5.24,0,0,2.33-3.81,4.68-4.1Z"/><path class="cls-2" d="M25.81,7.81c.24,0,4.47,1.77,4.63,4.48,0,0-3-3.33-5.33-3.19Z"/></svg>