<svg id="Layer_1" data-name="Layer 1" xmlns="http://www.w3.org/2000/svg" viewBox="0 0 57.91 104.68"><defs><style>.cls-1{fill:#de1959;}.cls-2{fill:#ee4984;}</style></defs><path class="cls-1" d="M49.27,27.18a5.82,5.82,0,0,1-6,1l-1.27.2a32.46,32.46,0,0,0-3.25.75A33.21,33.21,0,0,0,32,31.91h0a28.83,28.83,0,0,0-2.68,1.64A31.8,31.8,0,0,0,23,39.28a33.76,33.76,0,0,0-3.9,5.78,37.62,37.62,0,0,0-3.36,8.85A37.22,37.22,0,0,0,17.09,75.7c1-1,4-3.75,7.26-3.79a3.13,3.13,0,0,1,2.28.68,2.36,2.36,0,0,1,.66,2.7,2.61,2.61,0,0,1-3.91.91c-1.4-1-3.06.35-2.75,1.34.07.26.43.53,1.72.89,3.93,1.11,5.54.27,6.69,1.41a3,3,0,0,1,.33,3.76,2.66,2.66,0,0,1-3,.57c-1.26-.6-1-2.1-2.38-2.62a1.81,1.81,0,0,0-1.82.2c-.77.75-.24,2.72.78,3.23.55.27.81-.1,1.58.12a3,3,0,0,1,2,2.23,2.43,2.43,0,0,1-.42,2.07,2.63,2.63,0,0,1-2.38.64,3.74,3.74,0,0,1-1.95-1.21c-1.24-1.25-1.12-2.24-2.08-2.58-.5-.18-1.27-.17-1.53.22-.62.91,2.34,2.86,1.82,4.59-.4,1.3-2.71,2.22-4.08,1.5a3.25,3.25,0,0,1-1.32-1.77,6.49,6.49,0,0,1-.44-2.69c0-3.79-2.18-4.38-2-8a11.61,11.61,0,0,0,.11-2.92,8.38,8.38,0,0,0-1-3C9.92,71.77,7.52,57.68,14.11,42.7c.05-.12.11-.24.16-.37a67.48,67.48,0,0,1,3-6.07,34.65,34.65,0,0,1,7.9-9.51l.06-.06a49.76,49.76,0,0,1,6.65-4.55,82,82,0,0,1,7.34-3.75c2.63-1.2,4.44-1.87,4.44-1.87h.25a6.94,6.94,0,0,1,6.68,4.35A6,6,0,0,1,49.27,27.18Z"/><path class="cls-2" d="M38.74,29.17,32,31.91h0a21.73,21.73,0,0,0-6.79-5.23,49.76,49.76,0,0,1,6.65-4.55A19.93,19.93,0,0,1,38.74,29.17Z"/><path class="cls-2" d="M23,39.28a33.76,33.76,0,0,0-3.9,5.78,20.36,20.36,0,0,0-5-2.36c.05-.12.11-.24.16-.37a67.48,67.48,0,0,1,3-6.07A19.54,19.54,0,0,1,23,39.28Z"/><path class="cls-2" d="M14.79,63.06a18.29,18.29,0,0,0-4.95-2.67,52.73,52.73,0,0,1,.82-6.77,20,20,0,0,1,4.72,1.89A36.14,36.14,0,0,0,14.79,63.06Z"/></svg>