<svg xmlns="http://www.w3.org/2000/svg" viewBox="0 0 237.92 134.18"><defs><style>.cls-1{isolation:isolate;}.cls-2,.cls-7{fill:#bc7b18;}.cls-3{fill:#bc6b00;}.cls-25,.cls-27,.cls-4{fill:#fedcae;}.cls-26,.cls-27,.cls-31,.cls-35,.cls-4,.cls-5{stroke:#894f1a;}.cls-12,.cls-24,.cls-26,.cls-27,.cls-29,.cls-31,.cls-35,.cls-36,.cls-4,.cls-5,.cls-7,.cls-9{stroke-miterlimit:10;}.cls-12,.cls-24,.cls-26,.cls-30,.cls-31,.cls-35,.cls-36,.cls-5,.cls-9{fill:none;}.cls-6{fill:#ffbe72;}.cls-29,.cls-7{stroke:#bc7b18;}.cls-8{fill:#e07e1e;}.cls-12,.cls-9{stroke:#231f20;}.cls-10{fill:#f3d9ab;}.cls-11{fill:#f3daac;}.cls-12,.cls-35{stroke-width:0.25px;}.cls-13{fill:#f6f6f6;}.cls-14{fill:#3d3123;}.cls-15{fill:#fff;}.cls-16{fill:#894f1a;}.cls-17{fill:#231f20;}.cls-18{fill:#af6104;}.cls-19{fill:#874207;}.cls-20{fill:#9e4808;}.cls-21{fill:#f76f6f;}.cls-22,.cls-23{fill:#f2dcad;}.cls-22{mix-blend-mode:screen;opacity:0.2;}.cls-24{stroke:#800001;}.cls-26,.cls-27{stroke-width:0.5px;}.cls-28{fill:#911919;}.cls-29{fill:#cc821f;}.cls-31{stroke-width:0.75px;}.cls-32{fill:#7f0000;}.cls-33{fill:#ce4545;}.cls-34{fill:#590000;}.cls-36{stroke:#512e11;}</style></defs><g class="cls-1"><g id="Layer_1" data-name="Layer 1"><path class="cls-2" d="M91.27,72.16h0a28.08,28.08,0,0,1-4,14.62,24.63,24.63,0,0,1-1.59,2.27A25.4,25.4,0,0,1,80.44,94l-1,.74c-2.64-.22-4.52,0-8.46-1.64A16.5,16.5,0,0,1,60.69,78.37c-.19-4-.34-7.7-3-11.14A13.09,13.09,0,0,0,56.56,66,14.92,14.92,0,0,0,53,63.39c.66.65,5.42,5.45,4.61,12.17-.74,6.23-5.73,9.55-7.31,10.61-6.76,4.51-16.4,4.15-22.63.45C16.78,80.17,13.1,61.73,19.15,47.19a34.3,34.3,0,0,1,2.93-5.56c7.74-11.78,22.61-17.46,35.49-15C71.07,29.15,78.8,40,79.82,41.37c7.82,10.92,5.74,21.17,10,28.68A14.65,14.65,0,0,0,91.27,72.16Z"/><path class="cls-3" d="M100.12,90.19A33.69,33.69,0,0,1,71,93.1,25.65,25.65,0,0,0,92.74,67.89a15.48,15.48,0,0,0,2.52,2.45,39.8,39.8,0,0,0,2.1,13.92A32.58,32.58,0,0,0,100.12,90.19Z"/><path class="cls-4" d="M89.14,70.68c-.65.39-2.57-1.75-3.21-2.46C81,62.71,76.3,49.7,71.36,43.74,63.26,34,47.73,35,44.94,35.21A38.87,38.87,0,0,0,19.26,47.82a33.43,33.43,0,0,1,2.91-5.56,35,35,0,0,1,35.08-15c13.35,2.55,21,13.34,22,14.78C87,52.92,84.92,63.17,89.14,70.68Z"/><path class="cls-5" d="M89.14,70.68c-.65.39-2.57-1.75-3.21-2.46C81,62.71,76.3,49.7,71.36,43.74,63.26,34,47.73,35,44.94,35.21A38.87,38.87,0,0,0,19.26,47.82"/><path class="cls-6" d="M204.84,70.53c-.64,1.1-1.44,2.32-2.41,3.78-2,.5-9.72,2-11-2.51h0c3.67-2,2.08-5.1.59-6.48l-.16-.14a2.3,2.3,0,0,0-1.12-.65c-.56-.09-1.12-.15-1.68-.19a44.43,44.43,0,0,1,8.31-.36c-.16.66-.25,1.55.25,1.93C198.46,66.51,204.08,67.48,204.84,70.53Z"/><path class="cls-2" d="M175.11,41.47c.17-.34,4.61-11.09,10-9.46,2.15,1.35-1.55,8.82-1.55,8.82Z"/><path class="cls-7" d="M206.48,65.66a11,11,0,0,0-2,.13A18.23,18.23,0,0,0,197.79,64l-.57,0h0a42.5,42.5,0,0,0-8.24.37h0a16.55,16.55,0,0,0-2.73.06,9.18,9.18,0,0,0,4.82-7.18c.45-5.37-4.23-10-9.45-10.17s-10.23,4-10.2,9.4c0,5,4.52,9,9.3,9.27-.59.21-1.16.45-1.71.69l-.23.1a37.54,37.54,0,0,0-8.25,5.12l-.08.06c-1-1.44-2-2.89-3-4.27-7.33,1.72-6.8,9.07-6.76,9.39-7.52-2-3.83-12.17-3.59-12.51-1.73.58-2.92,3.77-3.36,3.77s-.95-3.14,1.68-6.13a14.35,14.35,0,0,0,2.72-2.74h0a19.89,19.89,0,0,0,3.26-8,3.05,3.05,0,0,1,.87-1.3c1.11-1.13,3.3-2.65,7-5.85l.32-.26A15.56,15.56,0,0,1,175,41.34a42.55,42.55,0,0,1,8.66-1.29,20.91,20.91,0,0,1,4.67.08c.07.26-1.85,2.25-1.41,2.69s9.54,1.9,15,9.48C204.6,55.91,207.21,60.85,206.48,65.66Z"/><path class="cls-2" d="M178.86,84.9a.06.06,0,0,0,0,0c-.34-1.32-3.93-7-7.86-12.68l0,0-.2-.28-.08-.12c-1-1.41-2-2.82-2.92-4.16a2.45,2.45,0,0,0-.73-.19c-2.58-.29-4.81,3.64-5.47,4.79a6.43,6.43,0,0,0-.9,2.64,5.88,5.88,0,0,0,.1,1.67,5.09,5.09,0,0,1-2.8-1.25c-2.87-2.63-1.33-8.38-1-9.52.14-.53.29-1,.39-1.26,0-.06.11-.27,0-.33s-.15,0-.21,0a6.57,6.57,0,0,0-1.67,1.28,5.63,5.63,0,0,0-1.43,2.25c0,.08,0,.5-.13.51h0a6.51,6.51,0,0,1-.11-2.15,6.91,6.91,0,0,1,1.87-3.88,13,13,0,0,0,2.12-1.92c.25-.28.47-.55.67-.81a.16.16,0,0,0-.14,0,.29.29,0,0,0-.08,0l-.63.17a23.08,23.08,0,0,1-7.72.38,5.23,5.23,0,0,1-1.41-.36l-.16-.06c-5.32-2.27-11-12.7-20.52-16.72l-.42-.17c-.38-.15-.77-.29-1.16-.42a19.91,19.91,0,0,0-5-1h-.09a39.32,39.32,0,0,0-7.66.77C98.06,45.89,92.21,55.27,92.21,55.27a26.93,26.93,0,0,0-3.88,11.84,35,35,0,0,0,1.4,14.66s2.74,8.59,9,14.43l.21.19a21.43,21.43,0,0,0,6.41,4.34,4.87,4.87,0,0,1,2.13,1.46,6.51,6.51,0,0,0-.59.38c-3.54,2.48-5.77,7.74-3.64,9.12a1.42,1.42,0,0,0,.41.2,4,4,0,0,0,2.25,0c6.34-1.56,26.49-.83,26.49-.83a7.85,7.85,0,0,0,1.36-.57c3.26-1.82-1-4.3-5.26-6.06l-.71-.29-.32-.13c-1.46-.56-2.82-1-3.79-1.34l-.17,0a34.42,34.42,0,0,0,11.81-3.37c0,.05,0,.09,0,.14.14,6,0,5.27.15,6s1,4.12,4.14,5.41l.22.09a6.52,6.52,0,0,0,1.55.36,66.16,66.16,0,0,0,9.21.12c1.7-.07,2.93-.14,3.14-.12s.29-.4.19-1.14c-.3-2.29-3-4.29-5.62-5a8.68,8.68,0,0,0-2.49-.27h0v0a20,20,0,0,1,.87-6.08c.42.09.83.17,1.24.23l.22,0a25.16,25.16,0,0,0,3.31.27c.4,0,.8,0,1.19,0A28.07,28.07,0,0,0,158,98.6l.09,0c7.4-1.68,12.82-5.91,13.68-7.72a5.36,5.36,0,0,1,.73-1.12c1.82-2.23,5.47-4.09,6.35-4.61h0S178.89,85,178.86,84.9Z"/><path class="cls-8" d="M161.39,109.94a15.09,15.09,0,0,1-2.71.09c-1.74,0-3.87,0-5-.07-.22-1.41-1.46-3.76-5.78-4.83V98.86a27.15,27.15,0,0,0,10-.43c-1,1.43-2.31,3.94-1.89,6.41C156.05,104.76,161.23,105.44,161.39,109.94Z"/><path class="cls-6" d="M195.33,80.2a6.62,6.62,0,0,1-1.53,3.21,7.46,7.46,0,0,1-3.49,2.09c-1.74.6-4.37,1.52-6,.13a3.22,3.22,0,0,1-1-1.5l-.1,0c0-2.22,0-9.9,1.11-10.42,0,.4,0,.88-.05,1.41,0,3.22.57,8.21,4.46,7.68a6.29,6.29,0,0,0,2.68-.9,3,3,0,0,0,1-1v0a2.87,2.87,0,0,0,.27-.66h.86C194.15,80.25,194.75,80.23,195.33,80.2Z"/><line class="cls-9" x1="158.19" y1="59.21" x2="158.2" y2="59.21"/><path class="cls-10" d="M205.1,71.1a7.89,7.89,0,0,0-1.34,1.19,7.66,7.66,0,0,0-1.33,2c-2,.5-9.72,2-11-2.51h0c3.67-2,2.08-5.1.59-6.48l-.16-.14a2.3,2.3,0,0,0-1.12-.65c-.56-.09-1.12-.15-1.68-.19a44.43,44.43,0,0,1,8.31-.36,28.75,28.75,0,0,1,3.55.54c1.74.39,2,.61,3.57.94,2.67.55,3.43.22,3.72.78C208.8,67.3,206.71,69.89,205.1,71.1Z"/><path class="cls-11" d="M202.81,74.26a2.5,2.5,0,0,1-.48.14c1-1.47,1.78-2.7,2.42-3.81,0,.08,0,.18.06.28a2.49,2.49,0,0,1,0,.36h0a21.63,21.63,0,0,0,2.09-2.62,11.64,11.64,0,0,0,1.19-2.35,1.21,1.21,0,0,1,.61.2,1.79,1.79,0,0,1,.66,1.2,4.68,4.68,0,0,1,.11,1.6,6.09,6.09,0,0,1-1.05,2.8A5.31,5.31,0,0,1,206,74.18,5,5,0,0,1,202.81,74.26Z"/><path class="cls-12" d="M195.5,80.17a.31.31,0,0,1,0,.08"/><path class="cls-13" d="M202.33,74.3q-.15.26-.33.51a27.13,27.13,0,0,1-3.16,3.67A7.43,7.43,0,0,1,196.77,80q-.75.08-1.56.12c-.58,0-1.18.06-1.81.07h-.86c-1.23,0-2.38-.07-3.44-.17a17.74,17.74,0,0,0,.77-8.15.22.22,0,0,1,0-.08,11.14,11.14,0,0,1,1.41-.1l.06,0h0a.38.38,0,0,0,0,.1C192.62,76.28,200.32,74.82,202.33,74.3Z"/><path class="cls-13" d="M183.82,50.89h-.28a6.62,6.62,0,0,0-6.65,6.33,6.62,6.62,0,0,0,6.31,6.24,4.28,4.28,0,0,0,.62,0,6.58,6.58,0,0,0,6.41-5.73C190.54,54.13,187.36,51,183.82,50.89Zm-3.62,7.84a4.21,4.21,0,1,1,8.37.32,4.19,4.19,0,1,1-8.37-.32Z"/><path class="cls-14" d="M184.57,54.22a4.44,4.44,0,0,0-4.37,4.51,4.19,4.19,0,1,0,8.37.32A4.45,4.45,0,0,0,184.57,54.22Zm1.66,4.27A1.46,1.46,0,0,1,184.92,57a1.5,1.5,0,0,1,1.46-1.5,1.48,1.48,0,0,1,1.33,1.61A1.45,1.45,0,0,1,186.23,58.49Z"/><path class="cls-15" d="M187.71,57.13a1.4,1.4,0,1,1-2.79-.1,1.49,1.49,0,0,1,1.46-1.5A1.47,1.47,0,0,1,187.71,57.13Z"/><path class="cls-16" d="M157.62,110.07a5.14,5.14,0,0,0-2.86-4.68,6,6,0,0,1,2.56,1.69,5.9,5.9,0,0,1,1.3,2.91l-1,.08Z"/><path class="cls-17" d="M192.38,79.94a18.84,18.84,0,0,0,4.19-5.1,19.3,19.3,0,0,1-3.67,5.64l-.52-.54Z"/><path class="cls-2" d="M164.65,51.78c0-.13-11.37-6.19-.83-19.75,1.86-2,4.48-.35,5.82,2.85s-.12,11.17-.53,12Z"/><path class="cls-18" d="M165.93,32c-8.21,10.56-3.1,16.58-.47,18.77l-.9,1c.05-.13-11.36-6.19-.83-19.75a2.42,2.42,0,0,1,3-.6A2.79,2.79,0,0,0,165.93,32Z"/><path class="cls-16" d="M178.91,85.34a21.45,21.45,0,0,1-12-3.42,21,21,0,0,0,11.93,2.42l0,1Z"/><path class="cls-19" d="M190.2,73.24c-4.18.55-5.19,4.66-5.46,6.33a19.46,19.46,0,0,1-.49-5.8,19.06,19.06,0,0,1,5.8-2C190.11,72.24,190.16,72.72,190.2,73.24Z"/><path class="cls-20" d="M192.77,80.26a2.93,2.93,0,0,1-1.24,1.7,6.35,6.35,0,0,1-2.71.94c-2.15.31-3.32-1.06-3.94-2.89,0-.14-.09-.29-.14-.44.27-1.67,1.28-5.78,5.46-6.33,0,.19,0,.39,0,.59,0,.44,0,.9,0,1.37a17.9,17.9,0,0,1-.93,4.89C190.35,80.19,191.52,80.26,192.77,80.26Z"/><path class="cls-21" d="M192.83,80.2a2.91,2.91,0,0,1-1.23,1.71,6.5,6.5,0,0,1-2.71.93,3.15,3.15,0,0,1-3.38-1.63h0s1.29-4.66,4.5-3.75a18.11,18.11,0,0,1-.66,2.58C190.42,80.13,191.59,80.2,192.83,80.2Z"/><path class="cls-22" d="M158.19,59.27l-.1.13c-.2.26-.42.51-.64.76a14.27,14.27,0,0,1-2,1.84c-2.58,2.91-2.18,6-1.74,6.13h0c.48-.21,1.65-3.2,3.32-3.76a.16.16,0,0,0,0,.06l0,0,.11,0c-.17.24-2,5.32-.54,9,0,0,0,.1,0,.14l-.08.26s-11.07,1.59-13.89-4.41c-6.2-26.48-37-22.27-37-22.27a13.79,13.79,0,0,0-3.5.15c-.36.06-.7.14-1,.22l.42-.34a33.68,33.68,0,0,1,3.47-1.92c.75-.36,1.37-.62,2.62-1.13a38,38,0,0,1,4.74-1.71c.16-.05.77-.21,1.59-.38a28.78,28.78,0,0,1,5.44-.63c.92,0,1.6,0,2.09,0a23.21,23.21,0,0,1,4.49.68l.56.19.73.28.42.17c9.49,4,15.2,14.45,20.53,16.71l.15.07a5.32,5.32,0,0,0,1.41.36,22.81,22.81,0,0,0,7.73-.39c.32-.07.63-.16.63-.16Z"/><path class="cls-23" d="M148.27,94.24s9.07.64,14.25-4.17,9.74-1.67,9.44-.52-3.49,7-14.05,8.86c-7.88,1.38-10.06.41-11.43,0"/><path class="cls-23" d="M134.94,94.41s-6.94,3.34-12.56,3.74a54.65,54.65,0,0,1-3.57,4.27s4.31.11,4.74.06,9.9-2.16,11.56-3.55C135.05,99,134.93,95.06,134.94,94.41Z"/><ellipse class="cls-24" cx="195.13" cy="67.44" rx="0.33" ry="0.42"/><ellipse class="cls-24" cx="195.68" cy="69.79" rx="0.42" ry="0.33" transform="translate(87.12 246.92) rotate(-78.13)"/><ellipse class="cls-24" cx="194.49" cy="71.79" rx="0.42" ry="0.33" transform="translate(84.21 247.35) rotate(-78.13)"/><path class="cls-25" d="M206.23,65.43h-.09a12.2,12.2,0,0,1-4.31-2.35c-3.22-2.74-3.09-5.71-7-10.93a28.51,28.51,0,0,0-5.08-5.4c-6.94-5-17.91-.9-21.24.48l.68-1.07.24-1.09c.08-.36.15-.71.22-1.06a9.46,9.46,0,0,1,1-.8,10,10,0,0,1,4.12-1.61h0a4.74,4.74,0,0,0,.7-.17c.79-.16,1.67-.31,2.65-.46.76-.12,1.54-.22,2.36-.31s1.82-.18,2.68-.24,1.48-.12,2.3-.13,1.71,0,2.47.06a13.1,13.1,0,0,0-1.06,1.73,1,1,0,0,0-.1.48.85.85,0,0,0,.05.27c.17.48,2.23,1,2.75,1.12l2.27.89a24.55,24.55,0,0,1,9.8,7.07l.12.16C204.36,55.69,207,60.63,206.23,65.43Z"/><path class="cls-26" d="M206.07,65.43H206a12.2,12.2,0,0,1-4.31-2.35c-3.22-2.74-3.09-5.71-7-10.93a28.49,28.49,0,0,0-5.09-5.4c-6.94-5-17.9-.9-21.24.48l.68-1.07c.08-.36.17-.72.25-1.09s.15-.71.22-1.06a8.54,8.54,0,0,1,1-.8,9.94,9.94,0,0,1,4.12-1.61h0a5.19,5.19,0,0,0,.71-.17c.79-.16,1.66-.31,2.65-.46.75-.12,1.54-.22,2.35-.31s1.82-.18,2.68-.24,1.49-.12,2.31-.13,1.71,0,2.47.06a13.1,13.1,0,0,0-1.06,1.73,1,1,0,0,0-.11.48,1.39,1.39,0,0,0,0,.27c.18.48,2.24,1,2.75,1.12l2.27.89a24.64,24.64,0,0,1,9.81,7.07l.12.16C204.2,55.69,206.8,60.63,206.07,65.43Z"/><path class="cls-3" d="M103.92,112a2.89,2.89,0,0,1-1.37-1h0c-1-1.92,1.06-6.24,4.11-8.41.19-.14.38-.26.58-.38a4.86,4.86,0,0,0-2.08-1.44,21.24,21.24,0,0,1-6.35-4.38l-.13-.13c-8.18-8-10-19.87-10-19.87a29.06,29.06,0,0,1,1.15-15.7,23.85,23.85,0,0,1,4.62-7.84,23.25,23.25,0,0,1,7-5.33c-9.73,19.16-4.56,37.79,5.71,42.87,8.22,4.06,18.44-1.2,20.72-2.44a40.24,40.24,0,0,1-9,14.84c4.3,3,6.25,3.75,7.2,3.82a10.47,10.47,0,0,1,1.56.2,12.38,12.38,0,0,1,2,.6c1.35.55,4,2.11,3.8,3s-3.27.84-7.6,1.14C125.87,111.62,106.58,113,103.92,112Z"/><ellipse class="cls-24" cx="207.25" cy="68.88" rx="0.2" ry="0.25"/><ellipse class="cls-24" cx="206.95" cy="70.29" rx="0.2" ry="0.25" transform="translate(-10.03 44.09) rotate(-11.87)"/><ellipse class="cls-24" cx="207.72" cy="71.41" rx="0.2" ry="0.25" transform="translate(-10.25 44.27) rotate(-11.87)"/><path class="cls-16" d="M167.58,67.43a8.72,8.72,0,0,0-6.34,10,6.63,6.63,0,0,1-5.58-5.73A14.46,14.46,0,0,1,156.75,64l.54.72c-1.13.38-2,2-2.74,3.06-.19.24-.33.53-.69.63s-.7-.42-.72-.59a7.15,7.15,0,0,1,2.15-6c.89-.74,1.77-1.49,2.59-2.3a5.15,5.15,0,0,0,.74-.88,4.77,4.77,0,0,1-.65,1,31.66,31.66,0,0,1-2.37,2.5c-1.28,1.48-2.19,4-1.73,5.62-.06,0-.13,0-.17,0s-.1.06-.08,0c.38-.49.66-1.08,1-1.62A5.28,5.28,0,0,1,157,63.86l.7-.28-.17,1c-1.55,4-1.88,10.49,3.35,11.82l-.53.46c-.29-4.46,2.7-8.83,7.24-9.44Z"/><path class="cls-16" d="M165.22,50.68a.48.48,0,0,0,.12.48l-.19-.16c-6-4.8-4.36-12.75-.28-18.23,1-1.34,2.73-.91,3.64.31a6.11,6.11,0,0,1,1.42,3.69,51.52,51.52,0,0,1-.66,7.84,51.38,51.38,0,0,0,.41-7.83,5.86,5.86,0,0,0-1.44-3.47c-.77-1-2.21-1.41-3-.25-3.61,5.14-5.25,12.83.55,17.17l.28.23a.52.52,0,0,1,.13.49l-1-.27Z"/><path class="cls-16" d="M146,98.46a23.79,23.79,0,0,1,6.6-10A23.3,23.3,0,0,0,147,98.74l-1-.28Z"/><path class="cls-16" d="M140.5,83.14c-5.25,4.62-4.61,12.62-5.1,19L135,99.6c-.51-5.56-.08-13.5,5.47-16.46Z"/><path class="cls-16" d="M124.59,70.83c5.13,4.78,5.76,12.82,3.25,19.1a35.42,35.42,0,0,1-5.91,9.62c-1,1.09-2.06,2.19-3.12,3.25.89-1.21,1.83-2.37,2.74-3.55,6.13-8.28,10.17-19.44,3-28.42Z"/><path class="cls-16" d="M45.21,81.89c-7.78.23-15.95-4.56-18.13-12.35-2.17-7.61.28-16.56,6.62-21.48,9.24-7.74,24.9-5.74,31.8,4.17C71.6,60.83,70.64,72.56,77,81a16.29,16.29,0,0,0,9.74,5.82,16.2,16.2,0,0,1-10-5.58c-6.61-8.27-5.86-19.94-11.91-28.47-6.67-9.4-21.63-11.27-30.52-4a19.14,19.14,0,0,0-7.06,13c-1.65,11.2,7,19.91,18,20.1Z"/><path class="cls-16" d="M97.84,91.56c-11.57,5.92-29.46,6.21-36.06-7a20.25,20.25,0,0,1-2-10A12.3,12.3,0,0,0,55.83,66c-5.9-6-20.8-4-17.85,6.66,1,4.33,9.17,4.91,9.14-.2-.09-2.5-3.3-3.1-5.07-1.83A4,4,0,0,1,45.27,70c2.57.55,2.75,4.14.82,5.58a6,6,0,0,1-6.61.1c-3-2.09-3.18-6.54-1.56-9.56,3.72-6,13.9-5.34,18.56-.79a13,13,0,0,1,4.26,9.23,19.36,19.36,0,0,0,1.86,9.57C69,97,86.31,96.78,97.84,91.56Z"/><path class="cls-16" d="M150,111.34a1,1,0,0,1-.07-.45c.11-2.44-2.71-3.39-4.69-3.84,2.25.16,5.24.92,5.63,3.56l0,.24c0,.05.06.24,0,0l-.88.48Z"/><path class="cls-16" d="M133.26,110.5a10.17,10.17,0,0,0-7.49-4.32,11.07,11.07,0,0,1,6.57,2.09,9.14,9.14,0,0,1,1.75,1.66l-.83.57Z"/><path class="cls-18" d="M184.91,32.86c-4.44-1.41-8.21,6.72-9.14,8.87l-.61.05c.15-.34,4.32-11,9.36-9.37A1.13,1.13,0,0,1,184.91,32.86Z"/><path class="cls-27" d="M181.78,47.06h-.46a10.12,10.12,0,0,0-9.74,7.69,1.85,1.85,0,0,0,0,.23c0,.23-.07.47-.1.71s0,.52,0,.78,0,.47,0,.7,0,.31.05.46l0,.23c.75,4.29,4.77,7.51,9.08,7.86l.24,0h0a23.27,23.27,0,0,1,5.62-1.32h0l.05,0,.08,0a9.17,9.17,0,0,0,4.77-7.1C191.83,51.86,187.08,47.27,181.78,47.06Zm-5,10.16c0-3.54,3.26-6.35,6.76-6.33h.22c3.57.14,6.77,3.24,6.46,6.85-.27,3.26-3.27,5.58-6.4,5.73a4.28,4.28,0,0,1-.62,0h-.06C179.87,63.28,176.8,60.62,176.78,57.22Z"/><path class="cls-2" d="M191.53,71.88h0l-.06,0a9.53,9.53,0,0,0-1.41.08h0a18.39,18.39,0,0,0-5.71,1.9c-1.12.52-1.13,8.2-1.11,10.42l-.6.1a31.58,31.58,0,0,1-4,.43h-.1c.07-.41-1-2.38-2.66-5.08-.06-.11-.13-.22-.2-.33-1.41-2.29-3.21-5-5.07-7.82l-.05-.07a38.59,38.59,0,0,1,8.37-5l.23-.1c.59-.25,1.2-.49,1.83-.71h0a23.43,23.43,0,0,1,5.59-1.26h0a16.5,16.5,0,0,1,4.43.18,2.07,2.07,0,0,1,1,.56l.16.15C193.61,66.72,195.2,69.85,191.53,71.88Z"/><path class="cls-28" d="M195.09,67.93c-6.45-3.51-14.08-4.16-21.27-3.14a41.87,41.87,0,0,1,11-.64,29.73,29.73,0,0,1,10.5,2.78s0,0,0,0l-.21,1Z"/><path class="cls-28" d="M195.61,70.31c-5.6-3.06-12.22-3.66-18.47-2.79a31.61,31.61,0,0,1,16.57.91,19.28,19.28,0,0,1,2.09.89s0,0,0,0l-.21,1Z"/><path class="cls-28" d="M194.35,72.28c-4.9-2.7-10.68-3.25-16.17-2.5a27,27,0,0,1,15.53,1.13c.22.1.64.28.85.39,0,0-.2,1-.21,1Z"/><path class="cls-5" d="M147.9,99a27.75,27.75,0,0,0,4.95.23,27.46,27.46,0,0,0,5.2-.74"/><path class="cls-5" d="M95.65,92.59a35.09,35.09,0,0,1-5.21-9.35,36,36,0,0,1-2.29-14.19l.23-3.19"/><path class="cls-5" d="M148,99v6.15l-.07,0h-.09a15.94,15.94,0,0,0-2.24-.39h0v0a20,20,0,0,1,.87-6.08l.15,0c.21,0,.43.09.65.12C147.67,98.87,148,99,148,99Z"/><path class="cls-29" d="M176.89,40.79c.12-.24,3.27-7.86,7.08-6.71,1.52,1-1.1,6.26-1.1,6.26Z"/><path class="cls-30" d="M176.66,40.79c.12-.24,3.27-7.86,7.08-6.71,1.52,1-1.1,6.26-1.1,6.26Z"/><path class="cls-5" d="M174.66,41.47A64.43,64.43,0,0,1,184,40.12"/><path class="cls-29" d="M165.63,48.06c0-.08-7.26-4-.53-12.62,1.19-1.26,2.86-.22,3.71,1.82s-.07,7.14-.33,7.66Z"/><path class="cls-30" d="M165.6,48.37c0-.09-7.26-4-.53-12.62,1.19-1.27,2.86-.23,3.72,1.82s-.08,7.14-.34,7.66Z"/><path class="cls-31" d="M209.49,67.57a1.85,1.85,0,0,0-.66-1.2,1.44,1.44,0,0,0-.61-.2h0a2.1,2.1,0,0,0,.06-.24,3.06,3.06,0,0,0-1-.34,4.11,4.11,0,0,0-.6-.08h-.13c.7-4.78-1.89-9.7-4.5-13.29-5.49-7.59-14.6-9-15-9.48a.28.28,0,0,1-.06-.26,4.41,4.41,0,0,1,.51-1c.44-.64,1-1.31,1-1.46A21.13,21.13,0,0,0,184,40c.88-2,2.9-7,1.18-8a3.87,3.87,0,0,0-2.31,0c-4.09.94-7.29,8.05-7.86,9.33a15.7,15.7,0,0,0-5.11,2.3,37.66,37.66,0,0,0,.37-4.15,12.19,12.19,0,0,0-.54-4.63c-1-2.26-2.52-3.73-4-3.71a2.46,2.46,0,0,0-1.89.85c-7.25,9.35-4.1,15.13-1.45,17.87a3.15,3.15,0,0,0-.86,1.29,19.93,19.93,0,0,1-3.27,8h0l0,0s0-.06,0-.06l-.09,0c-.19.06-.4.12-.62.17a22.63,22.63,0,0,1-7.69.38,4.58,4.58,0,0,1-1.41-.36l-.15-.06c-5.3-2.27-11-12.7-20.44-16.72l-.42-.17c-.38-.15-.76-.29-1.15-.42a20.31,20.31,0,0,0-4.93-1h-.1a40,40,0,0,0-7.62.77C97.18,45.86,91.5,56.38,91.5,56.38a26.06,26.06,0,0,0-2.9,9.28h0c0,.33-.1.65-.14,1-2.4-7.07-1.82-16-8.53-25.33-1-1.43-8.75-12.22-22.26-14.77-12.88-2.43-27.74,3.24-35.48,15a33.83,33.83,0,0,0-2.93,5.55c-6.05,14.55-2.37,33,8.47,39.44,6.23,3.7,15.87,4.06,22.63-.45a19.9,19.9,0,0,0,3.85-3.24,15,15,0,0,0,3.22-11.61c-.53-3-2.1-5.69-3.23-6.56-.08-.07-.67-.52-.64-.57a6.33,6.33,0,0,1,1.33.72,10.17,10.17,0,0,1,3,3.12,12.87,12.87,0,0,1,1.72,4.12,17.09,17.09,0,0,1,.4,2.28,16.42,16.42,0,0,1,.08,2.53,17.74,17.74,0,0,0,1.73,7A19,19,0,0,0,65.2,89,19.47,19.47,0,0,0,71,93.12a21.23,21.23,0,0,0,3.31,1.21,26.19,26.19,0,0,0,7.22.71,37.12,37.12,0,0,0,5.54-.27,33.9,33.9,0,0,0,5.71-1.28c1-.3,1.92-.63,2.8-1a1.09,1.09,0,0,0,.13.17,28.67,28.67,0,0,0,3.06,3.52l.13.13a21.11,21.11,0,0,0,6.35,4.38,4.69,4.69,0,0,1,1.9,1.24l-.33.22a11.3,11.3,0,0,0-4.21,6.13,3.74,3.74,0,0,0,0,2.64h0a3.18,3.18,0,0,0,.26.27,1.69,1.69,0,0,0,.41.39,2,2,0,0,0,.36.18l.34.15a11,11,0,0,0,6.23.42c2.07-.26.76.16,6.24,0,6.37-.25,13-1,16-1.37.25-.08.45-.17.61-.22a1.11,1.11,0,0,0,.27-.12,4.47,4.47,0,0,0,.49-.24c1.27-.7,1.39-1.51.82-2.34-.74-1.36-3.47-2.79-6.18-3.92l-.71-.29-.32-.12c-1.29-.51-2.51-.94-3.44-1.24h0a34.3,34.3,0,0,0,11.22-3.25c.14,5.85,0,5.14.15,5.92a9.09,9.09,0,0,0,1.28,3,6.45,6.45,0,0,0,3,2.6l.22.09a6.91,6.91,0,0,0,1.55.36,69.4,69.4,0,0,0,9.21.12c1.7-.07,2.93-.14,3.14-.12s.29-.45.19-1.14c0,0,0,0,0-.07.59,0,3.28.06,4.82.07a14.94,14.94,0,0,0,2.7-.09,5,5,0,0,0-.18-1.2c-.85-3.32-4.75-4-5.18-4a9.67,9.67,0,0,1,.24-2.73A9.93,9.93,0,0,1,158,98.55l.14,0,.09,0a29.37,29.37,0,0,0,4-1.22,20.48,20.48,0,0,0,5.71-2.88,11.9,11.9,0,0,0,3.93-3.62,5.64,5.64,0,0,1,.73-1.12c1.82-2.22,5.47-4.08,6.35-4.6h0a.21.21,0,0,0,0-.22.06.06,0,0,0,0,0h0a29.78,29.78,0,0,0,3.75-.43l.6-.09v-.08l0,0a12.09,12.09,0,0,0,1,1.5c1.63,1.39,4.26.47,6-.13A9.09,9.09,0,0,0,193,84.18a6.52,6.52,0,0,0,.92-.85,6.73,6.73,0,0,0,1.52-3.14c.26,0,1-.15,1.32-.18a7.62,7.62,0,0,0,.76-.44,7.43,7.43,0,0,0,1.44-1.18,26.4,26.4,0,0,0,3.16-3.67l.28-.41h.07l0,0,.14,0,.19,0a6,6,0,0,0,3.14-.08,4,4,0,0,0,.51-.24,5.39,5.39,0,0,0,2.14-2,6.15,6.15,0,0,0,1-2.8A4.69,4.69,0,0,0,209.49,67.57Z"/><path class="cls-32" d="M201.72,73.11c-.67-.1-1.32-1.24-2.55-2.62-1.41-1.61-2.55-2-3.23-2.94-.75-1.08,2.86-3,6.32-2.88,3.28.12,4.79,1.23,4.53,2.5S203.92,73.26,201.72,73.11Z"/><path class="cls-33" d="M205.83,66.27c-2.5-1.36-6.09-1.13-8.78-.37a10.24,10.24,0,0,1,5.21-1.23c3.28.12,4.79,1.23,4.53,2.5a9.47,9.47,0,0,1-.68,1.28C206.4,67.31,206.35,66.62,205.83,66.27Z"/><path class="cls-34" d="M197.07,65.89c-.71,1.3,2.08,2,3.2,3.17.86.84,1.25,2.49,2.22,2.59,1.4,0,2.71-2.24,4.17-4-.61,1.69-2.95,5.64-4.94,5.5-.67-.1-1.32-1.24-2.55-2.62-1.41-1.61-2.55-2-3.23-2.94C195.62,67.08,196.12,66.45,197.07,65.89Z"/><path class="cls-35" d="M195.91,66.92a.38.38,0,0,0,0,.42,6.3,6.3,0,0,0,1.24,1.13,13.93,13.93,0,0,1,2.12,1.92c.4.45.73.87,1,1.24.61.76,1.09,1.37,1.47,1.42h.09c2.1,0,4.7-4.8,5-6a1.16,1.16,0,0,0-.25-1c-.61-.77-2.16-1.27-4.25-1.35h-.36C199,64.72,196.37,66.05,195.91,66.92Z"/><path class="cls-36" d="M209.52,69.18a.25.25,0,0,0,0-.07,4.14,4.14,0,0,0,0-.58s2-1.37-.07-.68c0-.11,0-.23-.06-.35a1.83,1.83,0,0,0-.66-1.21,1.27,1.27,0,0,0-.62-.2h0c0-.08,0-.16,0-.23a2.85,2.85,0,0,0-1-.35,4.11,4.11,0,0,0-.6-.08h-.12c.69-4.82-1.9-9.77-4.51-13.4-5.51-7.64-14.63-9.11-15.07-9.55a.28.28,0,0,1-.05-.26,4.69,4.69,0,0,1,.51-1,7.35,7.35,0,0,0,1-1.47,21.2,21.2,0,0,0-4.46-.08c.88-2,2.91-7,1.19-8.09a3.82,3.82,0,0,0-2.32,0c-4.09.94-7.3,8.11-7.87,9.4a21.74,21.74,0,0,0-3,1.11c-.22.1-.44.21-.67.34a10.83,10.83,0,0,0-1.41.87,38.42,38.42,0,0,0,.37-4.19,12.35,12.35,0,0,0-.54-4.66c-1-2.27-2.53-3.76-4-3.74a2.31,2.31,0,0,0-1.56.57,3.54,3.54,0,0,0-.43.37c-7.26,9.42-4.1,15.25-1.45,18a3.25,3.25,0,0,0-.87,1.3,20.1,20.1,0,0,1-3.21,8l0,0-.09,0c-.19.06-.4.12-.62.17a22.7,22.7,0,0,1-7.71.39,5.26,5.26,0,0,1-1.4-.36l-.16-.07c-5.31-2.28-11-12.8-20.47-16.85l-.42-.17c-.38-.15-.76-.29-1.15-.42a20,20,0,0,0-5-1H121a40,40,0,0,0-7.63.77c-10.71,2.73-16.83,8.17-19.81,11.64a19.16,19.16,0,0,0-1.56,2c-.49.71-.73,1.15-.73,1.15a24.92,24.92,0,0,0-1.84,4.42,28.38,28.38,0,0,0-1.12,4.71c0,.22-.07.44-.1.65l-.06-.23,0,.45C85.8,59.14,86.27,50.32,79.64,41c-1-1.44-8.77-12.32-22.29-14.89a35.77,35.77,0,0,0-28.61,7.49,33.52,33.52,0,0,0-7,7.74A34,34,0,0,0,18.77,47C12.71,61.61,16.4,80.2,27.26,86.69c6.23,3.73,16.29,4.58,23.06,0A20.73,20.73,0,0,0,52.58,85c.52-.44,7.22-5.09,4.18-17.77,4.51,5.33,2,10.13,4.72,16.65l0,0c.12.26.23.49.35.73a16.24,16.24,0,0,0,8.53,8.4l.32.16A20.23,20.23,0,0,0,74,94.46a18.7,18.7,0,0,0,3.56.61c1.32.14,2.57.18,3.74.19h1A33.87,33.87,0,0,0,86.7,95a33.19,33.19,0,0,0,5.53-1.24c1.06-.32,2.06-.67,3-1l.25.32a28.39,28.39,0,0,0,3,3.4l.13.13a21,21,0,0,0,6.36,4.41,4.77,4.77,0,0,1,1.89,1.25l-.22.15a11.68,11.68,0,0,0-3.78,4.87c-.74,1.57-1,3.09-.5,4h0a2.57,2.57,0,0,0,.32.36v0h0a1.32,1.32,0,0,0,.33.29,1.36,1.36,0,0,0,.42.2s0,0,0,0,.16.09.26.13a4,4,0,0,0,.79.17,12,12,0,0,0,5.55.16h0c.61,0,1.24,0,1.87,0a37.21,37.21,0,0,0,4.38,0c3.62-.15,7.32-.45,10.39-.76,3.57-.22,6.09-.22,6.53-1l.35-.17a4.16,4.16,0,0,0,.58-.4,1.35,1.35,0,0,0,.34-2c-.74-1.37-3.48-2.81-6.19-4l-.71-.29-.32-.13c-1.24-.49-2.41-.9-3.32-1.2a34.22,34.22,0,0,0,11.15-3.29l0,.82c.09,4.25,0,4.43.08,4.85a2.5,2.5,0,0,0,.09.55c.14.69,1,4.14,4.14,5.44l.22.09a6.6,6.6,0,0,0,1.56.37,69.53,69.53,0,0,0,9.22.12c1.7-.07,2.94-.14,3.14-.12,0,0,.07,0,.11-.09s.28-.46.18-1.14a.15.15,0,0,0,0-.07c1,0,2.65,0,4.14.06h1.19a11.58,11.58,0,0,0,2.21-.09,5.68,5.68,0,0,0-.18-1.22c-.85-3.33-4.76-4-5.19-4a9.87,9.87,0,0,1,.24-2.76,10,10,0,0,1,1.51-3.43h.09l.09,0a29.79,29.79,0,0,0,4.22-1.3,20.8,20.8,0,0,0,5.64-2.89c.53-.36,1-.72,1.46-1.06l0,0c.16-.12.31-.25.45-.37a7.71,7.71,0,0,0,2-2.22,5.34,5.34,0,0,1,.74-1.13A11.48,11.48,0,0,1,174,88.21a33.7,33.7,0,0,1,4.69-3s0,0,0,0,0,0,0,0l.08,0h0s0-.12,0-.2a31.85,31.85,0,0,0,3.64-.42l.6-.09v-.07l.1,0v-.07l0,0a3.24,3.24,0,0,0,1,1.49,3.3,3.3,0,0,0,2.18.73,11.74,11.74,0,0,0,3.84-.87l.63-.23.07,0a9.8,9.8,0,0,0,1.32-.62h0a6.21,6.21,0,0,0,1-.71,5.66,5.66,0,0,0,.6-.6,6.74,6.74,0,0,0,1.52-3.16L196.6,80h.08a6.62,6.62,0,0,0,1.45-1c.3-.25.54-.49.73-.68A27.1,27.1,0,0,0,202,74.71c.1-.14.18-.28.27-.41h0l-.06.09.46-.13.2,0a4.93,4.93,0,0,0,3-.14A4.24,4.24,0,0,0,207,73.5a3.37,3.37,0,0,0,.35-.29l.17-.15a6.56,6.56,0,0,0,.93-1.13,6.68,6.68,0,0,0,.42-.72s1.77-1,.22-.5a5.36,5.36,0,0,0,.26-.8S211.36,68.66,209.52,69.18Z"/><path class="cls-28" d="M207.15,68.4c3.71-1.79,8.41-1.91,12.51-1.05a19.86,19.86,0,0,0-11.84,1.8,3.42,3.42,0,0,1-.47.23l-.2-1Z"/><path class="cls-28" d="M206.84,69.78a17.67,17.67,0,0,1,10.9-.85,17.22,17.22,0,0,0-10.41,1.7,1.43,1.43,0,0,1-.28.13l-.21-1Z"/><path class="cls-28" d="M207.58,70.93a14.33,14.33,0,0,1,7.15-1.06,21.38,21.38,0,0,1,2.4.37,21.61,21.61,0,0,0-2.41-.12A13.71,13.71,0,0,0,208,71.79a1.56,1.56,0,0,1-.26.11l-.2-1Z"/></g></g></svg>