<svg id="Layer_1" data-name="Layer 1" xmlns="http://www.w3.org/2000/svg" viewBox="0 0 115.97 128.1"><defs><style>.cls-1{fill:#ffa4c2;}.cls-1,.cls-5{stroke:#563b35;}.cls-1,.cls-2,.cls-3,.cls-4,.cls-5{stroke-miterlimit:10;}.cls-2{fill:#153c89;stroke:#1c688e;}.cls-2,.cls-3{stroke-width:0.5px;}.cls-3{fill:#f4e8df;stroke:#3a3213;}.cls-4{fill:#fbd3c7;stroke:#453323;}.cls-5{fill:#ff85b4;}</style></defs><path class="cls-1" d="M106.78,110.38c-7.28,12.12-78.36.92-78.36.92s-5.6-1.68-4.19-14.87a78.72,78.72,0,0,0,.07-10.5C24.06,79.4,21.62,69,19,59.49c-.48-1.82-1-3.61-1.47-5.33l-2-6.66c-.07-.17-.1-.34-.17-.51C8.64,25.46,7.13,17.6,7.13,17.6l31.79-6.39s1.65,4.08,3.71,10.47a179.18,179.18,0,0,1,4.91,18.37c.42,1.86.76,3.78,1.1,5.7.38,1.44.76,2.82,1.1,4.19L50.05,51v0c1.48,5.73,3,11.4,5.49,20.53a9,9,0,0,0,2.89,5.09,66.67,66.67,0,0,0,19.36,10c.35.14.66.27,1,.38C95,92.45,114,98.25,106.78,110.38Z"/><path class="cls-2" d="M108.32,108.77a12.11,12.11,0,0,1-1.07,2.31c-7.33,12.59-79.1.81-79.1.81s-2.54-.8-3.79-5.41a27.93,27.93,0,0,1-.47-10,87.82,87.82,0,0,0,.05-10.91c6.24,8.17,32.82,13,45.22,9.28,5.77-1.74,8-5.13,8.77-8.41.36.15.68.27,1,.39C94.33,92.08,112.12,97.77,108.32,108.77Z"/><path class="cls-3" d="M77.22,87.54s3.1,13.06-6.54,6.87S71.2,84.24,77.22,87.54Z"/><path class="cls-3" d="M76.82,88.88s13.2-2.42,3.65-8.64S71.37,84.76,76.82,88.88Z"/><path class="cls-4" d="M50.15,49.74l-.41.2c-8.1,4.6-22.22,4.81-32.24,4.22-.72,0-1.38-.06-2-.13a22.08,22.08,0,0,1-.34-6.66,1.61,1.61,0,0,0,.34.13c-.07-.17-.1-.34-.17-.51C8.64,25.46,7.13,17.6,7.13,17.6l31.79-6.39s1.65,4.08,3.71,10.47a179.18,179.18,0,0,1,4.91,18.37,2.06,2.06,0,0,0,.14-.38A22.2,22.2,0,0,1,50.15,49.74Z"/><path class="cls-5" d="M50.15,49.74c0,.48-.07.92-.1,1.27v0a6.73,6.73,0,0,1-.62,2.2c-17.3,9.3-30.35,6.32-30.35,6.32s-.07,0-.11-.07A7.87,7.87,0,0,1,15.47,54a22.08,22.08,0,0,1-.34-6.66,1.61,1.61,0,0,0,.34.13c1.2.48,5.77,1.75,17.51-.58s14.08-5.73,14.56-6.87a2.06,2.06,0,0,0,.14-.38A22.2,22.2,0,0,1,50.15,49.74Z"/><path class="cls-3" d="M108.32,108.77a12.11,12.11,0,0,1-1.07,2.31c-7.33,12.59-79.1.81-79.1.81s-2.54-.8-3.79-5.41c5.39,2.6,18.41,5.9,49.72,7.08C94.33,114.33,104.08,112,108.32,108.77Z"/></svg>