<svg id="Layer_1" data-name="Layer 1" xmlns="http://www.w3.org/2000/svg" viewBox="0 0 222.75 211.25"><defs><style>.cls-1{opacity:0.3;}.cls-2{fill:#c34804;stroke:#7c320d;}.cls-17,.cls-2,.cls-3,.cls-6{stroke-miterlimit:10;}.cls-3{fill:#fcf200;stroke:#a89c0b;}.cls-4{fill:#fec119;}.cls-5{fill:#f2a905;}.cls-6{fill:#ff7e2a;stroke:#af440e;}.cls-7{fill:#fb6010;}.cls-8{fill:#fde664;}.cls-9{fill:#febe42;}.cls-10{fill:#ff631e;}.cls-11{fill:#dc0604;}.cls-12{fill:#8c0606;}.cls-13{fill:#f9f2f2;}.cls-14{fill:#683c3c;}.cls-15{fill:#30252b;}.cls-16{fill:#fff;}.cls-17{fill:#d10409;stroke:#a30814;}.cls-18{fill:#ffe632;}.cls-19{fill:#ffd713;}.cls-20{fill:#fd1441;}</style></defs><ellipse class="cls-1" cx="114.41" cy="182.48" rx="38.3" ry="12.61"/><path class="cls-2" d="M97.26,148.52S93.5,151.59,92,174.66c0,0-6.59.11-6.71.91s6.59,1.93,6.59,1.93,4.55,9.09,6.25,10.45,3,.12-2-7.84c0,0,3.29,1.48,7.27,3.75,0,0,3.18.46-3.63-5.11,0,0,.9-1,6.25.57,0,0,6-1.48-10.69-4.32a44.74,44.74,0,0,1,5.8-23.64C107.94,139.31,97.26,148.52,97.26,148.52Z"/><path class="cls-2" d="M130.34,150.11s-3.12,3.71-.31,26.66c0,0-6.45,1.33-6.42,2.13s6.84.68,6.84.68,6.15,8.1,8.07,9.12,2.93-.43-3.46-7.33c0,0,3.52.85,7.85,2.34,0,0,3.21-.14-4.52-4.35,0,0,.7-1.17,6.24-.6,0,0,5.65-2.56-11.29-2.27a44.72,44.72,0,0,1,1.32-24.3C139.14,139.09,130.34,150.11,130.34,150.11Z"/><path class="cls-3" d="M45,75S37.82,63.85,31.56,62.82s-2.27,5.91,0,8c0,0-10.91-5.8-14.43-.91S28.38,80.44,28.38,80.44s-13.75-.57-13.52,5.46,8.29,6.13,14.2,5.79c0,0-12,3.3-9.43,8.75s14-1.25,14-1.25-3.64,3.64-.8,5.12,7.62-1.14,9.32-5.91S45,75,45,75Z"/><path class="cls-4" d="M44.18,75.1,44,74.86c-.78-1.17-4.32-6.27-8-7.38-4.21-1.25-3.64,2.85-.34,5.69,0,0-7.85-3.19-10.35.11s7.73,8,7.73,8-9.89,0-9.89,4.43,10.69,4.2,10.69,4.2-7.28,2.39-7.73,7.39,12-1.93,12-1.93-4.55,4-3,6.25,6.48.11,7.28-3.64S44.18,75.1,44.18,75.1Z"/><path class="cls-5" d="M43.61,74.76s-7.27-6.48-4.89.91c0,0-5.45-1.25-4.09,2.5s3.75,4.09,3.75,4.09-5.45.57-6.59,3.86c0,0,.34,3,6,2.28a8.37,8.37,0,0,0-3.53,4.54c-.79,3,5.68,1.25,5.68,1.25s-3.86,3.07-1.47,4.32a3.26,3.26,0,0,0,4-.57S35.88,84.19,43.61,74.76Z"/><path class="cls-6" d="M183.88,95.87a73.1,73.1,0,0,1-1,8.27,62.37,62.37,0,0,1-3.66,12.68,60.33,60.33,0,0,1-16.14,22.55c-30.52,27.1-69.62,27-109.17-21.43l-.79-1.42S39.52,98.28,39.52,79.87a4.69,4.69,0,0,1,.09-.78c.41-2.18,2.84-8,17-5.18,13.79,2.73,36.33,7.32,60.34.28q2.84-.82,5.7-1.89h0a86,86,0,0,0,10.16-4.53c.74-.38,1.47-.79,2.21-1.2,0,0,2.21-.33.51-9S132.43,31,149.65,29.75,174.71,50,178.8,61.63a94.35,94.35,0,0,1,4.64,20.13A82.26,82.26,0,0,1,183.88,95.87Z"/><path class="cls-7" d="M183.88,95.87a73.1,73.1,0,0,1-1,8.27c-7.85-.94-10.43-8.42-10.43-8.42s-1.53,3.41-11.08,3.41-10.23-8.35-10.23-8.35S147.6,94,138.4,92.32s-7.16-10.57-7.16-10.57c-13.09.7-15-3.76-14.33-7.56q2.84-.82,5.7-1.89h0a86,86,0,0,0,10.16-4.53c.74-.38,1.47-.79,2.21-1.2,0,0,2.21-.33.51-9S132.43,31,149.65,29.75,174.71,50,178.8,61.63a94.35,94.35,0,0,1,4.64,20.13A82.26,82.26,0,0,1,183.88,95.87Z"/><path class="cls-8" d="M184.33,95.64c-7.82.81-11.38-6.45-11.38-6.45s-2,4.94-11.08,4.6-8.7-8.52-8.7-8.52-5.63,4.77-12.78,2-5.12-9.88-5.12-9.88c-12.32,1.46-13.49-2.06-12.2-5.36h0a85.23,85.23,0,0,0,10.17-4.53c.73-.38,1.47-.78,2.2-1.19,0,0,2.22-.34.51-9s-3.06-26.59,14.15-27.78,25.06,20.28,29.15,31.88a93.46,93.46,0,0,1,4.64,20.12A81.26,81.26,0,0,1,184.33,95.64Z"/><path class="cls-9" d="M183.44,81.76c-5.09,2.57-13.33-1.38-13.33-1.38-9.72,5.46-14.33-1.19-14.33-1.19-12.1,1.87-13.12-6.65-13.12-6.65-7.42.09-9.52-2.43-9.88-4.77.74-.38,1.47-.79,2.21-1.2,0,0,2.21-.33.51-9S132.43,31,149.65,29.75,174.71,50,178.8,61.63A94.35,94.35,0,0,1,183.44,81.76Z"/><path class="cls-10" d="M179.26,116.34a60.33,60.33,0,0,1-16.14,22.55C132.6,166,93.5,165.88,54,117.46L53.16,116S39.52,97.8,39.52,79.39a4.59,4.59,0,0,1,.09-.78C42.85,90,55.9,126.51,92.54,140.25,131.78,155,165.23,132.33,179.26,116.34Z"/><path class="cls-11" d="M150.9,58.34s-.68,5.11,4.32,9.6A13.47,13.47,0,0,0,166,71.35L155.79,58.22Z"/><path class="cls-12" d="M153.4,59.41c.42.43,1.45,5.2,12.7,12.11,0,0-5.8-9.12-5.8-10.06S153.4,59.41,153.4,59.41Z"/><path class="cls-11" d="M150.5,58.22s5.63-3.58,8.18-3.92,14.84,1.36,17.9,9.21c0,0-21.14.51-26.08-3.75Z"/><ellipse class="cls-12" cx="158.6" cy="55.78" rx="1.16" ry="0.57"/><ellipse class="cls-13" cx="146.24" cy="48.33" rx="5.64" ry="6.79" transform="translate(-5.47 74.91) rotate(-28.23)"/><path class="cls-14" d="M151.26,45.64c2.91,5-.64,11.79-6.85,9.4-5.19-1.91-7-10.41-1.6-13.1,3.33-1.51,6.92.78,8.45,3.7Zm-.09,0C146.7,38,137.39,43,141.36,51c4.44,7.7,13.74,2.69,9.81-5.27Z"/><ellipse class="cls-15" cx="145.12" cy="48.44" rx="3.68" ry="4.75" transform="translate(-6.3 70.33) rotate(-26.69)"/><ellipse class="cls-16" cx="146.23" cy="46.07" rx="1.25" ry="1.61" transform="translate(-5.12 70.58) rotate(-26.69)"/><ellipse class="cls-13" cx="161.07" cy="44.46" rx="5.64" ry="6.79" transform="translate(-1.87 81.47) rotate(-28.23)"/><path class="cls-14" d="M166.09,41.76c2.92,5-.64,11.79-6.85,9.4-5.18-1.91-7-10.41-1.6-13.1,3.33-1.51,6.92.78,8.45,3.7Zm-.09.05c-4.47-7.68-13.78-2.69-9.81,5.27,4.45,7.7,13.74,2.69,9.81-5.27Z"/><ellipse class="cls-15" cx="159.95" cy="44.57" rx="3.68" ry="4.75" transform="translate(-2.98 76.58) rotate(-26.69)"/><ellipse class="cls-16" cx="161.06" cy="42.2" rx="1.25" ry="1.61" transform="translate(-1.79 76.83) rotate(-26.69)"/><path class="cls-11" d="M141.24,37.81a4.7,4.7,0,0,1,2.65-1.33.87.87,0,0,1,.77.23.81.81,0,0,1,.15.34,2.06,2.06,0,0,1,.07.92,1.9,1.9,0,0,1-.89,1.17,14,14,0,0,1-1.34.68,6.33,6.33,0,0,0-1.6,1.17,3.05,3.05,0,0,1-1.17.92c-.35.11-1,0-1.07-.43s.32-.94.49-1.25A9.84,9.84,0,0,1,141.24,37.81Z"/><path class="cls-11" d="M156.82,34.32a5.12,5.12,0,0,0-3,.85,1,1,0,0,0-.47.71.76.76,0,0,0,.11.36,1.64,1.64,0,0,0,2,1c.52-.09,1-.29,1.53-.43a7.14,7.14,0,0,1,2.05-.24,3.25,3.25,0,0,0,1.55-.12c.35-.16.76-.69.58-1.08s-.88-.48-1.21-.59A9.61,9.61,0,0,0,156.82,34.32Z"/><path class="cls-17" d="M146.25,22.83A1.57,1.57,0,0,0,147,22a8.7,8.7,0,0,0,.78-2.54c.1-.69.19-1.51.81-1.84a1.7,1.7,0,0,1,.81-.15,2,2,0,0,1,1.26.29,2.25,2.25,0,0,1,.64,1,10,10,0,0,1,1,3.95,5.16,5.16,0,0,0,.12,2.57,5.72,5.72,0,0,0,2.48-3.53.93.93,0,0,1,.29-.61.62.62,0,0,1,.32-.11,1.38,1.38,0,0,1,1.07.45,4.21,4.21,0,0,1,.67,1l.46.86a11.35,11.35,0,0,1,.64,1.31,5.36,5.36,0,0,1-.42,4.57,2,2,0,0,1-2.18,1.1,12.24,12.24,0,0,1-1.55-.33,18.83,18.83,0,0,0-5.46-.07c.13.09,0,.26-.2.29-1.76.42-3.67.27-5.3,1.06a10.59,10.59,0,0,0-1.69,1.13,24.14,24.14,0,0,0-4.57,4.22,9.42,9.42,0,0,1-.93,1.14,26.94,26.94,0,0,1-2.36,1.58,12.73,12.73,0,0,0-2.06,2.38,4.73,4.73,0,0,1-2.48,1.85,4.51,4.51,0,0,1-3-.53,5.78,5.78,0,0,1-2.62-2.21,4.62,4.62,0,0,1-.28-3.61,7.29,7.29,0,0,1,2.06-3,4.46,4.46,0,0,0,.91-1c.22-.39.3-.84.5-1.25a3.41,3.41,0,0,1,2.71-1.65c1.1-.13,2.21,0,3.31,0,.24,0,.54-.07.58-.31a.54.54,0,0,0-.16-.36A6.18,6.18,0,0,0,131,27.92c-.86-.42-1.8-.63-2.68-1a3.6,3.6,0,0,1-2-1.88,3,3,0,0,1,.87-3.07,6.69,6.69,0,0,1,3-1.52,11.08,11.08,0,0,1,4.16-.44A6.31,6.31,0,0,1,138,21.68a5.67,5.67,0,0,0,1.59,1.39,20.62,20.62,0,0,1,.29-3.59,18.09,18.09,0,0,0,.08-2.33,1.09,1.09,0,0,1,.29-.87c.33-.26.81-.05,1.17.15a11.23,11.23,0,0,1,1.36.87,6.61,6.61,0,0,1,1.08,1.1A11.18,11.18,0,0,1,146.25,22.83Z"/><path class="cls-18" d="M134.82,112.26c-.35,4.44-1,25.4-42.79,18.75a50.59,50.59,0,0,1-20.49-9.76,39.2,39.2,0,0,1-11.91-15.81,8.16,8.16,0,0,1-.52-2.94c.09-2,1.35-4.12,6.82-2.86-.28-.17-5.72-3.49-3.22-6.64a4.11,4.11,0,0,1,5.53-1.25c-.55-.42-3.63-2.87-1.62-4.89,1.29-1.28,6.37.24,12.31,1.55,4.29,1,9,1.78,13.1,1.35,9.71-1,27.61-3.41,35.12,3.92A29.76,29.76,0,0,1,131.52,99,20.83,20.83,0,0,1,134.82,112.26Z"/><path class="cls-19" d="M134.82,112.26c-.35,4.44-1,25.4-42.79,18.75a50.59,50.59,0,0,1-20.49-9.76,5.51,5.51,0,0,1,4-2.48c-1.75-.86-3.74-2.06-3.88-4a3.83,3.83,0,0,1,2-3.37,11.5,11.5,0,0,1,3.9-1.25,9.44,9.44,0,0,1-3.17-1.5,3.27,3.27,0,0,1-1.27-3.1c.45-1.93,2.92-2.5,4.89-2.44-2.26-.31-3.43-3.33-2.36-5.36s3.64-2.9,5.89-2.53c-2.13-.56-4.54-3.87-3.28-6.13a2.13,2.13,0,0,1,.64-.67c4.29,1,9,1.78,13.1,1.35,9.71-1,27.61-3.41,35.12,3.92A29.76,29.76,0,0,1,131.52,99,20.83,20.83,0,0,1,134.82,112.26Z"/><path class="cls-20" d="M134.82,112.26c-.35,4.44-1,25.4-42.79,18.75,0,0-23.7-4.26-32.4-25.57a8.16,8.16,0,0,1-.52-2.94c12.28,22.82,47.6,29.29,63.09,21.87,12-5.75,10.81-18.8,9.32-25.38A20.83,20.83,0,0,1,134.82,112.26Z"/></svg>