<svg id="Layer_1" data-name="Layer 1" xmlns="http://www.w3.org/2000/svg" viewBox="0 0 97.94 97.99"><defs><style>.cls-1{fill:#ffd15f;}.cls-2{fill:none;stroke:#d67d13;stroke-miterlimit:10;}</style></defs><path class="cls-1" d="M74.36,36.14s-1.22-10.52-11-3.16S38.05,47.19,13.14,37.89c0,0,.53,5.09,9.3,9,0,0-7.37-.53,5.44,7.72,0,0-5.44.88,8.24,8.6,0,0-3.33,3.85,12.63,5.78S76.82,49.47,76.82,49.47L75.07,36.32"/><path class="cls-2" d="M74.36,36.14s-1.22-10.52-11-3.16S38.05,47.19,13.14,37.89c0,0,.53,5.09,9.3,9,0,0-7.37-.53,5.44,7.72,0,0-5.44.88,8.24,8.6,0,0-3.33,3.85,12.63,5.78S76.82,49.47,76.82,49.47L75.07,36.32"/><path class="cls-1" d="M20.86,45.61s18.42,9.83,42.28-4.21"/><path class="cls-2" d="M20.86,45.61s18.42,9.83,42.28-4.21"/><path class="cls-1" d="M26.3,53.86a43.45,43.45,0,0,0,38.77-5.79"/><path class="cls-2" d="M26.3,53.86a43.45,43.45,0,0,0,38.77-5.79"/><path class="cls-1" d="M34.89,62.28s20.88,4.56,31.75-7.37"/><path class="cls-2" d="M34.89,62.28s20.88,4.56,31.75-7.37"/></svg>