<svg id="Layer_1" data-name="Layer 1" xmlns="http://www.w3.org/2000/svg" viewBox="0 0 87.16 68.45"><defs><style>.cls-1{fill:#f8f6f0;}.cls-2{fill:#8e243a;}.cls-3{fill:#7e57a3;}.cls-4{fill:#12170d;}.cls-5{fill:#e91a68;}</style></defs><ellipse class="cls-1" cx="27.54" cy="38.89" rx="17.37" ry="19.72"/><path class="cls-2" d="M44.91,38.89c.19,16.63-18.29,27.38-30.27,13.69a21.86,21.86,0,0,1,0-27.39c12-13.69,30.46-2.94,30.27,13.7Zm0,0c.2-12.66-11.89-24-24.28-17.8-13.4,7-13.4,28.63,0,35.6C33,62.92,45.11,51.54,44.91,38.89Z"/><ellipse class="cls-3" cx="32.06" cy="40.65" rx="9.9" ry="11.24"/><ellipse class="cls-4" cx="32.37" cy="40.35" rx="3.57" ry="4.05"/><ellipse class="cls-1" cx="35.94" cy="37.43" rx="2.9" ry="3.29"/><ellipse class="cls-1" cx="60.95" cy="38.46" rx="16.04" ry="18.21"/><path class="cls-2" d="M77,38.46c.18,15.37-16.9,25.31-28,12.66A20.2,20.2,0,0,1,49,25.8C60.1,13.16,77.18,23.1,77,38.46Zm0,0c.21-11.64-11-22.2-22.42-16.41-12.34,6.38-12.34,26.45,0,32.84C66,60.67,77.21,50.11,77,38.46Z"/><ellipse class="cls-3" cx="65.14" cy="40.09" rx="9.14" ry="10.38"/><ellipse class="cls-4" cx="65.42" cy="39.81" rx="3.3" ry="3.74"/><ellipse class="cls-1" cx="68.72" cy="37.12" rx="2.68" ry="3.04"/><path class="cls-5" d="M35.36,9c-.13-.09-5.06-4.42-6.48-3.89S26.52,7.26,28.57,9c0,0-7.32-2.5-7.14,1.65-.09-.18-5.94-.27-3.31,3.21-.22-.09-4.77,1.75-3.3,4.56,7.78-4.67,11.6-5.11,13.65-4.52a19,19,0,0,0,3.54.63c2.28.21,4.21.38,4.91-.62S37,10.82,35.36,9Z"/><path class="cls-5" d="M54.13,9.89c.12-.07,4.26-3.72,5.46-3.27s2,1.84.25,3.27c0,0,6.17-2.1,6,1.39.08-.15,5-.22,2.79,2.71.18-.08,4,1.46,2.78,3.83-6.55-3.93-9.76-4.3-11.49-3.8a17,17,0,0,1-3,.53c-1.92.17-3.54.32-4.13-.53S52.79,11.46,54.13,9.89Z"/></svg>