<svg id="Layer_1" data-name="Layer 1" xmlns="http://www.w3.org/2000/svg" viewBox="0 0 97.94 97.99"><defs><style>.cls-1{fill:#ffd15f;stroke:#d67d13;stroke-miterlimit:10;}</style></defs><path class="cls-1" d="M26.59,40.68s1.23-10.53,11.05-3.16S62.9,51.73,87.81,42.43c0,0-.52,5.09-9.29,9,0,0,7.37-.53-5.44,7.72,0,0,5.44.87-8.25,8.59,0,0,3.34,3.86-12.63,5.79S24.14,54,24.14,54l1.75-13.16"/><path class="cls-1" d="M80.1,50.15S61.68,60,37.82,45.94"/><path class="cls-1" d="M74.66,58.39a43.47,43.47,0,0,1-38.77-5.78"/><path class="cls-1" d="M66.06,66.82s-20.87,4.56-31.75-7.37"/></svg>