<svg id="Layer_1" data-name="Layer 1" xmlns="http://www.w3.org/2000/svg" viewBox="0 0 365.62 622.91"><defs><style>.cls-1{fill:#050505;opacity:0.2;}.cls-2{fill:#342517;}.cls-3{fill:#f9dad2;stroke:#4c2606;}.cls-12,.cls-13,.cls-14,.cls-20,.cls-3,.cls-32,.cls-33,.cls-5,.cls-6,.cls-7,.cls-8,.cls-9{stroke-miterlimit:10;}.cls-4{fill:#dd9f8f;}.cls-5{fill:#ffa4c2;}.cls-13,.cls-5,.cls-8{stroke:#563b35;}.cls-10,.cls-6{fill:#fbd3c7;}.cls-6{stroke:#453323;}.cls-7{fill:#153c89;stroke:#1c688e;}.cls-7,.cls-9{stroke-width:0.5px;}.cls-8{fill:#ff85b4;}.cls-9{fill:#f4e8df;stroke:#3a3213;}.cls-11{fill:#453323;}.cls-12{fill:#fe66ca;}.cls-12,.cls-32{stroke:#af1086;stroke-width:2px;}.cls-13{fill:#f9f1ef;}.cls-14{fill:#faf079;stroke:#9a9435;}.cls-15{fill:#ba8313;}.cls-16{fill:#f86909;}.cls-17{fill:#342516;}.cls-18{fill:#b26b51;}.cls-19{fill:#eaa698;opacity:0.5;}.cls-20,.cls-22{fill:#fff;}.cls-20{stroke:#3d2d16;stroke-width:0.75px;}.cls-21{fill:#3d2d16;}.cls-23{fill:#8c3d35;}.cls-24{fill:#7a2f2b;}.cls-25{fill:#f9988f;}.cls-26{fill:#f58778;}.cls-27{fill:#fff7f4;}.cls-28{fill:#f48a71;}.cls-29{fill:#ef4b3b;}.cls-30{fill:#fffa71;}.cls-31{fill:#cc0098;}.cls-32{fill:#e852bb;}.cls-33{fill:#e7d760;stroke:#baa73b;}</style></defs><ellipse class="cls-1" cx="181.77" cy="567.16" rx="140.95" ry="33.5"/><path class="cls-2" d="M242.62,99.21s5,45.59.11,78.66,11.08,42.54-9.46,61.36S172.78,266.59,155.9,249c0,0-11.36,3.63-38.46-.53S70,231.07,77.73,203.74s4.31-63.43,5.64-84.87,26.71-46.74,79.66-32S242.62,99.21,242.62,99.21Z"/><path class="cls-3" d="M162.91,256.72c-29,8.28-26-21.91-26-21.91s4.1-2.3,5.89-9.07c.92-3.55,1.24-8.3,0-14.59-3.55-18.35,34.92-5.33,34.92-5.33l2.36,5.92,3.56,2.95s-3.73,6.34-.82,12.82a14.24,14.24,0,0,0,3.78,4.94S191.91,248.43,162.91,256.72Z"/><path class="cls-4" d="M182.81,227.51c-6.5,2.22-13.6,3.78-20.19,3.32a56.39,56.39,0,0,1-19.85-5.09c.92-3.55,1.24-8.3,0-14.59-3.55-18.35,34.92-5.33,34.92-5.33l2.36,5.92,3.56,2.95S179.9,221,182.81,227.51Z"/><path class="cls-5" d="M149.49,563s-70,16.69-78.18,5.15,10.3-18.78,26.06-25.44c.34-.14.65-.28,1-.45,9.72-4.22,15.59-8.79,18.51-11.47a7.63,7.63,0,0,0,2.51-5.29c.27-6,.21-14.86,0-23.62v0c-.35-14.45-1.07-28.53-1.07-28.53l33.93,1.55s-.45,12.56-.69,27.43c-.21,12-.28,25.48.1,35.09a83.41,83.41,0,0,0,.89,10.48C155,560.87,149.49,563,149.49,563Z"/><path class="cls-6" d="M152.21,474.86s-.45,12.56-.69,27.43c-16.79,6.22-26.61,3.61-32.17-.41v0c-.35-14.45-1.07-28.53-1.07-28.53Z"/><path class="cls-7" d="M153.82,557.79c-.81,5.2-3.54,6.27-3.54,6.27s-72.12,17.29-80.58,5.35a12.5,12.5,0,0,1-.86-1.39C62.77,556.9,81,549.66,96.56,543c.35-.15.67-.29,1-.47,1,3.2,3.57,6.4,9.58,7.69,12.92,2.7,39.6-4.13,45.3-12.74a86.3,86.3,0,0,0,.92,10.85A28.19,28.19,0,0,1,153.82,557.79Z"/><path class="cls-8" d="M118.58,493.93s1.52,4.24,16.06,4.24,17.87-3,17.87-3,3,9.09-1.51,12.73c0,0-12.42,5.45-31.51-.31C119.49,507.56,116.16,503.62,118.58,493.93Z"/><path class="cls-5" d="M300.65,560.66c-7.28,12.13-78.36.93-78.36.93s-5.6-1.68-4.19-14.87a78.72,78.72,0,0,0,.07-10.5c-.24-6.53-2.68-16.9-5.32-26.44-.48-1.82-1-3.61-1.48-5.33l-2-6.66c-.07-.17-.1-.34-.17-.51-6.66-21.53-8.17-29.39-8.17-29.39l31.8-6.39s1.64,4.08,3.7,10.47a179.18,179.18,0,0,1,4.91,18.37c.42,1.86.76,3.78,1.1,5.7.38,1.44.76,2.82,1.1,4.19.11.34.21.72.31,1.07v0c1.48,5.73,3,11.4,5.5,20.53A8.94,8.94,0,0,0,252.3,527a66.63,66.63,0,0,0,19.37,10c.34.13.65.27,1,.38C288.9,542.74,307.89,548.54,300.65,560.66Z"/><path class="cls-7" d="M302.19,559.06a12.11,12.11,0,0,1-1.07,2.31c-7.33,12.59-79.1.81-79.1.81s-2.54-.8-3.79-5.41a27.93,27.93,0,0,1-.47-10,87.82,87.82,0,0,0,.05-10.91c6.24,8.17,32.82,13,45.22,9.28,5.77-1.74,8.05-5.13,8.77-8.41.36.15.68.27,1,.39C288.2,542.37,306,548.05,302.19,559.06Z"/><path class="cls-9" d="M271.09,537.83s3.1,13.06-6.54,6.87S265.07,534.53,271.09,537.83Z"/><path class="cls-9" d="M270.69,539.17s13.2-2.42,3.66-8.65S265.25,535.05,270.69,539.17Z"/><path class="cls-6" d="M244,500l-.41.21c-8.1,4.6-22.21,4.81-32.24,4.22-.72,0-1.37-.06-2-.13a22.08,22.08,0,0,1-.34-6.66,1.61,1.61,0,0,0,.34.13c-.07-.17-.1-.34-.17-.51-6.66-21.53-8.17-29.39-8.17-29.39l31.8-6.39s1.64,4.08,3.7,10.47a179.18,179.18,0,0,1,4.91,18.37,2.06,2.06,0,0,0,.14-.38A22.19,22.19,0,0,1,244,500Z"/><path class="cls-8" d="M244,500c0,.49-.06.93-.1,1.28v0a6.44,6.44,0,0,1-.62,2.2c-17.3,9.3-30.35,6.32-30.35,6.32s-.07,0-.1-.07a7.87,7.87,0,0,1-3.51-5.46,22.08,22.08,0,0,1-.34-6.66,1.61,1.61,0,0,0,.34.13c1.21.48,5.77,1.75,17.52-.58,11.6-2.3,14.07-5.74,14.55-6.87a2.06,2.06,0,0,0,.14-.38A22.19,22.19,0,0,1,244,500Z"/><path class="cls-10" d="M215.94,297.5s14.29,25.52,29.49,23.83c10.91-1.21,41.2-55.34,41.2-55.34l-14.34-12.93-30.9,32.32-6.87-11.72Z"/><path class="cls-11" d="M216,297.5c5.79,9.15,15.77,22.52,27.4,23.32,3.44.4,6-2.09,8.33-4.39a67.71,67.71,0,0,0,4.5-5.06A252.45,252.45,0,0,0,271.84,289c4.87-7.69,9.54-15.54,14-23.46l.18,1.1-14.3-13,1.17-.05c-7.71,8.06-23.29,24.18-31.07,32.16l-.57.59-.4-.7-6.77-11.78.82.06L216,297.5Zm-.1,0,18.64-23.94c0,.08,6.87,11.71,6.92,11.79h-.11c.07-.06,30.88-32.34,31-32.39s14.32,13,14.41,13c-4.24,7.94-9.26,15.86-14.09,23.59-6.22,9.53-12.42,19.24-20.38,27.44-2,1.87-4.24,4.2-7.15,4.47-12.46.71-23.4-14.31-29.19-23.93Z"/><path class="cls-10" d="M242.2,284.17s-5.26,2-5.26,10.5"/><path class="cls-11" d="M242.21,284.21a16.93,16.93,0,0,0-4.3,7.51c-.31,1-.54,2-.92,2.95h-.1c0-3.07.67-6.36,2.81-8.69a7.71,7.71,0,0,1,2.48-1.86l0,.09Z"/><path class="cls-6" d="M268.86,256.5s.4-10.1,4-16c0,0,2.22-3.84,11.71-6.87,6.33-2,8.8-4.13,9.74-5.31a.89.89,0,0,1,1.39-.06c1.94,2.34,5.91,8.85-4.66,14.06,0,0,.2,9.09,9.29,10.5,0,0,10.1,1.82,16.16,5.66,0,0,8.88,3,4.44,6.86,0,0,2.22,5.25-7.07,4.65,0,0,1.62,4.64-7.07,5.05s-25-2-25-2"/><line class="cls-6" x1="318.95" y1="259.93" x2="297.74" y2="255.28"/><line class="cls-6" x1="320.16" y1="265.59" x2="296.73" y2="259.93"/><line class="cls-6" x1="313.9" y1="270.03" x2="294.31" y2="265.79"/><path class="cls-6" d="M291.78,242.1s-2.47,11.06-8.33,14.09"/><path class="cls-10" d="M299.16,253.06s-3,7.68-6.67,17"/><path class="cls-11" d="M299.2,253.08a48.26,48.26,0,0,1-4.39,13,36.63,36.63,0,0,1-2.27,4l-.1,0c1.62-4.25,5-12.76,6.67-17l.09,0Z"/><path class="cls-6" d="M58,412.93s.3,11.52,4.84,2.73l5.15-20H57.78"/><path class="cls-6" d="M52.53,415.66s-1.51,8.48,2.12,6.67,3.94-6.06,8.18-23.64S58,384.76,58,384.76"/><path class="cls-6" d="M47.68,413.24S45,419,47.68,422s6.06-4.24,10.31-18.78l3.63-10.91"/><path class="cls-6" d="M52.94,400.11s7.47-4.45,17.77,1.41,3-14.34,3-14.34l-9.49-6.26S49.7,393.85,52.94,400.11Z"/><path class="cls-6" d="M80.71,371.73c1.51,20-2.42,25.45-2.42,25.45l-.91,8.48c-.91,15.45-5.76,7-5.76,7s-1.82-12.42-6.06-17-10.3,4.25-15.45,14.55-8.79,7.27-8.79,7.27c1.1-8,5.53-19.33,11-30.1,5.15-10.11,11.41-19.89,11.41-19.89s8.59-22.93,12-35.86,12.93-35.14,12.93-35.14l23.83,10.1S105.45,332.24,82.83,366c0,0-1.41,3.23-2.42,6.47"/><path class="cls-12" d="M242.62,272.44,213.91,304s-3.81-3.4-10-7.9h0c-9-6.59-23-15.49-37.67-19.57-16.62-4.64-35,13.12-45.29,25.17a127.74,127.74,0,0,0-8,10.37L79,292.66s1.92-4.87,5.46-12.09a201.62,201.62,0,0,1,18.37-30.73c14.94-20.22,38.48-21.9,38.48-21.9s-16.26,29.15,17.25,26.33,25.85-23,25.85-23c13.36-.79,25.48,8.52,25.48,8.52l23,23Z"/><path class="cls-13" d="M121,301.66a127.74,127.74,0,0,0-8,10.37L79,292.66s1.92-4.87,5.46-12.09Z"/><path class="cls-13" d="M242.62,272.44,213.91,304s-3.81-3.4-10-7.9l29-33.34Z"/><path class="cls-13" d="M141.76,225.94s-4.11,14.7,10.17,19.85,12.38,7.88,12.38,7.88-4.76,15.45-20.31,9.39-19-25.15-4.76-35.15Z"/><path class="cls-13" d="M183,224.61s4.22,15.41-8.22,20.56S164,253.05,164,253.05s4.15,15.45,17.69,9.39,16.58-25.15,4.15-35.14Z"/><path class="cls-12" d="M111.61,271.54s-4.24,23-2.42,63c0,0-2.42,36.06-9.09,64.23s-13.33,68.78-13.33,68.78-7,6.67,35.14,9.39,123.32-3.94,127-18.78c0,0-21.81-53-36.05-112.41l-1.82-13V275.18"/><path class="cls-14" d="M109.19,334.56s-3.94,5.15-1.52,15.45c0,0,28.07,9.76,64.12,6.12S213.11,347,213.11,347s3.64-5.45-.91-13.93c0,0-59.38,19.39-101.8,2.42"/><path class="cls-14" d="M183.39,306.31a6.61,6.61,0,0,1-.73,1.36,7.18,7.18,0,0,1-3.1,2.49c-1.89.79-7.45.21-8.22-2.1.89,2.68,2.21,4,.82,7a9.23,9.23,0,0,1-1.82,2.58,10.55,10.55,0,0,1-1.25,1.07,10.32,10.32,0,0,1-2.73,1.47,8.86,8.86,0,0,1-2,.46,8.3,8.3,0,0,1-1.41,0c-5.12-.49-8.69-6.29-7.28-11.63-.24.93-3.49,2.46-4.35,2.68a11.05,11.05,0,0,1-6.69-.19,8.22,8.22,0,0,1-1.8-1,7.67,7.67,0,0,1-1.23-1.07A6.57,6.57,0,0,1,140,304.9h0c0-.36,0-.72,0-1.08,0-.15,0-.31,0-.46.67-5,5.31-8.66,10.27-7-2.77-3.06-5-6.6-3.78-9.55a4.62,4.62,0,0,1,.74-1.25,9.68,9.68,0,0,1,4.58-2.78,7,7,0,0,1,1.73-.22c3.25,0,5.93,2.32,6.95,5.64-.27-3.26,2.57-7.27,5.39-8.45a7.82,7.82,0,0,1,3.94-.44,11.25,11.25,0,0,1,1.88.4h0a11,11,0,0,1,4.23,2.35,7.6,7.6,0,0,1,1,1.08,5.93,5.93,0,0,1,.4.62c2.93,5.21-1.75,9.83-5.47,12.94,4.26-1.79,10,.52,11.57,4.9a7.32,7.32,0,0,1,.35,1.57c0,.1,0,.2,0,.3A6.44,6.44,0,0,1,183.39,306.31Z"/><path class="cls-15" d="M167.08,306c3.62-2.88,5.11-8.23.92-12.33a8.61,8.61,0,0,0-12.91,1c-2.93,3.79-2.58,9.47,1.61,12.06A8.86,8.86,0,0,0,167.08,306Z"/><path class="cls-16" d="M166.29,305c3.08-2.45,4.34-7,.78-10.47a7.3,7.3,0,0,0-11,.83c-2.49,3.22-2.2,8.05,1.36,10.24A7.52,7.52,0,0,0,166.29,305Z"/><path class="cls-9" d="M98,545.44s-13.33-1.52-4.24-8.49S103.13,540.89,98,545.44Z"/><path class="cls-9" d="M96.86,544.61s-2.21,13.23,6.89,6.37S102.58,540.88,96.86,544.61Z"/><path class="cls-9" d="M153.82,557.79c-.81,5.2-3.54,6.27-3.54,6.27s-72.12,17.29-80.58,5.35a12.5,12.5,0,0,1-.86-1.39c4.17,1.26,11,2.32,21.87,1.75C111.15,568.72,146.35,564.08,153.82,557.79Z"/><path class="cls-9" d="M302.19,559.06a12.11,12.11,0,0,1-1.07,2.31c-7.33,12.59-79.1.81-79.1.81s-2.54-.8-3.79-5.41c5.39,2.6,18.41,5.9,49.72,7.08C288.2,564.62,298,562.29,302.19,559.06Z"/><path class="cls-17" d="M82.61,122.08c0,45.31,35.74,74.12,80.28,74.12s80.65-36.73,80.65-82-23.34-83.74-82-83.74C100,30.42,82.61,76.77,82.61,122.08Z"/><path class="cls-3" d="M224.64,158.2c3.19-4.32,7.35-8.47,12.3-7.67s7.35,5.43,6.39,13.42-2.71,12.15-8.78,16.94-9.27,7.19-15.67,2.88C217.76,175,223,161.07,224.64,158.2Z"/><path class="cls-18" d="M220.54,181.08a3.68,3.68,0,0,0,2.44-.24,14.44,14.44,0,0,0,2.26-1,7.79,7.79,0,0,0,3.35-3.77,7.54,7.54,0,0,0,.28-5,7.28,7.28,0,0,0-1.35-2.57c.34-.57.72-1.11,1.09-1.65a47.23,47.23,0,0,1,3.21-4.11,10.49,10.49,0,0,1,3.81-3.27,3,3,0,0,1,2.35.07,2.29,2.29,0,0,1,1.46,1.91,2.33,2.33,0,0,0-1.27-2.26,3.39,3.39,0,0,0-2.75-.32c-1.84.56-3.08,2-4.24,3.32a32.07,32.07,0,0,0-3.11,4.31c-.31.53-.6,1.06-.88,1.6-.05.09-.09.18-.14.28a4.68,4.68,0,0,1,.27.44,8.08,8.08,0,0,1,.93,2.4,7.54,7.54,0,0,1-.44,4.55,7.77,7.77,0,0,1-2.91,3.56,21.07,21.07,0,0,1-2.07,1.2A4,4,0,0,1,220.54,181.08Zm12.9-5a49,49,0,0,1-4.52,2.81,23.83,23.83,0,0,0,4.88-2.29,10.36,10.36,0,0,0,3.79-4,9.45,9.45,0,0,0,.81-5.42A21,21,0,0,0,237,162a39.92,39.92,0,0,1,.76,5.26,9.71,9.71,0,0,1-.92,5A11,11,0,0,1,233.44,176.1Z"/><path class="cls-3" d="M102.28,158.46c-3.24-4.38-7.46-8.59-12.49-7.78s-7.45,5.51-6.48,13.62,2.76,12.32,8.92,17.18,9.4,7.3,15.89,2.92C109.25,175.49,103.9,161.38,102.28,158.46Z"/><path class="cls-18" d="M104.12,181.06a21.86,21.86,0,0,1-2.11-1.22,7.93,7.93,0,0,1-3-3.61,7.53,7.53,0,0,1-.44-4.62,8.17,8.17,0,0,1,.94-2.44c.08-.15.18-.29.27-.44l-.14-.28c-.28-.55-.58-1.09-.89-1.62a30.94,30.94,0,0,0-3.16-4.37c-1.18-1.31-2.43-2.81-4.3-3.38a3.41,3.41,0,0,0-2.79.33,2.33,2.33,0,0,0-1.28,2.29,2.28,2.28,0,0,1,1.47-1.94,3.05,3.05,0,0,1,2.39-.07c1.57.6,2.71,2,3.87,3.32a49,49,0,0,1,3.25,4.17c.38.54.75,1.1,1.1,1.67A7.34,7.34,0,0,0,98,171.46a7.77,7.77,0,0,0,.28,5.1,8,8,0,0,0,3.4,3.82,15.35,15.35,0,0,0,2.3,1.05,3.73,3.73,0,0,0,2.48.25A4,4,0,0,1,104.12,181.06Zm-14.22-8.3a9.92,9.92,0,0,1-.94-5.07,39.61,39.61,0,0,1,.78-5.33,21.59,21.59,0,0,0-1.43,5.28,9.83,9.83,0,0,0,.82,5.51,10.57,10.57,0,0,0,3.85,4,24,24,0,0,0,5,2.33,50.42,50.42,0,0,1-4.58-2.86A11,11,0,0,1,89.9,172.76Z"/><path class="cls-3" d="M98.59,134.36c.06.58-5.75,1.19-5.68,1.76,2.29,19.35,5.84,37.88,8.44,47.48a37.33,37.33,0,0,0,4.4,10.17A42.15,42.15,0,0,0,117.82,206a142,142,0,0,0,21.49,11.63,108,108,0,0,0,10.9,4.2,41.39,41.39,0,0,0,11.86,2.29,46.45,46.45,0,0,0,13.37-2.49c10.34-3.23,21.28-8.83,27.19-11.94,8.65-4.51,19.15-14.19,21.62-24.49a479.51,479.51,0,0,0,9.26-48.16c.87-6.51-4.7-9-10.06-28.34-7.16-25.89-17-36.15-57.84-36.15C94.39,72.59,96.31,114.39,98.59,134.36Z"/><path class="cls-19" d="M229.16,163s-6.72-43.69-21.23-55.52S191.34,88,191.34,88s-3.86,22.11-28.83,31.56l1.09-13.27a32.33,32.33,0,0,1-14.83,13.27l2.4-16.75a260.49,260.49,0,0,0-37.27,18c-18.07,10.84-17.31,46.56-17.31,46.56l7.26-74.08,61.76-25.62,39.31-1.55,26.61,36.65-4.13,28.57Z"/><ellipse class="cls-20" cx="132.92" cy="148.96" rx="13.01" ry="13.77"/><ellipse class="cls-21" cx="132.73" cy="148.81" rx="8.71" ry="9.21"/><ellipse class="cls-22" cx="128.66" cy="141.39" rx="2.39" ry="2.53"/><ellipse class="cls-20" cx="194.92" cy="151.44" rx="13.01" ry="13.77"/><ellipse class="cls-21" cx="194.6" cy="151.43" rx="8.57" ry="9.07"/><ellipse class="cls-22" cx="190.66" cy="143.88" rx="2.39" ry="2.53"/><path class="cls-23" d="M172.49,170c-2.28,7-12.93,9-16.21,1.57,5.22,4.54,11.61,3,16.21-1.57Z"/><path class="cls-19" d="M186.61,182.31c1-.4,2.17-2,3.07-2.57a7,7,0,0,1,3-1c1.38-.14,3.06.36,3.34,1.62.22,1-.57,2-1.45,2.61a8.94,8.94,0,0,1-5.32,1.64,2.68,2.68,0,0,1-2.2-.84c-.44-.64.07-1.76.89-1.64Z"/><path class="cls-19" d="M142,185.09c-.64-.71-1.67-2.69-2.49-3.21a4.11,4.11,0,0,0-1.78-.7,3,3,0,0,0-3,1.94,3.55,3.55,0,0,0,.77,3.44,6.88,6.88,0,0,0,3.25,2,5.08,5.08,0,0,0,2.59.23,2.26,2.26,0,0,0,1.81-1.61,2.16,2.16,0,0,0-1.13-2.07,7.65,7.65,0,0,0-2.47-.82Z"/><path class="cls-24" d="M137.71,184a22.41,22.41,0,0,0,1.11,2.55c2.46,4.94,8.31,14.06,15.74,17.46a20.68,20.68,0,0,0,17.26-.3c7.09-3.34,10.31-7.31,14.37-14,1.33-2.18,2.74-4.64,4.41-7.46,0,0,.41-.52-.26-.55a4.58,4.58,0,0,0-1.1.19c-4,1.11-14.11,6.73-29.78,6-12-.59-18.62-3.23-21-4.42a.53.53,0,0,0-.71.25A.39.39,0,0,0,137.71,184Z"/><path class="cls-25" d="M138.82,186.58c2.46,4.94,8.31,14.06,15.74,17.46a20.68,20.68,0,0,0,17.26-.3c7.09-3.34,10.31-7.31,14.37-14-4.73,5.23-12.72,12.09-22.43,12.75C150.47,203.4,141.41,190.72,138.82,186.58Z"/><path class="cls-26" d="M137.72,183.73A50.92,50.92,0,0,0,165,190.08c14.46-.61,22.72-6.36,25.33-8.34a4.58,4.58,0,0,0-1.1.19c-4,1.11-14.11,6.73-29.78,6-12-.59-18.62-3.23-21-4.42A.53.53,0,0,0,137.72,183.73Z"/><path class="cls-27" d="M184.45,184.8c-.3.12-17.14,10.25-40.28,1.9,0,0,3.33,7.62,17.29,8.35C177.41,195.87,184.45,184.8,184.45,184.8Z"/><path class="cls-28" d="M163.7,202.3c3.28-.18,7.38-1.05,9-2.51-2.9-2.86-6.64-.77-9.8-1.68-6.61-1.91-8.89.47-9.76,1.78C155.05,201.42,159.13,202.56,163.7,202.3Z"/><path class="cls-21" d="M190.52,123.57s13-2.21,19.18,6.4a.44.44,0,0,0,.8-.22c-.2-2.62-1.62-8-9.67-9.57C188.12,117.69,190.52,123.57,190.52,123.57Z"/><path class="cls-21" d="M141,118.27s-13-2.21-19.18,6.4a.44.44,0,0,1-.8-.22c.2-2.62,1.62-8,9.67-9.57C143.34,112.39,141,118.27,141,118.27Z"/><path class="cls-17" d="M88.23,145.22a82.75,82.75,0,0,0,6.27,12.26c.41.71,3.51,4.62,3.37,5.47,0,0-5.16-34.2,19.42-46.73,9.59-4.89,19.47-8.81,29.16-13.32s19.32-9.19,28.61-14.65c4.9-2.87,10.18-5.93,14.51-10,16.18,27.48,36.74,28.09,38.53,74.14.1,2.45.33,4.89.5,7.33l.56,3.2s4-3.51,11-25.27c7.64-22.85-10.72-39.55-21.92-58.73-17.78-30.43-38.18-26.77-45.77-27.52-13.38-1.34-13.42,8.22-26.56,11-28.85,6.07-39.64,1.11-45.75,33.49C96.53,115.19,80.93,127.63,88.23,145.22Z"/><path class="cls-17" d="M165.61,86.7a42.12,42.12,0,0,1,0,27.17,58.61,58.61,0,0,0,24.73-40.71"/><path class="cls-17" d="M172.49,83.83s-.41,9.88-21.32,30.76c0,0,7.75-13.79,3.34-27.89"/><path class="cls-29" d="M234.87,153.1a154.07,154.07,0,0,0-3-41.78A79.53,79.53,0,0,0,221.68,81.5C209.35,60.67,184.63,49.14,160.76,50c-20.55.8-42.44,9.46-54.23,26.9a88.72,88.72,0,0,0-11.88,38.69A153.08,153.08,0,0,0,93,138.71a129.88,129.88,0,0,0,1.49,18.77,114,114,0,0,1-7-42.5c1.25-11.32,3.7-22.62,8.5-33A54.71,54.71,0,0,1,107,65.24c18.77-18.78,47.52-25.89,73.21-20.44a77.31,77.31,0,0,1,34.94,17.74C228.83,74.74,236,92.44,239,110.21c1.51,14.3-.23,29.14-4.08,42.89Z"/><path class="cls-12" d="M238.44,89.49C244.92,83.67,254,83.2,245.7,74S219,67.8,219,67.8s-5,18,3.25,27.23S232,95.3,238.44,89.49Z"/><path class="cls-12" d="M199.2,45.75c6.48-5.81,7.93-14.77,16.2-5.54s3.25,27.22,3.25,27.22-18.44,3-26.71-6.17S192.72,51.56,199.2,45.75Z"/><circle class="cls-30" cx="198.08" cy="58.53" r="1.87"/><circle class="cls-30" cx="205.34" cy="62.17" r="1.87"/><circle class="cls-30" cx="206.45" cy="51.02" r="1.87"/><path class="cls-30" d="M215.49,55.49a1.87,1.87,0,1,0-2.64-.14A1.88,1.88,0,0,0,215.49,55.49Z"/><circle class="cls-30" cx="212.03" cy="46.02" r="1.87"/><path class="cls-30" d="M209.63,65.79a1.87,1.87,0,0,1,3.11,1.55c-1.13,0-2.39,0-3.72,0A1.86,1.86,0,0,1,209.63,65.79Z"/><path class="cls-30" d="M201.69,65.36a1.88,1.88,0,0,1,.45.93,26.15,26.15,0,0,1-3.14-1l0-.06A1.88,1.88,0,0,1,201.69,65.36Z"/><path class="cls-30" d="M218.57,47.7l0,0a23.5,23.5,0,0,1,.67,3.19,1.86,1.86,0,0,1-.69-3.17Z"/><path class="cls-30" d="M217.85,60.93a1.88,1.88,0,0,1,.15-2.65,1.85,1.85,0,0,1,1.53-.45c-.07,1.33-.2,2.59-.35,3.71A1.86,1.86,0,0,1,217.85,60.93Z"/><path class="cls-30" d="M197.12,51.84a1.87,1.87,0,0,1-3.1-1.68c.76-.47,1.57-1,2.39-1.5a1.85,1.85,0,0,1,.85.54A1.87,1.87,0,0,1,197.12,51.84Z"/><path class="cls-30" d="M191.68,54.2a1.88,1.88,0,0,1-.14,2.65,1.91,1.91,0,0,1-1.46.46,3.86,3.86,0,0,1-.11-3.7A1.88,1.88,0,0,1,191.68,54.2Z"/><path class="cls-30" d="M205.63,41.69a1.87,1.87,0,0,1-2.79,2.5,1.84,1.84,0,0,1-.44-.91c.61-.75,1.18-1.5,1.73-2.2A1.87,1.87,0,0,1,205.63,41.69Z"/><path class="cls-30" d="M211.06,39.33a1.87,1.87,0,0,1-2.64-.14,1.84,1.84,0,0,1-.41-1.75,3.89,3.89,0,0,1,3.67.54A1.86,1.86,0,0,1,211.06,39.33Z"/><circle class="cls-30" cx="225.61" cy="89.21" r="1.87"/><circle class="cls-30" cx="223.39" cy="81.12" r="1.87"/><circle class="cls-30" cx="233.97" cy="81.7" r="1.87"/><path class="cls-30" d="M230.51,72.22a1.87,1.87,0,1,1-.15,2.65A1.87,1.87,0,0,1,230.51,72.22Z"/><circle class="cls-30" cx="239.55" cy="76.69" r="1.87"/><path class="cls-30" d="M219.64,76.94a1.87,1.87,0,0,0-1.22-3.26c-.15,1.12-.27,2.38-.35,3.71A1.88,1.88,0,0,0,219.64,76.94Z"/><path class="cls-30" d="M219.21,84.88a2,2,0,0,0-.88-.55,25.54,25.54,0,0,0,.68,3.24l.05,0A1.87,1.87,0,0,0,219.21,84.88Z"/><path class="cls-30" d="M238.59,70a0,0,0,0,1,0,0,23.87,23.87,0,0,0-3.1-1,2,2,0,0,0,.44.88A1.88,1.88,0,0,0,238.59,70Z"/><path class="cls-30" d="M225.36,69.29a1.87,1.87,0,0,0,2.64.14,1.81,1.81,0,0,0,.61-1.47c-1.33-.07-2.59-.08-3.72,0A1.81,1.81,0,0,0,225.36,69.29Z"/><path class="cls-30" d="M232.15,90.89a1.86,1.86,0,0,0,1.34,3.25c.55-.7,1.12-1.45,1.74-2.21a1.81,1.81,0,0,0-.44-.9A1.87,1.87,0,0,0,232.15,90.89Z"/><path class="cls-30" d="M229.22,96A1.88,1.88,0,0,0,226,97.29a3.87,3.87,0,0,0,3.67.51A1.89,1.89,0,0,0,229.22,96Z"/><path class="cls-30" d="M243.16,83.52a1.87,1.87,0,0,0-2.79,2.5,1.8,1.8,0,0,0,.86.54c.82-.53,1.62-1,2.38-1.49A1.83,1.83,0,0,0,243.16,83.52Z"/><path class="cls-30" d="M246.09,78.37a1.87,1.87,0,0,0,1.56,3.24,3.93,3.93,0,0,0-.14-3.7A1.84,1.84,0,0,0,246.09,78.37Z"/><path class="cls-31" d="M202.81,55.36c2-2.81,10.22,7.2,10.22,7.2S200.83,58.17,202.81,55.36Z"/><path class="cls-31" d="M210.48,52.15c2.07-1,4.55,9.3,4.55,9.3S208.4,53.16,210.48,52.15Z"/><path class="cls-31" d="M229.26,84.84c3-1.66-6-10.93-6-10.93S226.26,86.51,229.26,84.84Z"/><path class="cls-31" d="M233.29,77.57c1.23-2-8.76-5.53-8.76-5.53S232.05,79.52,233.29,77.57Z"/><rect class="cls-32" x="213.18" y="62" width="11.24" height="11.24" rx="3.33" transform="translate(10.78 163.41) rotate(-41.9)"/><path class="cls-33" d="M226.93,180.74s-5.29,11,1.23,12.9,4.49-10.44,4.49-10.44-1.7,10.39-3.71,4Z"/><path class="cls-33" d="M98.83,181.43s5.3,11-1.22,12.91-4.49-10.45-4.49-10.45,1.69,10.39,3.7,4Z"/></svg>