<svg id="Layer_1" data-name="Layer 1" xmlns="http://www.w3.org/2000/svg" viewBox="0 0 97.94 97.99"><defs><style>.cls-1{fill:#ffd15f;}.cls-2{fill:none;stroke:#d67d13;stroke-miterlimit:10;}</style></defs><path class="cls-1" d="M66.8,35.48s-1.55-8.33-9-1.92S38.42,46.25,18,40.17c0,0,.7,4,7.9,6.64,0,0-5.9,0,4.76,5.87,0,0-4.29,1,7,6.41,0,0-2.45,3.26,10.39,3.94S69.48,46,69.48,46L67.37,35.58"/><path class="cls-2" d="M66.8,35.48s-1.55-8.33-9-1.92S38.42,46.25,18,40.17c0,0,.7,4,7.9,6.64,0,0-5.9,0,4.76,5.87,0,0-4.29,1,7,6.41,0,0-2.45,3.26,10.39,3.94S69.48,46,69.48,46L67.37,35.58"/><path class="cls-1" d="M24.62,45.92s15.22,6.85,33.51-5.64"/><path class="cls-2" d="M24.62,45.92s15.22,6.85,33.51-5.64"/><path class="cls-1" d="M29.4,52.2A34.75,34.75,0,0,0,60,45.5"/><path class="cls-2" d="M29.4,52.2A34.75,34.75,0,0,0,60,45.5"/><path class="cls-1" d="M36.71,58.46S53.61,61,61.65,50.87"/><path class="cls-2" d="M36.71,58.46S53.61,61,61.65,50.87"/></svg>