<svg id="Layer_1" data-name="Layer 1" xmlns="http://www.w3.org/2000/svg" viewBox="0 0 97.94 97.99"><defs><style>.cls-1{fill:#ffd15f;}.cls-2{fill:none;stroke:#d67d13;stroke-miterlimit:10;}</style></defs><path class="cls-1" d="M36.09,37.77s1.49-8.06,8.69-1.87,18.75,12.28,38.46,6.4c0,0-.67,3.9-7.64,6.43,0,0,5.72,0-4.6,5.67,0,0,4.15,1-6.81,6.2,0,0,2.38,3.16-10,3.81S33.5,47.93,33.5,47.93l2-10.07"/><path class="cls-2" d="M36.09,37.77s1.49-8.06,8.69-1.87,18.75,12.28,38.46,6.4c0,0-.67,3.9-7.64,6.43,0,0,5.72,0-4.6,5.67,0,0,4.15,1-6.81,6.2,0,0,2.38,3.16-10,3.81S33.5,47.93,33.5,47.93l2-10.07"/><path class="cls-1" d="M76.88,47.86s-14.72,6.62-32.4-5.45"/><path class="cls-2" d="M76.88,47.86s-14.72,6.62-32.4-5.45"/><path class="cls-1" d="M72.26,53.94a33.63,33.63,0,0,1-29.62-6.48"/><path class="cls-2" d="M72.26,53.94a33.63,33.63,0,0,1-29.62-6.48"/><path class="cls-1" d="M65.19,60s-16.35,2.43-24.12-7.34"/><path class="cls-2" d="M65.19,60s-16.35,2.43-24.12-7.34"/></svg>