<svg id="Layer_1" data-name="Layer 1" xmlns="http://www.w3.org/2000/svg" viewBox="0 0 165.39 212.82"><defs><style>.cls-1,.cls-2,.cls-4,.cls-6{fill:#bc7b18;}.cls-1,.cls-34{stroke:#bc7b18;}.cls-1,.cls-2,.cls-22,.cls-24,.cls-27,.cls-32,.cls-33,.cls-34,.cls-35,.cls-37,.cls-38,.cls-6,.cls-7,.cls-8{stroke-miterlimit:10;}.cls-2{stroke:#492e0a;}.cls-3{fill:#b76d0b;}.cls-5{fill:#f6f6f6;}.cls-22,.cls-32,.cls-6,.cls-7,.cls-8{stroke:#894f1a;}.cls-22,.cls-24,.cls-25,.cls-33,.cls-35,.cls-37,.cls-7,.cls-8{fill:none;}.cls-24,.cls-33,.cls-8{stroke-width:0.75px;}.cls-9{fill:#fbb264;}.cls-10{fill:#683615;}.cls-11{fill:#532b11;}.cls-12{fill:#e89b58;}.cls-13{fill:#c98e4f;}.cls-14{fill:#b97d45;}.cls-15{fill:#826546;}.cls-16{fill:#bc8f5a;}.cls-17{fill:#a27642;}.cls-18{fill:#894f1a;}.cls-19{fill:#3f0b0b;}.cls-20{fill:#f2dcad;}.cls-21{fill:#512d10;}.cls-22,.cls-27{stroke-width:0.25px;}.cls-23{fill:#3d3123;}.cls-24{stroke:#231f20;}.cls-26{fill:#4c2a0f;}.cls-27,.cls-32{fill:#fedcae;}.cls-27{stroke:#6d3d15;}.cls-28{fill:#ffe8e2;}.cls-29{fill:#ec9f43;}.cls-30{fill:#4f2c0f;}.cls-31,.cls-38{fill:#911919;}.cls-32{stroke-width:0.5px;}.cls-33{stroke:#4f2c0f;}.cls-34{fill:#cc821f;}.cls-35{stroke:#3f220a;}.cls-36{fill:#590000;}.cls-37,.cls-38{stroke:#3f0b0b;}.cls-39{fill:#800001;}.cls-40{fill:#7f0000;}.cls-41{fill:#ce4545;}</style></defs><path class="cls-1" d="M33,107.55c-2.86,11-7.06,27.19,1,41.45,7.42,13.05,21.25,17.66,22.59,18.09a39.44,39.44,0,0,0,14.82,1.72,21.57,21.57,0,0,1-3.72-5.2,22,22,0,0,1-2.15-6.39,20.84,20.84,0,0,1-.28-5C66,142,73.93,138.63,80.23,125.39a58.26,58.26,0,0,0,4-11.33c-.66-4.17-.41-8.2,1.15-10.91l.4-.35a25.65,25.65,0,0,1-7.06-9.55c-1.07-2.54-3.36-7.94-1.57-13.42C78.68,75.15,81.8,74.68,85,70c2.11-3.13,4.2-8.09,3.92-16.06l.91-.44a22.37,22.37,0,0,1-.85-11.9,20.83,20.83,0,0,1,1.38-4.36c-5.44-3.69-19.25-11.51-35.66-7.74C43.9,32,28.29,40.29,26.57,53.33,25.3,63,32,72.2,33.45,71.8,34.64,71.48,32.26,64.43,36,61a6.93,6.93,0,0,1,7.22-1.26c2.51,1.17,3.41,4.07,3.75,5.14C49.86,74,37.56,90.08,33,107.55Z"/><path class="cls-2" d="M65.62,158.1a22.67,22.67,0,0,0,2.15,6.47,21.55,21.55,0,0,0,3.72,5.26,23.82,23.82,0,0,0,4.5,3.68h0a7.67,7.67,0,0,0,.52,5.65c1.18,1.94,3.63,3,10.84,3.29s8.3-.69,14.27-.71c10,0,16.45,2.64,17.71.15a4.9,4.9,0,0,0-.29-3.73A5.33,5.33,0,0,0,117.1,176h0l0,0a3.12,3.12,0,0,0,0-1.76,3.35,3.35,0,0,0-1.51-1.8c-1.63-1-4.27-1.53-7-1.75a57.56,57.56,0,0,0-6.21-.11,10.27,10.27,0,0,0,2.46-2.9c4.18-7.32-2.15-17.38-2.94-18.61a100.24,100.24,0,0,0-8-10,12.24,12.24,0,0,1,.41-7.4l-.63-.31c-4.56-2.22-8.3-9.76-9.42-16.89a59.14,59.14,0,0,1-4,11.47c-6.3,13.42-14.23,16.78-14.89,27.2A21.44,21.44,0,0,0,65.62,158.1Z"/><path class="cls-1" d="M108.6,170.62c2.72.22,5.36.72,7,1.75.75.06,1.8.15,3,.31a36,36,0,0,1,4.61.76,22.62,22.62,0,0,1,4.66,1.75,9,9,0,0,0,3.21,1,2.66,2.66,0,0,0,1.45-.14,2.28,2.28,0,0,0,1.35-1.42,2.2,2.2,0,0,0-.24-1.64,1.74,1.74,0,0,0,.77-.27,1.92,1.92,0,0,0,.67-.68c.46-.89-.93-2.71-1.9-3.62a8.37,8.37,0,0,0-5.22-2.05A19.91,19.91,0,0,0,138.31,154a20.29,20.29,0,0,0-6.07-20l-.16.18c-.08.09-.15.18-.24.27a13.29,13.29,0,0,1-1,1l-.14.13-.38.36a20.84,20.84,0,0,1-5.36,3.58c-.12,5.89-1.46,19.59-11.57,27.91A26.78,26.78,0,0,1,108.6,170.62Z"/><path class="cls-3" d="M105.15,49.47a34.66,34.66,0,0,1,11.7,1.61A15.08,15.08,0,0,0,119,47.34c.25-.63,2.82-7.35-.31-11a4.48,4.48,0,0,0-2.85-1.7,5,5,0,0,0-3.76,1.64,8.92,8.92,0,0,0-2.3,4.28c-.64,2.19-.25,2.79-.73,4.3A8.68,8.68,0,0,1,105.15,49.47Z"/><path class="cls-4" d="M116.92,50.91l.13,0a31.36,31.36,0,0,1,11.17,6.37A31.23,31.23,0,0,0,117,50.86Zm13.91,40.53c0,.23,0,.44.12.46s.23-.14.28-.37,0-.44-.12-.46S130.88,91.21,130.83,91.44Zm9.19-.56c0,.13.08.24.18.24a.21.21,0,0,0,.19-.23v0a.21.21,0,0,0-.18-.2A.22.22,0,0,0,140,90.88Zm.43,1.26c0,.14.07.25.18.25s.19-.1.19-.24v0a.19.19,0,1,0-.37,0Zm.27-2.26a.23.23,0,0,0,.24-.2s0-.06,0-.09a.21.21,0,0,0-.14-.2c-.1,0-.2.06-.23.2A.23.23,0,0,0,140.72,89.88Zm2.35-2.56-.11-.25A1.89,1.89,0,0,1,143.07,87.32Zm.4,4.34,0-.13-.06.27Zm0-.13,0-.16Zm-.37-4-.06-.17Zm.45,1.72a6.82,6.82,0,0,0-.45-1.72,8.34,8.34,0,0,1,.44,1.72,7.64,7.64,0,0,1,0,2.16,6.44,6.44,0,0,0,.1-.87A6.19,6.19,0,0,0,143.58,89.21Z"/><path class="cls-5" d="M127.87,104.88a5.52,5.52,0,0,0,3,.16c2-.47,3.21-2,4.36-3.4A15,15,0,0,0,137.85,97a7.15,7.15,0,0,1-3.24-.13,1.63,1.63,0,0,1-.73-.5s0,0,0,0a18.38,18.38,0,0,1-2.27,4.56l-.24.35A17.73,17.73,0,0,1,127.87,104.88Z"/><path class="cls-6" d="M78.72,93.31A25.89,25.89,0,0,0,85.78,103c11.3-9.85,18.9,5.92,18.9,5.92,1.58-3.3,7-5.62,7-5.62a6.88,6.88,0,0,1,5.19,0,15.76,15.76,0,0,0,4,2.54c2.71,1.11,4.49.45,5.53-.33a4.91,4.91,0,0,0,.86-.82,10.74,10.74,0,0,1-3.4-2.39,9.58,9.58,0,0,0,.76-1.6,12,12,0,0,1-5.61-6,11.71,11.71,0,0,0,1.94-2,12.83,12.83,0,0,0,4.15,3.57,9.34,9.34,0,0,0,6.11,1,8.64,8.64,0,0,0,2.65-1,0,0,0,0,1,0,0,0,0,0,0,1,0,0,1.63,1.63,0,0,0,.73.5,7.19,7.19,0,0,0,8.8-4.92v0l0-.07h0a7.39,7.39,0,0,0,.13-2.59,8.09,8.09,0,0,0-.5-1.89l-.11-.25a.3.3,0,0,1,0-.1l0-.06a6.41,6.41,0,0,0-.68-1.18,6.61,6.61,0,0,0-2.86-2.2l-.13-.08c0-2.78-.32-15.57-9.82-25l-.38-.38a1.14,1.14,0,0,0-.11-.11l-.46-.42-.23-.22a31.36,31.36,0,0,0-11.17-6.37l-.13,0,0,0-.09,0a34.47,34.47,0,0,0-11.71-1.61h0a38,38,0,0,0-10.48,1.86,39.17,39.17,0,0,0-4.9,2l-.91.45c.28,8.07-1.81,13.09-3.92,16.26-3.15,4.74-6.27,5.21-7.8,9.95C75.36,85.26,77.65,90.74,78.72,93.31Zm62-3.43a.23.23,0,0,1-.12-.29c0-.14.13-.22.23-.2a.21.21,0,0,1,.14.2s0,.06,0,.09A.23.23,0,0,1,140.72,89.88Zm-.27,2.26a.19.19,0,1,1,.37,0v0c0,.14-.09.25-.19.24S140.44,92.28,140.45,92.14ZM140,90.88a.22.22,0,0,1,.19-.24.21.21,0,0,1,.18.2v0a.21.21,0,0,1-.19.23C140.1,91.12,140,91,140,90.88Zm-9.19.56c0-.23.17-.39.28-.37s.16.23.12.46-.17.39-.28.37S130.79,91.67,130.83,91.44Zm-30.77-31c4.35-2.67,11.22,1.5,14.64,5.3,6.75,7.47,4.69,18.53,4,21.3a16,16,0,0,0-2.16-.83c-.39-.12-.8-.23-1.21-.33a30.07,30.07,0,0,0-8.1-.75H107q-1,.06-2,.18c-.7.09-1.37.21-2,.35-1.87-1.84-6.48-7-6.66-14.48C96.34,69.44,96.19,62.85,100.06,60.47Z"/><path class="cls-7" d="M141,89.68s0-.06,0-.09a.21.21,0,0,0-.14-.2c-.1,0-.2.06-.23.2a.23.23,0,0,0,.12.29A.23.23,0,0,0,141,89.68Z"/><path class="cls-7" d="M140.64,91.89a.23.23,0,0,0-.19.25c0,.14.07.25.18.25s.19-.1.19-.24v0A.23.23,0,0,0,140.64,91.89Z"/><path class="cls-7" d="M140.39,90.89v0a.21.21,0,0,0-.18-.2.22.22,0,0,0-.19.24c0,.13.08.24.18.24A.21.21,0,0,0,140.39,90.89Z"/><path class="cls-7" d="M131.23,91.53c0-.23,0-.44-.12-.46s-.23.14-.28.37,0,.44.12.46S131.18,91.76,131.23,91.53Z"/><path class="cls-7" d="M118.74,87.07c.65-2.77,2.71-13.83-4-21.3-3.42-3.8-10.29-8-14.64-5.3-3.87,2.38-3.72,9-3.68,10.75.18,7.49,4.79,12.64,6.66,14.48.63-.14,1.3-.26,2-.35s1.31-.14,2-.18h.25a30.07,30.07,0,0,1,8.1.75c.41.1.82.21,1.21.33A16,16,0,0,1,118.74,87.07Z"/><path class="cls-8" d="M36,60.81a6.87,6.87,0,0,1,7.22-1.27c2.51,1.18,3.41,4.12,3.74,5.21a10.21,10.21,0,0,1,.43,2.75C47.55,77.06,37.08,91.93,33,108c-1.75,6.82-4,15.57-3.64,24.64A38.14,38.14,0,0,0,34,150c7.42,13.22,21.25,17.88,22.59,18.32a39.09,39.09,0,0,0,14.82,1.74l.2.21a24.53,24.53,0,0,0,4.26,3.44h0l0,0s-.62,3.73.53,5.63,3.63,3,10.83,3.28,8.31-.68,14.28-.7c10.28,0,16.21,2.71,17.71.14a4.77,4.77,0,0,0-.1-3.79,5.12,5.12,0,0,0-2-2.28l-.09-.06a3.41,3.41,0,0,0,0-1.76,3.24,3.24,0,0,0-1.11-1.67l2.59.35c2.55.37,3.82.57,4.6.76a22.88,22.88,0,0,1,4.67,1.75,9.06,9.06,0,0,0,3.2,1,2.72,2.72,0,0,0,1.46-.14,2.64,2.64,0,0,0,1.41-1.89,2.9,2.9,0,0,0,0-1.22l.27-.1.24-.12a3.37,3.37,0,0,0,.8-.85c.36-.68-.37-2.48-1.76-3.66a9.4,9.4,0,0,0-3.84-1.88c-.2,0-.95-.15-1-.35s.11-.14.19-.19a19.7,19.7,0,0,0,9.43-11.76c.12-.45,2.41-9.16-2.68-16.39a17.75,17.75,0,0,0-3.39-3.58l.2-.25a3,3,0,0,0,.72.74,2.09,2.09,0,0,0,1.18.47,1.89,1.89,0,0,0,1.38-.52,1.84,1.84,0,0,0,.58-1.42,1.5,1.5,0,0,0,0-.18c0-.26-.06-.47-.07-.62a1.57,1.57,0,0,0,.53.11,1.86,1.86,0,0,0,1.38-.44,1.94,1.94,0,0,0,.58-1.42c-.06-.58-.49-.94-1.11-1.49a3.59,3.59,0,0,0-.59-.47,12.25,12.25,0,0,0,.85-4.8,20.31,20.31,0,0,0-1.13-5.29s0,0,0,0,0,0,0,0c-.25-.43-.51-.86-.78-1.27-.17-.25-.13-.37.08-.56a13,13,0,0,0,4.28-6.93c0-.11,0-.23.07-.34a1.34,1.34,0,0,0-.58-1.66,3.11,3.11,0,0,0-2.38-.64,1.62,1.62,0,0,0-1.45,1.4,7.81,7.81,0,0,0-.24,1.81,6.11,6.11,0,0,1-1.66,3.88l-.17.13a20.94,20.94,0,0,0-5.31-3.69l-.45-.21s-.43-.19-.9-.37-2.24-.82-4.64-1.61c-.22-.37-.44-.77-.67-1.19s-.45-.89-.64-1.31c1.26.39,3.5.84,5.16-.37a2.65,2.65,0,0,0,.26-.21h0a6.31,6.31,0,0,0,.58-.58h0a6.13,6.13,0,0,0,.6.22,5.56,5.56,0,0,0,3,.16c2-.47,3.2-2,4.36-3.4a15.25,15.25,0,0,0,2.59-4.68h0a7.5,7.5,0,0,0,5.61-5.28,7.19,7.19,0,0,1-8.8,4.92,1.63,1.63,0,0,1-.73-.5,0,0,0,0,0,0,0,0,0,0,0,0,0,0,8.64,8.64,0,0,1-2.65,1,9.34,9.34,0,0,1-6.11-1A12.83,12.83,0,0,1,121,92.73a11.71,11.71,0,0,1-1.94,2,12,12,0,0,0,5.61,6,9.58,9.58,0,0,1-.76,1.6,10.74,10.74,0,0,0,3.4,2.39,4.91,4.91,0,0,1-.86.82c-1,.78-2.82,1.44-5.53.33a15.76,15.76,0,0,1-4-2.54,6.88,6.88,0,0,0-5.19,0s-5.39,2.32-7,5.62c0,0-7.6-15.77-18.9-5.92a25.89,25.89,0,0,1-7.06-9.66c-1.07-2.57-3.36-8-1.57-13.6C78.68,75,81.8,74.5,85,69.76c2.11-3.17,4.2-8.19,3.92-16.26l.91-.45a39.17,39.17,0,0,1,4.9-2,38,38,0,0,1,10.48-1.86h0a34.47,34.47,0,0,1,11.71,1.61l.09,0a15.38,15.38,0,0,0,2-3.55c.25-.63,2.82-7.35-.3-11a4.55,4.55,0,0,0-2.85-1.7A4.94,4.94,0,0,0,112,36.22a8.81,8.81,0,0,0-2.29,4.28,10.74,10.74,0,0,0-.34,1.45c-.22,1.5-.35,2.5-.4,2.85-.13,1-.87,2.46-3.73,4.29l-1.41,0a31,31,0,0,0-4.36.49c.32-1.15,2.43-8.82-1.5-13.26-.4-.46-2.85-3.24-5.14-2.61a3.77,3.77,0,0,0-2.25,1.78,3.38,3.38,0,0,0-.34,1.29v0C84.8,33.06,71,25.15,54.59,29,43.85,31.48,28.24,39.88,26.52,53.1a19,19,0,0,0-.16,2.7h0c0,.28,0,.56,0,.84.43,8.36,5.76,15.52,7,15.17S32.2,64.34,36,60.81Z"/><path class="cls-9" d="M110.82,131.62c0,.56,0,1.12.05,1.68a11.14,11.14,0,0,0,1.38,5,3.34,3.34,0,0,0,.25.4.8.8,0,0,1,.08.75,5.71,5.71,0,0,0-.28,1.84.43.43,0,0,0,.1.23c.64.34,1.13,0,1.62-.36a.49.49,0,0,0,.18-.17c.29-.52.67-.5,1.12-.38a1.66,1.66,0,0,1,.21.06h0a12.51,12.51,0,0,0,8.36-.64h0l.44-.18.58-.25a20.84,20.84,0,0,0,5.36-3.58l.38-.36.14-.13c.34-.32.67-.66,1-1l.24-.27.16-.18a20.82,20.82,0,0,0,1.78-2.36,4.65,4.65,0,0,0-1.46-3.19,39.13,39.13,0,0,0-4.21-3.19c-1.52-1.08-3.13-2-4.73-2.94-1.25-.74-2.57-1.39-3.88-2s-2.79-1.29-4.22-1.87a1.85,1.85,0,0,0-1-.25l0,0h0c-.41.32-.47.85-.67,1.29a42,42,0,0,0-2,5.67A25.85,25.85,0,0,0,110.82,131.62Z"/><path class="cls-10" d="M134.66,130.7c1.21,0,1.63-.43,2.1-1.56a12.81,12.81,0,0,0,1.09-5.39,13.64,13.64,0,0,0-3.51-8.49,21.48,21.48,0,0,0-3.82-3.42,15.35,15.35,0,0,0-1.34-.85,15.54,15.54,0,0,0-1.64-.81,9.49,9.49,0,0,0-2.59-.83c-1.71-.17-1.73.77-3.66.68a7.66,7.66,0,0,0-2.39.16,2.42,2.42,0,0,0-1.69,2.07,3.41,3.41,0,0,0,.17,1.75,8.86,8.86,0,0,0,2.26,3.47c.44.49.9,1,1.31,1.47s1,.67,1.44,1.09a2.65,2.65,0,0,1,.62.63,1.54,1.54,0,0,0,.47.33,64.65,64.65,0,0,1,8.1,5.33c.53.41,1,.83,1.56,1.27a4.14,4.14,0,0,1,1.24,2.4C134.43,130.25,134.38,130.54,134.66,130.7Z"/><path class="cls-11" d="M123,120.56c-.13-.52-.61-.74-1-.94a6.19,6.19,0,0,1-1.59-1.42c-.8-.88-1.56-1.8-2.32-2.72a4,4,0,0,1-.17-4.59,1.64,1.64,0,0,1,1.06-.6,8.5,8.5,0,0,1,3.06,0c1.45.26,2.88.61,4.32.92l.72.17a25.32,25.32,0,0,1,6,2.82c1.26.81,1.62,1.18,1.66,1.14a17,17,0,0,0-6.24-4.79c-.56-.27-1-.44-1.35-.59a19.13,19.13,0,0,0-7.43-1.74,11.54,11.54,0,0,0-9,4,13,13,0,0,0-1.47,2,1.83,1.83,0,0,0,.06,2.16c.18.22.39.11.57,0a4.14,4.14,0,0,1,3.51-.07c.61.26,1.25.45,1.86.71,1.62.61,3.18,1.36,4.75,2.07a4.69,4.69,0,0,1,1.18.6c.41.24.83.47,1.25.7A.68.68,0,0,0,123,120.56Z"/><path class="cls-12" d="M107.32,129.54a16.67,16.67,0,0,0,1,3.91c.09.23.18.46.28.68a15.6,15.6,0,0,0,.93,1.76,12.05,12.05,0,0,0,2.34,2.79.43.43,0,0,1,.16.53,2.62,2.62,0,0,0,0,1.87.7.7,0,0,0,.39.42,6.86,6.86,0,0,1,.38-2.25.56.56,0,0,0-.09-.52l-.16-.25a12,12,0,0,1-1.56-6.4v-.64a26,26,0,0,1,.79-5.58,32.66,32.66,0,0,1,1.16-3.72c.48-1.31,1-2.58,1.58-3.87,0,0,0,0,0,0h0a.43.43,0,0,1,0,0,.35.35,0,0,0-.14-.13,10.63,10.63,0,0,0-3.73-.94,2.36,2.36,0,0,0-1.74.55h0a25.16,25.16,0,0,0-1.55,11.87Z"/><path class="cls-13" d="M123,120.56l-1.79-1c-.42-.11-.74-.44-1.15-.56a51.88,51.88,0,0,0-4.84-2.13,1.78,1.78,0,0,0-.73,1.36v0a8.67,8.67,0,0,1,1.76.65,61.28,61.28,0,0,1,6.11,3c1.49.8,2.91,1.7,4.36,2.57,1.14.68,2.22,1.46,3.31,2.22a21.46,21.46,0,0,1,2.58,2.07,4.51,4.51,0,0,1,1,1.83c.13.37.24.75.36,1.12l.64-1a6.57,6.57,0,0,0-.82-2.51,9.7,9.7,0,0,0-2.12-1.93c-1.35-1.1-2.79-2.07-4.23-3-1.1-.72-2.25-1.36-3.38-2Z"/><path class="cls-14" d="M114.5,118.25l.73-1.36c-.83-.3-1.65-.62-2.49-.91a3.89,3.89,0,0,0-2.8.27c-.2.08-.38.25-.63.13a11.52,11.52,0,0,1-.44,1.29,4.89,4.89,0,0,1,3.95,0Z"/><path class="cls-10" d="M120.07,119a3.61,3.61,0,0,0,1.15.56A3.51,3.51,0,0,0,120.07,119Z"/><path class="cls-10" d="M136,116.58a13.1,13.1,0,0,0,4.28-6.94,3.43,3.43,0,0,0,.06-.34.13.13,0,0,0-.11-.07h-.07a1.88,1.88,0,0,1-1.13.29.86.86,0,0,0-.63.1h0l0,0a20.05,20.05,0,0,1-2.62,4.51,6.31,6.31,0,0,1-1.16,1.15l-.13.09.09.12,2.2,2.93,0,0s0,0,0,0c-.24-.44-.5-.86-.77-1.28C135.74,116.88,135.77,116.76,136,116.58Z"/><path class="cls-11" d="M133.28,113.86l0,0,1.17,1.57.09.12.13-.1a8.77,8.77,0,0,0,1.85-2.08,21.2,21.2,0,0,0,1.8-3.27,1.93,1.93,0,0,0,.1-.43s0,0,0,0-.23-.15-.36-.19a5.14,5.14,0,0,1-1.62-.85l0,0-.16-.13a.2.2,0,0,0-.28,0,7.94,7.94,0,0,0-.23,1.81,6.18,6.18,0,0,1-1.67,3.88c-.16.17-.26.22-.41.1h0a.28.28,0,0,1-.1-.09Z"/><path class="cls-15" d="M135.92,108.4c.22,0,.25.28.45.28a1.17,1.17,0,0,1,1-1.39,2.89,2.89,0,0,1,2.18.55,1.21,1.21,0,0,1,.56,1.19c0,.09,0,.2.08.26h.12a1.35,1.35,0,0,0-.57-1.66,3.14,3.14,0,0,0-2.39-.63A1.64,1.64,0,0,0,135.92,108.4Z"/><path class="cls-16" d="M140.21,109.29a1.4,1.4,0,0,0-.76-1.69,3.37,3.37,0,0,0-1.89-.47,1.82,1.82,0,0,0-1.25.71c-.27.29-.16.57.06.84a4.46,4.46,0,0,0,2,1l1.19,0A.88.88,0,0,0,140.21,109.29Z"/><path class="cls-17" d="M139.6,109a6.35,6.35,0,0,1-2.21-.25c-.28-.09-.71-.16-.66-.53s.45-.38.78-.37a1.64,1.64,0,0,1,.9.12c-.3.06-.52,0-.73,0s-.22.08-.23.21a.24.24,0,0,0,.18.26,1.78,1.78,0,0,0,1.22.12.36.36,0,0,0,.3-.34.4.4,0,0,0-.26-.39,2.47,2.47,0,0,0-2-.09c-.18.06-.4.2-.38.45a.63.63,0,0,0,.39.48A3.94,3.94,0,0,0,139.6,109Z"/><path class="cls-16" d="M138.37,108.22a.83.83,0,0,0-.74,0C137.87,108.57,138.13,108.28,138.37,108.22Z"/><path class="cls-4" d="M84.23,114.38c1.12,7.13,4.86,14.67,9.42,16.89l.63.31c7,3.3,14.19,4.49,15.83-.68l.44-.39c1.51-1.37,5-4.82,6.31-7.36h0c1.42-.27,3.95-1.1,4-2.93a2.83,2.83,0,0,0-1.67-2.54h0l-.07,0s1.92-4.13-3.2-4.73l0,0a4.7,4.7,0,0,0-3.68-2.18c.17-.13.41-.3.7-.49a12.82,12.82,0,0,1,4.32-1.73,13.21,13.21,0,0,1,5.15,0c-.2-.39-.41-.8-.65-1.22s-.58-1-.87-1.4a15.6,15.6,0,0,1-4-2.54,6.82,6.82,0,0,0-5.19,0s-5.39,2.32-7,5.62c0,0-7.6-15.77-18.9-5.92l-.4.36C83.82,106.08,83.57,110.16,84.23,114.38Z"/><path class="cls-18" d="M104.8,120a6.48,6.48,0,0,0-5.39,4.72,5.87,5.87,0,0,1,.57-1.87,7.43,7.43,0,0,1,4.68-3.59l.14.74Z"/><path class="cls-18" d="M119.69,117.76a6.5,6.5,0,0,0-5.39,4.73,6,6,0,0,1,.57-1.88,7.45,7.45,0,0,1,4.67-3.58l.15.73Z"/><path class="cls-18" d="M115.85,112.73a6.78,6.78,0,0,0-3.49,6.51,6.45,6.45,0,0,1-.1-2,7.66,7.66,0,0,1,3.2-5.14l.39.64Z"/><path class="cls-19" d="M76.13,173a31.35,31.35,0,0,0,11.66,5,31.75,31.75,0,0,1-12.21-4.15l.55-.84Z"/><path class="cls-20" d="M93.87,139a100.24,100.24,0,0,1,8,10c.79,1.23,7.12,11.29,2.94,18.61a10.27,10.27,0,0,1-2.46,2.9,57.56,57.56,0,0,1,6.21.11,26.42,26.42,0,0,0,4.8-3.14c10.12-8.32,11.45-22,11.57-27.91l-.58.25L124,140h0a12.51,12.51,0,0,1-8.36.64h0l-.23-.06c-.44-.12-.83-.14-1.11.38a.44.44,0,0,1-.17.16c-.5.33-1,.71-1.63.37a.7.7,0,0,1-.39-.42,2.62,2.62,0,0,1,0-1.87.43.43,0,0,0-.16-.53,12.05,12.05,0,0,1-2.34-2.79,15.6,15.6,0,0,1-.93-1.76c-.1-.22-.19-.45-.28-.68-3,2-8.5.7-14-1.87A12.24,12.24,0,0,0,93.87,139Z"/><path class="cls-21" d="M133.86,173.24c-1.75-2.69-4.88-3.83-7.93-4.32,2.93.24,6,1.05,8,3.31a3.1,3.1,0,0,1,.54.64l-.65.37Z"/><path class="cls-21" d="M128.9,166.46a19.59,19.59,0,0,1-9.32,1.56,19.25,19.25,0,0,0,9-2.23l.32.67Z"/><path class="cls-18" d="M103.83,86.2a30.55,30.55,0,0,0-6.13,1.59,30.41,30.41,0,0,1,6-2.32l.16.73Z"/><path class="cls-5" d="M123.86,102.27a10.74,10.74,0,0,0,3.4,2.39l.61.23a18.37,18.37,0,0,0,3.48-3.64l.24-.35a18.38,18.38,0,0,0,2.27-4.56,8.64,8.64,0,0,1-2.65,1,9.34,9.34,0,0,1-6.11-1,9.3,9.3,0,0,1-1.24,6Z"/><path class="cls-22" d="M127.87,104.9a5.52,5.52,0,0,0,3,.16c2-.47,3.2-2,4.36-3.41A14.93,14.93,0,0,0,137.85,97a7.05,7.05,0,0,1-3.25-.13,1.63,1.63,0,0,1-.72-.5h0a18.78,18.78,0,0,1-2.27,4.57l-.24.34A18.09,18.09,0,0,1,127.87,104.9Z"/><path class="cls-22" d="M123.85,102.28a10.8,10.8,0,0,0,3.41,2.39,6.37,6.37,0,0,0,.61.23,18.09,18.09,0,0,0,3.48-3.64l.24-.34a18.78,18.78,0,0,0,2.27-4.57,8.91,8.91,0,0,1-2.65,1,9.41,9.41,0,0,1-6.11-1,9.74,9.74,0,0,1-.48,4.37A9.2,9.2,0,0,1,123.85,102.28Z"/><path class="cls-1" d="M89.78,53.05a39.17,39.17,0,0,1,4.9-2C97.16,44.88,97,39.45,94.39,37A6,6,0,0,0,91,35.43a7.65,7.65,0,0,0-.67,1.16A21.12,21.12,0,0,0,88.93,41,22.92,22.92,0,0,0,89.78,53.05Z"/><path class="cls-3" d="M91,35.43A6,6,0,0,1,94.39,37c2.62,2.49,2.77,7.92.29,14.12a36,36,0,0,1,4.59-1.19c.93-3.36,1.89-9.29-1.31-13.3-.36-.46-2.56-3.21-4.84-2.76A3.57,3.57,0,0,0,91,35.43Z"/><path class="cls-8" d="M91,35.43A6,6,0,0,1,94.39,37c2.62,2.49,2.77,7.92.29,14.12a36,36,0,0,1,4.59-1.19c.93-3.36,1.89-9.29-1.31-13.3-.36-.46-2.56-3.21-4.84-2.76A3.57,3.57,0,0,0,91,35.43Z"/><path class="cls-23" d="M106,81.67a5.93,5.93,0,0,0,.53,2.46h0a9.91,9.91,0,0,0,.82,1,30.11,30.11,0,0,1,8.1.75,5.79,5.79,0,0,0,1.67-3.39h0c0-.52,0-1.07,0-1.64h0a5.58,5.58,0,0,0-11.11.89Zm2-.56a1.48,1.48,0,1,1,1.48,1.53A1.5,1.5,0,0,1,108,81.11Z"/><path class="cls-24" d="M117.05,82.51a6.33,6.33,0,0,0,0-.76,6.4,6.4,0,0,0-.07-.88C117.06,81.44,117.06,82,117.05,82.51Z"/><path class="cls-25" d="M108,81.19a1.48,1.48,0,1,0,1.47-1.52A1.5,1.5,0,0,0,108,81.19Z"/><path class="cls-18" d="M95.08,82.71a10,10,0,0,0-8.44,9,13,13,0,0,0,.4,4.46c-3-6,1.19-13.52,8-13.41Z"/><path class="cls-26" d="M85.78,103.1c-6.51-5.34-12-16.33-8.44-24.63,1.21-2.92,4-4.62,6-7,3.93-4.62,5.33-10.86,5.26-16.83v-.56c0-.27-.06-.59.23-.81a28.84,28.84,0,0,1,12-3.87c1.52-.14,3.06-.29,4.54-.55a39.55,39.55,0,0,1,11.78,1.84,40.9,40.9,0,0,0-11.72-1.45c-3,.64-6.07.53-9,1.48a35.47,35.47,0,0,0-7.23,3.07s0-.08,0,0v.29c.2,6.3-1.14,13-5.38,17.87-2,2.4-4.73,4-5.9,6.78-3.47,8,1.7,18.92,7.85,24.36Z"/><path class="cls-27" d="M96.38,71.22c.18,7.49,4.78,12.64,6.66,14.48.63-.14,1.3-.26,2-.35s1.31-.14,2-.17a5.82,5.82,0,0,1-.56-1h0a13.09,13.09,0,0,1-2.86-7.69c0-1.09-.12-5.11,2.14-6.57,2.52-1.63,6.52.92,8.51,3.23A12.62,12.62,0,0,1,117,80.86h0a6.4,6.4,0,0,1,.07.88,6.33,6.33,0,0,1,0,.76h0a20.34,20.34,0,0,1-.47,3.72,15.6,15.6,0,0,1,2.17.83c.65-2.77,2.71-13.83-4-21.3-3.42-3.8-10.29-8-14.64-5.3C96.19,62.85,96.34,69.44,96.38,71.22Z"/><path class="cls-28" d="M103.59,76.52a13,13,0,0,0,2.86,7.68,6,6,0,0,1-.53-2.45A5.58,5.58,0,0,1,117,80.86a12.59,12.59,0,0,0-2.79-7.68c-2-2.31-6-4.86-8.51-3.23C103.47,71.41,103.56,75.43,103.59,76.52Z"/><path class="cls-29" d="M134.66,130.52a.41.41,0,0,0,0,.11,2.17,2.17,0,0,0,.81,1.44,1.84,1.84,0,0,0,1.2.53,1.94,1.94,0,0,0,1.43-.67,1.9,1.9,0,0,0,.58-1.41c-.05-.59-.49-1-1.1-1.49-.41-.37-.62-.55-.91-.59a1.31,1.31,0,0,0-.67.1A2.27,2.27,0,0,0,134.66,130.52Z"/><path class="cls-29" d="M132.27,133.07a2.24,2.24,0,0,0,.82,1.56,1.76,1.76,0,0,0,2.63-.15,1.86,1.86,0,0,0,.59-1.41c-.06-.58-.49-.95-1.11-1.49-.41-.37-.62-.55-.91-.59a1.58,1.58,0,0,0-1.09.34c-.23.29-.47.57-.71.84h0A2,2,0,0,0,132.27,133.07Z"/><path class="cls-18" d="M117.28,98.76c2,3.53,5.66,5.44,9.41,6.51-4,0-8.42-2.44-9.41-6.51Z"/><path class="cls-18" d="M121.77,107.6c-2.48-3.18-6.44-4.45-10.29-4.9,3.93-.66,8.68,1,10.29,4.9Z"/><path class="cls-30" d="M104.68,108.93c-4.28-8-11.79-12.41-19.07-5.42-1.72,3.3-1.58,7.26-1.06,10.86l-.65,0,.65,0c1.14,6,3.43,12.68,8.67,16.28,4.2,2.16,14.22,6.57,16.58.2a.24.24,0,0,1,.11-.16,35.57,35.57,0,0,0,3.89-3.35,17.73,17.73,0,0,0,3-4.27l.13,0c1.94-.27,4.6-1.54,3.72-3.91a2,2,0,0,0-1.32-1.41l-.19,0,.06-.18c1-2.68-.65-4.42-3.31-4.7A6.23,6.23,0,0,0,114,111a3.08,3.08,0,0,0-2.48-.32A3.14,3.14,0,0,1,114,111a5.23,5.23,0,0,1,1.89,1.68c2.82.22,4.58,2.12,3.61,5l-.13-.23A2.25,2.25,0,0,1,121,119c1,2.64-1.81,4.19-4,4.52l.18-.13a21.63,21.63,0,0,1-6.87,7.79l.11-.15a5.25,5.25,0,0,1-1.3,2.18c-3.32,2.84-8.15,1.27-11.82,0-3.05-1.07-6.17-2.59-8-5.36a31.18,31.18,0,0,1-5.36-13.44l.66,0s-.66,0-.66,0c-.53-3.74-.63-7.8,1.24-11.22,7.7-7.36,15.43-2.56,19.54,5.68Z"/><path class="cls-31" d="M129.16,93.16a30.12,30.12,0,0,0-22.39,6.38,30.53,30.53,0,0,1,22.47-7.13l-.08.75Z"/><ellipse class="cls-31" cx="129.31" cy="92.79" rx="0.42" ry="0.2" transform="translate(28.41 215.87) rotate(-86.32)"/><path class="cls-31" d="M129.08,90.33A29.92,29.92,0,0,0,105.92,92a30.33,30.33,0,0,1,23.39-2.43l-.23.72Z"/><ellipse class="cls-31" cx="129.2" cy="89.99" rx="0.42" ry="0.2" transform="translate(16.25 199.68) rotate(-79.02)"/><path class="cls-21" d="M88,130.29c1.08,4.94,5.77,7.62,8.73,11.36,4.65,5.5,9.25,11.91,9.83,19.34A11.37,11.37,0,0,1,99,172.64a18.46,18.46,0,0,1-7.13,1.44,19.08,19.08,0,0,0,7-1.78c13.6-6.19,4.26-22.34-2.63-30.28-2.87-3.81-7.55-6.72-8.3-11.73Z"/><path class="cls-19" d="M115.93,172.66c-4.49-1.32-9.13-1.4-13.75-2,4.56-.82,9.78-.62,13.75,2Z"/><path class="cls-21" d="M125.35,139c-.32,12.31-5.08,26.13-16.75,31.89,11.45-5.92,15.93-19.7,16-31.87l.75,0Z"/><path class="cls-18" d="M132.08,134.22c-3.88,5-11.48,8.55-17,6.64l-.56.34c-2.28,1.37-3.16.16-2.76-2.15,0-.16-.25-.33-.35-.43a12.57,12.57,0,0,1-3.11-5.17,14.33,14.33,0,0,0,3.43,4.81c.24.18.54.42.55.73s0,.55,0,.8c-.09,2,1.08,1.39,2.24.64a1,1,0,0,1,.53-.25c6.32,1.67,12.62-1.6,17.09-6Z"/><path class="cls-32" d="M90.17,52.81c18.84-1,27.13,3.95,31.05,9.35C126,68.77,126,78.49,131.94,79.9A8.46,8.46,0,0,0,138.83,78c-.77-5.32-3-13.26-9.42-19.66L129,58l-.12-.11c-.15-.14-.3-.29-.45-.42l-.24-.22a31.27,31.27,0,0,0-11.17-6.37l-.13,0,0-.05-.09,0a34.44,34.44,0,0,0-11.71-1.62,38.37,38.37,0,0,0-5.89.67,39.32,39.32,0,0,0-9.1,3Z"/><path class="cls-20" d="M33,107.72c-2.87,11.19-7.06,27.55,1,42C41,162,53.44,166.91,56.22,167.88a186.28,186.28,0,0,1-8-17.39c-5.24-12.68-.56-23.87-.26-23.81.12,2.71,2.23,7.24,2.29,7.54A39,39,0,0,1,53.46,118c-.42,1,.6,5.6.6,5.6s2.44-3.39,7.39-19.78,1.93-33.83,1.77-33.83c.45-1.08,3.63-.12,4.33.24s1.75,1.12,1.75.64C68.24,67.58,63.42,66,63.42,66s2.37-2.64,2.49-4.28c.45-6.79-5.95-13.07-5.95-13a32.27,32.27,0,0,1-.74,11.83c-1.63-5.23-6.73-10.31-6.9-10.35,1.31,2,1.34,7.11,1.17,7.11-13-7.73-21.52-6.18-27.08-1.73.11,8.69,5.74,16.3,7,15.94s-1.2-7.47,2.59-11a6.86,6.86,0,0,1,7.22-1.28c2.51,1.19,3.41,4.12,3.75,5.21C49.86,73.74,37.56,90,33,107.72Z"/><path class="cls-20" d="M101.28,112.48c.14.32.3.65.49,1a33.4,33.4,0,0,1,2.61,6.1.18.18,0,0,1,0,.05h.11c.17,0,.53,0,.56.18-.27-1,1.65-2.72,1.65-2.72s-.31-1.4,1.6-4.3a5.74,5.74,0,0,1,3.74-2.08l-.14-.1C110.63,109.74,104.51,106.1,101.28,112.48Z"/><path class="cls-33" d="M101.39,112.56c.14.32.3.65.49,1a33.14,33.14,0,0,1,2.61,6.09.18.18,0,0,1,0,0h.1c.18,0,.54,0,.57.18-.27-1,1.65-2.72,1.65-2.72s-.32-1.4,1.6-4.3a5.74,5.74,0,0,1,3.74-2.08l-.14-.09C110.73,109.82,104.62,106.18,101.39,112.56Z"/><path class="cls-30" d="M100.77,108.16c-.36,2,.56,4,1.58,5.69a30.22,30.22,0,0,1,2.47,5.68l-.39-.28c.42,0,.88-.06,1.06.48l-.73.16c-.16-1.32.95-2.24,1.79-3.07l-.11.33c-.11-1.71.84-3.15,1.74-4.49a5.74,5.74,0,0,1,4-2,6.14,6.14,0,0,0-4.69,4.25,4.42,4.42,0,0,0-.4,2.26c-.64.62-1.72,1.63-1.65,2.51l-.72.16c0,.14.11.16.09.15a1.09,1.09,0,0,0-.37,0h-.3l-.08-.29a37,37,0,0,0-2.24-5.6c-.93-1.77-1.77-4-1.09-6Z"/><path class="cls-34" d="M90.28,52.42a31.21,31.21,0,0,1,4-1.6c2-5,1.89-9.45-.23-11.47a4.93,4.93,0,0,0-2.77-1.25,6.7,6.7,0,0,0-.54.95,16.38,16.38,0,0,0-1.12,3.58A18.51,18.51,0,0,0,90.28,52.42Z"/><path class="cls-35" d="M89.3,53.05a39.85,39.85,0,0,1,4.9-1.84c2.49-5.81,2.33-10.9-.29-13.23a6.12,6.12,0,0,0-3.41-1.44,7.38,7.38,0,0,0-.67,1.09,18.32,18.32,0,0,0-1.38,4.13A20,20,0,0,0,89.3,53.05Z"/><path class="cls-8" d="M33,107.72c-2.87,11.19-7.06,27.55,1,42C41,162,53.44,166.91,56.22,167.88a186.28,186.28,0,0,1-8-17.39c-5.24-12.68-.56-23.87-.26-23.81.12,2.71,2.23,7.24,2.29,7.54A39,39,0,0,1,53.46,118c-.42,1,.6,5.6.6,5.6s2.44-3.39,7.39-19.78,1.93-33.83,1.77-33.83c.45-1.08,3.63-.12,4.33.24s1.75,1.12,1.75.64C68.24,67.58,63.42,66,63.42,66s2.37-2.64,2.49-4.28c.45-6.79-5.95-13.07-5.95-13a32.27,32.27,0,0,1-.74,11.83c-1.63-5.23-6.73-10.31-6.9-10.35,1.31,2,1.34,7.11,1.17,7.11-13-7.73-21.52-6.18-27.08-1.73.11,8.69,5.74,16.3,7,15.94s-1.2-7.47,2.59-11a6.86,6.86,0,0,1,7.22-1.28c2.51,1.19,3.41,4.12,3.75,5.21C49.86,73.74,37.56,90,33,107.72Z"/><path class="cls-36" d="M130.26,83.28c-.77,1.44,2.25,2.27,3.46,3.52.92.94,1.34,2.77,2.38,2.88,1.51,0,2.93-2.48,4.5-4.48-.66,1.87-3.18,6.26-5.32,6.1-.73-.1-1.43-1.37-2.75-2.91-1.53-1.78-2.75-2.25-3.48-3.27C128.69,84.6,129.23,83.9,130.26,83.28Z"/><path class="cls-25" d="M129,84.43a.43.43,0,0,0,0,.46,6.46,6.46,0,0,0,1.33,1.25,15.52,15.52,0,0,1,2.3,2.14c.42.5.78,1,1.1,1.38.66.85,1.18,1.52,1.58,1.58h.1c2.27,0,5.08-5.33,5.34-6.69a1.25,1.25,0,0,0-.27-1.07c-.65-.86-2.33-1.41-4.58-1.5h-.38C132.35,82,129.51,83.45,129,84.43Z"/><path class="cls-31" d="M130.93,91.86a30,30,0,0,0-23.06,2.81,30.4,30.4,0,0,1,23.26-3.54l-.2.73Z"/><path class="cls-31" d="M131,91.9c.11,0,.23-.14.28-.37s0-.44-.12-.46-.23.14-.28.37S130.84,91.88,131,91.9Z"/><path class="cls-37" d="M33.82,70.18c0-.56,0-1.26,0-2,0-2.35.2-5.3,2.26-7.19a6.93,6.93,0,0,1,7.22-1.26,6.61,6.61,0,0,1,3,3.27A12,12,0,0,1,47,64.75a10.21,10.21,0,0,1,.43,2.75,16.12,16.12,0,0,1-.09,1.81.59.59,0,0,1,0,.13A15.38,15.38,0,0,1,47,71c-.07.35-.15.71-.24,1.07s-.12.53-.19.79c-1.64,6-5.43,13.35-8.82,21.34A95.29,95.29,0,0,0,33,107.55a106.09,106.09,0,0,0-3.44,17.67c-.06.55-.1,1.11-.13,1.67,0,.11,0,.21,0,.31a53.64,53.64,0,0,0-.1,5.39A38.14,38.14,0,0,0,34,150c7.42,13.22,21.25,17.88,22.59,18.32a39.09,39.09,0,0,0,14.82,1.74l.2.21a24.53,24.53,0,0,0,4.26,3.44h0l0,0v.08a8.66,8.66,0,0,0,0,3.74,4.94,4.94,0,0,0,.58,1.81c1.17,1.93,3.63,3,10.83,3.28s8.31-.68,14.28-.7c10.28,0,16.21,2.71,17.71.14a4.77,4.77,0,0,0-.1-3.79,5.22,5.22,0,0,0-2-2.29l-.09-.05q0-.12.06-.3h0a3.28,3.28,0,0,0-.08-1.46,0,0,0,0,0,0,0v0c0-.06-.06-.12-.08-.19a3.37,3.37,0,0,0-1-1.43l2.59.35c2.55.37,3.82.57,4.6.76a22.88,22.88,0,0,1,4.67,1.75,9.06,9.06,0,0,0,3.2,1,2.67,2.67,0,0,0,1.45-.14,2.42,2.42,0,0,0,1-.95,1.89,1.89,0,0,0,.38-.7,2.09,2.09,0,0,0,.08-.36,2.63,2.63,0,0,0-.11-1.1l.27-.1h0l.22-.12a3.37,3.37,0,0,0,.8-.85c.36-.68-.37-2.48-1.76-3.66a9.4,9.4,0,0,0-3.84-1.88c-.2,0-.95-.15-1-.35l0,0,.08,0h-.07a.44.44,0,0,1,.16-.14,19.7,19.7,0,0,0,9.43-11.76c0-.07.09-.36.17-.78a19.15,19.15,0,0,0,.16-8,18.07,18.07,0,0,0-3-7.6c-.38-.53-.76-1-1.13-1.42a21.14,21.14,0,0,0-2.14-2.31l.08-.1a2.86,2.86,0,0,0,.72.74,2.09,2.09,0,0,0,1.18.47,1.89,1.89,0,0,0,1.38-.52,2,2,0,0,0,.57-1.08,1.29,1.29,0,0,0,.07-.56,1.38,1.38,0,0,0-.15-.46.53.53,0,0,1,0-.12h0a1.7,1.7,0,0,0,.49.1h0a1.86,1.86,0,0,0,1.38-.44,2.21,2.21,0,0,0,.54-1,1.27,1.27,0,0,0,.09-.62c-.05-.59-.49-1-1.1-1.49a3.7,3.7,0,0,0-.58-.45,14.75,14.75,0,0,0,.49-1.69,11.34,11.34,0,0,0,.35-3.14,12.63,12.63,0,0,0-1-4.46c-.11-.37-.2-.6-.2-.6s0,0,0,0v0l-.49-.8c-.1-.17-.2-.35-.31-.52,0,0,0,0,0,0l.9,1.19,0,0s0,0,0,0c-.24-.44-.5-.86-.78-1.28a.45.45,0,0,1-.06-.2.77.77,0,0,1,.09-.13,13,13,0,0,0,4.28-6.93.7.7,0,0,0,0-.14l0-.09a3.43,3.43,0,0,0,.06-.34h0a1.35,1.35,0,0,0-.57-1.66,3.14,3.14,0,0,0-2.39-.63,1.64,1.64,0,0,0-1.45,1.39h0a.9.9,0,0,0,0,.16.14.14,0,0,0,0,.07,7.81,7.81,0,0,0-.24,1.81,6.13,6.13,0,0,1-.15,1,5.85,5.85,0,0,1-1.46,2.68.54.54,0,0,1-.17.13,20.8,20.8,0,0,0-5.3-3.68c-.56-.27-1-.44-1.35-.59a24,24,0,0,0-4.75-1.47l-.62-1.1c-.24-.45-.45-.89-.64-1.31,1.26.39,3.5.84,5.16-.37a2.65,2.65,0,0,0,.26-.21h0a6.31,6.31,0,0,0,.58-.58h0a6.13,6.13,0,0,0,.6.22,5.56,5.56,0,0,0,3,.16c2-.47,3.2-2,4.36-3.4a15.25,15.25,0,0,0,2.59-4.68h0v0a7.52,7.52,0,0,0,5.42-4.71l.22-.67c0-.18.1-.51.1-.51s0,.09,0,.08a7.86,7.86,0,0,0,.05-2.16,6.82,6.82,0,0,0-.45-1.72c0,.11.08.25.12.38-.06-.2-.12-.41-.18-.55l-.11-.25a.42.42,0,0,1,0-.1l0-.06a6.23,6.23,0,0,0-2.13-2.6c0-.06,0-.12,0-.18a1.28,1.28,0,0,0-.13-.39.2.2,0,0,0,0-.08.76.76,0,0,0-.09-.18,1.29,1.29,0,0,0-.23-.24h0a1.94,1.94,0,0,0-.38-.3,3.8,3.8,0,0,0-.67-.37,36.6,36.6,0,0,0-.39-4.53h0c-.77-5.32-3-13.26-9.42-19.66L129,58l-.12-.11c-.15-.14-.3-.29-.46-.42l-.23-.22a31.27,31.27,0,0,0-11.17-6.37h0l0,0A15,15,0,0,0,119,47.34c.25-.63,2.82-7.35-.31-11a5.83,5.83,0,0,0-1-.94,3.91,3.91,0,0,0-1.91-.79A4.94,4.94,0,0,0,112,36.22a8.82,8.82,0,0,0-2.29,4.27,11.2,11.2,0,0,0-.34,1.46c-.22,1.5-.35,2.5-.4,2.85a1.67,1.67,0,0,1-.06.29,7,7,0,0,1-.84,1.62,11.52,11.52,0,0,1-2.83,2.38h0l-1.41,0a31,31,0,0,0-4.36.49c.32-1.15,2.43-8.82-1.5-13.27-.4-.45-2.85-3.23-5.14-2.6a3.77,3.77,0,0,0-2.25,1.78,3.19,3.19,0,0,0-.32,1.15l0,.12C84.76,33,71,25.16,54.59,29,43.85,31.48,28.24,39.88,26.52,53.1a19,19,0,0,0-.16,2.7h0c0,.28,0,.56,0,.84.43,8.36,5.76,15.52,7,15.17h0s0,0,0,0C33.78,71.71,33.83,71.09,33.82,70.18Zm109.75,19a8.19,8.19,0,0,0-.22-1A8.19,8.19,0,0,1,143.57,89.21Zm.05,1.3h0Z"/><path class="cls-38" d="M143.47,91.66l0,.14.06-.27Z"/><path class="cls-39" d="M140.45,92.14c0,.14.07.25.18.25s.19-.1.19-.24v0a.19.19,0,1,0-.37,0Z"/><path class="cls-39" d="M140,90.88c0,.13.08.24.18.24a.21.21,0,0,0,.19-.23v0a.21.21,0,0,0-.18-.2A.22.22,0,0,0,140,90.88Z"/><path class="cls-39" d="M140.72,89.88a.23.23,0,0,0,.24-.2s0-.06,0-.09a.21.21,0,0,0-.14-.2c-.1,0-.2.06-.23.2A.23.23,0,0,0,140.72,89.88Z"/><path class="cls-31" d="M140.79,89.26c3.94-.9,8.24,0,11.87,1.78a18.64,18.64,0,0,0-11.43-1.14,2.37,2.37,0,0,1-.46.11l0-.75Z"/><path class="cls-31" d="M140.2,90.52a16.24,16.24,0,0,1,10.32,1.59,16.14,16.14,0,0,0-9.93-.94,2.58,2.58,0,0,1-.42.1l0-.75Z"/><path class="cls-31" d="M140.62,91.78a14.33,14.33,0,0,1,9,1.45,14.32,14.32,0,0,0-8.42-.86,4.61,4.61,0,0,1-.64.16l0-.75Z"/><path class="cls-40" d="M135.28,91.3c-.73-.1-1.43-1.37-2.75-2.91-1.53-1.78-2.75-2.25-3.48-3.27-.81-1.19,3.07-3.35,6.81-3.2,3.53.14,5.16,1.37,4.89,2.78S137.65,91.47,135.28,91.3Z"/><path class="cls-41" d="M139.71,83.7c-2.7-1.51-6.57-1.25-9.47-.41a10.75,10.75,0,0,1,5.62-1.37c3.53.14,5.16,1.37,4.89,2.78a11.85,11.85,0,0,1-.74,1.43C140.32,84.85,140.27,84.09,139.71,83.7Z"/><ellipse class="cls-28" cx="109.63" cy="81.19" rx="1.51" ry="1.76"/></svg>