<svg id="Layer_1" data-name="Layer 1" xmlns="http://www.w3.org/2000/svg" viewBox="0 0 43.58 68.45"><defs><style>.cls-1{fill:#de195a;}.cls-2{fill:#ee4984;}</style></defs><path class="cls-1" d="M18.33,18.6c.06.26-.61,6.81,2.15,11h0a7.3,7.3,0,0,0,3,2.61,20.38,20.38,0,0,0,2.19.87c1.72.58,3.58,1,5.41,1.53,2.87.8,5.68,1.77,7.83,3.68h0a10.67,10.67,0,0,1,3,4.43c2.9,8-11.31,4.72-14,3l-.16-.11c-.88-.69-2.55-1.84-4.35-3a42.69,42.69,0,0,0-5.12-2.85,4.39,4.39,0,0,0-1.46-.43,4.42,4.42,0,0,1-4.08-4.06h0a6.79,6.79,0,0,1,.09-2c.8-4.26.64-15.41.32-16.69"/><path class="cls-2" d="M25.59,33c-1.93,1.51-5.84,4.7-7.39,6.7a4.39,4.39,0,0,0-1.46-.43,4.42,4.42,0,0,1-4.08-4.06c1.2-1.06,5.5-4.77,7.78-5.69a7.3,7.3,0,0,0,3,2.61A20.38,20.38,0,0,0,25.59,33Z"/><path class="cls-2" d="M38.84,38.22c-2.43.25-6.86,1.59-11,7.43l-.16-.11c-.88-.69-2.56-1.84-4.35-3,2-2.41,5.4-6.39,7.68-8C33.87,35.34,36.68,36.31,38.84,38.22Z"/></svg>