<svg id="Layer_1" data-name="Layer 1" xmlns="http://www.w3.org/2000/svg" viewBox="0 0 97.94 97.99"><defs><style>.cls-1{fill:#ffd15f;}.cls-2{fill:none;stroke:#d67d13;stroke-miterlimit:10;}</style></defs><path class="cls-1" d="M20.55,38.48s1.19-10.18,10.69-3.06,24.43,13.75,48.53,4.75c0,0-.51,4.92-9,8.66,0,0,7.13-.51-5.26,7.46,0,0,5.26.85-8,8.32,0,0,3.22,3.73-12.22,5.6S18.17,51.37,18.17,51.37l1.7-12.72"/><path class="cls-2" d="M20.55,38.48s1.19-10.18,10.69-3.06,24.43,13.75,48.53,4.75c0,0-.51,4.92-9,8.66,0,0,7.13-.51-5.26,7.46,0,0,5.26.85-8,8.32,0,0,3.22,3.73-12.22,5.6S18.17,51.37,18.17,51.37l1.7-12.72"/><path class="cls-1" d="M72.3,47.64s-17.82,9.5-40.89-4.07"/><path class="cls-2" d="M72.3,47.64s-17.82,9.5-40.89-4.07"/><path class="cls-1" d="M67,55.61A42,42,0,0,1,29.54,50"/><path class="cls-2" d="M67,55.61A42,42,0,0,1,29.54,50"/><path class="cls-1" d="M58.73,63.76S38.54,68.17,28,56.63"/><path class="cls-2" d="M58.73,63.76S38.54,68.17,28,56.63"/></svg>