<svg id="Layer_1" data-name="Layer 1" xmlns="http://www.w3.org/2000/svg" viewBox="0 0 418.24 414.93"><defs><style>.cls-1{fill:#323232;opacity:0.35;}.cls-2{fill:#c34804;stroke:#7c320d;}.cls-15,.cls-16,.cls-18,.cls-19,.cls-2,.cls-20,.cls-3,.cls-4{stroke-miterlimit:10;}.cls-3{fill:#ffd713;stroke:#937b16;}.cls-4{fill:#ff7e2a;stroke:#af440e;}.cls-5{fill:#ff631e;}.cls-6{fill:#fb6010;}.cls-7{fill:#fde664;}.cls-8{fill:#febe42;}.cls-9{fill:#dc0604;}.cls-10{fill:#8c0606;}.cls-11{fill:#f9f2f2;}.cls-12{fill:#683c3c;}.cls-13{fill:#30252b;}.cls-14{fill:#fff;}.cls-15{fill:#d10409;stroke:#a30814;}.cls-16,.cls-17{fill:#ffd15f;}.cls-16,.cls-18{stroke:#d67d13;}.cls-18{fill:none;}.cls-19{fill:#ffe783;}.cls-19,.cls-20{stroke:#7c4c00;}.cls-20{fill:#ffef9f;}.cls-21{fill:#e57d28;}.cls-22{fill:#84083a;}.cls-23{fill:#66441c;}.cls-24{fill:#30200f;}.cls-25{fill:#efdece;}</style></defs><ellipse class="cls-1" cx="207.96" cy="372.72" rx="180.71" ry="32.19"/><path class="cls-2" d="M242.55,303.56s-5.21,6.89,1.9,47.46c0,0-11.37,3-11.23,4.38s12.22.58,12.22.58,11.68,13.84,15.21,15.49,5.16-1-6.83-12.72c0,0,6.32,1.18,14.17,3.45,0,0,5.7-.55-8.45-7.34,0,0,1.15-2.15,11.07-1.63,0,0,9.81-5.08-20.31-3a79.69,79.69,0,0,1,.13-43.37C257.19,283.15,242.55,303.56,242.55,303.56Z"/><path class="cls-2" d="M181.9,301.09s4.08,6.36-1.77,47.1c0,0,9,2,8.86,3.38s-9.67,1.62-9.67,1.62S170,367.87,167.2,369.8s-4.07-.59,5.48-13.16a120.83,120.83,0,0,0-11.23,4.62s-4.5-.06,6.72-8c0,0-.89-2-8.74-.67,0,0-7.73-4.19,16.08-4.7a98.83,98.83,0,0,0,.14-42.89C170.44,282.14,181.9,301.09,181.9,301.09Z"/><path class="cls-3" d="M255,187.14s-.92-20.82,20.44-9.6,53.43,19.66,98.79-6.21c0,0,.58,10-15.21,20.29,0,0,14.12-3.34-8.12,16.68,0,0,10.82,0-13.28,19.28,0,0,7.68,6.44-22.66,15.2s-60.53-29-60.53-29l-.73-26.08"/><path class="cls-3" d="M361.71,188.74s-32.62,24.84-83.28,5.09"/><path class="cls-3" d="M353.75,206.45s-34.64,21-77,.92"/><path class="cls-3" d="M339.74,225.49s-39,15.4-63.87-4.34"/><path class="cls-3" d="M150.51,186s-1.78-20.8-24.27-7.32S68.84,204,14.33,183.24c0,0,.71,10,19.85,18.51,0,0-16.32-1.78,11.39,15.72,0,0-12.16,1.17,17.54,17.72,0,0-7.75,7.24,27.55,12.66s64.11-35.4,64.11-35.4l-2.72-26"/><path class="cls-3" d="M30.78,199.18s40,21.17,94.31-4"/><path class="cls-3" d="M42.12,215.93s41.79,17.1,86.66-7.43"/><path class="cls-3" d="M60.46,233.34s46,11.08,71.21-11.24"/><path class="cls-4" d="M279.33,264.9c-34,87.47-131.81,56.19-148.83,14.88s-2.42-68,14.59-99.62c1.11-2.06,2.17-4.12,3.19-6.15a286.16,286.16,0,0,0,21.1-57l5.61,5.76L227.7,92.69s-4.86,38.87,32.8,87.47c10.09,13,16.12,25.14,19.55,35.92C289.43,245.53,279.33,264.9,279.33,264.9Z"/><path class="cls-5" d="M279.33,264.9c-34,87.47-131.81,56.19-148.83,14.88s-2.42-68,14.59-99.62c1.11-2.06,2.17-4.12,3.19-6.15-11.44,36.72-23.24,95.11,6.22,121,44.65,39.18,123,6.38,124.83-66.52q.18-6.72.72-12.37C289.43,245.53,279.33,264.9,279.33,264.9Z"/><path class="cls-6" d="M164.16,118.31c-4.11,9-4.34,28.53-8.44,37.55,3.64.72,3.64-10.31,6.93-12a34.07,34.07,0,0,0,1.8,15.18c1.64,4.56,6.21,9.44,10.57,7.31a8.47,8.47,0,0,1,2.52-1.17,4.56,4.56,0,0,1,3,1.2c3.89,2.79,7.92,5.74,12.64,6.57s10.34-1.25,11.84-5.8c3.86,3.69,8,7.54,13.24,8.64s11.69-1.9,12.25-7.21c.6,2.64,4,3.63,6.65,3.21s5.24-1.72,7.95-1.65a19,19,0,0,0,4.12.15c2.49-.5,4.06-3.17,4.16-5.72s-.93-5-1.93-7.31l-15.24-35.38C230,126,222.39,131.18,216,135.08a16,16,0,0,1-4.78,2.21,15.74,15.74,0,0,1-4.7.09c-6.54-.57-13.57-1.63-18.24-6.24-3.29-3.25-5.36-8.18-9.78-9.53-1.15-.35-2.38-.41-3.51-.83C172.22,119.78,166.92,117.29,164.16,118.31Z"/><path class="cls-7" d="M165.38,106.77c-4.11,9-1,19.42-5.11,28.44,3.64.72.3-1.2,3.59-2.92a34.26,34.26,0,0,0,1.81,15.19c1.64,4.56,6.21,9.44,10.57,7.31a8.36,8.36,0,0,1,2.52-1.17,4.64,4.64,0,0,1,3,1.19c3.89,2.8,7.92,5.75,12.64,6.58s10.34-1.25,11.84-5.8c3.86,3.69,8,7.54,13.23,8.64s11.69-1.9,12.26-7.21c.6,2.64,4,3.63,6.65,3.21s5.23-1.72,8-1.65a18.91,18.91,0,0,0,4.11.15c2.49-.5,4.07-3.17,4.16-5.72s-.92-5-1.93-7.31l-15.24-35.39c-6.25,4.13-13.86,9.33-20.26,13.22a12.06,12.06,0,0,1-9.48,2.31c-6.53-.57-13.57-1.63-18.23-6.24-3.29-3.25-5.36-8.19-9.79-9.53-1.15-.35-2.38-.41-3.51-.83C173.43,108.23,168.13,105.75,165.38,106.77Z"/><path class="cls-8" d="M246.33,135.62c-2.64,15.39-24.55,7-24.55,7-18.38,7.5-25.06-5.27-25.06-5.27-21.81.65-21.73-14.65-21.73-14.65-13.14-1.47-8.26-12.34-9.36-28.09s.44-47.69,31.14-46S236.6,90,241.28,111.43C242.9,118.81,246.47,119.67,246.33,135.62Z"/><path class="cls-9" d="M192.68,99.46s-2.33,8.89,5.52,17.93a24,24,0,0,0,18.24,8.39l-15.09-25.45Z"/><path class="cls-10" d="M196.86,101.92c.66.84,1.42,9.51,19.79,24.19,0,0-8.24-17.4-8-19.06S196.86,101.92,196.86,101.92Z"/><path class="cls-9" d="M192,99.17s10.74-5.09,15.33-5.13,8.77,1.12,12.47,15.66c0,0-20.33.8-28.13-7.82Z"/><ellipse class="cls-10" cx="206.86" cy="96.63" rx="1.01" ry="2.08" transform="translate(85.39 289.95) rotate(-82.9)"/><ellipse class="cls-11" cx="187.13" cy="80.75" rx="9.63" ry="12.03" transform="matrix(0.96, -0.29, 0.29, 0.96, -15.39, 57.87)"/><path class="cls-12" d="M196.12,77.11c3.7,9-3.21,20.3-13.22,14.55a14.57,14.57,0,0,1-6-15.87c3.5-11.08,15.88-8.39,19.17,1.32Zm-.09,0c-3.23-9.23-15.15-11.91-18.25-1.13-2.31,7.82,4.78,19.23,13.63,15.87,5.45-2.42,6.56-9.61,4.62-14.74Z"/><ellipse class="cls-13" cx="187.58" cy="85.09" rx="4.84" ry="6.49" transform="translate(-16.46 56.94) rotate(-16.55)"/><ellipse class="cls-14" cx="189.41" cy="82.05" rx="1.64" ry="2.2" transform="translate(-15.52 57.34) rotate(-16.55)"/><ellipse class="cls-11" cx="214.73" cy="77.87" rx="9.45" ry="12.01" transform="translate(-13.01 60.32) rotate(-15.52)"/><path class="cls-12" d="M223.54,74.23c2.74,6.47-.36,16.81-8.73,16-7.79-1-12-10.19-10.09-17.29,3.39-11.13,15.58-8.51,18.82,1.25Zm-.1,0c-3.17-9.27-14.9-11.9-17.89-1.07-1.64,6.62,2.19,15.18,9.35,16.37,8.09.93,11.09-9,8.54-15.3Z"/><ellipse class="cls-13" cx="215.17" cy="82.21" rx="4.75" ry="6.48" transform="translate(-14.14 60.47) rotate(-15.5)"/><ellipse class="cls-14" cx="216.96" cy="79.17" rx="1.61" ry="2.2" transform="matrix(0.96, -0.27, 0.27, 0.96, -13.26, 60.84)"/><path class="cls-9" d="M180.13,61a8.36,8.36,0,0,1,5-1.77,1.57,1.57,0,0,1,1.31.57,1.58,1.58,0,0,1,.19.64,3.67,3.67,0,0,1-.08,1.65A3.39,3.39,0,0,1,184.7,64a25.42,25.42,0,0,1-2.53.91,10.88,10.88,0,0,0-3.07,1.71A5.81,5.81,0,0,1,176.82,68c-.64.11-1.7-.27-1.8-1s.77-1.59,1.14-2.09A17.52,17.52,0,0,1,180.13,61Z"/><path class="cls-9" d="M208.44,58.3a9.16,9.16,0,0,0-5.5.84,1.75,1.75,0,0,0-1,1.16,1.48,1.48,0,0,0,.1.66,3.58,3.58,0,0,0,.81,1.45,3.49,3.49,0,0,0,2.57.78c.94,0,1.87-.29,2.8-.42a11.88,11.88,0,0,1,3.67,0,5.92,5.92,0,0,0,2.77.12c.66-.2,1.5-1.06,1.27-1.78s-1.45-1-2-1.32A17.72,17.72,0,0,0,208.44,58.3Z"/><path class="cls-15" d="M190.9,50.07s-.61,8.5,9.11,12.15,4.25-14.58,4.25-14.58S214,45.21,205.48,30,194.54,24,194.54,24s-4.25-14-13.36-3.65-2.43,13.37-2.43,13.37-6.83-.21-2.43,17.61c0,0-7.39,1.07-1.82,7.9C174.5,59.18,184.22,44.6,190.9,50.07Z"/><path class="cls-16" d="M98.21,301.45s.41-8.46,8.65-3.11,20.92,10,40.29,1.22c0,0-.14,4.08-6.94,7.64,0,0,5.85-.82-3.92,6.45,0,0,4.39.4-6.12,7.3,0,0,2.87,2.9-9.76,5.3s-23.45-14-23.45-14l.7-10.59"/><path class="cls-16" d="M141.41,306.13s-14.17,8.83-34-1.08"/><path class="cls-16" d="M137.51,313a34.74,34.74,0,0,1-31.24-2.53"/><path class="cls-16" d="M131.11,320.18S114.7,325,105.38,316"/><path class="cls-17" d="M61.87,300.53s-1.55-8.34-9-1.93-19.39,12.7-39.77,6.62c0,0,.7,4,7.9,6.64,0,0-5.9,0,4.76,5.86,0,0-4.3,1,7,6.42,0,0-2.45,3.26,10.39,3.94S64.54,311,64.54,311l-2.1-10.4"/><path class="cls-18" d="M61.87,300.53s-1.55-8.34-9-1.93-19.39,12.7-39.77,6.62c0,0,.7,4,7.9,6.64,0,0-5.9,0,4.76,5.86,0,0-4.3,1,7,6.42,0,0-2.45,3.26,10.39,3.94S64.54,311,64.54,311l-2.1-10.4"/><path class="cls-17" d="M19.69,311s15.22,6.85,33.5-5.63"/><path class="cls-18" d="M19.69,311s15.22,6.85,33.5-5.63"/><path class="cls-17" d="M24.47,317.25a34.74,34.74,0,0,0,30.62-6.71"/><path class="cls-18" d="M24.47,317.25a34.74,34.74,0,0,0,30.62-6.71"/><path class="cls-17" d="M31.78,323.5s16.9,2.52,24.94-7.58"/><path class="cls-18" d="M31.78,323.5s16.9,2.52,24.94-7.58"/><path class="cls-2" d="M73.18,345.18l1.28,4.53a.73.73,0,0,1,0,.46c-.07.14-.29.21-.38.08A70.07,70.07,0,0,1,74,362.37a6.23,6.23,0,0,1-.47,2.1c-.64,1.32-2.06,2-3.34,2.75A31.72,31.72,0,0,0,67.37,369c-.38.27-.8.64-.74,1.1a1.86,1.86,0,0,0,1.72-.25c1.08-.57,2.14-1.18,3.16-1.84a2.72,2.72,0,0,1,1.85-.63,2.2,2.2,0,0,1,1.42,1.4,5.92,5.92,0,0,0,1,1.83.49.49,0,0,0,.42.2.58.58,0,0,0,.52-.69c-.23-.76-.07-1.57-.3-2.33,1,.35,1.21.6,2.16.95a4.89,4.89,0,0,0,3.48.36.55.55,0,0,0,.3-.24c.1-.21-.07-.45-.24-.61a9.93,9.93,0,0,0-2.52-1.85A5.41,5.41,0,0,1,77,364.55a4.07,4.07,0,0,1-.31-.91,25.18,25.18,0,0,1,.27-13"/><path class="cls-2" d="M91.78,343.08l-.52,4.65a.71.71,0,0,0,0,.46c.07.14.27.18.33,0a80.52,80.52,0,0,0,1.63,12,7.15,7.15,0,0,0,.66,2,6.41,6.41,0,0,0,3.19,2.31A25.8,25.8,0,0,1,99.69,366a1.33,1.33,0,0,1,.76,1c-.41.37-1,.18-1.49,0A30.3,30.3,0,0,1,96,365.48a2,2,0,0,0-1.65-.39,2.11,2.11,0,0,0-1,1.57,6.39,6.39,0,0,1-.59,1.93c-.08.13-.2.26-.34.25a.56.56,0,0,1-.52-.62c.1-.78-.14-1.57,0-2.34-.76.46-1,.74-1.72,1.2a3.66,3.66,0,0,1-2.91.79.46.46,0,0,1-.28-.19.68.68,0,0,1,.12-.65A9.35,9.35,0,0,1,89,364.89a3.38,3.38,0,0,0,2.07-3.06A29.16,29.16,0,0,0,89.21,349"/><path class="cls-19" d="M106.93,277.45l-1.84-1.07a5.72,5.72,0,0,1,.94,4.5L104.57,279l0,2.54c-1.18,7.92-9.31,10.87-10.32,11.21h0l-.07,0A16.07,16.07,0,0,0,99.73,301a30.27,30.27,0,0,1,7.25,8.5l-1.35-.11c2.18,3.09,2.75,8.39,2.75,8.39,2,13.15-5.4,22.22-8.84,24.36a13.89,13.89,0,0,0-5.77,7.21c-.7,2-4.32,3.66-5.18,1.4s-2.06-2.47-2.06-2.47l-7.28.43a3,3,0,0,1-3.42,3.6c-4-.16-3.29-5.12-7.15-7S56.06,335.44,54,326.51c-2-8.72.2-13.76.31-14l-1.45,1.22c.56-5.17,6.49-11.05,8.8-14.31a17.73,17.73,0,0,0,2.72-7.63,3.72,3.72,0,0,1-.79-.33,19.61,19.61,0,0,1-5.15-4.33c-3.79-4.17-3.55-10-3.55-10l-1.48,2a5,5,0,0,1,1.38-5.59L53,274.2a4.69,4.69,0,0,1,2.92-4.56l-2.51.31c.44-2.77,3.6-3.9,3.6-3.9a28,28,0,0,1,6.86-13.11c4.05-4.57,13.3-7,13.3-7L75,243.61,78.52,245a4.32,4.32,0,0,1-.54-4.82s1.17,4.85,4.31,5.61S87.37,247,87.37,247c16.88,5.46,17.73,22.21,17.73,22.21a19,19,0,0,1,1.59,4.81,4.19,4.19,0,0,0-1.82-1C106.77,276.13,106.93,277.45,106.93,277.45Z"/><path class="cls-20" d="M106.93,277.45l-1.84-1.07a5.72,5.72,0,0,1,.94,4.5L104.57,279l0,2.54c-1.18,7.92-9.31,10.87-10.32,11.21h0c-13.69,2.29-23.65,1-30.67-1.32a19.61,19.61,0,0,1-5.15-4.33c-3.79-4.17-3.55-10-3.55-10l-1.48,2a5,5,0,0,1,1.38-5.59L53,274.2a4.69,4.69,0,0,1,2.92-4.56l-2.51.31c.44-2.77,3.6-3.9,3.6-3.9a28,28,0,0,1,6.86-13.11c4.05-4.57,13.3-7,13.3-7L75,243.61,78.52,245a4.32,4.32,0,0,1-.54-4.82s1.17,4.85,4.31,5.61S87.37,247,87.37,247c16.88,5.46,17.73,22.21,17.73,22.21a19,19,0,0,1,1.59,4.81,4.19,4.19,0,0,0-1.82-1C106.77,276.13,106.93,277.45,106.93,277.45Z"/><path class="cls-21" d="M69.43,275a29.58,29.58,0,0,0,8.08-4.2c3.74-2.86,6.49-.72,9.62,1.88s5.58,2.58,5.58,2.58-4.62,3.33-5.95,5.46-5.67,6.64-11.94.17S69.43,275,69.43,275Z"/><path class="cls-22" d="M69.51,274.6c6.09,4.45,13,4.31,19.87,1.83,1-.29,1.93-.68,2.9-1.06l0,.09c-5.2,3.09-11.92,5.09-17.74,2.6a16.58,16.58,0,0,1-5.15-3.39l.07-.07Z"/><ellipse class="cls-14" cx="73.45" cy="264.28" rx="5.16" ry="6.09"/><path class="cls-23" d="M78.61,264.28c-.23,8.43-10.51,8.37-10.82,0,.31-8.37,10.59-8.42,10.82,0Zm0,0c-.27-7.69-9.63-7.74-9.82,0,.19,7.75,9.55,7.7,9.82,0Z"/><ellipse class="cls-14" cx="88.94" cy="264.57" rx="5.16" ry="6.09"/><path class="cls-23" d="M83.78,264.57c.27,7.7,9.64,7.75,9.83,0-.2-7.74-9.56-7.69-9.83,0Zm0,0c.24-8.42,10.51-8.37,10.83,0-.32,8.37-10.59,8.42-10.83,0Z"/><ellipse class="cls-24" cx="73.59" cy="266.31" rx="3.19" ry="3.68" transform="translate(-17.74 5.55) rotate(-3.86)"/><ellipse class="cls-25" cx="74.59" cy="264.8" rx="1.28" ry="1.47" transform="translate(-17.64 5.62) rotate(-3.86)"/><ellipse class="cls-24" cx="88.51" cy="266.57" rx="3.19" ry="3.68" transform="translate(-17.73 6.56) rotate(-3.86)"/><ellipse class="cls-25" cx="89.51" cy="265.06" rx="1.28" ry="1.47" transform="translate(-17.62 6.62) rotate(-3.86)"/><path class="cls-23" d="M73.14,252.38c-.23.07-4.08,2.55-3.75,5.24,0,0,2.33-3.8,4.67-4.1Z"/><path class="cls-23" d="M88.09,252.76c.25,0,4.48,1.77,4.64,4.48,0,0-3-3.32-5.33-3.19Z"/><path class="cls-17" d="M357.39,295.8s1.49-8.06,8.69-1.86,18.75,12.28,38.46,6.4c0,0-.67,3.9-7.64,6.42,0,0,5.72,0-4.6,5.67,0,0,4.16,1-6.81,6.21,0,0,2.38,3.15-10.05,3.81S354.8,306,354.8,306l2-10.06"/><path class="cls-18" d="M357.39,295.8s1.49-8.06,8.69-1.86,18.75,12.28,38.46,6.4c0,0-.67,3.9-7.64,6.42,0,0,5.72,0-4.6,5.67,0,0,4.16,1-6.81,6.21,0,0,2.38,3.15-10.05,3.81S354.8,306,354.8,306l2-10.06"/><path class="cls-17" d="M398.18,305.9s-14.72,6.62-32.4-5.45"/><path class="cls-18" d="M398.18,305.9s-14.72,6.62-32.4-5.45"/><path class="cls-17" d="M393.56,312a33.61,33.61,0,0,1-29.62-6.49"/><path class="cls-18" d="M393.56,312a33.61,33.61,0,0,1-29.62-6.49"/><path class="cls-17" d="M386.49,318s-16.35,2.43-24.12-7.34"/><path class="cls-18" d="M386.49,318s-16.35,2.43-24.12-7.34"/><path class="cls-2" d="M346.44,339l-1.23,4.38a.7.7,0,0,0,0,.45c.06.14.28.2.37.08a67.46,67.46,0,0,0,.13,11.72,6.07,6.07,0,0,0,.46,2c.62,1.28,2,2,3.23,2.66a31,31,0,0,1,2.68,1.69c.37.26.77.62.72,1.06a1.77,1.77,0,0,1-1.66-.24c-1.05-.54-2.07-1.14-3.07-1.78a2.58,2.58,0,0,0-1.78-.61,2.13,2.13,0,0,0-1.37,1.36,5.55,5.55,0,0,1-.93,1.77.54.54,0,0,1-.41.2.57.57,0,0,1-.5-.68c.22-.73.06-1.51.29-2.24-.92.33-1.18.57-2.09.91a4.75,4.75,0,0,1-3.37.35.53.53,0,0,1-.28-.23c-.1-.21.06-.44.22-.6a10,10,0,0,1,2.44-1.79,5.05,5.05,0,0,0,2.44-1.75,4,4,0,0,0,.3-.88,24.33,24.33,0,0,0-.26-12.59"/><path class="cls-2" d="M328.46,337l.5,4.5a.72.72,0,0,1,0,.44c-.07.13-.26.17-.32,0A78.09,78.09,0,0,1,327,353.55a6.39,6.39,0,0,1-.64,1.95,6.16,6.16,0,0,1-3.08,2.24,23,23,0,0,0-2.49,1.34,1.26,1.26,0,0,0-.74,1,1.34,1.34,0,0,0,1.44,0c1-.41,1.9-.87,2.83-1.38a2,2,0,0,1,1.59-.38,2.05,2.05,0,0,1,1,1.52,5.94,5.94,0,0,0,.57,1.86c.08.13.19.25.32.25a.56.56,0,0,0,.51-.61c-.1-.75.13-1.51,0-2.26.73.45.92.72,1.66,1.16a3.55,3.55,0,0,0,2.81.77.42.42,0,0,0,.28-.19c.11-.19,0-.44-.12-.62a9,9,0,0,0-1.85-2.08,4.57,4.57,0,0,1-1.85-2,3.93,3.93,0,0,1-.15-.91,28.14,28.14,0,0,1,1.79-12.45"/><path class="cls-19" d="M313.8,273.48l1.78-1a5.52,5.52,0,0,0-.91,4.35l1.41-1.81,0,2.45c1.14,7.66,9,10.52,10,10.85h0l.07,0a15.59,15.59,0,0,1-5.37,7.94,29.26,29.26,0,0,0-7,8.23l1.3-.12c-2.11,3-2.66,8.12-2.66,8.12-1.94,12.72,5.22,21.49,8.55,23.56a13.44,13.44,0,0,1,5.58,7c.68,2,4.18,3.55,5,1.36s2-2.39,2-2.39l7.05.42a3,3,0,0,0,3.3,3.48c3.82-.15,3.19-4.95,6.92-6.81S363,329.57,365,320.93c1.95-8.43-.2-13.3-.31-13.54l1.41,1.17c-.54-5-6.28-10.69-8.52-13.84a17.34,17.34,0,0,1-2.63-7.38,3.6,3.6,0,0,0,.77-.32,18.93,18.93,0,0,0,5-4.19,14.85,14.85,0,0,0,3.44-9.63l1.43,1.94a4.8,4.8,0,0,0-1.34-5.4l1.73.59a4.53,4.53,0,0,0-2.83-4.4l2.43.3c-.43-2.68-3.49-3.77-3.49-3.77a27.12,27.12,0,0,0-6.63-12.69c-3.91-4.41-12.86-6.78-12.86-6.78l2.12-2.24-3.43,1.33a4.18,4.18,0,0,0,.53-4.66s-1.14,4.69-4.18,5.43-4.91,1.18-4.91,1.18c-16.33,5.28-17.15,21.48-17.15,21.48a18.33,18.33,0,0,0-1.54,4.65,4.09,4.09,0,0,1,1.77-1C314,272.2,313.8,273.48,313.8,273.48Z"/><path class="cls-20" d="M313.8,273.48l1.78-1a5.52,5.52,0,0,0-.91,4.35l1.41-1.81,0,2.45c1.14,7.66,9,10.52,10,10.85h0c13.24,2.22,22.87,1,29.66-1.28a18.93,18.93,0,0,0,5-4.19,14.85,14.85,0,0,0,3.44-9.63l1.43,1.94a4.8,4.8,0,0,0-1.34-5.4l1.73.59a4.53,4.53,0,0,0-2.83-4.4l2.43.3c-.43-2.68-3.49-3.77-3.49-3.77a27.12,27.12,0,0,0-6.63-12.69c-3.91-4.41-12.86-6.78-12.86-6.78l2.12-2.24-3.43,1.33a4.18,4.18,0,0,0,.53-4.66s-1.14,4.69-4.18,5.43-4.91,1.18-4.91,1.18c-16.33,5.28-17.15,21.48-17.15,21.48a18.33,18.33,0,0,0-1.54,4.65,4.09,4.09,0,0,1,1.77-1C314,272.2,313.8,273.48,313.8,273.48Z"/><path class="cls-23" d="M330.7,250.14c-.23.07-4.08,2.55-3.75,5.24,0,0,2.33-3.8,4.67-4.1Z"/><path class="cls-23" d="M345.65,250.52c.25,0,4.48,1.77,4.64,4.48,0,0-3-3.32-5.33-3.19Z"/><ellipse class="cls-14" cx="330.65" cy="261.66" rx="4.66" ry="5.69" transform="translate(-36.07 53.55) rotate(-8.78)"/><path class="cls-23" d="M335.25,261c1,7.83-8.24,9.19-9.7,1.5-.93-7.77,8.32-9.27,9.7-1.5Zm0,0c-1.34-7-9.65-5.82-8.71,1.35,1.26,7.12,9.56,5.77,8.71-1.35Z"/><ellipse class="cls-14" cx="346.47" cy="261.24" rx="5.69" ry="4.66" transform="translate(62.52 589.36) rotate(-86.14)"/><path class="cls-23" d="M341.83,260.93c-.24,7.16,8.14,7.8,8.79.59.32-7.22-8.06-7.71-8.79-.59Zm0,0c.7-7.86,10.05-7.16,9.79.66-.82,7.79-10.12,7.24-9.79-.66Z"/><ellipse class="cls-24" cx="346.05" cy="262.7" rx="3.56" ry="3.09" transform="translate(60.67 590.3) rotate(-86.14)"/><ellipse class="cls-25" cx="345.08" cy="261.24" rx="1.42" ry="1.23" transform="translate(61.22 587.97) rotate(-86.14)"/><ellipse class="cls-24" cx="331.62" cy="262.95" rx="3.56" ry="3.09" transform="translate(46.96 576.14) rotate(-86.14)"/><ellipse class="cls-25" cx="330.65" cy="261.49" rx="1.42" ry="1.23" transform="translate(47.51 573.81) rotate(-86.14)"/><path class="cls-21" d="M350.07,271.1a28.5,28.5,0,0,1-7.81-4.06c-3.63-2.76-6.28-.7-9.31,1.82s-5.4,2.49-5.4,2.49,4.47,3.23,5.76,5.28,5.49,6.43,11.55.17S350.07,271.1,350.07,271.1Z"/><path class="cls-22" d="M350.07,270.79c-4.64,6.34-13.38,6.32-19.68,2.54a16.65,16.65,0,0,1-2.47-1.78l.05-.08c7.49,4.33,15.38,5.19,22.1-.68Z"/><path class="cls-17" d="M314.06,287.78s1.19-10.18,10.69-3.06,24.43,13.75,48.52,4.75c0,0-.5,4.92-9,8.66,0,0,7.13-.51-5.26,7.46,0,0,5.26.85-8,8.32,0,0,3.22,3.73-12.22,5.6s-27.15-18.84-27.15-18.84l1.7-12.72"/><path class="cls-18" d="M314.06,287.78s1.19-10.18,10.69-3.06,24.43,13.75,48.52,4.75c0,0-.5,4.92-9,8.66,0,0,7.13-.51-5.26,7.46,0,0,5.26.85-8,8.32,0,0,3.22,3.73-12.22,5.6s-27.15-18.84-27.15-18.84l1.7-12.72"/><path class="cls-17" d="M365.81,296.94s-17.82,9.5-40.89-4.07"/><path class="cls-18" d="M365.81,296.94s-17.82,9.5-40.89-4.07"/><path class="cls-17" d="M360.55,304.91a42,42,0,0,1-37.5-5.6"/><path class="cls-18" d="M360.55,304.91a42,42,0,0,1-37.5-5.6"/><path class="cls-17" d="M352.24,313.06s-20.2,4.41-30.72-7.13"/><path class="cls-18" d="M352.24,313.06s-20.2,4.41-30.72-7.13"/><path class="cls-16" d="M270.28,291.85s-1.18-10.18-10.69-3.05-24.43,13.74-48.52,4.75c0,0,.51,4.92,9,8.65,0,0-7.13-.51,5.26,7.46,0,0-5.26.85,8,8.32,0,0-3.22,3.73,12.22,5.6s27.15-18.84,27.15-18.84L271,292"/><path class="cls-16" d="M218.53,301s17.82,9.5,40.89-4.07"/><path class="cls-16" d="M223.79,309a42.05,42.05,0,0,0,37.5-5.6"/><path class="cls-16" d="M232.11,317.13s20.19,4.41,30.71-7.13"/><path class="cls-2" d="M304,342.58l-1.17,5.57a.83.83,0,0,0,0,.56c.09.17.37.23.47.07a84.1,84.1,0,0,0,1.15,14.61,7.69,7.69,0,0,0,.74,2.5c.88,1.54,2.65,2.29,4.25,3a38,38,0,0,1,3.5,1.89c.48.29,1,.7,1,1.26a2.23,2.23,0,0,1-2.1-.16c-1.35-.59-2.67-1.25-4-2a3.27,3.27,0,0,0-2.28-.61,2.66,2.66,0,0,0-1.6,1.81,7.22,7.22,0,0,1-1,2.28.63.63,0,0,1-.5.28.71.71,0,0,1-.68-.8c.22-.92,0-1.89.17-2.82-1.11.49-1.41.81-2.52,1.31-1.32.59-2.81,1.18-4.17.72a.66.66,0,0,1-.38-.26c-.14-.25.05-.55.23-.77a12.24,12.24,0,0,1,2.89-2.43c1.09-.66,2.37-1.24,2.89-2.4a4.33,4.33,0,0,0,.31-1.12,30.53,30.53,0,0,0-1.38-15.68"/><path class="cls-2" d="M281.43,341.56l1,5.57a1,1,0,0,1,0,.56c-.07.17-.31.23-.4.07a96.55,96.55,0,0,1-1,14.62,8.29,8.29,0,0,1-.63,2.49c-.75,1.54-2.28,2.29-3.65,3.05a29.45,29.45,0,0,0-3,1.88,1.58,1.58,0,0,0-.84,1.26c.52.41,1.22.14,1.79-.16,1.16-.59,2.3-1.25,3.41-2a2.52,2.52,0,0,1,2-.61,2.57,2.57,0,0,1,1.37,1.81,7.35,7.35,0,0,0,.87,2.28c.11.15.25.3.42.28a.68.68,0,0,0,.59-.79c-.19-.93,0-1.9-.15-2.83,1,.49,1.21.82,2.17,1.31,1.13.59,2.41,1.19,3.58.72a.57.57,0,0,0,.33-.26.82.82,0,0,0-.21-.76,10.82,10.82,0,0,0-2.48-2.44,5.86,5.86,0,0,1-2.48-2.4,5.22,5.22,0,0,1-.26-1.12A35.2,35.2,0,0,1,285,348.45"/><path class="cls-19" d="M257.81,263.6l2.12-1.44a7,7,0,0,0-.76,5.51l1.61-2.38.17,3.06c2.07,9.46,12.12,12.36,13.37,12.69h0l.08,0a19.44,19.44,0,0,1-6,10.36c-4.92,4.15-8.05,10.85-8.05,10.85L262,302c-2.37,3.9-2.63,10.35-2.63,10.35-1.36,16,8.32,26.38,12.64,28.68a16.77,16.77,0,0,1,7.55,8.23c1,2.37,5.52,4.06,6.36,1.27s2.29-3.15,2.29-3.15l8.83-.07s-.35,4.57,4.41,4.06,3.56-6.44,8.06-9.07,14.42-12.9,16.2-23.84c1.73-10.68-1.36-16.58-1.52-16.87L326,303c-1.1-6.19-8.73-12.8-11.79-16.54a21.47,21.47,0,0,1-3.9-9,5.09,5.09,0,0,0,.93-.46,23.91,23.91,0,0,0,5.85-5.65c4.24-5.34,3.48-12.31,3.48-12.31l2,2.3c1.09-4.58-2.13-6.62-2.13-6.62l2.2.59a5.67,5.67,0,0,0-3.89-5.26l3,.18c-.76-3.31-4.67-4.42-4.67-4.42a33.9,33.9,0,0,0-9.33-15.26c-5.26-5.19-16.63-7.39-16.63-7.39l2.47-3-4.17,2a5.21,5.21,0,0,0,.26-5.85s-1,5.94-4.75,7.12-6,1.88-6,1.88c-19.93,8-19.59,28.24-19.59,28.24a23.09,23.09,0,0,0-1.53,5.94,5.12,5.12,0,0,1,2.12-1.36C257.9,262,257.81,263.6,257.81,263.6Z"/><path class="cls-20" d="M257.81,263.6l2.12-1.44a7,7,0,0,0-.76,5.51l1.61-2.38.17,3.06c2.07,9.46,12.12,12.36,13.37,12.69h0c16.7,1.66,28.62-.69,36.9-4.08a23.91,23.91,0,0,0,5.85-5.65c4.24-5.34,3.48-12.31,3.48-12.31l2,2.3c1.09-4.58-2.13-6.62-2.13-6.62l2.2.59a5.67,5.67,0,0,0-3.89-5.26l3,.18c-.76-3.31-4.67-4.42-4.67-4.42a33.9,33.9,0,0,0-9.33-15.26c-5.26-5.19-16.63-7.39-16.63-7.39l2.47-3-4.17,2a5.21,5.21,0,0,0,.26-5.85s-1,5.94-4.75,7.12-6,1.88-6,1.88c-19.93,8-19.59,28.24-19.59,28.24a23.09,23.09,0,0,0-1.53,5.94,5.12,5.12,0,0,1,2.12-1.36C257.9,262,257.81,263.6,257.81,263.6Z"/><path class="cls-23" d="M274.5,233.36c-.32.11-5.41,3.91-4.71,7.6,0,0,2.87-5.48,6.08-6.11Z"/><path class="cls-23" d="M295.94,230.79c.35,0,6.36,2,6.84,5.76,0,0-4.43-4.32-7.68-3.91Z"/><ellipse class="cls-14" cx="277.46" cy="247" rx="6.45" ry="7.89" transform="translate(-47.32 66.69) rotate(-12.64)"/><path class="cls-23" d="M283.76,245.58c1.6,6.31-4.16,12.59-10.08,7.95-4.67-3.63-4.42-13,2-14.48,4-.73,7.32,2.9,8.08,6.53Zm0,0c-.71-3.55-4.19-7-8-6-7.56,2.34-4.49,16,3.35,14.91,3.83-.73,5.49-5.35,4.62-8.87Z"/><ellipse class="cls-14" cx="297.95" cy="244.89" rx="6.45" ry="7.89"/><path class="cls-23" d="M291.49,244.89c-.08,3.62,2.55,7.77,6.46,7.64,7.89-.62,7.89-14.65,0-15.28-3.91-.12-6.54,4-6.46,7.64Zm0,0c-.18-6.5,6.82-11.37,11.58-5.54,3.77,4.56,1.46,13.66-5.12,13.68-4.1-.17-6.51-4.42-6.46-8.14Z"/><ellipse class="cls-24" cx="297.13" cy="247.44" rx="3.86" ry="4.45"/><ellipse class="cls-25" cx="295.8" cy="245.7" rx="1.54" ry="1.78"/><ellipse class="cls-24" cx="279.15" cy="248.96" rx="3.86" ry="4.45"/><ellipse class="cls-25" cx="277.82" cy="247.23" rx="1.54" ry="1.78"/><path class="cls-21" d="M302.86,257.58a35.85,35.85,0,0,1-10.09-4.42c-4.76-3.14-7.89-.34-11.46,3.06s-6.53,3.56-6.53,3.56,5.85,3.65,7.64,6.11,7.38,7.55,14.42-.76S302.86,257.58,302.86,257.58Z"/><path class="cls-22" d="M302.81,257.18c-5.53,8.08-16,8.69-24.27,4.73a22.87,22.87,0,0,1-3.28-1.92l.05-.08c6.52,3.23,14.7,5,21.5,1.64a19.85,19.85,0,0,0,5.93-4.43l.07.06Z"/><path class="cls-17" d="M106.66,292.23s-1.23-10.53-11-3.16S70.35,303.28,45.44,294c0,0,.53,5.09,9.3,8.95,0,0-7.37-.53,5.44,7.72,0,0-5.44.88,8.24,8.59,0,0-3.33,3.86,12.63,5.79s28.07-19.47,28.07-19.47l-1.76-13.15"/><path class="cls-18" d="M106.66,292.23s-1.23-10.53-11-3.16S70.35,303.28,45.44,294c0,0,.53,5.09,9.3,8.95,0,0-7.37-.53,5.44,7.72,0,0-5.44.88,8.24,8.59,0,0-3.33,3.86,12.63,5.79s28.07-19.47,28.07-19.47l-1.76-13.15"/><path class="cls-17" d="M53.16,301.7s18.42,9.83,42.28-4.21"/><path class="cls-18" d="M53.16,301.7s18.42,9.83,42.28-4.21"/><path class="cls-17" d="M58.6,310a43.45,43.45,0,0,0,38.77-5.79"/><path class="cls-18" d="M58.6,310a43.45,43.45,0,0,0,38.77-5.79"/><path class="cls-17" d="M67.19,318.37s20.88,4.56,31.75-7.37"/><path class="cls-18" d="M67.19,318.37s20.88,4.56,31.75-7.37"/><path class="cls-16" d="M151.92,296.44s1.23-10.53,11.05-3.16,25.26,14.21,50.17,4.91c0,0-.52,5.09-9.29,8.95,0,0,7.36-.53-5.44,7.72,0,0,5.44.88-8.25,8.6,0,0,3.34,3.85-12.63,5.78s-28.06-19.47-28.06-19.47l1.75-13.15"/><path class="cls-16" d="M205.43,305.91s-18.42,9.83-42.28-4.21"/><path class="cls-16" d="M200,314.16a43.45,43.45,0,0,1-38.77-5.79"/><path class="cls-16" d="M191.39,322.58s-20.87,4.56-31.75-7.37"/><path class="cls-2" d="M117,348.89l1.21,5.76a.89.89,0,0,1,0,.58c-.1.17-.38.24-.48.07a86.92,86.92,0,0,1-1.2,15.11,7.47,7.47,0,0,1-.76,2.58c-.91,1.59-2.74,2.36-4.4,3.15a39.2,39.2,0,0,0-3.61,1.94c-.5.31-1,.73-1,1.31a2.32,2.32,0,0,0,2.16-.16q2.1-.93,4.11-2a3.33,3.33,0,0,1,2.35-.62,2.71,2.71,0,0,1,1.65,1.87,7.51,7.51,0,0,0,1,2.36.69.69,0,0,0,.51.29.74.74,0,0,0,.7-.83c-.22-1,0-2-.17-2.92,1.15.51,1.46.84,2.61,1.36,1.36.6,2.9,1.22,4.31.74a.73.73,0,0,0,.39-.27c.15-.26-.05-.57-.24-.79a12.67,12.67,0,0,0-3-2.52c-1.12-.68-2.45-1.28-3-2.48a5,5,0,0,1-.31-1.16A31.4,31.4,0,0,1,121.33,356"/><path class="cls-2" d="M140.4,347.84l-1,5.76a.92.92,0,0,0,0,.57c.08.18.33.25.41.08a101.68,101.68,0,0,0,1,15.11,8.89,8.89,0,0,0,.65,2.58c.78,1.59,2.36,2.36,3.78,3.14a33.51,33.51,0,0,1,3.1,1.95,1.63,1.63,0,0,1,.87,1.31c-.54.42-1.26.14-1.86-.17a40,40,0,0,1-3.52-2,2.59,2.59,0,0,0-2-.63,2.67,2.67,0,0,0-1.42,1.88,8.26,8.26,0,0,1-.9,2.36c-.11.15-.26.3-.44.28a.7.7,0,0,1-.6-.82c.19-1,0-2,.15-2.92-1,.51-1.26.84-2.24,1.35-1.18.61-2.49,1.23-3.71.74a.54.54,0,0,1-.33-.26.8.8,0,0,1,.21-.79,11.32,11.32,0,0,1,2.56-2.52c1-.68,2.1-1.28,2.57-2.48a5.45,5.45,0,0,0,.27-1.16A36.39,36.39,0,0,0,136.7,355"/><path class="cls-19" d="M164.82,267.23l-2.2-1.49a7.22,7.22,0,0,1,.8,5.7L161.75,269l-.18,3.16c-2.14,9.79-12.53,12.79-13.82,13.13h0l-.09,0a20.08,20.08,0,0,0,6.23,10.7c5.09,4.3,8.33,11.22,8.33,11.22l-1.67-.25c2.46,4,2.73,10.69,2.73,10.69,1.4,16.58-8.6,27.28-13.07,29.66a17.36,17.36,0,0,0-7.81,8.5c-1.05,2.46-5.7,4.21-6.58,1.32s-2.36-3.25-2.36-3.25l-9.13-.08s.36,4.73-4.56,4.2-3.68-6.66-8.33-9.38S96.49,335.3,94.65,324c-1.79-11,1.41-17.14,1.57-17.44l-1.92,1.39c1.13-6.4,9-13.24,12.19-17.11a22.19,22.19,0,0,0,4-9.29,4.58,4.58,0,0,1-1-.48,24.51,24.51,0,0,1-6.06-5.83c-4.38-5.53-3.59-12.73-3.59-12.73l-2,2.38c-1.14-4.74,2.2-6.85,2.2-6.85l-2.28.62c.44-4.57,4-5.44,4-5.44l-3.15.18c.79-3.42,4.82-4.57,4.82-4.57A35.17,35.17,0,0,1,113.16,233c5.43-5.36,17.18-7.64,17.18-7.64l-2.54-3.07,4.3,2a5.4,5.4,0,0,1-.26-6.05s1,6.14,4.91,7.36,6.23,1.94,6.23,1.94c20.61,8.24,20.26,29.21,20.26,29.21a24,24,0,0,1,1.58,6.13,5.34,5.34,0,0,0-2.2-1.4C164.73,265.56,164.82,267.23,164.82,267.23Z"/><path class="cls-20" d="M164.82,267.23l-2.2-1.49a7.22,7.22,0,0,1,.8,5.7L161.75,269l-.18,3.16c-2.14,9.79-12.53,12.79-13.82,13.13h0c-17.27,1.71-29.59-.72-38.15-4.23a24.51,24.51,0,0,1-6.06-5.83c-4.38-5.53-3.59-12.73-3.59-12.73l-2,2.38c-1.14-4.74,2.2-6.85,2.2-6.85l-2.28.62c.44-4.57,4-5.44,4-5.44l-3.15.18c.79-3.42,4.82-4.57,4.82-4.57A35.17,35.17,0,0,1,113.16,233c5.43-5.36,17.18-7.64,17.18-7.64l-2.54-3.07,4.3,2a5.4,5.4,0,0,1-.26-6.05s1,6.14,4.91,7.36,6.23,1.94,6.23,1.94c20.61,8.24,20.26,29.21,20.26,29.21a24,24,0,0,1,1.58,6.13,5.34,5.34,0,0,0-2.2-1.4C164.73,265.56,164.82,267.23,164.82,267.23Z"/><path class="cls-23" d="M123.83,234c-.34,0-6.55,1.27-7.46,4.92,0,0,4.9-3.77,8.08-3Z"/><path class="cls-23" d="M143.08,234.92c.35,0,6.36,2,6.84,5.76,0,0-4.43-4.32-7.68-3.91Z"/><ellipse class="cls-14" cx="123.44" cy="248.34" rx="6.45" ry="7.89"/><path class="cls-23" d="M129.9,248.34c.18,6.5-6.81,11.37-11.58,5.55-3.77-4.56-1.46-13.67,5.12-13.69,4.1.17,6.51,4.43,6.46,8.14Zm0,0c.08-3.62-2.55-7.76-6.46-7.64-7.89.63-7.89,14.66,0,15.28,3.91.12,6.53-4,6.46-7.64Z"/><ellipse class="cls-14" cx="143.29" cy="249.8" rx="6.45" ry="7.89"/><path class="cls-23" d="M136.83,249.8c-.08,3.62,2.55,7.76,6.46,7.64,7.89-.63,7.89-14.66,0-15.28-3.91-.13-6.54,4-6.46,7.64Zm0,0c-.18-6.5,6.82-11.38,11.58-5.55,3.77,4.56,1.46,13.66-5.12,13.68-4.1-.17-6.51-4.42-6.46-8.13Z"/><ellipse class="cls-24" cx="124.16" cy="250.52" rx="3.99" ry="4.6"/><ellipse class="cls-25" cx="125.54" cy="248.73" rx="1.6" ry="1.84"/><ellipse class="cls-24" cx="142.76" cy="252.1" rx="3.99" ry="4.6"/><ellipse class="cls-25" cx="144.13" cy="250.3" rx="1.6" ry="1.84"/><path class="cls-21" d="M118.24,261a36.73,36.73,0,0,0,10.44-4.56c4.91-3.24,8.16-.35,11.84,3.16s6.75,3.69,6.75,3.69-6.05,3.77-7.89,6.31-7.63,7.81-14.91-.79S118.24,261,118.24,261Z"/><path class="cls-22" d="M118.37,260.53c7.24,6.4,15.78,6.76,24.69,4.07,1.24-.32,2.44-.75,3.66-1.18l.05.08c-6.75,3.41-15.29,5.33-22.34,1.75a20.44,20.44,0,0,1-6.14-4.65l.08-.07Z"/></svg>