<svg id="Layer_1" data-name="Layer 1" xmlns="http://www.w3.org/2000/svg" viewBox="0 0 65.85 61.89"><defs><style>.cls-1{fill:#f9f2f2;}.cls-2{fill:#683c3c;}.cls-3{fill:#30252b;}.cls-4{fill:#fff;}.cls-5{fill:#dc0604;}</style></defs><ellipse class="cls-1" cx="35.61" cy="33.4" rx="6.64" ry="5.52" transform="translate(-12.94 28.23) rotate(-37.09)"/><path class="cls-2" d="M39,37.85C34.54,41.43,27.46,39,28.83,32.64a8,8,0,0,1,7.89-6c6.53.46,6.91,7.84,2.25,11.17Zm-.06-.08c6.75-5.48.53-13.72-6.57-8.69-6.78,5.46-.54,13.68,6.57,8.69Z"/><ellipse class="cls-3" cx="36.5" cy="35.4" rx="4.65" ry="3.6" transform="translate(-13.78 27.81) rotate(-35.54)"/><ellipse class="cls-4" cx="37.79" cy="33.05" rx="1.58" ry="1.22" transform="translate(-12.17 28.13) rotate(-35.54)"/><path class="cls-5" d="M35.44,18.44a4.65,4.65,0,0,1,2.88.35.87.87,0,0,1,.51.6.86.86,0,0,1-.07.36,2.16,2.16,0,0,1-.44.8A1.9,1.9,0,0,1,37,21a14.74,14.74,0,0,1-1.47-.18,6.19,6.19,0,0,0-1.92.09,3.05,3.05,0,0,1-1.46.12c-.34-.1-.77-.54-.64-.93s.77-.6,1.07-.75A9.55,9.55,0,0,1,35.44,18.44Z"/></svg>