<svg id="Layer_1" data-name="Layer 1" xmlns="http://www.w3.org/2000/svg" viewBox="0 0 54.76 40.62"><defs><style>.cls-1{fill:#f9f2f2;}.cls-2{fill:#683c3c;}.cls-3{fill:#30252b;}.cls-4{fill:#fff;}.cls-5{fill:#dc0604;}</style></defs><ellipse class="cls-1" cx="15.83" cy="25.21" rx="9.63" ry="12.03" transform="translate(-6.64 5.69) rotate(-16.9)"/><path class="cls-2" d="M24.82,21.57c3.69,9-3.21,20.3-13.23,14.55A14.57,14.57,0,0,1,5.65,20.25c3.5-11.08,15.88-8.39,19.17,1.32Zm-.1,0C21.49,12.37,9.58,9.68,6.48,20.47,4.16,28.29,11.25,39.7,20.11,36.34c5.45-2.42,6.56-9.61,4.61-14.74Z"/><ellipse class="cls-3" cx="16.28" cy="29.55" rx="4.84" ry="6.49" transform="translate(-7.74 5.86) rotate(-16.55)"/><ellipse class="cls-4" cx="18.1" cy="26.51" rx="1.64" ry="2.2" transform="translate(-6.8 6.25) rotate(-16.55)"/><ellipse class="cls-1" cx="43.43" cy="22.33" rx="9.45" ry="12.01" transform="translate(-4.39 12.44) rotate(-15.52)"/><path class="cls-2" d="M52.23,18.68c2.74,6.48-.36,16.82-8.72,16-7.8-1-12-10.19-10.1-17.29C36.81,6.31,49,8.93,52.23,18.68Zm-.09,0C49,9.45,37.24,6.81,34.25,17.65,32.61,24.27,36.44,32.83,43.6,34c8.09.93,11.08-9,8.54-15.3Z"/><ellipse class="cls-3" cx="43.87" cy="26.67" rx="4.75" ry="6.48" transform="matrix(0.96, -0.27, 0.27, 0.96, -5.53, 12.69)"/><ellipse class="cls-4" cx="45.65" cy="23.63" rx="1.61" ry="2.2" transform="translate(-4.65 13.06) rotate(-15.5)"/><path class="cls-5" d="M8.83,5.5a8.33,8.33,0,0,1,5-1.77,1.58,1.58,0,0,1,1.32.57,1.58,1.58,0,0,1,.19.64,3.82,3.82,0,0,1-.08,1.65,3.38,3.38,0,0,1-1.84,1.87,24.38,24.38,0,0,1-2.52.91,11.08,11.08,0,0,0-3.08,1.71,5.57,5.57,0,0,1-2.27,1.37c-.64.12-1.7-.26-1.81-1s.78-1.59,1.15-2.09A17.31,17.31,0,0,1,8.83,5.5Z"/><path class="cls-5" d="M37.14,2.76a9.15,9.15,0,0,0-5.5.84,1.75,1.75,0,0,0-1,1.16,1.5,1.5,0,0,0,.1.66,3.47,3.47,0,0,0,.81,1.45,3.48,3.48,0,0,0,2.57.78c.94,0,1.86-.29,2.8-.42a11.88,11.88,0,0,1,3.67,0,5.91,5.91,0,0,0,2.77.12c.65-.2,1.49-1.06,1.26-1.78s-1.44-1-2-1.32A17.72,17.72,0,0,0,37.14,2.76Z"/></svg>