<svg id="Layer_1" data-name="Layer 1" xmlns="http://www.w3.org/2000/svg" viewBox="0 0 97.94 97.99"><defs><style>.cls-1{fill:#ffd15f;stroke:#d67d13;stroke-miterlimit:10;}</style></defs><path class="cls-1" d="M26.45,38.43s.41-8.47,8.65-3.12,20.92,10,40.29,1.23c0,0-.14,4.08-6.93,7.63,0,0,5.85-.81-3.93,6.46,0,0,4.39.4-6.11,7.3,0,0,2.86,2.9-9.77,5.3s-23.44-14-23.44-14l.69-10.59"/><path class="cls-1" d="M69.65,43.11s-14.17,8.83-34-1.09"/><path class="cls-1" d="M65.76,50a34.76,34.76,0,0,1-31.25-2.53"/><path class="cls-1" d="M59.35,57.16S42.94,61.92,33.62,53"/></svg>