<svg id="Layer_1" data-name="Layer 1" xmlns="http://www.w3.org/2000/svg" viewBox="0 0 33.59 25.6"><defs><style>.cls-1{fill:#66441c;}.cls-2{fill:#fff;}.cls-3{fill:#30200f;}.cls-4{fill:#efdece;}</style></defs><path class="cls-1" d="M11.34,4.5c-.24.07-4.09,2.55-3.76,5.25,0,0,2.33-3.81,4.67-4.1Z"/><path class="cls-1" d="M26.28,4.88c.25,0,4.48,1.78,4.64,4.49,0,0-3-3.33-5.33-3.2Z"/><ellipse class="cls-2" cx="11.28" cy="16.03" rx="4.66" ry="5.69" transform="translate(-2.31 1.91) rotate(-8.78)"/><path class="cls-1" d="M15.88,15.32c1,7.82-8.24,9.18-9.69,1.5-.94-7.78,8.32-9.27,9.69-1.5Zm0,0c-1.34-7-9.65-5.82-8.71,1.34,1.27,7.13,9.56,5.77,8.71-1.34Z"/><ellipse class="cls-2" cx="27.1" cy="15.61" rx="5.69" ry="4.66" transform="translate(9.71 41.6) rotate(-86.14)"/><path class="cls-1" d="M22.46,15.29c-.23,7.17,8.15,7.8,8.79.6.33-7.23-8.06-7.72-8.79-.6Zm0,0c.7-7.86,10-7.16,9.79.66-.82,7.8-10.12,7.24-9.79-.66Z"/><ellipse class="cls-3" cx="26.68" cy="17.07" rx="3.56" ry="3.09" transform="translate(7.86 42.54) rotate(-86.14)"/><ellipse class="cls-4" cx="25.71" cy="15.61" rx="1.42" ry="1.23" transform="translate(8.41 40.22) rotate(-86.14)"/><ellipse class="cls-3" cx="12.25" cy="17.32" rx="3.56" ry="3.09" transform="translate(-5.85 28.38) rotate(-86.14)"/><ellipse class="cls-4" cx="11.28" cy="15.86" rx="1.42" ry="1.23" transform="translate(-5.3 26.05) rotate(-86.14)"/></svg>