<svg id="Layer_1" data-name="Layer 1" xmlns="http://www.w3.org/2000/svg" viewBox="0 0 97.94 97.99"><defs><style>.cls-1{fill:#ffd15f;stroke:#d67d13;stroke-miterlimit:10;}</style></defs><path class="cls-1" d="M74.53,38.48S73.34,28.3,63.84,35.42,39.4,49.17,15.31,40.17c0,0,.51,4.92,9,8.66,0,0-7.12-.51,5.26,7.46,0,0-5.26.85,8,8.32,0,0-3.23,3.73,12.21,5.6S76.9,51.37,76.9,51.37L75.2,38.65"/><path class="cls-1" d="M22.77,47.64s17.82,9.5,40.9-4.07"/><path class="cls-1" d="M28,55.61A42,42,0,0,0,65.53,50"/><path class="cls-1" d="M36.35,63.76s20.19,4.41,30.71-7.13"/></svg>