<svg id="Layer_1" data-name="Layer 1" xmlns="http://www.w3.org/2000/svg" xmlns:xlink="http://www.w3.org/1999/xlink" viewBox="0 0 203.29 199.12"><defs><style>.cls-1,.cls-12,.cls-4,.cls-9{fill:none;}.cls-2{clip-path:url(#clip-path);}.cls-3{fill:#fe4786;}.cls-4{stroke:#ce1762;}.cls-12,.cls-4,.cls-9{stroke-miterlimit:10;}.cls-5{fill:#f7f5f2;}.cls-6{fill:#f42776;}.cls-7{fill:#7e57a3;}.cls-8{fill:#130101;}.cls-9{stroke:#d83976;}.cls-10{fill:#65234d;}.cls-11{fill:#ce1762;}.cls-12{stroke:#050505;}.cls-13{fill:#a31540;}.cls-14{fill:#ff2c3e;}.cls-15{fill:#fff3df;}.cls-16{fill:#9d246d;}.cls-17{fill:#d83a77;}.cls-18{fill:#d5e6ad;}.cls-19{fill:#348a8a;}.cls-20{fill:#285681;}.cls-21{fill:#fff63a;}.cls-22{fill:#ff9294;}</style><clipPath id="clip-path"><path class="cls-1" d="M-10.18,157.64c6.64,3.61,119.18,55.29,214.32-5.28L174,41.49c-6.87-25.25-31.2-45-62.25-50-.92-.15-1.85-.29-2.78-.42C66.5-14.83,26.18,8.51,17.76,43Z"/></clipPath></defs><g class="cls-2"><path class="cls-3" d="M134.48,123.43c-.41,0,9.76,9,2.08,14.08.26-.29,1.08-8.25-2.62-7.87-.16.4-5.52,20.5,2.05,31.31-.32-.08-6.19,3.54-11.85,0-.07-.06.74,5.81,8.32,7.74a9.29,9.29,0,0,1-11.24-1.51c.65.64,7.25,7.38,3.22,16.08-.15-.22-1.78-9.73-7.06-12.48.07.15,5.57,24.08-5.8,29.2.16-.22,5.58-17.09-5.87-20.66.22.15,3.2,17.39-7.21,22,.22.07,1.63-9.73-2.82-13.6.15,0-10.34,19.62-28.4,11.59.19,0,9.93-4.13,10.63-10.88-.42.66-12.94,7.59-21.17,4.19.11,0,12.45-6.38,4.83-11.37a16.3,16.3,0,0,1-9,6.14c-.24.07-.5.13-.76.18a14.36,14.36,0,0,1-6.21-.21,9.79,9.79,0,0,0,2.3-1.9c2.8-2.8,6.92-8.28,5.39-13.57a55.33,55.33,0,0,1-8.69.18c-2.71-.21-5.28-.77-6.36-2.07,0-.06,6.41-3.34,4.9-9.33-.3.42-14.23,9.93-22.23-3.27A17.74,17.74,0,0,0,31.49,156a19.18,19.18,0,0,0,7.08-6.37,28.85,28.85,0,0,0,4.45-9c3.14-9.94,14.16-36.42,14.28-40.52a.92.92,0,0,0-.15-.58c-1.13-1.59-8.07,1.74-8.07,1.74S52.26,90.13,56,88.45s5.66-10.32,5.66-10.32A14.55,14.55,0,0,0,67.28,72c.92-2.49,5.38-38,34.24-41.2s37.67,18.37,39.11,23.68,0,25.4.92,27.89,3.73,8.19,2.6,10-6.21,6.1-6.21,7.54-1.53,17.42,5,20C148.13,122.31,138.24,125.16,134.48,123.43Z"/><path class="cls-4" d="M134.48,123.65c-.41,0,9.77,9,2.08,14.09.26-.3,1.09-8.25-2.62-7.87-.15.39-5.51,20.5,2.06,31.3-.32-.08-6.2,3.54-11.85,0-.07-.06.74,5.81,8.32,7.75a9.3,9.3,0,0,1-11.24-1.51c.65.63,7.25,7.38,3.22,16.07-.15-.22-1.78-9.73-7.06-12.48.07.15,5.57,24.08-5.8,29.21.15-.23,5.58-17.1-5.87-20.66.22.15,3.19,17.39-7.21,22,.22.08,1.63-9.73-2.82-13.6.15,0-10.34,19.62-28.4,11.6.19,0,9.93-4.14,10.62-10.88-.41.66-12.93,7.58-21.16,4.19.11.05,12.45-6.38,4.82-11.37a16.31,16.31,0,0,1-9,6.14l-.76.17a14.41,14.41,0,0,1-6.22-.21,9.52,9.52,0,0,0,2.31-1.9c2.79-2.8,6.92-8.27,5.39-13.57a55.33,55.33,0,0,1-8.69.18c-2.71-.2-5.28-.77-6.36-2.07,0-.06,6.41-3.33,4.9-9.32-.3.41-14.24,9.93-22.23-3.28a17.64,17.64,0,0,0,10.56-1.41,19.26,19.26,0,0,0,7.08-6.37,29,29,0,0,0,4.45-9c3.14-9.94,14.16-36.42,14.28-40.51a1,1,0,0,0-.15-.59c-1.13-1.59-8.07,1.74-8.07,1.74S52.27,90.35,56,88.67s5.66-10.32,5.66-10.32a14.52,14.52,0,0,0,5.64-6.16c.92-2.49,5.37-38.06,34.24-41.21s37.66,18.37,39.1,23.69,0,25.39.93,27.88,3.73,8.19,2.6,10S138,98.69,138,100.12s-1.53,17.42,5,20C148.14,122.53,138.25,125.38,134.48,123.65Z"/><path class="cls-5" d="M140.34,72c0,3.38.07,8.29-3.26,11.81a9.4,9.4,0,0,1-5.68,3,8.52,8.52,0,0,1-3.06-.23A9.8,9.8,0,0,1,123.53,84a7.15,7.15,0,0,1-.87-1,19,19,0,0,1-3.33-8.63c-.51-5.52,2.44-15.22,9-16,4.8-.57,9.7,3.78,11.33,8.18A16.22,16.22,0,0,1,140.34,72Z"/><path class="cls-6" d="M134.12,59.79a9,9,0,0,0-5.92-1.58c-6.57.82-9.56,10.54-9,16a19,19,0,0,0,3.34,8.64,12.92,12.92,0,0,0,.87,1,9.78,9.78,0,0,0,4.8,2.59,9.17,9.17,0,0,0,3.07.23l.67-.09a8.24,8.24,0,0,1-2.26.59,9.8,9.8,0,0,1-3.24-.23,11,11,0,0,1-5.09-2.7,8.59,8.59,0,0,1-.94-1.07,20.29,20.29,0,0,1-3.52-9.13c-.54-5.81,2.58-16.06,9.57-16.92A10,10,0,0,1,134.12,59.79Z"/><ellipse class="cls-7" cx="133.56" cy="72.48" rx="6.64" ry="8.95" transform="translate(-0.27 0.5) rotate(-0.21)"/><ellipse class="cls-8" cx="133.52" cy="72.03" rx="3.54" ry="4.77" transform="translate(-0.3 0.56) rotate(-0.24)"/><ellipse class="cls-5" cx="130.72" cy="69.68" rx="2.06" ry="1.52" transform="translate(43.46 189.38) rotate(-81.96)"/><path class="cls-9" d="M140.34,72c0,3.38.07,8.29-3.26,11.81a9.4,9.4,0,0,1-5.68,3,8.52,8.52,0,0,1-3.06-.23A9.8,9.8,0,0,1,123.53,84a7.15,7.15,0,0,1-.87-1,19,19,0,0,1-3.33-8.63c-.51-5.52,2.44-15.22,9-16,4.8-.57,9.7,3.78,11.33,8.18A16.22,16.22,0,0,1,140.34,72Z"/><path class="cls-5" d="M115.67,71c-.2,3.9-.49,9.56-4.57,13.41a10.91,10.91,0,0,1-6.76,3.11,10,10,0,0,1-3.53-.48,11.29,11.29,0,0,1-5.36-3.32,8.6,8.6,0,0,1-.94-1.24,22,22,0,0,1-3.25-10.19c-.21-6.4,3.88-17.4,11.54-17.84,5.58-.33,10.93,5,12.5,10.23A18.55,18.55,0,0,1,115.67,71Z"/><path class="cls-6" d="M109.34,56.47a10.35,10.35,0,0,0-6.72-2.23C95,54.72,90.85,65.74,91.1,72.12a22,22,0,0,0,3.25,10.2,15.26,15.26,0,0,0,.94,1.23,11.35,11.35,0,0,0,5.36,3.33,10.9,10.9,0,0,0,3.52.48l.79-.07a9.52,9.52,0,0,1-2.65.53,11.91,11.91,0,0,1-3.73-.48,12.73,12.73,0,0,1-5.68-3.48,10.62,10.62,0,0,1-1-1.3,23.47,23.47,0,0,1-3.42-10.78c-.22-6.75,4.08-18.35,12.22-18.86C103.85,52.65,106.89,54.16,109.34,56.47Z"/><ellipse class="cls-7" cx="107.2" cy="70.55" rx="10.38" ry="7.95" transform="translate(26.97 170.71) rotate(-84.65)"/><ellipse class="cls-8" cx="108.29" cy="70.18" rx="5.53" ry="4.25" transform="translate(28.32 171.46) rotate(-84.65)"/><ellipse class="cls-5" cx="105.63" cy="67.23" rx="2.02" ry="1.55" transform="translate(28.85 166.14) rotate(-84.65)"/><path class="cls-9" d="M115.67,71c-.2,3.9-.49,9.56-4.57,13.41a10.91,10.91,0,0,1-6.76,3.11,10,10,0,0,1-3.53-.48,11.29,11.29,0,0,1-5.36-3.32,8.6,8.6,0,0,1-.94-1.24,22,22,0,0,1-3.25-10.19c-.21-6.4,3.88-17.4,11.54-17.84,5.58-.33,10.93,5,12.5,10.23A18.55,18.55,0,0,1,115.67,71Z"/><path class="cls-10" d="M101.32,43.49c-.14,0-5.49-2.06-6.49-1.19s-1.26,2.51.94,3.27c0,0-6.75.2-5.33,3.54-.13-.12-4.93,1.6-1.71,3.64-.21,0-3.37,2.89-1.3,4.73,4.92-6.2,7.91-7.72,9.76-7.87a17.44,17.44,0,0,0,3.09-.57c1.92-.53,3.55-1,3.82-2S103.19,44.52,101.32,43.49Z"/><path class="cls-10" d="M125.42,47.6c.08-.05,3.08-2.68,3.94-2.35s1.44,1.33.19,2.36c0,0,4.45-1.51,4.34,1,.06-.1,3.61-.15,2,2,.13,0,2.9,1.07,2,2.78-4.72-2.85-7.05-3.12-8.3-2.76a12.77,12.77,0,0,1-2.15.38c-1.39.12-2.56.22-3-.39S124.44,48.73,125.42,47.6Z"/><path class="cls-11" d="M130.45,101.9a32.56,32.56,0,0,0,11.32-6.05,32.94,32.94,0,0,1-11,7l-.3-.95Z"/><path class="cls-12" d="M84.69,84.72v0"/><path class="cls-13" d="M134.23,130.14c-.23.28-.48.54-.72.8a21.39,21.39,0,0,1-5,3.95,25.2,25.2,0,0,1-7.8,2.93l-.39.08-.77.13-1.14.18-.36,0-1.17.12c-1.05.08-2.12.12-3.17.11a2.25,2.25,0,0,1-.26,0c-1.3,0-2.62-.09-3.91-.22l-.91-.1c-1-.13-1.89-.27-2.83-.45l-.94-.19-.1,0h0c-6.76-1.41-12.79-4.17-16.27-7a12.16,12.16,0,0,1-2.13-2.11,2.9,2.9,0,0,1-.25-.36,30.56,30.56,0,0,1-1.76-5c-4-15,.39-35.89.24-38.91a32.39,32.39,0,0,0,1.5,5.39,24.14,24.14,0,0,0,3.69,6.58A19.87,19.87,0,0,0,93,99.37l.14.12a25.3,25.3,0,0,0,2.46,1.72A27.68,27.68,0,0,0,105,104.6c.66.13,1.33.23,2,.32l.86.1h.08l1.14.11h0c.77.05,1.53.09,2.3.11a54.1,54.1,0,0,0,7.66-.37l.25,0c2-.23,3.79-.53,5.39-.84,1.29-.26,2.44-.52,3.42-.76l1.56-.39c.19,0,.37-.1.57-.17a1.92,1.92,0,0,0,.32-.09c-.3,1.7-.55,3.3-.73,4.8C127.44,126.33,133.77,130.6,134.23,130.14Z"/><path class="cls-14" d="M133.51,130.94a21.39,21.39,0,0,1-5,3.95,25.2,25.2,0,0,1-7.8,2.93l-.39.08-.77.13-1.14.18-.36,0-1.17.12c-1.05.08-2.12.12-3.17.11a2.25,2.25,0,0,1-.26,0c-1.3,0-2.62-.09-3.91-.22l-.91-.1c-1-.13-1.89-.27-2.83-.45l-.94-.19-.1,0h0c-6.76-1.41-12.79-4.17-16.27-7a12.16,12.16,0,0,1-2.13-2.11,2.9,2.9,0,0,1-.25-.36,30.56,30.56,0,0,1-1.76-5c6.69-1.38,17.71-2,26.19,5.47C111.34,128.29,123.81,121.55,133.51,130.94Z"/><path class="cls-15" d="M119.25,104.84a3.59,3.59,0,0,0-.17.34l-.33.64a.91.91,0,0,1-.07.14l-.19.4c-.92,1.93-1.13,2.76-1.5,3.48a4.94,4.94,0,0,1-4.34,2.88c-2-.1-4.64-2.6-7-6.69-.25-.46-.51-.93-.75-1.43.66.13,1.33.23,2,.32l.86.1h.08l1.14.11h0c.77.05,1.53.09,2.3.11a54.1,54.1,0,0,0,7.66-.37Z"/><path class="cls-15" d="M107,104.92c-.33.28-.75.64-1.25,1.11a.47.47,0,0,0-.1.1l-.12.1-.31.3c-1.54,1.48-2,2.19-2.64,2.74a4.92,4.92,0,0,1-5.06,1.16c-1.8-.77-3.37-3.92-4.11-8.39-.13-.84-.25-1.74-.32-2.67l.14.12a25.3,25.3,0,0,0,2.46,1.72A27.68,27.68,0,0,0,105,104.6C105.61,104.73,106.28,104.83,107,104.92Z"/><path class="cls-15" d="M95.64,101.21l-1,.34-.15,0-.41.16-.74.28c-1.46.58-2.1.95-2.76,1.18a4.92,4.92,0,0,1-5.12-.94c-1.68-1.78-1.54-6.82.63-12.79a24.14,24.14,0,0,0,3.69,6.58A19.87,19.87,0,0,0,93,99.37l.14.12A25.3,25.3,0,0,0,95.64,101.21Z"/><path class="cls-15" d="M130.19,102.68c-2.07,6.8-6.14,9.24-8.56,7.46a7.59,7.59,0,0,1-2.29-4c-.06-.23-.13-.44-.18-.66s-.06-.23-.08-.34,0-.21-.08-.31l.25,0c2-.23,3.79-.53,5.39-.84,1.29-.26,2.44-.52,3.42-.76l1.56-.39C129.81,102.8,130,102.75,130.19,102.68Z"/><path class="cls-15" d="M104.77,137.5c-6.75-1.41-12.78-4.17-16.26-7a12.16,12.16,0,0,1-2.13-2.11c1.61-2.21,4.09-4.78,6.89-4.57,3,.22,5,3.31,8.64,8.79A54.89,54.89,0,0,1,104.77,137.5Z"/><path class="cls-15" d="M116,138.37c-.76.06-1.52.1-2.29.11a2.25,2.25,0,0,1-.26,0c-1.3,0-2.62-.09-3.91-.22l-.91-.1c-1-.13-1.89-.27-2.83-.45l-.94-.19a6.4,6.4,0,0,1,.18-4.61c.72-1.58,2.31-3.52,4.11-3.67C111.72,129,115,132.53,116,138.37Z"/><path class="cls-15" d="M128.53,134.89a25.2,25.2,0,0,1-7.8,2.93c-.77.15-1.54.28-2.3.39l-.35,0h0a6.68,6.68,0,0,1-1.45-4.67c.17-1.77,1-4.15,2.69-4.87C121.59,127.73,125.63,129.9,128.53,134.89Z"/><path class="cls-4" d="M129.92,107.16q.27-2.25.72-4.8l-.89.26-1.56.39c-1,.23-2.13.5-3.42.75a61.92,61.92,0,0,1-13.3,1.25c-.77,0-1.53-.06-2.3-.12h0l-1.14-.1H108a27.64,27.64,0,0,1-14.64-5.53,20.59,20.59,0,0,1-3.38-3.41A27.12,27.12,0,0,1,84.77,84a0,0,0,1,0,0,0c0,4-5.18,29.12,1.52,43.78a4.06,4.06,0,0,0,.26.36,12.07,12.07,0,0,0,2.12,2.11c3.49,2.81,9.51,5.57,16.27,7h0l1,.21c.94.18,1.88.32,2.83.44l.91.11a40,40,0,0,0,7.34.1,30.27,30.27,0,0,0,3.44-.47A23.54,23.54,0,0,0,134.31,130a0,0,0,0,0,0,0C133.51,130.07,127.64,125.49,129.92,107.16Z"/><ellipse class="cls-16" cx="78.21" cy="54.49" rx="7.02" ry="3.51" transform="translate(-4.49 101.88) rotate(-64.68)"/><ellipse class="cls-16" cx="72.68" cy="77.62" rx="10.91" ry="5.61" transform="translate(-25.14 119.33) rotate(-69.98)"/><path class="cls-11" d="M80,85c.8-1.85,2.84-4,4.84-3.59a7.11,7.11,0,0,1,2,1.36,12.28,12.28,0,0,1,1.6,1.7c-.71-.34-1.37-.73-2-1.12a19.14,19.14,0,0,0-1.83-1c-1.4-.19-3.26,1.58-4.57,2.65Z"/><path class="cls-11" d="M93.59,95.31a41.54,41.54,0,0,0,39.23,2.45A45.42,45.42,0,0,0,138,95c-12.59,9.91-31.69,10.09-44.42.33Z"/><path class="cls-11" d="M80,117.15c.17,2.11.44,4.21.73,6.31.46,2.5.61,5.22,1.91,7.38a54.07,54.07,0,0,0,6.69,3.84,28.83,28.83,0,0,0,2.84,1.41,33.53,33.53,0,0,1-6-2.21,17.29,17.29,0,0,1-4.32-2.43c-1.53-2.35-1.63-5.27-1.9-7.91a36.85,36.85,0,0,1,0-6.39Z"/><rect x="117.47" y="141.51" width="9.68" height="37.82" rx="4.13" transform="translate(-49.44 54.61) rotate(-21.04)"/><path class="cls-3" d="M135,142l7.16-.9V154.9a19.92,19.92,0,0,1-8,2.79"/><path class="cls-17" d="M138,156.51a17.8,17.8,0,0,1-6.38,1.94l.81-15.9,5.56-.7Z"/><path class="cls-4" d="M134.49,142l7.16-.9,0,13.78a19.89,19.89,0,0,1-8,2.78"/><ellipse class="cls-18" cx="127.6" cy="157.96" rx="3.6" ry="2.57" transform="translate(-37.77 275.8) rotate(-86.54)"/><ellipse class="cls-18" cx="74.1" cy="143.25" rx="2.95" ry="3.87" transform="translate(-73.36 208.58) rotate(-86.54)"/><path class="cls-19" d="M92.24,180.23S118.09,149.84,182,164.6c0,0-12.41,4.32-12.52,4.61S118.5,186.5,92.24,180.23Z"/><path class="cls-3" d="M59.1,139.29A43.77,43.77,0,0,0,67.59,155a42.28,42.28,0,0,0,6.26,6,55.15,55.15,0,0,0,29.46.21,52.1,52.1,0,0,0,8.8-3.34c.76-.37,1.49-.74,2.17-1.12,5.17,1,7.13,2.82,7.92,4.39.12.25.27.59.47,1a4.25,4.25,0,0,0,1.82,1.88,3.54,3.54,0,0,0,2.62.16c1.5-.69,2.34-3.22,1.4-6h0a2.45,2.45,0,0,0,1.79-.14c.63-.35,1-1.06,1.22-2.41a15.55,15.55,0,0,0-.5-6.71,5.78,5.78,0,0,0,3.51-2.95c1.24-3.1-1.73-7.33-5-8.49a7.72,7.72,0,0,0-5.11.2,22.72,22.72,0,0,0-5.34,3c-1.89,1.32-2.54,2.27-6.34,5.22l-.68.53c-1.69,1.29-2.54,1.94-3.25,2.37-3.4,2.06-6.6,2.39-10.43,2.79a39.55,39.55,0,0,1-13.69-.91c-1.48-.38-2.69-.78-3.57-1.09-2.62-6.47-4.56-11.62-5.8-15-2.44-6.64-3.8-10.82-7.23-11.8a6.66,6.66,0,0,0-4.22.34"/><path class="cls-3" d="M59.1,139.29A43.77,43.77,0,0,0,67.59,155a42.28,42.28,0,0,0,6.26,6,55.15,55.15,0,0,0,29.46.21,52.1,52.1,0,0,0,8.8-3.34c.76-.37,1.49-.74,2.17-1.12,5.17,1,7.13,2.82,7.92,4.39.12.25.27.59.47,1a4.25,4.25,0,0,0,1.82,1.88,3.54,3.54,0,0,0,2.62.16c1.5-.69,2.34-3.22,1.4-6h0a2.45,2.45,0,0,0,1.79-.14c.63-.35,1-1.06,1.22-2.41a15.55,15.55,0,0,0-.5-6.71,5.78,5.78,0,0,0,3.51-2.95c1.24-3.1-1.73-7.33-5-8.49a7.72,7.72,0,0,0-5.11.2,22.72,22.72,0,0,0-5.34,3c-1.89,1.32-2.54,2.27-6.34,5.22l-.68.53c-1.69,1.29-2.54,1.94-3.25,2.37-3.4,2.06-6.6,2.39-10.43,2.79a39.55,39.55,0,0,1-13.69-.91c-1.48-.38-2.69-.78-3.57-1.09-2.62-6.47-4.56-11.62-5.8-15-2.44-6.64-3.8-10.82-7.23-11.8a6.66,6.66,0,0,0-4.22.34"/><path class="cls-3" d="M131.41,149s-2.67-4.17-6.61-5.21"/><path class="cls-3" d="M129,158.62s-2.67-4.18-6.61-5.21"/><polyline class="cls-17" points="113.48 156.38 113.53 156.53 113.56 156.85"/><path class="cls-17" d="M58.19,143.56l0-.07"/><path class="cls-17" d="M113.76,159.69c-.68.39-1.4.79-2.14,1.17a52.83,52.83,0,0,1-8.72,3.56,55.23,55.23,0,0,1-29.46.5A43,43,0,0,1,67,159a44,44,0,0,1-8.84-15.48s-.14-3.39.69-4a43.1,43.1,0,0,0,14.68,21,56.35,56.35,0,0,0,29.77.23,53.21,53.21,0,0,0,8.89-3.35c.46-.21.9-.44,1.33-.66Z"/><path class="cls-17" d="M58.88,139.58c.19-.14.43-.13.74.11"/><path class="cls-20" d="M123.29,174.57a8.28,8.28,0,0,1-4.86,2.53,8.55,8.55,0,0,1-6.55-2c0-1.45,0-2.91,0-4.39q0-6.21.24-12.74c.76-.37,1.49-.74,2.17-1.12,5.17,1,7.13,2.82,7.92,4.39.12.25.27.59.47,1,0,1.23,0,2.46.08,3.65C122.85,168.9,123,171.82,123.29,174.57Z"/><path class="cls-20" d="M125.24,132.84c-.09.46-.17.92-.26,1.38-.2,1.13-.39,2.28-.57,3.46a22.72,22.72,0,0,0-5.34,3c-1.89,1.32-2.54,2.27-6.34,5.22q.42-6.31,1-12.32c.05-.47.09-.95.14-1.42.35-.26,4.15-3.06,8.21-1.56A7.76,7.76,0,0,1,125.24,132.84Z"/><path class="cls-21" d="M126.66,133.68a2.43,2.43,0,0,1-1.68.54c.08-.46.17-.93.25-1.38a7.56,7.56,0,0,0-3.14-2.25c-4.07-1.51-7.87,1.3-8.21,1.56,0,.47-.09.94-.14,1.42a2.24,2.24,0,0,1-1.17-.92,2.38,2.38,0,0,1-.32-1.7c.14-.19,3.69-4.33,8.91-3.45a9.74,9.74,0,0,1,6.4,4.37A2.48,2.48,0,0,1,126.66,133.68Z"/><path class="cls-21" d="M149.9,126.62a7.78,7.78,0,0,1-13.55,3.65,9.24,9.24,0,0,1,4.89-4.79C145.66,123.72,149.6,126.4,149.9,126.62Z"/><path class="cls-20" d="M143.32,139c-.9,1.48-.84,3.05-.08,3.7a1.47,1.47,0,0,0,.54.28A12.45,12.45,0,0,0,142,144.5a54.56,54.56,0,0,0-5.61-14.23,7.78,7.78,0,0,0,13.55-3.65c.86,2.14,1.69,4.48,2.45,7A12.51,12.51,0,0,0,143.32,139Z"/><path class="cls-3" d="M163.34,147a3.49,3.49,0,0,1-2,.37,4.49,4.49,0,0,1-1,4.47,3.66,3.66,0,0,1-1.82.87c.08.13.14.25.19.35a4,4,0,0,1-.51,4.54,3.12,3.12,0,0,1-1.72.76l-.51-.29a12.52,12.52,0,0,0-2-.87,10.88,10.88,0,0,0-5.39-.53c-2.18.4-3.06,1.41-5.17,1.53H143a2.48,2.48,0,0,1-1.58-.45,3,3,0,0,1-.91-2.32,4.56,4.56,0,0,1,1.12-2.73,2.3,2.3,0,0,1-1.82.1c-.91-.43-1.36-1.93-.87-3.59a12.75,12.75,0,0,1,4.85-6.21,1.47,1.47,0,0,1-.54-.28c-.76-.65-.82-2.22.08-3.7a12.51,12.51,0,0,1,9-5.38,12,12,0,0,1,3.05.06,12.5,12.5,0,0,1,9.94,8.14C165.72,144.11,164.9,146.18,163.34,147Z"/><path class="cls-4" d="M163.53,147a3.66,3.66,0,0,1-2,.37,4.47,4.47,0,0,1-1,4.46,3.49,3.49,0,0,1-1.82.87c.08.14.14.26.19.36a4,4,0,0,1-.51,4.53,3.12,3.12,0,0,1-1.72.76l-.51-.29a12.52,12.52,0,0,0-2-.87,11,11,0,0,0-5.39-.53c-2.18.4-3.06,1.41-5.17,1.53h-.4a2.47,2.47,0,0,1-1.58-.44,3,3,0,0,1-.91-2.33,4.51,4.51,0,0,1,1.12-2.72,2.39,2.39,0,0,1-1.82.1c-.91-.44-1.36-1.93-.87-3.6a12.41,12.41,0,0,1,3-4.72A11.77,11.77,0,0,1,144,143a1.66,1.66,0,0,1-.54-.29c-.76-.65-.82-2.22.08-3.7a12.58,12.58,0,0,1,9-5.38,13,13,0,0,1,3.05.06,12.52,12.52,0,0,1,9.94,8.14C165.91,144.07,165.09,146.14,163.53,147Z"/><path class="cls-20" d="M155.46,167.3a9.1,9.1,0,0,1-12.92-.78c.28-1.59.54-3.43.7-5.5.07-.9.13-1.84.15-2.82,2.11-.12,3-1.13,5.17-1.53a10.82,10.82,0,0,1,5.38.53,12.28,12.28,0,0,1,2,.87c0,1,0,2,0,3C155.82,163.29,155.66,165.39,155.46,167.3Z"/><path class="cls-11" d="M143.78,143c5.88-2.13,14.06-1.49,17.53,4.36-4.5-4.74-11.41-5-17.53-4.36Z"/><path class="cls-11" d="M141.62,152.71c4.68-3.86,12.47-4.7,16.88,0-5.16-3.37-11.55-2.5-16.88,0Z"/><ellipse class="cls-21" cx="132.94" cy="167.62" rx="1.02" ry="2.18" transform="translate(-42.4 290.21) rotate(-86.54)"/><ellipse class="cls-21" cx="139.55" cy="170.8" rx="1.02" ry="2.18" transform="translate(-39.36 299.79) rotate(-86.54)"/><ellipse class="cls-21" cx="145.45" cy="173.98" rx="1.02" ry="2.18" transform="translate(-36.99 308.67) rotate(-86.54)"/><ellipse class="cls-21" cx="160.21" cy="165.57" rx="1.02" ry="2.18" transform="translate(-14.73 315.5) rotate(-86.54)"/><ellipse class="cls-21" cx="166.18" cy="166.95" rx="1.02" ry="2.18" transform="translate(-10.5 322.76) rotate(-86.54)"/><ellipse class="cls-21" cx="171.1" cy="168.23" rx="1.02" ry="2.18" transform="translate(-7.15 328.87) rotate(-86.54)"/><ellipse class="cls-21" cx="126.84" cy="170.45" rx="1.02" ry="2.18" transform="translate(-50.95 286.78) rotate(-86.54)"/><ellipse class="cls-21" cx="133.45" cy="173.63" rx="1.02" ry="2.18" transform="translate(-47.91 296.36) rotate(-86.54)"/><ellipse class="cls-21" cx="139.48" cy="176.22" rx="1.02" ry="2.18" transform="translate(-44.84 304.81) rotate(-86.54)"/><path class="cls-4" d="M59.1,139.29A43.77,43.77,0,0,0,67.59,155a42.28,42.28,0,0,0,6.26,6,55.15,55.15,0,0,0,29.46.21,52.1,52.1,0,0,0,8.8-3.34c.76-.37,1.49-.74,2.17-1.12,5.17,1,7.13,2.82,7.92,4.39.12.25.27.59.47,1a4.25,4.25,0,0,0,1.82,1.88,3.54,3.54,0,0,0,2.62.16c1.5-.69,2.34-3.22,1.4-6h0a2.45,2.45,0,0,0,1.79-.14c.63-.35,1-1.06,1.22-2.41a15.55,15.55,0,0,0-.5-6.71,5.78,5.78,0,0,0,3.51-2.95c1.24-3.1-1.73-7.33-5-8.49a7.72,7.72,0,0,0-5.11.2,22.72,22.72,0,0,0-5.34,3c-1.89,1.32-2.54,2.27-6.34,5.22l-.68.53c-1.69,1.29-2.54,1.94-3.25,2.37-3.4,2.06-6.6,2.39-10.43,2.79a39.55,39.55,0,0,1-13.69-.91c-1.48-.38-2.69-.78-3.57-1.09-2.62-6.47-4.56-11.62-5.8-15-2.44-6.64-3.8-10.82-7.23-11.8a6.66,6.66,0,0,0-4.22.34"/><path class="cls-4" d="M59.1,139.29A43.77,43.77,0,0,0,67.59,155a42.28,42.28,0,0,0,6.26,6,55.15,55.15,0,0,0,29.46.21,52.1,52.1,0,0,0,8.8-3.34c.76-.37,1.49-.74,2.17-1.12,5.17,1,7.13,2.82,7.92,4.39.12.25.27.59.47,1a4.25,4.25,0,0,0,1.82,1.88,3.54,3.54,0,0,0,2.62.16c1.5-.69,2.34-3.22,1.4-6h0a2.45,2.45,0,0,0,1.79-.14c.63-.35,1-1.06,1.22-2.41a15.55,15.55,0,0,0-.5-6.71,5.78,5.78,0,0,0,3.51-2.95c1.24-3.1-1.73-7.33-5-8.49a7.72,7.72,0,0,0-5.11.2,22.72,22.72,0,0,0-5.34,3c-1.89,1.32-2.54,2.27-6.34,5.22l-.68.53c-1.69,1.29-2.54,1.94-3.25,2.37-3.4,2.06-6.6,2.39-10.43,2.79a39.55,39.55,0,0,1-13.69-.91c-1.48-.38-2.69-.78-3.57-1.09-2.62-6.47-4.56-11.62-5.8-15-2.44-6.64-3.8-10.82-7.23-11.8a6.66,6.66,0,0,0-4.22.34"/><path class="cls-4" d="M131.41,149s-2.67-4.17-6.61-5.21"/><path class="cls-4" d="M129,158.62s-2.67-4.18-6.61-5.21"/><path class="cls-3" d="M124.67,38.06c4.56-10.36-2.79-20.14-3-19.94-3.63,4.3-10.9,6.36-15.19,3.14C103,16.4,113.4,3.51,121.89,12c13.1,14.82,5.86,26.89,5.86,26.89"/><path class="cls-4" d="M124.93,38c4.56-10.37-2.79-20.15-3-19.95-3.63,4.31-10.91,6.37-15.19,3.15-3.49-4.87,6.93-17.76,15.42-9.32C135.25,26.68,128,38.75,128,38.75"/><path class="cls-3" d="M95.64,34.25c.21-1-1.07-19-18.06-19.42C70.78,16,70.38,31,82.65,24.72c3.69-2.58,3.22-3.21,3.22-3.21s11.71,6,5.15,15.05"/><path class="cls-4" d="M95.49,34.3c.21-1-1.07-19-18.06-19.42-6.8,1.17-7.2,16.17,5.07,9.9,3.68-2.58,3.21-3.22,3.21-3.22s11.71,6,5.15,15.06"/><path class="cls-3" d="M100.88,33c.29-.77,2.78-5-1.66-7.72.13,0,6.78.83,5.78,7.7.14-.25,4.27-6.94-2.63-10.21,0,.13,7.61-1,6.35,10.35a7.07,7.07,0,0,0,3.33-7.44c.25.27,3.8,3.22,2,9.19"/><path class="cls-4" d="M101,33.2c.29-.77,2.78-5-1.67-7.72.13,0,6.78.83,5.79,7.7.14-.25,4.27-6.94-2.63-10.21,0,.13,7.61-1,6.35,10.35a7,7,0,0,0,3.32-7.43c.25.26,3.81,3.21,2,9.18"/><ellipse class="cls-22" cx="77.31" cy="21.46" rx="2.11" ry="4.31" transform="translate(0.72 45.36) rotate(-32.85)"/><ellipse class="cls-22" cx="111.39" cy="19.4" rx="2.11" ry="4.31" transform="translate(62.86 121.52) rotate(-74.46)"/></g></svg>