<svg id="Layer_1" data-name="Layer 1" xmlns="http://www.w3.org/2000/svg" viewBox="0 0 74.99 104.68"><defs><style>.cls-1{fill:#de195a;}.cls-2{fill:#cd1d5d;}.cls-3{fill:#ee4984;}</style></defs><path class="cls-1" d="M66,87.22c-.23-.7-.43-1.39-.67-2.09-.85-2.53-2.15-5.11-6.93-8.21-.18-.11,4.88,5.89,3.18,9a3.83,3.83,0,0,1-.28.42c-2.47,2.92-3.74-1.6-4.75-1.7-1.24-.11-1.67,0-2.46-.66a1.9,1.9,0,0,1-.37-.38h0a4.22,4.22,0,0,1-.7-2.2c-.56-5.58.13-7.73-1-9.74a5.52,5.52,0,0,0-2.43-2.24,15.88,15.88,0,0,0-1.47-.66c-1.43-.6-3.15-1.41-5.08-2.39-2.57-1.29-5.5-2.86-8.57-4.56-3.35-1.86-6.87-3.88-10.27-5.87-1.69-1-3.34-1.95-4.93-2.89-2.7-1.6-5.21-3.11-7.37-4.42L9.29,47c-3-1.8-4.81-3-4.81-3l2.1-17,14.2,11.14L30,45.42l3.93,3.09L43,55.69l6.87,5.38,5.3,4.16,1.31,1S69.85,76.8,73,86C74.46,90.45,69.25,92,66,87.22Z"/><path class="cls-2" d="M65.29,85.13c-.46,1.33-2.11,1.74-3.75.77,1.7-3.09-3.36-9.09-3.18-9C63.15,80,64.44,82.6,65.29,85.13Z"/><path class="cls-3" d="M30,45.42,19.25,53c-2.7-1.6-5.21-3.11-7.37-4.42L9.29,47c3.24-2.6,7.58-5.89,11.49-8.8Z"/><path class="cls-3" d="M43,55.69l-8.58,6.09c-3.35-1.86-6.87-3.88-10.27-5.87,2.89-2.28,6.42-5,9.7-7.4Z"/><path class="cls-3" d="M55.2,65.23l-5.63,4.16a15.88,15.88,0,0,0-1.47-.66c-1.43-.6-3.15-1.41-5.08-2.39,2.27-1.76,4.69-3.61,6.88-5.27Z"/></svg>