<svg id="Layer_1" data-name="Layer 1" xmlns="http://www.w3.org/2000/svg" viewBox="0 0 65.85 61.89"><defs><style>.cls-1{fill:#f9f2f2;}.cls-2{fill:#683c3c;}.cls-3{fill:#30252b;}.cls-4{fill:#fff;}.cls-5{fill:#dc0604;}</style></defs><ellipse class="cls-1" cx="28.32" cy="33.82" rx="5.64" ry="6.79" transform="translate(-12.63 17.42) rotate(-28.23)"/><path class="cls-2" d="M33.34,31.13c2.91,5-.64,11.78-6.85,9.4-5.19-1.92-7-10.42-1.6-13.11,3.33-1.5,6.92.78,8.45,3.71Zm-.09,0c-4.47-7.67-13.78-2.69-9.82,5.27,4.45,7.7,13.75,2.7,9.82-5.27Z"/><ellipse class="cls-3" cx="27.2" cy="33.93" rx="3.68" ry="4.75" transform="translate(-12.34 15.83) rotate(-26.69)"/><ellipse class="cls-4" cx="28.31" cy="31.56" rx="1.25" ry="1.61" transform="translate(-11.16 16.08) rotate(-26.69)"/><ellipse class="cls-1" cx="43.15" cy="29.94" rx="5.64" ry="6.79" transform="translate(-9.03 23.97) rotate(-28.23)"/><path class="cls-2" d="M48.17,27.25c2.92,5-.64,11.79-6.85,9.4-5.19-1.92-7-10.42-1.6-13.11,3.33-1.5,6.92.79,8.45,3.71Zm-.09,0c-4.47-7.67-13.78-2.69-9.81,5.27,4.45,7.71,13.74,2.7,9.81-5.27Z"/><ellipse class="cls-3" cx="42.03" cy="30.05" rx="3.68" ry="4.75" transform="translate(-9.02 22.08) rotate(-26.69)"/><ellipse class="cls-4" cx="43.14" cy="27.68" rx="1.25" ry="1.61" transform="translate(-7.84 22.32) rotate(-26.69)"/><path class="cls-5" d="M23.32,23.29A4.77,4.77,0,0,1,26,22a.71.71,0,0,1,.92.57,2.09,2.09,0,0,1,.07.93,2,2,0,0,1-.89,1.17c-.42.27-.9.45-1.35.68a6.42,6.42,0,0,0-1.59,1.16A3.08,3.08,0,0,1,22,27.4c-.35.11-1,0-1.07-.44s.32-.94.49-1.24A9.71,9.71,0,0,1,23.32,23.29Z"/><path class="cls-5" d="M38.9,19.8a5.19,5.19,0,0,0-3,.85,1,1,0,0,0-.47.71.83.83,0,0,0,.11.37,2,2,0,0,0,.55.75,1.93,1.93,0,0,0,1.48.25,12,12,0,0,0,1.53-.43,6.8,6.8,0,0,1,2-.23A3.38,3.38,0,0,0,42.69,22c.35-.17.76-.7.58-1.08s-.88-.49-1.21-.6A10.17,10.17,0,0,0,38.9,19.8Z"/></svg>