<svg id="Layer_1" data-name="Layer 1" xmlns="http://www.w3.org/2000/svg" viewBox="0 0 115.97 128.1"><defs><style>.cls-1{fill:#ffa4c2;}.cls-1,.cls-4{stroke:#563b35;}.cls-1,.cls-2,.cls-3,.cls-4,.cls-5{stroke-miterlimit:10;}.cls-2{fill:#fbd3c7;stroke:#453323;}.cls-3{fill:#153c89;stroke:#1c688e;}.cls-3,.cls-5{stroke-width:0.5px;}.cls-4{fill:#ff85b4;}.cls-5{fill:#f4e8df;stroke:#3a3213;}</style></defs><path class="cls-1" d="M92.8,102.52s-70,16.69-78.19,5.15,10.3-18.78,26.06-25.44c.35-.14.66-.28,1-.45C51.39,77.56,57.26,73,60.18,70.31A7.62,7.62,0,0,0,62.68,65c.28-6,.21-14.87,0-23.62v0c-.34-14.45-1.07-28.53-1.07-28.53l33.93,1.54s-.45,12.57-.69,27.44c-.2,12-.27,25.48.11,35.09a83.41,83.41,0,0,0,.89,10.48C98.26,100.39,92.8,102.52,92.8,102.52Z"/><path class="cls-2" d="M95.51,14.37s-.45,12.57-.69,27.44C78,48,68.21,45.42,62.65,41.4v0c-.34-14.45-1.07-28.53-1.07-28.53Z"/><path class="cls-3" d="M97.12,97.31c-.8,5.2-3.53,6.27-3.53,6.27S21.47,120.87,13,108.93a14,14,0,0,1-.85-1.39c-6.08-11.13,12.11-18.36,27.71-25,.36-.15.67-.29,1-.47,1,3.2,3.57,6.4,9.58,7.68C63.39,92.48,90.08,85.65,95.77,77a86.3,86.3,0,0,0,.92,10.85A28.19,28.19,0,0,1,97.12,97.31Z"/><path class="cls-4" d="M61.89,33.45s1.51,4.24,16,4.24,17.88-3,17.88-3,3,9.09-1.52,12.73c0,0-12.42,5.45-31.51-.31C62.79,47.08,59.46,43.14,61.89,33.45Z"/><path class="cls-5" d="M41.28,85S28,83.44,37,76.47,46.43,80.41,41.28,85Z"/><path class="cls-5" d="M40.16,84.13S38,97.36,47.05,90.5,45.88,80.4,40.16,84.13Z"/><path class="cls-5" d="M97.12,97.31c-.8,5.2-3.53,6.27-3.53,6.27S21.47,120.87,13,108.93a14,14,0,0,1-.85-1.39c4.16,1.26,11,2.32,21.87,1.75C54.45,108.24,89.65,103.59,97.12,97.31Z"/></svg>