<svg id="Layer_1" data-name="Layer 1" xmlns="http://www.w3.org/2000/svg" viewBox="0 0 120.99 77.65"><defs><style>.cls-1,.cls-3{fill:#fff;}.cls-1{stroke:#3d2d16;stroke-miterlimit:10;stroke-width:0.75px;}.cls-2{fill:#3d2d16;}</style></defs><ellipse class="cls-1" cx="28.21" cy="44.17" rx="13.01" ry="13.77"/><ellipse class="cls-2" cx="28.02" cy="44.02" rx="8.71" ry="9.21"/><ellipse class="cls-3" cx="23.95" cy="36.61" rx="2.39" ry="2.53"/><ellipse class="cls-1" cx="90.21" cy="46.66" rx="13.01" ry="13.77"/><ellipse class="cls-2" cx="89.89" cy="46.65" rx="8.57" ry="9.07"/><ellipse class="cls-3" cx="85.96" cy="39.09" rx="2.39" ry="2.53"/><path class="cls-2" d="M85.81,18.78s13-2.21,19.18,6.41c.25.34.83.18.8-.22-.2-2.62-1.61-8-9.67-9.58C83.42,12.91,85.81,18.78,85.81,18.78Z"/><path class="cls-2" d="M36.24,13.48s-13-2.21-19.17,6.41c-.25.34-.84.18-.81-.22.2-2.62,1.62-8,9.68-9.58C38.64,7.61,36.24,13.48,36.24,13.48Z"/></svg>