<svg id="Layer_1" data-name="Layer 1" xmlns="http://www.w3.org/2000/svg" viewBox="0 0 47 31.29"><defs><style>.cls-1{fill:#66441c;}.cls-2{fill:#fff;}.cls-3{fill:#30200f;}.cls-4{fill:#efdece;}</style></defs><path class="cls-1" d="M10.26,5.2c-.33.12-5.41,3.91-4.71,7.6,0,0,2.87-5.48,6.08-6.1Z"/><path class="cls-1" d="M31.7,2.63c.34,0,6.36,2,6.83,5.77,0,0-4.42-4.33-7.67-3.92Z"/><ellipse class="cls-2" cx="13.22" cy="18.84" rx="6.45" ry="7.89" transform="translate(-3.8 3.35) rotate(-12.64)"/><path class="cls-1" d="M19.52,17.43c1.6,6.3-4.16,12.58-10.08,7.94-4.68-3.62-4.42-13,2-14.47,4-.73,7.32,2.89,8.08,6.53Zm0,0c-.72-3.55-4.19-7-8-6-7.56,2.33-4.49,16,3.34,14.9,3.84-.73,5.5-5.35,4.63-8.86Z"/><ellipse class="cls-2" cx="33.7" cy="16.74" rx="6.45" ry="7.89"/><path class="cls-1" d="M27.25,16.74c-.08,3.62,2.55,7.76,6.45,7.64,7.9-.63,7.89-14.66,0-15.28-3.9-.13-6.53,4-6.45,7.64Zm0,0c-.18-6.5,6.81-11.38,11.58-5.55,3.76,4.56,1.45,13.66-5.13,13.68-4.09-.17-6.5-4.42-6.45-8.13Z"/><ellipse class="cls-3" cx="32.89" cy="19.28" rx="3.86" ry="4.45"/><ellipse class="cls-4" cx="31.56" cy="17.54" rx="1.54" ry="1.78"/><ellipse class="cls-3" cx="14.91" cy="20.81" rx="3.86" ry="4.45"/><ellipse class="cls-4" cx="13.57" cy="19.07" rx="1.54" ry="1.78"/></svg>