<svg id="Layer_1" data-name="Layer 1" xmlns="http://www.w3.org/2000/svg" viewBox="0 0 222.75 211.25"><defs><style>.cls-1{opacity:0.3;}.cls-2{fill:#d10409;stroke:#a30814;}.cls-2,.cls-3,.cls-4,.cls-7{stroke-miterlimit:10;}.cls-3{fill:#c34804;stroke:#7c320d;}.cls-4{fill:#fcf200;stroke:#a89c0b;}.cls-5{fill:#fec119;}.cls-6{fill:#f2a905;}.cls-7{fill:#ff7e2a;stroke:#af440e;}.cls-8{fill:#ff631e;}.cls-9{fill:#ffe632;}.cls-10{fill:#ffd713;}.cls-11{fill:#fd1441;}.cls-12{fill:#dc0604;}.cls-13{fill:#fb6010;}.cls-14{fill:#fde664;}.cls-15{fill:#febe42;}.cls-16{fill:#f9f2f2;}.cls-17{fill:#683c3c;}.cls-18{fill:#30252b;}.cls-19{fill:#fff;}.cls-20{fill:#8c0606;}</style></defs><ellipse class="cls-1" cx="101.4" cy="181.64" rx="38.3" ry="12.61"/><path class="cls-2" d="M207.23,110.18c3.21-1.26,6-3.89,6.23-7.05a1.78,1.78,0,0,0-.63-1.69,2.5,2.5,0,0,0-1.36-.25,16.35,16.35,0,0,0-5.11,1,40,40,0,0,1,2.46-4.84c.77-1.63,1.14-3.59.15-5.12s-3.77-2.08-4.93-.65c-.35.44-.53,1-1,1.3a1.76,1.76,0,0,1-2.16-.63,4.09,4.09,0,0,1-.54-2.2A11.68,11.68,0,0,0,199.26,85a5.25,5.25,0,0,0-4.41-2.89c-1.91,0-3.79,1.67-3.31,3.34-.41,1.1-2.39.75-3.09-.22S187.68,83,187,82a4,4,0,0,0-5-.78,3.5,3.5,0,0,0-1.28,4.52c-2-1.34-4.13-2.74-6.61-2.91s-5.29,1.47-5.15,3.71c.09,1.51,1.46,2.74,3,3.35a22.57,22.57,0,0,0,4.89,1c7.89,1.21,11.31,5.08,15.47,11.25.9,1.34.41,3.52.44,5.11a5.28,5.28,0,0,0,1.78,3.34C196.34,112.59,205.21,111,207.23,110.18Z"/><path class="cls-3" d="M89.73,149.39s-3.67,3-5.11,25.58c0,0-6.45.12-6.56.89s6.45,1.89,6.45,1.89S89,186.65,90.62,188s2.9.11-2-7.68c0,0,3.23,1.45,7.12,3.67,0,0,3.11.45-3.56-5,0,0,.89-1,6.12.55,0,0,5.89-1.44-10.46-4.22a43.76,43.76,0,0,1,5.68-23.14C100.19,140.39,89.73,149.39,89.73,149.39Z"/><path class="cls-3" d="M108,147.12s-3.06,3.63-.3,26.08c0,0-6.32,1.31-6.29,2.09s6.69.67,6.69.67,6,7.92,7.91,8.92,2.86-.42-3.39-7.17c0,0,3.44.82,7.67,2.29,0,0,3.15-.14-4.42-4.26,0,0,.69-1.15,6.11-.58,0,0,5.53-2.51-11-2.22a43.79,43.79,0,0,1,1.3-23.79C116.6,136.33,108,147.12,108,147.12Z"/><path class="cls-4" d="M54.18,38.31s.19-13-4.36-17.17-5,3.59-4.3,6.48c0,0-5.76-10.63-11.28-8.55S37.7,33.78,37.7,33.78s-10.91-7.9-14-2.87,3.44,9.49,8.45,12.41c0,0-11.61-3.83-12.43,2S31.82,51.9,31.82,51.9s-4.94,1-3.42,3.74,6.83,3.19,10.8.22S54.18,38.31,54.18,38.31Z"/><path class="cls-5" d="M53.47,38v-.28c0-1.37-.12-7.44-2.55-10.36-2.76-3.29-4.51.35-3.35,4.45,0,0-4.68-6.83-8.5-5.5s2,10.67,2,10.67S33,31.6,30.61,35.21,37,44.42,37,44.42s-7.22-2-10.29,1.85,10.86,4.94,10.86,4.94-5.85.78-5.79,3.5,5.22,3.59,7.9,1S53.47,38,53.47,38Z"/><path class="cls-6" d="M53.19,37.39s-2.43-9.22-4.48-1.91c0,0-3.77-4-4.68-.17s.84,5.36.84,5.36-4.76-2.48-7.47-.41c0,0-1.32,2.59,3.69,5.11a8.19,8.19,0,0,0-5.34,1.8c-2.24,2,4,4.1,4,4.1s-4.81.41-3.54,2.72a3.18,3.18,0,0,0,3.55,1.69S41.79,40.9,53.19,37.39Z"/><path class="cls-7" d="M156.15,130.48a67.29,67.29,0,0,1-5.26,6.23,61.09,61.09,0,0,1-9.84,8.36,59.19,59.19,0,0,1-25.36,9.66c-39.55,5.59-71.37-15.66-77.43-76.53l.12-1.59s-1.25-22.25,8.71-37.27a4.22,4.22,0,0,1,.49-.59c1.52-1.55,6.64-5,16.64,5C74,53.39,85,65.2,111,77.44c1.74.82,22,7.13,19,18.79-1,4,37.4,14.7,33.42,22.51A79.69,79.69,0,0,1,156.15,130.48Z"/><path class="cls-8" d="M141.31,144.68A59.13,59.13,0,0,1,116,154.33C76.4,159.92,44.58,138.68,38.52,77.8l.12-1.59S37.39,54,47.35,39a4,4,0,0,1,.5-.59c-3.51,11-12.64,47.87,9.81,78.9C81.7,150.49,121.21,150.13,141.31,144.68Z"/><path class="cls-9" d="M124.39,120.08c-1.44,4.11-7.35,23.77-45.18,7a49.54,49.54,0,0,1-16.92-14.38A38.33,38.33,0,0,1,55,94.74a7.85,7.85,0,0,1,.25-2.92c.58-1.89,2.3-3.56,7.17-1-.23-.23-4.54-4.73-1.39-7.09a4,4,0,0,1,5.55.21c-.42-.54-2.71-3.63-.3-5,1.54-.89,6,1.83,11.25,4.56,3.82,2,8.08,4,12,4.57,9.45,1.47,27,3.71,32.23,12.53a29.54,29.54,0,0,1,2.8,6.12A20.33,20.33,0,0,1,124.39,120.08Z"/><path class="cls-10" d="M124.39,120.08c-1.44,4.11-7.35,23.77-45.18,7a49.54,49.54,0,0,1-16.92-14.38,5.39,5.39,0,0,1,4.44-1.33c-1.44-1.25-3-2.89-2.66-4.77a3.79,3.79,0,0,1,2.73-2.69,11.24,11.24,0,0,1,4-.19,9.21,9.21,0,0,1-2.62-2.22,3.19,3.19,0,0,1-.43-3.25c.91-1.71,3.39-1.63,5.24-1.08-2.06-.86-2.41-4-.89-5.66a5.52,5.52,0,0,1,6.21-.92C76.45,89.51,75,85.77,76.76,84a2,2,0,0,1,.77-.47c3.82,2,8.08,4,12,4.57,9.45,1.47,27,3.71,32.23,12.53a29.54,29.54,0,0,1,2.8,6.12A20.33,20.33,0,0,1,124.39,120.08Z"/><path class="cls-11" d="M124.39,120.08c-1.44,4.11-7.35,23.77-45.18,7,0,0-21.34-10-24.21-32.32a7.85,7.85,0,0,1,.25-2.92c5.88,24.67,37.66,39.67,54.17,36.54,12.78-2.42,14.94-15.06,15.19-21.66A20.33,20.33,0,0,1,124.39,120.08Z"/><path class="cls-12" d="M187.88,95A5,5,0,0,0,185,94a1,1,0,0,0-.77.33.85.85,0,0,0-.11.35,1.86,1.86,0,0,0,0,.91,1.9,1.9,0,0,0,1.07,1,15,15,0,0,0,1.48.48,6.25,6.25,0,0,1,1.8.92,3.28,3.28,0,0,0,1.33.73c.37.06,1-.15,1.06-.56s-.45-.87-.67-1.14A9.65,9.65,0,0,0,187.88,95Z"/><path class="cls-7" d="M141.05,145.07a46,46,0,0,0,14.6-11.42c1.4-1.6,2.62-3.16,3.65-4.6l.12-.16a51.83,51.83,0,0,0,4.05-6.52c29.37,3.33,39.15-16.46,29.81-27.14-9.1-10.4-17.57-9.4-38.36-6.26h0l-1.67.26a30.28,30.28,0,0,1-7.52.08l-1.14-.13c-6.55-.82-14-3.16-21.18-6.09-1.3-.52-2.6-1.07-3.88-1.63A249.94,249.94,0,0,1,87.85,64.54l36,19.12"/><path class="cls-13" d="M159.47,122.14a52.39,52.39,0,0,1-4.06,6.53l-.11.16c-1,1.43-2.25,3-3.65,4.6-6.28-2.16-3.53-10-3.53-10C139.67,121,145,113.25,145,113.25c-9.79-2.89-3.78-11.79-3.78-11.79-9.57-6.9-.67-12.23-.67-12.23V89l1.15.13a30.26,30.26,0,0,0,7.52-.09l1.67-.25h0c20.8-3.14,29.26-4.15,38.37,6.26C198.62,105.69,188.83,125.48,159.47,122.14Z"/><path class="cls-14" d="M163.47,122.37a51.83,51.83,0,0,1-4.05,6.52l-.12.16a4.27,4.27,0,0,1-.27-2.94,7,7,0,0,1-6.75-1.63c-1.68-1.75-1.89-4.88-.13-6.56.52-.5,1.2-.88,1.51-1.52a4.2,4.2,0,0,1-5.32-2.62,5.67,5.67,0,0,1,1.95-6,5.16,5.16,0,0,1-5.61-3.83,5.06,5.06,0,0,1,3.53-5.77c-1.44.37-3.25-.58-4.21-1.56-1.59-1.63-1.38-2.56-.22-4.26.74-1.08,1.36-2.09,1.94-3.1a30.28,30.28,0,0,0,7.52-.08l1.67-.26h0c20.79-3.14,29.26-4.14,38.36,6.26C202.62,105.91,192.84,125.7,163.47,122.37Z"/><path class="cls-15" d="M163.47,122.37a51.83,51.83,0,0,1-4.05,6.52c-4.39-2.4-.28-6.85,1.52-8.53-.79.29-2.3.07-5-2.66-3.94-3.94,1.77-6.78,3.66-7.57-4.68,1.71-6.33-2-6.33-2-4.89-4.45,4-8.45,4-8.45s-7.56.22-6.45-5.12A8.27,8.27,0,0,1,154.91,89h0c20.79-3.14,29.26-4.14,38.36,6.26C202.62,105.91,192.84,125.7,163.47,122.37Z"/><ellipse class="cls-16" cx="183.27" cy="107.02" rx="6.64" ry="5.52" transform="translate(-27.47 132.16) rotate(-37.09)"/><path class="cls-17" d="M186.63,111.47c-4.43,3.58-11.51,1.16-10.14-5.21a8,8,0,0,1,7.89-6c6.53.47,6.91,7.85,2.25,11.18Zm-.06-.08c6.75-5.48.53-13.73-6.57-8.7-6.78,5.47-.54,13.69,6.57,8.7Z"/><ellipse class="cls-18" cx="184.16" cy="109.02" rx="4.65" ry="3.6" transform="translate(-29.06 127.37) rotate(-35.54)"/><ellipse class="cls-19" cx="185.45" cy="106.67" rx="1.58" ry="1.22" transform="translate(-27.46 127.69) rotate(-35.54)"/><path class="cls-12" d="M183.85,115.36s-3.32,3.8-1.67,10.17a13.18,13.18,0,0,0,6.91,8.59l-1.19-16.21Z"/><path class="cls-20" d="M185.3,117.59c.12.58-1.63,5,3.81,16.75,0,0,.21-10.58.72-11.34S185.3,117.59,185.3,117.59Z"/><path class="cls-12" d="M183.59,115.05s6.52.13,8.79,1.23,11.36,9.14,9.62,17.19c0,0-17.52-11-19.24-17.17Z"/><ellipse class="cls-20" cx="191.51" cy="117.44" rx="0.56" ry="1.14" transform="translate(-12.23 212.1) rotate(-56.44)"/><path class="cls-12" d="M183.1,92.06a4.65,4.65,0,0,1,2.88.35.87.87,0,0,1,.51.6.89.89,0,0,1-.07.36,2,2,0,0,1-.44.79,1.91,1.91,0,0,1-1.36.48,14.74,14.74,0,0,1-1.47-.18,6.19,6.19,0,0,0-1.92.09,3.05,3.05,0,0,1-1.46.12c-.34-.1-.77-.54-.64-.93s.77-.6,1.08-.75A9.41,9.41,0,0,1,183.1,92.06Z"/></svg>