<svg id="Layer_1" data-name="Layer 1" xmlns="http://www.w3.org/2000/svg" viewBox="0 0 118.96 87.53"><defs><style>.cls-1{fill:#bc7b18;}.cls-2{fill:#bc6b00;}.cls-3{fill:#fedcae;}.cls-3,.cls-4{stroke:#894f1a;}.cls-3,.cls-4,.cls-6{stroke-miterlimit:10;}.cls-4,.cls-6{fill:none;}.cls-5{fill:#894f1a;}.cls-6{stroke:#512e11;}</style></defs><path class="cls-1" d="M91.27,52.45h0a28.11,28.11,0,0,1-4,14.63,24.63,24.63,0,0,1-1.59,2.27,25.69,25.69,0,0,1-5.25,4.94l-1,.73c-2.64-.21-4.52,0-8.46-1.63A16.52,16.52,0,0,1,60.69,58.66c-.19-4-.34-7.7-3-11.14a13.24,13.24,0,0,0-1.09-1.23A15.11,15.11,0,0,0,53,43.68c.66.65,5.42,5.45,4.61,12.17-.74,6.23-5.73,9.55-7.31,10.61-6.76,4.51-16.4,4.15-22.63.45C16.78,60.46,13.1,42,19.15,27.47a34.62,34.62,0,0,1,2.93-5.55c7.74-11.79,22.61-17.46,35.49-15C71.07,9.44,78.8,20.23,79.82,21.66c7.82,10.92,5.74,21.17,10,28.68A15.23,15.23,0,0,0,91.27,52.45Z"/><path class="cls-2" d="M100.12,70.48A33.69,33.69,0,0,1,71,73.39,26,26,0,0,0,86.32,65C92.43,58.07,91,54.22,91,52.22c.7.87,3,.93,4.26.42a28.88,28.88,0,0,0,2.09,11.91A32.58,32.58,0,0,0,100.12,70.48Z"/><path class="cls-3" d="M89.14,51c-.65.39-2.57-1.75-3.21-2.46C81,43,76.3,30,71.36,24c-8.1-9.76-23.63-8.72-26.42-8.53A38.88,38.88,0,0,0,19.26,28.1a33.73,33.73,0,0,1,2.91-5.55,35,35,0,0,1,35.08-15c13.35,2.55,21,13.34,22,14.77C87,33.21,84.92,43.46,89.14,51Z"/><path class="cls-4" d="M89.14,51c-.65.39-2.57-1.75-3.21-2.46C81,43,76.3,30,71.36,24c-8.1-9.76-23.63-8.72-26.42-8.53A38.88,38.88,0,0,0,19.26,28.1"/><path class="cls-5" d="M45.21,62.17c-7.78.24-15.95-4.55-18.13-12.35-2.17-7.6.28-16.55,6.62-21.47,9.24-7.74,24.9-5.74,31.8,4.17,6.1,8.6,5.14,20.33,11.48,28.73a16.3,16.3,0,0,0,9.74,5.83,16.16,16.16,0,0,1-10-5.59C70.08,53.23,70.83,41.56,64.78,33c-6.67-9.4-21.63-11.27-30.52-4a19.14,19.14,0,0,0-7.06,13c-1.65,11.2,7,19.9,18,20.09Z"/><path class="cls-5" d="M97.84,71.85c-11.57,5.92-29.46,6.21-36.06-7a20.25,20.25,0,0,1-2-10,12.3,12.3,0,0,0-3.94-8.56C49.93,40.29,35,42.38,38,53c1,4.33,9.17,4.91,9.14-.21-.09-2.49-3.3-3.09-5.07-1.82a4,4,0,0,1,3.22-.66c2.57.55,2.75,4.14.82,5.58a6,6,0,0,1-6.61.1c-3-2.09-3.18-6.54-1.56-9.56,3.72-6,13.9-5.34,18.56-.8a13,13,0,0,1,4.26,9.23,19.38,19.38,0,0,0,1.86,9.58C69,77.31,86.31,77.07,97.84,71.85Z"/><path class="cls-1" d="M91.27,52.45h0a28.11,28.11,0,0,1-4,14.63,24.63,24.63,0,0,1-1.59,2.27,25.69,25.69,0,0,1-5.25,4.94l-1,.73c-2.64-.21-4.52,0-8.46-1.63A16.52,16.52,0,0,1,60.69,58.66c-.19-4-.34-7.7-3-11.14a13.24,13.24,0,0,0-1.09-1.23A15.11,15.11,0,0,0,53,43.68c.66.65,5.42,5.45,4.61,12.17-.74,6.23-5.73,9.55-7.31,10.61-6.76,4.51-16.4,4.15-22.63.45C16.78,60.46,13.1,42,19.15,27.47a34.62,34.62,0,0,1,2.93-5.55c7.74-11.79,22.61-17.46,35.49-15C71.07,9.44,78.8,20.23,79.82,21.66c7.82,10.92,5.74,21.17,10,28.68A15.23,15.23,0,0,0,91.27,52.45Z"/><path class="cls-2" d="M100.12,70.48A33.69,33.69,0,0,1,71,73.39,26,26,0,0,0,86.32,65C92.43,58.07,91,54.22,91,52.22c.7.87,3,.93,4.26.42a28.88,28.88,0,0,0,2.09,11.91A32.58,32.58,0,0,0,100.12,70.48Z"/><path class="cls-3" d="M89.14,51c-.65.39-2.57-1.75-3.21-2.46C81,43,76.3,30,71.36,24c-8.1-9.76-23.63-8.72-26.42-8.53A38.88,38.88,0,0,0,19.26,28.1a33.73,33.73,0,0,1,2.91-5.55,35,35,0,0,1,35.08-15c13.35,2.55,21,13.34,22,14.77C87,33.21,84.92,43.46,89.14,51Z"/><path class="cls-4" d="M89.14,51c-.65.39-2.57-1.75-3.21-2.46C81,43,76.3,30,71.36,24c-8.1-9.76-23.63-8.72-26.42-8.53A38.88,38.88,0,0,0,19.26,28.1"/><path class="cls-5" d="M45.21,62.17c-7.78.24-15.95-4.55-18.13-12.35-2.17-7.6.28-16.55,6.62-21.47,9.24-7.74,24.9-5.74,31.8,4.17,6.1,8.6,5.14,20.33,11.48,28.73a16.3,16.3,0,0,0,9.74,5.83,16.16,16.16,0,0,1-10-5.59C70.08,53.23,70.83,41.56,64.78,33c-6.67-9.4-21.63-11.27-30.52-4a19.14,19.14,0,0,0-7.06,13c-1.65,11.2,7,19.9,18,20.09Z"/><path class="cls-5" d="M97.84,71.85c-11.57,5.92-29.46,6.21-36.06-7a20.25,20.25,0,0,1-2-10,12.3,12.3,0,0,0-3.94-8.56C49.93,40.29,35,42.38,38,53c1,4.33,9.17,4.91,9.14-.21-.09-2.49-3.3-3.09-5.07-1.82a4,4,0,0,1,3.22-.66c2.57.55,2.75,4.14.82,5.58a6,6,0,0,1-6.61.1c-3-2.09-3.18-6.54-1.56-9.56,3.72-6,13.9-5.34,18.56-.8a13,13,0,0,1,4.26,9.23,19.38,19.38,0,0,0,1.86,9.58C69,77.31,86.31,77.07,97.84,71.85Z"/><path class="cls-6" d="M97.36,64.55a28.88,28.88,0,0,1-2.09-11.91,5,5,0,0,1-4-.22,14.81,14.81,0,0,1-1.43-2.08c-4.26-7.51-2.18-17.76-10-28.68-1-1.43-8.75-12.22-22.25-14.77-12.88-2.43-27.75,3.24-35.49,15a34.62,34.62,0,0,0-2.93,5.55c-6,14.55-2.37,33,8.47,39.44,6.23,3.7,15.87,4.06,22.63-.45,1.58-1.06,6.57-4.38,7.31-10.61.81-6.72-4-11.52-4.61-12.17a15.11,15.11,0,0,1,3.61,2.61,13.24,13.24,0,0,1,1.09,1.23c2.7,3.44,2.85,7.13,3,11.14A16.52,16.52,0,0,0,71,73.39h0a40.51,40.51,0,0,0,4.93,1.37,33.53,33.53,0,0,0,11,.38,33.9,33.9,0,0,0,13.15-4.66A32.58,32.58,0,0,1,97.36,64.55Zm-6.24-9.12A9.25,9.25,0,0,1,91,56.54C91,56.15,91.09,55.78,91.12,55.43Z"/></svg>