<svg id="Layer_1" data-name="Layer 1" xmlns="http://www.w3.org/2000/svg" viewBox="0 0 87.78 51.84"><defs><style>.cls-1{fill:#fe4786;}.cls-2{fill:none;stroke:#ce1762;stroke-miterlimit:10;}</style></defs><path class="cls-1" d="M7.07,20.39a44,44,0,0,0,8.49,15.76,43.33,43.33,0,0,0,6.27,6,55.15,55.15,0,0,0,29.46.21A52.75,52.75,0,0,0,60.09,39c.75-.37,1.48-.74,2.17-1.12,5.16,1,7.12,2.82,7.91,4.39.13.25.28.59.47,1a4.25,4.25,0,0,0,1.82,1.88,3.49,3.49,0,0,0,2.62.16c1.51-.68,2.34-3.21,1.4-6l0,0a2.52,2.52,0,0,0,1.8-.14c.63-.36,1-1.07,1.21-2.42A15.46,15.46,0,0,0,79,30a5.77,5.77,0,0,0,3.5-3c1.24-3.1-1.73-7.34-5.05-8.5a7.69,7.69,0,0,0-5.1.2,23,23,0,0,0-5.35,3C65.16,23.09,64.5,24,60.7,27l-.68.53c-1.69,1.29-2.53,1.94-3.25,2.37-3.39,2.06-6.59,2.39-10.42,2.79a39.33,39.33,0,0,1-13.7-.91C31.18,31.4,30,31,29.09,30.68c-2.63-6.47-4.57-11.62-5.8-15-2.45-6.64-3.8-10.82-7.24-11.8a6.7,6.7,0,0,0-4.21.34"/><path class="cls-1" d="M7.07,20.39a44,44,0,0,0,8.49,15.76,43.33,43.33,0,0,0,6.27,6,55.15,55.15,0,0,0,29.46.21A52.75,52.75,0,0,0,60.09,39c.75-.37,1.48-.74,2.17-1.12,5.16,1,7.12,2.82,7.91,4.39.13.25.28.59.47,1a4.25,4.25,0,0,0,1.82,1.88,3.49,3.49,0,0,0,2.62.16c1.51-.68,2.34-3.21,1.4-6l0,0a2.52,2.52,0,0,0,1.8-.14c.63-.36,1-1.07,1.21-2.42A15.46,15.46,0,0,0,79,30a5.77,5.77,0,0,0,3.5-3c1.24-3.1-1.73-7.34-5.05-8.5a7.69,7.69,0,0,0-5.1.2,23,23,0,0,0-5.35,3C65.16,23.09,64.5,24,60.7,27l-.68.53c-1.69,1.29-2.53,1.94-3.25,2.37-3.39,2.06-6.59,2.39-10.42,2.79a39.33,39.33,0,0,1-13.7-.91C31.18,31.4,30,31,29.09,30.68c-2.63-6.47-4.57-11.62-5.8-15-2.45-6.64-3.8-10.82-7.24-11.8a6.7,6.7,0,0,0-4.21.34"/><path class="cls-1" d="M79.39,30.07s-2.68-4.17-6.61-5.21"/><path class="cls-1" d="M76.93,39.72s-2.68-4.17-6.61-5.21"/><path class="cls-2" d="M7.07,20.39a44,44,0,0,0,8.49,15.76,43.33,43.33,0,0,0,6.27,6,55.15,55.15,0,0,0,29.46.21A52.75,52.75,0,0,0,60.09,39c.75-.37,1.48-.74,2.17-1.12,5.16,1,7.12,2.82,7.91,4.39.13.25.28.59.47,1a4.25,4.25,0,0,0,1.82,1.88,3.49,3.49,0,0,0,2.62.16c1.51-.68,2.34-3.21,1.4-6l0,0a2.52,2.52,0,0,0,1.8-.14c.63-.36,1-1.07,1.21-2.42A15.46,15.46,0,0,0,79,30a5.77,5.77,0,0,0,3.5-3c1.24-3.1-1.73-7.34-5.05-8.5a7.69,7.69,0,0,0-5.1.2,23,23,0,0,0-5.35,3C65.16,23.09,64.5,24,60.7,27l-.68.53c-1.69,1.29-2.53,1.94-3.25,2.37-3.39,2.06-6.59,2.39-10.42,2.79a39.33,39.33,0,0,1-13.7-.91C31.18,31.4,30,31,29.09,30.68c-2.63-6.47-4.57-11.62-5.8-15-2.45-6.64-3.8-10.82-7.24-11.8a6.7,6.7,0,0,0-4.21.34"/><path class="cls-2" d="M7.07,20.39a44,44,0,0,0,8.49,15.76,43.33,43.33,0,0,0,6.27,6,55.15,55.15,0,0,0,29.46.21A52.75,52.75,0,0,0,60.09,39c.75-.37,1.48-.74,2.17-1.12,5.16,1,7.12,2.82,7.91,4.39.13.25.28.59.47,1a4.25,4.25,0,0,0,1.82,1.88,3.49,3.49,0,0,0,2.62.16c1.51-.68,2.34-3.21,1.4-6l0,0a2.52,2.52,0,0,0,1.8-.14c.63-.36,1-1.07,1.21-2.42A15.46,15.46,0,0,0,79,30a5.77,5.77,0,0,0,3.5-3c1.24-3.1-1.73-7.34-5.05-8.5a7.69,7.69,0,0,0-5.1.2,23,23,0,0,0-5.35,3C65.16,23.09,64.5,24,60.7,27l-.68.53c-1.69,1.29-2.53,1.94-3.25,2.37-3.39,2.06-6.59,2.39-10.42,2.79a39.33,39.33,0,0,1-13.7-.91C31.18,31.4,30,31,29.09,30.68c-2.63-6.47-4.57-11.62-5.8-15-2.45-6.64-3.8-10.82-7.24-11.8a6.7,6.7,0,0,0-4.21.34"/><path class="cls-2" d="M79.39,30.07s-2.68-4.17-6.61-5.21"/><path class="cls-2" d="M76.93,39.72s-2.68-4.17-6.61-5.21"/></svg>