<svg id="Layer_1" data-name="Layer 1" xmlns="http://www.w3.org/2000/svg" viewBox="0 0 46.09 51.84"><defs><style>.cls-1{fill:#fe4786;}.cls-2{fill:none;stroke:#ce1762;stroke-miterlimit:10;}.cls-3{fill:#ce1762;}</style></defs><path class="cls-1" d="M34.11,28.52a3.62,3.62,0,0,1-2,.37,4.44,4.44,0,0,1-1,4.46,3.63,3.63,0,0,1-1.83.88c.08.13.14.25.19.35a4,4,0,0,1-.51,4.54,3.07,3.07,0,0,1-1.72.75l-.51-.28a10.94,10.94,0,0,0-2-.87,10.88,10.88,0,0,0-5.39-.53c-2.17.39-3.06,1.41-5.17,1.52h-.4a2.41,2.41,0,0,1-1.58-.44A3,3,0,0,1,11.26,37a4.54,4.54,0,0,1,1.12-2.73,2.3,2.3,0,0,1-1.82.1c-.9-.43-1.36-1.93-.87-3.59a12.75,12.75,0,0,1,4.85-6.21,1.58,1.58,0,0,1-.54-.29c-.76-.65-.82-2.21.08-3.7a12.55,12.55,0,0,1,9-5.37,11.92,11.92,0,0,1,3,.06,12.51,12.51,0,0,1,9.94,8.13C36.49,25.63,35.66,27.7,34.11,28.52Z"/><path class="cls-2" d="M34.3,28.48a3.64,3.64,0,0,1-2,.38,4.45,4.45,0,0,1-1,4.46,3.6,3.6,0,0,1-1.83.87c.08.13.14.26.19.35a4,4,0,0,1-.51,4.54,3.09,3.09,0,0,1-1.72.76l-.51-.29a12.52,12.52,0,0,0-2-.87,11,11,0,0,0-5.39-.53c-2.17.4-3.06,1.41-5.17,1.53h-.4a2.47,2.47,0,0,1-1.58-.44,3.07,3.07,0,0,1-.91-2.33,4.56,4.56,0,0,1,1.12-2.73,2.35,2.35,0,0,1-1.82.11c-.9-.44-1.36-1.94-.87-3.6a12.53,12.53,0,0,1,3-4.72,12.27,12.27,0,0,1,1.82-1.48,1.77,1.77,0,0,1-.54-.29c-.76-.65-.82-2.22.08-3.7a12.53,12.53,0,0,1,9-5.38,12.4,12.4,0,0,1,3,.06,12.52,12.52,0,0,1,9.94,8.14C36.68,25.59,35.85,27.66,34.3,28.48Z"/><path class="cls-3" d="M14.54,24.53C20.42,22.4,28.6,23,32.07,28.89c-4.5-4.75-11.41-5-17.53-4.36Z"/><path class="cls-3" d="M12.38,34.23c4.68-3.86,12.47-4.7,16.88,0-5.15-3.37-11.55-2.5-16.88,0Z"/></svg>