<svg id="Layer_1" data-name="Layer 1" xmlns="http://www.w3.org/2000/svg" viewBox="0 0 23.37 23.74"><defs><style>.cls-1{fill:#f6f6f6;}.cls-2{fill:#894f1a;}.cls-3{fill:#3d3123;}.cls-4{fill:#fff;}</style></defs><circle class="cls-1" cx="12.18" cy="12.68" r="6.68"/><path class="cls-2" d="M18.86,12.68c.13,5.93-7.4,9.15-11.63,4.95a7,7,0,0,1,0-9.91c4.23-4.2,11.76-1,11.63,5Zm0,0C18.91,6.9,11.6,4,7.68,8.18a6.49,6.49,0,1,0,11.18,4.5Z"/><path class="cls-3" d="M13.18,9.71a4.46,4.46,0,0,0-4.37,4.51,4.39,4.39,0,0,0,3.94,4.41,4.39,4.39,0,0,0,4.43-4.08A4.46,4.46,0,0,0,13.18,9.71ZM14.84,14a1.47,1.47,0,0,1-1.31-1.47A1.49,1.49,0,0,1,15,11a1.48,1.48,0,0,1,1.33,1.61A1.46,1.46,0,0,1,14.84,14Z"/><path class="cls-4" d="M16.32,12.63a1.4,1.4,0,1,1-2.79-.11A1.49,1.49,0,0,1,15,11,1.48,1.48,0,0,1,16.32,12.63Z"/></svg>