<svg id="Layer_1" data-name="Layer 1" xmlns="http://www.w3.org/2000/svg" viewBox="0 0 111.75 173.15"><defs><style>.cls-1,.cls-3{fill:#fbd3c7;}.cls-2{fill:#453323;}.cls-3{stroke:#453323;stroke-miterlimit:10;}</style></defs><path class="cls-1" d="M2.74,116.31S17,141.84,32.23,140.15c10.9-1.21,41.2-55.35,41.2-55.35L59.09,71.88,28.19,104.2,21.32,92.48Z"/><path class="cls-2" d="M2.79,116.32c5.79,9.15,15.77,22.52,27.4,23.32,3.44.4,6-2.1,8.33-4.39A63.75,63.75,0,0,0,43,130.18a252.4,252.4,0,0,0,15.63-22.35q7.3-11.55,14-23.46l.18,1.1-14.3-13,1.17,0C52,80.52,36.41,96.63,28.63,104.62l-.57.58-.4-.7L20.89,92.73l.82,0L2.79,116.32Zm-.1,0c.05-.07,18.58-23.88,18.64-23.94s6.87,11.7,6.92,11.79h-.11c.07-.06,30.88-32.34,31-32.4s14.32,13,14.41,13c-4.24,7.94-9.26,15.86-14.09,23.59C53.19,117.85,47,127.56,39,135.76c-2,1.88-4.25,4.2-7.15,4.48-12.46.7-23.4-14.31-29.19-23.93Z"/><path class="cls-1" d="M29,103s-5.25,2-5.25,10.51"/><path class="cls-2" d="M29,103a17,17,0,0,0-4.3,7.5c-.31,1-.55,2-.92,3h-.1c0-3.08.66-6.36,2.81-8.69A7.43,7.43,0,0,1,29,102.94l0,.09Z"/><path class="cls-3" d="M55.66,75.31s.4-10.1,4-16c0,0,2.22-3.83,11.71-6.86,6.33-2,8.8-4.13,9.74-5.31a.89.89,0,0,1,1.39-.07c1.94,2.34,5.91,8.86-4.67,14.06,0,0,.21,9.09,9.3,10.51,0,0,10.1,1.81,16.15,5.65,0,0,8.89,3,4.45,6.87,0,0,2.22,5.25-7.07,4.64,0,0,1.61,4.65-7.07,5s-25-2-25-2"/><line class="cls-3" x1="105.75" y1="78.74" x2="84.54" y2="74.1"/><line class="cls-3" x1="106.96" y1="84.4" x2="83.53" y2="78.74"/><line class="cls-3" x1="100.7" y1="88.84" x2="81.11" y2="84.6"/><path class="cls-3" d="M78.58,60.92S76.11,72,70.25,75"/><path class="cls-1" d="M86,71.88s-3,7.67-6.66,17"/><path class="cls-2" d="M86,71.9a48.26,48.26,0,0,1-4.39,13,36.49,36.49,0,0,1-2.27,4l-.1,0c1.62-4.25,5-12.76,6.67-17l.09,0Z"/></svg>