<svg id="Layer_1" data-name="Layer 1" xmlns="http://www.w3.org/2000/svg" viewBox="0 0 97.94 97.99"><defs><style>.cls-1{fill:#ffd15f;stroke:#d67d13;stroke-miterlimit:10;}</style></defs><path class="cls-1" d="M73.16,39.94s-.41-8.46-8.65-3.11-20.92,10-40.29,1.22c0,0,.14,4.08,6.93,7.64,0,0-5.85-.82,3.93,6.45,0,0-4.39.4,6.11,7.3,0,0-2.86,2.9,9.77,5.3s23.44-14,23.44-14l-.69-10.59"/><path class="cls-1" d="M30,44.62s14.17,8.83,34-1.08"/><path class="cls-1" d="M33.86,51.49A34.74,34.74,0,0,0,65.1,49"/><path class="cls-1" d="M40.26,58.67S56.67,63.44,66,54.5"/></svg>