<svg id="Layer_1" data-name="Layer 1" xmlns="http://www.w3.org/2000/svg" viewBox="0 0 185.51 213.25"><defs><style>.cls-1{opacity:0.25;}.cls-2{fill:#de195a;}.cls-3{fill:#cd1d5d;}.cls-4{fill:#ee4984;}.cls-16,.cls-20,.cls-5{fill:none;stroke-miterlimit:10;}.cls-5{stroke:#c51e57;}.cls-6{fill:#fe4786;}.cls-7{fill:#f8f6f0;}.cls-8{fill:#7e57a3;}.cls-9{fill:#12170d;}.cls-10{fill:#e91a68;}.cls-11{opacity:0.81;}.cls-12{fill:#ff8db6;}.cls-13{fill:#a21d42;}.cls-14{fill:#ee3644;}.cls-15{fill:#fff;}.cls-16{stroke:#ec1262;stroke-width:2px;}.cls-17{fill:#f49093;}.cls-18{fill:#de1959;}.cls-19{fill:#c51e57;}.cls-20{stroke:#66002e;}</style></defs><ellipse class="cls-1" cx="89.79" cy="192.1" rx="67.52" ry="17.28"/><path class="cls-2" d="M169.18,137.1c-.24-.7-.44-1.39-.67-2.09-.86-2.53-2.15-5.11-6.94-8.21-.17-.11,4.88,5.89,3.19,9a2.86,2.86,0,0,1-.29.42c-2.46,2.92-3.74-1.6-4.74-1.7-1.24-.11-1.68,0-2.46-.66a2,2,0,0,1-.38-.38,0,0,0,0,0,0,0,4.22,4.22,0,0,1-.7-2.2c-.56-5.58.12-7.73-1-9.74a5.66,5.66,0,0,0-2.43-2.25c-.53-.27-1-.47-1.47-.65-1.43-.6-3.15-1.41-5.09-2.39-2.56-1.29-5.49-2.86-8.56-4.56-3.36-1.86-6.88-3.88-10.28-5.87l-4.92-2.89c-2.7-1.6-5.21-3.11-7.37-4.42l-2.59-1.57c-3-1.8-4.82-3-4.82-3l2.11-17L124,88.11l9.17,7.19,3.93,3.09,9.15,7.17,6.86,5.39,5.31,4.16,1.31,1s13.34,10.54,16.45,19.7C177.68,140.33,172.47,141.83,169.18,137.1Z"/><path class="cls-3" d="M168.51,135c-.46,1.33-2.11,1.74-3.75.77,1.69-3.09-3.36-9.09-3.19-9C166.36,129.9,167.65,132.48,168.51,135Z"/><path class="cls-4" d="M133.17,95.3l-10.7,7.6c-2.7-1.6-5.21-3.11-7.37-4.42l-2.59-1.57c3.23-2.6,7.57-5.89,11.49-8.8Z"/><path class="cls-4" d="M146.25,105.56l-8.58,6.1c-3.36-1.86-6.88-3.88-10.28-5.87,2.89-2.28,6.42-5,9.71-7.4Z"/><path class="cls-4" d="M158.42,115.11l-5.63,4.15c-.53-.27-1-.47-1.47-.65-1.43-.6-3.15-1.41-5.09-2.39,2.27-1.76,4.7-3.61,6.88-5.27Z"/><path class="cls-5" d="M176.18,135.84c-3.11-9.16-16.45-19.7-16.45-19.7l-1.31-1L153.11,111l-6.86-5.39-9.15-7.17-3.93-3.09L124,88.11,109.8,77l-2.11,17s1.85,1.15,4.82,3l2.59,1.57c2.16,1.31,4.67,2.82,7.37,4.42l4.92,2.89c3.4,2,6.92,4,10.28,5.87,3.07,1.7,6,3.27,8.56,4.56,1.94,1,3.66,1.79,5.09,2.39.43.18.94.38,1.47.65a5.66,5.66,0,0,1,2.43,2.25c1.08,2,.4,4.16,1,9.74a4.22,4.22,0,0,0,.7,2.2,0,0,0,0,1,0,0,2,2,0,0,0,.38.38c.78.62,1.22.55,2.46.66,1,.1,2.28,4.62,4.74,1.7a2.86,2.86,0,0,0,.29-.42c1.69-3.09-3.36-9.09-3.19-9h0c-.14-.06,4.87,5.9,3.18,9,1.64,1,3.29.56,3.75-.77h0c.23.7.43,1.39.67,2.09C172.47,141.83,177.68,140.33,176.18,135.84Z"/><path class="cls-2" d="M74.06,159.05c-.57,9.89-1,17.36-1,21.84h0V181a10.53,10.53,0,0,1-1,4.89,9.53,9.53,0,0,1-1.88,2.54,18.59,18.59,0,0,1-3.09,2.28c-.6.37-1.22.73-1.93,1.12a55.54,55.54,0,0,1-6.55,2.88c-1.53.59-3.34,1.25-5.52,2-4.54,1.57-7,2.27-10.07,1.78-1.34-.22-3.68-.62-4.37-2.23-.86-2,1.38-4.62,2.3-5.7a15.6,15.6,0,0,1,5.46-4,34.24,34.24,0,0,1,8.27-2.61c2.94-.49,4.49-.24,6.34-1.19a7.07,7.07,0,0,0,1.65-1.17,11.7,11.7,0,0,0,2.86-4.76h0c1.12-3.2,1.82-7.92,1.68-14.93"/><path class="cls-4" d="M65,191.86a55.54,55.54,0,0,1-6.55,2.88c-3.16-3.44-9.49-6.84-12.2-8.21.92-.43,1.91-.82,3-1.2a31,31,0,0,1,5.29-1.4A68.91,68.91,0,0,1,65,191.86Z"/><path class="cls-4" d="M73.06,180.92V181a10.74,10.74,0,0,1-1,4.89,9.12,9.12,0,0,1-1.88,2.53c-1.73-3.95-5.36-6-7.51-6.89a11.63,11.63,0,0,0,2.86-4.76A41.66,41.66,0,0,1,73.06,180.92Z"/><path class="cls-5" d="M67.19,161.8c.14,7-.56,11.73-1.68,14.93h0l0,0h0a13.21,13.21,0,0,1-2.05,3.89,10.73,10.73,0,0,1-.78.84A7.07,7.07,0,0,1,61,182.66c-1.85,1-3.4.7-6.34,1.19a34.24,34.24,0,0,0-8.27,2.61l-.08,0-.09,0h0a15.66,15.66,0,0,0-5.3,4c-.92,1.08-3.16,3.71-2.3,5.7.69,1.61,3,2,4.37,2.23,3.11.49,5.53-.21,10.07-1.78,2.1-.73,3.85-1.36,5.34-1.93h0c2-.75,3.47-1.39,4.7-2,.77-.35,1.42-.68,2-1s1.33-.75,1.93-1.12a18.24,18.24,0,0,0,3.06-2.26h0a10.59,10.59,0,0,0,1-1.17,9.73,9.73,0,0,0,.87-1.4,10.53,10.53,0,0,0,1-4.89v-.06h0c0-4.48.41-11.95,1-21.84Z"/><path class="cls-2" d="M115.64,162.88c.06.26-.61,6.81,2.15,11h0a7.3,7.3,0,0,0,3,2.61,20.35,20.35,0,0,0,2.19.86c1.72.58,3.58,1,5.41,1.54,2.86.8,5.68,1.77,7.83,3.68h0a10.67,10.67,0,0,1,3,4.43c2.9,8-11.31,4.72-14,3l-.16-.12c-.88-.68-2.55-1.83-4.35-3a42.69,42.69,0,0,0-5.12-2.85,4.39,4.39,0,0,0-1.46-.43,4.41,4.41,0,0,1-4.08-4.06h0a6.78,6.78,0,0,1,.09-2c.8-4.26.64-15.41.32-16.69"/><path class="cls-4" d="M122.9,177.31c-1.93,1.51-5.85,4.7-7.39,6.7a4.39,4.39,0,0,0-1.46-.43,4.41,4.41,0,0,1-4.08-4.06c1.2-1.06,5.5-4.78,7.78-5.69a7.3,7.3,0,0,0,3,2.61A20.38,20.38,0,0,0,122.9,177.31Z"/><path class="cls-4" d="M136.15,182.5c-2.44.25-6.86,1.59-11,7.43l-.16-.12c-.88-.68-2.56-1.83-4.36-3,2-2.41,5.41-6.39,7.69-8C131.18,179.62,134,180.59,136.15,182.5Z"/><path class="cls-5" d="M139.14,187a10.67,10.67,0,0,0-3-4.43h0a12.27,12.27,0,0,0-1.75-1.28,24.05,24.05,0,0,0-6.11-2.42h0c-1.82-.51-3.67-1-5.37-1.53a20.35,20.35,0,0,1-2.19-.86,7.3,7.3,0,0,1-3-2.61h0c-2.76-4.14-2.09-10.69-2.15-11l-5.22-2.08c.32,1.28.48,12.43-.32,16.69a6.58,6.58,0,0,0-.09,2l0,0a4.41,4.41,0,0,0,4.08,4.06,4.39,4.39,0,0,1,1.46.43h0a42.75,42.75,0,0,1,5.09,2.83h0c1.8,1.14,3.48,2.29,4.36,3l.16.12h0l0,0C127.83,191.67,142,195,139.14,187Z"/><path class="cls-6" d="M35.25,71.12c.41-1.9,8.45-37,42.06-42.12a.24.24,0,0,0,.13-.42c-1.11-1-4.43-3.88-6.09-5.31a.25.25,0,0,1,.24-.42,42.26,42.26,0,0,1,5.74,2.35.24.24,0,0,0,.31-.05c.76-.93,4.49-5.43,4.64-5.53s-2.3,5.92-2.13,6,9.15-6.51,12.77-6h0c0,.05-9.33,6.76-8.51,8.34.31.59,2,.28,2.36.22,6.07-1,19.3,3.7,28.56,11.44,13.47,11.27,16.22,27,16.79,31.12.36,2.64.26,7.89.07,18.39-.16,9.11-.44,16.59-.67,21.63a.29.29,0,0,0,0,.09c2.4,6.64,3.74,9.44,4.9,10.06,1.81,1-2.8,1.19-4.53-2.44a.25.25,0,0,0-.47,0,6.43,6.43,0,0,0,2.36,7l0,0c.29.31,4.86,5.25-2.79.17a.26.26,0,0,0-.38.14c-.53,2-2.77,12.06,5.66,11.12a.24.24,0,0,1,.27.3c-.37,1.57-7.55,7.7-10.75,6.83-3.12.06.26,3.76,2.62,4.14s4,.71,2.87,1.22-8.1,2.17-9.63,2-.32,3.63,2.23,4.53.06,2.68-1.66,2.29-5.23-1.42-5.17.06,1.72,3.26,1.79,3.71-9.37,4.21-20.72-6.43l0,0c-2.53-1.63-1.95,2,2.25,5.63,2.24,2.74-9,3.57-18.38-5.68-.06-.06-7.06,7.43-17.57,6.43a.25.25,0,0,1-.17-.4,41.15,41.15,0,0,0,3.32-5.14c.13-.57-6.19,3.77-11.23,2.75-.63-.26,3.3-6-1.11-6.13h-.07c-4.4,1-6.77,9.14-16.46,7.14a.26.26,0,0,1-.16-.38c.66-1.06,3.41-4.65,1.79-8.77a.26.26,0,0,0-.25-.16c-2.55.14-7.12-.46-8.15-1.62a.25.25,0,0,1,0-.36c.9-.7,4.61-4.31,2.92-7.25a.25.25,0,0,0-.16-.12c-3.07-.78-10-8.41-8.46-14.31a.25.25,0,0,1,.41-.11c1.36,1.33,5.3,9.64,8.14,2a.14.14,0,0,0,0-.06c.32-3.33,1.15-29,1.59-32.39s.58-11.8-.32-11.8-2.36,4-3,4,1.36-9.42,2-13.47a.25.25,0,0,0-.38-.25c-1,.61-3.2,2.07-4,1.47s3.81-4.91,4.41-5.44A.22.22,0,0,0,35.25,71.12Z"/><path class="cls-5" d="M35.19,71.12c.41-1.9,8.44-37,42.05-42.12a.24.24,0,0,0,.14-.42c-1.11-1-4.43-3.88-6.1-5.31a.25.25,0,0,1,.25-.42,42.26,42.26,0,0,1,5.74,2.35.25.25,0,0,0,.31-.05c.76-.93,4.48-5.43,4.64-5.53s-2.3,5.92-2.13,6,9.14-6.51,12.77-6h0c0,.05-9.34,6.76-8.52,8.34.31.59,2,.28,2.36.22,6.07-1,19.31,3.7,28.56,11.44,13.48,11.27,16.22,27,16.79,31.12.36,2.64.27,7.89.08,18.39-.17,9.11-.45,16.59-.67,21.63a.28.28,0,0,0,0,.09c2.41,6.64,3.74,9.44,4.9,10.06,1.82,1-2.79,1.19-4.53-2.44a.24.24,0,0,0-.46,0,6.41,6.41,0,0,0,2.36,7l0,0c.29.31,4.86,5.25-2.8.17a.24.24,0,0,0-.37.14c-.53,2-2.77,12.06,5.66,11.12a.25.25,0,0,1,.27.3c-.37,1.57-7.55,7.7-10.75,6.83-3.13.06.25,3.76,2.61,4.14s4,.71,2.88,1.22-8.11,2.17-9.64,2-.32,3.63,2.23,4.53.07,2.68-1.65,2.29-5.24-1.42-5.17.06,1.72,3.26,1.78,3.71-9.37,4.21-20.72-6.43l0,0c-2.53-1.63-1.94,2,2.26,5.63,2.23,2.74-9,3.57-18.38-5.68-.06-.06-7.06,7.43-17.58,6.43a.25.25,0,0,1-.17-.4,42.61,42.61,0,0,0,3.33-5.14c.13-.57-6.19,3.77-11.23,2.75-.64-.26,3.29-6-1.11-6.13H55.1c-4.4,1-6.77,9.14-16.45,7.14a.25.25,0,0,1-.16-.38c.66-1.06,3.41-4.65,1.78-8.77a.25.25,0,0,0-.24-.16c-2.56.14-7.12-.46-8.15-1.62a.25.25,0,0,1,0-.36c.91-.7,4.62-4.31,2.93-7.25a.28.28,0,0,0-.16-.12c-3.07-.78-10.06-8.41-8.47-14.31a.25.25,0,0,1,.41-.11c1.36,1.33,5.31,9.64,8.15,2,0,0,0,0,0-.06.32-3.33,1.14-29,1.59-32.39s.57-11.8-.32-11.8-2.36,4-3,4,1.35-9.42,2-13.47a.24.24,0,0,0-.37-.25c-1,.61-3.21,2.07-4,1.47-1-.72,3.8-4.91,4.41-5.44A.29.29,0,0,0,35.19,71.12Z"/><ellipse class="cls-7" cx="81.38" cy="76.77" rx="17.37" ry="19.72"/><ellipse class="cls-8" cx="85.91" cy="78.53" rx="9.9" ry="11.24"/><ellipse class="cls-9" cx="86.22" cy="78.23" rx="3.57" ry="4.05"/><ellipse class="cls-7" cx="89.79" cy="75.31" rx="2.9" ry="3.29"/><ellipse class="cls-7" cx="114.8" cy="76.34" rx="16.04" ry="18.21"/><ellipse class="cls-8" cx="118.99" cy="77.97" rx="9.14" ry="10.38"/><ellipse class="cls-9" cx="119.27" cy="77.69" rx="3.3" ry="3.74"/><ellipse class="cls-7" cx="122.57" cy="75" rx="2.68" ry="3.04"/><path class="cls-10" d="M89.21,46.84c-.13-.09-5.06-4.42-6.48-3.89s-2.36,2.19-.31,3.89c0,0-7.32-2.5-7.14,1.65-.09-.18-5.94-.27-3.31,3.21-.22-.09-4.77,1.75-3.3,4.56,7.78-4.67,11.6-5.11,13.65-4.52a19,19,0,0,0,3.54.63c2.28.21,4.21.38,4.91-.62S90.81,48.7,89.21,46.84Z"/><path class="cls-10" d="M108,47.77c.11-.07,4.26-3.72,5.46-3.27s2,1.84.25,3.27c0,0,6.16-2.1,6,1.39.08-.15,5-.22,2.78,2.71.19-.08,4,1.46,2.78,3.83-6.54-3.93-9.75-4.3-11.48-3.8a17,17,0,0,1-3,.53c-1.92.17-3.54.32-4.13-.53S106.64,49.34,108,47.77Z"/><g class="cls-11"><ellipse class="cls-12" cx="65.07" cy="42.32" rx="8.17" ry="4.09" transform="translate(-11.77 53.32) rotate(-41.19)"/><ellipse class="cls-12" cx="49.85" cy="60.18" rx="12.69" ry="6.53" transform="translate(-26.04 78.82) rotate(-64.16)"/></g><path class="cls-13" d="M103.88,109.24A29.44,29.44,0,0,0,115.77,106c2-1.05,3.9-2.4,6.21-1.92s3.84,2.73,4.39,3.59c3.86,6,3,17.71-3.82,25.37-4.36,4.91-9.72,6.56-12.85,7.48-.91.27-23,6.41-34.6-7.58-6.29-7.62-8.42-20-3.58-26.71A9.2,9.2,0,0,1,76,102.57c4.76-1.56,8.49,2.88,16.58,5.29A35.47,35.47,0,0,0,103.88,109.24Z"/><path class="cls-14" d="M127.65,123.56a24.58,24.58,0,0,1-5.12,9.49c-4.36,4.91-9.73,6.56-12.85,7.48-.91.27-23.05,6.41-34.6-7.58a26.14,26.14,0,0,1-3.32-5.2c2.46-4,5-5.55,6.71-6.25,7.87-3.2,13.1,5.61,24.55,4.17,5.48-.69,5.64-2.88,11.93-3.57A30,30,0,0,1,127.65,123.56Z"/><path class="cls-15" d="M86,105.19c-.65,4.89-5,8.19-8.83,7.69a8,8,0,0,1-6.24-5.68,9.8,9.8,0,0,1,.62-1A9.1,9.1,0,0,1,76,102.57C79.23,101.51,82,103.22,86,105.19Z"/><path class="cls-15" d="M124.75,105.64c-.3,6.2-3.56,10.19-6,10.16-2.22,0-4.92-3.48-5.72-8.55a25,25,0,0,0,2.7-1.24c2-1.05,3.9-2.4,6.21-1.92A5.75,5.75,0,0,1,124.75,105.64Z"/><path class="cls-15" d="M81.86,138.53A23,23,0,0,1,75.1,133a26.19,26.19,0,0,1-2.42-3.5c3.66-3.8,8.13-4.85,10.11-3.48C85,127.51,85.56,133.14,81.86,138.53Z"/><path class="cls-15" d="M99.52,142.06a38.22,38.22,0,0,1-12.36-1.35c-.09-6,2.69-10.52,6.14-11.28a6.36,6.36,0,0,1,6,1.89c1.07,1.33,1.1,2.9,1.14,4.92A17.46,17.46,0,0,1,99.52,142.06Z"/><path class="cls-15" d="M118.22,136.8a30.08,30.08,0,0,1-8.52,3.73c-.2.06-1.42.4-3.31.75a10.93,10.93,0,0,1-.79-8.3,6,6,0,0,1,2.63-3.54,5.94,5.94,0,0,1,5.73.3C116.6,131.35,117.8,135.11,118.22,136.8Z"/><path class="cls-15" d="M127.5,124.13c-.08.24-.15.48-.24.72a24.15,24.15,0,0,1-4.71,8.2,22.81,22.81,0,0,1-1.84,1.84c-3.63-3.31-3.67-8.35-1.47-10.5a4.54,4.54,0,0,1,1.86-1.09A8.29,8.29,0,0,1,127.5,124.13Z"/><path class="cls-15" d="M99,109.1c-1.18,4.51-4.75,7.14-7.27,6.77-2.82-.41-5.87-4.77-4.77-10.19a39.26,39.26,0,0,0,5.6,2.18A34.72,34.72,0,0,0,99,109.1Z"/><path class="cls-15" d="M106.14,116.16c-2.31,0-5.12-2.81-5.63-7q1.58.09,3.36,0a31.82,31.82,0,0,0,7.94-1.54C112.05,112.7,108.74,116.18,106.14,116.16Z"/><path class="cls-16" d="M123.4,132c.2-.25.39-.51.58-.77l.13-.18.58-.86,0-.07c.42-.66.8-1.33,1.15-2l.05-.11c.16-.31.31-.63.45-1l0-.08c3.07-6.87,2.88-14.73,0-19.31a9.77,9.77,0,0,0-2.2-2.54h0l-.31-.23h0l-.32-.2h0c-.11-.06-.22-.13-.33-.18h0a5.06,5.06,0,0,0-1.19-.41,5.23,5.23,0,0,0-2.84.24,25.19,25.19,0,0,0-3.37,1.68q-.56.3-1.2.6l-.11,0-.57.25-.11,0-.71.29h0l-1.25.45h0c-.78.26-1.63.51-2.56.73l-.18,0-.72.16-.28.05-.67.13-.33,0-.67.11-.36,0-.73.09-.33,0-1.07.1h0l-.91,0H101.9l-.65,0-.55,0c-.62,0-1.23-.07-1.8-.13l-.66-.07-.38-.05-.62-.08-.39-.06-.38-.06-.43-.08-.27-.05a31.17,31.17,0,0,1-3.19-.78c-5.67-1.68-9.19-4.36-12.43-5.28l-.08,0c-.25-.07-.51-.13-.76-.18l-.14,0-.21,0-.27,0-.21,0h-.37a1.82,1.82,0,0,0-.33,0h-.12l-.27,0-.13,0-.37,0h0l-.35.08-.1,0-.4.12a9.2,9.2,0,0,0-4.48,3.67c-.14.2-.27.41-.4.61l-.06.1c0,.09-.11.17-.15.25h0c-3.15,5.4-2.46,13.68.87,20.51v0a26.43,26.43,0,0,0,3.32,5.2c5.63,6.82,13.79,8.86,20.77,9.12h0l.68,0H98.9l.4,0h.22a50.61,50.61,0,0,0,6.86-.77h0c1.9-.35,3.12-.69,3.32-.75.57-.17,1.23-.36,1.93-.6l.12,0,.34-.11.34-.12.2-.07.28-.11.18-.07.42-.16.06,0,.51-.21.1-.05.46-.2.07,0,1.12-.54h0a22.75,22.75,0,0,0,5.31-3.72h0c.46-.44.92-.91,1.37-1.41.26-.29.5-.59.74-.89Z"/><path class="cls-4" d="M116.92,6.7a4.7,4.7,0,0,0-2.35-.94,5.68,5.68,0,0,0-3.93,1.4c-3.86,2.9-7,15.15-7,24.59,0,1.74,3.24,3.93,4,3.53.44-.24.21-1.42.14-1.86-.85-4.82-.48-15.89,3-17.37,2.16-.93,5.47,1.95,6.52.69a1.11,1.11,0,0,0,.24-.68"/><ellipse class="cls-17" cx="116.29" cy="11.64" rx="2.96" ry="5.23" transform="translate(-0.58 10.86) rotate(-5.34)"/><path class="cls-5" d="M117.28,16.58c-1.85.17-3.57-2.07-3.85-5s1-5.46,2.86-5.64"/><path class="cls-5" d="M107.61,34.91c.44-.24.21-1.42.14-1.86-.85-4.82-.48-15.89,3-17.37,2.16-.93,5.47,1.95,6.52.69h0c1.36-.52,2.24-2.77,2-5.36-.21-2.2-1.16-4-2.32-4.67h0a4.7,4.7,0,0,0-2.35-.94,5.68,5.68,0,0,0-3.93,1.4c-3.86,2.9-7,15.15-7,24.59"/><path class="cls-18" d="M44,90.6a5.76,5.76,0,0,1-6,1l-1.27.21a32.7,32.7,0,0,0-10,3.49h0c-.88.49-1.78,1-2.68,1.65a31.5,31.5,0,0,0-6.32,5.72,33.11,33.11,0,0,0-3.89,5.78,37.24,37.24,0,0,0-2,30.63c1-.94,4-3.74,7.25-3.78a3.11,3.11,0,0,1,2.29.68,2.38,2.38,0,0,1,.66,2.7,2.61,2.61,0,0,1-3.91.91c-1.4-1-3.06.35-2.76,1.34.08.26.43.53,1.72.89,3.94,1.11,5.55.26,6.69,1.41a3,3,0,0,1,.33,3.76,2.66,2.66,0,0,1-3,.57c-1.25-.61-1-2.11-2.37-2.62a1.82,1.82,0,0,0-1.83.2c-.76.75-.23,2.72.79,3.22.55.27.81-.09,1.58.13a3,3,0,0,1,2,2.23,2.45,2.45,0,0,1-.41,2.07,2.59,2.59,0,0,1-2.38.63,3.7,3.7,0,0,1-2-1.2c-1.24-1.25-1.11-2.25-2.07-2.59-.51-.17-1.28-.16-1.54.22-.62.92,2.35,2.87,1.82,4.6-.4,1.3-2.7,2.22-4.07,1.5a3.22,3.22,0,0,1-1.33-1.77,6.51,6.51,0,0,1-.44-2.7c0-3.78-2.17-4.38-2-8a11.61,11.61,0,0,0,.11-2.92,8.6,8.6,0,0,0-1-3C4.7,135.2,2.29,121.1,8.88,106.13c0-.12.11-.25.17-.37a62.51,62.51,0,0,1,3-6.07A34.78,34.78,0,0,1,20,90.18l.07-.06a49.12,49.12,0,0,1,6.65-4.55A82.24,82.24,0,0,1,34,81.81C36.64,80.62,38.44,80,38.44,80h.26a6.93,6.93,0,0,1,6.67,4.35A5.94,5.94,0,0,1,44,90.6Z"/><path class="cls-4" d="M33.51,92.6l-6.7,2.74h0A21.93,21.93,0,0,0,20,90.12a49.12,49.12,0,0,1,6.65-4.55A19.91,19.91,0,0,1,33.51,92.6Z"/><path class="cls-4" d="M17.8,102.71a33.11,33.11,0,0,0-3.89,5.78,20.07,20.07,0,0,0-5-2.36c0-.12.11-.25.17-.37a62.51,62.51,0,0,1,3-6.07A19.62,19.62,0,0,1,17.8,102.71Z"/><path class="cls-4" d="M9.57,126.49a18.43,18.43,0,0,0-4.95-2.67,52.63,52.63,0,0,1,.81-6.77,20,20,0,0,1,4.72,1.89A35.34,35.34,0,0,0,9.57,126.49Z"/><path class="cls-5" d="M45.37,84.3A6.93,6.93,0,0,0,38.7,80h-.26s-1.8.67-4.44,1.86a82.24,82.24,0,0,0-7.33,3.76A49.12,49.12,0,0,0,20,90.12l-.07.06a34.78,34.78,0,0,0-7.89,9.51,62.51,62.51,0,0,0-3,6.07c-.06.12-.12.25-.17.37a52.19,52.19,0,0,0-3.42,10.93h0c-.22,1.21-.4,2.39-.53,3.53-1.1,8.7.24,15.42,1.11,17a8.6,8.6,0,0,1,1,3A11.61,11.61,0,0,1,7,143.48c-.19,3.66,2,4.26,2,8a6.51,6.51,0,0,0,.44,2.7A3.22,3.22,0,0,0,10.7,156c1.37.72,3.67-.2,4.07-1.5.53-1.73-2.44-3.68-1.82-4.6.26-.38,1-.39,1.54-.22,1,.34.83,1.34,2.07,2.59a3.7,3.7,0,0,0,2,1.2,2.59,2.59,0,0,0,2.38-.63,2.45,2.45,0,0,0,.41-2.07,3,3,0,0,0-2-2.23c-.77-.22-1,.14-1.58-.13-1-.5-1.55-2.47-.79-3.22a1.82,1.82,0,0,1,1.83-.2c1.33.51,1.12,2,2.37,2.62a2.66,2.66,0,0,0,3-.57,3,3,0,0,0-.33-3.76c-1.14-1.15-2.75-.3-6.69-1.41-1.29-.36-1.64-.63-1.72-.89-.3-1,1.36-2.32,2.76-1.34a2.61,2.61,0,0,0,3.91-.91,2.38,2.38,0,0,0-.66-2.7,3.11,3.11,0,0,0-2.29-.68c-3.26,0-6.29,2.84-7.25,3.78A37.93,37.93,0,0,1,9.5,126.44l.07,0a36,36,0,0,1,.25-5.4q.25-1.83.72-3.75a37.32,37.32,0,0,1,3.37-8.85,33.11,33.11,0,0,1,3.89-5.78A31.5,31.5,0,0,1,24.12,97c.9-.62,1.8-1.16,2.68-1.65h0l6.7-2.74a33.24,33.24,0,0,1,3.26-.75L38,91.64a5.76,5.76,0,0,0,6-1A5.94,5.94,0,0,0,45.37,84.3Z"/><path class="cls-19" d="M64.16,33.16a21.15,21.15,0,0,1,.3,3.45,20.06,20.06,0,0,0-1.25-3.15l.95-.3Z"/><path class="cls-19" d="M108.32,33.87a16.71,16.71,0,0,0,.2,4.17,12,12,0,0,1-.72-2c-.19-.69-.35-1.38-.48-2.1l1-.06Z"/><path class="cls-19" d="M104.12,31.31a17.18,17.18,0,0,0,.21,4.17,11.73,11.73,0,0,1-.72-2c-.19-.69-.35-1.38-.48-2.1l1-.06Z"/><path class="cls-4" d="M65.88,27.26C64.45,23,62.47,17.12,57.15,13.55a17.2,17.2,0,0,0-5.57-2.41h0a2.3,2.3,0,0,0-.85-.17c-2.17,0-3.93,3.27-3.93,7.3s1.76,7.31,3.93,7.31c1.55,0,2.9-1.7,3.53-4.15a2.58,2.58,0,0,1,1.61-.83c4-.29,7.54,11.76,7.9,13L67.15,32A39.68,39.68,0,0,0,65.88,27.26ZM50.16,23.65c-1.59,0-2.89-2.41-2.89-5.38s1.3-5.38,2.89-5.38,2.89,2.41,2.89,5.38S51.75,23.65,50.16,23.65Z"/><path class="cls-17" d="M53.05,18.27c0,3-1.3,5.38-2.89,5.38s-2.89-2.41-2.89-5.38,1.3-5.38,2.89-5.38S53.05,15.3,53.05,18.27Z"/><path class="cls-5" d="M67.15,32a39.68,39.68,0,0,0-1.27-4.71C64.45,23,62.47,17.12,57.15,13.55a17.2,17.2,0,0,0-5.57-2.41h0a2.3,2.3,0,0,0-.85-.17c-2.17,0-3.93,3.27-3.93,7.3s1.76,7.31,3.93,7.31c1.55,0,2.9-1.7,3.53-4.15a2.58,2.58,0,0,1,1.61-.83c4-.29,7.54,11.76,7.9,13m-13.61-10c-1.59,0-2.89-2.41-2.89-5.38s1.3-5.38,2.89-5.38,2.89,2.41,2.89,5.38S51.75,23.65,50.16,23.65Z"/><path class="cls-5" d="M53.05,18.27c0,3-1.3,5.38-2.89,5.38s-2.89-2.41-2.89-5.38,1.3-5.38,2.89-5.38S53.05,15.3,53.05,18.27Z"/><path class="cls-19" d="M67.64,31.83a20,20,0,0,1-.08,3.46,19.29,19.29,0,0,0-.9-3.27l1-.19Z"/><path class="cls-20" d="M176.18,135.84c-.1-.28-.2-.57-.32-.86-1.86-4.62-6.1-9.49-9.77-13.12-.68-.68-1.35-1.32-2-1.9l-1.19-1.1c-1.89-1.69-3.19-2.72-3.19-2.72l-1.31-1L153.11,111l-6.86-5.39-9.15-7.17-3.93-3.09-1.09-.85c0-1.7.08-3.47.11-5.32.19-10.5.29-15.75-.07-18.39-.57-4.12-3.32-19.85-16.79-31.12a53.74,53.74,0,0,0-7.41-5.14l0-.28a6.55,6.55,0,0,0-.12-1.15,30.81,30.81,0,0,1-.39-5.06c0-5,.92-10.89,3.35-11.94,2.16-.93,5.47,1.95,6.52.69h0c1.24-.48,2.07-2.38,2-4.67a9.45,9.45,0,0,0,0-1.06c-.21-2.2-1.16-4-2.32-4.67h0a5.88,5.88,0,0,0-.63-.4h0a4.21,4.21,0,0,0-1.7-.54,5.68,5.68,0,0,0-3.93,1.4c-3.86,2.9-7,15.12-7,24.55h0v0h0v.37a1.9,1.9,0,0,0,.07.45v.07C98.06,29.59,92.48,28,88.62,28a10.43,10.43,0,0,0-1.92.14,8.22,8.22,0,0,1-1.18.13c-.49,0-1-.06-1.11-.35-.82-1.58,8.55-8.29,8.51-8.34h0a2.47,2.47,0,0,0-.39,0c-3.66-.05-11.59,5.68-12.38,6.05-.09-.28,2.3-6.14,2.13-6l-.07.06s0-.07,0-.06-3.88,4.6-4.64,5.53a.24.24,0,0,1-.13.07.17.17,0,0,1-.12,0,42.26,42.26,0,0,0-5.74-2.35.17.17,0,0,0-.12,0,.25.25,0,0,0-.19.43c1.67,1.43,5,4.29,6.1,5.31a.24.24,0,0,1-.14.42,47.85,47.85,0,0,0-10.15,2.68,41.3,41.3,0,0,0-1.21-4.42C64.45,23,62.47,17.12,57.15,13.55a17.2,17.2,0,0,0-5.57-2.41h0a2.3,2.3,0,0,0-.85-.17c-2.17,0-3.93,3.27-3.93,7.3s1.76,7.31,3.93,7.31c1.55,0,2.9-1.7,3.53-4.15a2.58,2.58,0,0,1,1.61-.83c3.69-.27,7,10.11,7.77,12.58C41.37,44,35.53,69.51,35.19,71.12a.29.29,0,0,1-.08.13c-.61.53-5.37,4.72-4.41,5.44a.94.94,0,0,0,.6.14c1,0,2.67-1.1,3.47-1.61a.23.23,0,0,1,.11,0,.24.24,0,0,1,.2.28c-.26,1.59-.72,4-1.15,6.38l-1.18.54L31.46,83c-.6.3-1.23.61-1.86.94-1,.5-1.94,1-2.93,1.62A49.12,49.12,0,0,0,20,90.12l-.06,0h0a33.16,33.16,0,0,0-3.54,3.44c-.09.09-.16.18-.24.27-.57.65-1.09,1.3-1.57,2-.38.49-.73,1-1.07,1.48q-.79,1.2-1.47,2.37a62.51,62.51,0,0,0-3,6.07c-.06.12-.12.25-.17.37-.21.47-.4.94-.59,1.41a.87.87,0,0,0-.07.17c-.16.41-.32.82-.47,1.22,0,0,0,.09,0,.13-.15.42-.31.84-.45,1.26h0c-.15.46-.3.92-.44,1.37h0a53.63,53.63,0,0,0-1.34,5.35h0c-.22,1.21-.4,2.39-.53,3.53s-.24,2.11-.3,3.12v.1c-.1,1.5-.12,2.91-.1,4.22v.09c0,1.3.11,2.51.22,3.59v.11c0,.33.07.64.11.95v.08c.09.65.19,1.24.29,1.78l0,.15c0,.21.09.41.13.61l0,.13q.16.68.33,1.17s0,.08,0,.13.08.22.12.31a1.17,1.17,0,0,0,.05.11,3.26,3.26,0,0,0,.15.32,9,9,0,0,1,.65,1.4,8.4,8.4,0,0,1,.4,1.61,7.36,7.36,0,0,1,0,2.18c0,.22-.06.47-.07.74-.19,3.66,2,4.26,2,8a6.51,6.51,0,0,0,.44,2.7,5.65,5.65,0,0,0,.48.95,2.28,2.28,0,0,0,.36.46,2,2,0,0,0,.49.36,2.51,2.51,0,0,0,1.45.23,3.08,3.08,0,0,0,2.62-1.73c.53-1.73-2.44-3.68-1.82-4.6l.12-.12a1.07,1.07,0,0,1,.56-.2h.22a2.59,2.59,0,0,1,.64.11c1,.34.83,1.34,2.07,2.59a3.7,3.7,0,0,0,2,1.2,2.77,2.77,0,0,0,.62.06,2.42,2.42,0,0,0,1.27-.31,1.71,1.71,0,0,0,.49-.38h0a2.45,2.45,0,0,0,.41-2.07,3,3,0,0,0-2-2.23c-.77-.22-1,.14-1.58-.13-1-.5-1.55-2.47-.79-3.22a1.34,1.34,0,0,1,.75-.32l.11,0a2.29,2.29,0,0,1,1,.14c1.33.51,1.12,2,2.37,2.62a2.68,2.68,0,0,0,1.59.18,2.62,2.62,0,0,0,.4-.11,2.29,2.29,0,0,0,.71-.37,1.79,1.79,0,0,0,.28-.27,2.16,2.16,0,0,0,.43-.87,2.72,2.72,0,0,0,.08-.51,3.18,3.18,0,0,0-.84-2.38,1.85,1.85,0,0,0-.7-.46l-.27-.09c-1.12-.3-2.77,0-5.72-.86-1.29-.36-1.64-.63-1.72-.89a1.25,1.25,0,0,1,.53-1.26,1.27,1.27,0,0,1,.31-.2l.2-.1a1.81,1.81,0,0,1,1.72.22,2.56,2.56,0,0,0,2,.53l.11,0a2.41,2.41,0,0,0,.7-.29,3.24,3.24,0,0,0,.6-.48,3.18,3.18,0,0,0,.31-.34c.09-.11.17-.22.23-.31a2.38,2.38,0,0,0-.66-2.7,2.92,2.92,0,0,0-2.05-.68h-.24a7.22,7.22,0,0,0-2.6.57,8.59,8.59,0,0,0-.87.4l-.52.28a14,14,0,0,0-1.81,1.25,9,9,0,0,0-.7.59c-.32.27-.57.52-.75.69-.07-.18-.14-.38-.21-.59a1.07,1.07,0,0,1-.07-.19c-.06-.17-.12-.36-.19-.55s-.05-.15-.07-.23l-.21-.66c0-.12-.07-.24-.11-.37s-.09-.31-.13-.47-.13-.47-.19-.72l-.12-.48c-.05-.19-.09-.38-.14-.58s-.06-.25-.08-.38c-.09-.41-.17-.83-.25-1.27a1.43,1.43,0,0,1,0-.22c-.05-.24-.08-.48-.12-.72l-.06-.38c-.11-.8-.21-1.64-.28-2.51l0-.46c0-.27,0-.54,0-.81l0-.82v-.27l.07,0h0c0-.5,0-1,0-1.54,0-.2,0-.39,0-.59s0-.68,0-1,0-.47.05-.7c0-.51.09-1,.15-1.53h0c.09-.6.19-1.21.3-1.82v0c.12-.63.25-1.26.41-1.9a37.32,37.32,0,0,1,3.37-8.85,33.11,33.11,0,0,1,3.89-5.78c.64-.75,1.33-1.5,2.08-2.24.28-.27.56-.54.86-.81A30.83,30.83,0,0,1,24.12,97c.9-.62,1.8-1.16,2.68-1.65h0l2.74-1.12,4-1.62c1.17-.33,2.25-.57,3.19-.74-.05,1.85-.17,3.67-.32,4.86-.45,3.37-1.27,29.06-1.59,32.39,0,0,0,0,0,.06-.88,2.34-1.85,3.17-2.83,3.17-2.17-.1-4.32-4.29-5.25-5.2a.33.33,0,0,0-.48.11c-1.59,5.9,5.4,13.53,8.47,14.31a.28.28,0,0,1,.16.12c1.69,2.94-2,6.55-2.93,7.25a.25.25,0,0,0,0,.36c.91,1,4.57,1.61,7.17,1.64.35,0,.68,0,1,0a.24.24,0,0,1,.23.16c1.63,4.12-1.12,7.71-1.78,8.77a.25.25,0,0,0,.16.38,14.9,14.9,0,0,0,2.6.31c7.61.23,9.93-6.5,13.92-7.45h0c4.34.14.43,5.87,1.07,6.13a9,9,0,0,0,2,.15c4.18-.11,8.56-2.82,9.24-2.94,0,0,0,0,0,0a42.61,42.61,0,0,1-3.33,5.14.25.25,0,0,0,.17.4,18.92,18.92,0,0,0,2,.09c.29,0,.57,0,.86,0a63,63,0,0,1-.37,8.63c-.07.62-.16,1.2-.25,1.76s-.2,1.08-.31,1.58a22.92,22.92,0,0,1-.75,2.7h0l0,0h0c-.09.26-.18.5-.28.74l-.08.21c-.07.16-.14.33-.22.48l-.09.2c-.1.21-.19.41-.3.6l-.06.1c-.08.16-.17.3-.25.45a2.14,2.14,0,0,1-.13.19,3.45,3.45,0,0,1-.2.32,2.14,2.14,0,0,0-.13.19l-.31.41a10.73,10.73,0,0,1-.78.84A7.07,7.07,0,0,1,61,182.66c-1.85,1-3.4.7-6.34,1.19a34.24,34.24,0,0,0-8.27,2.61l-.08,0-.09,0h0a16.82,16.82,0,0,0-1.52.81h0l-.7.43,0,0-.63.44-.09.07-.55.44-.16.14c-.15.13-.31.26-.45.4l-.26.25-.33.33c-.19.2-.38.4-.56.62s-.25.29-.4.47a15.43,15.43,0,0,0-1.2,1.65,4.08,4.08,0,0,0-.7,3.58c.69,1.61,3,2,4.37,2.23a12.39,12.39,0,0,0,4.5-.12c.39-.08.79-.17,1.21-.28l.64-.17c1.09-.32,2.3-.72,3.72-1.21l1.52-.53,1.19-.42.19-.08c.88-.31,1.68-.61,2.43-.89h0l1-.37.24-.1.85-.34.19-.08.6-.25.28-.12.62-.27.3-.13.36-.17.29-.13h0l1-.48.16-.08.86-.44c.71-.39,1.33-.75,1.93-1.12a18.68,18.68,0,0,0,3.05-2.25h0a10.59,10.59,0,0,0,1-1.17c.16-.21.3-.42.45-.65v0c.14-.23.28-.47.41-.73a9.5,9.5,0,0,0,.79-2.25,12,12,0,0,0,.25-2.64v-.06h0c0-4.24.37-11.16.89-20.26a25.29,25.29,0,0,0,8-5c5.59,5.51,11.84,7.43,15.49,7.51,2.51.06,3.83-.74,2.92-1.85-3.4-2.94-4.42-5.87-3.35-6a1.87,1.87,0,0,1,1,.39l0,0c4.66,4.37,9,6.31,12.49,7,0,.79.07,1.76.08,2.84,0,.59,0,1.22,0,1.86s0,1.3,0,2a57,57,0,0,1-.57,8.14c0,.18-.06.36-.08.54s0,.28,0,.42v.09a5,5,0,0,0,0,1l0,0a4.41,4.41,0,0,0,4.08,4.06,2.32,2.32,0,0,1,.61.11,7.83,7.83,0,0,1,.85.32h0l.54.24.3.15.28.14.39.21.23.12.43.23.21.12.52.3.15.08.53.32.15.09.57.34.11.07.63.4,0,0h0l1.32.85c1.27.84,2.38,1.61,3,2.12l.16.12h0l0,0c1.49,1,6.64,2.43,10.34,2.1l.61-.07a4.49,4.49,0,0,0,2.76-1.27,2.51,2.51,0,0,0,.27-.37,2.89,2.89,0,0,0,.37-1.43,4.91,4.91,0,0,0-.17-1.25c-.06-.23-.13-.46-.22-.71a10.67,10.67,0,0,0-3-4.43h0c-.27-.24-.55-.46-.84-.68l-.06,0c-.27-.2-.56-.39-.85-.57h0l-.12-.07c-.23-.14-.48-.27-.72-.4l-.3-.15-.61-.29-.3-.13q-.42-.19-.87-.36l-.11,0-.85-.3-.31-.1-.69-.22-.28-.09-1-.27h0c-1.28-.36-2.57-.68-3.81-1l-.25-.07c-.44-.13-.88-.27-1.31-.42a20.35,20.35,0,0,1-2.19-.86,6.55,6.55,0,0,1-.9-.51,7.15,7.15,0,0,1-1.47-1.32,8.87,8.87,0,0,1-.59-.78h0a11.58,11.58,0,0,1-1.49-3.42,17.07,17.07,0,0,1-.39-1.8,28.52,28.52,0,0,1-.27-5.6c2.07-.2,3.27-.78,3.25-.94-.07-.45-1.72-2.24-1.79-3.71,0-.55.45-.75,1.14-.77a21.55,21.55,0,0,1,4,.71,2.46,2.46,0,0,0,.67,0c1.61-.06,3.31-1.55,1.05-2.34-2.53-.89-3.74-4.66-2.27-4.53H122a46.7,46.7,0,0,0,9.32-2c1.15-.51-.51-.83-2.87-1.22s-5.7-4-2.66-4.14a2.84,2.84,0,0,0,.66.08c3.42.07,9.78-5.44,10.13-6.91a.24.24,0,0,0-.27-.3h-.06l-.76.06c-7.45.2-5.35-9.28-4.84-11.18a.25.25,0,0,1,.22-.17l.09,0c2.67,1.77,3.85,2.32,4.25,2.28.91,0-1.19-2.24-1.39-2.45l0,0a6.43,6.43,0,0,1-2.36-7,.26.26,0,0,1,.2-.18.25.25,0,0,1,.2.13,5.32,5.32,0,0,0,4.39,3c.66,0,.9-.24.21-.61-1.16-.62-2.5-3.42-4.9-10.06a.29.29,0,0,1,0-.09c0-.78.07-1.63.11-2.52l.92.53,2.58,1.46c.85.49,1.7,1,2.54,1.43,2.3,1.28,4.52,2.48,6.57,3.55l2,1c1.94,1,3.66,1.79,5.09,2.39l.7.29.77.36a5.91,5.91,0,0,1,2.19,1.86,4.11,4.11,0,0,1,.24.39,5,5,0,0,1,.44,1.17,13.52,13.52,0,0,1,.25,2.94c0,1.4,0,3.18.27,5.63,0,.07,0,.15,0,.23a5.13,5.13,0,0,0,.24,1.12,2.87,2.87,0,0,0,.44.85,0,0,0,0,1,0,0,2,2,0,0,0,.38.38,2.49,2.49,0,0,0,1.34.57l.32,0,.8.06c.44,0,.93.93,1.55,1.67l.27.31a3.58,3.58,0,0,0,.29.27,3,3,0,0,0,.31.22,1.33,1.33,0,0,0,.87.2,1.43,1.43,0,0,0,.38-.1l.2-.1a3.63,3.63,0,0,0,.87-.77,2.86,2.86,0,0,0,.29-.42,2.9,2.9,0,0,0,.34-1.28,5.19,5.19,0,0,0-.15-1.44q-.09-.37-.21-.75a22.82,22.82,0,0,0-3.17-5.51h0a30.21,30.21,0,0,1,2.52,4v0q.16.33.3.66a.59.59,0,0,1,0,.08c.09.22.18.44.25.67l0,.09c.07.21.12.41.18.62l0,.13a4,4,0,0,1,.1.59l0,.15a4.52,4.52,0,0,1,0,.52,1.08,1.08,0,0,0,0,.18,2.61,2.61,0,0,1-.08.5c0,.06,0,.12,0,.17a3.22,3.22,0,0,1-.24.61,3.72,3.72,0,0,0,1.65.52h.13a2.89,2.89,0,0,0,.53-.05h0a1.89,1.89,0,0,0,1.43-1.25h0c.23.7.43,1.39.67,2.09C172.47,141.83,177.68,140.33,176.18,135.84Z"/></svg>