<svg id="Layer_1" data-name="Layer 1" xmlns="http://www.w3.org/2000/svg" viewBox="0 0 111.75 173.15"><defs><style>.cls-1{fill:#fbd3c7;stroke:#453323;stroke-miterlimit:10;}</style></defs><path class="cls-1" d="M32.91,137.67s.3,11.52,4.84,2.73l5.15-20H32.7"/><path class="cls-1" d="M27.45,140.4s-1.51,8.48,2.12,6.67,3.94-6.06,8.18-23.64-4.84-13.93-4.84-13.93"/><path class="cls-1" d="M22.61,138s-2.73,5.75,0,8.78,6.05-4.24,10.3-18.78l3.63-10.91"/><path class="cls-1" d="M27.86,124.85s7.47-4.45,17.77,1.41,3-14.34,3-14.34l-9.49-6.26S24.63,118.59,27.86,124.85Z"/><path class="cls-1" d="M55.63,96.47c1.51,20-2.42,25.45-2.42,25.45l-.91,8.48c-.91,15.45-5.76,7-5.76,7s-1.82-12.42-6.06-17S30.18,124.65,25,135s-8.79,7.27-8.79,7.27c1.1-8,5.53-19.33,11-30.1C32.4,102,38.66,92.23,38.66,92.23s8.59-22.93,12-35.86S63.61,21.23,63.61,21.23l23.83,10.1S80.37,57,57.75,90.71c0,0-1.41,3.23-2.42,6.47"/></svg>