<svg id="Layer_1" data-name="Layer 1" xmlns="http://www.w3.org/2000/svg" viewBox="0 0 43.73 31.29"><defs><style>.cls-1{fill:#66441c;}.cls-2{fill:#fff;}.cls-3{fill:#30200f;}.cls-4{fill:#efdece;}</style></defs><path class="cls-1" d="M14.36,3.73C14,3.69,7.81,5,6.9,8.65c0,0,4.9-3.77,8.08-3Z"/><path class="cls-1" d="M33.61,4.65c.34,0,6.36,2,6.83,5.77,0,0-4.42-4.33-7.67-3.92Z"/><ellipse class="cls-2" cx="13.97" cy="18.07" rx="6.45" ry="7.89"/><path class="cls-1" d="M20.42,18.07c.18,6.5-6.81,11.37-11.57,5.55C5.08,19.06,7.39,10,14,9.93c4.1.17,6.5,4.43,6.45,8.14Zm0,0c.08-3.62-2.55-7.76-6.45-7.63-7.89.62-7.89,14.65,0,15.27,3.9.13,6.53-4,6.45-7.64Z"/><ellipse class="cls-2" cx="33.81" cy="19.53" rx="6.45" ry="7.89"/><path class="cls-1" d="M27.36,19.53c-.08,3.62,2.55,7.76,6.45,7.64,7.89-.62,7.89-14.65,0-15.28-3.9-.12-6.53,4-6.45,7.64Zm0,0C27.18,13,34.17,8.15,38.94,14c3.76,4.56,1.45,13.66-5.13,13.69-4.1-.17-6.5-4.43-6.45-8.14Z"/><ellipse class="cls-3" cx="14.69" cy="20.26" rx="3.99" ry="4.6"/><ellipse class="cls-4" cx="16.06" cy="18.46" rx="1.6" ry="1.84"/><ellipse class="cls-3" cx="33.28" cy="21.83" rx="3.99" ry="4.6"/><ellipse class="cls-4" cx="34.66" cy="20.04" rx="1.6" ry="1.84"/></svg>