<svg xmlns="http://www.w3.org/2000/svg" xmlns:xlink="http://www.w3.org/1999/xlink" viewBox="0 0 1600 900"><defs><style>.cls-1{mask:url(#mask);filter:url(#luminosity-noclip-2);}.cls-16,.cls-18,.cls-2,.cls-64,.cls-68{mix-blend-mode:multiply;}.cls-2{fill:url(#radial-gradient);}.cls-3{fill:none;}.cls-4{isolation:isolate;}.cls-5{clip-path:url(#clip-path);}.cls-6{fill:url(#linear-gradient);}.cls-7{fill:#71cd33;}.cls-8{opacity:0.47;}.cls-9{fill:url(#linear-gradient-2);}.cls-10{fill:url(#linear-gradient-3);}.cls-11{fill:url(#linear-gradient-4);}.cls-12{fill:#6bba2d;}.cls-13{fill:#4aa311;}.cls-14{opacity:0.81;fill:url(#linear-gradient-5);}.cls-15{fill:url(#linear-gradient-6);}.cls-16,.cls-68{opacity:0.26;}.cls-16{fill:url(#linear-gradient-7);}.cls-17{fill:#0c4c29;}.cls-18{opacity:0.43;fill:url(#linear-gradient-8);}.cls-19{fill:url(#linear-gradient-9);}.cls-20{fill:#011c24;}.cls-21{fill:#042f33;}.cls-22{clip-path:url(#clip-path-2);}.cls-23{fill:url(#linear-gradient-10);}.cls-24{opacity:0.8;}.cls-25{opacity:0.77;}.cls-26{fill:#f4edf9;}.cls-27{opacity:0.76;}.cls-28{opacity:0.81;}.cls-29{fill:#f9f0bd;}.cls-30{opacity:0.57;}.cls-31{opacity:0.88;}.cls-32{opacity:0.77;}.cls-33{opacity:0.79;}.cls-34{opacity:0.8;}.cls-35{opacity:0.78;}.cls-36{fill:#a0e6f9;}.cls-37{opacity:0.92;}.cls-38{fill:#b8e9f4;}.cls-39{opacity:0.9;}.cls-40{opacity:0.89;}.cls-41{opacity:1;}.cls-42{opacity:0.7;}.cls-43{fill:#f9e9aa;}.cls-44{fill:#50a9cc;}.cls-45{fill:#3faeb4;}.cls-46{fill:#20968f;}.cls-47{fill:#75e33c;}.cls-48{fill:#5262ce;}.cls-49{fill:#4ab70e;}.cls-50{fill:#0fb53e;}.cls-51{fill:#89d359;}.cls-52{fill:#7abd24;}.cls-53{fill:#69bf24;}.cls-54{fill:#3c8e31;}.cls-54,.cls-65{opacity:0.5;}.cls-55{fill:#69d824;}.cls-56{fill:#69d224;}.cls-57{fill:#69b024;}.cls-58,.cls-59{fill:#fff;}.cls-58{opacity:0.15;}.cls-59,.cls-63{mix-blend-mode:screen;}.cls-59{opacity:0.24;}.cls-60{mask:url(#mask-2);}.cls-61{opacity:0.57;fill:url(#Áåçûìÿííûé_ãðàäèåíò_892);}.cls-62{opacity:0.6;fill:url(#linear-gradient-11);}.cls-63{fill:#2854cc;opacity:0.14;}.cls-64{fill:#213a9f;opacity:0.1;}.cls-65{fill:#c8c2ff;}.cls-66{clip-path:url(#clip-path-3);}.cls-67{fill:url(#linear-gradient-12);}.cls-68{fill:url(#linear-gradient-13);}.cls-69{fill:url(#linear-gradient-14);}.cls-70{fill:#032616;}.cls-71{clip-path:url(#clip-path-4);}.cls-72{filter:url(#luminosity-noclip);}</style><filter id="luminosity-noclip" x="1258.49" y="-7648.12" width="52.96" height="32766" filterUnits="userSpaceOnUse" color-interpolation-filters="sRGB"><feFlood flood-color="#fff" result="bg"/><feBlend in="SourceGraphic" in2="bg"/></filter><mask id="mask" x="1258.49" y="-7648.12" width="52.96" height="32766" maskUnits="userSpaceOnUse"><g class="cls-72"/></mask><radialGradient id="radial-gradient" cx="-129.47" cy="254.49" r="43.86" gradientTransform="matrix(0.42, -0.76, 0.87, 0.27, 1113.63, 30.52)" gradientUnits="userSpaceOnUse"><stop offset="0.23" stop-color="#f4f4f4"/><stop offset="0.67" stop-color="#515151"/><stop offset="1"/></radialGradient><clipPath id="clip-path"><rect class="cls-3" x="1620" width="1600" height="900"/></clipPath><linearGradient id="linear-gradient" x1="2496.69" y1="932.86" x2="2496.69" y2="-2127.68" gradientUnits="userSpaceOnUse"><stop offset="0.2" stop-color="#ffffca"/><stop offset="0.67" stop-color="#9edcff"/><stop offset="1" stop-color="#4e9dff"/></linearGradient><linearGradient id="linear-gradient-2" x1="1612.45" y1="815.35" x2="2558.38" y2="29.93" gradientUnits="userSpaceOnUse"><stop offset="0.17" stop-color="#9595eb"/><stop offset="0.23" stop-color="#929fe8"/><stop offset="0.41" stop-color="#89bde1"/><stop offset="0.6" stop-color="#83d2dc"/><stop offset="0.78" stop-color="#7fdfd9"/><stop offset="0.95" stop-color="#7ee3d8"/></linearGradient><linearGradient id="linear-gradient-3" x1="1487.72" y1="674.8" x2="1888.46" y2="550.79" gradientUnits="userSpaceOnUse"><stop offset="0.03" stop-color="#219f68"/><stop offset="0.84" stop-color="#3fe28c"/><stop offset="0.94" stop-color="#43ea90"/></linearGradient><linearGradient id="linear-gradient-4" x1="1464.62" y1="850.53" x2="1766.74" y2="604.63" gradientUnits="userSpaceOnUse"><stop offset="0.15" stop-color="#108937"/><stop offset="0.33" stop-color="#1c9c45"/><stop offset="0.69" stop-color="#3bcc67"/><stop offset="0.73" stop-color="#3fd26c"/></linearGradient><linearGradient id="linear-gradient-5" x1="2515.21" y1="-2162.51" x2="2553.7" y2="2486.4" gradientUnits="userSpaceOnUse"><stop offset="0.46" stop-color="#fff" stop-opacity="0"/><stop offset="0.5" stop-color="#fffcf2" stop-opacity="0.12"/><stop offset="0.61" stop-color="#fef5d4" stop-opacity="0.38"/><stop offset="0.71" stop-color="#fdefbc" stop-opacity="0.6"/><stop offset="0.8" stop-color="#fdeaa9" stop-opacity="0.78"/><stop offset="0.88" stop-color="#fce79b" stop-opacity="0.9"/><stop offset="0.95" stop-color="#fce593" stop-opacity="0.97"/><stop offset="1" stop-color="#fce490"/></linearGradient><linearGradient id="linear-gradient-6" x1="1919.85" y1="341.62" x2="2388.96" y2="341.62" gradientTransform="matrix(-0.78, 0, 0, 1, 3523.14, 0)" gradientUnits="userSpaceOnUse"><stop offset="0" stop-color="#8a5f3c"/><stop offset="0.24" stop-color="#744d29"/><stop offset="0.66" stop-color="#52300b"/><stop offset="0.89" stop-color="#452500"/></linearGradient><linearGradient id="linear-gradient-7" x1="2242.44" y1="280.6" x2="2557.01" y2="280.6" xlink:href="#linear-gradient-6"/><linearGradient id="linear-gradient-8" x1="10446.79" y1="-1247.82" x2="10641.18" y2="-511.06" gradientTransform="matrix(-0.76, -0.09, -0.15, 0.99, 9346.48, 1444.35)" gradientUnits="userSpaceOnUse"><stop offset="0" stop-color="#96880c"/><stop offset="0.31" stop-color="#002405"/><stop offset="0.62" stop-color="#000b00"/><stop offset="1" stop-color="#596b00"/></linearGradient><linearGradient id="linear-gradient-9" x1="1825.61" y1="1041.21" x2="2564.4" y2="870.69" gradientUnits="userSpaceOnUse"><stop offset="0.02" stop-color="#024e20"/><stop offset="0.82" stop-color="#024e20"/><stop offset="0.94" stop-color="#024e20"/></linearGradient><clipPath id="clip-path-2"><rect class="cls-3" width="1600" height="900"/></clipPath><linearGradient id="linear-gradient-10" x1="-227.59" y1="-135.23" x2="1587.21" y2="898.33" gradientUnits="userSpaceOnUse"><stop offset="0" stop-color="#2a52cb"/><stop offset="0.17" stop-color="#284bbf"/><stop offset="0.48" stop-color="#213aa0"/><stop offset="0.88" stop-color="#181e6f"/><stop offset="0.93" stop-color="#161a67"/></linearGradient><filter id="luminosity-noclip-2" x="1258.49" y="189.36" width="52.96" height="39.25" filterUnits="userSpaceOnUse" color-interpolation-filters="sRGB"><feFlood flood-color="#fff" result="bg"/><feBlend in="SourceGraphic" in2="bg"/></filter><mask id="mask-2" x="1258.49" y="189.36" width="52.96" height="39.25" maskUnits="userSpaceOnUse"><g class="cls-1"><path class="cls-2" d="M1278.83,190.62c13.31-4,28.41,1.69,31.92,13.2s-6.82,14.93-20.79,21.12c-11.47,5.1-27.23,6.18-30.75-5.33S1265.52,194.6,1278.83,190.62Z"/></g></mask><radialGradient id="Áåçûìÿííûé_ãðàäèåíò_892" cx="-129.47" cy="254.49" r="43.86" gradientTransform="matrix(0.42, -0.76, 0.87, 0.27, 1113.63, 30.52)" gradientUnits="userSpaceOnUse"><stop offset="0.23" stop-color="#fff"/><stop offset="0.67" stop-color="#f7ebc2"/><stop offset="1" stop-color="#f3f9f7"/></radialGradient><linearGradient id="linear-gradient-11" x1="543.75" y1="-206.49" x2="1890" y2="998.7" gradientTransform="matrix(0.98, -0.19, 0.19, 0.98, 100.13, 202.78)" gradientUnits="userSpaceOnUse"><stop offset="0" stop-color="#2a52cb"/><stop offset="0.05" stop-color="#284dc3"/><stop offset="0.32" stop-color="#20379b"/><stop offset="0.56" stop-color="#1b277f"/><stop offset="0.78" stop-color="#171d6d"/><stop offset="0.93" stop-color="#161a67"/></linearGradient><clipPath id="clip-path-3"><rect class="cls-3" x="1620" y="-993.88" width="1600" height="900"/></clipPath><linearGradient id="linear-gradient-12" x1="1919.85" y1="-652.26" x2="2388.96" y2="-652.26" xlink:href="#linear-gradient-6"/><linearGradient id="linear-gradient-13" x1="2242.44" y1="-713.28" x2="2557.01" y2="-713.28" xlink:href="#linear-gradient-6"/><linearGradient id="linear-gradient-14" x1="1825.61" y1="47.33" x2="2564.4" y2="-123.2" xlink:href="#linear-gradient-9"/><clipPath id="clip-path-4"><rect class="cls-3" x="1620" y="993.88" width="1600" height="900"/></clipPath></defs><g class="cls-4"><g id="Layer_1" data-name="Layer 1"><g class="cls-5"><path class="cls-6" d="M1483.7,659.12c623.62,289.48,1306.25,248.59,2026,0V-1086.47h-2026Z"/><path class="cls-7" d="M1559.28,612.73s647.13-1.2,1103.83,11.16c325.4,8.81,851.31,6.69,851.31,6.69l2.32,252.78L1458,893.74Z"/><g class="cls-8"><path class="cls-9" d="M2274.25,288.63l17.86-1.2c59.76-2.12,107.28,8,119.75,12,49.77,16.27,191.61,73.07,257.81,171.23,48.71,72.23,50.06,145,50.06,145H986.15S1578,580.12,1741.81,495c153.6-79.76,358.3-176.74,495.17-201.25C2249.13,291.61,2260.73,289.78,2274.25,288.63Z"/></g><path class="cls-10" d="M1480.77,639.28S1434.4,601.6,1513,586.33c0,0-26.2-27.49,0-50.92,0,0,19.16-19.34,52.42-7.12,0,0,38.31-40.74,91.73-15.28,0,0,47.38-15.27,78.63,3.06S1756,572,1756,572s45.74-17.76,64.86,21.46c0,0,60.59-13.31,60.59,26.43,0,0,46-11.6,80.74,27.28,0,0,64-26.18,49.85-2.76l-24.19,11.21-495.95-9.17Z"/><path class="cls-11" d="M1378.92,709.68s73.72-87.56,155.14-62.26c0,0,65.55-45.23,113.91,11.62,0,0,84.46-5,100.8,28.19,0,0,78.58-6.63,101,31.51l22,14.92-500.9,1.67Z"/><path class="cls-12" d="M1597.18,717.52s125.18,24.08,162.73,22.64,133.28-6.68,143.68-6.88,135.74,17.18,181,18.83c166.28,6,490.89-26.15,786.49-40.23,337.69-16.1,638.47-14.84,638.47-14.84l-2.22,221-2047-2.46,9-206.78Z"/><path class="cls-13" d="M1484.61,749.16s99.66-15,224.78,33.58,376.62,1.85,502.16,1.47c130.95-.39,392.4,59.16,523.34,62.3,192.68,4.62,770.16-86,770.16-86l4.09,189.87L1471.39,955Z"/><path class="cls-13" d="M1586.06,755.38s.08-26.8-1.53-28.55-5.39,8.2-2.44,18.43C1584.11,752.29,1586.06,755.38,1586.06,755.38Z"/><path class="cls-13" d="M1581.88,754.75s-1.93-23.28-5.18-24.84S1581.88,754.75,1581.88,754.75Z"/><path class="cls-13" d="M1585.85,754.69s5.52-8.09,4.73-13.78S1586.31,745,1585.85,754.69Z"/><path class="cls-13" d="M1558.82,753.86s.23-31-9.7-40.39c-3-2.81,1.69,4.82,5.37,27.71A59.6,59.6,0,0,1,1555,748c-.15,1.47-6.25-27.7-10.49-29.68,0,0,7.92,25,8.68,33.43C1553.21,751.74,1555.82,770.16,1558.82,753.86Z"/><path class="cls-13" d="M1538.73,751.07s4.41-10.05,1.7-13.29S1535.12,752.35,1538.73,751.07Z"/><path class="cls-13" d="M1535.15,757s4-19.65.08-26.8S1532.93,753.52,1535.15,757Z"/><rect class="cls-14" x="1513.22" y="-1161.96" width="2037.47" height="2044.09"/><path class="cls-15" d="M1665.52-423.41c54.77,19.72-118.36-27.14-97.54,17.94s17.56,283.85,18.57,424.71c1,147.16,1.57,514.55,1.93,601S1578,1001,1592.93,1011.75c26.77,19.31,195.14,185.41,195.14,173.19,7.3-10.32,143.5,72.32,125.61,39.45a421.4,421.4,0,0,1-32.86-79.83,139,139,0,0,1-5.48-37.57c0-4.22,13.14,4.23,25.2-1.41s23-39.45,48.74,1.41,34,42.26,51.48,40.86,24.65-50.73,6.58-56.36-31.77-36.63-35.6-47.9c4.92-14.09,36.15-18.32,54.77-4.22a108.73,108.73,0,0,0,38.34,18.32c-11-25.37-22.46-57.77-41.63-63.41s-25.74-16.9-51.48-14.09S1916.42,983,1900,923.85,1858.91,782,1856,597.94s2.69-452.14,3.65-526c.79-61.39,22.82-147.68,49.23-214.07,19.83-49.84,41.74-87.8,61.16-99.09,23.64-13.73,58.35-57.69,95.12-77.48,33.64-18.1,69-12.49,99-17,20.45-41.32-4.38-50.72-4.38-50.72s-36.51-11.27-73,1.88-34.32,24.42-67.18,22.54-70.35,66.28-90.07,98.21-84.35,100.5-94,146c0-184.09-7.3-394.47-2.92-420.77s-17.44,32.78,2.27-10.42"/><path class="cls-16" d="M1578.32-523.58c9.77,657.93,26.29,1377.27-24.72,1608.36L1801,1064.7c-63.4-90.08-81.07-712.54-66.68-1480.13Z"/><path class="cls-17" d="M737.32-301c-20.73-10.73-33.6-24.43-29.67-32.76,4.52-9.52,29.5-8.2,55.72,2.85,0,0,.91.45,1.39.63-.6-.81-1.2-1.58-1.81-2.4-14.23-19.79-18.4-39.66-9.3-44.33,7.32-3.77,20.85,3.29,33.35,16.41-17-27.38-20.85-53.23-8.07-59.52,13.6-6.73,41.06,11.51,61.66,40.81-2.33-14.43,1.25-26.26,8.18-26.8,6.23-.49,13.09,8.17,16.68,20.17A109.94,109.94,0,0,1,869-399.54c9.74-29.17,29.31-49.11,43.84-44.47,13.12,4.16,17.4,27.3,10.69,53.52,15.15-17,33.63-25.67,42.9-19.65a11.39,11.39,0,0,1,1,.77c-1.54-31.6,9-56.48,24.54-56.47,16.17,0,31.71,27.38,34.54,61a8.13,8.13,0,0,1,.1,1.3c.92-2.27,1.84-4.65,2.88-7,15.31-34.21,41.53-56.48,58.59-49.67,13,5.27,16.9,25.67,11.47,50.18l.1-.24c13.34-21,32.71-33.38,43.29-27.72,6,3.23,7.92,11.46,6,21.77,2.56-2.22,5.3-3.32,8-2.84,4.61.84,8,6.17,9.43,13.61,6.37-9.07,14.48-14.16,19.8-11.76,2.85,1.28,4.43,4.57,4.73,8.94,4.61-21.45,15.89-36.43,27.12-34.63,8.63,1.33,14.94,12.33,17.15,27.36,10-16.68,24.52-26.66,33.12-22.51,5.17,2.48,7.15,9.39,6.09,18.18,5.49-7.89,11.84-13.74,17.79-16.74l17.22,3.46c3.26,6.35,2.57,17.21-2,29a82.46,82.46,0,0,1,11.79-7.54c18.34-9.63,37.41-11.57,42.8-4.48a58.65,58.65,0,0,1,5.67-5.2l26.24,5.29a40.85,40.85,0,0,1-2.23,14.55c6.24-6,12.89-8.75,17.26-6.5,4.13,2.15,5.11,8.33,3.18,15.9,4,1.63,7.66,7.1,10.09,14.49,2-12.7,7.58-21.18,14.7-20.66s14,10.33,17.77,23.8c7.9-3.27,23.58,8.72,35.14,26.9a92.7,92.7,0,0,1,6.85,12.88c1.86-17.05,9.08-29,17.79-27.89s15.94,14.7,18.12,32.05c3-8.27,7.89-13.21,13.47-12.58,9.43,1.06,17.5,17.48,18.61,37.38,8.76-11.93,19.22-18,27.35-14.62,10.53,4.47,13.58,23.59,7.93,44.67,2.22-3.6,5.06-5.62,8.14-5.23,5.69.81,10.43,9.6,11.8,20.89,4.7-5.69,10.07-8.48,14.44-6.75,2.55,1,4.41,3.44,5.61,6.77,3.11-10,8.5-16.14,15.13-15.75,11.81.75,23.07,22,25.11,47.42l0,.27c6.29-24.28,19-40,32.7-37.51,17.93,3.24,30.66,36.63,28.45,74.69-.18,2.55-.43,5.08-.66,7.57.23-.38.41-.76.65-1.09,17.78-27.79,43.62-43.21,57.78-34.51,13.45,8.28,11.38,35.6-4.29,62.23.39,0,.78-.13,1.17-.17,10.84-.22,22.93,17.32,28.4,40.13,6.08-26.32,20.25-44.18,33.65-40.75,14.64,3.74,22.68,31.64,17.92,62.24a123.22,123.22,0,0,1-3,13.83c8.53-8.57,18.41-12.45,23.63-8.68,5.79,4.22,3.49,16.42-5,27.72,31.19-14.42,63.34-15.55,72.12-2.36,8.21,12.33-6.78,32.7-33.94,47.44,16.73-4.73,31.74-3.56,36.34,3.62,5.8,9-6.83,24-28.14,33.54-.88.42-1.75.8-2.62,1.12l1.43.24c27.85,4.45,50.12,16.72,49.79,27.43-.35,9.31-17.76,14.35-40.71,12.53,20.62,7.42,35.37,19.21,33.39,27.13-1.71,6.88-15.4,8.6-32.66,5,7.94,9.67,11.31,18.7,7.43,22.36-3,2.85-9.75,1.68-17.66-2.32,12.14,13.84,17.51,27.42,11.91,32.18-5.39,4.65-19.52-.65-33.68-12,15,24.86,18.94,47.84,8.26,53-8.77,4.21-24.84-4.6-40.13-20.8,9.1,15.32,11.53,28.52,4.94,33-8.5,5.59-28.54-5-46.37-24,.07.42.08.84.16,1.27,2.33,21.89-4,39.36-14.09,38.93-8.17-.33-16.36-12.2-20.49-28.26a99.36,99.36,0,0,1-5.41,9.18c-14,20.21-33.71,31.11-44.1,24.35-9-5.88-7.9-23.31,1.88-41.1a77.78,77.78,0,0,1-10.82,3.72c-18.34,4.79-35.89,2.61-39.25-4.94-2.43-5.28,3-11.82,12.85-16.89-15-3.27-26.07-9.84-26.08-16,0-4.22,5.2-7.3,13.31-8.63-13-4.14-22.31-10.83-21.68-16.14l0-.25c-12.71,2.08-23.55.14-26.52-5.38-2-3.71.06-8.33,4.83-12.66-11.14,5.37-21.56,6.27-26.39,1.49-5.06-5-2.68-14.8,5-24.64-6.09,3.61-11.88,4.58-15.83,2-7.38-4.78-5.54-20.09,4-34.58-2,.56-4,1.12-6,1.6-25.79,6-50.24,2.26-54.63-8.27-1.49-3.54-.38-7.43,2.63-11.33-4.38,1-8.15.6-10.45-1.46a6.78,6.78,0,0,1-1.92-3.09c-4.28,9.62-10.62,15.24-16.67,13.76-5.37-1.38-9.27-8.08-11-17.27-7.43,14.22-18,22.45-26.23,19.24-5.58-2.24-8.82-9.25-9.49-18.46-3.19,2.11-6.46,2.82-9.32,1.74-2.36-.94-4.15-3-5.33-5.94-3.82,11.13-10.17,17.94-17,16.75s-12.08-10.18-14.38-22.29c-4.74,5.52-10,8.44-14.17,7.21-.48,18.31-6.61,31.22-16.45,31.51-8.3.21-17.36-8.55-24.44-22.15-5.74,12.83-15.22,20.73-21.81,17.83-5.31-2.4-7.2-11.1-5.32-21.4-1.74,1.21-24.13-21.68-25.83-20.77,0,0-39.86,25.07-50.55,20.9-8.89-3.44-7.69-37.74-7.69-37.74-1.14-1.73-31.14-8.85-32.11-10.86-3,10-8.6,16.54-14.29,15.73-7.07-1-11.75-12.95-10.88-27.17-12.4,8-24.2,10.8-31.34,6.1-8.42-5.57-7.9-20,0-36.26-4.18-1.13-7.48-6.5-9-13.85-7.55,9.3-16.28,14.18-22.66,11.61s-8.86-11.92-7.08-23.64c-2.45,1.88-5,2.71-7.41,2.32-3-.58-5.43-2.93-7.29-6.57-4.75,7.73-10.8,12.07-16.59,11-8.66-1.58-14.11-14.45-14.13-30.78-5.62,7.08-12.1,10.78-17.38,9.11-5.94-1.93-8.89-10.23-8.24-20.94a5.91,5.91,0,0,1-3.12,1.67c-2.94.55-6.37-1.08-9.74-4.3.87,4.93.07,9-2.87,11.23-8.59,6.81-31.52-3.09-51.24-22.15-1.61-1.5-3.08-3.07-4.54-4.65,1.76,17.74-3.58,32-12.27,32.23-4.54.15-9.15-3.83-12.82-10.29,2.22,12.71-.16,22.52-6.8,24.19-6.36,1.61-15.07-4.83-22.25-15.51,2.09,6.36,1.75,11.4-1.57,13.6-5.1,3.25-15.37-.86-25.59-9.5l-.08.14c-1.81,5-13,5.85-26.13,2.46,6.46,5.51,9.62,11,7.65,14.66-2.81,5.32-15.43,5-29.88-.15,6.27,9.7,8,18.32,3.49,21.67C884-67.61,867.71-75.15,854-89.14a77,77,0,0,1-7.7-9.06c.44,20.72-6.55,36.54-17.08,36.76-12.06.34-24.28-19.8-27.25-44.89a96.94,96.94,0,0,1-.6-10.9c-10.84,11.8-23.32,17.73-30.6,13.63-9-5.09-6.57-23.65,5.42-41.4,0,0,.47-.7.7-1-24.18,6.88-46.4,5.33-51.19-4.09-3.68-7.43,4.35-17.63,19.17-26-20.69,5.85-38.52,4.9-44.26-3.49-7-10.28,6.82-28.15,31.22-41.65-17.45,2.25-32.19-.67-34.78-7.68s8.1-16.05,25-21.58c-8.76-.74-15.12-3.35-16.47-7.48-1.68-5.21,5.3-11.31,16.68-15.4-16.71-6.08-27.85-15-26.21-21.87C697.87-303.21,716.05-305.6,737.32-301Z"/><path class="cls-18" d="M772.72-223.2c-.16.28-.45.59-.68.92-12.16,16.43-14.49,33.67-5.26,38.49,7.42,3.91,20.1-1.47,31.07-12.32a72.82,72.82,0,0,0,.69,10.14c3.17,23.43,15.74,42.22,28,42.07,10.78-.13,17.75-14.71,17.26-34a81.69,81.69,0,0,0,7.83,8.51c14.13,13.18,30.71,20.36,37.21,16,4.51-3.09,2.73-11.1-3.75-20.22,14.74,5,49.93,19.32,52.76,14.32,1.93-3.35-40.43-50.24-3.58-29.56v-.16c10.48,8.17,21.64,12.74,26.15,9.19,7.47-6.07-25.27-58.27-27.48-64.24,7.45,10,41.84,65.92,48.32,64.53,6.74-1.54,12.57-8.85,10.24-20.7,3.8,6,8.49,9.75,13.15,9.73,8.79-.09,14.14-13.34,12.31-29.86,1.47,1.48,3,2.91,4.62,4.4,20.19,17.9,43.62,27.38,52.33,21.15,3-2.15,3.81-5.82,2.84-10.41,3.39,3,15.56,20.3,21.64,22.11,5.41,1.63,11.93-1.75,17.61-8.26.08,15.21,5.83,27.25,14.61,28.86,5.91,1.06,29.4-4.2,31.77-6-1.69,10.9-10.17,39.15-3.65,41.53s26.43-21.4,34.08-30c1.6,6.85.88,41.44,9.55,46.69,7.22,4.46,19.29,2,31.82-5.31-.76,13.22,4.06,24.39,11.26,25.39,5.76.82,42.84-18.06,45.86-27.31,1,1.86-3.54,64.93,22.94,68.09,33.19,4,34.09-57.57,35.87-58.67-1.91,9.58,12.43,65.11,34,69.8,7.19,1.51,22.11-8.25,24.62-31.28,1.92,18.49,8.47,33.9,22.56,35.79,23,3.13,31.44-36.56,36.19-41.72,2.41,11.3,10.53,35.77,24.45,33.36,6.69-1.14,5-22,12.51-51.69-3.24,17.91,1.25,46.23,17.66,47.88,19,2,18.5-57.59,25.94-70.77,1.78,8.52,3.26,71.37,8.77,72.67,6.18,1.5,12.53-3.66,16.91-12.54a6.41,6.41,0,0,0,1.94,2.84c2.38,2,6.2,2.43,10.64,1.55-3,3.53-4.1,7.12-2.59,10.5,4.55,9.79,29.49,13.53,55.7,8.3,2.09-.49,4.12-.94,6.09-1.45-9.56,13.4-11.34,27.59-3.8,32.14,4,2.45,9.93,1.6,16.12-1.69-7.71,9.07-10.07,18.16-5,22.89,5,4.56,36.34-6.95,47.69-11.88-4.8,4-25.15,22.39-16.51,27.79,8.41,5.26,54.45-11.88,54.45-11.88-12.66,8.32-33.84,23.63-27.86,35.29,2.78,5.44,51.65,3.38,66.86,6.53-10,4.64-55.69,19.2-53.18,24.24,3.49,7,21.42,9.25,40,5a79.83,79.83,0,0,0,11-3.34c-9.8,16.45-10.86,32.65-1.6,38.25,10.56,6.38,30.59-3.54,44.67-22.24a73.41,73.41,0,0,0,5.53-8.43c4.31,15,12.65,26.12,21,26.53,10.37.53,16.64-15.67,14.14-36.09-.09-.38-.16-.81-.16-.81C1877.09,105,1897.52,115.09,1906,110c6.78-4.06,4.25-16.41-5.09-30.73,15.67,15.23,32.1,23.63,41,19.79a9.45,9.45,0,0,0,4.9-5.29c7.77,9.54,11,18.34,7.16,22-3,2.85-9.75,1.68-17.66-2.32,12.14,13.84,17.51,27.42,11.91,32.18-5.39,4.65-19.52-.65-33.68-12,15,24.86,18.94,47.84,8.26,53-8.77,4.21-24.84-4.6-40.13-20.8,9.1,15.32,11.53,28.52,4.94,33-8.5,5.59-28.54-5-46.37-24,.07.42.08.84.16,1.27,2.33,21.89-4,39.36-14.09,38.93-8.17-.33-16.36-12.2-20.49-28.26a99.36,99.36,0,0,1-5.41,9.18c-14,20.21-33.71,31.11-44.1,24.35-9-5.88-7.9-23.31,1.88-41.1a77.78,77.78,0,0,1-10.82,3.72c-18.34,4.79-35.89,2.61-39.25-4.94-2.43-5.28,3-11.82,12.85-16.89-15-3.27-26.07-9.84-26.08-16,0-4.22,5.2-7.3,13.31-8.63-13-4.14-22.31-10.83-21.68-16.14l0-.25c-12.71,2.08-23.55.14-26.52-5.38-2-3.71.06-8.33,4.83-12.66-11.14,5.37-21.56,6.27-26.39,1.49-5.06-5-2.68-14.8,5-24.64-6.09,3.61-11.88,4.58-15.83,2-7.38-4.78-5.54-20.09,4-34.58-2,.56-4,1.12-6,1.6-25.79,6-50.24,2.26-54.63-8.27-1.49-3.54-.38-7.43,2.63-11.33-4.38,1-8.15.6-10.45-1.46a6.78,6.78,0,0,1-1.92-3.09c-4.28,9.62-10.62,15.24-16.67,13.76-5.37-1.38-9.27-8.08-11-17.26-7.43,14.21-18,22.44-26.23,19.23-5.58-2.24-8.82-9.25-9.49-18.46-3.19,2.11-6.45,2.82-9.32,1.74-2.36-.94-4.15-3-5.33-5.94-3.82,11.13-10.17,17.94-17,16.75s-12.08-10.18-14.38-22.29c-4.74,5.52-10,8.44-14.17,7.21-.48,18.31-6.61,31.22-16.45,31.51-8.3.21-17.36-8.55-24.44-22.15-5.74,12.83-15.22,20.73-21.81,17.83-5.31-2.4-7.2-11.1-5.32-21.4-1.74,1.21-24.13-21.68-25.83-20.77,0,0-39.86,25.08-50.55,20.9-8.89-3.44-7.69-37.74-7.69-37.74-1.14-1.73-31.14-8.85-32.11-10.86-3,10-8.6,16.54-14.29,15.73-7.07-1-11.75-12.95-10.88-27.17-12.4,8-24.2,10.8-31.34,6.1-8.42-5.57-7.9-20,0-36.26-4.18-1.13-7.48-6.5-9-13.85-7.55,9.3-16.28,14.18-22.66,11.61s-8.86-11.92-7.08-23.64c-2.45,1.88-5,2.71-7.41,2.32-3-.58-5.43-2.93-7.29-6.57-4.75,7.73-10.8,12.07-16.59,11-8.66-1.58-14.11-14.45-14.13-30.78-5.62,7.08-12.1,10.78-17.38,9.11-5.94-1.93-8.89-10.23-8.24-20.94a5.91,5.91,0,0,1-3.12,1.67c-2.94.55-6.37-1.08-9.74-4.3.87,4.93.07,9-2.87,11.23-8.59,6.81-31.52-3.09-51.24-22.15-1.61-1.5-3.08-3.07-4.54-4.65,1.76,17.74-3.58,32-12.27,32.23-4.54.15-9.15-3.83-12.82-10.29,2.22,12.71-.16,22.52-6.8,24.19-6.36,1.61-15.07-4.83-22.25-15.51,2.09,6.36,1.75,11.4-1.57,13.6-5.1,3.25-15.37-.86-25.59-9.5l-.08.14c-1.81,5-13,5.85-26.13,2.46,6.46,5.51,9.62,11,7.65,14.66-2.81,5.32-15.43,5-29.88-.15,6.27,9.7,8,18.32,3.49,21.67C884-67.6,867.71-75.15,854-89.14a77,77,0,0,1-7.7-9.06c.44,20.72-6.55,36.54-17.08,36.76-12.06.34-24.28-19.8-27.25-44.89a96.94,96.94,0,0,1-.6-10.9c-10.84,11.8-23.32,17.73-30.6,13.63-9-5.09-6.57-23.65,5.42-41.4,0,0,.47-.7.7-1-24.18,6.88-46.4,5.33-51.19-4.09-3.68-7.43,4.35-17.63,19.17-26-20.69,5.85-38.52,4.9-44.26-3.49-6.91-10.22,6.66-27.92,30.82-41.46C741.42-218.54,756.64-219.14,772.72-223.2Z"/><path class="cls-19" d="M1578.26,864.14s185.87-42.9,519.94,28.59,731.45,15.46,777.94-.88c-1.52,50.15-5.61,98.47-9.49,143.24l-1288.39-1.42Z"/><path class="cls-20" d="M1575.5,967.25s-163.68-44.58-162.5-89.32,137.07,31.82,190.59,76.47c-155.83-185.15-75.39-79.93-119.27-142.6s3.79-93.74,82.06,1.22c62.68,92.1,81.16,119,81.16,119s-45.7-125-63.56-191,40.44-110,85.5,5.23c9.93-36.24,10.82-39.83,10.82-39.83s-13.37,54.62.36-9.23,69.37-25.42,38.44,68.23c33.59-34.25-10.57,4.57,36.5-29.36s104.71,4.5,44,81.55S1757.49,873,1757.49,873l-42.55,48,112.5-47.62c77-25.28,110.07,9.47,23,64-56.22,28-103.93,49.08-103.93,49.08s48-.67,126-5.23,77.16,61.41-11.75,59.71c-103.37-27.75-285.29-73.67-285.29-73.67"/><path class="cls-21" d="M1495.48,784s121.23,167.56,137.63,182.77c0,0-122.77-179.32-137.63-182.77"/><path class="cls-21" d="M1595.49,963.36s-162.09-69.67-165.28-73.7,148.9,60.58,165.28,73.7"/><path class="cls-21" d="M1629.79,787.51l-33-29s19,7.39,33,29"/><path class="cls-21" d="M1530,822.61s-15.28-33.48-15.62-40.78,15.89,20.23,15.62,40.78"/><path class="cls-21" d="M1549.61,858.07l-43.86-24.63s23.86,6.43,43.86,24.63"/><path class="cls-21" d="M1570.08,876.93c.08.12-7.72-26.07-3.62-36.93s1.42,25.18,3.7,37"/><path class="cls-21" d="M1595.65,912.89s-3.93-29.57-1.71-38.33,8.15,29.32,1.71,38.33"/><path class="cls-21" d="M1503.42,894.8,1545.75,938s-18.69-8.8-42.33-43.23"/><path class="cls-21" d="M1478.66,908.55s-30.44-25.16-34.61-32.68,30.74,22.71,34.61,32.68"/></g><g class="cls-22"><rect class="cls-23" width="1600" height="900"/><g class="cls-24"><g class="cls-25"><path class="cls-26" d="M789.3,440.68l-.17,6a1.93,1.93,0,0,0,1.31,1.88l5.7,1.93-6-.17a1.93,1.93,0,0,0-1.88,1.31l-1.93,5.7.17-6a1.93,1.93,0,0,0-1.31-1.87l-5.7-1.93,6,.16a1.91,1.91,0,0,0,1.87-1.3Z"/></g><path class="cls-26" d="M586.61,373.57l1.09,5.92a1.92,1.92,0,0,0,1.66,1.56l6,.71-5.92,1.08a1.93,1.93,0,0,0-1.56,1.67l-.71,6-1.08-5.91A1.94,1.94,0,0,0,584.4,383l-6-.7,5.91-1.09a1.93,1.93,0,0,0,1.57-1.66Z"/><g class="cls-27"><path class="cls-26" d="M1006.8,191.55l.59,6a1.92,1.92,0,0,0,1.54,1.7l5.93,1.21-6,.59a1.94,1.94,0,0,0-1.7,1.54l-1.21,5.93-.59-6a2,2,0,0,0-1.54-1.71l-5.93-1.2,6-.6a1.93,1.93,0,0,0,1.71-1.54Z"/></g><path class="cls-26" d="M1206.41,419.33l-.17,6a1.93,1.93,0,0,0,1.31,1.88l5.7,1.93-6-.17a1.93,1.93,0,0,0-1.88,1.31l-1.93,5.7.17-6a1.93,1.93,0,0,0-1.31-1.87l-5.7-1.93,6,.16a1.91,1.91,0,0,0,1.88-1.3Z"/><g class="cls-28"><path class="cls-26" d="M471.81,723.43l-.17,6a2,2,0,0,0,1.31,1.88l5.7,1.92-6-.16a1.93,1.93,0,0,0-1.88,1.31l-1.93,5.69.17-6a1.93,1.93,0,0,0-1.31-1.87l-5.7-1.93,6,.16a1.93,1.93,0,0,0,1.87-1.31Z"/></g><path class="cls-26" d="M196.72,576.87l4.09,4.42a1.92,1.92,0,0,0,2.24.43l5.42-2.6-4.41,4.08a1.92,1.92,0,0,0-.43,2.25l2.6,5.42-4.08-4.42a1.94,1.94,0,0,0-2.25-.43l-5.42,2.6,4.41-4.08a1.91,1.91,0,0,0,.43-2.24Z"/><path class="cls-29" d="M143,153.36l-5.89,9.21a3.5,3.5,0,0,0,.27,4.15l7.07,8.35-9.21-5.9a3.5,3.5,0,0,0-4.15.28l-8.35,7.06,5.9-9.21a3.49,3.49,0,0,0-.28-4.15l-7.06-8.34,9.21,5.89a3.5,3.5,0,0,0,4.15-.27Z"/><g class="cls-30"><path class="cls-26" d="M380.94,37.68l-.19,7.2a2.28,2.28,0,0,0,1.56,2.24l6.82,2.31-7.2-.2a2.29,2.29,0,0,0-2.24,1.57l-2.31,6.81.2-7.19A2.31,2.31,0,0,0,376,48.17l-6.81-2.3,7.19.19a2.31,2.31,0,0,0,2.25-1.56Z"/></g><path class="cls-26" d="M1423.84,236.13l-2.22,5.59a1.93,1.93,0,0,0,.58,2.21l4.68,3.77-5.58-2.22a1.94,1.94,0,0,0-2.22.58l-3.77,4.68,2.23-5.58a2,2,0,0,0-.58-2.22l-4.69-3.77,5.59,2.23a1.94,1.94,0,0,0,2.21-.58Z"/><path class="cls-26" d="M1224,63.46l-1,8.76a2.84,2.84,0,0,0,1.66,2.92l8.07,3.58-8.76-1a2.82,2.82,0,0,0-2.92,1.66l-3.58,8.07,1-8.77a2.82,2.82,0,0,0-1.66-2.92l-8.07-3.57,8.77,1a2.85,2.85,0,0,0,2.92-1.66Z"/><g class="cls-31"><path class="cls-26" d="M1555.45,603.29l.42,6.23a2,2,0,0,0,1.54,1.81l6.08,1.43-6.23.43a2,2,0,0,0-1.81,1.54l-1.43,6.08-.43-6.23a2,2,0,0,0-1.53-1.81l-6.08-1.43,6.23-.43a2,2,0,0,0,1.81-1.54Z"/></g><path class="cls-29" d="M1527.13,60.45l1.82,5.73a1.94,1.94,0,0,0,1.86,1.34l6-.06-5.73,1.83a1.9,1.9,0,0,0-1.34,1.85l0,6L1528,71.42a1.93,1.93,0,0,0-1.85-1.34l-6,0,5.73-1.82a1.91,1.91,0,0,0,1.34-1.85Z"/><path class="cls-26" d="M624,820.51l-.26,9.69a3.09,3.09,0,0,0,2.1,3l9.18,3.11-9.69-.27a3.1,3.1,0,0,0-3,2.11l-3.11,9.18.27-9.69a3.09,3.09,0,0,0-2.11-3l-9.18-3.11,9.69.27a3.1,3.1,0,0,0,3-2.11Z"/><g class="cls-32"><path class="cls-26" d="M113.87,802.34l.24,6a1.91,1.91,0,0,0,1.43,1.78l5.81,1.55-6,.24a1.9,1.9,0,0,0-1.78,1.43L112,819.16l-.24-6a1.91,1.91,0,0,0-1.43-1.78l-5.81-1.55,6-.24a1.91,1.91,0,0,0,1.78-1.43Z"/></g><path class="cls-29" d="M1389.9,804.74l-1.57,5.8a1.91,1.91,0,0,0,.83,2.13l5.08,3.21-5.8-1.57a1.93,1.93,0,0,0-2.13.83l-3.21,5.09,1.57-5.81a1.93,1.93,0,0,0-.83-2.13l-5.09-3.21,5.81,1.57a1.92,1.92,0,0,0,2.13-.83Z"/><path class="cls-26" d="M1245,620.27l5.1,12.68a4.37,4.37,0,0,0,4.42,2.73l13.63-1.14-12.69,5.1a4.38,4.38,0,0,0-2.72,4.43l1.14,13.62L1248.81,645a4.37,4.37,0,0,0-4.42-2.73l-13.62,1.14,12.68-5.1a4.38,4.38,0,0,0,2.73-4.43Z"/><g class="cls-33"><path class="cls-26" d="M357.25,390l1,5.93a1.92,1.92,0,0,0,1.64,1.6l6,.81-5.94,1a1.92,1.92,0,0,0-1.59,1.64l-.81,6-1-5.93a1.93,1.93,0,0,0-1.64-1.6l-6-.81,5.93-1a1.93,1.93,0,0,0,1.6-1.64Z"/></g><path class="cls-26" d="M590.58,155.63l-.46,6a1.91,1.91,0,0,0,1.21,1.94l5.59,2.21-6-.46a1.92,1.92,0,0,0-1.94,1.21l-2.21,5.59.46-6a1.93,1.93,0,0,0-1.21-1.94L580.44,162l6,.46a1.91,1.91,0,0,0,1.94-1.21Z"/><path class="cls-26" d="M1322.61,490.44l-.16,6a1.93,1.93,0,0,0,1.31,1.87l5.69,1.93-6-.16a1.93,1.93,0,0,0-1.88,1.3l-1.92,5.7.16-6a1.93,1.93,0,0,0-1.31-1.88l-5.69-1.93,6,.17a1.93,1.93,0,0,0,1.87-1.31Z"/><g class="cls-34"><path class="cls-26" d="M17,509.43l-.28,10.41A3.32,3.32,0,0,0,19,523.08l9.86,3.34-10.41-.28a3.32,3.32,0,0,0-3.24,2.26l-3.34,9.86.28-10.41a3.31,3.31,0,0,0-2.26-3.24L0,521.27l10.41.28a3.32,3.32,0,0,0,3.24-2.26Z"/></g><path class="cls-26" d="M1531.29,227.22l-4.82,6.43a2.55,2.55,0,0,0,0,3l4.72,6.5-6.43-4.82a2.55,2.55,0,0,0-3,0l-6.51,4.72,4.83-6.43a2.58,2.58,0,0,0,0-3.05l-4.72-6.5,6.43,4.82a2.57,2.57,0,0,0,3,0Z"/><g class="cls-35"><path class="cls-26" d="M1234,320.56l1.75,6.83a2.25,2.25,0,0,0,2.08,1.69l7,.34-6.83,1.75a2.25,2.25,0,0,0-1.69,2.08l-.34,7.05-1.75-6.84a2.27,2.27,0,0,0-2.08-1.69l-7-.34,6.84-1.75a2.27,2.27,0,0,0,1.69-2.08Z"/></g><path class="cls-26" d="M1333.49,365l-2.42,5.5a1.92,1.92,0,0,0,.5,2.23l4.54,3.94-5.5-2.42a1.92,1.92,0,0,0-2.23.5l-3.94,4.54,2.43-5.5a1.93,1.93,0,0,0-.51-2.23l-4.54-3.94,5.5,2.42a1.92,1.92,0,0,0,2.23-.5Z"/><path class="cls-36" d="M953.42,509.58l-2.22,5.59a1.91,1.91,0,0,0,.58,2.21l4.68,3.77-5.59-2.22a1.93,1.93,0,0,0-2.21.58l-3.77,4.68,2.23-5.59a1.93,1.93,0,0,0-.59-2.21l-4.68-3.77,5.59,2.23a1.94,1.94,0,0,0,2.21-.58Z"/><path class="cls-26" d="M535.37,497.44l1.5,5.82a1.93,1.93,0,0,0,1.77,1.45l6,.29-5.83,1.49a1.92,1.92,0,0,0-1.44,1.77l-.29,6-1.5-5.83a1.93,1.93,0,0,0-1.77-1.44l-6-.29,5.83-1.49a1.92,1.92,0,0,0,1.44-1.77Z"/><g class="cls-37"><path class="cls-38" d="M605.63,555.86l-.17,6a1.93,1.93,0,0,0,1.31,1.87l5.69,1.93-6-.16a1.91,1.91,0,0,0-1.87,1.3l-1.93,5.7.16-6a1.91,1.91,0,0,0-1.3-1.88l-5.7-1.93,6,.17a1.93,1.93,0,0,0,1.88-1.31Z"/></g><path class="cls-26" d="M368.59,662.19,373,674a4,4,0,0,0,4,2.64l12.59-.68-11.84,4.36a4,4,0,0,0-2.63,4l.68,12.59L371.4,685.1a4,4,0,0,0-4-2.63l-12.6.68,11.84-4.36a4,4,0,0,0,2.63-4Z"/><path class="cls-26" d="M365.66,536.07l-.16,6a1.93,1.93,0,0,0,1.31,1.88l5.69,1.93-6-.17a2,2,0,0,0-1.88,1.31l-1.92,5.7.16-6a1.93,1.93,0,0,0-1.31-1.88l-5.69-1.93,6,.17a1.93,1.93,0,0,0,1.87-1.31Z"/><g class="cls-39"><path class="cls-26" d="M296.53,723.88l-.07,6a1.91,1.91,0,0,0,1.33,1.85l5.73,1.84-6-.07a1.92,1.92,0,0,0-1.86,1.34l-1.84,5.73.07-6a1.91,1.91,0,0,0-1.33-1.85l-5.73-1.84,6,.07a1.92,1.92,0,0,0,1.86-1.34Z"/></g><path class="cls-36" d="M39.71,869.92,42,875.46a1.9,1.9,0,0,0,2,1.17l6-.58-5.55,2.32a1.92,1.92,0,0,0-1.17,2l.59,6-2.33-5.55a1.92,1.92,0,0,0-2-1.17l-6,.59,5.55-2.33a1.92,1.92,0,0,0,1.17-2Z"/><path class="cls-26" d="M453.38,854.45l-.16,6a1.93,1.93,0,0,0,1.31,1.88l5.69,1.93-6-.17a1.94,1.94,0,0,0-1.88,1.31l-1.92,5.7.16-6a1.93,1.93,0,0,0-1.31-1.88l-5.69-1.93,6,.17a1.93,1.93,0,0,0,1.87-1.31Z"/><g class="cls-40"><path class="cls-26" d="M931.33,597.38l1.4,8a2.61,2.61,0,0,0,2.24,2.14l8.08,1-8,1.4a2.59,2.59,0,0,0-2.14,2.23l-1,8.08-1.4-8a2.6,2.6,0,0,0-2.23-2.14l-8.08-1,8-1.4a2.62,2.62,0,0,0,2.14-2.24Z"/></g><path class="cls-26" d="M1298.94,216.71l1.36,5.86a1.92,1.92,0,0,0,1.74,1.48l6,.43-5.86,1.36a1.94,1.94,0,0,0-1.49,1.74l-.42,6-1.36-5.86a1.94,1.94,0,0,0-1.74-1.49l-6-.42,5.86-1.36a1.93,1.93,0,0,0,1.48-1.74Z"/><path class="cls-26" d="M1578.58,13.68l-1.67,5.78a1.92,1.92,0,0,0,.8,2.14l5,3.3L1577,23.23a2,2,0,0,0-2.15.79l-3.3,5,1.68-5.77a1.93,1.93,0,0,0-.8-2.15l-5-3.3,5.78,1.67a1.9,1.9,0,0,0,2.14-.79Z"/></g><g class="cls-42"><circle class="cls-26" cx="89.65" cy="47.73" r="1.91"/><path class="cls-26" d="M221.16,77.84a1.91,1.91,0,1,1-1.91-1.91A1.91,1.91,0,0,1,221.16,77.84Z"/><path class="cls-26" d="M275.9,204.67a1.91,1.91,0,1,1-1.91-1.91A1.91,1.91,0,0,1,275.9,204.67Z"/><path class="cls-26" d="M168.24,450.91a1.91,1.91,0,1,1-1.91-1.91A1.91,1.91,0,0,1,168.24,450.91Z"/><path class="cls-43" d="M296.22,483.28a1.91,1.91,0,1,1-1.9-1.91A1.9,1.9,0,0,1,296.22,483.28Z"/><path class="cls-26" d="M329.51,348.77a1.91,1.91,0,1,1-1.9-1.9A1.9,1.9,0,0,1,329.51,348.77Z"/><path class="cls-26" d="M484.2,326.08a1.91,1.91,0,1,1-1.91-1.9A1.91,1.91,0,0,1,484.2,326.08Z"/><path class="cls-26" d="M592.75,240.16a1.91,1.91,0,1,1-1.91-1.91A1.92,1.92,0,0,1,592.75,240.16Z"/><path class="cls-26" d="M555.13,134.73a1.91,1.91,0,1,1-1.9-1.9A1.9,1.9,0,0,1,555.13,134.73Z"/><path class="cls-26" d="M678.72,375.72a1.91,1.91,0,1,1-1.9-1.91A1.91,1.91,0,0,1,678.72,375.72Z"/><path class="cls-26" d="M733.61,288.54a1.91,1.91,0,1,1-1.9-1.91A1.9,1.9,0,0,1,733.61,288.54Z"/><path class="cls-43" d="M712.05,144.38a1.91,1.91,0,1,1-1.91-1.91A1.91,1.91,0,0,1,712.05,144.38Z"/><path class="cls-26" d="M897.6,78.85a1.91,1.91,0,1,1-1.91-1.91A1.91,1.91,0,0,1,897.6,78.85Z"/><path class="cls-26" d="M1101.79,186.44a1.91,1.91,0,1,1-1.91-1.9A1.91,1.91,0,0,1,1101.79,186.44Z"/><path class="cls-26" d="M921.44,318.77a1.91,1.91,0,1,1-1.91-1.91A1.92,1.92,0,0,1,921.44,318.77Z"/><path class="cls-26" d="M1063.15,376.89a1.91,1.91,0,1,1-1.91-1.91A1.9,1.9,0,0,1,1063.15,376.89Z"/><path class="cls-26" d="M1163.27,383.33a1.91,1.91,0,1,1-1.9-1.91A1.9,1.9,0,0,1,1163.27,383.33Z"/><path class="cls-26" d="M1152.56,224.27a1.91,1.91,0,1,1-1.91-1.9A1.91,1.91,0,0,1,1152.56,224.27Z"/><path class="cls-26" d="M1251.16,97.21a1.91,1.91,0,1,1-1.91-1.9A1.9,1.9,0,0,1,1251.16,97.21Z"/><path class="cls-26" d="M1373.64,122a1.91,1.91,0,1,1-1.91-1.9A1.9,1.9,0,0,1,1373.64,122Z"/><path class="cls-26" d="M1406,186.68a1.91,1.91,0,1,1-1.91-1.91A1.92,1.92,0,0,1,1406,186.68Z"/><path class="cls-26" d="M1410.22,289.85a1.91,1.91,0,1,1-1.91-1.9A1.91,1.91,0,0,1,1410.22,289.85Z"/><path class="cls-26" d="M1469.53,341.5a1.91,1.91,0,1,1-1.9-1.91A1.91,1.91,0,0,1,1469.53,341.5Z"/><path class="cls-43" d="M1367.33,497.32a1.91,1.91,0,1,1-1.91-1.91A1.91,1.91,0,0,1,1367.33,497.32Z"/><path class="cls-26" d="M1245.94,524.28a1.91,1.91,0,1,1-1.91-1.91A1.91,1.91,0,0,1,1245.94,524.28Z"/><path class="cls-36" d="M1027.77,712.47a1.91,1.91,0,1,1-1.91-1.91A1.9,1.9,0,0,1,1027.77,712.47Z"/><path class="cls-26" d="M857.17,622.12a1.91,1.91,0,1,1-1.91-1.91A1.91,1.91,0,0,1,857.17,622.12Z"/><circle class="cls-26" cx="800.55" cy="517.67" r="1.91"/><path class="cls-26" d="M714.17,501.51a1.91,1.91,0,1,1-1.9-1.91A1.91,1.91,0,0,1,714.17,501.51Z"/><path class="cls-26" d="M688.54,622.12a1.91,1.91,0,1,1-1.91-1.9A1.9,1.9,0,0,1,688.54,622.12Z"/><path class="cls-26" d="M576.83,632.8a1.91,1.91,0,1,1-1.91-1.91A1.92,1.92,0,0,1,576.83,632.8Z"/><path class="cls-26" d="M504.76,582.07a1.91,1.91,0,1,1-1.91-1.91A1.92,1.92,0,0,1,504.76,582.07Z"/><path class="cls-26" d="M454.86,587.58a1.91,1.91,0,1,1-1.9-1.91A1.91,1.91,0,0,1,454.86,587.58Z"/><path class="cls-26" d="M232.92,734a1.91,1.91,0,1,1-1.9-1.91A1.91,1.91,0,0,1,232.92,734Z"/><path class="cls-26" d="M202.85,641.4a1.91,1.91,0,1,1-1.9-1.91A1.91,1.91,0,0,1,202.85,641.4Z"/><path class="cls-26" d="M134.08,568a1.91,1.91,0,1,1-1.91-1.91A1.91,1.91,0,0,1,134.08,568Z"/><path class="cls-26" d="M87.3,575.49a1.91,1.91,0,1,1-1.91-1.91A1.91,1.91,0,0,1,87.3,575.49Z"/><circle class="cls-26" cx="67.15" cy="625.35" r="1.91"/><path class="cls-43" d="M92,721.18a1.91,1.91,0,1,1-1.91-1.91A1.9,1.9,0,0,1,92,721.18Z"/><path class="cls-26" d="M189.84,812.75a1.91,1.91,0,1,1-1.91-1.91A1.92,1.92,0,0,1,189.84,812.75Z"/><path class="cls-26" d="M328.53,797.65a1.91,1.91,0,1,1-1.91-1.91A1.91,1.91,0,0,1,328.53,797.65Z"/><path class="cls-26" d="M442.22,732a1.91,1.91,0,1,1-1.91-1.9A1.9,1.9,0,0,1,442.22,732Z"/><path class="cls-26" d="M524,682.58a1.91,1.91,0,1,1-1.91-1.91A1.92,1.92,0,0,1,524,682.58Z"/><path class="cls-26" d="M627.25,734.24a1.91,1.91,0,1,1-1.91-1.9A1.91,1.91,0,0,1,627.25,734.24Z"/><path class="cls-26" d="M722.83,792.31a1.91,1.91,0,1,1-1.91-1.91A1.9,1.9,0,0,1,722.83,792.31Z"/><path class="cls-26" d="M860.3,765.22a1.91,1.91,0,1,1-1.91-1.91A1.91,1.91,0,0,1,860.3,765.22Z"/><path class="cls-43" d="M1078.19,787.92a1.91,1.91,0,1,1-1.91-1.9A1.9,1.9,0,0,1,1078.19,787.92Z"/><path class="cls-36" d="M1131.24,793.27a1.91,1.91,0,1,1-1.91-1.91A1.91,1.91,0,0,1,1131.24,793.27Z"/><path class="cls-26" d="M1328.5,763a1.91,1.91,0,1,1-1.91-1.91A1.9,1.9,0,0,1,1328.5,763Z"/><path class="cls-26" d="M1390.88,637.15a1.91,1.91,0,1,1-1.91-1.9A1.91,1.91,0,0,1,1390.88,637.15Z"/><path class="cls-26" d="M1479.25,644.64a1.91,1.91,0,1,1-1.9-1.9A1.9,1.9,0,0,1,1479.25,644.64Z"/><path class="cls-26" d="M1516.72,782.15a1.91,1.91,0,1,1-1.91-1.91A1.92,1.92,0,0,1,1516.72,782.15Z"/><path class="cls-26" d="M1065.43,610.26a1.91,1.91,0,1,1-1.91-1.91A1.91,1.91,0,0,1,1065.43,610.26Z"/><path class="cls-26" d="M1124.5,518.86a1.91,1.91,0,1,1-1.91-1.91A1.92,1.92,0,0,1,1124.5,518.86Z"/><path class="cls-26" d="M3.82,115.74a1.91,1.91,0,1,1-1.91-1.91A1.92,1.92,0,0,1,3.82,115.74Z"/><path class="cls-26" d="M24.34,867.3a1.91,1.91,0,1,1-1.91-1.91A1.91,1.91,0,0,1,24.34,867.3Z"/><path class="cls-36" d="M13.19,717.8a1.91,1.91,0,1,1-1.9-1.9A1.9,1.9,0,0,1,13.19,717.8Z"/><path class="cls-26" d="M1559.9,414.54a1.91,1.91,0,1,1-1.9-1.91A1.91,1.91,0,0,1,1559.9,414.54Z"/><path class="cls-43" d="M1445.68,18.83a1.91,1.91,0,1,1-1.91-1.91A1.92,1.92,0,0,1,1445.68,18.83Z"/><path class="cls-26" d="M497.08,50.85a1.91,1.91,0,1,1-1.9-1.9A1.9,1.9,0,0,1,497.08,50.85Z"/><path class="cls-26" d="M1537,881.17a1.91,1.91,0,1,1-1.9-1.91A1.9,1.9,0,0,1,1537,881.17Z"/><circle class="cls-26" cx="878.81" cy="849.33" r="1.91"/><path class="cls-26" d="M521.88,855.8a1.91,1.91,0,1,1-1.9-1.91A1.91,1.91,0,0,1,521.88,855.8Z"/><path class="cls-26" d="M1409,858.71a1.91,1.91,0,1,1-1.91-1.91A1.91,1.91,0,0,1,1409,858.71Z"/><path class="cls-26" d="M1546.86,137.24a1.91,1.91,0,1,1-1.91-1.91A1.9,1.9,0,0,1,1546.86,137.24Z"/><path class="cls-26" d="M1049.31,57.31a1.91,1.91,0,1,1-1.91-1.91A1.91,1.91,0,0,1,1049.31,57.31Z"/><path class="cls-36" d="M971.87,113.42a1.91,1.91,0,1,1-1.91-1.91A1.91,1.91,0,0,1,971.87,113.42Z"/><circle class="cls-36" cx="485.55" cy="409.1" r="1.91"/><path class="cls-36" d="M1508.21,494.2a1.91,1.91,0,1,1-1.91-1.9A1.91,1.91,0,0,1,1508.21,494.2Z"/></g><g class="cls-42"><path class="cls-44" d="M1275,189.29a32.86,32.86,0,1,1-3.08,1.39,39.7,39.7,0,1,0,3.08-1.39Z"/><path class="cls-45" d="M1327,212.7c-.08-.22-.22-.11-.3-.34a41.21,41.21,0,0,1-74,28.08,39.6,39.6,0,0,0,18.67,20.88l1.08.53.47.23A39.67,39.67,0,0,0,1327,212.7Z"/><path class="cls-46" d="M1286.67,259.56a.88.88,0,0,1,.79,0c.27-.1.54-.2.81-.32a16.24,16.24,0,0,0,5.32-3.63,11.08,11.08,0,0,0-2.93-10.36,5.51,5.51,0,0,0-3-1.68,2.81,2.81,0,0,0-2.94,1.44,1.91,1.91,0,0,0,1.4,2.64,9.34,9.34,0,0,1-10.32-.47c-.64.18-.83,1-.76,1.65a3.9,3.9,0,0,1,0,2,1.87,1.87,0,0,1-2.42.74,5.45,5.45,0,0,1-2.06-1.88,7.91,7.91,0,0,1-3.86,8.36l.16.11a1,1,0,0,1,.59.11,8.38,8.38,0,0,0,4.24,1,1,1,0,0,1,1.08,1.07l1,.22a1.08,1.08,0,0,1,1.14-.2C1278.35,261.65,1283.35,261.09,1286.67,259.56Z"/><path class="cls-47" d="M1317.07,200.81a9.62,9.62,0,0,0-3.85-2.31c-1-.32-2.38-.39-3.07.47a2.33,2.33,0,0,0,.33,2.88,10.31,10.31,0,0,0,2.58,1.78,13.31,13.31,0,0,1,6.17,9c.18,1,.32,2.21,1.2,2.75,1.15.72,2.75-.35,3-1.67a6.05,6.05,0,0,0-.87-3.89C1320.71,206,1320.13,203.81,1317.07,200.81Z"/><path class="cls-46" d="M1312.24,203.68c2.36,1.56,4.88,3.31,5.75,6a20.94,20.94,0,0,1,.55,2.86,5.5,5.5,0,0,0,1.11,2.65,2.47,2.47,0,0,0,2.61.82,1.62,1.62,0,0,0,.83-2.36c-.69.89-2.21.53-2.91-.36a8.14,8.14,0,0,1-1.09-3.16,12.66,12.66,0,0,0-8.92-9.09C1310.18,202.21,1311.27,203,1312.24,203.68Z"/><ellipse class="cls-48" cx="1289.82" cy="217.62" rx="20.12" ry="15.89" transform="translate(-8.87 61.44) rotate(-2.72)"/><path class="cls-46" d="M1300.25,206.4a3.61,3.61,0,0,1,2.77-1,7.87,7.87,0,0,0,3-.39,1.94,1.94,0,0,0,1.13-2.46,3.51,3.51,0,0,1-1.93,5.6c-.85.21-1.76.09-2.61.32s-1.68,1-1.46,1.87a5.63,5.63,0,0,0,.51,1c.51,1.08-.11,2.31-.64,3.37s-.93,2.46-.13,3.34a3.41,3.41,0,0,1-1.82-3.8c.19-.76,0-2,.15-2.76C1299.63,209.58,1299,207.88,1300.25,206.4Z"/><path class="cls-46" d="M1299.85,247.33c.94-.33,1.84.49,2.74.91,2.41,1.13,5.11-.65,7.17-2.33l7.19-5.85a.88.88,0,0,1,1.25,1.21,19.58,19.58,0,0,1-8.63,6.42,2.93,2.93,0,0,0-1.4,1c-1.24,1.75.7,3.12,2.2,2.81h0a1.12,1.12,0,0,1,1.31,1.53l-.31.71a28.43,28.43,0,0,0,7.78-5.14,1.14,1.14,0,0,1,1.7,1.51,34.86,34.86,0,0,1-14.52,11.43,17.57,17.57,0,0,1-12.9-.11c-4-1.78-7.2-5.72-7.46-10.11a7,7,0,0,1,2.17-5.86c1.66-1.38,4.45-1.45,5.83.21.61.74.89,1.69,1.43,2.48a2.14,2.14,0,0,0,2.43,1C1298.69,248.78,1299,247.64,1299.85,247.33Z"/><path class="cls-46" d="M1262.71,216.61a19.4,19.4,0,0,0,.24,17c1.32,2.56,3.28,5.24,2.52,8a6,6,0,0,0-.58,2.61,3.56,3.56,0,0,0,1.57,1.95c2.1,1.59,4.65,3.28,7.17,2.52,1.07-.33,2-1.08,3.15-1.09,1.54,0,3.13,1.38,4.44.41a2,2,0,0,0,.74-1.38c.17-1.66-1-3-1.1-4.61a4.38,4.38,0,0,1,2.38-3.76,7.37,7.37,0,0,1,1.61-.69,2,2,0,0,0,.69-3.4,7.13,7.13,0,0,0-4.48-1.51c-1.7,0-3.59.66-4.92-.66a3.1,3.1,0,0,1-.59-3.31c.77-2,2.73-3,4.65-3.57a37,37,0,0,1-9.27-1.11,10.62,10.62,0,0,1-6.6-5.14C1263.72,217.57,1263.82,217.47,1262.71,216.61Z"/><path class="cls-46" d="M1311.52,233.25c-2.46.45-4.81-1-6.92-2.34-4.87-3.09-10.09-5.94-15.81-6.62s-12.07,1.22-15.28,6c2.62-4.92,8.44-7.58,14-7.54s10.29,1.9,15,5c2,1.35,4.83,3.41,7.28,3.38a6.92,6.92,0,0,0,5.07-2.62,13.07,13.07,0,0,0,2.48-5.27,19.36,19.36,0,0,1-1.28,6.09A6.57,6.57,0,0,1,1311.52,233.25Z"/><path class="cls-49" d="M1285.24,244.51h0l-.18-.2C1285.12,244.42,1285.16,244.58,1285.24,244.51Z"/><path class="cls-50" d="M1264.76,246.05a24.77,24.77,0,0,0-4-4.73c-1-.21-1.12-1.56-.64-2.4s1.32-1.42,1.84-2.23.51-2.14-.39-2.5a1.91,1.91,0,0,0-1.92.67,4.1,4.1,0,0,1-1.71,1.29,2.13,2.13,0,0,1-2.26-1.25,5,5,0,0,1-.3-2.73,11.7,11.7,0,0,0,.12-2.77,4.38,4.38,0,0,0-2.26-3.19c-.58-.32-2.09,0-3.26.3a39.81,39.81,0,0,0,10.41,26.4l.24.26c.27.3.56.59.84.88l1,1,.32.29c.5.46,1,.91,1.55,1.35a9.26,9.26,0,0,0,2.19-4.13A10.07,10.07,0,0,0,1264.76,246.05Z"/><path class="cls-50" d="M1275.09,195.86a6.61,6.61,0,0,0-1.9,1.74,2.29,2.29,0,0,0,.18,2.45c.37.5-.26,1.06-.79,1.4a1.63,1.63,0,0,1-1.76-.06c-6,6.25-9.34,15.34-8.27,23.91A29.73,29.73,0,0,0,1276,246.48c.48.3,1.37,1.35,2.62.7a1.06,1.06,0,0,1-.55-1.29,3.82,3.82,0,0,1,.81-1.31,9.44,9.44,0,0,0,1.44-2.6,2.64,2.64,0,0,0,.21-1.11,1.1,1.1,0,0,0-.56-.92c-.52-.25-1.11.08-1.62.36s-1.2.77-1.59.36a1.81,1.81,0,0,1-.44-3.57c.54-.13,1.17,0,1.63-.33a1.37,1.37,0,0,0,0-2,3.45,3.45,0,0,0-2-.95,2.19,2.19,0,0,1-1.67-2.1,4.66,4.66,0,0,1,.88-2.71c2.65-4.21,7.84-6.37,12.83-6.3s9.76,2.06,14,4.65a39.07,39.07,0,0,0,5.48,3.1c1.94.8,4.31,1.6,6,.32a11.45,11.45,0,0,0,4.46-10.84,9.41,9.41,0,0,0-8.48-7.66,5.28,5.28,0,0,0-3.77,1.17c-.93.84-1.39,2.1-2.23,3s-2.49,1.42-3.3.45a2.61,2.61,0,0,1-.06-2.61,5.07,5.07,0,0,0,.65-2.62,7.16,7.16,0,0,0-.8-1.79,1.73,1.73,0,0,1,.07-1.86c.45-.48,1.22-.43,1.88-.46a5.87,5.87,0,0,0,5.27-4,3.73,3.73,0,0,0-.23-3c-1-1.63-3.28-1.7-5.19-1.9a18.49,18.49,0,0,1-15.07-12.12,39.25,39.25,0,0,0-9.14,1.79A7,7,0,0,1,1275.09,195.86Z"/><path class="cls-49" d="M1285,244.21l.07.09C1285.06,244.2,1285,244.13,1285,244.21Z"/><path class="cls-49" d="M1327.42,213.77a8.52,8.52,0,0,0-1.24.72,2.86,2.86,0,0,0-1.42,1.57c-.28,1.19.93,2.13,1.68,3.1,2,2.61,1,6.81,2.91,9.36A39.91,39.91,0,0,0,1327.42,213.77Z"/><path class="cls-50" d="M1267.77,259.21a39,39,0,0,0,3.78,2.22,39.72,39.72,0,0,0,44-5.08,3.34,3.34,0,0,0-3.85-1.44,13.86,13.86,0,0,0-1.83.86,2.73,2.73,0,0,1-2,.25,1.27,1.27,0,0,1-.82-1.6c-1.72-1.38-3.51-3.25-5.23-4.63a3.53,3.53,0,0,0-1.85-.94c-1.63-.1-3,2.08-4.74.43a4.08,4.08,0,0,1-1.08-1.79,5,5,0,0,0-4.33-3.2,10.76,10.76,0,0,0-2.27,0,1.58,1.58,0,0,0-1.41,1.86v0c.09.74-.49,1.61-1.23,1.5-.56.48-1.18.22-1.88,0a8,8,0,0,0-2.1-.6,4.74,4.74,0,0,0-2.06.59,13.75,13.75,0,0,0-1.75.9c-.79,0-.7.22-.78,1s-.13,1.7-.8,2.12a1.89,1.89,0,0,1-2-.3,5.41,5.41,0,0,0-2.15-1.32,1.16,1.16,0,0,0-1.33.7c-.21.64.32,1.22.63,1.79.88,1.62,0,3.65-1.23,5C1268.92,258.1,1268.33,258.65,1267.77,259.21Z"/><path class="cls-48" d="M1307.24,235.5c-1-.94-2.57-.75-3.92-.5L1292.73,237c-1.29.24-2.86.77-3,2.07a2.75,2.75,0,0,0,1.35,2.23,11.83,11.83,0,0,0,14.93-.41,5.66,5.66,0,0,0,1.82-2.46A2.84,2.84,0,0,0,1307.24,235.5Z"/><path class="cls-51" d="M1272,232.21a8.18,8.18,0,0,1,4.47-7c-.8-.85-2.26-.47-3.19.23-1.33,1-2.34,2.58-4.49,2a.68.68,0,0,1-.41-.33c-.76-1.46.18-2.1,1.07-2.43,2-.75,4.23-.57,6.37-.68s4.47-.63,5.78-2.32a27.37,27.37,0,0,1-7.74.8,9.24,9.24,0,0,1-6.77-3.4,5.71,5.71,0,0,0-1.5-1.73,1.46,1.46,0,0,0-1.42,0c-.69.38-.7,2-.72,2.46-.23,5,1.1,8.71,3,13.9,1.19,3.24,4,7.47,8.17,7.84a.65.65,0,0,0,.36-1.22C1271.19,238.29,1272.37,231.27,1272,232.21Z"/><path class="cls-47" d="M1296.22,221.37a10.46,10.46,0,0,0-1.28.35,1.2,1.2,0,0,0-.81,1,27,27,0,0,1,9.18,4,1.63,1.63,0,0,0,.7.34.55.55,0,0,0,.62-.35.77.77,0,0,0-.3-.67c-1-1-2.24-1.63-3.28-2.53a4.07,4.07,0,0,1-1.65-3.61,4.94,4.94,0,0,0,.26-1.4c-.06-.48-.6-.94-1-.67A3.54,3.54,0,0,1,1296.22,221.37Z"/><path class="cls-52" d="M1251.56,231.05c1.64.45,2.1,2.5,2.6,4.13,1.78,5.81,7.38,9.63,10.1,15.07.32.63.58,1.46.12,2a1.33,1.33,0,0,1-1.49.29,3.65,3.65,0,0,1-1.27-1c-4.45-4.71-7.27-10.67-10-16.53C1251,233.74,1250.46,232,1251.56,231.05Z"/><path class="cls-53" d="M1302.61,254c-2.76-3-8.66-.13-11.48-3.1-.82-.87-1.3-2.19-2.43-2.58a2.94,2.94,0,0,0-2.86,1c-.75.76-1.29,1.7-2.1,2.4a9,9,0,0,1-4.44,1.7,11.76,11.76,0,0,0-4.57,1.43,3.64,3.64,0,0,0-1.66,4.13c7.24,3.1,15.18,5.35,23,4.08a10.37,10.37,0,0,0,6.14-2.8C1303.71,258.59,1304.15,255.73,1302.61,254Z"/><path class="cls-54" d="M1267.73,259.28a37.09,37.09,0,0,0,3.78,2.22,39.7,39.7,0,0,0,43.4-4.62,3.38,3.38,0,0,0-3-1.46c-.76.08-1.49.46-2.24.47a2.6,2.6,0,0,1-1.85.2,1.39,1.39,0,0,1-.91-1.13c-2-.48-4.14.36-6.13,1a38.27,38.27,0,0,1-29.83-2.39,5.43,5.43,0,0,1-1.54,4C1268.89,258.18,1268.3,258.73,1267.73,259.28Z"/><path class="cls-48" d="M1309.88,242.06a13.73,13.73,0,0,0,7.47-5.09,28,28,0,0,0,4.13-8.2c.37-1.07.7-2.15,1-3.24.24-.8.42-1.79-.24-2.34a1.45,1.45,0,0,0-1.88.13,4.77,4.77,0,0,0-1.19,2.78,14,14,0,0,1-6.7,8.85,6.24,6.24,0,0,0-2.67,3,3.18,3.18,0,0,1-.16.32,14,14,0,0,0-1.29,1.89c-.3.71-.11,1.73.63,1.94A1.76,1.76,0,0,0,1309.88,242.06Z"/><path class="cls-55" d="M1310.23,221.28a10.13,10.13,0,0,0,.26-5.35,1.83,1.83,0,0,0-.54-1.08,1.41,1.41,0,0,0-1.88.52,6,6,0,0,0-.64,2.07,2.48,2.48,0,0,1-1.12,1.78c-.52.25-1.18.2-1.58.61a1.26,1.26,0,0,0-.1,1.44,3.86,3.86,0,0,0,1.08,1.09c.81.62,1.8,1.28,2.79,1A2.94,2.94,0,0,0,1310.23,221.28Z"/><path class="cls-56" d="M1264.83,229a12.79,12.79,0,0,0,.84,3.69,10,10,0,0,0,3.41,3.77c.42.3,1,.59,1.42.25a.86.86,0,0,0,.14-1,3,3,0,0,0-.64-.8,11.21,11.21,0,0,1-3.11-6.47c-.18-1.44-.07-2.9-.28-4.34a5.22,5.22,0,0,0-2-3.7,3.61,3.61,0,0,0-.45,2.86Z"/><path class="cls-57" d="M1289.5,256.27l.61.75a2.93,2.93,0,0,1-2,.19l-9.67-1.3a12.87,12.87,0,0,0,5.27-1.92c1-.71,1.75-1.71,2.89-2a2.74,2.74,0,0,1,2.91,4.31Z"/><path class="cls-46" d="M1284.9,231.25a10.36,10.36,0,0,1-4.46,0c-.67-.16-1.54-.52-1.38-1.18.09-.4.51-.6.89-.76l.29-.12c3-1.23-.45-1.12-.51-1.39-.13-.66,5.94-3.57,12.71-1.47a5.36,5.36,0,0,1,3.39,2.31,17.45,17.45,0,0,0-8.83-1.84,5.66,5.66,0,0,0-2.2.46,3.94,3.94,0,0,0-.51.32.74.74,0,0,0,.5,1.31c1.93-.06,6-1,5.8-.18-.08.28,3.52,1-.23.83A8.64,8.64,0,0,0,1284.9,231.25Z"/><path class="cls-46" d="M1323.38,217.06a4.69,4.69,0,0,1-4.23-.78c0,.08-.35,0-.38.07,0,.34.35.57.66.71a1.54,1.54,0,0,1,.81.59c.17.38,0,.82-.07,1.24-.05,1.1,1.33,1.91,1.21,3l.6-2.69a1.43,1.43,0,0,1,.5-1,7,7,0,0,1,.77-.27A.7.7,0,0,0,1323.38,217.06Z"/><path class="cls-54" d="M1264.35,256.78a6.38,6.38,0,0,0,1.66-2.31,5.63,5.63,0,0,0,.07-1.83,9.28,9.28,0,0,0-2.33-4.68c-1.15-1.34-2.51-2.49-3.73-3.77a26.05,26.05,0,0,1-7-14.77,11.89,11.89,0,0,0-.48-2.65,2.35,2.35,0,0,0-.41-.63,4.58,4.58,0,0,0-2.17.37A38.66,38.66,0,0,0,1264.35,256.78Z"/><path class="cls-51" d="M1277.12,207.85a12.47,12.47,0,0,0,1.32-1.85,1.64,1.64,0,0,0-2.56-2.05,14.94,14.94,0,0,0-1.77,1.87c-1.83,1.88-4.94,2.62-5.87,5.08a3.85,3.85,0,0,0,2.58,4.88c2,.48,4-.72,6-1a6.5,6.5,0,0,0,1.46-.28,1.3,1.3,0,0,0,.87-1.11c-.19-1.07-1.67-1.3-2.37-2.15S1276.4,208.84,1277.12,207.85Z"/><path class="cls-51" d="M1289.34,209.34a6.09,6.09,0,0,1,2.92-1.11,7.68,7.68,0,0,0,3-1,2.41,2.41,0,0,0,1.06-2.73,2.89,2.89,0,0,0-1.58-1.37,8.17,8.17,0,0,0-4.65-.63c-1.3.21-2.53.72-3.82.93a4.2,4.2,0,0,1-3.67-.91,7.21,7.21,0,0,0-1.23-1.35c-.53-.31-1.43-.07-1.4.54a4.75,4.75,0,0,1-.34,5.07,9.37,9.37,0,0,0-1.3,1.72,1.39,1.39,0,0,0,.52,1.86,3.3,3.3,0,0,1,1.24-1.62c.6-.33,1.55-.1,1.68.58a2,2,0,0,1-.18,1,4.52,4.52,0,0,0,.67,4,2.93,2.93,0,0,0,2.39,1.31c1.38-.08,2.31-1.43,2.81-2.72S1288.29,210.24,1289.34,209.34Z"/><path class="cls-58" d="M1254.37,208a39.62,39.62,0,0,0-4.36,16.43c10.94,9.76,26,12.24,40.79,7,15.22-5.37,26-17.53,27.81-32.44a39.72,39.72,0,0,0-64.24,9Z"/><path class="cls-59" d="M1256.32,247.56c-.23-.33-.44-.66-.66-1a39.68,39.68,0,1,0,38.65-59.85,39.41,39.41,0,0,1,26.59,16.46,38.9,38.9,0,0,1-9.86,54.39A39.5,39.5,0,0,1,1256.32,247.56Z"/><g class="cls-60"><path class="cls-61" d="M1278.83,190.62c13.31-4,28.41,1.69,31.92,13.2s-6.82,14.93-20.79,21.12c-11.47,5.1-27.23,6.18-30.75-5.33S1265.52,194.6,1278.83,190.62Z"/></g></g><rect class="cls-3" width="1600" height="900"/><path class="cls-62" d="M745,6a408.39,408.39,0,0,0,92.07-168.17c13.84-51.42,23.62-113.82,71.94-136.22,23.3-10.8,50.62-8.89,75.45-2.32,56.58,15,106.45,53.71,134.93,104.83C1176.15-94,1148.85,46.43,1227.34,132.64c38.74,42.55,96.26,62.59,152.58,74.4s114.45,17.16,168.19,37.74c94,36,166.25,116.55,208.86,207.75,25.2,54,41.23,112,69.48,164.46,86,159.58,291.62,243.38,464.69,189.4-91.27,23.29-186.76,34.07-280,20.67s-184.27-52.21-251.46-118.22c-86-84.49-132.85-211.3-240-266.63-88.72-45.82-194.87-29.95-294.53-23.64s-213.7-4.79-275-83.61c-21.56-27.7-35.35-62.61-64.09-82.77-47.86-33.58-113.34-12.31-167.41,9.95,0,0-281.37,115.39-380.83-162.59S745,6,745,6Z"/><path class="cls-63" d="M-105,132.12c-10.7-48.72,59-66.7,69.56-115.47S8-78.87,56-92.52c33.32-9.48,69.9-1.94,100.14,15S211-35.12,232.09-7.67a486,486,0,0,1,90,195.09c6.92,32.76,10.59,66.69,24.4,97.2a158.88,158.88,0,0,0,94.67,84.55c36.06,11.63,75,9.85,112.3,16.2a261.34,261.34,0,0,1,129.49,62.32c24.42,21.8,45.87,52.83,39.67,85-46.11-72.56-140.15-111-223.89-91.56-23.77,5.53-46.44,15.17-70.25,20.49-68,15.17-143.31-8.57-190.32-60-27.2-29.75-46.3-68.53-81.37-88.4-33.09-18.74-51.46-17.66-88.72-10.06-34.95,7.14-67.56,44-96.39,64.95-44.44,32.37-244.49,56.32-348.36-118.19S-105,132.12-105,132.12Z"/><path class="cls-64" d="M672.4-5.12c-10.7-48.73,59-66.7,69.56-115.47s43.51-95.52,91.49-109.17c33.32-9.48,69.9-1.94,100.14,15s54.8,42.44,75.93,69.89a486,486,0,0,1,90,195.09c6.92,32.76,10.59,66.69,24.4,97.2a158.88,158.88,0,0,0,94.67,84.55c36.06,11.63,75,9.85,112.3,16.19a261.35,261.35,0,0,1,129.49,62.33c24.42,21.79,45.87,52.83,39.67,85-46.11-72.57-140.15-111-223.89-91.56-23.77,5.52-46.44,15.17-70.25,20.48-68,15.17-143.31-8.56-190.32-60-27.2-29.75-46.3-68.53-81.37-88.4-33.09-18.74-51.46-17.66-88.72-10.06-35,7.14-67.56,43.95-96.39,64.95-44.44,32.36-244.49,56.32-348.36-118.19S672.4-5.12,672.4-5.12Z"/><path class="cls-65" d="M949.33,156.15c2.45,2.4-72.45,82.94-76.79,87.38s-9.85,6.09-12.3,3.69-.92-7.94,3.42-12.38S946.87,153.75,949.33,156.15Z"/><rect class="cls-3" width="1600" height="900"/></g><rect class="cls-3" x="160" y="90" width="1280" height="720"/><g class="cls-66"><path class="cls-67" d="M1665.52-1417.29c54.77,19.72-118.36-27.14-97.54,17.94s17.56,283.85,18.57,424.71c1,147.16,1.57,514.55,1.93,601S1578,7.09,1592.93,17.87c26.77,19.31,195.14,185.4,195.14,173.19,7.3-10.33,143.5,72.32,125.61,39.45a421.67,421.67,0,0,1-32.86-79.83,139,139,0,0,1-5.48-37.58c0-4.22,13.14,4.23,25.2-1.4s23-39.45,48.74,1.4,34,42.27,51.48,40.86,24.65-50.72,6.58-56.35-31.77-36.63-35.6-47.9c4.92-14.09,36.15-18.32,54.77-4.23a108.73,108.73,0,0,0,38.34,18.32c-11-25.36-22.46-57.76-41.63-63.4s-25.74-16.9-51.48-14.09S1916.42-10.87,1900-70s-41.08-141.83-44-325.91,2.69-452.14,3.65-526c.79-61.39,22.82-147.69,49.23-214.07,19.83-49.84,41.74-87.81,61.16-99.09,23.64-13.73,58.35-57.7,95.12-77.48,33.64-18.1,69-12.49,99-17,20.45-41.32-4.38-50.72-4.38-50.72s-36.51-11.27-73,1.88-34.32,24.42-67.18,22.54-70.35,66.28-90.07,98.21-84.35,100.49-94,146c0-184.09-7.3-394.47-2.92-420.77s-17.44,32.78,2.27-10.42"/><path class="cls-68" d="M1578.32-1517.46c9.77,657.92,26.29,1377.26-24.72,1608.36L1801,70.82c-63.4-90.08-81.07-712.54-66.68-1480.13Z"/><path class="cls-69" d="M1578.26-129.74s185.87-42.9,519.94,28.59,731.45,15.46,777.94-.88c-1.52,50.15-5.61,98.47-9.49,143.24L1578.26,39.79Z"/><path class="cls-70" d="M1341.67,15.92l5.41-42s584.19-26,669.94-18c0,0-4.64-21-13.13-24,0,0,19.31-3,20.85,24,0,0,0-40-12.36-47,0,0,30.13,6,27.81,47l140.6,8s-8.5-11-13.91-14c0,0,15.43-7,23.94,6,0,0-10-31-16.21-35,0,0,17.18-2,21.72,30,0,0,15.36-17,20-14.5,0,0-17,26.5-13.9,27.5,0,0,555.66,19.11,659.95,26.11l-4.24,56.23Z"/><path class="cls-20" d="M1575.5-26.63S1411.82-71.22,1413-115.95s137.07,31.81,190.59,76.46c-155.83-185.14-75.39-79.93-119.27-142.59s3.79-93.74,82.06,1.22c62.68,92.1,81.16,119,81.16,119s-45.7-125-63.56-191,40.44-110,85.5,5.23c9.93-36.24,10.82-39.83,10.82-39.83s-13.37,54.62.36-9.23,69.37-25.42,38.44,68.23c33.59-34.25-10.57,4.57,36.5-29.36s104.71,4.5,44,81.55-42.11,55.37-42.11,55.37l-42.55,48,112.5-47.62c77-25.28,110.07,9.47,23,64-56.22,28-103.93,49.08-103.93,49.08s48-.68,126-5.23,77.16,61.41-11.75,59.7C1757.42,19.29,1575.5-26.63,1575.5-26.63"/></g></g></g></svg>