<svg id="Layer_1" data-name="Layer 1" xmlns="http://www.w3.org/2000/svg" xmlns:xlink="http://www.w3.org/1999/xlink" width="1600" height="900" viewBox="0 0 1600 900">
  <defs>
    <style>
      .cls-1 {
        fill: none;
      }

      .cls-2 {
        clip-path: url(#clip-path);
      }

      .cls-3 {
        fill: url(#linear-gradient);
      }

      .cls-4 {
        fill: #a5eb98;
        opacity: 0.49;
      }

      .cls-15, .cls-17, .cls-33, .cls-4 {
        isolation: isolate;
      }

      .cls-5 {
        opacity: 0.47;
      }

      .cls-6 {
        fill: url(#linear-gradient-2);
      }

      .cls-7 {
        fill: #cabcd8;
      }

      .cls-8 {
        fill: url(#linear-gradient-3);
      }

      .cls-9 {
        fill: #6bba2d;
      }

      .cls-10 {
        fill: #4aa311;
      }

      .cls-11 {
        fill: url(#linear-gradient-4);
      }

      .cls-12 {
        fill: #969a9e;
      }

      .cls-13 {
        fill: url(#linear-gradient-5);
      }

      .cls-14 {
        fill: url(#linear-gradient-6);
      }

      .cls-15 {
        opacity: 0.81;
        fill: url(#linear-gradient-7);
      }

      .cls-16 {
        fill: #5b391a;
      }

      .cls-17 {
        opacity: 0.4;
        fill: url(#linear-gradient-8);
      }

      .cls-18 {
        opacity: 0.1;
      }

      .cls-19 {
        fill: #300914;
      }

      .cls-20 {
        opacity: 0.21;
      }

      .cls-21 {
        opacity: 0.13;
      }

      .cls-22 {
        opacity: 0.16;
      }

      .cls-23 {
        opacity: 0.32;
      }

      .cls-24 {
        opacity: 0.24;
      }

      .cls-25 {
        fill: url(#linear-gradient-9);
      }

      .cls-26 {
        fill: url(#linear-gradient-10);
      }

      .cls-27 {
        fill: url(#linear-gradient-11);
      }

      .cls-28 {
        fill: url(#linear-gradient-12);
      }

      .cls-29 {
        fill: url(#linear-gradient-13);
      }

      .cls-30 {
        fill: url(#linear-gradient-14);
      }

      .cls-31 {
        fill: #563311;
      }

      .cls-32 {
        opacity: 0.5;
      }

      .cls-33 {
        opacity: 0.58;
        fill: url(#linear-gradient-15);
      }

      .cls-34 {
        fill: url(#linear-gradient-16);
      }

      .cls-35 {
        opacity: 0.36;
      }

      .cls-36 {
        opacity: 0.14;
      }

      .cls-37 {
        opacity: 0.18;
      }

      .cls-38 {
        fill: #0c4c29;
      }

      .cls-39 {
        fill: url(#linear-gradient-17);
      }

      .cls-40 {
        fill: #024e20;
      }

      .cls-41 {
        fill: #032616;
      }

      .cls-42 {
        fill: #011c24;
      }

      .cls-43 {
        fill: #042f33;
      }

      .cls-44 {
        fill: #7be57f;
      }
    </style>
    <clipPath id="clip-path">
      <rect class="cls-1" width="1600" height="900"/>
    </clipPath>
    <linearGradient id="linear-gradient" x1="802.21" y1="-32.14" x2="802.21" y2="3028.4" gradientTransform="matrix(1, 0, 0, -1, 0, 900.72)" gradientUnits="userSpaceOnUse">
      <stop offset="0.2" stop-color="#ffffca"/>
      <stop offset="0.67" stop-color="#9edcff"/>
      <stop offset="1" stop-color="#4e9dff"/>
    </linearGradient>
    <linearGradient id="linear-gradient-2" x1="199.54" y1="-83.29" x2="1242.45" y2="782.66" gradientTransform="matrix(1, 0, 0, -1, 0, 900.72)" gradientUnits="userSpaceOnUse">
      <stop offset="0.17" stop-color="#9595eb"/>
      <stop offset="0.23" stop-color="#929fe8"/>
      <stop offset="0.41" stop-color="#89bde1"/>
      <stop offset="0.6" stop-color="#83d2dc"/>
      <stop offset="0.78" stop-color="#7fdfd9"/>
      <stop offset="0.95" stop-color="#7ee3d8"/>
    </linearGradient>
    <linearGradient id="linear-gradient-3" x1="-125.28" y1="13.16" x2="176.84" y2="259.06" gradientTransform="matrix(1, 0, 0, -1, 0, 900.72)" gradientUnits="userSpaceOnUse">
      <stop offset="0.15" stop-color="#108937"/>
      <stop offset="0.33" stop-color="#1c9c45"/>
      <stop offset="0.69" stop-color="#3bcc67"/>
      <stop offset="0.73" stop-color="#3fd26c"/>
    </linearGradient>
    <linearGradient id="linear-gradient-4" x1="-124.52" y1="143.04" x2="172.98" y2="442.36" gradientTransform="translate(1259.83 900.72) rotate(180)" gradientUnits="userSpaceOnUse">
      <stop offset="0.03" stop-color="#2eb691"/>
      <stop offset="0.77" stop-color="#42d984"/>
    </linearGradient>
    <linearGradient id="linear-gradient-5" x1="-277.63" y1="138.05" x2="-137.17" y2="385.05" gradientTransform="translate(1259.83 900.72) rotate(180)" gradientUnits="userSpaceOnUse">
      <stop offset="0" stop-color="#21607b"/>
      <stop offset="0.23" stop-color="#238c77"/>
      <stop offset="0.45" stop-color="#25af74"/>
      <stop offset="0.62" stop-color="#27c472"/>
      <stop offset="0.74" stop-color="#27cc71"/>
    </linearGradient>
    <linearGradient id="linear-gradient-6" x1="155.3" y1="200.39" x2="618.7" y2="343.78" gradientTransform="matrix(1, 0, 0, -1, 0, 900.72)" gradientUnits="userSpaceOnUse">
      <stop offset="0.03" stop-color="#219f68"/>
      <stop offset="0.84" stop-color="#3fe28c"/>
      <stop offset="0.94" stop-color="#43ea90"/>
    </linearGradient>
    <linearGradient id="linear-gradient-7" x1="784.23" y1="3056.77" x2="822.72" y2="-1592.14" gradientTransform="matrix(1, 0, 0, -1, 0, 900.72)" gradientUnits="userSpaceOnUse">
      <stop offset="0.46" stop-color="#fff" stop-opacity="0"/>
      <stop offset="0.5" stop-color="#fffcf2" stop-opacity="0.12"/>
      <stop offset="0.61" stop-color="#fef5d4" stop-opacity="0.38"/>
      <stop offset="0.71" stop-color="#fdefbc" stop-opacity="0.6"/>
      <stop offset="0.8" stop-color="#fdeaa9" stop-opacity="0.78"/>
      <stop offset="0.88" stop-color="#fce79b" stop-opacity="0.9"/>
      <stop offset="0.95" stop-color="#fce593" stop-opacity="0.97"/>
      <stop offset="1" stop-color="#fce490"/>
    </linearGradient>
    <linearGradient id="linear-gradient-8" x1="1184.95" y1="203.22" x2="1472.85" y2="203.22" gradientTransform="translate(1323.76 900.72) rotate(180) scale(0.78 1)" gradientUnits="userSpaceOnUse">
      <stop offset="0" stop-color="#8a5f3c"/>
      <stop offset="0.24" stop-color="#744d29"/>
      <stop offset="0.66" stop-color="#52300b"/>
      <stop offset="0.89" stop-color="#452500"/>
    </linearGradient>
    <linearGradient id="linear-gradient-9" x1="208.26" y1="232.4" x2="243.85" y2="232.4" gradientTransform="matrix(1, 0, 0, -1, 0, 900.72)" xlink:href="#linear-gradient-8"/>
    <linearGradient id="linear-gradient-10" x1="225" y1="241.84" x2="252.17" y2="241.84" gradientTransform="matrix(1, 0, 0, -1, 0, 900.72)" xlink:href="#linear-gradient-8"/>
    <linearGradient id="linear-gradient-11" x1="241.82" y1="268.77" x2="361.49" y2="268.77" gradientTransform="matrix(1, 0, 0, -1, 0, 900.72)" xlink:href="#linear-gradient-8"/>
    <linearGradient id="linear-gradient-12" x1="-8918.74" y1="-335.02" x2="-8893.86" y2="-335.02" gradientTransform="matrix(-1.59, 0.23, -0.14, -0.99, -12982.2, 1971.45)" xlink:href="#linear-gradient-8"/>
    <linearGradient id="linear-gradient-13" x1="-8911.36" y1="-328.39" x2="-8882.56" y2="-328.39" gradientTransform="matrix(-1.59, 0.23, -0.14, -0.99, -12982.2, 1971.45)" xlink:href="#linear-gradient-8"/>
    <linearGradient id="linear-gradient-14" x1="-8887.57" y1="-280.65" x2="-8687.33" y2="-280.65" gradientTransform="matrix(-1.59, 0.23, -0.14, -0.99, -12982.2, 1971.45)" xlink:href="#linear-gradient-8"/>
    <linearGradient id="linear-gradient-15" x1="1233.35" y1="1733.97" x2="1233.35" y2="-334.11" gradientTransform="matrix(1, 0, 0, -1, 0, 900.72)" gradientUnits="userSpaceOnUse">
      <stop offset="0.21" stop-color="#cc925e"/>
      <stop offset="0.48" stop-color="#a56752"/>
      <stop offset="0.8" stop-color="#6d3134"/>
      <stop offset="1" stop-color="#292937"/>
    </linearGradient>
    <linearGradient id="linear-gradient-16" x1="1302.66" y1="1210.53" x2="1302.66" y2="330.58" xlink:href="#linear-gradient-15"/>
    <linearGradient id="linear-gradient-17" x1="173.42" y1="-1.01" x2="912.21" y2="169.51" gradientTransform="matrix(1, 0, 0, -1, 0, 900.72)" gradientUnits="userSpaceOnUse">
      <stop offset="0.02" stop-color="#024e20"/>
      <stop offset="0.82" stop-color="#024e20"/>
      <stop offset="0.94" stop-color="#024e20"/>
    </linearGradient>
  </defs>
  <g class="cls-2">
    <rect class="cls-1" width="1600" height="900"/>
    <path class="cls-3" d="M1601.65-4.22H284.54a101.64,101.64,0,0,1-19.13,1.06,99.2,99.2,0,0,1-25.86-2.36H-3.56v721c503.15,193.92,1042.73,183.82,1607.7,31.65V26.86a129.58,129.58,0,0,1,3.83-31C1605.88-4.13,1603.77-4.14,1601.65-4.22Z"/>
    <path class="cls-4" d="M1604.14,630.5,140.29,631.56l-25.73-.47L-.92,629S47,664.48,154.5,663.4s719.5-1.47,959.37-6.4c102.57-2.11,315.22-9.64,490.27-16.17Z"/>
    <g class="cls-5">
      <path class="cls-6" d="M69.72,602.19H1325.33s-1.53-58.23-57-116c-75.34-78.54-236.76-124-293.4-137-14.2-3.2-68.28-11.3-136.29-9.6l-20.32,1c-15.39.92-28.59,2.38-42.4,4.13-155.79,19.61-388.75,97.2-563.56,161-33.82,12.35-83.7,23.41-142.67,33.22Z"/>
    </g>
    <path class="cls-7" d="M1296.39,487.21c-117.89-28.36-186.73-18.14-228.15-4.15-57.54,19.44-339.87,71.28-406.5,76.4s-322.82,12.68-457.11-45.15L201.8,636.23l1094.59,29.2Z"/>
    <path class="cls-8" d="M-3.56,734.51l255.28-.85-21.95-14.92c-22.42-38.14-101-31.51-101-31.51C112.43,654,28,659,28,659,18,647.27,7.2,639.88-3.56,635.55Z"/>
    <path class="cls-9" d="M1604.14,545.3c-102.89,3.75-190.42,50.7-318.16,61.43-295.6,24.81-655.41,31.15-821.69,20.58C419,624.4,294,603.48,283.59,603.83S177.46,613.41,139.91,616C111.52,617.87,33,594.09-3.56,582.37V903.24h1607.7Z"/>
    <path class="cls-10" d="M1340.36,814.71c-126.31,20.32-278.49,41.53-352.29,39.4-94.28-2.72-282.5-54.29-376.83-54-90.39.33-271.49,40.8-361.58-1.27a336.22,336.22,0,0,0-66.93-23.15v127.5H1340.36Z"/>
    <path class="cls-10" d="M98.19,791.47s1.08-18.89,0-20.64-4.11,4.08-2.41,12.24A45.53,45.53,0,0,0,98.19,791.47Z"/>
    <path class="cls-10" d="M95.27,789.7s-.48-17-2.72-19.18S95.27,789.7,95.27,789.7Z"/>
    <path class="cls-10" d="M65.51,777.93s3.49-5.7,1.7-8.85S62.91,777.68,65.51,777.93Z"/>
    <path class="cls-10" d="M62.2,776.43s3.58-12.6,1.07-18.89S60.76,773.28,62.2,776.43Z"/>
    <path class="cls-11" d="M1486.44,597.78s5.71-69.28-58.53-96.33c-27.63-11.63-39.39,4.79-39.39,4.79s-19.29-21.7-43.4-19.22-46.63,27.19-46.63,27.19-50.64-14.35-66.71,5.58c0,0-8,7.62-3.22,18.16,0,0-69.13-19.76-76.36,29.67,0,0-41-5-48.23,29.41,0,0-58.21-17.82-81.78,19.32,0,0-54.28-1.43-68.56,18.57l17.41.13,504.06-4.52Z"/>
    <path class="cls-12" d="M1257.25,568.49a17.29,17.29,0,0,0,4,10.32c6.23,7.44,16.65,7.2,17.76,7.16l-.34-16.51,6.41.25v9.14a15.05,15.05,0,0,0,8.18-.92,13.33,13.33,0,0,0,7.32-7.73l2.68.07-1.62,4.5a11,11,0,0,0,7.34,1,10.09,10.09,0,0,0,6.72-5.2h2s-1.3,10.42-17,7c-2.85,3.64-9.52,7.54-15.68,5.59.36,11.33,2.43,55.7,2.43,55.7h-7.23q-.63-24.33-1.25-48.65a27.16,27.16,0,0,1-17.2-7,22.18,22.18,0,0,1-7-15Z"/>
    <path class="cls-13" d="M1604.14,535.21c-3.13-.33-6.32-.58-9.53-.7-35.95-1.37-70.38,16.66-70.38,16.66s-59-6.5-86.17,6.59c-38.66,18.62-29.7,30.78-29.7,30.78s-30-5.46-63.89,35.75c0,0-63.44-10.64-71.9,17.28l96.86,8.26,234.71.08Z"/>
    <path class="cls-14" d="M143.94,643.45s-52.15-30.61,36.27-43c0,0-29.47-22.35,0-41.38,0,0,62.65-47.67,112.7-.08,0,0,36.25-45.9,76.32-6.59,0,0,31.14-25.72,66.29-10.82s40.09,38.59,40.09,38.59,27.87-26.83,52.55,4.73c0,0,55.84-16.55,69.27,28.79,0,0,88.44-12.42,87.36,18.21,0,0,72.56-3.32,56.68,15.73,35.55,4.11,24.14,7.09-27.21,9.11l-557.85-7.49Z"/>
    <path class="cls-15" d="M1605.2,1.29H288.1A100,100,0,0,1,269,2.35,98.69,98.69,0,0,1,243.11,0H0V887.65H1607.7V32.38a129.1,129.1,0,0,1,3.82-31C1609.43,1.39,1607.33,1.37,1605.2,1.29Z"/>
    <path class="cls-16" d="M239.65,71.94c.29-22.65,3.49-48.7,8.72-75.87-3-.39-5.89-.93-8.78-1.59H-3.56V903.24H274.29c-15.9-58.08-35.7-141.6-38.29-305.3C233.09,413.88,238.69,145.8,239.65,71.94Z"/>
    <path class="cls-17" d="M211.49,903.24h10.18c-2-15.37-3.89-31-5.61-46.59-7.61-69-14.15-138.12-13.15-195.12,2.19-45.09,11.26-111.89,13.7-169.76-7.54,106-30.54,143.67-18.54,272.37C203.19,818.77,210.86,851.31,211.49,903.24Z"/>
    <g class="cls-18">
      <path class="cls-19" d="M217.38,86.16c.74-30.58,1.5-61.23,4.54-91.68h-7.19c-.32,3.27-.62,6.53-.87,9.8-2.09,25.9-1.27,55.75-1,81.85,1.73,78.49.37,159-.68,237.49-.68,98.07-.44,198.83,2,296.83q1.28,59.35,3.77,118.71h.83c.27-9.9.45-19.79.63-29.69,2.9-157.82.84-317.12-2.62-474.91C215.88,185.53,216,135.24,217.38,86.16Z"/>
    </g>
    <g class="cls-20">
      <path class="cls-19" d="M195-5.52c-1.31,18.32-1.52,36.71-2.39,55-1.77,35.2-5.92,70.28-7.22,105.51-1.58,34.73-2,71.07-.68,105.73.72,17.62,1.56,35.23,3,52.82h.8c1.29-17.62,2-35.22,2.51-52.82,1.73-43.59,1.78-88.27,2.21-131.91-.14-30.79-.21-61.65,3.19-92.3,1.38-12.48,3.38-26.78,5-39.26.12-.93.22-1.86.34-2.79Z"/>
    </g>
    <g class="cls-21">
      <path class="cls-19" d="M168.28-5.52c-.93,8.84-1.78,17.64-2.45,26.32a1474.66,1474.66,0,0,0-4.2,148.65c.46,24,1.6,50.41,3.2,74.29,3.59,51.72,4.09,46.87,4.09-.13.37-67.72.6-136.2,2.6-203.92.6-15,1.13-30.09,1.82-45.21Z"/>
    </g>
    <g class="cls-22">
      <path class="cls-19" d="M145.55-5.52C134.81,47.29,123.73,99.89,109.47,151.9l.75.27a510.27,510.27,0,0,0,19-52.26C139.9,65.55,147.49,30,153.38-5.52Z"/>
    </g>
    <g class="cls-23">
      <path class="cls-19" d="M152.57,103.28c-4.4,21.11-7.83,43.14-11.07,64.47-2.46,16.49-5.21,37.35-7.48,54-7.8,65-17.87,129.78-20.57,195.26-1.68,43.19-2.3,87.78-3.57,130.93-.9,68.89-2.5,138.45-3.75,207.33q-.51,21.86-1.3,43.69H104c-.79-14.55-1.43-29.1-2-43.66a2583,2583,0,0,1,6-305.79c1.92-25.75,4.92-61.78,6.51-87.17,3.21-47.23,5.49-94.66,12.63-141.54,4.28-28.8,9.19-57.73,16-86.06,1.2-5.14,4-16.08,5.48-21.2,1-3.51,2.08-7,3.21-10.48l.77.23Z"/>
    </g>
    <g class="cls-24">
      <path class="cls-19" d="M152.59,184.25c-.64,43.06-2.21,86.55-4.76,129.52-1.82,25.36-4.43,55.69-4.77,80.87-.77,37.79,1.17,75.58,1.92,113.36,1.44,51.17,3.23,102.47,5.48,153.6.83,13.37,1.64,27.06,2.13,40.47l-.8.09c-2.22-13.21-4.17-26.85-6.06-40.15-1.45-12.39-2.9-27.81-4.16-40.39-1.23-15.49-2.32-33.1-3.13-48.61-1.12-32.45-1.41-64.92-.69-97.37.9-32.43,2.79-64.84,3.22-97.26.25-21.28-.19-43.6.21-64.89s1.84-43.55,3.52-64.78c1.73-21.57,3.86-43.11,7.09-64.52l.8.06Z"/>
    </g>
    <g class="cls-18">
      <path class="cls-19" d="M181.12,183.05c3.73,34.34,5.66,69.81,7,104.37,1.68,34.84.25,69.74.51,104.58s2.21,69.7,3.27,104.54c1.29,58.15,1.49,116.42-4.18,174.39-1.77,17.42-3.94,34.87-8.18,51.89a76,76,0,0,1-6,16.52l-.72-.35c4.06-10.83,5-22.49,6.32-33.9,4-45.43,4-93.18,5.14-138.9.62-56.78,3.41-117.48,1.79-174.13-1.17-34.82-4.46-69.56-5-104.42-.24-8.55-.61-26.23-.73-34.82Q180,235.39,180,218c0-11.62,0-23.25.29-34.88h.8Z"/>
    </g>
    <g class="cls-23">
      <path class="cls-19" d="M26.89-5.52c.79,19.2,1.44,38.51,2.44,56.83,1.49,43.86,3.23,88,4.76,131.86.36,15,.73,31.75,1.49,46.63h.8c.88-10.34,1.57-20.7,2.18-31.07,3.92-68.1.62-136.42-6.4-204.25Z"/>
    </g>
    <path class="cls-25" d="M224.17,605.23s40.15,33.15,0,124.68C209.81,749.47,191.48,598.29,224.17,605.23Z"/>
    <path class="cls-26" d="M239.33,629.2c6,5,22.94,19.63-1,50.19,0,0-1.86,20.75-9.89,5.42-5.44-10.36-9.84-54.13,4.26-57.35A7.79,7.79,0,0,1,239.33,629.2Z"/>
    <path class="cls-27" d="M332.68,594.75c-1.86-.17-18.84.39-33.21,17.43-2.33,1.94-14,2.58-26,20.65S237.29,648,237.29,648c-4.6,3.71-4.89,21.58,1.47,23.52,0,0,35-9.65,43.07-28s21.27-22.27,21.27-22.27a45.9,45.9,0,0,1,43,3.44c1.11.7,2.1-1.15,1.15-2.15-6.21-6.54-18.1-14.72-36.1-9.35,0,0,3.89-11,24.13-12.91,1.64-.69,14,1.86,18.94-4C358.59,587.63,349.55,596.37,332.68,594.75Z"/>
    <path class="cls-28" d="M1239.12,208.17s-41.38,29.34,12.36,86.27C1269.41,305.68,1274.81,198.16,1239.12,208.17Z"/>
    <path class="cls-29" d="M1221.76,216.76c-9.45,6.7-35.76,26.15,9.31,52.41,0,0,6.25,21.33,17.5,3.3,7.61-12.19,8.47-59.17-15.82-59.15A19.6,19.6,0,0,0,1221.76,216.76Z"/>
    <path class="cls-30" d="M956.25,185.09c4.93-1,50.27-6.65,92,11.89,6.61,1.83,37.84-1.71,73.28,19.2s99.58,7.55,99.58,7.55c13,3.47,17.39,28.55.85,33.71,0,0-95.25-.23-120.39-23.08s-61.17-23.26-61.17-23.26-57.53-6.88-113.83,21.25c-2.82,1.41-5.83-.82-3.5-2.6,15.22-11.58,45.24-27.65,94.28-26.95,0,0-12.58-14-66.88-9-4.51-.35-36.86,8-51.27,1.52C885.81,184.93,911.65,193.8,956.25,185.09Z"/>
    <path class="cls-31" d="M1601.65-4.22H1185.33c35.76,78.43,63.37,170.51,64.6,238.57,1.58,93.88,10.78,434.73,6,668.89h348.21V26.86a129.58,129.58,0,0,1,3.83-31C1605.88-4.13,1603.77-4.14,1601.65-4.22Z"/>
    <g class="cls-32">
      <path class="cls-33" d="M1209.41-4.22h-24c35.78,78.45,63.4,170.56,64.54,238.61,1.57,93.88,10.79,434.68,6,668.85h24c4.78-234.16-4.42-575-6-668.85C1272.82,166.34,1245.2,74.23,1209.41-4.22Z"/>
      <path class="cls-34" d="M1292-4.22c10.18,14.45,17.8,28.31,21.2,40.8,0-13.37,0-27,.12-40.8Z"/>
    </g>
    <g class="cls-18">
      <path class="cls-19" d="M1292,245.84c0-18,.37-49.1-.44-66.72a519.55,519.55,0,0,0-34.86-167.81c-2.1-5.2-4.3-10.38-6.56-15.53h-5.3c23.07,55.15,35.89,114.77,40.4,174.19,1.92,21.9,2.22,53.68,2.85,75.9,1.75,75.83,1.34,152.54,0,228.31-2.44,142.09-4.27,286-4.45,429.06h6.28c2.26-117.58,2.29-236.22,2.49-352.93C1291.75,449.43,1290.71,346.77,1292,245.84Z"/>
    </g>
    <g class="cls-20">
      <path class="cls-19" d="M1372.18,117.81c-1.59-22-2.86-45.27-5.2-67.27-1.28-11-2.55-22.55-4.47-33.48-.54-2.81-3-18.36-3.54-20.81,0-.14-.06-.31-.09-.47H1353c2.12,13,4.06,26.18,5.86,38.89,2.91,20.29,6.19,42.09,8.91,62.45,5.79,46,6.31,92.36,7.43,138.63,1,38.35,1.4,79.53,2.31,117.78,1,33.49,1.25,67.51,2.84,101h.7c1.81-33.67,3.24-67.38,3.24-101.1.36-44.21-1.13-90.64-4-134.8C1378,185,1374.7,151.42,1372.18,117.81Z"/>
    </g>
    <g class="cls-21">
      <path class="cls-19" d="M1457.8,22.63Q1455.51,9.21,1453-4.22h-3.08c11.08,47.84,17,97.11,20.46,146.11,2.94,38.78,5.19,80.62,6,119.56,2,71.45,1.6,144.14.27,215.59-.13,8-.25,16-.3,24h.7q2.38-29.91,4.39-59.83c.81-18.51,2.06-41.53,2.56-60,1.34-47.19,1-96.9-1.27-144C1479.38,165.33,1470.35,93.4,1457.8,22.63Z"/>
    </g>
    <g class="cls-23">
      <path class="cls-19" d="M1554.68,20c-1.87-8-3.84-16.08-5.89-24.23h-6.22c3.87,15.72,7.52,31.53,10.72,46.75,14.33,65.65,26.53,136.06,36,202.71,6,44.69,11,90.89,14.85,136.72V356c-4.13-40.8-8.73-82.36-13.59-121.83C1582,163.5,1570.85,89.24,1554.68,20Z"/>
    </g>
    <g class="cls-23">
      <path class="cls-19" d="M1576.73-4.22h-5.86q8.4,57.11,16,114.26c3.55,26.35,7.41,59.05,10.41,85.47q3.69,33.28,6.87,66.68V239c-7.37-76.7-15.64-154.1-25.49-229.19C1578,5.14,1577.37.46,1576.73-4.22Z"/>
    </g>
    <g class="cls-24">
      <path class="cls-19" d="M1533.73,197.05c-5.38-40.16-9.77-80.5-17.38-120.34C1511,49.57,1505,22.53,1498-4.22h-4.74q4.62,21.21,9,42.48c10.9,55.54,24.2,112.85,30.62,169.08,3.39,29.73,5.46,60.81,6.72,90.73,3.64,75.46,2.43,151.63-7.14,226.63-.93,7.39-2.68,17.56-3.68,25-1.47,9.95-3.65,19.94-5.29,29.88l.68.16c31-111.13,28.9-228.85,14.68-342.49C1537.24,224.46,1535.41,209.87,1533.73,197.05Z"/>
    </g>
    <g class="cls-35">
      <path class="cls-19" d="M1298.48,78c17.35,78.76,28.81,159.24,28.61,240-.11,13.65-1.11,31.22-1.65,44.9-8,179.69-18.58,360.35-12.06,540.32h7.11c-.88-36.25-1.32-72.51-1.64-108.66-.46-119.89.54-239.86,5.54-359.66,1.55-32.95,3.73-70.56,6.27-103.26.39-6.91.89-15.7,1-22.56,2.25-81.29-11-162.32-31.55-240.73-5.46-20.24-11.46-40.56-18.46-60.29h-.06l-.66.22q5,17.27,9.31,34.73C1293,54.11,1296,66.92,1298.48,78Z"/>
    </g>
    <g class="cls-35">
      <path class="cls-19" d="M1406.89,2.57C1406.28.3,1405.63-2,1405-4.22h-6.53c4.71,16,9,32.23,13,48.43,5,20,9.26,40.43,12.71,60.73,6.64,40.87,9.46,82.28,11.29,123.61,1.08,27,2.27,55.62,2.35,82.71,1,64.71-.48,141.64-1.82,207h.7c1.34-13.76,2.54-27.54,3.69-41.32,8.52-110.29,6.89-221.69-8.37-331.29C1425.51,97.71,1419.59,49.4,1406.89,2.57Z"/>
    </g>
    <g class="cls-36">
      <path class="cls-19" d="M1433.71,903.24H1440c1.82-37.85,2.29-75.85,1.8-113.62-2.06-74.62-5.77-152.12-16.61-224.68,2,35.28,3.94,70.54,5.55,105.79C1434,748.15,1436,825.77,1433.71,903.24Z"/>
    </g>
    <g class="cls-37">
      <path class="cls-19" d="M1365.32,903.24h3.55c-9.9-45.44-15.74-91.8-19.57-138.13-4.58-61.8-5.06-124.2,1.59-185.88l.21-1.46c0-.16.07-.32.1-.47h0V577s.07,0,0,0v-.08a.86.86,0,0,0,0-.32c-1.39-.11-.46.17-.77.17-.81,3.61-1.4,7.35-2,11-6.46,43.06-8.32,86.73-7.55,130.24A811.62,811.62,0,0,0,1365.32,903.24Z"/>
      <polygon class="cls-19" points="1350.59 577.24 1350.59 577.31 1350.55 577.24 1350.59 577.24"/>
    </g>
    <g class="cls-35">
      <path class="cls-19" d="M1508.3,760.66c3.94,25.51,8.78,51.42,14.12,76.69,5.16,21.93,10.32,43.87,15,65.89H1544q-7.48-33.75-17-67c-2.58-10.55-6-23.78-8.17-34.38a815.17,815.17,0,0,1-19.73-154c-2.28-75.15-1-151,14.21-224.89l0,0-.67-.2c-2.84,9.05-5.07,18.25-7.07,27.5-6.48,30.08-10.12,60.75-12.12,91.44-1.27,21.23-1.8,42.62-1.33,63.89C1493.56,657.54,1500.38,709.35,1508.3,760.66Z"/>
    </g>
    <g class="cls-36">
      <path class="cls-19" d="M1480,903.24c-2.1-25.66-3.89-51.4-5.12-76.91-1.63-34.82-2.21-69.84-4.21-104.66-3-48.48-6-98-12-146.16h0c-.2,107.88,13.47,218.74,18.1,327.73Z"/>
    </g>
    <g class="cls-36">
      <path class="cls-19" d="M1604.14,888.91l-.59-3.68c-2.21-14.83-4-29.74-5.56-44.66-.86-9.22-2-22.69-2.77-32-7.13-114.21-5.08-232.67-1.88-347,.54-23.93,1.66-53.17,2.45-77.17.28-8.58.55-17.16.74-25.74h-.69c-13,136.28-17.41,275.09-6.59,411.7,3.94,44.36,7.91,88.77,14,132.88h.86Z"/>
    </g>
    <g class="cls-36">
      <path class="cls-19" d="M1508.69,905.84c3.28-54.09,14.72-107.76,17-161.93,1.2-43.67,2.26-91,5-134.36,6-79,8.77-158.36,9.66-237.62v-.05h-.69c-3,27.45-4.65,55-6.35,82.53-3,47.83-4.57,96.77-5.2,144.67-.64,34.42-2.28,69-4.64,103.29-1.82,27.48-3.51,54.87-7.41,82.17-4.61,36.47-12.89,79.85-14.46,121.3Z"/>
    </g>
    <path class="cls-38" d="M671-4.22c.95,6.29,3.75,10.85,8.46,12.67C687,11.34,697.47,6.58,707.59-3c1.79,13,8.35,22.92,15.15,22.51,5.47-.35,9.47-7.35,10.47-16.94,1.27,1.64,30.62,2.39,32,3.74,0,0,5.17,31.24,14.11,32.63,10.75,1.75,43.41-28.48,43.41-28.48,1.42-1.12,26.54,15.31,27.94,13.88.13,9.68,3.49,17.18,8.9,18.34,6.69,1.38,14.11-7.57,17.11-20.25,9.11,10.95,19.19,17.15,26.91,15.39,9.14-2.13,12.5-15,9.59-31.61,4.13.32,8.5-3.31,11.92-9.2,4.37,10.54,10.95,17.68,17.52,17.46S953.87,6.88,955.4-3.9A9.38,9.38,0,0,0,961.47.46c2.87.43,5.8-.83,8.51-3.33C972.3,5.34,976.61,11,982.24,12c7,1.15,14.12-5.5,18.77-16.25Z"/>
    <path class="cls-38" d="M1395.7-2.23c8.13,2.12,14.64,1.91,16.93-1.25a4.25,4.25,0,0,0,.44-.74h-314c-5.72,14.46-4.48,28,3.09,30.85,4.17,1.59,9.43-.39,14.43-4.8-5.37,10.35-5.8,19.62-.15,23.22,5.4,3.41,15,.65,24.4-6.35-3.67,4.82-4.72,9.36-2.2,12.36,3.78,4.43,14.27,4.13,25.78-.16v.32c.38,4.91,10.32,9.19,23.22,10.47-7.34,2.74-11.64,6.51-10.86,10.33,1.14,5.49,12.74,9.37,27.31,9.49-8.27,6.45-12.15,13.4-8.92,17.71,4.53,6.15,21.33,4.81,37.59-3a76,76,0,0,0,9.43-5.42c-5.87,17.94-3.74,33.91,5.78,37.52,11,4.14,27.35-9.45,36.74-30.38a87.82,87.82,0,0,0,3.38-9.32c6.81,13.74,16.64,22.91,24.33,21.66,9.51-1.52,12.19-18.51,6-37.87-.15-.37-.25-.74-.39-1.11,20.15,13.78,40.81,19.53,47.73,12.87,5.34-5.28.65-16.76-10.66-28.88C1372.4,67,1389,72,1396.46,66.48c9-6.71,1.15-26.74-17.45-46.37,15.32,7.61,29.5,9.73,33.69,4.5C1417.09,19.24,1409.58,8,1395.7-2.23Z"/>
    <path class="cls-38" d="M1006.41-4.22c2.92,4.48,6.48,7.25,10.25,7.41,4,.13,7.45-2.68,10-7.41Z"/>
    <path class="cls-38" d="M1040.31-4.22A7.7,7.7,0,0,0,1041.64.1c6,8.69,29.57,7.41,52.57-2.87,1-.47,2.07-1,3.07-1.45Z"/>
    <path class="cls-38" d="M389.4,25.05l-1.86-.24c1.13-.32,2.26-.7,3.41-1.12,19.44-6.68,33.32-16,37.3-24.14H347.43A172,172,0,0,1,322.51.61a167,167,0,0,1-33.67-2.36H-27.77V53.51c4.36-.46,8.81-1.08,13.29-1.88,2.61-.48,5.21-1,7.81-1.6-12.42,14.49-14.82,29.8-5.2,34.58,5.14,2.58,12.68,1.61,20.61-2-10,9.84-13.1,19.64-6.51,24.64,6.29,4.78,19.86,3.88,34.37-1.49-6.21,4.33-8.9,8.95-6.29,12.66,3.87,5.52,18,7.46,34.54,5.38v.25c-.82,5.31,11.3,12,28.23,16.14-10.56,1.33-17.33,4.41-17.33,8.63,0,6.16,14.49,12.73,34,16-12.83,5.07-19.9,11.61-16.73,16.89,4.37,7.55,27.23,9.73,51.11,4.94a123.49,123.49,0,0,0,14.09-3.72c-12.73,17.79-14.17,35.22-2.44,41.1,13.53,6.76,39.2-4.14,57.43-24.35a97.73,97.73,0,0,0,7-9.18c5.38,16.06,16,27.93,26.69,28.26,13.14.43,21.38-17,18.35-38.93-.11-.43-.12-.85-.21-1.27,23.22,19,49.32,29.59,60.39,24,8.58-4.48,5.42-17.68-6.43-33,19.91,16.2,40.84,25,52.26,20.8,13.91-5.16,8.78-28.14-10.76-53,18.44,11.35,36.84,16.65,43.86,12,7.3-4.76.3-18.34-15.51-32.18,10.31,4,19.1,5.17,23,2.32,5.06-3.66.67-12.69-9.67-22.36,22.47,3.6,40.3,1.88,42.53-5,2.58-7.92-16.63-19.71-43.48-27.13,29.88,1.82,52.56-3.22,53-12.53C454.67,41.77,425.67,29.5,389.4,25.05Z"/>
    <path class="cls-38" d="M1271.86-4.22c1.89,5.32,5.1,9.38,9.68,11.69,10.4,5.19,25.48.22,40.15-11.69Z"/>
    <path class="cls-38" d="M1553.14-.68A88.78,88.78,0,0,0,1570-4.22H1328.2c-4.87,14.3-3.64,26.34,4.5,31.59,12.76,8.29,38.2-2.82,58.85-25a13.88,13.88,0,0,1,0,1.58c1.42,27.86,13.8,51,27.72,51.68,11.2.57,19.88-13.61,22.11-33.75,2.87,4.14,6,8.32,9.55,12.45,23.6,27.6,53.07,44.09,66,36.67,11.17-6.44,6-29-11.31-53a127.89,127.89,0,0,0,15.72,6.07c26.24,8.42,50,7.76,53.12-1.45C1576.61,16.1,1567.78,7,1553.14-.68Z"/>
    <path class="cls-39" d="M533,903.24q-27.63-4.72-54.83-10.51C232.34,840.12,66.75,849.46-3.56,858.06v45.18Z"/>
    <path class="cls-40" d="M987.76,903.24c2.88-8.68,6.53-17.13,10.69-21.24,9-8.86-10-11.29-20.72,9.87A37.42,37.42,0,0,0,974,903.24Z"/>
    <path class="cls-40" d="M450.57,899.25S478.83,893.85,478,879,450.57,899.25,450.57,899.25Z"/>
    <path class="cls-40" d="M446,903.24c3.44-7.81,16.46-36.4,26.6-44.52,11.78-9.44-20.41-10.21-27.47,28.61v15.91Z"/>
    <path class="cls-40" d="M443.9,900.25s7.92-28.85-21.59-30.35C409,869.23,443.9,900.25,443.9,900.25Z"/>
    <path class="cls-40" d="M317.77,872.19s11-9.49,32.18-11.82-22.76-12.46-38.46,11.82C311.49,872.19,304.43,883,317.77,872.19Z"/>
    <path class="cls-40" d="M288,873.54s32.18-30.35,51-38.44-18.06-8.77-43.17,16.52C295.8,851.62,283.24,866.79,288,873.54Z"/>
    <path class="cls-40" d="M278.53,873.54s21.38-49.23,31.1-55.3-15.4-9.44-31.1,30.68C278.53,848.92,272.25,870.16,278.53,873.54Z"/>
    <path class="cls-40" d="M267.15,873.54s8.24-45.18,16.09-51.93S253.41,829,267.15,873.54Z"/>
    <path class="cls-40" d="M262.44,873.54s.39-37.64-16.49-43.44S255.77,854.66,262.44,873.54Z"/>
    <path class="cls-40" d="M256.94,873.54s-10.59-43.14-36.5-44.16S240.85,845.21,256.94,873.54Z"/>
    <path class="cls-40" d="M254.72,873.54S240.85,856,217.3,857.35,249,868.14,254.72,873.54Z"/>
    <path class="cls-41" d="M807.41,903.24c15.44-28.89,37.88-54.91,37.88-54.91-33.52-5.6-52.45,31.9-60.79,54.91Z"/>
    <path class="cls-41" d="M766.64,903.24h14.59c5.5-71-28.82-77.91-28.82-77.91C764.59,848.89,766.71,882.17,766.64,903.24Z"/>
    <path class="cls-41" d="M747.84,903.24h16.55c-8.14-79.62-39.61-77.91-39.61-77.91C731.61,829.41,741.94,874.72,747.84,903.24Z"/>
    <path class="cls-41" d="M717.88,903.24H742.5C709.61,836.34,673,850.33,673,850.33A92.07,92.07,0,0,1,717.88,903.24Z"/>
    <path class="cls-42" d="M272.48,903.24c27.38-33.24-5.84-49.3-65-29.86l-70.55,29.86Z"/>
    <path class="cls-42" d="M110.68,903.24,136,874.69c-2.79,3-4.67,4.19,43.61-57.08,60.71-77.05,3.07-115.48-44-81.55-17.23,12.42-22.23,15.09-23.3,15.17-1.36,1.74-4.91,5.74-13.2,14.19,30.9-93.65-24.71-132.08-38.44-68.23C56,719,54.44,727,54.46,728.05c-1.33,4.89-3,10.86-5,18.18C32.07,701.65,12.66,680.9-3.56,676V843.78c7.68,22.52,15.09,43.57,20.74,59.46Z"/>
    <path class="cls-42" d="M7.86,903.24-3.56,886.51v16.73Z"/>
    <path class="cls-43" d="M224.44,903.24c21-10.41,35.46-17.83,35.46-17.83l-39.85,17.83Z"/>
    <path class="cls-43" d="M62.73,902.15,174.94,745.72S91.27,883.49,62.73,902.15"/>
    <path class="cls-43" d="M55.74,903.24C67.33,847.59,86,689.27,80.69,685.7v0S55.8,843.8,50.92,903.24Z"/>
    <path class="cls-43" d="M44.91,903.24C47,875.06,13.81,775.79-3.56,727.94V740.1c14.61,52.35,40.31,142.12,46.33,163.14Z"/>
    <path class="cls-43" d="M98.91,851.71l52.94-12.77s-44.95,1.63-52.94,12.77"/>
    <path class="cls-43" d="M116.75,826.85s-4.21-47.88-5-53.13,11.38,34.89,5,53.13"/>
    <path class="cls-43" d="M138.76,803s49.61-11.39,50.8-16.74-43.95,14-50.8,16.74"/>
    <path class="cls-43" d="M141.23,788l-3.8-39.34s11.23,24.23,3.8,39.34"/>
    <path class="cls-43" d="M204.55,903.24c5.41-11,10.32-26.51,6.25-24.18-3.71,2.12-7.94,14.86-10.62,24.18Z"/>
    <path class="cls-43" d="M69.72,814c.33-2.52,23-23.62,23-23.62s-11.83.11-22.7,21.1"/>
    <path class="cls-43" d="M64.3,786.35s-9.93-29.94-10.84-29.09,12.39,9.13,10.84,29.09"/>
    <path class="cls-43" d="M76.81,754.62l17.8-33.8s-15.06,9.37-17.8,33.8"/>
    <path class="cls-43" d="M27.61,821.71s8.3-53.74,9.23-56-14,25.47-9.23,56"/>
    <path class="cls-43" d="M6.85,757.38s-2.29-31,1.64-40.83,1.41,31.93-1.64,40.83"/>
    <path class="cls-43" d="M-3.56,775.78,9.79,787.51A82.51,82.51,0,0,0-3.56,771.68Z"/>
    <path class="cls-43" d="M29.59,857.14-3.5,836s21.92,7.17,33.09,21.16"/>
    <path class="cls-42" d="M1054.35,903.24h90.31c13.07-31.83-11.45-40.52-26.53-23.88-5.78,6.38-7.53,7.86-8,8-.39.81-1.46,2.69-4,6.76,4.42-39.86-20.94-50.39-21-23.86,0,9,0,12.3.14,12.77-.11,2.06-.26,4.58-.44,7.67-27.63-42-47.09-19.6-34.41,5.14C1051.6,898.13,1052.93,900.62,1054.35,903.24Z"/>
    <path class="cls-43" d="M1126,903.24c5-13,8.61-23.37,8.61-23.37l-10.24,23.37Z"/>
    <path class="cls-43" d="M1097.51,903.24c-1.86-20.49-4.13-38.72-5.39-39.24,0,0,1,18.41,2.36,39.24Z"/>
    <path class="cls-43" d="M1068.77,903.24h2.84c-8.6-14.56-16-26.08-15.61-24.82C1056.37,879.51,1061.91,890.18,1068.77,903.24Z"/>
    <path class="cls-43" d="M1114.12,903.24h1.21c-1.86-4.58-3.81-8-3.43-6.93C1112.17,897,1113.07,899.88,1114.12,903.24Z"/>
    <path class="cls-43" d="M1130.12,903.24c5.56-2.75,13.73-7,13.74-8.51,0-1.71-9.65,4.71-15.23,8.51Z"/>
    <path class="cls-43" d="M1124.8,899.5l-4.8-15.31s6.51,8.68,4.83,15.31"/>
    <path class="cls-43" d="M1093.67,903.24a14,14,0,0,0-5.84-8c1,1.41,3.51,5.5,5,8Z"/>
    <path class="cls-43" d="M1096.39,891.7l4.22-14.94s-5.19,5-4.22,14.94"/>
    <path class="cls-43" d="M1080.77,903.24h.79a35,35,0,0,1,0-3.74A26.29,26.29,0,0,0,1080.77,903.24Z"/>
    <path class="cls-43" d="M1068.84,898.7s-3.54-12.14-2.8-16.36,3.26,12.56,2.8,16.36"/>
    <path class="cls-1" d="M1375.37,903.24c-20-36-51.18-61.12-84.26-41.08-6.34,8.49-13.16,23-17.9,41.08Z"/>
    <g>
      <path class="cls-44" d="M1003.31,678.9s-14.79-8.15-18.79-7.38,4.06-7.2,16,1.75C1005.31,676.86,1003.31,678.9,1003.31,678.9Z"/>
      <path class="cls-44" d="M1006.51,678.9s-6.22-18.57-12.9-20.47,10.63-4.77,14.1,7.75C1010.11,674.83,1006.51,678.9,1006.51,678.9Z"/>
      <path class="cls-44" d="M1008.54,678.9s7.17-13.23,21.56-13.74-21.56,14.5-21.56,14.5"/>
      <path class="cls-44" d="M1163.75,706.07s-14.79-8.15-18.79-7.38,4.06-7.2,16,1.75C1165.75,704,1163.75,706.07,1163.75,706.07Z"/>
      <path class="cls-44" d="M1167,706.07s-6.22-18.57-12.9-20.47,10.63-4.77,14.1,7.75C1170.55,702,1167,706.07,1167,706.07Z"/>
      <path class="cls-44" d="M1169,706.07s7.17-13.23,21.56-13.74-21.56,14.5-21.56,14.5"/>
      <path class="cls-44" d="M267.35,749.27s-11.66-8-14.81-7.21,3.2-7,12.61,1.71C269,747.28,267.35,749.27,267.35,749.27Z"/>
      <path class="cls-44" d="M267.35,750.17s-4.9-18.15-10.17-20,8.37-4.66,11.11,7.58C270.19,746.19,267.35,750.17,267.35,750.17Z"/>
      <path class="cls-44" d="M267.72,748.53s5.65-12.93,17-13.43-17,14.17-17,14.17"/>
      <path class="cls-44" d="M525.72,731.49s-11.65-8-14.8-7.22,3.2-7,12.6,1.71C527.3,729.5,525.72,731.49,525.72,731.49Z"/>
      <path class="cls-44" d="M323.26,712.86s-11.65-8-14.8-7.22,3.2-7,12.6,1.71C324.84,710.87,323.26,712.86,323.26,712.86Z"/>
      <path class="cls-44" d="M325.78,712.86s-4.9-18.15-10.17-20,8.38-4.66,11.12,7.59C328.62,708.88,325.78,712.86,325.78,712.86Z"/>
      <path class="cls-44" d="M327.38,712.86s5.65-12.93,17-13.43-17,14.17-17,14.17"/>
    </g>
  </g>
</svg>
