<svg xmlns="http://www.w3.org/2000/svg" xmlns:xlink="http://www.w3.org/1999/xlink" viewBox="0 0 1600 900"><defs><style>.cls-1{fill:none;}.cls-2{isolation:isolate;}.cls-3{clip-path:url(#clip-path);}.cls-4{fill:url(#linear-gradient);}.cls-5{fill:#71cd33;}.cls-6{fill:#a5eb98;opacity:0.49;}.cls-7{opacity:0.47;}.cls-8{fill:url(#linear-gradient-2);}.cls-9{fill:url(#linear-gradient-3);}.cls-10{fill:#6bba2d;}.cls-11{fill:#4aa311;}.cls-12{fill:url(#linear-gradient-4);}.cls-13{opacity:0.81;fill:url(#linear-gradient-5);}.cls-14{fill:url(#linear-gradient-6);}.cls-15{opacity:0.32;}.cls-16{fill:#300914;}.cls-17{fill:url(#linear-gradient-7);}.cls-18{mix-blend-mode:screen;}.cls-18,.cls-30,.cls-31{opacity:0.5;}.cls-19,.cls-60{opacity:0.58;}.cls-19{fill:url(#linear-gradient-8);}.cls-20{opacity:0.1;}.cls-21{opacity:0.21;}.cls-22{opacity:0.13;}.cls-23{opacity:0.36;}.cls-24{opacity:0.14;}.cls-25{opacity:0.18;}.cls-26{fill:#0c4c29;}.cls-27,.cls-30,.cls-31,.cls-51{mix-blend-mode:multiply;}.cls-27,.cls-62{opacity:0.43;}.cls-27{fill:url(#linear-gradient-9);}.cls-28{fill:#775a07;}.cls-29{fill:#211201;}.cls-30{fill:url(#linear-gradient-10);}.cls-31{fill:url(#linear-gradient-11);}.cls-32{fill:#724526;}.cls-33,.cls-34{opacity:0.39;}.cls-33{fill:url(#linear-gradient-12);}.cls-34{fill:url(#linear-gradient-13);}.cls-35{fill:#916b0c;}.cls-36{clip-path:url(#clip-path-2);}.cls-37{fill:url(#linear-gradient-14);}.cls-38{fill:#91afc6;opacity:0.62;}.cls-39{fill:#387f69;}.cls-40{fill:#42b236;}.cls-41{fill:#b6d667;}.cls-42{fill:url(#linear-gradient-15);}.cls-43{fill:url(#linear-gradient-16);}.cls-44{fill:#c28a73;opacity:0.56;}.cls-45{fill:#3beaa2;}.cls-46{fill:url(#linear-gradient-17);}.cls-47{fill:url(#linear-gradient-18);}.cls-48{fill:url(#linear-gradient-19);}.cls-49{fill:url(#linear-gradient-20);}.cls-50{opacity:0.3;}.cls-51{fill:#84e75a;}.cls-52{opacity:0.67;fill:url(#linear-gradient-21);}.cls-53{fill:url(#linear-gradient-22);}.cls-54{fill:url(#linear-gradient-23);}.cls-55{fill:url(#linear-gradient-24);}.cls-56{opacity:0.35;fill:url(#linear-gradient-25);}.cls-57{clip-path:url(#clip-path-3);}.cls-58{fill:url(#linear-gradient-26);}.cls-59{fill:url(#linear-gradient-27);}.cls-60{fill:url(#linear-gradient-28);}.cls-61{clip-path:url(#clip-path-4);}.cls-63{fill:#fff;}</style><clipPath id="clip-path"><rect class="cls-1" x="-1620" width="1600" height="900"/></clipPath><linearGradient id="linear-gradient" x1="-743.31" y1="932.86" x2="-743.31" y2="-2127.68" gradientUnits="userSpaceOnUse"><stop offset="0.2" stop-color="#ffffca"/><stop offset="0.67" stop-color="#9edcff"/><stop offset="1" stop-color="#4e9dff"/></linearGradient><linearGradient id="linear-gradient-2" x1="-403.02" y1="814.69" x2="148.69" y2="239.27" gradientUnits="userSpaceOnUse"><stop offset="0.01" stop-color="#987ce4"/><stop offset="0.23" stop-color="#919fdf"/><stop offset="0.45" stop-color="#8bbcdb"/><stop offset="0.64" stop-color="#87cdd9"/><stop offset="0.78" stop-color="#86d3d8"/></linearGradient><linearGradient id="linear-gradient-3" x1="-962.5" y1="655.44" x2="128.93" y2="567.02" gradientUnits="userSpaceOnUse"><stop offset="0" stop-color="#8eaddd"/><stop offset="0.15" stop-color="#8bbcdb"/><stop offset="0.38" stop-color="#87cdd9"/><stop offset="0.56" stop-color="#86d3d8"/></linearGradient><linearGradient id="linear-gradient-4" x1="-2711.17" y1="732.23" x2="-2570.71" y2="485.23" gradientTransform="matrix(-1, 0, 0, 1, -2740.17, 0)" gradientUnits="userSpaceOnUse"><stop offset="0" stop-color="#21607b"/><stop offset="0.23" stop-color="#238c77"/><stop offset="0.45" stop-color="#25af74"/><stop offset="0.62" stop-color="#27c472"/><stop offset="0.74" stop-color="#27cc71"/></linearGradient><linearGradient id="linear-gradient-5" x1="-724.79" y1="-2162.51" x2="-686.3" y2="2486.4" gradientUnits="userSpaceOnUse"><stop offset="0.46" stop-color="#fff" stop-opacity="0"/><stop offset="0.5" stop-color="#fffcf2" stop-opacity="0.12"/><stop offset="0.61" stop-color="#fef5d4" stop-opacity="0.38"/><stop offset="0.71" stop-color="#fdefbc" stop-opacity="0.6"/><stop offset="0.8" stop-color="#fdeaa9" stop-opacity="0.78"/><stop offset="0.88" stop-color="#fce79b" stop-opacity="0.9"/><stop offset="0.95" stop-color="#fce593" stop-opacity="0.97"/><stop offset="1" stop-color="#fce490"/></linearGradient><linearGradient id="linear-gradient-6" x1="-661.02" y1="421.71" x2="-71.68" y2="421.71" gradientUnits="userSpaceOnUse"><stop offset="0" stop-color="#8a5f3c"/><stop offset="0.24" stop-color="#744d29"/><stop offset="0.66" stop-color="#52300b"/><stop offset="0.89" stop-color="#452500"/></linearGradient><linearGradient id="linear-gradient-7" x1="7896.08" y1="215.48" x2="8485.42" y2="215.48" gradientTransform="matrix(-0.73, 0, 0, 1, 6112.62, 0)" xlink:href="#linear-gradient-6"/><linearGradient id="linear-gradient-8" x1="7946.03" y1="-1039.48" x2="7946.03" y2="1028.6" gradientTransform="matrix(-0.73, 0, 0, 1, 6112.62, 0)" gradientUnits="userSpaceOnUse"><stop offset="0.21" stop-color="#cc925e"/><stop offset="0.48" stop-color="#a56752"/><stop offset="0.8" stop-color="#6d3134"/><stop offset="1" stop-color="#292937"/></linearGradient><linearGradient id="linear-gradient-9" x1="4367.21" y1="-2103.85" x2="4477.97" y2="-1665.62" gradientTransform="matrix(-0.77, 0.07, 0.01, 0.99, 3840.35, 1263.32)" gradientUnits="userSpaceOnUse"><stop offset="0" stop-color="#96880c"/><stop offset="0.31" stop-color="#002405"/><stop offset="0.62" stop-color="#000b00"/><stop offset="1" stop-color="#596b00"/></linearGradient><linearGradient id="linear-gradient-10" x1="-7441.35" y1="86.24" x2="-7506.84" y2="82.3" gradientTransform="matrix(1, -0.05, 0.05, 1, 7503.8, -232.45)" gradientUnits="userSpaceOnUse"><stop offset="0" stop-color="#563628"/><stop offset="0.15" stop-color="#83593d"/><stop offset="0.3" stop-color="#ab784f"/><stop offset="0.43" stop-color="#c38b5a"/><stop offset="0.5" stop-color="#cc925e"/><stop offset="0.64" stop-color="#c98e5b"/><stop offset="0.78" stop-color="#bf8152"/><stop offset="0.93" stop-color="#af6d43"/><stop offset="1" stop-color="#a5603a"/></linearGradient><linearGradient id="linear-gradient-11" x1="-7431.49" y1="77.92" x2="-7506.03" y2="73.43" xlink:href="#linear-gradient-10"/><linearGradient id="linear-gradient-12" x1="-7498.02" y1="56.44" x2="-7411.26" y2="56.44" gradientTransform="matrix(1, -0.05, 0.05, 1, 7503.8, -232.45)" gradientUnits="userSpaceOnUse"><stop offset="0" stop-color="#542c28"/><stop offset="0.17" stop-color="#442321"/><stop offset="0.45" stop-color="#2f1619"/><stop offset="0.73" stop-color="#220f14"/><stop offset="0.99" stop-color="#1e0c12"/></linearGradient><linearGradient id="linear-gradient-13" x1="-7507.02" y1="4.73" x2="-7430.26" y2="4.73" xlink:href="#linear-gradient-12"/><clipPath id="clip-path-2"><rect class="cls-1" width="1600" height="900"/></clipPath><linearGradient id="linear-gradient-14" x1="816.19" y1="902.76" x2="816.19" y2="2.76" gradientUnits="userSpaceOnUse"><stop offset="0" stop-color="#fcf7bd"/><stop offset="1" stop-color="#88c8e4"/></linearGradient><linearGradient id="linear-gradient-15" x1="1052.3" y1="263.6" x2="1052.23" y2="260.36" gradientUnits="userSpaceOnUse"><stop offset="0" stop-color="#907d61"/><stop offset="0.36" stop-color="#6d6b4d"/><stop offset="0.58" stop-color="#5e6345"/></linearGradient><linearGradient id="linear-gradient-16" x1="1111.21" y1="505.65" x2="1105.25" y2="200.15" xlink:href="#linear-gradient-15"/><linearGradient id="linear-gradient-17" x1="-6192.4" y1="255.65" x2="-6372.2" y2="-170.38" gradientTransform="matrix(-1, 0, 0, 1, -5192.73, 0)" gradientUnits="userSpaceOnUse"><stop offset="0.26" stop-color="#55b093"/><stop offset="0.39" stop-color="#61c489"/><stop offset="0.56" stop-color="#6ddb7d"/><stop offset="0.68" stop-color="#72e379"/></linearGradient><linearGradient id="linear-gradient-18" x1="936.76" y1="331.34" x2="768" y2="166.06" gradientUnits="userSpaceOnUse"><stop offset="0.23" stop-color="#2fac76"/><stop offset="0.54" stop-color="#31ad79"/><stop offset="0.74" stop-color="#36b281"/><stop offset="0.88" stop-color="#3db98e"/></linearGradient><linearGradient id="linear-gradient-19" x1="-6431.29" y1="263.21" x2="-6487.13" y2="62.6" xlink:href="#linear-gradient-17"/><linearGradient id="linear-gradient-20" x1="1077.13" y1="334.23" x2="984.54" y2="15.58" gradientUnits="userSpaceOnUse"><stop offset="0.07" stop-color="#39a57e"/><stop offset="0.67" stop-color="#72e379"/></linearGradient><linearGradient id="linear-gradient-21" x1="-5000.33" y1="792.05" x2="62.44" y2="792.05" gradientTransform="matrix(-1.08, 0, 0, 1, -3683.51, 0)" gradientUnits="userSpaceOnUse"><stop offset="0.03" stop-color="#8ad866"/><stop offset="0.57" stop-color="#207263"/></linearGradient><linearGradient id="linear-gradient-22" x1="-1988.15" y1="480.45" x2="2773.56" y2="480.45" gradientTransform="translate(379.14) scale(0.56 1)" gradientUnits="userSpaceOnUse"><stop offset="0" stop-color="#63dca9"/><stop offset="0.08" stop-color="#4aba8c"/><stop offset="0.19" stop-color="#2f966d"/><stop offset="0.29" stop-color="#1b7a56"/><stop offset="0.39" stop-color="#0c6645"/><stop offset="0.5" stop-color="#035a3a"/><stop offset="0.6" stop-color="#005637"/></linearGradient><linearGradient id="linear-gradient-23" x1="-5106.2" y1="478.51" x2="-344.49" y2="478.51" gradientTransform="matrix(-0.52, 0, 0, 1, -1474.9, 0)" xlink:href="#linear-gradient-22"/><linearGradient id="linear-gradient-24" x1="-11269" y1="478.54" x2="-5094.35" y2="478.54" gradientTransform="translate(5648.6) scale(0.45 1)" xlink:href="#linear-gradient-22"/><linearGradient id="linear-gradient-25" x1="803.88" y1="-130.98" x2="803.88" y2="1572.42" gradientUnits="userSpaceOnUse"><stop offset="0.04" stop-color="#00c1ff"/><stop offset="0.09" stop-color="#30cddf"/><stop offset="0.14" stop-color="#65dabc"/><stop offset="0.19" stop-color="#93e59d"/><stop offset="0.25" stop-color="#b8ef84"/><stop offset="0.3" stop-color="#d6f671"/><stop offset="0.35" stop-color="#eafb63"/><stop offset="0.4" stop-color="#f7fe5b"/><stop offset="0.45" stop-color="#fbff58"/></linearGradient><clipPath id="clip-path-3"><rect class="cls-1" x="-1620" y="-993.88" width="1600" height="900"/></clipPath><linearGradient id="linear-gradient-26" x1="-661.02" y1="-572.18" x2="-71.68" y2="-572.18" xlink:href="#linear-gradient-6"/><linearGradient id="linear-gradient-27" x1="7896.08" y1="-778.4" x2="8485.42" y2="-778.4" gradientTransform="matrix(-0.73, 0, 0, 1, 6112.62, 0)" xlink:href="#linear-gradient-6"/><linearGradient id="linear-gradient-28" x1="7946.03" y1="-2033.36" x2="7946.03" y2="34.72" xlink:href="#linear-gradient-8"/><clipPath id="clip-path-4"><rect class="cls-1" x="-1620" y="993.88" width="1600" height="900"/></clipPath></defs><g class="cls-2"><g id="Layer_1" data-name="Layer 1"><g class="cls-3"><path class="cls-4" d="M-1756.3,659.12c623.62,289.48,1306.25,248.59,2026,0V-1086.47h-2026Z"/><path class="cls-5" d="M-1680.72,612.73s647.13-1.2,1103.83,11.16c325.4,8.81,851.31,6.69,851.31,6.69l2.32,252.78L-1782,893.74Z"/><path class="cls-6" d="M-1620.92,629s47.89,35.5,155.42,34.42S-746,661.93-506.13,657c191.16-3.93,764.61-26.7,764.61-26.7l-1738.19,1.27-25.73-.47Z"/><g class="cls-7"><path class="cls-8" d="M-654.23,546.22s223.35,31.9,412.58-112.89c0,0,76.37-53.49,192.47-50.95,93.24,2,279.9,49.27,338.27,192.39,0,0,8.44,30.51,1,47.54l-953.22-3.25Z"/></g><path class="cls-9" d="M-1072.72,588.6c130,19.79,378,17.2,442.5,15.45s337.81-19.49,393.51-26.14,162.58-10.82,376.9,19.44l1.09,44.44-1216.74-11.47"/><path class="cls-10" d="M-1642.82,717.52s125.18,24.08,162.73,22.64,133.28-6.68,143.68-6.88,135.74,17.18,181,18.83c166.28,6,490.89-26.15,786.49-40.23C-31.21,695.78,269.57,697,269.57,697l-2.22,221-2047-2.46,9-206.78Z"/><path class="cls-11" d="M-1755.39,749.16s99.66-15,224.78,33.58,376.62,1.85,502.16,1.47c131-.39,392.4,59.16,523.34,62.3,192.68,4.62,770.16-86,770.16-86l4.09,189.87L-1768.61,955Z"/><path class="cls-12" d="M144.48,641.57s47.36-35.59-8.74-69.84c-42.23-25.79-92.6-19.85-92.6-19.85s-32.58-16-68.53-17.37-70.38,16.66-70.38,16.66-59-6.5-86.17,6.59c-38.66,18.62-29.7,30.78-29.7,30.78s-30.05-5.46-63.89,35.75c0,0-63.44-10.64-71.9,17.28l96.86,8.26,395,.13Z"/><rect class="cls-13" x="-1726.78" y="-1161.96" width="2037.47" height="2044.09"/><path class="cls-14" d="M-127.54-570.2c-89.95,25.09,234.71-70.43,221.67,1.56C79.61-488.5,80-12,78.31,167.23c-1.72,187.2-2.57,654.57-3.17,764.5s40.11,213.62,15.58,227.33c-44,24.57-320.47,235.86-320.47,220.32-12-13.13-235.68,92-206.29,50.18a475.59,475.59,0,0,0,54-101.55,140.11,140.11,0,0,0,9-47.79c0-5.37-21.59,5.38-41.38-1.79s-37.77-50.18-80.05,1.79-55.77,53.76-84.55,52-40.48-64.52-10.8-71.69,52.17-46.6,58.47-60.93c-8.09-17.92-59.37-23.3-90-5.38s-63,23.31-63,23.31c18-32.27,36.88-73.49,68.36-80.65s42.28-21.51,84.56-17.93,68,274.34,94.95,199.08,67.47-180.42,72.26-414.59-4.42-575.18-6-669.09C-371.48,156.23-407.65,46.45-451-38c-32.56-63.4-68.55-111.7-100.44-126-38.83-17.47-95.83-73.4-156.21-98.57-55.25-23-113.34-15.88-162.62-21.59-33.58-52.56,7.2-64.52,7.2-64.52s60-14.33,119.93,2.39,56.37,31.06,110.34,28.68,115.54,84.31,147.93,124.93S-346.38-64.89-330.6-7c0-234.18,12-501.81,4.8-535.26s28.64,41.7-3.74-13.26"/><g class="cls-15"><path class="cls-16" d="M-161.41-220.61c12.53,13,21.45,29.5,30,45.27,2.35,4.63,5,9.92,7.29,14.62,2,4.36,5.77,12.89,7.81,17.37,1.74,4.21,5.42,13.24,7.23,17.62,5.14,13.26,10.22,27.4,14.7,41,2,5.62,4.82,14.91,6.58,20.74,8.44,27.13,16,56.4,22.48,84C-49.13,89.2-37.95,163.46-29.43,234.13c6.91,56.06,13.28,116.36,18.55,172.65C12.54,651.52,15.36,898.59,6.49,1144.14l-.7,0C5.53,913,4,681-10.81,450.31c-4.2-67.5-10.93-138-19.9-205.07-9.47-66.65-21.67-137.06-36-202.71-6.15-29.22-13.94-60.61-21.73-89.42-2.46-8.65-5.81-19.94-8.31-28.58-2.9-8.86-6.06-19.53-9.11-28.33C-111.65-120.6-118-138-125-154.37s-14.9-33-24.25-48.26c-3.87-6.06-7.8-12.18-12.63-17.46l.48-.52Z"/></g><g class="cls-15"><path class="cls-16" d="M-141.07-452.9C-126.21-412.49-115-370.67-104.34-329c9.09,36.49,17.74,75.17,25.18,112.13C-64.1-142.4-51.39-65.51-41.35,9.8c14.12,107.67,25,220.09,34.65,328.38C8.89,509.13,18.89,682.47,23,854.12c4.48,172.06,3.21,344.85-2.45,516.79h-.7c1-191.4-.33-382.69-5.72-574C7.82,596.68-.64,394.69-22.73,195.53c-3-26.42-6.86-59.12-10.41-85.47C-53.38-41.45-76.61-193.12-111.53-342c-5.36-22.74-11.47-47-17.74-69.48-2.56-9.21-5.3-18.37-8-27.53-1.43-4.56-2.85-9.13-4.41-13.64l.66-.25Z"/></g><path class="cls-17" d="M-73-776.43c66,25.1-172.23-70.42-162.66,1.56C-225-694.73-225.23-218.19-224-39c1.27,187.21,1.89,654.58,2.33,764.5s-29.44,213.63-11.44,227.34C-200.87,977.41,2,1188.7,2,1173.16c8.8-13.14,172.93,92,151.37,50.18s-33.44-80-39.6-101.55a186.44,186.44,0,0,1-6.6-47.8c0-5.37,15.84,5.38,30.36-1.79s27.72-50.18,58.74,1.79,40.93,53.76,62.05,52,29.7-64.53,7.92-71.69-38.28-46.6-42.9-60.93c5.94-17.93,43.56-23.31,66-5.38a127.8,127.8,0,0,0,46.21,23.3c-13.21-32.27-27.06-73.49-50.17-80.65s-31-21.51-62-17.93S173.5,1187,153.7,1111.77s-49.5-180.41-53-414.59S103.92,122,105.08,28.1c1-78.1,27.5-187.88,59.33-272.32,23.89-63.41,50.3-111.71,73.7-126.06,28.49-17.47,70.32-73.4,114.63-98.57,40.54-23,83.17-15.88,119.33-21.58C496.71-543,466.78-555,466.78-555s-44-14.33-88,2.4-41.36,31.06-81,28.67S213-439.57,189.26-398.95,87.62-271.11,76-213.24c0-234.19-8.8-501.82-3.53-535.27s-21,41.7,2.75-13.25"/><g class="cls-18"><path class="cls-19" d="M136,1111.85c-19.8-75.28-49.5-180.42-53-414.6s3.24-575.17,4.4-669.08c1-78.09,27.5-187.88,59.33-272.32,23.89-63.41,50.3-111.7,73.7-126.06,28.5-17.47,70.32-73.4,114.63-98.56,40.54-23,83.17-15.89,119.33-21.59,24.64-52.57-5.28-64.53-5.28-64.53a142.74,142.74,0,0,0-32.64-5.44,150.59,150.59,0,0,1,50.27,5.44s29.93,12,5.29,64.53c-36.16,5.7-78.79-1.44-119.33,21.59-44.31,25.16-86.14,81.09-114.63,98.56-23.4,14.36-49.81,62.65-73.71,126.06C132.51-159.71,106-49.92,105,28.17c-1.16,93.91-7.92,434.9-4.4,669.08s33.22,339.32,53,414.6c14.57,55.37,20.92-200.78,44.49-198.33C169,915.86,154.21,1181.07,136,1111.85Z"/></g><g class="cls-20"><path class="cls-16" d="M155.13-315.94c-26.56,42.54-42.84,90.82-55,139.22C77-85.6,78,10.29,76.67,103.73c-.87,155,4,316.28,4.28,471.38.38,100.57.27,201.14-1.07,301.72h-.7c-6.68-219.41-7.22-440.45-5-660,.33-55.26.09-114.33-.56-169.72-.16-23.55-.43-47.24-.1-70.8A713.46,713.46,0,0,1,86.36-141.14c7.43-37,17.9-73.82,32.47-108.69a401.37,401.37,0,0,1,25.31-50.75c3.25-5.41,6.66-10.7,10.43-15.78l.56.42Z"/></g><g class="cls-21"><path class="cls-16" d="M41.59-286.88c-4.79,21.71-7.47,44.13-10.21,66.18C27-182,22.7-142.8,18.55-104c-4.32,44.59-4,89.42-4.62,134.16-.67,44-.82,90.29-2,134.23-.64,27.94-1.13,56-2.49,83.94h-.7C7.5,225.92,6.66,203.53,6,181.13Q3.68,80.35,10.64-20.39c3-39,4.83-78.34,6.57-117.44.83-16.72,2.21-33.65,4.24-50.27,2.6-22,5.94-44.93,10.64-66.48,1.69-7.82,3.83-16.86,6.17-24.52.78-2.7,1.68-5.36,2.67-8l.66.23Z"/></g><g class="cls-22"><path class="cls-16" d="M37.15-441.4c-5.51,5.22-9.95,12.19-14,18.61s-7.7,13.73-11,20.65C.56-377.49-8.14-351.26-15.45-325-34.88-253.23-49-179.68-53.83-105.34c-1.7,22.35-2.89,48.12-3.73,70.52-2.09,46.19-3,94.91-3.3,141.14-.59,46.41-.5,94.85-.29,141.26.11,15.7.17,31.41.1,47.13l-.7,0c-.57-7.83-1.06-15.68-1.55-23.52-2.1-30.69-3.34-63.43-4.27-94.2-2.42-98,.86-197,12-294.34C-45.82-203-38.35-290.69-6-371.52a293,293,0,0,1,20.7-42.62c6.19-10.1,12.85-20.14,22-27.81l.42.55Z"/></g><g class="cls-23"><path class="cls-16" d="M82.31-198C61.75-92.38,48.43,14.74,49,122.21c.46,20.08,1.46,51.33,2,71.75C58.66,419.3,69.84,651.12,49,875.75c-2.39,23.83-5.31,47.62-9.33,71.23l-.69-.1c2.88-23.75,4.93-47.57,6.58-71.42C53.25,756.4,53.25,636.24,53.64,517c-.64-119.47-.37-239.38-6.58-358.76-1.16-20.64-3-51.3-2.88-71.82-.44-48,3.62-95.92,10-143.45,4.84-35.63,11-71.06,18.93-106.13,2.63-11.69,5.35-23.35,8.5-34.91l.69.16Z"/></g><g class="cls-23"><path class="cls-16" d="M37.21-332.71a125.7,125.7,0,0,0-9.44,18,359.26,359.26,0,0,0-14.06,38.19C6.68-254,1-230.54-3.83-207.42c-4.14,19.94-8,40.1-11.65,60.12C-28.6-76.8-30.08-4.91-31.48,66.58c-.66,33.84-.49,68.34-.66,102.22,0,39.2.38,83.49.66,122.75.05,6.83.09,13.65,0,20.48l-.7,0c-.58-6.81-1.09-13.62-1.59-20.43-2.64-33.72-4.26-68.49-5.13-102.3C-40.41,134.73-39.23,80-36.14,25.46c2.6-40.9,6.83-81.68,10.83-122.46,2.78-27.08,5.39-54.54,9.73-81.43A598.9,598.9,0,0,1,5.89-268.3c5.45-16.25,11.61-32.34,19.68-47.5a108.9,108.9,0,0,1,11.1-17.35l.54.44Z"/></g><g class="cls-24"><path class="cls-16" d="M96.7,1147.17c-10.27-1.94-19-8.24-26.87-14.78l-1.19-1.11-4.75-4.47c-1.5-1.57-3-3.19-4.42-4.79-3-3.12-6.56-7.94-9.27-11.34-1.56-2.26-4.87-7-6.47-9.37-2.31-3.67-5.3-8.76-7.57-12.51-1.29-2.44-4-7.53-5.29-10.06-2-3.44-6.47-13.8-8.27-17.62a435.17,435.17,0,0,1-17.43-48.76c-3.54-11.55-7-25.8-9.7-37.55-14-67.44-20.14-136-26.22-204.45-10.82-136.61-6.37-275.42,6.59-411.7l.69,0c-.19,8.58-.46,17.16-.74,25.74-.79,24-1.91,53.24-2.45,77.17-3.2,114.33-5.25,232.79,1.88,347,.8,9.31,1.91,22.78,2.77,32,1.57,14.92,3.35,29.83,5.56,44.66,1.26,7.86,3.37,20.72,4.71,28.54,2.25,10.89,4.56,23.8,7.06,34.61,10.4,45.31,22.26,91.89,43.1,133.64l1.39,2.87.71,1.43.77,1.39c2.85,5.15,6.37,11.58,9.68,16.47l1.7,2.69.85,1.35c.29.44.61.86.92,1.29l3.74,5.15c2.39,3.4,5.35,6.68,8,9.88l4.39,4.6,1.1,1.15c2.61,2.35,5.59,5.14,8.44,7.22,5,3.8,10.6,7.26,16.69,8.86l-.09.69Z"/></g><g class="cls-25"><path class="cls-16" d="M30.53,371.14l0-.37a1.88,1.88,0,0,1,0-.24c1.42-.27.46.13.77.09.06.25.1.49.14.73l.23,1.43c.27,1.62,1,6.84,1.18,8.58,8.24,72.65,8,146.2,1.68,219A1071.92,1071.92,0,0,1,17.34,714.49c-2.91,14.84-6.55,30.28-9.75,45.07A385.45,385.45,0,0,0,1.07,805c-6.4,77.19,4.77,176.64,46.44,243.11,6.5,9.71,21.84,30.33,34.24,21.44l.45.53c-9.91,8.9-23.66-3.16-30.63-10.53C24.27,1029,9,982.92,1.09,943.24A420.41,420.41,0,0,1-4.68,827.7C-1.74,789.13,7.55,751.76,14.52,714c11.44-68.05,16.77-137,18.85-206,1-45,.72-90.17-2.6-135.11l-.14-1.43-.09-.69c.29-.11-.69,0,.68-.15v.47l-.7.05Z"/></g><path class="cls-26" d="M-448.07-319.71c9.3-15.84,53.88-10.45,100,11.87-14.18-15.53-19.91-31.5-12.78-36.17,6.32-4.22,20.8,2,34.41,13.94a165.45,165.45,0,0,1-7.13-18c-13.1-39.89-7.93-74.61,11.52-77.62,17.73-2.78,41.1,21.86,55,56.39,2.74-28.64,15.75-49.57,30.71-48,.64.11,1.17.27,1.71.37-27.27-36.07-36-71.34-19.15-80.32,17.61-9.44,56.65,13.55,87.05,51.33a7.74,7.74,0,0,0,1.18,1.41c-1-3.15-1.76-6.47-2.56-9.73-11.15-49.07-.68-90.32,23.49-92.28,18.22-1.41,39.07,20.22,53,52.12l-.07-.38c-2.49-32.33,8.54-58.16,24.66-57.64,9,.22,17.8,8.8,24.11,22,.95-4.08,3-7,6.33-8C-31-540.14-23-535.89-15.4-528.1c-.42-14.22,4.22-24.9,11.94-25.2,4.14-.16,8.54,2.77,12.3,7.67C-3.41-573.4-3.29-597.45,10.3-601.95c10.51-3.37,26.26,5.73,40.79,22.1-2.62-25.3,5.06-45.46,17.76-45.61,7.65-.11,15.38,6.81,21.33,17.71-.75-22,6.49-38.46,18.19-38.81s24.2,15.84,30.47,37.93a81.45,81.45,0,0,1,6.72-15.7c12-21.86,31.13-35.34,42.69-30.17,2.25-16.81,9.66-28.5,19.55-28.34,9.65.21,19.08,11.78,24.55,28.29,2-10.67,7.05-17.81,13.59-17.68,6.23.11,12.26,6.86,16.3,16.8,5.71-.49,14.1,3.77,22.69,11.08-8.07-16.07-8.93-29.19-.76-32.73s23.6,3.85,38.55,17.56c5.87-8.47,32.72-3.58,59.94,11a161.49,161.49,0,0,1,17.85,11.06c-9.41-16.82-12.33-31.7-7.86-38.93l28.51,3.15a112.64,112.64,0,0,1,21.7,19.78c-2.12-7.19-2.37-13.29-.63-17.44l31,3.44a120.88,120.88,0,0,1,24.63,24.36c-.06-8.45,1.22-15.65,3.62-21.24l41.09,4.56a116,116,0,0,1,17.89,31.38c-.56-5.56.93-9.54,4.64-10.81,6.81-2.43,19,5.05,29.76,17.4.47-9.34,4-15.69,10.18-16.22,3.59-.32,7.56,1.45,11.5,4.61-2.53-7.28-3.37-13.61-2.46-18.46q22.11,2.45,44.2,4.84a161.44,161.44,0,0,1,27.66,27.4l.16.13a127.68,127.68,0,0,1-7.31-25.29q43.51,4.78,87,9.52a237.78,237.78,0,0,1,16.81,23.83c2,3.09,3.72,6.16,5.39,9.29,0,0,0-1.14-.08-1.7a135.55,135.55,0,0,1,.79-28.91l75.62,8.27a150.19,150.19,0,0,1,4.17,22,4.13,4.13,0,0,1,1-.87c11.65-6.63,39,6.84,63.43,30.47-7.42-17.26-10.87-33.19-10.3-45.25l61.47,6.71a178.44,178.44,0,0,1,22.12,33.66,177.33,177.33,0,0,1,7.84,17.93c2.4-15,10-25.27,18.65-23.87,9.69,1.53,17.15,17.17,17,35.32,22.17-35,56.25-55,76.49-44.67,18.85,9.62,19,42.23,1.43,75.29,14.41-15.29,31.63-22.69,42.46-17,13.58,7.2,12,32.16-3.46,55.74a22.07,22.07,0,0,1-2,2.88c.65-.27,1.2-.48,1.2-.48,34.51-11.19,68.57-9.71,76.86,3,7.18,11.1-7.66,27.13-34,38.36,28.34-3.3,53.92,1.94,58.16,12.4,3.69,9-9.73,19-31.41,24.71,16.42,6.76,27.37,15.35,26.16,21.86-1,5.09-9.28,7.67-21.12,7.57,24.49,9.18,41.26,22,39.11,30.77s-21.86,10.6-46.43,5.55c36.49,20.3,59.31,44.89,51.87,57.21-6,10.09-30.6,9.05-60.34-1,22.24,12.67,35.61,26.7,32,35.76-4.6,11.5-35,10.77-69.7-1a15.83,15.83,0,0,1,1.19,1.33c20.29,24.36,27.56,48.41,16.26,53.87-9.14,4.35-27.61-4.81-45.1-21.25a99.14,99.14,0,0,1,1.46,13.92c1.26,31.81-11.42,56.08-28,54.21-14.66-1.67-27.51-22.71-31.34-49.22a76.21,76.21,0,0,1-8.68,10.66c-16,16.26-36.91,23.9-46.61,17.1-7-4.87-6.36-15.7.19-27.39-18.74,5-36.14,3.73-41.23-3.46-3.45-5-.23-11.57,7.51-17.84-17.49,2.72-33,.29-36.59-6.35L976-216c-12.25,9.74-25.57,13.74-33.25,8.94-5.09-3.16-6.69-9.68-5-17.54-7.77,12.79-18.26,19.94-27.49,17.06-9.48-2.9-14.87-15.77-14.44-31.76-3.69,7.8-9.24,12.26-15.6,11.58C868.3-229,857.85-248,856.44-270.49c-1.65,1.84-3.43,3.6-5.21,5.43-23.19,22-52.74,31.82-66.05,22.07-4.46-3.32-6.43-8.48-6.33-14.75-4,3.69-8.33,5.41-12.49,4.32a11.73,11.73,0,0,1-4.58-2.51c3,13.77.74,24.05-7.06,25.78-6.92,1.55-16.58-4-25.85-13.8,3.43,21-1.43,36.78-12.92,37.83-7.81.61-17.07-5.67-25.3-16.15-1.73,4.41-4.64,7.1-8.62,7.46-3.3.28-7-1.1-10.6-3.79,4.82,15.16,3.41,26.94-4.87,29.39s-21.39-4.83-33.72-17.66c-.53,9.26-3.92,15.69-9.49,16.7,14.23,21.75,18,40.36,7.6,46.44-8.78,5.12-25.72.15-44.48-11.67,4.23,18.38.28,33.08-9.24,33.5-7.66.37-16.78-8.73-23-21.91-.94,2.45-43.78-11.36-44.87-9.29,0,0-23,52.61-38,53.92C458.9-98.07,432.37-139,432.37-139c-2.52-1.3-41,7.79-43.65,6,4.83,13.46,4.06,24.41-2.82,26.77-8.44,2.88-23.18-8.41-33.78-25.52C345.21-115.14,334.58-105,323-106.33c-13.59-1.6-24.73-18.81-29.36-42.37-5.5,1.08-13.35-3.29-21.05-11-.64,15.23-6.14,26-15.13,26.82s-19.28-8.83-26.94-23.55c-1,3.57-3,6.07-6.12,6.94-3.63,1.08-8.34-.25-13.12-3.4,1,11.82-2,20.42-9.25,22.56-10.57,3.13-27-8.72-40.23-27.9-.41,11.53-4.4,19.69-11.46,20.78-8.07,1.21-18-6.8-26-19.65a6,6,0,0,1-2,3.7c-2.82,2.38-7.89,2.48-14.14.68,5,5.23,7.3,10.42,6,14.79C110.52-125,77.57-123.27,40.76-134c-2.92-.88-5.76-1.83-8.69-2.78,16.27,19.69,22,39.55,12.82,44.84-4.88,2.82-13.13.75-22.34-4.58C35.24-83,40.63-70.1,34.78-64.33c-5.68,5.59-20.22,3.1-36.72-5.18C5.52-63.28,9.17-57.2,7.27-52.67c-2.84,6.72-17.4,7.94-35.45,3.7l.15.27c2.05,6.92-9.32,14.39-26.39,18.07C-43.07-27.92-35.16-23.37-34.28-18-33-10-47.06-3-66.86-.68-52.22,7-43.39,16.1-45.54,22.62c-3.09,9.21-26.88,9.87-53.12,1.45A127.87,127.87,0,0,1-114.38,18c17.26,24,22.48,46.56,11.31,53-12.93,7.42-42.4-9.07-66-36.67-3.51-4.13-6.68-8.31-9.55-12.45C-180.82,42-189.5,56.16-200.7,55.59c-13.92-.68-26.3-23.82-27.72-51.68a13.9,13.9,0,0,0,0-1.58c-20.65,22.18-46.09,33.29-58.85,25-10-6.45-9.58-23.13-.25-41.66-17.68,18.91-37.93,28.23-50.91,21.76-15.89-8-15.4-37,.17-67-17.12,12.8-35.41,17.92-43.94,11.31-8.68-6.8-4.25-23.6,9.66-39.88-10.14,4.22-19.14,4.88-24,.84-6-5.17-3.38-16.31,5.59-27.76-23,2.65-42.34-1.29-46.18-10.33-4.33-10.41,13.43-23.73,40.29-30.72-31.22-.53-56.27-9.12-58.73-21.1-2.8-13.76,25.32-26.76,62.82-29.08l2,0c-1.38-.59-2.61-1.12-3.91-1.77-31.49-14.87-52.06-35.66-46-46.5,4.89-8.66,25.36-8.29,49.42-.2C-431.74-277-456.87-305-448.07-319.71Z"/><path class="cls-27" d="M-455.54-177.16c-1.51-7.21,5.64-14.26,18.17-19.57,8.52,2.95,21.27,3.88,35.44,2.26-9,11.45-11.6,22.58-5.58,27.7,4.75,4,13.89,3.38,24-.78-13.84,16.29-18.35,33.07-9.67,39.88,8.46,6.6,26.83,1.49,44-11.37-15.49,30.06-16.06,59-.17,66.95,13,6.54,33.15-2.79,50.92-21.69-9.33,18.53-9.87,35.2.24,41.66,12.83,8.22,38.22-2.9,58.83-25a12.89,12.89,0,0,0,.11,1.59c1.34,27.86,13.72,50.93,27.55,51.67,11.29.51,20-13.67,22.28-33.75A155.89,155.89,0,0,0-180-45.23c23.5,27.65,53.06,44.09,65.83,36.72,11.25-6.47,6-28.93-11.16-53a128.59,128.59,0,0,0,15.65,6.08c26.3,8.43,50.1,7.77,53.13-1.45,2.14-6.58-6.69-15.59-21.34-23.3C-58-82.45-44-89.54-45.28-97.36c-.88-5.46-8.79-10.08-20.21-12.74,17.06-3.74,28.43-11.15,26.45-18.06a.47.47,0,0,0-.06-.2c18.06,4.11,32.6,3,35.45-3.77,1.9-4.52-1.83-10.61-9.29-16.77,16.5,8.27,31,10.69,36.73,5.11,5.85-5.83.44-18.69-12.17-32.23,9.12,5.39,17.31,7.32,22.26,4.51,9.17-5.23,3.36-25.1-12.73-44.84,2.77,1,5.6,1.88,8.61,2.78,36.8,10.83,69.75,9.09,73.56-3.85,1.28-4.44-1-9.55-5.93-14.84,6.23,1.79,11.31,1.76,14-.63a6.1,6.1,0,0,0,1.95-3.7c8,12.85,17.93,20.87,25.92,19.64,7.22-1.07,11.13-9.18,11.46-20.78,13.31,19.13,29.73,31,40.3,27.85,7.19-2.15,10.18-10.76,9.18-22.51,4.94,3.16,9.57,4.49,13.19,3.41,3.09-.93,5-3.37,6.21-6.93,7.58,14.7,17.79,24.24,26.86,23.47s14.57-11.46,15.2-26.8c7.55,7.79,15.55,12.16,21.05,11,4.49,23.54,15.62,40.81,29.35,42.43,11.48,1.33,22.1-8.82,29-25.39C351.72-194,366.52-182.75,375-185.64c6.79-2.36,7.55-13.31,2.72-26.77,2.74,1.76,41.14-7.34,43.73-6,0,0,26.46,40.86,38.89,39.75,15-1.32,37.91-53.87,37.91-53.87,1.24-2.06,44,11.75,45,9.3,6.25,13.12,15.38,22.28,23,21.91,9.52-.42,13.4-15.19,9.23-33.5,18.78,11.76,35.63,16.79,44.5,11.67,10.45-6.08,6.7-24.68-7.62-46.51,5.49-.88,9-7.37,9.5-16.69,12.41,12.9,25.43,20.18,33.71,17.72s9.7-14.17,4.8-29.39c3.7,2.63,7.3,4.07,10.67,3.79,4-.35,6.9-3.05,8.65-7.45,8.22,10.48,17.45,16.74,25.27,16.08,11.5-1,16.36-16.8,13-37.77,9.19,9.73,18.85,15.35,25.78,13.8,7.85-1.73,10.14-12,7-25.78a11.55,11.55,0,0,0,4.5,2.5c4.24,1.1,8.68-.61,12.64-4.31-.25,6.21,1.79,11.43,6.32,14.75,7.43,5.47,20,4.75,33.71-.81-12.65-5.18-20.4-11.8-19.82-18.36,1.07-11,25.57-17.44,55.71-15.22-30.66-10.55-51.11-26.69-47.36-38.49,4.38-13.59,38.86-16.49,77.26-6.43.69.17,1.31.4,2,.57-1-.94-2-1.89-2.92-2.89-23.57-23.9-33.26-49.8-21.63-57.82,9.23-6.41,29.26.59,49,15.93-28.69-33.66-39.14-67.65-23-78.44,17.39-11.52,58.91,7.92,93.06,43.45-6-19-3.54-35.49,6-37.49,8.42-1.82,19.6,8.55,26.91,24.05a135.3,135.3,0,0,1,2.18-19c5.72-31,20.29-55.93,36.09-64.66,5.11,6.44,8.48,17.46,8.36,29.64A133.34,133.34,0,0,1,1070-573.15c10.27,11.81,15.07,35.2,12.19,61.83,17.41-25.53,41.1-40.65,55.17-34.3l.91.63a122.53,122.53,0,0,1-10.54,27.24c14.41-15.29,31.63-22.69,42.46-17,13.58,7.2,12,32.16-3.46,55.74a22.07,22.07,0,0,1-2,2.88c.65-.27,1.2-.48,1.2-.48,34.51-11.19,68.57-9.71,76.86,3,7.18,11.1-7.66,27.13-34,38.36,28.34-3.3,53.92,1.94,58.16,12.4,3.69,9-9.73,19-31.41,24.71,16.42,6.76,27.37,15.35,26.16,21.86-1,5.09-9.28,7.67-21.12,7.57,24.49,9.18,41.26,22,39.11,30.77s-21.87,10.59-46.43,5.55c4.94,2.79,9.66,5.62,14,8.49,1.52,1,3,2,4.48,3l2,1.45c1.14.77,2.2,1.54,3.25,2.3.68.55,1.44,1.1,2.13,1.65,1,.7,1.87,1.44,2.79,2.14l2,1.64c.91.75,1.74,1.44,2.56,2.18l1.8,1.63,2.41,2.17c.53.54,1,1,1.57,1.55.75.75,1.58,1.55,2.24,2.36.45.46.82.87,1.28,1.28,1,1.19,2.08,2.39,3,3.52l.29.34c.82,1.06,1.63,2.12,2.29,3.17a5.68,5.68,0,0,1,.73,1.12c.52.78.95,1.5,1.39,2.22a10.34,10.34,0,0,0,.57,1.23c.37.65.65,1.31.94,2a12.28,12.28,0,0,0,.5,1.23c.12.63.33,1.21.46,1.79,0,0,.21.83.27,1.21,0,0,.11,1.14.17,1.71a4.88,4.88,0,0,1,0,1,6.6,6.6,0,0,1-.23,1.74l0,.56a11.25,11.25,0,0,1-1.13,2.57c-6,10.09-30.6,9.05-60.34-1,22.24,12.67,35.61,26.7,32,35.76-4.6,11.5-35,10.77-69.7-1a15.83,15.83,0,0,1,1.19,1.33c20.29,24.36,27.56,48.41,16.26,53.87-9.14,4.35-27.61-4.81-45.1-21.25a99.14,99.14,0,0,1,1.46,13.92c1.26,31.81-11.42,56.08-28,54.21-14.66-1.67-27.51-22.71-31.34-49.22a76.21,76.21,0,0,1-8.68,10.66c-16,16.26-36.91,23.9-46.61,17.1-7-4.87-6.36-15.7.19-27.39-18.74,5-36.14,3.74-41.23-3.46-3.45-5-.23-11.57,7.51-17.84-17.49,2.72-33,.29-36.59-6.35L976-216c-12.25,9.74-25.57,13.74-33.25,9-5.09-3.17-6.69-9.69-5-17.55-7.77,12.79-18.26,19.94-27.49,17.06-9.48-2.9-14.87-15.77-14.44-31.76-3.69,7.8-9.24,12.26-15.6,11.58C868.3-229,857.85-248,856.44-270.49c-1.65,1.84-3.43,3.6-5.21,5.43-2.12,2-4.3,3.8-6.55,5.59-.41.35-.72.65-1.13,1-2.25,1.8-4.5,3.47-6.75,5l-.32.29c-19.79,13.32-40.64,18.07-51.3,10.25-4.46-3.32-6.43-8.48-6.33-14.75-4,3.69-8.33,5.41-12.49,4.32a11.73,11.73,0,0,1-4.58-2.51c3,13.77.74,24.05-7.06,25.78-6.92,1.55-16.58-4-25.85-13.8,3.43,21-1.43,36.79-12.92,37.83-7.81.61-17.07-5.67-25.3-16.15-1.73,4.41-4.64,7.1-8.62,7.46-3.3.28-7-1.1-10.6-3.79,4.82,15.16,3.41,26.94-4.87,29.39s-21.39-4.83-33.72-17.66c-.53,9.26-3.92,15.69-9.49,16.7,14.23,21.75,18,40.36,7.6,46.44-8.78,5.12-25.72.15-44.48-11.67,4.23,18.38.28,33.08-9.24,33.5-7.66.37-16.78-8.73-23-21.91-.94,2.45-43.78-11.36-44.87-9.29,0,0-23,52.61-38,53.92C458.9-98.07,432.37-139,432.37-139c-2.52-1.3-41,7.79-43.65,6,4.83,13.46,4.06,24.41-2.82,26.77-8.44,2.88-23.18-8.41-33.78-25.52C345.21-115.14,334.58-105,323-106.33c-13.59-1.6-24.73-18.81-29.36-42.37-5.5,1.08-13.35-3.29-21.05-11-.64,15.23-6.14,26-15.13,26.82s-19.28-8.83-26.94-23.55c-1,3.57-3,6.07-6.12,6.94-3.63,1.08-8.34-.25-13.12-3.4,1,11.82-2,20.42-9.25,22.56-10.57,3.13-27-8.72-40.23-27.9-.41,11.53-4.4,19.69-11.46,20.78-8.07,1.21-18-6.8-26-19.65a6,6,0,0,1-2,3.7c-2.82,2.38-7.89,2.48-14.14.68,5,5.23,7.3,10.42,6,14.79C110.52-125,77.57-123.27,40.76-134c-2.92-.88-5.76-1.83-8.69-2.78,16.25,19.69,22,39.55,12.82,44.84-4.88,2.82-13.13.75-22.34-4.58C35.24-83,40.63-70.1,34.78-64.33c-5.68,5.59-20.22,3.1-36.72-5.17C5.52-63.28,9.17-57.2,7.27-52.67c-2.84,6.72-17.4,7.94-35.45,3.7l.15.27c2.05,6.92-9.32,14.39-26.39,18.07C-43.07-27.92-35.16-23.37-34.28-18-33-10-47.06-3-66.86-.68-52.22,7-43.39,16.1-45.54,22.62c-3.09,9.21-26.88,9.87-53.12,1.45A127.87,127.87,0,0,1-114.38,18c17.26,24,22.48,46.56,11.31,53-12.93,7.42-42.4-9.07-66-36.67-3.51-4.13-6.68-8.31-9.55-12.45C-180.82,42-189.5,56.16-200.7,55.59c-13.92-.68-26.3-23.82-27.72-51.68a13.9,13.9,0,0,0,0-1.58c-20.65,22.18-46.09,33.29-58.85,25-10-6.45-9.58-23.13-.25-41.66-17.68,18.91-37.93,28.23-50.91,21.76-16-8-15.4-37,.17-67-17.12,12.8-35.41,17.92-43.94,11.31-8.68-6.8-4.25-23.6,9.66-39.88-10.14,4.22-19.14,4.88-24,.84-6-5.17-3.38-16.31,5.59-27.76-23,2.65-42.34-1.29-46.18-10.33-4.33-10.41,13.43-23.73,40.29-30.72C-428-156.59-453.08-165.18-455.54-177.16Z"/><path class="cls-28" d="M79.81,101.49s-1.22,32.12-2.66,52.89-10,20.08-22.2,23.33-29.7,1.44-35.89.39S8.28,171.43,7.55,147.58s-.34-44.47,4-71.59S49.1,48.05,57.88,53.81C72.89,63.64,74.32,67.06,79.81,101.49Z"/><path class="cls-29" d="M15.5,135c2.45,29.3,5.36,37.57,20.88,39,1.43.13,14.15,2.75,15.56,2.73,13.81-.24,18.6-10.08,20.73-25.15,6.11-43.3-2.23-74-2.23-74C65,63.84,58.68,61,50.13,58.73s-9.45-.49-18.73,1.68c-4.17,1,4.81,1.46-.56,4.1C19.94,69.88,13.67,113.15,15.5,135Z"/><path class="cls-30" d="M9.45,162.27s9,20.33,38.84,11.83c2.7-.78,5.53-.06,8.27.61,9.78,2.38,9.12,2.12,18.32.69,0,0,1.25,4.09-24.84,20.93-3.56,2.3-.93,18.55-1.74,24.5-.93,6.82-3.19,16.28-7.88,15.89-4.44-.36-13,6.07-16.46-19.25-1-7.43-.25-22.95-4.82-25.66C10.59,186.75,10.24,178.76,9.45,162.27Z"/><path class="cls-31" d="M22.93,186.53c4.23,2,5.64,6.71,7.2,12.15,1.72,6,.65,21.35,7.38,19.75s8.16-18.09,9.06-23.25c.8-4.51,12.92-4,16.23-5.76,4.94-2.63,5.72-9.69,8.93-12.14-11.87.67-21.1,1.43-27.11.3a84.56,84.56,0,0,0-9.65-.86c-21.91-1-24.79-13.57-24.79-13.57,0,.42-.08.84-.1,1.25C11.74,175.09,16.54,183.51,22.93,186.53Z"/><path class="cls-32" d="M16.84,171.85c-5.64,2.59,61.4,14.25,83.38-5.17,0,0,16.27-9.85-30.8-6.88C25.64,165.85,14.3,160.27,16.84,171.85Z"/><path class="cls-33" d="M100.17,165.24c-25.9,16.36-79.07,8.51-83.45,3.61-.48.53.05,2.9.13,3.25-5.64,2.59,61.4,14.24,83.39-5.17,0,0,3.68-2.24,2.46-4.26A7.25,7.25,0,0,1,100.17,165.24Z"/><path class="cls-34" d="M21.78,174.92c-6.18-1-10.78-6.67-11.51-30.52s0-39.24,4.39-66.36c2-12.28,3.14-14.17,10-19.3C16,63.47,13.07,66,10.73,80.58c-4.36,27.12-5.12,42.51-4.39,66.36s5.33,29.47,11.51,30.52,14.55,4.52,39.9,4.6c2.78,0,24.58-5.91,26.68-7.68-1.08.51-22,3.19-25.17,3.3C46.84,178.1,28,176,21.78,174.92Z"/><path class="cls-35" d="M16.28,164.44s18.06,16.1,83.89.78c0,0,16.26-9.85-30.81-6.88Z"/><rect class="cls-1" x="-1592.36" y="-73.56" width="1600" height="900"/></g><g class="cls-36"><path class="cls-37" d="M1665.76,738.64h-.86V902.45H1628l-1634.65.29H-32.5V550.37c-.28-.36-.8-6.57-.85-7.15a.18.18,0,0,1,0-.05s0-.09,0-.23v0c0-.63,0-2.36,0-4.84h0c0-4.46.09-11.37.12-18.58s.07-15.07.05-20.89c0-5.57-.08-9.4-.22-9.52V189.24h0V3.07l1699.12-.31V738.64Z"/><path class="cls-38" d="M2303.48,210c-2.22-.1-4.45-.15-6.66-.15-43,.06-86.61,20.79-128.23,5.78-37.45-13.5-67.92-54.41-105.88-64.76q-3.21-.88-6.42-1.45c-1.61-.24-3.22-.45-4.83-.62a104.26,104.26,0,0,0-11-.67,83.69,83.69,0,0,0-15.84,1.29q-3.21.57-6.42,1.45l-1.77.5-.89.27-.87.28-.88.29c-.88.3-1.75.61-2.62.94l-.87.33-.86.34-.83.34c-1,.42-2,.86-3,1.31l-.76.35c-3.06,1.42-6.07,3-9.06,4.72l-1,.57-2,1.18-1,.6-2,1.22-1.42.91-.85.56-.78.52-1.08.72-1.37.93-.35.25-1.85,1.28-.23.17c-.54.37-1.08.76-1.62,1.15a1.77,1.77,0,0,0-.17.12l-1.45,1q-4.43,3.23-8.83,6.61l-1.6,1.23-.8.61-1.59,1.24-1.6,1.23-2.4,1.87-1.6,1.23c-1.61,1.26-3.22,2.5-4.84,3.74l-3.76,2.87-.9.67c-1,.72-1.91,1.43-2.88,2.14l-1.26.92h0l-1.27.92c-2.1,1.52-4.23,3-6.36,4.44l-1.28.86,0,0-1.25.82-1.29.83h0l-.65.41h0q-2.52,1.59-5.07,3.08l-.69.4-2,1.15-.62.33q-2.1,1.14-4.23,2.18l-1,.5-1.35.63-.19.09-1.24.55,0,0-1.39.6-1.25.51-.4.16-1.19.46-1.43.54c-1.35.48-2.7.93-4.06,1.34h0l-1.13.33-.74.21-.91.25-1.48.39-.8.19-1,.23,0,0-1.2.26-.55.12-1,.2-.2,0-1.08.21-.41.07-1.32.22-1.46.23-1.41.2-.2,0-1.32.16c-2.45.29-4.89.48-7.35.6q-4,.19-8,.12c-2.49,0-5-.15-7.48-.31l-1.08-.07-3.07-.25-.36,0-3-.3h0l-2.41-.27-2.41-.29-.09,0-2.25-.29-.12,0q-3.6-.5-7.2-1.07c-3.11-.49-6.23-1-9.34-1.56-4.73-.82-9.45-1.67-14.18-2.49l-3.15-.53q-4.26-.72-8.5-1.35l-2.43-.35-3.22-.43-1.49-.18-1.12-.14-3.55-.38c-.42,0-.84-.09-1.27-.12-.89-.09-1.8-.17-2.7-.24l-.26,0-1.49-.11-1.12-.08-2-.11L1790,210c-.49,0-1,0-1.48-.06l-1.41,0H1787l-1.41,0-1.48,0q-3.33,0-6.66.15c-19.2.87-38.6,5.34-57.88,9.5h0c-15.23,3.28-30.39,6.37-45.31,7.32a120.72,120.72,0,0,1-25.66-.86,90,90,0,0,1-29.79-9.74,116.89,116.89,0,0,1-18.62-12.69c-37-30.22-67.9-83.37-106-96a96.34,96.34,0,0,0-24.08-8.65c-1.57-.32-3.14-.6-4.7-.82-90.89-13.44-156.39,128.65-237.72,203.19a216.59,216.59,0,0,1-34.32,26.2,153.86,153.86,0,0,1-54.89,20.13,200.31,200.31,0,0,1-47.29,1.78c-27.51-2-55.44-8.35-83.5-15.13h0c-35.54-8.58-71.28-17.82-106.66-19.61q-6.15-.31-12.28-.31l-2.72,0-2.6.05h-.26l-2.6.08-2.73.12-2.47.13c-1.22.06-2.43.14-3.65.23l-2.07.16c-.91.06-1.82.14-2.73.22l-.49,0c-1.66.15-3.32.31-5,.49l-2.33.25c-2.18.25-4.37.52-6.55.8l-2.05.28-2.74.38q-3,.42-5.95.88l-4.47.73q-7.83,1.29-15.66,2.78c-1.94.35-3.88.73-5.82,1.1-8.71,1.68-17.42,3.45-26.12,5.14q-8.61,1.69-17.21,3.23-6.65,1.19-13.28,2.2l-.22,0-4.14.61a.86.86,0,0,0-.17,0l-4.44.61-4.44.55h0c-1.84.22-3.69.42-5.53.62-.23,0-.46,0-.68.06-1.88.19-3.77.36-5.65.51l-2,.16c-4.61.33-9.2.56-13.8.64-4.94.09-9.87,0-14.8-.25-4.52-.25-9-.65-13.53-1.25l-2.43-.33c-.13,0-.25,0-.38-.06l-2.59-.4-2.69-.47c-.82-.15-1.63-.3-2.45-.47-.25,0-.49-.09-.74-.15-.67-.13-1.34-.28-2-.42l-.37-.08c-.62-.13-1.25-.28-1.87-.43l-1-.23-2.22-.55-.1,0-1.79-.48c-.49-.12-1-.26-1.45-.4-.91-.25-1.82-.51-2.73-.79l-1.69-.52-1.35-.43c-.7-.22-1.39-.46-2.09-.69h0c-2.49-.86-5-1.78-7.47-2.79-.89-.36-1.76-.72-2.64-1.1s-1.47-.63-2.2-1l-.73-.33c-.77-.34-1.53-.69-2.3-1.06s-1.72-.81-2.57-1.23l-.06,0-2.3-1.16a2.31,2.31,0,0,1-.35-.18c-.83-.42-1.66-.85-2.48-1.3-.63-.33-1.27-.67-1.9-1q-3.91-2.15-7.8-4.51l-1.14-.69c-1.26-.77-2.51-1.57-3.78-2.37l-1.27-.82q-4.69-3.06-9.35-6.37h0l-1.21-.85h0L608,300.5l-2.31-1.69s0,0-.06-.05L603.31,297q-5.89-4.46-11.73-9.18l-2.33-1.89h0L586.92,284q-2.65-2.19-5.31-4.42L580,278.2q-3.48-2.94-6.94-5.92-4.47-3.84-8.92-7.72l-3-2.55-4.42-3.85-2.94-2.55c-1-.85-2-1.71-2.95-2.55l-1.47-1.28c-1-.84-2-1.7-3-2.53-5.4-4.64-10.82-9.22-16.27-13.65l-2.67-2.16-.31-.25c-1-.8-2-1.59-3-2.37l-.43-.34c-1.13-.9-2.27-1.77-3.4-2.65l-.66-.51q-1.25-1-2.52-1.92l-2-1.49-1.44-1.07-1.58-1.16-2.6-1.88c-1.2-.85-2.4-1.7-3.6-2.53L504.17,216c-1.21-.82-2.41-1.63-3.62-2.43l-1.82-1.18c-5.5-3.55-11.06-6.82-16.69-9.74l-1.41-.73q-2.78-1.41-5.58-2.71l-1.53-.69-1.59-.71-1.6-.68c-1.61-.67-3.21-1.32-4.83-1.93-.53-.21-1.07-.41-1.61-.6l-1.62-.58c-.54-.2-1.09-.38-1.63-.56q-1.63-.56-3.27-1.05c-3.94-1.2-7.87-2.19-11.82-3a138.56,138.56,0,0,0-29.2-2.67,179.78,179.78,0,0,0-20.29,1.39c-3,.36-5.93.79-8.9,1.28q-5.93,1.2-11.83,3c-69.95,21.38-126.1,105.88-195.11,133.76-76.7,31-157.09-11.81-236.31-11.92-4.08,0-8.18.1-12.27.31V636.11h1577.6V365.67h794.25Z"/><path class="cls-39" d="M1678,322l13.23,357.27L-22,727.37-33.38,420.53l.17.09a14.59,14.59,0,0,1,5,1.4,6.37,6.37,0,0,1,.72.41,6.92,6.92,0,0,1,2.82,3.14l.18-.05h0c0-.06,0-.13,0-.2h0a10.37,10.37,0,0,1-.09-3.6h0a9.28,9.28,0,0,1,.48-1.79,8.11,8.11,0,0,1,4.05-4.3c2.55-1.2,5.67-1,8.53-.63l.1-.25a11,11,0,0,1-5.42-3.84,4.81,4.81,0,0,1-1.06-2.71,2.52,2.52,0,0,1,0-.48c.3-1.71,2.08-3.11,4.05-3.66A14.57,14.57,0,0,1-9,403.69l.47,0,.64,0,.76.07.23-.72a6.73,6.73,0,0,1-1-.52,3.83,3.83,0,0,1-.42-.28,3.18,3.18,0,0,1-.37-.27,6.12,6.12,0,0,1-2.47-5.27,9.53,9.53,0,0,1,1.89-4.32c.31-.44.62-.86,1-1.28s.7-.86,1.07-1.27l.06-.08c.38-.42.78-.83,1.18-1.24s.91-.87,1.39-1.28l-.09-.16-2,.88-.41.18h0c-.43.2-.85.39-1.28.57l-4.77,2.1c-2.61,1.15-5.31,2.31-8.22,2.37a8.88,8.88,0,0,1-4.06-.87,4.91,4.91,0,0,1-2.75-2.88,5.13,5.13,0,0,1,1.83-5c.13-.12.26-.24.39-.34a19.23,19.23,0,0,1,4.94-2.67,120.13,120.13,0,0,1,12.21-4.33c.73-.22,1.47-.43,2.21-.63l1.14-.32-.19-.54a7.5,7.5,0,0,1-.93.15,9.23,9.23,0,0,1-2.28-.13A13,13,0,0,1-11.1,375c-3-1.12-5.78-3.25-6.09-6a6.86,6.86,0,0,1,1-4.06A14.79,14.79,0,0,1-9.54,359l.85-.37.22-.35.14-.23-.2,0-1.05-.13a19.68,19.68,0,0,1-7.15-2.33c-2.45-1.45-4.37-3.73-4.67-6.28s1.27-5.35,3.74-7h0a10.69,10.69,0,0,1,3.13-1.46,12.51,12.51,0,0,1,3.95-.46l.34,0a15.67,15.67,0,0,1,5.58,1.37l.19.09c.35.16.69.34,1,.52s.77.46,1.13.71a7.17,7.17,0,0,1,1.65-5.17h0a13.3,13.3,0,0,1,2-2.11h0c.46-.41.94-.79,1.43-1.15s1-.7,1.52-1l.84-.5a15.36,15.36,0,0,1,4.48-1.8h0l.23-.06a9.92,9.92,0,0,1,2.88-.1,7,7,0,0,1,3,1.05,5.69,5.69,0,0,1,2.27,3.14,10,10,0,0,1,.3,4.08,19.1,19.1,0,0,1-.8,3.7l.87.39a18.2,18.2,0,0,1,5.59-5c.18-.1.36-.18.54-.27a10.72,10.72,0,0,1,2.4-.79,9.12,9.12,0,0,1,4.87.23,6.75,6.75,0,0,1,1,.46,5.91,5.91,0,0,1,2.26,2.2,4.64,4.64,0,0,1,.53,1.38,4.92,4.92,0,0,1-1,4.13l.64.38,2.26-1.5a12.77,12.77,0,0,1,5.24-2.38,5.13,5.13,0,0,1,3.93,1.08,17.76,17.76,0,0,1,6-15.33c1.93-1.71,4.5-3.19,7.27-3a7.5,7.5,0,0,1,6.56,5.81c.67,2.83-.13,5.76-1,8.57a14,14,0,0,1-1,2.76l.25.1,5.07-3.47a9.09,9.09,0,0,1,2.59-1.39c2.58-.75,5.32.62,7.44,2.11,2.78,2,5.38,4.48,6,7.57,1.82-4,7.13-6.55,12-5.83l.24-.26c-2.87-1.92-5.1-4.67-5.22-7.75s1.88-5.9,4.76-7.62a17.52,17.52,0,0,1,10-2.09l1.08,0a18,18,0,0,1-4-7.27,7.87,7.87,0,0,1,2.16-7.58,11,11,0,0,1,4.94-2.37,15.42,15.42,0,0,1,11.73,1.78c3,2,4.67,5.34,4.13,8.49a20.57,20.57,0,0,1,7.14-6.5,16.39,16.39,0,0,1,8.31-2.23c2.94.1,5.93,1.38,7.36,3.6s1.14,5,.41,7.43a26,26,0,0,1-4.15,8.25l.31.18a20.2,20.2,0,0,1,4-2.38,7.59,7.59,0,0,1,4.7-.46c2.14.55,3.55,2.26,4.8,3.86a15.46,15.46,0,0,1,2.83,4.66,13.62,13.62,0,0,1,.22,5.21l0,.39a4.54,4.54,0,0,1-.7,2.23,22.4,22.4,0,0,1,7.72-4.68h0a24.38,24.38,0,0,1,6.42-1.4l.11-.05a9.62,9.62,0,0,1-2-4.48,5.76,5.76,0,0,1,1.75-4.93,8.83,8.83,0,0,1,5.5-2,31.59,31.59,0,0,1,6.06.51,1.12,1.12,0,0,0,.68-.05.82.82,0,0,0,.32-.47c.81-2.23,1.51-4.61,3.35-6.35s5.21-2.54,7.28-1a5.6,5.6,0,0,1,1.51,1.85,18.22,18.22,0,0,1,1.8,4.2,11.22,11.22,0,0,1,2.52-5,10.76,10.76,0,0,1,7.25-3.84c2.92-.22,6.06,1.23,6.94,3.62a5,5,0,0,1,.25,2.16l.6-.15c4.16-1.78,9.84-.28,12.09,3.24,2.08-3.7,5.33-7.14,9.8-8.55s10-.23,12.29,3.2a19.55,19.55,0,0,1,.55-5.05c1.23-4.45,5.31-8.16,10.29-9.78a23,23,0,0,1,15.5.71c3.79,1.54,7.32,4.54,7.09,8.13a9.4,9.4,0,0,1-1.53,4,14.39,14.39,0,0,1-5.38,5.52l0,0a14.69,14.69,0,0,1,7.89-.09c2.5.8,4.57,2.88,4.47,5.17a5.8,5.8,0,0,1-.46,1.91,12,12,0,0,1-1.46,2.77h0a9.94,9.94,0,0,1-1.27,1.42,8.54,8.54,0,0,1-4.13,2.11l3.15.47a17.64,17.64,0,0,1,5.27,1.37c1.58.82,2.84,2.28,2.74,3.86a4.22,4.22,0,0,1-1,2.26c-1.68,2.18-4.58,3.5-7.56,4a34.76,34.76,0,0,1-9.06.1l0,.23a23.15,23.15,0,0,1,5.48,1.86,6.77,6.77,0,0,1,3.57,3.2,4.48,4.48,0,0,1-.44,3.76c-1.61,2.94-5.12,4.69-8.5,6.13a16.33,16.33,0,0,1-5.45,1.51,17.21,17.21,0,0,1-6.43-1.3l-.26.59a9.12,9.12,0,0,1,3.85,2.73,16.44,16.44,0,0,1,2.66,3.27,4.92,4.92,0,0,1,.59,3.63l1.26.33c.93-3.76,5.48-6.57,9.92-6.17s8.18,4,8.16,7.85c1.29-1.49,3.67-1.94,5.82-1.85.41,0,.83.05,1.23.1-6.58-5.85-9.41-14.39-.6-20.57,5.31-3.72,10.62-4,15.27-2.3,6.22,2.26,11.27,8.08,13.54,14,2.69-4.43,9.88-7.08,15.43-5.16.32-5.27,7-8.49,12.58-7-5.08-6-9.83-15.28-4.15-22.28,4.47-5.54,14.47-4.57,19.71-.57,6.18,4.74,7.59,12.43,8.64,19.11a15.76,15.76,0,0,1,14-7.56c-4.17-5.1-5-11.57-.15-16.6,5.09-5.33,14.33-7.36,19.36-.86a14.29,14.29,0,0,1,13.58-11.29c15.31-.43,19.32,16.2,16.49,26.18,4.28-2.74,7.72-2.49,10.34-.73,3.29,2.22,5.28,6.84,6,11h0a19.79,19.79,0,0,1,.32,3.13l.57-.63c2.18-2.36,5.34-5.49,9.07-4.78-1.92-8.49-1-17,9.87-20.56,5.76-1.9,10-.31,12.45,2.82a12.68,12.68,0,0,1,1.89,10.93c7.18-6.7,18.83-7.79,23.39.32a15.45,15.45,0,0,1,2-1.5c10.55-6.94,18.64,1.89,25.64,8.63.58.56,1.15,1.09,1.72,1.61-1.23-5.9.73-16.3,10.38-17.83s14,8.33,17.18,15.72c7-9.78,14.76-4.83,18.66.81.86-3.76,3.73-13.7,10.28-17.34s16.54-5,24.24-4.79c-5.6-3.68-9.65-13.62-5.46-18.05s12.16-2.83,20.75,3.35c-1.85-7.51.32-21.36,14.05-21.07s14,19.22,10.83,27.45c.46-.3,11.25-7.37,20.9-.77-1.6-8.93-3-21.56,9.74-27.88a11.18,11.18,0,0,1,4-1.16h0c8.12-.72,14.41,8.59,16.94,13,.79,1.39,1.21,2.3,1.21,2.3l.91-1.15h0c7-9,17.26-23.83,30.47-19.76,9.85,3,12,14.28,8.74,25.38a40.66,40.66,0,0,1-6.32,12.72c5.4-1.87,14.51.62,11.58,10.33.11-.18.23-.34.35-.51,3.3-4.69,8.43-9,16.51-5.9,7.24,2.8,6,13.57,6,13.57,8.44-15.14,20.63-29.36,32.59-24.78,9,3.44,7.22,14.12,1.75,26.3-1.6,3.57-3.52,7.28-5.58,11,.35-.18,6.81-3.29,11.9-2.56a7.23,7.23,0,0,1,3.19,1.2c5.11,3.62-.31,9.78-3.24,14.48-1.56,2.5-2.56,4.93-2.51,6.74,0,1.61.88,2.74,2.87,3,1.2.17,3.19-.34,5.55-1.09h0c4.22-1.34,9.63-3.43,13.88-3.72-2.39-4.85-1.85-10.21,4.22-14.46a17.77,17.77,0,0,1,6.9-3c9.85-1.89,18.68,6.35,21.9,14.71,2.7-4.42,9.87-7.08,15.43-5.15.27-4.45,5-7.44,9.91-7.38h0A10.93,10.93,0,0,1,912,351c-.29-.34-.57-.69-.85-1.05-4.73-6-8.66-14.63-3.3-21.24,4.48-5.54,14.47-4.58,19.71-.56,6.18,4.72,7.59,12.42,8.64,19.1a15.68,15.68,0,0,1,14-7.55c-4.17-5.12-5-11.57-.15-16.62,5.08-5.32,14.33-7.34,19.35-.86A14.33,14.33,0,0,1,983,310.92c15.33-.43,19.33,16.19,16.51,26.18,11.07-7.09,16.52,5.79,16.65,13.37,2.2-2.39,5.59-6.17,9.64-5.41-1.82-8.06-1-16.14,8.33-20a19.67,19.67,0,0,1,2.8-14,13.82,13.82,0,0,1,13.09-6.51,10.89,10.89,0,0,1,4.7,1.7,16.76,16.76,0,0,1,6.71,9.95,15.44,15.44,0,0,1,7.29-4.63c-4.72-4.63-.87-10.68,4.24-14.19a18.41,18.41,0,0,1,4.35-2.25c-11.65-4-22.19-17.32-9.83-26s24.85,1.38,28.81,11.68a11.72,11.72,0,0,1,5-4.3,14,14,0,0,1,10.4-.85c.32-5.27,7-8.49,12.58-7-5.08-6-9.83-15.28-4.16-22.29,4.47-5.53,14.47-4.58,19.71-.55,6.18,4.72,7.59,12.41,8.64,19.1a15.69,15.69,0,0,1,14-7.55c-4.18-5.12-5-11.57-.16-16.63,5.09-5.31,14.33-7.33,19.36-.86a14.24,14.24,0,0,1,10-10.7h0a15.14,15.14,0,0,1,3.56-.58c14.68-.41,19,14.84,16.81,24.9h0c-.1.43-.2.86-.32,1.27.33-.21.66-.4,1-.58h0c10.42-5.75,15.55,6.61,15.69,14,2.18-2.4,5.57-6.17,9.64-5.41-1.92-8.49-1-17,9.87-20.56,11-3.63,16.53,5.47,14.34,13.76,8-7.45,21.48-8,24.64,3.34,1.8,6.47.14,13.56-3.33,19.85h0a42.27,42.27,0,0,1-8.24,10.48,39.65,39.65,0,0,1,24.79,5.88c-.53-2.67-1.18-6,1.08-8.21,2.58-2.5,7.44-2.53,10.89-1.86,5.43,1.07,8.3,4.27,10.18,8.38a13.1,13.1,0,0,1,1.76-.36c3.87-4.89,9.31-8.9,16.53-9.15,5.1-.17,9.82,1.41,12.54,4.67a11.8,11.8,0,0,1,2.57-.68,10.87,10.87,0,0,1,9.16,2.61c3.73,3.2,6.11,8.6,8,13.09,7-9.77,14.77-4.83,18.65.82.87-3.77,3.74-13.71,10.29-17.33,5.58-3.09,13.64-4.59,20.67-4.81h0c1.23,0,2.43,0,3.57,0a12.76,12.76,0,0,1-1.73-1.38,18.48,18.48,0,0,1-4.54-7h0c-1.31-3.6-1.35-7.36.81-9.65,4.19-4.43,12.17-2.82,20.76,3.34-1.85-7.51.32-21.36,14-21.07s14,19.22,10.85,27.45c.45-.29,11.25-7.36,20.88-.77-1.59-8.92-3-21.55,9.75-27.87s22.17,14.17,22.17,14.17c3.73-4.65,8.48-11.49,14.2-16.22,5-4.15,10.75-6.67,17.19-4.69,13.79,4.23,12.44,24.6,2.42,38.12,5.41-1.89,14.5.6,11.58,10.31,3.27-4.87,8.49-9.65,16.86-6.41,7.23,2.8,6,13.58,6,13.58,8.45-15.14,20.64-29.37,32.6-24.79,11.62,4.45,5.24,21-3.83,37.27.43-.21,10.1-4.88,15.09-1.34s-.31,9.76-3.25,14.48a21.27,21.27,0,0,0-1.89,3.7c-1,2.82-.88,5.1,1.4,5.85a5,5,0,0,0,.85.2c4.23.6,18-7.16,23.77-4.14,5.26,2.76,6.85,7.68,7,13.6a6.13,6.13,0,0,1,1.59-.82,7,7,0,0,1,1.45-.33,31.05,31.05,0,0,1,3.65-2.95,3.66,3.66,0,0,1,0-.81,5.64,5.64,0,0,1,4.58-4.52,9.61,9.61,0,0,1,3.85.09l.38-.74a9.57,9.57,0,0,1-2.8-1.51c-1.37-1.15-2.11-3.07-1.14-4.51C1671.94,321.25,1675.24,321.44,1678,322Z"/><path class="cls-40" d="M1683,414.39v314.4H28.82v-270a.91.91,0,0,1,.17.09,14.51,14.51,0,0,1,4.77,1.35,6.6,6.6,0,0,1,3.29,3.21l.21,0a8,8,0,0,1,.54-4.92,7.63,7.63,0,0,1,4.06-3.69c2.5-1,5.5-.77,8.25-.34l.1-.22a10.41,10.41,0,0,1-5.09-3.51,3.84,3.84,0,0,1-.92-2.4c.09-1.71,2-3.06,4.1-3.54a19.66,19.66,0,0,1,6.45,0l.25-.62c-2.6-1.05-4.27-3.41-3.93-5.68a8.15,8.15,0,0,1,2-3.76,25.79,25.79,0,0,1,4.66-4.41l-.08-.14-8.31,3.07a22.66,22.66,0,0,1-8,1.87c-2.81,0-5.82-1.31-6.43-3.45-.45-1.58.49-3.25,1.94-4.39a17.62,17.62,0,0,1,5.25-2.52,125.74,125.74,0,0,1,15.19-4.25l-.16-.48a10.06,10.06,0,0,1-5.17-.66c-2.83-1.06-5.46-3-5.67-5.47a5.74,5.74,0,0,1,1.15-3.54A14.45,14.45,0,0,1,54.84,405l.38-.51a21.29,21.29,0,0,1-8-2.39c-2.31-1.33-4.08-3.38-4.28-5.63-.3-3.28,2.92-6.38,6.94-7.31a15.57,15.57,0,0,1,11.69,2.28c-.29-3.38,3.13-6.26,6.72-8.13a16.8,16.8,0,0,1,5.44-1.93,8.56,8.56,0,0,1,5.69,1c2.26,1.47,2.59,4.1,2.22,6.4a16,16,0,0,1-.91,3.23l.83.37a16.89,16.89,0,0,1,6.1-4.45,9.92,9.92,0,0,1,8,.12,4.83,4.83,0,0,1,2.56,3.21,4.07,4.07,0,0,1-1.15,3.6l.61.35,2.23-1.26a12.83,12.83,0,0,1,5.14-2,5.22,5.22,0,0,1,3.75,1.05c-.48-4.89,1.88-9.92,6.37-13.33a10.44,10.44,0,0,1,7.12-2.44,6.93,6.93,0,0,1,6.12,5.27c.54,2.51-.34,5.07-1.26,7.51a11.87,11.87,0,0,1-1.12,2.4l.24.1,5-2.93a9,9,0,0,1,2.54-1.15c2.52-.61,5.12.68,7.1,2,2.62,1.83,5,4.08,5.49,6.8,1.9-3.45,7.11-5.58,11.83-4.82l.24-.23c-2.7-1.76-4.76-4.22-4.76-6.94s2-5.14,4.86-6.57a18.35,18.35,0,0,1,9.71-1.6h1a15.29,15.29,0,0,1-3.61-6.49,6.62,6.62,0,0,1,2.36-6.61,11.22,11.22,0,0,1,4.85-2,16,16,0,0,1,11.25,1.86c2.79,1.81,4.32,4.8,3.68,7.55a19.85,19.85,0,0,1,7.12-5.53,17.24,17.24,0,0,1,8.1-1.75c2.83.16,5.66,1.36,7,3.34s.91,4.4.13,6.54a22.86,22.86,0,0,1-4.3,7.16l.29.16a20.55,20.55,0,0,1,3.91-2,8.17,8.17,0,0,1,4.54-.29c2,.54,3.35,2.08,4.5,3.52a13.07,13.07,0,0,1,2.56,4.17,11,11,0,0,1,0,4.58,4.29,4.29,0,0,1-.81,2.28,24.2,24.2,0,0,1,13.87-5l.11,0a8.08,8.08,0,0,1-1.74-4,4.9,4.9,0,0,1,1.86-4.29,9.17,9.17,0,0,1,5.38-1.59,32.56,32.56,0,0,1,5.83.59,1.1,1.1,0,0,0,.65,0,.7.7,0,0,0,.33-.41c.86-1.94,1.62-4,3.45-5.5s5.12-2.1,7.07-.7a4.88,4.88,0,0,1,1.39,1.66,15.21,15.21,0,0,1,1.58,3.74,10,10,0,0,1,2.61-4.3,11,11,0,0,1,7.13-3.2c2.82-.12,5.8,1.24,6.57,3.36a4,4,0,0,1,.16,1.91l.58-.12c4.08-1.46,9.5,0,11.55,3.15a17.13,17.13,0,0,1,9.76-7.28c4.27-1.08,9.62.05,11.73,3.12a16.28,16.28,0,0,1,.72-4.43c1.34-3.88,5.41-7,10.27-8.34a24.2,24.2,0,0,1,14.93,1c3.6,1.45,6.9,4.17,6.55,7.32a7.9,7.9,0,0,1-1.63,3.5,13.41,13.41,0,0,1-5.38,4.72l0,0a15.54,15.54,0,0,1,7.61.11c2.38.77,4.31,2.64,4.13,4.66a5.14,5.14,0,0,1-.52,1.67,9.57,9.57,0,0,1-2.79,3.62,8.69,8.69,0,0,1-4.06,1.75l3,.49a18.11,18.11,0,0,1,5,1.34c1.5.75,2.67,2.07,2.52,3.46a3.73,3.73,0,0,1-1,2c-1.7,1.88-4.55,3-7.44,3.35a37.07,37.07,0,0,1-8.74-.14l0,.21a23.08,23.08,0,0,1,5.22,1.76c1.45.7,2.85,1.62,3.33,2.9a3.66,3.66,0,0,1-.56,3.3c-1.65,2.54-5.1,4-8.41,5.17a16.88,16.88,0,0,1-5.32,1.2,17.94,17.94,0,0,1-6.15-1.29l-.28.5a8.63,8.63,0,0,1,3.62,2.5,14.34,14.34,0,0,1,2.45,2.94,3.94,3.94,0,0,1,.44,3.21l1.21.31c1-3.28,5.52-5.64,9.79-5.17s7.74,3.71,7.58,7.1c1.3-1.28,3.61-1.62,5.68-1.49.4,0,.8.07,1.19.12-6.14-5.3-8.57-12.88.15-18.09,12.28-7.34,23.92,1.83,27.37,11,2.76-3.83,9.78-6,15.07-4.16.5-4.63,7-7.29,12.39-5.88-4.68-5.43-8.94-13.67-3.22-19.69,4.52-4.76,14.13-3.66,19,0,5.79,4.31,6.87,11.11,7.65,17A15.84,15.84,0,0,1,446,397.94c-3.85-4.6-4.38-10.3.44-14.61,5.1-4.56,14.09-6.11,18.71-.28,1.41-5.13,6.48-9.49,13.5-9.58,14.78,0,18.06,14.71,15,23.42,10.94-6,15.73,5.5,15.6,12.17,2.19-2.05,5.59-5.29,9.49-4.52-1.55-7.51-.33-15,10.26-17.82,10.75-2.92,15.74,5.21,13.33,12.43,7.17-5.71,18.45-6.38,22.55.87a15,15,0,0,1,2-1.28c11.28-6.31,19.13,3.54,26,9.68-1-5.21,1.29-14.31,10.65-15.41s13.22,7.66,16,14.24c7.1-8.43,14.41-3.88,18,1.17,1-3.29,4.08-11.95,10.53-15s16.13-4,23.55-3.61c-5.27-3.37-8.81-12.21-4.62-16s11.83-2.19,19.89,3.46c-1.51-6.65,1.08-18.78,14.31-18.19s12.79,17.25,9.47,24.4c.45-.24,11.12-6.19,20.18-.16-1.22-7.89-2.12-19,10.39-24.26s20.88,13,20.88,13c7.07-7.5,17.86-21.68,31-17.61s11.13,21.93,1,33.56c5.29-1.52,14,.9,10.81,9.36,3.34-4.21,8.53-8.27,16.49-5.22,6.88,2.64,5.28,12.08,5.28,12.08,8.69-13.1,20.95-25.3,32.32-21,11.06,4.2,4.31,18.61-5,32.66.43-.17,9.93-4,14.61-.82s-.65,8.59-3.65,12.66-4.06,8,0,8.59c3.24.5,12.53-3.52,18.92-3.74-2.13-4.32-1.41-9,4.59-12.61,12.27-7.34,23.91,1.83,27.37,11,2.76-3.83,9.77-6,15.06-4.15.5-4.62,7-7.3,12.39-5.87-4.69-5.44-8.94-13.68-3.21-19.7,4.52-4.76,14.13-3.67,19,0,5.79,4.3,6.87,11.1,7.65,17A15.77,15.77,0,0,1,980.45,412c-3.84-4.6-4.39-10.29.44-14.62,5.1-4.54,14.09-6.1,18.7-.28,1.43-5.13,6.5-9.48,13.51-9.58,14.79,0,18.06,14.71,15,23.42,10.93-6,15.73,5.51,15.59,12.17,2.2-2,5.6-5.28,9.49-4.52-1.47-7.13-.44-14.21,8.74-17.36a16.22,16.22,0,0,1,3.21-12.26,13.94,13.94,0,0,1,12.85-5.4c6,.81,9.64,6.17,10.6,10.53a15.24,15.24,0,0,1,7.19-3.89c-5.59-5.34,2.34-12.37,8.87-14.25-11.09-3.82-20.78-15.77-8.55-23.09s23.92,1.84,27.37,11c2.76-3.83,9.78-6,15.07-4.15.5-4.63,7-7.3,12.39-5.88-4.69-5.43-8.93-13.67-3.22-19.7,4.52-4.75,14.12-3.66,19,0,5.79,4.3,6.87,11.1,7.65,17a15.8,15.8,0,0,1,13.79-6.3c-3.85-4.6-4.39-10.29.44-14.61,5.1-4.55,14.08-6.1,18.7-.28,1.42-5.13,6.49-9.48,13.51-9.58,14.78,0,18.06,14.71,15,23.42,10.93-6,15.73,5.51,15.6,12.17,2.19-2.05,5.59-5.28,9.49-4.52-1.55-7.51-.33-15,10.25-17.83,10.76-2.92,15.75,5.22,13.34,12.45,8-6.36,21-6.47,23.64,3.55,2.45,9.32-4,19.88-12.24,26.37a40.8,40.8,0,0,1,23.71,5.79c-.42-2.36-.93-5.33,1.33-7.19,2.58-2.13,7.27-2.05,10.57-1.37a12.45,12.45,0,0,1,9.52,7.62,13.38,13.38,0,0,1,1.72-.28c3.89-4.2,9.29-7.6,16.26-7.63,4.93,0,9.42,1.48,11.93,4.41a12.71,12.71,0,0,1,2.5-.53c9.36-1.1,13.24,7.65,16,14.23,7.1-8.42,14.41-3.88,18,1.17,1-3.29,4.1-11.95,10.55-15s16.13-4,23.55-3.62c-5.27-3.37-8.82-12.21-4.63-16s11.84-2.18,19.9,3.45c-1.51-6.65,1.08-18.77,14.3-18.18s12.8,17.25,9.48,24.4c.44-.25,11.11-6.19,20.17-.16-1.22-7.88-2.11-19,10.4-24.26s20.87,13,20.87,13c7.06-7.5,17.87-21.68,31-17.61s11.12,21.93,1,33.57c5.28-1.53,14,.88,10.81,9.34,3.32-4.19,8.52-8.26,16.48-5.21,6.88,2.64,5.28,12.08,5.28,12.08,8.69-13.1,21-25.31,32.33-21,11.05,4.2,4.3,18.62-5,32.66.43-.17,9.92-4,14.61-.81s-.65,8.58-3.66,12.66-4,7.94,0,8.57,17.63-5.85,23.08-3c5,2.55,6.33,6.91,6.23,12.12a7,7,0,0,1,3-.94,31,31,0,0,1,3.63-2.5,3.39,3.39,0,0,1,0-.71c.31-1.85,2.23-3.48,4.58-3.86a10.53,10.53,0,0,1,3.71.17l.39-.63a9.7,9.7,0,0,1-2.65-1.4c-1.28-1.05-1.92-2.75-.94-4C1677.21,413.59,1680.39,413.84,1683,414.39Z"/><path class="cls-41" d="M-16.11,484.32V902.6H1665.76V484.32C1519.67,516.49,635.8,491.4-16.11,484.32Z"/><path class="cls-42" d="M1052.2,263.42l-.53,0S1054,257.8,1052.2,263.42Z"/><path class="cls-43" d="M1293.42,250.29c-.13.37-.28.73-.43,1.08-2.46,5.61-6.18,8-9,10.21-11.45,9.05-35.81,21-77.6,27a82,82,0,0,0-9.88,1.49c0,.1-.17,1.33-.17,1.33s-1.65,32.48-39.07,48.14c-7.07,2.89-13.3,5.46-18.79,7.8l-3.94,1.68-6.43,2.8q-2.62,1.15-5,2.23c-10.9,4.95-17.61,8.51-22.39,11.61-5.91,3.84-10.52,7.79-12.36,16.2a45.79,45.79,0,0,0-.81,11c0,1,.09,2,.16,3,.21,2.43.4,5.09.5,8,0,.67,0,1.37.06,2.08.08,2.78.08,5.75,0,8.87a159.47,159.47,0,0,1-2.94,26.21c-1,5.17-2.23,10-3.59,14.55-1.28,4.36-2.69,8.41-4.16,12.18a154.51,154.51,0,0,1-10.57,21.87c-28.74,1-47.19,1.08-59,1-3.33,0-6.44-.1-9.38-.16h-.34c-4.19-.09-8-.2-11.44-.3-11.17-.29-18.55-.43-23.18.74l-.21,0s-.05,0-.06,0a13.41,13.41,0,0,1-3.14,0h0c-.5-.07-.88-.21-1-.48-.26-.7,1.71-1.29,3.53-4,1.68-2.48,3.4-4.89,3.71-6.12a31.25,31.25,0,0,1,1.19-3.67v0c.15-.36.29-.72.44-1.06a4,4,0,0,1,.17-.36A71,71,0,0,1,975,463.38c5.81-8.18,8.86-20,13.11-38.84,0,0,0-.06,0-.1.45-2,.93-4.11,1.42-6.31.24-1.08.5-2.21.74-3.39.42-1.95.83-4,1.27-6.2a.1.1,0,0,0,0-.07.5.5,0,0,1,0-.16c.18-1,.38-2,.56-3l.27-1.49c.61-3.43,1.21-7.09,1.77-11q.78-5.22,1.43-11c.1-.82.19-1.66.28-2.51a167.55,167.55,0,0,0-1.3-25.3c-.11-.75-.21-1.49-.33-2.23-.24-1.54-.52-3-.82-4.48-1.47-7.1-3.6-12.9-6.36-17.28a272.29,272.29,0,0,1-17.62-33.41s-23.88,1.11-34.54.64a5.53,5.53,0,0,1-.59,0c-1-.06-1.92-.15-2.63-.24h0a5.26,5.26,0,0,1-1.58-.38,9.42,9.42,0,0,1-1.36-.94,10.7,10.7,0,0,1-1.51-1.36l-.14-.13a24.2,24.2,0,0,1-4.93-8,33.84,33.84,0,0,1-1.14-3.48A49.77,49.77,0,0,1,919.75,266c0-.35-.07-.67-.1-1l-.41-4.07,9.32,2.71s2.25,14.56,11,19h0a11.56,11.56,0,0,0,3.83,1.17,30.25,30.25,0,0,0,13.32-1.15h0c9.26-2.89,16.42-10,14.79-19h10.34a119.77,119.77,0,0,0,.24,19.07c.62,6.39,1.92,13.26,4.53,18.72,1.84,3.89,4.34,7,7.7,8.79.79.21,1.56.39,2.3.53h.13a15.45,15.45,0,0,0,2.27.28,11.81,11.81,0,0,0,5-.61l.15-.06a9.22,9.22,0,0,0,3.35-2.25c3.37-3.54,5.11-10.54,4.84-22.28,0-1.08,0-2.1-.08-3.08,0-.45,0-.87,0-1.28V281c-.18-6.9-.27-11.11-.35-13.65a.33.33,0,0,1,0-.1c0-.94,0-1.64-.06-2.18l0-1.74,18.58,0s-.53,11.9-.46,19.43c0,3.15.15,5.53.46,5.95,1,1.31,7.61,13.25,15.27-5.93.91-2.3,1.84-5,2.77-8.28,2-5.66,3.11-9.12,3.73-11.12l9.55.23a91.8,91.8,0,0,1-6.45,19.18,65.7,65.7,0,0,1-12.93,19.27,45.09,45.09,0,0,0-6.58,15.92c-2.44,11.28-1.28,23.17,3,29.31a10.26,10.26,0,0,0,.92,1.2,22.65,22.65,0,0,0,3.82,3.28c2.81,1.87,6,2.74,9.37,1.23a9.82,9.82,0,0,0,2.06-1.23,19.11,19.11,0,0,0,4.18-4.48c2.71-3.83,5.42-9.65,8-18.1,1.51-4.92,3-10.72,4.4-17.56.31-1.41.59-2.78.87-4.13v0c2-10,3.61-18.17,4.76-24.64,2.38-13.09,3.14-19.22,3.14-19.22l14.32-.16s-1.35,9.14-2.63,19.41c-1.38,11.07-2.68,23.43-2.14,27,1.33,7.83,1.86,31.92,33.17,21.77,48.1-14.25,30-32.56,13.52-48.75-9.23-9.08-17.91-17.47-14-24.1,1.61-2.75,15.64,11.74,29.3,24.14,12.38,11.24,24.47,20.75,26.62,14.05q2.49-7.83,4.48-14c4.22-13.32,6.49-20.7,6.49-20.7l11.68-.31s.53,13-1.87,16.45c3.74.28,34.86-2.44,48.66-9.46,6.62-3.36,14.33-7.51,20.26-11.18a51.12,51.12,0,0,0,8.51-6.15,4.82,4.82,0,0,0,1-1.41C1280.78,250.16,1290.31,250.42,1293.42,250.29Z"/><path class="cls-44" d="M991.59,408.32c7.35,3.22,20.49,9.05,27.36,16.25,25.4,26.61,8.12,61.61,6.15,65.42l-67.06.93a48.79,48.79,0,0,0,10.1-15.35C977.86,453.17,989.72,426.08,991.59,408.32Z"/><path class="cls-45" d="M1260.26,151.4l-10.56,30.28c-5.51,1-11.09,2.07-16.79,3.07q-7.8,1.37-15.84,2.67-19.58,3.17-40.45,5.82-10.72,1.38-21.81,2.56c-34.15,3.67-70.69,6.08-109.34,6.61q-30.93.41-60.13-.73c-28.22-1.05-55.18-3.06-80.74-5.8q-8-.84-15.71-1.79c-.92-.11-1.84-.21-2.74-.33q-15.46-1.89-30.18-4.11c-8.72-1.3-17.26-2.66-25.57-4.1q-10-1.7-19.64-3.53,7.34-6,14.71-11.93,3.31-4.16,7.14-8.74l1.51-1.79A406.24,406.24,0,0,1,904.6,93.75a338.57,338.57,0,0,1,80.74-43.63q11.49-4.3,23.71-7.8c37.84-10.79,156.11-44.44,217.85,27.85,20.31,23.78,28.58,52.31,32.21,73.59.24,1.47.47,2.9.68,4.29C1260,149.2,1260.11,150.32,1260.26,151.4Z"/><path class="cls-46" d="M1259.42,150.19c-2.86-20.89-10.38-52.43-33-78.19-61.1-69.6-178.13-37.21-215.57-26.82-92.42,25.66-152.32,87.19-181.67,123l-14.55,11.49a1196.09,1196.09,0,0,0,232.25,19.62,1195.7,1195.7,0,0,0,202.1-20Z"/><path class="cls-45" d="M878.41,256q-.4,1.25-.84,2.52l-1.19.07c-15.18.85-28.81,1.47-41,1.83-58.54,1.74-84-2.29-91.67-13.05-6.64-9.31.12-23.64,10.41-43.59,20-32.47,53.07-42.24,80-44.21.83-.06,1.65-.13,2.46-.16,4.16-.25,8.17-.3,11.93-.23a149.66,149.66,0,0,1,29.06,3.15,13,13,0,0,1,2,2c2.79,3.38,7.72,11.3,9.09,26.55.11,1,.18,2.09.24,3.19C889.67,208.34,887.44,228.36,878.41,256Z"/><path class="cls-47" d="M877.2,255.89c-.26.88-.53,1.77-.82,2.69-.32,1.08-.68,2.19-1,3.31-13.88.84-26.43,1.44-37.74,1.82-64.51,2.23-89.05-2.8-93.87-16.35-3.38-9.43,2.82-23,11.73-41.1,19.23-32.79,51.1-42.81,77.15-44.91l2.45-.18c4.2-.26,8.24-.33,12-.25a140.16,140.16,0,0,1,28.27,3.2,14.35,14.35,0,0,1,2,2.2c2.57,3.29,6.86,10.62,8.44,24.23.13,1,.25,2.1.33,3.21C887.29,207.82,885.61,227.85,877.2,255.89Z"/><path class="cls-45" d="M1241.57,250.29c2.57,0,77.34-5.43,77.34-5.43s46.4-10,19.76-34.38a44.83,44.83,0,0,1-16.84-14.81c-5.31-8-3.89-11.93-7.28-19.29-10.72-23.33-46.69-31.27-46.69-31.27h0s-48.77-10.29-85.07,9.91c-4,2.25-6,3.47-7.58,5.56-16.79,22.86,35.42,89.71,35.42,89.71Z"/><path class="cls-48" d="M1204.14,253.15c2.49,0,141-2.86,141-2.86s25.11-3.92,11.09-28c-8.17-12-14.12-21.28-19.1-29.07-5.12-8-18.93-20.22-28.2-26.95-22.78-18.67-66.5-19.89-66.5-19.9h0s-47.12-10.32-82.17,9.94c-3.91,2.26-5.84,3.48-7.33,5.58-16.21,22.93,34.22,90,34.22,90Z"/><path class="cls-45" d="M1237.57,188.58S1195,152,1150.41,137.69c-48.73-21.5-113.24-69.53-191.47-47.31-60.4,20.79-105.69,49.46-132.45,102.51-13,30.82-15.1,68.09,84.41,63.07l277.25.46S1296.59,248.08,1237.57,188.58Z"/><path class="cls-49" d="M1271.54,248.25h0a18.69,18.69,0,0,1-.63,3.55h0a21.93,21.93,0,0,1-2.77,6c-13.89,21.35-64.26,25.23-64.26,25.23l-21,0-31.1-.05-15.24,0-19.18,0-25.38,0-14.82,0-21.9,0-9.6,0h-5.86l-9.87,0-11.77,0h-5.94l-26.92-.05H982.1l-25.38,0H939.51l-15.62,0h-.5l-2.35.12h-.1c-4.38.2-8.54.29-12.51.33H904.6c-33.7-.16-53-6.21-63.23-15.36h0a33.16,33.16,0,0,1-3.76-4v0a24,24,0,0,1-2.2-3.3s0,0,0,0a31.19,31.19,0,0,1-3.77-17.6h0c.42-8,3.06-16.35,6.41-24.3a180.47,180.47,0,0,1,18-28.84c.73-1,1.45-1.89,2.2-2.82a173.81,173.81,0,0,1,19.21-20.51c.71-.66,1.44-1.31,2.18-2a198.43,198.43,0,0,1,25-18.74c.61-.41,1.24-.8,1.87-1.2,19.27-12,41.19-21.72,65.54-30.13,4.49-1.28,8.93-2.33,13.33-3.18,68.66-13.1,126.33,25.38,171.6,47.22q4.45,2.16,8.75,4.06c2.44.79,4.88,1.64,7.3,2.56a243.85,243.85,0,0,1,40.72,20.4c1.15.69,2.24,1.37,3.34,2.06a0,0,0,0,1,0,0,338.57,338.57,0,0,1,36.79,26.69c.23.23.44.44.65.67l0,0C1267.83,228.46,1272.41,239.43,1271.54,248.25Z"/><g class="cls-50"><path class="cls-51" d="M-23,715.27h-1.09l-.75,151.22h-8.49v43.32H1620V748.09l-1.27-.06q-4.61-.24-9.2-.53-16-1-31.86-2.29h0l-2.8-.23h0q-11.74-1-23.46-2c-39.27-3.54-78.23-6.5-117.85-8.31l-6.33-.29-1.29-.06-3-.14L1420,734c-14.91-.7-29.81-1.47-44.67-2.5q-12.84-.9-25.61-2.1c-9.86-.95-19.72-2.57-29.66-3.07-10.93-.58-19.58-1.46-25.18-7.29-.33-.36-.14-.71.42-.93,21.44-8,51-7.81,75.72-8.22,7.46-.14,14.91-.38,22.35-.63,12.88-.44,25.74-.89,38.66-.84,23.15.09,46.28.57,69.41,0,20.77-.55,44.18-1.46,62.52-7.47a39.7,39.7,0,0,0,9.11-4.24c2.23-1.42,2-1.43-.39-2.67a59,59,0,0,0-9.25-3.47c-12.1-3.71-26.38-5.12-39.85-6.28-12.54-1.07-25.22-1.63-37.69-2.91-19.3-2-38.4-5-57.5-7.47-21.78-2.84-43.69-5.76-65.85-7.49h0c-1.76-.14-3.53-.27-5.29-.39h0q-3-.21-6.11-.39c-2.15-.12-4.29-.23-6.44-.33h-.33l-3.11-.12-2.87-.1-3.59-.1h-.35c-1.49,0-3-.06-4.46-.06h0c-1.37,0-2.74,0-4.11,0h-.6c-30.74,0-61.47,2-92.23.94-6-.2-12-.53-18-1.07h0c-3.06-.28-6.11-.62-9.13-1l-.84-.11h0l-2.2-.32c-1.71-.26-3.4-.55-5.07-.86-.81-.14-1.6-.29-2.4-.45h0l-.7-.15c-3.06-.63-6.06-1.35-9-2.18-.84-.26-.72-.92,0-1.17,24.83-8.79,56.27-9.71,84.76-10.47,17.6-.46,34.84-1.22,52.21-2.92,14.83-1.44,29.48-3.39,44-5.54l3.19-.48a.32.32,0,0,0,.13,0h0l1.16-.17,5.18-.79,1-.16h0l.63-.1c.86-.12,1.72-.26,2.57-.39h0l.1,0h0a.47.47,0,0,0,.16,0c2.76-.42,5.51-.86,8.27-1.29q7.56-1.2,15.11-2.44l.42-.07h0l.34-.05h0c18.33-3,36.64-6.13,55-9.18h0l3.37-.56h0l.66-.11,9.54-1.58c1.67-.27,3.35-.55,5-.81h0l2.43-.4,3.55-.57,1.94-.31,2.64-.42,2.28-.36h0l4-.63,1-.16,6.51-1h0q8.89-1.36,17.84-2.64h0c3.47-.51,6.95-1,10.43-1.46h0c3.89-.53,7.77-1.05,11.68-1.55.25,0,.51-.07.77-.09l.23,0q6.09-.78,12.2-1.49,19.89-2.34,40-4c4.43-.34,8.85-.66,13.28-.93,3.06-.2,6.13-.36,9.2-.5l1.27-.06v-9l-1.27,0c-3,.07-6.13.17-9.2.3-35.64,1.57-72.17,7.54-107.33,11.15-7.73.8-15.41,1.83-23,3h0l-3,.47c-7,1.11-13.92,2.35-20.85,3.63h0l-2.9.53-1.74.34h0l-2.32.43-7.17,1.35h0l-1.26.24h0l-3.91.74-.86.16H1435l-1.71.32-2.94.55h0l-3.7.69-.24,0-1.08.19-3.8.69h0l-3.44.6q-7.56,1.33-15.17,2.5-3,.45-5.93.87l-.56.08h0l-3.24.43h0c-2.21.3-4.42.57-6.64.83-1.45.17-2.91.33-4.37.48l-.71.08-3.17.32h0l-.6.06c-47.29,4.8-93.56,8.2-141.18,10.57h0l-3,.15h-.23l-.82.05c-.88,0-1.76.08-2.64.13-.38,0-.76,0-1.13.06l-2.18.12-1.77.11c-1,.05-2,.12-3,.19q-.91,0-1.83.12l-4.51.31h0c-2.67.18-5.33.38-8,.6h0l-6.19.51h0q-10.59.91-21.16,2h-.1c-2.44.25-4.89.51-7.33.78h0c-.62.06-1.25.12-1.88.2h-.15c-.58.05-1.15.11-1.73.18l-3,.34-2.91.32-1.58.18h-.11l-2.25.26-3,.33h0l-3.78.45-.37,0h0l-1.59.19-4.7.56-1.08.12h0c-22.08,2.63-44.15,5.41-66.27,7.72-17,1.78-34,3.27-51.15,4.21-67.49,3.68-135.13.29-202.65,4q-21.55,1.21-42.88,2h0l-5.37.2,4.77,0h0c7.55.06,15.1.21,22.69.53,19.18.81,38.3,2.26,57.41,3.49,18.77,1.22,37.8,2.45,56.73,2,16.75-.41,33.63-1.61,50.3,0,2.47.23,4.91.65,7.28,1,1.09.19,1.12.9.3,1.25-21,8.75-49,10.69-74.4,11.72-28.87,1.17-58,.87-86.91,1.38q-21,.36-41.91.5-37.95.29-75.91,0c-39.65-.28-79.27-1.36-118.91-1.78-13.35-.14-26.65.11-39.93.61-62.58,2.37-124.56,10.35-187.44,9.23-22.6-.4-45.23-1.56-67.82-2.85-13.21-.76-26.42-1.55-39.59-2.27-28.37-1.55-61-4.94-88.38,1.29,11.09,9.53,36,9.53,49,18.18.5.33.44.69,0,1l-.18.09c-11.65,5-28.51,5-42.43,4.43-11.78-.47-23.49-1.64-35-3.22-1.18-.15-2.35-.32-3.52-.49q-2.7-.39-5.39-.81l-1.19-.19-2.7-.43-2.56-.43-1.21-.2h0q-5.17-.88-10.27-1.83a533.12,533.12,0,0,1-61.07-14.94,245.34,245.34,0,0,1-25.93-9.34,83.44,83.44,0,0,1-14.5-8,1.86,1.86,0,0,1-.28-.21c86.29,4.74,251.61,15.53,0-14.63-.05,0,.08,0,.12,0,1.12-.46,2.3-.87,3.54-1.24h0a67.27,67.27,0,0,1,11.11-2.18c4-.47,8.15-.73,12.31-.86l1.2,0,.6,0c4.46-.11,8.87-.09,13-.07l4.54,0c19.15.11,38.26,1.22,57.33,2.21q9.57.49,19.15.93h0l2.73.12h0l4.16.19h0l14.87.65.73,0h.14q8.61.38,17.23.79l.56,0h.1c4.69.22,9.37.44,14.06.7,26.42,1.39,53.24,2.6,79.82,1.78h0q9.21-.27,18.38-.9l.15,0,1.77-.13h0l2-.15H277l3.64-.31.24,0-.25-.07-1.73-.44h0c-.88-.24-1.76-.46-2.65-.68h0c-1.13-.29-2.26-.56-3.39-.83l-.44-.1c-14.75-3.51-30-6.13-45.49-8.32h0c-6.27-.88-12.58-1.68-18.92-2.46h0l-7.33-.86h0l-.35,0h0l-4.14-.47-6.4-.72h-.13c-1.22-.15-2.44-.28-3.67-.41l-3.3-.36-4.19-.47h-.12l-.59-.07-6.37-.7h0l-2.56-.28h0c-24.45-2.71-48.8-5.63-72.16-10.38-12.84-2.61-25.15-5.69-37-9.2C44.45,619.2,30,614.06,16,608.35l-4-1.66c-4.88-2-5.62.18-10.4-1.87-.1,0-4.24-1.39-4.34-1.41-5.79-1.32-4.94,2.65-10.76,1.41-1.58-.35-7.91,2.92-9.49,2.59V715.27Z"/></g><path class="cls-52" d="M-341.17,774.05c3.17-7.38,15.47-.43,16.93,1.16,3.35,3.67,6.11,11.41,9.85.38a26.85,26.85,0,0,0-1.6-19.75c3.05,2.79,12.36,11.14,15.3,21.41,2.14-3.29,3.49-8.61,3.55-13.69,6.95,5.3,31.43,42.14,31.61,8.6,1.64,7.61,6.67,12.42,9.48,12.8,5.78.8,5.78-7.51,7.89-14.39,2.2,2.7,5.55,5.88,5.22,11.36,5.38-.84,6.68-19.92,2-25.32,2.43.94,13.14,10.07,14,18.46,1.4-5.11,5.21-12.93,8.53-14.22-3.27,15.33,2.5,19.13,8.07,7.62,4.18,4.64,3.72,10.56,9.23,7.12,3.58-2.23,7.93-10.25,7.38-18,2.22,10.2,4.14,25.76,11.84,15,.2,2.9,1.94,6.67,3.86,7.69,2.33,1.23,5-.92,6.68-3.61,4-6.3,5.85-20,7.33-28.68-.82,11.68-2.69,23.93,5,30.7,7,6.14,8.75-3,12.09-12.21-2.7,14.69,9.18-4.52,10.83-5.27-1.6,6.87,10,7.48,12.56,6.42,1-8.38,4.73-13.24,7.82-19.57.17,4.57-2.95,18.34-.16,21.63,2.41,2.85,5.14-5.46,6.54-7.9,2.15,6.48,5.1,6.72,9.69,3.29-.33,3,5.37,4.07,5.6,3.85,2.36-2.15,7.29-1.65,9.09-4.29,2.52-3.67,2.54-9.8,1.59-15.06,2.13,2.71,8,12.12,9.93,14.59,4.94-11.15,7.38-.5,12.47,3.19,6.27,4.55,9.78-4.78,8.69-18,2.45,12.31,13.31,32.13,16.46,14.52,2.74,7.16,2.23,12.09,7.06,3.78,3.07-5.27,4.77-13,8.52-18,.09,4-1.15,14.3,1.45,16.56s5.73-5.21,5.61-9.56c2.24,6.47,5.52,14.12,8.24,3.44.51,10.85,6.5,12,8.79,3.33.52,6.34,3.25,8.41,5.52,4.29,2-3.7.81-13.71.22-18.91C12.08,760,16.07,773.4,21.5,764.32c.43-.7,4.75-5.87,2.59-19,5.76,6.41,4.29,14.63,12.38,8.82,3-2.13,5.53-6.34,7.26-9.92.74,3.08,1.36,10,3.44,12.08,2.56,2.65,6.62-2.11,7.46-2,2.67.41,4,4.11,7.13,4.51,2.26.27,7.59,1.21,9.45-.61s2.22-8.78,2.71-11.94c.12,3.35,1.34,13.19,5.09,12.58,1.58-.25,2.88-4.07,5.55-4.4-.77.27-.13,5.82,1.71,5.79,4.87-.08,8.71-7.21,10.26-14.74,2.61,9.87,4.61,26.8,10.09,32.64,3.26-5.62,3.23-17.93,4.52-25.1,4.33,12.81,10.34,20.43,10.56-1.66.73,5.31,1.17,7.55,3,9.35,1.44,1.39,1.24-17,1.52-18.55,2.43,17.42,16,34.87,20.65,10.9-.11,6.41-1.94,21.12,2.72,22.53s11.54-13.82,12.83-21c.81,10.76.79,12.69,6,9.78,3.76-2.08,6.48-7.34,10.29-9.08.63,1.9,9.21,22.17,8.95,22.31,2.39-1.49,4.24-5.3,4.86-9.47,3.64,3.34,6.53,10.62,9.15,16.22,2.94-2.41,4.29-8.62,6.4-10.77,1,7.24,26.39,13.51,18.92-1,5.8,5.46,11.92,10.27,18.46,5.55-.12-1.43,0-2.85,0-4.26,0,.88,9.28,12.8,10.24,13.09,4,1.22,6.67-4.7,6.57-11.24,1.52,7,4.19,16.05,8.82,10.32,3-3.72,2.27-11.86,2.58-17.27,2.25,1.77,8.93,19.64,13.13,17.61,4.74-2.3,5.42-32,9.52-19.28,5.57-3.41,7.85-16.87,11.9-20-2.91,4.19,2.57,22.71,4.92,25.8,3.51,4.63,9.5,11.77,13.39,7s4.56-16.86,4.9-25.78c1,8.36,3,14.27,5.6,18.41,1.65,2.55,4.7-8.69,4.91-10.13,3.08,2.72,3.65-4.45,3.81-8.73,3.29,9,5.82,24.21,13.54,21.41,8-2.89,7.63-17.78,8.37-31.39.55,8.84.8,21.82,4,28.88,3.7,8.19,9.75,2.05,10.11-9.64.37,4.24,1.1,13.94,4.14,15.21,3.33,1.38,4.39-7.44,5.93-11.26,1.28,4.67,2.89,13,6.84,12.24,7.22-1.37,4.25-23.41,10.74-8.47,3.62,8.32,4.2,11.06,9.41,2.65,4.24-6.84,7.81-17.8,12.64-22.92.49,6.1-4.47,20.86,1.59,23.59,3.07,1.37,6.46-7.16,8.59-10.24.45,8.68-.1,12.53,5,10.19,1.41-.65,4.33-6.24,5.54-6,6,1.22,7.66,21.58,14.58,23.38,3.49-6.85,3-22.4,6-26.28-3.33,9.41,14.81,15.87,20.39,8.45,2.69-3.55,3.58-11.12,3.87-16.56,5.55,9.24,3.73,20.94,6,31.9,4.24.46,5.94-11,7.84-16.23.63,7.55,5,10.52,7.24,3.14,3.47,14,9.61-.28,9.46-10.11,4.54,26.92,15-4.6,16.64-17.39-.29,13.58,3.24,21.36,6.79,26.78,1.17-4.43,3.26-8.07,3.36-13.07,1.61,1.89,5.4,21.74,5.87,21.67,2.38-.42,4-4.88,5.44-7.72,8.24,12.71,14.23-3.37,16.74-19,.73,7,11.08,10.8,6.07,21.21,4.07-4.48,6.58-9.91,10-13.54,0,0,.65,8.4.69,9.23,2.48.9,4.46-2.61,4.86-7,.18-1.79,7.1,5.49,7.91,5.41,3.86-.38,4.37-9.21.59-10.66,3.91-.56,9.54,10.12,10.83,10.64,4.75,1.81,10.25-10.93,12.93-13.76-1.63,3.67,1.08,14.28,4.87,15.77,6.09,2.41,10-10.93,12.52-15.65,4.34,2.38,6.12,9.74,7.76,14.82,3,.76,5-1.52,5.43-5,2.55,2.85,2.81,12.91,8.61,13.84.33,0,5.06-13.88,6-15.26a23.25,23.25,0,0,1,3.17,11.89c5.5-3.67,12,3.77,15.3,11.78,5.38-.89,4.79-19.48,4.58-25.5.7,3.44,3.45,18.66,6.6,18.39,2.92-.25,4-9,3.93-12.71,2,6.66,3.35,8.35,5.7,5.14,2-2.73,4.75-13.72,7.31-17.95-.75,5,4.86,24,6.31,24.72,4.24,2,7.11-12.53,7.89-17.22.45,5.59,1.18,19.95,5.73,20.52,2.87.37,4.36-6,6.38-9,5.46,14.48,13.2,6.74,13.56-9.51,6.45,8,5.59,22.62,9,25.61-.15-4.59,7.3-22.75,7.71-21.5,1.66,5,.36,16.83.85,22.78-.13-1.62,16.62-24.86,21.18-31.52-7.64,16-3.3,40.4,5.44,21.8.13,7.91.29,18.86,5.65,10.13,1.92,3.37,2.34,8.39,5.59,8.13,5.22-.44,8.91-21.81,9.48-31.28.29,5.52.75,16.27,3.49,18.11,2.31,1.56,4.74-2.78,7.08-2.89s4.63,3.22,7.23,2.81c.26-4.79,0-9.69.41-14.53,1.24,5.67,3,12.59,6.17,17.58,1.84-14.78,3.53-37.14,8.91-49.38-.5,1.12-.08,16.74-.13,19.09-.19,11,1.25,20.85,5.67,29.18,12.22,23.05,18.37-10.63,22.55-26-.58,10.89,2.57,26.79,7.52,33.77,1.58-2.53,2.65-6.24,3.66-9.68,3.68,12.85,5.61,14.58,11,4.62,2.66,10.67,7.58,6.55,9.89-2.14,1.92-7.29,1-16.09,2.68-23.63,5.23,5.5,10.4,21.2,12,31.48,3.7,1,6-5.31,9.05-4.17,2.82,1.07,4.51,10.34,7.56,12.26,5.53,3.53,5-8.8,9.56-10,4.12-1.09,6,9.57,11,7.19,5.27-2.46,9.13-18.68,11.92-25.79-.07,13.39-.25,22.9,9.14,24.13,2.34.3,2.8-2,5.14-.76,4.66,2.42,13.26,14.31,17.9,10.92,3.45-2.49,4.49-17.29,5.13-24,0,10,4.92,32.56,9.06,13.67,3.48,5.16,4.76,7.93,9.66,8.91,2.79.55,6.84-10,9.11-24.64,2.22,4.4,1.14,18.31,7,16.81,5.06-1.3,6.24-13.67,8.76-18,1.28,3.3,5.29,10.93,7,9.89-1.18-15.62,3.39-23.62,5.85-27.88-4,19.46,8.86,31.47,17.84,39.48,0-1.33,4-7.43,4.21-8.93,5.85,11,7.79.24,13-3.77.43,1.49-.34,7.73,3,8.85-.24-4.37,2.24-11.72,2.74-15.75,2.53,1.37,1.57,11.26,2.92,10.77,4.45-19.34,6.55-16.39,7.56-22.22,0,14.58,3.62,24.93,3.37,37.76,3.19-5,3.94-11,3.07-17.15,2.22,8.43,7.62,18.54,12.35,10.51,1.56-2.65,1.8-9.43,2.38-13,1.42,9,5.29,22.15,11.46,22.91,6.56.82,9.12-10.7,9.68-21.13.44,8,1.62,18.93,6.49,21.33,3.74,1.85,8.51-3.06,9.78-11.94,0,3.84,7,9.72,8.48,11.78,3.2,4.27,7,8.88,8,16,3.7-6.6,6.19-24.28,3-35.42,3.07,6.83,5.34,20.84,9.35,17.75,1.93-1.49,6.07-18.7,4.1-23,3.62,3.3,9.22,13.94,10.19,22.25,1.44-1.62,2.36-4.62,3.08-7.73,2.45,5.32,4.27,13.26,8.8,13.83,1.15-3.58,1.64-8.31.56-11.81,1.46,2.44,2.48,9.92,5.9,11.39.7-9.23,2.52-17,1.13-26.67,3.54,10.56,6.92,12.29,9.45,16.31,3.34,5.25,5.84,12.75,10.22,15.24s4.7-8.36,4.6-15.52c2.32,5.59,5.69,12.33,9.37,15.2.18-1.59,1.07-3,1.2-4.82,1.87.89,3.83,1.92,5.89,1.5.14-1.33.49-2.13.67-3.23,2.51,2.77,10.53,9.67,13.51,7.78,7.18-4.56,4.11-22.8,1.14-30.29,3.33,5.18,9.78,9.93,13.32,17.4,2.35,5,2.66,9.77,6.55,11.87,1.81-6.68,3.18-14.9,2.56-22.31,2.52,6.28,14.6,28.32,16.13,9.09,1.26,4.82,3.52,12.83,6.64,15,4.57,3.14,6.12-7.78,6.53-7.62,4.2,1.64,4.75-4.15,4.43-10.33,1.81,4.93,1.82,10.6,4.8,11.61,2.14.72,2.52-3.72,4.29-3,1.07.44,2.19,4.43,3.79,9.6v13.48H-341.17Z"/><path class="cls-53" d="M269.4,468.69c-1.55-4.82-7.58-.28-8.29.76-1.64,2.39-3,7.45-4.82.25a22.92,22.92,0,0,1,.78-12.9c-1.5,1.82-6,7.28-7.49,14a22.67,22.67,0,0,1-1.74-8.94c-3.4,3.46-15.39,27.52-15.48,5.62-.8,5-3.26,8.11-4.64,8.36-2.83.52-2.83-4.91-3.86-9.4-1.08,1.76-2.72,3.84-2.56,7.41-2.63-.54-3.27-13-1-16.53-1.19.61-6.43,6.58-6.86,12.06-.68-3.34-2.55-8.45-4.17-9.29,1.6,10-1.22,12.49-3.95,5-2.05,3-1.82,6.89-4.52,4.65-1.75-1.46-3.88-6.7-3.62-11.76-1.08,6.65-2,16.82-5.79,9.76-.1,1.9-1,4.36-1.89,5-1.14.81-2.43-.59-3.27-2.35-2-4.11-2.87-13-3.59-18.73.4,7.63,1.32,15.63-2.46,20.05-3.42,4-4.28-1.94-5.92-8,1.33,9.6-4.49-2.94-5.3-3.44.79,4.49-4.88,4.89-6.15,4.2-.51-5.48-2.31-8.65-3.83-12.79-.08,3,1.45,12,.08,14.13-1.18,1.87-2.51-3.56-3.2-5.16-1.05,4.23-2.5,4.39-4.74,2.15.16,2-2.63,2.66-2.75,2.52-1.15-1.41-3.56-1.08-4.44-2.81-1.24-2.39-1.25-6.4-.79-9.83-1,1.77-3.89,7.91-4.86,9.53-2.42-7.29-3.61-.33-6.1,2.08-3.07,3-4.79-3.12-4.26-11.74-1.2,8-6.51,21-8.06,9.48-1.34,4.67-1.09,7.9-3.45,2.47-1.5-3.44-2.34-8.48-4.17-11.72,0,2.58.56,9.34-.71,10.81s-2.81-3.4-2.75-6.24c-1.1,4.22-2.7,9.22-4,2.24-.25,7.09-3.18,7.81-4.3,2.18-.25,4.14-1.59,5.49-2.7,2.8-1-2.41-.4-8.95-.11-12.35-1.2,7.3-3.15,16-5.81,10.12-.21-.46-2.33-3.83-1.27-12.4-2.82,4.19-2.1,9.56-6.06,5.77-1.46-1.39-2.71-4.14-3.55-6.48-.37,2-.67,6.5-1.69,7.89-1.25,1.73-3.24-1.38-3.65-1.3-1.31.27-2,2.68-3.49,2.94-1.11.18-3.72.79-4.63-.4s-1.09-5.73-1.33-7.79c-.06,2.19-.65,8.61-2.49,8.22-.77-.17-1.41-2.66-2.72-2.88.38.18.07,3.8-.84,3.78-2.38-.05-4.26-4.71-5-9.62-1.28,6.44-2.26,17.5-4.94,21.31-1.59-3.67-1.58-11.71-2.21-16.39-2.12,8.37-5.06,13.34-5.17-1.08-.36,3.47-.57,4.93-1.49,6.1-.71.91-.6-11.1-.74-12.11-1.19,11.38-7.82,22.77-10.12,7.11.06,4.19.95,13.8-1.33,14.72s-5.65-9-6.28-13.72c-.4,7-.38,8.29-2.95,6.38-1.84-1.35-3.17-4.79-5-5.93-.3,1.25-4.5,14.48-4.38,14.58-1.17-1-2.07-3.47-2.38-6.19-1.78,2.18-3.19,6.94-4.47,10.59-1.44-1.57-2.11-5.62-3.14-7-.47,4.73-12.92,8.82-9.26-.62-2.84,3.56-5.84,6.71-9,3.62.06-.93,0-1.86,0-2.78,0,.58-4.54,8.36-5,8.55-2,.8-3.26-3.07-3.21-7.34-.75,4.54-2.05,10.48-4.32,6.74-1.48-2.43-1.11-7.74-1.26-11.28-1.1,1.16-4.38,12.83-6.43,11.5-2.32-1.5-2.66-20.91-4.66-12.59-2.73-2.23-3.85-11-5.83-13C-47.13,453.9-49.82,466-51,468c-1.72,3-4.65,7.69-6.56,4.56s-2.23-11-2.39-16.83c-.49,5.46-1.45,9.32-2.74,12-.81,1.66-2.31-5.68-2.41-6.62-1.51,1.77-1.79-2.91-1.87-5.7-1.61,5.85-2.84,15.81-6.62,14s-3.74-11.61-4.1-20.5c-.27,5.77-.39,14.25-2,18.86-1.81,5.35-4.77,1.34-5-6.29-.18,2.76-.54,9.1-2,9.93s-2.15-4.86-2.9-7.36c-.63,3.06-1.42,8.49-3.35,8-3.54-.9-2.08-15.29-5.26-5.53-1.77,5.43-2.06,7.22-4.61,1.73-2.07-4.47-3.82-11.63-6.19-15-.23,4,2.19,13.62-.77,15.41-1.51.89-3.17-4.68-4.21-6.69-.22,5.67,0,8.18-2.45,6.65-.68-.42-2.11-4.08-2.71-3.91-2.95.79-3.74,14.09-7.13,15.26-1.71-4.47-1.45-14.63-3-17.16,1.63,6.15-7.25,10.36-10,5.52-1.31-2.32-1.75-7.27-1.9-10.81-2.71,6-1.82,13.67-3,20.82-2.07.31-2.9-7.15-3.84-10.6-.3,4.93-2.43,6.88-3.54,2.06-1.7,9.13-4.71-.19-4.63-6.61-2.22,17.59-7.37-3-8.15-11.36.14,8.88-1.59,14-3.32,17.5-.58-2.9-1.6-5.27-1.65-8.54-.79,1.23-2.64,14.2-2.88,14.16-1.16-.28-1.94-3.19-2.66-5.05-4,8.3-7-2.2-8.19-12.38-.36,4.56-5.43,7.05-3,13.84-2-2.92-3.22-6.47-4.9-8.84,0,0-.33,5.49-.34,6-1.22.59-2.19-1.71-2.39-4.58-.08-1.17-3.47,3.59-3.87,3.54-1.89-.26-2.13-6-.29-7-1.91-.37-4.67,6.61-5.3,7-2.32,1.19-5-7.14-6.33-9,.8,2.4-.53,9.33-2.38,10.3-3,1.58-4.9-7.13-6.13-10.22-2.13,1.56-3,6.36-3.8,9.68-1.5.5-2.46-1-2.66-3.26-1.25,1.86-1.38,8.43-4.22,9-.16,0-2.47-9.07-3-10a19.06,19.06,0,0,0-1.55,7.77c-2.7-2.4-5.9,2.46-7.5,7.69-2.63-.58-2.34-12.72-2.24-16.66-.34,2.25-1.69,12.19-3.23,12s-2-5.84-1.93-8.29c-1,4.34-1.64,5.45-2.79,3.35-1-1.78-2.32-9-3.58-11.72.37,3.29-2.38,15.71-3.09,16.14-2.07,1.28-3.48-8.18-3.86-11.25-.22,3.66-.57,13-2.8,13.41-1.41.24-2.14-3.95-3.13-5.85-2.67,9.46-6.46,4.41-6.63-6.21-3.16,5.24-2.75,14.77-4.41,16.73.07-3-3.57-14.86-3.77-14-.81,3.24-.18,11-.42,14.87.07-1.05-8.14-16.23-10.37-20.58,3.74,10.44,1.62,26.38-2.66,14.24-.07,5.16-.14,12.31-2.77,6.61-.94,2.2-1.15,5.48-2.74,5.31-2.55-.29-4.36-14.24-4.64-20.43-.14,3.61-.37,10.63-1.71,11.83-1.13,1-2.32-1.82-3.46-1.89s-2.27,2.1-3.54,1.84c-.13-3.13,0-6.33-.21-9.49-.6,3.7-1.47,8.22-3,11.48-.91-9.66-1.73-24.26-4.37-32.25.25.73,0,10.93.07,12.47.09,7.22-.62,13.61-2.78,19.05-6,15.06-9-6.94-11-17,.28,7.11-1.26,17.49-3.68,22A33.2,33.2,0,0,1-341,479c-1.81,8.4-2.75,9.52-5.41,3-1.3,7-3.71,4.28-4.84-1.4-.94-4.76-.49-10.51-1.31-15.43-2.56,3.59-5.1,13.85-5.9,20.56-1.81.65-3-3.47-4.43-2.72s-2.21,6.75-3.7,8c-2.71,2.31-2.46-5.75-4.68-6.54-2-.71-2.94,6.25-5.41,4.7s-4.47-12.21-5.83-16.85c0,8.75.12,15-4.48,15.76-1.15.19-1.37-1.29-2.52-.49-2.28,1.58-6.49,9.34-8.76,7.12-1.69-1.62-2.2-11.28-2.51-15.63,0,6.49-2.41,21.26-4.44,8.92-1.7,3.37-2.33,5.18-4.73,5.82-1.36.36-3.34-6.52-4.46-16.09-1.09,2.87-.55,12-3.4,11-2.49-.85-3.06-8.93-4.3-11.76-.62,2.15-2.59,7.13-3.4,6.45.58-10.2-1.66-15.42-2.87-18.21,1.95,12.71-4.33,20.56-8.73,25.79,0-.87-2-4.85-2.06-5.83-2.87,7.17-3.81.15-6.35-2.47-.21,1,.17,5-1.47,5.79.12-2.86-1.1-7.66-1.34-10.29-1.24.9-.77,7.35-1.43,7-2.18-12.64-3.21-10.71-3.7-14.52,0,9.52-1.78,16.28-1.66,24.66a21,21,0,0,1-1.5-11.19c-1.08,5.5-3.73,12.1-6.05,6.86-.76-1.73-.87-6.16-1.16-8.49-.7,5.87-2.59,14.47-5.61,15-3.21.53-4.47-7-4.74-13.8-.22,5.24-.79,12.36-3.18,13.93-1.83,1.2-4.17-2-4.79-7.8,0,2.51-3.4,6.35-4.15,7.69-1.56,2.79-3.41,5.8-3.93,10.46-1.81-4.32-3-15.86-1.48-23.13-1.5,4.46-2.61,13.6-4.57,11.59-1-1-3-12.21-2-15-1.77,2.15-4.52,9.1-5,14.53a15,15,0,0,1-1.51-5c-1.2,3.48-2.09,8.66-4.31,9a18.49,18.49,0,0,1-.27-7.72c-.71,1.6-1.22,6.48-2.89,7.44-.34-6-1.23-11.09-.55-17.42-1.73,6.9-3.39,8-4.63,10.65-1.63,3.43-2.86,8.33-5,10s-2.3-5.46-2.25-10.14c-1.14,3.65-2.79,8-4.59,9.92-.09-1-.52-2-.59-3.14-.92.58-1.88,1.25-2.88,1-.07-.87-.25-1.39-.33-2.11-1.23,1.81-5.16,6.31-6.62,5.08-3.51-3-2-14.89-.55-19.78-1.63,3.38-4.79,6.48-6.52,11.36-1.16,3.24-1.31,6.38-3.21,7.75a58.31,58.31,0,0,1-1.26-14.57c-1.23,4.11-7.14,18.5-7.89,5.94-.62,3.15-1.73,8.38-3.26,9.78-2.24,2.05-3-5.08-3.19-5-2.06,1.07-2.33-2.71-2.17-6.74-.89,3.21-.89,6.92-2.35,7.58-1,.46-1.24-2.43-2.1-1.94-.53.29-1.07,2.9-1.86,6.27V513c-.22-.2,842.49-3.29,843.45-2.57Z"/><path class="cls-54" d="M263.75,467.38c1.45-4.82,7.07-.28,7.74.76,1.53,2.39,2.79,7.45,4.5.25a24.45,24.45,0,0,0-.73-12.9c1.39,1.82,5.65,7.27,7,14a24.33,24.33,0,0,0,1.62-8.94c3.18,3.46,14.36,27.52,14.44,5.62.75,5,3.05,8.11,4.33,8.36,2.64.52,2.64-4.91,3.61-9.4,1,1.76,2.53,3.84,2.38,7.41,2.46-.54,3.05-13,.93-16.53,1.11.61,6,6.58,6.4,12.05.63-3.33,2.38-8.44,3.89-9.28-1.49,10,1.14,12.49,3.69,5,1.91,3,1.7,6.89,4.22,4.65,1.63-1.46,3.62-6.7,3.37-11.76,1,6.65,1.89,16.82,5.41,9.76.09,1.9.88,4.36,1.76,5,1.07.81,2.27-.59,3.05-2.35,1.83-4.11,2.68-13,3.35-18.73-.37,7.63-1.23,15.63,2.29,20.05,3.19,4,4-1.94,5.53-8-1.24,9.6,4.19-2.95,5-3.44-.74,4.49,4.55,4.89,5.73,4.2.48-5.48,2.16-8.65,3.58-12.79.07,3-1.35,12-.08,14.13,1.1,1.86,2.35-3.56,3-5.16,1,4.23,2.33,4.39,4.43,2.15-.15,2,2.45,2.66,2.56,2.52,1.08-1.41,3.33-1.08,4.15-2.81,1.15-2.39,1.16-6.4.73-9.83,1,1.77,3.63,7.91,4.53,9.53,2.26-7.29,3.38-.33,5.7,2.08,2.86,3,4.47-3.12,4-11.74,1.12,8,6.08,21,7.52,9.48,1.25,4.67,1,7.9,3.23,2.47,1.4-3.44,2.18-8.48,3.89-11.72,0,2.58-.53,9.34.66,10.81s2.62-3.41,2.57-6.24c1,4.22,2.52,9.22,3.76,2.24.23,7.09,3,7.81,4,2.18.24,4.14,1.49,5.49,2.53,2.8.92-2.42.37-8.95.1-12.35,1.12,7.3,2.94,16,5.42,10.12.2-.46,2.17-3.83,1.19-12.4,2.63,4.19,1.95,9.56,5.65,5.77,1.36-1.39,2.53-4.14,3.32-6.48.33,2,.62,6.5,1.57,7.89,1.17,1.73,3-1.38,3.41-1.3,1.22.27,1.82,2.68,3.25,2.94,1,.18,3.47.79,4.32-.4s1-5.73,1.24-7.79c.06,2.19.61,8.61,2.33,8.21.72-.16,1.31-2.65,2.53-2.87-.35.18-.06,3.8.79,3.78,2.22-.05,4-4.71,4.68-9.63,1.19,6.45,2.11,17.5,4.61,21.32,1.49-3.67,1.48-11.71,2.06-16.39,2,8.37,4.73,13.34,4.83-1.08.34,3.47.53,4.93,1.39,6.1.66.91.56-11.1.69-12.11,1.11,11.38,7.3,22.77,9.44,7.11-.05,4.19-.89,13.8,1.24,14.72s5.27-9,5.86-13.72c.38,7,.36,8.29,2.76,6.38,1.71-1.36,3-4.79,4.7-5.93.28,1.24,4.2,14.48,4.09,14.58,1.09-1,1.93-3.47,2.22-6.19,1.66,2.18,3,6.94,4.17,10.59,1.35-1.57,2-5.62,2.93-7,.44,4.73,12.06,8.82,8.64-.62,2.65,3.56,5.45,6.71,8.44,3.62-.06-.93,0-1.86,0-2.78,0,.58,4.24,8.36,4.68,8.55,1.85.8,3-3.07,3-7.34.7,4.54,1.91,10.48,4,6.74,1.38-2.43,1-7.74,1.18-11.28,1,1.16,4.08,12.83,6,11.5,2.16-1.5,2.47-20.91,4.35-12.59,2.54-2.23,3.58-11,5.43-13-1.33,2.74,1.18,14.83,2.25,16.85,1.6,3,4.34,7.69,6.12,4.56s2.08-11,2.24-16.83c.46,5.46,1.35,9.32,2.55,12,.76,1.66,2.15-5.68,2.25-6.62,1.41,1.77,1.67-2.91,1.74-5.7,1.5,5.84,2.66,15.81,6.18,14s3.49-11.62,3.83-20.5c.25,5.77.37,14.25,1.82,18.86,1.69,5.35,4.45,1.34,4.62-6.29.17,2.76.5,9.09,1.89,9.93s2-4.86,2.71-7.36c.58,3.05,1.32,8.48,3.13,8,3.29-.9,1.94-15.29,4.9-5.53,1.66,5.43,1.92,7.22,4.3,1.73,1.94-4.47,3.57-11.63,5.78-15,.22,4-2,13.62.72,15.41,1.4.89,2.95-4.68,3.92-6.69.21,5.66,0,8.18,2.29,6.65.64-.43,2-4.08,2.53-3.91,2.75.79,3.5,14.09,6.66,15.26,1.59-4.47,1.35-14.63,2.75-17.16-1.52,6.15,6.77,10.36,9.32,5.52,1.23-2.32,1.63-7.27,1.77-10.82,2.53,6,1.7,13.68,2.76,20.83,1.93.31,2.71-7.15,3.58-10.6.28,4.93,2.27,6.88,3.3,2.06,1.59,9.13,4.4-.19,4.33-6.61,2.07,17.59,6.87-3,7.6-11.36-.14,8.87,1.48,14,3.1,17.5.53-2.9,1.49-5.27,1.54-8.54.73,1.23,2.46,14.2,2.68,14.16,1.09-.28,1.81-3.19,2.48-5.05,3.77,8.3,6.5-2.2,7.65-12.39.33,4.57,5.06,7.05,2.77,13.85,1.87-2.92,3-6.47,4.58-8.84,0,0,.3,5.49.32,6,1.13.59,2-1.71,2.22-4.58.09-1.17,3.25,3.59,3.62,3.54,1.76-.26,2-6,.27-7,1.78-.37,4.36,6.61,4.94,7,2.17,1.19,4.68-7.14,5.91-9-.74,2.4.5,9.33,2.22,10.3,2.79,1.58,4.57-7.13,5.73-10.22,2,1.55,2.79,6.36,3.54,9.68,1.4.5,2.29-1,2.48-3.26,1.17,1.86,1.29,8.43,3.94,9,.15,0,2.31-9.06,2.75-10a20,20,0,0,1,1.45,7.77c2.52-2.4,5.5,2.45,7,7.69,2.46-.58,2.19-12.73,2.1-16.66.32,2.25,1.58,12.19,3,12s1.82-5.84,1.8-8.29c.93,4.34,1.53,5.45,2.6,3.35.92-1.78,2.17-9,3.34-11.72-.34,3.29,2.22,15.71,2.89,16.14,1.93,1.28,3.24-8.18,3.6-11.25.21,3.66.54,13,2.62,13.41,1.31.24,2-3.95,2.91-5.85,2.5,9.46,6,4.41,6.2-6.21,2.94,5.24,2.55,14.77,4.1,16.73-.06-3,3.34-14.86,3.53-14,.75,3.24.16,11,.38,14.87-.06-1.06,7.6-16.23,9.68-20.58-3.49,10.44-1.51,26.38,2.49,14.24.06,5.16.13,12.31,2.58,6.61.88,2.2,1.07,5.48,2.55,5.31,2.39-.29,4.07-14.24,4.33-20.43.14,3.61.35,10.63,1.6,11.83,1.05,1,2.17-1.82,3.23-1.89s2.12,2.1,3.31,1.84c.11-3.13,0-6.33.19-9.49.56,3.7,1.38,8.22,2.81,11.48.85-9.66,1.62-24.26,4.07-32.25-.22.73,0,10.93,0,12.47-.09,7.22.57,13.61,2.59,19.05,5.58,15.05,8.39-6.94,10.3-17-.27,7.11,1.17,17.49,3.43,22a35.12,35.12,0,0,0,1.68-6.32c1.68,8.4,2.56,9.52,5,3,1.22,7,3.46,4.28,4.52-1.4.88-4.76.45-10.51,1.22-15.43,2.39,3.59,4.76,13.84,5.5,20.56,1.7.65,2.76-3.47,4.14-2.72s2.06,6.75,3.45,8c2.53,2.31,2.29-5.75,4.37-6.54,1.88-.71,2.74,6.25,5,4.7s4.17-12.21,5.45-16.85c0,8.75-.11,15,4.18,15.76,1.07.19,1.28-1.29,2.35-.49,2.13,1.58,6.06,9.34,8.17,7.12,1.58-1.62,2.06-11.28,2.35-15.63,0,6.49,2.25,21.26,4.14,8.92,1.59,3.37,2.17,5.18,4.41,5.82,1.28.36,3.12-6.52,4.16-16.09,1,2.87.52,12,3.18,11,2.32-.85,2.86-8.93,4-11.77.58,2.16,2.41,7.14,3.18,6.46-.55-10.2,1.55-15.42,2.67-18.21-1.82,12.71,4,20.56,8.15,25.79,0-.87,1.84-4.85,1.92-5.83,2.68,7.17,3.56.15,5.92-2.47.2,1-.15,5,1.38,5.79-.11-2.86,1-7.66,1.25-10.29,1.15.9.72,7.35,1.33,7,2-12.64,3-10.71,3.46-14.52,0,9.52,1.65,16.28,1.54,24.66a22.27,22.27,0,0,0,1.4-11.2c1,5.51,3.48,12.11,5.64,6.87.71-1.73.82-6.16,1.09-8.49.65,5.87,2.42,14.47,5.24,15,3,.53,4.17-7,4.42-13.8.2,5.24.74,12.36,3,13.92,1.71,1.21,3.89-2,4.47-7.79,0,2.51,3.18,6.35,3.88,7.69,1.46,2.79,3.18,5.8,3.66,10.46,1.69-4.32,2.83-15.86,1.38-23.13,1.4,4.46,2.44,13.6,4.27,11.59.88-1,2.78-12.21,1.88-15,1.65,2.15,4.21,9.1,4.65,14.53a15.71,15.71,0,0,0,1.41-5.05c1.12,3.47,2,8.66,4,9a19.87,19.87,0,0,0,.26-7.71c.66,1.6,1.13,6.48,2.69,7.44.32-6,1.15-11.09.52-17.42,1.61,6.9,3.16,8,4.32,10.65,1.52,3.43,2.66,8.33,4.66,9.95s2.15-5.45,2.1-10.13c1.07,3.65,2.61,8,4.29,9.92.08-1,.48-2,.54-3.14.86.58,1.76,1.25,2.7,1,.06-.87.22-1.39.3-2.11,1.15,1.81,4.81,6.31,6.17,5.08,3.29-3,1.88-14.89.52-19.78,1.53,3.38,4.47,6.48,6.09,11.36,1.07,3.24,1.21,6.38,3,7.75a61.86,61.86,0,0,0,1.17-14.57c1.16,4.11,6.67,18.5,7.37,5.94.58,3.15,1.61,8.38,3,9.78,2.09,2.05,2.79-5.09,3-5,1.92,1.07,2.17-2.71,2-6.74.83,3.21.84,6.91,2.2,7.58,1,.46,1.15-2.43,2-1.94.49.29,1,2.9,1.73,6.27v7.55H264.07Z"/><path class="cls-55" d="M1644.18,466.78c-1.6-4.82-7.82-.27-8.55.76-1.7,2.4-3.09,7.45-5,.25a22.31,22.31,0,0,1,.81-12.9c-1.54,1.82-6.25,7.28-7.73,14a21.94,21.94,0,0,1-1.79-8.94c-3.52,3.47-15.88,27.53-16,5.62-.83,5-3.37,8.11-4.79,8.36-2.92.52-2.92-4.9-4-9.4-1.12,1.76-2.81,3.84-2.64,7.42-2.72-.55-3.38-13-1-16.53-1.23.61-6.64,6.57-7.07,12.05-.71-3.34-2.64-8.45-4.31-9.28,1.65,10-1.26,12.49-4.08,5-2.11,3-1.88,6.89-4.66,4.65-1.81-1.46-4-6.69-3.73-11.76-1.12,6.66-2.09,16.82-6,9.77-.1,1.89-1,4.35-2,5-1.17.8-2.5-.6-3.37-2.36-2-4.11-3-13-3.7-18.73.41,7.63,1.36,15.63-2.54,20-3.52,4-4.42-1.93-6.11-8,1.37,9.59-4.63-2.95-5.47-3.45.81,4.49-5,4.89-6.34,4.2-.53-5.48-2.39-8.65-4-12.78-.09,3,1.49,12,.08,14.12-1.22,1.87-2.6-3.56-3.31-5.16-1.08,4.23-2.58,4.39-4.89,2.16.16,2-2.72,2.65-2.83,2.51-1.2-1.4-3.69-1.08-4.59-2.8-1.28-2.4-1.29-6.4-.81-9.84-1.08,1.77-4,7.92-5,9.53-2.49-7.28-3.73-.33-6.3,2.08-3.17,3-4.94-3.12-4.39-11.74-1.24,8-6.72,21-8.32,9.48-1.38,4.68-1.12,7.9-3.56,2.47-1.55-3.44-2.41-8.47-4.31-11.72,0,2.59.59,9.34-.73,10.81s-2.9-3.4-2.84-6.24c-1.13,4.22-2.78,9.22-4.16,2.24-.26,7.09-3.28,7.81-4.44,2.18-.26,4.14-1.64,5.49-2.79,2.8-1-2.41-.41-9-.11-12.35-1.24,7.3-3.26,16.05-6,10.12-.21-.46-2.4-3.83-1.31-12.39-2.91,4.18-2.16,9.56-6.25,5.76-1.5-1.39-2.8-4.14-3.67-6.48-.37,2-.69,6.5-1.74,7.89-1.29,1.73-3.35-1.37-3.77-1.3-1.35.27-2,2.69-3.6,2.95-1.14.18-3.84.79-4.78-.4s-1.12-5.74-1.36-7.8c-.07,2.19-.68,8.62-2.58,8.22-.79-.17-1.45-2.66-2.8-2.88.39.18.07,3.8-.87,3.78-2.46,0-4.4-4.71-5.18-9.62-1.32,6.45-2.33,17.5-5.1,21.31-1.64-3.67-1.63-11.71-2.28-16.39-2.19,8.37-5.23,13.34-5.34-1.08-.37,3.47-.59,4.93-1.53,6.1-.73.91-.63-11.09-.77-12.11-1.23,11.38-8.07,22.77-10.44,7.12.06,4.18,1,13.79-1.37,14.71s-5.83-9-6.48-13.72c-.41,7-.4,8.29-3,6.39-1.89-1.36-3.27-4.8-5.2-5.93-.31,1.24-4.65,14.47-4.52,14.57-1.2-1-2.14-3.46-2.45-6.19-1.84,2.18-3.3,6.94-4.62,10.6-1.49-1.58-2.17-5.63-3.24-7-.48,4.72-13.33,8.82-9.56-.63-2.93,3.57-6,6.71-9.33,3.63.06-.94,0-1.87,0-2.79,0,.58-4.69,8.37-5.18,8.56-2,.79-3.37-3.07-3.32-7.35-.77,4.55-2.12,10.49-4.46,6.75-1.52-2.43-1.14-7.75-1.3-11.28-1.14,1.15-4.51,12.82-6.63,11.5-2.4-1.51-2.74-20.92-4.82-12.6-2.81-2.22-4-11-6-13.05,1.47,2.74-1.29,14.84-2.48,16.85-1.78,3-4.8,7.69-6.77,4.57s-2.3-11-2.47-16.83c-.51,5.45-1.5,9.32-2.83,12-.84,1.66-2.38-5.68-2.49-6.62-1.55,1.78-1.84-2.9-1.92-5.7-1.66,5.85-2.94,15.81-6.84,14s-3.86-11.61-4.23-20.5c-.28,5.78-.4,14.25-2,18.86-1.87,5.35-4.93,1.34-5.11-6.29-.19,2.76-.56,9.1-2.09,9.93s-2.22-4.86-3-7.35c-.64,3.05-1.46,8.48-3.46,8-3.64-.89-2.14-15.29-5.42-5.53-1.83,5.43-2.12,7.22-4.76,1.73-2.14-4.46-3.94-11.63-6.38-15-.25,4,2.26,13.62-.81,15.41-1.55.89-3.26-4.68-4.33-6.69-.23,5.67,0,8.18-2.53,6.65-.71-.42-2.19-4.07-2.8-3.91-3,.79-3.87,14.09-7.36,15.26-1.77-4.47-1.5-14.62-3-17.16,1.68,6.15-7.48,10.36-10.3,5.52-1.36-2.32-1.81-7.26-2-10.81-2.81,6-1.89,13.67-3.05,20.83-2.14.3-3-7.16-4-10.6-.32,4.93-2.51,6.87-3.66,2.05-1.75,9.13-4.85-.18-4.78-6.6-2.29,17.58-7.59-3-8.41-11.36.15,8.87-1.63,13.95-3.42,17.49-.6-2.9-1.65-5.27-1.7-8.54-.81,1.24-2.73,14.2-3,14.16-1.2-.28-2-3.19-2.75-5-4.16,8.3-7.19-2.21-8.46-12.39-.36,4.57-5.59,7-3.06,13.85-2.06-2.93-3.33-6.48-5.07-8.84,0,0-.33,5.48-.35,6-1.25.59-2.25-1.71-2.46-4.58-.09-1.17-3.58,3.59-4,3.54-2-.25-2.21-6-.3-7-2-.37-4.82,6.61-5.47,6.95-2.4,1.18-5.18-7.14-6.53-9,.82,2.39-.55,9.32-2.46,10.3-3.08,1.57-5.06-7.14-6.33-10.22-2.2,1.55-3.09,6.36-3.93,9.67-1.53.5-2.53-1-2.73-3.26-1.29,1.86-1.43,8.43-4.36,9-.17,0-2.55-9.07-3-10a18.55,18.55,0,0,0-1.6,7.77c-2.78-2.4-6.08,2.46-7.73,7.69-2.72-.58-2.42-12.72-2.32-16.65-.35,2.24-1.74,12.18-3.33,12s-2-5.84-2-8.3c-1,4.34-1.69,5.45-2.88,3.36-1-1.79-2.4-9-3.69-11.73.38,3.3-2.46,15.71-3.19,16.14-2.14,1.28-3.59-8.18-4-11.24-.23,3.65-.6,13-2.9,13.4-1.45.24-2.2-4-3.22-5.84-2.76,9.45-6.67,4.4-6.85-6.22-3.26,5.24-2.83,14.77-4.55,16.73.08-3-3.69-14.86-3.89-14-.84,3.24-.19,11-.43,14.87.06-1.05-8.4-16.23-10.7-20.58,3.86,10.44,1.66,26.38-2.75,14.24-.07,5.16-.15,12.31-2.86,6.61-1,2.2-1.18,5.48-2.82,5.31-2.64-.29-4.5-14.24-4.79-20.42-.15,3.6-.38,10.62-1.77,11.82-1.16,1-2.39-1.81-3.57-1.89s-2.34,2.1-3.66,1.84c-.13-3.13,0-6.33-.21-9.49-.62,3.71-1.52,8.22-3.11,11.48-.93-9.65-1.79-24.25-4.5-32.25.25.73,0,10.93.06,12.47.1,7.22-.63,13.62-2.86,19.06-6.18,15.05-9.28-6.95-11.4-17,.3,7.12-1.29,17.5-3.8,22.06a33.47,33.47,0,0,1-1.85-6.32c-1.86,8.39-2.83,9.51-5.57,3-1.35,7-3.83,4.28-5-1.39-1-4.76-.5-10.51-1.36-15.43-2.64,3.58-5.25,13.84-6.08,20.55-1.87.66-3-3.47-4.57-2.72s-2.28,6.75-3.82,8c-2.8,2.31-2.54-5.74-4.83-6.54-2.09-.71-3,6.26-5.58,4.7s-4.61-12.2-6-16.84c0,8.74.12,15-4.62,15.75-1.19.2-1.42-1.28-2.6-.49-2.36,1.58-6.7,9.34-9.05,7.13-1.74-1.63-2.27-11.29-2.59-15.64,0,6.49-2.48,21.26-4.57,8.92-1.76,3.38-2.41,5.18-4.89,5.82-1.4.36-3.45-6.52-4.6-16.09-1.12,2.88-.57,12-3.51,11-2.56-.85-3.16-8.93-4.43-11.76-.65,2.16-2.68,7.13-3.52,6.46.6-10.2-1.71-15.43-2.95-18.21,2,12.71-4.48,20.55-9,25.78,0-.87-2-4.85-2.12-5.83-3,7.17-3.94.16-6.55-2.46-.22,1,.17,5.05-1.53,5.78.13-2.86-1.12-7.65-1.38-10.29-1.28.9-.79,7.36-1.47,7-2.26-12.64-3.32-10.71-3.82-14.51,0,9.52-1.84,16.27-1.71,24.66A20.4,20.4,0,0,1,895,482.3c-1.12,5.5-3.85,12.1-6.24,6.86-.79-1.73-.91-6.16-1.2-8.49-.72,5.88-2.68,14.47-5.79,15-3.32.54-4.61-7-4.89-13.8-.23,5.25-.82,12.36-3.28,13.93-1.89,1.2-4.3-2-4.94-7.8,0,2.51-3.51,6.35-4.29,7.69-1.61,2.79-3.52,5.8-4.05,10.46-1.87-4.31-3.13-15.86-1.53-23.13-1.55,4.46-2.69,13.61-4.72,11.59-1-1-3.07-12.21-2.07-15-1.83,2.16-4.66,9.11-5.15,14.54a14.76,14.76,0,0,1-1.56-5.06c-1.24,3.48-2.16,8.66-4.45,9a18.17,18.17,0,0,1-.28-7.72c-.73,1.6-1.25,6.48-3,7.44-.35-6-1.27-11.08-.57-17.42-1.79,6.9-3.49,8-4.78,10.66-1.68,3.42-2.94,8.32-5.16,9.95s-2.37-5.46-2.32-10.14c-1.18,3.66-2.88,8.05-4.74,9.93-.09-1-.54-2-.6-3.15-1,.58-1.94,1.26-3,1-.07-.87-.25-1.39-.34-2.11-1.27,1.81-5.32,6.32-6.82,5.09-3.63-3-2.08-14.9-.58-19.79-1.68,3.39-4.94,6.49-6.73,11.37-1.19,3.23-1.34,6.38-3.31,7.75a56.12,56.12,0,0,1-1.29-14.58c-1.28,4.11-7.38,18.5-8.15,5.94-.64,3.15-1.78,8.38-3.36,9.78-2.31,2.05-3.09-5.08-3.3-5-2.12,1.07-2.4-2.71-2.24-6.74-.91,3.22-.92,6.92-2.42,7.58-1.09.47-1.28-2.43-2.17-1.94-.54.29-1.1,2.9-1.92,6.27l-.33,8.15,870.76.66Z"/><rect class="cls-56" x="-58" y="-26.1" width="1723.76" height="536.53"/></g><g class="cls-57"><path class="cls-58" d="M-127.54-1564.08c-89.95,25.09,234.71-70.43,221.67,1.56C79.61-1482.39,80-1005.84,78.31-826.66c-1.72,187.21-2.57,654.58-3.17,764.51s40.11,213.62,15.58,227.33C46.76,189.75-229.75,401-229.75,385.5c-12-13.13-235.68,92-206.29,50.18a475.83,475.83,0,0,0,54-101.55,140.15,140.15,0,0,0,9-47.8c0-5.37-21.59,5.38-41.38-1.78s-37.77-50.19-80.05,1.78-55.77,53.77-84.55,52-40.48-64.52-10.8-71.69,52.17-46.6,58.47-60.93c-8.09-17.92-59.37-23.3-90-5.38s-63,23.31-63,23.31c18-32.27,36.88-73.49,68.36-80.66s42.28-21.51,84.56-17.92,68,274.34,94.95,199.08S-369,143.7-364.18-90.47s-4.42-575.18-6-669.09c-1.3-78.09-37.47-187.87-80.85-272.32-32.56-63.4-68.55-111.7-100.44-126-38.83-17.48-95.83-73.4-156.21-98.57-55.25-23-113.34-15.89-162.62-21.59-33.58-52.57,7.2-64.52,7.2-64.52s60-14.33,119.93,2.39,56.37,31.06,110.34,28.68,115.54,84.31,147.93,124.93,138.52,127.84,154.3,185.71c0-234.18,12-501.81,4.8-535.27s28.64,41.7-3.74-13.25"/><g class="cls-15"><path class="cls-16" d="M-161.41-1214.49c12.53,13,21.45,29.5,30,45.26,2.35,4.64,5,9.93,7.29,14.62,2,4.36,5.77,12.9,7.81,17.38,1.74,4.2,5.42,13.24,7.23,17.62,5.14,13.26,10.22,27.39,14.7,40.95,2,5.62,4.82,14.91,6.58,20.74,8.44,27.12,16,56.4,22.48,84,16.17,69.23,27.35,143.49,35.87,214.16,6.91,56.06,13.28,116.36,18.55,172.65C12.54-342.36,15.36-95.29,6.49,150.26l-.7,0C5.53-80.85,4-312.87-10.81-543.57c-4.2-67.5-10.93-138-19.9-205.07-9.47-66.65-21.67-137.06-36-202.72-6.15-29.21-13.94-60.61-21.73-89.42-2.46-8.65-5.81-19.93-8.31-28.58-2.9-8.85-6.06-19.52-9.11-28.32-5.78-16.8-12.11-34.23-19.14-50.57s-14.9-33-24.25-48.26c-3.87-6.06-7.8-12.18-12.63-17.47l.48-.51Z"/></g><g class="cls-15"><path class="cls-16" d="M-141.07-1446.78c14.86,40.41,26.05,82.23,36.73,123.92,9.09,36.48,17.74,75.17,25.18,112.13,15.06,74.45,27.77,151.34,37.81,226.65C-27.23-876.41-16.37-764-6.7-655.7,8.89-484.76,18.89-311.41,23-139.76c4.48,172,3.21,344.85-2.45,516.79l-.7,0c1-191.39-.33-382.69-5.72-574C7.82-397.21-.64-599.2-22.73-798.35c-3-26.42-6.86-59.13-10.41-85.47-20.24-151.52-43.47-303.18-78.39-452.06-5.36-22.74-11.47-47-17.74-69.48-2.56-9.21-5.3-18.37-8-27.53-1.43-4.56-2.85-9.13-4.41-13.65l.66-.24Z"/></g><path class="cls-59" d="M-73-1770.31c66,25.09-172.23-70.42-162.66,1.56,10.65,80.14,10.4,556.68,11.61,735.87,1.27,187.2,1.89,654.57,2.33,764.5S-251.13-54.76-233.13-41C-200.87-16.48,2,194.81,2,179.27c8.8-13.13,172.93,92,151.37,50.19S120,149.41,113.81,127.9a186.33,186.33,0,0,1-6.6-47.79c0-5.37,15.84,5.38,30.36-1.79s27.72-50.18,58.74,1.79,40.93,53.76,62.05,52,29.7-64.53,7.92-71.69S228,13.8,223.38-.54c5.94-17.92,43.56-23.3,66-5.38a127.73,127.73,0,0,0,46.21,23.31c-13.21-32.27-27.06-73.49-50.17-80.65s-31-21.51-62-17.93S173.5,193.15,153.7,117.89s-49.5-180.42-53-414.59,3.24-575.18,4.4-669.09c1-78.09,27.5-187.87,59.33-272.32,23.89-63.4,50.3-111.7,73.7-126.05,28.49-17.47,70.32-73.4,114.63-98.57,40.54-23,83.17-15.88,119.33-21.58,24.64-52.57-5.29-64.53-5.29-64.53s-44-14.33-88,2.4-41.36,31.06-81,28.67S213-1433.46,189.26-1392.84,87.62-1265,76-1207.13c0-234.18-8.8-501.81-3.53-535.26s-21,41.7,2.75-13.25"/><g class="cls-18"><path class="cls-60" d="M136,118c-19.8-75.27-49.5-180.41-53-414.59s3.24-575.18,4.4-669.08c1-78.1,27.5-187.88,59.33-272.32,23.89-63.41,50.3-111.71,73.7-126.06,28.5-17.47,70.32-73.4,114.63-98.57,40.54-23,83.17-15.88,119.33-21.58,24.64-52.57-5.28-64.53-5.28-64.53a143,143,0,0,0-32.64-5.45,150.73,150.73,0,0,1,50.27,5.45s29.93,12,5.29,64.53c-36.16,5.7-78.79-1.44-119.33,21.58-44.31,25.17-86.14,81.1-114.63,98.57-23.4,14.35-49.81,62.65-73.71,126.06C132.51-1153.59,106-1043.81,105-965.71c-1.16,93.9-7.92,434.9-4.4,669.08s33.22,339.32,53,414.59c14.57,55.37,20.92-200.77,44.49-198.33C169-78,154.21,187.18,136,118Z"/></g><g class="cls-24"><path class="cls-16" d="M96.7,153.29c-10.27-1.94-19-8.24-26.87-14.78l-1.19-1.12-4.75-4.47c-1.5-1.56-3-3.18-4.42-4.78-3-3.12-6.56-7.94-9.27-11.34-1.56-2.27-4.87-7-6.47-9.37-2.31-3.67-5.3-8.76-7.57-12.52-1.29-2.43-4-7.52-5.29-10-2-3.44-6.47-13.8-8.27-17.62A435.33,435.33,0,0,1,5.17,18.47c-3.54-11.54-7-25.8-9.7-37.55-14-67.43-20.14-136-26.22-204.44-10.82-136.61-6.37-275.42,6.59-411.7l.69.05c-.19,8.58-.46,17.16-.74,25.74-.79,24-1.91,53.24-2.45,77.16-3.2,114.33-5.25,232.8,1.88,347,.8,9.31,1.91,22.78,2.77,32,1.57,14.92,3.35,29.83,5.56,44.66,1.26,7.86,3.37,20.72,4.71,28.54,2.25,10.89,4.56,23.8,7.06,34.61C5.72-.09,17.58,46.5,38.42,88.25l1.39,2.87.71,1.43.77,1.39c2.85,5.14,6.37,11.58,9.68,16.47l1.7,2.69.85,1.35c.29.44.61.86.92,1.29l3.74,5.15c2.39,3.4,5.35,6.67,8,9.88l4.39,4.59,1.1,1.15c2.61,2.36,5.59,5.15,8.44,7.23,5,3.79,10.6,7.25,16.69,8.85l-.09.7Z"/></g><g class="cls-25"><path class="cls-16" d="M30.53-622.74l0-.37a2,2,0,0,1,0-.25c1.42-.26.46.14.77.1.06.25.1.49.14.73l.23,1.43c.27,1.62,1,6.84,1.18,8.58,8.24,72.65,8,146.2,1.68,219A1071.92,1071.92,0,0,1,17.34-279.39c-2.91,14.84-6.55,30.27-9.75,45.06a385.61,385.61,0,0,0-6.52,45.49C-5.33-111.65,5.84-12.21,47.51,54.27,54,64,69.35,84.6,81.75,75.71l.45.53c-9.91,8.89-23.66-3.16-30.63-10.53C24.27,35.16,9-11,1.09-50.65A420.37,420.37,0,0,1-4.68-166.19c2.94-38.56,12.23-75.93,19.2-113.74,11.44-68,16.77-137,18.85-205.95,1-45,.72-90.17-2.6-135.12l-.14-1.42-.09-.7c.29-.11-.69,0,.68-.14v.47l-.7,0Z"/></g></g><g class="cls-61"><g class="cls-62"><path class="cls-63" d="M-1009.23,795.12c15.84,10,33.54,17,51,23.66a676.64,676.64,0,0,0,69.08,20.57c51.63,12.38,104.94,20.47,157.78,25.69,41.46,4.27,86,7,127.68,8.33,213.73,6.8,427.44-13,639.37-40,22.88-2.95,72.4-10,95.5-13.1,85.29-11.54,169.38-30,254.7-42.41C521,759.11,659.08,758.5,793.79,780.42c15.59,2.51,36.44,6.37,52.16,9.57l4,.89,8,1.76,15.91,3.52c52.72,12.39,104.83,28.26,154.9,48.51-167.76-41.16-340-51.2-508.95-34.33-42.18,4.16-84.39,10-126.08,17.29-29.87,5.21-64.08,12.26-94,18.75-53.1,11.21-106.38,21.19-160.08,29.59-214.22,32.51-431.22,53.08-648.16,43.44-25.37-1-56-3.12-81.38-5.18-11.47-1.11-29.12-2.77-40.61-3.92-8.29-.89-32.47-4-40.51-4.92C-751.88,894.27-832.62,877.8-909,848.82a518.11,518.11,0,0,1-59.45-26.94c-14.28-7.75-28.44-16.11-40.75-26.76Z"/></g></g></g></g></svg>