<svg id="Layer_1" data-name="Layer 1" xmlns="http://www.w3.org/2000/svg" viewBox="0 0 206.76 192.71"><defs><style>.cls-1{fill:#050505;opacity:0.3;}.cls-2{fill:#a5a0a4;}.cls-3{fill:#999698;}.cls-4{fill:#878286;}.cls-5{fill:#6d696d;}.cls-6{fill:#bcb7bb;}</style></defs><ellipse class="cls-1" cx="104.22" cy="127.58" rx="57.19" ry="16.95" transform="translate(-5.36 4.58) rotate(-2.45)"/><path class="cls-2" d="M129.46,104c2.15,1.19,3.53,3.36,5.15,5.58,9.24,12.62,21.51-4.32,29.14-12.15a22.42,22.42,0,0,0-5.23-8.17A54.57,54.57,0,0,0,139.88,85C132.38,84.75,130.13,95.46,129.46,104Z"/><path class="cls-2" d="M94.27,93.24c-1.09-7.13-3.48-14.83-8.55-20.14a16.75,16.75,0,0,0-13-5.16c-8,4.86-18.44,14.8-24.42,22.45a11.54,11.54,0,0,0-2.2,5.07,166.52,166.52,0,0,0,31.18,19.23,58,58,0,0,0,14.9,5A58.52,58.52,0,0,0,94.27,93.24Z"/><path class="cls-3" d="M133.24,75.07c-17.58-6.79-36.18-11.6-55.12-9.72a23.9,23.9,0,0,0-5.41,2.59,16.75,16.75,0,0,1,13,5.16c5.07,5.31,7.46,13,8.55,20.14a58.52,58.52,0,0,1-2.1,26.44,29.76,29.76,0,0,0,4.43.38c8.27,0,12.59-4.33,17.63-10.25,3-3.5,6.94-6.93,11.83-6.74a7.49,7.49,0,0,1,3.4.9c.67-8.51,2.92-19.22,10.42-19a54.57,54.57,0,0,1,18.64,4.26C152,82.45,141.53,78.28,133.24,75.07Z"/><path class="cls-4" d="M102.55,119.17a18.51,18.51,0,0,1-6,.89c-6.74,0-13.28-2.6-19.33-5.37A166.52,166.52,0,0,1,46.09,95.46c-.74,4.06.3,8.61,1.54,12.53,1.63,5.13,3.47,10.33,6.37,14.9,7.15,11.27,19.68,12.11,31.86,13a180.8,180.8,0,0,0,19.32.38c-.36-2.9-.77-5.79-1.17-8.68C103.64,125,103.73,121.62,102.55,119.17Z"/><path class="cls-3" d="M114.26,117.38c0-2.51,0-5.16.18-7.81l-.21.24c-3.67,4.32-7,7.8-11.68,9.36,1.18,2.45,1.09,5.82,1.46,8.45.4,2.89.81,5.78,1.17,8.68,3.23-.11,6.66-.33,10.16-.68a2.17,2.17,0,0,1-.07-.24C113.79,129.71,114.22,123.18,114.26,117.38Z"/><path class="cls-5" d="M163.75,97.4c-6.76,6.94-17.15,21-25.86,15.36-.46,1.61-.91,3.22-1.37,4.83-1.41,4.91-2.57,10-4.1,15a52.08,52.08,0,0,0,17.09-7.72c4.85-3.57,13.76-9.91,14.9-17.07a1.5,1.5,0,0,0,.26-.64A20.71,20.71,0,0,0,163.75,97.4Z"/><path class="cls-4" d="M123.18,122.42c0-2.7.45-5.56.2-8.24-.34-3.66-1.79-5-3.86-7.12l-.1,0A1,1,0,0,1,118.1,106a28,28,0,0,0-3.66,3.56c-.17,2.65-.17,5.3-.18,7.81,0,5.8-.47,12.33,1,18a2.17,2.17,0,0,0,.07.24c2.63-.27,5.3-.62,8-1.07C122.64,130.72,123.17,125.87,123.18,122.42Z"/><path class="cls-4" d="M134.4,111.92a37.83,37.83,0,0,1,1.92,6.39c.07-.24.13-.48.2-.72.46-1.61.91-3.22,1.37-4.83a12.49,12.49,0,0,1-3.28-3.21c-2.34-3.2-4.17-6.32-8.55-6.48a10.93,10.93,0,0,0-5.85,1.52C126.82,102.51,131.58,104.91,134.4,111.92Z"/><path class="cls-4" d="M136.32,118.31a37.83,37.83,0,0,0-1.92-6.39c-2.82-7-7.58-9.41-14.19-7.33A16.23,16.23,0,0,0,118.1,106a1,1,0,0,0,1.32,1.08l.1,0c2.07,2.13,3.52,3.46,3.86,7.12.25,2.68-.19,5.54-.2,8.24,0,3.45-.54,8.3.13,12.13,3.07-.52,6.13-1.16,9.11-2C133.88,127.88,135,123,136.32,118.31Z"/><path class="cls-6" d="M150.56,107.18c-1.75,1.31-3.41,2.73-5.14,4a7.78,7.78,0,0,1-4.59,1.89.22.22,0,0,1-.11,0,.12.12,0,0,1-.08,0h-.09a2.81,2.81,0,0,1-1-.2h0s0,0,0,0a4.88,4.88,0,0,1-2.18-2.08c-.68-1.07-2.61-6-5.78-8.29a3.61,3.61,0,0,0-1.89-.63,13.89,13.89,0,0,0-3.84.33c-3.72.65-7,2.79-9.92,5.15-.71.57-2,1.79-3.55,3.13h0a30.11,30.11,0,0,1-8.28,5.47,26.39,26.39,0,0,1-11.19,1.46h0c-.66,0-1.24-.07-1.69-.1-3.59-.31-8-2-12.07-4h0c-1.31-.61-2.57-1.24-3.8-1.86-5.4-2.64-9.43-6-11-6.69C61.35,103.63,52.87,100.65,49,97c-2.13-2-1.27-5.58-1.24-5.78,0,0,0,0,0,.05h0c-1.36,1.61-2,3.22-1.68,4.85.27,1.39,1.24,2.8,3.06,4.33,4.35,3.65,9.94,5.5,13,7.79,1.79,1.35,3.95,4.61,7,5.63a17.65,17.65,0,0,0,4.83.51h0a20.08,20.08,0,0,1,3.16.18h0a.07.07,0,0,0,.07,0c.06,0,.1.07.15.1s0,0,0,0l.64.27a3.54,3.54,0,0,0,.69.12c.63.31,1.3.65,1.87,1,0,0,0,0,0,0v0A4.1,4.1,0,0,1,82,117.35c.39.65,2.55,6.88,3.62,9.45.19.53.38,1.06.64,1.62.5,1.11-.23-6.83-.28-8.16a11.8,11.8,0,0,0,1.93.58A20.31,20.31,0,0,0,98.7,120h0v0h0c.74-.25,1.49-.53,2.21-.83a4.28,4.28,0,0,1,.13.46c1.09,3.65,3.4,11.72,3.42,11.72.4-5,.68-9-.13-11.17,1.87-2.84,5.22-4.88,7.11-6.46.93-.78,1.86-1.7,2.87-2.61l.61-.54a18.74,18.74,0,0,1,4.76-3.23,13.15,13.15,0,0,1,5.61-1.13c3.41.08,6.8,2.64,8.46,5.77a9.78,9.78,0,0,1,.86,2.18c1.11,4.51-.57,10.24-.85,13.58v0h0c2.8-3.3,7.63-9.16,10.67-12.22a11.66,11.66,0,0,1,1.26-1.14h0c4.18-3.55,11.2-7.42,14.27-12.92,0,0,0,0,0,0C160.72,100.17,152.5,105.52,150.56,107.18Z"/><path class="cls-5" d="M95.91,136.38c-1-2-6.19-2.23-8.75-3.25-1.56-.62-1.91-2.38-3.48-2.88a28.63,28.63,0,0,0-7.2-.95c-2.26-.17-2.33-1.64-3-2.67-1.52-2.23-3.36-4.81-5.65-4.73a.94.94,0,0,0-.57,1.62c1.23,1.3,3.47,5.34,1.61,5.4-.93,0-3.23-1.66-4-1.85-2.25-.62-6-.9-10.19-6-.26-.31-.52-.65-.78-1-1.33-1.75-2.43-5.69-4.45-7h0a.27.27,0,0,0,0,.12l0,.07a.24.24,0,0,0,0,.08c.31.82.6,1.55.88,2.25a42.74,42.74,0,0,0,2.85,6.28c.12.22.24.43.36.62A7.16,7.16,0,0,0,55.32,125a23.43,23.43,0,0,0,5,4.51,15.8,15.8,0,0,0,1.63,1c.36.21.7.39,1,.57s.73.39,1.07.57a31.5,31.5,0,0,0,8.27,3c3.43.83,20,1.8,23.64,1.69Z"/><path class="cls-6" d="M100,64.66a65.8,65.8,0,0,0-15.68,0c-4.64.54-11.06.69-14.6,3.92-2.22,2.07-5.54,5-8.17,7.94,0,0,0,0,0,0,5.15-1.94,6.48-3.8,9.65-5.21,1.64,0,3.23-1.89,4.95-1.86,3.39,0,6.32,4,8.59,6.13,5.58,5.3,8.81,12.87,9.91,20.55a2,2,0,0,1,0,.24c0,.22.07.47.1.69,1.65-4.06.86-9.81-.13-14.1-.7-2.93-2-6.66.42-9.13,1.13-1.18,4-1.94,5.58-2.33,10-2.47,27.87,5.09,32.61,3.58C123.64,69.78,110.86,66,100,64.66Z"/></svg>