<svg id="Layer_1" data-name="Layer 1" xmlns="http://www.w3.org/2000/svg" viewBox="0 0 206.76 192.71"><defs><style>.cls-1{fill:#0dff00;}</style></defs><path class="cls-1" d="M180.17,93.32a34.75,34.75,0,0,0-8-12.65c-7.8-8.08-18.52-12.75-28.91-16.8a110,110,0,0,0-36.77-11.41,76.53,76.53,0,0,0-9.37-.57,78.38,78.38,0,0,0-9.21.54l-1.89.2c-5.37.53-13.49,1.34-19.61,6.93l-1.14,1.06c-2.07,1.9-4.86,4.47-7.33,7.16a124,124,0,0,0-14.21,15s-.09.1-.13.16L42.43,84,42,85.3a17.69,17.69,0,0,0-3.17,11,33.58,33.58,0,0,0,0,4.49h0v0a47.88,47.88,0,0,0,2.25,10.89c.43,1.34.83,2.58,1.23,3.74v3l1.76,1.76a53.12,53.12,0,0,0,3.63,7.91l.15.27a19.16,19.16,0,0,0,3.62,5.09,36.7,36.7,0,0,0,6.87,6.17,27.83,27.83,0,0,0,2.58,1.64c.4.24.81.46,1.22.68l0,0,1.35.72A42.74,42.74,0,0,0,74,146.59l.5.12c5.25,1.28,22.24,2,25.85,2h1l.9,0h1.91c2.18,0,4.35,0,6.47-.11s4.15-.18,6.21-.32l3.79-.12-.1-.19,1-.1c3-.3,5.91-.7,8.75-1.18,3.63-.61,7.09-1.36,10.28-2.23a63.9,63.9,0,0,0,21.1-9.68l.46-.34c6.15-4.53,16.23-12,18.88-22.87a13,13,0,0,0,.68-2.8A33,33,0,0,0,180.17,93.32Zm-10.7,13.85a1.39,1.39,0,0,1-.26.63c-1.13,7.16-10,13.49-14.85,17.06a52,52,0,0,1-17,7.71c-3,.81-6,1.45-9.08,2-2.66.45-5.32.8-8,1.07-3.49.35-6.9.57-10.13.68s-6.45.12-9.23.07h0l0,0c-3.61.11-20.15-.86-23.58-1.69a31.45,31.45,0,0,1-8.24-3l-1.06-.56,0,0c-.34-.19-.69-.37-1-.57a14.24,14.24,0,0,1-1.6-1A23.91,23.91,0,0,1,60.46,125a7,7,0,0,1-1.76-2.49c-.12-.19-.24-.4-.37-.62a43.73,43.73,0,0,1-2.84-6.27c-.19-.49-.39-1-.59-1.53l-.23-.59a.5.5,0,0,0-.05-.13.25.25,0,0,1,0-.07h0l0-.07a.27.27,0,0,1,0-.12h0c-.62-1.7-1.19-3.42-1.73-5.14-1.17-3.68-2.13-7.91-1.64-11.78,0,0,0,0,0-.06-.33-1.63.32-3.23,1.68-4.84h0l0,0h0c.19-.29.37-.58.59-.86a112.74,112.74,0,0,1,13.2-13.88h0c2.62-2.92,5.93-5.87,8.15-7.93,3.53-3.23,9.93-3.38,14.55-3.92a65.46,65.46,0,0,1,15.64,0c10.81,1.33,23.53,5.1,33.09,10.39h0c8.27,3.21,18.66,7.37,25.2,14.14a22.61,22.61,0,0,1,5.22,8.17A20.84,20.84,0,0,1,169.47,107.17Z"/></svg>