<svg id="Layer_1" data-name="Layer 1" xmlns="http://www.w3.org/2000/svg" viewBox="0 0 206.76 183.53"><defs><style>.cls-1,.cls-3{opacity:0.3;}.cls-2{fill:#73c0ff;}.cls-3{fill:#fff;}.cls-4{fill:#5fa4d3;}.cls-5{fill:#6eaeb5;}.cls-6{fill:#daffff;opacity:0.18;}.cls-7{fill:#326b87;stroke:#c0ffff;}.cls-7,.cls-8,.cls-9{stroke-miterlimit:10;}.cls-8{fill:none;stroke:#42310f;}.cls-9{fill:#eacf8c;stroke:#4c3003;stroke-width:0.5px;}.cls-10{fill:#d3a95f;}</style></defs><ellipse class="cls-1" cx="106.12" cy="124.86" rx="61.03" ry="12.6"/><path class="cls-2" d="M105.55,98.22c-34.36,0-62.21-7.31-62.21-16.32,0,16.81,24.74,34.41,28.61,39.46.38,4.79,15.28,8.63,33.6,8.63,18.13,0,32.91-3.76,33.59-8.48,3.8-5.44,28.62-22.77,28.62-39.61C167.76,90.91,139.91,98.22,105.55,98.22Z"/><path class="cls-3" d="M43.34,81.9c0,16.81,24.74,34.41,28.61,39.46.14,1.74,2.19,3.35,5.62,4.7,0-.1,0-.2,0-.31-1.59-7.56-14.46-17-20.67-25.47a27,27,0,0,1-4.69-10C46.56,87.83,43.34,85,43.34,81.9Z"/><path class="cls-4" d="M167.76,81.9c0,2.13-1.56,4.17-4.4,6,0,.07-.05.11-.06.1-3.44,6.93-16.82,22.73-36.44,32.67-19.45,9.85-51.07,5-54.67.69l-.24,0c.39,4.79,15.28,8.63,33.6,8.63,18.13,0,32.91-3.76,33.59-8.48C142.94,116.07,167.76,98.74,167.76,81.9Z"/><path class="cls-5" d="M105.06,128.58c-14.77,0-27.39-2.33-32.43-5.62,3.14,4,16.69,7,32.92,7,18.12,0,32.88-3.76,33.59-8.47C135.92,125.55,121.89,128.58,105.06,128.58Z"/><path class="cls-6" d="M69.89,95.27C71.79,98.75,85,123,85.31,125s6.66,2.83,7,1.24c.31-1.4-2.83-23.26-3.61-28.59A176.57,176.57,0,0,1,69.89,95.27Z"/><ellipse class="cls-7" cx="105.55" cy="82.97" rx="62.21" ry="15.25"/><path class="cls-8" d="M168.61,82.64c0-.25,0-.49,0-.74a3.43,3.43,0,0,1-.06.55c-.73-5.29-11.76-10.72-29.35-13.32-31.14-6.08-106,.12-96,16.6,4.1,16.63,24.09,30.78,27.87,35.63h0l0,.16c0,.09,0,.19.05.29s0,.08,0,.13l.06.15a1,1,0,0,0,.06.16l.06.12a2.39,2.39,0,0,0,.13.21.16.16,0,0,0,0,.07s0,0,0,0l0,.06.17.22h0l0,.06.07.09.09.09.08.09a1.59,1.59,0,0,1,.13.13,1.14,1.14,0,0,1,.11.11l.1.09h0l.2.18.11.08.06.06.1.07.24.18.21.15.08,0,.06,0,.1.06.12.08.27.17.05,0,.33.18h0l.18.09.14.08.28.14,0,0,.36.18.08,0,.09,0,.14,0,.09,0,.38.17.13.06.29.11.23.09h0l.16.06.19.07.27.1.44.15.25.09.22.07.48.16.49.15.52.15.21.06.17,0,.12,0,.6.16.46.12,1.08.26.06,0,.43.09.68.15.12,0,.42.08.68.13.19,0,.37.07.7.12.26.05.32,0,.72.12.59.09.77.12.3,0h.1l.18,0,.85.11.18,0,.25,0,.11,0,1.1.12.29,0h0l1.44.14.48,0,1,.08.59,0,.93.06.64,0,.92.06.65,0,.94,0,.65,0,1,0,.63,0,1.08,0h2.2c.93,0,1.85,0,2.77,0h.64l1.08,0,.6,0,.84,0,.8,0,.71,0,.91-.05,1.42-.1.17,0,1.31-.11.25,0,.88-.09.65-.06,1-.11.48-.06.79-.1.66-.09,1.2-.17.21,0,1.12-.18.25,0,1.11-.19.21,0,.88-.17.4-.08.88-.19.35-.08.71-.17.47-.11.73-.19.4-.1.69-.2.38-.11.69-.21.33-.11.73-.25.23-.08.67-.26.23-.08.6-.26.24-.1.56-.27.21-.09.52-.28.19-.1.49-.29.15-.09.45-.31.12-.09c.13-.1.25-.19.36-.29l.14-.11.3-.29.12-.12a3.56,3.56,0,0,0,.26-.31l.09-.11a3.21,3.21,0,0,0,.19-.31.83.83,0,0,0,.08-.12c.05-.1.09-.2.13-.3l.06-.13c0-.1.06-.21.08-.31l0-.12h0c3.72-5.23,24.74-18.54,29-37.62a3.72,3.72,0,0,0,.13-.93C168.65,82.86,168.62,82.75,168.61,82.64Z"/><path class="cls-9" d="M148.81,87.21c-2.41,1.3-5.46-2.58-8.91-3.79s-7.74,1.21-11.56,2.63-4.92-3.62-14-4.2a19.37,19.37,0,0,1-6.92-1.45,5.87,5.87,0,0,0-4.63-.16,23,23,0,0,1-6.93,1.53c-9.1.58-10.21,5.63-14,4.2s-8.12-3.83-11.56-2.62-6.5,5.08-8.91,3.78-7.7,3.43-7.7,3.43a169.72,169.72,0,0,0,51.05,7h.37c21.38.2,38-2.45,51.55-6.51C156.62,91,151.22,85.91,148.81,87.21Z"/><path class="cls-10" d="M110.89,89.8l-.61.73a.71.71,0,0,0,0,.79.36.36,0,0,0,.61,0l.61-.72a.73.73,0,0,0,0-.8.36.36,0,0,0-.61,0Z"/><path class="cls-10" d="M108.4,91.86l-.6.73a.69.69,0,0,0,0,.8.37.37,0,0,0,.61,0l.6-.73a.69.69,0,0,0,0-.8.36.36,0,0,0-.61,0Z"/><path class="cls-10" d="M113,93.54l-.6.73a.69.69,0,0,0,0,.8.37.37,0,0,0,.61,0l.6-.73a.69.69,0,0,0,0-.8.37.37,0,0,0-.61,0Z"/><path class="cls-10" d="M118.85,92.78l-.6.73a.69.69,0,0,0,0,.8.36.36,0,0,0,.6,0l.61-.73a.73.73,0,0,0,0-.8.37.37,0,0,0-.61,0Z"/><path class="cls-10" d="M123.75,93.54l-.6.73a.69.69,0,0,0,0,.8.37.37,0,0,0,.61,0l.6-.73a.69.69,0,0,0,0-.8.37.37,0,0,0-.61,0Z"/><path class="cls-10" d="M107.42,89.15l-.1.17a.66.66,0,0,0-.13.4.68.68,0,0,0,.13.4.36.36,0,0,0,.6,0L108,90a.68.68,0,0,0,.13-.4.66.66,0,0,0-.13-.4.37.37,0,0,0-.61,0Z"/><path class="cls-10" d="M123.87,90.39v.34c0,.3.2.58.43.57a.53.53,0,0,0,.43-.57v-.34c0-.29-.2-.58-.43-.56a.51.51,0,0,0-.43.56Z"/><path class="cls-10" d="M121.67,92.31v.34c0,.29.19.57.43.56a.52.52,0,0,0,.43-.56v-.34c0-.3-.2-.58-.43-.57a.52.52,0,0,0-.43.57Z"/><path class="cls-10" d="M116.17,92.31v.34c0,.29.2.57.43.56a.52.52,0,0,0,.43-.56v-.34c0-.3-.2-.58-.43-.57a.53.53,0,0,0-.43.57Z"/><path class="cls-10" d="M112.78,91.32v.33c0,.3.2.58.43.57a.52.52,0,0,0,.43-.57v-.33c0-.3-.19-.58-.43-.57a.52.52,0,0,0-.43.57Z"/><path class="cls-10" d="M109.3,94.87v.34c0,.29.2.58.43.56a.52.52,0,0,0,.43-.56v-.34c0-.3-.2-.58-.43-.57a.53.53,0,0,0-.43.57Z"/><path class="cls-10" d="M126.47,91.86c.55,0,.55-1.13,0-1.13s-.55,1.13,0,1.13Z"/><path class="cls-10" d="M131.89,94.11c.56,0,.56-1.13,0-1.13s-.55,1.13,0,1.13Z"/><path class="cls-10" d="M129.71,93.55c.56,0,.56-1.13,0-1.13s-.55,1.13,0,1.13Z"/><path class="cls-10" d="M127.68,94.68c.55,0,.55-1.13,0-1.13s-.56,1.13,0,1.13Z"/><path class="cls-10" d="M124.73,93c.55,0,.55-1.13,0-1.13s-.55,1.13,0,1.13Z"/><path class="cls-10" d="M120.65,95.6c.56,0,.56-1.13,0-1.13s-.55,1.13,0,1.13Z"/><path class="cls-10" d="M116.06,95.79c.55,0,.55-1.13,0-1.13s-.55,1.13,0,1.13Z"/><path class="cls-10" d="M120.35,92.26c.55,0,.55-1.13,0-1.13s-.56,1.13,0,1.13Z"/><path class="cls-10" d="M111.9,83.6l-.6.73a.69.69,0,0,0,0,.8.36.36,0,0,0,.6,0l.61-.73a.73.73,0,0,0,0-.8.36.36,0,0,0-.61,0Z"/><path class="cls-10" d="M109.42,85.66l-.61.73a.73.73,0,0,0,0,.8.37.37,0,0,0,.61,0l.6-.73a.69.69,0,0,0,0-.8.36.36,0,0,0-.6,0Z"/><path class="cls-10" d="M114,87.34l-.61.73a.73.73,0,0,0,0,.8.37.37,0,0,0,.61,0l.6-.73a.69.69,0,0,0,0-.8.36.36,0,0,0-.6,0Z"/><path class="cls-10" d="M119.86,86.58l-.6.73a.69.69,0,0,0,0,.8.36.36,0,0,0,.61,0l.6-.73a.69.69,0,0,0,0-.8.37.37,0,0,0-.61,0Z"/><path class="cls-10" d="M124.77,87.34l-.61.73a.73.73,0,0,0,0,.8.37.37,0,0,0,.61,0l.6-.73a.69.69,0,0,0,0-.8.36.36,0,0,0-.6,0Z"/><path class="cls-10" d="M108.44,83l-.11.17a.76.76,0,0,0-.13.4.68.68,0,0,0,.13.4.37.37,0,0,0,.61,0l.11-.17a.75.75,0,0,0,.12-.4.73.73,0,0,0-.12-.4.37.37,0,0,0-.61,0Z"/><path class="cls-10" d="M122.68,86.11v.34c0,.29.2.58.43.56a.52.52,0,0,0,.43-.56v-.34c0-.3-.2-.58-.43-.57a.53.53,0,0,0-.43.57Z"/><path class="cls-10" d="M117.18,86.11v.34c0,.29.2.58.43.56a.51.51,0,0,0,.43-.56v-.34c0-.3-.19-.58-.43-.57a.53.53,0,0,0-.43.57Z"/><path class="cls-10" d="M113.8,85.12v.34c0,.29.19.57.43.56a.52.52,0,0,0,.43-.56v-.34c0-.3-.2-.58-.43-.57a.52.52,0,0,0-.43.57Z"/><path class="cls-10" d="M110.31,88.67V89c0,.29.2.58.43.56a.51.51,0,0,0,.43-.56v-.34c0-.3-.2-.58-.43-.56a.51.51,0,0,0-.43.56Z"/><path class="cls-10" d="M132.91,87.91c.55,0,.55-1.13,0-1.13s-.56,1.13,0,1.13Z"/><path class="cls-10" d="M130.73,87.35c.55,0,.55-1.13,0-1.13s-.56,1.13,0,1.13Z"/><path class="cls-10" d="M128.69,88.48c.55,0,.55-1.13,0-1.13s-.55,1.13,0,1.13Z"/><path class="cls-10" d="M126.47,89.32c.55,0,.55-1.13,0-1.13s-.55,1.13,0,1.13Z"/><path class="cls-10" d="M118.54,84.65c.55,0,.55-1.13,0-1.13s-.56,1.13,0,1.13Z"/><path class="cls-10" d="M115.18,84c.56,0,.56-1.13,0-1.13s-.55,1.13,0,1.13Z"/><path class="cls-10" d="M106.32,86.57c.55,0,.55-1.13,0-1.13s-.56,1.13,0,1.13Z"/><path class="cls-10" d="M106.32,82.82c.55,0,.55-1.13,0-1.13s-.56,1.13,0,1.13Z"/><path class="cls-10" d="M106.73,95.81c.55,0,.55-1.13,0-1.13s-.55,1.13,0,1.13Z"/><path class="cls-10" d="M121.67,89.4c.55,0,.55-1.13,0-1.13s-.56,1.13,0,1.13Z"/><path class="cls-10" d="M117.07,89.59c.56,0,.56-1.13,0-1.13s-.55,1.13,0,1.13Z"/><path class="cls-10" d="M121.36,86.06c.55,0,.55-1.13,0-1.13s-.55,1.13,0,1.13Z"/><path class="cls-10" d="M134,86.81l-.61.73a.73.73,0,0,0,0,.8.37.37,0,0,0,.61,0l.61-.73a.73.73,0,0,0,0-.8.37.37,0,0,0-.61,0Z"/><path class="cls-10" d="M131.52,88.87l-.6.73a.69.69,0,0,0,0,.8.36.36,0,0,0,.61,0l.6-.73a.69.69,0,0,0,0-.8.37.37,0,0,0-.61,0Z"/><path class="cls-10" d="M136.14,90.56l-.6.72a.69.69,0,0,0,0,.8.36.36,0,0,0,.61,0l.6-.73a.68.68,0,0,0,0-.79.36.36,0,0,0-.61,0Z"/><path class="cls-10" d="M142,89.8l-.6.73a.69.69,0,0,0,0,.8.36.36,0,0,0,.6,0l.61-.73a.73.73,0,0,0,0-.8.36.36,0,0,0-.61,0Z"/><path class="cls-10" d="M146.87,90.56l-.6.72a.69.69,0,0,0,0,.8.36.36,0,0,0,.61,0l.6-.73a.68.68,0,0,0,0-.79.36.36,0,0,0-.61,0Z"/><path class="cls-10" d="M130.55,86.16l-.11.17a.68.68,0,0,0-.13.4.66.66,0,0,0,.13.4.37.37,0,0,0,.61,0l.1-.17a.68.68,0,0,0,0-.8.36.36,0,0,0-.6,0Z"/><path class="cls-10" d="M136.33,84.76v.34c0,.3.2.58.43.57a.52.52,0,0,0,.43-.57v-.34c0-.29-.19-.57-.43-.56a.52.52,0,0,0-.43.56Z"/><path class="cls-10" d="M139.4,85.54v.34c0,.3.2.58.43.57a.53.53,0,0,0,.43-.57v-.34c0-.29-.2-.58-.43-.56a.52.52,0,0,0-.43.56Z"/><path class="cls-10" d="M137.81,86.67V87c0,.3.2.58.43.57a.53.53,0,0,0,.43-.57v-.34c0-.29-.2-.58-.43-.56a.52.52,0,0,0-.43.56Z"/><path class="cls-10" d="M141,87.6v.34c0,.29.2.57.43.56a.52.52,0,0,0,.43-.56V87.6c0-.3-.2-.58-.43-.57a.53.53,0,0,0-.43.57Z"/><path class="cls-10" d="M144.79,89.32v.34c0,.3.2.58.43.57a.53.53,0,0,0,.43-.57v-.34c0-.29-.2-.58-.43-.56a.51.51,0,0,0-.43.56Z"/><path class="cls-10" d="M139.29,89.32v.34c0,.3.2.58.43.57a.53.53,0,0,0,.43-.57v-.34c0-.29-.2-.58-.43-.56a.52.52,0,0,0-.43.56Z"/><path class="cls-10" d="M135.9,88.33v.34c0,.3.2.58.43.57a.52.52,0,0,0,.43-.57v-.34c0-.29-.19-.58-.43-.56a.52.52,0,0,0-.43.56Z"/><path class="cls-10" d="M132.42,91.88v.34c0,.3.2.58.43.57a.53.53,0,0,0,.43-.57v-.34c0-.29-.2-.57-.43-.56a.52.52,0,0,0-.43.56Z"/><path class="cls-10" d="M149.59,88.88c.55,0,.55-1.13,0-1.13s-.55,1.13,0,1.13Z"/><path class="cls-10" d="M155,91.13c.56,0,.56-1.13,0-1.13s-.55,1.13,0,1.13Z"/><path class="cls-10" d="M152.84,90.56c.55,0,.55-1.13,0-1.13s-.56,1.13,0,1.13Z"/><path class="cls-10" d="M150.8,91.69c.55,0,.55-1.13,0-1.13s-.56,1.13,0,1.13Z"/><path class="cls-10" d="M147.85,90.06c.55,0,.55-1.13,0-1.13s-.55,1.13,0,1.13Z"/><path class="cls-10" d="M143.78,92.62c.55,0,.55-1.13,0-1.13s-.56,1.13,0,1.13Z"/><path class="cls-10" d="M139.18,92.81c.55,0,.55-1.13,0-1.13s-.55,1.13,0,1.13Z"/><path class="cls-10" d="M143.47,89.28c.55,0,.55-1.13,0-1.13s-.55,1.13,0,1.13Z"/><path class="cls-10" d="M98.7,90l.6.73a.68.68,0,0,1,0,.79.36.36,0,0,1-.6,0l-.61-.72a.73.73,0,0,1,0-.8.36.36,0,0,1,.61,0Z"/><path class="cls-10" d="M101.18,92l.61.73a.73.73,0,0,1,0,.8.37.37,0,0,1-.61,0l-.6-.73a.69.69,0,0,1,0-.8.36.36,0,0,1,.6,0Z"/><path class="cls-10" d="M96.56,93.71l.61.73a.73.73,0,0,1,0,.8.37.37,0,0,1-.61,0l-.6-.73a.69.69,0,0,1,0-.8.36.36,0,0,1,.6,0Z"/><path class="cls-10" d="M90.74,93l.6.73a.69.69,0,0,1,0,.8.37.37,0,0,1-.61,0l-.6-.73a.69.69,0,0,1,0-.8.37.37,0,0,1,.61,0Z"/><path class="cls-10" d="M85.83,93.71l.61.73a.73.73,0,0,1,0,.8.37.37,0,0,1-.61,0l-.6-.73a.69.69,0,0,1,0-.8.36.36,0,0,1,.6,0Z"/><path class="cls-10" d="M102.16,89.32l.11.17a.76.76,0,0,1,.13.4.68.68,0,0,1-.13.4.37.37,0,0,1-.61,0l-.11-.17a.75.75,0,0,1-.12-.4.73.73,0,0,1,.12-.4.37.37,0,0,1,.61,0Z"/><path class="cls-10" d="M85.72,90.56v.34c0,.3-.2.58-.43.57a.52.52,0,0,1-.43-.57v-.34c0-.29.2-.58.43-.56a.51.51,0,0,1,.43.56Z"/><path class="cls-10" d="M87.92,92.48v.34c0,.29-.2.57-.43.56a.52.52,0,0,1-.43-.56v-.34c0-.3.2-.58.43-.57a.53.53,0,0,1,.43.57Z"/><path class="cls-10" d="M93.42,92.48v.34c0,.29-.2.57-.43.56a.51.51,0,0,1-.43-.56v-.34c0-.3.19-.58.43-.57a.53.53,0,0,1,.43.57Z"/><path class="cls-10" d="M96.8,91.49v.33c0,.3-.19.58-.43.57a.52.52,0,0,1-.43-.57v-.33c0-.3.2-.58.43-.57a.52.52,0,0,1,.43.57Z"/><path class="cls-10" d="M100.29,95v.34c0,.29-.2.58-.43.56a.51.51,0,0,1-.43-.56V95c0-.3.2-.58.43-.57a.53.53,0,0,1,.43.57Z"/><path class="cls-10" d="M83.12,92c-.56,0-.56-1.13,0-1.13s.55,1.13,0,1.13Z"/><path class="cls-10" d="M77.69,94.28c-.55,0-.55-1.13,0-1.13s.56,1.13,0,1.13Z"/><path class="cls-10" d="M79.87,93.72c-.55,0-.55-1.13,0-1.13s.56,1.13,0,1.13Z"/><path class="cls-10" d="M81.91,94.85c-.55,0-.55-1.13,0-1.13s.55,1.13,0,1.13Z"/><path class="cls-10" d="M84.86,93.21c-.56,0-.56-1.13,0-1.13s.55,1.13,0,1.13Z"/><path class="cls-10" d="M88.93,95.77c-.55,0-.55-1.13,0-1.13s.56,1.13,0,1.13Z"/><path class="cls-10" d="M93.53,96c-.56,0-.56-1.13,0-1.13s.55,1.13,0,1.13Z"/><path class="cls-10" d="M89.24,92.43c-.55,0-.56-1.13,0-1.13s.55,1.13,0,1.13Z"/><path class="cls-10" d="M97.69,83.77l.6.73a.69.69,0,0,1,0,.8.37.37,0,0,1-.61,0l-.6-.73a.69.69,0,0,1,0-.8.36.36,0,0,1,.61,0Z"/><path class="cls-10" d="M100.17,85.83l.6.73a.69.69,0,0,1,0,.8.36.36,0,0,1-.6,0l-.61-.73a.73.73,0,0,1,0-.8.37.37,0,0,1,.61,0Z"/><path class="cls-10" d="M95.55,87.51l.61.73a.73.73,0,0,1,0,.8.37.37,0,0,1-.61,0l-.61-.73a.73.73,0,0,1,0-.8.37.37,0,0,1,.61,0Z"/><path class="cls-10" d="M89.72,86.75l.61.73a.73.73,0,0,1,0,.8.36.36,0,0,1-.61,0l-.6-.73a.69.69,0,0,1,0-.8.36.36,0,0,1,.6,0Z"/><path class="cls-10" d="M84.82,87.51l.6.73a.69.69,0,0,1,0,.8.36.36,0,0,1-.6,0l-.61-.73a.73.73,0,0,1,0-.8.37.37,0,0,1,.61,0Z"/><path class="cls-10" d="M101.15,83.12l.11.17a.75.75,0,0,1,.12.4.68.68,0,0,1-.12.4.37.37,0,0,1-.61,0l-.11-.17a.75.75,0,0,1-.12-.4.65.65,0,0,1,.12-.4.37.37,0,0,1,.61,0Z"/><path class="cls-10" d="M86.91,86.28v.34c0,.29-.2.58-.43.56a.51.51,0,0,1-.43-.56v-.34c0-.3.2-.58.43-.57a.53.53,0,0,1,.43.57Z"/><path class="cls-10" d="M92.4,86.28v.34c0,.29-.2.58-.43.56a.52.52,0,0,1-.43-.56v-.34c0-.3.2-.58.43-.57a.52.52,0,0,1,.43.57Z"/><path class="cls-10" d="M95.79,85.29v.34c0,.29-.2.57-.43.56a.52.52,0,0,1-.43-.56v-.34c0-.3.2-.58.43-.57a.53.53,0,0,1,.43.57Z"/><path class="cls-10" d="M99.27,88.84v.34c0,.29-.19.58-.43.56a.51.51,0,0,1-.42-.56v-.34c0-.3.19-.58.42-.56a.51.51,0,0,1,.43.56Z"/><path class="cls-10" d="M76.68,88.08c-.55,0-.55-1.13,0-1.13s.55,1.13,0,1.13Z"/><path class="cls-10" d="M78.86,87.52c-.55,0-.55-1.13,0-1.13s.55,1.13,0,1.13Z"/><path class="cls-10" d="M80.9,88.65c-.56,0-.56-1.13,0-1.13s.55,1.13,0,1.13Z"/><path class="cls-10" d="M83.12,89.49c-.56,0-.56-1.13,0-1.13s.55,1.13,0,1.13Z"/><path class="cls-10" d="M91.05,84.82c-.55,0-.55-1.13,0-1.13s.55,1.13,0,1.13Z"/><path class="cls-10" d="M94.4,84.17c-.55,0-.55-1.13,0-1.13s.56,1.13,0,1.13Z"/><path class="cls-10" d="M103.27,86.74c-.55,0-.55-1.13,0-1.13s.56,1.13,0,1.13Z"/><path class="cls-10" d="M103.27,83c-.55,0-.55-1.13,0-1.13s.56,1.13,0,1.13Z"/><path class="cls-10" d="M102.86,96c-.56,0-.56-1.13,0-1.13s.55,1.13,0,1.13Z"/><path class="cls-10" d="M87.92,89.57c-.55,0-.55-1.13,0-1.13s.55,1.13,0,1.13Z"/><path class="cls-10" d="M92.51,89.76c-.55,0-.55-1.13,0-1.13s.56,1.13,0,1.13Z"/><path class="cls-10" d="M88.23,86.23c-.56,0-.56-1.13,0-1.13s.55,1.13,0,1.13Z"/><path class="cls-10" d="M75.58,87l.6.73a.69.69,0,0,1,0,.8.36.36,0,0,1-.6,0L75,87.78a.69.69,0,0,1,0-.8.37.37,0,0,1,.61,0Z"/><path class="cls-10" d="M78.06,89l.61.73a.73.73,0,0,1,0,.8.36.36,0,0,1-.61,0l-.61-.73a.73.73,0,0,1,0-.8.37.37,0,0,1,.61,0Z"/><path class="cls-10" d="M73.44,90.73l.61.72a.73.73,0,0,1,0,.8.36.36,0,0,1-.61,0l-.6-.73a.68.68,0,0,1,0-.79.36.36,0,0,1,.6,0Z"/><path class="cls-10" d="M67.62,90l.6.73a.69.69,0,0,1,0,.8.37.37,0,0,1-.61,0l-.6-.73a.69.69,0,0,1,0-.8.36.36,0,0,1,.61,0Z"/><path class="cls-10" d="M62.71,90.73l.61.72a.73.73,0,0,1,0,.8.36.36,0,0,1-.61,0l-.61-.73a.71.71,0,0,1,0-.79.36.36,0,0,1,.61,0Z"/><path class="cls-10" d="M79,86.33l.11.17a.75.75,0,0,1,.12.4.65.65,0,0,1-.12.4.37.37,0,0,1-.61,0l-.11-.17a.75.75,0,0,1-.12-.4.68.68,0,0,1,.12-.4.37.37,0,0,1,.61,0Z"/><path class="cls-10" d="M73.25,84.93v.34c0,.3-.2.58-.43.57a.53.53,0,0,1-.43-.57v-.34c0-.29.2-.57.43-.56a.51.51,0,0,1,.43.56Z"/><path class="cls-10" d="M70.19,85.71v.34c0,.3-.2.58-.43.57a.52.52,0,0,1-.43-.57v-.34c0-.29.19-.58.43-.56a.52.52,0,0,1,.43.56Z"/><path class="cls-10" d="M71.77,86.84v.34c0,.3-.19.58-.43.57a.52.52,0,0,1-.42-.57v-.34c0-.29.19-.58.42-.56a.51.51,0,0,1,.43.56Z"/><path class="cls-10" d="M68.58,87.77v.34c0,.29-.2.57-.43.56a.51.51,0,0,1-.43-.56v-.34c0-.3.19-.58.43-.57a.53.53,0,0,1,.43.57Z"/><path class="cls-10" d="M64.8,89.49v.34c0,.3-.2.58-.43.57a.53.53,0,0,1-.43-.57v-.34c0-.29.2-.58.43-.56a.52.52,0,0,1,.43.56Z"/><path class="cls-10" d="M70.29,89.49v.34c0,.3-.19.58-.43.57a.52.52,0,0,1-.42-.57v-.34c0-.29.19-.58.42-.56a.51.51,0,0,1,.43.56Z"/><path class="cls-10" d="M73.68,88.5v.34c0,.3-.2.58-.43.57a.53.53,0,0,1-.43-.57V88.5c0-.29.2-.58.43-.56a.52.52,0,0,1,.43.56Z"/><path class="cls-10" d="M77.17,92.05v.34c0,.3-.2.58-.43.57a.52.52,0,0,1-.43-.57v-.34c0-.29.19-.57.43-.56a.52.52,0,0,1,.43.56Z"/><path class="cls-10" d="M60,89.05c-.56,0-.56-1.13,0-1.13s.55,1.13,0,1.13Z"/><path class="cls-10" d="M54.57,91.3c-.55,0-.55-1.13,0-1.13s.56,1.13,0,1.13Z"/><path class="cls-10" d="M56.75,90.73c-.55,0-.55-1.13,0-1.13s.56,1.13,0,1.13Z"/><path class="cls-10" d="M58.79,91.86c-.55,0-.55-1.13,0-1.13s.55,1.13,0,1.13Z"/><path class="cls-10" d="M61.74,90.23c-.56,0-.56-1.13,0-1.13s.55,1.13,0,1.13Z"/><path class="cls-10" d="M65.81,92.79c-.55,0-.55-1.13,0-1.13s.55,1.13,0,1.13Z"/><path class="cls-10" d="M70.41,93c-.56,0-.56-1.13,0-1.13S71,93,70.41,93Z"/><path class="cls-10" d="M66.12,89.45c-.56,0-.56-1.13,0-1.13s.55,1.13,0,1.13Z"/></svg>