<svg id="Layer_1" data-name="Layer 1" xmlns="http://www.w3.org/2000/svg" viewBox="0 0 206.76 192.71"><defs><style>.cls-1{fill:red;}</style></defs><path class="cls-1" d="M158,82.78c-2.94-9.21-13.8-9.85-27.55-10.65-2.66-.16-6.32-.37-8.71-.65-1-2.16-2.2-5.48-3.12-7.91C113.8,50.83,110,40.76,100.32,40.66h-.11c-9.63,0-13.6,9.94-18.62,22.53-1,2.41-2.28,5.71-3.28,7.85-2.4.23-6.06.37-8.73.47C55.82,72,45,72.45,41.82,81.6s5.29,16.12,16,24.77c2,1.63,4.77,3.85,6.54,5.44-.53,2.29-1.49,5.63-2.19,8.07-3.78,13.15-6.76,23.53,1.18,29.33a12,12,0,0,0,7.13,2.25h0c5.76,0,11.87-3.65,21.35-9.6,2.26-1.42,5.37-3.38,7.48-4.53,2.08,1.19,5.14,3.21,7.38,4.68,9.47,6.22,15.57,10,21.42,10a12,12,0,0,0,6.9-2.11c8-5.63,5.29-16.07,1.78-29.29-.65-2.45-1.54-5.81-2-8.11,1.8-1.56,4.6-3.73,6.65-5.32C152.33,98.78,160.94,92.12,158,82.78Zm-33.33,26.29c-1.61,4.69,8.76,29.8,4.66,32.66s-24.83-15-29.87-15-26.13,17.39-30.17,14.45,6.85-27.84,5.34-32.56-24.91-19-23.31-23.73,29.07-2.2,33.17-5.06,10.73-29.17,15.77-29.12,11.11,26.48,15.15,29.43,31.55,1,33.06,5.73S126.23,104.39,124.63,109.07Z"/></svg>