<svg xmlns="http://www.w3.org/2000/svg" xmlns:xlink="http://www.w3.org/1999/xlink" viewBox="0 0 206.76 192.71"><defs><style>.cls-1{isolation:isolate;}.cls-2{fill:url(#linear-gradient);}.cls-3{fill:url(#linear-gradient-2);}.cls-4{opacity:0.1;fill:url(#linear-gradient-3);}.cls-5{opacity:0.2;fill:url(#linear-gradient-4);}.cls-6{fill:url(#linear-gradient-5);}.cls-7{fill:url(#linear-gradient-6);}.cls-8{fill:url(#linear-gradient-7);}.cls-9{fill:url(#linear-gradient-8);}.cls-10{fill:url(#linear-gradient-9);}.cls-11{fill:url(#linear-gradient-10);}.cls-12{fill:url(#linear-gradient-11);}.cls-13{fill:url(#linear-gradient-12);}.cls-14{fill:url(#linear-gradient-13);}.cls-15{fill:url(#linear-gradient-14);}.cls-16{fill:url(#linear-gradient-15);}.cls-17{fill:url(#linear-gradient-16);}.cls-18{fill:url(#linear-gradient-17);}.cls-19{stroke:#471d00;stroke-miterlimit:10;stroke-width:0.5px;fill:url(#linear-gradient-18);}.cls-20{mix-blend-mode:multiply;}.cls-21{fill:url(#linear-gradient-19);}.cls-22{mix-blend-mode:screen;opacity:0.3;fill:url(#linear-gradient-20);}</style><linearGradient id="linear-gradient" x1="104.99" y1="27.9" x2="104.99" y2="49.37" gradientUnits="userSpaceOnUse"><stop offset="0" stop-color="#c6c4c5"/><stop offset="0.18" stop-color="#bebcbd"/><stop offset="0.45" stop-color="#aaa7a8"/><stop offset="0.77" stop-color="#888586"/><stop offset="1" stop-color="#6c696a"/></linearGradient><linearGradient id="linear-gradient-2" x1="79.78" y1="59.97" x2="125.43" y2="139.05" xlink:href="#linear-gradient"/><linearGradient id="linear-gradient-3" x1="100.42" y1="114.88" x2="141.71" y2="114.88" xlink:href="#linear-gradient"/><linearGradient id="linear-gradient-4" x1="61.65" y1="77.66" x2="141.53" y2="77.66" xlink:href="#linear-gradient"/><linearGradient id="linear-gradient-5" x1="101.78" y1="43.59" x2="101.82" y2="77.41" xlink:href="#linear-gradient"/><linearGradient id="linear-gradient-6" x1="58.97" y1="64.73" x2="98.27" y2="64.73" xlink:href="#linear-gradient"/><linearGradient id="linear-gradient-7" x1="76.54" y1="63.07" x2="113.31" y2="63.07" xlink:href="#linear-gradient"/><linearGradient id="linear-gradient-8" x1="93.75" y1="63.34" x2="123.34" y2="63.34" xlink:href="#linear-gradient"/><linearGradient id="linear-gradient-9" x1="109.78" y1="65.47" x2="132.42" y2="65.47" xlink:href="#linear-gradient"/><linearGradient id="linear-gradient-10" x1="137.64" y1="75.47" x2="148.85" y2="75.47" xlink:href="#linear-gradient"/><linearGradient id="linear-gradient-11" x1="123.91" y1="69.69" x2="141.59" y2="69.69" xlink:href="#linear-gradient"/><linearGradient id="linear-gradient-12" x1="107.83" y1="63.76" x2="145.85" y2="63.76" xlink:href="#linear-gradient"/><linearGradient id="linear-gradient-13" x1="92.91" y1="63.36" x2="130.08" y2="63.36" xlink:href="#linear-gradient"/><linearGradient id="linear-gradient-14" x1="82.71" y1="63.3" x2="112.86" y2="63.3" xlink:href="#linear-gradient"/><linearGradient id="linear-gradient-15" x1="73.32" y1="65.35" x2="96.86" y2="65.35" xlink:href="#linear-gradient"/><linearGradient id="linear-gradient-16" x1="55.59" y1="74.7" x2="68.36" y2="74.7" xlink:href="#linear-gradient"/><linearGradient id="linear-gradient-17" x1="64.16" y1="69.14" x2="82.01" y2="69.14" xlink:href="#linear-gradient"/><linearGradient id="linear-gradient-18" x1="105.15" y1="26.57" x2="115.31" y2="26.57" xlink:href="#linear-gradient"/><linearGradient id="linear-gradient-19" x1="106.38" y1="26.65" x2="114.27" y2="26.65" xlink:href="#linear-gradient"/><linearGradient id="linear-gradient-20" x1="67.03" y1="116.11" x2="87.44" y2="116.11" xlink:href="#linear-gradient"/></defs><g class="cls-1"><g id="Layer_1" data-name="Layer 1"><path class="cls-2" d="M107.25,21.8s-6.13,1.6-12.4,24.08l-.59,4.23,7.74.14.07-4.51S103.86,37.2,114.4,31C118.49,28.58,112.28,21.07,107.25,21.8Z"/><path class="cls-3" d="M141.53,81.51a147,147,0,0,0-39.3-5.15,147,147,0,0,0-39.3,5.15,12.8,12.8,0,0,1-1.29,2.42c0,24,8.69,65.72,34.64,65.72.5,3.27,2.12,5.67,4,5.67s3.57-2.44,4.05-5.76c31.1,0,37.19-42.79,37.19-66.6v-.09C141.56,82.41,141.55,82,141.53,81.51Z"/><path class="cls-4" d="M127.19,74.44s14.52-.26,14.52,9.38c0,12.25-2.12,30.22-7.3,42.28-4.54,10.55-12.37,23.46-30,23.46,0,0-.82,5.77-4,5.77,0,0,2.07-3.51,2.07-6.45C102.49,148.88,127.19,126.5,127.19,74.44Z"/><path class="cls-5" d="M61.65,83.86s0,3.52.17,5a37.36,37.36,0,0,1,8.4-3.67c7-1.86,35-5.69,61.26.55,3.22.76,7.8,2.11,9.88,3.72,0,0,.17-4.38.17-5.58,0,0-3.34-11.14-6.45-13-13.2-8-48-5.56-61.66,1.59C69.79,74.34,61.65,83.86,61.65,83.86Z"/><path class="cls-6" d="M61.61,83.9a120.27,120.27,0,0,1,39.23-7.06,118.26,118.26,0,0,1,40.63,7.06s17.32-11-.35-23.32c-20-13.93-29.86-14.84-39.05-14.84-7.77,0-18.42.93-38,14.75C47.83,72,56.14,81,61.61,83.9Z"/><path class="cls-7" d="M98.27,46l-2,1.36-.86.54Q92,50,88.72,52.37l-1.22.89C85.22,55,83,56.71,80.9,58.58c-.43.36-.85.74-1.27,1.13A87,87,0,0,0,73,66.38c-.42.48-.84.94-1.24,1.43l-.51.6a86.66,86.66,0,0,0-6.08,8.22c-.44.65-.86,1.31-1.28,2-.64,1-2.38,3.85-3,4.89a13.06,13.06,0,0,1-2-1.37l3.65-5.5c.42-.63.84-1.26,1.27-1.87a88.78,88.78,0,0,1,6.64-8.38c.4-.46.82-.91,1.23-1.37a91.06,91.06,0,0,1,6.61-6.43l1.26-1.1C81.78,55.66,84,54,86.28,52.37l1.22-.84c2.25-1.51,6.26-4.16,8.59-5.41Z"/><path class="cls-8" d="M113.31,46.8c-.27.16-1.93.9-2.2,1.07-2.28,1.44-4.49,2.94-6.65,4.5l-1.22.89c-2.27,1.69-4.48,3.45-6.6,5.32-.43.36-.85.74-1.27,1.13a83.48,83.48,0,0,0-6.63,6.67c-.42.48-.84.94-1.24,1.43q-.27.3-.51.6a86.66,86.66,0,0,0-6.08,8.22c-.32.47-1.18,1.9-1.48,2.38-.22,0-2.6.54-2.89.59.38-.61,1.42-2.36,1.82-3s.84-1.26,1.27-1.87a90.32,90.32,0,0,1,6.63-8.38L87.5,65c2.1-2.26,4.31-4.41,6.6-6.43l1.27-1.1c2.14-1.82,4.37-3.53,6.65-5.11l1.22-.84a77.76,77.76,0,0,1,7-4.2l1.79-.8C112.17,46.55,113,46.76,113.31,46.8Z"/><path class="cls-9" d="M123.34,50.17c-1,.65-2.22,1.52-3.14,2.2l-1.22.89c-2.28,1.69-4.48,3.45-6.6,5.32-.43.36-.85.74-1.27,1.13a87,87,0,0,0-6.63,6.67c-.42.48-.84.94-1.24,1.43q-.27.3-.51.6a88.54,88.54,0,0,0-6.09,8.22s-.24.28-.26.32c-.44,0-2.54.13-2.63.13l.35-.45c.41-.63.84-1.26,1.27-1.87A88.68,88.68,0,0,1,102,66.38L103.24,65a91.06,91.06,0,0,1,6.61-6.43c.41-.37.83-.74,1.26-1.1,2.15-1.82,4.37-3.53,6.65-5.11l1.22-.84c.87-.58,2.12-1.39,3-1.93C122.45,49.77,122.88,50,123.34,50.17Z"/><path class="cls-10" d="M132.42,55c-1.29,1-3.06,2.52-4.31,3.62-.42.36-.84.74-1.26,1.13a83.48,83.48,0,0,0-6.63,6.67c-.42.48-.84.94-1.24,1.43q-.27.3-.51.6a88.54,88.54,0,0,0-6.09,8.22l-.12.19h0l-1,0-1.31,0h-.12l.06-.1c.41-.63.84-1.26,1.27-1.87a90.32,90.32,0,0,1,6.63-8.38c.4-.46.82-.91,1.24-1.37a90.92,90.92,0,0,1,6.6-6.43c.42-.37.84-.74,1.27-1.1,1.22-1,2.87-2.39,4.15-3.35C131.45,54.43,132,54.64,132.42,55Z"/><path class="cls-11" d="M148.85,70.28c-.12.17-4.87,6.17-5,6.35-.44.65-.86,1.31-1.27,2-.89,1.41-2.05,3.21-2.87,4.66-.13-.15-1.51-.49-2.08-.73.91-1.6,2.65-4.37,3.67-5.91.42-.63.85-1.26,1.28-1.87s5-6.59,5.32-7.09A10.3,10.3,0,0,1,148.85,70.28Z"/><path class="cls-12" d="M141.59,60.94c-1.1,1.1-4.59,4.27-5.63,5.44-.42.48-.84.94-1.24,1.43q-.27.3-.51.6a86.77,86.77,0,0,0-6.09,8.22c-.33.5-1.65,2.37-2,2.88-.22,0-1.85-.4-2.25-.45.26-.41,1.4-2,1.67-2.43.41-.63.83-1.26,1.27-1.87a88.68,88.68,0,0,1,6.63-8.38L134.72,65c1.1-1.19,4.21-4,5.37-5.13C140.57,60.22,140.91,60.42,141.59,60.94Z"/><path class="cls-13" d="M144.36,81.56c-.59-1-1.14-1.94-1.77-3-.42-.67-.84-1.33-1.28-2a86.66,86.66,0,0,0-6.08-8.22l-.51-.6c-.4-.49-.82-1-1.24-1.43a87,87,0,0,0-6.63-6.67c-.42-.39-.84-.77-1.27-1.13-2.12-1.87-4.32-3.63-6.6-5.32l-1.22-.89c-2.16-1.56-4.37-3.06-6.65-4.5l-.86-.54L107.83,46l2.12.24c2.33,1.23,6.79,3.83,9,5.33l1.22.84c2.28,1.58,4.5,3.29,6.65,5.11.43.36.84.73,1.26,1.1A91.06,91.06,0,0,1,134.72,65L136,66.38a90.32,90.32,0,0,1,6.63,8.38c.43.61.86,1.24,1.27,1.87.17.25,1.82,3.06,2,3.31a9.9,9.9,0,0,1-.68.82C144.93,81,144.72,81.22,144.36,81.56Z"/><path class="cls-14" d="M130.08,80.41c-.29,0-2.57-.58-2.79-.61-.3-.48-1.4-2.7-1.71-3.17a88.54,88.54,0,0,0-6.09-8.22q-.24-.3-.51-.6c-.4-.49-.82-1-1.24-1.43a83.48,83.48,0,0,0-6.63-6.67c-.42-.39-.84-.77-1.26-1.13-2.13-1.87-4.34-3.63-6.61-5.32L102,52.37c-2.16-1.56-4.37-3.06-6.65-4.5-.27-.17-2.19-1.17-2.46-1.33.23-.06,1.14-.22,1.27-.23l2,1a77.76,77.76,0,0,1,7,4.2c.4.28.82.55,1.22.84a83.28,83.28,0,0,1,6.65,5.11l1.27,1.1c2.29,2,4.5,4.17,6.6,6.43l1.24,1.37a90.32,90.32,0,0,1,6.63,8.38c.43.61.86,1.24,1.27,1.87S129.7,79.79,130.08,80.41Z"/><path class="cls-15" d="M112.86,77.45c-.08,0-2.22-.23-2.66-.25l-.36-.57a88.54,88.54,0,0,0-6.09-8.22q-.24-.3-.51-.6c-.4-.49-.82-1-1.24-1.43a87,87,0,0,0-6.63-6.67c-.42-.39-.84-.77-1.27-1.13C92,56.71,89.78,55,87.5,53.26l-1.22-.89c-.93-.68-2.61-2-3.57-2.64.46-.19.9-.4,1.38-.57.89.53,2.54,1.79,3.41,2.37l1.22.84c2.28,1.58,4.5,3.29,6.65,5.11.43.36.85.73,1.27,1.1,2.29,2,4.5,4.17,6.6,6.43l1.24,1.37a88.68,88.68,0,0,1,6.63,8.38c.44.61.86,1.24,1.27,1.87C112.43,76.7,112.82,77.38,112.86,77.45Z"/><path class="cls-16" d="M96.86,76.92,94.35,77l-.25-.41A86.77,86.77,0,0,0,88,68.41q-.24-.3-.51-.6c-.4-.49-.82-1-1.24-1.43a83.48,83.48,0,0,0-6.63-6.67c-.42-.39-.83-.77-1.26-1.13-1.25-1.1-3.75-3-5.05-4.07.43-.32,1-.56,1.49-.86,1.28,1,3.59,2.79,4.82,3.83.43.36.85.73,1.27,1.1A90.92,90.92,0,0,1,87.5,65c.42.46.84.91,1.24,1.37a88.68,88.68,0,0,1,6.63,8.38c.43.61.86,1.24,1.27,1.87Z"/><path class="cls-17" d="M68.36,81.68c-.7.22-1.67.48-1.94.59-.8-1.45-1.64-2.25-2.53-3.66a19.57,19.57,0,0,0-1.27-2c-4.22-5.42-7-7.12-7-7.12A15.24,15.24,0,0,1,57,67.13c.38.51,5.27,5.32,6.88,7.63.43.61.86,1.24,1.28,1.87C66.19,78.17,67.46,80.09,68.36,81.68Z"/><path class="cls-18" d="M82,78.55c-.4,0-2.1.38-2.31.41-.32-.51-1-1.83-1.34-2.33a86.77,86.77,0,0,0-6.09-8.22q-.24-.3-.51-.6c-.4-.49-.82-1-1.23-1.43-1-1.18-5.26-4.82-6.37-5.93.55-.41,1.45-1,1.63-1.14,1.17,1.14,4.86,4.5,6,5.7L73,66.38a88.68,88.68,0,0,1,6.63,8.38c.44.61.86,1.24,1.28,1.87C81.17,77,81.75,78.14,82,78.55Z"/><path class="cls-19" d="M112.53,23.82c2.79,2.1,3.24,4.34,2.41,6.62-.68,1.88-5.57-.71-6.45-1.43s-4.28-4-3.09-5.58S109,21.14,112.53,23.82Z"/><g class="cls-20"><path class="cls-21" d="M111.54,26.86s0,.07,0,.11a.11.11,0,0,1-.14.05.64.64,0,0,1-.23-.1c-1-.63-1.24-2,0-.91s1.41,2.31.14,1.55c-1.7-1-2.57-3.13-1.78-3.17,1.26-.15,4.56,3.16,4.35,4.85-.09.86-1.13.61-1.9.23a13.37,13.37,0,0,1-4.61-4.29c-.87-1.31-1.11-2.47-1-1.87a3.33,3.33,0,0,0,.13.45c1.06,3.17,5.88,7.41,7.37,6.17,1.1-.9-.52-3.45-2-4.67-2.52-2.23-4-1.08-2.31,1.12.64.83,1.84,1.83,2.48,1.62.85-.32-.29-2-1.31-2.46-.65-.29-.9.25-.27,1,.5.57,1.09.77,1,.35C111.54,26.8,111.53,26.81,111.54,26.86Z"/></g><path class="cls-22" d="M72.52,95.14s.35-7-3.94-5.07.63,32.63,11.49,45.12,8.19,7.74,1.84-5.28S72.52,95.14,72.52,95.14Z"/></g></g></svg>