<svg xmlns="http://www.w3.org/2000/svg" xmlns:xlink="http://www.w3.org/1999/xlink" viewBox="0 0 451.65 370.79"><defs><style>.cls-1{isolation:isolate;}.cls-2{fill:#207cba;}.cls-3{fill:#1f383a;}.cls-4{fill:#00368c;}.cls-5{fill:#49e017;stroke:#000f38;}.cls-11,.cls-12,.cls-13,.cls-14,.cls-15,.cls-16,.cls-17,.cls-18,.cls-19,.cls-20,.cls-21,.cls-22,.cls-23,.cls-24,.cls-40,.cls-5{stroke-miterlimit:10;}.cls-6{fill:#3e6370;}.cls-7{fill:#a3b8c6;}.cls-8{fill:#87a0ad;}.cls-9{fill:#021a40;}.cls-10{fill:#0f1119;}.cls-11,.cls-12,.cls-13,.cls-14,.cls-15,.cls-16,.cls-17,.cls-18,.cls-19,.cls-20,.cls-21,.cls-22,.cls-23,.cls-24{fill:#cacaff;stroke-width:0.25px;}.cls-11{stroke:url(#radial-gradient);}.cls-12{stroke:url(#radial-gradient-2);}.cls-13{stroke:url(#radial-gradient-3);}.cls-14{stroke:url(#radial-gradient-4);}.cls-15{stroke:url(#radial-gradient-5);}.cls-16{stroke:url(#radial-gradient-6);}.cls-17{stroke:url(#radial-gradient-7);}.cls-18{stroke:url(#radial-gradient-8);}.cls-19{stroke:url(#radial-gradient-9);}.cls-20{stroke:url(#radial-gradient-10);}.cls-21{stroke:url(#radial-gradient-11);}.cls-22{stroke:url(#radial-gradient-12);}.cls-23{stroke:url(#radial-gradient-13);}.cls-24{stroke:url(#radial-gradient-14);}.cls-25,.cls-36{fill:#fff;}.cls-25,.cls-35{mix-blend-mode:overlay;}.cls-25{opacity:0.2;}.cls-26{fill:#648793;}.cls-27,.cls-31{mix-blend-mode:multiply;}.cls-27,.cls-35{opacity:0.5;}.cls-28{fill:#002e72;}.cls-29{fill:#00388e;}.cls-30{fill:#00273d;}.cls-32{fill:#007dc6;}.cls-33{fill:#fff53b;}.cls-34{fill:#f9ff00;}.cls-37{fill:#ffec00;}.cls-38{fill:#07395b;}.cls-39{fill:#e2ba13;}.cls-40{fill:none;stroke:#293459;}</style><radialGradient id="radial-gradient" cx="143.13" cy="101.77" r="1.57" gradientTransform="translate(3.16 66.55) rotate(-0.58)" gradientUnits="userSpaceOnUse"><stop offset="0" stop-color="#dedede"/><stop offset="0.27" stop-color="#dbdbdb"/><stop offset="0.44" stop-color="#d3d3d3"/><stop offset="0.58" stop-color="#c4c4c4"/><stop offset="0.71" stop-color="#afafaf"/><stop offset="0.83" stop-color="#949494"/><stop offset="0.94" stop-color="#747474"/><stop offset="1" stop-color="#5e5e5e"/></radialGradient><radialGradient id="radial-gradient-2" cx="130.15" cy="108.12" r="1.57" xlink:href="#radial-gradient"/><radialGradient id="radial-gradient-3" cx="116.69" cy="117.34" r="1.57" xlink:href="#radial-gradient"/><radialGradient id="radial-gradient-4" cx="155.35" cy="97.83" r="1.57" xlink:href="#radial-gradient"/><radialGradient id="radial-gradient-5" cx="170.27" cy="93.9" r="1.57" xlink:href="#radial-gradient"/><radialGradient id="radial-gradient-6" cx="186.42" cy="91.41" r="1.57" xlink:href="#radial-gradient"/><radialGradient id="radial-gradient-7" cx="204.03" cy="89.55" r="1.57" xlink:href="#radial-gradient"/><radialGradient id="radial-gradient-8" cx="219.56" cy="89.14" r="1.57" xlink:href="#radial-gradient"/><radialGradient id="radial-gradient-9" cx="234.68" cy="89.34" r="1.57" xlink:href="#radial-gradient"/><radialGradient id="radial-gradient-10" cx="252.7" cy="91" r="1.57" xlink:href="#radial-gradient"/><radialGradient id="radial-gradient-11" cx="270.1" cy="93.9" r="1.57" xlink:href="#radial-gradient"/><radialGradient id="radial-gradient-12" cx="286.88" cy="97.42" r="1.57" xlink:href="#radial-gradient"/><radialGradient id="radial-gradient-13" cx="303.86" cy="104.05" r="1.57" xlink:href="#radial-gradient"/><radialGradient id="radial-gradient-14" cx="319.6" cy="113.16" r="1.57" xlink:href="#radial-gradient"/></defs><g class="cls-1"><g id="Layer_1" data-name="Layer 1"><path class="cls-2" d="M380.06,254.82c.26,25.75-70.69,77.57-158.85,78.46S61.06,283.78,60.8,258s71-47.35,159.16-48.24S379.8,229.06,380.06,254.82Z"/><path class="cls-3" d="M376,254.9c.26,25-68.76,75.46-154.51,76.32S65.69,283.08,65.44,258,134.5,212,220.25,211.09,375.72,229.85,376,254.9Z"/><path class="cls-4" d="M376,254.9c.25,25.06-68.77,75.46-154.52,76.32-56.71.57-106.53-20.67-133.84-42.37a454.6,454.6,0,0,0,175.42,0,451.36,451.36,0,0,0,112.23-38.14A13.7,13.7,0,0,1,376,254.9Z"/><ellipse class="cls-5" cx="223.95" cy="306.18" rx="16.82" ry="11.75"/><ellipse class="cls-5" cx="111.95" cy="280.83" rx="11.75" ry="16.82" transform="translate(-189.62 302.09) rotate(-72.3)"/><ellipse class="cls-5" cx="336.41" cy="273.91" rx="16.82" ry="11.75" transform="translate(-67.36 115.26) rotate(-17.7)"/><path class="cls-6" d="M410.23,235.33s-55.89,45.3-189,48.3C74.35,285.1,30.8,239.14,30.8,239.14l-.15-15.37L410.07,220Z"/><path class="cls-7" d="M31.24,225s11.44-40.3,78.3-64.72c72-26.32,153.87-23.09,211.48-6.55s85.55,47.61,89.05,66.36c0,0-48.74,42-191.79,43.49S31.24,225,31.24,225Z"/><path class="cls-8" d="M410.07,220s-48.74,42.19-191.79,43.63S31.24,225,31.24,225s221,36.3,201.94-46.36C233.18,178.65,363.61,187,410.07,220Z"/><path class="cls-9" d="M116.21,182.58S155.86,206.49,226,205.79s104.33-27.61,104.33-27.61-22-28.45-106.82-27.6S116.21,182.58,116.21,182.58Z"/><path class="cls-10" d="M124.73,186.78l-8.52-4.2s22.94-31.15,107.3-32,106.82,27.6,106.82,27.6l-6.23,3.16S298.81,155.21,223.43,156,124.73,186.78,124.73,186.78Z"/><circle class="cls-11" cx="147.31" cy="166.88" r="1.45"/><circle class="cls-12" cx="134.4" cy="173.36" r="1.45"/><circle class="cls-13" cx="121.03" cy="182.71" r="1.45"/><circle class="cls-14" cx="159.49" cy="162.82" r="1.45"/><circle class="cls-15" cx="174.36" cy="158.74" r="1.45"/><circle class="cls-16" cx="190.49" cy="156.09" r="1.45"/><circle class="cls-17" cx="208.08" cy="154.05" r="1.45"/><circle class="cls-18" cx="223.61" cy="153.48" r="1.45"/><circle class="cls-19" cx="238.73" cy="153.53" r="1.45"/><circle class="cls-20" cx="256.76" cy="155.01" r="1.45"/><circle class="cls-21" cx="274.19" cy="157.73" r="1.45"/><circle class="cls-22" cx="291" cy="161.09" r="1.45"/><circle class="cls-23" cx="308.05" cy="167.54" r="1.45"/><circle class="cls-24" cx="323.88" cy="176.5" r="1.45"/><path class="cls-25" d="M128.81,188.32s-30.82,9-55,57.11c0,0,6.26,3.16,22.66,6.91,0,0,13.1-38.16,48.87-57.75Z"/><path class="cls-26" d="M31.24,225s41.23,40,187,38.58S410,219.91,410,219.91,369.14,269,218.91,270.49,31.24,225,31.24,225Z"/><g class="cls-27"><path class="cls-28" d="M243.36,230.7a22.82,22.82,0,1,1-23.29-22.35A22.83,22.83,0,0,1,243.36,230.7Z"/></g><path class="cls-29" d="M242.82,229.34a22.31,22.31,0,1,1-22.77-21.85A22.31,22.31,0,0,1,242.82,229.34Z"/><path class="cls-30" d="M242.59,229.33a22.48,22.48,0,0,1-19.2,22.5c-11.6,1.68-22.32-6.67-24.58-17.9-2.14-10.65,4.26-21.28,14.26-25.06,11.19-4.21,23.6,2,28,12.8a21.82,21.82,0,0,1,1.52,7.66c0,.13.46.13.45,0a22.61,22.61,0,0,0-15.12-20.71,23,23,0,0,0-23.91,5.9c-6.84,7.11-7.77,18.17-2.94,26.61C205.56,249,214.66,253,223.5,252c11.31-1.32,19.62-11.46,19.54-22.66C243,229.21,242.59,229.21,242.59,229.33Z"/><g class="cls-31"><path class="cls-32" d="M238.71,229.42a18.2,18.2,0,1,1-18.57-17.82A18.2,18.2,0,0,1,238.71,229.42Z"/></g><path class="cls-33" d="M236.8,229.46a16.29,16.29,0,1,1-16.62-16A16.29,16.29,0,0,1,236.8,229.46Z"/><path class="cls-34" d="M236.58,229.45A16.39,16.39,0,0,1,221.42,246c-9.14.72-16.62-7-17-15.82-.34-8.64,6.73-15.87,15.16-16.51,9.14-.71,16.62,7,17,15.82,0,.13.45.14.44,0a16.67,16.67,0,0,0-16.84-16.05c-9.07,0-16.19,7.82-16.17,16.7,0,9.11,8,16.07,16.83,16,9.08,0,16.19-7.82,16.18-16.7C237,229.34,236.58,229.32,236.58,229.45Z"/><g class="cls-35"><path class="cls-36" d="M227.39,218.76c1.52,3.6-1.33,8.24-6.36,10.35s-10.34.9-11.86-2.71,1.34-8.24,6.37-10.35S225.88,215.15,227.39,218.76Z"/></g><path class="cls-37" d="M221.61,213.56a13.79,13.79,0,1,1-2.85.05,16.33,16.33,0,1,0,2.85-.05Z"/><g class="cls-27"><path class="cls-28" d="M345.75,203c5.73,11,19.36,19.67,30.44,19.44s15.4-9.3,9.67-20.26-19.36-19.67-30.44-19.44S340,192,345.75,203Z"/></g><path class="cls-29" d="M347.85,201.77c5.54,10.61,18.71,19,29.43,18.8s14.89-9,9.35-19.6-18.73-19-29.43-18.78S342.3,191.18,347.85,201.77Z"/><path class="cls-38" d="M347.63,201.79A37.62,37.62,0,0,0,371.35,220c7.13,1.74,16.35.18,17.81-8.28.83-4.73-1.42-9.65-3.94-13.49a38,38,0,0,0-11.46-10.92c-6.62-4.23-16.69-7.67-24-3.2-6.3,3.84-4.91,12.13-2.09,17.68.06.12.49.09.43,0-2.16-4.27-3.49-9.32-1.32-13.85,2.35-4.93,8.36-6,13.26-5.5,10.84,1.08,21.35,9.17,26.41,18.58,2.25,4.18,3.45,9.4,1.33,13.86-2.36,4.92-8.37,6-13.27,5.5-10.84-1.08-21.34-9.17-26.41-18.59C348,201.65,347.57,201.68,347.63,201.79Z"/><path class="cls-28" d="M386.63,201a36,36,0,0,0-10.85-12.13,33.2,33.2,0,0,1,9.48,10.83c5.17,9.87,1.27,18-8.7,18.24s-22.24-7.63-27.4-17.49-1.35-17.85,8.37-18.23h-.33c-10.72.22-14.9,9-9.35,19.58s18.71,19,29.43,18.8S392.17,211.58,386.63,201Z"/><path class="cls-28" d="M352.45,201c4.48,8.57,15.12,15.36,23.77,15.18s12-7.26,7.56-15.82S368.65,185,360,185.13,348,192.39,352.45,201Z"/><path class="cls-33" d="M354,200.12c4,7.74,13.67,13.88,21.48,13.72s10.88-6.57,6.83-14.31-13.66-13.88-21.49-13.72S349.93,192.37,354,200.12Z"/><path class="cls-39" d="M353.76,200.11c3.91,7.2,12.2,13.5,20.63,13.8,3.33.12,6.7-.67,8.71-3.55,2.25-3.23,1-7.63-.59-10.82-3.64-7.25-12.4-13.5-20.63-13.8-3.33-.12-6.71.67-8.71,3.55-2.25,3.23-1,7.63.59,10.82.06.12.49.12.44,0-1.5-3-2.4-6.32-1.22-9.55,1.41-3.86,5.87-4.86,9.52-4.61,8,.58,15.83,6.67,19.58,13.58,1.57,2.89,2.37,6.37,1.21,9.54-1.41,3.86-5.87,4.87-9.51,4.61-8-.57-15.84-6.68-19.58-13.57C354.13,200,353.7,200,353.76,200.11Z"/><path class="cls-37" d="M382.29,199.53c-4.05-7.74-13.66-13.88-21.49-13.72s-10.87,6.56-6.82,14.31,13.67,13.88,21.48,13.72S386.34,207.27,382.29,199.53ZM374,208.64c-6.25.13-13.95-4.78-17.19-11s-.79-11.31,5.46-11.44,13.95,4.78,17.19,11S380.2,208.51,374,208.64Z"/><g class="cls-27"><path class="cls-28" d="M99.91,205.43c-5.51,11.08-19,20.06-30,20s-15.59-9-10.08-20.07,19-20,30.05-20S105.43,194.35,99.91,205.43Z"/></g><path class="cls-29" d="M97.79,204.29C92.46,215,79.46,223.68,68.74,223.67S53.67,215,59,204.27s18.34-19.38,29.05-19.38S103.12,193.58,97.79,204.29Z"/><path class="cls-38" d="M98,204.3A37.59,37.59,0,0,1,74.66,223c-7.1,1.88-16.34.51-18-7.91-.92-4.72,1.24-9.68,3.67-13.58a38,38,0,0,1,11.24-11.14c6.54-4.37,16.53-8,24-3.69,6.38,3.72,5.15,12,2.44,17.64,0,.12-.48.1-.43,0,2.08-4.31,3.3-9.39,1-13.88-2.44-4.88-8.47-5.82-13.36-5.23-10.82,1.3-21.16,9.6-26,19.11-2.16,4.23-3.25,9.46-1,13.88,2.45,4.87,8.48,5.83,13.37,5.24,10.82-1.3,21.16-9.61,26-19.12C97.63,204.17,98.07,204.19,98,204.3Z"/><path class="cls-28" d="M59,204.27a36,36,0,0,1,10.61-12.35,33.09,33.09,0,0,0-9.27,11c-5,10-.91,18.06,9.07,18.06s22.08-8.08,27-18,1-17.88-8.74-18.06h.34c10.71,0,15.07,8.69,9.74,19.4s-18.33,19.39-29.05,19.38S53.67,215,59,204.27Z"/><path class="cls-28" d="M93.17,203.56c-4.31,8.65-14.81,15.66-23.46,15.65s-12.18-7-7.87-15.67,14.81-15.66,23.46-15.65S97.48,194.91,93.17,203.56Z"/><path class="cls-33" d="M91.63,202.75c-3.9,7.83-13.39,14.16-21.21,14.15s-11-6.34-7.11-14.16,13.38-14.16,21.2-14.15S95.52,194.93,91.63,202.75Z"/><path class="cls-39" d="M91.84,202.74C88.08,210,79.91,216.48,71.5,217c-3.33.19-6.72-.53-8.78-3.37-2.32-3.19-1.17-7.61.37-10.83,3.49-7.32,12.12-13.75,20.34-14.21,3.33-.19,6.73.53,8.79,3.38,2.31,3.18,1.16,7.6-.38,10.82,0,.13-.48.13-.44,0,1.44-3,2.28-6.37,1-9.58-1.48-3.82-6-4.74-9.6-4.41-8,.74-15.7,7-19.31,14-1.51,2.92-2.24,6.42-1,9.57,1.48,3.82,6,4.75,9.61,4.41,8-.73,15.69-7,19.29-14C91.47,202.64,91.9,202.64,91.84,202.74Z"/><path class="cls-37" d="M70.42,216.9c7.82,0,17.31-6.32,21.21-14.15s.7-14.15-7.12-14.16-17.31,6.33-21.2,14.15S62.6,216.9,70.42,216.9Zm-4.28-16.56c3.11-6.25,10.71-11.32,17-11.32s8.8,5.08,5.69,11.34-10.72,11.32-17,11.32S63,206.6,66.14,200.34Z"/><path class="cls-40" d="M323.62,154.52c55.68,16.68,82.84,46.94,86.42,65.41l0,0,.16,15.37s-10.83,8.77-34.29,18.85c0,.24,0,.48,0,.72h0c.19,18.87-38.92,52.12-94.88,67.75a230.7,230.7,0,0,1-59.63,8.57,227.3,227.3,0,0,1-23.66-1l-.85-.09-3-.31q-5.6-.63-11-1.51l-.3-.05q-3.62-.58-7.17-1.28l-.21,0-1.21-.25q-7.08-1.43-13.86-3.22c-1.43-.38-2.86-.77-4.27-1.17C104.38,307.6,68,278.17,65.58,259.78,40.35,249.22,30.8,239.14,30.8,239.14l-.15-15.37h1c2.55-7,18-41.59,77.88-63.47q6.7-2.46,13.53-4.57C185.73,136.4,252.23,134.41,323.62,154.52Z"/></g></g></svg>