<svg id="Layer_1" data-name="Layer 1" xmlns="http://www.w3.org/2000/svg" viewBox="0 0 206.76 183.53"><defs><style>.cls-1,.cls-3{opacity:0.3;}.cls-2{fill:#73c0ff;}.cls-3{fill:#fff;}.cls-4{fill:#5fa4d3;}.cls-5{fill:#6eaeb5;}.cls-6{fill:#daffff;opacity:0.18;}.cls-7{fill:#326b87;stroke:#c0ffff;}.cls-10,.cls-7{stroke-miterlimit:10;}.cls-8{fill:#eacf8c;}.cls-9{fill:#ceaf6a;}.cls-10{fill:none;stroke:#42310f;}</style></defs><ellipse class="cls-1" cx="98.92" cy="117.71" rx="61.03" ry="12.6"/><path class="cls-2" d="M98.36,91.07c-34.36,0-62.21-7.31-62.21-16.32,0,16.81,24.74,34.41,28.6,39.46.39,4.79,15.28,8.63,33.61,8.63,18.13,0,32.9-3.76,33.58-8.47,3.8-5.45,28.63-22.78,28.63-39.62C160.57,83.76,132.71,91.07,98.36,91.07Z"/><path class="cls-3" d="M36.15,74.75c0,16.81,24.74,34.41,28.6,39.46.14,1.74,2.19,3.35,5.63,4.7l-.06-.31c-1.58-7.56-14.46-17-20.67-25.47a27.18,27.18,0,0,1-4.69-10C39.37,80.68,36.15,77.81,36.15,74.75Z"/><path class="cls-4" d="M160.57,74.75c0,2.13-1.56,4.17-4.4,6,0,.07,0,.11-.06.11-3.44,6.93-16.82,22.72-36.44,32.66-19.46,9.85-51.07,5-54.68.69l-.24,0c.39,4.78,15.29,8.62,33.61,8.62,18.13,0,32.9-3.76,33.58-8.47C135.74,108.92,160.57,91.59,160.57,74.75Z"/><path class="cls-5" d="M97.86,121.43c-14.77,0-27.38-2.33-32.43-5.62,3.15,4,16.69,7,32.93,7,18.11,0,32.88-3.76,33.58-8.46C128.73,118.4,114.69,121.43,97.86,121.43Z"/><path class="cls-6" d="M62.7,88.12c1.89,3.48,15.08,27.72,15.42,29.69.36,2.12,6.65,2.83,7,1.24.32-1.4-2.83-23.26-3.6-28.59A176.25,176.25,0,0,1,62.7,88.12Z"/><ellipse class="cls-7" cx="98.36" cy="75.82" rx="62.21" ry="15.25"/><path class="cls-8" d="M44.76,82.84c.2-2.29.27-4.6,2.93-4.46s3-1.82,2.84-3.08,2.66-4.49,4.18-4.49,6.46-1.26,6.65-4.49,5.32-6.45,6.27-6.59,8,1,9.11-.14S84,52,87.38,52.72s6.27,1,6.65.28,3.23-3.5,4.56-3.5a6.76,6.76,0,0,1,3.8,1.68,13.39,13.39,0,0,0,2.84,2.25c.76.28,3.23,2.24,4,2.24s8.74.14,8.93,2.8,4.75,4.35,7,4.35,6.26.7,7.4,2.1,7.22,4.63,8.93,4.77,4,2.52,4.56,3.36,7.42,5.83,9.89,6.53-3.73,3.18-3.73,3.18c-11.42,5.82-31,7.73-55.11,7.81C75.47,90.4,52.83,87.55,44.76,82.84Z"/><path class="cls-9" d="M77.57,82a.86.86,0,0,0-.06,1.64c.62.33,1.29.08,1.38-.37S78.17,81.84,77.57,82Z"/><path class="cls-9" d="M124.44,82.37c-.73.1-.64,1.28.2,1.37S125.61,82.22,124.44,82.37Z"/><path class="cls-9" d="M98,82.58c-.78.66,0,2.15.69,2.78s1.3-1.28,2-1.65S98.75,81.94,98,82.58Z"/><path class="cls-9" d="M71,80.83a.81.81,0,0,0,.23,1.52c.63.21,1.2-.12,1.2-.55A1.4,1.4,0,0,0,71,80.83Z"/><path class="cls-9" d="M66.88,71.57c-.73.09-.63,1.28.2,1.37S68.05,71.42,66.88,71.57Z"/><path class="cls-9" d="M88.07,85.23a.56.56,0,0,0-.1,1.1A.56.56,0,1,0,88.07,85.23Z"/><path class="cls-9" d="M80,85s2.68.14,3-1S78.57,83.86,80,85Z"/><path class="cls-9" d="M128.8,76.53a.81.81,0,0,0,.23,1.52c.63.21,1.2-.12,1.2-.55A1.4,1.4,0,0,0,128.8,76.53Z"/><path class="cls-9" d="M110.93,67.74c3.35.09,7.77-1.49,9.26-2A3.23,3.23,0,0,0,122,64.44c-.25-.16-.81-.46-1-.65a5.9,5.9,0,0,1-1-1,5.32,5.32,0,0,1-1.93,1.38c-2.3.59-3.23,1.71-5.6,2.17-4.44.86-8,.45-8.17.86S107.57,67.65,110.93,67.74Z"/><path class="cls-9" d="M61.3,75c2.77.7,8.34,1.81,8.09,1.22s-6.61-1-8.53-3.14a5,5,0,0,0-1.28-.87,1,1,0,0,0-1.06.07l-.18.14h0a.8.8,0,0,0,.08,1.37A11.49,11.49,0,0,0,61.3,75Z"/><path class="cls-9" d="M113.86,84.51a.45.45,0,0,1-.45.45.46.46,0,0,1,0-.91A.46.46,0,0,1,113.86,84.51Z"/><path class="cls-9" d="M105.47,85.69a.45.45,0,1,1-.9,0,.45.45,0,0,1,.9,0Z"/><ellipse class="cls-9" cx="116.94" cy="85.99" rx="0.45" ry="0.46"/><ellipse class="cls-9" cx="107.35" cy="85.99" rx="0.45" ry="0.46"/><path class="cls-9" d="M94.41,83a.32.32,0,0,1-.34.29.31.31,0,0,1-.33-.29.31.31,0,0,1,.33-.28A.31.31,0,0,1,94.41,83Z"/><path class="cls-9" d="M110.46,85a.31.31,0,0,1-.33.29.29.29,0,1,1,0-.57A.31.31,0,0,1,110.46,85Z"/><path class="cls-9" d="M94.07,86.93a.34.34,0,1,1-.34-.29A.32.32,0,0,1,94.07,86.93Z"/><path class="cls-9" d="M131.22,84a.34.34,0,1,1-.34-.29A.32.32,0,0,1,131.22,84Z"/><path class="cls-9" d="M122.83,84.87a.32.32,0,0,1-.34.29.31.31,0,0,1-.33-.29.31.31,0,0,1,.33-.28A.31.31,0,0,1,122.83,84.87Z"/><path class="cls-9" d="M136.66,83.14a.32.32,0,0,1-.34.28.29.29,0,1,1,0-.57A.32.32,0,0,1,136.66,83.14Z"/><path class="cls-9" d="M107.54,84.07a.32.32,0,0,1-.34.29.32.32,0,0,1-.34-.29.31.31,0,0,1,.34-.28A.32.32,0,0,1,107.54,84.07Z"/><path class="cls-9" d="M92.92,83a.32.32,0,0,1-.34.28.31.31,0,0,1-.34-.28.32.32,0,0,1,.34-.29A.32.32,0,0,1,92.92,83Z"/><ellipse class="cls-9" cx="96.02" cy="80.35" rx="0.34" ry="0.29"/><path class="cls-9" d="M91.66,86.23a.31.31,0,0,1-.33.28.31.31,0,0,1-.34-.28.32.32,0,0,1,.34-.29A.31.31,0,0,1,91.66,86.23Z"/><path class="cls-9" d="M95.62,82.22a.34.34,0,0,1-.68,0,.35.35,0,0,1,.68,0Z"/><path class="cls-9" d="M114,86.29a.34.34,0,1,1-.34-.29A.32.32,0,0,1,114,86.29Z"/><path class="cls-9" d="M86.44,80.9a.31.31,0,0,1-.33.28.31.31,0,0,1-.34-.28.32.32,0,0,1,.34-.29A.31.31,0,0,1,86.44,80.9Z"/><path class="cls-9" d="M96,86a.32.32,0,0,1-.34.28.29.29,0,1,1,0-.57A.32.32,0,0,1,96,86Z"/><path class="cls-9" d="M97.12,83a.32.32,0,0,1-.34.29.29.29,0,1,1,0-.57A.32.32,0,0,1,97.12,83Z"/><ellipse class="cls-9" cx="109.53" cy="81.88" rx="0.45" ry="0.46"/><path class="cls-9" d="M111.18,86.24a.45.45,0,1,1-.45-.46A.46.46,0,0,1,111.18,86.24Z"/><path class="cls-9" d="M59.14,80.46c-1.12,0-.86,1.18,0,1.65A1.48,1.48,0,0,0,61,81.4C61,81.09,60,80.46,59.14,80.46Z"/><path class="cls-9" d="M65.32,83.52c-.39-.65-2.15.15-1.89.55S65.84,84.38,65.32,83.52Z"/><path class="cls-9" d="M119,86c-.47-.56.51-1.17.86-1.17s.6,1.25.86,1.49S119.55,86.59,119,86Z"/><path class="cls-9" d="M83.2,67.21c-.43.07-1.2,1.26-.52,1.88s2-.7,2.15-1.09S83.71,67.13,83.2,67.21Z"/><path class="cls-9" d="M77.78,64.94a.44.44,0,1,0-.08.86C78.47,65.88,78.3,65,77.78,64.94Z"/><path class="cls-9" d="M81.39,61.1c-.31,0-.34,1.41.26,1.57S81.91,61.1,81.39,61.1Z"/><path class="cls-9" d="M84.83,63.69c-.35-.36.69-.94,1-.94a2.14,2.14,0,0,1,1.29,1.33C87.15,64.7,85.52,64.39,84.83,63.69Z"/><path class="cls-9" d="M99.53,68.7c-.25-.1.94-1,1.29-1a.74.74,0,0,1,.68.94C101.33,69.17,100.13,68.94,99.53,68.7Z"/><path class="cls-9" d="M91.19,73.25c.34,0,.86,1.64.35,1.64S90.07,73.33,91.19,73.25Z"/><path class="cls-9" d="M92.7,57.77c.47,0,.34.74,0,.78S92.18,57.73,92.7,57.77Z"/><path class="cls-9" d="M93.94,58c-.24.07-.39.94,0,1.06s.34-.35.86-.31S94.46,57.89,93.94,58Z"/><path class="cls-9" d="M95.06,60.32c0-.51-1.2-.2-1.25-.08S95,61,95.06,60.32Z"/><path class="cls-9" d="M92.31,61.37c-.29-.09-.56.2-.17.4S92.91,61.57,92.31,61.37Z"/><path class="cls-9" d="M67.13,64.08a.39.39,0,0,1-.78,0,.39.39,0,0,1,.78,0Z"/><ellipse class="cls-9" cx="62.5" cy="69.15" rx="0.39" ry="0.39"/><path class="cls-9" d="M63.51,66.36a.32.32,0,0,1,.39.21.3.3,0,0,1-.27.33.33.33,0,0,1-.39-.22A.29.29,0,0,1,63.51,66.36Z"/><path class="cls-9" d="M62.45,71.16a.33.33,0,0,1,.39.22.29.29,0,0,1-.27.32.31.31,0,0,1-.39-.21A.3.3,0,0,1,62.45,71.16Z"/><path class="cls-9" d="M57.38,74.72a.32.32,0,0,1,.39.21.3.3,0,0,1-.28.33.32.32,0,0,1-.38-.22A.29.29,0,0,1,57.38,74.72Z"/><path class="cls-9" d="M56.81,73.62a.32.32,0,0,1,.38.21.29.29,0,0,1-.27.33.32.32,0,0,1-.38-.21A.3.3,0,0,1,56.81,73.62Z"/><path class="cls-9" d="M65.4,66.15a.32.32,0,0,1,.39.21.3.3,0,0,1-.27.33.33.33,0,0,1-.39-.22A.29.29,0,0,1,65.4,66.15Z"/><path class="cls-9" d="M65.49,68.16a.33.33,0,0,1,.39.21.31.31,0,0,1-.28.33.32.32,0,0,1-.38-.21A.3.3,0,0,1,65.49,68.16Z"/><path class="cls-9" d="M62.11,67.64a.32.32,0,0,1,.38.21.29.29,0,0,1-.27.33.32.32,0,0,1-.38-.22A.29.29,0,0,1,62.11,67.64Z"/><path class="cls-9" d="M58.71,75.22a.32.32,0,0,1,.38.21.3.3,0,0,1-.27.33.32.32,0,0,1-.38-.22A.29.29,0,0,1,58.71,75.22Z"/><path class="cls-9" d="M60.62,70.22a.34.34,0,0,1,.39.22.3.3,0,0,1-.28.32.32.32,0,0,1-.38-.21A.3.3,0,0,1,60.62,70.22Z"/><path class="cls-9" d="M57.3,76.31a.32.32,0,0,1,.38.22.29.29,0,0,1-.27.32.33.33,0,0,1-.39-.21A.31.31,0,0,1,57.3,76.31Z"/><path class="cls-9" d="M64.26,69.62a.32.32,0,0,1,.38.21.3.3,0,0,1-.27.33.34.34,0,0,1-.39-.22A.3.3,0,0,1,64.26,69.62Z"/><path class="cls-9" d="M55.75,74.87a.32.32,0,0,1,.38.21.3.3,0,0,1-.27.33.32.32,0,0,1-.38-.21A.3.3,0,0,1,55.75,74.87Z"/><path class="cls-9" d="M63.86,67.86a.32.32,0,0,1,.39.21.3.3,0,0,1-.28.33.32.32,0,0,1-.38-.22A.29.29,0,0,1,63.86,67.86Z"/><path class="cls-9" d="M58.71,76.69a.32.32,0,0,1,.38.21.3.3,0,0,1-.27.33.34.34,0,0,1-.39-.21A.31.31,0,0,1,58.71,76.69Z"/><path class="cls-9" d="M61,71.71a.33.33,0,0,1,.39.22c0,.15-.09.29-.28.32a.31.31,0,0,1-.38-.21A.3.3,0,0,1,61,71.71Z"/><path class="cls-9" d="M63.89,71a.32.32,0,0,1,.38.22c0,.14-.09.29-.27.32a.32.32,0,0,1-.38-.21A.3.3,0,0,1,63.89,71Z"/><path class="cls-9" d="M149.6,79.19a.36.36,0,1,1,0-.7.36.36,0,1,1,0,.7Z"/><path class="cls-9" d="M144.05,75.33a.36.36,0,1,1,.42-.36A.4.4,0,0,1,144.05,75.33Z"/><path class="cls-9" d="M147.1,75.9a.29.29,0,0,1-.23.35.33.33,0,0,1-.36-.25.29.29,0,0,1,.24-.35A.3.3,0,0,1,147.1,75.9Z"/><path class="cls-9" d="M142.88,74.57a.29.29,0,0,1-.23.35.31.31,0,0,1-.36-.25.29.29,0,0,1,.23-.35A.31.31,0,0,1,142.88,74.57Z"/><path class="cls-9" d="M137.47,71.29a.3.3,0,0,1-.24.35.32.32,0,0,1-.36-.25.3.3,0,0,1,.24-.35A.33.33,0,0,1,137.47,71.29Z"/><path class="cls-9" d="M147.33,77.62a.29.29,0,0,1-.23.35.32.32,0,0,1-.36-.25.3.3,0,0,1,.24-.35A.31.31,0,0,1,147.33,77.62Z"/><path class="cls-9" d="M147.26,80.37a.29.29,0,0,1-.23.35.32.32,0,0,1-.36-.25.3.3,0,0,1,.24-.35A.3.3,0,0,1,147.26,80.37Z"/><path class="cls-9" d="M145.7,74.62a.3.3,0,0,1-.23.35.32.32,0,0,1-.36-.25.29.29,0,0,1,.23-.35A.31.31,0,0,1,145.7,74.62Z"/><path class="cls-9" d="M142.86,73.26a.29.29,0,0,1-.23.35.33.33,0,0,1-.36-.25.29.29,0,0,1,.24-.35A.3.3,0,0,1,142.86,73.26Z"/><path class="cls-9" d="M148.81,80.06a.3.3,0,0,1-.23.35.32.32,0,0,1-.36-.25.29.29,0,0,1,.23-.35A.31.31,0,0,1,148.81,80.06Z"/><path class="cls-9" d="M145.46,76.22a.3.3,0,0,1-.24.35.32.32,0,0,1-.35-.25.28.28,0,0,1,.23-.35A.32.32,0,0,1,145.46,76.22Z"/><path class="cls-9" d="M141.23,73.62A.3.3,0,0,1,141,74a.32.32,0,0,1-.35-.25.28.28,0,0,1,.23-.35A.31.31,0,0,1,141.23,73.62Z"/><path class="cls-9" d="M139.18,72.49a.28.28,0,0,1-.23.35.32.32,0,0,1-.36-.25.3.3,0,0,1,.24-.35A.32.32,0,0,1,139.18,72.49Z"/><path class="cls-9" d="M118.52,63.22a.36.36,0,1,1,.43-.36A.4.4,0,0,1,118.52,63.22Z"/><path class="cls-9" d="M113.19,59.61a.36.36,0,1,1,.43-.35A.4.4,0,0,1,113.19,59.61Z"/><path class="cls-9" d="M116.39,61.31a.29.29,0,0,1-.23.35.31.31,0,0,1-.36-.25.3.3,0,0,1,.23-.35A.32.32,0,0,1,116.39,61.31Z"/><path class="cls-9" d="M113.88,60.71a.3.3,0,0,1-.23.35.32.32,0,0,1-.36-.25.29.29,0,0,1,.23-.35A.31.31,0,0,1,113.88,60.71Z"/><path class="cls-9" d="M116.62,63a.3.3,0,0,1-.23.35.32.32,0,0,1-.36-.25.28.28,0,0,1,.23-.35A.31.31,0,0,1,116.62,63Z"/><path class="cls-9" d="M115,60a.29.29,0,0,1-.24.35.3.3,0,0,1-.35-.25.29.29,0,0,1,.23-.35A.33.33,0,0,1,115,60Z"/><path class="cls-9" d="M118.39,60.81a.29.29,0,0,1-.24.35.3.3,0,0,1-.35-.25.29.29,0,0,1,.23-.35A.34.34,0,0,1,118.39,60.81Z"/><path class="cls-9" d="M114.75,61.63a.3.3,0,0,1-.24.35.32.32,0,0,1-.36-.25.3.3,0,0,1,.24-.35A.33.33,0,0,1,114.75,61.63Z"/><path class="cls-9" d="M110.52,59a.29.29,0,0,1-.24.35.32.32,0,0,1-.36-.25.3.3,0,0,1,.24-.35A.33.33,0,0,1,110.52,59Z"/><path class="cls-9" d="M108.47,57.91a.29.29,0,0,1-.23.35.32.32,0,0,1-.36-.25.29.29,0,0,1,.23-.35A.31.31,0,0,1,108.47,57.91Z"/><path class="cls-9" d="M106.29,57.17a.36.36,0,1,1,.43-.36A.4.4,0,0,1,106.29,57.17Z"/><ellipse class="cls-9" cx="100.96" cy="53.21" rx="0.43" ry="0.35"/><path class="cls-9" d="M104.16,55.26a.29.29,0,0,1-.24.35.3.3,0,0,1-.35-.25.29.29,0,0,1,.23-.35A.34.34,0,0,1,104.16,55.26Z"/><path class="cls-9" d="M101.65,54.66a.3.3,0,0,1-.24.35.3.3,0,0,1-.35-.25.29.29,0,0,1,.23-.35A.32.32,0,0,1,101.65,54.66Z"/><path class="cls-9" d="M104.39,57a.3.3,0,0,1-.24.35.31.31,0,0,1-.35-.25.29.29,0,0,1,.23-.35A.32.32,0,0,1,104.39,57Z"/><path class="cls-9" d="M102.76,54a.29.29,0,0,1-.24.35.32.32,0,0,1-.36-.25.3.3,0,0,1,.24-.35A.34.34,0,0,1,102.76,54Z"/><path class="cls-9" d="M106.53,58.59a.29.29,0,0,1-.24.35.3.3,0,0,1-.35-.25.29.29,0,0,1,.23-.35A.34.34,0,0,1,106.53,58.59Z"/><path class="cls-9" d="M102.51,55.58a.29.29,0,0,1-.23.35.32.32,0,0,1-.36-.25.3.3,0,0,1,.24-.35A.31.31,0,0,1,102.51,55.58Z"/><path class="cls-9" d="M98.28,53a.29.29,0,0,1-.23.35.32.32,0,0,1-.36-.25.3.3,0,0,1,.24-.35A.32.32,0,0,1,98.28,53Z"/><path class="cls-9" d="M96.74,54.62a.29.29,0,0,1-.24.35.3.3,0,0,1-.35-.25.29.29,0,0,1,.23-.35A.32.32,0,0,1,96.74,54.62Z"/><path class="cls-9" d="M54.29,74.48a.33.33,0,0,1,.39.22c0,.15-.09.29-.28.32a.32.32,0,0,1-.38-.21A.3.3,0,0,1,54.29,74.48Z"/><path class="cls-9" d="M101.93,88.31a1.26,1.26,0,0,1-1.13-2c.53-.69,1.15-1.52,1.79-2.37,1.7-2.29-1.46-6.94-1-8.27s.65-4.36,1.13-4.43-.4,3.91.33,4.87,2.26,6.1,2.1,7.6c-.12,1.1-1.41,3-2.09,4a1.4,1.4,0,0,1-1.16.57Z"/><path class="cls-9" d="M86.2,66c1.74.26-3.79-1.86-6.41-2.57a4.88,4.88,0,0,1-2.34-1.83A3.05,3.05,0,0,0,73,61.35h0a.91.91,0,0,1-.27.18,26.15,26.15,0,0,0,2.8,2.15C77.26,64.75,84.45,65.72,86.2,66Z"/><path class="cls-10" d="M161.42,75.49c0-.24,0-.49,0-.74a5.11,5.11,0,0,1,0,.55C160.66,70,149.64,64.58,132,62c-2.47-.4-7.95-1.23-9.55-1.23-2.32,0-3.9-.14-4.1-2.8s-8.54-2.65-9.32-2.65-3.48-1.82-4.26-2.1-1.83-2.33-2.61-3a5.45,5.45,0,0,0-3.51-.94c-1.36,0-4.61,2.91-5,3.62s-3.15,0-6.63-.74-9.63,6.37-10.79,7.49-7-.49-8-.35a7.23,7.23,0,0,0-5,3.25c-19,2-31.58,10.19-27.24,16.07,4.1,16.63,24.1,30.78,27.88,35.63h0s0,.1,0,.15,0,.19.06.29l0,.13.06.15.06.16.07.12.12.21a.3.3,0,0,1,0,.08s0,0,0,0l0,.06c0,.08.12.15.18.23h0l.06.06.07.09a.76.76,0,0,0,.09.09l.08.09.12.13a1.14,1.14,0,0,1,.11.11l.11.09h0l.2.18.1.08.06.06.1.07.25.18.21.15.08,0,0,0,.1.06.12.08.28.17,0,0,.33.18h0l.17.1.15.07.27.14.06,0,.35.18.08,0,.1,0,.13.06.09,0,.38.17.13.06.3.11.23.09h0l.17.06.19.08.26.09.44.15.26.09.22.07.47.16.49.15.53.15.2.06.18,0,.11,0,.61.16.46.12,1.08.26,0,0,.43.09.68.15.13,0L77,121l.67.14.19,0,.38.07.69.13.27,0,.31,0,.73.12.59.09.77.12.29,0H82l.18,0,.86.11.17,0,.25,0,.11,0,1.1.12.3,0h0l1.44.14.49,0,1,.08.6,0,.93.06.63,0,.92.05.65,0,.94,0,.65,0,1,0,.62,0,1.09,0H98.1c.93,0,1.86,0,2.77,0h.65l1.08,0h.59l.85,0,.8,0,.7,0,.92,0,1.42-.1.17,0,1.31-.11.24,0,.89-.09.64-.06,1-.11.47-.06.8-.1.66-.08,1.19-.18.21,0c.38-.05.75-.11,1.12-.18l.25,0,1.11-.19.21,0L119,121l.41-.08.87-.19.35-.08.71-.17.48-.11.73-.19.39-.1.7-.2.38-.11.68-.21.33-.11.74-.25.22-.08.68-.26.22-.08.6-.26.24-.1c.2-.08.38-.17.57-.26l.2-.1c.19-.09.36-.19.53-.28l.18-.1c.18-.09.34-.19.5-.29l.14-.09c.16-.1.31-.21.45-.31l.12-.09c.13-.09.25-.19.37-.29l.13-.11c.11-.1.21-.19.3-.29l.12-.12a3.56,3.56,0,0,0,.26-.31.87.87,0,0,0,.09-.11,2,2,0,0,0,.2-.31l.07-.12a2,2,0,0,0,.14-.3s0-.09.05-.13a1.77,1.77,0,0,0,.08-.31.53.53,0,0,0,0-.12h0c3.72-5.23,24.74-18.54,29-37.61a3.8,3.8,0,0,0,.13-.94C161.45,75.71,161.43,75.6,161.42,75.49Z"/></svg>