<svg id="Layer_1" data-name="Layer 1" xmlns="http://www.w3.org/2000/svg" viewBox="0 0 206.76 192.71"><defs><style>.cls-1{fill:red;}</style></defs><path class="cls-1" d="M155.51,70.09s-.11-.42-.15-.57-.06-.23-.1-.35l-.23-.68c-.08-.23-.16-.46-.25-.68,0,0-.05-.11-.05-.12-.14-.35-.3-.71-.47-1.07l0-.09-.16-.36c-.12-.24-.25-.48-.38-.71s-.3-.53-.44-.76l-.23-.36c-.24-.4-.5-.79-.79-1.19a2.48,2.48,0,0,0-.19-.26c-.45-.6-.94-1.21-1.54-1.88-.16-.19-.32-.37-.51-.57l-.55-.56-.08-.07c-.26-.27-.54-.53-.82-.79s-.41-.38-.6-.54c-.35-.3-.71-.61-1.08-.91l-.51-.41c-.55-.42-1.11-.84-1.72-1.26l-1.06-.73c-2.7-1.85-5.31-3.51-7.8-5l-.66-.39c-1.39-.8-2.76-1.56-4.06-2.22l-.18-.1c-1.17-.6-2.32-1.16-3.42-1.66-.24-.13-.49-.24-.74-.35L125.6,45c-.88-.37-1.79-.73-2.72-1.07l-.33-.13a9.58,9.58,0,0,0,.67-.76,11.72,11.72,0,0,0,1-1.5,12.46,12.46,0,0,0,.82-1.68,13.42,13.42,0,0,0,.52-1.63,14.27,14.27,0,0,0,.28-1.63,13.39,13.39,0,0,0,.06-1.54,14.13,14.13,0,0,0-.1-1.45c-.06-.42-.14-.85-.24-1.32s-.19-.75-.33-1.2-.25-.71-.39-1.05-.26-.63-.44-1-.33-.64-.54-1-.31-.53-.47-.77-.39-.57-.61-.86l-.06-.08c-.15-.21-.3-.41-.5-.65s-.51-.59-.73-.83-.35-.38-.55-.58l-.79-.73c-.2-.19-.41-.37-.63-.55s-.55-.42-.89-.67-.46-.33-.66-.47l-1-.61-.75-.41c-.35-.18-.7-.34-1.12-.52-.26-.12-.53-.23-.83-.34s-.87-.29-1.3-.41l-.89-.23a15.37,15.37,0,0,0-1.58-.24c-.26,0-.57-.07-.91-.08l-.71,0a14.21,14.21,0,0,0-2.07.15,10,10,0,0,0-1.09.22,14.17,14.17,0,0,0-6.15,3.7c-4,3.86-7.46,10.28-10.49,19.55l-.3.09c-.77.22-1.56.47-2.39.76l-.13,0c-.74.25-1.49.53-2.27.83-.49.18-1,.37-1.43.57l-.57.25c-.53.23-1.06.46-1.55.69l-.41.18-1.73.83-.1.05c-1.24.61-2.54,1.3-3.87,2l-.57.32-.2.12c-.36.19-.76.41-1.19.69L70.85,51l-.08,0c-1.85,1.13-3.76,2.38-5.69,3.71,0,0-1.56,1.08-1.56,1.08-.53.37-1,.74-1.48,1.09l-.53.41-.87.7-.61.51-.69.61-.64.58-.39.38a32.37,32.37,0,0,0-3.22,3.63l-.3.4-.15.21-.48.7-.45.7-.12.21c-.15.25-.29.48-.42.72l-.21.38c-.15.29-.35.69-.55,1.17s-.39.9-.55,1.36c-.07.18-.13.36-.19.55-.14.41-.26.81-.36,1.17-.05.21-.1.42-.15.65-.09.38-.17.77-.23,1.15,0,.22-.07.42-.1.69s-.08.74-.11,1.12c0,.21,0,.42,0,.67s0,.75,0,1.16c0,.19,0,.38,0,.58,0,.39.07.78.11,1.11s.06.43.09.58c.06.39.14.78.24,1.18,0,.15.07.32.1.45a19.43,19.43,0,0,0,1.06,3l.2.42c.16.32.32.63.5,1l.22.39.52.84.24.35c.18.27.37.54.58.81l.22.29c.19.25.39.49.62.76l.21.25.67.73a1.75,1.75,0,0,1,.19.2l.7.67c.58,12.79,3.28,26.1,7.46,36.48,7.45,18.45,18.26,24.93,26.7,27a12.75,12.75,0,0,0,10.39,6h.38l.72,0a12.54,12.54,0,0,0,2-.27l.1,0c.44-.11.79-.22,1-.31a9.87,9.87,0,0,0,1.34-.52,9.09,9.09,0,0,0,1-.53,11,11,0,0,0,1-.62l.09-.07c.26-.19.52-.39.74-.58s.5-.43.77-.7.43-.44.63-.67l.51-.62c.18-.23.35-.45.56-.76a.83.83,0,0,0,.08-.12l.32-.06,1.38-.29.35-.08c.45-.11.88-.22,1.3-.34l.39-.11c.42-.12.83-.25,1.28-.4l.38-.13,1.19-.44.39-.16c.38-.15.75-.31,1.18-.5l.39-.18,1-.49.47-.24,1-.53.44-.26.93-.56s.42-.28.42-.28c.31-.2.6-.4.9-.61l.41-.28c.27-.2.55-.4.85-.64L128,147l.76-.62.39-.33.77-.68.37-.34.69-.67.36-.35.68-.71.32-.35c.21-.22.41-.45.62-.69l.35-.4.57-.67.26-.32.59-.76.25-.33h0c.17-.21.42-.56.58-.78l.32-.45.47-.67.72-1.09s.57-.91.68-1.1l.65-1.1.6-1.07.6-1.11.53-1.05.37-.75.53-1.11s.41-.88.55-1.2l.46-1.06c4.79-11.14,6.87-26.26,7.32-37.57l.19-.19c.25-.25.54-.55.87-.94l.28-.33c.56-.66,1.09-1.35,1.57-2l.09-.13c.17-.24.33-.49.54-.82l.07-.12a21.7,21.7,0,0,0,1.94-4l0-.1A18.74,18.74,0,0,0,155.51,70.09Zm-10,7.59v0a11.22,11.22,0,0,1-1.06,2.14l-.05.1-.3.44a.18.18,0,0,1-.05.07,15.79,15.79,0,0,1-1,1.34h0l-.16.2a.27.27,0,0,1-.07.08l-.22.25-.65.64h0l0,0,0,0h0q-.39.38-.75.69l0,0-.64.54-.06,0c-.4.32-.72.55-.92.68v.07c0,11.07-1.91,27.31-6.6,38.21l-.39.9v0l-.39.86a2.56,2.56,0,0,0-.11.24c-.11.22-.21.44-.32.67l-.15.31-.29.59-.2.39c-.09.17-.17.34-.26.52l-.24.43c-.08.16-.16.32-.25.47l-.26.46c-.08.15-.16.3-.25.45l-.28.47-.25.43-.31.49-.25.4c-.1.17-.22.33-.33.5l-.25.38-.35.51-.26.36-.38.51-.26.34c-.13.18-.26.35-.4.52l-.26.32-.43.51-.27.31-.45.51-.27.29-.49.5-.27.27-.51.49-.29.26-.53.47-.29.25c-.19.16-.37.31-.57.46l-.29.23c-.19.15-.39.3-.6.44l-.29.21-.63.43-.3.19-.67.41-.3.17-.7.39-.31.15c-.24.12-.49.25-.74.36l-.3.14-.78.33-.3.12-.83.31-.29.09c-.29.1-.58.2-.88.28l-.28.08-.93.25-.25,0-1,.22-.22,0c-.36.07-.72.13-1.09.18l-.16,0-1.19.13h-.06q-1.29.12-2.67.12s0,.09,0,.24a.24.24,0,0,1,0,.08,1.91,1.91,0,0,1,0,.21c0,.17-.06.33-.1.49s0,.18-.07.27-.12.43-.19.64-.07.18-.1.27-.11.27-.16.4l-.11.23a.54.54,0,0,1-.05.11s0,0,0,0h0c0,.11-.11.23-.17.34l-.06.12-.18.28-.1.15-.17.24-.14.16-.18.19a1.29,1.29,0,0,1-.17.16l-.18.14-.22.14-.18.1-.27.1-.17.05a2,2,0,0,1-.43,0H102c-1.74,0-3.2-2.16-3.65-5.12-23.46,0-31.31-37.66-31.31-59.4h0v0l0,0-.63-.36,0,0c-.21-.12-.42-.26-.64-.41l-.34-.24c-.2-.15-.4-.3-.59-.46l-.13-.1h0a11.58,11.58,0,0,1-1-1l-.08-.09c-.14-.14-.27-.28-.4-.43L63,82l-.33-.41-.13-.17-.3-.42-.12-.18-.27-.44-.11-.18c-.09-.16-.17-.33-.25-.5l-.07-.15a7.42,7.42,0,0,1-.5-1.39.83.83,0,0,1,0-.15c0-.19-.09-.38-.12-.58l0-.24-.06-.51a2.62,2.62,0,0,0,0-.28c0-.17,0-.33,0-.5s0-.2,0-.3,0-.34,0-.51,0-.21,0-.31a5.17,5.17,0,0,1,.11-.54l.06-.3c.06-.2.12-.41.19-.62l.08-.24c.11-.29.23-.59.37-.88h0a2.62,2.62,0,0,1,.2-.43l.08-.16.23-.39.09-.15c.1-.15.19-.31.29-.45s.09-.14.14-.21l.2-.29,0-.07h0a20,20,0,0,1,2.37-2.71l.28-.27.5-.46.49-.43.47-.39.68-.55.4-.31c.38-.29.78-.59,1.2-.88l.24-.17h0l.29-.21.07,0,.23-.16.07-.06.12-.08.38-.25h0Q73.5,61.12,76,59.58l0,0,1.63-1h0c.21-.14.45-.27.69-.4h0l.13-.07.28-.16.15-.09h0c1.28-.71,2.5-1.36,3.68-1.95l.09,0,1.5-.72.31-.14c.52-.24,1-.47,1.53-.68h0c.42-.17.81-.37,1.25-.52h0c.75-.3,1.47-.57,2.17-.81h0c.69-.24,1.37-.45,2-.65h0c.66-.19,1.29-.36,1.91-.51h0c.61-.15,1.21-.28,1.79-.39h0l.12,0h.06l.76-.14h.13l.11,0,.42-.07h0l0-.3c3.72-13.33,7.38-18.54,9.46-20.54a4.84,4.84,0,0,1,1.75-1.23,4,4,0,0,1,.85,0l.22,0a4.69,4.69,0,0,1,.64.09l.29.08a5.18,5.18,0,0,1,.56.17l.32.13c.17.08.35.15.52.24s.21.12.32.18.32.18.48.29l.31.22c.15.11.3.21.44.33l.3.26c.13.12.26.23.38.36a3.83,3.83,0,0,1,.28.29c.11.13.23.25.33.38a3.92,3.92,0,0,1,.25.32l.27.38a3.79,3.79,0,0,1,.2.34,3.59,3.59,0,0,1,.21.38c.06.12.1.23.15.35s.1.25.14.37a2.25,2.25,0,0,1,.09.35,2.41,2.41,0,0,1,.07.35,2,2,0,0,1,0,.34c0,.12,0,.23,0,.34a1.8,1.8,0,0,1-.06.32,1.71,1.71,0,0,1-.09.3,1.59,1.59,0,0,1-.15.29,2.11,2.11,0,0,1-.18.27,1.88,1.88,0,0,1-.24.25l-.11.12h0a1,1,0,0,1-.33.23h0A28.33,28.33,0,0,0,109,41.81a20,20,0,0,0-5.38,8.88h0c.83,0,1.65,0,2.5,0h0c.85,0,1.72.08,2.61.16h.08c.58.05,1.17.11,1.77.19h.08l1.85.3h0l.24.05h0c.63.13,1.29.27,2,.44l.14,0c.65.16,1.31.35,2,.56l.17,0q1,.33,2.13.72l.15.06c.76.28,1.55.59,2.36.93l0,0,.07,0,.83.34.1.05h0q1.64.73,3.42,1.65l.13.07c1.2.62,2.45,1.3,3.75,2.06l.05,0,.06,0,.24.14,0,0,0,0c2.26,1.32,4.69,2.87,7.32,4.67l.06,0h0l.06,0c.29.2.58.39.87.6.46.32.88.63,1.29,1l.36.29.77.64.42.38c.19.17.37.35.55.53l.42.42.37.41c.34.38.65.76.92,1.13l.09.12c.16.23.31.46.45.68l.09.14c.14.24.28.48.39.71h0c0,.11.09.21.14.31v0c.09.19.17.38.25.57h0l.15.42v0c0,.09.07.19.1.28h0l.06.22v.08A8.6,8.6,0,0,1,145.53,77.68Z"/></svg>