<svg xmlns="http://www.w3.org/2000/svg" xmlns:xlink="http://www.w3.org/1999/xlink" viewBox="0 0 260.49 229.22"><defs><style>.cls-1{isolation:isolate;}.cls-2{fill:#207cba;}.cls-3{fill:#1f383a;}.cls-4{fill:#00368c;}.cls-5{fill:#49e017;stroke:#000f38;}.cls-11,.cls-12,.cls-13,.cls-14,.cls-15,.cls-16,.cls-17,.cls-18,.cls-19,.cls-20,.cls-21,.cls-22,.cls-23,.cls-24,.cls-40,.cls-5{stroke-miterlimit:10;}.cls-6{fill:#3e6370;}.cls-7{fill:#a3b8c6;}.cls-8{fill:#87a0ad;}.cls-9{fill:#021a40;}.cls-10{fill:#0f1119;}.cls-11,.cls-12,.cls-13,.cls-14,.cls-15,.cls-16,.cls-17,.cls-18,.cls-19,.cls-20,.cls-21,.cls-22,.cls-23,.cls-24{fill:#cacaff;stroke-width:0.25px;}.cls-11{stroke:url(#radial-gradient);}.cls-12{stroke:url(#radial-gradient-2);}.cls-13{stroke:url(#radial-gradient-3);}.cls-14{stroke:url(#radial-gradient-4);}.cls-15{stroke:url(#radial-gradient-5);}.cls-16{stroke:url(#radial-gradient-6);}.cls-17{stroke:url(#radial-gradient-7);}.cls-18{stroke:url(#radial-gradient-8);}.cls-19{stroke:url(#radial-gradient-9);}.cls-20{stroke:url(#radial-gradient-10);}.cls-21{stroke:url(#radial-gradient-11);}.cls-22{stroke:url(#radial-gradient-12);}.cls-23{stroke:url(#radial-gradient-13);}.cls-24{stroke:url(#radial-gradient-14);}.cls-25,.cls-36{fill:#fff;}.cls-25,.cls-35{mix-blend-mode:overlay;}.cls-25{opacity:0.2;}.cls-26{fill:#648793;}.cls-27,.cls-31{mix-blend-mode:multiply;}.cls-27,.cls-35{opacity:0.5;}.cls-28{fill:#002e72;}.cls-29{fill:#00388e;}.cls-30{fill:#00273d;}.cls-32{fill:#007dc6;}.cls-33{fill:#fff53b;}.cls-34{fill:#f9ff00;}.cls-37{fill:#ffec00;}.cls-38{fill:#07395b;}.cls-39{fill:#e2ba13;}.cls-40{fill:none;stroke:#293459;}.cls-41{fill:#353535;}.cls-42{opacity:0.29;fill:url(#radial-gradient-15);}.cls-43,.cls-44,.cls-45,.cls-46,.cls-47{opacity:0.39;}.cls-43{fill:url(#linear-gradient);}.cls-44{fill:url(#linear-gradient-2);}.cls-45{fill:url(#linear-gradient-3);}.cls-46{fill:url(#linear-gradient-4);}</style><radialGradient id="radial-gradient" cx="-51.11" cy="763.11" r="0.99" gradientTransform="translate(444.48 -592.06) rotate(22.71)" gradientUnits="userSpaceOnUse"><stop offset="0" stop-color="#dedede"/><stop offset="0.27" stop-color="#dbdbdb"/><stop offset="0.44" stop-color="#d3d3d3"/><stop offset="0.58" stop-color="#c4c4c4"/><stop offset="0.71" stop-color="#afafaf"/><stop offset="0.83" stop-color="#949494"/><stop offset="0.94" stop-color="#747474"/><stop offset="1" stop-color="#5e5e5e"/></radialGradient><radialGradient id="radial-gradient-2" cx="-58.87" cy="766.91" r="0.99" xlink:href="#radial-gradient"/><radialGradient id="radial-gradient-3" cx="-66.92" cy="772.42" r="0.99" xlink:href="#radial-gradient"/><radialGradient id="radial-gradient-4" cx="-43.8" cy="760.76" r="0.99" xlink:href="#radial-gradient"/><radialGradient id="radial-gradient-5" cx="-34.89" cy="758.41" r="0.99" xlink:href="#radial-gradient"/><radialGradient id="radial-gradient-6" cx="-25.22" cy="756.92" r="0.99" xlink:href="#radial-gradient"/><radialGradient id="radial-gradient-7" cx="-14.7" cy="755.81" r="0.99" xlink:href="#radial-gradient"/><radialGradient id="radial-gradient-8" cx="-5.41" cy="755.56" r="0.99" xlink:href="#radial-gradient"/><radialGradient id="radial-gradient-9" cx="3.63" cy="755.68" r="0.99" xlink:href="#radial-gradient"/><radialGradient id="radial-gradient-10" cx="14.41" cy="756.67" r="0.99" xlink:href="#radial-gradient"/><radialGradient id="radial-gradient-11" cx="24.81" cy="758.41" r="0.99" xlink:href="#radial-gradient"/><radialGradient id="radial-gradient-12" cx="34.85" cy="760.51" r="0.99" xlink:href="#radial-gradient"/><radialGradient id="radial-gradient-13" cx="45" cy="764.48" r="0.99" xlink:href="#radial-gradient"/><radialGradient id="radial-gradient-14" cx="54.41" cy="769.93" r="0.99" xlink:href="#radial-gradient"/><radialGradient id="radial-gradient-15" cx="37.22" cy="795.79" r="60.36" gradientTransform="translate(437.48 -666.05) rotate(23.29) scale(1.01 1)" gradientUnits="userSpaceOnUse"><stop offset="0.15" stop-color="#518ee0"/><stop offset="0.3" stop-color="#5192e1"/><stop offset="0.46" stop-color="#4f9fe2"/><stop offset="0.63" stop-color="#4db5e5"/><stop offset="0.8" stop-color="#4ad3e9"/><stop offset="0.98" stop-color="#46faee"/><stop offset="1" stop-color="#45ffef"/></radialGradient><linearGradient id="linear-gradient" x1="1.63" y1="805.62" x2="1.63" y2="740.11" gradientTransform="translate(470.33 -651.91) rotate(23.29)" gradientUnits="userSpaceOnUse"><stop offset="0.15" stop-color="#83c0e0" stop-opacity="0"/><stop offset="0.36" stop-color="#82c1e0" stop-opacity="0.01"/><stop offset="0.48" stop-color="#80c3e1" stop-opacity="0.04"/><stop offset="0.57" stop-color="#7dc6e1" stop-opacity="0.09"/><stop offset="0.65" stop-color="#78cbe3" stop-opacity="0.17"/><stop offset="0.73" stop-color="#72d1e4" stop-opacity="0.27"/><stop offset="0.79" stop-color="#6bd9e6" stop-opacity="0.39"/><stop offset="0.85" stop-color="#62e2e8" stop-opacity="0.54"/><stop offset="0.91" stop-color="#57eceb" stop-opacity="0.7"/><stop offset="0.97" stop-color="#4cf8ed" stop-opacity="0.89"/><stop offset="1" stop-color="#45ffef"/></linearGradient><linearGradient id="linear-gradient-2" x1="1.9" y1="811.5" x2="1.9" y2="745.99" xlink:href="#linear-gradient"/><linearGradient id="linear-gradient-3" x1="3361.25" y1="-4937.06" x2="3361.25" y2="-5002.63" gradientTransform="matrix(0.59, -0.89, 0.39, 0.26, 61.13, 4338.22)" xlink:href="#linear-gradient"/><linearGradient id="linear-gradient-4" x1="4371.51" y1="7436.43" x2="4371.51" y2="7370.87" gradientTransform="matrix(0.24, -1.04, -0.46, -0.1, 2539.32, 5404.99)" xlink:href="#linear-gradient"/></defs><g class="cls-1"><g id="Layer_1" data-name="Layer 1"><path class="cls-2" d="M209.71,195.46c-5.94,14.21-57.17,25.89-105.8,5.54S27.65,136,33.6,121.74s50.19-9.23,98.83,11.13S215.66,181.25,209.71,195.46Z"/><path class="cls-3" d="M207.45,194.54c-5.79,13.82-55.61,25.18-102.91,5.38s-74.18-63.27-68.39-77.09,48.82-9,96.12,10.83S213.23,180.72,207.45,194.54Z"/><path class="cls-4" d="M207.45,194.54c-5.79,13.82-55.61,25.18-102.92,5.38C73.25,186.83,50.91,163.38,41,145a271.89,271.89,0,0,0,96.36,41.45,270.27,270.27,0,0,0,70.66,5.59A8.42,8.42,0,0,1,207.45,194.54Z"/><ellipse class="cls-5" cx="111.82" cy="186.76" rx="7.03" ry="10.06" transform="translate(-103.93 215.63) rotate(-66.71)"/><ellipse class="cls-5" cx="56.3" cy="146.35" rx="7.03" ry="10.06" transform="translate(-91.1 92.85) rotate(-49.01)"/><ellipse class="cls-5" cx="181.23" cy="195.63" rx="7.03" ry="10.06" transform="translate(-31.12 356.94) rotate(-84.41)"/><path class="cls-6" d="M230.89,191.89s-41.41,11.67-115.21-18.15c-81-33.93-94.09-69.47-94.09-69.47l3.54-8.48,209.31,87.62Z"/><path class="cls-7" d="M25.17,96.61S41,77.18,83.48,79.58c45.78,2.57,90,23.7,117.7,46.4s35.74,46.38,33.23,57.5c0,0-36.72,11.58-115.63-21.45S25.17,96.61,25.17,96.61Z"/><path class="cls-8" d="M234.44,183.41S197.69,195.06,118.78,162,25.17,96.61,25.17,96.61,138,168.81,147.05,118.9C147.05,118.9,216.71,154.32,234.44,183.41Z"/><path class="cls-9" d="M81.87,93.4S98,115.91,136.68,132.1s63.84,9.5,63.84,9.5-5.38-20.83-52.15-40.41S81.87,93.4,81.87,93.4Z"/><path class="cls-10" d="M85.55,97.72,81.87,93.4s20-11.69,66.5,7.79,52.15,40.41,52.15,40.41l-4.17.27s-7.71-20.33-49.3-37.74S85.55,97.72,85.55,97.72Z"/><circle class="cls-11" cx="102.66" cy="92.13" r="0.87"/><circle class="cls-12" cx="94.04" cy="92.63" r="0.87"/><circle class="cls-13" cx="84.48" cy="94.61" r="0.87"/><circle class="cls-14" cx="110.31" cy="92.78" r="0.87"/><circle class="cls-15" cx="119.45" cy="94.05" r="0.87"/><circle class="cls-16" cx="128.93" cy="96.41" r="0.87"/><circle class="cls-17" cx="139.08" cy="99.45" r="0.87"/><circle class="cls-18" cx="147.74" cy="102.81" r="0.87"/><circle class="cls-19" cx="156.03" cy="106.41" r="0.87"/><circle class="cls-20" cx="165.59" cy="111.49" r="0.87"/><circle class="cls-21" cx="174.52" cy="117.1" r="0.87"/><circle class="cls-22" cx="182.96" cy="122.92" r="0.87"/><circle class="cls-23" cx="190.8" cy="130.5" r="0.87"/><circle class="cls-24" cx="197.37" cy="139.16" r="0.87"/><path class="cls-25" d="M87.43,99.53s-19.06-2.32-43.71,18.36c0,0,2.69,3.22,10.81,9.16,0,0,16.22-17.86,40.5-20.17Z"/><path class="cls-26" d="M25.17,96.61S38.35,128.36,118.78,162s115.61,21.33,115.61,21.33-34,17.29-116.89-17.4S25.17,96.61,25.17,96.61Z"/><g class="cls-27"><path class="cls-28" d="M140.33,149.89a13.65,13.65,0,1,1-7.51-17.78A13.66,13.66,0,0,1,140.33,149.89Z"/></g><path class="cls-29" d="M140.36,149A13.34,13.34,0,1,1,133,131.63,13.35,13.35,0,0,1,140.36,149Z"/><path class="cls-30" d="M140.23,149a13.45,13.45,0,0,1-15.87,7.82c-6.76-1.83-10.67-8.95-9.26-15.65a13.44,13.44,0,0,1,13.75-10.39c7.15.33,12.49,6.68,12.36,13.65a13.32,13.32,0,0,1-1,4.57c0,.07.22.18.25.11a13.52,13.52,0,0,0-3.41-14.95,13.72,13.72,0,0,0-14.53-2.41,13.44,13.44,0,1,0,17.94,17.36C140.51,149,140.26,148.89,140.23,149Z"/><g class="cls-31"><path class="cls-32" d="M138.08,148.09a10.88,10.88,0,1,1-6-14.18A10.89,10.89,0,0,1,138.08,148.09Z"/></g><path class="cls-33" d="M137,147.66A9.74,9.74,0,1,1,131.66,135,9.75,9.75,0,0,1,137,147.66Z"/><path class="cls-34" d="M136.9,147.6a9.81,9.81,0,0,1-12.23,5.49c-5.19-1.77-7.47-7.78-5.58-12.7a9.77,9.77,0,0,1,12.23-5.49c5.19,1.77,7.48,7.77,5.58,12.7,0,.08.22.19.24.12a9.87,9.87,0,0,0-18.29-7.45c-2.14,5,.61,10.72,5.45,12.79a9.91,9.91,0,0,0,12.84-5.34C137.17,147.65,136.93,147.53,136.9,147.6Z"/><g class="cls-35"><path class="cls-36" d="M134.38,139.56c0,2.33-2.68,4.21-5.94,4.18s-5.89-2-5.87-4.29,2.68-4.21,6-4.18S134.41,137.22,134.38,139.56Z"/></g><path class="cls-37" d="M132.44,135.33a8.27,8.27,0,1,1-1.58-.64,9.73,9.73,0,1,0,1.58.64Z"/><g class="cls-27"><path class="cls-28" d="M203.13,158.86c.55,7.38,6,15.39,12.12,17.88s10.66-1.47,10.1-8.85-6-15.38-12.12-17.87S202.57,151.48,203.13,158.86Z"/></g><path class="cls-29" d="M204.56,158.71c.54,7.14,5.78,14.87,11.72,17.28s10.31-1.41,9.77-8.55-5.79-14.87-11.72-17.28S204,151.57,204.56,158.71Z"/><path class="cls-38" d="M204.44,158.67a22.45,22.45,0,0,0,8.72,15.6c3.51,2.65,8.94,4,11.74-.33,1.57-2.4,1.5-5.64,1-8.34a22.64,22.64,0,0,0-3.72-8.71c-2.63-3.89-7.35-8.16-12.44-7.44-4.37.62-5.57,5.5-5.33,9.22,0,.07.25.16.24.08-.18-2.86.29-5.94,2.55-7.92,2.46-2.15,6-1.32,8.59.11,5.69,3.16,9.55,10.09,10.11,16.46.24,2.83-.33,6-2.55,7.92-2.46,2.15-6,1.32-8.59-.11-5.69-3.16-9.55-10.09-10.11-16.46C204.67,158.68,204.43,158.59,204.44,158.67Z"/><path class="cls-28" d="M226.05,167.44a21.61,21.61,0,0,0-3.09-9.23,19.93,19.93,0,0,1,2.65,8.19c.5,6.64-3.57,10.21-9.09,8s-10.41-9.45-10.92-16.09,3.48-10.12,8.91-8l-.18-.08c-5.94-2.41-10.31,1.41-9.77,8.55s5.78,14.87,11.72,17.28S226.59,174.58,226.05,167.44Z"/><path class="cls-28" d="M207.28,159.34c.44,5.77,4.68,12,9.47,14s8.33-1.14,7.89-6.9-4.67-12-9.47-14S206.85,153.58,207.28,159.34Z"/><path class="cls-33" d="M208.32,159.25c.39,5.21,4.23,10.85,8.56,12.61s7.52-1,7.13-6.24-4.22-10.86-8.56-12.61S207.93,154,208.32,159.25Z"/><path class="cls-39" d="M208.2,159.19c.44,4.88,3.51,10.3,8.07,12.46,1.8.85,3.84,1.22,5.62.11,2-1.24,2.36-3.95,2.24-6.08-.29-4.85-3.62-10.35-8.07-12.46-1.8-.85-3.85-1.22-5.63-.11-2,1.24-2.35,3.95-2.23,6.08,0,.08.24.18.24.11a7.16,7.16,0,0,1,1.59-5.53c1.69-1.79,4.37-1.29,6.32-.28,4.27,2.21,7.12,7.4,7.54,12.08a7,7,0,0,1-1.59,5.53c-1.68,1.79-4.37,1.29-6.31.28-4.28-2.21-7.12-7.41-7.55-12.08C208.43,159.22,208.19,159.13,208.2,159.19Z"/><path class="cls-37" d="M224,165.62c-.39-5.21-4.22-10.86-8.56-12.61s-7.52,1-7.13,6.24,4.23,10.85,8.56,12.61S224.4,170.83,224,165.62Zm-6.74,3c-3.46-1.41-6.53-5.93-6.84-10.09s2.24-6.4,5.7-5,6.54,5.93,6.85,10.1S220.74,170.06,217.27,168.65Z"/><g class="cls-27"><path class="cls-28" d="M67.52,102.1c-5.65,4.78-15.16,6.53-21.24,3.91s-6.44-8.63-.8-13.41,15.16-6.53,21.25-3.91S73.17,97.32,67.52,102.1Z"/></g><path class="cls-29" d="M66.62,101c-5.46,4.62-14.65,6.31-20.54,3.77s-6.22-8.33-.76-13S60,85.47,65.86,88,72.08,96.35,66.62,101Z"/><path class="cls-38" d="M66.73,101a22.4,22.4,0,0,1-17.23,4.74c-4.35-.64-9.1-3.58-8-8.59.61-2.81,3-5,5.23-6.59a22.6,22.6,0,0,1,8.8-3.46c4.63-.86,11-.49,14,3.64,2.63,3.55,0,7.82-2.83,10.26,0,.06-.29-.06-.23-.11,2.17-1.88,4-4.38,3.86-7.38-.2-3.26-3.28-5.2-6.11-6-6.25-1.85-13.89.27-18.82,4.34-2.18,1.81-4,4.43-3.85,7.38.19,3.26,3.28,5.2,6.11,6,6.24,1.84,13.89-.28,18.81-4.35C66.56,100.86,66.8,101,66.73,101Z"/><path class="cls-28" d="M45.32,91.78a21.61,21.61,0,0,1,8.74-4.27,19.73,19.73,0,0,0-7.69,3.86c-5.08,4.3-4.77,9.7.71,12.06s14,.79,19.12-3.51,4.77-9.58-.53-12l.19.08c5.88,2.53,6.22,8.34.76,13S52,107.28,46.08,104.74,39.86,96.41,45.32,91.78Z"/><path class="cls-28" d="M64.26,99.47c-4.42,3.74-11.84,5.1-16.59,3s-5-6.73-.62-10.46S58.89,87,63.64,89,68.67,95.74,64.26,99.47Z"/><path class="cls-33" d="M63.6,98.67c-4,3.37-10.7,4.61-15,2.75s-4.54-6.08-.55-9.46,10.69-4.61,15-2.75S67.59,95.29,63.6,98.67Z"/><path class="cls-39" d="M63.72,98.71c-3.79,3.11-9.8,4.73-14.54,3-1.87-.69-3.56-1.89-4-3.93-.52-2.3,1.16-4.46,2.77-5.86,3.64-3.2,9.9-4.69,14.53-3,1.87.69,3.57,1.89,4,3.93.51,2.3-1.16,4.46-2.77,5.86-.06.06-.3,0-.25-.09a7.16,7.16,0,0,0,2.83-5c.09-2.45-2.15-4-4.23-4.69C57.49,87.42,51.8,89,48.16,92a7,7,0,0,0-2.82,5c-.09,2.45,2.15,4,4.23,4.69,4.58,1.5,10.28-.13,13.9-3.1C63.54,98.57,63.77,98.67,63.72,98.71Z"/><path class="cls-37" d="M48.6,101.42c4.3,1.86,11,.62,15-2.75s3.73-7.61-.56-9.46-11-.62-15,2.75S44.31,99.57,48.6,101.42Zm1.57-10.1c3.19-2.7,8.56-3.69,12-2.21s3.64,4.87.45,7.57-8.56,3.69-12,2.21S47,94,50.17,91.32Z"/><path class="cls-40" d="M92,80.27q-4.24-.45-8.51-.69C45.39,77.43,28.74,92.81,25.69,96l-.55-.24-3.55,8.48s2.86,7.79,14.22,19.56c-3,10.67,10,35.44,34.83,55.69l2.07,1.65c2.19,1.73,4.48,3.41,6.85,5.05l.6.42.11.07q1.78,1.23,3.64,2.4l.15.1q2.79,1.77,5.7,3.44l1.58.88.44.24a133.06,133.06,0,0,0,12.76,6.15,137.72,137.72,0,0,0,34.77,9.4c34.44,4.64,63.78-4.37,68.14-14.78h0l.15-.4c15.27,0,23.29-2.25,23.29-2.25l3.55-8.48v0c2.4-11-5.36-34-32-56.36"/><rect class="cls-41" x="160.56" y="119.21" width="4.6" height="21.41" rx="2.3" transform="translate(-14.06 19.92) rotate(-6.71)"/><rect class="cls-41" x="175.32" y="121.35" width="4.6" height="21.41" rx="2.3" transform="translate(-14.21 21.66) rotate(-6.71)"/><path class="cls-42" d="M81.6,93.86c2.8,3.56,52.4,58.55,119,47.77l9.65-68c2.19-15.5-6.49-32.12-22.36-42.2l-1.43-.88c-21.93-13.27-49.59-10-62.38,7Z"/><path class="cls-43" d="M194.16,106.3s-6.89-34.65-29.59-44.43-52.62,9-52.62,9c-9.36-6.64,21.19-63.18,67-42.42C222,44.54,208.22,109,194.16,106.3Z"/><path class="cls-44" d="M192.09,111.81s-6.9-34.66-29.6-44.43-52.61,9-52.61,9c-9.36-6.65,21.19-63.18,67-42.42C219.94,50.05,206.14,114.47,192.09,111.81Z"/><path class="cls-45" d="M161,39.21s-23.2,10.17-37.87,32.06S101,109.45,101,109.45c-14-12.41-22.19-3.37,8-47.65C135.4,20.54,168.12,26,161,39.21Z"/><path class="cls-46" d="M183.56,48.91s8.57,23.84,2.76,49.54-12.51,42.33-12.51,42.33c18.6,1.6,17.7,13.8,29.09-38.58C214.75,54.69,188.27,34.71,183.56,48.91Z"/><g class="cls-47"><path class="cls-36" d="M196.42,102.41a35.12,35.12,0,0,0,.63-7.47,115.71,115.71,0,0,0-2-22.61,47.35,47.35,0,0,0-2-7.09c-1.65-4.54-2.64-9-4.39-13.51a66.15,66.15,0,0,0-3.13-6.95l.49-.63c5.57,1.52,9.76,6.32,12.29,11.3s2.81,10.67,3.11,16.09c.15,2.68.19,5.35.1,8A82.13,82.13,0,0,1,198,101a8.13,8.13,0,0,1-.89,1.91l-.66-.45Z"/></g></g></g></svg>