<svg id="Layer_1" data-name="Layer 1" xmlns="http://www.w3.org/2000/svg" viewBox="0 0 206.76 183.53"><defs><style>.cls-1{opacity:0.3;}.cls-2{fill:#667a15;}.cls-3{fill:#825431;}.cls-4{fill:#cc9869;}.cls-5{fill:#af8358;}.cls-6{fill:#99683c;}.cls-7{fill:#c69466;}.cls-8{fill:#eacf8c;}.cls-9{fill:#f2daa5;}.cls-10{fill:#ceaf6a;}.cls-11{fill:#aa6b37;}.cls-12{fill:#b5835d;}.cls-13{fill:#c67b42;}.cls-14{fill:none;stroke:#472914;stroke-miterlimit:10;}</style></defs><path class="cls-1" d="M167,128.63H32.53c-1.42,0-2.25-2.18-1.44-3.78l11.09-22a1.7,1.7,0,0,1,1.44-1H155.9a1.67,1.67,0,0,1,1.43,1l11.1,22C169.23,126.45,168.4,128.63,167,128.63Z"/><polygon class="cls-2" points="144.03 116.47 58.18 116.47 46.54 71.68 155.67 71.68 144.03 116.47"/><polygon class="cls-3" points="167.22 94.78 34.99 94.78 46.54 71.68 155.67 71.68 167.22 94.78"/><polygon class="cls-4" points="167.22 94.78 152.49 94.78 150.01 89.92 153.94 71.68 167.22 94.78"/><polygon class="cls-5" points="155.03 71.68 149.98 89.97 52.23 89.97 46.54 71.68 155.03 71.68"/><polygon class="cls-6" points="52.27 90.11 50.72 94.78 34.99 94.78 47.63 73.18 52.27 90.11"/><path class="cls-7" d="M47.6,73.26l.75-1.58H153.88l.73,1.53S47.5,73.12,47.6,73.26Z"/><path class="cls-8" d="M153.13,95.06l-51.28,23-51.29-23s-.12-4.2,2.09-6.74C63,76.43,91.26,52.7,91.26,52.7c6.21-6.45,15-6.45,21.17,0,0,0,28.63,25.24,37.25,34.14A12.2,12.2,0,0,1,153.13,95.06Z"/><path class="cls-9" d="M99.09,52.1,98,53.46a1.29,1.29,0,0,0,0,1.48.68.68,0,0,0,1.13,0l1.13-1.35a1.31,1.31,0,0,0,0-1.49.68.68,0,0,0-1.13,0Z"/><path class="cls-9" d="M95,57.14a11.37,11.37,0,0,1-3.28,4.14c-.89.68-.09,2.5.81,1.81a13.55,13.55,0,0,0,3.85-4.89c.56-1.14-.83-2.2-1.38-1.06Z"/><path class="cls-9" d="M87.2,58.81l-.2.32a1.33,1.33,0,0,0-.24.74,1.27,1.27,0,0,0,.24.75.68.68,0,0,0,1.13,0l.2-.32a1.32,1.32,0,0,0,.23-.74,1.26,1.26,0,0,0-.23-.75.68.68,0,0,0-1.13,0Z"/><path class="cls-9" d="M111.25,58.81l1.89,1.95a.69.69,0,0,0,1.13,0,1.31,1.31,0,0,0,0-1.49l-1.89-2a.69.69,0,0,0-1.13,0,1.31,1.31,0,0,0,0,1.49Z"/><path class="cls-9" d="M100.78,57.85l.56,4.94c.16,1.34,1.7.77,1.55-.56l-.57-4.94c-.15-1.33-1.7-.77-1.54.56Z"/><path class="cls-9" d="M107.24,70.5l1,2.63a.72.72,0,0,0,1.1.38,1.29,1.29,0,0,0,.28-1.44l-1-2.63a.71.71,0,0,0-1.09-.38,1.28,1.28,0,0,0-.29,1.44Z"/><path class="cls-9" d="M112.94,84.84c.52.88,1,1.76,1.58,2.64a.67.67,0,0,0,1.13,0,1.31,1.31,0,0,0,0-1.48l-1.58-2.65a.67.67,0,0,0-1.13,0,1.33,1.33,0,0,0,0,1.49Z"/><path class="cls-9" d="M130.11,92.36l3.26,1.72c1,.51,1.37-1.53.43-2l-3.27-1.73c-.95-.5-1.37,1.53-.42,2Z"/><path class="cls-9" d="M124,73.57l1.84,1.58c.87.74,1.67-1.08.81-1.82l-1.84-1.57c-.87-.74-1.67,1.08-.81,1.81Z"/><path class="cls-9" d="M117.68,63.87h.16a1,1,0,0,0,.8-1c0-.57-.35-1-.8-1h-.16a1,1,0,0,0-.8,1c0,.57.36,1,.8,1Z"/><path class="cls-9" d="M113.38,72.91l1.89,2.14a.69.69,0,0,0,1.13,0,1.31,1.31,0,0,0,0-1.49l-1.89-2.14a.69.69,0,0,0-1.13,0,1.31,1.31,0,0,0,0,1.49Z"/><path class="cls-9" d="M120.05,87.42l1.19,1.17c.33.34.91.09,1.09-.37a1.31,1.31,0,0,0-.28-1.44l-1.19-1.18c-.34-.33-.91-.08-1.1.38a1.3,1.3,0,0,0,.29,1.44Z"/><path class="cls-9" d="M98.26,68.29c0,.7.1,1.4.14,2.1s.34,1.06.8,1.06a1,1,0,0,0,.8-1.06c0-.7-.09-1.4-.14-2.1s-.34-1.05-.8-1.05a1,1,0,0,0-.8,1.05Z"/><path class="cls-9" d="M99.34,81.13c.19,2.14.37,4.28.56,6.41.12,1.33,1.72,1.35,1.6,0-.19-2.13-.37-4.27-.56-6.41-.12-1.33-1.72-1.35-1.6,0Z"/><path class="cls-9" d="M100.3,92.69a12.75,12.75,0,0,1,.58,4.74c-.07,1.35,1.53,1.34,1.61,0a14.91,14.91,0,0,0-.64-5.3c-.39-1.23-1.94-.69-1.55.56Z"/><path class="cls-9" d="M105.05,87.17l1,.64a.72.72,0,0,0,1.09-.38,1.27,1.27,0,0,0-.29-1.44l-1-.64a.72.72,0,0,0-1.09.38,1.27,1.27,0,0,0,.29,1.44Z"/><path class="cls-9" d="M115.6,96.35l2.08,2c.35.34.89.08,1.09-.37a1.27,1.27,0,0,0-.28-1.44l-2.09-2c-.35-.34-.89-.08-1.09.38a1.28,1.28,0,0,0,.29,1.44Z"/><path class="cls-9" d="M106.88,101.22c1,0,1-2.11,0-2.11s-1,2.11,0,2.11Z"/><path class="cls-9" d="M95.12,100.69c1,0,1-2.1,0-2.1s-1,2.1,0,2.1Z"/><path class="cls-9" d="M90.21,73.77A17.28,17.28,0,0,0,88.94,80c0,1.35,1.57,1.35,1.6,0a14.2,14.2,0,0,1,1-5.14c.5-1.19-.88-2.25-1.38-1.06Z"/><path class="cls-9" d="M88,83.76c-.1,2.21-.19,4.42-.29,6.63-.06,1.35,1.54,1.35,1.6,0,.1-2.21.19-4.42.29-6.63.06-1.35-1.54-1.35-1.6,0Z"/><path class="cls-9" d="M76.37,95.37l-.24,1.37c-.09.53.13,1.16.56,1.29a.82.82,0,0,0,1-.74c.07-.45.15-.91.23-1.36s-.12-1.17-.56-1.3a.81.81,0,0,0-1,.74Z"/><path class="cls-9" d="M85.12,86.93h.32a1,1,0,0,0,.8-1.06c0-.57-.35-1-.8-1h-.32c-.42,0-.82.49-.8,1s.35,1,.8,1.05Z"/><path class="cls-9" d="M81.84,69.7l-1.2,1a1.28,1.28,0,0,0-.29,1.44c.23.45.72.7,1.1.37l1.2-1a1.28,1.28,0,0,0,.28-1.44c-.22-.45-.72-.7-1.09-.37Z"/><path class="cls-9" d="M74.33,88.23,73.66,91c-.32,1.29,1.22,1.85,1.54.56l.67-2.72c.32-1.29-1.23-1.84-1.54-.56Z"/><path class="cls-9" d="M78.83,68.1l-2.07,1.61c-.89.68-.08,2.5.81,1.81l2.06-1.6c.89-.69.09-2.51-.8-1.82Z"/><path class="cls-9" d="M67,81.36,63.17,84.9c-.83.78,0,2.6.81,1.82l3.78-3.54c.83-.78,0-2.6-.81-1.82Z"/><path class="cls-9" d="M63.68,90.58l-1.62,2.29c-.7,1,.43,2.48,1.13,1.49l1.62-2.29c.7-1-.43-2.48-1.13-1.49Z"/><path class="cls-9" d="M81.67,76.29a6.88,6.88,0,0,0-2.58,3.93c-.36,1.27,1.18,1.82,1.54.56a4.71,4.71,0,0,1,1.84-2.67c.92-.63.11-2.45-.8-1.82Z"/><path class="cls-9" d="M104.73,65.49l.09.06s.16.13.05,0,0,0,0,0a.1.1,0,0,0,0,0c0,.06,0,0-.05-.07a.24.24,0,0,0,.06.11c.07.15,0-.06,0-.06a.85.85,0,0,1,0,.17c0,.11,0-.27,0,0,0,.54.35,1.07.8,1a1,1,0,0,0,.8-1,2.55,2.55,0,0,0-1-2.1.73.73,0,0,0-1.1.38,1.27,1.27,0,0,0,.29,1.44Z"/><path class="cls-9" d="M99.88,75.71c1,0,1-2.11,0-2.11s-1,2.11,0,2.11Z"/><path class="cls-9" d="M106.3,56.89v.63c0,.55.37,1.08.8,1.06a1,1,0,0,0,.8-1.06v-.63c0-.55-.37-1.07-.8-1a1,1,0,0,0-.8,1Z"/><path class="cls-9" d="M91.58,97.36c1,0,1-2.1,0-2.1s-1,2.1,0,2.1Z"/><path class="cls-9" d="M73.21,96.73,73,97.5a1.12,1.12,0,0,0,.56,1.29c.45.14.83-.18,1-.73l.22-.77a1.14,1.14,0,0,0-.56-1.3c-.45-.13-.83.18-1,.74Z"/><path class="cls-9" d="M135.47,96.35l.16.49a.9.9,0,0,0,.48.48.66.66,0,0,0,.62-.1,1.11,1.11,0,0,0,.37-.63,1.58,1.58,0,0,0-.08-.81l-.16-.49a.89.89,0,0,0-.48-.49.64.64,0,0,0-.62.11,1.08,1.08,0,0,0-.37.63,1.6,1.6,0,0,0,.08.81Z"/><path class="cls-9" d="M136.55,83.32a2.72,2.72,0,0,1,1.15,1.11c.26.46.7.69,1.1.38a1.26,1.26,0,0,0,.29-1.44A4.91,4.91,0,0,0,137,81.29c-.41-.2-.88.22-1,.73a1.16,1.16,0,0,0,.56,1.3Z"/><path class="cls-9" d="M128.48,86.28c1,0,1-2.11,0-2.11s-1,2.11,0,2.11Z"/><path class="cls-9" d="M124.86,91.26c1,0,1-2.11,0-2.11s-1,2.11,0,2.11Z"/><path class="cls-9" d="M116.43,90.91c1,0,1-2.11,0-2.11s-1,2.11,0,2.11Z"/><path class="cls-9" d="M106.46,93.78c1,0,1-2.1,0-2.1s-1,2.1,0,2.1Z"/><path class="cls-9" d="M96.84,52.3c1,0,1-2.1,0-2.1s-1,2.1,0,2.1Z"/><path class="cls-10" d="M87.91,62.64,85.56,65a1.3,1.3,0,0,0-.29,1.43c.2.45.75.73,1.1.38.78-.79,1.57-1.58,2.35-2.38A1.28,1.28,0,0,0,89,63c-.2-.45-.75-.73-1.1-.38Z"/><path class="cls-10" d="M93.2,53.13c-.33.33-.67.66-1,1a1.17,1.17,0,0,0-.37.63,1.4,1.4,0,0,0,.08.81c.22.43.74.73,1.1.37l1-1a1.18,1.18,0,0,0,.37-.62,1.47,1.47,0,0,0-.08-.81c-.22-.44-.74-.74-1.1-.38Z"/><path class="cls-10" d="M104.2,53.24l.93,1.57a.68.68,0,0,0,1.13,0,1.35,1.35,0,0,0,0-1.49l-.93-1.56a.67.67,0,0,0-1.13,0,1.31,1.31,0,0,0,0,1.48Z"/><path class="cls-10" d="M109.16,62.61a25.26,25.26,0,0,1,2.74,5.27c.47,1.21,1.85.15,1.38-1.06a28,28,0,0,0-3-5.7c-.7-1-1.82.49-1.14,1.49Z"/><path class="cls-10" d="M117.76,68.2l2.42,2.6a.69.69,0,0,0,1.13,0,1.29,1.29,0,0,0,0-1.49l-2.42-2.6a.69.69,0,0,0-1.13,0,1.29,1.29,0,0,0,0,1.49Z"/><path class="cls-10" d="M100.1,50.54l.65.18a.81.81,0,0,0,1-.73c.09-.53-.12-1.17-.56-1.3l-.64-.18a.82.82,0,0,0-1,.73c-.09.53.12,1.18.56,1.3Z"/><path class="cls-10" d="M103.43,73.5l1,5.37c.24,1.31,1.78.76,1.55-.56-.32-1.79-.65-3.58-1-5.37-.23-1.31-1.78-.76-1.54.56Z"/><path class="cls-10" d="M117.83,78.8A35.2,35.2,0,0,1,125.21,85c.78.86,1.92-.62,1.13-1.49a36.79,36.79,0,0,0-7.7-6.53c-.93-.58-1.74,1.23-.81,1.81Z"/><path class="cls-10" d="M129.16,79.67A8.74,8.74,0,0,1,133,82.3c.77.89,1.91-.59,1.13-1.48a10.46,10.46,0,0,0-4.57-3.18c-1-.33-1.43,1.7-.43,2Z"/><path class="cls-10" d="M141.5,89.76l3.77,3c.88.7,1.69-1.12.81-1.82l-3.78-3c-.88-.71-1.68,1.11-.8,1.81Z"/><path class="cls-10" d="M110.64,79.55l.4.42a.78.78,0,0,0,.56.31.72.72,0,0,0,.57-.31,1.29,1.29,0,0,0,0-1.48l-.4-.42a.79.79,0,0,0-.57-.31.71.71,0,0,0-.56.31,1.29,1.29,0,0,0,0,1.48Z"/><path class="cls-10" d="M123.54,95.3a7.21,7.21,0,0,0,5.9,3.14c1,0,1-2.13,0-2.11a5.71,5.71,0,0,1-4.77-2.52c-.72-1-1.86.53-1.13,1.49Z"/><path class="cls-10" d="M135.42,87.9c1,1,1.91,2,2.87,3a.69.69,0,0,0,1.13,0,1.31,1.31,0,0,0,0-1.49l-2.87-3a.68.68,0,0,0-1.13,0,1.29,1.29,0,0,0,0,1.48Z"/><path class="cls-10" d="M141.84,96.17c1,0,1-2.11,0-2.11s-1,2.11,0,2.11Z"/><path class="cls-10" d="M108.65,93c.6,1.69,1.19,3.39,1.79,5.08.43,1.23,1.81.16,1.38-1.06Q110.94,94.5,110,92c-.43-1.23-1.81-.16-1.38,1.06Z"/><path class="cls-10" d="M94.44,77.76l-.24,6c-.06,1.35,1.54,1.35,1.6,0l.24-6c0-1.35-1.55-1.35-1.6,0Z"/><path class="cls-10" d="M94.1,92c0,1.75.05,3.51.08,5.26,0,1.35,1.62,1.36,1.6,0,0-1.75-.06-3.51-.08-5.26,0-1.35-1.62-1.36-1.6,0Z"/><path class="cls-10" d="M93.75,68.13l-.57,1.79a1.12,1.12,0,0,0,.56,1.29c.46.17.82-.2,1-.73l.57-1.79a1.12,1.12,0,0,0-.56-1.29c-.46-.17-.81.21-1,.73Z"/><path class="cls-10" d="M86.67,96l-.12,2.53a1,1,0,0,0,.8,1.05c.46,0,.78-.48.8-1.05L88.27,96a1,1,0,0,0-.8-1c-.45,0-.77.48-.8,1Z"/><path class="cls-10" d="M86.1,72.22,85,75.56A1.29,1.29,0,0,0,85.24,77a.7.7,0,0,0,1.09-.37c.38-1.12.77-2.24,1.15-3.35a1.29,1.29,0,0,0-.29-1.44.71.71,0,0,0-1.09.38Z"/><path class="cls-10" d="M80.27,85.32Q79,88.49,77.74,91.65c-.48,1.2.9,2.27,1.38,1.07l2.53-6.33c.48-1.2-.9-2.27-1.38-1.07Z"/><path class="cls-10" d="M81,94.9v2.42c0,1.36,1.6,1.36,1.6,0V94.9c0-1.35-1.6-1.35-1.6,0Z"/><path class="cls-10" d="M74.16,81l-2.4,3.47c-.69,1,.44,2.49,1.13,1.49l2.41-3.47c.69-1-.44-2.49-1.14-1.49Z"/><path class="cls-10" d="M68.28,91.64,66.36,96c-.52,1.17.86,2.23,1.38,1.06l1.92-4.32c.52-1.17-.86-2.23-1.38-1.06Z"/><path class="cls-10" d="M72.19,74.2a3.56,3.56,0,0,0-1.75,2.54A1.15,1.15,0,0,0,71,78c.42.15.88-.19,1-.74,0-.08,0-.16,0-.25s0,.08,0-.08a2.14,2.14,0,0,0,.1-.22s.12-.19,0-.07l.11-.16s.15-.17.1-.12.1-.08.11-.09.22-.15.09-.08a1.14,1.14,0,0,0,.56-1.29c-.1-.5-.58-1-1-.74Z"/><path class="cls-10" d="M60.58,87.83a35.36,35.36,0,0,0-4.83,5.27c-.72,1,.41,2.46,1.13,1.49a32.43,32.43,0,0,1,4.51-4.94c.85-.75,0-2.57-.81-1.82Z"/><path class="cls-10" d="M130,74.91h.11c-.12,0-.13,0,0,0l.1,0,0,0,.09.08q.1.09,0,0a.39.39,0,0,1,.08.1c-.06-.12-.07-.13,0,0,.23.45.71.7,1.09.38a1.27,1.27,0,0,0,.29-1.44A1.9,1.9,0,0,0,130,72.81a1,1,0,0,0-.8,1c0,.57.35,1,.8,1Z"/><path class="cls-10" d="M97.2,61.39l-.36,1.15a1.38,1.38,0,0,0,.08.81.92.92,0,0,0,.48.49c.46.14.81-.19,1-.74L98.74,62a1.43,1.43,0,0,0-.08-.82.94.94,0,0,0-.48-.48c-.46-.14-.81.19-1,.74Z"/><path class="cls-10" d="M82.56,64l-.44.32a1.26,1.26,0,0,0-.29,1.44.71.71,0,0,0,1.1.37l.44-.31a1.26,1.26,0,0,0,.28-1.44A.72.72,0,0,0,82.56,64Z"/><path class="cls-10" d="M77.08,74l-.24.36a1.33,1.33,0,0,0,0,1.49.68.68,0,0,0,1.13,0l.24-.37a1.33,1.33,0,0,0,0-1.48.67.67,0,0,0-1.13,0Z"/><path class="cls-10" d="M110.14,54l.43.14a.81.81,0,0,0,1-.74,1.13,1.13,0,0,0-.55-1.29l-.43-.14a.82.82,0,0,0-1,.74,1.15,1.15,0,0,0,.56,1.29Z"/><polygon class="cls-11" points="153.13 121.92 49.09 121.92 34.99 94.78 167.22 94.78 153.13 121.92"/><polygon class="cls-12" points="46.54 71.68 48.35 71.68 37.55 94.76 34.99 94.78 46.54 71.68"/><polygon class="cls-12" points="155.69 71.68 153.88 71.68 164.68 94.76 167.24 94.78 155.69 71.68"/><path class="cls-13" d="M37.57,94.83l.74-1.58H164l.72,1.53S37.46,94.69,37.57,94.83Z"/><path class="cls-14" d="M166.69,94.84h.22l-11.55-23.1H133.28c-10.34-9.42-21.17-19-21.17-19-6.21-6.46-15-6.46-21.17,0,0,0-10.92,9.17-21.68,19h-23L34.66,94.84h0L48.76,122h104l14.1-27.14Z"/></svg>