<svg xmlns="http://www.w3.org/2000/svg" xmlns:xlink="http://www.w3.org/1999/xlink" viewBox="0 0 206.76 192.71"><defs><style>.cls-1{isolation:isolate;}.cls-2{fill:url(#linear-gradient);}.cls-3{fill:url(#linear-gradient-2);}.cls-4{opacity:0.1;}.cls-5{opacity:0.2;}.cls-6{fill:url(#linear-gradient-3);}.cls-7{fill:#753523;}.cls-8{fill:#bf9158;stroke:#471d00;stroke-miterlimit:10;stroke-width:0.5px;}.cls-9{mix-blend-mode:multiply;}.cls-10{fill:#ccc6c2;}.cls-11{fill:#fff;mix-blend-mode:screen;opacity:0.3;}.cls-12{fill:#1c0e03;}</style><linearGradient id="linear-gradient" x1="98.81" y1="29.1" x2="98.81" y2="48.5" gradientUnits="userSpaceOnUse"><stop offset="0" stop-color="#7c3a25"/><stop offset="0.49" stop-color="#8c4638"/><stop offset="1" stop-color="#7c3a25"/></linearGradient><linearGradient id="linear-gradient-2" x1="76.02" y1="58.09" x2="117.28" y2="129.55" gradientUnits="userSpaceOnUse"><stop offset="0" stop-color="#e9e86f"/><stop offset="0.17" stop-color="#e6c65f"/><stop offset="0.4" stop-color="#e39f4d"/><stop offset="0.61" stop-color="#e0823f"/><stop offset="0.79" stop-color="#df7137"/><stop offset="0.92" stop-color="#de6b34"/></linearGradient><linearGradient id="linear-gradient-3" x1="95.9" y1="43.28" x2="95.94" y2="73.85" xlink:href="#linear-gradient"/></defs><g class="cls-1"><g id="Layer_1" data-name="Layer 1"><path class="cls-2" d="M100.85,23.58S95.31,25,89.64,45.35l-.53,3.82,7,.13.07-4.08s1.62-7.71,11.14-13.33C111,29.72,105.4,22.93,100.85,23.58Z"/><path class="cls-3" d="M131.83,77.55A133,133,0,0,0,96.31,72.9a133,133,0,0,0-35.52,4.65,11.63,11.63,0,0,1-1.16,2.19c0,21.74,7.85,59.4,31.3,59.4.46,3,1.92,5.13,3.66,5.13s3.22-2.22,3.66-5.22c28.1,0,33.6-38.67,33.6-60.19v-.08C131.85,78.37,131.85,78,131.83,77.55Z"/><path class="cls-4" d="M118.87,71.16S132,70.93,132,79.64c0,11.07-1.91,27.32-6.6,38.21-4.1,9.54-11.18,21.2-27.14,21.2,0,0-.75,5.22-3.57,5.22a14.13,14.13,0,0,0,1.86-5.83S118.87,118.21,118.87,71.16Z"/><path class="cls-5" d="M59.64,79.67s0,3.19.15,4.5a34.4,34.4,0,0,1,7.59-3.31c6.33-1.68,31.64-5.14,55.36.49,2.92.7,7.06,1.92,8.94,3.37,0,0,.15-4,.15-5,0,0-3-10.06-5.83-11.76-11.93-7.19-43.38-5-55.73,1.44C67,71.07,59.64,79.67,59.64,79.67Z"/><path class="cls-6" d="M59.6,79.72a108.5,108.5,0,0,1,35.45-6.39,106.81,106.81,0,0,1,36.73,6.39s15.65-10-.32-21.08c-18.11-12.59-27-13.42-35.29-13.42-7,0-16.65.84-34.33,13.34C47.15,68.94,54.65,77.08,59.6,79.72Z"/><path class="cls-7" d="M92.74,45.43c-.12.06-1.75,1.16-1.85,1.23l-.78.49c-2,1.3-4.06,2.66-6,4.06L83,52c-2.06,1.53-4,3.12-6,4.81-.38.33-.77.67-1.14,1a77.49,77.49,0,0,0-6,6c-.38.43-.77.85-1.13,1.29l-.46.54a80.78,80.78,0,0,0-5.49,7.43c-.4.59-.78,1.19-1.16,1.79-.58.92-2.15,3.48-2.69,4.42a12.67,12.67,0,0,1-1.75-1.23c.15-.25,3.13-4.74,3.29-5,.38-.56.76-1.14,1.15-1.69a82,82,0,0,1,6-7.57l1.11-1.24c1.9-2,3.9-4,6-5.81.39-.34.76-.67,1.15-1,1.94-1.65,3.94-3.2,6-4.63L83,50.46c2-1.37,5.65-3.77,7.77-4.89Z"/><path class="cls-7" d="M106.32,46.18c-.24.14-1.74.82-2,1-2.06,1.3-4.06,2.66-6,4.06L97.22,52c-2,1.53-4,3.12-6,4.81q-.57.49-1.14,1a77.49,77.49,0,0,0-6,6c-.38.43-.76.85-1.12,1.29-.16.18-.32.36-.46.54A80.9,80.9,0,0,0,77,73.14c-.29.43-1.07,1.72-1.34,2.16-.19,0-2.35.49-2.61.53.35-.56,1.28-2.14,1.65-2.69s.76-1.14,1.15-1.69a81.9,81.9,0,0,1,6-7.57c.36-.41.74-.83,1.12-1.24,1.9-2,3.9-4,6-5.81q.57-.51,1.14-1c1.94-1.65,4-3.2,6-4.63l1.1-.75a72.77,72.77,0,0,1,6.34-3.8l1.62-.72C105.29,46,106.08,46.14,106.32,46.18Z"/><path class="cls-7" d="M115.39,49.23c-.85.58-2,1.38-2.84,2l-1.1.81c-2.06,1.53-4,3.12-6,4.81-.38.33-.77.67-1.14,1a79.42,79.42,0,0,0-6,6c-.37.43-.76.85-1.12,1.29l-.46.54a82.78,82.78,0,0,0-5.5,7.43l-.24.29-2.37.12.31-.41c.38-.56.76-1.14,1.15-1.69a80.35,80.35,0,0,1,6-7.57c.36-.41.73-.83,1.11-1.24,1.9-2,3.9-4,6-5.81.38-.34.76-.67,1.15-1,1.94-1.65,3.94-3.2,6-4.63l1.11-.75c.79-.53,1.91-1.26,2.71-1.75C114.59,48.87,115,49.06,115.39,49.23Z"/><path class="cls-7" d="M123.6,53.56c-1.17.92-2.77,2.28-3.9,3.27q-.57.49-1.14,1a77.49,77.49,0,0,0-6,6c-.38.43-.76.85-1.12,1.29-.16.18-.32.36-.46.54a79.1,79.1,0,0,0-5.5,7.43l-.11.17h0l-1,0-1.17,0h-.12l.06-.09c.37-.56.76-1.14,1.15-1.69a81.9,81.9,0,0,1,6-7.57c.36-.41.74-.83,1.12-1.24a79.77,79.77,0,0,1,6-5.81c.38-.34.75-.67,1.14-1,1.11-.94,2.6-2.17,3.75-3C122.72,53.08,123.21,53.27,123.6,53.56Z"/><path class="cls-7" d="M138.44,67.4c-.1.15-4.4,5.58-4.5,5.74-.4.59-.78,1.19-1.15,1.79-.81,1.28-1.86,2.9-2.6,4.22a18.53,18.53,0,0,0-1.88-.66c.83-1.45,2.4-3.95,3.32-5.35.38-.56.77-1.14,1.16-1.69s4.48-6,4.81-6.41A9.37,9.37,0,0,1,138.44,67.4Z"/><path class="cls-7" d="M131.88,59c-1,1-4.15,3.86-5.09,4.92-.37.43-.76.85-1.12,1.29l-.46.54a80.9,80.9,0,0,0-5.5,7.43c-.3.45-1.49,2.15-1.78,2.61-.19,0-1.67-.37-2-.41.24-.37,1.27-1.84,1.51-2.2.38-.56.76-1.14,1.15-1.69a81.9,81.9,0,0,1,6-7.57c.37-.41.74-.83,1.12-1.24,1-1.08,3.81-3.62,4.86-4.64C131,58.31,131.27,58.5,131.88,59Z"/><path class="cls-7" d="M134.39,77.6c-.53-.94-1-1.75-1.6-2.67-.38-.6-.76-1.2-1.16-1.79a79.1,79.1,0,0,0-5.5-7.43c-.14-.18-.3-.36-.46-.54-.36-.44-.74-.86-1.12-1.29a77.49,77.49,0,0,0-6-6q-.57-.52-1.14-1c-1.92-1.69-3.91-3.28-6-4.81l-1.11-.81c-1.94-1.4-4-2.76-6-4.06l-.78-.49-2.19-1.24,1.92.22c2.1,1.11,6.13,3.46,8.16,4.82l1.1.75c2.06,1.43,4.07,3,6,4.63.39.32.76.65,1.14,1a79.77,79.77,0,0,1,6,5.81c.38.41.76.83,1.12,1.24a82,82,0,0,1,6,7.57l1.15,1.69c.15.23,1.64,2.76,1.79,3a7.37,7.37,0,0,1-.61.73C134.9,77.08,134.71,77.29,134.39,77.6Z"/><path class="cls-7" d="M121.48,76.56c-.26,0-2.32-.53-2.52-.55-.27-.43-1.26-2.44-1.55-2.87a80.9,80.9,0,0,0-5.5-7.43l-.46-.54c-.36-.44-.74-.86-1.12-1.29a77.49,77.49,0,0,0-6-6c-.38-.35-.76-.69-1.15-1-1.92-1.69-3.91-3.28-6-4.81l-1.1-.81c-2-1.4-4-2.76-6-4.06-.24-.16-2-1.06-2.22-1.21.21,0,1-.19,1.15-.2l1.85.92a71.15,71.15,0,0,1,6.33,3.8l1.11.75c2.06,1.43,4.07,3,6,4.63l1.14,1c2.07,1.82,4.07,3.77,6,5.81.38.41.75.83,1.12,1.24a81.9,81.9,0,0,1,6,7.57c.39.55.78,1.13,1.15,1.69S121.14,76,121.48,76.56Z"/><path class="cls-7" d="M105.92,73.89c-.08,0-2-.22-2.4-.23l-.33-.52a81,81,0,0,0-5.51-7.43c-.14-.18-.3-.36-.46-.54-.36-.44-.74-.86-1.11-1.29a79.42,79.42,0,0,0-6-6q-.57-.52-1.14-1c-1.92-1.69-3.91-3.28-6-4.81l-1.11-.81c-.84-.6-2.36-1.8-3.22-2.38.42-.17.81-.37,1.25-.52.8.49,2.29,1.62,3.08,2.15l1.1.75c2.06,1.43,4.07,3,6,4.63q.58.48,1.14,1a79.77,79.77,0,0,1,6,5.81c.39.41.76.83,1.12,1.24a80.35,80.35,0,0,1,6,7.57c.39.55.77,1.13,1.15,1.69Z"/><path class="cls-7" d="M91.45,73.4l-2.26.12L89,73.14a79.1,79.1,0,0,0-5.5-7.43L83,65.17c-.36-.44-.74-.86-1.12-1.29a77.49,77.49,0,0,0-6-6c-.38-.35-.76-.69-1.15-1-1.12-1-3.38-2.74-4.56-3.68.39-.29.94-.51,1.35-.78,1.16.88,3.25,2.52,4.36,3.47q.57.48,1.14,1a81.73,81.73,0,0,1,6,5.81c.38.41.75.83,1.12,1.24a81.9,81.9,0,0,1,6,7.57c.39.55.78,1.13,1.15,1.69Z"/><path class="cls-7" d="M65.7,77.71c-.63.2-1.51.43-1.75.53-.73-1.31-1.48-2-2.29-3.31a18.76,18.76,0,0,0-1.15-1.79c-3.81-4.89-6.35-6.43-6.35-6.43a13.91,13.91,0,0,1,1.28-2.16c.34.47,4.77,4.81,6.22,6.9l1.16,1.69C63.74,74.53,64.88,76.27,65.7,77.71Z"/><path class="cls-7" d="M78,74.88c-.36,0-1.9.34-2.09.37-.29-.46-.91-1.66-1.21-2.11a80.9,80.9,0,0,0-5.5-7.43l-.47-.54c-.36-.44-.74-.86-1.11-1.29-1-1.07-4.76-4.36-5.76-5.36.5-.37,1.32-.92,1.47-1,1.06,1,4.4,4.06,5.4,5.15.39.41.76.83,1.13,1.24a81.9,81.9,0,0,1,6,7.57c.39.55.77,1.13,1.15,1.69C77.28,73.5,77.8,74.51,78,74.88Z"/><path class="cls-8" d="M105.62,25.41c2.52,1.9,2.93,3.93,2.18,6-.61,1.7-5-.65-5.83-1.29s-3.87-3.59-2.79-5.05S102.4,23,105.62,25.41Z"/><g class="cls-9"><path class="cls-10" d="M104.72,28.16a.2.2,0,0,1,0,.1.1.1,0,0,1-.13,0,.6.6,0,0,1-.21-.09c-.87-.57-1.11-1.78,0-.82s1.28,2.09.13,1.4c-1.53-.93-2.32-2.83-1.61-2.86,1.14-.14,4.13,2.85,3.93,4.38-.08.78-1,.55-1.71.21A12.08,12.08,0,0,1,101,26.64c-.79-1.18-1-2.23-.89-1.69a2.45,2.45,0,0,0,.11.41c1,2.86,5.32,6.7,6.67,5.57,1-.81-.48-3.12-1.78-4.22-2.28-2-3.58-1-2.09,1,.58.75,1.66,1.66,2.24,1.47.77-.29-.26-1.81-1.18-2.22-.59-.27-.81.23-.24.88s1,.69.92.31C104.72,28.11,104.72,28.11,104.72,28.16Z"/></g><path class="cls-11" d="M69.46,89.87s.32-6.34-3.57-4.58.58,29.49,10.39,40.78,7.41,7,1.66-4.77S69.46,89.87,69.46,89.87Z"/><path class="cls-12" d="M101.48,24.54h0c2.43,0,5.14,2.36,5.86,4.4a1.61,1.61,0,0,1-.32,1.94l-.07.06,0,0,0,0-.05,0,0,0h0C97,36.82,95.26,44.69,95.19,45l-.25,1.2h1.23c1.37,0,3.19,0,5.12.2h0c1.26.11,2.46.28,3.65.5H105l.19,0A43.77,43.77,0,0,1,114,49.73l.3.13.65.29a78.36,78.36,0,0,1,7.31,3.79l.13.07.19.11c2.31,1.36,4.79,2.94,7.35,4.69l.08.06.28.19.58.4a17.52,17.52,0,0,1,5.81,6.05l.2.41c.06.14.12.27.17.41a3.12,3.12,0,0,1,.15.39l0,.1a1.54,1.54,0,0,1,.05.17.65.65,0,0,0,0,.13l0,.12c.73,2.79-.13,5.63-2.59,8.48a3.23,3.23,0,0,1-.37.43l-.31.31c-.1.1-.21.22-.37.37l.7.72-.74-.68a19.5,19.5,0,0,1-2.28,1.88l-.44.3v.59h0c0,11.27-2,27.34-6.52,37.82C120.81,126,114.23,137.4,99.55,138c-.43,0-.86,0-1.3,0h-.86l-.13.86s0,.08,0,.22a8.59,8.59,0,0,1-.77,2.48c-.46,1-1,1.52-1.54,1.64h-.35c-1.14,0-2.27-1.85-2.64-4.27l-.13-.85h-.85c-22,0-30.25-35.57-30.31-58.16V79.7l0-1.44-.92.35c-.28-.16-.55-.33-.84-.52l-.32-.23q-.27-.19-.54-.42l-.07,0-.06,0c-2-1.69-5.11-5.26-2.78-10.21l.24-.51c.13-.23.32-.55.59-1l.13-.19h0l.23-.32a26.11,26.11,0,0,1,6.16-5.78l.12-.08.13-.1,1-.7.13-.09c2.38-1.64,4.72-3.13,7-4.43l0,0,0,0c.16-.11.37-.22.61-.35h0l.57-.32a70.61,70.61,0,0,1,7-3.5l.76-.32h0l.46-.19a43.54,43.54,0,0,1,7.88-2.33c.19,0,.54-.11.76-.14h0l.28-.05.52-.08.74-.11.11-.74,0-.24c5.11-18.26,10-20.81,10.46-21l.4,0m0-1a4.44,4.44,0,0,0-.63,0S95.31,25,89.64,45.35l0,.3-.56.09h0L88,45.93a44.8,44.8,0,0,0-8,2.38h0c-.44.15-.83.35-1.25.52h0a72.15,72.15,0,0,0-7.14,3.54h0l-.15.09L71,52.7a6.77,6.77,0,0,0-.7.41c-2.18,1.27-4.51,2.75-7,4.47-.25.17-.76.51-1.17.81l-.24.17a26.63,26.63,0,0,0-6.39,6h0l-.24.36-.14.21a9.06,9.06,0,0,0-.9,1.58h0c-2.35,5,.15,9,3.06,11.4h0l.13.11.59.45.34.24a15.22,15.22,0,0,0,1.32.81l0,0v0h0c0,21.74,7.85,59.4,31.31,59.4.45,3,1.91,5.12,3.65,5.12h.09c1.28,0,2.12-1.07,2.68-2.24a9.81,9.81,0,0,0,.85-2.74c0-.15,0-.24,0-.24.45,0,.9,0,1.34,0,15-.63,21.82-11.91,25.8-21.17C130.08,107,132,90.71,132,79.64v-.07a19.24,19.24,0,0,0,2.4-2h0l.05,0,0,0,.66-.65a5.82,5.82,0,0,0,.46-.53c2-2.28,3.77-5.56,2.76-9.35a2.29,2.29,0,0,0-.07-.28c0-.11-.07-.21-.1-.31L138,66a6.21,6.21,0,0,0-.26-.59L137.6,65h0a18.31,18.31,0,0,0-6.13-6.41l-.87-.6-.06,0h0c-2.67-1.83-5.14-3.4-7.43-4.74l-.34-.2a77.8,77.8,0,0,0-7.38-3.82h0c-.34-.14-.66-.29-1-.42a44.21,44.21,0,0,0-9-2.82l-.24-.05h0c-1.31-.25-2.56-.41-3.76-.52h0c-1.81-.16-3.52-.2-5.21-.2,0,0,1.62-7.71,11.14-13.33h0a1,1,0,0,0,.33-.23c2.84-2.28-1.91-8.12-6.17-8.12Z"/></g></g></svg>