<svg id="Layer_1" data-name="Layer 1" xmlns="http://www.w3.org/2000/svg" xmlns:xlink="http://www.w3.org/1999/xlink" viewBox="0 0 206.76 192.71"><defs><style>.cls-1{fill:url(#radial-gradient);}.cls-2{opacity:0.05;}.cls-3{fill:#fff;opacity:0.8;}</style><radialGradient id="radial-gradient" cx="173.81" cy="196.27" r="49.06" gradientTransform="translate(-64.18 -86.73) scale(0.97 0.95)" gradientUnits="userSpaceOnUse"><stop offset="0" stop-color="#fff200"/><stop offset="0.37" stop-color="#fff200"/><stop offset="0.84" stop-color="#ffb600"/><stop offset="0.9" stop-color="#fcb102"/><stop offset="0.96" stop-color="#f4a309"/><stop offset="1" stop-color="#ed970f"/></radialGradient></defs><path class="cls-1" d="M132,141.73c-4.1,2.87-24.83-15-29.86-15S76,144.07,71.94,141.13s6.86-27.84,5.35-32.56S52.37,89.53,54,84.84,83,82.64,87.15,79.78s10.73-29.17,15.76-29.12S114,77.14,118.07,80.09s31.55,1,33.05,5.73-22.19,18.57-23.8,23.25S136.09,138.87,132,141.73Z"/><path class="cls-2" d="M127.19,81.78c-2.35,24.85-25.44,44.6-54.2,46.15-1.7,6.26-2.84,11.89-1,13.2,4,3,25.14-14.5,30.18-14.45s25.76,17.92,29.86,15-6.27-28-4.67-32.66,25.32-18.52,23.81-23.24C150.09,82.58,136.73,82.48,127.19,81.78Z"/><path class="cls-3" d="M102.35,52.52a47,47,0,0,0-2.9,5.79c-2.38,5.6-4.46,11.31-6.65,17a13.51,13.51,0,0,1-2.83,5,9.22,9.22,0,0,1-4.38,2.21,29.73,29.73,0,0,1-5.13.56c-5,.24-10,.17-15,.29a26.84,26.84,0,0,0-6.53,1,11.63,11.63,0,0,0-3.41,1.77c0,.19,2.68-.51,3.69-.79a26.48,26.48,0,0,1,6.35-.64c5-.11,9.91.27,14.88,0a48.75,48.75,0,0,0,6.78-.65,10.32,10.32,0,0,0,4.87-2.46,12.6,12.6,0,0,0,3-5.61c2.16-7.42,2.76-9.36,5.33-17.27C101,56.82,102.53,52.5,102.35,52.52Z"/></svg>