<svg id="Layer_1" data-name="Layer 1" xmlns="http://www.w3.org/2000/svg" viewBox="0 0 206.76 192.71"><defs><style>.cls-1{fill:#00f900;}</style></defs><path class="cls-1" d="M161.49,82.78c-2.94-9.21-13.8-9.85-27.55-10.65-2.66-.16-6.32-.37-8.71-.65-1-2.16-2.21-5.48-3.12-7.91-4.78-12.74-8.55-22.81-18.26-22.91h-.11c-9.63,0-13.6,9.94-18.62,22.53-1,2.41-2.28,5.71-3.28,7.85-2.4.23-6.06.37-8.73.47-13.76.53-24.63.94-27.76,10.09s5.29,16.12,16,24.77c2,1.63,4.77,3.85,6.54,5.44-.53,2.29-1.49,5.63-2.19,8.07C61.93,133,59,143.41,66.89,149.21A12,12,0,0,0,74,151.46h0c5.76,0,11.87-3.65,21.35-9.6,2.26-1.42,5.37-3.38,7.48-4.53,2.08,1.19,5.14,3.21,7.38,4.68,9.47,6.22,15.57,10,21.41,10a12,12,0,0,0,6.91-2.11c8-5.63,5.29-16.07,1.78-29.29-.65-2.45-1.54-5.81-2-8.11,1.8-1.56,4.6-3.73,6.65-5.32C155.86,98.78,164.47,92.12,161.49,82.78Zm-33.34,26.29c-1.6,4.69,8.77,29.8,4.67,32.66s-24.83-15-29.87-15-26.13,17.39-30.17,14.45,6.85-27.84,5.34-32.56-24.91-19-23.31-23.73S83.88,82.64,88,79.78s10.73-29.17,15.77-29.12,11.11,26.48,15.15,29.43,31.55,1,33.06,5.73S129.76,104.39,128.15,109.07Z"/></svg>