<svg id="Layer_1" data-name="Layer 1" xmlns="http://www.w3.org/2000/svg" viewBox="0 0 340.24 142.62"><defs><style>.cls-1{fill:#231f20;opacity:0.31;}.cls-2{fill:#9fabff;}.cls-3{fill:#e1ffff;}.cls-3,.cls-7,.cls-8{opacity:0.3;}.cls-4{fill:#3745a5;}.cls-5{fill:#eacf8c;}.cls-6{fill:#505cea;}.cls-7{fill:#fff;}.cls-8{fill:#daffff;}.cls-9{fill:#ceaf6a;}.cls-10{fill:none;stroke:#564013;stroke-miterlimit:10;}</style></defs><ellipse class="cls-1" cx="176.45" cy="118.36" rx="132.23" ry="17.7"/><ellipse class="cls-2" cx="177.88" cy="66.21" rx="151.28" ry="18.84"/><path class="cls-3" d="M240.55,49.06l-6.92,22.16,45.78,5.45,10.93-23C278.1,51.52,255.11,49.88,240.55,49.06Z"/><ellipse class="cls-4" cx="177.88" cy="66.21" rx="144.31" ry="17.23"/><path class="cls-5" d="M58.5,72.24c-2.29-3.35.6-6.91,6.59-6.68s6.85-3,6.42-5,6-7.29,9.41-7.29,14.55-2,15-7.28,12-10.47,14.12-10.7,18,1.6,20.53-.22,16.26-12.3,24-11.16,14.12,1.6,15,.46,7.27-5.69,10.26-5.69a18.39,18.39,0,0,1,8.56,2.73C190,22.54,193,24.59,194.73,25s7.27,3.64,9,3.64,19.68.23,20.11,4.55,10.7,7.06,15.83,7.06,14.12,1.14,16.69,3.42,16.25,7.51,20.11,7.73,9,4.1,10.26,5.47S303.44,66.36,309,67.5s-8.93,4.59-8.93,4.59-46.3,12.15-123.79,11.75C113.65,83.38,60.21,74.74,58.5,72.24Z"/><path class="cls-6" d="M177.88,85.05C94.33,85.05,26.6,76.62,26.6,66.21c0,19.42,60.16,39.74,69.56,45.57.93,5.52,37.16,10,81.72,10,44.08,0,80-4.34,81.67-9.78,9.24-6.29,69.61-26.3,69.61-45.75C329.16,76.62,261.43,85.05,177.88,85.05Z"/><path class="cls-7" d="M26.6,66.21c0,19.42,60.16,39.74,69.56,45.57.34,2,5.33,3.86,13.67,5.42a3,3,0,0,0-.13-.35c-3.84-8.74-35.16-19.65-50.26-29.41-6.6-4.26-9.84-8.33-11.4-11.56C34.43,73.06,26.6,69.75,26.6,66.21Z"/><path class="cls-4" d="M329.16,66.21c0,2.47-3.8,4.82-10.7,7-.07.09-.12.13-.15.13-8.36,8-40.9,26.24-88.62,37.71-47.3,11.38-124.18,5.73-132.95.8l-.58,0c.94,5.52,37.17,10,81.72,10,44.08,0,80-4.34,81.67-9.78C268.79,105.67,329.16,85.66,329.16,66.21Z"/><path class="cls-2" d="M176.67,120.12c-35.91,0-66.58-2.7-78.85-6.5,7.64,4.64,40.58,8.12,80.06,8.12,44.05,0,80-4.34,81.67-9.77C251.73,116.62,217.6,120.12,176.67,120.12Z"/><path class="cls-8" d="M91.16,81.65c4.62,4,36.69,32,37.5,34.28.88,2.45,16.18,3.27,17.06,1.43.77-1.61-6.88-26.85-8.77-33C120.36,83.78,104.92,82.85,91.16,81.65Z"/><path class="cls-9" d="M132.41,71.43c-1.21.15-2.39,1.91-.14,2.81,1.41.57,2.91.13,3.11-.64S133.76,71.25,132.41,71.43Z"/><path class="cls-9" d="M238,72.16c-1.64.16-1.43,2.18.45,2.34S240.62,71.9,238,72.16Z"/><path class="cls-9" d="M178.45,72.5c-1.74,1.13,0,3.69,1.55,4.76s2.95-2.18,4.52-2.82S180.12,71.42,178.45,72.5Z"/><path class="cls-9" d="M117.61,69.52c-1.08.28-1.75,2,.52,2.6,1.43.36,2.71-.21,2.71-.94S118.81,69.2,117.61,69.52Z"/><path class="cls-9" d="M108.34,53.69c-1.64.16-1.43,2.19.45,2.34S111,53.43,108.34,53.69Z"/><path class="cls-9" d="M156.07,77c-1.2-.09-2,1.56-.23,1.87S158.17,77.2,156.07,77Z"/><path class="cls-9" d="M137.84,76.58s6,.24,6.68-1.68S134.66,74.69,137.84,76.58Z"/><path class="cls-9" d="M247.8,62.17c-1.07.28-1.75,2,.53,2.6,1.43.36,2.71-.21,2.71-.94S249,61.86,247.8,62.17Z"/><path class="cls-9" d="M207.56,47.15c7.55.16,17.5-2.56,20.86-3.51,2.45-.7,3.43-1.28,4.14-2.13-.55-.28-1.82-.78-2.35-1.11a11.78,11.78,0,0,1-2.16-1.7,12.7,12.7,0,0,1-4.36,2.36c-5.19,1-7.27,2.93-12.62,3.72-10,1.47-17.94.76-18.39,1.47S200,47,207.56,47.15Z"/><path class="cls-9" d="M95.76,59.63c6.25,1.2,18.79,3.09,18.22,2.07S99.1,60,94.77,56.34a12,12,0,0,0-2.89-1.49,2.8,2.8,0,0,0-2.37.13l-.42.23,0,0c-1.14.62-1,1.81.18,2.35A31.72,31.72,0,0,0,95.76,59.63Z"/><path class="cls-9" d="M214.15,75.8a.92.92,0,0,1-1,.78.81.81,0,1,1,0-1.56A.92.92,0,0,1,214.15,75.8Z"/><path class="cls-9" d="M195.26,77.83a1.05,1.05,0,1,1-1-.78A.92.92,0,0,1,195.26,77.83Z"/><ellipse class="cls-9" cx="221.09" cy="78.34" rx="1.02" ry="0.78"/><ellipse class="cls-9" cx="199.49" cy="78.34" rx="1.02" ry="0.78"/><path class="cls-9" d="M170.35,73.2c0,.27-.34.48-.76.48s-.76-.21-.76-.48.34-.49.76-.49S170.35,72.93,170.35,73.2Z"/><path class="cls-9" d="M206.51,76.62c0,.27-.34.49-.76.49s-.76-.22-.76-.49.34-.49.76-.49S206.51,76.35,206.51,76.62Z"/><path class="cls-9" d="M169.57,79.94c0,.27-.34.48-.76.48s-.76-.21-.76-.48.34-.49.76-.49S169.57,79.67,169.57,79.94Z"/><path class="cls-9" d="M253.26,74.86c0,.27-.34.49-.76.49s-.76-.22-.76-.49.34-.48.76-.48S253.26,74.59,253.26,74.86Z"/><path class="cls-9" d="M234.37,76.42c0,.27-.34.49-.76.49s-.76-.22-.76-.49.34-.48.76-.48S234.37,76.16,234.37,76.42Z"/><path class="cls-9" d="M265.52,73.46c0,.27-.34.49-.76.49s-.76-.22-.76-.49.34-.49.76-.49S265.52,73.19,265.52,73.46Z"/><path class="cls-9" d="M199.91,75.06c0,.27-.34.49-.76.49s-.76-.22-.76-.49.34-.49.76-.49S199.91,74.79,199.91,75.06Z"/><path class="cls-9" d="M167,73.22c0,.27-.34.49-.76.49s-.76-.22-.76-.49.34-.48.76-.48S167,73,167,73.22Z"/><ellipse class="cls-9" cx="173.97" cy="68.7" rx="0.76" ry="0.49"/><path class="cls-9" d="M164.16,78.75c0,.27-.34.48-.76.48s-.76-.21-.76-.48.34-.49.76-.49S164.16,78.48,164.16,78.75Z"/><path class="cls-9" d="M173.07,71.9c0,.27-.34.49-.76.49s-.76-.22-.76-.49.34-.49.76-.49S173.07,71.63,173.07,71.9Z"/><path class="cls-9" d="M214.52,78.84c0,.27-.34.49-.76.49s-.77-.22-.77-.49.35-.48.77-.48S214.52,78.58,214.52,78.84Z"/><path class="cls-9" d="M152.4,69.63c0,.27-.34.49-.76.49s-.76-.22-.76-.49.34-.48.76-.48S152.4,69.37,152.4,69.63Z"/><path class="cls-9" d="M174,78.3c0,.27-.34.49-.76.49s-.76-.22-.76-.49.34-.49.76-.49S174,78,174,78.3Z"/><path class="cls-9" d="M176.45,73.3c0,.27-.34.49-.76.49s-.76-.22-.76-.49.34-.48.76-.48S176.45,73,176.45,73.3Z"/><ellipse class="cls-9" cx="204.4" cy="71.31" rx="1.02" ry="0.78"/><path class="cls-9" d="M208.12,78.77a.93.93,0,0,1-1,.78.81.81,0,1,1,0-1.56A.93.93,0,0,1,208.12,78.77Z"/><path class="cls-9" d="M90.89,68.89c-2.52,0-1.94,2,0,2.81s4.26-.67,4.26-1.21S92.82,68.89,90.89,68.89Z"/><path class="cls-9" d="M104.83,74.11c-.88-1.11-4.84.27-4.26.94S106,75.59,104.83,74.11Z"/><path class="cls-9" d="M225.82,78.29c-1-1,1.16-2,1.94-2s1.35,2.14,1.93,2.55S227,79.36,225.82,78.29Z"/><path class="cls-9" d="M145.09,46.25c-1,.11-2.71,2.14-1.16,3.21s4.45-1.2,4.84-1.87S146.25,46.11,145.09,46.25Z"/><path class="cls-9" d="M132.9,42.36c-1.39-.16-1.94,1.34-.2,1.48S134.06,42.5,132.9,42.36Z"/><path class="cls-9" d="M141,35.8c-.7,0-.78,2.41.58,2.68S142.19,35.8,141,35.8Z"/><path class="cls-9" d="M148.77,40.22c-.78-.61,1.55-1.61,2.13-1.61s2.71,1.21,2.9,2.28S150.32,41.42,148.77,40.22Z"/><path class="cls-9" d="M181.87,48.79c-.56-.16,2.13-1.74,2.91-1.74s1.93.67,1.55,1.61S183.23,49.19,181.87,48.79Z"/><path class="cls-9" d="M163.1,56.56c.77,0,1.93,2.82.77,2.82S160.58,56.7,163.1,56.56Z"/><path class="cls-9" d="M166.48,30.1a.67.67,0,0,1,.1,1.34C165.9,31.51,165.32,30,166.48,30.1Z"/><path class="cls-9" d="M169.29,30.57c-.53.13-.87,1.61-.1,1.81s.78-.6,1.94-.53S170.45,30.3,169.29,30.57Z"/><path class="cls-9" d="M171.81,34.46c.07-.86-2.71-.34-2.81-.14S171.71,35.66,171.81,34.46Z"/><path class="cls-9" d="M165.61,36.27c-.64-.16-1.26.33-.38.67S167,36.6,165.61,36.27Z"/><path class="cls-9" d="M108.89,40.89a.9.9,0,1,1-.87-.67A.79.79,0,0,1,108.89,40.89Z"/><ellipse class="cls-9" cx="98.47" cy="49.55" rx="0.87" ry="0.67"/><path class="cls-9" d="M100.75,44.78c.41-.05.8.11.87.37s-.21.5-.62.56-.8-.11-.87-.37S100.34,44.84,100.75,44.78Z"/><path class="cls-9" d="M98.36,53c.41,0,.8.11.87.36s-.21.51-.62.56-.79-.11-.86-.36S98,53.05,98.36,53Z"/><path class="cls-9" d="M86.94,59.07c.41,0,.8.11.87.37s-.21.5-.62.56-.8-.12-.86-.37S86.53,59.13,86.94,59.07Z"/><path class="cls-9" d="M85.65,57.2c.41-.06.8.11.87.36s-.21.51-.62.56-.8-.11-.87-.37S85.24,57.25,85.65,57.2Z"/><path class="cls-9" d="M105,44.43c.41-.06.8.11.86.36s-.2.51-.61.56-.8-.11-.87-.37S104.6,44.48,105,44.43Z"/><path class="cls-9" d="M105.2,47.86c.41,0,.8.11.87.37s-.21.5-.62.56-.79-.11-.86-.37S104.79,47.92,105.2,47.86Z"/><path class="cls-9" d="M97.59,47c.41,0,.79.11.86.37s-.2.5-.61.55-.8-.11-.87-.36S97.18,47,97.59,47Z"/><path class="cls-9" d="M89.93,59.93c.41-.06.79.11.86.36s-.2.51-.61.56-.8-.11-.87-.37S89.52,60,89.93,59.93Z"/><path class="cls-9" d="M94.23,51.39c.41,0,.8.11.87.37s-.21.5-.62.55-.79-.11-.86-.36S93.82,51.45,94.23,51.39Z"/><path class="cls-9" d="M86.75,61.8c.41-.06.79.11.86.36s-.2.51-.61.56-.8-.11-.87-.37S86.34,61.85,86.75,61.8Z"/><path class="cls-9" d="M102.43,50.36c.4-.06.79.11.86.36s-.21.51-.61.56-.8-.11-.87-.37S102,50.41,102.43,50.36Z"/><path class="cls-9" d="M83.26,59.33c.41,0,.8.11.87.37s-.21.5-.62.56-.8-.12-.87-.37S82.85,59.39,83.26,59.33Z"/><path class="cls-9" d="M101.54,47.35c.41-.05.79.11.86.36s-.2.51-.61.56-.8-.11-.87-.36S101.13,47.4,101.54,47.35Z"/><path class="cls-9" d="M89.92,62.44c.41,0,.8.11.87.37s-.21.5-.62.55-.79-.11-.86-.36S89.51,62.5,89.92,62.44Z"/><path class="cls-9" d="M95.12,53.94c.41,0,.79.11.86.37s-.2.5-.61.55-.8-.11-.87-.36S94.71,54,95.12,53.94Z"/><path class="cls-9" d="M101.6,52.69c.41-.06.79.11.86.36s-.2.51-.61.56-.8-.11-.87-.37S101.19,52.74,101.6,52.69Z"/><path class="cls-9" d="M294.67,66.72c-.53,0-1-.27-1-.6s.44-.6,1-.6,1,.27,1,.6S295.21,66.72,294.67,66.72Z"/><path class="cls-9" d="M282.15,60.11c-.53,0-1-.27-1-.6s.43-.6,1-.6,1,.27,1,.6S282.69,60.11,282.15,60.11Z"/><path class="cls-9" d="M289,61.09c.08.28-.16.55-.52.6a.74.74,0,0,1-.81-.43c-.08-.28.16-.55.53-.6A.7.7,0,0,1,289,61.09Z"/><path class="cls-9" d="M279.53,58.82c.08.28-.16.55-.53.6a.7.7,0,0,1-.8-.43c-.08-.28.16-.55.52-.6A.74.74,0,0,1,279.53,58.82Z"/><path class="cls-9" d="M267.33,53.22c.08.28-.16.55-.52.59a.73.73,0,0,1-.81-.42c-.08-.28.16-.55.53-.6A.7.7,0,0,1,267.33,53.22Z"/><path class="cls-9" d="M289.56,64c.08.28-.16.55-.53.59a.71.71,0,0,1-.8-.42c-.08-.28.16-.55.52-.6A.72.72,0,0,1,289.56,64Z"/><path class="cls-9" d="M289.4,68.73c.08.29-.16.55-.53.6a.72.72,0,0,1-.8-.42c-.08-.29.16-.55.53-.6A.71.71,0,0,1,289.4,68.73Z"/><path class="cls-9" d="M285.88,58.9c.08.28-.16.55-.53.6a.71.71,0,0,1-.8-.43c-.08-.28.16-.55.53-.6A.73.73,0,0,1,285.88,58.9Z"/><path class="cls-9" d="M279.49,56.58c.08.28-.16.55-.52.6a.74.74,0,0,1-.81-.43c-.08-.28.16-.55.53-.6A.7.7,0,0,1,279.49,56.58Z"/><path class="cls-9" d="M292.89,68.2c.07.28-.16.55-.53.6a.74.74,0,0,1-.81-.43c-.07-.28.16-.55.53-.6A.72.72,0,0,1,292.89,68.2Z"/><path class="cls-9" d="M285.34,61.63c.07.29-.16.55-.53.6a.73.73,0,0,1-.81-.42c-.07-.29.16-.55.53-.6A.73.73,0,0,1,285.34,61.63Z"/><path class="cls-9" d="M275.81,57.19c.08.28-.16.55-.53.6a.7.7,0,0,1-.8-.43c-.08-.28.16-.55.53-.6A.74.74,0,0,1,275.81,57.19Z"/><path class="cls-9" d="M271.2,55.27c.08.28-.15.55-.52.6a.72.72,0,0,1-.81-.43c-.07-.28.16-.55.53-.6A.72.72,0,0,1,271.2,55.27Z"/><path class="cls-9" d="M224.66,39.41c-.54,0-1-.27-1-.6s.43-.6,1-.6,1,.27,1,.6S225.19,39.41,224.66,39.41Z"/><path class="cls-9" d="M212.65,33.25c-.53,0-1-.27-1-.6s.43-.6,1-.6,1,.27,1,.6S213.19,33.25,212.65,33.25Z"/><path class="cls-9" d="M219.86,36.16c.08.28-.16.55-.53.6a.7.7,0,0,1-.8-.43c-.08-.28.16-.55.52-.6A.74.74,0,0,1,219.86,36.16Z"/><path class="cls-9" d="M214.2,35.13c.08.28-.16.55-.52.6a.74.74,0,0,1-.81-.43c-.08-.28.16-.55.53-.6A.7.7,0,0,1,214.2,35.13Z"/><path class="cls-9" d="M220.38,39.11c.07.28-.16.55-.53.6a.74.74,0,0,1-.81-.43c-.07-.28.16-.55.53-.6A.72.72,0,0,1,220.38,39.11Z"/><path class="cls-9" d="M216.7,34c.08.29-.16.55-.53.6a.71.71,0,0,1-.8-.42c-.08-.29.15-.56.52-.6A.73.73,0,0,1,216.7,34Z"/><path class="cls-9" d="M224.36,35.31c.07.28-.16.55-.53.6a.72.72,0,0,1-.81-.43c-.07-.28.16-.55.53-.6A.74.74,0,0,1,224.36,35.31Z"/><path class="cls-9" d="M216.15,36.71c.08.28-.16.55-.52.59a.73.73,0,0,1-.81-.42c-.08-.28.16-.55.53-.6A.7.7,0,0,1,216.15,36.71Z"/><path class="cls-9" d="M206.63,32.26c.07.29-.16.55-.53.6a.73.73,0,0,1-.81-.42c-.07-.29.16-.56.53-.6A.73.73,0,0,1,206.63,32.26Z"/><path class="cls-9" d="M202,30.34c.08.29-.16.55-.53.6a.71.71,0,0,1-.8-.42c-.08-.29.16-.56.53-.6A.72.72,0,0,1,202,30.34Z"/><path class="cls-9" d="M197.1,29.08c-.53,0-1-.27-1-.61s.43-.6,1-.6,1,.27,1,.6S197.64,29.08,197.1,29.08Z"/><ellipse class="cls-9" cx="185.1" cy="22.31" rx="0.97" ry="0.6"/><path class="cls-9" d="M192.31,25.82c.07.29-.16.55-.53.6A.73.73,0,0,1,191,26c-.07-.29.16-.56.53-.6A.73.73,0,0,1,192.31,25.82Z"/><path class="cls-9" d="M186.65,24.79c.08.28-.16.55-.53.6a.7.7,0,0,1-.8-.43c-.08-.28.16-.55.52-.6A.74.74,0,0,1,186.65,24.79Z"/><path class="cls-9" d="M192.82,28.77c.08.28-.16.55-.53.6a.71.71,0,0,1-.8-.43c-.08-.28.16-.55.53-.6A.73.73,0,0,1,192.82,28.77Z"/><path class="cls-9" d="M189.14,23.63c.08.29-.16.56-.52.6a.73.73,0,0,1-.81-.42c-.08-.29.16-.55.53-.6A.71.71,0,0,1,189.14,23.63Z"/><path class="cls-9" d="M197.64,31.51c.08.29-.16.55-.53.6a.71.71,0,0,1-.8-.42c-.08-.29.16-.55.53-.6A.72.72,0,0,1,197.64,31.51Z"/><path class="cls-9" d="M188.6,26.37c.08.28-.16.55-.53.6a.72.72,0,0,1-.8-.43c-.08-.28.16-.55.52-.6A.73.73,0,0,1,188.6,26.37Z"/><path class="cls-9" d="M179.07,21.92c.08.29-.16.56-.53.6a.72.72,0,0,1-.8-.42c-.08-.29.16-.55.53-.6A.71.71,0,0,1,179.07,21.92Z"/><path class="cls-9" d="M175.59,24.73c.08.28-.16.55-.52.6a.73.73,0,0,1-.81-.43c-.08-.28.16-.55.53-.6A.71.71,0,0,1,175.59,24.73Z"/><path class="cls-9" d="M80,58.67c.41-.05.8.11.87.37s-.21.5-.62.55-.8-.11-.87-.36S79.57,58.72,80,58.67Z"/><path class="cls-9" d="M187.29,82.31c-2.51,0-4-2-2.56-3.38,1.2-1.2,2.61-2.61,4-4.07C192.6,71,185.49,63,186.58,60.73s1.46-7.45,2.56-7.57-.91,6.68.73,8.33,5.1,10.43,4.74,13c-.27,1.88-3.17,5.2-4.71,6.85a3.64,3.64,0,0,1-2.61,1Z"/><path class="cls-9" d="M151.84,56.53c3.94.31-8.53-2.15-14.43-3a13,13,0,0,1-5.27-2.12c-2.38-1.56-7.24-1.69-10-.28h0a3.67,3.67,0,0,1-.6.22c2.13.93,4.54,1.92,6.3,2.47C131.72,55.1,147.91,56.22,151.84,56.53Z"/><path class="cls-10" d="M329.16,66.21c0-4.9-15-9.36-39.64-12.71-2.94-.49-6.43-1-10.23-1.37a9.87,9.87,0,0,0-2.84-.69c-3.86-.22-17.55-5.46-20.11-7.74s-11.55-3.41-16.69-3.41-15.4-2.73-15.83-7-18.4-4.56-20.11-4.56-7.27-3.18-9-3.64-4.71-2.5-6.42-3.64a18.39,18.39,0,0,0-8.56-2.73c-3,0-9.41,4.55-10.26,5.69s-7.28.68-15-.46-21.39,9.34-24,11.16-18.39,0-20.53.22S96.33,40.75,95.9,46c-.17,2.05-2,3.61-4.33,4.76-39.27,3.4-65,9.06-65,15.47h0c0,19.42,60.16,39.74,69.56,45.57h0a1.6,1.6,0,0,0,.17.46s0,0,0,.06l.06.07a1.73,1.73,0,0,0,.27.35l.06.08,0,0a4.79,4.79,0,0,0,.52.44l0,0a.67.67,0,0,0,.11.07,6,6,0,0,0,.56.35l.11.07.14.07.32.17.16.07a1.24,1.24,0,0,0,.2.1l.15.08,0,0,.31.13.24.1.44.18.11,0,.24.08.25.09.59.21.25.08.18.06h0l.1,0,1.09.32.12,0,.11,0,.2,0,1.12.3.24.06.34.08.92.22.38.08.18.05.19,0,.92.19.47.1.26,0,.15,0,.48.09.81.15h0l.4.07.45.09.38.06.24,0,1.06.19,1.12.18,1.17.18.74.12.41.05,1.28.18.23,0,.65.09.27,0,1.5.19,1,.14,2.58.3h.13l1,.1c.56.07,1.12.13,1.69.18l.22,0h.07l1,.1,1.62.15.46,0,.89.08,1.66.14.63.06.76.06,1.72.13.41,0,.4,0,.61,0,1.83.13,1.39.09,2,.13,1.26.08,2.7.15.69,0,3.45.16h.17l1,0,2.43.1.36,0h.43l.61,0,2.23.08,1.52,0,2.19.06.76,0,.81,0,2.22,0,1.58,0,2.32,0,1.52,0,2.59,0h5.23l5.23,0q3.51,0,6.93-.09l1.53,0,2.4,0,2.37-.07,1.5,0,1.7-.06,2.1-.07,2.19-.09,1.52-.07,2.28-.11L209,121l2.47-.14c.36,0,.72,0,1.08-.06l2.25-.13,1.21-.08,2.13-.15,1.24-.08,2.43-.19.83-.07,1.88-.16,1.29-.11,2-.19,1-.1,2-.21.95-.1,2.07-.23.75-.09,1.77-.22.93-.12,1.92-.26.63-.09,1.81-.28.63-.09,1.79-.3.5-.08,1.54-.29.61-.11,1.52-.31.48-.1,1.33-.3.52-.12,1.22-.31.47-.12,1.15-.34.38-.11,1-.35.31-.1c.33-.12.63-.25.93-.37l.26-.1c.28-.12.53-.24.78-.37l.23-.1c.24-.13.44-.25.65-.38l.18-.11c.19-.12.34-.25.5-.37l.15-.12a2.38,2.38,0,0,0,.34-.38l.11-.12a2,2,0,0,0,.2-.38s.05-.08.06-.12h0c9.24-6.29,69.61-26.3,69.61-45.75,0,.08,0,.16,0,.23S329.16,66.29,329.16,66.21Zm-20.05,9.38-1.8.38Zm-1.85.39-.68.14Zm-19.88,3.23h0Zm40.36-10.42h0Zm.47-.47,0,0,0,0Zm.84-1.42a.43.43,0,0,0,0-.05h0A.43.43,0,0,1,329.05,66.9Z"/></svg>