<svg id="Layer_1" data-name="Layer 1" xmlns="http://www.w3.org/2000/svg" xmlns:xlink="http://www.w3.org/1999/xlink" viewBox="0 0 206.76 192.71"><defs><style>.cls-1{fill:url(#radial-gradient);}.cls-2{opacity:0.05;fill:url(#radial-gradient-2);}.cls-3{opacity:0.8;fill:url(#radial-gradient-3);}</style><radialGradient id="radial-gradient" cx="195.2" cy="180.98" r="49.06" gradientTransform="translate(-85.66 -86.73) scale(0.97 0.95)" gradientUnits="userSpaceOnUse"><stop offset="0.34" stop-color="#fff"/><stop offset="1" stop-color="#676465"/></radialGradient><radialGradient id="radial-gradient-2" cx="110.38" cy="97.33" r="35.46" gradientTransform="matrix(1, 0, 0, 1, 0, 0)" xlink:href="#radial-gradient"/><radialGradient id="radial-gradient-3" cx="78.21" cy="54.75" r="20.38" gradientTransform="matrix(1, 0, 0, 1, 0, 0)" xlink:href="#radial-gradient"/></defs><path class="cls-1" d="M131.25,127.16c-4.1,2.86-24.83-15-29.86-15.06s-26.14,17.4-30.18,14.45S78.06,98.71,76.56,94,51.64,75,53.25,70.26s29.06-2.19,33.17-5.06S97.15,36,102.18,36.09s11.11,26.47,15.16,29.42,31.55,1,33,5.74-22.2,18.56-23.8,23.25S135.35,124.29,131.25,127.16Z"/><path class="cls-2" d="M126.45,67.2c-2.35,24.86-25.44,44.6-54.2,46.15-1.7,6.27-2.84,11.89-1,13.2,4,3,25.14-14.5,30.18-14.45s25.76,17.92,29.86,15.06-6.27-28-4.67-32.66S151.9,76,150.39,71.25C149.35,68,136,67.91,126.45,67.2Z"/><path class="cls-3" d="M101.61,37.94a47,47,0,0,0-2.89,5.8c-2.39,5.6-4.46,11.3-6.65,16.95a13.63,13.63,0,0,1-2.83,5,9.34,9.34,0,0,1-4.38,2.2,29.74,29.74,0,0,1-5.14.56c-5,.24-10,.18-15,.29a26.83,26.83,0,0,0-6.52,1,12.14,12.14,0,0,0-3.41,1.77c0,.19,2.68-.51,3.69-.79a26.48,26.48,0,0,1,6.35-.63c5-.12,9.91.26,14.88,0a48.9,48.9,0,0,0,6.78-.65A10.24,10.24,0,0,0,91.37,67a12.72,12.72,0,0,0,3-5.6C96.51,54,97.11,52,99.68,44.14,100.29,42.24,101.8,37.92,101.61,37.94Z"/></svg>