<svg id="Layer_1" data-name="Layer 1" xmlns="http://www.w3.org/2000/svg" xmlns:xlink="http://www.w3.org/1999/xlink" viewBox="0 0 206.76 183.53"><defs><style>.cls-1{fill:#231f20;opacity:0.31;}.cls-2{fill:url(#linear-gradient);}.cls-3{stroke:#aa802d;stroke-miterlimit:10;stroke-width:3px;fill:url(#linear-gradient-2);}.cls-4{fill:#ffeea4;opacity:0.11;}.cls-5{fill:url(#linear-gradient-3);}.cls-6{fill:url(#linear-gradient-4);}.cls-7{fill:url(#linear-gradient-5);}.cls-8{fill:url(#linear-gradient-6);}.cls-9{fill:url(#linear-gradient-7);}.cls-10{fill:url(#linear-gradient-8);}.cls-11{fill:url(#linear-gradient-9);}.cls-12{fill:url(#linear-gradient-10);}.cls-13{fill:url(#linear-gradient-11);}.cls-14{fill:url(#linear-gradient-12);}.cls-15{fill:url(#linear-gradient-13);}.cls-16{fill:url(#linear-gradient-14);}.cls-17{fill:url(#linear-gradient-15);}.cls-18{fill:url(#linear-gradient-16);}.cls-19{fill:url(#linear-gradient-17);}.cls-20{fill:url(#linear-gradient-18);}.cls-21{fill:url(#linear-gradient-19);}.cls-22{fill:url(#linear-gradient-20);}.cls-23{fill:url(#linear-gradient-21);}.cls-24{fill:url(#linear-gradient-22);}.cls-25{fill:url(#linear-gradient-23);}.cls-26{fill:url(#linear-gradient-24);}.cls-27{fill:url(#linear-gradient-25);}.cls-28{fill:url(#linear-gradient-26);}.cls-29{fill:url(#linear-gradient-27);}.cls-30{fill:url(#linear-gradient-28);}.cls-31{fill:url(#linear-gradient-29);}.cls-32{fill:url(#linear-gradient-30);}.cls-33{fill:url(#linear-gradient-31);}.cls-34{fill:url(#linear-gradient-32);}.cls-35{fill:url(#linear-gradient-33);}.cls-36{fill:url(#linear-gradient-34);}.cls-37{fill:url(#linear-gradient-35);}.cls-38{fill:url(#linear-gradient-36);}.cls-39{fill:url(#linear-gradient-37);}.cls-40{fill:url(#linear-gradient-38);}.cls-41{fill:url(#linear-gradient-39);}.cls-42{fill:url(#linear-gradient-40);}.cls-43{fill:url(#linear-gradient-41);}</style><linearGradient id="linear-gradient" x1="18.36" y1="102.15" x2="158.25" y2="102.15" gradientUnits="userSpaceOnUse"><stop offset="0.3" stop-color="#b84f19"/><stop offset="0.47" stop-color="#b14e15"/><stop offset="0.71" stop-color="#9d4a09"/><stop offset="0.85" stop-color="#8e4700"/></linearGradient><linearGradient id="linear-gradient-2" x1="18.36" y1="83.6" x2="158.25" y2="83.6" gradientUnits="userSpaceOnUse"><stop offset="0.3" stop-color="#873e19"/><stop offset="0.46" stop-color="#803b15"/><stop offset="0.69" stop-color="#6c330a"/><stop offset="0.85" stop-color="#592c00"/></linearGradient><linearGradient id="linear-gradient-3" x1="83.64" y1="92.94" x2="87.88" y2="92.94" gradientUnits="userSpaceOnUse"><stop offset="0.04" stop-color="#a66c00"/><stop offset="0.48" stop-color="#d1b72d"/><stop offset="0.82" stop-color="#efeb4c"/><stop offset="0.99" stop-color="#fbff58"/></linearGradient><linearGradient id="linear-gradient-4" x1="90.53" y1="94.87" x2="92.65" y2="91.2" xlink:href="#linear-gradient-3"/><linearGradient id="linear-gradient-5" x1="88.42" y1="90.95" x2="90.54" y2="87.28" xlink:href="#linear-gradient-3"/><linearGradient id="linear-gradient-6" x1="92.65" y1="91.33" x2="94.77" y2="87.66" xlink:href="#linear-gradient-3"/><linearGradient id="linear-gradient-7" x1="95.48" y1="94.16" x2="97.59" y2="90.49" xlink:href="#linear-gradient-3"/><linearGradient id="linear-gradient-8" x1="100.53" y1="94.16" x2="102.65" y2="90.49" xlink:href="#linear-gradient-3"/><linearGradient id="linear-gradient-9" x1="97.89" y1="91.33" x2="100.01" y2="87.66" xlink:href="#linear-gradient-3"/><linearGradient id="linear-gradient-10" x1="105.06" y1="94.16" x2="107.18" y2="90.49" xlink:href="#linear-gradient-3"/><linearGradient id="linear-gradient-11" x1="108.53" y1="94.63" x2="110.65" y2="90.96" xlink:href="#linear-gradient-3"/><linearGradient id="linear-gradient-12" x1="103.48" y1="90.95" x2="105.59" y2="87.28" xlink:href="#linear-gradient-3"/><linearGradient id="linear-gradient-13" x1="102.65" y1="94.87" x2="104.77" y2="91.2" xlink:href="#linear-gradient-3"/><linearGradient id="linear-gradient-14" x1="98.59" y1="94.87" x2="100.71" y2="91.2" xlink:href="#linear-gradient-3"/><linearGradient id="linear-gradient-15" x1="94.81" y1="87.41" x2="96.92" y2="83.74" xlink:href="#linear-gradient-3"/><linearGradient id="linear-gradient-16" x1="94.81" y1="89.21" x2="96.92" y2="85.54" xlink:href="#linear-gradient-3"/><linearGradient id="linear-gradient-17" x1="90.53" y1="87.69" x2="92.65" y2="84.02" xlink:href="#linear-gradient-3"/><linearGradient id="linear-gradient-18" x1="93.72" y1="94.87" x2="95.84" y2="91.2" xlink:href="#linear-gradient-3"/><linearGradient id="linear-gradient-19" x1="87.78" y1="94.87" x2="89.9" y2="91.2" xlink:href="#linear-gradient-3"/><linearGradient id="linear-gradient-20" x1="83.93" y1="91.33" x2="86.05" y2="87.66" xlink:href="#linear-gradient-3"/><linearGradient id="linear-gradient-21" x1="114.35" y1="93.86" x2="116.46" y2="90.2" xlink:href="#linear-gradient-3"/><linearGradient id="linear-gradient-22" x1="-50.71" y1="90.33" x2="-46.48" y2="90.33" gradientTransform="matrix(0, -1.12, -1, 0, 173.45, 38.55)" xlink:href="#linear-gradient-3"/><linearGradient id="linear-gradient-23" x1="-45.64" y1="92.46" x2="-43.52" y2="88.8" gradientTransform="matrix(0, -1.12, -1, 0, 169.25, 43.15)" xlink:href="#linear-gradient-3"/><linearGradient id="linear-gradient-24" x1="-44.84" y1="88.96" x2="-42.72" y2="85.29" gradientTransform="matrix(0, -1.12, -1, 0, 165, 40.51)" xlink:href="#linear-gradient-3"/><linearGradient id="linear-gradient-25" x1="-47.19" y1="90.23" x2="-45.07" y2="86.56" gradientTransform="matrix(0, -1.12, -1, 0, 168.84, 39.26)" xlink:href="#linear-gradient-3"/><linearGradient id="linear-gradient-26" x1="-41.7" y1="88.71" x2="-39.58" y2="85.04" gradientTransform="matrix(0, -1.12, -1, 0, 161.25, 43.63)" xlink:href="#linear-gradient-3"/><linearGradient id="linear-gradient-27" x1="-38.88" y1="91.54" x2="-36.76" y2="87.87" gradientTransform="matrix(0, -1.12, -1, 0, 160.81, 49.48)" xlink:href="#linear-gradient-3"/><linearGradient id="linear-gradient-28" x1="-33.82" y1="91.54" x2="-31.7" y2="87.87" gradientTransform="matrix(0, -1.12, -1, 0, 155.15, 54.91)" xlink:href="#linear-gradient-3"/><linearGradient id="linear-gradient-29" x1="-36.47" y1="88.71" x2="-34.35" y2="85.04" gradientTransform="matrix(0, -1.12, -1, 0, 155.4, 49.24)" xlink:href="#linear-gradient-3"/><linearGradient id="linear-gradient-30" x1="-29.29" y1="91.54" x2="-27.17" y2="87.87" gradientTransform="matrix(0, -1.12, -1, 0, 150.09, 59.76)" xlink:href="#linear-gradient-3"/><linearGradient id="linear-gradient-31" x1="-25.82" y1="92.01" x2="-23.7" y2="88.34" gradientTransform="matrix(0, -1.12, -1, 0, 146.66, 63.95)" xlink:href="#linear-gradient-3"/><linearGradient id="linear-gradient-32" x1="-30.88" y1="88.34" x2="-28.76" y2="84.67" gradientTransform="matrix(0, -1.12, -1, 0, 148.79, 54.86)" xlink:href="#linear-gradient-3"/><linearGradient id="linear-gradient-33" x1="-31.7" y1="92.25" x2="-29.58" y2="88.58" gradientTransform="matrix(0, -1.12, -1, 0, 153.46, 57.89)" xlink:href="#linear-gradient-3"/><linearGradient id="linear-gradient-34" x1="-35.76" y1="92.25" x2="-33.64" y2="88.58" gradientTransform="matrix(0, -1.12, -1, 0, 158, 53.54)" xlink:href="#linear-gradient-3"/><linearGradient id="linear-gradient-35" x1="-39.55" y1="84.8" x2="-37.43" y2="81.13" gradientTransform="matrix(0, -1.12, -1, 0, 155.09, 42.03)" xlink:href="#linear-gradient-3"/><linearGradient id="linear-gradient-36" x1="-39.55" y1="86.59" x2="-37.43" y2="82.93" gradientTransform="matrix(0, -1.12, -1, 0, 156.81, 43.82)" xlink:href="#linear-gradient-3"/><linearGradient id="linear-gradient-37" x1="-43.82" y1="85.08" x2="-41.7" y2="81.41" gradientTransform="matrix(0, -1.12, -1, 0, 160.13, 37.73)" xlink:href="#linear-gradient-3"/><linearGradient id="linear-gradient-38" x1="-42.36" y1="91.91" x2="-40.24" y2="88.24" gradientTransform="matrix(0, -1.12, -1, 0, 165.05, 46.12)" xlink:href="#linear-gradient-3"/><linearGradient id="linear-gradient-39" x1="-48.36" y1="86.3" x2="-46.25" y2="82.63" gradientTransform="matrix(0, -1.12, -1, 0, 166.39, 34.07)" xlink:href="#linear-gradient-3"/><linearGradient id="linear-gradient-40" x1="-52.76" y1="84.95" x2="-50.64" y2="81.28" gradientTransform="matrix(0, -1.12, -1, 0, 170.01, 28.01)" xlink:href="#linear-gradient-3"/><linearGradient id="linear-gradient-41" x1="-20.01" y1="91.25" x2="-17.89" y2="87.58" gradientTransform="matrix(0, -1.12, -1, 0, 139.43, 69.42)" xlink:href="#linear-gradient-3"/></defs><ellipse class="cls-1" cx="94.8" cy="117.47" rx="69.94" ry="13.29"/><path class="cls-2" d="M18.36,84.75c2.37,20.07,32.75,36,69.89,36,37.86,0,68.69-16.49,70-37.1-18.89,6.3-44.08,10.14-71.76,10.14C60.55,93.74,36.79,90.36,18.36,84.75Z"/><ellipse class="cls-3" cx="88.31" cy="83.6" rx="69.94" ry="13.29"/><path class="cls-4" d="M30.47,92.63c-4.82-1.33-8.86-2.85-11.56-5.09,5.43,18.51,30,30.69,59,32.72a70,70,0,0,0,11.67,0c-.58,0-1.15,0-1.74,0C58.4,120.33,35.25,110.21,30.47,92.63Z"/><circle class="cls-5" cx="85.76" cy="92.94" r="2.12"/><circle class="cls-6" cx="91.59" cy="93.03" r="2.12"/><circle class="cls-7" cx="89.48" cy="89.12" r="2.12"/><circle class="cls-8" cx="93.71" cy="89.5" r="2.12"/><circle class="cls-9" cx="96.53" cy="92.32" r="2.12"/><circle class="cls-10" cx="101.59" cy="92.32" r="2.12"/><circle class="cls-11" cx="98.95" cy="89.5" r="2.12"/><circle class="cls-12" cx="106.12" cy="92.32" r="2.12"/><circle class="cls-13" cx="109.59" cy="92.79" r="2.12"/><circle class="cls-14" cx="104.53" cy="89.12" r="2.12"/><circle class="cls-15" cx="103.71" cy="93.03" r="2.12"/><circle class="cls-16" cx="99.65" cy="93.03" r="2.12"/><circle class="cls-17" cx="95.86" cy="85.58" r="2.12"/><circle class="cls-18" cx="95.86" cy="87.38" r="2.12"/><circle class="cls-19" cx="91.59" cy="85.86" r="2.12"/><circle class="cls-20" cx="94.78" cy="93.03" r="2.12"/><circle class="cls-21" cx="88.84" cy="93.03" r="2.12"/><circle class="cls-22" cx="84.99" cy="89.5" r="2.12"/><circle class="cls-23" cx="115.41" cy="92.03" r="2.12"/><ellipse class="cls-24" cx="83.12" cy="92.92" rx="2.12" ry="2.37" transform="translate(-13.2 172.08) rotate(-87.6)"/><ellipse class="cls-25" cx="78.62" cy="93.03" rx="2.12" ry="2.37" transform="translate(-17.62 167.7) rotate(-87.6)"/><ellipse class="cls-26" cx="77.87" cy="89.5" rx="2.12" ry="2.37" transform="matrix(0.04, -1, 1, 0.04, -14.8, 163.56)"/><ellipse class="cls-27" cx="80.45" cy="90.88" rx="2.12" ry="2.37" transform="translate(-13.72 167.45) rotate(-87.6)"/><ellipse class="cls-28" cx="74.37" cy="89.1" rx="2.12" ry="2.37" transform="translate(-17.76 159.68) rotate(-87.6)"/><ellipse class="cls-29" cx="71.1" cy="91.8" rx="2.12" ry="2.37" transform="translate(-23.59 158.99) rotate(-87.6)"/><ellipse class="cls-30" cx="65.44" cy="91.56" rx="2.12" ry="2.37" transform="translate(-28.77 153.12) rotate(-87.6)"/><ellipse class="cls-31" cx="68.52" cy="88.86" rx="2.12" ry="2.37" transform="translate(-23.12 153.6) rotate(-87.6)"/><ellipse class="cls-32" cx="60.38" cy="91.35" rx="2.12" ry="2.37" transform="translate(-33.41 147.85) rotate(-87.6)"/><ellipse class="cls-33" cx="56.48" cy="91.66" rx="2.12" ry="2.37" transform="translate(-37.46 144.25) rotate(-87.6)"/><ellipse class="cls-34" cx="62.29" cy="88.22" rx="2.12" ry="2.37" transform="translate(-28.46 146.76) rotate(-87.6)"/><ellipse class="cls-35" cx="63.05" cy="92.17" rx="2.12" ry="2.37" transform="translate(-31.68 151.31) rotate(-87.6)"/><ellipse class="cls-36" cx="67.58" cy="92.36" rx="2.12" ry="2.37" transform="translate(-27.52 156.02) rotate(-87.6)"/><ellipse class="cls-37" cx="72.13" cy="85.09" rx="2.12" ry="2.37" transform="translate(-15.9 153.6) rotate(-87.6)"/><ellipse class="cls-38" cx="72.05" cy="86.89" rx="2.12" ry="2.37" transform="translate(-17.77 155.24) rotate(-87.6)"/><ellipse class="cls-39" cx="76.89" cy="85.57" rx="2.12" ry="2.37" transform="translate(-11.82 158.81) rotate(-87.6)"/><ellipse class="cls-40" cx="74.97" cy="92.32" rx="2.12" ry="2.37" transform="translate(-20.41 163.37) rotate(-87.6)"/><ellipse class="cls-41" cx="81.92" cy="87" rx="2.12" ry="2.37" transform="translate(-8.43 165.21) rotate(-87.6)"/><ellipse class="cls-42" cx="86.9" cy="85.86" rx="2.12" ry="2.37" transform="matrix(0.04, -1, 1, 0.04, -2.52, 169.09)"/><ellipse class="cls-43" cx="50.02" cy="90.62" rx="2.12" ry="2.37" transform="translate(-42.62 136.8) rotate(-87.6)"/></svg>