<svg id="Layer_1" data-name="Layer 1" xmlns="http://www.w3.org/2000/svg" viewBox="0 0 206.76 192.71"><defs><style>.cls-1{fill:#0dff00;}</style></defs><path class="cls-1" d="M151.84,70.09s-.1-.42-.14-.57-.07-.23-.1-.35l-.23-.68c-.09-.23-.17-.46-.26-.68,0,0,0-.11,0-.12-.15-.35-.3-.71-.47-1.07l0-.09-.17-.36c-.12-.24-.24-.48-.38-.71s-.3-.53-.44-.76l-.22-.36c-.25-.4-.51-.79-.8-1.19a2.48,2.48,0,0,0-.19-.26c-.44-.6-.94-1.21-1.53-1.88l-.51-.57-.56-.56-.07-.07-.82-.79-.61-.54c-.34-.3-.7-.61-1.08-.91l-.51-.41c-.54-.42-1.11-.84-1.72-1.26l-1-.73c-2.7-1.85-5.32-3.51-7.81-5l-.65-.39c-1.39-.8-2.77-1.56-4.06-2.22l-.19-.1c-1.17-.6-2.31-1.16-3.42-1.66-.24-.13-.48-.24-.73-.35l-1.1-.46c-.89-.37-1.79-.73-2.72-1.07l-.34-.13a7.92,7.92,0,0,0,.67-.76,11.72,11.72,0,0,0,1-1.5,10.46,10.46,0,0,0,.82-1.68,11.87,11.87,0,0,0,.52-1.63,10.91,10.91,0,0,0,.28-1.63,11.49,11.49,0,0,0,.07-1.54,14.15,14.15,0,0,0-.11-1.45,12,12,0,0,0-.24-1.32c-.08-.38-.18-.75-.32-1.2s-.25-.71-.39-1.05-.27-.63-.44-1-.34-.64-.54-1-.32-.53-.48-.77-.39-.57-.6-.86l-.06-.08c-.15-.21-.31-.41-.51-.65s-.5-.59-.72-.83l-.56-.58c-.25-.25-.51-.49-.79-.73s-.4-.37-.62-.55-.55-.42-.89-.67l-.67-.47c-.32-.21-.65-.41-1-.61l-.74-.41c-.35-.18-.7-.34-1.12-.52s-.54-.23-.84-.34-.86-.29-1.3-.41l-.89-.23a15,15,0,0,0-1.58-.24c-.25,0-.57-.07-.91-.08l-.71,0a14.07,14.07,0,0,0-2.06.15,10.19,10.19,0,0,0-1.1.22A14.15,14.15,0,0,0,96,23.08c-4,3.86-7.46,10.28-10.5,19.55l-.3.09c-.76.22-1.55.47-2.39.76l-.13,0c-.73.25-1.49.53-2.27.83-.49.18-1,.37-1.42.57l-.58.25c-.53.23-1.06.46-1.55.69l-.4.18c-.57.27-1.15.54-1.73.83l-.1.05c-1.24.61-2.54,1.3-3.87,2l-.57.32-.21.12c-.35.19-.76.41-1.19.69L67.18,51l-.07,0c-1.85,1.13-3.77,2.38-5.7,3.71,0,0-1.56,1.08-1.56,1.08-.52.37-1,.74-1.48,1.09l-.53.41c-.29.24-.59.47-.86.7s-.42.34-.61.51-.45.39-.7.61l-.63.58c-.12.11-.23.23-.4.38a31.29,31.29,0,0,0-3.21,3.63c-.11.13-.21.26-.31.4a1.91,1.91,0,0,0-.14.21l-.48.7c-.14.21-.29.44-.45.7l-.13.21c-.15.25-.29.48-.42.72l-.21.38c-.15.29-.35.69-.55,1.17s-.38.9-.55,1.36c-.07.18-.13.36-.19.55-.13.41-.26.81-.35,1.17-.06.21-.11.42-.16.65-.09.38-.16.77-.23,1.15,0,.22-.06.42-.1.69s-.08.74-.1,1.12c0,.21,0,.42,0,.67s0,.75,0,1.16l0,.58c0,.39.07.78.12,1.11l.08.58c.07.39.15.78.24,1.18,0,.15.08.32.11.45a18.42,18.42,0,0,0,1.06,3c.07.16.15.33.2.42.15.32.31.63.5,1l.22.39c.16.28.33.55.51.84l.24.35c.18.27.37.54.58.81l.22.29.62.76.22.25c.22.26.45.5.67.73l.19.2.69.67c.58,12.79,3.28,26.1,7.47,36.48,7.44,18.45,18.25,24.93,26.7,27a12.72,12.72,0,0,0,10.39,6h.37l.72,0a12.67,12.67,0,0,0,2-.27l.1,0c.43-.11.78-.22,1-.31a10.36,10.36,0,0,0,1.33-.52,8.24,8.24,0,0,0,1-.53c.25-.14.59-.35,1-.62l.09-.07c.26-.19.51-.39.74-.58s.49-.43.76-.7.43-.44.63-.67l.52-.62c.17-.23.34-.45.55-.76l.09-.12.31-.06,1.38-.29.36-.08c.44-.11.88-.22,1.29-.34l.39-.11c.42-.12.83-.25,1.28-.4l.38-.13,1.19-.44.4-.16c.38-.15.74-.31,1.17-.5l.4-.18,1-.49.46-.24c.33-.17.65-.35,1-.53l.44-.26c.32-.18.62-.37.93-.56l.43-.28.9-.61.4-.28.86-.64.4-.31c.27-.21.53-.43.76-.62l.39-.33c.26-.22.51-.44.77-.68l.37-.34.7-.67.35-.35.68-.71.33-.35.62-.69.35-.4.56-.67.26-.32.6-.76.25-.33h0l.58-.78.32-.45.46-.67.72-1.09s.57-.91.68-1.1l.65-1.1.61-1.07.59-1.11.54-1.05.37-.75s.39-.81.52-1.11c0,0,.41-.88.55-1.2l.47-1.06c4.78-11.14,6.87-26.26,7.31-37.57l.19-.19c.25-.25.54-.55.87-.94l.28-.33c.56-.66,1.1-1.35,1.58-2l.09-.13c.17-.24.33-.49.53-.82l.08-.12a21.7,21.7,0,0,0,1.94-4l0-.1A18.66,18.66,0,0,0,151.84,70.09Zm-10,7.59,0,0a11.81,11.81,0,0,1-1,2.14l-.06.1c-.09.15-.19.3-.29.44l0,.07a15.86,15.86,0,0,1-1,1.34h0l-.16.2-.07.08-.23.25-.64.64h0l0,0,0,0h0c-.25.25-.5.48-.74.69l0,0-.65.54-.05,0c-.41.32-.73.55-.93.68a.17.17,0,0,1,0,.07c0,11.07-1.92,27.31-6.6,38.21-.13.3-.26.6-.4.9v0l-.39.86a2.56,2.56,0,0,1-.11.24c-.1.22-.21.44-.31.67l-.16.31c-.09.2-.19.39-.29.59l-.19.39-.27.52-.23.43-.25.47-.26.46-.25.45-.28.47-.26.43-.3.49c-.08.13-.17.26-.25.4l-.33.5-.25.38-.36.51-.25.36-.38.51-.26.34c-.13.18-.27.35-.41.52s-.17.21-.26.32l-.43.51-.26.31-.46.51-.27.29-.48.5-.28.27c-.17.17-.33.33-.51.49l-.28.26c-.18.16-.35.32-.54.47a3.47,3.47,0,0,1-.29.25c-.18.16-.37.31-.56.46l-.29.23-.6.44-.3.21-.63.43-.3.19-.66.41-.31.17-.7.39-.3.15c-.25.12-.49.25-.74.36l-.3.14c-.26.11-.52.23-.79.33l-.3.12-.82.31-.29.09c-.29.1-.58.2-.88.28l-.28.08-.94.25-.25,0-1,.22-.22,0q-.53.1-1.08.18l-.16,0-1.19.13h-.07q-1.29.12-2.67.12s0,.09,0,.24,0,.05,0,.08,0,.13,0,.21-.07.33-.1.49a2.76,2.76,0,0,1-.08.27c-.05.22-.12.43-.19.64l-.09.27c-.06.14-.11.27-.17.4s-.07.15-.1.23l0,.11,0,0h0l-.18.34-.06.12-.17.28-.1.15-.18.24-.14.16a1.54,1.54,0,0,1-.17.19l-.18.16-.18.14a1.64,1.64,0,0,1-.22.14l-.17.1-.28.1-.16.05a2.12,2.12,0,0,1-.44,0h-.14c-1.74,0-3.2-2.16-3.65-5.12-23.46,0-31.3-37.66-31.3-59.4h0v0l0,0c-.21-.11-.42-.24-.63-.36l0,0a6.29,6.29,0,0,1-.64-.41c-.12-.07-.23-.16-.35-.24l-.59-.46-.13-.1h0c-.35-.29-.7-.61-1-1l-.08-.09c-.13-.14-.27-.28-.4-.43L59.37,82,59,81.57a1.09,1.09,0,0,0-.13-.17L58.61,81l-.13-.18c-.09-.14-.18-.29-.26-.44a1.74,1.74,0,0,1-.11-.18c-.09-.16-.18-.33-.26-.5l-.07-.15a9.17,9.17,0,0,1-.5-1.39l0-.15a5.41,5.41,0,0,1-.12-.58,2,2,0,0,1,0-.24c0-.17,0-.34-.05-.51a2.62,2.62,0,0,1,0-.28c0-.17,0-.33,0-.5s0-.2,0-.3,0-.34.05-.51,0-.21,0-.31.07-.36.11-.54,0-.2.07-.3.12-.41.19-.62,0-.16.08-.24c.11-.29.23-.59.37-.88h0a3.84,3.84,0,0,1,.2-.43l.09-.16.22-.39.1-.15.28-.45c0-.07.1-.14.14-.21l.2-.29,0-.07h0a21.54,21.54,0,0,1,2.37-2.71l.29-.27.5-.46.49-.43.46-.39c.22-.18.45-.37.69-.55l.39-.31c.39-.29.78-.59,1.2-.88l.25-.17h0l.3-.21.06,0,.23-.16.08-.06.12-.08.37-.25h0c1.87-1.28,3.64-2.43,5.33-3.46l0,0,1.64-1h0c.21-.14.45-.27.69-.4h0l.13-.07.28-.16.15-.09h0c1.28-.71,2.51-1.36,3.68-1.95l.09,0,1.5-.72.31-.14c.52-.24,1-.47,1.54-.68h0c.42-.17.82-.37,1.25-.52h0c.74-.3,1.47-.57,2.17-.81h0c.7-.24,1.38-.45,2-.65H88c.65-.19,1.29-.36,1.9-.51h0c.62-.15,1.21-.28,1.79-.39h0l.11,0h.07l.76-.14h.13l.11,0,.42-.07h0l0-.3c3.72-13.33,7.39-18.54,9.47-20.54a4.87,4.87,0,0,1,1.74-1.23,4.1,4.1,0,0,1,.86,0l.22,0a4.92,4.92,0,0,1,.64.09l.29.08c.18.05.37.1.56.17l.31.13c.18.08.35.15.52.24s.21.12.32.18a4.71,4.71,0,0,1,.48.29l.31.22c.15.11.3.21.44.33a3.73,3.73,0,0,1,.3.26c.13.12.26.23.39.36a3.71,3.71,0,0,1,.27.29l.34.38.24.32a3.28,3.28,0,0,1,.27.38,3.87,3.87,0,0,1,.21.34l.21.38.15.35c.05.12.1.25.14.37s.06.23.09.35,0,.24.07.35,0,.23,0,.34,0,.23,0,.34l-.06.32c0,.1-.06.2-.1.3a2.59,2.59,0,0,1-.14.29,2.22,2.22,0,0,1-.19.27,1.88,1.88,0,0,1-.24.25,1.2,1.2,0,0,1-.11.12h0a.89.89,0,0,1-.33.23h0a28.05,28.05,0,0,0-5.76,4.45A19.83,19.83,0,0,0,100,50.69h0c.82,0,1.65,0,2.49,0h0c.86,0,1.72.08,2.61.16h.08c.58.05,1.17.11,1.77.19h.08l1.85.3h0l.24.05h0c.64.13,1.29.27,2,.44l.15,0c.64.16,1.31.35,2,.56l.18,0q1,.33,2.13.72l.15.06c.76.28,1.54.59,2.35.93l0,0,.07,0,.82.34.11.05h0c1.1.49,2.24,1,3.43,1.65l.13.07c1.19.62,2.44,1.3,3.74,2.06l.05,0,.07,0a1.88,1.88,0,0,0,.24.14l0,0,0,0c2.26,1.32,4.69,2.87,7.32,4.67l.07,0h0l.06,0,.87.6c.45.32.88.63,1.29,1l.36.29.76.64.42.38c.19.17.38.35.55.53l.43.42.36.41c.34.38.65.76.93,1.13l.08.12c.17.23.32.46.46.68l.08.14c.15.24.28.48.4.71h0l.15.31v0c.09.19.18.38.25.57h0c.06.14.11.28.16.42v0c0,.09.07.19.09.28h0c0,.07,0,.15.05.22l0,.06v0A8.68,8.68,0,0,1,141.87,77.68Z"/></svg>