<svg id="Layer_1" data-name="Layer 1" xmlns="http://www.w3.org/2000/svg" xmlns:xlink="http://www.w3.org/1999/xlink" viewBox="0 0 206.76 183.53"><defs><style>.cls-1{fill:#231f20;opacity:0.31;}.cls-2{fill:url(#linear-gradient);}.cls-3{stroke:#aa802d;stroke-miterlimit:10;stroke-width:3px;fill:url(#linear-gradient-2);}.cls-4{fill:#070707;opacity:0.08;}.cls-5{fill:#ffeea4;opacity:0.11;}.cls-6{fill:url(#linear-gradient-3);}.cls-7{fill:url(#linear-gradient-4);}.cls-8{fill:url(#linear-gradient-5);}.cls-9{fill:url(#linear-gradient-6);}.cls-10{fill:url(#linear-gradient-7);}.cls-11{fill:url(#linear-gradient-8);}.cls-12{fill:url(#linear-gradient-9);}.cls-13{fill:url(#linear-gradient-10);}.cls-14{fill:url(#linear-gradient-11);}.cls-15{fill:url(#linear-gradient-12);}.cls-16{fill:url(#linear-gradient-13);}.cls-17{fill:url(#linear-gradient-14);}.cls-18{fill:url(#linear-gradient-15);}.cls-19{fill:url(#linear-gradient-16);}.cls-20{fill:url(#linear-gradient-17);}.cls-21{fill:url(#linear-gradient-18);}.cls-22{fill:url(#linear-gradient-19);}.cls-23{fill:url(#linear-gradient-20);}.cls-24{fill:url(#linear-gradient-21);}.cls-25{fill:url(#linear-gradient-22);}.cls-26{fill:url(#linear-gradient-23);}.cls-27{fill:url(#linear-gradient-24);}.cls-28{fill:url(#linear-gradient-25);}.cls-29{fill:url(#linear-gradient-26);}.cls-30{fill:url(#linear-gradient-27);}.cls-31{fill:url(#linear-gradient-28);}.cls-32{fill:url(#linear-gradient-29);}.cls-33{fill:url(#linear-gradient-30);}.cls-34{fill:url(#linear-gradient-31);}.cls-35{fill:url(#linear-gradient-32);}.cls-36{fill:url(#linear-gradient-33);}.cls-37{fill:url(#linear-gradient-34);}.cls-38{fill:url(#linear-gradient-35);}.cls-39{fill:url(#linear-gradient-36);}.cls-40{fill:url(#linear-gradient-37);}.cls-41{fill:url(#linear-gradient-38);}.cls-42{fill:url(#linear-gradient-39);}.cls-43{fill:url(#linear-gradient-40);}.cls-44{fill:url(#linear-gradient-41);}.cls-45{fill:url(#linear-gradient-42);}.cls-46{fill:url(#linear-gradient-43);}.cls-47{fill:url(#linear-gradient-44);}.cls-48{fill:url(#linear-gradient-45);}.cls-49{fill:url(#linear-gradient-46);}.cls-50{fill:url(#linear-gradient-47);}.cls-51{fill:url(#linear-gradient-48);}.cls-52{fill:url(#linear-gradient-49);}.cls-53{fill:url(#linear-gradient-50);}.cls-54{fill:url(#linear-gradient-51);}.cls-55{fill:url(#linear-gradient-52);}.cls-56{fill:url(#linear-gradient-53);}.cls-57{fill:url(#linear-gradient-54);}.cls-58{fill:url(#linear-gradient-55);}.cls-59{fill:url(#linear-gradient-56);}.cls-60{fill:url(#linear-gradient-57);}.cls-61{fill:url(#linear-gradient-58);}.cls-62{fill:url(#linear-gradient-59);}.cls-63{fill:url(#linear-gradient-60);}.cls-64{fill:url(#linear-gradient-61);}.cls-65{fill:url(#linear-gradient-62);}.cls-66{fill:url(#linear-gradient-63);}.cls-67{fill:url(#linear-gradient-64);}.cls-68{fill:url(#linear-gradient-65);}.cls-69{fill:url(#linear-gradient-66);}.cls-70{fill:url(#linear-gradient-67);}.cls-71{fill:url(#linear-gradient-68);}.cls-72{fill:url(#linear-gradient-69);}.cls-73{fill:url(#linear-gradient-70);}.cls-74{fill:url(#linear-gradient-71);}.cls-75{fill:url(#linear-gradient-72);}.cls-76{fill:url(#linear-gradient-73);}.cls-77{fill:url(#linear-gradient-74);}.cls-78{fill:url(#linear-gradient-75);}.cls-79{fill:url(#linear-gradient-76);}.cls-80{fill:url(#linear-gradient-77);}.cls-81{fill:url(#linear-gradient-78);}.cls-82{fill:url(#linear-gradient-79);}.cls-83{fill:url(#linear-gradient-80);}.cls-84{fill:url(#linear-gradient-81);}.cls-85{fill:url(#linear-gradient-82);}.cls-86{fill:url(#linear-gradient-83);}.cls-87{fill:url(#linear-gradient-84);}.cls-88{fill:url(#linear-gradient-85);}.cls-89{fill:url(#linear-gradient-86);}.cls-90{fill:url(#linear-gradient-87);}.cls-91{fill:url(#linear-gradient-88);}.cls-92{fill:url(#linear-gradient-89);}.cls-93{fill:url(#linear-gradient-90);}.cls-94{fill:url(#linear-gradient-91);}.cls-95{fill:url(#linear-gradient-92);}.cls-96{fill:url(#linear-gradient-93);}.cls-97{fill:url(#linear-gradient-94);}.cls-98{fill:url(#linear-gradient-95);}.cls-99{fill:url(#linear-gradient-96);}.cls-100{fill:url(#linear-gradient-97);}.cls-101{fill:url(#linear-gradient-98);}.cls-102{fill:url(#linear-gradient-99);}.cls-103{fill:url(#linear-gradient-100);}</style><linearGradient id="linear-gradient" x1="25.36" y1="101.34" x2="165.25" y2="101.34" gradientUnits="userSpaceOnUse"><stop offset="0.3" stop-color="#b84f19"/><stop offset="0.47" stop-color="#b14e15"/><stop offset="0.71" stop-color="#9d4a09"/><stop offset="0.85" stop-color="#8e4700"/></linearGradient><linearGradient id="linear-gradient-2" x1="25.36" y1="82.79" x2="165.25" y2="82.79" gradientUnits="userSpaceOnUse"><stop offset="0.3" stop-color="#873e19"/><stop offset="0.46" stop-color="#803b15"/><stop offset="0.69" stop-color="#6c330a"/><stop offset="0.85" stop-color="#592c00"/></linearGradient><linearGradient id="linear-gradient-3" x1="285.87" y1="49.3" x2="290.11" y2="49.3" gradientTransform="translate(-211.39 27.44) rotate(3)" gradientUnits="userSpaceOnUse"><stop offset="0.04" stop-color="#a66c00"/><stop offset="0.48" stop-color="#d1b72d"/><stop offset="0.82" stop-color="#efeb4c"/><stop offset="0.99" stop-color="#fbff58"/></linearGradient><linearGradient id="linear-gradient-4" x1="292.77" y1="51.23" x2="294.89" y2="47.56" xlink:href="#linear-gradient-3"/><linearGradient id="linear-gradient-5" x1="290.65" y1="47.31" x2="292.77" y2="43.64" xlink:href="#linear-gradient-3"/><linearGradient id="linear-gradient-6" x1="294.89" y1="47.69" x2="297" y2="44.02" xlink:href="#linear-gradient-3"/><linearGradient id="linear-gradient-7" x1="297.71" y1="50.52" x2="299.83" y2="46.85" xlink:href="#linear-gradient-3"/><linearGradient id="linear-gradient-8" x1="302.77" y1="50.52" x2="304.89" y2="46.85" xlink:href="#linear-gradient-3"/><linearGradient id="linear-gradient-9" x1="300.12" y1="47.69" x2="302.24" y2="44.02" xlink:href="#linear-gradient-3"/><linearGradient id="linear-gradient-10" x1="307.3" y1="50.52" x2="309.41" y2="46.85" xlink:href="#linear-gradient-3"/><linearGradient id="linear-gradient-11" x1="310.77" y1="50.99" x2="312.89" y2="47.32" xlink:href="#linear-gradient-3"/><linearGradient id="linear-gradient-12" x1="305.71" y1="47.31" x2="307.83" y2="43.64" xlink:href="#linear-gradient-3"/><linearGradient id="linear-gradient-13" x1="304.88" y1="51.23" x2="307" y2="47.56" xlink:href="#linear-gradient-3"/><linearGradient id="linear-gradient-14" x1="300.83" y1="51.23" x2="302.94" y2="47.56" xlink:href="#linear-gradient-3"/><linearGradient id="linear-gradient-15" x1="297.04" y1="43.77" x2="299.16" y2="40.1" xlink:href="#linear-gradient-3"/><linearGradient id="linear-gradient-16" x1="297.04" y1="45.57" x2="299.16" y2="41.9" xlink:href="#linear-gradient-3"/><linearGradient id="linear-gradient-17" x1="292.77" y1="44.05" x2="294.89" y2="40.38" xlink:href="#linear-gradient-3"/><linearGradient id="linear-gradient-18" x1="295.95" y1="51.23" x2="298.07" y2="47.56" xlink:href="#linear-gradient-3"/><linearGradient id="linear-gradient-19" x1="290.01" y1="51.23" x2="292.13" y2="47.56" xlink:href="#linear-gradient-3"/><linearGradient id="linear-gradient-20" x1="286.17" y1="47.69" x2="288.29" y2="44.02" xlink:href="#linear-gradient-3"/><linearGradient id="linear-gradient-21" x1="316.58" y1="50.22" x2="318.7" y2="46.56" xlink:href="#linear-gradient-3"/><linearGradient id="linear-gradient-22" x1="-221.39" y1="38.46" x2="-217.15" y2="38.46" gradientTransform="matrix(0, -1.12, -1, 0, 109.45, -153.76)" xlink:href="#linear-gradient-3"/><linearGradient id="linear-gradient-23" x1="-216.31" y1="40.6" x2="-214.2" y2="36.93" gradientTransform="matrix(0, -1.12, -1, 0, 105.26, -149.39)" xlink:href="#linear-gradient-3"/><linearGradient id="linear-gradient-24" x1="-215.51" y1="37.09" x2="-213.39" y2="33.42" gradientTransform="matrix(0, -1.12, -1, 0, 101.19, -152.07)" xlink:href="#linear-gradient-3"/><linearGradient id="linear-gradient-25" x1="-217.86" y1="38.36" x2="-215.74" y2="34.69" gradientTransform="matrix(0, -1.12, -1, 0, 104.96, -153.18)" xlink:href="#linear-gradient-3"/><linearGradient id="linear-gradient-26" x1="-212.37" y1="36.84" x2="-210.26" y2="33.18" gradientTransform="matrix(0, -1.12, -1, 0, 97.47, -149.13)" xlink:href="#linear-gradient-3"/><linearGradient id="linear-gradient-27" x1="-209.55" y1="39.67" x2="-207.43" y2="36.01" gradientTransform="matrix(0, -1.12, -1, 0, 96.89, -143.45)" xlink:href="#linear-gradient-3"/><linearGradient id="linear-gradient-28" x1="-204.49" y1="39.67" x2="-202.37" y2="36.01" gradientTransform="matrix(0, -1.12, -1, 0, 91.25, -138.32)" xlink:href="#linear-gradient-3"/><linearGradient id="linear-gradient-29" x1="-207.14" y1="36.84" x2="-205.02" y2="33.18" gradientTransform="matrix(0, -1.12, -1, 0, 91.64, -143.82)" xlink:href="#linear-gradient-3"/><linearGradient id="linear-gradient-30" x1="-199.96" y1="39.67" x2="-197.84" y2="36.01" gradientTransform="matrix(0, -1.12, -1, 0, 86.21, -133.73)" xlink:href="#linear-gradient-3"/><linearGradient id="linear-gradient-31" x1="-196.49" y1="40.14" x2="-194.37" y2="36.48" gradientTransform="matrix(0, -1.12, -1, 0, 82.77, -129.75)" xlink:href="#linear-gradient-3"/><linearGradient id="linear-gradient-32" x1="-201.55" y1="36.47" x2="-199.43" y2="32.8" gradientTransform="matrix(0, -1.12, -1, 0, 85.07, -138.54)" xlink:href="#linear-gradient-3"/><linearGradient id="linear-gradient-33" x1="-202.37" y1="40.38" x2="-200.26" y2="36.72" gradientTransform="matrix(0, -1.12, -1, 0, 89.54, -135.47)" xlink:href="#linear-gradient-3"/><linearGradient id="linear-gradient-34" x1="-206.43" y1="40.38" x2="-204.31" y2="36.72" gradientTransform="matrix(0, -1.12, -1, 0, 94.06, -139.58)" xlink:href="#linear-gradient-3"/><linearGradient id="linear-gradient-35" x1="-210.22" y1="32.93" x2="-208.1" y2="29.26" gradientTransform="matrix(0, -1.12, -1, 0, 91.52, -150.85)" xlink:href="#linear-gradient-3"/><linearGradient id="linear-gradient-36" x1="-210.22" y1="34.73" x2="-208.1" y2="31.06" gradientTransform="matrix(0, -1.12, -1, 0, 93.15, -149.06)" xlink:href="#linear-gradient-3"/><linearGradient id="linear-gradient-37" x1="-214.49" y1="33.21" x2="-212.37" y2="29.54" gradientTransform="matrix(0, -1.12, -1, 0, 96.53, -154.9)" xlink:href="#linear-gradient-3"/><linearGradient id="linear-gradient-38" x1="-213.03" y1="40.04" x2="-210.91" y2="36.37" gradientTransform="matrix(0, -1.12, -1, 0, 101.09, -146.62)" xlink:href="#linear-gradient-3"/><linearGradient id="linear-gradient-39" x1="-219.04" y1="34.43" x2="-216.92" y2="30.76" gradientTransform="matrix(0, -1.12, -1, 0, 102.7, -158.29)" xlink:href="#linear-gradient-3"/><linearGradient id="linear-gradient-40" x1="-223.43" y1="33.08" x2="-221.32" y2="29.41" gradientTransform="matrix(0, -1.12, -1, 0, 106.38, -164.09)" xlink:href="#linear-gradient-3"/><linearGradient id="linear-gradient-41" x1="-190.68" y1="39.38" x2="-188.56" y2="35.71" gradientTransform="matrix(0, -1.12, -1, 0, 75.6, -124.62)" xlink:href="#linear-gradient-3"/><linearGradient id="linear-gradient-42" x1="-258.88" y1="136.73" x2="-254.64" y2="136.73" gradientTransform="translate(365.1 -68.38) rotate(-5.23)" xlink:href="#linear-gradient-3"/><linearGradient id="linear-gradient-43" x1="-251.99" y1="138.65" x2="-249.87" y2="134.98" gradientTransform="translate(365.1 -68.38) rotate(-5.23)" xlink:href="#linear-gradient-3"/><linearGradient id="linear-gradient-44" x1="-254.1" y1="134.73" x2="-251.99" y2="131.06" gradientTransform="translate(365.1 -68.38) rotate(-5.23)" xlink:href="#linear-gradient-3"/><linearGradient id="linear-gradient-45" x1="-249.87" y1="135.11" x2="-247.75" y2="131.44" gradientTransform="translate(365.1 -68.38) rotate(-5.23)" xlink:href="#linear-gradient-3"/><linearGradient id="linear-gradient-46" x1="-247.04" y1="137.94" x2="-244.93" y2="134.27" gradientTransform="translate(365.1 -68.38) rotate(-5.23)" xlink:href="#linear-gradient-3"/><linearGradient id="linear-gradient-47" x1="-241.99" y1="137.94" x2="-239.87" y2="134.27" gradientTransform="translate(365.1 -68.38) rotate(-5.23)" xlink:href="#linear-gradient-3"/><linearGradient id="linear-gradient-48" x1="-244.63" y1="135.11" x2="-242.51" y2="131.44" gradientTransform="translate(365.1 -68.38) rotate(-5.23)" xlink:href="#linear-gradient-3"/><linearGradient id="linear-gradient-49" x1="-237.46" y1="137.94" x2="-235.34" y2="134.27" gradientTransform="translate(365.1 -68.38) rotate(-5.23)" xlink:href="#linear-gradient-3"/><linearGradient id="linear-gradient-50" x1="-233.99" y1="138.41" x2="-231.87" y2="134.74" gradientTransform="translate(365.1 -68.38) rotate(-5.23)" xlink:href="#linear-gradient-3"/><linearGradient id="linear-gradient-51" x1="-239.04" y1="134.73" x2="-236.93" y2="131.06" gradientTransform="translate(365.1 -68.38) rotate(-5.23)" xlink:href="#linear-gradient-3"/><linearGradient id="linear-gradient-52" x1="-239.87" y1="138.65" x2="-237.75" y2="134.98" gradientTransform="translate(365.1 -68.38) rotate(-5.23)" xlink:href="#linear-gradient-3"/><linearGradient id="linear-gradient-53" x1="-243.93" y1="138.65" x2="-241.81" y2="134.98" gradientTransform="translate(365.1 -68.38) rotate(-5.23)" xlink:href="#linear-gradient-3"/><linearGradient id="linear-gradient-54" x1="-247.72" y1="131.19" x2="-245.6" y2="127.53" gradientTransform="translate(365.1 -68.38) rotate(-5.23)" xlink:href="#linear-gradient-3"/><linearGradient id="linear-gradient-55" x1="-247.72" y1="132.99" x2="-245.6" y2="129.32" gradientTransform="translate(365.1 -68.38) rotate(-5.23)" xlink:href="#linear-gradient-3"/><linearGradient id="linear-gradient-56" x1="-251.99" y1="131.47" x2="-249.87" y2="127.81" gradientTransform="translate(365.1 -68.38) rotate(-5.23)" xlink:href="#linear-gradient-3"/><linearGradient id="linear-gradient-57" x1="-248.8" y1="138.65" x2="-246.68" y2="134.98" gradientTransform="translate(365.1 -68.38) rotate(-5.23)" xlink:href="#linear-gradient-3"/><linearGradient id="linear-gradient-58" x1="-254.74" y1="138.65" x2="-252.62" y2="134.98" gradientTransform="translate(365.1 -68.38) rotate(-5.23)" xlink:href="#linear-gradient-3"/><linearGradient id="linear-gradient-59" x1="-258.59" y1="135.11" x2="-256.47" y2="131.44" gradientTransform="translate(365.1 -68.38) rotate(-5.23)" xlink:href="#linear-gradient-3"/><linearGradient id="linear-gradient-60" x1="-228.17" y1="137.65" x2="-226.06" y2="133.98" gradientTransform="translate(365.1 -68.38) rotate(-5.23)" xlink:href="#linear-gradient-3"/><linearGradient id="linear-gradient-61" x1="261.8" y1="148.59" x2="266.04" y2="148.59" gradientTransform="matrix(-1.12, 0, 0, 1, 414.52, -57.21)" xlink:href="#linear-gradient-3"/><linearGradient id="linear-gradient-62" x1="-472.24" y1="-48.93" x2="-470.13" y2="-52.6" gradientTransform="matrix(0, -1.12, -1, 0, 61.37, -446.84)" xlink:href="#linear-gradient-3"/><linearGradient id="linear-gradient-63" x1="-476.83" y1="-47.52" x2="-474.71" y2="-51.19" gradientTransform="matrix(0, -1.12, -1, 0, 67.63, -449.79)" xlink:href="#linear-gradient-3"/><linearGradient id="linear-gradient-64" x1="-474.89" y1="-39.39" x2="-472.77" y2="-43.06" gradientTransform="matrix(0, -1.12, -1, 0, 72.36, -439.92)" xlink:href="#linear-gradient-3"/><linearGradient id="linear-gradient-65" x1="-474.48" y1="-42.34" x2="-472.36" y2="-46" gradientTransform="matrix(0, -1.12, -1, 0, 69.42, -442.44)" xlink:href="#linear-gradient-3"/><linearGradient id="linear-gradient-66" x1="-476.83" y1="-41.06" x2="-474.71" y2="-44.73" gradientTransform="matrix(0, -1.12, -1, 0, 73.09, -443.41)" xlink:href="#linear-gradient-3"/><linearGradient id="linear-gradient-67" x1="-477.4" y1="-38.5" x2="-475.28" y2="-42.17" gradientTransform="matrix(0, -1.12, -1, 0, 75.88, -441.42)" xlink:href="#linear-gradient-3"/><linearGradient id="linear-gradient-68" x1="-471.34" y1="-42.58" x2="-469.22" y2="-46.25" gradientTransform="matrix(0, -1.12, -1, 0, 65.74, -439.72)" xlink:href="#linear-gradient-3"/><linearGradient id="linear-gradient-69" x1="-468.52" y1="-39.75" x2="-466.4" y2="-43.42" gradientTransform="matrix(0, -1.12, -1, 0, 65.01, -434.25)" xlink:href="#linear-gradient-3"/><linearGradient id="linear-gradient-70" x1="-463.46" y1="-39.75" x2="-461.34" y2="-43.42" gradientTransform="matrix(0, -1.12, -1, 0, 59.42, -429.46)" xlink:href="#linear-gradient-3"/><linearGradient id="linear-gradient-71" x1="-466.1" y1="-42.58" x2="-463.99" y2="-46.25" gradientTransform="matrix(0, -1.12, -1, 0, 59.95, -434.76)" xlink:href="#linear-gradient-3"/><linearGradient id="linear-gradient-72" x1="-458.93" y1="-39.75" x2="-456.81" y2="-43.42" gradientTransform="matrix(0, -1.12, -1, 0, 54.41, -425.17)" xlink:href="#linear-gradient-3"/><linearGradient id="linear-gradient-73" x1="-455.46" y1="-39.28" x2="-453.34" y2="-42.95" gradientTransform="matrix(0, -1.12, -1, 0, 50.97, -421.43)" xlink:href="#linear-gradient-3"/><linearGradient id="linear-gradient-74" x1="-460.52" y1="-42.96" x2="-458.4" y2="-46.63" gradientTransform="matrix(0, -1.12, -1, 0, 53.45, -429.85)" xlink:href="#linear-gradient-3"/><linearGradient id="linear-gradient-75" x1="-452.7" y1="-37.15" x2="-450.59" y2="-40.82" gradientTransform="matrix(0, -1.12, -1, 0, 49.73, -416.72)" xlink:href="#linear-gradient-3"/><linearGradient id="linear-gradient-76" x1="-452.97" y1="-42.64" x2="-450.86" y2="-46.31" gradientTransform="matrix(0, -1.12, -1, 0, 45.39, -422.4)" xlink:href="#linear-gradient-3"/><linearGradient id="linear-gradient-77" x1="-456.36" y1="-43.19" x2="-454.24" y2="-46.85" gradientTransform="matrix(0, -1.12, -1, 0, 48.67, -426.14)" xlink:href="#linear-gradient-3"/><linearGradient id="linear-gradient-78" x1="-452.4" y1="-40.53" x2="-450.28" y2="-44.2" gradientTransform="matrix(0, -1.12, -1, 0, 46.54, -419.77)" xlink:href="#linear-gradient-3"/><linearGradient id="linear-gradient-79" x1="-437.59" y1="-40.18" x2="-435.47" y2="-43.85" gradientTransform="matrix(0, -1.12, -1, 0, 30.46, -405.4)" xlink:href="#linear-gradient-3"/><linearGradient id="linear-gradient-80" x1="-458.34" y1="-46.5" x2="-456.22" y2="-50.17" gradientTransform="matrix(0, -1.12, -1, 0, 48.05, -431.28)" xlink:href="#linear-gradient-3"/><linearGradient id="linear-gradient-81" x1="-442.26" y1="-42.64" x2="-440.14" y2="-46.31" gradientTransform="matrix(0, -1.12, -1, 0, 33.54, -412.25)" xlink:href="#linear-gradient-3"/><linearGradient id="linear-gradient-82" x1="-445.81" y1="-43.19" x2="-443.69" y2="-46.85" gradientTransform="matrix(0, -1.12, -1, 0, 37, -416.15)" xlink:href="#linear-gradient-3"/><linearGradient id="linear-gradient-83" x1="-449.05" y1="-44.33" x2="-446.93" y2="-48" gradientTransform="matrix(0, -1.12, -1, 0, 39.62, -420.35)" xlink:href="#linear-gradient-3"/><linearGradient id="linear-gradient-84" x1="-453.19" y1="-46.35" x2="-451.07" y2="-50.01" gradientTransform="matrix(0, -1.12, -1, 0, 42.49, -426.26)" xlink:href="#linear-gradient-3"/><linearGradient id="linear-gradient-85" x1="-463.6" y1="-45.21" x2="-461.48" y2="-48.88" gradientTransform="matrix(0, -1.12, -1, 0, 54.96, -434.99)" xlink:href="#linear-gradient-3"/><linearGradient id="linear-gradient-86" x1="-465.71" y1="-47.78" x2="-463.59" y2="-51.45" gradientTransform="matrix(0, -1.12, -1, 0, 55.11, -439.53)" xlink:href="#linear-gradient-3"/><linearGradient id="linear-gradient-87" x1="-461.11" y1="-47.73" x2="-458.99" y2="-51.4" gradientTransform="matrix(0, -1.12, -1, 0, 50.08, -435.12)" xlink:href="#linear-gradient-3"/><linearGradient id="linear-gradient-88" x1="-455.94" y1="-48.23" x2="-453.82" y2="-51.9" gradientTransform="matrix(0, -1.12, -1, 0, 43.93, -430.72)" xlink:href="#linear-gradient-3"/><linearGradient id="linear-gradient-89" x1="-461.34" y1="-39.04" x2="-459.22" y2="-42.71" gradientTransform="matrix(0, -1.12, -1, 0, 57.68, -426.76)" xlink:href="#linear-gradient-3"/><linearGradient id="linear-gradient-90" x1="-465.4" y1="-39.04" x2="-463.28" y2="-42.71" gradientTransform="matrix(0, -1.12, -1, 0, 62.16, -430.6)" xlink:href="#linear-gradient-3"/><linearGradient id="linear-gradient-91" x1="-469.19" y1="-46.5" x2="-467.07" y2="-50.17" gradientTransform="matrix(0, -1.12, -1, 0, 60.05, -441.55)" xlink:href="#linear-gradient-3"/><linearGradient id="linear-gradient-92" x1="-469.19" y1="-44.7" x2="-467.07" y2="-48.37" gradientTransform="matrix(0, -1.12, -1, 0, 61.57, -439.77)" xlink:href="#linear-gradient-3"/><linearGradient id="linear-gradient-93" x1="-473.46" y1="-46.22" x2="-471.34" y2="-49.89" gradientTransform="matrix(0, -1.12, -1, 0, 65, -445.31)" xlink:href="#linear-gradient-3"/><linearGradient id="linear-gradient-94" x1="-472" y1="-39.39" x2="-469.88" y2="-43.06" gradientTransform="matrix(0, -1.12, -1, 0, 69.17, -437.18)" xlink:href="#linear-gradient-3"/><linearGradient id="linear-gradient-95" x1="-473.38" y1="-37.15" x2="-471.26" y2="-40.82" gradientTransform="matrix(0, -1.12, -1, 0, 72.58, -436.28)" xlink:href="#linear-gradient-3"/><linearGradient id="linear-gradient-96" x1="-469.42" y1="-36.46" x2="-467.31" y2="-40.13" gradientTransform="matrix(0, -1.12, -1, 0, 68.8, -431.86)" xlink:href="#linear-gradient-3"/><linearGradient id="linear-gradient-97" x1="-463.32" y1="-35.4" x2="-461.2" y2="-39.06" gradientTransform="matrix(0, -1.12, -1, 0, 62.95, -425.03)" xlink:href="#linear-gradient-3"/><linearGradient id="linear-gradient-98" x1="-478" y1="-45" x2="-475.88" y2="-48.67" gradientTransform="matrix(0, -1.12, -1, 0, 71.06, -448.41)" xlink:href="#linear-gradient-3"/><linearGradient id="linear-gradient-99" x1="-482.4" y1="-46.35" x2="-480.28" y2="-50.01" gradientTransform="matrix(0, -1.12, -1, 0, 74.78, -453.9)" xlink:href="#linear-gradient-3"/><linearGradient id="linear-gradient-100" x1="-449.65" y1="-40.05" x2="-447.53" y2="-43.72" gradientTransform="matrix(0, -1.12, -1, 0, 43.9, -416.68)" xlink:href="#linear-gradient-3"/></defs><ellipse class="cls-1" cx="101.8" cy="116.66" rx="69.94" ry="13.29"/><path class="cls-2" d="M25.36,84c2.37,20.07,32.75,36,69.9,36,37.85,0,68.68-16.49,70-37.11-18.88,6.3-44.08,10.15-71.76,10.15C67.55,92.94,43.79,89.56,25.36,84Z"/><ellipse class="cls-3" cx="95.31" cy="82.79" rx="69.94" ry="13.29"/><path class="cls-4" d="M164.6,86.85c-1.57.27-1.23,2.52-13.35,5.46-3.42,15.56-26.74,24.58-58,27.57C130.57,119.88,158.7,106.53,164.6,86.85Z"/><path class="cls-5" d="M37.47,91.82C32.65,90.5,28.61,89,25.91,86.74c5.44,18.51,30,30.69,59,32.72a70,70,0,0,0,11.67,0c-.57,0-1.15,0-1.73,0C65.4,119.52,42.25,109.4,37.47,91.82Z"/><circle class="cls-6" cx="73.63" cy="91.73" r="2.12"/><circle class="cls-7" cx="79.45" cy="92.13" r="2.12"/><circle class="cls-8" cx="77.54" cy="88.1" r="2.12"/><circle class="cls-9" cx="81.75" cy="88.7" r="2.12"/><circle class="cls-10" cx="84.42" cy="91.68" r="2.12"/><circle class="cls-11" cx="89.47" cy="91.94" r="2.12"/><circle class="cls-12" cx="86.98" cy="88.98" r="2.12"/><circle class="cls-13" cx="94" cy="92.18" r="2.12"/><circle class="cls-14" cx="97.44" cy="92.83" r="2.12"/><circle class="cls-15" cx="92.58" cy="88.89" r="2.12"/><circle class="cls-16" cx="91.55" cy="92.76" r="2.12"/><circle class="cls-17" cx="87.5" cy="92.55" r="2.12"/><circle class="cls-18" cx="84.11" cy="84.91" r="2.12"/><circle class="cls-19" cx="84.01" cy="86.7" r="2.12"/><circle class="cls-20" cx="79.83" cy="84.96" r="2.12"/><circle class="cls-21" cx="82.63" cy="92.29" r="2.12"/><circle class="cls-22" cx="76.7" cy="91.98" r="2.12"/><circle class="cls-23" cx="73.04" cy="88.25" r="2.12"/><circle class="cls-24" cx="103.28" cy="92.37" r="2.12"/><ellipse class="cls-25" cx="70.99" cy="91.57" rx="2.12" ry="2.37" transform="translate(-26.84 153.64) rotate(-84.61)"/><ellipse class="cls-26" cx="66.5" cy="91.45" rx="2.12" ry="2.37" transform="translate(-30.8 149.06) rotate(-84.61)"/><ellipse class="cls-27" cx="65.93" cy="87.88" rx="2.12" ry="2.37" transform="translate(-27.75 145.26) rotate(-84.61)"/><ellipse class="cls-28" cx="68.43" cy="89.39" rx="2.12" ry="2.37" transform="translate(-26.99 149.11) rotate(-84.61)"/><ellipse class="cls-29" cx="62.46" cy="87.3" rx="2.12" ry="2.37" transform="translate(-30.32 141.28) rotate(-84.61)"/><ellipse class="cls-30" cx="59.05" cy="89.82" rx="2.12" ry="2.37" transform="translate(-35.92 140.16) rotate(-84.61)"/><ellipse class="cls-31" cx="53.41" cy="89.29" rx="2.12" ry="2.37" transform="translate(-40.5 134.07) rotate(-84.61)"/><ellipse class="cls-32" cx="56.63" cy="86.75" rx="2.12" ry="2.37" transform="translate(-35.06 134.97) rotate(-84.61)"/><ellipse class="cls-33" cx="48.37" cy="88.81" rx="2.12" ry="2.37" transform="translate(-44.6 128.62) rotate(-84.61)"/><ellipse class="cls-34" cx="44.46" cy="88.91" rx="2.12" ry="2.37" transform="translate(-48.24 124.82) rotate(-84.61)"/><ellipse class="cls-35" cx="50.44" cy="85.79" rx="2.12" ry="2.37" transform="translate(-39.71 127.94) rotate(-84.61)"/><ellipse class="cls-36" cx="50.99" cy="89.77" rx="2.12" ry="2.37" transform="translate(-43.18 132.1) rotate(-84.61)"/><ellipse class="cls-37" cx="55.51" cy="90.2" rx="2.12" ry="2.37" transform="translate(-39.51 136.98) rotate(-84.61)"/><ellipse class="cls-38" cx="60.43" cy="83.17" rx="2.12" ry="2.37" transform="translate(-28.06 135.52) rotate(-84.61)"/><ellipse class="cls-39" cx="60.26" cy="84.96" rx="2.12" ry="2.37" transform="matrix(0.09, -1, 1, 0.09, -29.99, 136.97)"/><ellipse class="cls-40" cx="65.16" cy="83.9" rx="2.12" ry="2.37" transform="translate(-24.5 140.89) rotate(-84.61)"/><ellipse class="cls-41" cx="62.89" cy="90.55" rx="2.12" ry="2.37" transform="translate(-33.17 144.65) rotate(-84.61)"/><ellipse class="cls-42" cx="70.11" cy="85.6" rx="2.12" ry="2.37" transform="translate(-21.7 147.35) rotate(-84.61)"/><ellipse class="cls-43" cx="75.13" cy="84.72" rx="2.12" ry="2.37" transform="translate(-16.27 151.55) rotate(-84.61)"/><ellipse class="cls-44" cx="38.06" cy="87.54" rx="2.12" ry="2.37" transform="translate(-52.68 117.2) rotate(-84.61)"/><circle class="cls-45" cx="121.86" cy="91.17" r="2.12"/><circle class="cls-46" cx="127.67" cy="90.73" r="2.12"/><circle class="cls-47" cx="125.21" cy="87.02" r="2.12"/><circle class="cls-48" cx="129.46" cy="87.01" r="2.12"/><circle class="cls-49" cx="132.53" cy="89.57" r="2.12"/><circle class="cls-50" cx="137.57" cy="89.11" r="2.12"/><circle class="cls-51" cx="134.67" cy="86.53" r="2.12"/><circle class="cls-52" cx="142.08" cy="88.7" r="2.12"/><circle class="cls-53" cx="145.58" cy="88.85" r="2.12"/><circle class="cls-54" cx="140.21" cy="85.65" r="2.12"/><circle class="cls-55" cx="139.74" cy="89.62" r="2.12"/><circle class="cls-56" cx="135.7" cy="89.99" r="2.12"/><circle class="cls-57" cx="131.25" cy="82.91" r="2.12"/><circle class="cls-58" cx="131.41" cy="84.71" r="2.12"/><circle class="cls-59" cx="127.02" cy="83.58" r="2.12"/><circle class="cls-60" cx="130.85" cy="90.44" r="2.12"/><circle class="cls-61" cx="124.93" cy="90.98" r="2.12"/><circle class="cls-62" cx="120.78" cy="87.8" r="2.12"/><circle class="cls-63" cx="151.3" cy="87.56" r="2.12"/><ellipse class="cls-64" cx="119.22" cy="91.39" rx="2.37" ry="2.12" transform="translate(-4.36 6) rotate(-2.83)"/><ellipse class="cls-65" cx="112.13" cy="80.35" rx="2.12" ry="2.37" transform="translate(15.45 178.75) rotate(-81.13)"/><ellipse class="cls-66" cx="116.98" cy="82.53" rx="2.12" ry="2.37" transform="matrix(0.15, -0.99, 0.99, 0.15, 17.41, 185.39)"/><ellipse class="cls-67" cx="113.59" cy="90.23" rx="2.12" ry="2.37" transform="translate(6.92 188.54) rotate(-81.13)"/><ellipse class="cls-68" cx="113.59" cy="87.25" rx="2.12" ry="2.37" transform="translate(9.87 186.02) rotate(-81.13)"/><ellipse class="cls-69" cx="115.99" cy="88.91" rx="2.12" ry="2.37" transform="translate(10.26 189.8) rotate(-81.13)"/><ellipse class="cls-70" cx="116.22" cy="91.53" rx="2.12" ry="2.37" transform="translate(7.86 192.25) rotate(-81.13)"/><ellipse class="cls-71" cx="110.15" cy="86.46" rx="2.12" ry="2.37" transform="translate(7.74 181.96) rotate(-81.13)"/><ellipse class="cls-72" cx="106.6" cy="88.77" rx="2.12" ry="2.37" transform="translate(2.45 180.4) rotate(-81.13)"/><ellipse class="cls-73" cx="101" cy="87.9" rx="2.12" ry="2.37" transform="translate(-1.41 174.14) rotate(-81.13)"/><ellipse class="cls-74" cx="104.37" cy="85.56" rx="2.12" ry="2.37" transform="translate(3.74 175.48) rotate(-81.13)"/><ellipse class="cls-75" cx="96" cy="87.11" rx="2.12" ry="2.37" transform="translate(-4.88 168.53) rotate(-81.13)"/><ellipse class="cls-76" cx="92.09" cy="86.98" rx="2.12" ry="2.37" transform="translate(-8.05 164.55) rotate(-81.13)"/><ellipse class="cls-77" cx="98.25" cy="84.22" rx="2.12" ry="2.37" transform="translate(-0.11 168.31) rotate(-81.13)"/><ellipse class="cls-78" cx="88.72" cy="88.61" rx="2.12" ry="2.37" transform="matrix(0.15, -0.99, 0.99, 0.15, -12.51, 162.6)"/><ellipse class="cls-79" cx="89.86" cy="83.23" rx="2.12" ry="2.37" transform="translate(-6.23 159.19) rotate(-81.13)"/><ellipse class="cls-80" cx="93.69" cy="83.28" rx="2.12" ry="2.37" transform="translate(-3.04 163) rotate(-81.13)"/><ellipse class="cls-81" cx="88.9" cy="85.22" rx="2.12" ry="2.37" transform="matrix(0.15, -0.99, 0.99, 0.15, -9.01, 159.92)"/><ellipse class="cls-82" cx="72.47" cy="83.01" rx="2.12" ry="2.37" transform="matrix(0.15, -0.99, 0.99, 0.15, -20.72, 141.82)"/><ellipse class="cls-83" cx="96.38" cy="80.35" rx="2.12" ry="2.37" transform="matrix(0.15, -0.99, 0.99, 0.15, 2.13, 163.19)"/><ellipse class="cls-84" cx="78.02" cy="81.38" rx="2.12" ry="2.37" transform="translate(-14.43 145.92) rotate(-81.13)"/><ellipse class="cls-85" cx="82.02" cy="81.46" rx="2.12" ry="2.37" transform="translate(-11.11 149.94) rotate(-81.13)"/><ellipse class="cls-86" cx="85.78" cy="80.89" rx="2.12" ry="2.37" transform="translate(-7.37 153.17) rotate(-81.13)"/><ellipse class="cls-87" cx="90.67" cy="79.61" rx="2.12" ry="2.37" transform="translate(-1.97 156.92) rotate(-81.13)"/><ellipse class="cls-88" cx="102" cy="82.53" rx="2.12" ry="2.37" transform="translate(4.74 170.58) rotate(-81.13)"/><ellipse class="cls-89" cx="104.73" cy="80.35" rx="2.12" ry="2.37" transform="matrix(0.15, -0.99, 0.99, 0.15, 9.19, 171.43)"/><ellipse class="cls-90" cx="99.64" cy="79.61" rx="2.12" ry="2.37" transform="matrix(0.15, -0.99, 0.99, 0.15, 5.62, 165.78)"/><ellipse class="cls-91" cx="94" cy="78.22" rx="2.12" ry="2.37" transform="translate(2.22 159.03) rotate(-81.13)"/><ellipse class="cls-92" cx="98.55" cy="88.23" rx="2.12" ry="2.37" transform="translate(-3.82 172) rotate(-81.13)"/><ellipse class="cls-93" cx="103.04" cy="88.93" rx="2.12" ry="2.37" transform="translate(-0.72 177.03) rotate(-81.13)"/><ellipse class="cls-94" cx="108.38" cy="82.22" rx="2.12" ry="2.37" transform="translate(10.43 176.62) rotate(-81.13)"/><ellipse class="cls-95" cx="108.1" cy="84" rx="2.12" ry="2.37" transform="matrix(0.15, -0.99, 0.99, 0.15, 8.44, 177.85)"/><ellipse class="cls-96" cx="113.06" cy="83.23" rx="2.12" ry="2.37" transform="translate(13.39 182.1) rotate(-81.13)"/><ellipse class="cls-97" cx="110.39" cy="89.73" rx="2.12" ry="2.37" transform="translate(4.71 184.96) rotate(-81.13)"/><ellipse class="cls-98" cx="111.57" cy="92.18" rx="2.12" ry="2.37" transform="translate(3.29 188.2) rotate(-81.13)"/><ellipse class="cls-99" cx="107.09" cy="92.18" rx="2.12" ry="2.37" transform="translate(-0.5 183.78) rotate(-81.13)"/><ellipse class="cls-100" cx="100.18" cy="92.18" rx="2.12" ry="2.37" transform="translate(-6.34 176.95) rotate(-81.13)"/><ellipse class="cls-101" cx="117.89" cy="85.22" rx="2.12" ry="2.37" transform="translate(15.51 188.56) rotate(-81.13)"/><ellipse class="cls-102" cx="122.96" cy="84.65" rx="2.12" ry="2.37" transform="translate(20.36 193.09) rotate(-81.13)"/><ellipse class="cls-103" cx="85.78" cy="85.22" rx="2.12" ry="2.37" transform="translate(-11.65 156.84) rotate(-81.13)"/></svg>