<svg id="Layer_1" data-name="Layer 1" xmlns="http://www.w3.org/2000/svg" viewBox="0 0 206.76 183.53"><defs><style>.cls-1{opacity:0.3;}.cls-2{fill:#eacf8c;}.cls-3{fill:#f2daa5;}.cls-4{fill:#ceaf6a;}.cls-5{fill:#b57c48;}.cls-6{fill:#a56a3a;}.cls-7{fill:#c48a5b;}.cls-8{fill:none;stroke:#683a1b;stroke-miterlimit:10;}</style></defs><path class="cls-1" d="M98.36,107.79,65.46,82.85a14.28,14.28,0,0,0-17.12,0l-32.9,24.94S12.2,121.14,56.9,121.33,98.36,107.79,98.36,107.79Z"/><path class="cls-1" d="M122.7,107.55c-36.55,0-66.17,5.88-66.17,13.14a4.4,4.4,0,0,0,1.51,3c-13.42,1.84-22.61,5.58-22.61,9.9,0,6.14,11.67,10,34.53,10,18.68,0,27.21-3.15,32.36-8.39,2.07.06,18.26,2,20.38,2,36.54,0,66.16-9.16,66.16-16.42S159.24,107.55,122.7,107.55Z"/><path class="cls-2" d="M95.82,105.46S99.07,119.19,54.37,119,12.9,105.46,12.9,105.46L45.81,80.52a14.27,14.27,0,0,1,17.11,0Z"/><path class="cls-3" d="M52.13,80.16l-.91.8a.61.61,0,0,0,0,.88.7.7,0,0,0,.92,0l.91-.8a.61.61,0,0,0,0-.88.7.7,0,0,0-.92,0Z"/><path class="cls-3" d="M48.8,83.13a7.61,7.61,0,0,1-2.66,2.44c-.72.4-.07,1.47.66,1.07a9,9,0,0,0,3.11-2.88c.45-.67-.67-1.3-1.11-.63Z"/><path class="cls-3" d="M42.52,84.12l-.16.19a.63.63,0,0,0-.19.43.6.6,0,0,0,.19.44.67.67,0,0,0,.91,0l.17-.18a.67.67,0,0,0,.18-.44.65.65,0,0,0-.18-.44.68.68,0,0,0-.92,0Z"/><path class="cls-3" d="M62,84.11c.5.39,1,.77,1.52,1.15a.68.68,0,0,0,.91,0,.59.59,0,0,0,0-.87l-1.52-1.15a.68.68,0,0,0-.91,0,.59.59,0,0,0,0,.87Z"/><path class="cls-3" d="M53.5,83.55,54,86.46c.12.79,1.37.45,1.24-.33l-.45-2.91c-.13-.78-1.37-.45-1.25.33Z"/><path class="cls-3" d="M58.72,91l.78,1.55a.67.67,0,0,0,.89.22.62.62,0,0,0,.23-.85l-.78-1.55a.66.66,0,0,0-.88-.22.62.62,0,0,0-.24.85Z"/><path class="cls-3" d="M63.33,99.44,64.61,101a.66.66,0,0,0,.91,0,.61.61,0,0,0,0-.87l-1.28-1.56a.66.66,0,0,0-.91,0,.61.61,0,0,0,0,.87Z"/><path class="cls-3" d="M77.21,103.87l2.64,1c.77.3,1.11-.9.34-1.2l-2.64-1c-.77-.3-1.11.9-.34,1.19Z"/><path class="cls-3" d="M72.25,92.81l1.49.93a.63.63,0,0,0,.65-1.07l-1.49-.93a.63.63,0,0,0-.65,1.07Z"/><path class="cls-3" d="M67.17,87.1h.13a.64.64,0,0,0,.64-.62.63.63,0,0,0-.64-.62h-.13a.64.64,0,0,0-.65.62.65.65,0,0,0,.65.62Z"/><path class="cls-3" d="M63.69,92.42l1.52,1.26a.69.69,0,0,0,.92,0,.62.62,0,0,0,0-.88L64.6,91.54a.68.68,0,0,0-.91,0,.6.6,0,0,0,0,.88Z"/><path class="cls-3" d="M69.08,101l1,.7a.66.66,0,0,0,.88-.23.61.61,0,0,0-.23-.84l-1-.7a.67.67,0,0,0-.89.23.62.62,0,0,0,.24.84Z"/><path class="cls-3" d="M51.47,89.7l.11,1.24a.65.65,0,0,0,.65.62.64.64,0,0,0,.64-.62c0-.42-.07-.83-.11-1.24a.65.65,0,0,0-.65-.62.63.63,0,0,0-.64.62Z"/><path class="cls-3" d="M52.33,97.26c.16,1.26.31,2.52.46,3.78.1.78,1.39.79,1.3,0-.16-1.26-.31-2.52-.46-3.78-.1-.78-1.39-.79-1.3,0Z"/><path class="cls-3" d="M53.11,104.07a5.69,5.69,0,0,1,.48,2.79c-.07.79,1.23.79,1.29,0a6.44,6.44,0,0,0-.52-3.12c-.31-.73-1.57-.41-1.25.33Z"/><path class="cls-3" d="M57,100.82l.77.37a.67.67,0,0,0,.89-.22.62.62,0,0,0-.23-.85l-.78-.37a.66.66,0,0,0-.88.22.62.62,0,0,0,.23.85Z"/><path class="cls-3" d="M65.48,106.22l1.68,1.18a.68.68,0,0,0,.89-.23.61.61,0,0,0-.24-.84l-1.68-1.18a.67.67,0,0,0-.88.22.62.62,0,0,0,.23.85Z"/><path class="cls-3" d="M58.44,109.09a.62.62,0,1,0,0-1.24.62.62,0,1,0,0,1.24Z"/><path class="cls-3" d="M48.93,108.78a.62.62,0,1,0,0-1.24.62.62,0,1,0,0,1.24Z"/><path class="cls-3" d="M45,92.93a7.69,7.69,0,0,0-1,3.65c0,.79,1.26.79,1.29,0a6.5,6.5,0,0,1,.86-3A.64.64,0,0,0,45,92.93Z"/><path class="cls-3" d="M43.16,98.81c-.08,1.3-.16,2.6-.23,3.9,0,.8,1.24.8,1.29,0l.24-3.9c0-.8-1.25-.8-1.3,0Z"/><path class="cls-3" d="M33.77,105.64l-.19.81a.62.62,0,0,0,.45.76.65.65,0,0,0,.79-.43L35,106a.62.62,0,0,0-.45-.76.66.66,0,0,0-.79.43Z"/><path class="cls-3" d="M40.84,100.68h.26a.65.65,0,0,0,.65-.62.64.64,0,0,0-.65-.62h-.26a.63.63,0,0,0-.64.62.64.64,0,0,0,.64.62Z"/><path class="cls-3" d="M38.19,90.53l-1,.62A.61.61,0,0,0,37,92a.67.67,0,0,0,.88.23l1-.62a.62.62,0,0,0,.23-.85.66.66,0,0,0-.88-.22Z"/><path class="cls-3" d="M32.11,101.44l-.54,1.61c-.25.76,1,1.08,1.25.32l.54-1.6c.26-.76-1-1.08-1.25-.33Z"/><path class="cls-3" d="M35.75,89.59l-1.67.94a.63.63,0,0,0,.65,1.07l1.68-.94c.71-.41.06-1.48-.66-1.07Z"/><path class="cls-3" d="M26.16,97.4,23.1,99.48c-.67.46,0,1.53.65,1.07l3.06-2.08c.67-.46,0-1.54-.65-1.07Z"/><path class="cls-3" d="M23.51,102.83c-.44.44-.88.89-1.31,1.34a.63.63,0,0,0,.91.88l1.31-1.35c.57-.58-.34-1.46-.91-.87Z"/><path class="cls-3" d="M16.31,106.37,15,107.72a.63.63,0,0,0,.91.88l1.31-1.35c.57-.58-.34-1.46-.91-.88Z"/><path class="cls-3" d="M20.6,110.1l-1.31,1.35c-.57.58.34,1.46.91.87L21.51,111c.57-.58-.34-1.46-.91-.87Z"/><path class="cls-3" d="M27,108.34,26.08,110a.64.64,0,0,0,1.11.63l.92-1.62a.64.64,0,0,0-1.12-.63Z"/><path class="cls-3" d="M31.41,113.55l-.87,1.64a.64.64,0,0,0,1.13.6l.87-1.64a.64.64,0,0,0-1.13-.6Z"/><path class="cls-3" d="M37.9,109.68c-.21.58-.42,1.16-.62,1.74a.64.64,0,0,0,1.2.44l.63-1.74a.65.65,0,0,0-1.21-.44Z"/><path class="cls-3" d="M51.28,109.22l-.09,1.84c0,.79,1.24.9,1.28.1,0-.61.07-1.22.1-1.84,0-.79-1.24-.9-1.29-.1Z"/><path class="cls-3" d="M51.46,115.21c.16.6.32,1.19.47,1.79.21.77,1.47.51,1.27-.26L52.72,115c-.2-.77-1.47-.51-1.26.26Z"/><path class="cls-3" d="M57.1,116.36l.78,1.69c.33.73,1.53.27,1.2-.46-.26-.56-.52-1.12-.77-1.68-.34-.73-1.54-.28-1.21.45Z"/><path class="cls-3" d="M61.5,110.17c.26.56.53,1.11.79,1.67.34.73,1.54.26,1.2-.47-.27-.56-.53-1.11-.79-1.67-.35-.73-1.55-.26-1.2.47Z"/><path class="cls-3" d="M67.69,115.29c.34.52.68,1,1,1.57.44.68,1.56.07,1.13-.61l-1-1.57c-.44-.68-1.56-.07-1.13.61Z"/><path class="cls-3" d="M76.39,110.66l-1.19-1.44c-.52-.63-1.56.11-1,.73l1.2,1.45c.51.62,1.56-.11,1-.74Z"/><path class="cls-3" d="M79.51,114.3l1.17,1.46c.51.63,1.56-.08,1.06-.72l-1.17-1.46c-.51-.63-1.56.08-1.06.72Z"/><path class="cls-3" d="M83.42,109.62,84.73,111c.56.58,1.54-.23,1-.81l-1.31-1.35c-.56-.59-1.55.22-1,.8Z"/><path class="cls-3" d="M38.05,94.41A4.29,4.29,0,0,0,36,96.72c-.29.75,1,1.08,1.25.33a3,3,0,0,1,1.49-1.57c.74-.37.09-1.44-.65-1.07Z"/><path class="cls-3" d="M56.69,88.05l.08,0s.12.07,0,0,0,0,0,0l0,0,0,0a.57.57,0,0,0,0,.07c.06.08,0,0,0,0l0,.1c0,.06,0-.16,0,0a.63.63,0,0,0,.64.62.64.64,0,0,0,.65-.62A1.42,1.42,0,0,0,57.35,87a.7.7,0,0,0-.89.22.61.61,0,0,0,.23.85Z"/><path class="cls-3" d="M52.78,94.07a.62.62,0,1,0,0-1.24.62.62,0,1,0,0,1.24Z"/><path class="cls-3" d="M58,83v.37a.65.65,0,0,0,.65.62.64.64,0,0,0,.64-.62V83a.63.63,0,0,0-.64-.62A.64.64,0,0,0,58,83Z"/><path class="cls-3" d="M46.06,106.82a.62.62,0,1,0,0-1.24.62.62,0,1,0,0,1.24Z"/><path class="cls-3" d="M40.83,115.73a.62.62,0,1,0,0-1.24.62.62,0,1,0,0,1.24Z"/><path class="cls-3" d="M46.16,111.24a.62.62,0,1,0,0-1.24.62.62,0,1,0,0,1.24Z"/><path class="cls-3" d="M42,111.13a.62.62,0,1,0,0-1.23.62.62,0,1,0,0,1.23Z"/><path class="cls-3" d="M46.69,117.85a.62.62,0,1,0,0-1.24.62.62,0,1,0,0,1.24Z"/><path class="cls-3" d="M31.21,106.45l-.17.45a.61.61,0,0,0,.45.76.66.66,0,0,0,.79-.43l.18-.45A.63.63,0,0,0,32,106a.66.66,0,0,0-.79.44Z"/><path class="cls-3" d="M81.55,106.22l.13.29a.69.69,0,0,0,.38.29.67.67,0,0,0,.5-.07.61.61,0,0,0,.3-.37.65.65,0,0,0-.07-.47l-.13-.29a.59.59,0,0,0-.38-.29.72.72,0,0,0-.5.06.68.68,0,0,0-.3.37.72.72,0,0,0,.07.48Z"/><path class="cls-3" d="M82.42,98.55a2.07,2.07,0,0,1,.93.66.7.7,0,0,0,.89.22.62.62,0,0,0,.23-.85,3.67,3.67,0,0,0-1.71-1.23.65.65,0,0,0-.79.44.63.63,0,0,0,.45.76Z"/><path class="cls-3" d="M75.9,100.29a.62.62,0,1,0,0-1.24.62.62,0,1,0,0,1.24Z"/><path class="cls-3" d="M73,103.22A.62.62,0,1,0,73,102a.62.62,0,1,0,0,1.23Z"/><path class="cls-3" d="M66.15,103a.62.62,0,1,0,0-1.24.62.62,0,1,0,0,1.24Z"/><path class="cls-3" d="M58.09,104.71a.62.62,0,1,0,0-1.24.62.62,0,1,0,0,1.24Z"/><path class="cls-3" d="M50.32,80.28a.62.62,0,1,0,0-1.24.62.62,0,1,0,0,1.24Z"/><path class="cls-4" d="M43.1,86.37l-1.9,1.4a.63.63,0,0,0-.24.85.67.67,0,0,0,.89.22l1.9-1.4a.62.62,0,0,0,.23-.85.66.66,0,0,0-.88-.22Z"/><path class="cls-4" d="M47.37,80.77l-.8.59a.68.68,0,0,0-.3.37.62.62,0,0,0,.06.48.68.68,0,0,0,.89.22l.81-.59a.67.67,0,0,0,.29-.37.58.58,0,0,0-.06-.48.68.68,0,0,0-.89-.22Z"/><path class="cls-4" d="M56.26,80.84l.76.92a.66.66,0,0,0,.91,0,.62.62,0,0,0,0-.88L57.18,80a.69.69,0,0,0-.92,0,.63.63,0,0,0,0,.88Z"/><path class="cls-4" d="M60.28,86.35a14.41,14.41,0,0,1,2.21,3.11c.38.71,1.49.08,1.12-.63a15.28,15.28,0,0,0-2.42-3.35c-.56-.6-1.47.28-.91.87Z"/><path class="cls-4" d="M67.22,89.64l2,1.54a.69.69,0,0,0,.91,0,.61.61,0,0,0,0-.88l-2-1.53a.7.7,0,0,0-.92,0,.61.61,0,0,0,0,.87Z"/><path class="cls-4" d="M53,79.25l.52.1a.66.66,0,0,0,.8-.43.63.63,0,0,0-.45-.76l-.52-.11a.66.66,0,0,0-.8.43.64.64,0,0,0,.45.77Z"/><path class="cls-4" d="M55.64,92.77l.78,3.16c.19.77,1.44.44,1.25-.33l-.78-3.16c-.19-.78-1.44-.45-1.25.33Z"/><path class="cls-4" d="M67.28,95.89a28.17,28.17,0,0,1,6,3.65c.63.51,1.55-.36.91-.87a29.39,29.39,0,0,0-6.22-3.85c-.75-.34-1.41.73-.66,1.07Z"/><path class="cls-4" d="M76.44,96.4A7.56,7.56,0,0,1,79.57,98c.63.52,1.54-.35.92-.87a9,9,0,0,0-3.7-1.87.62.62,0,1,0-.35,1.19Z"/><path class="cls-4" d="M86.42,102.34l3,1.79a.63.63,0,0,0,.65-1.07l-3.05-1.79a.63.63,0,0,0-.65,1.07Z"/><path class="cls-4" d="M61.47,96.33l.32.25a.72.72,0,0,0,.46.18.7.7,0,0,0,.46-.18.62.62,0,0,0,0-.88l-.32-.24a.73.73,0,0,0-.46-.19.66.66,0,0,0-.46.19.61.61,0,0,0,0,.87Z"/><path class="cls-4" d="M71.9,105.61a6.69,6.69,0,0,0,4.77,1.84.62.62,0,1,0,0-1.24,5.28,5.28,0,0,1-3.85-1.48c-.59-.56-1.51.31-.92.88Z"/><path class="cls-4" d="M81.5,101.25,83.83,103a.69.69,0,0,0,.91,0,.61.61,0,0,0,0-.88l-2.32-1.74a.71.71,0,0,0-.92,0,.61.61,0,0,0,0,.88Z"/><path class="cls-4" d="M86.7,106.12a.62.62,0,1,0,0-1.24.62.62,0,1,0,0,1.24Z"/><path class="cls-4" d="M59.87,104.27l1.44,3c.35.72,1.46.09,1.12-.63-.48-1-1-2-1.45-3-.35-.72-1.46-.09-1.11.63Z"/><path class="cls-4" d="M48.37,95.28l-.19,3.53c0,.79,1.25.79,1.29,0l.2-3.53c0-.8-1.25-.8-1.3,0Z"/><path class="cls-4" d="M48.1,103.64l.06,3.1c0,.79,1.31.79,1.3,0,0-1-.05-2.07-.07-3.1,0-.8-1.31-.8-1.29,0Z"/><path class="cls-4" d="M48.1,112.89l.06,3.1c0,.8,1.31.8,1.3,0,0-1-.05-2.06-.07-3.1,0-.79-1.31-.8-1.29,0Z"/><path class="cls-4" d="M43.31,112,42.8,115a.65.65,0,0,0,1.27.22l.51-3.06a.65.65,0,0,0-1.27-.22Z"/><path class="cls-4" d="M37.6,113.46c-.21,1-.41,2-.62,3a.65.65,0,0,0,1.26.26c.21-1,.42-2,.62-3a.64.64,0,0,0-1.26-.26Z"/><path class="cls-4" d="M35.11,109.09l-1.33,2.83a.64.64,0,0,0,1.17.53l1.33-2.83a.64.64,0,0,0-1.17-.53Z"/><path class="cls-4" d="M28.91,110.84c-.48.93-1,1.85-1.45,2.77-.37.71.78,1.29,1.15.58.48-.92,1-1.85,1.45-2.77.37-.71-.77-1.29-1.15-.58Z"/><path class="cls-4" d="M24.41,108.74l-1.88,2.52c-.48.65.55,1.39,1,.74l1.88-2.52c.48-.65-.55-1.39-1-.74Z"/><path class="cls-4" d="M19.7,107.39l-2.13,2.34c-.55.6.41,1.43.95.83l2.13-2.33c.55-.6-.41-1.44-.95-.84Z"/><path class="cls-4" d="M55.17,110.92c.24,1,.49,2,.74,3,.19.78,1.45.52,1.26-.26-.24-1-.49-2-.74-3-.19-.78-1.45-.52-1.26.26Z"/><path class="cls-4" d="M61.53,114.71l1.59,2.7c.41.69,1.55.11,1.14-.59l-1.59-2.7c-.4-.69-1.54-.11-1.14.59Z"/><path class="cls-4" d="M67.9,109.66l1.79,2.58c.46.66,1.55,0,1.09-.66L69,109c-.46-.66-1.55,0-1.09.67Z"/><path class="cls-4" d="M72.88,112.75c.65.82,1.3,1.65,2,2.47.5.63,1.55-.09,1-.73L73.93,112c-.51-.63-1.55.09-1.05.73Z"/><path class="cls-4" d="M79.13,110.05l2.43,2c.63.52,1.5-.39.88-.92l-2.43-2c-.63-.53-1.5.38-.88.91Z"/><path class="cls-4" d="M86.68,109.59l2.22,2.26c.57.58,1.53-.25,1-.83l-2.22-2.26c-.57-.58-1.53.25-1,.83Z"/><path class="cls-4" d="M47.82,89.61l-.46,1a.61.61,0,0,0,.45.76.67.67,0,0,0,.8-.43l.45-1a.61.61,0,0,0-.45-.76.66.66,0,0,0-.79.43Z"/><path class="cls-4" d="M42.1,106c0,.5-.07,1-.1,1.49a.65.65,0,0,0,1.29,0c0-.49.07-1,.1-1.49a.65.65,0,0,0-1.29,0Z"/><path class="cls-4" d="M41.63,92l-.93,2a.63.63,0,0,0,.23.85.68.68,0,0,0,.89-.22l.93-2a.63.63,0,0,0-.23-.85.68.68,0,0,0-.89.22Z"/><path class="cls-4" d="M36.92,99.73l-2.05,3.73a.64.64,0,0,0,1.12.62c.68-1.24,1.36-2.48,2-3.72.38-.71-.73-1.34-1.12-.63Z"/><path class="cls-4" d="M37.55,105.37v1.43a.65.65,0,0,0,1.29,0v-1.43a.65.65,0,0,0-1.29,0Z"/><path class="cls-4" d="M32,97.2l-1.94,2c-.56.59.36,1.47.92.88l1.94-2.05A.63.63,0,0,0,32,97.2Z"/><path class="cls-4" d="M27.22,103.45c-.51.85-1,1.69-1.55,2.54-.42.69.7,1.32,1.12.63.52-.85,1-1.7,1.55-2.54.42-.69-.7-1.32-1.12-.63Z"/><path class="cls-4" d="M30.39,93.18A2.26,2.26,0,0,0,29,94.68a.62.62,0,0,0,.45.76.66.66,0,0,0,.8-.43c0-.05,0-.1,0-.15s0,0,0,0l.08-.13s.09-.11,0,0l.09-.09.08-.07c-.06,0,.07,0,.09-.06s.18-.09.07,0a.62.62,0,1,0-.34-1.2Z"/><path class="cls-4" d="M21,101.21a24.94,24.94,0,0,0-3.9,3.1c-.59.57.33,1.45.91.88a23.31,23.31,0,0,1,3.65-2.91c.68-.44,0-1.52-.66-1.07Z"/><path class="cls-4" d="M77.16,93.6h.09c-.1,0-.11,0,0,0l.09,0c-.09,0-.1,0,0,0l.08,0c.06,0,0,0,0,0l.06.06c0-.07-.06-.08,0,0a.68.68,0,0,0,.89.23.62.62,0,0,0,.23-.85,1.59,1.59,0,0,0-1.32-.69.64.64,0,0,0-.65.62.65.65,0,0,0,.65.62Z"/><path class="cls-4" d="M50.61,85.63l-.29.69a.6.6,0,0,0,.06.47.68.68,0,0,0,.39.29.66.66,0,0,0,.79-.44l.29-.68a.59.59,0,0,0-.06-.47.64.64,0,0,0-.39-.29.67.67,0,0,0-.79.43Z"/><path class="cls-4" d="M38.77,87.15l-.35.19a.61.61,0,0,0-.24.84.69.69,0,0,0,.89.23l.35-.19a.62.62,0,0,0,.24-.85.68.68,0,0,0-.89-.22Z"/><path class="cls-4" d="M34.34,93.07l-.19.22a.6.6,0,0,0,0,.87.66.66,0,0,0,.91,0l.19-.21a.61.61,0,0,0,0-.88.68.68,0,0,0-.91,0Z"/><path class="cls-4" d="M61.07,81.26l.35.08a.66.66,0,0,0,.79-.44.62.62,0,0,0-.45-.76l-.35-.08a.66.66,0,0,0-.79.43.64.64,0,0,0,.45.77Z"/><path class="cls-2" d="M172.74,58.47,119,70.83,65.21,58.47l42.67-22.79a25,25,0,0,1,22.19,0Z"/><path class="cls-3" d="M116.08,35.36l-1.18.73a.45.45,0,0,0,0,.8,1.2,1.2,0,0,0,1.19,0l1.18-.73a.45.45,0,0,0,0-.8,1.16,1.16,0,0,0-1.19,0Z"/><path class="cls-3" d="M111.76,38.07a9.54,9.54,0,0,1-3.44,2.23c-.94.36-.09,1.34.84,1a11.11,11.11,0,0,0,4-2.63c.58-.61-.87-1.18-1.45-.57Z"/><path class="cls-3" d="M103.62,39l-.21.17a.53.53,0,0,0-.25.4.5.5,0,0,0,.25.4,1.16,1.16,0,0,0,1.18,0l.21-.17a.53.53,0,0,0,.25-.4.5.5,0,0,0-.25-.4,1.16,1.16,0,0,0-1.18,0Z"/><path class="cls-3" d="M128.83,39l2,1.05A1.2,1.2,0,0,0,132,40a.45.45,0,0,0,0-.8l-2-1a1.18,1.18,0,0,0-1.19,0,.45.45,0,0,0,0,.8Z"/><path class="cls-3" d="M117.85,38.45l.6,2.66c.16.72,1.77.41,1.61-.3l-.59-2.66c-.16-.72-1.78-.41-1.62.3Z"/><path class="cls-3" d="M124.63,45.26l1,1.41a1.07,1.07,0,0,0,1.14.2c.42-.16.5-.49.3-.77-.33-.47-.67-.94-1-1.42a1.13,1.13,0,0,0-1.15-.2c-.42.17-.5.5-.3.78Z"/><path class="cls-3" d="M130.6,53l1.66,1.42a1.16,1.16,0,0,0,1.19,0c.35-.24.28-.56,0-.8l-1.66-1.42a1.16,1.16,0,0,0-1.19,0c-.35.23-.28.56,0,.8Z"/><path class="cls-3" d="M148.6,57l3.42.92c1,.27,1.44-.82.45-1.09L149,55.92c-1-.27-1.43.83-.44,1.1Z"/><path class="cls-3" d="M142.17,46.91l1.93.85c.91.39,1.75-.59.84-1L143,45.93c-.9-.4-1.75.58-.84,1Z"/><path class="cls-3" d="M135.58,41.69h.16c.44,0,.86-.26.84-.57s-.37-.56-.84-.56h-.16c-.44,0-.86.26-.84.56s.37.57.84.57Z"/><path class="cls-3" d="M131.07,46.55l2,1.15a1.18,1.18,0,0,0,1.19,0,.45.45,0,0,0,0-.8l-2-1.15a1.16,1.16,0,0,0-1.18,0,.45.45,0,0,0,0,.8Z"/><path class="cls-3" d="M138.05,54.36l1.25.63a1.09,1.09,0,0,0,1.15-.2c.23-.3.08-.59-.3-.78l-1.25-.63a1.09,1.09,0,0,0-1.15.2c-.23.3-.07.59.3.78Z"/><path class="cls-3" d="M115.22,44.07c0,.37.1.75.14,1.13a.77.77,0,0,0,.84.56c.43,0,.88-.25.84-.56l-.15-1.13a.75.75,0,0,0-.83-.57c-.43,0-.88.26-.84.57Z"/><path class="cls-3" d="M116.34,51l.6,3.45c.12.72,1.8.73,1.67,0-.19-1.15-.39-2.3-.59-3.45-.12-.71-1.8-.72-1.68,0Z"/><path class="cls-3" d="M117.36,57.19a3.89,3.89,0,0,1,.61,2.55c-.09.73,1.59.72,1.67,0a4.34,4.34,0,0,0-.67-2.85c-.41-.66-2-.37-1.61.3Z"/><path class="cls-3" d="M122.33,54.22l1,.34a1.1,1.1,0,0,0,1.15-.2.48.48,0,0,0-.3-.77l-1-.34a1.1,1.1,0,0,0-1.15.2.48.48,0,0,0,.3.77Z"/><path class="cls-3" d="M133.39,59.16l2.18,1.07a1.11,1.11,0,0,0,1.15-.2c.25-.29.06-.59-.3-.77l-2.19-1.08a1.1,1.1,0,0,0-1.14.2c-.25.29-.07.6.3.78Z"/><path class="cls-3" d="M124.26,61.78c1.07,0,1.08-1.13,0-1.13s-1.09,1.13,0,1.13Z"/><path class="cls-3" d="M111.93,61.5c1.08,0,1.08-1.14,0-1.14s-1.08,1.14,0,1.14Z"/><path class="cls-3" d="M106.78,47a5.65,5.65,0,0,0-1.34,3.33c0,.73,1.65.73,1.68,0a4.61,4.61,0,0,1,1.11-2.76c.51-.64-.93-1.22-1.45-.57Z"/><path class="cls-3" d="M104.45,52.39c-.1,1.19-.2,2.38-.31,3.56-.06.73,1.62.73,1.68,0,.1-1.18.2-2.37.31-3.56.06-.73-1.62-.73-1.68,0Z"/><path class="cls-3" d="M92.27,58.63l-.25.74c-.1.29.13.62.58.69s.93-.08,1-.39l.24-.74c.1-.29-.13-.62-.58-.69s-.93.08-1,.39Z"/><path class="cls-3" d="M101.44,54.09h.34c.44,0,.86-.27.84-.57s-.37-.56-.84-.56h-.34c-.44,0-.85.27-.83.57s.36.56.83.56Z"/><path class="cls-3" d="M98,44.82l-1.26.57c-.36.16-.55.51-.3.77a1.12,1.12,0,0,0,1.15.21l1.26-.57c.36-.16.55-.51.3-.77A1.12,1.12,0,0,0,98,44.82Z"/><path class="cls-3" d="M90.12,54.79l-.7,1.47c-.33.69,1.29,1,1.62.3l.7-1.47c.33-.69-1.28-1-1.62-.3Z"/><path class="cls-3" d="M94.84,44l-2.17.86c-.93.37-.08,1.35.85,1l2.17-.87c.93-.37.09-1.34-.85-1Z"/><path class="cls-3" d="M82.4,51.1l-4,1.9c-.87.42,0,1.4.85,1l4-1.9c.88-.42,0-1.4-.84-1Z"/><path class="cls-3" d="M79,56.06l-1.69,1.23c-.74.53.44,1.33,1.18.8l1.7-1.23c.74-.54-.45-1.34-1.19-.8Z"/><path class="cls-3" d="M97.82,48.37a4.85,4.85,0,0,0-2.71,2.11c-.37.69,1.25,1,1.62.31a3.41,3.41,0,0,1,1.94-1.44c1-.34.11-1.32-.85-1Z"/><path class="cls-3" d="M122,42.56l.09,0s.16.08.06,0,0,0,0,0l0,0s0,0,0,0,0,0,0,.07,0,0,0,0,0,.09,0,.09,0-.14,0,0a.78.78,0,0,0,.84.57c.43,0,.87-.25.84-.57a1.39,1.39,0,0,0-1.07-1.13,1.13,1.13,0,0,0-1.15.21.49.49,0,0,0,.31.77Z"/><path class="cls-3" d="M116.92,48.06c1.08,0,1.08-1.14,0-1.14s-1.08,1.14,0,1.14Z"/><path class="cls-3" d="M123.64,37.94v.34c0,.29.39.58.84.56s.84-.25.84-.56v-.34c0-.3-.39-.58-.84-.57s-.84.25-.84.57Z"/><path class="cls-3" d="M108.21,59.7c1.08,0,1.08-1.13,0-1.13s-1.08,1.13,0,1.13Z"/><path class="cls-3" d="M89,59.37l-.22.41c-.15.28.16.63.58.7a1,1,0,0,0,1-.4l.23-.41c.15-.28-.17-.64-.59-.7a1,1,0,0,0-1,.4Z"/><path class="cls-3" d="M154.23,59.16l.16.26a.89.89,0,0,0,.5.26,1.29,1.29,0,0,0,.65,0,.7.7,0,0,0,.39-.34.48.48,0,0,0-.09-.44l-.17-.26a.83.83,0,0,0-.5-.26,1.15,1.15,0,0,0-.64.06.66.66,0,0,0-.39.33.48.48,0,0,0,.09.44Z"/><path class="cls-3" d="M155.36,52.15a3,3,0,0,1,1.2.6,1.11,1.11,0,0,0,1.15.2c.36-.14.58-.52.3-.77a5.08,5.08,0,0,0-2.21-1.12,1,1,0,0,0-1,.39c-.13.32.16.59.59.7Z"/><path class="cls-3" d="M146.9,53.74c1.08,0,1.08-1.13,0-1.13s-1.08,1.13,0,1.13Z"/><path class="cls-3" d="M143.1,56.42c1.08,0,1.08-1.13,0-1.13s-1.08,1.13,0,1.13Z"/><path class="cls-3" d="M134.26,56.23c1.08,0,1.08-1.13,0-1.13s-1.08,1.13,0,1.13Z"/><path class="cls-3" d="M123.81,57.78c1.08,0,1.08-1.13,0-1.13s-1.08,1.13,0,1.13Z"/><path class="cls-3" d="M113.73,35.47c1.08,0,1.08-1.14,0-1.14s-1.08,1.14,0,1.14Z"/><path class="cls-4" d="M104.37,41l-2.47,1.28c-.36.18-.55.48-.3.77a1.09,1.09,0,0,0,1.15.2L105.22,42c.35-.18.55-.48.3-.77a1.09,1.09,0,0,0-1.15-.2Z"/><path class="cls-4" d="M109.91,35.91l-1,.54a.68.68,0,0,0-.38.34.41.41,0,0,0,.08.43,1.1,1.1,0,0,0,1.15.21l1.05-.54a.68.68,0,0,0,.38-.34.43.43,0,0,0-.08-.44,1.11,1.11,0,0,0-1.15-.2Z"/><path class="cls-4" d="M121.44,36l1,.85a1.16,1.16,0,0,0,1.18,0,.46.46,0,0,0,0-.8l-1-.85a1.16,1.16,0,0,0-1.18,0c-.34.25-.29.55,0,.8Z"/><path class="cls-4" d="M126.65,41a14.26,14.26,0,0,1,2.86,2.84c.49.65,1.94.08,1.45-.57a15.22,15.22,0,0,0-3.13-3.07c-.72-.54-1.91.26-1.18.8Z"/><path class="cls-4" d="M135.65,44l2.55,1.4a1.18,1.18,0,0,0,1.18,0,.45.45,0,0,0,0-.8l-2.54-1.4a1.18,1.18,0,0,0-1.19,0,.45.45,0,0,0,0,.8Z"/><path class="cls-4" d="M117.14,34.52l.68.1c.43.06.93-.09,1-.4s-.13-.63-.58-.69l-.68-.1c-.43-.06-.93.08-1,.39s.13.63.58.7Z"/><path class="cls-4" d="M120.63,46.87l1,2.89c.24.7,1.86.4,1.61-.3-.33-1-.67-1.93-1-2.89-.25-.71-1.86-.41-1.62.3Z"/><path class="cls-4" d="M135.73,49.72a41.91,41.91,0,0,1,7.74,3.34c.82.46,2-.33,1.18-.8a42.66,42.66,0,0,0-8.07-3.51c-1-.32-1.83.66-.85,1Z"/><path class="cls-4" d="M147.61,50.19a11.8,11.8,0,0,1,4,1.42c.81.47,2-.33,1.19-.8a13.77,13.77,0,0,0-4.8-1.71c-1-.18-1.49.91-.44,1.09Z"/><path class="cls-4" d="M160.54,55.62l4,1.62c.93.38,1.77-.59.85-1l-4-1.63c-.93-.38-1.77.6-.85,1Z"/><path class="cls-4" d="M128.19,50.13l.42.22a1.13,1.13,0,0,0,.59.17,1.08,1.08,0,0,0,.6-.17.45.45,0,0,0,0-.8l-.42-.22a1.17,1.17,0,0,0-.6-.17,1,1,0,0,0-.59.17.45.45,0,0,0,0,.8Z"/><path class="cls-4" d="M141.72,58.6a10.92,10.92,0,0,0,6.18,1.68c1.08,0,1.09-1.14,0-1.13a8.64,8.64,0,0,1-5-1.35c-.77-.52-2,.28-1.19.8Z"/><path class="cls-4" d="M154.16,54.62l3,1.59a1.18,1.18,0,0,0,1.18,0,.45.45,0,0,0,0-.8l-3-1.59a1.18,1.18,0,0,0-1.19,0,.45.45,0,0,0,0,.8Z"/><path class="cls-4" d="M160.9,59.06c1.08,0,1.09-1.13,0-1.13s-1.08,1.13,0,1.13Z"/><path class="cls-4" d="M126.11,57.37,128,60.11c.46.66,1.9.08,1.45-.57l-1.87-2.74c-.45-.66-1.9-.08-1.45.57Z"/><path class="cls-4" d="M111.21,49.16,111,52.39c0,.72,1.62.72,1.68,0l.25-3.23c.06-.73-1.62-.72-1.67,0Z"/><path class="cls-4" d="M110.85,56.8l.09,2.83c0,.73,1.69.73,1.67,0,0-.94,0-1.89-.08-2.83,0-.73-1.7-.73-1.68,0Z"/><path class="cls-4" d="M110.48,44l-.59,1c-.17.29.19.63.59.7a1,1,0,0,0,1-.4l.59-1c.18-.28-.19-.62-.58-.69a1,1,0,0,0-1,.39Z"/><path class="cls-4" d="M103.07,59c0,.45-.09.91-.13,1.36s.41.57.84.57.81-.26.84-.57.08-.91.13-1.36-.41-.56-.84-.56-.81.25-.84.56Z"/><path class="cls-4" d="M102.47,46.18,101.26,48c-.19.28-.12.61.3.77a1.08,1.08,0,0,0,1.15-.2l1.21-1.8c.18-.28.11-.61-.31-.77a1.07,1.07,0,0,0-1.14.2Z"/><path class="cls-4" d="M96.35,53.23,93.7,56.64c-.5.64.94,1.21,1.45.57L97.8,53.8c.5-.64-.94-1.22-1.45-.57Z"/><path class="cls-4" d="M97.17,58.38v1.31c0,.72,1.67.72,1.67,0V58.38c0-.72-1.67-.73-1.67,0Z"/><path class="cls-4" d="M90,50.91l-2.52,1.87c-.73.54.46,1.34,1.18.8l2.52-1.86c.73-.54-.46-1.35-1.18-.81Z"/><path class="cls-4" d="M83.78,56.63l-2,2.32c-.54.63.9,1.2,1.45.57l2-2.32c.55-.63-.9-1.2-1.45-.57Z"/><path class="cls-4" d="M87.88,47.25a2.58,2.58,0,0,0-1.83,1.36c-.12.3.14.62.58.7a1,1,0,0,0,1-.39l.06-.14c0-.05,0,0,0,0l.11-.12s.12-.1,0,0L88,48.5l.11-.07.11,0s.24-.08.1,0c.42-.12.71-.37.58-.7a.94.94,0,0,0-1-.39Z"/><path class="cls-4" d="M75.72,54.58a32.9,32.9,0,0,0-5.07,2.83c-.76.52.43,1.32,1.19.8a30.19,30.19,0,0,1,4.72-2.65c.89-.41.06-1.39-.84-1Z"/><path class="cls-4" d="M148.53,47.63h.12c-.13,0-.14,0-.05,0l.11,0c-.11,0-.12,0,0,0l.1,0c.08,0,.07,0,0,0l.08.06,0,0a1.11,1.11,0,0,0,1.15.2c.36-.15.56-.51.3-.77a2.4,2.4,0,0,0-1.72-.63c-.44,0-.86.26-.84.56s.37.57.84.57Z"/><path class="cls-4" d="M114.1,40.35l-.37.63a.39.39,0,0,0,.08.43.86.86,0,0,0,.5.26,1,1,0,0,0,1-.39l.38-.63a.39.39,0,0,0-.09-.43.86.86,0,0,0-.5-.26,1,1,0,0,0-1,.39Z"/><path class="cls-4" d="M98.76,41.74l-.46.17c-.39.14-.55.52-.31.77a1.12,1.12,0,0,0,1.15.21l.46-.17c.39-.15.54-.53.3-.78a1.11,1.11,0,0,0-1.14-.2Z"/><path class="cls-4" d="M93,47.15l-.25.2a.45.45,0,0,0,0,.8,1.16,1.16,0,0,0,1.18,0l.26-.2c.28-.23.35-.59,0-.8a1.16,1.16,0,0,0-1.19,0Z"/><path class="cls-4" d="M127.67,36.35l.45.08c.43.07.93-.09,1-.4s-.13-.62-.58-.69l-.45-.08c-.43-.07-.93.09-1,.4s.13.62.58.69Z"/><path class="cls-5" d="M61.55,119.59c1.24-4,4.83-8,4.83-8,13-18.41-1-45.26-1-45.26l51.82.26,54.75,1S155,93.21,168,111.62c0,0,3.76,4.1,4.93,8.24.38,1.36-.72,2.72-2.76,3.39-6.36,2.1-22.7,6.35-50.55,6.35-28.25,0-47.49-4.38-55-6.44C62.35,122.54,61.1,121.06,61.55,119.59Z"/><path class="cls-6" d="M145.31,74.68a219.4,219.4,0,0,0,23.81-2S156.39,94.32,168,111.62c0,0,4,4.45,4.93,8.24,0,0,2.35,3.22-10.53,5.54,0,0-16.05,4.2-42.78,4.2s-48-4.46-55-6.44S153.09,137.12,145.31,74.68Z"/><path class="cls-7" d="M172,56.84l.79,1c3.06,3.87,3.3,8.32.66,12.29L172,72.31a399.29,399.29,0,0,1-106.66,0L64.1,70.53C60.92,66.1,61.39,61,65.38,56.84h0l1.92.28a362.16,362.16,0,0,0,102.82,0Z"/><path class="cls-6" d="M169.12,72.69c-.46.93-1,2-1.44,3.08a399.23,399.23,0,0,1-98.61-.08c-.34-1.09-.69-2.1-1-3A399.39,399.39,0,0,0,169.12,72.69Z"/><path class="cls-2" d="M94.46,131.24s2.26,9.13-28.93,9-28.93-9-28.93-9l23-16.59a10.34,10.34,0,0,1,11.94,0Z"/><path class="cls-3" d="M64,114.41l-.63.53a.38.38,0,0,0,0,.58.47.47,0,0,0,.63,0l.64-.53a.39.39,0,0,0,0-.58.49.49,0,0,0-.64,0Z"/><path class="cls-3" d="M61.64,116.38A5.09,5.09,0,0,1,59.79,118c-.5.27,0,1,.46.72a6.2,6.2,0,0,0,2.17-1.92c.32-.45-.46-.86-.78-.42Z"/><path class="cls-3" d="M57.26,117l-.11.12a.43.43,0,0,0-.13.29.42.42,0,0,0,.13.3.5.5,0,0,0,.64,0l.11-.13a.39.39,0,0,0,.13-.29.37.37,0,0,0-.13-.29.49.49,0,0,0-.64,0Z"/><path class="cls-3" d="M70.83,117l1.07.76a.48.48,0,0,0,.63,0,.38.38,0,0,0,0-.58l-1.06-.77a.51.51,0,0,0-.64,0,.4.4,0,0,0,0,.59Z"/><path class="cls-3" d="M64.92,116.66l.32,1.94c.09.52,1,.3.87-.22l-.32-1.94c-.08-.52-1-.3-.87.22Z"/><path class="cls-3" d="M68.57,121.62l.54,1a.49.49,0,0,0,.62.15.41.41,0,0,0,.16-.57l-.54-1a.49.49,0,0,0-.62-.15.41.41,0,0,0-.16.57Z"/><path class="cls-3" d="M71.78,127.23l.9,1a.47.47,0,0,0,.63,0,.39.39,0,0,0,0-.58l-.89-1a.5.5,0,0,0-.64,0,.39.39,0,0,0,0,.58Z"/><path class="cls-3" d="M81.47,130.18l1.84.68c.54.19.77-.6.24-.8l-1.84-.67a.41.41,0,1,0-.24.79Z"/><path class="cls-3" d="M78,122.82l1,.62c.48.29.94-.43.45-.71l-1-.62a.42.42,0,1,0-.45.71Z"/><path class="cls-3" d="M74.46,119h.09a.43.43,0,0,0,.45-.41.44.44,0,0,0-.45-.41h-.09a.41.41,0,1,0,0,.82Z"/><path class="cls-3" d="M72,122.56l1.07.84a.51.51,0,0,0,.64,0,.39.39,0,0,0,0-.58L72.67,122a.49.49,0,0,0-.64,0,.39.39,0,0,0,0,.58Z"/><path class="cls-3" d="M75.79,128.25l.68.46a.47.47,0,0,0,.61-.15.41.41,0,0,0-.16-.57l-.67-.46a.48.48,0,0,0-.62.15.42.42,0,0,0,.16.57Z"/><path class="cls-3" d="M63.51,120.75l.07.83A.46.46,0,0,0,64,122c.22,0,.47-.19.45-.41l-.08-.83a.44.44,0,0,0-.45-.41c-.23,0-.48.19-.45.41Z"/><path class="cls-3" d="M64.11,125.78l.32,2.51c.07.53,1,.53.9,0-.1-.83-.21-1.67-.32-2.51-.06-.52-1-.53-.9,0Z"/><path class="cls-3" d="M64.66,130.31a3.62,3.62,0,0,1,.32,1.86c0,.53.86.52.91,0a4.16,4.16,0,0,0-.36-2.08c-.22-.48-1.1-.27-.87.22Z"/><path class="cls-3" d="M67.33,128.15l.54.25a.5.5,0,0,0,.62-.15.39.39,0,0,0-.16-.56l-.54-.25a.49.49,0,0,0-.62.14.41.41,0,0,0,.16.57Z"/><path class="cls-3" d="M73.28,131.74l1.18.79a.47.47,0,0,0,.61-.15.4.4,0,0,0-.16-.57L73.74,131a.48.48,0,0,0-.62.15.4.4,0,0,0,.16.56Z"/><path class="cls-3" d="M68.37,133.65a.41.41,0,1,0,0-.82.41.41,0,1,0,0,.82Z"/><path class="cls-3" d="M61.73,133.44a.41.41,0,1,0,0-.82.41.41,0,1,0,0,.82Z"/><path class="cls-3" d="M59,122.9a5,5,0,0,0-.71,2.43c0,.53.88.53.9,0a4.15,4.15,0,0,1,.59-2c.28-.46-.5-.88-.78-.41Z"/><path class="cls-3" d="M57.71,126.81l-.16,2.6c0,.53.87.53.9,0l.16-2.6c0-.53-.87-.53-.9,0Z"/><path class="cls-3" d="M51.15,131.36l-.13.54a.41.41,0,0,0,.32.5.45.45,0,0,0,.55-.29l.14-.53a.42.42,0,0,0-.32-.51.47.47,0,0,0-.56.29Z"/><path class="cls-3" d="M56.09,128.05h.18a.42.42,0,1,0,0-.83h-.18a.44.44,0,0,0-.45.41.43.43,0,0,0,.45.41Z"/><path class="cls-3" d="M54.24,121.3l-.68.41a.42.42,0,0,0-.16.57.5.5,0,0,0,.62.15l.68-.42a.4.4,0,0,0,.16-.56.48.48,0,0,0-.62-.15Z"/><path class="cls-3" d="M50,128.56l-.37,1.07c-.18.51.69.72.87.22l.37-1.07c.18-.5-.69-.72-.87-.22Z"/><path class="cls-3" d="M52.54,120.68l-1.17.63c-.5.27,0,1,.46.71l1.17-.63c.5-.27,0-1-.46-.71Z"/><path class="cls-3" d="M45.84,125.87l-2.13,1.39a.42.42,0,1,0,.46.71l2.13-1.38a.43.43,0,0,0-.46-.72Z"/><path class="cls-3" d="M44,129.48l-.92.9c-.39.39.24,1,.64.58l.92-.89c.39-.39-.25-1-.64-.59Z"/><path class="cls-3" d="M39,131.85l-.91.89c-.39.39.24,1,.64.58l.91-.89c.4-.39-.24-1-.64-.58Z"/><path class="cls-3" d="M42,134.32l-.92.9c-.39.39.24,1,.64.58l.92-.9c.39-.38-.25-1-.64-.58Z"/><path class="cls-3" d="M46.43,133.15l-.64,1.08c-.27.47.5.89.78.42l.64-1.08c.27-.47-.51-.88-.78-.42Z"/><path class="cls-3" d="M49.51,136.62l-.61,1.09c-.26.47.52.87.79.4L50.3,137c.26-.47-.52-.88-.79-.4Z"/><path class="cls-3" d="M54,134l-.44,1.16c-.18.5.66.8.85.3l.43-1.16c.19-.5-.65-.8-.84-.3Z"/><path class="cls-3" d="M63.38,133.74,63.31,135c0,.53.87.6.9.07l.07-1.22c0-.53-.87-.61-.9-.07Z"/><path class="cls-3" d="M63.5,137.73l.33,1.18c.14.52,1,.34.88-.17l-.33-1.19c-.14-.51-1-.34-.88.18Z"/><path class="cls-3" d="M67.44,138.49l.54,1.12c.23.49,1.07.18.84-.3l-.54-1.12c-.23-.49-1.07-.19-.84.3Z"/><path class="cls-3" d="M70.51,134.37l.55,1.11c.24.49,1.07.18.83-.31l-.55-1.12c-.24-.48-1.07-.17-.83.32Z"/><path class="cls-3" d="M74.83,137.77l.7,1c.31.45,1.09,0,.79-.41l-.71-1c-.3-.45-1.09-.05-.78.4Z"/><path class="cls-3" d="M80.9,134.7l-.84-1c-.36-.42-1.08.07-.72.48l.83,1c.36.41,1.09-.08.73-.49Z"/><path class="cls-3" d="M83.08,137.12l.81,1c.35.42,1.09-.06.74-.48l-.82-1c-.35-.42-1.09.05-.73.48Z"/><path class="cls-3" d="M85.8,134l.91.9c.4.39,1.08-.15.69-.54l-.91-.9c-.4-.39-1.08.15-.69.54Z"/><path class="cls-3" d="M54.14,123.89a2.83,2.83,0,0,0-1.45,1.54c-.2.49.67.71.87.21a2,2,0,0,1,1-1c.51-.25.06-1-.46-.71Z"/><path class="cls-3" d="M67.15,119.65l.06,0s.08,0,0,0,0,0,0,0l0,0s0,0,0,0a.13.13,0,0,0,0,0c0,.06,0,0,0,0l0,.07s0-.1,0,0a.45.45,0,0,0,.9,0,1,1,0,0,0-.57-.82.5.5,0,0,0-.62.15.39.39,0,0,0,.16.56Z"/><path class="cls-3" d="M64.42,123.66a.42.42,0,1,0,0-.83.42.42,0,1,0,0,.83Z"/><path class="cls-3" d="M68,116.29v.24a.45.45,0,0,0,.9,0v-.24a.45.45,0,0,0-.9,0Z"/><path class="cls-3" d="M59.73,132.14a.41.41,0,1,0,0-.82.41.41,0,1,0,0,.82Z"/><path class="cls-3" d="M56.09,138.07a.42.42,0,1,0,0-.83.42.42,0,1,0,0,.83Z"/><path class="cls-3" d="M59.8,135.08a.42.42,0,1,0,0-.83.42.42,0,1,0,0,.83Z"/><path class="cls-3" d="M56.9,135a.41.41,0,1,0,0-.82.41.41,0,1,0,0,.82Z"/><path class="cls-3" d="M60.17,139.48a.41.41,0,1,0,0-.82.41.41,0,1,0,0,.82Z"/><path class="cls-3" d="M49.37,131.89l-.12.31a.4.4,0,0,0,.32.5.46.46,0,0,0,.55-.29l.12-.3a.4.4,0,0,0-.31-.5.47.47,0,0,0-.56.28Z"/><path class="cls-3" d="M84.5,131.74l.09.2a.49.49,0,0,0,.27.19.5.5,0,0,0,.34,0,.41.41,0,0,0,.21-.24.45.45,0,0,0,0-.32l-.09-.19a.48.48,0,0,0-.62-.15.43.43,0,0,0-.21.25.42.42,0,0,0,0,.31Z"/><path class="cls-3" d="M85.1,126.64a1.4,1.4,0,0,1,.65.44.49.49,0,0,0,.62.14.39.39,0,0,0,.16-.56,2.58,2.58,0,0,0-1.19-.82.47.47,0,0,0-.55.29.42.42,0,0,0,.31.51Z"/><path class="cls-3" d="M80.55,127.8a.42.42,0,1,0,0-.83.42.42,0,1,0,0,.83Z"/><path class="cls-3" d="M78.51,129.75a.41.41,0,1,0,0-.82.41.41,0,1,0,0,.82Z"/><path class="cls-3" d="M73.75,129.61a.41.41,0,1,0,0-.82.41.41,0,1,0,0,.82Z"/><path class="cls-3" d="M68.13,130.74a.42.42,0,1,0,0-.83.42.42,0,1,0,0,.83Z"/><path class="cls-3" d="M62.71,114.49a.42.42,0,1,0,0-.83.42.42,0,1,0,0,.83Z"/><path class="cls-4" d="M57.67,118.54l-1.33.93a.4.4,0,0,0-.16.56.47.47,0,0,0,.62.15l1.32-.93a.4.4,0,0,0,.17-.56.48.48,0,0,0-.62-.15Z"/><path class="cls-4" d="M60.65,114.81l-.56.39a.46.46,0,0,0-.21.25.4.4,0,0,0,0,.32.5.5,0,0,0,.62.15l.57-.4a.43.43,0,0,0,.2-.24.4.4,0,0,0,0-.32.48.48,0,0,0-.62-.15Z"/><path class="cls-4" d="M66.85,114.86l.53.61a.49.49,0,0,0,.64,0,.4.4,0,0,0,0-.58l-.53-.62a.49.49,0,0,0-.64,0,.41.41,0,0,0,0,.59Z"/><path class="cls-4" d="M69.65,118.53a9.35,9.35,0,0,1,1.55,2.06c.26.48,1,.06.78-.41a10.15,10.15,0,0,0-1.69-2.24c-.39-.39-1,.19-.64.59Z"/><path class="cls-4" d="M74.5,120.72l1.37,1a.5.5,0,0,0,.64,0,.39.39,0,0,0,0-.58l-1.37-1a.5.5,0,0,0-.64,0,.4.4,0,0,0,0,.59Z"/><path class="cls-4" d="M64.54,113.8l.37.07a.46.46,0,0,0,.55-.29.42.42,0,0,0-.31-.51l-.37-.07a.47.47,0,0,0-.55.29.42.42,0,0,0,.31.51Z"/><path class="cls-4" d="M66.42,122.79l.54,2.1c.14.52,1,.3.87-.21l-.54-2.11c-.13-.51-1-.29-.87.22Z"/><path class="cls-4" d="M74.54,124.87a20.12,20.12,0,0,1,4.17,2.43c.44.34,1.08-.24.63-.58A20.48,20.48,0,0,0,75,124.16c-.52-.23-1,.48-.46.71Z"/><path class="cls-4" d="M80.93,125.21a5.53,5.53,0,0,1,2.19,1c.43.35,1.07-.23.63-.58a6.47,6.47,0,0,0-2.58-1.25c-.56-.13-.8.67-.24.8Z"/><path class="cls-4" d="M87.89,129.16,90,130.35c.5.28,1-.44.46-.71l-2.13-1.19c-.5-.27-.95.44-.46.71Z"/><path class="cls-4" d="M70.49,125.16l.22.17a.49.49,0,0,0,.64,0,.39.39,0,0,0,0-.58l-.23-.17a.5.5,0,0,0-.31-.12.5.5,0,0,0-.32.12.39.39,0,0,0,0,.58Z"/><path class="cls-4" d="M77.77,131.33a4.73,4.73,0,0,0,3.32,1.23.41.41,0,1,0,0-.82,3.79,3.79,0,0,1-2.69-1c-.41-.37-1.05.21-.63.58Z"/><path class="cls-4" d="M84.46,128.44l1.63,1.15a.48.48,0,0,0,.63,0,.38.38,0,0,0,0-.58l-1.62-1.16a.5.5,0,0,0-.64,0,.41.41,0,0,0,0,.59Z"/><path class="cls-4" d="M88.09,131.67a.41.41,0,1,0,0-.82.41.41,0,1,0,0,.82Z"/><path class="cls-4" d="M69.37,130.44l1,2c.25.48,1,.07.78-.41l-1-2c-.25-.48-1-.07-.78.41Z"/><path class="cls-4" d="M61.35,124.46l-.14,2.35c0,.53.87.53.9,0l.14-2.35c0-.53-.87-.53-.9,0Z"/><path class="cls-4" d="M61.16,130l0,2.06c0,.53.92.54.9,0s0-1.37,0-2.06c0-.53-.92-.53-.9,0Z"/><path class="cls-4" d="M61.16,136.18l0,2.06c0,.53.92.53.9,0,0-.68,0-1.37,0-2.06,0-.53-.92-.53-.9,0Z"/><path class="cls-4" d="M57.81,135.57l-.35,2c-.09.52.8.67.89.15.12-.68.23-1.36.35-2,.09-.52-.79-.67-.89-.15Z"/><path class="cls-4" d="M53.83,136.56l-.43,2c-.11.52.77.7.88.17s.29-1.35.43-2c.11-.52-.77-.7-.88-.17Z"/><path class="cls-4" d="M52.09,133.65l-.92,1.88c-.24.49.58.84.81.36l.93-1.89c.23-.48-.58-.83-.82-.35Z"/><path class="cls-4" d="M47.77,134.82l-1,1.84c-.26.47.54.86.8.38l1-1.84c.26-.47-.54-.86-.8-.38Z"/><path class="cls-4" d="M44.63,133.42l-1.31,1.67c-.34.43.38.93.72.5l1.31-1.68c.34-.43-.38-.93-.72-.49Z"/><path class="cls-4" d="M41.34,132.52l-1.49,1.56c-.38.39.29.95.67.55L42,133.08c.39-.4-.28-1-.66-.56Z"/><path class="cls-4" d="M66.09,134.87l.52,2c.13.52,1,.35.88-.17s-.35-1.34-.52-2c-.13-.51-1-.34-.88.18Z"/><path class="cls-4" d="M70.53,137.39l1.11,1.8c.28.46,1.08.07.79-.39s-.74-1.2-1.1-1.8-1.08-.07-.8.39Z"/><path class="cls-4" d="M75,134l1.25,1.72c.32.44,1.08,0,.76-.44s-.83-1.15-1.24-1.72-1.09,0-.77.44Z"/><path class="cls-4" d="M78.45,136.09l1.36,1.64c.35.42,1.08-.06.73-.49l-1.36-1.64c-.35-.42-1.08.06-.73.49Z"/><path class="cls-4" d="M82.81,134.29l1.7,1.36c.43.35,1-.25.61-.61l-1.7-1.36c-.43-.35-1,.26-.61.61Z"/><path class="cls-4" d="M88.08,134l1.54,1.5c.4.38,1.07-.17.67-.55l-1.54-1.51c-.4-.38-1.07.17-.67.56Z"/><path class="cls-4" d="M61,120.69l-.32.7c-.09.21.1.45.31.51a.48.48,0,0,0,.56-.29l.32-.7c.09-.21-.1-.45-.32-.51a.46.46,0,0,0-.55.29Z"/><path class="cls-4" d="M57,131.59l-.07,1a.45.45,0,0,0,.9,0l.07-1a.45.45,0,0,0-.9,0Z"/><path class="cls-4" d="M56.64,122.29,56,123.6a.41.41,0,0,0,.17.57.48.48,0,0,0,.61-.15l.65-1.31a.41.41,0,0,0-.16-.57.5.5,0,0,0-.62.15Z"/><path class="cls-4" d="M53.35,127.42l-1.42,2.48c-.27.47.5.89.78.42l1.42-2.48c.27-.47-.5-.89-.78-.42Z"/><path class="cls-4" d="M53.79,131.18v.95c0,.53.9.53.9,0v-.95c0-.53-.9-.53-.9,0Z"/><path class="cls-4" d="M49.91,125.74l-1.35,1.36c-.39.39.24,1,.64.58l1.35-1.36c.39-.39-.25-1-.64-.58Z"/><path class="cls-4" d="M46.59,129.9l-1.08,1.69c-.3.46.48.87.78.42l1.08-1.69c.29-.46-.49-.88-.78-.42Z"/><path class="cls-4" d="M48.8,123.07a1.51,1.51,0,0,0-1,1,.42.42,0,0,0,.31.51.46.46,0,0,0,.56-.29l0-.09s0,0,0,0a.56.56,0,0,1,.05-.08s.07-.08,0,0l.06-.06.05,0s.06,0,.07,0,.12,0,0,0a.42.42,0,0,0,.31-.5.45.45,0,0,0-.55-.29Z"/><path class="cls-4" d="M42.25,128.41a17.29,17.29,0,0,0-2.73,2.06c-.4.38.23,1,.64.58a16.26,16.26,0,0,1,2.55-1.93.42.42,0,0,0-.46-.71Z"/><path class="cls-4" d="M81.43,123.34h.07c-.07,0-.08,0,0,0l.06,0c-.06,0-.07,0,0,0l0,0s0,0,0,0l0,0s0,0,0,0a.48.48,0,0,0,.61.14.39.39,0,0,0,.17-.56,1.17,1.17,0,0,0-.93-.46.44.44,0,0,0-.45.41.43.43,0,0,0,.45.41Z"/><path class="cls-4" d="M62.91,118.05l-.21.45a.4.4,0,0,0,0,.32A.45.45,0,0,0,63,119a.47.47,0,0,0,.55-.29l.21-.45a.4.4,0,0,0-.05-.32.41.41,0,0,0-.27-.19.46.46,0,0,0-.55.29Z"/><path class="cls-4" d="M54.65,119.06l-.25.12a.39.39,0,0,0-.16.56.48.48,0,0,0,.62.15l.24-.12a.41.41,0,0,0,.17-.57.49.49,0,0,0-.62-.14Z"/><path class="cls-4" d="M51.56,123l-.14.15a.39.39,0,0,0,0,.58.49.49,0,0,0,.64,0l.13-.14a.4.4,0,0,0,0-.59.48.48,0,0,0-.63,0Z"/><path class="cls-4" d="M70.21,115.13l.24.06a.46.46,0,0,0,.55-.29.42.42,0,0,0-.31-.51l-.24,0a.48.48,0,0,0-.56.29.41.41,0,0,0,.32.5Z"/><path class="cls-8" d="M167.79,75.53c.17-.39.35-.78.52-1.15.05-.12.11-.23.16-.34q.3-.65.6-1.23l.06-.13,2.91-.37,1.45-2.19c2.64-4,2.4-8.42-.66-12.29l-.79-1-1.85.27L130.07,35.68a25,25,0,0,0-22.19,0L67.65,57.17l-.35-.05-1.92-.28c-4,4.2-4.46,9.26-1.28,13.69l1.28,1.78,2.66.34.09.25c.11.3.22.61.32.92l.14.39L69,75.32a62.77,62.77,0,0,1,2.6,11.74l-8.63-6.54a14.27,14.27,0,0,0-17.11,0L12.9,105.46S9.71,118.65,53.54,119L36.6,131.24s-2.27,8.88,28.93,9,28.93-9,28.93-9l-4.65-3.36a252.48,252.48,0,0,0,29.81,1.72,214.46,214.46,0,0,0,32.67-2.29l.38-.06.33,0c6.09-.94,9.4-1.8,9.4-1.8a34.35,34.35,0,0,0,7.86-2.18,4.74,4.74,0,0,0,2.24-1.47c1-1.09.43-1.89.43-1.89a16,16,0,0,0-2.05-4.38,29.43,29.43,0,0,0-2.88-3.86,29.51,29.51,0,0,1-4.88-17A51.25,51.25,0,0,1,167.79,75.53Z"/><path class="cls-8" d="M169.13,72.68C154.74,76,88.27,78,68.49,72.66"/><path class="cls-8" d="M67.3,57.12a353.69,353.69,0,0,0,102.89,0"/></svg>