<svg id="Layer_1" data-name="Layer 1" xmlns="http://www.w3.org/2000/svg" viewBox="0 0 206.76 192.71"><defs><style>.cls-1{fill:red;}</style></defs><path class="cls-1" d="M173.2,93.32a34.88,34.88,0,0,0-8-12.65c-7.8-8.08-18.52-12.75-28.91-16.8A110.06,110.06,0,0,0,99.54,52.46a76.53,76.53,0,0,0-9.37-.57,78.25,78.25,0,0,0-9.21.54l-1.89.2c-5.38.53-13.5,1.34-19.61,6.93l-1.14,1.06c-2.07,1.9-4.86,4.47-7.34,7.16a124.78,124.78,0,0,0-14.21,15l-.12.16L35.45,84,35,85.3a17.73,17.73,0,0,0-3.16,11,32,32,0,0,0,0,4.49h0v0a47.88,47.88,0,0,0,2.25,10.89c.42,1.34.83,2.58,1.23,3.74v3l1.76,1.76a54.15,54.15,0,0,0,3.63,7.91c.06.09.11.18.16.27a19.35,19.35,0,0,0,3.61,5.09,36.46,36.46,0,0,0,6.88,6.17,26.56,26.56,0,0,0,2.58,1.64c.4.24.81.46,1.22.68l0,0,1.34.72A42.76,42.76,0,0,0,67,146.59l.5.12c5.25,1.28,22.24,2,25.85,2h1l.91,0h1.91c2.17,0,4.35,0,6.46-.11s4.16-.18,6.22-.32l3.78-.12-.09-.19,1-.1c3-.3,5.92-.7,8.76-1.18,3.63-.61,7.09-1.36,10.28-2.23,8.41-2.31,15.51-5.56,21.09-9.68l.47-.34c6.15-4.53,16.23-12,18.88-22.87a14.3,14.3,0,0,0,.68-2.8A33.2,33.2,0,0,0,173.2,93.32Zm-10.7,13.85a1.41,1.41,0,0,1-.27.63c-1.13,7.16-10,13.49-14.85,17.06a51.9,51.9,0,0,1-17,7.71c-3,.81-6,1.45-9.08,2-2.65.45-5.32.8-7.94,1.07-3.49.35-6.91.57-10.13.68s-6.45.12-9.24.07h0l0,0c-3.61.11-20.16-.86-23.58-1.69a31.45,31.45,0,0,1-8.24-3l-1.07-.56,0,0c-.34-.19-.68-.37-1-.57a14.34,14.34,0,0,1-1.61-1,24.17,24.17,0,0,1-5-4.51,7.1,7.1,0,0,1-1.75-2.49c-.12-.19-.25-.4-.37-.62a42.65,42.65,0,0,1-2.84-6.27l-.6-1.53c-.07-.2-.15-.39-.22-.59s0-.09-.05-.13a.25.25,0,0,1,0-.07h0l0-.07a.55.55,0,0,1,0-.12h0c-.63-1.7-1.2-3.42-1.74-5.14-1.16-3.68-2.13-7.91-1.63-11.78a.14.14,0,0,0,0-.06c-.32-1.63.32-3.23,1.68-4.84h0l0,0h0c.18-.29.37-.58.58-.86a113.5,113.5,0,0,1,13.2-13.88h0c2.63-2.92,5.94-5.87,8.15-7.93,3.54-3.23,9.93-3.38,14.56-3.92a65.38,65.38,0,0,1,15.63,0c10.81,1.33,23.53,5.1,33.1,10.39h0c8.27,3.21,18.67,7.37,25.21,14.14a22.59,22.59,0,0,1,5.21,8.17A20.71,20.71,0,0,1,162.5,107.17Z"/></svg>