<svg id="Layer_1" data-name="Layer 1" xmlns="http://www.w3.org/2000/svg" viewBox="0 0 206.76 192.71"><defs><style>.cls-1{fill:#050505;opacity:0.3;}.cls-2{fill:#a5a0a4;}.cls-3{fill:#999698;}.cls-4{fill:#878286;}.cls-5{fill:#6d696d;}.cls-6{fill:#bcb7bb;}.cls-7{fill:#fff;opacity:0.22;}</style></defs><ellipse class="cls-1" cx="101.4" cy="127.58" rx="57.19" ry="16.95" transform="translate(-5.37 4.46) rotate(-2.45)"/><path class="cls-2" d="M126.64,104c2.15,1.19,3.53,3.36,5.16,5.58,9.24,12.62,21.5-4.32,29.14-12.15a22.55,22.55,0,0,0-5.23-8.17A54.62,54.62,0,0,0,137.07,85C129.57,84.75,127.31,95.46,126.64,104Z"/><path class="cls-2" d="M91.46,93.24C90.37,86.11,88,78.41,82.9,73.1a16.72,16.72,0,0,0-13-5.16c-8,4.86-18.45,14.8-24.42,22.45a11.44,11.44,0,0,0-2.21,5.07,166.92,166.92,0,0,0,31.19,19.23,57.85,57.85,0,0,0,14.9,5A58.8,58.8,0,0,0,91.46,93.24Z"/><path class="cls-3" d="M130.42,75.07c-17.58-6.79-36.17-11.6-55.12-9.72a23.65,23.65,0,0,0-5.4,2.59,16.72,16.72,0,0,1,13,5.16c5.08,5.31,7.47,13,8.56,20.14a58.8,58.8,0,0,1-2.1,26.44,29.74,29.74,0,0,0,4.42.38c8.27,0,12.6-4.33,17.64-10.25,3-3.5,6.94-6.93,11.83-6.74a7.48,7.48,0,0,1,3.39.9c.67-8.51,2.93-19.22,10.43-19a54.62,54.62,0,0,1,18.64,4.26C149.15,82.45,138.72,78.28,130.42,75.07Z"/><path class="cls-4" d="M99.73,119.17a18.43,18.43,0,0,1-6,.89c-6.74,0-13.28-2.6-19.32-5.37A166.92,166.92,0,0,1,43.27,95.46c-.73,4.06.31,8.61,1.55,12.53a63.3,63.3,0,0,0,6.36,14.9c7.16,11.27,19.69,12.11,31.87,13a180.59,180.59,0,0,0,19.31.38c-.36-2.9-.76-5.79-1.17-8.68C100.82,125,100.91,121.62,99.73,119.17Z"/><path class="cls-3" d="M111.44,117.38c0-2.51,0-5.16.19-7.81l-.21.24c-3.67,4.32-7,7.8-11.69,9.36,1.18,2.45,1.09,5.82,1.46,8.45.41,2.89.81,5.78,1.17,8.68,3.24-.11,6.66-.33,10.16-.68,0-.08,0-.16-.07-.24C111,129.71,111.41,123.18,111.44,117.38Z"/><path class="cls-5" d="M160.94,97.4c-6.77,6.94-17.15,21-25.86,15.36-.46,1.61-.91,3.22-1.37,4.83-1.41,4.91-2.57,10-4.11,15a51.89,51.89,0,0,0,17.09-7.72c4.86-3.57,13.77-9.91,14.9-17.07a1.4,1.4,0,0,0,.27-.64A20.71,20.71,0,0,0,160.94,97.4Z"/><path class="cls-4" d="M120.37,122.42c0-2.7.45-5.56.2-8.24-.34-3.66-1.8-5-3.86-7.12l-.1,0a1,1,0,0,1-1.32-1.08,26.83,26.83,0,0,0-3.66,3.56c-.18,2.65-.17,5.3-.19,7.81,0,5.8-.46,12.33,1,18,0,.08,0,.16.07.24,2.64-.27,5.31-.62,8-1.07C119.82,130.72,120.35,125.87,120.37,122.42Z"/><path class="cls-4" d="M131.59,111.92a37.83,37.83,0,0,1,1.92,6.39c.07-.24.13-.48.2-.72.46-1.61.91-3.22,1.37-4.83a12.34,12.34,0,0,1-3.28-3.21c-2.35-3.2-4.17-6.32-8.55-6.48a10.93,10.93,0,0,0-5.85,1.52C124,102.51,128.77,104.91,131.59,111.92Z"/><path class="cls-4" d="M133.51,118.31a37.83,37.83,0,0,0-1.92-6.39c-2.82-7-7.59-9.41-14.19-7.33a15.58,15.58,0,0,0-2.11,1.42,1,1,0,0,0,1.32,1.08l.1,0c2.06,2.13,3.52,3.46,3.86,7.12.25,2.68-.19,5.54-.2,8.24,0,3.45-.55,8.3.12,12.13,3.08-.52,6.14-1.16,9.11-2C131.06,127.88,132.19,123,133.51,118.31Z"/><path class="cls-6" d="M147.75,107.18c-1.75,1.31-3.41,2.73-5.15,4a7.76,7.76,0,0,1-4.58,1.89.22.22,0,0,1-.11,0,.13.13,0,0,1-.09,0h-.08a2.77,2.77,0,0,1-1-.2h0s0,0,0,0a5,5,0,0,1-2.18-2.08c-.67-1.07-2.6-6-5.77-8.29a3.64,3.64,0,0,0-1.89-.63,13.89,13.89,0,0,0-3.84.33c-3.72.65-7.05,2.79-9.93,5.15-.7.57-2,1.79-3.55,3.13h0a30.21,30.21,0,0,1-8.27,5.47A26.39,26.39,0,0,1,90,117.4h0c-.67,0-1.24-.07-1.7-.1-3.58-.31-7.95-2-12.06-4H76.2c-1.31-.61-2.57-1.24-3.79-1.86-5.41-2.64-9.43-6-11-6.69-2.84-1.16-11.33-4.14-15.25-7.77-2.12-2-1.27-5.58-1.23-5.78,0,0,0,0,0,.05h0c-1.37,1.61-2,3.22-1.69,4.85.28,1.39,1.25,2.8,3.06,4.33,4.35,3.65,9.94,5.5,13,7.79,1.78,1.35,4,4.61,7,5.63a17.65,17.65,0,0,0,4.83.51h0a19.87,19.87,0,0,1,3.15.18h0a.07.07,0,0,0,.07,0l.15.1s0,0,0,0l.63.27a3.54,3.54,0,0,0,.69.12c.64.31,1.3.65,1.88,1,0,0,0,0,0,0v0a4.2,4.2,0,0,1,1.42,1.19c.39.65,2.54,6.88,3.61,9.45.19.53.39,1.06.64,1.62.5,1.11-.22-6.83-.28-8.16a12.1,12.1,0,0,0,1.93.58A20.29,20.29,0,0,0,95.88,120h0v0h0c.75-.25,1.49-.53,2.22-.83l.13.46c1.09,3.65,3.4,11.72,3.41,11.72.4-5,.68-9-.12-11.17,1.87-2.84,5.21-4.88,7.1-6.46.93-.78,1.87-1.7,2.88-2.61l.61-.54a18.68,18.68,0,0,1,4.75-3.23,13.21,13.21,0,0,1,5.61-1.13c3.41.08,6.8,2.64,8.47,5.77a9.78,9.78,0,0,1,.86,2.18c1.11,4.51-.57,10.24-.86,13.58v0h0c2.81-3.3,7.64-9.16,10.67-12.22a12.82,12.82,0,0,1,1.27-1.14h0c4.17-3.55,11.2-7.42,14.27-12.92,0,0,0,0,0,0C157.91,100.17,149.69,105.52,147.75,107.18Z"/><path class="cls-5" d="M93.1,136.38c-1-2-6.2-2.23-8.76-3.25-1.56-.62-1.91-2.38-3.47-2.88a28.69,28.69,0,0,0-7.2-.95c-2.27-.17-2.34-1.64-3-2.67-1.53-2.23-3.36-4.81-5.65-4.73a1,1,0,0,0-.58,1.62c1.24,1.3,3.48,5.34,1.62,5.4-.93,0-3.23-1.66-4.06-1.85-2.24-.62-5.95-.9-10.18-6-.26-.31-.53-.65-.79-1-1.32-1.75-2.42-5.69-4.44-7h0a.55.55,0,0,0,0,.12l0,.07a.24.24,0,0,0,0,.08c.3.82.59,1.55.87,2.25a42.74,42.74,0,0,0,2.85,6.28c.13.22.25.43.37.62A7.13,7.13,0,0,0,52.5,125a23.49,23.49,0,0,0,5,4.51,14.69,14.69,0,0,0,1.62,1l1,.57c.37.21.73.39,1.07.57a31.62,31.62,0,0,0,8.27,3c3.43.83,20,1.8,23.65,1.69Z"/><path class="cls-6" d="M97.18,64.66a65.8,65.8,0,0,0-15.68,0c-4.64.54-11.06.69-14.6,3.92-2.23,2.07-5.54,5-8.18,7.94,0,0,0,0,0,0,5.15-1.94,6.49-3.8,9.66-5.21,1.63,0,3.22-1.89,4.95-1.86,3.38,0,6.31,4,8.59,6.13,5.58,5.3,8.8,12.87,9.9,20.55a.66.66,0,0,1,0,.24c0,.22.07.47.1.69,1.66-4.06.87-9.81-.13-14.1-.69-2.93-2-6.66.43-9.13,1.13-1.18,4-1.94,5.58-2.33,9.94-2.47,27.87,5.09,32.6,3.58C120.83,69.78,108,66,97.18,64.66Z"/><path class="cls-7" d="M160.94,97.4a22.55,22.55,0,0,0-5.23-8.17c-6.56-6.78-17-11-25.29-14.16h0C120.79,69.77,108,66,97.18,64.66a65.8,65.8,0,0,0-15.68,0c-4.64.54-11.06.69-14.6,3.92-2.23,2.07-5.54,5-8.18,7.94h0A113.29,113.29,0,0,0,45.48,90.39a10.22,10.22,0,0,0-.59.87v0s0,0,0,.05h0c-1.37,1.61-2,3.22-1.69,4.85a.14.14,0,0,1,0,.06c-.5,3.87.47,8.1,1.64,11.79.54,1.72,1.11,3.44,1.74,5.14h0a.55.55,0,0,0,0,.12l0,.07h0a.25.25,0,0,0,0,.07s0,.09.05.13c.07.2.15.39.22.59l.6,1.53a42.74,42.74,0,0,0,2.85,6.28h0c-4,2.51-6.23,5.26-6.11,8.08.39,9.35,26.29,15.84,57.84,14.49s56.82-10,56.43-19.38c-.09-2.23-1.66-4.31-4.4-6.15,3.55-3.21,6.8-7.06,7.45-11.19a1.4,1.4,0,0,0,.27-.64A20.71,20.71,0,0,0,160.94,97.4Zm-.7.73-.21.22Zm-.73.78-.23.24Zm-.81.87-.08.09Z"/></svg>