<svg id="Layer_1" data-name="Layer 1" xmlns="http://www.w3.org/2000/svg" viewBox="0 0 206.76 183.53"><defs><style>.cls-1{opacity:0.3;}.cls-2{fill:#b57c48;}.cls-3{fill:#a56a3a;}.cls-4{fill:#c48a5b;}.cls-5{fill:none;stroke:#683a1b;}.cls-5,.cls-7{stroke-miterlimit:10;}.cls-6{fill:#683a1b;}.cls-7{fill:#eacf8c;stroke:#4c3003;stroke-width:0.5px;}.cls-8{fill:#d3a95f;}</style></defs><ellipse class="cls-1" cx="105.71" cy="127" rx="67.76" ry="14.39"/><path class="cls-2" d="M49.64,122.14c1.24-4,4.83-8,4.83-8,13-18.41-1-45.26-1-45.26l51.82.25,54.75,1s-16.93,25.56-3.95,44c0,0,3.76,4.09,4.93,8.23.38,1.37-.72,2.73-2.76,3.4-6.36,2.09-22.7,6.34-50.55,6.34-28.25,0-47.49-4.37-55-6.43C50.44,125.09,49.19,123.61,49.64,122.14Z"/><path class="cls-3" d="M133.4,77.23a219.4,219.4,0,0,0,23.81-2s-12.73,21.63-1.12,38.94c0,0,4,4.44,4.93,8.23,0,0,2.35,3.22-10.53,5.54,0,0-16.05,4.2-42.78,4.2s-48-4.45-55-6.43S141.18,139.67,133.4,77.23Z"/><path class="cls-4" d="M160.13,59.39l.79,1c3.06,3.86,3.3,8.31.66,12.29l-1.45,2.18a398.46,398.46,0,0,1-106.66,0L52.2,73.08c-3.19-4.43-2.71-9.49,1.27-13.69h0l1.92.28a361.43,361.43,0,0,0,102.82,0Z"/><path class="cls-3" d="M157.21,75.24c-.46.93-1,2-1.44,3.08a399.23,399.23,0,0,1-98.61-.08c-.34-1.08-.69-2.1-1-3A398.47,398.47,0,0,0,157.21,75.24Z"/><path class="cls-5" d="M156,78.11l.53-1.16c.05-.11.1-.22.16-.33.2-.43.4-.84.59-1.23l.07-.13,2.9-.37,1.45-2.19c2.64-4,2.41-8.42-.66-12.29l-.79-1-1.91.28a361.5,361.5,0,0,1-102.83,0l-1.91-.28c-4,4.2-4.46,9.26-1.28,13.69l1.28,1.78,2.66.34.09.25c.11.29.21.6.32.91l.14.41c.12.35.24.72.36,1.09,3,9.46,5.69,24.59-2.58,36.31,0,0-3.58,3.93-4.82,8-.44,1.41.7,2.81,2.8,3.48a1.31,1.31,0,0,0,.28.09c.88.25,2,.54,3.3.86,9.07,2.21,26.91,5.58,51.68,5.58a214.36,214.36,0,0,0,32.67-2.29l.43-.06.28-.05c6.1-.94,9.4-1.8,9.4-1.8a34.31,34.31,0,0,0,7.87-2.18,4.72,4.72,0,0,0,2.24-1.47c1-1.09.42-1.89.42-1.89a15.64,15.64,0,0,0-2-4.38,29.43,29.43,0,0,0-2.88-3.86,29.52,29.52,0,0,1-4.88-17A51.25,51.25,0,0,1,156,78.11Z"/><path class="cls-5" d="M157.22,75.23c-14.39,3.31-80.86,5.31-100.64,0"/><path class="cls-5" d="M55.39,59.67a353.76,353.76,0,0,0,102.9,0"/><path class="cls-6" d="M55.86,59.92C53,59.3,103,51.8,157.48,59.92A328.21,328.21,0,0,1,55.86,59.92Z"/><path class="cls-7" d="M145.36,59.06c-2.12.53-4.82-1.06-7.86-1.55s-6.83.49-10.2,1.07-4.34-1.47-12.36-1.71a37.36,37.36,0,0,1-5.69-.5,14,14,0,0,0-4.87,0,42,42,0,0,1-5.64.54c-8,.24-9,2.3-12.37,1.71S79.21,57,76.17,57.51s-5.73,2.08-7.86,1.55-8,1.58-8,1.58c10.7,1.33,18.38,2.79,46.21,3h.62a336.51,336.51,0,0,0,46.2-2.86S147.48,58.53,145.36,59.06Z"/><path class="cls-8" d="M101.15,60.09l.53.3a.17.17,0,0,1,0,.32.55.55,0,0,1-.53,0l-.54-.29a.18.18,0,0,1,0-.33.57.57,0,0,1,.54,0Z"/><path class="cls-8" d="M103.34,60.93l.54.3a.18.18,0,0,1,0,.33.64.64,0,0,1-.54,0l-.53-.3a.18.18,0,0,1,0-.33.55.55,0,0,1,.53,0Z"/><path class="cls-8" d="M99.27,61.62l.53.3a.17.17,0,0,1,0,.32.57.57,0,0,1-.54,0l-.53-.3a.17.17,0,0,1,0-.32.57.57,0,0,1,.54,0Z"/><path class="cls-8" d="M94.13,61.31l.53.3a.17.17,0,0,1,0,.32.57.57,0,0,1-.54,0l-.53-.3a.17.17,0,0,1,0-.32.57.57,0,0,1,.54,0Z"/><path class="cls-8" d="M89.8,61.62l.53.3a.17.17,0,0,1,0,.32.55.55,0,0,1-.53,0l-.54-.3a.17.17,0,0,1,0-.32.57.57,0,0,1,.54,0Z"/><path class="cls-8" d="M104.21,59.83l.09.07a.18.18,0,0,1,.11.16.21.21,0,0,1-.11.16.57.57,0,0,1-.54,0l-.09-.07a.21.21,0,0,1-.11-.16.19.19,0,0,1,.11-.16.57.57,0,0,1,.54,0Z"/><path class="cls-8" d="M89.7,60.33v.14c0,.12-.18.24-.38.23s-.38-.1-.38-.23v-.14c0-.12.17-.23.38-.23s.38.1.38.23Z"/><path class="cls-8" d="M91.64,61.11v.14c0,.12-.17.24-.38.23s-.38-.1-.38-.23v-.14c0-.12.18-.23.38-.23s.38.11.38.23Z"/><path class="cls-8" d="M96.49,61.11v.14c0,.12-.18.24-.38.23s-.38-.1-.38-.23v-.14c0-.12.18-.23.38-.23s.38.11.38.23Z"/><path class="cls-8" d="M99.48,60.71v.14c0,.12-.18.24-.38.23s-.38-.1-.38-.23v-.14c0-.12.17-.24.38-.23s.38.1.38.23Z"/><path class="cls-8" d="M102.55,62.16v.14c0,.12-.17.23-.38.23s-.38-.1-.38-.23v-.14c0-.12.18-.24.38-.23s.38.1.38.23Z"/><path class="cls-8" d="M87.4,60.93c-.48,0-.48-.46,0-.46s.49.46,0,.46Z"/><path class="cls-8" d="M82.62,61.85c-.49,0-.49-.46,0-.46s.49.46,0,.46Z"/><path class="cls-8" d="M84.54,61.62c-.49,0-.49-.46,0-.46s.49.46,0,.46Z"/><path class="cls-8" d="M86.34,62.08c-.49,0-.49-.46,0-.46s.49.46,0,.46Z"/><path class="cls-8" d="M88.94,61.41c-.49,0-.49-.46,0-.46s.49.46,0,.46Z"/><path class="cls-8" d="M92.53,62.46c-.48,0-.48-.46,0-.46s.49.46,0,.46Z"/><path class="cls-8" d="M96.59,62.54c-.49,0-.49-.46,0-.46s.49.46,0,.46Z"/><path class="cls-8" d="M92.8,61.1c-.48,0-.48-.46,0-.46s.49.46,0,.46Z"/><path class="cls-8" d="M100.26,57.56l.53.3a.18.18,0,0,1,0,.33.64.64,0,0,1-.54,0l-.53-.3a.18.18,0,0,1,0-.33.6.6,0,0,1,.54,0Z"/><path class="cls-8" d="M102.45,58.4l.53.3a.18.18,0,0,1,0,.33.62.62,0,0,1-.53,0l-.54-.3a.18.18,0,0,1,0-.33.64.64,0,0,1,.54,0Z"/><path class="cls-8" d="M98.37,59.09l.54.3a.17.17,0,0,1,0,.32.57.57,0,0,1-.54,0l-.53-.3a.17.17,0,0,1,0-.32.55.55,0,0,1,.53,0Z"/><path class="cls-8" d="M93.23,58.78l.54.3a.17.17,0,0,1,0,.32.57.57,0,0,1-.54,0l-.53-.29a.18.18,0,0,1,0-.33.55.55,0,0,1,.53,0Z"/><path class="cls-8" d="M88.91,59.09l.53.3a.17.17,0,0,1,0,.32.57.57,0,0,1-.54,0l-.53-.3a.17.17,0,0,1,0-.32.57.57,0,0,1,.54,0Z"/><path class="cls-8" d="M103.31,57.3l.1.07a.2.2,0,0,1,.11.16.19.19,0,0,1-.11.16.57.57,0,0,1-.54,0l-.09-.07a.18.18,0,0,1-.11-.16.19.19,0,0,1,.11-.16.55.55,0,0,1,.53,0Z"/><path class="cls-8" d="M90.75,58.59v.13c0,.12-.18.24-.38.23s-.38-.1-.38-.23v-.13c0-.12.17-.24.38-.23s.38.1.38.23Z"/><path class="cls-8" d="M95.6,58.59v.13c0,.12-.18.24-.38.23s-.38-.1-.38-.23v-.13c0-.12.17-.24.38-.23s.38.1.38.23Z"/><path class="cls-8" d="M98.58,58.18v.14c0,.12-.17.24-.38.23s-.37-.1-.37-.23v-.14c0-.12.17-.23.37-.23s.38.1.38.23Z"/><path class="cls-8" d="M101.66,59.63v.14c0,.12-.18.24-.38.23s-.38-.1-.38-.23v-.14c0-.12.17-.23.38-.23s.38.1.38.23Z"/><path class="cls-8" d="M81.72,59.32c-.48,0-.48-.46,0-.46s.49.46,0,.46Z"/><path class="cls-8" d="M83.65,59.09c-.49,0-.49-.46,0-.46s.49.46,0,.46Z"/><path class="cls-8" d="M85.44,59.55c-.48,0-.48-.46,0-.46s.49.46,0,.46Z"/><path class="cls-8" d="M87.4,59.9c-.48,0-.48-.46,0-.46s.49.46,0,.46Z"/><path class="cls-8" d="M94.4,58c-.48,0-.49-.46,0-.46s.49.46,0,.46Z"/><path class="cls-8" d="M97.36,57.73c-.49,0-.49-.47,0-.47s.49.47,0,.47Z"/><path class="cls-8" d="M105.18,58.77c-.48,0-.48-.46,0-.46s.49.46,0,.46Z"/><path class="cls-8" d="M105.18,57.24c-.48,0-.48-.46,0-.46s.49.46,0,.46Z"/><path class="cls-8" d="M104.82,62.54c-.49,0-.49-.46,0-.46s.49.46,0,.46Z"/><path class="cls-8" d="M91.64,59.93c-.49,0-.49-.46,0-.46s.49.46,0,.46Z"/><path class="cls-8" d="M95.69,60c-.48,0-.48-.46,0-.46s.49.46,0,.46Z"/><path class="cls-8" d="M91.91,58.57c-.49,0-.49-.46,0-.46s.49.46,0,.46Z"/><path class="cls-8" d="M80.75,58.87l.54.3a.18.18,0,0,1,0,.33.64.64,0,0,1-.54,0l-.53-.3a.18.18,0,0,1,0-.33.62.62,0,0,1,.53,0Z"/><path class="cls-8" d="M82.94,59.71l.54.3a.18.18,0,0,1,0,.33.6.6,0,0,1-.54,0l-.53-.3a.18.18,0,0,1,0-.33.62.62,0,0,1,.53,0Z"/><path class="cls-8" d="M78.87,60.4l.53.3a.17.17,0,0,1,0,.32.55.55,0,0,1-.53,0l-.54-.29a.18.18,0,0,1,0-.33.57.57,0,0,1,.54,0Z"/><path class="cls-8" d="M73.73,60.09l.53.3a.17.17,0,0,1,0,.32.55.55,0,0,1-.53,0l-.54-.29a.18.18,0,0,1,0-.33.57.57,0,0,1,.54,0Z"/><path class="cls-8" d="M69.4,60.4l.54.3a.17.17,0,0,1,0,.32.57.57,0,0,1-.54,0l-.53-.29a.18.18,0,0,1,0-.33.55.55,0,0,1,.53,0Z"/><path class="cls-8" d="M83.81,58.61l.09.07a.21.21,0,0,1,.11.16.19.19,0,0,1-.11.16.55.55,0,0,1-.53,0l-.1-.07a.2.2,0,0,1-.11-.16.21.21,0,0,1,.11-.16.57.57,0,0,1,.54,0Z"/><path class="cls-8" d="M78.7,58v.14c0,.12-.17.23-.38.23s-.38-.1-.38-.23V58c0-.12.18-.24.38-.23s.38.1.38.23Z"/><path class="cls-8" d="M76,58.36v.13c0,.12-.18.24-.38.23s-.38-.1-.38-.23v-.13c0-.12.17-.24.38-.23s.38.1.38.23Z"/><path class="cls-8" d="M77.4,58.82V59c0,.13-.18.24-.38.24s-.38-.11-.38-.24v-.13c0-.12.17-.24.38-.23s.38.1.38.23Z"/><path class="cls-8" d="M74.57,59.19v.14c0,.12-.17.24-.37.23s-.38-.1-.38-.23v-.14c0-.12.17-.23.38-.23s.37.1.37.23Z"/><path class="cls-8" d="M71.24,59.9V60c0,.12-.17.23-.38.23s-.38-.11-.38-.23V59.9c0-.12.18-.24.38-.23s.38.1.38.23Z"/><path class="cls-8" d="M76.09,59.9V60c0,.12-.17.23-.38.23s-.38-.11-.38-.23V59.9c0-.12.18-.24.38-.23s.38.1.38.23Z"/><path class="cls-8" d="M79.08,59.49v.14c0,.12-.17.24-.38.23s-.38-.1-.38-.23v-.14c0-.12.18-.23.38-.23s.38.1.38.23Z"/><path class="cls-8" d="M82.15,60.94v.14c0,.12-.17.24-.38.23s-.37-.1-.37-.23v-.14c0-.12.17-.23.37-.23s.38.1.38.23Z"/><path class="cls-8" d="M67,59.72c-.49,0-.49-.47,0-.47s.48.47,0,.47Z"/><path class="cls-8" d="M74.87,62c-.49,0-.49-.46,0-.46s.49.46,0,.46Z"/><path class="cls-8" d="M76.78,62.54c-.49,0-.49-.46,0-.46s.49.46,0,.46Z"/><path class="cls-8" d="M78.5,61.85c-.49,0-.49-.46,0-.46s.49.46,0,.46Z"/><path class="cls-8" d="M80.11,62.46c-.49,0-.49-.46,0-.46s.49.46,0,.46Z"/><path class="cls-8" d="M84.54,62.69c-.49,0-.49-.46,0-.46s.49.46,0,.46Z"/><path class="cls-8" d="M85.44,60.63c-.48,0-.48-.46,0-.46s.49.46,0,.46Z"/><path class="cls-8" d="M88.26,62.69c-.49,0-.49-.46,0-.46s.49.46,0,.46Z"/><path class="cls-8" d="M64.14,60.4c-.48,0-.49-.46,0-.46s.49.46,0,.46Z"/><path class="cls-8" d="M65.94,60.86c-.49,0-.49-.46,0-.46s.49.46,0,.46Z"/><path class="cls-8" d="M68.54,60.2c-.49,0-.49-.46,0-.46s.49.46,0,.46Z"/><path class="cls-8" d="M72.14,61.24c-.49,0-.49-.46,0-.46s.48.46,0,.46Z"/><path class="cls-8" d="M76.19,61.32c-.49,0-.49-.46,0-.46s.49.46,0,.46Z"/><path class="cls-8" d="M72.41,59.88c-.49,0-.49-.46,0-.46s.48.46,0,.46Z"/><path class="cls-8" d="M111.28,60.05l-.53.29a.18.18,0,0,0,0,.33.55.55,0,0,0,.53,0l.53-.3a.17.17,0,0,0,0-.32.55.55,0,0,0-.53,0Z"/><path class="cls-8" d="M109.09,60.89l-.54.29a.18.18,0,0,0,0,.33.57.57,0,0,0,.54,0l.53-.3a.17.17,0,0,0,0-.32.55.55,0,0,0-.53,0Z"/><path class="cls-8" d="M113.16,61.57l-.53.3a.18.18,0,0,0,0,.33.62.62,0,0,0,.53,0l.54-.3a.18.18,0,0,0,0-.33.64.64,0,0,0-.54,0Z"/><path class="cls-8" d="M118.3,61.26l-.53.3a.18.18,0,0,0,0,.33.64.64,0,0,0,.54,0l.53-.3a.18.18,0,0,0,0-.33.64.64,0,0,0-.54,0Z"/><path class="cls-8" d="M122.63,61.57l-.53.3a.18.18,0,0,0,0,.33.62.62,0,0,0,.53,0l.54-.3a.18.18,0,0,0,0-.33.64.64,0,0,0-.54,0Z"/><path class="cls-8" d="M108.22,59.78l-.09.07a.18.18,0,0,0,0,.33.62.62,0,0,0,.53,0l.1-.07a.18.18,0,0,0,0-.33.57.57,0,0,0-.54,0Z"/><path class="cls-8" d="M122.73,60.29v.14c0,.12.18.23.38.23s.38-.1.38-.23v-.14c0-.12-.17-.24-.38-.23s-.38.1-.38.23Z"/><path class="cls-8" d="M120.79,61.07v.14c0,.12.17.23.38.23s.38-.1.38-.23v-.14c0-.12-.18-.24-.38-.23s-.38.1-.38.23Z"/><path class="cls-8" d="M115.94,61.07v.14c0,.12.17.23.38.23s.38-.1.38-.23v-.14c0-.12-.18-.24-.38-.23s-.38.1-.38.23Z"/><path class="cls-8" d="M113,60.67v.13c0,.12.18.24.38.23s.38-.1.38-.23v-.13c0-.13-.17-.24-.38-.23s-.38.1-.38.23Z"/><path class="cls-8" d="M109.88,62.11v.14c0,.12.17.24.38.23s.38-.1.38-.23v-.14c0-.12-.18-.23-.38-.23s-.38.11-.38.23Z"/><path class="cls-8" d="M125,60.89c.48,0,.48-.46,0-.46s-.49.46,0,.46Z"/><path class="cls-8" d="M129.81,61.81c.49,0,.49-.47,0-.47s-.49.47,0,.47Z"/><path class="cls-8" d="M127.89,61.58c.49,0,.49-.47,0-.47s-.49.47,0,.47Z"/><path class="cls-8" d="M126.09,62c.49,0,.49-.46,0-.46s-.49.46,0,.46Z"/><path class="cls-8" d="M123.49,61.37c.49,0,.49-.46,0-.46s-.49.46,0,.46Z"/><path class="cls-8" d="M119.9,62.41c.48,0,.48-.46,0-.46s-.49.46,0,.46Z"/><path class="cls-8" d="M115.84,62.49c.49,0,.49-.46,0-.46s-.49.46,0,.46Z"/><path class="cls-8" d="M119.63,61.05c.48,0,.48-.46,0-.46s-.49.46,0,.46Z"/><path class="cls-8" d="M112.17,57.52l-.53.29a.18.18,0,0,0,0,.33.57.57,0,0,0,.54,0l.53-.3a.17.17,0,0,0,0-.32.57.57,0,0,0-.54,0Z"/><path class="cls-8" d="M110,58.36l-.53.3a.17.17,0,0,0,0,.32.55.55,0,0,0,.53,0l.54-.3a.17.17,0,0,0,0-.32.57.57,0,0,0-.54,0Z"/><path class="cls-8" d="M114.06,59l-.54.3a.18.18,0,0,0,0,.33.64.64,0,0,0,.54,0l.53-.3a.18.18,0,0,0,0-.33.62.62,0,0,0-.53,0Z"/><path class="cls-8" d="M119.2,58.73l-.54.3a.18.18,0,0,0,0,.33.57.57,0,0,0,.54,0l.53-.3a.18.18,0,0,0,0-.33.62.62,0,0,0-.53,0Z"/><path class="cls-8" d="M123.52,59l-.53.3a.18.18,0,0,0,0,.33.64.64,0,0,0,.54,0l.53-.3a.18.18,0,0,0,0-.33.64.64,0,0,0-.54,0Z"/><path class="cls-8" d="M109.12,57.25l-.1.07c-.06,0-.11.1-.11.16a.21.21,0,0,0,.11.17.57.57,0,0,0,.54,0l.09-.07a.18.18,0,0,0,0-.33.55.55,0,0,0-.53,0Z"/><path class="cls-8" d="M121.68,58.54v.14c0,.12.18.24.38.23s.38-.1.38-.23v-.14c0-.12-.17-.24-.38-.23s-.38.1-.38.23Z"/><path class="cls-8" d="M116.83,58.54v.14c0,.12.18.24.38.23s.38-.1.38-.23v-.14c0-.12-.17-.24-.38-.23s-.38.1-.38.23Z"/><path class="cls-8" d="M113.85,58.14v.14c0,.12.17.23.37.23s.38-.11.38-.23v-.14c0-.12-.17-.24-.38-.23s-.37.1-.37.23Z"/><path class="cls-8" d="M110.77,59.59v.13c0,.12.18.24.38.23s.38-.1.38-.23v-.13c0-.12-.18-.24-.38-.23s-.38.1-.38.23Z"/><path class="cls-8" d="M130.7,59.28c.49,0,.49-.46,0-.46s-.48.46,0,.46Z"/><path class="cls-8" d="M128.78,59.05c.49,0,.49-.46,0-.46s-.49.46,0,.46Z"/><path class="cls-8" d="M127,59.51c.49,0,.49-.46,0-.46s-.48.46,0,.46Z"/><path class="cls-8" d="M125,59.85c.48,0,.48-.46,0-.46s-.49.46,0,.46Z"/><path class="cls-8" d="M118,57.94c.48,0,.48-.46,0-.46s-.49.46,0,.46Z"/><path class="cls-8" d="M115.07,57.68c.49,0,.49-.46,0-.46s-.49.46,0,.46Z"/><path class="cls-8" d="M107.24,58.73c.49,0,.49-.46,0-.46s-.48.46,0,.46Z"/><path class="cls-8" d="M107.24,57.2c.49,0,.49-.46,0-.46s-.48.46,0,.46Z"/><path class="cls-8" d="M107.61,62.5c.49,0,.49-.46,0-.46s-.49.46,0,.46Z"/><path class="cls-8" d="M120.79,59.89c.49,0,.49-.47,0-.47s-.49.47,0,.47Z"/><path class="cls-8" d="M116.74,60c.48,0,.48-.46,0-.46s-.49.46,0,.46Z"/><path class="cls-8" d="M120.52,58.52c.49,0,.49-.46,0-.46s-.49.46,0,.46Z"/><path class="cls-8" d="M131.68,58.83l-.54.3a.17.17,0,0,0,0,.32.57.57,0,0,0,.54,0l.53-.3a.17.17,0,0,0,0-.32.55.55,0,0,0-.53,0Z"/><path class="cls-8" d="M129.49,59.67,129,60a.17.17,0,0,0,0,.32.57.57,0,0,0,.54,0L130,60a.17.17,0,0,0,0-.32.55.55,0,0,0-.53,0Z"/><path class="cls-8" d="M133.56,60.36l-.53.29a.18.18,0,0,0,0,.33.55.55,0,0,0,.53,0l.54-.3a.17.17,0,0,0,0-.32.57.57,0,0,0-.54,0Z"/><path class="cls-8" d="M138.7,60.05l-.53.29a.18.18,0,0,0,0,.33.55.55,0,0,0,.53,0l.54-.3a.17.17,0,0,0,0-.32.57.57,0,0,0-.54,0Z"/><path class="cls-8" d="M143,60.36l-.54.29a.18.18,0,0,0,0,.33.57.57,0,0,0,.54,0l.53-.3a.17.17,0,0,0,0-.32.55.55,0,0,0-.53,0Z"/><path class="cls-8" d="M144.53,60.58l-.53.29a.18.18,0,0,0,0,.33.55.55,0,0,0,.53,0l.54-.3a.17.17,0,0,0,0-.32.57.57,0,0,0-.54,0Z"/><path class="cls-8" d="M133.73,58v.14c0,.12.17.24.38.23s.38-.1.38-.23V58c0-.12-.18-.23-.38-.23s-.38.1-.38.23Z"/><path class="cls-8" d="M136.43,58.31v.14c0,.12.18.23.38.23s.38-.1.38-.23v-.14c0-.12-.17-.24-.38-.23s-.38.1-.38.23Z"/><path class="cls-8" d="M135,58.77v.14c0,.12.18.24.38.23s.38-.1.38-.23v-.14c0-.12-.17-.23-.38-.23s-.38.1-.38.23Z"/><path class="cls-8" d="M137.85,59.15v.14c0,.12.18.23.38.23s.38-.1.38-.23v-.14c0-.12-.17-.24-.38-.23s-.38.1-.38.23Z"/><path class="cls-8" d="M141.19,59.85V60c0,.12.17.24.38.23s.37-.1.37-.23v-.14c0-.12-.17-.23-.37-.23s-.38.1-.38.23Z"/><path class="cls-8" d="M136.34,59.85V60c0,.12.17.24.38.23s.38-.1.38-.23v-.14c0-.12-.18-.23-.38-.23s-.38.1-.38.23Z"/><path class="cls-8" d="M133.35,59.45v.14c0,.12.17.23.38.23s.38-.1.38-.23v-.14c0-.12-.18-.24-.38-.23s-.38.1-.38.23Z"/><path class="cls-8" d="M130.28,60.9V61c0,.12.17.23.37.23s.38-.11.38-.23V60.9c0-.12-.17-.24-.38-.23s-.37.1-.37.23Z"/><path class="cls-8" d="M148.81,61.14c.49,0,.49-.46,0-.46s-.49.46,0,.46Z"/><path class="cls-8" d="M142.66,61.81c.49,0,.49-.47,0-.47s-.49.47,0,.47Z"/><path class="cls-8" d="M137.56,62c.49,0,.49-.46,0-.46s-.49.46,0,.46Z"/><path class="cls-8" d="M133.93,61.81c.49,0,.49-.47,0-.47s-.49.47,0,.47Z"/><path class="cls-8" d="M132.32,62.41c.49,0,.49-.46,0-.46s-.49.46,0,.46Z"/><path class="cls-8" d="M127.89,62.64c.49,0,.49-.46,0-.46s-.49.46,0,.46Z"/><path class="cls-8" d="M127,60.59c.49,0,.49-.46,0-.46s-.48.46,0,.46Z"/><path class="cls-8" d="M124.17,62.64c.49,0,.49-.46,0-.46s-.49.46,0,.46Z"/><path class="cls-8" d="M148.29,60.36c.48,0,.48-.46,0-.46s-.49.46,0,.46Z"/><path class="cls-8" d="M146.49,60.82c.49,0,.49-.46,0-.46s-.49.46,0,.46Z"/><path class="cls-8" d="M143.89,60.15c.49,0,.49-.46,0-.46s-.49.46,0,.46Z"/><path class="cls-8" d="M140.29,61.2c.49,0,.49-.46,0-.46s-.48.46,0,.46Z"/><path class="cls-8" d="M136.24,61.27c.49,0,.49-.46,0-.46s-.49.46,0,.46Z"/><path class="cls-8" d="M140,59.83c.49,0,.49-.46,0-.46s-.49.46,0,.46Z"/></svg>