<svg id="Layer_1" data-name="Layer 1" xmlns="http://www.w3.org/2000/svg" xmlns:xlink="http://www.w3.org/1999/xlink" viewBox="0 0 273.47 241.12"><defs><style>.cls-1{opacity:0.29;fill:url(#radial-gradient);}.cls-2,.cls-3,.cls-4,.cls-5,.cls-6{opacity:0.39;}.cls-2{fill:url(#linear-gradient);}.cls-3{fill:url(#linear-gradient-2);}.cls-4{fill:url(#linear-gradient-3);}.cls-5{fill:url(#linear-gradient-4);}.cls-7{fill:#fff;}</style><radialGradient id="radial-gradient" cx="168.43" cy="115.52" r="100.94" gradientTransform="translate(-37.11) scale(1.01 1)" gradientUnits="userSpaceOnUse"><stop offset="0.15" stop-color="#518ee0"/><stop offset="0.3" stop-color="#5192e1"/><stop offset="0.46" stop-color="#4f9fe2"/><stop offset="0.63" stop-color="#4db5e5"/><stop offset="0.8" stop-color="#4ad3e9"/><stop offset="0.98" stop-color="#46faee"/><stop offset="1" stop-color="#45ffef"/></radialGradient><linearGradient id="linear-gradient" x1="132.88" y1="131.97" x2="132.88" y2="22.42" gradientUnits="userSpaceOnUse"><stop offset="0.15" stop-color="#83c0e0" stop-opacity="0"/><stop offset="0.36" stop-color="#82c1e0" stop-opacity="0.01"/><stop offset="0.48" stop-color="#80c3e1" stop-opacity="0.04"/><stop offset="0.57" stop-color="#7dc6e1" stop-opacity="0.09"/><stop offset="0.65" stop-color="#78cbe3" stop-opacity="0.17"/><stop offset="0.73" stop-color="#72d1e4" stop-opacity="0.27"/><stop offset="0.79" stop-color="#6bd9e6" stop-opacity="0.39"/><stop offset="0.85" stop-color="#62e2e8" stop-opacity="0.54"/><stop offset="0.91" stop-color="#57eceb" stop-opacity="0.7"/><stop offset="0.97" stop-color="#4cf8ed" stop-opacity="0.89"/><stop offset="1" stop-color="#45ffef"/></linearGradient><linearGradient id="linear-gradient-2" x1="133.34" y1="141.79" x2="133.34" y2="32.25" xlink:href="#linear-gradient"/><linearGradient id="linear-gradient-3" x1="4344.1" y1="-5030.84" x2="4344.1" y2="-5140.49" gradientTransform="matrix(0.2, -1.05, 0.46, 0.09, 1566.26, 5105.75)" xlink:href="#linear-gradient"/><linearGradient id="linear-gradient-4" x1="5348.11" y1="7266.07" x2="5348.11" y2="7156.42" gradientTransform="matrix(-0.2, -1.05, -0.46, 0.09, 4551.93, 5105.75)" xlink:href="#linear-gradient"/></defs><path class="cls-1" d="M26.17,187.28c6.64,3.62,119.19,55.29,214.33-5.28L210.34,71.13c-6.88-25.25-31.21-45-62.25-50-.92-.15-1.85-.29-2.78-.42-42.45-5.88-82.77,17.46-91.19,52Z"/><path class="cls-2" d="M207.29,132S173.79,83.3,132.46,83.3,57.62,132,57.62,132c-18.77-4-9.23-111,74.84-109.45C209.24,18.69,230.64,126.76,207.29,132Z"/><path class="cls-3" d="M207.75,141.79s-33.51-48.67-74.84-48.67-74.83,48.67-74.83,48.67c-18.78-4-9.24-111,74.83-109.44C209.69,28.52,231.09,136.59,207.75,141.79Z"/><path class="cls-4" d="M112.06,50.82s-28.92,30.95-37,74.28-8.78,73.29-8.78,73.29C36.67,188.55,30,207.88,47.12,119.9,60.33,39.08,114.22,25.9,112.06,50.82Z"/><path class="cls-5" d="M153.06,50.82s28.93,30.95,37,74.28,8.77,73.29,8.77,73.29c29.64-9.84,36.32,9.49,19.19-78.49C204.8,39.08,150.9,25.9,153.06,50.82Z"/><g class="cls-6"><path class="cls-7" d="M208.45,124.54a26.42,26.42,0,0,0-1.36-6.1,147.8,147.8,0,0,0-7-17.94,174.19,174.19,0,0,0-12-22.41c-4.49-7-10.17-13.15-15.57-19.39a76.9,76.9,0,0,0-19.1-15.79l.21-.78a31.89,31.89,0,0,1,13.16,3.25c12.94,6,20.56,17.2,26.82,29.48a151.3,151.3,0,0,1,10.25,24.2,127,127,0,0,1,5.32,22.24,13.71,13.71,0,0,1,.05,3.4l-.79-.16Z"/></g></svg>