<svg id="Layer_1" data-name="Layer 1" xmlns="http://www.w3.org/2000/svg" viewBox="0 0 358.95 283.06"><defs><style>.cls-1{opacity:0.3;}.cls-2{fill:#667a15;}.cls-3{fill:#825431;}.cls-4{fill:#cc9869;}.cls-5{fill:#af8358;}.cls-6{fill:#99683c;}.cls-7{fill:#c69466;}.cls-8{fill:#eacf8c;}.cls-9{fill:#f2daa5;}.cls-10{fill:#ceaf6a;}.cls-11{fill:#aa6b37;}.cls-12{fill:#b5835d;}.cls-13{fill:#c67b42;}.cls-14{fill:none;stroke:#472914;stroke-miterlimit:10;}</style></defs><path class="cls-1" d="M329.86,210.57H26.14a3.84,3.84,0,0,1-3.24-6L48,169.45a4,4,0,0,1,3.24-1.65H304.81a4,4,0,0,1,3.24,1.65l25.06,35.09A3.84,3.84,0,0,1,329.86,210.57Z"/><polygon class="cls-2" points="278.01 191.17 84.08 191.17 57.8 119.67 304.29 119.67 278.01 191.17"/><polygon class="cls-3" points="330.39 156.54 31.7 156.54 57.8 119.67 304.29 119.67 330.39 156.54"/><polygon class="cls-4" points="330.39 156.54 297.1 156.54 291.5 148.79 300.39 119.67 330.39 156.54"/><polygon class="cls-5" points="302.85 119.67 291.45 148.87 70.64 148.87 57.8 119.67 302.85 119.67"/><polygon class="cls-6" points="70.75 149.08 67.23 156.54 31.7 156.54 60.26 122.07 70.75 149.08"/><path class="cls-7" d="M60.2,122.2l1.68-2.53H300.25l1.64,2.45S60,122,60.2,122.2Z"/><path class="cls-8" d="M298.57,157,182.73,193.68,66.88,157s-.28-6.7,4.72-10.75c23.42-19,87.22-56.85,87.22-56.85a40.82,40.82,0,0,1,47.81,0s64.65,40.28,84.13,54.47C298.91,149.81,298.57,157,298.57,157Z"/><path class="cls-9" d="M176.49,88.42,174,90.59A1.6,1.6,0,0,0,174,93a1.93,1.93,0,0,0,2.55,0l2.55-2.16a1.62,1.62,0,0,0,0-2.38,2,2,0,0,0-2.56,0Z"/><path class="cls-9" d="M167.17,96.47a21,21,0,0,1-7.42,6.6c-2,1.09-.19,4,1.83,2.9a24.91,24.91,0,0,0,8.71-7.8c1.25-1.83-1.87-3.52-3.12-1.7Z"/><path class="cls-9" d="M149.63,99.14l-.45.5a1.77,1.77,0,0,0-.53,1.19,1.66,1.66,0,0,0,.53,1.19,1.94,1.94,0,0,0,2.56,0l.45-.5a1.77,1.77,0,0,0,.53-1.19,1.66,1.66,0,0,0-.53-1.19,1.94,1.94,0,0,0-2.56,0Z"/><path class="cls-9" d="M204,99.13l4.26,3.12a2,2,0,0,0,2.56,0,1.62,1.62,0,0,0,0-2.38l-4.26-3.12a2,2,0,0,0-2.56,0,1.62,1.62,0,0,0,0,2.38Z"/><path class="cls-9" d="M180.3,97.6c.43,2.63.85,5.26,1.28,7.89.35,2.13,3.83,1.23,3.49-.89q-.65-3.94-1.28-7.89c-.35-2.13-3.83-1.23-3.49.89Z"/><path class="cls-9" d="M194.9,117.79q1.09,2.1,2.17,4.2a1.92,1.92,0,0,0,2.48.6,1.65,1.65,0,0,0,.64-2.3q-1.08-2.1-2.17-4.19a1.9,1.9,0,0,0-2.47-.61,1.65,1.65,0,0,0-.65,2.3Z"/><path class="cls-9" d="M207.77,140.67l3.58,4.23a1.91,1.91,0,0,0,2.55,0,1.64,1.64,0,0,0,0-2.38l-3.57-4.22a1.91,1.91,0,0,0-2.56,0,1.62,1.62,0,0,0,0,2.37Z"/><path class="cls-9" d="M246.55,152.68l7.38,2.75c2.16.81,3.1-2.44,1-3.23l-7.38-2.75c-2.16-.81-3.1,2.44-1,3.23Z"/><path class="cls-9" d="M232.69,122.7l4.16,2.51a1.71,1.71,0,0,0,1.83-2.9l-4.17-2.51a1.71,1.71,0,0,0-1.82,2.9Z"/><path class="cls-9" d="M218.49,107.21h.36a1.68,1.68,0,1,0,0-3.36h-.36a1.68,1.68,0,1,0,0,3.36Z"/><path class="cls-9" d="M208.77,121.63l4.26,3.42a2,2,0,0,0,2.56,0,1.62,1.62,0,0,0,0-2.38l-4.26-3.41a2,2,0,0,0-2.56,0,1.61,1.61,0,0,0,0,2.37Z"/><path class="cls-9" d="M223.83,144.8l2.69,1.87a1.88,1.88,0,0,0,2.47-.6,1.67,1.67,0,0,0-.65-2.3l-2.69-1.87a1.89,1.89,0,0,0-2.47.6,1.67,1.67,0,0,0,.65,2.3Z"/><path class="cls-9" d="M174.62,114.26c.11,1.12.21,2.24.32,3.36a1.79,1.79,0,0,0,1.81,1.68,1.77,1.77,0,0,0,1.81-1.68c-.11-1.12-.22-2.24-.32-3.36a1.8,1.8,0,0,0-1.81-1.68,1.77,1.77,0,0,0-1.81,1.68Z"/><path class="cls-9" d="M177.05,134.76c.43,3.41.85,6.82,1.28,10.24.26,2.12,3.88,2.14,3.61,0q-.63-5.13-1.28-10.24c-.26-2.13-3.88-2.15-3.61,0Z"/><path class="cls-9" d="M179.23,153.21a15,15,0,0,1,1.32,7.56c-.18,2.16,3.43,2.15,3.61,0a17.15,17.15,0,0,0-1.44-8.46c-.88-2-4.38-1.1-3.49.9Z"/><path class="cls-9" d="M190,144.4l2.16,1a1.91,1.91,0,0,0,2.47-.6,1.63,1.63,0,0,0-.64-2.3l-2.17-1a1.92,1.92,0,0,0-2.47.6,1.64,1.64,0,0,0,.65,2.3Z"/><path class="cls-9" d="M213.78,159l4.7,3.19a1.89,1.89,0,0,0,2.47-.6,1.65,1.65,0,0,0-.65-2.3l-4.7-3.19a1.9,1.9,0,0,0-2.47.61,1.64,1.64,0,0,0,.65,2.29Z"/><path class="cls-9" d="M194.1,166.82a1.68,1.68,0,1,0,0-3.36,1.68,1.68,0,1,0,0,3.36Z"/><path class="cls-9" d="M167.53,166a1.68,1.68,0,1,0,0-3.36,1.68,1.68,0,1,0,0,3.36Z"/><path class="cls-9" d="M156.44,123a20.76,20.76,0,0,0-2.88,9.89c-.07,2.16,3.54,2.16,3.61,0a17.17,17.17,0,0,1,2.39-8.19c1.11-1.9-2-3.6-3.12-1.7Z"/><path class="cls-9" d="M151.42,139l-.66,10.59c-.13,2.15,3.48,2.15,3.62,0L155,139c.13-2.15-3.48-2.15-3.62,0Z"/><path class="cls-9" d="M125.17,157.48c-.18.73-.35,1.46-.53,2.19a1.69,1.69,0,0,0,1.26,2.06,1.86,1.86,0,0,0,2.22-1.17c.18-.73.36-1.46.53-2.19a1.69,1.69,0,0,0-1.26-2.06,1.84,1.84,0,0,0-2.22,1.17Z"/><path class="cls-9" d="M145,144h.72a1.68,1.68,0,1,0,0-3.35H145a1.68,1.68,0,1,0,0,3.36Z"/><path class="cls-9" d="M137.53,116.51l-2.71,1.68a1.63,1.63,0,0,0-.65,2.29,1.91,1.91,0,0,0,2.47.61l2.71-1.68a1.65,1.65,0,0,0,.65-2.3,1.91,1.91,0,0,0-2.47-.6Z"/><path class="cls-9" d="M120.56,146.09,119,150.44c-.71,2.06,2.78,2.94,3.49.89L124,147c.72-2.06-2.77-2.94-3.48-.89Z"/><path class="cls-9" d="M130.72,114l-4.67,2.56c-2,1.09-.19,4,1.82,2.9l4.68-2.56c2-1.1.18-4-1.83-2.9Z"/><path class="cls-9" d="M103.91,135.13l-8.55,5.64c-1.88,1.25-.07,4.16,1.83,2.9l8.54-5.64c1.88-1.24.08-4.16-1.82-2.9Z"/><path class="cls-9" d="M96.51,149.84l-3.66,3.65c-1.58,1.58,1,4,2.55,2.38l3.67-3.66c1.58-1.58-1-4-2.56-2.37Z"/><path class="cls-9" d="M137.14,127a11.73,11.73,0,0,0-5.83,6.27c-.81,2,2.68,2.91,3.48.9a8.23,8.23,0,0,1,4.17-4.27c2.07-1,.24-3.9-1.82-2.9Z"/><path class="cls-9" d="M189.23,109.8l.21.09s.35.22.11,0,0,0,0,0l.08.08c.09.1.06.06-.1-.12a.8.8,0,0,0,.13.19c.16.23-.06-.1,0-.1s.07.24.08.26c.08.18,0-.42,0-.06a1.81,1.81,0,0,0,3.61,0,3.83,3.83,0,0,0-2.3-3.34,1.93,1.93,0,0,0-2.47.6,1.63,1.63,0,0,0,.65,2.3Z"/><path class="cls-9" d="M178.29,126.1a1.68,1.68,0,1,0,0-3.36,1.68,1.68,0,1,0,0,3.36Z"/><path class="cls-9" d="M192.77,96.07v1a1.82,1.82,0,0,0,3.62,0v-1a1.82,1.82,0,0,0-3.62,0Z"/><path class="cls-9" d="M159.52,160.66a1.68,1.68,0,1,0,0-3.36,1.68,1.68,0,1,0,0,3.36Z"/><path class="cls-9" d="M118,159.66l-.49,1.23a1.68,1.68,0,0,0,1.27,2.06,1.87,1.87,0,0,0,2.22-1.17l.48-1.23a1.68,1.68,0,0,0-1.26-2.07,1.87,1.87,0,0,0-2.22,1.18Z"/><path class="cls-9" d="M258.67,159.05l.37.78a1.76,1.76,0,0,0,1.08.77,2,2,0,0,0,1.39-.17,1.74,1.74,0,0,0,.83-1,1.87,1.87,0,0,0-.18-1.29c-.12-.27-.24-.53-.37-.79a1.76,1.76,0,0,0-1.08-.77,2,2,0,0,0-1.39.17,1.74,1.74,0,0,0-.83,1,1.9,1.9,0,0,0,.18,1.3Z"/><path class="cls-9" d="M261.11,138.25a5.79,5.79,0,0,1,2.6,1.78,1.93,1.93,0,0,0,2.47.6,1.61,1.61,0,0,0,.65-2.29,10.18,10.18,0,0,0-4.76-3.33,1.84,1.84,0,0,0-2.22,1.17,1.7,1.7,0,0,0,1.26,2.07Z"/><path class="cls-9" d="M242.89,143a1.68,1.68,0,1,0,0-3.36,1.68,1.68,0,1,0,0,3.36Z"/><path class="cls-9" d="M234.7,150.92a1.68,1.68,0,1,0,0-3.35,1.68,1.68,0,1,0,0,3.35Z"/><path class="cls-9" d="M215.66,150.36a1.68,1.68,0,1,0,0-3.35,1.68,1.68,0,1,0,0,3.35Z"/><path class="cls-9" d="M193.13,155a1.68,1.68,0,1,0,0-3.36,1.68,1.68,0,1,0,0,3.36Z"/><path class="cls-9" d="M171.42,88.74a1.68,1.68,0,1,0,0-3.36,1.68,1.68,0,1,0,0,3.36Z"/><path class="cls-10" d="M151.25,105.24l-5.32,3.8a1.67,1.67,0,0,0-.65,2.29,1.91,1.91,0,0,0,2.48.61l5.31-3.8a1.65,1.65,0,0,0,.65-2.29,1.9,1.9,0,0,0-2.47-.61Z"/><path class="cls-10" d="M163.19,90.06l-2.26,1.6a1.93,1.93,0,0,0-.83,1,1.65,1.65,0,0,0,.18,1.3,1.91,1.91,0,0,0,2.48.6L165,93a1.81,1.81,0,0,0,.83-1,1.58,1.58,0,0,0-.18-1.29,1.91,1.91,0,0,0-2.47-.61Z"/><path class="cls-10" d="M188,90.25l2.11,2.5a1.91,1.91,0,0,0,2.55,0,1.64,1.64,0,0,0,0-2.38l-2.11-2.49a1.89,1.89,0,0,0-2.55,0,1.63,1.63,0,0,0,0,2.37Z"/><path class="cls-10" d="M199.25,105.2a38.53,38.53,0,0,1,6.18,8.41c1,1.93,4.17.23,3.12-1.69a41.56,41.56,0,0,0-6.75-9.1c-1.56-1.6-4.11.78-2.55,2.38Z"/><path class="cls-10" d="M218.65,114.12l5.48,4.14a2,2,0,0,0,2.56,0,1.6,1.6,0,0,0,0-2.37l-5.48-4.15a2,2,0,0,0-2.56,0,1.62,1.62,0,0,0,0,2.38Z"/><path class="cls-10" d="M178.78,85.93l1.45.29a1.85,1.85,0,0,0,2.22-1.17A1.7,1.7,0,0,0,181.19,83l-1.45-.29a1.88,1.88,0,0,0-2.23,1.18,1.7,1.7,0,0,0,1.27,2.06Z"/><path class="cls-10" d="M186.3,122.58c.72,2.86,1.45,5.71,2.17,8.56.54,2.11,4,1.22,3.49-.89-.73-2.85-1.45-5.71-2.18-8.56-.53-2.1-4-1.21-3.48.89Z"/><path class="cls-10" d="M218.82,131A79.34,79.34,0,0,1,235.49,141c1.77,1.38,4.34-1,2.56-2.38a82.85,82.85,0,0,0-17.41-10.43c-2.09-.92-3.92,2-1.82,2.9Z"/><path class="cls-10" d="M244.41,132.43a21.34,21.34,0,0,1,8.74,4.2c1.75,1.41,4.31-.95,2.56-2.37a25.51,25.51,0,0,0-10.33-5.07c-2.26-.53-3.22,2.7-1,3.24Z"/><path class="cls-10" d="M272.28,148.54l8.52,4.82c2,1.13,3.81-1.77,1.82-2.9l-8.52-4.82c-2-1.13-3.81,1.77-1.82,2.9Z"/><path class="cls-10" d="M202.58,132.24l.9.67a2,2,0,0,0,1.28.5,1.94,1.94,0,0,0,1.28-.5,1.62,1.62,0,0,0,0-2.37l-.91-.67a2,2,0,0,0-1.27-.49,1.89,1.89,0,0,0-1.28.49,1.61,1.61,0,0,0,0,2.37Z"/><path class="cls-10" d="M231.73,157.38a18.91,18.91,0,0,0,13.32,5,1.68,1.68,0,1,0,0-3.35,15.1,15.1,0,0,1-10.77-4c-1.65-1.53-4.2.85-2.55,2.38Z"/><path class="cls-10" d="M258.54,145.57l6.5,4.71a2,2,0,0,0,2.55,0,1.59,1.59,0,0,0,0-2.37l-6.49-4.72a2,2,0,0,0-2.56,0,1.62,1.62,0,0,0,0,2.38Z"/><path class="cls-10" d="M273.06,158.76a1.68,1.68,0,1,0,0-3.36,1.68,1.68,0,1,0,0,3.36Z"/><path class="cls-10" d="M198.09,153.75q2,4,4,8.11c1,2,4.09.26,3.12-1.7q-2-4-4-8.11c-1-2-4.09-.25-3.12,1.7Z"/><path class="cls-10" d="M166,129.38l-.54,9.57c-.12,2.16,3.49,2.15,3.61,0l.54-9.57c.12-2.16-3.49-2.15-3.61,0Z"/><path class="cls-10" d="M165.22,152l.18,8.4c0,2.16,3.66,2.16,3.61,0l-.18-8.4c0-2.16-3.66-2.16-3.61,0Z"/><path class="cls-10" d="M164.43,114c-.43,1-.86,1.9-1.28,2.85s.4,1.84,1.26,2.06a1.87,1.87,0,0,0,2.22-1.17c.43-1,.86-1.9,1.28-2.85s-.4-1.85-1.26-2.07a1.88,1.88,0,0,0-2.22,1.18Z"/><path class="cls-10" d="M148.45,158.43l-.27,4a1.75,1.75,0,0,0,1.8,1.68,1.78,1.78,0,0,0,1.81-1.68l.27-4a1.76,1.76,0,0,0-1.8-1.68,1.78,1.78,0,0,0-1.81,1.68Z"/><path class="cls-10" d="M147.15,120.53c-.87,1.78-1.73,3.56-2.6,5.35a1.66,1.66,0,0,0,.65,2.29,1.9,1.9,0,0,0,2.47-.6q1.31-2.67,2.6-5.34a1.66,1.66,0,0,0-.65-2.3,1.9,1.9,0,0,0-2.47.6Z"/><path class="cls-10" d="M134,141.45q-2.86,5.06-5.72,10.11c-1.08,1.91,2,3.61,3.12,1.69q2.87-5.06,5.72-10.1c1.08-1.91-2-3.61-3.12-1.7Z"/><path class="cls-10" d="M135.73,156.74v3.87c0,2.16,3.61,2.16,3.61,0v-3.87c0-2.16-3.61-2.16-3.61,0Z"/><path class="cls-10" d="M120.19,134.58c-1.8,1.85-3.61,3.69-5.42,5.54-1.56,1.6,1,4,2.55,2.37l5.43-5.53c1.56-1.6-1-4-2.56-2.38Z"/><path class="cls-10" d="M106.89,151.53l-4.33,6.89c-1.18,1.87,1.94,3.56,3.12,1.7l4.33-6.89c1.18-1.87-1.94-3.56-3.12-1.7Z"/><path class="cls-10" d="M115.73,123.7a6.21,6.21,0,0,0-4,4.06,1.7,1.7,0,0,0,1.26,2.06,1.86,1.86,0,0,0,2.23-1.17,2.64,2.64,0,0,1,.12-.4c.06-.15-.09.12.07-.13l.22-.35s.27-.31.09-.12l.25-.24s.34-.28.22-.19.22-.14.25-.16.5-.23.21-.12a1.72,1.72,0,0,0,1.26-2.06,1.85,1.85,0,0,0-2.22-1.18Z"/><path class="cls-10" d="M89.51,145.46a68.55,68.55,0,0,0-10.91,8.41c-1.63,1.54.92,3.92,2.55,2.37a64.26,64.26,0,0,1,10.19-7.88,1.71,1.71,0,0,0-1.83-2.9Z"/><path class="cls-10" d="M246.41,124.83h.25c-.27,0-.31,0-.11,0l.24.07c-.23-.1-.26-.11-.08,0l.21.11-.06,0,.18.16q-.22-.28-.06-.06a1.93,1.93,0,0,0,2.48.6,1.64,1.64,0,0,0,.64-2.3,4.53,4.53,0,0,0-3.69-1.87,1.68,1.68,0,1,0,0,3.36Z"/><path class="cls-10" d="M172.22,103.25l-.81,1.84a1.61,1.61,0,0,0,.18,1.3,1.82,1.82,0,0,0,1.08.77A1.9,1.9,0,0,0,174.9,106l.81-1.85a1.62,1.62,0,0,0-.19-1.3,1.86,1.86,0,0,0-1.08-.77,1.88,1.88,0,0,0-2.22,1.18Z"/><path class="cls-10" d="M139.16,107.36l-1,.5a1.64,1.64,0,0,0-.65,2.3,1.94,1.94,0,0,0,2.48.6l1-.5a1.63,1.63,0,0,0,.65-2.3,1.93,1.93,0,0,0-2.47-.6Z"/><path class="cls-10" d="M126.77,123.4l-.54.59a1.64,1.64,0,0,0,0,2.38,2,2,0,0,0,2.56,0l.54-.59a1.64,1.64,0,0,0,0-2.38,2,2,0,0,0-2.56,0Z"/><path class="cls-10" d="M201.46,91.38l1,.22a1.87,1.87,0,0,0,2.23-1.18,1.69,1.69,0,0,0-1.26-2.06l-1-.22a1.85,1.85,0,0,0-2.22,1.17,1.7,1.7,0,0,0,1.26,2.07Z"/><polygon class="cls-11" points="298.54 199.86 63.55 199.86 31.7 156.54 330.39 156.54 298.54 199.86"/><polygon class="cls-12" points="57.8 119.67 61.88 119.67 37.5 156.51 31.7 156.54 57.8 119.67"/><polygon class="cls-12" points="304.33 119.67 300.25 119.67 324.63 156.51 330.43 156.54 304.33 119.67"/><path class="cls-13" d="M37.54,156.62l1.68-2.52H323l1.64,2.45S37.3,156.4,37.54,156.62Z"/><path class="cls-14" d="M329.19,156.64h.5l-26.1-36.87H253.73c-23.37-15-47.84-30.28-47.84-30.28a40.82,40.82,0,0,0-47.81,0s-24.67,14.64-49,30.28H57.06L31,156.64h0L62.81,200h235l31.84-43.32Z"/></svg>