<svg id="Layer_1" data-name="Layer 1" xmlns="http://www.w3.org/2000/svg" xmlns:xlink="http://www.w3.org/1999/xlink" viewBox="0 0 188.74 245.47"><defs><style>.cls-1,.cls-4{fill:none;}.cls-2{fill:#050505;opacity:0.2;}.cls-3,.cls-5{fill:#ffd15f;}.cls-4,.cls-5{stroke:#d67d13;}.cls-4,.cls-5,.cls-6,.cls-7,.cls-8{stroke-miterlimit:10;}.cls-6{fill:#c34804;stroke:#7c320d;}.cls-7{fill:#ffe783;}.cls-7,.cls-8{stroke:#7c4c00;}.cls-8{fill:#ffef9f;}.cls-9{fill:#fff;}.cls-10{fill:#7f4c30;}.cls-11{fill:#30200f;}.cls-12{fill:#e57d28;}.cls-13{fill:#84083a;}.cls-14{fill:#563211;}.cls-15{clip-path:url(#clip-path);}</style><clipPath id="clip-path"><rect class="cls-1" x="-2397.91" y="-266.71" width="1600" height="900"/></clipPath></defs><ellipse class="cls-2" cx="88.92" cy="213.08" rx="44.88" ry="8.85"/><path class="cls-3" d="M119.08,119.62s2.08-11.24,12.12-2.6,26.17,17.13,53.66,8.93c0,0-.93,5.44-10.66,9,0,0,8,0-6.41,7.91,0,0,5.79,1.34-9.5,8.66,0,0,3.31,4.4-14,5.32s-28.81-23-28.81-23l2.85-14"/><path class="cls-4" d="M119.08,119.62s2.08-11.24,12.12-2.6,26.17,17.13,53.66,8.93c0,0-.93,5.44-10.66,9,0,0,8,0-6.41,7.91,0,0,5.79,1.34-9.5,8.66,0,0,3.31,4.4-14,5.32s-28.81-23-28.81-23l2.85-14"/><path class="cls-3" d="M176,133.7s-20.54,9.24-45.21-7.6"/><path class="cls-4" d="M176,133.7s-20.54,9.24-45.21-7.6"/><path class="cls-3" d="M169.54,142.18a46.87,46.87,0,0,1-41.32-9"/><path class="cls-4" d="M169.54,142.18a46.87,46.87,0,0,1-41.32-9"/><path class="cls-3" d="M159.67,150.62S136.87,154,126,140.39"/><path class="cls-4" d="M159.67,150.62S136.87,154,126,140.39"/><path class="cls-5" d="M70,120.87s-.56-11.42-11.67-4.2S30.14,130.13,4,118.31c0,0,.2,5.52,9.36,10.31,0,0-7.89-1.1,5.3,8.7,0,0-5.92.55,8.25,9.86,0,0-3.87,3.91,13.18,7.15S71.72,135.4,71.72,135.4l-.93-14.29"/><path class="cls-5" d="M11.75,127.18s19.12,11.92,45.82-1.46"/><path class="cls-5" d="M17,136.45A46.9,46.9,0,0,0,59.17,133"/><path class="cls-5" d="M25.65,146.14s22.14,6.43,34.72-5.62"/><path class="cls-6" d="M103.81,179.87,102.09,186a1,1,0,0,0,0,.63c.09.19.4.28.52.11a93,93,0,0,0,.18,16.35,8.57,8.57,0,0,0,.64,2.84c.86,1.78,2.78,2.74,4.51,3.7a41.3,41.3,0,0,1,3.74,2.36c.52.37,1.08.86,1,1.48a2.49,2.49,0,0,1-2.32-.33q-2.19-1.14-4.27-2.49a3.62,3.62,0,0,0-2.49-.84,3,3,0,0,0-1.91,1.89,8,8,0,0,1-1.3,2.47.71.71,0,0,1-.57.27.8.8,0,0,1-.7-.94c.31-1,.09-2.11.4-3.13-1.28.47-1.63.8-2.91,1.27-1.51.55-3.21,1.11-4.7.48a.69.69,0,0,1-.4-.31c-.13-.29.1-.61.32-.83a13.63,13.63,0,0,1,3.4-2.5c1.26-.65,2.73-1.2,3.4-2.45a5.26,5.26,0,0,0,.42-1.23,34.06,34.06,0,0,0-.36-17.56"/><path class="cls-6" d="M78.72,179.77l.7,6.27a1.17,1.17,0,0,1,0,.62c-.1.18-.37.24-.45.05a109.8,109.8,0,0,1-2.2,16.19,9.69,9.69,0,0,1-.9,2.74c-.95,1.65-2.7,2.37-4.29,3.11a34.32,34.32,0,0,0-3.48,1.87A1.78,1.78,0,0,0,67,212c.55.49,1.35.24,2-.05A43.46,43.46,0,0,0,73,210a2.8,2.8,0,0,1,2.22-.53,2.85,2.85,0,0,1,1.39,2.12,8.92,8.92,0,0,0,.8,2.61c.11.17.26.34.45.34a.77.77,0,0,0,.71-.84c-.13-1.05.19-2.11,0-3.16,1,.62,1.29,1,2.32,1.62,1.22.74,2.59,1.5,3.93,1.07a.62.62,0,0,0,.38-.27.87.87,0,0,0-.17-.86,12.38,12.38,0,0,0-2.57-2.9c-1-.8-2.17-1.53-2.59-2.85a6,6,0,0,1-.21-1.27,39.56,39.56,0,0,1,2.5-17.37"/><path class="cls-7" d="M58.28,88.49,60.75,87a7.76,7.76,0,0,0-1.27,6.07l2-2.52,0,3.42C63,104.7,74,108.68,75.35,109.14h0l.09,0A21.64,21.64,0,0,1,68,120.25c-5.79,4.26-9.78,11.48-9.78,11.48l1.82-.15c-2.94,4.16-3.71,11.31-3.71,11.31-2.71,17.75,7.28,30,11.92,32.88A18.65,18.65,0,0,1,76,185.5c1,2.72,5.84,4.94,7,1.89s2.79-3.33,2.79-3.33l9.83.58s-.73,5.06,4.61,4.85,4.44-6.9,9.65-9.49,17-13.27,19.82-25.32c2.73-11.76-.28-18.56-.43-18.9l2,1.64c-.76-7-8.76-14.91-11.88-19.3a24,24,0,0,1-3.67-10.3,5.54,5.54,0,0,0,1.07-.45,26.07,26.07,0,0,0,6.94-5.84c5.12-5.63,4.8-13.44,4.8-13.44l2,2.71c1.56-5-1.87-7.54-1.87-7.54l2.41.83c-.14-4.94-3.94-6.14-3.94-6.14l3.38.42c-.6-3.74-4.86-5.27-4.86-5.27a37.9,37.9,0,0,0-9.25-17.69c-5.46-6.17-17.95-9.47-17.95-9.47l3-3.12-4.78,1.86a5.82,5.82,0,0,0,.73-6.5s-1.58,6.54-5.82,7.57-6.85,1.64-6.85,1.64c-22.79,7.38-23.93,30-23.93,30a25.85,25.85,0,0,0-2.15,6.49,5.76,5.76,0,0,1,2.47-1.35C58.49,86.69,58.28,88.49,58.28,88.49Z"/><path class="cls-8" d="M58.28,88.49,60.75,87a7.76,7.76,0,0,0-1.27,6.07l2-2.52,0,3.42C63,104.7,74,108.68,75.35,109.14h0c18.46,3.1,31.91,1.38,41.38-1.78a26.07,26.07,0,0,0,6.94-5.84c5.12-5.63,4.8-13.44,4.8-13.44l2,2.71c1.56-5-1.87-7.54-1.87-7.54l2.41.83c-.14-4.94-3.94-6.14-3.94-6.14l3.38.42c-.6-3.74-4.86-5.27-4.86-5.27a37.9,37.9,0,0,0-9.25-17.69c-5.46-6.17-17.95-9.47-17.95-9.47l3-3.12-4.78,1.86a5.82,5.82,0,0,0,.73-6.5s-1.58,6.54-5.82,7.57-6.85,1.64-6.85,1.64c-22.79,7.38-23.93,30-23.93,30a25.85,25.85,0,0,0-2.15,6.49,5.76,5.76,0,0,1,2.47-1.35C58.49,86.69,58.28,88.49,58.28,88.49Z"/><ellipse class="cls-9" cx="85.3" cy="76.05" rx="6.88" ry="8.17"/><path class="cls-10" d="M92.18,76.05c.16,6.81-7.29,11.68-12.28,5.78a9.47,9.47,0,0,1,0-11.57c5-5.9,12.45-1,12.28,5.79Zm0,0c.09-3.83-2.8-8.07-6.88-7.92-8.44.59-8.44,15.24,0,15.84,4.08.14,7-4.09,6.88-7.92Z"/><ellipse class="cls-9" cx="104.47" cy="75.86" rx="6.88" ry="8.17"/><path class="cls-10" d="M97.59,75.86c-.08,3.83,2.8,8.06,6.88,7.92,8.44-.59,8.44-15.24,0-15.84-4.08-.14-7,4.09-6.88,7.92Zm0,0c-.16-6.81,7.3-11.69,12.29-5.79a9.48,9.48,0,0,1,0,11.57c-5,5.9-12.44,1-12.28-5.78Z"/><ellipse class="cls-11" cx="104.47" cy="78.62" rx="4.64" ry="4.02" transform="translate(19.01 177.57) rotate(-86.14)"/><ellipse class="cls-9" cx="102.54" cy="76.05" rx="1.86" ry="1.61" transform="translate(19.77 173.24) rotate(-86.14)"/><ellipse class="cls-11" cx="85.74" cy="78.65" rx="4.64" ry="4.02" transform="matrix(0.07, -1, 1, 0.07, 1.5, 158.9)"/><ellipse class="cls-9" cx="83.69" cy="76.05" rx="1.86" ry="1.61" transform="translate(2.19 154.43) rotate(-86.14)"/><path class="cls-12" d="M109.34,89.23a37.23,37.23,0,0,1-10.18-5.29C94.44,80.34,91,83,87,86.31s-7,3.24-7,3.24,5.83,4.21,7.51,6.89,7.14,8.36,15,.21S109.34,89.23,109.34,89.23Z"/><path class="cls-13" d="M109.32,88.82c-6.39,8-17.19,7.86-25.56,3.19a24,24,0,0,1-3.27-2.2l.06-.09c6.54,3.82,14.92,6.23,22.22,3.22a20.47,20.47,0,0,0,6.47-4.19l.08.07Z"/><path class="cls-14" d="M102.54,60s-.41,1.75.43,2c0,0,4.85-.41,7.77,2.34C110.74,64.32,110,59.56,102.54,60Z"/><path class="cls-14" d="M87.74,60s.41,1.75-.43,2c0,0-4.85-.41-7.77,2.34C79.54,64.32,80.31,59.56,87.74,60Z"/></svg>