<svg id="Layer_1" data-name="Layer 1" xmlns="http://www.w3.org/2000/svg" xmlns:xlink="http://www.w3.org/1999/xlink" viewBox="0 0 253.21 281.65"><defs><style>.cls-1,.cls-4{fill:none;}.cls-2{fill:#050505;opacity:0.2;}.cls-3,.cls-5{fill:#ffd15f;}.cls-4,.cls-5{stroke:#d67d13;}.cls-4,.cls-5,.cls-6,.cls-7,.cls-8{stroke-miterlimit:10;}.cls-6{fill:#c34804;stroke:#7c320d;}.cls-7{fill:#ffe783;}.cls-7,.cls-8{stroke:#7c4c00;}.cls-8{fill:#ffef9f;}.cls-9{fill:#fff;}.cls-10{fill:#7f4c30;}.cls-11{fill:#30200f;}.cls-12{fill:#e57d28;}.cls-13{fill:#84083a;}.cls-14{fill:#563211;}.cls-15{clip-path:url(#clip-path);}</style><clipPath id="clip-path"><rect class="cls-1" x="-2601.2" y="-230.53" width="1600" height="900"/></clipPath></defs><ellipse class="cls-2" cx="124" cy="254.12" rx="44.88" ry="8.85"/><path class="cls-3" d="M156.37,130.41s2.74-14.77,15.93-3.41,34.37,22.5,70.49,11.73c0,0-1.23,7.15-14,11.77,0,0,10.47,0-8.43,10.39,0,0,7.61,1.76-12.48,11.38,0,0,4.35,5.77-18.41,7S151.63,149,151.63,149l3.73-18.44"/><path class="cls-4" d="M156.37,130.41s2.74-14.77,15.93-3.41,34.37,22.5,70.49,11.73c0,0-1.23,7.15-14,11.77,0,0,10.47,0-8.43,10.39,0,0,7.61,1.76-12.48,11.38,0,0,4.35,5.77-18.41,7S151.63,149,151.63,149l3.73-18.44"/><path class="cls-3" d="M231.14,148.91s-27,12.14-59.39-10"/><path class="cls-4" d="M231.14,148.91s-27,12.14-59.39-10"/><path class="cls-3" d="M222.66,160.05s-27.78,9.1-54.28-11.88"/><path class="cls-4" d="M222.66,160.05s-27.78,9.1-54.28-11.88"/><path class="cls-3" d="M209.7,171.14s-30,4.46-44.2-13.44"/><path class="cls-4" d="M209.7,171.14s-30,4.46-44.2-13.44"/><path class="cls-5" d="M92,132.05s-.73-15-15.33-5.52S39.55,144.22,5.21,128.7c0,0,.26,7.24,12.29,13.54,0,0-10.37-1.45,7,11.43,0,0-7.78.72,10.84,12.94,0,0-5.08,5.14,17.31,9.39s41.55-24.86,41.55-24.86l-1.22-18.77"/><path class="cls-5" d="M15.39,140.35S40.5,156,75.58,138.42"/><path class="cls-5" d="M22.29,152.53S48.6,165.27,77.67,148"/><path class="cls-5" d="M33.65,165.26s29.08,8.44,45.6-7.4"/><path class="cls-6" d="M136.32,209.56l-2.26,8a1.22,1.22,0,0,0,0,.82c.12.25.52.37.68.15a122.31,122.31,0,0,0,.24,21.48,11,11,0,0,0,.84,3.72c1.13,2.34,3.65,3.6,5.92,4.87a55.71,55.71,0,0,1,4.92,3.1c.67.48,1.41,1.13,1.3,2-.92.53-2.09,0-3-.44q-2.88-1.52-5.61-3.27a4.73,4.73,0,0,0-3.27-1.11,3.91,3.91,0,0,0-2.51,2.49,10.67,10.67,0,0,1-1.7,3.24.94.94,0,0,1-.76.35,1,1,0,0,1-.91-1.23c.4-1.33.12-2.78.52-4.12-1.67.62-2.14,1.06-3.82,1.67-2,.73-4.21,1.46-6.17.64a1,1,0,0,1-.53-.41c-.18-.38.13-.8.42-1.1a18,18,0,0,1,4.47-3.27c1.66-.86,3.58-1.58,4.46-3.22a6.9,6.9,0,0,0,.56-1.62,44.75,44.75,0,0,0-.48-23.06"/><path class="cls-6" d="M103.36,210.49l.92,8.25a1.38,1.38,0,0,1-.07.81c-.13.24-.49.31-.59.07a143.31,143.31,0,0,1-2.89,21.27,12.42,12.42,0,0,1-1.18,3.59c-1.25,2.18-3.55,3.11-5.64,4.09A45.91,45.91,0,0,0,89.34,251,2.3,2.3,0,0,0,88,252.79c.72.65,1.77.32,2.64,0,1.76-.76,3.48-1.61,5.18-2.54.92-.51,2-1.06,2.92-.7s1.54,1.61,1.82,2.78a11.53,11.53,0,0,0,1,3.43c.14.23.34.46.59.45a1,1,0,0,0,.94-1.11c-.18-1.38.24-2.77.06-4.15,1.35.82,1.7,1.32,3,2.13,1.6,1,3.4,2,5.17,1.41a.89.89,0,0,0,.5-.35,1.18,1.18,0,0,0-.22-1.14,16.28,16.28,0,0,0-3.39-3.8c-1.3-1.06-2.85-2-3.39-3.75a7.11,7.11,0,0,1-.27-1.67,51.53,51.53,0,0,1,3.28-22.81"/><path class="cls-7" d="M76.51,89.52l3.24-1.9a10.19,10.19,0,0,0-1.66,8l2.59-3.32-.05,4.49c2.09,14,16.5,19.28,18.3,19.88h0l.13,0s-2.23,9-9.84,14.55-12.85,15.08-12.85,15.08l2.38-.21C75,151.59,73.93,161,73.93,161c-3.56,23.31,9.56,39.4,15.66,43.18A24.64,24.64,0,0,1,99.82,217c1.25,3.57,7.67,6.49,9.18,2.48s3.66-4.37,3.66-4.37l12.91.76s-1,6.66,6.05,6.38,5.84-9.07,12.68-12.48,22.36-17.43,26-33.25c3.58-15.45-.36-24.39-.56-24.82l2.58,2.15c-1-9.17-11.5-19.59-15.61-25.36s-4.82-13.53-4.82-13.53a6.83,6.83,0,0,0,1.41-.58c1.67-.87,4.79-2.91,9.12-7.68,6.73-7.4,6.3-17.65,6.3-17.65l2.63,3.55c2.05-6.6-2.45-9.89-2.45-9.89l3.16,1.08c-.19-6.49-5.18-8.07-5.18-8.07l4.44.55c-.78-4.91-6.38-6.91-6.38-6.91-1.29-6.82-5-15.16-12.15-23.25s-23.58-12.43-23.58-12.43l3.89-4.1L126.86,32c3.44-4.63,1-8.54,1-8.54s-2.08,8.59-7.65,10-9,2.15-9,2.15C81.24,45.22,79.74,74.9,79.74,74.9a33.71,33.71,0,0,0-2.82,8.53,7.55,7.55,0,0,1,3.24-1.77C76.79,87.16,76.51,89.52,76.51,89.52Z"/><path class="cls-8" d="M76.51,89.52l3.24-1.9a10.19,10.19,0,0,0-1.66,8l2.59-3.32-.05,4.49c2.09,14,16.5,19.28,18.3,19.88h0c24.26,4.07,41.92,1.81,54.36-2.33,1.67-.87,4.79-2.91,9.12-7.68,6.73-7.4,6.3-17.65,6.3-17.65l2.63,3.55c2.05-6.6-2.45-9.89-2.45-9.89l3.16,1.08c-.19-6.49-5.18-8.07-5.18-8.07l4.44.55c-.78-4.91-6.38-6.91-6.38-6.91-1.29-6.82-5-15.16-12.15-23.25s-23.58-12.43-23.58-12.43l3.89-4.1L126.86,32c3.44-4.63,1-8.54,1-8.54s-2.08,8.59-7.65,10-9,2.15-9,2.15C81.24,45.22,79.74,74.9,79.74,74.9a33.71,33.71,0,0,0-2.82,8.53,7.55,7.55,0,0,1,3.24-1.77C76.79,87.16,76.51,89.52,76.51,89.52Z"/><ellipse class="cls-9" cx="110.21" cy="70.34" rx="9.68" ry="11.49"/><path class="cls-10" d="M119.89,70.34c.24,9.53-10.22,16.31-17.14,8a13.28,13.28,0,0,1,0-16c6.92-8.29,17.38-1.51,17.14,8Zm0,0c.08-5.4-3.88-11.4-9.68-11.25s-9.3,6-9.18,11.25c-.13,5.24,3.52,11.09,9.18,11.24s9.76-5.84,9.68-11.24Z"/><ellipse class="cls-9" cx="137.19" cy="70.07" rx="9.68" ry="11.49"/><path class="cls-10" d="M127.51,70.07c-.08,5.4,3.88,11.4,9.68,11.25,5.65-.16,9.31-6,9.18-11.25.12-5.24-3.53-11.09-9.18-11.24-5.8-.15-9.76,5.84-9.68,11.24Zm0,0c-.24-9.53,10.22-16.32,17.14-8a13.31,13.31,0,0,1,0,16.06c-6.93,8.28-17.38,1.51-17.14-8Z"/><ellipse class="cls-11" cx="137.19" cy="73.96" rx="6.53" ry="5.66" transform="translate(54.17 205.86) rotate(-86.14)"/><ellipse class="cls-9" cx="134.46" cy="70.34" rx="2.61" ry="2.26" transform="translate(55.24 199.76) rotate(-86.14)"/><ellipse class="cls-11" cx="109.68" cy="73.92" rx="6.53" ry="5.66" transform="translate(28.55 178.38) rotate(-86.14)"/><ellipse class="cls-9" cx="106.8" cy="70.26" rx="2.61" ry="2.26" transform="translate(29.51 172.09) rotate(-86.14)"/><path class="cls-12" d="M144,88.88a52.09,52.09,0,0,1-14.32-7.44c-6.64-5.06-11.51-1.28-17.05,3.34s-9.91,4.56-9.91,4.56S111,95.25,113.32,99s10.05,11.76,21.16.3S144,88.88,144,88.88Z"/><path class="cls-13" d="M144,88.29c-9.45,10.86-23.85,10.62-35.86,4.33a35.37,35.37,0,0,1-4.68-2.94l.06-.08c7,4.17,15.18,6.78,23.37,6.42,6.41-.36,12.5-3.67,17.11-7.73Z"/><path class="cls-14" d="M134.46,47.72s-.57,2.48.61,2.83c0,0,6.82-.59,10.94,3.29C146,53.84,144.92,47.14,134.46,47.72Z"/><path class="cls-14" d="M113.65,47.72s.57,2.48-.61,2.83c0,0-6.82-.59-10.94,3.29C102.1,53.84,103.19,47.14,113.65,47.72Z"/></svg>