<svg id="Layer_1" data-name="Layer 1" xmlns="http://www.w3.org/2000/svg" xmlns:xlink="http://www.w3.org/1999/xlink" viewBox="0 0 187.33 245.47"><defs><style>.cls-1,.cls-3{fill:none;}.cls-2,.cls-4{fill:#ffd15f;}.cls-3,.cls-4{stroke:#d67d13;}.cls-3,.cls-4,.cls-5,.cls-6,.cls-7{stroke-miterlimit:10;}.cls-5{fill:#c34804;stroke:#7c320d;}.cls-6{fill:#ffe783;}.cls-6,.cls-7{stroke:#7c4c00;}.cls-7{fill:#ffef9f;}.cls-8{fill:#fff;}.cls-9{fill:#7f4c30;}.cls-10{fill:#30200f;}.cls-11{fill:#e57d28;}.cls-12{fill:#84083a;}.cls-13{fill:#563211;}.cls-14{clip-path:url(#clip-path);}</style><clipPath id="clip-path"><rect class="cls-1" x="-2183.32" y="-266.71" width="1600" height="900"/></clipPath></defs><path class="cls-2" d="M109.75,136.54s1.26-10.78,11.33-3.23,25.88,14.56,51.41,5c0,0-.54,5.21-9.53,9.17,0,0,7.55-.54-5.57,7.91,0,0,5.57.9-8.45,8.81,0,0,3.41,4-12.94,5.93s-28.76-20-28.76-20L109,136.72"/><path class="cls-3" d="M109.75,136.54s1.26-10.78,11.33-3.23,25.88,14.56,51.41,5c0,0-.54,5.21-9.53,9.17,0,0,7.55-.54-5.57,7.91,0,0,5.57.9-8.45,8.81,0,0,3.41,4-12.94,5.93s-28.76-20-28.76-20L109,136.72"/><path class="cls-2" d="M164.58,146.25s-18.88,10.07-43.32-4.31"/><path class="cls-3" d="M164.58,146.25s-18.88,10.07-43.32-4.31"/><path class="cls-2" d="M159,154.7a44.51,44.51,0,0,1-39.72-5.93"/><path class="cls-3" d="M159,154.7a44.51,44.51,0,0,1-39.72-5.93"/><path class="cls-2" d="M150.2,163.33s-21.39,4.67-32.54-7.55"/><path class="cls-3" d="M150.2,163.33s-21.39,4.67-32.54-7.55"/><path class="cls-4" d="M63.38,140.86s-1.26-10.79-11.33-3.24-25.88,14.56-51.41,5c0,0,.54,5.21,9.53,9.16,0,0-7.55-.54,5.57,7.91,0,0-5.57.9,8.45,8.81,0,0-3.41,4,12.94,5.93s28.76-19.95,28.76-19.95L64.1,141"/><path class="cls-4" d="M8.55,150.56s18.88,10.07,43.32-4.31"/><path class="cls-4" d="M14.13,159a44.51,44.51,0,0,0,39.72-5.93"/><path class="cls-4" d="M22.93,167.64s21.39,4.67,32.54-7.55"/><path class="cls-5" d="M99.14,194.6l-1.24,5.9a.91.91,0,0,0,0,.59c.1.18.39.25.5.08a88.23,88.23,0,0,0,1.22,15.48,7.87,7.87,0,0,0,.78,2.65c.93,1.63,2.81,2.42,4.51,3.22a41.29,41.29,0,0,1,3.7,2c.51.31,1.07.74,1,1.34a2.37,2.37,0,0,1-2.21-.17c-1.43-.63-2.84-1.33-4.21-2.08a3.4,3.4,0,0,0-2.41-.65,2.82,2.82,0,0,0-1.69,1.92,7.64,7.64,0,0,1-1.07,2.42.67.67,0,0,1-.53.29.74.74,0,0,1-.72-.84c.23-1,0-2,.18-3-1.18.53-1.5.87-2.67,1.39-1.4.63-3,1.26-4.42.76a.67.67,0,0,1-.4-.27c-.15-.27,0-.58.25-.81a12.64,12.64,0,0,1,3.06-2.58c1.15-.7,2.5-1.31,3.06-2.54a4.75,4.75,0,0,0,.32-1.19,32.27,32.27,0,0,0-1.46-16.61"/><path class="cls-5" d="M75.19,193.52l1.06,5.9a1,1,0,0,1,0,.6c-.08.17-.34.24-.43.07a104,104,0,0,1-1,15.48,9.07,9.07,0,0,1-.68,2.65c-.8,1.63-2.41,2.42-3.87,3.22a33,33,0,0,0-3.17,2,1.67,1.67,0,0,0-.89,1.34c.55.43,1.29.14,1.9-.17,1.23-.63,2.43-1.33,3.61-2.08a2.64,2.64,0,0,1,2.07-.65c.74.22,1.19,1.09,1.45,1.92a8.38,8.38,0,0,0,.92,2.42c.12.16.28.31.46.29a.72.72,0,0,0,.61-.84c-.19-1,0-2-.15-3,1,.53,1.29.87,2.3,1.39,1.2.63,2.55,1.26,3.79.76a.59.59,0,0,0,.35-.27.87.87,0,0,0-.22-.81,11.48,11.48,0,0,0-2.63-2.58c-1-.7-2.15-1.31-2.63-2.54a5.73,5.73,0,0,1-.27-1.19A37.43,37.43,0,0,1,79,200.82"/><path class="cls-6" d="M50.16,110.93l2.25-1.53a7.38,7.38,0,0,0-.81,5.84l1.71-2.52.18,3.24c2.19,10,12.84,13.1,14.16,13.45h0l.09,0a20.62,20.62,0,0,1-6.38,11c-5.22,4.4-8.54,11.5-8.54,11.5l1.71-.27c-2.51,4.14-2.79,11-2.79,11-1.43,17,8.81,28,13.4,30.39a17.75,17.75,0,0,1,8,8.72c1.08,2.51,5.85,4.31,6.75,1.34s2.42-3.33,2.42-3.33l9.35-.08s-.37,4.85,4.68,4.31,3.76-6.83,8.53-9.62,15.28-13.66,17.16-25.25c1.84-11.31-1.44-17.57-1.6-17.87l2,1.42c-1.16-6.56-9.25-13.57-12.49-17.53a22.74,22.74,0,0,1-4.13-9.52,4.92,4.92,0,0,0,1-.49,24.82,24.82,0,0,0,6.2-6c4.49-5.66,3.69-13,3.69-13l2.06,2.44c1.17-4.86-2.25-7-2.25-7l2.34.63c-.45-4.67-4.13-5.57-4.13-5.57l3.23.18c-.81-3.5-4.94-4.67-4.94-4.67a36,36,0,0,0-9.89-16.18c-5.57-5.49-17.61-7.82-17.61-7.82l2.6-3.15L83.68,67a5.52,5.52,0,0,0,.28-6.2s-1.08,6.29-5,7.54-6.39,2-6.39,2c-21.11,8.44-20.76,29.93-20.76,29.93a24.87,24.87,0,0,0-1.62,6.28,5.6,5.6,0,0,1,2.25-1.44C50.25,109.22,50.16,110.93,50.16,110.93Z"/><path class="cls-7" d="M50.16,110.93l2.25-1.53a7.38,7.38,0,0,0-.81,5.84l1.71-2.52.18,3.24c2.19,10,12.84,13.1,14.16,13.45h0c17.7,1.75,30.33-.73,39.1-4.33a24.82,24.82,0,0,0,6.2-6c4.49-5.66,3.69-13,3.69-13l2.06,2.44c1.17-4.86-2.25-7-2.25-7l2.34.63c-.45-4.67-4.13-5.57-4.13-5.57l3.23.18c-.81-3.5-4.94-4.67-4.94-4.67a36,36,0,0,0-9.89-16.18c-5.57-5.49-17.61-7.82-17.61-7.82l2.6-3.15L83.68,67a5.52,5.52,0,0,0,.28-6.2s-1.08,6.29-5,7.54-6.39,2-6.39,2c-21.11,8.44-20.76,29.93-20.76,29.93a24.87,24.87,0,0,0-1.62,6.28,5.6,5.6,0,0,1,2.25-1.44C50.25,109.22,50.16,110.93,50.16,110.93Z"/><ellipse class="cls-8" cx="73.53" cy="96.93" rx="6.88" ry="8.17" transform="translate(-9.92 8.39) rotate(-6.12)"/><path class="cls-9" d="M80.37,96.19c.89,6.76-6,12.4-11.59,7.06-4.59-4.28-3-14,3.86-14.69,4.26-.31,7.38,3.73,7.73,7.63Zm0,0c-.32-3.81-3.64-7.72-7.68-7.13-8.33,1.49-6.77,16,1.69,15.74,4.07-.29,6.49-4.81,6-8.61Z"/><ellipse class="cls-8" cx="92.58" cy="94.7" rx="6.88" ry="8.17" transform="translate(-9.57 10.41) rotate(-6.12)"/><path class="cls-9" d="M85.74,95.43c.32,3.82,3.64,7.72,7.68,7.14,8.33-1.49,6.77-16.06-1.69-15.75-4.07.29-6.49,4.81-6,8.61Zm0,0c-.89-6.76,6-12.4,11.59-7.06,4.59,4.29,3,14-3.86,14.7-4.26.31-7.38-3.74-7.73-7.64Z"/><ellipse class="cls-10" cx="92.87" cy="97.44" rx="4.02" ry="4.64" transform="translate(-3.78 3.75) rotate(-2.26)"/><ellipse class="cls-8" cx="90.67" cy="95.09" rx="1.61" ry="1.86" transform="translate(-3.69 3.66) rotate(-2.26)"/><ellipse class="cls-10" cx="74.25" cy="99.47" rx="4.02" ry="4.64" transform="translate(-3.87 3.01) rotate(-2.26)"/><ellipse class="cls-8" cx="71.93" cy="97.1" rx="1.61" ry="1.86" transform="translate(-3.78 2.92) rotate(-2.26)"/><path class="cls-11" d="M98.84,107.47a37.21,37.21,0,0,1-10.69-4.17c-5.07-3.08-8.22,0-11.79,3.65s-6.65,4-6.65,4,6.24,3.56,8.19,6,8,7.55,15-1.39S98.84,107.47,98.84,107.47Z"/><path class="cls-12" d="M98.77,107.06c-5.5,8.61-16.25,9.65-25.06,5.9a23.69,23.69,0,0,1-3.49-1.84l0-.09c6.92,3.1,15.51,4.61,22.45.83a20.36,20.36,0,0,0,6-4.86l.08.06Z"/><path class="cls-13" d="M89,79.11s-.22,1.79.64,2c0,0,4.78-.93,8,1.5C97.58,82.56,96.3,77.9,89,79.11Z"/><path class="cls-13" d="M74.25,80.69s.59,1.7-.21,2c0,0-4.87.1-7.49,3.16C66.55,85.89,66.82,81.07,74.25,80.69Z"/></svg>