<svg xmlns="http://www.w3.org/2000/svg" xmlns:xlink="http://www.w3.org/1999/xlink" viewBox="0 0 516.29 533.42"><defs><style>.cls-1,.cls-18{fill:none;}.cls-2{isolation:isolate;}.cls-3{fill:#050505;opacity:0.2;}.cls-4{fill:#c34804;stroke:#7c320d;}.cls-17,.cls-18,.cls-4,.cls-5,.cls-6{stroke-miterlimit:10;}.cls-5{fill:#ffd713;stroke:#937b16;}.cls-6{fill:#ff7e2a;stroke:#af440e;}.cls-7{fill:#ff631e;}.cls-8{fill:#fb6010;}.cls-9{fill:#fde664;}.cls-10{fill:#febe42;}.cls-11{fill:#dc0604;}.cls-12{fill:#8c0606;}.cls-13{fill:#f9f2f2;}.cls-14{fill:#683c3c;}.cls-15{fill:#30252b;}.cls-16{fill:#fff;}.cls-17{fill:#d10409;stroke:#a30814;}.cls-18{stroke:#5b3f11;stroke-width:2px;}.cls-19{clip-path:url(#clip-path);}.cls-20{fill:url(#linear-gradient);}.cls-21{opacity:0.32;}.cls-22{fill:#300914;}.cls-23{fill:url(#linear-gradient-2);}.cls-24{mix-blend-mode:screen;opacity:0.5;}.cls-25{opacity:0.58;fill:url(#linear-gradient-3);}.cls-26{opacity:0.14;}.cls-27{opacity:0.18;}.cls-28{clip-path:url(#clip-path-2);}</style><clipPath id="clip-path"><rect class="cls-1" x="-1620" y="-993.88" width="1600" height="900"/></clipPath><linearGradient id="linear-gradient" x1="-661.02" y1="-572.18" x2="-71.68" y2="-572.18" gradientUnits="userSpaceOnUse"><stop offset="0" stop-color="#8a5f3c"/><stop offset="0.24" stop-color="#744d29"/><stop offset="0.66" stop-color="#52300b"/><stop offset="0.89" stop-color="#452500"/></linearGradient><linearGradient id="linear-gradient-2" x1="7896.08" y1="-778.4" x2="8485.42" y2="-778.4" gradientTransform="matrix(-0.73, 0, 0, 1, 6112.62, 0)" xlink:href="#linear-gradient"/><linearGradient id="linear-gradient-3" x1="7946.03" y1="-2033.36" x2="7946.03" y2="34.72" gradientTransform="matrix(-0.73, 0, 0, 1, 6112.62, 0)" gradientUnits="userSpaceOnUse"><stop offset="0.21" stop-color="#cc925e"/><stop offset="0.48" stop-color="#a56752"/><stop offset="0.8" stop-color="#6d3134"/><stop offset="1" stop-color="#292937"/></linearGradient><clipPath id="clip-path-2"><rect class="cls-1" x="-1620" width="1600" height="900"/></clipPath></defs><g class="cls-2"><g id="Layer_1" data-name="Layer 1"><ellipse class="cls-3" cx="260.17" cy="443.6" rx="163.52" ry="30.78"/><path class="cls-4" d="M304.07,372.49s-6.52,8.61,2.38,59.36c0,0-14.22,3.71-14.05,5.49s15.29.73,15.29.73,14.62,17.31,19,19.37,6.47-1.3-8.54-15.91c0,0,7.92,1.47,17.72,4.31,0,0,7.14-.69-10.55-9.17,0,0,1.43-2.7,13.83-2.05,0,0,12.28-6.36-25.4-3.76,0,0-8.3-24.57.16-54.24S304.07,372.49,304.07,372.49Z"/><path class="cls-4" d="M228.2,369.39s5.11,8-2.21,58.93c0,0,11.22,2.44,11.08,4.22s-12.1,2-12.1,2-11.66,18.37-15.15,20.79-5.11-.74,6.84-16.48c0,0-6.27,2.14-14,5.78,0,0-5.63-.07,8.4-10,0,0-1.11-2.54-10.93-.85,0,0-9.67-5.24,20.11-5.88a123.49,123.49,0,0,0,.18-53.64C213.86,345.69,228.2,369.39,228.2,369.39Z"/><path class="cls-5" d="M319.67,226.84s-1.16-26.05,25.56-12,66.84,24.59,123.59-7.76c0,0,.73,12.56-19,25.37,0,0,17.66-4.17-10.15,20.88,0,0,13.53,0-16.62,24.11,0,0,9.6,8.06-28.35,19S319,260.17,319,260.17L318,227.54"/><path class="cls-5" d="M453.14,228.84S412.33,259.92,349,235.21"/><path class="cls-5" d="M443.19,251s-43.33,26.25-96.29,1.16"/><path class="cls-5" d="M425.66,274.82s-48.83,19.26-79.9-5.43"/><path class="cls-5" d="M188.93,225.43s-2.23-26-30.36-9.16S86.76,248,18.57,222c0,0,.89,12.56,24.83,23.16,0,0-20.42-2.23,14.25,19.66,0,0-15.21,1.47,21.95,22.17,0,0-9.7,9.06,34.45,15.84s80.21-44.28,80.21-44.28L190.86,226"/><path class="cls-5" d="M39.15,241.91s50.09,26.48,118-5"/><path class="cls-5" d="M53.34,262.86s52.28,21.4,108.41-9.3"/><path class="cls-5" d="M76.28,284.64s57.51,13.86,89.09-14.07"/><path class="cls-6" d="M350.09,324.12c-42.55,109.42-164.9,70.29-186.18,18.62s-3-85.11,18.24-124.63q2.08-3.87,4-7.7a358.41,358.41,0,0,0,26.39-71.33l7,7.21,65.95-37.6s-6.08,48.62,41,109.42C339.16,234.39,346.7,249.56,351,263,362.72,299.89,350.09,324.12,350.09,324.12Z"/><path class="cls-7" d="M350.09,324.12c-42.55,109.42-164.9,70.29-186.18,18.62s-3-85.11,18.24-124.63q2.08-3.87,4-7.7c-14.32,46-29.08,119,7.78,151.33,55.85,49,153.88,8,156.16-83.22.14-5.61.44-10.75.9-15.48C362.72,299.89,350.09,324.12,350.09,324.12Z"/><path class="cls-8" d="M206,140.74c-5.14,11.29-5.43,35.69-10.56,47,4.55.89,4.55-12.91,8.67-15.05a42.72,42.72,0,0,0,2.25,19c2.06,5.71,7.77,11.81,13.23,9.15,1.05-.51,2-1.33,3.15-1.46,1.38-.17,2.66.68,3.79,1.49,4.87,3.5,9.91,7.19,15.81,8.22s12.94-1.56,14.81-7.25c4.83,4.62,10,9.44,16.57,10.81s14.62-2.38,15.32-9c.76,3.32,5,4.55,8.32,4s6.55-2.16,9.95-2.07c1.72,0,3.45.53,5.14.19,3.12-.62,5.09-4,5.21-7.15s-1.16-6.23-2.42-9.15q-9.53-22.14-19.06-44.27c-7.82,5.16-17.34,11.66-25.34,16.54a20,20,0,0,1-6,2.77,19.31,19.31,0,0,1-5.88.11c-8.18-.71-17-2-22.82-7.8-4.11-4.07-6.7-10.24-12.24-11.93-1.44-.43-3-.51-4.39-1C216.09,142.57,209.46,139.46,206,140.74Z"/><path class="cls-9" d="M207.53,126.3c-5.14,11.29-1.25,24.29-6.38,35.58,4.55.9.37-1.51,4.49-3.65a42.72,42.72,0,0,0,2.25,19c2.06,5.71,7.77,11.81,13.23,9.15,1-.51,2-1.33,3.15-1.46,1.38-.17,2.66.68,3.79,1.49,4.87,3.5,9.91,7.19,15.81,8.22s12.94-1.56,14.81-7.25c4.83,4.62,10,9.44,16.57,10.81s14.62-2.38,15.32-9c.76,3.31,5,4.54,8.32,4s6.55-2.16,9.95-2.07c1.72,0,3.45.53,5.14.19,3.12-.62,5.09-4,5.21-7.15s-1.16-6.23-2.42-9.15q-9.52-22.14-19.06-44.27c-7.82,5.16-17.34,11.67-25.34,16.54a20.23,20.23,0,0,1-6,2.78,19.63,19.63,0,0,1-5.88.1c-8.18-.7-17-2-22.82-7.8-4.11-4.07-6.7-10.24-12.24-11.92-1.44-.44-3-.52-4.39-1C217.61,128.13,211,125,207.53,126.3Z"/><path class="cls-10" d="M308.8,162.38c-3.29,19.26-30.71,8.83-30.71,8.83-23,9.38-31.34-6.59-31.34-6.59-27.29.81-27.19-18.33-27.19-18.33-16.44-1.84-10.34-15.44-11.71-35.14s.54-59.67,39-57.56,49.83,51.77,55.68,78.54C304.51,141.35,309,142.43,308.8,162.38Z"/><path class="cls-11" d="M241.69,117.15s-2.92,11.12,6.9,22.43a30.08,30.08,0,0,0,22.82,10.5l-18.88-31.84Z"/><path class="cls-12" d="M246.92,120.22c.83,1.06,1.77,11.9,24.76,30.27,0,0-10.31-21.76-10.05-23.84S246.92,120.22,246.92,120.22Z"/><path class="cls-11" d="M240.84,116.79s13.43-6.37,19.18-6.42,11,1.4,15.6,19.59c0,0-25.44,1-35.2-9.78Z"/><ellipse class="cls-12" cx="259.42" cy="113.61" rx="1.27" ry="2.6" transform="translate(114.6 357) rotate(-82.9)"/><ellipse class="cls-13" cx="234.14" cy="93.74" rx="12.58" ry="15.13" transform="translate(-18.05 90.68) rotate(-21.12)"/><path class="cls-14" d="M245.92,89.19c4.85,11.68-4.6,25-17.17,18.06-10-5.67-12.11-23.37-.23-28.06,7.37-2.59,15,3.2,17.4,10Zm-.09,0c-2.44-6.65-10-12.28-17.11-9.52-11,4.68-8.76,21.39.49,26.81,12.09,7,21.2-6,16.62-17.29Z"/><ellipse class="cls-15" cx="235.67" cy="97.71" rx="8.21" ry="10.58" transform="translate(-19.12 84.64) rotate(-19.58)"/><ellipse class="cls-16" cx="238.78" cy="92.77" rx="2.79" ry="3.59" transform="translate(-17.28 85.4) rotate(-19.58)"/><ellipse class="cls-13" cx="268.79" cy="89.33" rx="11.74" ry="15.13" transform="translate(-6.54 22.85) rotate(-4.81)"/><path class="cls-14" d="M280.53,88.34c1.16,8.92-5.95,20.07-15.88,15.59-10.16-5-11.56-21.65-2.38-28.3,9-6.08,17.91,3.72,18.26,12.71Zm-.1,0c-.44-8.72-9.05-18.24-17.74-12.15-8.4,6.54-7.09,22,2.28,27.08,9.58,4.56,16.48-6.27,15.46-14.93Z"/><ellipse class="cls-15" cx="267.51" cy="93.13" rx="8.21" ry="10.58" transform="translate(-3.83 11.82) rotate(-2.51)"/><ellipse class="cls-16" cx="271.93" cy="89.32" rx="2.79" ry="3.59" transform="translate(-3.66 12.01) rotate(-2.51)"/><path class="cls-11" d="M226,69.09a10.48,10.48,0,0,1,6.22-2.21,1.94,1.94,0,0,1,1.65.71,2,2,0,0,1,.23.8,4.52,4.52,0,0,1-.1,2.07,4.3,4.3,0,0,1-2.29,2.34,32.1,32.1,0,0,1-3.16,1.13,13.79,13.79,0,0,0-3.84,2.14,7.09,7.09,0,0,1-2.85,1.72c-.8.15-2.13-.33-2.26-1.26s1-2,1.44-2.61A21.66,21.66,0,0,1,226,69.09Z"/><path class="cls-11" d="M261.41,65.66a11.41,11.41,0,0,0-6.88,1.06,2.17,2.17,0,0,0-1.25,1.44,2.13,2.13,0,0,0,.13.83,4.39,4.39,0,0,0,1,1.81,4.33,4.33,0,0,0,3.21,1,35.23,35.23,0,0,0,3.5-.53,15,15,0,0,1,4.59,0,7.56,7.56,0,0,0,3.47.16c.82-.26,1.87-1.33,1.58-2.23s-1.8-1.32-2.52-1.65A22,22,0,0,0,261.41,65.66Z"/><path class="cls-17" d="M239.46,55.36s-.76,10.64,11.4,15.2,5.32-18.24,5.32-18.24,12.15-3,1.52-22S244,22.69,244,22.69,238.7,5.21,227.3,18.13s-3,16.72-3,16.72-8.55-.27-3,22c0,0-9.24,1.34-2.28,9.88C218.94,66.76,231.1,48.52,239.46,55.36Z"/><path class="cls-18" d="M468.82,207.07c-56.75,32.35-96.87,21.8-123.59,7.76-12-6.27-18.32-4.54-21.71-.7q-4-5.43-7.54-10.72a8.7,8.7,0,0,0,1.69-4.82,19,19,0,0,0-1.92-8,8.08,8.08,0,0,0,3.44-6.45c.12-3.18-1.16-6.23-2.42-9.15q-4-9.39-8.09-18.79c-.7-14.12-4.4-15.92-6.19-24.08-5.3-24.24-15.18-67.28-45.53-76.74-.41-1.83-.78-3.07-.78-3.07s12.15-3,1.52-22S244,22.69,244,22.69,238.7,5.21,227.3,18.13s-3,16.72-3,16.72-8.55-.27-3,22c0,0-8,1.16-3.51,8.2C207.43,78,207,98.64,207.85,111.15a148.76,148.76,0,0,1,.05,15l-.37.1c-2.79,6.14-2.92,12.78-3.28,19.38-3.53,12.4-4.33,32.19-8.8,42a1.94,1.94,0,0,0,1-.07c-3,7.28-6.42,15-10.32,22.76-.66,1.31-1.33,2.63-2,4-4.11-4.29-11.68-6.41-25.56,1.91-28.14,16.85-71.81,31.7-140,5.69,0,0,.89,12.56,24.83,23.16,0,0-19.13-2.09,11.09,17.64l-1.15.1s1,.42,2.95,1.06l1.36.86S42.44,266.25,79.6,287c0,0-9.7,9.06,34.45,15.84,14.74,2.26,28.58-1.93,40.47-8.51-.64,14.62,2,30.43,9.39,48.46,8.15,19.79,31.14,37.74,58.79,46.2a122.61,122.61,0,0,1-2.5,39c-29.78.64-20.11,5.88-20.11,5.88,9.82-1.69,10.93.85,10.93.85-14,9.9-8.4,10-8.4,10,7.77-3.64,14-5.78,14-5.78-11.95,15.74-10.34,18.89-6.84,16.48S225,434.57,225,434.57s11.95-.25,12.09-2S226,428.32,226,428.32a376.22,376.22,0,0,0,3.81-37.44c23.36,5.61,49.3,4.35,72.15-8.07-.56,8.44,0,23.33,4.5,49,0,0-14.22,3.71-14.05,5.49s15.29.73,15.29.73,14.62,17.31,19,19.37,6.47-1.3-8.54-15.91c0,0,7.92,1.47,17.72,4.31,0,0,7.14-.69-10.55-9.17,0,0,1.43-2.7,13.83-2.05,0,0,12.28-6.36-25.4-3.76,0,0-8.3-24.57.16-54.24.21-.72.39-1.4.56-2.05,14.26-11.14,26.69-27.52,35.6-50.45,0,0,6.55-12.55,5.83-33.34,11.77,6.09,25.25,9.56,38.75,5.66,37.95-10.95,28.35-19,28.35-19,30.15-24.12,16.62-24.11,16.62-24.11l1.09-1c1.61-.82,2.46-1.34,2.46-1.34l-1,0c24.17-22.48,7.62-18.57,7.62-18.57C469.55,219.63,468.82,207.07,468.82,207.07ZM237,54.05a33.06,33.06,0,0,0-8.73,2.66C231,54.63,234.11,53.28,237,54.05Z"/><g class="cls-19"><path class="cls-20" d="M-127.54-1564.08c-89.95,25.09,234.71-70.43,221.67,1.56C79.61-1482.39,80-1005.84,78.31-826.66c-1.72,187.21-2.57,654.58-3.17,764.51s40.11,213.62,15.58,227.33C46.76,189.75-229.75,401-229.75,385.5c-12-13.13-235.68,92-206.29,50.18a475.83,475.83,0,0,0,54-101.55,140.15,140.15,0,0,0,9-47.8c0-5.37-21.59,5.38-41.38-1.78s-37.77-50.19-80.05,1.78-55.77,53.77-84.55,52-40.48-64.52-10.8-71.69,52.17-46.6,58.47-60.93c-8.09-17.92-59.37-23.3-90-5.38s-63,23.31-63,23.31c18-32.27,36.88-73.49,68.36-80.66s42.28-21.51,84.56-17.92,68,274.34,94.95,199.08S-369,143.7-364.18-90.47s-4.42-575.18-6-669.09c-1.3-78.09-37.47-187.87-80.85-272.32-32.56-63.4-68.55-111.7-100.44-126-38.83-17.48-95.83-73.4-156.21-98.57-55.25-23-113.34-15.89-162.62-21.59-33.58-52.57,7.2-64.52,7.2-64.52s60-14.33,119.93,2.39,56.37,31.06,110.34,28.68,115.54,84.31,147.93,124.93,138.52,127.84,154.3,185.71c0-234.18,12-501.81,4.8-535.27s28.64,41.7-3.74-13.25"/><g class="cls-21"><path class="cls-22" d="M-161.41-1214.49c12.53,13,21.45,29.5,30,45.26,2.35,4.64,5,9.93,7.29,14.62,2,4.36,5.77,12.9,7.81,17.38,1.74,4.2,5.42,13.24,7.23,17.62,5.14,13.26,10.22,27.39,14.7,40.95,2,5.62,4.82,14.91,6.58,20.74,8.44,27.12,16,56.4,22.48,84,16.17,69.23,27.35,143.49,35.87,214.16,6.91,56.06,13.28,116.36,18.55,172.65C12.54-342.36,15.36-95.29,6.49,150.26l-.7,0C5.53-80.85,4-312.87-10.81-543.57c-4.2-67.5-10.93-138-19.9-205.07-9.47-66.65-21.67-137.06-36-202.72-6.15-29.21-13.94-60.61-21.73-89.42-2.46-8.65-5.81-19.93-8.31-28.58-2.9-8.85-6.06-19.52-9.11-28.32-5.78-16.8-12.11-34.23-19.14-50.57s-14.9-33-24.25-48.26c-3.87-6.06-7.8-12.18-12.63-17.47l.48-.51Z"/></g><g class="cls-21"><path class="cls-22" d="M-141.07-1446.78c14.86,40.41,26.05,82.23,36.73,123.92,9.09,36.48,17.74,75.17,25.18,112.13,15.06,74.45,27.77,151.34,37.81,226.65C-27.23-876.41-16.37-764-6.7-655.7,8.89-484.76,18.89-311.41,23-139.76c4.48,172,3.21,344.85-2.45,516.79l-.7,0c1-191.39-.33-382.69-5.72-574C7.82-397.21-.64-599.2-22.73-798.35c-3-26.42-6.86-59.13-10.41-85.47-20.24-151.52-43.47-303.18-78.39-452.06-5.36-22.74-11.47-47-17.74-69.48-2.56-9.21-5.3-18.37-8-27.53-1.43-4.56-2.85-9.13-4.41-13.65l.66-.24Z"/></g><path class="cls-23" d="M-73-1770.31c66,25.09-172.23-70.42-162.66,1.56,10.65,80.14,10.4,556.68,11.61,735.87,1.27,187.2,1.89,654.57,2.33,764.5S-251.13-54.76-233.13-41C-200.87-16.48,2,194.81,2,179.27c8.8-13.13,172.93,92,151.37,50.19S120,149.41,113.81,127.9a186.33,186.33,0,0,1-6.6-47.79c0-5.37,15.84,5.38,30.36-1.79s27.72-50.18,58.74,1.79,40.93,53.76,62.05,52,29.7-64.53,7.92-71.69S228,13.8,223.38-.54c5.94-17.92,43.56-23.3,66-5.38a127.73,127.73,0,0,0,46.21,23.31c-13.21-32.27-27.06-73.49-50.17-80.65s-31-21.51-62-17.93S173.5,193.15,153.7,117.89s-49.5-180.42-53-414.59,3.24-575.18,4.4-669.09c1-78.09,27.5-187.87,59.33-272.32,23.89-63.4,50.3-111.7,73.7-126.05,28.49-17.47,70.32-73.4,114.63-98.57,40.54-23,83.17-15.88,119.33-21.58,24.64-52.57-5.29-64.53-5.29-64.53s-44-14.33-88,2.4-41.36,31.06-81,28.67S213-1433.46,189.26-1392.84,87.62-1265,76-1207.13c0-234.18-8.8-501.81-3.53-535.26s-21,41.7,2.75-13.25"/><g class="cls-24"><path class="cls-25" d="M136,118c-19.8-75.27-49.5-180.41-53-414.59s3.24-575.18,4.4-669.08c1-78.1,27.5-187.88,59.33-272.32,23.89-63.41,50.3-111.71,73.7-126.06,28.5-17.47,70.32-73.4,114.63-98.57,40.54-23,83.17-15.88,119.33-21.58,24.64-52.57-5.28-64.53-5.28-64.53a143,143,0,0,0-32.64-5.45,150.73,150.73,0,0,1,50.27,5.45s29.93,12,5.29,64.53c-36.16,5.7-78.79-1.44-119.33,21.58-44.31,25.17-86.14,81.1-114.63,98.57-23.4,14.35-49.81,62.65-73.71,126.06C132.51-1153.59,106-1043.81,105-965.71c-1.16,93.9-7.92,434.9-4.4,669.08s33.22,339.32,53,414.59c14.57,55.37,20.92-200.77,44.49-198.33C169-78,154.21,187.18,136,118Z"/></g><g class="cls-26"><path class="cls-22" d="M96.7,153.29c-10.27-1.94-19-8.24-26.87-14.78l-1.19-1.12-4.75-4.47c-1.5-1.56-3-3.18-4.42-4.78-3-3.12-6.56-7.94-9.27-11.34-1.56-2.27-4.87-7-6.47-9.37-2.31-3.67-5.3-8.76-7.57-12.52-1.29-2.43-4-7.52-5.29-10-2-3.44-6.47-13.8-8.27-17.62A435.33,435.33,0,0,1,5.17,18.47c-3.54-11.54-7-25.8-9.7-37.55-14-67.43-20.14-136-26.22-204.44-10.82-136.61-6.37-275.42,6.59-411.7l.69.05c-.19,8.58-.46,17.16-.74,25.74-.79,24-1.91,53.24-2.45,77.16-3.2,114.33-5.25,232.8,1.88,347,.8,9.31,1.91,22.78,2.77,32,1.57,14.92,3.35,29.83,5.56,44.66,1.26,7.86,3.37,20.72,4.71,28.54,2.25,10.89,4.56,23.8,7.06,34.61C5.72-.09,17.58,46.5,38.42,88.25l1.39,2.87.71,1.43.77,1.39c2.85,5.14,6.37,11.58,9.68,16.47l1.7,2.69.85,1.35c.29.44.61.86.92,1.29l3.74,5.15c2.39,3.4,5.35,6.67,8,9.88l4.39,4.59,1.1,1.15c2.61,2.36,5.59,5.15,8.44,7.23,5,3.79,10.6,7.25,16.69,8.85l-.09.7Z"/></g><g class="cls-27"><path class="cls-22" d="M30.53-622.74l0-.37a2,2,0,0,1,0-.25c1.42-.26.46.14.77.1.06.25.1.49.14.73l.23,1.43c.27,1.62,1,6.84,1.18,8.58,8.24,72.65,8,146.2,1.68,219A1071.92,1071.92,0,0,1,17.34-279.39c-2.91,14.84-6.55,30.27-9.75,45.06a385.61,385.61,0,0,0-6.52,45.49C-5.33-111.65,5.84-12.21,47.51,54.27,54,64,69.35,84.6,81.75,75.71l.45.53c-9.91,8.89-23.66-3.16-30.63-10.53C24.27,35.16,9-11,1.09-50.65A420.37,420.37,0,0,1-4.68-166.19c2.94-38.56,12.23-75.93,19.2-113.74,11.44-68,16.77-137,18.85-205.95,1-45,.72-90.17-2.6-135.12l-.14-1.42-.09-.7c.29-.11-.69,0,.68-.14v.47l-.7,0Z"/></g></g></g></g></svg>