<svg id="Layer_1" data-name="Layer 1" xmlns="http://www.w3.org/2000/svg" viewBox="0 0 783.53 550.65"><defs><style>.cls-1{fill:#9b5115;}.cls-2{fill:#fffbb8;}.cls-3{fill:#82451c;}.cls-4{opacity:0.7;}.cls-5{fill:#e5aa53;}.cls-6{fill:#28139e;stroke:#f96a00;stroke-miterlimit:10;stroke-width:2px;}</style></defs><path class="cls-1" d="M643,189.59a19.94,19.94,0,0,0,1.4-7.36,81.58,81.58,0,0,1,1.21-12,19.93,19.93,0,0,0-7.73-19.64,20,20,0,0,0-19-22.1c-.4,0-10-.44-19.67-.58h-.3a20,20,0,0,0-19.2,14.43c-.8,2.74-1.53,5.49-2.21,8.24a38.08,38.08,0,0,0-7.46-2l-.28,0a42.81,42.81,0,0,0-6.06-.44,39.28,39.28,0,0,0-5.87.43,20,20,0,0,0-14.5-.22,28,28,0,0,1-4.65,1.14,19.93,19.93,0,0,0-16.16-2.33,49.5,49.5,0,0,1-11.51,1.1c-.83,0-1.37,0-1.46,0h-.76a20.07,20.07,0,0,0-8.59,1.94c-3.57-.66-8-1.48-12.34-2.3a20,20,0,0,0-18,5.69,38.75,38.75,0,0,0-20.15-5.61h-.38a38.52,38.52,0,0,0-11.09,1.72c-2.75-10.77-8.84-22.29-22.29-29.05a48.4,48.4,0,0,0-22.16-5.37,51,51,0,0,0-25.4,7c-17.2,9.74-27.42,29.55-28.47,54.24-6.78-17.17-21.26-28.08-39.14-28.08h-1c-.87,0-1.73.07-2.59.14a20,20,0,0,0-10.28-2.84,19.66,19.66,0,0,0-2.75.19l-1.64.23c-.06-.26-.11-.52-.17-.78l-.09-.32c-3.38-12.53-14.9-21-28.67-21a34.34,34.34,0,0,0-14.15,3.1,31.61,31.61,0,0,0-17,17.64c.38-5.87.82-11.52,1.32-16.76a20,20,0,0,0-19.9-21.92,19.51,19.51,0,0,0-2.85.2c-12.16,1.75-23.42,3.89-23.89,4a20,20,0,0,0-13.53,9.58,55.05,55.05,0,0,0-24.44-5.64c-1.41,0-2.86,0-4.29.16-27.94,2-41.9,24.21-41.26,45a43.05,43.05,0,0,0,11.49,28.74c-3.08,4.29-7,10-10.14,15.37a20,20,0,0,0,.68,21.32C107.49,242.35,125.79,252,147.14,252c1.78,0,3.54-.09,5.28-.26a19.85,19.85,0,0,0,.16,6.19c4.94,26.62,4.46,63.69.94,80.3a20,20,0,0,0,12.76,23c11.12,4,22.55,4.86,30.19,4.86a96.27,96.27,0,0,0,15-1.15,19.93,19.93,0,0,0,7.17,20.53c.38.3,9.63,7.46,19.32,14.61A20,20,0,0,0,249.83,404a19.74,19.74,0,0,0,3.51-.31,20,20,0,0,0,13.2-8.69C278,377.56,286,350.2,293.69,323.73c3.33-11.43,6.49-22.3,9.63-31.19a19.92,19.92,0,0,0,10.8,7.66c1.42.41,2.88.91,4.32,1.45C309,313,300.06,328.5,300.31,350.72a20,20,0,0,0,24.8,19.19,120.32,120.32,0,0,1,29.7-3.53c7.95,0,15.85.67,22.19,1.2.56.05,1.12.07,1.68.07a20,20,0,0,0,19.75-23.16c-1-6.31.7-15,1.35-17.53a20,20,0,0,0-3.26-17.23,20.25,20.25,0,0,0-3.55-3.67,47.62,47.62,0,0,0,8.48-29.54,46.89,46.89,0,0,0-7.79-24.78A45.21,45.21,0,0,0,422,242l.13-.12a43.38,43.38,0,0,0,27.75,10.15c.95,0,1.91,0,2.9-.1A42.7,42.7,0,0,0,476,243.34a35.27,35.27,0,0,0,15.86,6.24A47.07,47.07,0,0,0,498,250a41.52,41.52,0,0,0,5.12-.31,20,20,0,0,0,8.53,1.92,20.39,20.39,0,0,0,4.31-.47,55,55,0,0,1,7.36-1,20,20,0,0,0,10.34,2.9h.59c1.29,0,2.68-.06,4.13-.06,6.89,0,13.2.43,13.37.44.47,0,.94.05,1.41.05a20,20,0,0,0,11.54-3.66c3.43.52,7.52,1.18,11.4,1.9a19.93,19.93,0,0,0,17-4.76,36.74,36.74,0,0,0,12,4.48,40.24,40.24,0,0,0,7.3.68c16.41,0,36.78-11.31,40.21-43.17A20,20,0,0,0,643,189.59Z"/><path class="cls-2" d="M651,182.59a19.94,19.94,0,0,0,1.4-7.36,81.58,81.58,0,0,1,1.21-12,19.93,19.93,0,0,0-7.73-19.64,20,20,0,0,0-19-22.1c-.4,0-10-.44-19.67-.58h-.3a20,20,0,0,0-19.2,14.43c-.8,2.74-1.53,5.49-2.21,8.24a38.08,38.08,0,0,0-7.46-2l-.28,0a42.81,42.81,0,0,0-6.06-.44,39.28,39.28,0,0,0-5.87.43,20,20,0,0,0-14.5-.22,28,28,0,0,1-4.65,1.14,19.93,19.93,0,0,0-16.16-2.33,49.5,49.5,0,0,1-11.51,1.1c-.83,0-1.37,0-1.46,0h-.76a20.07,20.07,0,0,0-8.59,1.94c-3.57-.66-8-1.48-12.34-2.3a20,20,0,0,0-18,5.69,38.75,38.75,0,0,0-20.15-5.61h-.38a38.52,38.52,0,0,0-11.09,1.72c-2.75-10.77-8.84-22.29-22.29-29.05a48.4,48.4,0,0,0-22.16-5.37,51,51,0,0,0-25.4,7c-17.2,9.74-27.42,29.55-28.47,54.24-6.78-17.17-21.26-28.08-39.14-28.08h-1c-.87,0-1.73.07-2.59.14a20,20,0,0,0-10.28-2.84,19.66,19.66,0,0,0-2.75.19l-1.64.23c-.06-.26-.11-.52-.17-.78l-.09-.32c-3.38-12.53-14.9-21-28.67-21a34.34,34.34,0,0,0-14.15,3.1,31.61,31.61,0,0,0-17,17.64c.38-5.87.82-11.52,1.32-16.76a20,20,0,0,0-19.9-21.92,19.51,19.51,0,0,0-2.85.2c-12.16,1.75-23.42,3.89-23.89,4a20,20,0,0,0-13.53,9.58,55.05,55.05,0,0,0-24.44-5.64c-1.41,0-2.86,0-4.29.16-27.94,2-41.9,24.21-41.26,45a43.05,43.05,0,0,0,11.49,28.74c-3.08,4.29-7,10-10.14,15.37a20,20,0,0,0,.68,21.32C115.49,235.35,133.79,245,155.14,245c1.78,0,3.54-.09,5.28-.26a19.85,19.85,0,0,0,.16,6.19c4.94,26.62,4.46,63.69.94,80.3a20,20,0,0,0,12.76,23c11.12,4,22.55,4.86,30.19,4.86a96.27,96.27,0,0,0,15-1.15,19.93,19.93,0,0,0,7.17,20.53c.38.3,9.63,7.46,19.32,14.61A20,20,0,0,0,257.83,397a19.74,19.74,0,0,0,3.51-.31,20,20,0,0,0,13.2-8.69C286,370.56,294,343.2,301.69,316.73c3.33-11.43,6.49-22.3,9.63-31.19a19.92,19.92,0,0,0,10.8,7.66c1.42.41,2.88.91,4.32,1.45C317,306,308.06,321.5,308.31,343.72a20,20,0,0,0,24.8,19.19,120.32,120.32,0,0,1,29.7-3.53c7.95,0,15.85.67,22.19,1.2.56.05,1.12.07,1.68.07a20,20,0,0,0,19.75-23.16c-1-6.31.7-15,1.35-17.53a20,20,0,0,0-3.26-17.23,20.25,20.25,0,0,0-3.55-3.67,47.62,47.62,0,0,0,8.48-29.54,46.89,46.89,0,0,0-7.79-24.78A45.21,45.21,0,0,0,430,235l.13-.12a43.38,43.38,0,0,0,27.75,10.15c.95,0,1.91,0,2.9-.1A42.7,42.7,0,0,0,484,236.34a35.27,35.27,0,0,0,15.86,6.24A47.07,47.07,0,0,0,506,243a41.52,41.52,0,0,0,5.12-.31,20,20,0,0,0,8.53,1.92,20.39,20.39,0,0,0,4.31-.47,55,55,0,0,1,7.36-1,20,20,0,0,0,10.34,2.9h.59c1.29,0,2.68-.06,4.13-.06,6.89,0,13.2.43,13.37.44.47,0,.94.05,1.41.05a20,20,0,0,0,11.54-3.66c3.43.52,7.52,1.18,11.4,1.9a19.93,19.93,0,0,0,17-4.76,36.74,36.74,0,0,0,12,4.48,40.24,40.24,0,0,0,7.3.68c16.41,0,36.78-11.31,40.21-43.17A20,20,0,0,0,651,182.59Z"/><path class="cls-3" d="M650.81,182.64c1.35-3.36,1.39-6.79,1.49-10.35s.72-7,1.27-10.38a19.91,19.91,0,0,0-7.86-18.17l-.09-.07v-.11a19.77,19.77,0,0,0-18.76-21.83L616,121.42c-3.47,0-7.51-.38-10.83-.18a19.89,19.89,0,0,0-9.91,3.71,19.67,19.67,0,0,0-6.55,8.3c-1,2.71-2.19,7.47-3,10.39l-.09.34-.33-.12a39.15,39.15,0,0,0-19.6-2,19.62,19.62,0,0,0-9.55-1.36c-3.31.3-6.35,1.91-9.63,2.32a19.64,19.64,0,0,0-14.07-2.8c-1.59.3-3.21.86-4.84,1a65.85,65.85,0,0,1-9.92.54,19.76,19.76,0,0,0-9.4,1.9l-.12.06-.14,0c-2.86-.48-9.18-1.73-11.89-2.2a19.67,19.67,0,0,0-18.08,5.5l-.25.26-.31-.18a38.56,38.56,0,0,0-31.74-3.65c-2.87-12.35-10.65-23.64-22.22-29.22-23-12-52.13-2.49-65.12,19.6-7,11.7-9.82,25.49-10.07,39.06a54.33,54.33,0,0,0-7.82-14.79,39.91,39.91,0,0,0-35.37-15.68l-.25,0-.21-.13a19.4,19.4,0,0,0-6.84-2.48,25.92,25.92,0,0,0-8,.27c-4.4-21.27-29.66-28-46.72-16.56A30.5,30.5,0,0,0,231.22,138l-2.11,5.63c.51-6.59,1.32-17,1.82-23.61a19.16,19.16,0,0,0-21.86-19.9c-5.48.85-12,1.82-17.43,2.83-2.3.5-8.85,1.32-11.15,2.76a19.5,19.5,0,0,0-8.55,8.31l-.79-.39c-18.61-9.18-44.2-7.43-58.2,9-10.38,11.93-13.13,29.76-7.42,44.43A43.56,43.56,0,0,0,114.44,181l-.5.71c-3.23,4.51-6.35,9.09-9.21,13.84a20.79,20.79,0,0,0-3.33,8.87,18.88,18.88,0,0,0,2.73,12.09,65.21,65.21,0,0,0,8.27,10.14c11.19,11.38,27.15,17.38,43,17.18l6.35-.32-.18,1.39c-.55,3.2.33,6.51.81,9.66a278.67,278.67,0,0,1,2.93,50.49A168.9,168.9,0,0,1,163,330.33a19.08,19.08,0,0,0,6,19.32c3.07,2.66,7,3.88,10.86,4.94a96.22,96.22,0,0,0,39.43,2l2-.33a19.79,19.79,0,0,0,.13,12.81,18.7,18.7,0,0,0,6.56,8.66l18.82,14.19a18.67,18.67,0,0,0,24.84-2.55,31.35,31.35,0,0,0,3.2-4.62c6-10,10.3-21,14.17-32,7.5-21.42,13.5-46.18,20.91-67.65l.95-2.71,1.67,2.34a18.62,18.62,0,0,0,10,7.1c1.47.47,5,1.71,6.41,2.15-9.3,10.69-16.3,23.52-18.32,37.62a73.23,73.23,0,0,0-.8,13.3,18.5,18.5,0,0,0,22.37,16.72,121.76,121.76,0,0,1,20.45-3.31,173.56,173.56,0,0,1,27.56.44c1.19.16,4,.29,5.11.42a18.56,18.56,0,0,0,19.7-21.31,45.72,45.72,0,0,1,.54-14.06c.31-2.19,1-4.46,1.36-6.65a18.87,18.87,0,0,0-7.79-17.76l.7-1c10.83-15.32,11.2-37.27.77-52.88l-1.29-1.92h2.31a44,44,0,0,0,27.76-9.5l.75-.62c14.61,13.26,38.48,14.11,53.86,1.67,7.7,5.87,17.78,7.84,27.28,6.66a19.19,19.19,0,0,0,9.78,1.92c3.49-.41,6.95-1.29,10.48-1.42a19.2,19.2,0,0,0,9.93,2.95c2.43,0,8.09-.06,10.68.06,3.49,0,7.09.53,10.57.37a19.21,19.21,0,0,0,9.54-3.43l.26-.18.29.05,7.37,1.26,3.68.62A19.49,19.49,0,0,0,601,239.13c16.15,10.08,38.39,5.54,49.46-9.95l.94-1.39a27.89,27.89,0,0,0,1.79-2.82l1.6-2.95a64.64,64.64,0,0,0,2.48-6.23,49.12,49.12,0,0,0,1.78-6.47,31.07,31.07,0,0,0,.64-3.3c2.14-9.31-.56-18.17-8.91-23.38Zm.28-.1a20.11,20.11,0,0,1,9.85,16.82,58.12,58.12,0,0,1-.92,8.43l-.37,1.65a68.61,68.61,0,0,1-2.25,8.18c-.18.53-.42,1-.63,1.57l-1.32,3.13a46.61,46.61,0,0,1-5.39,8.65c-11.34,14.94-33.2,19.05-49.28,9.51l.75-.08a20.67,20.67,0,0,1-17.91,4.93l-3.67-.6-7.35-1.21.55-.13a20.84,20.84,0,0,1-10.28,3.77c-3.54.2-7.21-.3-10.75-.31-2.88-.09-7.67-.06-10.65,0a20.93,20.93,0,0,1-10.59-3l.53.12c-3.46.16-6.77,1.07-10.19,1.46a21,21,0,0,1-10.49-1.91l.52.08c-9.63,1.18-19.84-.69-27.81-6.44l1.23,0A42.73,42.73,0,0,1,471.52,244a44.61,44.61,0,0,1-42.14-8.21l1.5,0a43.78,43.78,0,0,1-13.74,7.57A49.68,49.68,0,0,1,401.66,246l1-1.94c11.07,16.44,10.74,39.58-.61,55.78l-.27-1.8a21.42,21.42,0,0,1,7.87,19.43c-1.32,6.48-2.85,13.4-1.84,19.93a21.56,21.56,0,0,1-13.69,23.39c-4.46,1.84-9.47,1.33-14.14.89-13.57-1.1-27.15-1.29-40.49,1.37-4.57.84-9.23,2.55-14,1.78a21.62,21.62,0,0,1-18.68-19.74c-.88-18.74,6.28-37.26,18.41-51.37l.62,2.35-4.16-1.4a21.55,21.55,0,0,1-11.65-8.25l2.62-.36c-7.4,21.43-13.41,46.22-20.91,67.64-3.91,11.19-8.29,22.38-14.48,32.58l-1.6,2.54a22.47,22.47,0,0,1-1.93,2.5c-7.05,8.11-20.17,9.46-28.69,2.9l-18.84-14.28a21.46,21.46,0,0,1-8.12-22.32l1.53,1.66a98.89,98.89,0,0,1-40.55-2.14c-9.1-2.14-16.39-7.21-18.74-16.74a21.28,21.28,0,0,1-.35-8c.36-2.34,1-5.07,1.26-7.45a266.29,266.29,0,0,0-1.24-70c-.5-3.38-1.39-6.92-.8-10.34l1.28,1.31c-18.09,1.62-36.94-4.59-49.72-17.67a67.17,67.17,0,0,1-8.57-10.56,21,21,0,0,1-3-13.51c.44-4.68,2.9-8.75,5.42-12.6s4.94-7.48,7.55-11.11l.08,1.34C92.65,161,98.39,124.1,124.36,111.27c14.8-7.23,33-6.52,47.63.7l-1.24.37a21.11,21.11,0,0,1,14.76-10.13l5.81-1c5.49-1.06,11.91-1.92,17.49-2.8A21,21,0,0,1,232.1,114c1.11,3.38.32,8.51.11,12l-.94,11.73-1.65-.35c10.61-27.77,54.06-29.16,61.59,1.45l-.87-.6c.64-.08,1.25-.19,1.9-.25l2-.13a20.27,20.27,0,0,1,11.31,2.92l-.45-.11a41.07,41.07,0,0,1,26.54,6.79,46.17,46.17,0,0,1,16.87,21.64l-1.35.23c.77-18.86,7.52-38.73,22.83-50.7a51.94,51.94,0,0,1,35.83-10.87c12.66,1.11,25.23,7.11,32.88,17.44a49.15,49.15,0,0,1,8,17.26l-.64-.36a39.45,39.45,0,0,1,32,4l-.57.07a20.8,20.8,0,0,1,6.79-4.59,20.42,20.42,0,0,1,12.11-1.12l4,.74,7.93,1.49-.26,0a20.77,20.77,0,0,1,9.78-2,65.34,65.34,0,0,0,9.79-.5c3.27-.54,6.46-1.66,9.83-1.28a20.42,20.42,0,0,1,9.46,3.12l-.26,0c3.29-.42,6.25-2,9.55-2.28a20.47,20.47,0,0,1,9.79,1.4,39.51,39.51,0,0,1,19.65,2.07l-.41.22c.74-2.66,1.94-7.83,3-10.48,3.76-9,12.92-13.36,22.43-12.28,4.8.12,11.76.39,16.3.51A20.23,20.23,0,0,1,646,143.6l-.08-.18a20.3,20.3,0,0,1,8,18.53c-.57,3.45-1.08,6.89-1.31,10.37s-.07,7.07-1.53,10.22Z"/><g class="cls-4"><path class="cls-5" d="M158.21,227.23c-13.93,0-26.33-5.68-35-18.44a226.9,226.9,0,0,1,13.93-20.29c6.41,12.63,21.73,18.58,26.89,12.63,4.18-4.69,0-12.21-13.38-18.45-12.67-6-25.63-12.91-26.05-28.66-.27-9.07,5-23.26,22.71-24.54s30.51,9.37,37,23.41a143.76,143.76,0,0,0-19.64,12.34c-2.09-6.1-7.38-10.64-12.26-10.64a5.13,5.13,0,0,0-5.43,6.1c.56,6.1,6.41,8.23,16.44,12.06,14.9,5.39,23.54,14.9,23.82,26.67C187.6,218.15,172.28,227.23,158.21,227.23Z"/><path class="cls-5" d="M225.76,230.49c-1.25-13.05-6.54-25-13.51-28.8.28,8.8.84,16.89,1.53,23.69-9.75,0-21.59,2.42-21.59,2.42,3.9-27.81,3.62-74.34-.28-102.72,0,0,11.15-2.12,23-3.83-1.81,18.73-2.93,43.41-2.79,66,6.83-3.12,12-12.2,13.1-25.53,0,0,13.37,3,22.14,2.27-2.08,13.47-9.19,25.25-21.17,31.77,10.17,4.26,19.22,14.47,21.87,28.09A76.5,76.5,0,0,0,225.76,230.49Z"/><path class="cls-5" d="M266.57,158.42c-6.4,2.13-13.23,0-14.62-5.39-1.4-5,1.11-10.07,6.68-12.48,6.41-3,13.79-.85,15.33,4.82C275.21,150.34,273.54,156,266.57,158.42Zm-12.25,69.23c2.78-17.87,1.67-44.26-.84-61.71a139.4,139.4,0,0,0,19.78-3.12c-1.11,15.89.14,46.82,2.09,62C275.35,224.82,265,226,254.32,227.65Z"/><path class="cls-5" d="M310.87,225.1a19.91,19.91,0,0,1-15.18-6.52,388.91,388.91,0,0,0,4,46.53c-9.75-3.41-21.59-3.41-21.59-3.41,3.21-25.82,4-70.22,2.23-98,8.36-1.56,17.55-2.84,17.55-2.84-.55,2.42-.83,5.4-1.25,8.66a22.23,22.23,0,0,1,14.63-6c13.51-.28,22.7,11.77,23.68,28.09C335.8,206.8,328.7,225,310.87,225.1Zm-8.5-45.4c-5.85,2.27-7.38,11.21-5,18.3,2.23,6.53,8.63,9.23,13.65,6.1,4.46-2.69,5.15-10.92,3.2-16.88C312.4,181.83,307.53,177.72,302.37,179.7Z"/><path class="cls-5" d="M420.49,221.7c-8.5,7-21.45,6.24-28.83,2.27-10.17-5.54-18.81-16.18-20.62-41.57-2-26.25,7.66-41.71,18.25-47.67,9-5.25,19.36-5.82,28.55-1.13,11.29,5.67,13.66,17.73,13.66,33.33a110.22,110.22,0,0,0-22.29,2.84c-.56-10.21-3.07-15.6-7.52-15.32s-11.84,8.8-11.57,26.67c.28,19,6.13,25.11,10,26.11,5,1.13,9.62-3.83,9.62-11.64a140.4,140.4,0,0,1,23.4-1.56C433.59,206.09,429,214.89,420.49,221.7Z"/><path class="cls-5" d="M462.42,227.23c-8.22.57-21.31-3.55-24.8-20.71-4-19.72,5.44-43.27,22.85-43.42C473,163,483.87,175.45,485,195,486,212.05,478.16,226.09,462.42,227.23Zm-2.23-43.13c-6,.57-9.61,10.5-8.08,19.44,1.11,7.52,5,10.64,8.78,10.21,5.57-.57,8.49-7.94,7.94-15.46C468.13,189.35,464.37,183.82,460.19,184.1Z"/><path class="cls-5" d="M522.73,226.8c.14-2.12.28-4.39.28-6.52A22.15,22.15,0,0,1,505.6,225c-17-2.27-21.18-28.8-10.45-62.28,9.75,1.84,19.92,3.69,19.92,3.69-6.83,19.86-6.83,40.86-.14,42,2.92.57,5.71-.57,8.08-3.69-.42-14.19-1.67-28.94-3.2-41.28,0,0,11.28.42,19.22-1.85-2.09,21.43-1.81,44.41,1,63.56A86,86,0,0,0,522.73,226.8Z"/><path class="cls-5" d="M570.09,224c6.83-19.87,5-41.86-.84-43.56-2.78-.85-5.43.29-7.8,3.55.56,16.17,1.67,33.48,2.79,44.69,0,0-10-.71-19.5-.43a378.36,378.36,0,0,0-.56-62.85s9.89-.42,17.13-3.12v6.25a19.93,19.93,0,0,1,16.58-5c16.86,2.7,21,27.1,13,63.7C581,225.38,570.09,224,570.09,224Z"/><path class="cls-5" d="M619.81,227c-16.15-3-19.08-26.39-16.43-51.08-3.21.14-5.16.29-5.16.29.28-6.39,1.12-12.35,1.12-12.35l5.85-.28a187.64,187.64,0,0,1,4.74-20.43c9.47.14,19.08.57,19.08.57a121.46,121.46,0,0,0-5.85,18.87l13.79-.71a102.47,102.47,0,0,0-1.53,15.6,140.73,140.73,0,0,0-15-1.56c-2.92,17.74-2.09,31.64,1,32.77,3.06,1.28,4.73-5.67,4.59-13.9,9.34,3.26,17.83,7.24,17.83,7.24C641.69,221.41,631.24,229.07,619.81,227Z"/><path class="cls-5" d="M226.63,338.75c-11.42,3.54-29.53,3.54-42.49-1.14,4.18-19.72,4.46-59.58-.83-88.1,22.29-6.24,51-5.11,54.47,18.44,1.67,11.21-4.6,20.29-13.79,24.69,9.47,1.7,17,6.24,19.22,17.87C246,325.41,237.91,335.2,226.63,338.75Zm-24.1-69.66c.84,5.81,1.4,12.48,1.81,19.15,7.8-1.28,13.79-4.68,14.21-10.5C219,270.65,212.84,266.68,202.53,269.09Zm2.37,33.48c.28,7.23.28,14,0,19.29,13,1.28,18.81-3.69,18-10.64C222.17,305.26,215.91,301.86,204.9,302.57Z"/><path class="cls-5" d="M260.9,379.18c-9.62-7.1-18.95-14.33-18.95-14.33,7.66-8.51,14.49-19.86,19.92-32.49C248.36,305.41,239.58,282,239.58,282a188.29,188.29,0,0,1,21.59-2.27s2.51,16.88,8.36,31.64a180.89,180.89,0,0,0,7.39-37.32s10.58,1.85,19.91,3.41C286,306.54,275.94,356.34,260.9,379.18Z"/><path class="cls-5" d="M353.8,323.28a110.34,110.34,0,0,1,37.75-6.38s-3.76,13.76-1.81,26c-16.85-1.42-35.38-2.84-58.37,2.84-.41-37,34.13-48.66,36.92-65.26.83-5.82-1.81-9.08-5.3-8.8-4.45.57-8.35,6-9.89,14.47,0,0-11-6.67-22.42-9.93,5.57-18.58,18.38-30.64,36.08-29.37s25.35,13.48,25.77,25.68C393.64,298.45,362.3,306.68,353.8,323.28Z"/></g><path class="cls-6" d="M154.21,223.23c-13.93,0-26.33-5.68-35-18.44a226.9,226.9,0,0,1,13.93-20.29c6.41,12.63,21.73,18.58,26.89,12.63,4.18-4.69,0-12.21-13.38-18.45-12.67-6-25.63-12.91-26.05-28.66-.27-9.07,5-23.26,22.71-24.54s30.51,9.37,37,23.41a143.76,143.76,0,0,0-19.64,12.34c-2.09-6.1-7.38-10.64-12.26-10.64a5.13,5.13,0,0,0-5.43,6.1c.56,6.1,6.41,8.23,16.44,12.06,14.9,5.39,23.54,14.9,23.82,26.67C183.6,214.15,168.28,223.23,154.21,223.23Z"/><path class="cls-6" d="M221.76,226.49c-1.25-13.05-6.54-25-13.51-28.8.28,8.8.84,16.89,1.53,23.69-9.75,0-21.59,2.42-21.59,2.42,3.9-27.81,3.62-74.34-.28-102.72,0,0,11.15-2.12,23-3.83-1.81,18.73-2.93,43.41-2.79,66,6.83-3.12,12-12.2,13.1-25.53,0,0,13.37,3,22.14,2.27-2.08,13.47-9.19,25.25-21.17,31.77,10.17,4.26,19.22,14.47,21.87,28.09A76.5,76.5,0,0,0,221.76,226.49Z"/><path class="cls-6" d="M262.57,154.42c-6.4,2.13-13.23,0-14.62-5.39-1.4-5,1.11-10.07,6.68-12.48,6.41-3,13.79-.85,15.33,4.82C271.21,146.34,269.54,152,262.57,154.42Zm-12.25,69.23c2.78-17.87,1.67-44.26-.84-61.71a139.4,139.4,0,0,0,19.78-3.12c-1.11,15.89.14,46.82,2.09,62C271.35,220.82,261,222,250.32,223.65Z"/><path class="cls-6" d="M306.87,221.1a19.91,19.91,0,0,1-15.18-6.52,388.91,388.91,0,0,0,4,46.53c-9.75-3.41-21.59-3.41-21.59-3.41,3.21-25.82,4-70.22,2.23-98,8.36-1.56,17.55-2.84,17.55-2.84-.55,2.42-.83,5.4-1.25,8.66a22.23,22.23,0,0,1,14.63-6c13.51-.28,22.7,11.77,23.68,28.09C331.8,202.8,324.7,221,306.87,221.1Zm-8.5-45.4c-5.85,2.27-7.38,11.21-5,18.3,2.23,6.53,8.63,9.23,13.65,6.1,4.46-2.69,5.15-10.92,3.2-16.88C308.4,177.83,303.53,173.72,298.37,175.7Z"/><path class="cls-6" d="M416.49,217.7c-8.5,7-21.45,6.24-28.83,2.27-10.17-5.54-18.81-16.18-20.62-41.57-2-26.25,7.66-41.71,18.25-47.67,9-5.25,19.36-5.82,28.55-1.13,11.29,5.67,13.66,17.73,13.66,33.33a110.22,110.22,0,0,0-22.29,2.84c-.56-10.21-3.07-15.6-7.52-15.32s-11.84,8.8-11.57,26.67c.28,19,6.13,25.11,10,26.11,5,1.13,9.62-3.83,9.62-11.64a140.4,140.4,0,0,1,23.4-1.56C429.59,202.09,425,210.89,416.49,217.7Z"/><path class="cls-6" d="M458.42,223.23c-8.22.57-21.31-3.55-24.8-20.71-4-19.72,5.44-43.27,22.85-43.42C469,159,479.87,171.45,481,191,482,208.05,474.16,222.09,458.42,223.23Zm-2.23-43.13c-6,.57-9.61,10.5-8.08,19.44,1.11,7.52,5,10.64,8.78,10.21,5.57-.57,8.49-7.94,7.94-15.46C464.13,185.35,460.37,179.82,456.19,180.1Z"/><path class="cls-6" d="M518.73,222.8c.14-2.12.28-4.39.28-6.52A22.15,22.15,0,0,1,501.6,221c-17-2.27-21.18-28.8-10.45-62.28,9.75,1.84,19.92,3.69,19.92,3.69-6.83,19.86-6.83,40.86-.14,42,2.92.57,5.71-.57,8.08-3.69-.42-14.19-1.67-28.94-3.2-41.28,0,0,11.28.42,19.22-1.85-2.09,21.43-1.81,44.41,1,63.56A86,86,0,0,0,518.73,222.8Z"/><path class="cls-6" d="M566.09,220c6.83-19.87,5-41.86-.84-43.56-2.78-.85-5.43.29-7.8,3.55.56,16.17,1.67,33.48,2.79,44.69,0,0-10-.71-19.5-.43a378.36,378.36,0,0,0-.56-62.85s9.89-.42,17.13-3.12v6.25a19.93,19.93,0,0,1,16.58-5c16.86,2.7,21,27.1,13,63.7C577,221.38,566.09,220,566.09,220Z"/><path class="cls-6" d="M615.81,223c-16.15-3-19.08-26.39-16.43-51.08-3.21.14-5.16.29-5.16.29.28-6.39,1.12-12.35,1.12-12.35l5.85-.28a187.64,187.64,0,0,1,4.74-20.43c9.47.14,19.08.57,19.08.57a121.46,121.46,0,0,0-5.85,18.87l13.79-.71a102.47,102.47,0,0,0-1.53,15.6,140.73,140.73,0,0,0-15-1.56c-2.92,17.74-2.09,31.64,1,32.77,3.06,1.28,4.73-5.67,4.59-13.9,9.34,3.26,17.83,7.24,17.83,7.24C637.69,217.41,627.24,225.07,615.81,223Z"/><path class="cls-6" d="M222.63,334.75c-11.42,3.54-29.53,3.54-42.49-1.14,4.18-19.72,4.46-59.58-.83-88.1,22.29-6.24,51-5.11,54.47,18.44,1.67,11.21-4.6,20.29-13.79,24.69,9.47,1.7,17,6.24,19.22,17.87C242,321.41,233.91,331.2,222.63,334.75Zm-24.1-69.66c.84,5.81,1.4,12.48,1.81,19.15,7.8-1.28,13.79-4.68,14.21-10.5C215,266.65,208.84,262.68,198.53,265.09Zm2.37,33.48c.28,7.23.28,14,0,19.29,13,1.28,18.81-3.69,18-10.64C218.17,301.26,211.91,297.86,200.9,298.57Z"/><path class="cls-6" d="M256.9,375.18c-9.62-7.1-18.95-14.33-18.95-14.33,7.66-8.51,14.49-19.86,19.92-32.49C244.36,301.41,235.58,278,235.58,278a188.29,188.29,0,0,1,21.59-2.27s2.51,16.88,8.36,31.64a180.89,180.89,0,0,0,7.39-37.32s10.58,1.85,19.91,3.41C282,302.54,271.94,352.34,256.9,375.18Z"/><path class="cls-6" d="M349.8,319.28a110.34,110.34,0,0,1,37.75-6.38s-3.76,13.76-1.81,26c-16.85-1.42-35.38-2.84-58.37,2.84-.41-37,34.13-48.66,36.92-65.26.83-5.82-1.81-9.08-5.3-8.8-4.45.57-8.35,6-9.89,14.47,0,0-11-6.67-22.42-9.93,5.57-18.58,18.38-30.64,36.08-29.37s25.35,13.48,25.77,25.68C389.64,294.45,358.3,302.68,349.8,319.28Z"/></svg>