<svg id="Layer_1" data-name="Layer 1" xmlns="http://www.w3.org/2000/svg" xmlns:xlink="http://www.w3.org/1999/xlink" viewBox="0 0 1401.47 292.24"><defs><style>.cls-1,.cls-8{fill:none;}.cls-2{fill:#050505;opacity:0.3;}.cls-3{fill:#a5a0a4;}.cls-4{fill:#999698;}.cls-5{fill:#878286;}.cls-6{fill:#6d696d;}.cls-7{fill:#bcb7bb;}.cls-8{stroke:#231b21;stroke-miterlimit:10;stroke-width:2px;}.cls-9{fill:#0c1835;}.cls-10{clip-path:url(#clip-path);}</style><clipPath id="clip-path"><rect class="cls-1" x="-1620" y="-590.53" width="1600" height="900"/></clipPath></defs><ellipse class="cls-2" cx="527.51" cy="208.63" rx="102.16" ry="24.11" transform="translate(-6.58 17.47) rotate(-1.89)"/><path class="cls-3" d="M572.61,175.07c3.84,1.68,6.31,4.78,9.21,7.94,16.52,17.93,38.43-6.15,52.07-17.29a32.2,32.2,0,0,0-9.34-11.62c-10.62-3.34-21.55-5.79-33.31-6.06C577.83,147.73,573.8,163,572.61,175.07Z"/><path class="cls-3" d="M509.73,159.81c-2-10.15-6.22-21.09-15.29-28.65-6.76-5.63-14.8-7.42-23.23-7.34-14.25,6.91-33,21.06-43.64,31.94a14.78,14.78,0,0,0-3.94,7.2c17.47,10.57,35.72,20,55.72,27.34,8.42,3.08,17.38,6,26.63,7.11A67.17,67.17,0,0,0,509.73,159.81Z"/><path class="cls-4" d="M579.36,134c-31.41-9.66-64.64-16.5-98.49-13.82a48.34,48.34,0,0,0-9.66,3.67c8.43-.08,16.47,1.71,23.23,7.34,9.07,7.56,13.34,18.5,15.29,28.65a67.17,67.17,0,0,1-3.75,37.6,67.07,67.07,0,0,0,7.91.53c14.78.08,22.51-6.15,31.51-14.57,5.34-5,12.4-9.85,21.15-9.59a15.91,15.91,0,0,1,6.06,1.29c1.19-12.11,5.22-27.34,18.63-27,11.76.27,22.69,2.72,33.31,6.06C612.82,144.46,594.19,138.53,579.36,134Z"/><path class="cls-5" d="M524.52,196.68a40.42,40.42,0,0,1-10.63,1.26c-12.05-.06-23.73-3.69-34.54-7.64-20-7.3-38.25-16.77-55.72-27.34-1.32,5.78.54,12.24,2.76,17.82,2.9,7.3,6.2,14.69,11.37,21.18,12.79,16,35.18,17.23,56.95,18.54,6.54.4,19.34.95,34.51.54-.64-4.12-1.37-8.24-2.09-12.35C526.47,205,526.63,200.16,524.52,196.68Z"/><path class="cls-4" d="M545.45,194.14c0-3.57,0-7.35.32-11.11l-.37.34c-6.56,6.14-12.45,11.09-20.88,13.31,2.11,3.48,2,8.28,2.61,12,.72,4.11,1.45,8.23,2.09,12.35,5.78-.16,11.9-.47,18.15-1l-.12-.34C544.62,211.67,545.38,202.38,545.45,194.14Z"/><path class="cls-6" d="M633.89,165.72c-12.08,9.87-30.65,29.86-46.21,21.85l-2.45,6.86c-2.52,7-4.59,14.3-7.33,21.31,11.37-2.47,22-6,30.54-11S633,190.68,635.06,180.5a1.88,1.88,0,0,0,.48-.91A23.83,23.83,0,0,0,633.89,165.72Z"/><path class="cls-5" d="M561.39,201.3c0-3.84.81-7.91.37-11.72-.61-5.21-3.22-7.09-6.91-10.12l-.18,0a1.69,1.69,0,0,1-2.35-1.54,46.11,46.11,0,0,0-6.55,5.07c-.3,3.76-.3,7.54-.32,11.11-.07,8.24-.83,17.53,1.8,25.59l.12.34c4.71-.38,9.49-.88,14.25-1.52C560.42,213.11,561.37,206.21,561.39,201.3Z"/><path class="cls-5" d="M581.45,186.37a45.81,45.81,0,0,1,3.43,9.09c.12-.34.23-.69.35-1l2.45-6.86a21,21,0,0,1-5.86-4.56c-4.19-4.56-7.46-9-15.27-9.23A23.7,23.7,0,0,0,556.08,176C567.89,173,576.4,176.4,581.45,186.37Z"/><path class="cls-5" d="M584.88,195.46a45.81,45.81,0,0,0-3.43-9.09c-5.05-10-13.56-13.38-25.37-10.42a31.44,31.44,0,0,0-3.76,2,1.69,1.69,0,0,0,2.35,1.54l.18,0c3.69,3,6.3,4.91,6.91,10.12.44,3.81-.34,7.88-.37,11.72,0,4.91-1,11.81.23,17.25,5.49-.73,11-1.65,16.28-2.81C580.51,209.07,582.52,202.13,584.88,195.46Z"/><path class="cls-7" d="M610.32,179.63c-3.12,1.86-6.09,3.88-9.19,5.74-2.73,1.63-5.58,2.75-8.19,2.69a.38.38,0,0,1-.21,0,.29.29,0,0,1-.15,0h-.14a5.85,5.85,0,0,1-1.76-.29h-.06a.05.05,0,0,1,0,0,8.37,8.37,0,0,1-3.9-2.95c-1.21-1.53-4.65-8.59-10.32-11.8A8,8,0,0,0,573,172a32.21,32.21,0,0,0-6.87.48c-6.65.93-12.6,4-17.74,7.33-1.25.81-3.49,2.53-6.33,4.45H542c-4.07,2.84-9.32,6.1-14.79,7.79-7.45,2.32-15.13,2.33-20,2.08h0c-1.19,0-2.21-.1-3-.14-6.41-.45-14.22-2.92-21.56-5.64h-.1c-2.34-.87-4.59-1.77-6.78-2.64-9.66-3.77-16.85-8.6-19.7-9.52-5.08-1.64-20.24-5.89-27.25-11-3.8-2.82-2.27-7.94-2.21-8.23,0,0,0,0-.07.08h0c-2.43,2.29-3.59,4.57-3,6.89.49,2,2.23,4,5.47,6.15,7.77,5.2,17.76,7.84,23.15,11.08,3.19,1.93,7.06,6.55,12.49,8a39.56,39.56,0,0,0,8.63.72h.07a44.1,44.1,0,0,1,5.64.27H479a.22.22,0,0,0,.13,0c.09,0,.17.1.26.13a.06.06,0,0,0,.06,0l1.13.38a6.64,6.64,0,0,0,1.23.17c1.14.45,2.33.94,3.35,1.43a.11.11,0,0,0,.08,0l0,0a7.33,7.33,0,0,1,2.53,1.7c.7.92,4.55,9.79,6.46,13.44.34.76.69,1.51,1.14,2.3.9,1.58-.4-9.72-.49-11.6a25.42,25.42,0,0,0,3.45.83,45.27,45.27,0,0,0,19.33-1.26h0v0h.06c1.33-.36,2.66-.75,4-1.18.09.21.16.41.24.66,1.94,5.18,6.08,16.66,6.1,16.66.72-7.09,1.22-12.75-.22-15.88,3.34-4,9.31-6.94,12.69-9.19,1.67-1.1,3.34-2.42,5.14-3.71l1.09-.77a35.58,35.58,0,0,1,8.5-4.6,29.09,29.09,0,0,1,10-1.6,19.59,19.59,0,0,1,15.13,8.21,12,12,0,0,1,1.53,3.09c2,6.41-1,14.57-1.52,19.31v0h0c5-4.69,13.64-13,19.06-17.39a21.63,21.63,0,0,1,2.27-1.61h0c7.45-5,20-10.55,25.49-18.37,0,0,0,0,0,0C628.48,169.67,613.79,177.27,610.32,179.63Z"/><path class="cls-6" d="M512.66,221.15c-1.77-2.81-11.07-3.16-15.64-4.62-2.79-.88-3.42-3.38-6.21-4.09-4.19-1.12-8.52-1.11-12.87-1.35-4.05-.25-4.17-2.34-5.42-3.81-2.72-3.16-6-6.83-10.09-6.72-1.51.05-1.95,1.5-1,2.31,2.2,1.85,6.21,7.59,2.88,7.67-1.66.06-5.77-2.36-7.25-2.62-4-.88-10.63-1.29-18.19-8.49-.47-.44-.94-.91-1.41-1.42-2.37-2.48-4.33-8.08-7.95-9.92h0a.68.68,0,0,0,.08.17l.06.11a.21.21,0,0,0,0,.1c.54,1.17,1.06,2.21,1.56,3.2a55.1,55.1,0,0,0,5.09,8.93c.22.31.44.62.66.89a10.48,10.48,0,0,0,3.15,3.54,40.87,40.87,0,0,0,8.87,6.42,28.37,28.37,0,0,0,2.91,1.47c.65.3,1.25.55,1.86.81s1.3.55,1.91.81a66.13,66.13,0,0,0,14.77,4.26c6.14,1.19,35.79,2.57,42.26,2.42Z"/><path class="cls-7" d="M520,119.16a146.65,146.65,0,0,0-28,0c-8.29.77-19.76,1-26.09,5.57-4,2.94-9.9,7.13-14.6,11.28,0,0,0,0,0,0,9.2-2.76,11.58-5.4,17.25-7.41,2.93,0,5.77-2.69,8.84-2.65,6.06,0,11.29,5.64,15.36,8.72a46.84,46.84,0,0,1,17.7,29.23,1,1,0,0,1,.05.34c.07.32.13.66.18,1,3-5.77,1.55-14-.24-20.05-1.23-4.16-3.49-9.48.77-13,2-1.68,7.17-2.77,10-3.32,17.77-3.51,49.81,7.23,58.26,5.09C562.22,126.44,539.37,121.06,520,119.16Z"/><path class="cls-8" d="M633.89,165.72c-.35.28-.7.58-1.06.88.36-.3.71-.6,1.06-.88a32.2,32.2,0,0,0-9.34-11.62c-11.73-9.64-30.36-15.57-45.19-20.13l-.08,0c-17.14-7.52-39.94-12.9-59.32-14.79a146.65,146.65,0,0,0-28,0c-8.29.77-19.76,1-26.09,5.57-4,2.94-9.9,7.13-14.6,11.28h0a184.49,184.49,0,0,0-23.66,19.76,13.2,13.2,0,0,0-1.11,1.28h0c-2.43,2.29-3.59,4.57-3,6.89v0c-.92,5.51.86,11.57,2.95,16.83,1,2.44,2,4.89,3.1,7.31h0a.68.68,0,0,0,.08.17l.06.11h0a.21.21,0,0,0,0,.1l.09.19c.13.28.27.56.4.83.37.76.72,1.49,1.07,2.18a55.06,55.06,0,0,0,5.1,8.93c.21.31.43.62.65.89a10.48,10.48,0,0,0,3.15,3.54,40.87,40.87,0,0,0,8.87,6.42c.72.41,1.43.77,2.14,1.11,1.33.66,2.69,1.25,4.1,1.8l.44.18a66.13,66.13,0,0,0,14.77,4.26c6.14,1.19,35.79,2.57,42.26,2.42l0-.07h0c5,.06,10.59,0,16.56-.11,5.78-.16,11.9-.47,18.15-1,4.71-.38,9.49-.88,14.25-1.52,5.49-.73,11-1.65,16.28-2.81.61-1.56,1.18-3.13,1.73-4.71-.55,1.58-1.12,3.15-1.73,4.71,11.37-2.47,22-6,30.54-11S633,190.68,635.06,180.5a1.88,1.88,0,0,0,.48-.91A23.83,23.83,0,0,0,633.89,165.72Zm-153.35,25h0l1.66.6-1.76-.63Zm4.63,1.62h0c-.82-.27-1.63-.55-2.44-.84Zm34.56,5.25-.26,0Zm112.95-30.88-1,.87Zm-1.27,1.08-.94.81ZM630,169.05l-.29.25ZM580.4,208.79h0c-.18.55-.37,1.11-.57,1.67C580,209.91,580.21,209.35,580.4,208.79Z"/><ellipse class="cls-2" cx="961.51" cy="168.44" rx="84.05" ry="24.91" transform="translate(-6.33 41.31) rotate(-2.45)"/><path class="cls-3" d="M998.6,133.75c3.16,1.74,5.19,4.94,7.58,8.2,13.58,18.54,31.6-6.35,42.82-17.86a33,33,0,0,0-7.68-12c-8.74-3.46-17.72-6-27.4-6.26C1002.9,105.5,999.58,121.23,998.6,133.75Z"/><path class="cls-3" d="M946.89,118c-1.61-10.49-5.12-21.8-12.58-29.61-5.56-5.82-12.17-7.67-19.11-7.59-11.72,7.15-27.11,21.77-35.89,33a16.67,16.67,0,0,0-3.24,7.45c14.37,10.92,29.38,20.71,45.83,28.26,6.93,3.18,14.29,6.15,21.9,7.34A86.28,86.28,0,0,0,946.89,118Z"/><path class="cls-4" d="M1004.16,91.27c-25.84-10-53.17-17-81-14.28a35.63,35.63,0,0,0-7.94,3.79c6.94-.08,13.55,1.77,19.11,7.59,7.46,7.81,11,19.12,12.58,29.61a86.28,86.28,0,0,1-3.09,38.86,42.89,42.89,0,0,0,6.51.55c12.15.08,18.51-6.36,25.92-15.06,4.38-5.15,10.19-10.18,17.38-9.91a10.92,10.92,0,0,1,5,1.33c1-12.52,4.3-28.25,15.32-27.93,9.68.28,18.66,2.8,27.4,6.26C1031.68,102.12,1016.35,96,1004.16,91.27Z"/><path class="cls-5" d="M959.05,156.09a27.09,27.09,0,0,1-8.74,1.3c-9.91-.06-19.52-3.81-28.41-7.89-16.45-7.55-31.46-17.34-45.83-28.26-1.09,6,.44,12.65,2.27,18.41,2.38,7.55,5.1,15.19,9.35,21.9,10.52,16.57,28.94,17.8,46.84,19.16a265.48,265.48,0,0,0,28.39.55c-.53-4.26-1.13-8.51-1.73-12.76C960.65,164.64,960.78,159.69,959.05,156.09Z"/><path class="cls-4" d="M976.26,153.46c0-3.69,0-7.59.27-11.48l-.3.35c-5.4,6.34-10.25,11.47-17.18,13.76,1.73,3.6,1.6,8.55,2.14,12.41.6,4.25,1.2,8.5,1.73,12.76,4.75-.16,9.78-.48,14.93-1,0-.12-.08-.23-.11-.35C975.58,171.58,976.21,162,976.26,153.46Z"/><path class="cls-6" d="M1049,124.09c-9.94,10.2-25.2,30.86-38,22.58-.68,2.36-1.34,4.73-2,7.09-2.07,7.22-3.77,14.77-6,22,9.36-2.56,18.11-6.18,25.12-11.34s20.23-14.56,21.9-25.09a2.18,2.18,0,0,0,.39-.93A30.52,30.52,0,0,0,1049,124.09Z"/><path class="cls-5" d="M989.38,160.86c0-4,.66-8.18.29-12.11-.5-5.38-2.64-7.33-5.68-10.46l-.14,0a1.47,1.47,0,0,1-1.94-1.59,39.83,39.83,0,0,0-5.38,5.24c-.25,3.89-.25,7.79-.27,11.48,0,8.52-.68,18.12,1.48,26.45,0,.12.07.23.11.35,3.87-.39,7.8-.91,11.71-1.57C988.58,173.06,989.35,165.93,989.38,160.86Z"/><path class="cls-5" d="M1005.87,145.43a55.64,55.64,0,0,1,2.82,9.39c.1-.35.19-.71.29-1.06.68-2.36,1.34-4.73,2-7.09a18.55,18.55,0,0,1-4.82-4.72c-3.45-4.7-6.14-9.29-12.57-9.53a16.05,16.05,0,0,0-8.6,2.24C994.72,131.6,1001.72,135.13,1005.87,145.43Z"/><path class="cls-5" d="M1008.69,154.82a55.64,55.64,0,0,0-2.82-9.39c-4.15-10.3-11.15-13.83-20.86-10.77a25.42,25.42,0,0,0-3.1,2.08,1.47,1.47,0,0,0,1.94,1.59l.14,0c3,3.13,5.18,5.08,5.68,10.46.37,3.93-.28,8.14-.29,12.11,0,5.07-.8,12.2.18,17.83,4.52-.76,9-1.71,13.39-2.9C1005.1,168.89,1006.75,161.72,1008.69,154.82Z"/><path class="cls-7" d="M1029.62,138.47c-2.57,1.91-5,4-7.56,5.93-2.25,1.69-4.59,2.83-6.74,2.78a.26.26,0,0,1-.17,0,.15.15,0,0,1-.12,0h-.12a4.32,4.32,0,0,1-1.45-.3h0s0,0,0,0a7.18,7.18,0,0,1-3.2-3c-1-1.59-3.83-8.88-8.49-12.2a5.62,5.62,0,0,0-2.78-.93,21,21,0,0,0-5.64.5c-5.47,1-10.37,4.1-14.59,7.57-1,.84-2.88,2.62-5.22,4.6h-.06c-3.35,2.93-7.67,6.3-12.16,8.05a38.82,38.82,0,0,1-16.45,2.15h0c-1,0-1.82-.1-2.49-.15-5.27-.46-11.7-3-17.74-5.82h-.07c-1.93-.9-3.78-1.83-5.58-2.73-7.95-3.89-13.86-8.89-16.2-9.84-4.18-1.7-16.66-6.09-22.42-11.41-3.12-2.91-1.86-8.21-1.82-8.5,0,0,0,0-.05.07h0c-2,2.37-3,4.73-2.47,7.13.4,2.05,1.83,4.12,4.5,6.36,6.39,5.37,14.6,8.09,19,11.45,2.63,2,5.81,6.77,10.28,8.28a26,26,0,0,0,7.09.75h.06a28.54,28.54,0,0,1,4.64.28h.06s.08,0,.11,0,.14.11.22.14,0,0,.05,0l.93.4a4.44,4.44,0,0,0,1,.17c.93.47,1.91,1,2.76,1.48,0,0,0,0,.06,0l0,0a6.11,6.11,0,0,1,2.08,1.75c.57,1,3.74,10.12,5.31,13.89.28.78.57,1.56.94,2.38.74,1.63-.33-10-.41-12a17.3,17.3,0,0,0,2.84.85c5.27,1.19,10.76.41,15.9-1.29h0v0h.05c1.1-.38,2.19-.78,3.25-1.23.07.22.13.43.2.68,1.59,5.36,5,17.23,5,17.23.59-7.34,1-13.18-.18-16.42,2.75-4.17,7.66-7.17,10.44-9.49,1.37-1.15,2.75-2.51,4.23-3.84l.89-.8a28.05,28.05,0,0,1,7-4.75,19.34,19.34,0,0,1,8.25-1.65c5,.11,10,3.88,12.44,8.48a13.56,13.56,0,0,1,1.26,3.2c1.63,6.62-.83,15-1.25,19.95v0h0c4.13-4.85,11.23-13.47,15.68-18a22.1,22.1,0,0,1,1.87-1.67h0c6.13-5.22,16.46-10.91,21-19a0,0,0,0,1,0,0C1044.55,128.17,1032.47,136,1029.62,138.47Z"/><path class="cls-6" d="M949.3,181.37c-1.46-2.9-9.11-3.26-12.87-4.76-2.29-.92-2.81-3.5-5.11-4.24-3.44-1.15-7-1.14-10.58-1.39-3.33-.26-3.43-2.42-4.46-3.93-2.23-3.27-4.94-7.07-8.3-7a1.4,1.4,0,0,0-.84,2.39c1.82,1.91,5.11,7.85,2.37,7.93-1.37.06-4.74-2.44-6-2.71-3.3-.91-8.75-1.33-15-8.77-.38-.45-.77-.94-1.15-1.47-1.95-2.56-3.57-8.35-6.54-10.25h0a1.13,1.13,0,0,0,.07.18l0,.11a.19.19,0,0,0,0,.1c.45,1.21.87,2.28,1.28,3.31a62.51,62.51,0,0,0,4.19,9.23c.18.32.36.64.54.92a10.39,10.39,0,0,0,2.59,3.65,35.12,35.12,0,0,0,7.3,6.64,22.07,22.07,0,0,0,2.39,1.52c.53.31,1,.57,1.53.84s1.07.57,1.57.84a46.1,46.1,0,0,0,12.15,4.4c5,1.23,29.44,2.65,34.76,2.5Z"/><path class="cls-7" d="M955.3,76a96.68,96.68,0,0,0-23.06,0c-6.81.8-16.24,1-21.45,5.77-3.27,3-8.14,7.36-12,11.66,0,0,0,0,0,0,7.57-2.85,9.53-5.58,14.19-7.66,2.41,0,4.74-2.77,7.27-2.74,5,0,9.29,5.83,12.63,9,8.2,7.79,12.94,18.91,14.56,30.2a1.47,1.47,0,0,1,0,.36c.06.33.11.69.15,1,2.43-6,1.27-14.42-.19-20.72-1-4.3-2.88-9.8.62-13.42,1.67-1.73,5.9-2.86,8.2-3.43,14.62-3.62,41,7.48,47.93,5.27C990.05,83.49,971.26,77.93,955.3,76Z"/><path class="cls-8" d="M1049,124.09l-.87.9.87-.9a33,33,0,0,0-7.68-12c-9.64-10-25-16.09-37.16-20.81l-.07,0C990,83.48,971.23,77.93,955.3,76a96.68,96.68,0,0,0-23.06,0c-6.81.8-16.24,1-21.45,5.77-3.27,3-8.14,7.36-12,11.66h0a166.54,166.54,0,0,0-19.46,20.42c-.33.43-.63.87-.92,1.32h0c-2,2.37-3,4.73-2.47,7.13v0c-.75,5.7.71,12,2.43,17.39.79,2.53,1.64,5.06,2.55,7.56h0a1.13,1.13,0,0,0,.07.18l0,.1h0a.19.19,0,0,0,0,.1l.08.2c.1.29.21.57.32.86.3.78.6,1.54.88,2.25a62.51,62.51,0,0,0,4.19,9.23c.18.32.36.64.54.92a10.39,10.39,0,0,0,2.59,3.65,35.12,35.12,0,0,0,7.3,6.64c.59.42,1.18.8,1.76,1.15a36.61,36.61,0,0,0,3.36,1.85l.37.2a46.1,46.1,0,0,0,12.15,4.4c5,1.23,29.44,2.65,34.76,2.5l0-.08h0c4.11.07,8.71.06,13.62-.11,4.74-.16,9.78-.48,14.93-1,3.87-.39,7.8-.91,11.71-1.57,4.52-.76,9-1.71,13.39-2.9,9.36-2.56,18.11-6.18,25.12-11.34s20.23-14.56,21.9-25.09a2.18,2.18,0,0,0,.39-.93A30.52,30.52,0,0,0,1049,124.09ZM922.88,149.94h0l1.36.61-1.45-.65Zm3.81,1.67h0l-2-.86ZM955.11,157l-.21,0Zm92.89-31.9-.82.87Zm-1,1.12-.77.82Zm-1.19,1.28-.26.28ZM1004.64,170l-.09.35Z"/><ellipse class="cls-2" cx="749.77" cy="169.66" rx="108.73" ry="22.24" transform="translate(-8.28 42) rotate(-3.19)"/><path class="cls-3" d="M796.9,137.4c4.13,1.43,6.84,4.22,10,7,18,16.05,40.73-6.79,55-17.46-2.18-4-5.76-7.44-10.23-10.44a144.59,144.59,0,0,0-35.6-4.61C801.77,112.05,797.87,126.2,796.9,137.4Z"/><path class="cls-3" d="M729.61,125.18c-2.33-9.3-7.16-19.27-17-26-7.34-5-15.94-6.41-24.91-6.09-15,6.79-34.54,20.39-45.62,30.72a13.26,13.26,0,0,0-4,6.76,362.16,362.16,0,0,0,60,23.57c9,2.59,18.64,5,28.51,5.77A54.32,54.32,0,0,0,729.61,125.18Z"/><path class="cls-4" d="M803.05,99.31c-33.68-8-69.21-13.31-105.17-9.85a56.75,56.75,0,0,0-10.18,3.67c9-.32,17.57,1.1,24.91,6.09,9.84,6.69,14.67,16.66,17,26a54.32,54.32,0,0,1-3,34.77c2.79.22,5.6.32,8.43.26,15.73-.37,23.8-6.33,33.17-14.36,5.54-4.75,12.93-9.45,22.25-9.46a19.09,19.09,0,0,1,6.48,1c1-11.2,4.87-25.35,19.14-25.47a144.59,144.59,0,0,1,35.6,4.61C838.91,108,818.94,103.08,803.05,99.31Z"/><path class="cls-5" d="M746.28,158.73A49.2,49.2,0,0,1,735,160.21c-12.82.3-25.34-2.71-36.94-6a362.16,362.16,0,0,1-60-23.57c-1.26,5.36.89,11.27,3.39,16.35,3.27,6.64,7,13.36,12.64,19.19,14,14.4,37.87,14.85,61.07,15.42,7,.17,20.6.31,36.73-.52-.79-3.78-1.67-7.55-2.54-11.32C748.57,166.31,748.61,161.88,746.28,158.73Z"/><path class="cls-4" d="M768.49,155.78c-.07-3.3-.17-6.78.06-10.25l-.38.32c-6.83,5.85-13,10.59-21.89,12.88,2.33,3.15,2.29,7.58,3.08,11,.87,3.77,1.75,7.54,2.54,11.32,6.15-.32,12.66-.78,19.3-1.43l-.15-.31C768.05,172,768.63,163.38,768.49,155.78Z"/><path class="cls-6" d="M861.87,127c-12.61,9.45-31.85,28.43-48.61,21.5-.82,2.13-1.62,4.26-2.44,6.39-2.5,6.52-4.51,13.32-7.26,19.87,12.05-2.61,23.29-6.16,32.22-11,9.11-4.94,25.81-13.72,27.71-23.16a1.62,1.62,0,0,0,.49-.85A19.35,19.35,0,0,0,861.87,127Z"/><path class="cls-5" d="M785.64,161.91c-.08-3.54.65-7.32.08-10.81-.78-4.79-3.6-6.45-7.6-9.14l-.19,0c-1.55.4-2.6-.48-2.54-1.35a47.45,47.45,0,0,0-6.84,4.87c-.23,3.47-.13,6.95-.06,10.25.14,7.6-.44,16.18,2.56,23.53l.15.31c5-.49,10.07-1.09,15.12-1.82C784.9,172.82,785.73,166.43,785.64,161.91Z"/><path class="cls-5" d="M806.59,147.56a38.68,38.68,0,0,1,3.88,8.27l.35-1c.82-2.13,1.62-4.26,2.44-6.39a22.42,22.42,0,0,1-6.35-4c-4.58-4.07-8.17-8.07-16.49-8.05a28.36,28.36,0,0,0-11.08,2.3C791.83,135.62,801,138.52,806.59,147.56Z"/><path class="cls-5" d="M810.47,155.83a38.68,38.68,0,0,0-3.88-8.27c-5.62-9-14.76-11.94-27.25-8.87a35.46,35.46,0,0,0-4,2c-.06.87,1,1.75,2.54,1.35l.19,0c4,2.69,6.82,4.35,7.6,9.14.57,3.49-.16,7.27-.08,10.81.09,4.52-.74,10.91.68,15.89,5.82-.83,11.62-1.84,17.24-3.06C806.17,168.51,808.13,162.06,810.47,155.83Z"/><path class="cls-7" d="M837.15,140.5c-3.28,1.8-6.38,3.75-9.64,5.56a19,19,0,0,1-8.65,2.72.52.52,0,0,1-.21,0,.3.3,0,0,1-.16,0h-.16a7.44,7.44,0,0,1-1.88-.22h-.06s0,0-.06,0a8.84,8.84,0,0,1-4.22-2.6c-1.32-1.38-5.17-7.78-11.28-10.57a9.42,9.42,0,0,0-3.62-.73,39,39,0,0,0-7.28.64c-7.06,1-13.31,4-18.69,7.27-1.32.79-3.66,2.44-6.64,4.29h-.07A63.72,63.72,0,0,1,749,154.42a71.58,71.58,0,0,1-21.23,2.51h0c-1.26,0-2.35,0-3.22-.05-6.83-.22-15.21-2.26-23.09-4.56h-.1c-2.51-.73-4.93-1.5-7.29-2.24-10.37-3.19-18.15-7.43-21.2-8.19-5.45-1.37-21.69-4.84-29.28-9.39C639.45,130,641,125.26,641,125c0,0,0,0-.07.07h0c-2.53,2.18-3.71,4.32-3,6.44.58,1.81,2.48,3.61,6,5.51,8.4,4.56,19.09,6.7,24.91,9.54,3.45,1.67,7.69,5.83,13.5,7a48.69,48.69,0,0,0,9.2.41h.07a56.34,56.34,0,0,1,6,.08h.08l.14,0c.1,0,.19.09.29.11a.06.06,0,0,0,.06,0l1.21.32a8.86,8.86,0,0,0,1.32.12c1.22.38,2.5.79,3.6,1.22a.09.09,0,0,0,.08,0l0,0a7.91,7.91,0,0,1,2.74,1.5c.77.83,5.09,8.89,7.22,12.19a21.64,21.64,0,0,0,1.27,2.09c1,1.43-.67-8.94-.82-10.68a30.1,30.1,0,0,0,3.69.66A55.33,55.33,0,0,0,739,160h0l0,0h.06c1.4-.37,2.81-.77,4.17-1.21.1.19.18.38.27.6,2.2,4.72,6.89,15.19,6.91,15.19.59-6.57,1-11.79-.64-14.64,3.46-3.82,9.74-6.67,13.28-8.84,1.74-1.07,3.49-2.33,5.37-3.57l1.14-.75a39.42,39.42,0,0,1,8.93-4.48,34.68,34.68,0,0,1,10.62-1.77c6.49-.08,13,3.1,16.31,7.11a10.64,10.64,0,0,1,1.71,2.82c2.27,5.85-.71,13.45-1.13,17.84v0h0c5.21-4.47,14.19-12.42,19.84-16.59a27,27,0,0,1,2.37-1.55h0c7.81-4.87,21-10.31,26.66-17.68,0,0,0,0,0,0C856.22,130.78,840.78,138.22,837.15,140.5Z"/><path class="cls-6" d="M734.29,181.64c-2-2.54-11.86-2.59-16.77-3.8-3-.73-3.72-3-6.71-3.59-4.48-.91-9.09-.77-13.72-.86-4.32-.11-4.51-2-5.87-3.36-3-2.83-6.56-6.12-10.9-5.9-1.61.09-2.05,1.44-1,2.16,2.4,1.64,6.81,6.82,3.27,7-1.77.1-6.2-2-7.78-2.21-4.29-.69-11.35-.87-19.58-7.28-.51-.4-1-.82-1.54-1.27-2.58-2.22-4.81-7.33-8.7-8.91h0l.09.15.07.1s0,.06,0,.09c.61,1.07,1.18,2,1.74,2.91a49.6,49.6,0,0,0,5.65,8.08c.24.28.48.55.72.8a10.09,10.09,0,0,0,3.44,3.16,43,43,0,0,0,9.6,5.66,32.72,32.72,0,0,0,3.13,1.28l2,.69c.71.25,1.4.47,2.05.69a78.81,78.81,0,0,0,15.83,3.49c6.56.92,38.15,1.32,45,1Z"/><path class="cls-7" d="M739.46,87.41a181.21,181.21,0,0,0-29.83.79c-8.8,1-21,1.5-27.62,5.91-4.15,2.83-10.35,6.87-15.25,10.83,0,0,0,0,0,0,9.72-2.81,12.19-5.31,18.17-7.34,3.11-.11,6.07-2.64,9.34-2.7,6.44-.14,12.16,4.87,16.57,7.59a42.67,42.67,0,0,1,19.57,26.42.75.75,0,0,1,.06.32c.09.29.16.61.22.9,3-5.41,1.29-12.91-.76-18.48-1.42-3.8-4-8.63.48-12,2.11-1.61,7.56-2.76,10.53-3.35,18.82-3.76,53.18,5.21,62.13,3C784.61,92.88,760.16,88.58,739.46,87.41Z"/><path class="cls-8" d="M861.87,127l-1.1.84,1.1-.84c-2.18-4-5.76-7.44-10.23-10.44-12.73-8.54-32.7-13.46-48.6-17.23l-.09,0c-18.42-6.43-42.83-10.71-63.49-11.88a181.21,181.21,0,0,0-29.83.79c-8.8,1-21,1.5-27.62,5.91-4.15,2.83-10.35,6.87-15.25,10.83h0a192.87,192.87,0,0,0-24.68,18.9,16.22,16.22,0,0,0-1.15,1.22h0c-2.53,2.18-3.71,4.32-3,6.44v0c-.83,5.11,1.21,10.64,3.57,15.43,1.09,2.22,2.24,4.45,3.49,6.65h0l.09.15.07.1h0a.41.41,0,0,0,0,.09l.1.17c.14.26.29.51.44.76q.62,1,1.2,2a49.6,49.6,0,0,0,5.65,8.08c.24.28.48.55.72.8a10.09,10.09,0,0,0,3.44,3.16,43,43,0,0,0,9.6,5.66c.77.36,1.54.68,2.31,1,1.4.55,2.85,1.06,4.32,1.51l.56.18a78.62,78.62,0,0,0,15.82,3.49c6.56.92,38.15,1.32,45,1l0-.06h0c5.32-.08,11.27-.25,17.61-.58,6.15-.32,12.66-.78,19.3-1.43,5-.49,10.07-1.09,15.12-1.82,5.82-.83,11.62-1.84,17.24-3.06,12.05-2.61,23.29-6.16,32.22-11,9.11-4.94,25.81-13.72,27.71-23.16a1.62,1.62,0,0,0,.49-.85A19.35,19.35,0,0,0,861.87,127Zm-4.09,3.18-.31.25Zm2.83-2.22-1.05.81Zm-1.34,1-1,.77ZM699.33,154.54h0l1.78.5-1.9-.53Zm5,1.35h0l-2.62-.71C702.57,155.44,703.44,155.67,704.3,155.89Zm36.91,3.83-.28,0ZM804.66,172c0,.09-.07.19-.11.29C804.59,172.2,804.62,172.1,804.66,172Z"/><ellipse class="cls-2" cx="1210.66" cy="215.67" rx="147.07" ry="28.65" transform="matrix(1, -0.03, 0.03, 1, -5.32, 32.35)"/><path class="cls-3" d="M1275.6,175.79c5.54,2,9.09,5.68,13.27,9.43,23.78,21.31,55.32-7.3,75-20.54-2.81-5.23-7.52-9.79-13.45-13.81-15.29-4-31-6.87-48-7.19C1283.13,143.31,1277.32,161.4,1275.6,175.79Z"/><path class="cls-3" d="M1185.07,157.66c-2.81-12.06-9-25.06-22-34-9.74-6.69-21.31-8.82-33.46-8.72-20.51,8.21-47.46,25-62.82,37.94a17,17,0,0,0-5.68,8.56c25.15,12.56,51.44,23.82,80.23,32.49,12.13,3.66,25,7.07,38.34,8.44C1186.54,188,1188.56,172.67,1185.07,157.66Z"/><path class="cls-4" d="M1285.33,127c-45.24-11.48-93.08-19.61-141.83-16.43a80.08,80.08,0,0,0-13.91,4.37c12.15-.1,23.72,2,33.46,8.72,13.06,9,19.21,22,22,34,3.49,15,1.47,30.34-5.41,44.67,3.77.39,7.57.62,11.39.64,21.28.09,32.41-7.31,45.38-17.31,7.68-5.93,17.85-11.71,30.44-11.4a27,27,0,0,1,8.73,1.53c1.72-14.39,7.53-32.48,26.82-32.11,16.95.32,32.68,3.22,48,7.19C1333.51,139.42,1306.68,132.37,1285.33,127Z"/><path class="cls-5" d="M1206.36,201.47a70.54,70.54,0,0,1-15.31,1.5c-17.35-.08-34.17-4.39-49.73-9.08-28.79-8.67-55.08-19.93-80.23-32.49-1.9,6.86.78,14.55,4,21.17,4.18,8.68,8.93,17.46,16.38,25.17,18.41,19,50.65,20.47,82,22,9.42.47,27.85,1.13,49.7.64-.93-4.9-2-9.79-3-14.67C1209.17,211.3,1209.39,205.6,1206.36,201.47Z"/><path class="cls-4" d="M1236.49,198.45c0-4.24,0-8.73.47-13.2l-.53.41c-9.45,7.28-17.94,13.17-30.07,15.81,3,4.13,2.81,9.83,3.75,14.27,1,4.88,2.09,9.77,3,14.67,8.31-.19,17.14-.56,26.14-1.16-.06-.13-.13-.26-.19-.4C1235.3,219.28,1236.4,208.24,1236.49,198.45Z"/><path class="cls-6" d="M1363.84,164.68c-17.4,11.73-44.13,35.48-66.53,26-1.19,2.72-2.35,5.44-3.54,8.15-3.63,8.3-6.6,17-10.55,25.33,16.38-2.94,31.71-7.11,44-13,12.49-6,35.41-16.74,38.34-28.84a2.13,2.13,0,0,0,.68-1.08A23.84,23.84,0,0,0,1363.84,164.68Z"/><path class="cls-5" d="M1259.45,207c0-4.56,1.17-9.39.52-13.92-.87-6.19-4.62-8.42-9.94-12l-.25.06c-2.11.46-3.5-.71-3.39-1.83a64.79,64.79,0,0,0-9.43,6c-.44,4.47-.43,9-.47,13.2-.09,9.79-1.19,20.83,2.59,30.4.06.14.13.27.19.4,6.77-.45,13.65-1,20.51-1.8C1258.05,221,1259.41,212.79,1259.45,207Z"/><path class="cls-5" d="M1288.33,189.22a48.7,48.7,0,0,1,4.93,10.79c.18-.4.34-.82.51-1.22,1.19-2.71,2.35-5.43,3.54-8.15a30.23,30.23,0,0,1-8.44-5.42c-6-5.41-10.74-10.69-22-11a40.22,40.22,0,0,0-15.06,2.57C1268.81,173.32,1281.06,177.37,1288.33,189.22Z"/><path class="cls-5" d="M1293.26,200a48.7,48.7,0,0,0-4.93-10.79c-7.27-11.85-19.52-15.9-36.52-12.39a48.33,48.33,0,0,0-5.42,2.4c-.11,1.12,1.28,2.29,3.39,1.83l.25-.06c5.32,3.61,9.07,5.84,9.94,12,.65,4.53-.49,9.36-.52,13.92,0,5.84-1.4,14,.33,20.5,7.91-.87,15.78-2,23.44-3.33C1287,216.18,1289.87,207.94,1293.26,200Z"/><path class="cls-7" d="M1329.91,181.21c-4.5,2.21-8.77,4.61-13.24,6.82-3.93,1.94-8,3.26-11.8,3.2a1,1,0,0,1-.29,0,.45.45,0,0,1-.22,0h-.21a10.29,10.29,0,0,1-2.53-.35h-.08a.07.07,0,0,1-.08,0,12.05,12.05,0,0,1-5.61-3.5c-1.74-1.82-6.7-10.21-14.86-14a13.6,13.6,0,0,0-4.86-1.07,55.88,55.88,0,0,0-9.88.57c-9.58,1.1-18.15,4.71-25.54,8.71-1.81,1-5,3-9.13,5.29h-.11c-5.86,3.37-13.42,7.24-21.29,9.25-10.73,2.75-21.79,2.77-28.79,2.47h0c-1.71,0-3.18-.12-4.36-.17-9.23-.53-20.47-3.46-31-6.7h-.13c-3.37-1-6.61-2.1-9.77-3.14-13.91-4.48-24.27-10.22-28.36-11.31-7.32-2-29.15-7-39.25-13.12-5.46-3.34-3.26-9.44-3.18-9.77,0,0-.07,0-.1.08h0c-3.51,2.71-5.18,5.42-4.34,8.19.71,2.35,3.21,4.73,7.88,7.3,11.19,6.18,25.57,9.31,33.33,13.17,4.6,2.28,10.17,7.78,18,9.52,3.38.74,8.11.81,12.43.86h.1a76.49,76.49,0,0,1,8.13.32h.1a.4.4,0,0,0,.19,0c.14,0,.25.12.38.16a.09.09,0,0,0,.09,0l1.63.45a10.51,10.51,0,0,0,1.77.2c1.63.54,3.35,1.11,4.82,1.69a.18.18,0,0,0,.11,0l0,0a10.77,10.77,0,0,1,3.65,2c1,1.1,6.55,11.63,9.3,16a28.71,28.71,0,0,0,1.64,2.74c1.3,1.88-.57-11.54-.71-13.79a41.84,41.84,0,0,0,5,1c9.23,1.36,18.85.47,27.84-1.49h.06l0,0h.08c1.92-.42,3.84-.89,5.7-1.4.12.24.21.49.34.78,2.79,6.16,8.75,19.8,8.77,19.8,1-8.43,1.76-15.15-.32-18.88,4.82-4.79,13.42-8.23,18.29-10.91,2.4-1.31,4.8-2.88,7.4-4.41.51-.3,1-.61,1.56-.91a54.85,54.85,0,0,1,12.24-5.46,49.51,49.51,0,0,1,14.43-1.91c8.78.13,17.5,4.46,21.79,9.75a13.54,13.54,0,0,1,2.2,3.68c2.86,7.62-1.46,17.3-2.19,22.94v0h0c7.21-5.57,19.64-15.48,27.45-20.65a32.65,32.65,0,0,1,3.26-1.92h0c10.74-6,28.82-12.53,36.71-21.82,0-.05,0-.05,0-.05C1356.05,169.37,1334.9,178.41,1329.91,181.21Z"/><path class="cls-6" d="M1189.29,230.54c-2.56-3.34-15.94-3.76-22.53-5.48-4-1.06-4.92-4-8.94-4.87-6-1.33-12.27-1.32-18.52-1.6-5.83-.3-6-2.79-7.81-4.52-3.92-3.76-8.65-8.12-14.53-8-2.18.06-2.82,1.79-1.48,2.75,3.18,2.19,9,9,4.15,9.11-2.39.07-8.3-2.8-10.43-3.11-5.77-1-15.32-1.53-26.2-10.08-.68-.53-1.35-1.09-2-1.69-3.41-2.94-6.23-9.6-11.44-11.79h0a.78.78,0,0,0,.12.21l.08.12a.67.67,0,0,0,.06.12c.79,1.4,1.53,2.62,2.25,3.81a64.2,64.2,0,0,0,7.33,10.61c.32.36.64.73,1,1.05a13.51,13.51,0,0,0,4.53,4.2,58.94,58.94,0,0,0,12.78,7.63,43.84,43.84,0,0,0,4.19,1.75c.92.35,1.8.66,2.67,1s1.88.65,2.75,1a111.61,111.61,0,0,0,21.28,5.06c8.83,1.42,51.53,3.05,60.85,2.87Z"/><path class="cls-7" d="M1199.79,109.36a256.52,256.52,0,0,0-40.36,0c-11.93.92-28.44,1.17-37.56,6.63-5.72,3.49-14.26,8.47-21,13.4,0,0,0,0,0,0,13.26-3.28,16.68-6.41,24.85-8.8,4.21,0,8.3-3.19,12.73-3.15,8.71,0,16.25,6.7,22.11,10.36,14.35,9,22.65,21.75,25.48,34.73a1.19,1.19,0,0,1,.08.41c.1.37.18.79.26,1.16,4.25-6.86,2.22-16.58-.34-23.83-1.78-4.94-5-11.25,1.1-15.42,2.91-2,10.32-3.28,14.35-3.94,25.59-4.17,71.72,8.6,83.9,6C1260.64,118,1227.74,111.62,1199.79,109.36Z"/><path class="cls-8" d="M1363.84,164.68l-1.52,1,1.52-1c-2.81-5.23-7.52-9.79-13.45-13.81-16.88-11.45-43.71-18.5-65.06-23.91l-.13,0c-24.67-8.94-57.51-15.32-85.41-17.57a256.52,256.52,0,0,0-40.36,0c-11.93.92-28.44,1.17-37.56,6.63-5.72,3.49-14.26,8.47-21,13.4h0c-12.88,7.56-25.34,16.14-34,23.47a21.53,21.53,0,0,0-1.61,1.52h0c-3.51,2.72-5.18,5.43-4.33,8.2v0c-1.31,6.55,1.24,13.74,4.25,20,1.39,2.9,2.86,5.81,4.46,8.69h0a.78.78,0,0,0,.12.21l0,.07.09.17h0v0c.55,1,1.11,1.93,1.69,2.89l.54.89a64.2,64.2,0,0,0,7.33,10.61c.32.36.64.73,1,1.05a13.51,13.51,0,0,0,4.53,4.2,58.94,58.94,0,0,0,12.78,7.63c1,.49,2.06.92,3.08,1.32q2.82,1.15,5.79,2.1l.74.26a111.61,111.61,0,0,0,21.28,5.06c8.83,1.42,51.53,3.05,60.85,2.87l-.06-.08h0c7.2.08,15.25.06,23.85-.13,8.31-.19,17.14-.56,26.14-1.16,6.77-.45,13.65-1,20.51-1.8,7.91-.87,15.79-2,23.44-3.33,16.38-2.94,31.71-7.11,44-13,12.5-6,35.41-16.74,38.34-28.84a2.06,2.06,0,0,0,.68-1.08A23.84,23.84,0,0,0,1363.84,164.68ZM1143,194.4h0l2.38.7-2.54-.74Zm6.61,1.9,0,0-3.44-1Q1147.94,195.83,1149.65,196.3Zm.09,0h0Zm208.42-27.67-.37.26Zm-73.36,52c0,.13-.1.25-.16.38C1284.7,220.88,1284.75,220.76,1284.8,220.63Zm74.12-52.52,1.34-1Zm3.17-2.23c-.48.33-1,.66-1.44,1C1361.13,166.54,1361.61,166.21,1362.09,165.88Z"/><ellipse class="cls-2" cx="316.41" cy="175.72" rx="81.25" ry="24.08" transform="translate(-7.23 13.7) rotate(-2.45)"/><path class="cls-3" d="M352.27,142.19c3.05,1.68,5,4.78,7.32,7.93C372.72,168,390.14,144,401,132.85a31.93,31.93,0,0,0-7.43-11.61c-8.44-3.34-17.13-5.78-26.48-6C356.42,114.88,353.22,130.09,352.27,142.19Z"/><path class="cls-3" d="M302.28,127c-1.55-10.14-4.95-21.08-12.16-28.62-5.38-5.63-11.77-7.42-18.48-7.34-11.32,6.91-26.2,21-34.69,31.9a16.26,16.26,0,0,0-3.13,7.2c13.89,10.56,28.4,20,44.3,27.32,6.7,3.07,13.82,6,21.17,7.1A83.42,83.42,0,0,0,302.28,127Z"/><path class="cls-4" d="M357.64,101.13c-25-9.65-51.4-16.48-78.32-13.81A34.24,34.24,0,0,0,271.64,91c6.71-.08,13.1,1.71,18.48,7.34,7.21,7.54,10.61,18.48,12.16,28.62a83.42,83.42,0,0,1-3,37.56,42.71,42.71,0,0,0,6.29.53c11.75.08,17.9-6.14,25.06-14.55,4.24-5,9.85-9.85,16.81-9.59a10.51,10.51,0,0,1,4.82,1.29c1-12.1,4.15-27.31,14.81-27,9.35.27,18,2.71,26.48,6C384.24,111.61,369.43,105.68,357.64,101.13Z"/><path class="cls-5" d="M314,163.78a25.89,25.89,0,0,1-8.45,1.26c-9.58-.06-18.87-3.69-27.46-7.63-15.9-7.29-30.41-16.76-44.3-27.32-1,5.77.43,12.23,2.19,17.81,2.31,7.29,4.93,14.67,9.05,21.16,10.16,16,28,17.21,45.27,18.52a256.64,256.64,0,0,0,27.44.54c-.51-4.12-1.09-8.23-1.66-12.34C315.58,172.05,315.71,167.26,314,163.78Z"/><path class="cls-4" d="M330.67,161.25c0-3.57,0-7.35.26-11.1-.1.11-.2.22-.29.34-5.22,6.13-9.91,11.08-16.61,13.29,1.68,3.48,1.55,8.27,2.08,12,.57,4.11,1.15,8.22,1.66,12.34,4.59-.16,9.46-.47,14.43-1,0-.12-.07-.23-.1-.34C330,178.76,330.62,169.48,330.67,161.25Z"/><path class="cls-6" d="M401,132.85c-9.61,9.86-24.37,29.83-36.74,21.83-.65,2.28-1.29,4.57-1.95,6.85-2,7-3.65,14.29-5.83,21.3,9-2.47,17.51-6,24.28-11s19.56-14.08,21.17-24.25a2,2,0,0,0,.38-.91A29.45,29.45,0,0,0,401,132.85Z"/><path class="cls-5" d="M343.35,168.4c0-3.84.64-7.91.29-11.71-.49-5.2-2.56-7.09-5.49-10.12l-.14.05a1.42,1.42,0,0,1-1.87-1.54,37.88,37.88,0,0,0-5.21,5.07c-.24,3.75-.24,7.53-.26,11.1-.05,8.23-.66,17.51,1.43,25.56,0,.11.07.22.1.34,3.75-.38,7.54-.88,11.33-1.52C342.58,180.19,343.33,173.3,343.35,168.4Z"/><path class="cls-5" d="M359.29,153.48a54.09,54.09,0,0,1,2.73,9.08c.1-.34.18-.69.28-1,.66-2.28,1.3-4.57,1.95-6.85a17.79,17.79,0,0,1-4.66-4.56c-3.33-4.55-5.93-9-12.14-9.22a15.59,15.59,0,0,0-8.32,2.17C348.51,140.11,355.28,143.52,359.29,153.48Z"/><path class="cls-5" d="M362,162.56a54.09,54.09,0,0,0-2.73-9.08c-4-10-10.78-13.37-20.16-10.41a22.65,22.65,0,0,0-3,2,1.42,1.42,0,0,0,1.87,1.54l.14-.05c2.93,3,5,4.92,5.49,10.12.35,3.8-.27,7.87-.29,11.71,0,4.9-.77,11.79.18,17.23a132.2,132.2,0,0,0,12.94-2.8C358.55,176.16,360.14,169.23,362,162.56Z"/><path class="cls-7" d="M382.25,146.75c-2.48,1.85-4.84,3.88-7.31,5.73-2.17,1.63-4.43,2.74-6.51,2.69a.23.23,0,0,1-.16,0,.17.17,0,0,1-.12,0H368a3.81,3.81,0,0,1-1.4-.29h0a0,0,0,0,1,0,0,7,7,0,0,1-3.1-3c-1-1.53-3.7-8.58-8.21-11.78a5.36,5.36,0,0,0-2.68-.9,20.43,20.43,0,0,0-5.46.48c-5.29.92-10,4-14.1,7.31-1,.82-2.78,2.54-5,4.45h-.06c-3.24,2.84-7.41,6.09-11.76,7.78a37.37,37.37,0,0,1-15.9,2.08h0c-.94,0-1.76-.1-2.41-.14-5.09-.45-11.3-2.91-17.14-5.63h-.08c-1.86-.87-3.65-1.77-5.39-2.64-7.68-3.76-13.4-8.59-15.66-9.51-4-1.64-16.1-5.88-21.67-11-3-2.81-1.8-7.94-1.76-8.22,0,0,0,0-.05.07h0c-1.93,2.28-2.85,4.56-2.39,6.88.39,2,1.77,4,4.35,6.15,6.18,5.19,14.12,7.82,18.4,11.07,2.54,1.92,5.62,6.54,9.93,8a24.84,24.84,0,0,0,6.86.72h.06a26.94,26.94,0,0,1,4.49.27h.06a.11.11,0,0,0,.1,0c.08,0,.14.1.21.13s0,0,.05,0l.9.38a4.17,4.17,0,0,0,1,.17c.9.45,1.85.93,2.66,1.42,0,0,.05,0,.06,0l0,0a5.9,5.9,0,0,1,2,1.7c.55.92,3.62,9.78,5.14,13.42.27.76.55,1.51.9,2.3.72,1.58-.31-9.71-.39-11.59a15.84,15.84,0,0,0,2.74.82,28.81,28.81,0,0,0,15.37-1.25h0l0,0h0c1.06-.36,2.12-.75,3.14-1.18.07.21.13.41.19.66,1.54,5.18,4.84,16.65,4.85,16.65.57-7.09,1-12.74-.18-15.87,2.66-4,7.41-6.93,10.1-9.18,1.32-1.11,2.65-2.42,4.08-3.71l.87-.77a26.75,26.75,0,0,1,6.76-4.59,18.71,18.71,0,0,1,8-1.6c4.85.11,9.67,3.75,12,8.2a13.25,13.25,0,0,1,1.22,3.09c1.58,6.41-.8,14.55-1.21,19.29v0h0c4-4.69,10.85-13,15.15-17.37a20.4,20.4,0,0,1,1.8-1.62h0c5.93-5,15.92-10.54,20.27-18.35,0,0,0,0,0,0C396.69,136.79,385,144.39,382.25,146.75Z"/><path class="cls-6" d="M304.61,188.23c-1.42-2.81-8.8-3.16-12.44-4.61-2.22-.89-2.72-3.38-4.94-4.09-3.33-1.12-6.77-1.11-10.23-1.35-3.22-.25-3.32-2.34-4.31-3.8-2.16-3.16-4.77-6.83-8-6.73a1.35,1.35,0,0,0-.82,2.31c1.76,1.85,4.94,7.59,2.3,7.67-1.33.06-4.59-2.36-5.77-2.62-3.18-.88-8.45-1.29-14.46-8.48-.38-.44-.75-.91-1.12-1.42-1.89-2.47-3.45-8.07-6.32-9.91h0a.8.8,0,0,0,.06.17l.05.11a.38.38,0,0,0,0,.1c.44,1.17.85,2.2,1.24,3.2a60.68,60.68,0,0,0,4.05,8.92c.18.31.35.62.53.89a9.89,9.89,0,0,0,2.5,3.53,33.75,33.75,0,0,0,7,6.41A22.42,22.42,0,0,0,256.3,180l1.47.81,1.52.81A44.38,44.38,0,0,0,271,185.88c4.88,1.19,28.45,2.57,33.6,2.42Z"/><path class="cls-7" d="M310.41,86.33a92.86,92.86,0,0,0-22.29,0c-6.59.77-15.71,1-20.74,5.57-3.16,2.93-7.87,7.12-11.61,11.27,0,0,0,0,0,0,7.32-2.77,9.21-5.4,13.72-7.41,2.33,0,4.58-2.68,7-2.64,4.81,0,9,5.63,12.21,8.71,7.93,7.53,12.51,18.28,14.07,29.2a1.32,1.32,0,0,1,0,.34c.06.32.1.67.15,1,2.35-5.77,1.23-13.94-.19-20-1-4.15-2.78-9.46.61-13,1.6-1.68,5.69-2.77,7.92-3.32,14.13-3.5,39.6,7.23,46.33,5.09C344,93.61,325.84,88.23,310.41,86.33Z"/><path class="cls-8" d="M401,132.85c-.28.28-.56.58-.84.88.28-.3.56-.6.84-.88a31.93,31.93,0,0,0-7.43-11.61c-9.32-9.63-24.13-15.56-35.92-20.11l-.07,0c-13.63-7.51-31.76-12.87-47.16-14.77a92.86,92.86,0,0,0-22.29,0c-6.59.77-15.71,1-20.74,5.57-3.16,2.93-7.87,7.12-11.61,11.27h0A161.57,161.57,0,0,0,237,122.89c-.32.42-.61.85-.88,1.28h0c-1.93,2.28-2.85,4.56-2.39,6.88v0c-.73,5.51.68,11.56,2.34,16.82.77,2.43,1.59,4.88,2.47,7.3h0a.8.8,0,0,0,.06.17l.05.11h0a.38.38,0,0,0,0,.1c0,.07,0,.13.08.19.1.28.21.55.31.83.29.76.58,1.49.85,2.18a60.68,60.68,0,0,0,4.05,8.92c.18.31.35.62.53.89a9.89,9.89,0,0,0,2.5,3.53,33.75,33.75,0,0,0,7,6.41c.57.42,1.14.78,1.71,1.12a36.65,36.65,0,0,0,3.25,1.79l.35.19A44.38,44.38,0,0,0,271,185.88c4.88,1.19,28.45,2.57,33.6,2.42l0-.07h0c4,.07,8.42.06,13.16-.1s9.46-.47,14.43-1c3.75-.38,7.54-.88,11.33-1.52a132.2,132.2,0,0,0,12.94-2.8c9-2.47,17.51-6,24.28-11s19.56-14.08,21.17-24.25a2,2,0,0,0,.38-.91A29.45,29.45,0,0,0,401,132.85Zm-121.92,25h0c.44.2.87.4,1.32.59L279,157.8Zm3.68,1.61h0l-1.94-.84Zm27.48,5.25-.21,0ZM400,133.85c-.27.28-.53.57-.8.86C399.5,134.42,399.76,134.13,400,133.85Zm-1,1.08-.74.81Zm-1.16,1.26-.21.23Zm-39.75,41-.09.33Z"/><path class="cls-9" d="M295.31,179.42l.07-5c1.33-1.56,2.73-3.1,4.21-4.64l4.41-4.58c1.46-1.51,2.85-3,4.18-4.45a39.22,39.22,0,0,0,3.51-4.39A24.33,24.33,0,0,0,314.1,152a11.24,11.24,0,0,0,.9-4.36,4.76,4.76,0,0,0-1.67-3.79,6,6,0,0,0-4.12-1.45,6.88,6.88,0,0,0-3.12.69,8.11,8.11,0,0,0-2.38,1.78,13.66,13.66,0,0,0-1.74,2.42,20.24,20.24,0,0,0-1.25,2.63l-6.18-4.49c.43-1,1-2.08,1.61-3.32a12.79,12.79,0,0,1,2.8-3.55,15.44,15.44,0,0,1,4.76-2.84,20.19,20.19,0,0,1,7.5-1.18,18.23,18.23,0,0,1,5.67.85,12.91,12.91,0,0,1,4.42,2.42,10.35,10.35,0,0,1,2.82,3.79,12.18,12.18,0,0,1,1,5,16.9,16.9,0,0,1-1.9,7.65,40.22,40.22,0,0,1-4.6,7.12,54,54,0,0,1-5.66,6.06c-2,1.79-3.65,3.28-5,4.45h17.56v7.59Z"/><path class="cls-9" d="M528.47,202.32a10.9,10.9,0,0,1-1.09,4.89,10.73,10.73,0,0,1-3.15,3.84,15.21,15.21,0,0,1-5,2.51,22.47,22.47,0,0,1-6.56.9,28,28,0,0,1-5-.4,17.91,17.91,0,0,1-4.15-1.28,15.81,15.81,0,0,1-3.67-2.32,27.09,27.09,0,0,1-3.47-3.53l4.24-5.73q5,5.67,10.75,5.67a7.79,7.79,0,0,0,5-1.49,5.18,5.18,0,0,0,2-3.93,5,5,0,0,0-.52-2.8,5.18,5.18,0,0,0-2.19-2.16,12.65,12.65,0,0,0-4.31-1.27,34.53,34.53,0,0,0-6.82-.13V187.5a49.32,49.32,0,0,0,6.47.07,11.59,11.59,0,0,0,4-.88,4.39,4.39,0,0,0,2.06-1.83,6,6,0,0,0,.61-2.81,4.68,4.68,0,0,0-1.87-3.57,7.4,7.4,0,0,0-4.63-1.34,10.68,10.68,0,0,0-4.57,1,18.39,18.39,0,0,0-4.63,3.26l-3.61-6.09q4.83-5.77,14.87-5.78a18.49,18.49,0,0,1,5.67.81,12.72,12.72,0,0,1,4.33,2.31,10.26,10.26,0,0,1,2.77,3.58,11.14,11.14,0,0,1,1,4.71,9.84,9.84,0,0,1-1.86,6.2,14.62,14.62,0,0,1-6.18,4.14,12.11,12.11,0,0,1,7.12,3.63A10.79,10.79,0,0,1,528.47,202.32Z"/><path class="cls-9" d="M753.2,170.53h-8V159.46H728.68V125.55h8.23v26.7h8.31V141.38h7.91v10.87h5.73v7.14H753.2Z"/><path class="cls-9" d="M974.62,156.19q0,6.84-4.16,10.58T958.8,170.5a21.83,21.83,0,0,1-8.55-1.64,18.85,18.85,0,0,1-6.78-4.83l3.61-6.34q5.73,5.22,11.2,5.21a8.58,8.58,0,0,0,5.59-1.76,5.54,5.54,0,0,0,2.19-4.53,6.3,6.3,0,0,0-1.83-4.9,8.77,8.77,0,0,0-8.69-.94,13.77,13.77,0,0,0-3.18,2.29l-5.54-3.16.64-24.32h25.75l.06,7.59H955.7l-.32,10.56q.93-.45,1.62-.75a13.74,13.74,0,0,1,1.35-.48,6.69,6.69,0,0,1,1.4-.25c.5-.05,1.06-.07,1.69-.07a13.92,13.92,0,0,1,5.37,1A11.8,11.8,0,0,1,971,146a13.08,13.08,0,0,1,2.68,4.44A16.16,16.16,0,0,1,974.62,156.19Z"/><path class="cls-9" d="M1221,209.9a19.83,19.83,0,0,1-1.33,7.46,15.95,15.95,0,0,1-9.52,9.29,21.67,21.67,0,0,1-7.64,1.28,21.17,21.17,0,0,1-8-1.45,17.2,17.2,0,0,1-6.15-4.15,19.17,19.17,0,0,1-4-6.44,23.4,23.4,0,0,1-1.41-8.35,30,30,0,0,1,1.7-9.84,51.33,51.33,0,0,1,4.43-9.49,70.28,70.28,0,0,1,6.12-8.71,84.36,84.36,0,0,1,6.88-7.41h13.52a84.51,84.51,0,0,0-9.92,10.73,87.87,87.87,0,0,0-8.08,12.39q1.26-.72,2.28-1.2a15.53,15.53,0,0,1,1.92-.76,11.37,11.37,0,0,1,1.84-.4,16.7,16.7,0,0,1,2.11-.12A14.86,14.86,0,0,1,1212,194a13.62,13.62,0,0,1,4.78,3.55,17.18,17.18,0,0,1,3.14,5.47A20.42,20.42,0,0,1,1221,209.9Zm-10.64.23a7.92,7.92,0,0,0-1.89-5.58,6.59,6.59,0,0,0-5.07-2.06,10.58,10.58,0,0,0-7.44,3.15c-.16.79-.27,1.39-.32,1.79a13.1,13.1,0,0,0-.08,1.57,8.9,8.9,0,0,0,2.17,6.22,7.3,7.3,0,0,0,5.66,2.39,6.55,6.55,0,0,0,5.07-2.05A7.7,7.7,0,0,0,1210.39,210.13Z"/><ellipse class="cls-2" cx="140.74" cy="135.02" rx="78.81" ry="23.36" transform="translate(-5.65 6.15) rotate(-2.45)"/><path class="cls-3" d="M175.52,102.49c3,1.63,4.87,4.64,7.11,7.7,12.74,17.38,29.63-6,40.16-16.76a31.16,31.16,0,0,0-7.21-11.26c-8.19-3.24-16.62-5.61-25.69-5.87C179.55,76,176.45,90.76,175.52,102.49Z"/><path class="cls-3" d="M127,87.71c-1.5-9.84-4.79-20.45-11.79-27.76-5.21-5.46-11.41-7.2-17.92-7.12-11,6.7-25.42,20.41-33.65,31a15.63,15.63,0,0,0-3,7c13.47,10.24,27.55,19.42,43,26.5,6.5,3,13.4,5.77,20.54,6.88A80.87,80.87,0,0,0,127,87.71Z"/><path class="cls-4" d="M180.73,62.67c-24.23-9.37-49.85-16-76-13.4a33.09,33.09,0,0,0-7.45,3.56c6.51-.08,12.71,1.66,17.92,7.12,7,7.31,10.29,17.92,11.79,27.76a80.87,80.87,0,0,1-2.89,36.43,40.07,40.07,0,0,0,6.1.52c11.4.08,17.36-6,24.3-14.12,4.12-4.83,9.56-9.55,16.31-9.29a10.14,10.14,0,0,1,4.67,1.24c.93-11.73,4-26.49,14.37-26.19,9.07.26,17.5,2.63,25.69,5.87C206.54,72.83,192.17,67.08,180.73,62.67Z"/><path class="cls-5" d="M138.44,123.44a25.3,25.3,0,0,1-8.2,1.22c-9.29-.06-18.3-3.58-26.64-7.4-15.42-7.08-29.5-16.26-43-26.5-1,5.6.42,11.86,2.13,17.27,2.23,7.08,4.78,14.24,8.77,20.53,9.86,15.54,27.13,16.7,43.91,18a248.81,248.81,0,0,0,26.62.51c-.49-4-1.06-8-1.61-12C139.94,131.46,140.06,126.81,138.44,123.44Z"/><path class="cls-4" d="M154.58,121c0-3.46,0-7.12.25-10.77l-.29.33c-5.06,5.95-9.6,10.75-16.1,12.9,1.62,3.37,1.5,8,2,11.64.55,4,1.12,8,1.61,12,4.46-.15,9.18-.45,14-.94a3.18,3.18,0,0,1-.09-.33C153.94,138,154.53,129,154.58,121Z"/><path class="cls-6" d="M222.79,93.43c-9.32,9.57-23.64,28.94-35.64,21.18l-1.89,6.65c-1.95,6.77-3.54,13.85-5.66,20.65,8.78-2.39,17-5.79,23.56-10.63s19-13.66,20.53-23.52a2.13,2.13,0,0,0,.37-.88A28.68,28.68,0,0,0,222.79,93.43Z"/><path class="cls-5" d="M166.87,127.91c0-3.72.63-7.66.28-11.35-.47-5-2.47-6.87-5.32-9.81l-.14,0a1.37,1.37,0,0,1-1.81-1.49,37.27,37.27,0,0,0-5,4.91c-.24,3.65-.23,7.31-.25,10.77-.05,8-.64,17,1.39,24.79a3.18,3.18,0,0,0,.09.33c3.63-.36,7.32-.85,11-1.47C166.12,139.36,166.85,132.67,166.87,127.91Z"/><path class="cls-5" d="M182.34,113.45a51.35,51.35,0,0,1,2.64,8.8c.1-.33.18-.67.28-1l1.89-6.65a17.5,17.5,0,0,1-4.52-4.42c-3.23-4.42-5.75-8.72-11.78-8.94a15.08,15.08,0,0,0-8.07,2.1C171.88,100.48,178.45,103.79,182.34,113.45Z"/><path class="cls-5" d="M185,122.25a51.35,51.35,0,0,0-2.64-8.8c-3.89-9.66-10.46-13-19.56-10.1a23.34,23.34,0,0,0-2.9,2,1.37,1.37,0,0,0,1.81,1.49l.14,0c2.85,2.94,4.85,4.76,5.32,9.81.35,3.69-.26,7.63-.28,11.35,0,4.76-.75,11.45.18,16.72a127.81,127.81,0,0,0,12.55-2.72C181.62,135.44,183.16,128.72,185,122.25Z"/><path class="cls-7" d="M204.61,106.92c-2.41,1.8-4.7,3.76-7.09,5.56-2.11,1.58-4.3,2.66-6.32,2.61a.32.32,0,0,1-.16,0,.15.15,0,0,1-.11,0h-.12a4,4,0,0,1-1.35-.28h0s0,0,0,0a6.93,6.93,0,0,1-3-2.86c-.93-1.49-3.59-8.33-8-11.43a5.18,5.18,0,0,0-2.6-.88,19.73,19.73,0,0,0-5.3.47c-5.13.89-9.71,3.84-13.68,7.1-1,.78-2.69,2.45-4.88,4.31h-.06c-3.14,2.75-7.19,5.91-11.41,7.55a36.42,36.42,0,0,1-15.42,2h0c-.92,0-1.71-.09-2.34-.13-4.94-.44-11-2.83-16.63-5.47H106c-1.8-.83-3.54-1.71-5.23-2.55-7.45-3.65-13-8.34-15.19-9.23-3.92-1.59-15.62-5.71-21-10.7-2.93-2.73-1.75-7.7-1.7-8,0,0,0,0-.06.07h0c-1.88,2.22-2.77,4.43-2.32,6.68.38,1.92,1.71,3.86,4.21,6,6,5,13.7,7.59,17.86,10.74,2.46,1.86,5.44,6.35,9.63,7.77a24.52,24.52,0,0,0,6.65.7h.06a26.5,26.5,0,0,1,4.35.26h.06a.14.14,0,0,0,.1,0c.07,0,.13.09.2.12s0,0,.05,0l.87.37a4,4,0,0,0,1,.17c.87.43,1.79.9,2.58,1.38a.08.08,0,0,0,.06,0l0,0a5.86,5.86,0,0,1,2,1.65c.54.89,3.51,9.49,5,13,.25.74.53,1.47.87,2.24.7,1.53-.3-9.42-.38-11.25a16.11,16.11,0,0,0,2.66.8,28.12,28.12,0,0,0,14.91-1.21h0v0h.05c1-.35,2.05-.73,3.05-1.15.06.2.11.4.18.64,1.49,5,4.69,16.15,4.7,16.15.56-6.88.94-12.36-.17-15.4,2.58-3.91,7.18-6.72,9.79-8.9,1.29-1.07,2.57-2.35,4-3.59l.84-.75a26,26,0,0,1,6.56-4.45,18.13,18.13,0,0,1,7.73-1.56c4.7.11,9.37,3.64,11.66,8a13,13,0,0,1,1.19,3c1.53,6.21-.79,14.11-1.18,18.71v0h0c3.86-4.54,10.52-12.63,14.7-16.85a17.93,17.93,0,0,1,1.75-1.56h0c5.74-4.89,15.43-10.22,19.65-17.8,0,0,0,0,0,0C218.61,97.26,207.28,104.63,204.61,106.92Z"/><path class="cls-6" d="M129.29,147.15c-1.37-2.72-8.53-3.06-12.06-4.47-2.15-.86-2.64-3.28-4.79-4-3.23-1.08-6.57-1.08-9.92-1.31-3.13-.24-3.22-2.27-4.18-3.69-2.1-3.06-4.63-6.62-7.78-6.52a1.31,1.31,0,0,0-.8,2.24c1.71,1.8,4.79,7.36,2.23,7.44-1.29.06-4.45-2.29-5.59-2.54-3.09-.86-8.21-1.25-14-8.22q-.54-.64-1.08-1.38c-1.83-2.4-3.34-7.83-6.13-9.61h0a.91.91,0,0,0,.06.16l0,.1a.29.29,0,0,0,0,.1c.42,1.14.82,2.14,1.2,3.11a59.39,59.39,0,0,0,3.93,8.65c.17.3.34.6.51.86a9.71,9.71,0,0,0,2.43,3.43,32.8,32.8,0,0,0,6.84,6.22,22.6,22.6,0,0,0,2.24,1.43l1.43.79,1.48.78a43.52,43.52,0,0,0,11.39,4.13c4.73,1.15,27.6,2.48,32.59,2.34Z"/><path class="cls-7" d="M134.92,48.31a90.39,90.39,0,0,0-21.62,0c-6.39.75-15.23,1-20.12,5.41-3.06,2.84-7.63,6.9-11.26,10.93,0,0,0,0,0,0C89,62,90.84,59.43,95.21,57.48c2.26,0,4.45-2.6,6.82-2.57,4.67,0,8.71,5.46,11.85,8.45,7.68,7.31,12.13,17.74,13.64,28.33a1.24,1.24,0,0,1,0,.33c.06.31.1.64.14,1,2.28-5.6,1.2-13.52-.18-19.44-1-4-2.7-9.18.59-12.57,1.56-1.63,5.53-2.68,7.69-3.22,13.71-3.4,38.41,7,44.93,4.94C167.51,55.37,149.89,50.15,134.92,48.31Z"/><path class="cls-8" d="M222.79,93.43l-.82.85.82-.85a31.16,31.16,0,0,0-7.21-11.26c-9-9.34-23.41-15.09-34.85-19.5l-.06,0c-13.22-7.29-30.81-12.49-45.75-14.33a90.39,90.39,0,0,0-21.62,0c-6.39.75-15.23,1-20.12,5.41-3.06,2.84-7.63,6.9-11.26,10.93h0A155.71,155.71,0,0,0,63.67,83.78,14.47,14.47,0,0,0,62.81,85h0c-1.88,2.22-2.77,4.43-2.32,6.68v0c-.7,5.34.66,11.21,2.27,16.31.75,2.36,1.54,4.74,2.4,7.09h0a.91.91,0,0,0,.06.16l0,.1h0a.32.32,0,0,0,0,.09,1.46,1.46,0,0,1,.07.19c.1.27.2.53.31.8.28.74.56,1.45.82,2.12a59.39,59.39,0,0,0,3.93,8.65c.17.3.34.6.51.86a9.58,9.58,0,0,0,2.43,3.43,32.8,32.8,0,0,0,6.84,6.22c.55.4,1.1.75,1.65,1.08,1,.63,2.08,1.21,3.15,1.74l.35.18a43.52,43.52,0,0,0,11.39,4.13c4.73,1.15,27.6,2.48,32.59,2.34l0-.07h0c3.86.06,8.17,0,12.77-.11s9.18-.45,14-.94c3.63-.36,7.32-.85,11-1.47a127.81,127.81,0,0,0,12.55-2.72c8.78-2.39,17-5.79,23.56-10.63s19-13.66,20.53-23.52a2.13,2.13,0,0,0,.37-.88A28.68,28.68,0,0,0,222.79,93.43ZM104.52,117.67h0l1.28.58-1.36-.61Zm3.57,1.57h0c-.63-.26-1.25-.53-1.88-.81Zm26.66,5.09-.21,0Zm87.1-29.92-.78.83Zm-1,1-.72.79Zm-1.11,1.21-.25.27Zm-38.57,39.78-.09.35Z"/><path class="cls-9" d="M131.64,135V99.91c-.86,1-1.67,1.88-2.44,2.67s-1.61,1.64-2.51,2.54l-4.25-5.79q1.94-1.67,3.73-3.34,1.55-1.41,3.16-3A39,39,0,0,0,132,90.08h8.22V135Z"/></svg>