<svg id="Layer_1" data-name="Layer 1" xmlns="http://www.w3.org/2000/svg" viewBox="0 0 342.71 89.65"><defs><style>.cls-1{fill:#fffae1;}.cls-2{fill:#471a02;}</style></defs><rect class="cls-1" x="14.99" y="9.18" width="310.48" height="66.69" rx="23.18"/><path class="cls-2" d="M302.3,12.18a20.2,20.2,0,0,1,20.18,20.17V52.69A20.21,20.21,0,0,1,302.3,72.87H38.17A20.21,20.21,0,0,1,18,52.69V32.35A20.2,20.2,0,0,1,38.17,12.18H302.3m0-6H38.17A26.18,26.18,0,0,0,12,32.35V52.69A26.18,26.18,0,0,0,38.17,78.87H302.3a26.18,26.18,0,0,0,26.18-26.18V32.35A26.18,26.18,0,0,0,302.3,6.18Z"/></svg>