<svg id="Layer_1" data-name="Layer 1" xmlns="http://www.w3.org/2000/svg" viewBox="0 0 335.29 96.35"><defs><style>.cls-1{fill:#fffae1;}.cls-2{fill:#471a02;}.cls-3{fill:#515151;}</style></defs><rect class="cls-1" x="14.99" y="15.74" width="310.48" height="66.69" rx="23.18"/><path class="cls-2" d="M302.3,18.74a20.21,20.21,0,0,1,20.18,20.18V59.25A20.21,20.21,0,0,1,302.3,79.43H38.17A20.21,20.21,0,0,1,18,59.25V38.92A20.21,20.21,0,0,1,38.17,18.74H302.3m0-6H38.17A26.18,26.18,0,0,0,12,38.92V59.25A26.18,26.18,0,0,0,38.17,85.43H302.3a26.18,26.18,0,0,0,26.18-26.18V38.92A26.18,26.18,0,0,0,302.3,12.74Z"/><path class="cls-3" d="M302.27,53.77c.37-.41.73-.83,1.06-1.24l.41-.52c.31-.39.62-.78.9-1.16l.36-.49c.27-.38.54-.75.78-1.12,0-.05.08-.1.11-.16h0a22.12,22.12,0,0,0,2.5-4.69c-1.48-1.47-6.86-3-13.19-4.14a59.94,59.94,0,0,0-4.76-7.2,13.84,13.84,0,0,0-4.09-3.87h0a8.88,8.88,0,0,0-2.42,1.93l-.55.58a54.15,54.15,0,0,0-5.88,8.56c-.8.14-1.57.3-2.33.45-1.89.39-3.65.81-5.19,1.24-.61.18-1.2.35-1.74.53l-.78.27a9.26,9.26,0,0,0-3.16,1.65,23.09,23.09,0,0,0,2.5,4.69h0a1.63,1.63,0,0,0,.11.17c.24.36.5.73.77,1.1l.37.5c.28.38.58.77.89,1.16l.42.52c.33.41.69.82,1,1.24l.42.49c.52.58,1.06,1.17,1.63,1.76a62.09,62.09,0,0,0-.25,9.28,24.75,24.75,0,0,0,.29,2.64c.07.38.14.73.22,1,.93-.28,1.9-.55,2.91-.82l3.19-.84,1.73-.47c1.77-.51,3.7-1.11,5.8-1.89,1.4.52,2.72,1,4,1.35l1.83.54c2.95.84,5.51,1.42,7.82,2.13a19.63,19.63,0,0,0,.52-3.69,62.26,62.26,0,0,0-.26-9.28c.58-.59,1.12-1.18,1.63-1.76C302,54.1,302.13,53.94,302.27,53.77Z"/><path class="cls-3" d="M244,53.77c.37-.41.73-.83,1.06-1.24l.41-.52c.31-.39.62-.78.9-1.16l.36-.49c.27-.38.54-.75.78-1.12,0-.05.08-.1.11-.16h0a22.12,22.12,0,0,0,2.5-4.69c-1.48-1.47-6.86-3-13.19-4.14a59.94,59.94,0,0,0-4.76-7.2,13.84,13.84,0,0,0-4.09-3.87h0a8.88,8.88,0,0,0-2.42,1.93l-.55.58a54.15,54.15,0,0,0-5.88,8.56c-.8.14-1.57.3-2.33.45-1.88.39-3.64.81-5.19,1.24-.61.18-1.2.35-1.74.53l-.78.27A9.26,9.26,0,0,0,206,44.39a23.09,23.09,0,0,0,2.5,4.69h0a1.63,1.63,0,0,0,.11.17c.24.36.5.73.77,1.1l.37.5c.28.38.58.77.89,1.16l.42.52c.33.41.69.82,1,1.24l.42.49c.52.58,1.06,1.17,1.63,1.76a62.09,62.09,0,0,0-.25,9.28,24.75,24.75,0,0,0,.29,2.64c.07.38.14.73.22,1,.93-.28,1.9-.55,2.91-.82l3.19-.84,1.73-.47c1.77-.51,3.7-1.11,5.8-1.89,1.4.52,2.72,1,4,1.35l1.83.54c3,.84,5.51,1.42,7.82,2.13a19.63,19.63,0,0,0,.52-3.69A62.26,62.26,0,0,0,242,56c.58-.59,1.12-1.18,1.64-1.76Z"/><path class="cls-3" d="M186.58,53.77c.37-.41.73-.83,1.06-1.24.15-.17.27-.34.41-.52.31-.39.62-.78.91-1.16l.35-.49c.27-.38.54-.75.78-1.12a.91.91,0,0,0,.11-.16h0a23.09,23.09,0,0,0,2.5-4.69c-1.49-1.47-6.87-3-13.2-4.14a58.76,58.76,0,0,0-4.76-7.2,13.72,13.72,0,0,0-4.09-3.87h0a8.88,8.88,0,0,0-2.42,1.93c-.18.18-.36.38-.54.58a53.48,53.48,0,0,0-5.89,8.56c-.79.14-1.57.3-2.32.45-1.89.39-3.65.81-5.19,1.24-.62.18-1.2.35-1.74.53l-.78.27a9.07,9.07,0,0,0-3.16,1.65,22.12,22.12,0,0,0,2.5,4.69h0c0,.06.08.11.11.17.24.36.51.73.78,1.1.12.17.23.33.36.5.28.38.58.77.89,1.16l.42.52c.33.41.69.82,1.05,1.24l.43.49c.51.58,1.05,1.17,1.63,1.76a62.26,62.26,0,0,0-.26,9.28,24.75,24.75,0,0,0,.29,2.64c.07.38.14.73.23,1,.92-.28,1.89-.55,2.9-.82l3.2-.84,1.72-.47c1.78-.51,3.7-1.11,5.8-1.89,1.4.52,2.72,1,4,1.35l1.83.54c3,.84,5.51,1.42,7.83,2.13a20.61,20.61,0,0,0,.51-3.69,62.09,62.09,0,0,0-.25-9.28c.57-.59,1.11-1.18,1.63-1.76Z"/><path class="cls-3" d="M128.33,53.77c.36-.41.72-.83,1-1.24.15-.17.27-.34.41-.52.31-.39.62-.78.91-1.16l.35-.49c.27-.38.54-.75.78-1.12a.91.91,0,0,0,.11-.16h0a23.09,23.09,0,0,0,2.5-4.69c-1.49-1.47-6.87-3-13.2-4.14a58.76,58.76,0,0,0-4.76-7.2,13.72,13.72,0,0,0-4.09-3.87h0A8.88,8.88,0,0,0,110,31.11c-.18.18-.36.38-.54.58a53.48,53.48,0,0,0-5.89,8.56c-.79.14-1.57.3-2.32.45-1.89.39-3.65.81-5.19,1.24-.62.18-1.2.35-1.74.53l-.78.27a9.07,9.07,0,0,0-3.16,1.65,22.12,22.12,0,0,0,2.5,4.69h0c0,.06.08.11.11.17.24.36.51.73.78,1.1.12.17.23.33.36.5.28.38.58.77.89,1.16l.42.52c.33.41.69.82,1,1.24l.43.49c.51.58,1.05,1.17,1.63,1.76a62.26,62.26,0,0,0-.26,9.28,24.75,24.75,0,0,0,.29,2.64c.07.38.14.73.23,1,.92-.28,1.89-.55,2.9-.82l3.2-.84,1.72-.47c1.78-.51,3.7-1.11,5.8-1.89,1.4.52,2.72,1,4,1.35l1.83.54c3,.84,5.51,1.42,7.83,2.13a20.61,20.61,0,0,0,.51-3.69,62.09,62.09,0,0,0-.25-9.28c.57-.59,1.11-1.18,1.63-1.76Z"/><path class="cls-3" d="M70.07,53.77c.36-.41.72-.83,1.05-1.24.15-.17.27-.34.41-.52.31-.39.62-.78.91-1.16l.35-.49c.27-.38.54-.75.78-1.12a.91.91,0,0,0,.11-.16h0a23.09,23.09,0,0,0,2.5-4.69c-1.49-1.47-6.87-3-13.2-4.14a58.76,58.76,0,0,0-4.76-7.2,13.72,13.72,0,0,0-4.09-3.87h0a8.88,8.88,0,0,0-2.42,1.93c-.18.18-.36.38-.54.58a53.48,53.48,0,0,0-5.89,8.56c-.79.14-1.57.3-2.32.45-1.89.39-3.65.81-5.19,1.24-.62.18-1.2.35-1.74.53l-.78.27a9.07,9.07,0,0,0-3.16,1.65,22.12,22.12,0,0,0,2.5,4.69h0c0,.06.08.11.11.17.24.36.51.73.78,1.1.12.17.23.33.36.5.28.38.58.77.89,1.16l.42.52c.33.41.69.82,1,1.24l.43.49c.51.58,1.05,1.17,1.63,1.76A62.26,62.26,0,0,0,40,65.3a24.75,24.75,0,0,0,.29,2.64c.07.38.14.73.23,1,.92-.28,1.89-.55,2.9-.82l3.2-.84,1.72-.47c1.78-.51,3.7-1.11,5.8-1.89,1.4.52,2.72,1,4,1.35l1.83.54c3,.84,5.51,1.42,7.83,2.13a20.61,20.61,0,0,0,.51-3.69A62.09,62.09,0,0,0,68,56c.57-.59,1.11-1.18,1.63-1.76Z"/></svg>