<svg id="Layer_1" data-name="Layer 1" xmlns="http://www.w3.org/2000/svg" xmlns:xlink="http://www.w3.org/1999/xlink" viewBox="0 0 292.59 62.39"><defs><style>.cls-1{mask:url(#mask);filter:url(#luminosity-noclip-21);}.cls-10,.cls-12,.cls-14,.cls-16,.cls-18,.cls-2,.cls-20,.cls-22,.cls-24,.cls-26,.cls-28,.cls-30,.cls-32,.cls-34,.cls-36,.cls-38,.cls-4,.cls-40,.cls-6,.cls-8{mix-blend-mode:multiply;}.cls-2{fill:url(#radial-gradient);}.cls-3{mask:url(#mask-2);filter:url(#luminosity-noclip-26);}.cls-4{fill:url(#radial-gradient-2);}.cls-5,.cls-7{mask:url(#mask-3);}.cls-5{filter:url(#luminosity-noclip-27);}.cls-6{fill:url(#radial-gradient-3);}.cls-7{filter:url(#luminosity-noclip-28);}.cls-8{fill:url(#radial-gradient-4);}.cls-9{mask:url(#mask-5);filter:url(#luminosity-noclip-29);}.cls-10{fill:url(#radial-gradient-5);}.cls-11{mask:url(#mask-6);filter:url(#luminosity-noclip-30);}.cls-12{fill:url(#radial-gradient-6);}.cls-13{mask:url(#mask-7);filter:url(#luminosity-noclip-22);}.cls-14{fill:url(#radial-gradient-7);}.cls-15,.cls-17{mask:url(#mask-8);}.cls-15{filter:url(#luminosity-noclip-31);}.cls-16{fill:url(#radial-gradient-8);}.cls-17{filter:url(#luminosity-noclip-32);}.cls-18{fill:url(#radial-gradient-9);}.cls-19{mask:url(#mask-10);filter:url(#luminosity-noclip-33);}.cls-20{fill:url(#radial-gradient-10);}.cls-21{mask:url(#mask-11);filter:url(#luminosity-noclip-34);}.cls-22{fill:url(#radial-gradient-11);}.cls-23,.cls-25{mask:url(#mask-12);}.cls-23{filter:url(#luminosity-noclip-35);}.cls-24{fill:url(#radial-gradient-12);}.cls-25{filter:url(#luminosity-noclip-36);}.cls-26{fill:url(#radial-gradient-13);}.cls-27{mask:url(#mask-14);filter:url(#luminosity-noclip-37);}.cls-28{fill:url(#radial-gradient-14);}.cls-29{mask:url(#mask-15);filter:url(#luminosity-noclip-38);}.cls-30{fill:url(#radial-gradient-15);}.cls-31,.cls-33{mask:url(#mask-16);}.cls-31{filter:url(#luminosity-noclip-39);}.cls-32{fill:url(#radial-gradient-16);}.cls-33{filter:url(#luminosity-noclip-40);}.cls-34{fill:url(#radial-gradient-17);}.cls-35,.cls-37{mask:url(#mask-18);}.cls-35{filter:url(#luminosity-noclip-23);}.cls-36{fill:url(#radial-gradient-18);}.cls-37{filter:url(#luminosity-noclip-24);}.cls-38{fill:url(#radial-gradient-19);}.cls-39{mask:url(#mask-20);filter:url(#luminosity-noclip-25);}.cls-40{fill:url(#radial-gradient-20);}.cls-41{fill:none;stroke:#d33c1a;stroke-linecap:round;stroke-linejoin:round;stroke-width:5px;}.cls-42{fill:#ff8c03;}.cls-43{fill:#ffa61c;}.cls-44,.cls-45{fill:#ffdb43;}.cls-45{opacity:0.74;}.cls-46{mask:url(#mask-21);}.cls-47{fill:url(#radial-gradient-21);}.cls-48{mask:url(#mask-22);}.cls-49{fill:url(#radial-gradient-22);}.cls-50{mask:url(#mask-23);}.cls-51{fill:url(#radial-gradient-23);}.cls-52{mask:url(#mask-24);}.cls-53{fill:url(#radial-gradient-24);}.cls-54,.cls-55,.cls-56,.cls-57{fill:#af611b;}.cls-54{opacity:0.4;}.cls-55{opacity:0.43;}.cls-56{opacity:0.31;}.cls-57{opacity:0.1;}.cls-58{mask:url(#mask-25);}.cls-59{fill:url(#radial-gradient-25);}.cls-60{mask:url(#mask-26);}.cls-61{fill:url(#radial-gradient-26);}.cls-62{mask:url(#mask-27);}.cls-63{fill:url(#radial-gradient-27);}.cls-64{mask:url(#mask-28);}.cls-65{fill:url(#radial-gradient-28);}.cls-66{mask:url(#mask-29);}.cls-67{fill:url(#radial-gradient-29);}.cls-68{mask:url(#mask-30);}.cls-69{fill:url(#radial-gradient-30);}.cls-70{mask:url(#mask-31);}.cls-71{fill:url(#radial-gradient-31);}.cls-72{mask:url(#mask-32);}.cls-73{fill:url(#radial-gradient-32);}.cls-74{mask:url(#mask-33);}.cls-75{fill:url(#radial-gradient-33);}.cls-76{mask:url(#mask-34);}.cls-77{fill:url(#radial-gradient-34);}.cls-78{mask:url(#mask-35);}.cls-79{fill:url(#radial-gradient-35);}.cls-80{mask:url(#mask-36);}.cls-81{fill:url(#radial-gradient-36);}.cls-82{mask:url(#mask-37);}.cls-83{fill:url(#radial-gradient-37);}.cls-84{mask:url(#mask-38);}.cls-85{fill:url(#radial-gradient-38);}.cls-86{mask:url(#mask-39);}.cls-87{fill:url(#radial-gradient-39);}.cls-88{mask:url(#mask-40);}.cls-89{fill:url(#radial-gradient-40);}.cls-90{filter:url(#luminosity-noclip-20);}.cls-91{filter:url(#luminosity-noclip-18);}.cls-92{filter:url(#luminosity-noclip-16);}.cls-93{filter:url(#luminosity-noclip-15);}.cls-94{filter:url(#luminosity-noclip-14);}.cls-95{filter:url(#luminosity-noclip-12);}.cls-96{filter:url(#luminosity-noclip-11);}.cls-97{filter:url(#luminosity-noclip-10);}.cls-98{filter:url(#luminosity-noclip-8);}.cls-99{filter:url(#luminosity-noclip-7);}.cls-100{filter:url(#luminosity-noclip-6);}.cls-101{filter:url(#luminosity-noclip-5);}.cls-102{filter:url(#luminosity-noclip-3);}.cls-103{filter:url(#luminosity-noclip-2);}.cls-104{filter:url(#luminosity-noclip);}</style><filter id="luminosity-noclip" x="37.28" y="-8254.39" width="1.37" height="32766" filterUnits="userSpaceOnUse" color-interpolation-filters="sRGB"><feFlood flood-color="#fff" result="bg"/><feBlend in="SourceGraphic" in2="bg"/></filter><mask id="mask" x="37.28" y="-8254.39" width="1.37" height="32766" maskUnits="userSpaceOnUse"><g class="cls-104"/></mask><radialGradient id="radial-gradient" cx="6.7" cy="53.54" r="12.92" gradientTransform="translate(31.65 -23.38) scale(0.94 0.89)" gradientUnits="userSpaceOnUse"><stop offset="0" stop-color="#fff"/><stop offset="1"/></radialGradient><filter id="luminosity-noclip-2" x="86.27" y="-8254.39" width="19.22" height="32766" filterUnits="userSpaceOnUse" color-interpolation-filters="sRGB"><feFlood flood-color="#fff" result="bg"/><feBlend in="SourceGraphic" in2="bg"/></filter><mask id="mask-2" x="86.27" y="-8254.39" width="19.22" height="32766" maskUnits="userSpaceOnUse"><g class="cls-103"/></mask><radialGradient id="radial-gradient-2" cx="606.41" cy="644.29" r="12.92" gradientTransform="translate(702.89 -517.92) rotate(90) scale(0.89 0.94)" xlink:href="#radial-gradient"/><filter id="luminosity-noclip-3" x="91.24" y="-8254.39" width="9.28" height="32766" filterUnits="userSpaceOnUse" color-interpolation-filters="sRGB"><feFlood flood-color="#fff" result="bg"/><feBlend in="SourceGraphic" in2="bg"/></filter><mask id="mask-3" x="91.24" y="-8254.39" width="9.28" height="32766" maskUnits="userSpaceOnUse"><g class="cls-102"/></mask><radialGradient id="radial-gradient-3" cx="215.02" cy="460.47" r="8.82" gradientTransform="matrix(0.67, 0.63, -0.67, 0.63, 259.4, -402.74)" xlink:href="#radial-gradient"/><radialGradient id="radial-gradient-4" cx="1013.34" cy="497.61" r="8.82" gradientTransform="matrix(-0.67, 0.63, -0.67, -0.63, 1102.44, -301.69)" xlink:href="#radial-gradient"/><filter id="luminosity-noclip-5" x="153.13" y="-8254.39" width="1.37" height="32766" filterUnits="userSpaceOnUse" color-interpolation-filters="sRGB"><feFlood flood-color="#fff" result="bg"/><feBlend in="SourceGraphic" in2="bg"/></filter><mask id="mask-5" x="153.13" y="-8254.39" width="1.37" height="32766" maskUnits="userSpaceOnUse"><g class="cls-101"/></mask><radialGradient id="radial-gradient-5" cx="129.67" cy="53.54" r="12.92" xlink:href="#radial-gradient"/><filter id="luminosity-noclip-6" x="144.21" y="-8254.39" width="19.22" height="32766" filterUnits="userSpaceOnUse" color-interpolation-filters="sRGB"><feFlood flood-color="#fff" result="bg"/><feBlend in="SourceGraphic" in2="bg"/></filter><mask id="mask-6" x="144.21" y="-8254.39" width="19.22" height="32766" maskUnits="userSpaceOnUse"><g class="cls-100"/></mask><radialGradient id="radial-gradient-6" cx="606.41" cy="582.8" r="12.92" gradientTransform="translate(702.89 -517.92) rotate(90) scale(0.89 0.94)" xlink:href="#radial-gradient"/><filter id="luminosity-noclip-7" x="28.36" y="-8254.39" width="19.22" height="32766" filterUnits="userSpaceOnUse" color-interpolation-filters="sRGB"><feFlood flood-color="#fff" result="bg"/><feBlend in="SourceGraphic" in2="bg"/></filter><mask id="mask-7" x="28.36" y="-8254.39" width="19.22" height="32766" maskUnits="userSpaceOnUse"><g class="cls-99"/></mask><radialGradient id="radial-gradient-7" cx="606.41" cy="705.77" r="12.92" gradientTransform="translate(702.89 -517.92) rotate(90) scale(0.89 0.94)" xlink:href="#radial-gradient"/><filter id="luminosity-noclip-8" x="149.18" y="-8254.39" width="9.28" height="32766" filterUnits="userSpaceOnUse" color-interpolation-filters="sRGB"><feFlood flood-color="#fff" result="bg"/><feBlend in="SourceGraphic" in2="bg"/></filter><mask id="mask-8" x="149.18" y="-8254.39" width="9.28" height="32766" maskUnits="userSpaceOnUse"><g class="cls-98"/></mask><radialGradient id="radial-gradient-8" cx="258.51" cy="416.99" r="8.82" gradientTransform="matrix(0.67, 0.63, -0.67, 0.63, 259.4, -402.74)" xlink:href="#radial-gradient"/><radialGradient id="radial-gradient-9" cx="969.86" cy="454.13" r="8.82" gradientTransform="matrix(-0.67, 0.63, -0.67, -0.63, 1102.44, -301.69)" xlink:href="#radial-gradient"/><filter id="luminosity-noclip-10" x="211.07" y="-8254.39" width="1.37" height="32766" filterUnits="userSpaceOnUse" color-interpolation-filters="sRGB"><feFlood flood-color="#fff" result="bg"/><feBlend in="SourceGraphic" in2="bg"/></filter><mask id="mask-10" x="211.07" y="-8254.39" width="1.37" height="32766" maskUnits="userSpaceOnUse"><g class="cls-97"/></mask><radialGradient id="radial-gradient-10" cx="191.16" cy="53.54" r="12.92" xlink:href="#radial-gradient"/><filter id="luminosity-noclip-11" x="202.14" y="-8254.39" width="19.22" height="32766" filterUnits="userSpaceOnUse" color-interpolation-filters="sRGB"><feFlood flood-color="#fff" result="bg"/><feBlend in="SourceGraphic" in2="bg"/></filter><mask id="mask-11" x="202.14" y="-8254.39" width="19.22" height="32766" maskUnits="userSpaceOnUse"><g class="cls-96"/></mask><radialGradient id="radial-gradient-11" cx="606.41" cy="521.31" r="12.92" gradientTransform="translate(702.89 -517.92) rotate(90) scale(0.89 0.94)" xlink:href="#radial-gradient"/><filter id="luminosity-noclip-12" x="207.11" y="-8254.39" width="9.28" height="32766" filterUnits="userSpaceOnUse" color-interpolation-filters="sRGB"><feFlood flood-color="#fff" result="bg"/><feBlend in="SourceGraphic" in2="bg"/></filter><mask id="mask-12" x="207.11" y="-8254.39" width="9.28" height="32766" maskUnits="userSpaceOnUse"><g class="cls-95"/></mask><radialGradient id="radial-gradient-12" cx="301.99" cy="373.51" r="8.82" gradientTransform="matrix(0.67, 0.63, -0.67, 0.63, 259.4, -402.74)" xlink:href="#radial-gradient"/><radialGradient id="radial-gradient-13" cx="926.37" cy="410.64" r="8.82" gradientTransform="matrix(-0.67, 0.63, -0.67, -0.63, 1102.44, -301.69)" xlink:href="#radial-gradient"/><filter id="luminosity-noclip-14" x="269" y="-8254.39" width="1.37" height="32766" filterUnits="userSpaceOnUse" color-interpolation-filters="sRGB"><feFlood flood-color="#fff" result="bg"/><feBlend in="SourceGraphic" in2="bg"/></filter><mask id="mask-14" x="269" y="-8254.39" width="1.37" height="32766" maskUnits="userSpaceOnUse"><g class="cls-94"/></mask><radialGradient id="radial-gradient-14" cx="252.66" cy="53.54" r="12.92" xlink:href="#radial-gradient"/><filter id="luminosity-noclip-15" x="260.08" y="-8254.39" width="19.22" height="32766" filterUnits="userSpaceOnUse" color-interpolation-filters="sRGB"><feFlood flood-color="#fff" result="bg"/><feBlend in="SourceGraphic" in2="bg"/></filter><mask id="mask-15" x="260.08" y="-8254.39" width="19.22" height="32766" maskUnits="userSpaceOnUse"><g class="cls-93"/></mask><radialGradient id="radial-gradient-15" cx="606.41" cy="459.81" r="12.92" gradientTransform="translate(702.89 -517.92) rotate(90) scale(0.89 0.94)" xlink:href="#radial-gradient"/><filter id="luminosity-noclip-16" x="265.04" y="-8254.39" width="9.28" height="32766" filterUnits="userSpaceOnUse" color-interpolation-filters="sRGB"><feFlood flood-color="#fff" result="bg"/><feBlend in="SourceGraphic" in2="bg"/></filter><mask id="mask-16" x="265.04" y="-8254.39" width="9.28" height="32766" maskUnits="userSpaceOnUse"><g class="cls-92"/></mask><radialGradient id="radial-gradient-16" cx="345.47" cy="330.02" r="8.82" gradientTransform="matrix(0.67, 0.63, -0.67, 0.63, 259.4, -402.74)" xlink:href="#radial-gradient"/><radialGradient id="radial-gradient-17" cx="882.89" cy="367.16" r="8.82" gradientTransform="matrix(-0.67, 0.63, -0.67, -0.63, 1102.44, -301.69)" xlink:href="#radial-gradient"/><filter id="luminosity-noclip-18" x="33.33" y="-8254.39" width="9.28" height="32766" filterUnits="userSpaceOnUse" color-interpolation-filters="sRGB"><feFlood flood-color="#fff" result="bg"/><feBlend in="SourceGraphic" in2="bg"/></filter><mask id="mask-18" x="33.33" y="-8254.39" width="9.28" height="32766" maskUnits="userSpaceOnUse"><g class="cls-91"/></mask><radialGradient id="radial-gradient-18" cx="171.55" cy="503.94" r="8.82" gradientTransform="matrix(0.67, 0.63, -0.67, 0.63, 259.4, -402.74)" xlink:href="#radial-gradient"/><radialGradient id="radial-gradient-19" cx="1056.81" cy="541.08" r="8.82" gradientTransform="matrix(-0.67, 0.63, -0.67, -0.63, 1102.44, -301.69)" xlink:href="#radial-gradient"/><filter id="luminosity-noclip-20" x="95.2" y="-8254.39" width="1.37" height="32766" filterUnits="userSpaceOnUse" color-interpolation-filters="sRGB"><feFlood flood-color="#fff" result="bg"/><feBlend in="SourceGraphic" in2="bg"/></filter><mask id="mask-20" x="95.2" y="-8254.39" width="1.37" height="32766" maskUnits="userSpaceOnUse"><g class="cls-90"/></mask><radialGradient id="radial-gradient-20" cx="68.18" cy="53.54" r="12.92" xlink:href="#radial-gradient"/><filter id="luminosity-noclip-21" x="37.28" y="15.39" width="1.37" height="18.25" filterUnits="userSpaceOnUse" color-interpolation-filters="sRGB"><feFlood flood-color="#fff" result="bg"/><feBlend in="SourceGraphic" in2="bg"/></filter><mask id="mask-21" x="37.28" y="15.39" width="1.37" height="18.25" maskUnits="userSpaceOnUse"><g class="cls-1"><path class="cls-2" d="M38.65,24.52,38,33.64l-.69-9.12L38,15.39Z"/></g></mask><radialGradient id="radial-gradient-21" cx="6.7" cy="53.54" r="12.92" gradientTransform="translate(31.65 -23.38) scale(0.94 0.89)" gradientUnits="userSpaceOnUse"><stop offset="0" stop-color="#fff"/><stop offset="1" stop-color="#fff"/></radialGradient><filter id="luminosity-noclip-22" x="28.36" y="23.86" width="19.22" height="1.3" filterUnits="userSpaceOnUse" color-interpolation-filters="sRGB"><feFlood flood-color="#fff" result="bg"/><feBlend in="SourceGraphic" in2="bg"/></filter><mask id="mask-22" x="28.36" y="23.86" width="19.22" height="1.3" maskUnits="userSpaceOnUse"><g class="cls-13"><path class="cls-14" d="M38,25.17l-9.61-.65L38,23.86l9.61.66Z"/></g></mask><radialGradient id="radial-gradient-22" cx="6.7" cy="53.54" r="12.92" xlink:href="#radial-gradient-21"/><filter id="luminosity-noclip-23" x="33.33" y="20.11" width="9.28" height="8.82" filterUnits="userSpaceOnUse" color-interpolation-filters="sRGB"><feFlood flood-color="#fff" result="bg"/><feBlend in="SourceGraphic" in2="bg"/></filter><mask id="mask-23" x="33.33" y="20.11" width="9.28" height="8.82" maskUnits="userSpaceOnUse"><g class="cls-35"><path class="cls-36" d="M38.3,24.83l-5,4.09,4.31-4.72,5-4.09Z"/></g></mask><radialGradient id="radial-gradient-23" cx="6.7" cy="53.54" r="8.8" xlink:href="#radial-gradient-21"/><mask id="mask-24" x="33.33" y="20.11" width="9.28" height="8.82" maskUnits="userSpaceOnUse"><g class="cls-37"><path class="cls-38" d="M37.64,24.83l-4.31-4.72,5,4.09,4.31,4.72Z"/></g></mask><radialGradient id="radial-gradient-24" cx="6.7" cy="53.54" r="8.8" xlink:href="#radial-gradient-21"/><filter id="luminosity-noclip-25" x="95.2" y="15.39" width="1.37" height="18.25" filterUnits="userSpaceOnUse" color-interpolation-filters="sRGB"><feFlood flood-color="#fff" result="bg"/><feBlend in="SourceGraphic" in2="bg"/></filter><mask id="mask-25" x="95.2" y="15.39" width="1.37" height="18.25" maskUnits="userSpaceOnUse"><g class="cls-39"><path class="cls-40" d="M96.57,24.52l-.69,9.12-.68-9.12.68-9.13Z"/></g></mask><radialGradient id="radial-gradient-25" cx="68.18" cy="53.54" r="12.92" xlink:href="#radial-gradient-21"/><filter id="luminosity-noclip-26" x="86.27" y="23.86" width="19.22" height="1.3" filterUnits="userSpaceOnUse" color-interpolation-filters="sRGB"><feFlood flood-color="#fff" result="bg"/><feBlend in="SourceGraphic" in2="bg"/></filter><mask id="mask-26" x="86.27" y="23.86" width="19.22" height="1.3" maskUnits="userSpaceOnUse"><g class="cls-3"><path class="cls-4" d="M95.88,25.17l-9.61-.65,9.61-.66,9.61.66Z"/></g></mask><radialGradient id="radial-gradient-26" cx="68.18" cy="53.54" r="12.92" xlink:href="#radial-gradient-21"/><filter id="luminosity-noclip-27" x="91.24" y="20.11" width="9.28" height="8.82" filterUnits="userSpaceOnUse" color-interpolation-filters="sRGB"><feFlood flood-color="#fff" result="bg"/><feBlend in="SourceGraphic" in2="bg"/></filter><mask id="mask-27" x="91.24" y="20.11" width="9.28" height="8.82" maskUnits="userSpaceOnUse"><g class="cls-5"><path class="cls-6" d="M96.21,24.83l-5,4.09,4.31-4.72,5-4.09Z"/></g></mask><radialGradient id="radial-gradient-27" cx="68.18" cy="53.54" r="8.8" xlink:href="#radial-gradient-21"/><mask id="mask-28" x="91.24" y="20.11" width="9.28" height="8.82" maskUnits="userSpaceOnUse"><g class="cls-7"><path class="cls-8" d="M95.55,24.83l-4.31-4.72,5,4.09,4.32,4.72Z"/></g></mask><radialGradient id="radial-gradient-28" cx="68.18" cy="53.54" r="8.8" xlink:href="#radial-gradient-21"/><filter id="luminosity-noclip-29" x="153.13" y="15.39" width="1.37" height="18.25" filterUnits="userSpaceOnUse" color-interpolation-filters="sRGB"><feFlood flood-color="#fff" result="bg"/><feBlend in="SourceGraphic" in2="bg"/></filter><mask id="mask-29" x="153.13" y="15.39" width="1.37" height="18.25" maskUnits="userSpaceOnUse"><g class="cls-9"><path class="cls-10" d="M154.5,24.52l-.68,9.12-.69-9.12.69-9.13Z"/></g></mask><radialGradient id="radial-gradient-29" cx="129.67" cy="53.54" r="12.92" xlink:href="#radial-gradient-21"/><filter id="luminosity-noclip-30" x="144.21" y="23.86" width="19.22" height="1.3" filterUnits="userSpaceOnUse" color-interpolation-filters="sRGB"><feFlood flood-color="#fff" result="bg"/><feBlend in="SourceGraphic" in2="bg"/></filter><mask id="mask-30" x="144.21" y="23.86" width="19.22" height="1.3" maskUnits="userSpaceOnUse"><g class="cls-11"><path class="cls-12" d="M153.82,25.17l-9.61-.65,9.61-.66,9.61.66Z"/></g></mask><radialGradient id="radial-gradient-30" cx="129.67" cy="53.54" r="12.92" xlink:href="#radial-gradient-21"/><filter id="luminosity-noclip-31" x="149.18" y="20.11" width="9.28" height="8.82" filterUnits="userSpaceOnUse" color-interpolation-filters="sRGB"><feFlood flood-color="#fff" result="bg"/><feBlend in="SourceGraphic" in2="bg"/></filter><mask id="mask-31" x="149.18" y="20.11" width="9.28" height="8.82" maskUnits="userSpaceOnUse"><g class="cls-15"><path class="cls-16" d="M154.15,24.83l-5,4.09,4.31-4.72,5-4.09Z"/></g></mask><radialGradient id="radial-gradient-31" cx="129.67" cy="53.54" r="8.8" xlink:href="#radial-gradient-21"/><mask id="mask-32" x="149.18" y="20.11" width="9.28" height="8.82" maskUnits="userSpaceOnUse"><g class="cls-17"><path class="cls-18" d="M153.49,24.83l-4.31-4.72,5,4.09,4.31,4.72Z"/></g></mask><radialGradient id="radial-gradient-32" cx="129.67" cy="53.54" r="8.8" xlink:href="#radial-gradient-21"/><filter id="luminosity-noclip-33" x="211.07" y="15.39" width="1.37" height="18.25" filterUnits="userSpaceOnUse" color-interpolation-filters="sRGB"><feFlood flood-color="#fff" result="bg"/><feBlend in="SourceGraphic" in2="bg"/></filter><mask id="mask-33" x="211.07" y="15.39" width="1.37" height="18.25" maskUnits="userSpaceOnUse"><g class="cls-19"><path class="cls-20" d="M212.44,24.52l-.69,9.12-.68-9.12.68-9.13Z"/></g></mask><radialGradient id="radial-gradient-33" cx="191.16" cy="53.54" r="12.92" xlink:href="#radial-gradient-21"/><filter id="luminosity-noclip-34" x="202.14" y="23.86" width="19.22" height="1.3" filterUnits="userSpaceOnUse" color-interpolation-filters="sRGB"><feFlood flood-color="#fff" result="bg"/><feBlend in="SourceGraphic" in2="bg"/></filter><mask id="mask-34" x="202.14" y="23.86" width="19.22" height="1.3" maskUnits="userSpaceOnUse"><g class="cls-21"><path class="cls-22" d="M211.75,25.17l-9.61-.65,9.61-.66,9.61.66Z"/></g></mask><radialGradient id="radial-gradient-34" cx="191.16" cy="53.54" r="12.92" xlink:href="#radial-gradient-21"/><filter id="luminosity-noclip-35" x="207.11" y="20.11" width="9.28" height="8.82" filterUnits="userSpaceOnUse" color-interpolation-filters="sRGB"><feFlood flood-color="#fff" result="bg"/><feBlend in="SourceGraphic" in2="bg"/></filter><mask id="mask-35" x="207.11" y="20.11" width="9.28" height="8.82" maskUnits="userSpaceOnUse"><g class="cls-23"><path class="cls-24" d="M212.08,24.83l-5,4.09,4.31-4.72,5-4.09Z"/></g></mask><radialGradient id="radial-gradient-35" cx="191.16" cy="53.54" r="8.8" xlink:href="#radial-gradient-21"/><mask id="mask-36" x="207.11" y="20.11" width="9.28" height="8.82" maskUnits="userSpaceOnUse"><g class="cls-25"><path class="cls-26" d="M211.42,24.83l-4.31-4.72,5,4.09,4.31,4.72Z"/></g></mask><radialGradient id="radial-gradient-36" cx="191.16" cy="53.54" r="8.8" xlink:href="#radial-gradient-21"/><filter id="luminosity-noclip-37" x="269" y="15.39" width="1.37" height="18.25" filterUnits="userSpaceOnUse" color-interpolation-filters="sRGB"><feFlood flood-color="#fff" result="bg"/><feBlend in="SourceGraphic" in2="bg"/></filter><mask id="mask-37" x="269" y="15.39" width="1.37" height="18.25" maskUnits="userSpaceOnUse"><g class="cls-27"><path class="cls-28" d="M270.37,24.52l-.68,9.12L269,24.52l.69-9.13Z"/></g></mask><radialGradient id="radial-gradient-37" cx="252.66" cy="53.54" r="12.92" xlink:href="#radial-gradient-21"/><filter id="luminosity-noclip-38" x="260.08" y="23.86" width="19.22" height="1.3" filterUnits="userSpaceOnUse" color-interpolation-filters="sRGB"><feFlood flood-color="#fff" result="bg"/><feBlend in="SourceGraphic" in2="bg"/></filter><mask id="mask-38" x="260.08" y="23.86" width="19.22" height="1.3" maskUnits="userSpaceOnUse"><g class="cls-29"><path class="cls-30" d="M269.69,25.17l-9.61-.65,9.61-.66,9.61.66Z"/></g></mask><radialGradient id="radial-gradient-38" cx="252.66" cy="53.54" r="12.92" xlink:href="#radial-gradient-21"/><filter id="luminosity-noclip-39" x="265.04" y="20.11" width="9.28" height="8.82" filterUnits="userSpaceOnUse" color-interpolation-filters="sRGB"><feFlood flood-color="#fff" result="bg"/><feBlend in="SourceGraphic" in2="bg"/></filter><mask id="mask-39" x="265.04" y="20.11" width="9.28" height="8.82" maskUnits="userSpaceOnUse"><g class="cls-31"><path class="cls-32" d="M270,24.83l-5,4.09,4.32-4.72,5-4.09Z"/></g></mask><radialGradient id="radial-gradient-39" cx="252.66" cy="53.54" r="8.8" xlink:href="#radial-gradient-21"/><mask id="mask-40" x="265.04" y="20.11" width="9.28" height="8.82" maskUnits="userSpaceOnUse"><g class="cls-33"><path class="cls-34" d="M269.36,24.83,265,20.11l5,4.09,4.31,4.72Z"/></g></mask><radialGradient id="radial-gradient-40" cx="252.66" cy="53.54" r="8.8" xlink:href="#radial-gradient-21"/></defs><path class="cls-41" d="M32.14,9.72c2.26,1.06,5.7,5.57,8.85,11.07C47.32,22,52.7,23.46,54.18,24.93c-1,2.78-3.79,7.13-8.15,11.63.53,5.8.4,10.44-.27,13-3.7-1.15-8-1.94-13.62-4-5.61,2.08-9.92,2.87-13.62,4-.67-2.54-.8-7.18-.26-13-4.37-4.5-7.19-8.85-8.16-11.63,1.48-1.47,6.86-3,13.19-4.14C26.44,15.29,29.88,10.78,32.14,9.72Z"/><path class="cls-42" d="M32.14,9.72c2.26,1.06,5.7,5.57,8.85,11.07C47.32,22,52.7,23.46,54.18,24.93c-1,2.78-3.79,7.13-8.15,11.63.53,5.8.4,10.44-.27,13-3.7-1.15-8-1.94-13.62-4-5.61,2.08-9.92,2.87-13.62,4-.67-2.54-.8-7.18-.26-13-4.37-4.5-7.19-8.85-8.16-11.63,1.48-1.47,6.86-3,13.19-4.14C26.44,15.29,29.88,10.78,32.14,9.72Z"/><path class="cls-43" d="M41.3,43.42c-2.25-.6-4.74-1.31-7.53-2.34L32,40.42l-1.78.66c-2.79,1-5.28,1.74-7.53,2.34A64.14,64.14,0,0,1,23,36.86l.19-2L21.7,33.3A44.48,44.48,0,0,1,16.53,27a75,75,0,0,1,7.54-1.73l2.26-.42,1.1-1.92A54.61,54.61,0,0,1,32,16.06a53.34,53.34,0,0,1,4.56,6.85l1.1,1.92,2.26.42A75,75,0,0,1,47.44,27a44.48,44.48,0,0,1-5.17,6.32L40.8,34.81l.19,2A64.14,64.14,0,0,1,41.3,43.42Z"/><path class="cls-44" d="M23.29,20.79l3,4s4.41-7.69,5.65-8.77l.16-6.34C29.87,11.08,27.06,14.26,23.29,20.79Z"/><path class="cls-44" d="M41,20.79l-3.35,4c-.18,0,7.72,1.37,9.8,2.15l6.74-2.05C52.14,23.25,48.41,22.12,41,20.79Z"/><path class="cls-45" d="M23.29,20.79l3,4c.17,0-7.72,1.37-9.8,2.15L10.1,24.93C12.14,23.25,15.87,22.12,23.29,20.79Z"/><path class="cls-45" d="M46,36.56,40.8,34.81c-.06-.16.63,6.39.5,8.61l4.46,6.12C46.17,47.66,46.7,43.6,46,36.56Z"/><path class="cls-44" d="M18.26,36.56l4.93-1.75c.06-.16-.65,6.39-.52,8.61l-4.15,6.12C18.11,47.66,17.58,43.6,18.26,36.56Z"/><g class="cls-46"><path class="cls-47" d="M38.65,24.52,38,33.64l-.69-9.12L38,15.39Z"/></g><g class="cls-48"><path class="cls-49" d="M38,25.17l-9.61-.65L38,23.86l9.61.66Z"/></g><g class="cls-50"><path class="cls-51" d="M38.3,24.83l-5,4.09,4.31-4.72,5-4.09Z"/></g><g class="cls-52"><path class="cls-53" d="M37.64,24.83l-4.31-4.72,5,4.09,4.31,4.72Z"/></g><path class="cls-54" d="M47.44,27s-4.5,6.31-6.64,7.83L46,36.56s6.64-6.79,8.15-11.63Z"/><path class="cls-55" d="M22.67,43.42a54.06,54.06,0,0,0,9.31-3l.16,5.1a107.91,107.91,0,0,1-13.62,4Z"/><path class="cls-56" d="M41.32,43.42a54.15,54.15,0,0,1-9.32-3l.14,5.1a107.91,107.91,0,0,0,13.62,4Z"/><path class="cls-57" d="M32.14,9.72,32,16.06s4.84,6.75,5.66,8.77l3.35-4S35.15,10.45,32.14,9.72Z"/><path class="cls-41" d="M90.06,9.72c2.26,1.06,5.69,5.57,8.85,11.07,6.32,1.18,11.7,2.67,13.19,4.14-1,2.78-3.79,7.13-8.16,11.63.54,5.8.4,10.44-.26,13-3.71-1.15-8-1.94-13.62-4-5.61,2.08-9.92,2.87-13.63,4-.66-2.54-.8-7.18-.26-13C71.8,32.06,69,27.71,68,24.93c1.49-1.47,6.87-3,13.19-4.14C84.36,15.29,87.79,10.78,90.06,9.72Z"/><path class="cls-42" d="M90.06,9.72c2.26,1.06,5.69,5.57,8.85,11.07,6.32,1.18,11.7,2.67,13.19,4.14-1,2.78-3.79,7.13-8.16,11.63.54,5.8.4,10.44-.26,13-3.71-1.15-8-1.94-13.62-4-5.61,2.08-9.92,2.87-13.63,4-.66-2.54-.8-7.18-.26-13C71.8,32.06,69,27.71,68,24.93c1.49-1.47,6.87-3,13.19-4.14C84.36,15.29,87.79,10.78,90.06,9.72Z"/><path class="cls-43" d="M99.22,43.42c-2.25-.6-4.75-1.31-7.54-2.34l-1.78-.66-1.78.66c-2.79,1-5.29,1.74-7.54,2.34,0-1.79.07-4,.31-6.56l.19-2L79.62,33.3A44.65,44.65,0,0,1,74.44,27,76,76,0,0,1,82,25.25l2.26-.42,1.1-1.92a52.46,52.46,0,0,1,4.55-6.85,52.46,52.46,0,0,1,4.55,6.85l1.1,1.92,2.26.42A76,76,0,0,1,105.36,27a44.65,44.65,0,0,1-5.18,6.32l-1.46,1.51.19,2C99.14,39.44,99.23,41.63,99.22,43.42Z"/><path class="cls-44" d="M81.2,20.79l3,4s4.41-7.69,5.65-8.77l.16-6.34C87.78,11.08,85,14.26,81.2,20.79Z"/><path class="cls-44" d="M98.91,20.79l-3.36,4c-.17,0,7.73,1.37,9.81,2.15l6.74-2.05C110.06,23.25,106.33,22.12,98.91,20.79Z"/><path class="cls-45" d="M81.2,20.79l3,4c.17,0-7.73,1.37-9.81,2.15L68,24.93C70.06,23.25,73.78,22.12,81.2,20.79Z"/><path class="cls-45" d="M103.94,36.56l-5.22-1.75c-.06-.16.62,6.39.5,8.61l4.46,6.12C104.08,47.66,104.61,43.6,103.94,36.56Z"/><path class="cls-44" d="M76.17,36.56l4.94-1.75c.06-.16-.65,6.39-.53,8.61l-4.15,6.12C76,47.66,75.5,43.6,76.17,36.56Z"/><g class="cls-58"><path class="cls-59" d="M96.57,24.52l-.69,9.12-.68-9.12.68-9.13Z"/></g><g class="cls-60"><path class="cls-61" d="M95.88,25.17l-9.61-.65,9.61-.66,9.61.66Z"/></g><g class="cls-62"><path class="cls-63" d="M96.21,24.83l-5,4.09,4.31-4.72,5-4.09Z"/></g><g class="cls-64"><path class="cls-65" d="M95.55,24.83l-4.31-4.72,5,4.09,4.32,4.72Z"/></g><path class="cls-54" d="M105.36,27s-4.5,6.31-6.64,7.83l5.22,1.75s6.64-6.79,8.16-11.63Z"/><path class="cls-55" d="M80.58,43.42a54.15,54.15,0,0,0,9.32-3l.16,5.1a108.1,108.1,0,0,1-13.63,4Z"/><path class="cls-56" d="M99.23,43.42a54.15,54.15,0,0,1-9.32-3l.15,5.1a107.42,107.42,0,0,0,13.62,4Z"/><path class="cls-57" d="M90.06,9.72l-.16,6.34s4.84,6.75,5.65,8.77l3.36-4S93.06,10.45,90.06,9.72Z"/><path class="cls-41" d="M148,9.72c2.26,1.06,5.7,5.57,8.85,11.07,6.33,1.18,11.71,2.67,13.19,4.14-1,2.78-3.79,7.13-8.15,11.63.53,5.8.4,10.44-.27,13-3.7-1.15-8-1.94-13.62-4-5.61,2.08-9.92,2.87-13.62,4-.67-2.54-.8-7.18-.27-13-4.36-4.5-7.18-8.85-8.15-11.63,1.48-1.47,6.86-3,13.19-4.14C142.29,15.29,145.73,10.78,148,9.72Z"/><path class="cls-42" d="M148,9.72c2.26,1.06,5.7,5.57,8.85,11.07,6.33,1.18,11.71,2.67,13.19,4.14-1,2.78-3.79,7.13-8.15,11.63.53,5.8.4,10.44-.27,13-3.7-1.15-8-1.94-13.62-4-5.61,2.08-9.92,2.87-13.62,4-.67-2.54-.8-7.18-.27-13-4.36-4.5-7.18-8.85-8.15-11.63,1.48-1.47,6.86-3,13.19-4.14C142.29,15.29,145.73,10.78,148,9.72Z"/><path class="cls-43" d="M157.15,43.42c-2.25-.6-4.74-1.31-7.53-2.34l-1.79-.66-1.78.66c-2.79,1-5.28,1.74-7.53,2.34a64.14,64.14,0,0,1,.31-6.56l.19-2-1.47-1.51A44.48,44.48,0,0,1,132.38,27a75,75,0,0,1,7.54-1.73l2.26-.42,1.1-1.92a54.61,54.61,0,0,1,4.55-6.85,52.46,52.46,0,0,1,4.55,6.85l1.11,1.92,2.26.42A75.68,75.68,0,0,1,163.29,27a44.48,44.48,0,0,1-5.17,6.32l-1.47,1.51.19,2A64.14,64.14,0,0,1,157.15,43.42Z"/><path class="cls-44" d="M139.14,20.79l3,4s4.41-7.69,5.65-8.77L148,9.72C145.72,11.08,142.91,14.26,139.14,20.79Z"/><path class="cls-44" d="M156.84,20.79l-3.35,4c-.18,0,7.72,1.37,9.8,2.15L170,24.93C168,23.25,164.26,22.12,156.84,20.79Z"/><path class="cls-45" d="M139.14,20.79l3,4c.17,0-7.72,1.37-9.8,2.15L126,24.93C128,23.25,131.72,22.12,139.14,20.79Z"/><path class="cls-45" d="M161.88,36.56l-5.23-1.75c-.06-.16.63,6.39.5,8.61l4.46,6.12C162,47.66,162.55,43.6,161.88,36.56Z"/><path class="cls-44" d="M134.1,36.56,139,34.81c.06-.16-.65,6.39-.52,8.61l-4.15,6.12C134,47.66,133.43,43.6,134.1,36.56Z"/><g class="cls-66"><path class="cls-67" d="M154.5,24.52l-.68,9.12-.69-9.12.69-9.13Z"/></g><g class="cls-68"><path class="cls-69" d="M153.82,25.17l-9.61-.65,9.61-.66,9.61.66Z"/></g><g class="cls-70"><path class="cls-71" d="M154.15,24.83l-5,4.09,4.31-4.72,5-4.09Z"/></g><g class="cls-72"><path class="cls-73" d="M153.49,24.83l-4.31-4.72,5,4.09,4.31,4.72Z"/></g><path class="cls-54" d="M163.29,27s-4.5,6.31-6.64,7.83l5.23,1.75s6.64-6.79,8.15-11.63Z"/><path class="cls-55" d="M138.52,43.42a54.06,54.06,0,0,0,9.31-3l.16,5.1a107.91,107.91,0,0,1-13.62,4Z"/><path class="cls-56" d="M157.16,43.42a54.34,54.34,0,0,1-9.31-3l.14,5.1a107.91,107.91,0,0,0,13.62,4Z"/><path class="cls-57" d="M148,9.72l-.16,6.34s4.84,6.75,5.66,8.77l3.35-4S151,10.45,148,9.72Z"/><path class="cls-41" d="M205.92,9.72c2.27,1.06,5.7,5.57,8.86,11.07,6.32,1.18,11.7,2.67,13.19,4.14-1,2.78-3.79,7.13-8.16,11.63.54,5.8.4,10.44-.26,13-3.71-1.15-8-1.94-13.63-4-5.6,2.08-9.91,2.87-13.62,4-.66-2.54-.8-7.18-.26-13-4.37-4.5-7.19-8.85-8.16-11.63,1.49-1.47,6.87-3,13.19-4.14C200.23,15.29,203.66,10.78,205.92,9.72Z"/><path class="cls-42" d="M205.92,9.72c2.27,1.06,5.7,5.57,8.86,11.07,6.32,1.18,11.7,2.67,13.19,4.14-1,2.78-3.79,7.13-8.16,11.63.54,5.8.4,10.44-.26,13-3.71-1.15-8-1.94-13.63-4-5.6,2.08-9.91,2.87-13.62,4-.66-2.54-.8-7.18-.26-13-4.37-4.5-7.19-8.85-8.16-11.63,1.49-1.47,6.87-3,13.19-4.14C200.23,15.29,203.66,10.78,205.92,9.72Z"/><path class="cls-43" d="M215.09,43.42c-2.25-.6-4.75-1.31-7.54-2.34l-1.78-.66-1.78.66c-2.79,1-5.29,1.74-7.54,2.34,0-1.79.07-4,.31-6.56l.19-2-1.46-1.51A44.65,44.65,0,0,1,190.31,27a76.37,76.37,0,0,1,7.54-1.73l2.27-.42,1.1-1.92a52.46,52.46,0,0,1,4.55-6.85,53.51,53.51,0,0,1,4.55,6.85l1.1,1.92,2.26.42A76,76,0,0,1,221.23,27a44.65,44.65,0,0,1-5.18,6.32l-1.47,1.51.19,2C215,39.44,215.1,41.63,215.09,43.42Z"/><path class="cls-44" d="M197.07,20.79l3.05,4s4.41-7.69,5.65-8.77l.15-6.34C203.65,11.08,200.84,14.26,197.07,20.79Z"/><path class="cls-44" d="M214.78,20.79l-3.36,4c-.17,0,7.73,1.37,9.81,2.15L228,24.93C225.92,23.25,222.2,22.12,214.78,20.79Z"/><path class="cls-45" d="M197.07,20.79l3.05,4c.17,0-7.73,1.37-9.81,2.15l-6.43-2.05C185.92,23.25,189.65,22.12,197.07,20.79Z"/><path class="cls-45" d="M219.81,36.56l-5.23-1.75c-.05-.16.63,6.39.51,8.61l4.46,6.12C220,47.66,220.48,43.6,219.81,36.56Z"/><path class="cls-44" d="M192,36.56,197,34.81c.05-.16-.65,6.39-.53,8.61l-4.15,6.12C191.9,47.66,191.36,43.6,192,36.56Z"/><g class="cls-74"><path class="cls-75" d="M212.44,24.52l-.69,9.12-.68-9.12.68-9.13Z"/></g><g class="cls-76"><path class="cls-77" d="M211.75,25.17l-9.61-.65,9.61-.66,9.61.66Z"/></g><g class="cls-78"><path class="cls-79" d="M212.08,24.83l-5,4.09,4.31-4.72,5-4.09Z"/></g><g class="cls-80"><path class="cls-81" d="M211.42,24.83l-4.31-4.72,5,4.09,4.31,4.72Z"/></g><path class="cls-54" d="M221.23,27s-4.5,6.31-6.65,7.83l5.23,1.75s6.64-6.79,8.16-11.63Z"/><path class="cls-55" d="M196.45,43.42a54.15,54.15,0,0,0,9.32-3l.15,5.1a107.42,107.42,0,0,1-13.62,4Z"/><path class="cls-56" d="M215.1,43.42a54.15,54.15,0,0,1-9.32-3l.14,5.1a108.1,108.1,0,0,0,13.63,4Z"/><path class="cls-57" d="M205.92,9.72l-.15,6.34s4.84,6.75,5.65,8.77l3.36-4S208.93,10.45,205.92,9.72Z"/><path class="cls-41" d="M263.86,9.72c2.26,1.06,5.7,5.57,8.85,11.07C279,22,284.42,23.46,285.9,24.93c-1,2.78-3.79,7.13-8.16,11.63.54,5.8.41,10.44-.26,13-3.7-1.15-8-1.94-13.62-4-5.61,2.08-9.92,2.87-13.63,4-.66-2.54-.79-7.18-.26-13-4.36-4.5-7.18-8.85-8.16-11.63,1.49-1.47,6.87-3,13.2-4.14C258.16,15.29,261.6,10.78,263.86,9.72Z"/><path class="cls-42" d="M263.86,9.72c2.26,1.06,5.7,5.57,8.85,11.07C279,22,284.42,23.46,285.9,24.93c-1,2.78-3.79,7.13-8.16,11.63.54,5.8.41,10.44-.26,13-3.7-1.15-8-1.94-13.62-4-5.61,2.08-9.92,2.87-13.63,4-.66-2.54-.79-7.18-.26-13-4.36-4.5-7.18-8.85-8.16-11.63,1.49-1.47,6.87-3,13.2-4.14C258.16,15.29,261.6,10.78,263.86,9.72Z"/><path class="cls-43" d="M273,43.42c-2.25-.6-4.75-1.31-7.54-2.34l-1.78-.66-1.78.66c-2.79,1-5.28,1.74-7.53,2.34a64.14,64.14,0,0,1,.31-6.56l.19-2-1.47-1.51A44.65,44.65,0,0,1,248.24,27a76,76,0,0,1,7.55-1.73l2.26-.42,1.1-1.92a54.61,54.61,0,0,1,4.55-6.85,52.46,52.46,0,0,1,4.55,6.85l1.11,1.92,2.26.42A75.68,75.68,0,0,1,279.16,27,45.19,45.19,0,0,1,274,33.3l-1.47,1.51.19,2C273,39.44,273,41.63,273,43.42Z"/><path class="cls-44" d="M255,20.79l3,4s4.41-7.69,5.65-8.77l.16-6.34C261.58,11.08,258.78,14.26,255,20.79Z"/><path class="cls-44" d="M272.71,20.79l-3.35,4c-.18,0,7.72,1.37,9.8,2.15l6.74-2.05C283.86,23.25,280.13,22.12,272.71,20.79Z"/><path class="cls-45" d="M255,20.79l3,4c.17,0-7.73,1.37-9.81,2.15l-6.43-2.05C243.86,23.25,247.59,22.12,255,20.79Z"/><path class="cls-45" d="M277.74,36.56l-5.22-1.75c-.06-.16.62,6.39.5,8.61l4.46,6.12C277.89,47.66,278.42,43.6,277.74,36.56Z"/><path class="cls-44" d="M250,36.56l4.94-1.75c.06-.16-.65,6.39-.52,8.61l-4.16,6.12C249.83,47.66,249.3,43.6,250,36.56Z"/><g class="cls-82"><path class="cls-83" d="M270.37,24.52l-.68,9.12L269,24.52l.69-9.13Z"/></g><g class="cls-84"><path class="cls-85" d="M269.69,25.17l-9.61-.65,9.61-.66,9.61.66Z"/></g><g class="cls-86"><path class="cls-87" d="M270,24.83l-5,4.09,4.32-4.72,5-4.09Z"/></g><g class="cls-88"><path class="cls-89" d="M269.36,24.83,265,20.11l5,4.09,4.31,4.72Z"/></g><path class="cls-54" d="M279.16,27s-4.5,6.31-6.64,7.83l5.22,1.75s6.64-6.79,8.16-11.63Z"/><path class="cls-55" d="M254.39,43.42a54.34,54.34,0,0,0,9.31-3l.16,5.1a107.6,107.6,0,0,1-13.63,4Z"/><path class="cls-56" d="M273,43.42a54.06,54.06,0,0,1-9.31-3l.14,5.1a107.91,107.91,0,0,0,13.62,4Z"/><path class="cls-57" d="M263.86,9.72l-.16,6.34s4.84,6.75,5.66,8.77l3.35-4S266.86,10.45,263.86,9.72Z"/></svg>