<svg id="Layer_1" data-name="Layer 1" xmlns="http://www.w3.org/2000/svg" viewBox="0 0 62.56 61.94"><defs><style>.cls-1{fill:#510000;}</style></defs><path class="cls-1" d="M11.75,47.34l0-3.53c.93-1.09,1.91-2.18,3-3.25l3.08-3.2q1.53-1.59,2.93-3.11a28.87,28.87,0,0,0,2.45-3.07,17.61,17.61,0,0,0,1.69-3.05,7.82,7.82,0,0,0,.63-3.05,3.35,3.35,0,0,0-1.17-2.65,4.27,4.27,0,0,0-2.88-1,4.89,4.89,0,0,0-2.19.48,5.58,5.58,0,0,0-1.66,1.25,9,9,0,0,0-1.22,1.69,14.6,14.6,0,0,0-.87,1.84l-4.32-3.14c.3-.68.67-1.45,1.12-2.32a8.74,8.74,0,0,1,2-2.48,10.66,10.66,0,0,1,3.33-2,14.15,14.15,0,0,1,5.24-.82,12.86,12.86,0,0,1,4,.59,9.12,9.12,0,0,1,3.09,1.69,7.25,7.25,0,0,1,2,2.65,8.53,8.53,0,0,1,.69,3.49,11.7,11.7,0,0,1-1.33,5.35,27.44,27.44,0,0,1-3.21,5,36.58,36.58,0,0,1-4,4.23Q22,40.8,20.57,42H32.85v5.31Z"/><path class="cls-1" d="M57.06,37.33a9.43,9.43,0,0,1-2.91,7.4c-1.94,1.74-4.65,2.61-8.15,2.61a15.28,15.28,0,0,1-6-1.14,13.28,13.28,0,0,1-4.74-3.38l2.52-4.44q4,3.65,7.83,3.65a6.07,6.07,0,0,0,3.92-1.23,3.89,3.89,0,0,0,1.53-3.17,4.39,4.39,0,0,0-1.29-3.43A5.31,5.31,0,0,0,46.08,33a5.21,5.21,0,0,0-2.36.52,9.3,9.3,0,0,0-2.23,1.59l-3.87-2.2.45-17h18l0,5.31H43.83l-.22,7.38c.43-.21.81-.38,1.13-.52s.64-.25.94-.34a5.15,5.15,0,0,1,1-.18c.35,0,.75,0,1.18,0a9.72,9.72,0,0,1,3.76.7,8.29,8.29,0,0,1,2.91,2,9.18,9.18,0,0,1,1.87,3.1A11.24,11.24,0,0,1,57.06,37.33Z"/></svg>