<svg id="Layer_1" data-name="Layer 1" xmlns="http://www.w3.org/2000/svg" viewBox="0 0 62.56 61.94"><defs><style>.cls-1{fill:#444;}</style></defs><path class="cls-1" d="M11.29,47.34l0-3.53c.93-1.09,1.92-2.18,2.95-3.25s2.06-2.14,3.08-3.2,2-2.1,2.93-3.11a27.66,27.66,0,0,0,2.45-3.07,17,17,0,0,0,1.69-3.05,7.82,7.82,0,0,0,.63-3.05,3.35,3.35,0,0,0-1.17-2.65,4.27,4.27,0,0,0-2.88-1,4.82,4.82,0,0,0-2.18.48,5.63,5.63,0,0,0-1.67,1.25A8.94,8.94,0,0,0,16,24.84a13.41,13.41,0,0,0-.88,1.84l-4.32-3.14c.3-.68.67-1.45,1.12-2.32a8.92,8.92,0,0,1,2-2.48,10.9,10.9,0,0,1,3.33-2,14.19,14.19,0,0,1,5.24-.82,12.82,12.82,0,0,1,4,.59,9,9,0,0,1,3.09,1.69,7.39,7.39,0,0,1,2,2.65,8.69,8.69,0,0,1,.68,3.49A11.81,11.81,0,0,1,30.8,29.7a28,28,0,0,1-3.22,5,36.58,36.58,0,0,1-4,4.23Q21.55,40.8,20.11,42H32.39v5.31Z"/><path class="cls-1" d="M45.58,47.34V22.8c-.6.69-1.17,1.32-1.71,1.87s-1.13,1.15-1.76,1.78l-3-4.05q1.35-1.17,2.61-2.34C42.47,19.4,43.21,18.7,44,18a25.43,25.43,0,0,0,1.85-2h5.75V47.34Z"/></svg>