<svg id="Layer_1" data-name="Layer 1" xmlns="http://www.w3.org/2000/svg" viewBox="0 0 62.56 61.94"><defs><style>.cls-1{fill:#444;}</style></defs><path class="cls-1" d="M30.5,45.53H24.92V37.79H13.36V14.07h5.76V32.75h5.8V25.14h5.54v7.61h4v5h-4Z"/><path class="cls-1" d="M37.16,45.53,37.21,42c.93-1.09,1.91-2.18,2.95-3.25l3.08-3.2q1.53-1.59,2.92-3.11a29,29,0,0,0,2.46-3.07,17.54,17.54,0,0,0,1.68-3.05,7.82,7.82,0,0,0,.63-3.05,3.35,3.35,0,0,0-1.17-2.65,4.27,4.27,0,0,0-2.88-1,4.85,4.85,0,0,0-2.18.48A5.58,5.58,0,0,0,43,21.34,9,9,0,0,0,41.82,23a14.68,14.68,0,0,0-.88,1.84l-4.32-3.14c.3-.68.68-1.46,1.13-2.33a8.84,8.84,0,0,1,2-2.47,10.66,10.66,0,0,1,3.33-2,14.15,14.15,0,0,1,5.24-.82,12.57,12.57,0,0,1,4,.59,9,9,0,0,1,3.09,1.69,7.39,7.39,0,0,1,2,2.65A8.53,8.53,0,0,1,58,22.54a11.7,11.7,0,0,1-1.33,5.35,27.49,27.49,0,0,1-3.22,5,37.41,37.41,0,0,1-4,4.23Q47.42,39,46,40.22H58.27v5.31Z"/></svg>