<svg id="Layer_1" data-name="Layer 1" xmlns="http://www.w3.org/2000/svg" viewBox="0 0 62.56 61.94"><defs><style>.cls-1{fill:#444;}</style></defs><path class="cls-1" d="M27.41,45.53H21.83V37.79H10.27V14.07H16V32.75h5.8V25.14h5.54v7.61h4v5h-4Z"/><path class="cls-1" d="M55.76,37.6a6.86,6.86,0,0,1-2.82,5.83q-2.82,2.1-7.85,2.1a17.14,17.14,0,0,1-4.69-.6,11.65,11.65,0,0,1-3.61-1.65,7.73,7.73,0,0,1-2.34-2.57,6.9,6.9,0,0,1-.83-3.37,6.76,6.76,0,0,1,1.51-4.54,12.55,12.55,0,0,1,5-3.18q-1.84-1.15-3-2a8.55,8.55,0,0,1-1.74-1.7,5.1,5.1,0,0,1-.83-1.77,9.48,9.48,0,0,1-.22-2.21A6.89,6.89,0,0,1,37,16.15c1.74-1.36,4.41-2,8-2a15.65,15.65,0,0,1,4.25.53,10.11,10.11,0,0,1,3.26,1.5,6.53,6.53,0,0,1,2.79,5.49A7,7,0,0,1,54,25.91a13,13,0,0,1-4.38,3.43,11.15,11.15,0,0,1,4.69,3.39A8,8,0,0,1,55.76,37.6Zm-6-.57a3.12,3.12,0,0,0-.36-1.55,3.56,3.56,0,0,0-1.06-1.14,9.93,9.93,0,0,0-1.67-.93c-.64-.29-1.37-.58-2.18-.89a9.16,9.16,0,0,0-3.28,1.68,3,3,0,0,0-.95,2.29,3.2,3.2,0,0,0,1.35,2.73,6,6,0,0,0,3.65,1,5.52,5.52,0,0,0,3.28-.87A2.72,2.72,0,0,0,49.78,37Zm-.86-14.27a2.92,2.92,0,0,0-1.19-2.41,5,5,0,0,0-3.13-.92,4.3,4.3,0,0,0-2.79.86,2.71,2.71,0,0,0-1.08,2.21c0,1.58,1.44,3,4.32,4.22a6.83,6.83,0,0,0,3-1.71A3.34,3.34,0,0,0,48.92,22.76Z"/></svg>