<svg id="Layer_1" data-name="Layer 1" xmlns="http://www.w3.org/2000/svg" viewBox="0 0 62.56 61.94"><defs><style>.cls-1{fill:#510000;}</style></defs><path class="cls-1" d="M29,45.53H23.39V37.79H11.82V14.07h5.76V32.75h5.81V25.14h5.53v7.61h4v5H29Z"/><path class="cls-1" d="M56.78,37A7.8,7.8,0,0,1,56,40.46a7.68,7.68,0,0,1-2.21,2.69A10.69,10.69,0,0,1,50.3,44.9a15.72,15.72,0,0,1-4.59.63,20.39,20.39,0,0,1-3.49-.28,12.26,12.26,0,0,1-2.9-.9,10.85,10.85,0,0,1-2.57-1.62,18.41,18.41,0,0,1-2.43-2.47l3-4q3.51,4,7.52,4a5.48,5.48,0,0,0,3.53-1,3.65,3.65,0,0,0,1.37-2.75,3.44,3.44,0,0,0-.36-2A3.65,3.65,0,0,0,47.82,33a8.57,8.57,0,0,0-3-.88A23.38,23.38,0,0,0,40,32V26.67a33.22,33.22,0,0,0,4.52,0,8.16,8.16,0,0,0,2.79-.61,3.09,3.09,0,0,0,1.44-1.28,4.19,4.19,0,0,0,.43-2,3.26,3.26,0,0,0-1.31-2.49,5.14,5.14,0,0,0-3.24-.94,7.52,7.52,0,0,0-3.19.7,13.44,13.44,0,0,0-3.24,2.28l-2.52-4.25q3.38-4,10.39-4a13.17,13.17,0,0,1,4,.56,9,9,0,0,1,3,1.62A7,7,0,0,1,55,18.8a7.77,7.77,0,0,1,.68,3.29,6.86,6.86,0,0,1-1.31,4.34,10.24,10.24,0,0,1-4.32,2.9,8.48,8.48,0,0,1,5,2.53A7.53,7.53,0,0,1,56.78,37Z"/></svg>