<svg id="Layer_1" data-name="Layer 1" xmlns="http://www.w3.org/2000/svg" viewBox="0 0 62.56 61.94"><defs><style>.cls-1{fill:#777;}</style></defs><path class="cls-1" d="M39.93,46.66H34l.35-13a8.27,8.27,0,0,1-2.51,1.54,8.86,8.86,0,0,1-2.95.44A9.24,9.24,0,0,1,25.26,35a8.05,8.05,0,0,1-2.84-2,8.86,8.86,0,0,1-1.82-3.1A12,12,0,0,1,20,25.8a11.78,11.78,0,0,1,.77-4.38A9.07,9.07,0,0,1,26.36,16a13.61,13.61,0,0,1,4.55-.73A9.65,9.65,0,0,1,38,17.84a9.16,9.16,0,0,1,2.42,7.08Zm-5.58-22.4a3.48,3.48,0,0,0-.29-1.43,3.5,3.5,0,0,0-2-1.87,4.15,4.15,0,0,0-1.5-.26,4,4,0,0,0-3.21,1.36,5.52,5.52,0,0,0-1.19,3.74,4.85,4.85,0,0,0,1,3.3,3.61,3.61,0,0,0,2.88,1.19,4,4,0,0,0,3-1.19,4.88,4.88,0,0,0,1.23-3.3Z"/></svg>