<svg id="Layer_1" data-name="Layer 1" xmlns="http://www.w3.org/2000/svg" viewBox="0 0 62.56 61.94"><defs><style>.cls-1{fill:#777;}</style></defs><path class="cls-1" d="M15.37,43.29v-24c-.59.68-1.14,1.28-1.67,1.83S12.6,22.25,12,22.86l-2.9-3.95c.88-.77,1.73-1.53,2.55-2.29s1.42-1.33,2.16-2.06,1.33-1.4,1.81-2h5.62V43.29Z"/><path class="cls-1" d="M51.36,35.54a6.71,6.71,0,0,1-2.76,5.7q-2.76,2.05-7.67,2a16.68,16.68,0,0,1-4.58-.58,11.5,11.5,0,0,1-3.53-1.62,7.39,7.39,0,0,1-2.29-2.51,6.61,6.61,0,0,1-.82-3.29,6.6,6.6,0,0,1,1.48-4.44,12.35,12.35,0,0,1,4.9-3.11c-1.2-.75-2.17-1.41-2.9-2a8.09,8.09,0,0,1-1.69-1.66,4.9,4.9,0,0,1-.82-1.73,9,9,0,0,1-.22-2.16A6.74,6.74,0,0,1,33,14.57c1.7-1.33,4.32-2,7.84-2A15.31,15.31,0,0,1,45,13.1a9.68,9.68,0,0,1,3.19,1.47,6.49,6.49,0,0,1,2,2.31,6.55,6.55,0,0,1,.7,3.05,6.8,6.8,0,0,1-1.3,4.18,12.64,12.64,0,0,1-4.29,3.35,10.94,10.94,0,0,1,4.6,3.32A7.82,7.82,0,0,1,51.36,35.54ZM45.51,35a3.06,3.06,0,0,0-.35-1.51,3.54,3.54,0,0,0-1-1.12,10.06,10.06,0,0,0-1.62-.91c-.64-.28-1.35-.57-2.14-.87a9.21,9.21,0,0,0-3.21,1.64,2.93,2.93,0,0,0-.92,2.25,3.14,3.14,0,0,0,1.32,2.67,5.85,5.85,0,0,0,3.56,1,5.38,5.38,0,0,0,3.21-.85A2.66,2.66,0,0,0,45.51,35ZM44.67,21a2.84,2.84,0,0,0-1.16-2.35,4.82,4.82,0,0,0-3.06-.91,4.2,4.2,0,0,0-2.73.85,2.64,2.64,0,0,0-1,2.16c0,1.54,1.4,2.91,4.22,4.12a6.63,6.63,0,0,0,3-1.67A3.31,3.31,0,0,0,44.67,21Z"/></svg>