<svg id="Layer_1" data-name="Layer 1" xmlns="http://www.w3.org/2000/svg" viewBox="0 0 62.56 61.94"><defs><style>.cls-1{fill:#777;}</style></defs><path class="cls-1" d="M35.06,50.56H30.24l.29-10.62a6.66,6.66,0,0,1-2.05,1.26,7.26,7.26,0,0,1-2.42.36,7.64,7.64,0,0,1-3-.58,6.49,6.49,0,0,1-2.32-1.64,7.31,7.31,0,0,1-1.5-2.54,10.63,10.63,0,0,1,.11-6.89,7.61,7.61,0,0,1,1.78-2.72A7.8,7.8,0,0,1,24,25.48a11.21,11.21,0,0,1,3.72-.59A7.88,7.88,0,0,1,33.52,27a7.46,7.46,0,0,1,2,5.79ZM30.49,32.23a2.94,2.94,0,0,0-.23-1.17,2.86,2.86,0,0,0-1.64-1.53,3.51,3.51,0,0,0-1.22-.21,3.3,3.3,0,0,0-2.63,1.11,4.51,4.51,0,0,0-1,3.06,4,4,0,0,0,.84,2.7,3,3,0,0,0,2.36,1,3.25,3.25,0,0,0,2.45-1,4,4,0,0,0,1-2.7Z"/></svg>