<svg id="Layer_1" data-name="Layer 1" xmlns="http://www.w3.org/2000/svg" viewBox="0 0 62.56 61.94"><defs><style>.cls-1{fill:#777;}</style></defs><path class="cls-1" d="M9.77,51.55l0-2.82c.75-.87,1.53-1.74,2.36-2.6l2.47-2.56Q15.85,42.3,17,41.08a23.62,23.62,0,0,0,2-2.45,14.58,14.58,0,0,0,1.35-2.44,6.38,6.38,0,0,0,.5-2.44,2.68,2.68,0,0,0-.93-2.12,3.43,3.43,0,0,0-2.31-.81,3.9,3.9,0,0,0-1.74.38,4.61,4.61,0,0,0-1.34,1,7.71,7.71,0,0,0-1,1.35,12.37,12.37,0,0,0-.7,1.48L9.33,32.51c.24-.54.54-1.16.9-1.85a7.31,7.31,0,0,1,1.57-2,8.81,8.81,0,0,1,2.66-1.59,11.4,11.4,0,0,1,4.2-.65,10,10,0,0,1,3.17.47,7.4,7.4,0,0,1,2.48,1.35,5.87,5.87,0,0,1,1.57,2.12,6.78,6.78,0,0,1,.55,2.79,9.44,9.44,0,0,1-1.06,4.29,22.5,22.5,0,0,1-2.57,4,30.28,30.28,0,0,1-3.17,3.38c-1.1,1-2,1.84-2.81,2.5h9.83v4.24Z"/><path class="cls-1" d="M46.45,44.76a6,6,0,0,1-2.37,4.89,8.51,8.51,0,0,1-2.81,1.4,12.5,12.5,0,0,1-3.68.5,15.79,15.79,0,0,1-2.79-.22,9.8,9.8,0,0,1-2.32-.72,8.79,8.79,0,0,1-2-1.29,14.63,14.63,0,0,1-1.94-2l2.37-3.2c1.87,2.11,3.88,3.17,6,3.17a4.34,4.34,0,0,0,2.83-.84,2.9,2.9,0,0,0,1.1-2.2,2.86,2.86,0,0,0-.29-1.56,3,3,0,0,0-1.22-1.21,7,7,0,0,0-2.42-.71,19.33,19.33,0,0,0-3.81-.07V36.47a26.31,26.31,0,0,0,3.62,0A6.6,6.6,0,0,0,38.91,36a2.47,2.47,0,0,0,1.15-1,3.3,3.3,0,0,0,.34-1.58,2.58,2.58,0,0,0-1-2,4.07,4.07,0,0,0-2.59-.76,6,6,0,0,0-2.56.57,10.28,10.28,0,0,0-2.59,1.82l-2-3.4c1.8-2.16,4.57-3.23,8.32-3.23a10.42,10.42,0,0,1,3.17.45,7.09,7.09,0,0,1,2.42,1.29,5.66,5.66,0,0,1,1.55,2,6.23,6.23,0,0,1,.54,2.64,5.55,5.55,0,0,1-1,3.47,8.22,8.22,0,0,1-3.46,2.31,6.77,6.77,0,0,1,4,2A6,6,0,0,1,46.45,44.76Z"/></svg>