<svg id="Layer_1" data-name="Layer 1" xmlns="http://www.w3.org/2000/svg" viewBox="0 0 62.56 61.94"><defs><style>.cls-1{fill:#510000;}</style></defs><path class="cls-1" d="M25.36,46.34l0-3.53c.93-1.09,1.92-2.17,3-3.25s2.06-2.14,3.08-3.2,2-2.1,2.93-3.11a27.66,27.66,0,0,0,2.45-3.07,17,17,0,0,0,1.69-3.05,7.79,7.79,0,0,0,.63-3.05A3.33,3.33,0,0,0,38,21.44a4.23,4.23,0,0,0-2.88-1,4.82,4.82,0,0,0-2.18.48,5.63,5.63,0,0,0-1.67,1.25A9.27,9.27,0,0,0,30,23.84a14,14,0,0,0-.88,1.84l-4.32-3.14c.3-.68.67-1.45,1.12-2.32a9.06,9.06,0,0,1,2-2.48,10.9,10.9,0,0,1,3.33-2,14.19,14.19,0,0,1,5.24-.82,12.82,12.82,0,0,1,4,.59,9,9,0,0,1,3.09,1.69,7.34,7.34,0,0,1,2,2.66,8.64,8.64,0,0,1,.68,3.48,11.78,11.78,0,0,1-1.32,5.35,28,28,0,0,1-3.22,5,37.53,37.53,0,0,1-4,4.24Q35.62,39.8,34.18,41H46.46v5.31Z"/></svg>