<svg id="Layer_1" data-name="Layer 1" xmlns="http://www.w3.org/2000/svg" viewBox="0 0 62.56 61.94"><defs><style>.cls-1{fill:#081735;}</style></defs><path class="cls-1" d="M14,51.55l0-2.82c.74-.87,1.53-1.74,2.35-2.6l2.47-2.56q1.23-1.27,2.34-2.49a22.37,22.37,0,0,0,2-2.45,13.28,13.28,0,0,0,1.35-2.44A6.21,6.21,0,0,0,25,33.75a2.69,2.69,0,0,0-.94-2.12,3.38,3.38,0,0,0-2.3-.81A4,4,0,0,0,20,31.2a4.43,4.43,0,0,0-1.33,1,7.23,7.23,0,0,0-1,1.35A12.46,12.46,0,0,0,17,35l-3.45-2.52c.24-.54.54-1.16.9-1.85a7.27,7.27,0,0,1,1.56-2,9,9,0,0,1,2.67-1.59,11.34,11.34,0,0,1,4.19-.65,10.1,10.1,0,0,1,3.18.47,7.45,7.45,0,0,1,2.47,1.35,6,6,0,0,1,1.58,2.12,6.94,6.94,0,0,1,.55,2.79,9.57,9.57,0,0,1-1.06,4.29,22.56,22.56,0,0,1-2.58,4,29.38,29.38,0,0,1-3.17,3.38c-1.1,1-2,1.84-2.8,2.5h9.82v4.24Z"/><path class="cls-1" d="M33.77,51.55l0-2.82c.74-.87,1.53-1.74,2.36-2.6l2.46-2.56Q39.86,42.3,41,41.08a22.49,22.49,0,0,0,2-2.45,14.58,14.58,0,0,0,1.35-2.44,6.38,6.38,0,0,0,.5-2.44,2.66,2.66,0,0,0-.94-2.12,3.38,3.38,0,0,0-2.3-.81,4,4,0,0,0-1.75.38,4.56,4.56,0,0,0-1.33,1,7.23,7.23,0,0,0-1,1.35A11,11,0,0,0,36.8,35l-3.46-2.52c.24-.54.54-1.16.9-1.85a7.12,7.12,0,0,1,1.57-2,8.81,8.81,0,0,1,2.66-1.59,11.36,11.36,0,0,1,4.2-.65,10,10,0,0,1,3.17.47,7.35,7.35,0,0,1,2.47,1.35,5.9,5.9,0,0,1,1.58,2.12,6.78,6.78,0,0,1,.55,2.79,9.44,9.44,0,0,1-1.06,4.29,23.08,23.08,0,0,1-2.57,4,30.28,30.28,0,0,1-3.17,3.38c-1.11,1-2,1.84-2.81,2.5h9.83v4.24Z"/></svg>