<svg id="Layer_1" data-name="Layer 1" xmlns="http://www.w3.org/2000/svg" viewBox="0 0 62.56 61.94"><defs><style>.cls-1{fill:#081735;}</style></defs><path class="cls-1" d="M23.36,49.74H18.89V43.55H9.64v-19h4.61V39.52h4.64V33.43h4.43v6.09h3.21v4H23.36Z"/><path class="cls-1" d="M44.63,49.74H39.81l.29-10.62A6.58,6.58,0,0,1,38,40.38a7.15,7.15,0,0,1-2.41.36,7.64,7.64,0,0,1-3-.57,6.62,6.62,0,0,1-2.32-1.64A7.4,7.4,0,0,1,28.81,36a9.83,9.83,0,0,1-.52-3.31,9.67,9.67,0,0,1,.63-3.58,7.38,7.38,0,0,1,4.61-4.43,11,11,0,0,1,3.72-.6,7.88,7.88,0,0,1,5.83,2.09,7.46,7.46,0,0,1,2,5.8ZM40.06,31.42a2.94,2.94,0,0,0-.23-1.17,3,3,0,0,0-.65-.92,2.94,2.94,0,0,0-1-.61A3.36,3.36,0,0,0,37,28.5a3.27,3.27,0,0,0-2.62,1.12,4.48,4.48,0,0,0-1,3.06,4,4,0,0,0,.84,2.7,3,3,0,0,0,2.36,1,3.25,3.25,0,0,0,2.45-1,4,4,0,0,0,1-2.7Z"/></svg>