<svg id="Layer_1" data-name="Layer 1" xmlns="http://www.w3.org/2000/svg" viewBox="0 0 62.56 61.94"><defs><style>.cls-1{fill:#444;}</style></defs><path class="cls-1" d="M43.33,37.85a7.8,7.8,0,0,1-.76,3.42A7.59,7.59,0,0,1,40.36,44a10.69,10.69,0,0,1-3.51,1.75,15.72,15.72,0,0,1-4.59.63,19.51,19.51,0,0,1-3.49-.28,12.88,12.88,0,0,1-2.9-.89,11.23,11.23,0,0,1-2.57-1.63,18.9,18.9,0,0,1-2.43-2.46l3-4q3.51,4,7.52,4a5.46,5.46,0,0,0,3.53-1,3.6,3.6,0,0,0,1.37-2.75,3.44,3.44,0,0,0-.36-2,3.65,3.65,0,0,0-1.53-1.51,8.79,8.79,0,0,0-3-.88,24.92,24.92,0,0,0-4.77-.1v-5.3a33,33,0,0,0,4.52,0,7.82,7.82,0,0,0,2.79-.61,3,3,0,0,0,1.44-1.28,4,4,0,0,0,.43-2,3.26,3.26,0,0,0-1.31-2.49,5.14,5.14,0,0,0-3.24-.94A7.53,7.53,0,0,0,28,21a12.9,12.9,0,0,0-3.24,2.28L22.27,19q3.38-4,10.39-4a12.86,12.86,0,0,1,4,.57,9,9,0,0,1,3,1.61,7.05,7.05,0,0,1,1.93,2.51,7.74,7.74,0,0,1,.68,3.29A6.85,6.85,0,0,1,41,27.24a10.15,10.15,0,0,1-4.32,2.9,8.48,8.48,0,0,1,5,2.53A7.53,7.53,0,0,1,43.33,37.85Z"/></svg>