<svg id="Layer_1" data-name="Layer 1" xmlns="http://www.w3.org/2000/svg" viewBox="0 0 62.56 61.94"><defs><style>.cls-1{fill:#022749;}</style></defs><path class="cls-1" d="M34.36,33.16a7.57,7.57,0,0,1-.74,3.34,7.46,7.46,0,0,1-2.16,2.63A10.77,10.77,0,0,1,28,40.85a15.73,15.73,0,0,1-4.49.61,18.66,18.66,0,0,1-3.41-.28,11.8,11.8,0,0,1-2.83-.87,11.34,11.34,0,0,1-2.51-1.58,18.88,18.88,0,0,1-2.38-2.42l2.91-3.92q3.42,3.88,7.34,3.88a5.34,5.34,0,0,0,3.46-1,3.57,3.57,0,0,0,1.34-2.69,3.52,3.52,0,0,0-.35-1.91,3.57,3.57,0,0,0-1.5-1.48,8.51,8.51,0,0,0-3-.86,23.78,23.78,0,0,0-4.66-.1V23a31.78,31.78,0,0,0,4.42.05,8,8,0,0,0,2.73-.6,3,3,0,0,0,1.41-1.25A4,4,0,0,0,27,19.3a3.2,3.2,0,0,0-1.28-2.44,5.06,5.06,0,0,0-3.17-.92,7.35,7.35,0,0,0-3.12.69,12.42,12.42,0,0,0-3.17,2.23L13.77,14.7q3.3-4,10.16-3.95a12.63,12.63,0,0,1,3.88.55,8.82,8.82,0,0,1,3,1.58,6.94,6.94,0,0,1,1.89,2.45,7.56,7.56,0,0,1,.66,3.22A6.73,6.73,0,0,1,32,22.79a10.06,10.06,0,0,1-4.22,2.83,8.24,8.24,0,0,1,4.87,2.48A7.35,7.35,0,0,1,34.36,33.16Z"/><path class="cls-1" d="M37.83,41.46,37.88,38q1.36-1.59,2.88-3.17c1-1,2-2.09,3-3.13s1.95-2.05,2.86-3a28.65,28.65,0,0,0,2.4-3,16.81,16.81,0,0,0,1.65-3,7.65,7.65,0,0,0,.62-3,3.24,3.24,0,0,0-1.15-2.59,4.15,4.15,0,0,0-2.81-1,4.68,4.68,0,0,0-2.14.48,5.32,5.32,0,0,0-1.62,1.22,8.45,8.45,0,0,0-1.19,1.65,13.38,13.38,0,0,0-.86,1.8l-4.22-3.07c.29-.67.66-1.42,1.1-2.27a8.8,8.8,0,0,1,1.91-2.43,10.63,10.63,0,0,1,3.26-1.94,13.79,13.79,0,0,1,5.12-.8,12.29,12.29,0,0,1,3.88.58,8.55,8.55,0,0,1,3,1.65,7.16,7.16,0,0,1,1.93,2.59A8.34,8.34,0,0,1,58.21,19a11.63,11.63,0,0,1-1.3,5.24,28,28,0,0,1-3.15,4.86,36.64,36.64,0,0,1-3.87,4.14q-2,1.85-3.43,3.05h12v5.19Z"/></svg>