<svg id="Layer_1" data-name="Layer 1" xmlns="http://www.w3.org/2000/svg" viewBox="0 0 62.56 61.94"><defs><style>.cls-1{fill:#510000;}</style></defs><path class="cls-1" d="M10,47.34,10,43.81c.93-1.09,1.91-2.18,2.94-3.25L16,37.36q1.53-1.59,2.92-3.11a27.66,27.66,0,0,0,2.45-3.07,17,17,0,0,0,1.69-3.05,7.82,7.82,0,0,0,.63-3.05,3.35,3.35,0,0,0-1.17-2.65,4.27,4.27,0,0,0-2.88-1,4.82,4.82,0,0,0-2.18.48,5.63,5.63,0,0,0-1.67,1.25,8.94,8.94,0,0,0-1.21,1.69,13.41,13.41,0,0,0-.88,1.84L9.41,23.54c.3-.68.68-1.45,1.13-2.32a8.87,8.87,0,0,1,2-2.48,10.9,10.9,0,0,1,3.33-2,14.25,14.25,0,0,1,5.25-.82,12.75,12.75,0,0,1,4,.59,9,9,0,0,1,3.09,1.69,7.39,7.39,0,0,1,2,2.65,8.53,8.53,0,0,1,.69,3.49,11.82,11.82,0,0,1-1.33,5.35,28,28,0,0,1-3.22,5,36.58,36.58,0,0,1-4,4.23Q20.21,40.8,18.77,42H31.06v5.31Z"/><path class="cls-1" d="M56.35,39.41a6.86,6.86,0,0,1-2.83,5.83c-1.88,1.4-4.49,2.1-7.85,2.1a17,17,0,0,1-4.68-.6,11.55,11.55,0,0,1-3.61-1.65A7.53,7.53,0,0,1,35,42.52a6.76,6.76,0,0,1-.83-3.37,6.81,6.81,0,0,1,1.5-4.54,12.73,12.73,0,0,1,5-3.18,35.37,35.37,0,0,1-3-2A8.23,8.23,0,0,1,36,27.72,4.93,4.93,0,0,1,35.2,26a8.84,8.84,0,0,1-.23-2.2A6.89,6.89,0,0,1,37.58,18q2.61-2,8-2a16,16,0,0,1,4.25.53A10.07,10.07,0,0,1,53.11,18a6.49,6.49,0,0,1,2.78,5.49,7,7,0,0,1-1.32,4.27,13,13,0,0,1-4.39,3.43,11.19,11.19,0,0,1,4.7,3.39A8,8,0,0,1,56.35,39.41Zm-6-.57A3.14,3.14,0,0,0,50,37.29a3.45,3.45,0,0,0-1.06-1.14,9.82,9.82,0,0,0-1.66-.93c-.65-.29-1.37-.58-2.18-.89A9.39,9.39,0,0,0,41.81,36a3,3,0,0,0-.94,2.29A3.23,3.23,0,0,0,42.22,41a6,6,0,0,0,3.64,1,5.5,5.5,0,0,0,3.28-.87A2.69,2.69,0,0,0,50.36,38.84Zm-.85-14.27a2.88,2.88,0,0,0-1.2-2.4,4.93,4.93,0,0,0-3.12-.93,4.39,4.39,0,0,0-2.8.86,2.74,2.74,0,0,0-1.07,2.21c0,1.58,1.44,3,4.32,4.22a6.79,6.79,0,0,0,3-1.71A3.35,3.35,0,0,0,49.51,24.57Z"/></svg>