<svg id="Layer_1" data-name="Layer 1" xmlns="http://www.w3.org/2000/svg" viewBox="0 0 62.56 61.94"><defs><style>.cls-1{fill:#444;}</style></defs><path class="cls-1" d="M10.92,47.34,11,43.81c.93-1.09,1.91-2.18,2.95-3.25L17,37.36q1.53-1.59,2.92-3.11a29,29,0,0,0,2.46-3.07,17.54,17.54,0,0,0,1.68-3.05,7.82,7.82,0,0,0,.63-3.05,3.35,3.35,0,0,0-1.17-2.65,4.27,4.27,0,0,0-2.88-1,4.85,4.85,0,0,0-2.18.48,5.58,5.58,0,0,0-1.66,1.25,9,9,0,0,0-1.22,1.69,14.68,14.68,0,0,0-.88,1.84l-4.32-3.14c.3-.68.68-1.45,1.13-2.32a8.74,8.74,0,0,1,2-2.48,10.66,10.66,0,0,1,3.33-2A14.15,14.15,0,0,1,22,15.93a12.86,12.86,0,0,1,4,.59,9.21,9.21,0,0,1,3.09,1.69,7.48,7.48,0,0,1,2,2.65,8.53,8.53,0,0,1,.69,3.49,11.7,11.7,0,0,1-1.33,5.35,27.49,27.49,0,0,1-3.22,5,36.58,36.58,0,0,1-4,4.23Q21.18,40.8,19.74,42H32v5.31Z"/><path class="cls-1" d="M56.24,37.33a9.43,9.43,0,0,1-2.91,7.4q-2.91,2.61-8.15,2.61a15.28,15.28,0,0,1-6-1.14,13.28,13.28,0,0,1-4.74-3.38L37,38.38Q41,42,44.81,42a6,6,0,0,0,3.91-1.23,3.89,3.89,0,0,0,1.53-3.17A4.39,4.39,0,0,0,49,34.2,5.31,5.31,0,0,0,45.26,33a5.21,5.21,0,0,0-2.36.52,9.3,9.3,0,0,0-2.23,1.59l-3.87-2.2.45-17h18l0,5.31H43l-.23,7.38,1.14-.52a9.74,9.74,0,0,1,.94-.34,4.87,4.87,0,0,1,1-.18c.35,0,.74,0,1.18,0a9.76,9.76,0,0,1,3.76.7,8.34,8.34,0,0,1,2.9,2,9.2,9.2,0,0,1,1.88,3.1A11.46,11.46,0,0,1,56.24,37.33Z"/></svg>