<svg id="Layer_1" data-name="Layer 1" xmlns="http://www.w3.org/2000/svg" viewBox="0 0 62.56 61.94"><defs><style>.cls-1{fill:#081735;}</style></defs><path class="cls-1" d="M24.46,41.74a7.56,7.56,0,0,1-2.32,5.92,9.46,9.46,0,0,1-6.53,2.08,12.19,12.19,0,0,1-4.78-.91A10.63,10.63,0,0,1,7,46.13l2-3.55q3.21,2.91,6.27,2.91a4.82,4.82,0,0,0,3.13-1A3.09,3.09,0,0,0,19.67,42a3.53,3.53,0,0,0-1-2.74,4.3,4.3,0,0,0-3-.94,4.17,4.17,0,0,0-1.89.42A7.2,7.2,0,0,0,12,40l-3.1-1.77.36-13.61h14.4l0,4.25H13.88l-.18,5.91.91-.42a5.63,5.63,0,0,1,.75-.27,3.73,3.73,0,0,1,.78-.14,9.13,9.13,0,0,1,.95,0,7.71,7.71,0,0,1,3,.57,6.45,6.45,0,0,1,2.33,1.59,7.25,7.25,0,0,1,1.5,2.48A9.11,9.11,0,0,1,24.46,41.74Z"/><path class="cls-1" d="M45.7,36.74q0,6.87-2.36,9.93c-1.58,2-3.91,3.07-7,3.07s-5.44-1-7-3.08S27,41.45,27,37.2s.78-7.39,2.36-9.47,3.91-3.12,7-3.12Q45.71,24.61,45.7,36.74ZM40.05,37A16,16,0,0,0,39.11,31a2.84,2.84,0,0,0-2.75-1.77,3,3,0,0,0-2.79,1.92,17.41,17.41,0,0,0-1,6.36,15.47,15.47,0,0,0,.94,5.62,3,3,0,0,0,2.82,1.94,2.87,2.87,0,0,0,2.7-1.88A16.83,16.83,0,0,0,40.05,37Z"/></svg>