<svg id="Layer_1" data-name="Layer 1" xmlns="http://www.w3.org/2000/svg" viewBox="0 0 62.56 61.94"><defs><style>.cls-1{fill:#081735;}</style></defs><path class="cls-1" d="M26.09,50.56l0-2.83c.75-.87,1.53-1.74,2.36-2.6L31,42.57q1.22-1.27,2.34-2.49a23.62,23.62,0,0,0,2-2.45,14.58,14.58,0,0,0,1.35-2.44,6.34,6.34,0,0,0,.5-2.44,2.68,2.68,0,0,0-.93-2.12,3.41,3.41,0,0,0-2.31-.81,3.81,3.81,0,0,0-1.74.39,4.4,4.4,0,0,0-1.33,1,7,7,0,0,0-1,1.36,12.24,12.24,0,0,0-.7,1.47l-3.45-2.51c.23-.55.54-1.17.9-1.86a7.08,7.08,0,0,1,1.56-2,8.68,8.68,0,0,1,2.67-1.6A11.52,11.52,0,0,1,35,25.43a10.29,10.29,0,0,1,3.17.47,7.4,7.4,0,0,1,2.48,1.35,5.91,5.91,0,0,1,1.57,2.13,6.78,6.78,0,0,1,.56,2.79,9.41,9.41,0,0,1-1.07,4.28,22,22,0,0,1-2.57,4A30.34,30.34,0,0,1,36,43.82c-1.1,1-2,1.83-2.81,2.49H43v4.25Z"/></svg>