<svg id="Layer_1" data-name="Layer 1" xmlns="http://www.w3.org/2000/svg" viewBox="0 0 62.56 61.94"><defs><style>.cls-1{fill:#510000;}</style></defs><path class="cls-1" d="M27,45.53H21.38V37.79H9.82V14.07h5.76V32.75h5.8V25.14h5.54v7.61h4v5H27Z"/><path class="cls-1" d="M55,35.38a11.18,11.18,0,0,1-.75,4.2,9,9,0,0,1-5.36,5.22,12.86,12.86,0,0,1-8.79-.09,9.55,9.55,0,0,1-3.46-2.34,10.82,10.82,0,0,1-2.23-3.62,13.33,13.33,0,0,1-.79-4.69,16.74,16.74,0,0,1,1-5.54,28.08,28.08,0,0,1,2.49-5.34,38.74,38.74,0,0,1,3.44-4.89,46.44,46.44,0,0,1,3.87-4.17H52a46.77,46.77,0,0,0-5.57,6,48.94,48.94,0,0,0-4.55,7c.47-.27.9-.49,1.28-.67A7.56,7.56,0,0,1,44.22,26a6,6,0,0,1,1-.23,10.61,10.61,0,0,1,1.19-.06,8.36,8.36,0,0,1,3.46.7,7.67,7.67,0,0,1,2.69,2,9.71,9.71,0,0,1,1.76,3.07A11.57,11.57,0,0,1,55,35.38Zm-6,.13a4.43,4.43,0,0,0-1.07-3.14,3.69,3.69,0,0,0-2.85-1.15A6,6,0,0,0,40.91,33q-.13.68-.18,1a6.93,6.93,0,0,0,0,.88,5,5,0,0,0,1.22,3.49,4.08,4.08,0,0,0,3.18,1.35,3.66,3.66,0,0,0,2.85-1.16A4.29,4.29,0,0,0,49,35.51Z"/></svg>