<svg id="Layer_1" data-name="Layer 1" xmlns="http://www.w3.org/2000/svg" viewBox="0 0 62.56 61.94"><defs><style>.cls-1{fill:#510000;}</style></defs><path class="cls-1" d="M34.66,37.44a7.8,7.8,0,0,1-.76,3.42,7.68,7.68,0,0,1-2.21,2.69,10.79,10.79,0,0,1-3.51,1.75,15.77,15.77,0,0,1-4.59.63,20.3,20.3,0,0,1-3.49-.28,12.26,12.26,0,0,1-2.9-.9,10.85,10.85,0,0,1-2.57-1.62,18.9,18.9,0,0,1-2.43-2.46l3-4c2.34,2.64,4.84,4,7.52,4a5.48,5.48,0,0,0,3.53-1,3.65,3.65,0,0,0,1.37-2.75,3.61,3.61,0,0,0-.36-2,3.65,3.65,0,0,0-1.53-1.51,8.57,8.57,0,0,0-3-.88,23.38,23.38,0,0,0-4.77-.1V27.07a33.22,33.22,0,0,0,4.52.05,8.16,8.16,0,0,0,2.79-.61,3.09,3.09,0,0,0,1.44-1.28,4.19,4.19,0,0,0,.43-2,3.29,3.29,0,0,0-1.31-2.49,5.14,5.14,0,0,0-3.24-.94,7.52,7.52,0,0,0-3.19.7,12.87,12.87,0,0,0-3.24,2.29L13.6,18.56q3.38-4,10.39-4a13.22,13.22,0,0,1,4,.56,8.92,8.92,0,0,1,3,1.62,7,7,0,0,1,1.94,2.5,7.77,7.77,0,0,1,.67,3.29,6.86,6.86,0,0,1-1.3,4.34A10.24,10.24,0,0,1,28,29.73a8.48,8.48,0,0,1,5,2.53A7.53,7.53,0,0,1,34.66,37.44Z"/><path class="cls-1" d="M56.25,45.93H50.67V38.19H39.11V14.47h5.76V33.15h5.8V25.54h5.54v7.61h4v5h-4Z"/></svg>