<svg id="Layer_1" data-name="Layer 1" xmlns="http://www.w3.org/2000/svg" viewBox="0 0 62.56 61.94"><defs><style>.cls-1{fill:#022749;}</style></defs><path class="cls-1" d="M31,33.16a7.44,7.44,0,0,1-.75,3.34,7.33,7.33,0,0,1-2.15,2.63,10.77,10.77,0,0,1-3.44,1.72,15.78,15.78,0,0,1-4.49.61,18.59,18.59,0,0,1-3.41-.28,11.88,11.88,0,0,1-2.84-.87,11.28,11.28,0,0,1-2.5-1.58,18.25,18.25,0,0,1-2.38-2.42L12,32.39q3.44,3.88,7.35,3.88a5.34,5.34,0,0,0,3.46-1,3.57,3.57,0,0,0,1.34-2.69,3.52,3.52,0,0,0-.35-1.91,3.62,3.62,0,0,0-1.5-1.48,8.51,8.51,0,0,0-2.95-.86,23.78,23.78,0,0,0-4.66-.1V23a31.78,31.78,0,0,0,4.42.05,8,8,0,0,0,2.73-.6,3,3,0,0,0,1.41-1.25,4.13,4.13,0,0,0,.41-1.92,3.16,3.16,0,0,0-1.27-2.44,5.06,5.06,0,0,0-3.17-.92,7.32,7.32,0,0,0-3.12.69,12.42,12.42,0,0,0-3.17,2.23L10.41,14.7q3.3-4,10.17-3.95a12.63,12.63,0,0,1,3.88.55,8.82,8.82,0,0,1,3,1.58,6.94,6.94,0,0,1,1.89,2.45A7.56,7.56,0,0,1,30,18.55a6.73,6.73,0,0,1-1.28,4.24,10.06,10.06,0,0,1-4.22,2.83,8.27,8.27,0,0,1,4.87,2.48A7.35,7.35,0,0,1,31,33.16Z"/><path class="cls-1" d="M55.38,31.54a10.85,10.85,0,0,1-.73,4.1,8.83,8.83,0,0,1-2,3.11,9,9,0,0,1-3.19,2,11.86,11.86,0,0,1-4.2.71,11.67,11.67,0,0,1-4.39-.8,9.38,9.38,0,0,1-3.39-2.29,10.48,10.48,0,0,1-2.17-3.53,12.87,12.87,0,0,1-.78-4.6,16.26,16.26,0,0,1,.94-5.41,28,28,0,0,1,2.43-5.22,37.88,37.88,0,0,1,3.37-4.79A45.59,45.59,0,0,1,45,10.75h7.44A46.19,46.19,0,0,0,47,16.65a48.4,48.4,0,0,0-4.44,6.81c.46-.26.88-.48,1.25-.66a10.55,10.55,0,0,1,1.06-.42,6.72,6.72,0,0,1,1-.22A10.06,10.06,0,0,1,47,22.1a8.11,8.11,0,0,1,3.38.69A7.33,7.33,0,0,1,53,24.74a9.22,9.22,0,0,1,1.73,3A11.34,11.34,0,0,1,55.38,31.54Zm-5.85.13a4.37,4.37,0,0,0-1-3.07,3.6,3.6,0,0,0-2.79-1.13,5.78,5.78,0,0,0-4.09,1.73c-.09.44-.15.76-.18,1a6.85,6.85,0,0,0,0,.87,4.93,4.93,0,0,0,1.19,3.42,4,4,0,0,0,3.11,1.31,3.61,3.61,0,0,0,2.8-1.13A4.24,4.24,0,0,0,49.53,31.67Z"/></svg>