<svg id="Layer_1" data-name="Layer 1" xmlns="http://www.w3.org/2000/svg" viewBox="0 0 62.56 61.94"><defs><style>.cls-1{fill:#777;}</style></defs><path class="cls-1" d="M10.59,51.55l0-2.82c.74-.87,1.53-1.74,2.36-2.6l2.46-2.56q1.23-1.27,2.34-2.49a22.37,22.37,0,0,0,2-2.45,13.28,13.28,0,0,0,1.35-2.44,6.21,6.21,0,0,0,.51-2.44,2.69,2.69,0,0,0-.94-2.12,3.38,3.38,0,0,0-2.3-.81,4,4,0,0,0-1.75.38,4.56,4.56,0,0,0-1.33,1,7.23,7.23,0,0,0-1,1.35A12.46,12.46,0,0,0,13.61,35l-3.45-2.52c.24-.54.54-1.16.9-1.85a7.12,7.12,0,0,1,1.57-2,8.81,8.81,0,0,1,2.66-1.59,11.34,11.34,0,0,1,4.19-.65,10.06,10.06,0,0,1,3.18.47,7.35,7.35,0,0,1,2.47,1.35,5.9,5.9,0,0,1,1.58,2.12,6.94,6.94,0,0,1,.55,2.79,9.57,9.57,0,0,1-1.06,4.29,22.56,22.56,0,0,1-2.58,4,29.38,29.38,0,0,1-3.17,3.38c-1.1,1-2,1.84-2.8,2.5h9.83v4.24Z"/><path class="cls-1" d="M46.84,43.55a7.55,7.55,0,0,1-2.32,5.92A9.46,9.46,0,0,1,38,51.55a12.19,12.19,0,0,1-4.78-.91,10.63,10.63,0,0,1-3.79-2.7l2-3.55c2.13,1.94,4.22,2.92,6.26,2.92a4.83,4.83,0,0,0,3.13-1,3.09,3.09,0,0,0,1.23-2.53A3.56,3.56,0,0,0,41,41a4.28,4.28,0,0,0-3-.93,4.16,4.16,0,0,0-1.89.41,7.68,7.68,0,0,0-1.78,1.28L31.29,40l.36-13.6h14.4l0,4.24H36.26l-.18,5.91.91-.42.75-.27a3.82,3.82,0,0,1,.79-.14c.27,0,.59,0,.94,0a7.67,7.67,0,0,1,3,.57,6.57,6.57,0,0,1,2.33,1.59,7.25,7.25,0,0,1,1.5,2.48A9.11,9.11,0,0,1,46.84,43.55Z"/></svg>