<svg id="Layer_1" data-name="Layer 1" xmlns="http://www.w3.org/2000/svg" viewBox="0 0 62.56 61.94"><defs><style>.cls-1{fill:#777;}</style></defs><path class="cls-1" d="M11.43,40.91l.05-3.45c.91-1.07,1.87-2.12,2.88-3.17l3-3.14c1-1,1.95-2,2.86-3a26.72,26.72,0,0,0,2.4-3,16.81,16.81,0,0,0,1.65-3,7.65,7.65,0,0,0,.62-3,3.25,3.25,0,0,0-1.15-2.59,4.14,4.14,0,0,0-2.81-1A4.78,4.78,0,0,0,18.8,16a5.32,5.32,0,0,0-1.62,1.22A8.45,8.45,0,0,0,16,18.91a13.38,13.38,0,0,0-.86,1.8l-4.22-3.07c.29-.66.65-1.42,1.1-2.27A8.62,8.62,0,0,1,13.92,13,10.45,10.45,0,0,1,17.18,11a14,14,0,0,1,5.12-.8,12.29,12.29,0,0,1,3.88.58,8.87,8.87,0,0,1,3,1.65A7.2,7.2,0,0,1,31.13,15a8.3,8.3,0,0,1,.68,3.41,11.59,11.59,0,0,1-1.3,5.23,28.1,28.1,0,0,1-3.15,4.87,36.64,36.64,0,0,1-3.87,4.14c-1.35,1.22-2.49,2.24-3.43,3h12v5.19Z"/><path class="cls-1" d="M53.23,40.91H47.78V33.34H36.47V10.16H42.1V28.42h5.68V21h5.41v7.44H57.1V33.3H53.23Z"/></svg>