<svg id="Layer_1" data-name="Layer 1" xmlns="http://www.w3.org/2000/svg" viewBox="0 0 62.56 61.94"><defs><style>.cls-1{fill:#081735;}</style></defs><path class="cls-1" d="M38.82,42.44a9,9,0,0,1-.6,3.36,7.3,7.3,0,0,1-1.67,2.54A7.43,7.43,0,0,1,33.94,50a9.81,9.81,0,0,1-3.44.58,9.44,9.44,0,0,1-3.59-.66A7.54,7.54,0,0,1,24.14,48a8.42,8.42,0,0,1-1.78-2.89,10.41,10.41,0,0,1-.64-3.76A13.46,13.46,0,0,1,22.49,37a23.25,23.25,0,0,1,2-4.27,31.43,31.43,0,0,1,2.76-3.92,38.67,38.67,0,0,1,3.09-3.33h6.08a39.4,39.4,0,0,0-8.09,10.4q.55-.31,1-.54A6.37,6.37,0,0,1,30.2,35a5.84,5.84,0,0,1,.83-.18,6.9,6.9,0,0,1,.95-.05,6.59,6.59,0,0,1,2.77.56,6.06,6.06,0,0,1,2.15,1.6,7.67,7.67,0,0,1,1.41,2.45A9.18,9.18,0,0,1,38.82,42.44Zm-4.79.1A3.57,3.57,0,0,0,33.18,40a3,3,0,0,0-2.28-.92,4.74,4.74,0,0,0-3.34,1.41q-.12.54-.15.81a6.37,6.37,0,0,0,0,.71,4,4,0,0,0,1,2.79,3.27,3.27,0,0,0,2.55,1.08A3,3,0,0,0,33.18,45,3.48,3.48,0,0,0,34,42.54Z"/></svg>