<svg id="Layer_1" data-name="Layer 1" xmlns="http://www.w3.org/2000/svg" viewBox="0 0 62.56 61.94"><defs><style>.cls-1{fill:#022749;}</style></defs><path class="cls-1" d="M43.68,38.58a6.71,6.71,0,0,1-2.76,5.7c-1.84,1.36-4.4,2-7.68,2a17.13,17.13,0,0,1-4.58-.58,11.61,11.61,0,0,1-3.53-1.62,7.59,7.59,0,0,1-2.29-2.51,7.31,7.31,0,0,1,.66-7.74,12.51,12.51,0,0,1,4.91-3.11c-1.2-.75-2.17-1.4-2.9-2a8.42,8.42,0,0,1-1.7-1.66A5,5,0,0,1,23,25.42a9.15,9.15,0,0,1-.22-2.16,6.76,6.76,0,0,1,2.55-5.66c1.7-1.32,4.31-2,7.83-2a15.79,15.79,0,0,1,4.16.52,10.11,10.11,0,0,1,3.19,1.47A6.43,6.43,0,0,1,43.24,23a6.83,6.83,0,0,1-1.3,4.17,12.85,12.85,0,0,1-4.29,3.36,10.89,10.89,0,0,1,4.59,3.31A7.81,7.81,0,0,1,43.68,38.58ZM37.83,38a3,3,0,0,0-.36-1.52,3.37,3.37,0,0,0-1-1.11,9.86,9.86,0,0,0-1.63-.91q-.95-.42-2.13-.87a8.86,8.86,0,0,0-3.21,1.64,2.93,2.93,0,0,0-.93,2.24,3.12,3.12,0,0,0,1.32,2.67,5.88,5.88,0,0,0,3.57,1,5.48,5.48,0,0,0,3.21-.84A2.68,2.68,0,0,0,37.83,38Zm-.84-14a2.85,2.85,0,0,0-1.17-2.35,4.83,4.83,0,0,0-3-.9,4.24,4.24,0,0,0-2.73.84A2.64,2.64,0,0,0,29,23.81c0,1.54,1.41,2.92,4.23,4.12a6.59,6.59,0,0,0,2.94-1.66A3.28,3.28,0,0,0,37,24.06Z"/></svg>