<svg id="Layer_1" data-name="Layer 1" xmlns="http://www.w3.org/2000/svg" viewBox="0 0 62.56 61.94"><defs><style>.cls-1{fill:#022749;}</style></defs><path class="cls-1" d="M7.58,40.89l0-3.45Q9,35.83,10.51,34.26l3-3.13c1-1,2-2.05,2.86-3a26.72,26.72,0,0,0,2.4-3,16.81,16.81,0,0,0,1.65-3,7.64,7.64,0,0,0,.61-3,3.28,3.28,0,0,0-1.14-2.59,4.15,4.15,0,0,0-2.82-1A4.63,4.63,0,0,0,15,16a5.49,5.49,0,0,0-1.63,1.22,9.37,9.37,0,0,0-1.19,1.65,14.62,14.62,0,0,0-.85,1.8L7.05,17.62c.3-.66.66-1.42,1.1-2.27a8.67,8.67,0,0,1,1.92-2.42A10.39,10.39,0,0,1,13.32,11a14.09,14.09,0,0,1,5.13-.8,12.29,12.29,0,0,1,3.88.58,8.64,8.64,0,0,1,3,1.65A7.16,7.16,0,0,1,27.28,15,8.37,8.37,0,0,1,28,18.41a11.47,11.47,0,0,1-1.3,5.24,27.47,27.47,0,0,1-3.14,4.87,37.4,37.4,0,0,1-3.87,4.13q-2,1.85-3.44,3.05h12v5.19Z"/><path class="cls-1" d="M31.74,40.89l0-3.45q1.36-1.61,2.88-3.18l3-3.13c1-1,2-2.05,2.86-3a26.6,26.6,0,0,0,2.39-3,16.81,16.81,0,0,0,1.65-3,7.65,7.65,0,0,0,.62-3,3.28,3.28,0,0,0-1.14-2.59,4.17,4.17,0,0,0-2.82-1,4.63,4.63,0,0,0-2.13.47,5.36,5.36,0,0,0-1.63,1.22,8.88,8.88,0,0,0-1.19,1.65,14.71,14.71,0,0,0-.86,1.8l-4.22-3.07c.29-.66.66-1.42,1.1-2.27a8.81,8.81,0,0,1,1.91-2.42A10.45,10.45,0,0,1,37.48,11a14,14,0,0,1,5.12-.8,12.29,12.29,0,0,1,3.88.58,8.68,8.68,0,0,1,3,1.65A7.28,7.28,0,0,1,51.44,15a8.54,8.54,0,0,1,.67,3.41,11.47,11.47,0,0,1-1.3,5.24,27.53,27.53,0,0,1-3.15,4.87,37.4,37.4,0,0,1-3.87,4.13q-2,1.85-3.43,3.05h12v5.19Z"/></svg>