<svg id="Layer_1" data-name="Layer 1" xmlns="http://www.w3.org/2000/svg" viewBox="0 0 62.56 61.94"><defs><style>.cls-1{fill:#444;}</style></defs><path class="cls-1" d="M31.25,37.44a7.54,7.54,0,0,1-3,6.11,10.85,10.85,0,0,1-3.52,1.75,15.72,15.72,0,0,1-4.59.63,20.48,20.48,0,0,1-3.49-.28,12.4,12.4,0,0,1-2.9-.9,10.6,10.6,0,0,1-2.56-1.62,18.94,18.94,0,0,1-2.44-2.46l3-4q3.51,4,7.51,4a5.46,5.46,0,0,0,3.53-1,3.66,3.66,0,0,0,1.38-2.75,3.44,3.44,0,0,0-1.9-3.47,8.57,8.57,0,0,0-3-.88,23.38,23.38,0,0,0-4.77-.1V27.07a33.23,33.23,0,0,0,4.52.05,8,8,0,0,0,2.79-.61,3,3,0,0,0,1.44-1.28,4.07,4.07,0,0,0,.43-2,3.25,3.25,0,0,0-1.3-2.49,5.17,5.17,0,0,0-3.24-.94,7.53,7.53,0,0,0-3.2.7,13.23,13.23,0,0,0-3.24,2.29l-2.52-4.26q3.38-4,10.39-4a13.17,13.17,0,0,1,4,.56,9,9,0,0,1,3,1.62,7,7,0,0,1,1.93,2.5,7.77,7.77,0,0,1,.68,3.29,6.86,6.86,0,0,1-1.31,4.34,10.24,10.24,0,0,1-4.32,2.9,8.48,8.48,0,0,1,5,2.53A7.53,7.53,0,0,1,31.25,37.44Z"/><path class="cls-1" d="M56,37.44a7.47,7.47,0,0,1-3,6.11,10.75,10.75,0,0,1-3.52,1.75,15.72,15.72,0,0,1-4.59.63,20.27,20.27,0,0,1-3.48-.28,12.34,12.34,0,0,1-2.91-.9,10.79,10.79,0,0,1-2.56-1.62,18.9,18.9,0,0,1-2.43-2.46l3-4c2.34,2.64,4.84,4,7.52,4a5.5,5.5,0,0,0,3.53-1,3.65,3.65,0,0,0,1.37-2.75,3.61,3.61,0,0,0-.36-2A3.65,3.65,0,0,0,47,33.36a8.64,8.64,0,0,0-3-.88,23.51,23.51,0,0,0-4.78-.1V27.07a33.37,33.37,0,0,0,4.53.05,8.16,8.16,0,0,0,2.79-.61A3.09,3.09,0,0,0,48,25.23a4.19,4.19,0,0,0,.42-2,3.25,3.25,0,0,0-1.3-2.49,5.14,5.14,0,0,0-3.24-.94,7.57,7.57,0,0,0-3.2.7,13.23,13.23,0,0,0-3.24,2.29l-2.52-4.26q3.38-4,10.4-4a13.22,13.22,0,0,1,4,.56,8.92,8.92,0,0,1,3,1.62,7,7,0,0,1,1.94,2.5,7.77,7.77,0,0,1,.67,3.29,6.86,6.86,0,0,1-1.3,4.34,10.24,10.24,0,0,1-4.32,2.9,8.48,8.48,0,0,1,5,2.53A7.52,7.52,0,0,1,56,37.44Z"/></svg>