<svg id="Layer_1" data-name="Layer 1" xmlns="http://www.w3.org/2000/svg" viewBox="0 0 62.56 61.94"><defs><style>.cls-1{fill:#777;}</style></defs><path class="cls-1" d="M27.88,43.35a6.22,6.22,0,0,1-.61,2.74,6.07,6.07,0,0,1-1.77,2.15,8.51,8.51,0,0,1-2.81,1.4,12.43,12.43,0,0,1-3.67.5,15.79,15.79,0,0,1-2.79-.22,9.65,9.65,0,0,1-2.32-.72,8.59,8.59,0,0,1-2.05-1.29,15.29,15.29,0,0,1-1.95-2l2.38-3.2q2.81,3.17,6,3.17a4.36,4.36,0,0,0,2.83-.84,3.23,3.23,0,0,0,.81-3.76,2.93,2.93,0,0,0-1.23-1.21,6.92,6.92,0,0,0-2.41-.71,19.42,19.42,0,0,0-3.82-.07V35.06a26.32,26.32,0,0,0,3.62,0,6.54,6.54,0,0,0,2.23-.49,2.5,2.5,0,0,0,1.16-1A3.42,3.42,0,0,0,21.83,32a2.59,2.59,0,0,0-1-2,4.05,4.05,0,0,0-2.59-.76,5.93,5.93,0,0,0-2.55.57A10.5,10.5,0,0,0,13,31.65l-2-3.4C12.83,26.09,15.6,25,19.34,25a10.44,10.44,0,0,1,3.18.45,7.09,7.09,0,0,1,2.42,1.29,5.78,5.78,0,0,1,1.55,2A6.23,6.23,0,0,1,27,31.4,5.49,5.49,0,0,1,26,34.87a8.18,8.18,0,0,1-3.45,2.31,6.81,6.81,0,0,1,4,2A6,6,0,0,1,27.88,43.35Z"/><path class="cls-1" d="M38.39,50.14V30.52c-.48.55-.94,1.05-1.37,1.49s-.9.92-1.41,1.42l-2.37-3.24c.72-.62,1.42-1.24,2.09-1.87s1.16-1.09,1.76-1.69,1.1-1.13,1.49-1.61h4.6V50.14Z"/></svg>