<svg id="Layer_1" data-name="Layer 1" xmlns="http://www.w3.org/2000/svg" viewBox="0 0 62.56 61.94"><defs><style>.cls-1{fill:#081735;}</style></defs><path class="cls-1" d="M29.39,43.35a6.22,6.22,0,0,1-.6,2.74A6.07,6.07,0,0,1,27,48.24a8.51,8.51,0,0,1-2.81,1.4,12.43,12.43,0,0,1-3.67.5,15.79,15.79,0,0,1-2.79-.22,9.65,9.65,0,0,1-2.32-.72,8.85,8.85,0,0,1-2.06-1.29,15.92,15.92,0,0,1-1.94-2l2.38-3.2q2.8,3.17,6,3.17a4.31,4.31,0,0,0,2.82-.84,3.22,3.22,0,0,0,.82-3.76,2.93,2.93,0,0,0-1.23-1.21,6.92,6.92,0,0,0-2.41-.71A19.44,19.44,0,0,0,16,39.31V35.06a26.32,26.32,0,0,0,3.62,0,6.54,6.54,0,0,0,2.23-.49,2.42,2.42,0,0,0,1.15-1A3.3,3.3,0,0,0,23.35,32a2.59,2.59,0,0,0-1.05-2,4.05,4.05,0,0,0-2.59-.76,5.93,5.93,0,0,0-2.55.57,10.32,10.32,0,0,0-2.6,1.82l-2-3.4c1.8-2.16,4.57-3.23,8.31-3.23a10.44,10.44,0,0,1,3.18.45,7.09,7.09,0,0,1,2.42,1.29,5.78,5.78,0,0,1,1.55,2,6.23,6.23,0,0,1,.54,2.64,5.49,5.49,0,0,1-1.05,3.47,8.18,8.18,0,0,1-3.45,2.31,6.81,6.81,0,0,1,4,2A6,6,0,0,1,29.39,43.35Z"/><path class="cls-1" d="M48.73,42.14a7.55,7.55,0,0,1-2.33,5.92,9.44,9.44,0,0,1-6.52,2.08,12.16,12.16,0,0,1-4.78-.91,10.67,10.67,0,0,1-3.8-2.7l2-3.55c2.13,1.94,4.22,2.92,6.26,2.92a4.81,4.81,0,0,0,3.13-1,3.09,3.09,0,0,0,1.23-2.54,3.5,3.5,0,0,0-1-2.74,4.94,4.94,0,0,0-4.86-.52,7.68,7.68,0,0,0-1.78,1.28l-3.1-1.77L33.53,25h14.4l0,4.24H38.14L38,35.17l.91-.42.75-.27a4,4,0,0,1,.79-.14c.28,0,.59,0,.94,0a7.72,7.72,0,0,1,3,.57,6.53,6.53,0,0,1,2.32,1.59,7.25,7.25,0,0,1,1.5,2.48A8.88,8.88,0,0,1,48.73,42.14Z"/></svg>