<svg id="Layer_1" data-name="Layer 1" xmlns="http://www.w3.org/2000/svg" viewBox="0 0 62.56 61.94"><defs><style>.cls-1{fill:#510000;}</style></defs><path class="cls-1" d="M30.07,37.44a7.8,7.8,0,0,1-.76,3.42,7.68,7.68,0,0,1-2.21,2.69,10.69,10.69,0,0,1-3.51,1.75,15.72,15.72,0,0,1-4.59.63,20.39,20.39,0,0,1-3.49-.28,12.26,12.26,0,0,1-2.9-.9A10.85,10.85,0,0,1,10,43.13a18.9,18.9,0,0,1-2.43-2.46l3-4q3.51,4,7.52,4a5.48,5.48,0,0,0,3.53-1A3.65,3.65,0,0,0,23,36.83a3.44,3.44,0,0,0-.36-2,3.65,3.65,0,0,0-1.53-1.51,8.57,8.57,0,0,0-3-.88,23.38,23.38,0,0,0-4.77-.1V27.07a33.22,33.22,0,0,0,4.52.05,8.16,8.16,0,0,0,2.79-.61,3.09,3.09,0,0,0,1.44-1.28,4.19,4.19,0,0,0,.43-2,3.26,3.26,0,0,0-1.31-2.49A5.14,5.14,0,0,0,18,19.83a7.52,7.52,0,0,0-3.19.7,13.23,13.23,0,0,0-3.24,2.29L9,18.56q3.38-4,10.39-4a13.17,13.17,0,0,1,4,.56,9,9,0,0,1,3,1.62,7,7,0,0,1,1.93,2.5A7.77,7.77,0,0,1,29,22.49a6.86,6.86,0,0,1-1.31,4.34,10.24,10.24,0,0,1-4.32,2.9,8.48,8.48,0,0,1,5,2.53A7.53,7.53,0,0,1,30.07,37.44Z"/><path class="cls-1" d="M55,35.79A11.13,11.13,0,0,1,54.25,40a9,9,0,0,1-5.36,5.22,12.86,12.86,0,0,1-8.79-.09,9.55,9.55,0,0,1-3.46-2.34,10.88,10.88,0,0,1-2.23-3.61,13.43,13.43,0,0,1-.79-4.7,16.74,16.74,0,0,1,1-5.54,28.08,28.08,0,0,1,2.49-5.34,38.74,38.74,0,0,1,3.44-4.89,46.44,46.44,0,0,1,3.87-4.17H52a46.77,46.77,0,0,0-5.57,6,48.94,48.94,0,0,0-4.55,7c.47-.27.9-.49,1.28-.67a9,9,0,0,1,1.08-.43,6,6,0,0,1,1-.22,8.57,8.57,0,0,1,1.19-.07,8.36,8.36,0,0,1,3.46.7,7.67,7.67,0,0,1,2.69,2,9.82,9.82,0,0,1,1.76,3.07A11.58,11.58,0,0,1,55,35.79Zm-6,.12a4.39,4.39,0,0,0-1.07-3.13,3.66,3.66,0,0,0-2.85-1.16,5.94,5.94,0,0,0-4.18,1.77c-.09.45-.15.78-.18,1a7,7,0,0,0,0,.88,5,5,0,0,0,1.22,3.5,4.1,4.1,0,0,0,3.18,1.34A3.69,3.69,0,0,0,47.94,39,4.31,4.31,0,0,0,49,35.91Z"/></svg>