<svg id="Layer_1" data-name="Layer 1" xmlns="http://www.w3.org/2000/svg" viewBox="0 0 62.56 61.94"><defs><style>.cls-1{fill:#081735;}</style></defs><path class="cls-1" d="M25.84,43.35a6,6,0,0,1-2.37,4.89,8.51,8.51,0,0,1-2.81,1.4,12.48,12.48,0,0,1-3.67.5,15.63,15.63,0,0,1-2.79-.22,9.73,9.73,0,0,1-2.33-.72,8.79,8.79,0,0,1-2-1.29,15.25,15.25,0,0,1-1.94-2l2.37-3.2c1.88,2.11,3.88,3.17,6,3.17a4.31,4.31,0,0,0,2.82-.84,3.19,3.19,0,0,0,.81-3.76,3,3,0,0,0-1.22-1.21,7,7,0,0,0-2.41-.71,19.46,19.46,0,0,0-3.82-.07V35.06a26.31,26.31,0,0,0,3.62,0,6.54,6.54,0,0,0,2.23-.49,2.47,2.47,0,0,0,1.15-1A3.3,3.3,0,0,0,19.79,32a2.55,2.55,0,0,0-1-2,4.07,4.07,0,0,0-2.59-.76,6,6,0,0,0-2.56.57A10.46,10.46,0,0,0,11,31.65l-2-3.4c1.8-2.16,4.58-3.23,8.32-3.23a10.42,10.42,0,0,1,3.17.45,7,7,0,0,1,2.42,1.29,5.66,5.66,0,0,1,1.55,2A6.23,6.23,0,0,1,25,31.4a5.55,5.55,0,0,1-1,3.47,8.22,8.22,0,0,1-3.46,2.31,6.83,6.83,0,0,1,4,2A6,6,0,0,1,25.84,43.35Z"/><path class="cls-1" d="M44.63,50.14H39.81l.29-10.62A6.58,6.58,0,0,1,38,40.78a7.15,7.15,0,0,1-2.41.36,7.64,7.64,0,0,1-3-.57,6.62,6.62,0,0,1-2.32-1.64,7.31,7.31,0,0,1-1.5-2.54,9.83,9.83,0,0,1-.52-3.31,9.71,9.71,0,0,1,.63-3.58,7.52,7.52,0,0,1,1.78-2.72,7.8,7.8,0,0,1,2.83-1.71,11,11,0,0,1,3.72-.59,7.87,7.87,0,0,1,5.83,2.08,7.47,7.47,0,0,1,2,5.8ZM40.06,31.82a2.94,2.94,0,0,0-.23-1.17,3.14,3.14,0,0,0-.65-.92,2.94,2.94,0,0,0-1-.61A3.58,3.58,0,0,0,37,28.9,3.3,3.3,0,0,0,34.34,30a4.48,4.48,0,0,0-1,3.06,4,4,0,0,0,.84,2.7,3,3,0,0,0,2.36,1,3.25,3.25,0,0,0,2.45-1,4,4,0,0,0,1-2.7Z"/></svg>