<svg id="Layer_1" data-name="Layer 1" xmlns="http://www.w3.org/2000/svg" viewBox="0 0 62.56 61.94"><defs><style>.cls-1{fill:#081735;}</style></defs><path class="cls-1" d="M8.92,51.55l0-2.82c.74-.87,1.53-1.74,2.36-2.6l2.46-2.56Q15,42.3,16.12,41.08a22.37,22.37,0,0,0,2-2.45,13.28,13.28,0,0,0,1.35-2.44,6.21,6.21,0,0,0,.51-2.44A2.69,2.69,0,0,0,19,31.63a3.38,3.38,0,0,0-2.3-.81A4,4,0,0,0,15,31.2a4.56,4.56,0,0,0-1.33,1,7.23,7.23,0,0,0-1,1.35A11,11,0,0,0,12,35L8.49,32.51c.24-.54.54-1.16.9-1.85a7.12,7.12,0,0,1,1.57-2,8.81,8.81,0,0,1,2.66-1.59,11.34,11.34,0,0,1,4.19-.65A10.06,10.06,0,0,1,21,26.9a7.35,7.35,0,0,1,2.47,1.35A5.9,5.9,0,0,1,25,30.37a6.78,6.78,0,0,1,.55,2.79,9.57,9.57,0,0,1-1.06,4.29,22.56,22.56,0,0,1-2.58,4,29.31,29.31,0,0,1-3.16,3.38c-1.11,1-2,1.84-2.81,2.5h9.83v4.24Z"/><path class="cls-1" d="M44.63,51.55H39.81l.29-10.62A6.58,6.58,0,0,1,38,42.19a7.15,7.15,0,0,1-2.41.36,7.64,7.64,0,0,1-3-.57,6.62,6.62,0,0,1-2.32-1.64,7.31,7.31,0,0,1-1.5-2.54,9.83,9.83,0,0,1-.52-3.31,9.71,9.71,0,0,1,.63-3.58,7.52,7.52,0,0,1,1.78-2.72,7.8,7.8,0,0,1,2.83-1.71,11,11,0,0,1,3.72-.59A7.87,7.87,0,0,1,43.08,28a7.47,7.47,0,0,1,2,5.8ZM40.06,33.23a2.94,2.94,0,0,0-.23-1.17,3.14,3.14,0,0,0-.65-.92,2.94,2.94,0,0,0-1-.61A3.58,3.58,0,0,0,37,30.31a3.3,3.3,0,0,0-2.62,1.12,4.48,4.48,0,0,0-1,3.06,4,4,0,0,0,.84,2.7,3,3,0,0,0,2.36,1,3.25,3.25,0,0,0,2.45-1,4,4,0,0,0,1-2.7Z"/></svg>