<svg id="Layer_1" data-name="Layer 1" xmlns="http://www.w3.org/2000/svg" viewBox="0 0 62.56 61.94"><defs><style>.cls-1{fill:#510000;}</style></defs><path class="cls-1" d="M7.25,45l0-3.53c.93-1.09,1.91-2.18,3-3.25L13.32,35q1.53-1.59,2.93-3.11a28.87,28.87,0,0,0,2.45-3.07,17.61,17.61,0,0,0,1.69-3A7.82,7.82,0,0,0,21,22.71a3.35,3.35,0,0,0-1.17-2.65,4.27,4.27,0,0,0-2.88-1,4.89,4.89,0,0,0-2.19.48,5.58,5.58,0,0,0-1.66,1.25,9,9,0,0,0-1.22,1.69A14.6,14.6,0,0,0,11,24.31L6.71,21.17c.3-.68.67-1.46,1.12-2.33a8.84,8.84,0,0,1,2-2.47,10.66,10.66,0,0,1,3.33-2,14.15,14.15,0,0,1,5.24-.82,12.57,12.57,0,0,1,4,.59,9,9,0,0,1,3.09,1.69,7.28,7.28,0,0,1,2,2.65A8.53,8.53,0,0,1,28.08,22a11.7,11.7,0,0,1-1.33,5.35,27.44,27.44,0,0,1-3.21,5,37.41,37.41,0,0,1-4,4.23q-2.07,1.89-3.51,3.12H28.35V45Z"/><path class="cls-1" d="M54.41,28.72q0,8.58-3,12.41T42.68,45q-5.8,0-8.77-3.86T31,29.28q0-7.92,2.95-11.82t8.77-3.9Q54.41,13.56,54.41,28.72ZM47.34,29q-.14-5.18-1.17-7.4a3.56,3.56,0,0,0-3.44-2.22,3.81,3.81,0,0,0-3.49,2.41C38.52,23.31,38.11,26,38,29.71a19.19,19.19,0,0,0,1.17,7,3.75,3.75,0,0,0,3.53,2.42,3.58,3.58,0,0,0,3.37-2.34Q47.21,34.48,47.34,29Z"/></svg>