<svg id="Layer_1" data-name="Layer 1" xmlns="http://www.w3.org/2000/svg" viewBox="0 0 62.56 61.94"><defs><style>.cls-1{fill:#081735;}</style></defs><path class="cls-1" d="M41,42.55a7.5,7.5,0,0,1-2.33,5.92,9.42,9.42,0,0,1-6.52,2.09,12.19,12.19,0,0,1-4.78-.92,10.63,10.63,0,0,1-3.79-2.7l2-3.55q3.21,2.93,6.27,2.92a4.83,4.83,0,0,0,3.13-1,3.11,3.11,0,0,0,1.22-2.53,3.55,3.55,0,0,0-1-2.75,4.3,4.3,0,0,0-3-.93,4.3,4.3,0,0,0-1.89.41,7.71,7.71,0,0,0-1.79,1.28L25.49,39l.36-13.61h14.4l0,4.25H30.46l-.18,5.9c.35-.17.65-.31.91-.41a5.63,5.63,0,0,1,.75-.27,3.72,3.72,0,0,1,.78-.15c.28,0,.6,0,1,0a7.71,7.71,0,0,1,3,.56A6.7,6.7,0,0,1,39,36.87a7.35,7.35,0,0,1,1.5,2.48A9.15,9.15,0,0,1,41,42.55Z"/></svg>