<svg id="Layer_1" data-name="Layer 1" xmlns="http://www.w3.org/2000/svg" viewBox="0 0 62.56 61.94"><defs><style>.cls-1{fill:#081735;}</style></defs><path class="cls-1" d="M24.91,43.35a6,6,0,0,1-2.37,4.89,8.51,8.51,0,0,1-2.81,1.4,12.48,12.48,0,0,1-3.67.5,15.63,15.63,0,0,1-2.79-.22,9.73,9.73,0,0,1-2.33-.72,8.79,8.79,0,0,1-2-1.29,15.25,15.25,0,0,1-1.94-2l2.37-3.2c1.88,2.11,3.88,3.17,6,3.17a4.31,4.31,0,0,0,2.82-.84,2.87,2.87,0,0,0,1.1-2.2A2.77,2.77,0,0,0,19,41.3a3,3,0,0,0-1.22-1.21,7,7,0,0,0-2.41-.71,19.46,19.46,0,0,0-3.82-.07V35.06a26.31,26.31,0,0,0,3.62,0,6.54,6.54,0,0,0,2.23-.49,2.47,2.47,0,0,0,1.15-1A3.3,3.3,0,0,0,18.86,32a2.55,2.55,0,0,0-1-2,4.07,4.07,0,0,0-2.59-.76,6,6,0,0,0-2.56.57,10.46,10.46,0,0,0-2.59,1.82l-2-3.4C9.86,26.09,12.64,25,16.38,25a10.48,10.48,0,0,1,3.18.45A7.19,7.19,0,0,1,22,26.76a5.75,5.75,0,0,1,1.54,2,6.23,6.23,0,0,1,.54,2.64,5.49,5.49,0,0,1-1,3.47,8.22,8.22,0,0,1-3.46,2.31,6.8,6.8,0,0,1,4,2A6,6,0,0,1,24.91,43.35Z"/><path class="cls-1" d="M35.28,50.14H29.84l9.44-20.88H28V25h17v3.73Z"/></svg>