<svg id="Layer_1" data-name="Layer 1" xmlns="http://www.w3.org/2000/svg" viewBox="0 0 62.56 61.94"><defs><style>.cls-1{fill:#444;}</style></defs><path class="cls-1" d="M26.32,37.44a7.54,7.54,0,0,1-3,6.11,10.85,10.85,0,0,1-3.52,1.75,15.72,15.72,0,0,1-4.59.63,20.48,20.48,0,0,1-3.49-.28,12.4,12.4,0,0,1-2.9-.9A10.79,10.79,0,0,1,6.3,43.13a18.9,18.9,0,0,1-2.43-2.46l3-4q3.51,4,7.51,4a5.51,5.51,0,0,0,3.54-1,3.65,3.65,0,0,0,1.37-2.75,3.61,3.61,0,0,0-.36-2,3.65,3.65,0,0,0-1.53-1.51,8.63,8.63,0,0,0-3-.88,23.38,23.38,0,0,0-4.77-.1V27.07a33.23,33.23,0,0,0,4.52.05,8,8,0,0,0,2.79-.61,3.07,3.07,0,0,0,1.45-1.28,4.19,4.19,0,0,0,.42-2,3.25,3.25,0,0,0-1.3-2.49,5.14,5.14,0,0,0-3.24-.94,7.57,7.57,0,0,0-3.2.7,13.23,13.23,0,0,0-3.24,2.29L5.26,18.56q3.38-4,10.4-4a13.22,13.22,0,0,1,4,.56,9,9,0,0,1,3,1.62,7,7,0,0,1,1.94,2.5,7.77,7.77,0,0,1,.67,3.29A6.86,6.86,0,0,1,24,26.83a10.24,10.24,0,0,1-4.32,2.9,8.48,8.48,0,0,1,5,2.53A7.57,7.57,0,0,1,26.32,37.44Z"/><path class="cls-1" d="M51.57,38a6.86,6.86,0,0,1-2.82,5.83c-1.89,1.4-4.5,2.1-7.86,2.1a17,17,0,0,1-4.68-.6,11.55,11.55,0,0,1-3.61-1.65,7.53,7.53,0,0,1-2.34-2.57,6.76,6.76,0,0,1-.83-3.37,6.81,6.81,0,0,1,1.5-4.54A12.62,12.62,0,0,1,36,30c-1.23-.77-2.22-1.43-3-2a8.23,8.23,0,0,1-1.73-1.7,4.93,4.93,0,0,1-.83-1.77,9.35,9.35,0,0,1-.23-2.2,6.89,6.89,0,0,1,2.61-5.79q2.61-2,8-2a16,16,0,0,1,4.25.53,10.07,10.07,0,0,1,3.27,1.5A6.53,6.53,0,0,1,51.12,22a7,7,0,0,1-1.33,4.27,13.13,13.13,0,0,1-4.39,3.43,11.19,11.19,0,0,1,4.7,3.39A8,8,0,0,1,51.57,38Zm-6-.57a3.14,3.14,0,0,0-.36-1.55,3.45,3.45,0,0,0-1.06-1.14,9.82,9.82,0,0,0-1.66-.93c-.65-.29-1.37-.58-2.18-.89A9.39,9.39,0,0,0,37,34.6a3,3,0,0,0-.94,2.29,3.23,3.23,0,0,0,1.35,2.74,6,6,0,0,0,3.64,1,5.56,5.56,0,0,0,3.29-.87A2.71,2.71,0,0,0,45.58,37.43Zm-.85-14.27a2.91,2.91,0,0,0-1.2-2.41,5,5,0,0,0-3.12-.92,4.36,4.36,0,0,0-2.79.86,2.71,2.71,0,0,0-1.08,2.21c0,1.58,1.44,3,4.32,4.22a6.79,6.79,0,0,0,3-1.71A3.35,3.35,0,0,0,44.73,23.16Z"/></svg>