<svg id="Layer_1" data-name="Layer 1" xmlns="http://www.w3.org/2000/svg" viewBox="0 0 62.56 61.94"><defs><style>.cls-1{fill:#510000;}</style></defs><path class="cls-1" d="M28.24,45.53H22.66V37.79H11.09V14.07h5.76V32.75h5.81V25.14h5.53v7.61h4v5h-4Z"/><path class="cls-1" d="M56.58,37.6a6.86,6.86,0,0,1-2.82,5.83c-1.88,1.4-4.49,2.1-7.85,2.1a17,17,0,0,1-4.68-.6,11.55,11.55,0,0,1-3.61-1.65,7.53,7.53,0,0,1-2.34-2.57A7.41,7.41,0,0,1,36,32.8a12.62,12.62,0,0,1,5-3.18q-1.84-1.15-3-2a8.23,8.23,0,0,1-1.73-1.7,4.77,4.77,0,0,1-.83-1.77,8.93,8.93,0,0,1-.23-2.21,6.89,6.89,0,0,1,2.61-5.78c1.74-1.36,4.41-2,8-2a15.6,15.6,0,0,1,4.25.53,10.17,10.17,0,0,1,3.27,1.5,6.55,6.55,0,0,1,2.78,5.49,7,7,0,0,1-1.32,4.27,13.13,13.13,0,0,1-4.39,3.43,11.19,11.19,0,0,1,4.7,3.39A8,8,0,0,1,56.58,37.6Zm-6-.57a3.12,3.12,0,0,0-.36-1.55,3.45,3.45,0,0,0-1.06-1.14,9.82,9.82,0,0,0-1.66-.93c-.65-.29-1.38-.58-2.19-.89a9.16,9.16,0,0,0-3.28,1.68,3,3,0,0,0-.95,2.29,3.21,3.21,0,0,0,1.36,2.73,5.93,5.93,0,0,0,3.64,1,5.5,5.5,0,0,0,3.28-.87A2.72,2.72,0,0,0,50.6,37Zm-.85-14.27a2.91,2.91,0,0,0-1.2-2.41,5,5,0,0,0-3.13-.92,4.3,4.3,0,0,0-2.79.86,2.7,2.7,0,0,0-1.07,2.21c0,1.58,1.44,3,4.31,4.22a6.83,6.83,0,0,0,3-1.71A3.35,3.35,0,0,0,49.75,22.76Z"/></svg>