<svg id="Layer_1" data-name="Layer 1" xmlns="http://www.w3.org/2000/svg" viewBox="0 0 62.56 61.94"><defs><style>.cls-1{fill:#081735;}</style></defs><path class="cls-1" d="M9.65,51.55l0-2.82c.75-.87,1.53-1.74,2.36-2.6l2.47-2.56q1.22-1.27,2.34-2.49a23.62,23.62,0,0,0,2-2.45,14.58,14.58,0,0,0,1.35-2.44,6.38,6.38,0,0,0,.5-2.44,2.68,2.68,0,0,0-.93-2.12,3.43,3.43,0,0,0-2.31-.81,3.9,3.9,0,0,0-1.74.38,4.61,4.61,0,0,0-1.34,1,7.71,7.71,0,0,0-1,1.35,12.37,12.37,0,0,0-.7,1.48L9.21,32.51c.24-.54.54-1.16.9-1.85a7.31,7.31,0,0,1,1.57-2,8.81,8.81,0,0,1,2.66-1.59,11.36,11.36,0,0,1,4.2-.65,10,10,0,0,1,3.17.47,7.25,7.25,0,0,1,2.47,1.35,5.79,5.79,0,0,1,1.58,2.12,6.78,6.78,0,0,1,.55,2.79,9.44,9.44,0,0,1-1.06,4.29,22.5,22.5,0,0,1-2.57,4,30.28,30.28,0,0,1-3.17,3.38c-1.1,1-2,1.84-2.81,2.5h9.83v4.24Z"/><path class="cls-1" d="M46.51,43.44a9,9,0,0,1-.6,3.36A7.22,7.22,0,0,1,41.63,51a9.62,9.62,0,0,1-3.44.58,9.46,9.46,0,0,1-3.6-.65A7.71,7.71,0,0,1,31.82,49,8.84,8.84,0,0,1,30,46.14a10.63,10.63,0,0,1-.63-3.76A13.44,13.44,0,0,1,30.17,38a23,23,0,0,1,2-4.27,30.34,30.34,0,0,1,2.75-3.92A35.89,35.89,0,0,1,38,26.43H44.1a37.55,37.55,0,0,0-4.46,4.82A39.47,39.47,0,0,0,36,36.83q.57-.33,1-.54a7,7,0,0,1,.87-.34,3.84,3.84,0,0,1,.83-.18,6.8,6.8,0,0,1,1-.06,6.63,6.63,0,0,1,2.77.57,6.12,6.12,0,0,1,2.15,1.59A7.61,7.61,0,0,1,46,40.33,9.18,9.18,0,0,1,46.51,43.44Zm-4.79.1A3.57,3.57,0,0,0,40.87,41a2.94,2.94,0,0,0-2.28-.92,4.77,4.77,0,0,0-3.35,1.41c-.07.36-.12.63-.14.81a4.53,4.53,0,0,0,0,.71,4,4,0,0,0,1,2.79,3.27,3.27,0,0,0,2.54,1.08A3,3,0,0,0,40.87,46,3.44,3.44,0,0,0,41.72,43.54Z"/></svg>