<svg id="Layer_1" data-name="Layer 1" xmlns="http://www.w3.org/2000/svg" viewBox="0 0 62.56 61.94"><defs><style>.cls-1{fill:#081735;}</style></defs><path class="cls-1" d="M19.32,49.18V29.56c-.48.55-.94,1.05-1.37,1.49l-1.4,1.42-2.38-3.24c.72-.62,1.42-1.24,2.09-1.87s1.16-1.09,1.76-1.69,1.1-1.14,1.49-1.61h4.6V49.18Z"/><path class="cls-1" d="M48.33,42.39A6,6,0,0,1,46,47.28a8.51,8.51,0,0,1-2.81,1.4,12.43,12.43,0,0,1-3.67.5A15.79,15.79,0,0,1,36.69,49a9.65,9.65,0,0,1-2.32-.72A8.85,8.85,0,0,1,32.31,47a15.92,15.92,0,0,1-1.94-2l2.38-3.2q2.8,3.16,6,3.17a4.31,4.31,0,0,0,2.82-.84,3.22,3.22,0,0,0,.82-3.76,3,3,0,0,0-1.23-1.21,7,7,0,0,0-2.41-.71,19.44,19.44,0,0,0-3.82-.07V34.1a26.32,26.32,0,0,0,3.62,0,6.54,6.54,0,0,0,2.23-.49,2.42,2.42,0,0,0,1.15-1,3.3,3.3,0,0,0,.35-1.58,2.59,2.59,0,0,0-1-2,4.07,4.07,0,0,0-2.59-.76,6,6,0,0,0-2.56.57,10.46,10.46,0,0,0-2.59,1.82l-2-3.4c1.8-2.16,4.57-3.23,8.31-3.23a10.44,10.44,0,0,1,3.18.45A7.09,7.09,0,0,1,45.4,25.8a5.78,5.78,0,0,1,1.55,2,6.23,6.23,0,0,1,.54,2.64,5.49,5.49,0,0,1-1.05,3.47A8.24,8.24,0,0,1,43,36.22a6.81,6.81,0,0,1,4,2A6,6,0,0,1,48.33,42.39Z"/></svg>