<svg id="Layer_1" data-name="Layer 1" xmlns="http://www.w3.org/2000/svg" viewBox="0 0 62.56 61.94"><defs><style>.cls-1{fill:#444;}</style></defs><path class="cls-1" d="M12.68,47.34l.05-3.53c.93-1.09,1.91-2.18,2.94-3.25l3.09-3.2q1.53-1.59,2.92-3.11a27.66,27.66,0,0,0,2.45-3.07,17,17,0,0,0,1.69-3.05,7.82,7.82,0,0,0,.63-3.05,3.35,3.35,0,0,0-1.17-2.65,4.27,4.27,0,0,0-2.88-1,4.82,4.82,0,0,0-2.18.48,5.63,5.63,0,0,0-1.67,1.25,8.94,8.94,0,0,0-1.21,1.69,13.41,13.41,0,0,0-.88,1.84l-4.32-3.14c.3-.68.68-1.45,1.13-2.32a8.87,8.87,0,0,1,2-2.48,10.9,10.9,0,0,1,3.33-2,14.25,14.25,0,0,1,5.25-.82,12.75,12.75,0,0,1,4,.59,9.16,9.16,0,0,1,3.1,1.69,7.48,7.48,0,0,1,2,2.65,8.53,8.53,0,0,1,.69,3.49,11.82,11.82,0,0,1-1.33,5.35,28,28,0,0,1-3.22,5,36.58,36.58,0,0,1-4,4.23Q22.94,40.8,21.5,42H33.79v5.31Z"/><path class="cls-1" d="M55.43,47.34H49.85V39.6H38.29V15.88h5.76V34.56h5.8V27h5.54v7.61h4v5h-4Z"/></svg>