<svg id="Layer_1" data-name="Layer 1" xmlns="http://www.w3.org/2000/svg" viewBox="0 0 62.56 61.94"><defs><style>.cls-1{fill:#777;}</style></defs><path class="cls-1" d="M31.09,46.66H25.64V39.09H14.33V15.9H20V34.16h5.68V26.72h5.41v7.44H35V39H31.09Z"/><path class="cls-1" d="M57.1,46.66H51.2l.35-13A8.15,8.15,0,0,1,49,35.22a8.84,8.84,0,0,1-2.94.44A9.29,9.29,0,0,1,42.42,35a8.14,8.14,0,0,1-2.84-2,8.86,8.86,0,0,1-1.82-3.1,12,12,0,0,1-.64-4.05,12,12,0,0,1,.77-4.38,9.27,9.27,0,0,1,2.18-3.32A9.37,9.37,0,0,1,43.52,16a13.67,13.67,0,0,1,4.56-.73,9.62,9.62,0,0,1,7.12,2.56,9.12,9.12,0,0,1,2.42,7.08Zm-5.59-22.4a3.44,3.44,0,0,0-1.08-2.55A3.64,3.64,0,0,0,49.22,21a4.15,4.15,0,0,0-1.5-.26,4,4,0,0,0-3.21,1.36,5.52,5.52,0,0,0-1.19,3.74,4.85,4.85,0,0,0,1,3.3,3.63,3.63,0,0,0,2.88,1.19,4,4,0,0,0,3-1.19,4.78,4.78,0,0,0,1.23-3.3Z"/></svg>