<svg id="Layer_1" data-name="Layer 1" xmlns="http://www.w3.org/2000/svg" viewBox="0 0 62.56 61.94"><defs><style>.cls-1{fill:#510000;}</style></defs><path class="cls-1" d="M32.9,37.44a7.8,7.8,0,0,1-.76,3.42,7.68,7.68,0,0,1-2.21,2.69,10.69,10.69,0,0,1-3.51,1.75,15.72,15.72,0,0,1-4.59.63,20.39,20.39,0,0,1-3.49-.28,12.26,12.26,0,0,1-2.9-.9,10.85,10.85,0,0,1-2.57-1.62,18.9,18.9,0,0,1-2.43-2.46l3-4q3.51,4,7.52,4a5.48,5.48,0,0,0,3.53-1,3.65,3.65,0,0,0,1.37-2.75,3.44,3.44,0,0,0-.36-2,3.65,3.65,0,0,0-1.53-1.51,8.57,8.57,0,0,0-3-.88,23.38,23.38,0,0,0-4.77-.1V27.07a33.22,33.22,0,0,0,4.52.05,8.16,8.16,0,0,0,2.79-.61,3.09,3.09,0,0,0,1.44-1.28,4.19,4.19,0,0,0,.43-2A3.26,3.26,0,0,0,24,20.77a5.14,5.14,0,0,0-3.24-.94,7.52,7.52,0,0,0-3.19.7,13.23,13.23,0,0,0-3.24,2.29l-2.52-4.26q3.38-4,10.39-4a13.17,13.17,0,0,1,4,.56,9,9,0,0,1,3,1.62,7,7,0,0,1,1.93,2.5,7.77,7.77,0,0,1,.68,3.29,6.86,6.86,0,0,1-1.31,4.34,10.24,10.24,0,0,1-4.32,2.9,8.48,8.48,0,0,1,5,2.53A7.53,7.53,0,0,1,32.9,37.44Z"/><path class="cls-1" d="M57.06,35.92a9.43,9.43,0,0,1-2.91,7.4c-1.94,1.74-4.65,2.61-8.15,2.61a15.28,15.28,0,0,1-6-1.14,13.28,13.28,0,0,1-4.74-3.38L37.8,37q4,3.64,7.83,3.65a6.07,6.07,0,0,0,3.92-1.23,3.89,3.89,0,0,0,1.53-3.17,4.39,4.39,0,0,0-1.29-3.43,6.16,6.16,0,0,0-6.07-.66,9.66,9.66,0,0,0-2.23,1.6l-3.87-2.2.45-17h18l0,5.31H43.83l-.22,7.38c.43-.21.81-.38,1.13-.52s.64-.25.94-.34a5.15,5.15,0,0,1,1-.18c.35,0,.75,0,1.18,0a9.72,9.72,0,0,1,3.76.7,8.29,8.29,0,0,1,2.91,2,9.18,9.18,0,0,1,1.87,3.1A11.2,11.2,0,0,1,57.06,35.92Z"/></svg>