<svg id="Layer_1" data-name="Layer 1" xmlns="http://www.w3.org/2000/svg" viewBox="0 0 62.56 61.94"><defs><style>.cls-1{fill:#444;}</style></defs><path class="cls-1" d="M7.37,47.34l0-3.53c.93-1.09,1.91-2.18,2.94-3.25l3.09-3.2q1.53-1.59,2.92-3.11a27.66,27.66,0,0,0,2.45-3.07,17,17,0,0,0,1.69-3.05,7.82,7.82,0,0,0,.63-3.05A3.35,3.35,0,0,0,20,22.43a4.27,4.27,0,0,0-2.88-1,4.82,4.82,0,0,0-2.18.48,5.63,5.63,0,0,0-1.67,1.25A8.94,8.94,0,0,0,12,24.84a13.41,13.41,0,0,0-.88,1.84L6.83,23.54c.3-.68.68-1.45,1.13-2.32a8.87,8.87,0,0,1,2-2.48,10.9,10.9,0,0,1,3.33-2,14.25,14.25,0,0,1,5.25-.82,12.75,12.75,0,0,1,4,.59,9,9,0,0,1,3.09,1.69,7.39,7.39,0,0,1,2,2.65,8.53,8.53,0,0,1,.69,3.49,11.82,11.82,0,0,1-1.33,5.35,28,28,0,0,1-3.22,5,36.58,36.58,0,0,1-4,4.23Q17.63,40.8,16.19,42H28.48v5.31Z"/><path class="cls-1" d="M52,47.34H46l.36-13.28a8.25,8.25,0,0,1-2.56,1.58,9,9,0,0,1-3,.45A9.51,9.51,0,0,1,37,35.37a8.28,8.28,0,0,1-2.9-2,9.18,9.18,0,0,1-1.87-3.17A12.49,12.49,0,0,1,31.58,26a12.07,12.07,0,0,1,.79-4.48A9.23,9.23,0,0,1,38.13,16a13.7,13.7,0,0,1,4.65-.75,9.88,9.88,0,0,1,7.3,2.61,9.43,9.43,0,0,1,2.47,7.25ZM46.29,24.43A3.46,3.46,0,0,0,46,23a3.54,3.54,0,0,0-2-1.91,4.23,4.23,0,0,0-1.52-.27,4.13,4.13,0,0,0-3.29,1.39A5.64,5.64,0,0,0,37.93,26a5,5,0,0,0,1,3.37,3.72,3.72,0,0,0,3,1.22A4.06,4.06,0,0,0,45,29.38,5,5,0,0,0,46.25,26Z"/></svg>