<svg id="Layer_1" data-name="Layer 1" xmlns="http://www.w3.org/2000/svg" viewBox="0 0 62.56 61.94"><defs><style>.cls-1{fill:#777;}</style></defs><path class="cls-1" d="M14.56,49.18V29.56c-.48.55-.93,1.05-1.37,1.49l-1.4,1.42L9.41,29.23c.72-.62,1.42-1.24,2.09-1.87s1.17-1.09,1.76-1.69,1.1-1.14,1.49-1.61h4.6V49.18Z"/><path class="cls-1" d="M44,42.84a5.49,5.49,0,0,1-2.26,4.67,10.39,10.39,0,0,1-6.28,1.67,13.7,13.7,0,0,1-3.75-.47,9.74,9.74,0,0,1-2.89-1.32A6.21,6.21,0,0,1,27,45.33a5.51,5.51,0,0,1-.66-2.7A5.44,5.44,0,0,1,27.5,39a10,10,0,0,1,4-2.54c-1-.61-1.78-1.15-2.38-1.61a6.6,6.6,0,0,1-1.38-1.36,4,4,0,0,1-.67-1.41,7.66,7.66,0,0,1-.18-1.77A5.5,5.5,0,0,1,29,25.68q2.09-1.62,6.4-1.62a12.89,12.89,0,0,1,3.41.42,8.06,8.06,0,0,1,2.61,1.2,5.27,5.27,0,0,1,2.23,4.39,5.63,5.63,0,0,1-1.06,3.42,10.37,10.37,0,0,1-3.51,2.74,9,9,0,0,1,3.75,2.71A6.38,6.38,0,0,1,44,42.84Zm-4.79-.45a2.5,2.5,0,0,0-.29-1.24,2.68,2.68,0,0,0-.84-.91,7.88,7.88,0,0,0-1.33-.75c-.52-.23-1.1-.47-1.75-.71a7.51,7.51,0,0,0-2.63,1.34A2.43,2.43,0,0,0,31.62,42a2.56,2.56,0,0,0,1.08,2.18,4.86,4.86,0,0,0,2.92.8,4.48,4.48,0,0,0,2.63-.7A2.16,2.16,0,0,0,39.22,42.39ZM38.54,31a2.31,2.31,0,0,0-1-1.92,3.92,3.92,0,0,0-2.5-.75,3.47,3.47,0,0,0-2.23.69A2.19,2.19,0,0,0,32,30.76c0,1.26,1.16,2.39,3.46,3.38a5.45,5.45,0,0,0,2.41-1.37A2.67,2.67,0,0,0,38.54,31Z"/></svg>