<svg id="Layer_1" data-name="Layer 1" xmlns="http://www.w3.org/2000/svg" viewBox="0 0 62.56 61.94"><defs><style>.cls-1{fill:#022749;}</style></defs><path class="cls-1" d="M25.84,41.48H20.38V33.91H9.07V10.72h5.64V29h5.67V21.55h5.41V29h3.92v4.89H25.84Z"/><path class="cls-1" d="M54.31,25.6q0,8.38-2.89,12.13c-1.93,2.5-4.78,3.75-8.58,3.75s-6.65-1.26-8.57-3.77-2.89-6.37-2.89-11.56,1-9,2.89-11.57,4.78-3.81,8.57-3.81Q54.3,10.77,54.31,25.6Zm-6.91.24q-.13-5.06-1.15-7.23a3.48,3.48,0,0,0-3.36-2.17,3.72,3.72,0,0,0-3.41,2.35c-.71,1.52-1.1,4.11-1.19,7.78a19,19,0,0,0,1.15,6.86,3.68,3.68,0,0,0,3.45,2.38,3.5,3.5,0,0,0,3.29-2.29C46.91,32,47.31,29.43,47.4,25.84Z"/></svg>