<svg id="Layer_1" data-name="Layer 1" xmlns="http://www.w3.org/2000/svg" viewBox="0 0 62.56 61.94"><defs><style>.cls-1{fill:#510000;}</style></defs><path class="cls-1" d="M20.51,45V20.43c-.6.69-1.17,1.32-1.71,1.87S17.67,23.45,17,24.08l-3-4q1.35-1.17,2.61-2.34c.72-.66,1.46-1.36,2.21-2.11a25.43,25.43,0,0,0,1.85-2h5.75V45Z"/><path class="cls-1" d="M56.78,36.48A7.8,7.8,0,0,1,56,39.9a7.68,7.68,0,0,1-2.21,2.69,10.69,10.69,0,0,1-3.51,1.75,15.72,15.72,0,0,1-4.59.63,20.39,20.39,0,0,1-3.49-.28,12.26,12.26,0,0,1-2.9-.9,10.85,10.85,0,0,1-2.57-1.62,18.41,18.41,0,0,1-2.43-2.47l3-4q3.51,4,7.52,4a5.48,5.48,0,0,0,3.53-1,3.65,3.65,0,0,0,1.37-2.75,3.44,3.44,0,0,0-.36-2,3.65,3.65,0,0,0-1.53-1.51,8.57,8.57,0,0,0-3-.88,23.38,23.38,0,0,0-4.77-.1V26.11a33.22,33.22,0,0,0,4.52.05,8.16,8.16,0,0,0,2.79-.61,3.09,3.09,0,0,0,1.44-1.28,4.19,4.19,0,0,0,.43-2,3.26,3.26,0,0,0-1.31-2.49,5.14,5.14,0,0,0-3.24-.94,7.52,7.52,0,0,0-3.19.7,13.23,13.23,0,0,0-3.24,2.29L35.72,17.6q3.38-4,10.39-4a13.17,13.17,0,0,1,4,.56,9,9,0,0,1,3,1.62A7,7,0,0,1,55,18.24a7.77,7.77,0,0,1,.68,3.29,6.86,6.86,0,0,1-1.31,4.34,10.24,10.24,0,0,1-4.32,2.9,8.48,8.48,0,0,1,5,2.53A7.53,7.53,0,0,1,56.78,36.48Z"/></svg>