<svg id="Layer_1" data-name="Layer 1" xmlns="http://www.w3.org/2000/svg" viewBox="0 0 62.56 61.94"><defs><style>.cls-1{fill:#777;}</style></defs><path class="cls-1" d="M10.11,41.75l0-3.46Q11.52,36.7,13,35.12l3-3.13c1-1,1.95-2,2.86-3a29.87,29.87,0,0,0,2.39-3A16.81,16.81,0,0,0,23,23a7.69,7.69,0,0,0,.62-3,3.26,3.26,0,0,0-1.14-2.59,4.14,4.14,0,0,0-2.82-1,4.76,4.76,0,0,0-2.13.47,5.43,5.43,0,0,0-1.63,1.23,8.88,8.88,0,0,0-1.19,1.65,14.71,14.71,0,0,0-.86,1.8L9.58,18.48c.29-.67.66-1.42,1.1-2.28a9,9,0,0,1,1.91-2.42,10.63,10.63,0,0,1,3.26-1.94A13.79,13.79,0,0,1,21,11a12.59,12.59,0,0,1,3.88.57,8.86,8.86,0,0,1,3,1.66,7.14,7.14,0,0,1,1.92,2.59,8.34,8.34,0,0,1,.68,3.41,11.56,11.56,0,0,1-1.3,5.23A27.17,27.17,0,0,1,26,29.37a36.64,36.64,0,0,1-3.87,4.14q-2,1.85-3.43,3.05h12v5.19Z"/><path class="cls-1" d="M56.22,25.86q0,8.38-2.89,12.14t-8.57,3.75c-3.8,0-6.65-1.26-8.58-3.77s-2.89-6.37-2.89-11.57,1-9,2.89-11.56S41,11,44.76,11Q56.22,11,56.22,25.86Zm-6.91.25q-.14-5.05-1.15-7.23a3.46,3.46,0,0,0-3.36-2.17,3.71,3.71,0,0,0-3.41,2.35c-.71,1.51-1.1,4.1-1.19,7.77a19.05,19.05,0,0,0,1.15,6.87,3.66,3.66,0,0,0,3.45,2.37,3.51,3.51,0,0,0,3.3-2.29Q49.18,31.5,49.31,26.11Z"/></svg>