<svg id="Layer_1" data-name="Layer 1" xmlns="http://www.w3.org/2000/svg" viewBox="0 0 62.56 61.94"><defs><style>.cls-1{fill:#444;}</style></defs><path class="cls-1" d="M10.1,47.34l0-3.53c.93-1.09,1.92-2.18,2.95-3.25s2.06-2.14,3.08-3.2,2-2.1,2.93-3.11a27.66,27.66,0,0,0,2.45-3.07,17,17,0,0,0,1.69-3.05,7.82,7.82,0,0,0,.63-3.05,3.35,3.35,0,0,0-1.17-2.65,4.27,4.27,0,0,0-2.88-1,4.82,4.82,0,0,0-2.18.48A5.63,5.63,0,0,0,16,23.15a8.94,8.94,0,0,0-1.21,1.69,13.41,13.41,0,0,0-.88,1.84L9.56,23.54c.3-.68.67-1.45,1.12-2.32a8.92,8.92,0,0,1,2-2.48,10.9,10.9,0,0,1,3.33-2,14.19,14.19,0,0,1,5.24-.82,12.82,12.82,0,0,1,4,.59,9,9,0,0,1,3.09,1.69,7.39,7.39,0,0,1,2,2.65,8.69,8.69,0,0,1,.68,3.49,11.81,11.81,0,0,1-1.32,5.35,28,28,0,0,1-3.22,5,36.58,36.58,0,0,1-4,4.23Q20.36,40.8,18.92,42H31.2v5.31Z"/><path class="cls-1" d="M56,38.85a7.79,7.79,0,0,1-.75,3.42A7.7,7.7,0,0,1,53,45a10.75,10.75,0,0,1-3.52,1.75,15.72,15.72,0,0,1-4.59.63,20.27,20.27,0,0,1-3.48-.28,12.34,12.34,0,0,1-2.91-.9,10.79,10.79,0,0,1-2.56-1.62,18.9,18.9,0,0,1-2.43-2.46l3-4Q40,42,44,42a5.51,5.51,0,0,0,3.54-1A3.7,3.7,0,0,0,47,34.77a8.63,8.63,0,0,0-3-.88,23.38,23.38,0,0,0-4.77-.1V28.48a33.37,33.37,0,0,0,4.53.05,8.16,8.16,0,0,0,2.79-.61A3.09,3.09,0,0,0,48,26.64a4.19,4.19,0,0,0,.42-2,3.25,3.25,0,0,0-1.3-2.49,5.14,5.14,0,0,0-3.24-.94,7.57,7.57,0,0,0-3.2.7,13.23,13.23,0,0,0-3.24,2.29L34.89,20q3.38-4,10.4-4a13.22,13.22,0,0,1,4,.56,9,9,0,0,1,3,1.62,7,7,0,0,1,1.94,2.5,7.77,7.77,0,0,1,.67,3.29,6.86,6.86,0,0,1-1.3,4.34,10.24,10.24,0,0,1-4.32,2.9,8.48,8.48,0,0,1,5,2.53A7.57,7.57,0,0,1,56,38.85Z"/></svg>