<svg id="Layer_1" data-name="Layer 1" xmlns="http://www.w3.org/2000/svg" viewBox="0 0 62.56 61.94"><defs><style>.cls-1{fill:#777;}</style></defs><path class="cls-1" d="M21.47,49.74H17V43.55H7.76v-19h4.61V39.52H17V33.43h4.43v6.09h3.2v4H21.47Z"/><path class="cls-1" d="M42.75,49.74H37.93l.28-10.62a6.54,6.54,0,0,1-2.05,1.26,7.15,7.15,0,0,1-2.41.36,7.69,7.69,0,0,1-3-.57,6.71,6.71,0,0,1-2.32-1.64A7.38,7.38,0,0,1,26.93,36,10.72,10.72,0,0,1,27,29.1a7.45,7.45,0,0,1,4.61-4.43,11,11,0,0,1,3.73-.6,7.88,7.88,0,0,1,5.83,2.09,7.53,7.53,0,0,1,2,5.8ZM38.18,31.42a2.78,2.78,0,0,0-.24-1.17,2.82,2.82,0,0,0-.64-.92,2.94,2.94,0,0,0-1-.61,3.39,3.39,0,0,0-1.23-.22,3.3,3.3,0,0,0-2.63,1.12,4.53,4.53,0,0,0-1,3.06,4,4,0,0,0,.85,2.7,3,3,0,0,0,2.36,1,3.22,3.22,0,0,0,2.44-1,4,4,0,0,0,1-2.7Z"/></svg>