<svg id="Layer_1" data-name="Layer 1" xmlns="http://www.w3.org/2000/svg" viewBox="0 0 62.56 61.94"><defs><style>.cls-1{fill:#022749;}</style></defs><path class="cls-1" d="M27.05,46.35H21.59V38.78H10.28V15.59h5.64V33.85h5.67V26.42H27v7.43h3.92v4.89H27.05Z"/><path class="cls-1" d="M54.46,36.43a11.05,11.05,0,0,1-.73,4.1,8.83,8.83,0,0,1-2,3.11,9.06,9.06,0,0,1-3.19,2,12.63,12.63,0,0,1-8.6-.09,9.25,9.25,0,0,1-3.38-2.29,10.48,10.48,0,0,1-2.17-3.53,12.87,12.87,0,0,1-.78-4.6,16.5,16.5,0,0,1,.93-5.41,28.74,28.74,0,0,1,2.44-5.22,37.88,37.88,0,0,1,3.37-4.79,42.82,42.82,0,0,1,3.78-4.07h7.43a48.16,48.16,0,0,0-9.89,12.71c.46-.26.87-.48,1.25-.66a10.43,10.43,0,0,1,1.05-.42,6.85,6.85,0,0,1,1-.22A10.06,10.06,0,0,1,46.1,27a8.14,8.14,0,0,1,3.38.69,7.33,7.33,0,0,1,2.63,1.95,9.2,9.2,0,0,1,1.72,3A11.1,11.1,0,0,1,54.46,36.43Zm-5.85.13a4.33,4.33,0,0,0-1-3.07,3.57,3.57,0,0,0-2.78-1.13,5.78,5.78,0,0,0-4.09,1.73c-.09.43-.15.76-.18,1a6.85,6.85,0,0,0,0,.87,4.93,4.93,0,0,0,1.19,3.42,4,4,0,0,0,3.11,1.31,3.58,3.58,0,0,0,2.79-1.13A4.2,4.2,0,0,0,48.61,36.56Z"/></svg>