<svg id="Layer_1" data-name="Layer 1" xmlns="http://www.w3.org/2000/svg" viewBox="0 0 62.56 61.94"><defs><style>.cls-1{fill:#022749;}</style></defs><path class="cls-1" d="M7.26,42.1l0-3.46q1.37-1.59,2.88-3.17l3-3.13c1-1,2-2.05,2.86-3.05a26.6,26.6,0,0,0,2.39-3,16.46,16.46,0,0,0,1.65-3,7.61,7.61,0,0,0,.62-3,3.26,3.26,0,0,0-1.14-2.59,4.12,4.12,0,0,0-2.82-1,4.76,4.76,0,0,0-2.13.47A5.56,5.56,0,0,0,13,18.45a8.88,8.88,0,0,0-1.19,1.65A14.71,14.71,0,0,0,11,21.9L6.73,18.82c.29-.66.66-1.42,1.1-2.27a9,9,0,0,1,1.91-2.42,10.84,10.84,0,0,1,3.26-2,14,14,0,0,1,5.12-.8A12.54,12.54,0,0,1,22,12a9,9,0,0,1,3,1.65A7.31,7.31,0,0,1,27,16.21a8.47,8.47,0,0,1,.67,3.41,11.43,11.43,0,0,1-1.3,5.23,26.63,26.63,0,0,1-3.15,4.87,36.64,36.64,0,0,1-3.87,4.14q-2,1.85-3.43,3h12v5.2Z"/><path class="cls-1" d="M50.9,42.1H45l.35-13a8.27,8.27,0,0,1-2.51,1.54,8.86,8.86,0,0,1-3,.44,9.24,9.24,0,0,1-3.67-.71,8.05,8.05,0,0,1-2.84-2,8.86,8.86,0,0,1-1.82-3.1,12,12,0,0,1-.64-4.05,11.78,11.78,0,0,1,.77-4.38,9.07,9.07,0,0,1,5.63-5.41,13.61,13.61,0,0,1,4.55-.73A9.65,9.65,0,0,1,49,13.28a9.16,9.16,0,0,1,2.42,7.08ZM45.32,19.7a3.44,3.44,0,0,0-1.08-2.55A3.64,3.64,0,0,0,43,16.4a4.15,4.15,0,0,0-1.5-.26,4,4,0,0,0-3.21,1.36,5.52,5.52,0,0,0-1.19,3.74,4.85,4.85,0,0,0,1,3.3,3.63,3.63,0,0,0,2.88,1.19,4,4,0,0,0,3-1.19,4.88,4.88,0,0,0,1.23-3.3Z"/></svg>