<svg id="Layer_1" data-name="Layer 1" xmlns="http://www.w3.org/2000/svg" viewBox="0 0 62.56 61.94"><defs><style>.cls-1{fill:#081735;}</style></defs><path class="cls-1" d="M16.59,49.18V29.56c-.48.55-.94,1.05-1.37,1.49l-1.4,1.42-2.38-3.24c.72-.62,1.42-1.24,2.09-1.87s1.16-1.09,1.76-1.69,1.1-1.13,1.49-1.61h4.6V49.18Z"/><path class="cls-1" d="M44.63,49.18H39.81l.29-10.62A6.58,6.58,0,0,1,38,39.82a7.15,7.15,0,0,1-2.41.36,7.64,7.64,0,0,1-3-.57A6.62,6.62,0,0,1,30.31,38a7.31,7.31,0,0,1-1.5-2.54,9.83,9.83,0,0,1-.52-3.31,9.71,9.71,0,0,1,.63-3.58,7.52,7.52,0,0,1,1.78-2.72,7.8,7.8,0,0,1,2.83-1.71,11,11,0,0,1,3.72-.59,7.87,7.87,0,0,1,5.83,2.08,7.47,7.47,0,0,1,2,5.8ZM40.06,30.86a2.94,2.94,0,0,0-.23-1.17,3.14,3.14,0,0,0-.65-.92,2.94,2.94,0,0,0-1-.61A3.58,3.58,0,0,0,37,27.94a3.3,3.3,0,0,0-2.62,1.12,4.48,4.48,0,0,0-1,3.06,4,4,0,0,0,.84,2.7,3,3,0,0,0,2.36,1,3.25,3.25,0,0,0,2.45-1,4,4,0,0,0,1-2.7Z"/></svg>