<svg id="Layer_1" data-name="Layer 1" xmlns="http://www.w3.org/2000/svg" viewBox="0 0 62.56 61.94"><defs><style>.cls-1{fill:#022749;}</style></defs><path class="cls-1" d="M34.71,33.18A7.51,7.51,0,0,1,34,36.53a7.38,7.38,0,0,1-2.15,2.62,10.47,10.47,0,0,1-3.44,1.72,15.43,15.43,0,0,1-4.49.61,18.59,18.59,0,0,1-3.41-.28,11.88,11.88,0,0,1-2.84-.87,11.21,11.21,0,0,1-2.51-1.58,18.22,18.22,0,0,1-2.37-2.42l2.9-3.91Q19.1,36.29,23,36.29a5.29,5.29,0,0,0,3.45-1,3.91,3.91,0,0,0,1-4.6A3.62,3.62,0,0,0,26,29.19,8.8,8.8,0,0,0,23,28.33a23.13,23.13,0,0,0-4.66-.09V23a31.77,31.77,0,0,0,4.42.05,7.58,7.58,0,0,0,2.73-.6,2.93,2.93,0,0,0,1.4-1.25,4,4,0,0,0,.42-1.92,3.2,3.2,0,0,0-1.27-2.44A5.08,5.08,0,0,0,22.88,16a7.4,7.4,0,0,0-3.13.69,12.83,12.83,0,0,0-3.16,2.23l-2.47-4.16q3.3-3.95,10.17-4a12.67,12.67,0,0,1,3.88.55,8.77,8.77,0,0,1,2.95,1.58A7,7,0,0,1,33,15.35a7.56,7.56,0,0,1,.66,3.22,6.73,6.73,0,0,1-1.28,4.24,10,10,0,0,1-4.22,2.83A8.26,8.26,0,0,1,33,28.12,7.32,7.32,0,0,1,34.71,33.18Z"/><path class="cls-1" d="M55.83,41.48H50.38V33.91H39.07V10.72H44.7V29h5.68V21.55h5.41V29h3.92v4.89H55.83Z"/></svg>