<svg id="Layer_1" data-name="Layer 1" xmlns="http://www.w3.org/2000/svg" viewBox="0 0 62.56 61.94"><defs><style>.cls-1{fill:#444;}</style></defs><path class="cls-1" d="M16.81,45V20.43c-.6.69-1.17,1.32-1.71,1.87S14,23.45,13.35,24.08l-3-4q1.35-1.17,2.61-2.34c.72-.66,1.45-1.36,2.2-2.11s1.37-1.42,1.86-2H22.8V45Z"/><path class="cls-1" d="M53.62,37a6.86,6.86,0,0,1-2.82,5.83Q48,45,43,45a17.14,17.14,0,0,1-4.69-.6,11.65,11.65,0,0,1-3.61-1.65,7.73,7.73,0,0,1-2.34-2.57,6.87,6.87,0,0,1-.83-3.37A6.76,6.76,0,0,1,33,32.24a12.55,12.55,0,0,1,5-3.18q-1.84-1.15-3-2a8.55,8.55,0,0,1-1.74-1.7,5.1,5.1,0,0,1-.83-1.77,9.42,9.42,0,0,1-.22-2.21,6.89,6.89,0,0,1,2.61-5.78q2.61-2,8-2a16.05,16.05,0,0,1,4.25.53,10.11,10.11,0,0,1,3.26,1.5,6.53,6.53,0,0,1,2.79,5.49,6.94,6.94,0,0,1-1.33,4.27,13,13,0,0,1-4.38,3.43,11.15,11.15,0,0,1,4.69,3.39A8,8,0,0,1,53.62,37Zm-6-.57a3.14,3.14,0,0,0-.36-1.55,3.56,3.56,0,0,0-1.06-1.14,9.93,9.93,0,0,0-1.67-.93c-.64-.29-1.37-.58-2.18-.89a9.33,9.33,0,0,0-3.28,1.68,3,3,0,0,0-1,2.29,3.2,3.2,0,0,0,1.35,2.73,6,6,0,0,0,3.65,1,5.54,5.54,0,0,0,3.28-.87A2.72,2.72,0,0,0,47.64,36.47ZM46.78,22.2a2.92,2.92,0,0,0-1.19-2.41,5,5,0,0,0-3.13-.92,4.36,4.36,0,0,0-2.79.86,2.71,2.71,0,0,0-1.08,2.21c0,1.58,1.44,3,4.32,4.22a6.83,6.83,0,0,0,3-1.71A3.34,3.34,0,0,0,46.78,22.2Z"/></svg>