<svg id="Layer_1" data-name="Layer 1" xmlns="http://www.w3.org/2000/svg" viewBox="0 0 62.56 61.94"><defs><style>.cls-1{fill:#444;}</style></defs><path class="cls-1" d="M6.42,45l0-3.53c.93-1.09,1.91-2.18,3-3.25L12.5,35Q14,33.4,15.42,31.88a29,29,0,0,0,2.46-3.07,17.54,17.54,0,0,0,1.68-3,7.82,7.82,0,0,0,.63-3.05A3.35,3.35,0,0,0,19,20.06a4.27,4.27,0,0,0-2.88-1,4.85,4.85,0,0,0-2.18.48,5.58,5.58,0,0,0-1.66,1.25,9,9,0,0,0-1.22,1.69,14.68,14.68,0,0,0-.88,1.84L5.88,21.17c.3-.68.68-1.46,1.13-2.33a8.84,8.84,0,0,1,2-2.47,10.66,10.66,0,0,1,3.33-2,14.15,14.15,0,0,1,5.24-.82,12.57,12.57,0,0,1,4,.59,9,9,0,0,1,3.09,1.69,7.39,7.39,0,0,1,2,2.65A8.53,8.53,0,0,1,27.26,22a11.7,11.7,0,0,1-1.33,5.35,27.49,27.49,0,0,1-3.22,5,37.41,37.41,0,0,1-4,4.23q-2.07,1.89-3.51,3.12H27.53V45Z"/><path class="cls-1" d="M53.58,28.72q0,8.58-2.95,12.41T41.86,45Q36,45,33.09,41.11t-3-11.83q0-7.92,3-11.82t8.77-3.9Q53.58,13.56,53.58,28.72ZM46.52,29q-.14-5.18-1.18-7.4a3.54,3.54,0,0,0-3.44-2.22,3.8,3.8,0,0,0-3.48,2.41q-1.08,2.31-1.22,7.94a19.37,19.37,0,0,0,1.18,7,3.74,3.74,0,0,0,3.52,2.42,3.59,3.59,0,0,0,3.38-2.34Q46.39,34.48,46.52,29Z"/></svg>