<svg id="Layer_1" data-name="Layer 1" xmlns="http://www.w3.org/2000/svg" viewBox="0 0 62.56 61.94"><defs><style>.cls-1{fill:#022749;}</style></defs><path class="cls-1" d="M15.67,42.43v-24c-.58.68-1.14,1.28-1.67,1.83L12.29,22,9.38,18q1.32-1.14,2.55-2.28,1.07-1,2.16-2.07a26.36,26.36,0,0,0,1.81-2h5.63V42.43Z"/><path class="cls-1" d="M51.14,34.13a7.57,7.57,0,0,1-.74,3.34,7.46,7.46,0,0,1-2.16,2.63,10.57,10.57,0,0,1-3.44,1.72,15.38,15.38,0,0,1-4.49.61,18.66,18.66,0,0,1-3.41-.28,11.8,11.8,0,0,1-2.83-.87,11.34,11.34,0,0,1-2.51-1.58,18.88,18.88,0,0,1-2.38-2.42l2.91-3.91q3.42,3.87,7.34,3.87a5.34,5.34,0,0,0,3.46-1,3.57,3.57,0,0,0,1.34-2.69,3.43,3.43,0,0,0-.35-1.91,3.57,3.57,0,0,0-1.5-1.48,8.51,8.51,0,0,0-3-.86,23.11,23.11,0,0,0-4.66-.09V24a31.78,31.78,0,0,0,4.42.05,8,8,0,0,0,2.73-.6,3,3,0,0,0,1.41-1.25,4,4,0,0,0,.42-1.92,3.21,3.21,0,0,0-1.28-2.44,5.06,5.06,0,0,0-3.17-.92,7.35,7.35,0,0,0-3.12.69A12.68,12.68,0,0,0,33,19.83l-2.46-4.16q3.3-3.95,10.16-3.95a12.63,12.63,0,0,1,3.88.55,8.82,8.82,0,0,1,3,1.58,6.94,6.94,0,0,1,1.89,2.45,7.56,7.56,0,0,1,.66,3.22,6.67,6.67,0,0,1-1.28,4.24,10,10,0,0,1-4.22,2.83,8.24,8.24,0,0,1,4.87,2.48A7.35,7.35,0,0,1,51.14,34.13Z"/></svg>