<svg id="Layer_1" data-name="Layer 1" xmlns="http://www.w3.org/2000/svg" viewBox="0 0 62.56 61.94"><defs><style>.cls-1{fill:#510000;}</style></defs><path class="cls-1" d="M18.5,45V20.43c-.6.69-1.17,1.32-1.71,1.87S15.67,23.45,15,24.08l-3-4q1.35-1.17,2.61-2.34c.72-.66,1.45-1.36,2.2-2.11s1.37-1.42,1.86-2h5.75V45Z"/><path class="cls-1" d="M55,34.83A11.13,11.13,0,0,1,54.25,39a9,9,0,0,1-5.36,5.22,12.86,12.86,0,0,1-8.79-.09,9.55,9.55,0,0,1-3.46-2.34,10.88,10.88,0,0,1-2.23-3.61,13.43,13.43,0,0,1-.79-4.7,16.78,16.78,0,0,1,1-5.54,28.37,28.37,0,0,1,2.49-5.34,38.74,38.74,0,0,1,3.44-4.89,46.44,46.44,0,0,1,3.87-4.17H52a46.77,46.77,0,0,0-5.57,6,48.94,48.94,0,0,0-4.55,7c.47-.27.9-.49,1.28-.67a9,9,0,0,1,1.08-.43,6,6,0,0,1,1-.22,8.57,8.57,0,0,1,1.19-.07,8.36,8.36,0,0,1,3.46.7,7.67,7.67,0,0,1,2.69,2,9.82,9.82,0,0,1,1.76,3.07A11.58,11.58,0,0,1,55,34.83ZM49,35a4.39,4.39,0,0,0-1.07-3.13,3.66,3.66,0,0,0-2.85-1.16,5.94,5.94,0,0,0-4.18,1.77c-.09.45-.15.78-.18,1a7,7,0,0,0,0,.88,5,5,0,0,0,1.22,3.5,4.1,4.1,0,0,0,3.18,1.34A3.69,3.69,0,0,0,47.94,38,4.31,4.31,0,0,0,49,35Z"/></svg>