<svg id="Layer_1" data-name="Layer 1" xmlns="http://www.w3.org/2000/svg" viewBox="0 0 62.56 61.94"><defs><style>.cls-1{fill:#081735;}</style></defs><path class="cls-1" d="M37,50.56H32.12l.29-10.62a6.66,6.66,0,0,1-2,1.26,7.2,7.2,0,0,1-2.41.36,7.66,7.66,0,0,1-3-.58,6.58,6.58,0,0,1-2.32-1.64,7.31,7.31,0,0,1-1.5-2.54,10,10,0,0,1-.52-3.31,9.71,9.71,0,0,1,.63-3.58A7.63,7.63,0,0,1,23,27.19a7.76,7.76,0,0,1,2.82-1.71,11.27,11.27,0,0,1,3.73-.59A7.85,7.85,0,0,1,35.4,27a7.51,7.51,0,0,1,2,5.79ZM32.37,32.23a2.78,2.78,0,0,0-.23-1.17,3,3,0,0,0-.65-.92,2.91,2.91,0,0,0-1-.61,3.51,3.51,0,0,0-1.22-.21,3.31,3.31,0,0,0-2.63,1.11,4.51,4.51,0,0,0-1,3.06,4,4,0,0,0,.84,2.7,3,3,0,0,0,2.36,1,3.23,3.23,0,0,0,2.45-1,4,4,0,0,0,1-2.7Z"/></svg>