<svg id="Layer_1" data-name="Layer 1" xmlns="http://www.w3.org/2000/svg" viewBox="0 0 62.56 61.94"><defs><style>.cls-1{fill:#777;}</style></defs><path class="cls-1" d="M13.76,50.56V30.93c-.48.55-.94,1.05-1.37,1.49s-.9.92-1.4,1.42L8.61,30.6C9.33,30,10,29.36,10.7,28.74s1.16-1.09,1.76-1.69A21.9,21.9,0,0,0,14,25.43h4.6V50.56Z"/><path class="cls-1" d="M43.82,37.56q0,6.86-2.37,9.93c-1.57,2-3.91,3.07-7,3.07s-5.44-1-7-3.09S25.06,42.26,25.06,38s.79-7.38,2.36-9.46a8.26,8.26,0,0,1,7-3.12Q43.82,25.43,43.82,37.56Zm-5.65.2a16.1,16.1,0,0,0-.94-5.91,2.85,2.85,0,0,0-2.76-1.78A3,3,0,0,0,31.69,32a17.36,17.36,0,0,0-1,6.36A15.69,15.69,0,0,0,31.65,44a3,3,0,0,0,2.82,1.94A2.86,2.86,0,0,0,37.17,44,16.64,16.64,0,0,0,38.17,37.76Z"/></svg>