<svg id="Layer_1" data-name="Layer 1" xmlns="http://www.w3.org/2000/svg" viewBox="0 0 62.56 61.94"><defs><style>.cls-1{fill:#444;}</style></defs><path class="cls-1" d="M12.46,47.34l0-3.53c.93-1.09,1.92-2.18,2.95-3.25s2.06-2.14,3.08-3.2,2-2.1,2.93-3.11a27.66,27.66,0,0,0,2.45-3.07,17,17,0,0,0,1.69-3.05,7.82,7.82,0,0,0,.63-3.05,3.35,3.35,0,0,0-1.17-2.65,4.27,4.27,0,0,0-2.88-1A4.82,4.82,0,0,0,20,21.9a5.63,5.63,0,0,0-1.67,1.25,8.94,8.94,0,0,0-1.21,1.69,13.41,13.41,0,0,0-.88,1.84l-4.32-3.14c.3-.68.67-1.45,1.12-2.32a8.92,8.92,0,0,1,2-2.48,10.9,10.9,0,0,1,3.33-2,14.19,14.19,0,0,1,5.24-.82,12.82,12.82,0,0,1,4,.59,9,9,0,0,1,3.09,1.69,7.39,7.39,0,0,1,2,2.65,8.69,8.69,0,0,1,.68,3.49A11.81,11.81,0,0,1,32,29.7a28,28,0,0,1-3.22,5,36.58,36.58,0,0,1-4,4.23Q22.72,40.8,21.28,42H33.56v5.31Z"/><path class="cls-1" d="M37.16,47.34l.05-3.53c.93-1.09,1.91-2.18,2.95-3.25l3.08-3.2q1.53-1.59,2.92-3.11a29,29,0,0,0,2.46-3.07,17.54,17.54,0,0,0,1.68-3.05,7.82,7.82,0,0,0,.63-3.05,3.35,3.35,0,0,0-1.17-2.65,4.27,4.27,0,0,0-2.88-1,4.85,4.85,0,0,0-2.18.48A5.58,5.58,0,0,0,43,23.15a9,9,0,0,0-1.22,1.69,14.68,14.68,0,0,0-.88,1.84l-4.32-3.14c.3-.68.68-1.45,1.13-2.32a8.74,8.74,0,0,1,2-2.48,10.66,10.66,0,0,1,3.33-2,14.15,14.15,0,0,1,5.24-.82,12.86,12.86,0,0,1,4,.59,9.21,9.21,0,0,1,3.09,1.69,7.48,7.48,0,0,1,2,2.65A8.53,8.53,0,0,1,58,24.35a11.7,11.7,0,0,1-1.33,5.35,27.49,27.49,0,0,1-3.22,5,36.58,36.58,0,0,1-4,4.23Q47.42,40.8,46,42H58.27v5.31Z"/></svg>