<svg id="Layer_1" data-name="Layer 1" xmlns="http://www.w3.org/2000/svg" viewBox="0 0 62.56 61.94"><defs><style>.cls-1{fill:#510000;}</style></defs><path class="cls-1" d="M31.33,45.53H25.75V37.79H14.18V14.07h5.76V32.75h5.81V25.14h5.53v7.61h4v5h-4Z"/><path class="cls-1" d="M38,45.53,38,42c.93-1.09,1.91-2.18,2.95-3.25l3.08-3.2Q45.59,34,47,32.44a28.87,28.87,0,0,0,2.45-3.07,17.61,17.61,0,0,0,1.69-3.05,7.82,7.82,0,0,0,.63-3.05,3.35,3.35,0,0,0-1.17-2.65,4.27,4.27,0,0,0-2.88-1,4.89,4.89,0,0,0-2.19.48,5.58,5.58,0,0,0-1.66,1.25A9,9,0,0,0,42.64,23a14.6,14.6,0,0,0-.87,1.84l-4.32-3.14c.3-.68.67-1.46,1.12-2.33a8.84,8.84,0,0,1,2-2.47,10.66,10.66,0,0,1,3.33-2,14.15,14.15,0,0,1,5.24-.82,12.57,12.57,0,0,1,4,.59,9,9,0,0,1,3.09,1.69,7.28,7.28,0,0,1,2,2.65,8.53,8.53,0,0,1,.69,3.49,11.7,11.7,0,0,1-1.33,5.35,27.44,27.44,0,0,1-3.21,5,37.41,37.41,0,0,1-4,4.23Q48.25,39,46.81,40.22H59.09v5.31Z"/></svg>