<svg id="Layer_1" data-name="Layer 1" xmlns="http://www.w3.org/2000/svg" viewBox="0 0 62.56 61.94"><defs><style>.cls-1{fill:#444;}</style></defs><path class="cls-1" d="M44.05,38.42a6.85,6.85,0,0,1-2.82,5.82q-2.82,2.1-7.85,2.1a17.55,17.55,0,0,1-4.69-.59,11.9,11.9,0,0,1-3.61-1.66,7.8,7.8,0,0,1-2.34-2.56,6.94,6.94,0,0,1-.83-3.38,6.76,6.76,0,0,1,1.51-4.54,12.77,12.77,0,0,1,5-3.18,35.37,35.37,0,0,1-3-2,8.55,8.55,0,0,1-1.74-1.7A5.14,5.14,0,0,1,22.9,25a9.54,9.54,0,0,1-.22-2.21A6.92,6.92,0,0,1,25.29,17c1.73-1.35,4.41-2,8-2a16.11,16.11,0,0,1,4.25.53A10.34,10.34,0,0,1,40.81,17a6.57,6.57,0,0,1,2.07,2.36,6.7,6.7,0,0,1,.72,3.12,6.94,6.94,0,0,1-1.33,4.27,12.85,12.85,0,0,1-4.38,3.43,11.15,11.15,0,0,1,4.69,3.39A8,8,0,0,1,44.05,38.42Zm-6-.58a3.14,3.14,0,0,0-.36-1.55,3.64,3.64,0,0,0-1.06-1.13A9.94,9.94,0,0,0,35,34.22c-.64-.29-1.37-.58-2.18-.89A9.48,9.48,0,0,0,29.51,35a3,3,0,0,0-.94,2.3A3.2,3.2,0,0,0,29.92,40a6.05,6.05,0,0,0,3.65,1,5.54,5.54,0,0,0,3.28-.87A2.72,2.72,0,0,0,38.07,37.84Zm-.86-14.27A2.92,2.92,0,0,0,36,21.17a5,5,0,0,0-3.13-.93,4.36,4.36,0,0,0-2.79.86A2.73,2.73,0,0,0,29,23.32q0,2.36,4.32,4.21a6.83,6.83,0,0,0,3-1.71A3.34,3.34,0,0,0,37.21,23.57Z"/></svg>