<svg id="Layer_1" data-name="Layer 1" xmlns="http://www.w3.org/2000/svg" viewBox="0 0 62.56 61.94"><defs><style>.cls-1{fill:#444;}</style></defs><path class="cls-1" d="M16,46.34V21.81q-.9,1-1.71,1.86c-.54.56-1.13,1.15-1.76,1.78l-3-4.05q1.35-1.17,2.61-2.34c.72-.65,1.46-1.36,2.21-2.11a25.43,25.43,0,0,0,1.85-2H22V46.34Z"/><path class="cls-1" d="M53.58,30.09q0,8.58-2.95,12.42t-8.77,3.83q-5.82,0-8.77-3.86t-3-11.82q0-7.93,3-11.83t8.77-3.9Q53.58,14.93,53.58,30.09Zm-7.06.26q-.14-5.18-1.18-7.4a3.55,3.55,0,0,0-3.44-2.21,3.78,3.78,0,0,0-3.48,2.4q-1.08,2.33-1.22,8a19.36,19.36,0,0,0,1.18,7,3.76,3.76,0,0,0,3.52,2.43,3.6,3.6,0,0,0,3.38-2.35Q46.39,35.85,46.52,30.35Z"/></svg>