<svg id="Layer_1" data-name="Layer 1" xmlns="http://www.w3.org/2000/svg" viewBox="0 0 62.56 61.94"><defs><style>.cls-1{fill:#777;}</style></defs><path class="cls-1" d="M29.05,43.35a6.22,6.22,0,0,1-.61,2.74,6.07,6.07,0,0,1-1.77,2.15,8.41,8.41,0,0,1-2.81,1.4,12.43,12.43,0,0,1-3.67.5,15.79,15.79,0,0,1-2.79-.22,9.65,9.65,0,0,1-2.32-.72A8.59,8.59,0,0,1,13,47.91a15.29,15.29,0,0,1-1.95-2l2.38-3.2q2.81,3.17,6,3.17a4.36,4.36,0,0,0,2.83-.84,3.23,3.23,0,0,0,.81-3.76,2.93,2.93,0,0,0-1.23-1.21,6.92,6.92,0,0,0-2.41-.71,19.42,19.42,0,0,0-3.82-.07V35.06a26.32,26.32,0,0,0,3.62,0,6.54,6.54,0,0,0,2.23-.49,2.5,2.5,0,0,0,1.16-1A3.42,3.42,0,0,0,23,32,2.59,2.59,0,0,0,22,30a4.05,4.05,0,0,0-2.59-.76,5.93,5.93,0,0,0-2.55.57,10.5,10.5,0,0,0-2.6,1.82l-2-3.4C14,26.09,16.77,25,20.51,25a10.44,10.44,0,0,1,3.18.45,7.09,7.09,0,0,1,2.42,1.29,5.78,5.78,0,0,1,1.55,2,6.23,6.23,0,0,1,.54,2.64,5.49,5.49,0,0,1-1.05,3.47,8.18,8.18,0,0,1-3.45,2.31,6.81,6.81,0,0,1,4,2A6,6,0,0,1,29.05,43.35Z"/><path class="cls-1" d="M31.89,50.14l0-2.82c.74-.87,1.53-1.74,2.35-2.6l2.47-2.56q1.22-1.27,2.34-2.49a21.54,21.54,0,0,0,2-2.46,13.48,13.48,0,0,0,1.35-2.43,6.21,6.21,0,0,0,.51-2.44A2.69,2.69,0,0,0,42,30.22a3.4,3.4,0,0,0-2.3-.81,4,4,0,0,0-1.75.38,4.43,4.43,0,0,0-1.33,1,7.23,7.23,0,0,0-1,1.35,11.76,11.76,0,0,0-.71,1.48L31.46,31.1c.24-.54.54-1.16.9-1.85a7.27,7.27,0,0,1,1.56-2,8.87,8.87,0,0,1,2.67-1.59A11.34,11.34,0,0,1,40.78,25a10.1,10.1,0,0,1,3.18.47,7.27,7.27,0,0,1,2.47,1.35A6,6,0,0,1,48,29a6.94,6.94,0,0,1,.55,2.79A9.57,9.57,0,0,1,47.5,36a22.56,22.56,0,0,1-2.58,4,29.38,29.38,0,0,1-3.17,3.38c-1.1,1-2,1.84-2.8,2.5h9.82v4.24Z"/></svg>