<svg id="Layer_1" data-name="Layer 1" xmlns="http://www.w3.org/2000/svg" viewBox="0 0 62.56 61.94"><defs><style>.cls-1{fill:#510000;}</style></defs><path class="cls-1" d="M17.63,45V20.43c-.6.69-1.17,1.32-1.71,1.87s-1.12,1.15-1.75,1.78l-3-4q1.35-1.17,2.61-2.34c.72-.66,1.45-1.36,2.2-2.11s1.37-1.42,1.86-2h5.75V45Z"/><path class="cls-1" d="M54.44,37a6.86,6.86,0,0,1-2.82,5.83Q48.8,45,43.77,45a17,17,0,0,1-4.68-.6,11.55,11.55,0,0,1-3.61-1.65,7.53,7.53,0,0,1-2.34-2.57,7.41,7.41,0,0,1,.67-7.91,12.62,12.62,0,0,1,5-3.18q-1.84-1.15-3-2a8.23,8.23,0,0,1-1.73-1.7,5,5,0,0,1-.84-1.77,9.42,9.42,0,0,1-.22-2.21,6.89,6.89,0,0,1,2.61-5.78q2.61-2,8-2a16,16,0,0,1,4.25.53,10,10,0,0,1,3.26,1.5A6.53,6.53,0,0,1,54,21.08a7,7,0,0,1-1.32,4.27,13.13,13.13,0,0,1-4.39,3.43A11.19,11.19,0,0,1,53,32.17,8,8,0,0,1,54.44,37Zm-6-.57a3.14,3.14,0,0,0-.36-1.55A3.45,3.45,0,0,0,47,33.78a9.82,9.82,0,0,0-1.66-.93c-.65-.29-1.38-.58-2.19-.89a9.33,9.33,0,0,0-3.28,1.68A3,3,0,0,0,39,35.93a3.2,3.2,0,0,0,1.35,2.73,6,6,0,0,0,3.65,1,5.52,5.52,0,0,0,3.28-.87A2.72,2.72,0,0,0,48.46,36.47ZM47.6,22.2a2.9,2.9,0,0,0-1.19-2.41,5,5,0,0,0-3.13-.92,4.36,4.36,0,0,0-2.79.86,2.71,2.71,0,0,0-1.08,2.21c0,1.58,1.44,3,4.32,4.22a6.83,6.83,0,0,0,3-1.71A3.34,3.34,0,0,0,47.6,22.2Z"/></svg>