<svg id="Layer_1" data-name="Layer 1" xmlns="http://www.w3.org/2000/svg" viewBox="0 0 62.56 61.94"><defs><style>.cls-1{fill:#510000;}</style></defs><path class="cls-1" d="M27.15,37.44a7.8,7.8,0,0,1-.76,3.42,7.68,7.68,0,0,1-2.21,2.69,10.79,10.79,0,0,1-3.51,1.75,15.72,15.72,0,0,1-4.59.63,20.39,20.39,0,0,1-3.49-.28,12.26,12.26,0,0,1-2.9-.9,10.85,10.85,0,0,1-2.57-1.62,18.9,18.9,0,0,1-2.43-2.46l3-4c2.34,2.64,4.84,4,7.52,4a5.48,5.48,0,0,0,3.53-1,3.65,3.65,0,0,0,1.37-2.75,3.61,3.61,0,0,0-.36-2,3.65,3.65,0,0,0-1.53-1.51,8.57,8.57,0,0,0-3-.88,23.38,23.38,0,0,0-4.77-.1V27.07a33.22,33.22,0,0,0,4.52.05,8.16,8.16,0,0,0,2.79-.61,3.09,3.09,0,0,0,1.44-1.28,4.19,4.19,0,0,0,.43-2,3.29,3.29,0,0,0-1.31-2.49A5.14,5.14,0,0,0,15,19.83a7.52,7.52,0,0,0-3.19.7,13.23,13.23,0,0,0-3.24,2.29L6.09,18.56q3.38-4,10.39-4a13.22,13.22,0,0,1,4,.56,8.92,8.92,0,0,1,3,1.62,7,7,0,0,1,1.94,2.5,7.77,7.77,0,0,1,.67,3.29,6.86,6.86,0,0,1-1.3,4.34,10.24,10.24,0,0,1-4.32,2.9,8.48,8.48,0,0,1,5,2.53A7.53,7.53,0,0,1,27.15,37.44Z"/><path class="cls-1" d="M52.39,38a6.86,6.86,0,0,1-2.82,5.83q-2.82,2.1-7.85,2.1a17.14,17.14,0,0,1-4.69-.6,11.65,11.65,0,0,1-3.61-1.65,7.73,7.73,0,0,1-2.34-2.57,6.87,6.87,0,0,1-.83-3.37,6.76,6.76,0,0,1,1.51-4.54,12.55,12.55,0,0,1,5-3.18,34.5,34.5,0,0,1-3-2,8.3,8.3,0,0,1-1.74-1.7,5.1,5.1,0,0,1-.83-1.77,9.39,9.39,0,0,1-.22-2.2,6.89,6.89,0,0,1,2.6-5.79c1.74-1.35,4.42-2,8-2a16.11,16.11,0,0,1,4.25.53,10.11,10.11,0,0,1,3.26,1.5A6.53,6.53,0,0,1,51.94,22a6.94,6.94,0,0,1-1.33,4.27,13,13,0,0,1-4.38,3.43,11.15,11.15,0,0,1,4.69,3.39A8,8,0,0,1,52.39,38Zm-6-.57A3,3,0,0,0,46,35.88a3.53,3.53,0,0,0-1-1.14,9.93,9.93,0,0,0-1.67-.93c-.64-.29-1.37-.58-2.18-.89a9.48,9.48,0,0,0-3.29,1.68,3,3,0,0,0-.94,2.29,3.23,3.23,0,0,0,1.35,2.74,6,6,0,0,0,3.65,1,5.54,5.54,0,0,0,3.28-.87A2.72,2.72,0,0,0,46.41,37.43Zm-.86-14.27a2.92,2.92,0,0,0-1.19-2.41,5,5,0,0,0-3.13-.92,4.36,4.36,0,0,0-2.79.86,2.71,2.71,0,0,0-1.08,2.21c0,1.58,1.44,3,4.32,4.22a6.89,6.89,0,0,0,3-1.71A3.39,3.39,0,0,0,45.55,23.16Z"/></svg>