<svg id="Layer_1" data-name="Layer 1" xmlns="http://www.w3.org/2000/svg" viewBox="0 0 62.56 61.94"><defs><style>.cls-1{fill:#444;}</style></defs><path class="cls-1" d="M39.38,46.34h-6l.36-13.27a8.21,8.21,0,0,1-2.56,1.57,9,9,0,0,1-3,.45,9.43,9.43,0,0,1-3.75-.72,8.23,8.23,0,0,1-2.91-2,9,9,0,0,1-1.86-3.17A12.23,12.23,0,0,1,19,25a12.28,12.28,0,0,1,.79-4.48A9.3,9.3,0,0,1,25.5,15a13.77,13.77,0,0,1,4.66-.74,9.85,9.85,0,0,1,7.29,2.61,9.37,9.37,0,0,1,2.47,7.24Zm-5.71-22.9A3.67,3.67,0,0,0,33.38,22a3.82,3.82,0,0,0-.81-1.14,3.66,3.66,0,0,0-1.24-.77,4.32,4.32,0,0,0-1.53-.27,4.15,4.15,0,0,0-3.29,1.4A5.61,5.61,0,0,0,25.3,25a4.92,4.92,0,0,0,1.06,3.37A3.65,3.65,0,0,0,29.3,29.6a4,4,0,0,0,3.06-1.22A5,5,0,0,0,33.62,25Z"/></svg>