<svg id="Layer_1" data-name="Layer 1" xmlns="http://www.w3.org/2000/svg" viewBox="0 0 62.56 61.94"><defs><style>.cls-1{fill:#510000;}</style></defs><path class="cls-1" d="M44.43,36.33c0,3.2-1,5.66-2.9,7.4s-4.66,2.61-8.16,2.61a15.27,15.27,0,0,1-6-1.14,13.19,13.19,0,0,1-4.74-3.38l2.52-4.44C27.84,39.82,30.45,41,33,41a6.06,6.06,0,0,0,3.91-1.23,3.89,3.89,0,0,0,1.53-3.17,4.42,4.42,0,0,0-1.28-3.43A5.35,5.35,0,0,0,33.45,32a5.24,5.24,0,0,0-2.36.52,9.06,9.06,0,0,0-2.22,1.6L25,31.94l.46-17h18l0,5.31H31.2L31,27.62c.44-.21.81-.38,1.14-.52s.63-.24.93-.33a5.11,5.11,0,0,1,1-.18c.35,0,.74-.05,1.18-.05a9.67,9.67,0,0,1,3.75.71,8.26,8.26,0,0,1,2.91,2,9.2,9.2,0,0,1,1.88,3.1A11.46,11.46,0,0,1,44.43,36.33Z"/></svg>