<svg id="Layer_1" data-name="Layer 1" xmlns="http://www.w3.org/2000/svg" viewBox="0 0 62.56 61.94"><defs><style>.cls-1{fill:#081735;}</style></defs><path class="cls-1" d="M26.91,49.74H22.45V43.55H13.19v-19H17.8V39.52h4.65V33.43h4.42v6.09h3.21v4H26.91Z"/><path class="cls-1" d="M48.73,41.74a7.57,7.57,0,0,1-2.33,5.92,9.44,9.44,0,0,1-6.52,2.08,12.16,12.16,0,0,1-4.78-.91,10.67,10.67,0,0,1-3.8-2.7l2-3.55q3.2,2.91,6.26,2.91a4.8,4.8,0,0,0,3.13-1A3.09,3.09,0,0,0,43.94,42a3.5,3.5,0,0,0-1-2.74,4.87,4.87,0,0,0-4.86-.52A7.39,7.39,0,0,0,36.27,40l-3.1-1.77.36-13.61h14.4l0,4.25H38.14L38,34.77l.91-.42a6.86,6.86,0,0,1,.75-.27,4,4,0,0,1,.79-.14,8.93,8.93,0,0,1,.94,0,7.72,7.72,0,0,1,3,.57,6.41,6.41,0,0,1,2.32,1.59,7.25,7.25,0,0,1,1.5,2.48A8.88,8.88,0,0,1,48.73,41.74Z"/></svg>