<svg id="Layer_1" data-name="Layer 1" xmlns="http://www.w3.org/2000/svg" viewBox="0 0 62.56 61.94"><defs><style>.cls-1{fill:#777;}</style></defs><path class="cls-1" d="M20.53,50.14H16.06V44H6.81V25h4.61V39.92h4.64V33.84h4.43v6.08h3.2v4H20.53Z"/><path class="cls-1" d="M43.82,37.15q0,6.85-2.37,9.93t-7,3.06c-3.1,0-5.44-1-7-3.08s-2.36-5.21-2.36-9.46.79-7.39,2.36-9.47a8.28,8.28,0,0,1,7-3.11Q43.82,25,43.82,37.15Zm-5.65.2a16.21,16.21,0,0,0-.94-5.92,2.85,2.85,0,0,0-2.76-1.77,3,3,0,0,0-2.78,1.92,17.36,17.36,0,0,0-1,6.36,15.69,15.69,0,0,0,.94,5.62,3,3,0,0,0,2.82,1.94,2.87,2.87,0,0,0,2.7-1.87A16.64,16.64,0,0,0,38.17,37.35Z"/></svg>