<svg id="Layer_1" data-name="Layer 1" xmlns="http://www.w3.org/2000/svg" viewBox="0 0 62.56 61.94"><defs><style>.cls-1{fill:#444;}</style></defs><path class="cls-1" d="M17,45V20.43c-.6.69-1.17,1.32-1.71,1.87s-1.13,1.15-1.76,1.78l-3-4q1.35-1.17,2.61-2.34c.72-.66,1.46-1.36,2.21-2.11s1.36-1.42,1.85-2h5.75V45Z"/><path class="cls-1" d="M52,45H46l.36-13.28a8.25,8.25,0,0,1-2.56,1.58,9,9,0,0,1-3,.45A9.51,9.51,0,0,1,37,33,8.28,8.28,0,0,1,34.1,31a9.18,9.18,0,0,1-1.87-3.17,12.49,12.49,0,0,1-.65-4.14,12.07,12.07,0,0,1,.79-4.48,9.23,9.23,0,0,1,5.76-5.53,13.7,13.7,0,0,1,4.65-.75,9.88,9.88,0,0,1,7.3,2.61,9.43,9.43,0,0,1,2.47,7.25ZM46.29,22.06A3.46,3.46,0,0,0,46,20.6a3.54,3.54,0,0,0-2-1.91,4.23,4.23,0,0,0-1.52-.27,4.13,4.13,0,0,0-3.29,1.39,5.64,5.64,0,0,0-1.21,3.83A5,5,0,0,0,39,27a3.72,3.72,0,0,0,3,1.22A4.06,4.06,0,0,0,45,27a5,5,0,0,0,1.26-3.37Z"/></svg>