<svg id="Layer_1" data-name="Layer 1" xmlns="http://www.w3.org/2000/svg" viewBox="0 0 62.56 61.94"><defs><style>.cls-1{fill:#081735;}</style></defs><path class="cls-1" d="M10.68,51.55l0-2.82c.75-.87,1.53-1.74,2.36-2.6l2.47-2.56q1.22-1.27,2.34-2.49a22.37,22.37,0,0,0,2-2.45,14.58,14.58,0,0,0,1.35-2.44,6.2,6.2,0,0,0,.5-2.44,2.68,2.68,0,0,0-.93-2.12,3.41,3.41,0,0,0-2.31-.81,3.93,3.93,0,0,0-1.74.38,4.43,4.43,0,0,0-1.33,1,7.28,7.28,0,0,0-1,1.35A12.37,12.37,0,0,0,13.7,35l-3.45-2.52c.24-.54.54-1.16.9-1.85a7.27,7.27,0,0,1,1.56-2,8.87,8.87,0,0,1,2.67-1.59,11.34,11.34,0,0,1,4.19-.65,10,10,0,0,1,3.17.47,7.4,7.4,0,0,1,2.48,1.35,6,6,0,0,1,1.58,2.12,6.94,6.94,0,0,1,.55,2.79,9.45,9.45,0,0,1-1.07,4.29,22,22,0,0,1-2.57,4,29.38,29.38,0,0,1-3.17,3.38c-1.1,1-2,1.84-2.81,2.5h9.83v4.24Z"/><path class="cls-1" d="M47.79,45.21a5.5,5.5,0,0,1-2.25,4.67,10.41,10.41,0,0,1-6.28,1.67,13.65,13.65,0,0,1-3.75-.47,9.63,9.63,0,0,1-2.89-1.32,6.11,6.11,0,0,1-1.87-2.06,5.93,5.93,0,0,1,.54-6.33,10.11,10.11,0,0,1,4-2.54c-1-.61-1.77-1.15-2.37-1.61a6.67,6.67,0,0,1-1.39-1.36,4.14,4.14,0,0,1-.67-1.41,7.66,7.66,0,0,1-.18-1.77,5.53,5.53,0,0,1,2.09-4.63q2.09-1.62,6.41-1.62a12.82,12.82,0,0,1,3.4.42,8.27,8.27,0,0,1,2.61,1.2,5.2,5.2,0,0,1,2.23,4.39,5.57,5.57,0,0,1-1.06,3.42,10.37,10.37,0,0,1-3.51,2.74,9,9,0,0,1,3.76,2.71A6.44,6.44,0,0,1,47.79,45.21ZM43,44.76a2.5,2.5,0,0,0-.29-1.24,2.71,2.71,0,0,0-.85-.91,7.16,7.16,0,0,0-1.33-.75c-.52-.23-1.1-.47-1.75-.71a7.44,7.44,0,0,0-2.62,1.34,2.39,2.39,0,0,0-.76,1.84,2.56,2.56,0,0,0,1.08,2.18,4.82,4.82,0,0,0,2.92.8,4.43,4.43,0,0,0,2.62-.7A2.17,2.17,0,0,0,43,44.76Zm-.69-11.42a2.32,2.32,0,0,0-1-1.92,3.94,3.94,0,0,0-2.5-.75,3.43,3.43,0,0,0-2.24.7,2.17,2.17,0,0,0-.86,1.76q0,1.89,3.46,3.38a5.51,5.51,0,0,0,2.41-1.37A2.71,2.71,0,0,0,42.32,33.34Z"/></svg>