<svg id="Layer_1" data-name="Layer 1" xmlns="http://www.w3.org/2000/svg" viewBox="0 0 62.56 61.94"><defs><style>.cls-1{fill:#777;}</style></defs><path class="cls-1" d="M34.14,36.54a9.21,9.21,0,0,1-2.84,7.24c-1.9,1.7-4.55,2.55-8,2.55a15,15,0,0,1-5.85-1.12,12.87,12.87,0,0,1-4.63-3.3l2.46-4.34C17.92,40,20.48,41.13,23,41.13a6,6,0,0,0,3.83-1.2,3.8,3.8,0,0,0,1.49-3.1A4.32,4.32,0,0,0,27,33.48a5.23,5.23,0,0,0-3.63-1.15,5.16,5.16,0,0,0-2.31.51,9.5,9.5,0,0,0-2.18,1.56l-3.78-2.15.44-16.64h17.6l0,5.2h-12L21,28l1.11-.5a6,6,0,0,1,.92-.33A4.8,4.8,0,0,1,24,27c.34,0,.72,0,1.15,0a9.57,9.57,0,0,1,3.68.69,8.2,8.2,0,0,1,2.84,1.94,9,9,0,0,1,1.83,3A11.18,11.18,0,0,1,34.14,36.54Z"/><path class="cls-1" d="M60.1,30.44q0,8.39-2.88,12.14t-8.58,3.75q-5.69,0-8.57-3.77T37.18,31q0-7.75,2.89-11.56t8.57-3.82Q60.1,15.61,60.1,30.44Zm-6.9.25q-.14-5.06-1.15-7.23a3.46,3.46,0,0,0-3.36-2.17,3.7,3.7,0,0,0-3.41,2.35q-1.06,2.26-1.19,7.77a18.88,18.88,0,0,0,1.15,6.87,3.66,3.66,0,0,0,3.45,2.37A3.49,3.49,0,0,0,52,38.36C52.71,36.83,53.11,34.28,53.2,30.69Z"/></svg>