<svg id="Layer_1" data-name="Layer 1" xmlns="http://www.w3.org/2000/svg" viewBox="0 0 62.56 61.94"><defs><style>.cls-1{fill:#444;}</style></defs><path class="cls-1" d="M33.83,37.44a7.54,7.54,0,0,1-3,6.11,10.85,10.85,0,0,1-3.52,1.75,15.72,15.72,0,0,1-4.59.63,20.48,20.48,0,0,1-3.49-.28,12.4,12.4,0,0,1-2.9-.9,10.79,10.79,0,0,1-2.56-1.62,18.9,18.9,0,0,1-2.43-2.46l3-4q3.51,4,7.51,4a5.46,5.46,0,0,0,3.53-1,3.7,3.7,0,0,0-.51-6.22,8.63,8.63,0,0,0-3-.88,23.38,23.38,0,0,0-4.77-.1V27.07a33.37,33.37,0,0,0,4.53.05,8.16,8.16,0,0,0,2.79-.61,3,3,0,0,0,1.43-1.28,4.07,4.07,0,0,0,.43-2A3.25,3.25,0,0,0,25,20.77a5.14,5.14,0,0,0-3.24-.94,7.57,7.57,0,0,0-3.2.7,13.23,13.23,0,0,0-3.24,2.29l-2.52-4.26q3.38-4,10.4-4a13.22,13.22,0,0,1,4,.56,9,9,0,0,1,3,1.62,7,7,0,0,1,1.94,2.5,7.77,7.77,0,0,1,.67,3.29,6.86,6.86,0,0,1-1.3,4.34,10.24,10.24,0,0,1-4.32,2.9,8.42,8.42,0,0,1,5,2.53A7.53,7.53,0,0,1,33.83,37.44Z"/><path class="cls-1" d="M55.43,45.93H49.85V38.19H38.29V14.47h5.76V33.15h5.8V25.54h5.54v7.61h4v5h-4Z"/></svg>