<svg id="Layer_1" data-name="Layer 1" xmlns="http://www.w3.org/2000/svg" viewBox="0 0 62.56 61.94"><defs><style>.cls-1{fill:#777;}</style></defs><path class="cls-1" d="M20.57,46.33l.05-3.46Q22,41.28,23.5,39.7c1-1.05,2-2.09,3-3.13s2-2,2.87-3a28.87,28.87,0,0,0,2.39-3,16.74,16.74,0,0,0,1.65-3,7.69,7.69,0,0,0,.62-3A3.26,3.26,0,0,0,32.9,22a4.14,4.14,0,0,0-2.82-1,4.76,4.76,0,0,0-2.13.47,5.43,5.43,0,0,0-1.63,1.23,8.88,8.88,0,0,0-1.19,1.65,14.71,14.71,0,0,0-.86,1.8l-4.22-3.08c.29-.66.66-1.41,1.1-2.27a8.77,8.77,0,0,1,1.91-2.42,10.84,10.84,0,0,1,3.26-1.95,14,14,0,0,1,5.12-.8,12.58,12.58,0,0,1,3.88.58,9,9,0,0,1,3,1.65,7.26,7.26,0,0,1,1.92,2.6A8.3,8.3,0,0,1,41,23.85a11.56,11.56,0,0,1-1.3,5.23A27.17,27.17,0,0,1,36.5,34a36.64,36.64,0,0,1-3.87,4.14q-2,1.84-3.43,3h12v5.2Z"/></svg>