<svg id="Layer_1" data-name="Layer 1" xmlns="http://www.w3.org/2000/svg" viewBox="0 0 62.56 61.94"><defs><style>.cls-1{fill:#081735;}</style></defs><path class="cls-1" d="M24.89,44.76a6,6,0,0,1-2.37,4.89,8.51,8.51,0,0,1-2.81,1.4,12.43,12.43,0,0,1-3.67.5,15.79,15.79,0,0,1-2.79-.22,9.65,9.65,0,0,1-2.32-.72,8.85,8.85,0,0,1-2.06-1.29,15.92,15.92,0,0,1-1.94-2l2.38-3.2q2.8,3.16,6,3.17a4.31,4.31,0,0,0,2.82-.84A3.22,3.22,0,0,0,19,42.71a3,3,0,0,0-1.23-1.21,7,7,0,0,0-2.41-.71,19.44,19.44,0,0,0-3.82-.07V36.47a26.32,26.32,0,0,0,3.62,0A6.54,6.54,0,0,0,17.35,36a2.42,2.42,0,0,0,1.15-1,3.3,3.3,0,0,0,.35-1.58,2.59,2.59,0,0,0-1.05-2,4.07,4.07,0,0,0-2.59-.76,6,6,0,0,0-2.56.57,10.46,10.46,0,0,0-2.59,1.82l-2-3.4c1.8-2.16,4.57-3.23,8.31-3.23a10.44,10.44,0,0,1,3.18.45A7.09,7.09,0,0,1,22,28.17a5.78,5.78,0,0,1,1.55,2,6.23,6.23,0,0,1,.54,2.64A5.49,5.49,0,0,1,23,36.28a8.24,8.24,0,0,1-3.45,2.31,6.81,6.81,0,0,1,4,2A6,6,0,0,1,24.89,44.76Z"/><path class="cls-1" d="M45.7,38.56q0,6.86-2.36,9.93c-1.58,2-3.91,3.06-7,3.06s-5.44-1-7-3.08S27,43.26,27,39s.78-7.38,2.36-9.46,3.91-3.12,7-3.12Q45.71,26.43,45.7,38.56Zm-5.65.2a16,16,0,0,0-.94-5.92,2.84,2.84,0,0,0-2.75-1.77A3,3,0,0,0,33.57,33a17.41,17.41,0,0,0-1,6.36A15.47,15.47,0,0,0,33.54,45a3,3,0,0,0,2.82,1.94A2.86,2.86,0,0,0,39.06,45,16.89,16.89,0,0,0,40.05,38.76Z"/></svg>