<svg id="Layer_1" data-name="Layer 1" xmlns="http://www.w3.org/2000/svg" viewBox="0 0 62.56 61.94"><defs><style>.cls-1{fill:#444;}</style></defs><path class="cls-1" d="M33.61,37.44a7.51,7.51,0,0,1-3,6.11,10.69,10.69,0,0,1-3.51,1.75,15.72,15.72,0,0,1-4.59.63,20.48,20.48,0,0,1-3.49-.28,12.4,12.4,0,0,1-2.9-.9,10.85,10.85,0,0,1-2.57-1.62,18.9,18.9,0,0,1-2.43-2.46l3-4q3.51,4,7.52,4a5.46,5.46,0,0,0,3.53-1,3.62,3.62,0,0,0,1.37-2.75,3.52,3.52,0,0,0-.35-2,3.74,3.74,0,0,0-1.54-1.51,8.57,8.57,0,0,0-3-.88,23.38,23.38,0,0,0-4.77-.1V27.07a33.23,33.23,0,0,0,4.52.05,8,8,0,0,0,2.79-.61,3,3,0,0,0,1.44-1.28,4.07,4.07,0,0,0,.43-2,3.26,3.26,0,0,0-1.31-2.49,5.14,5.14,0,0,0-3.24-.94,7.52,7.52,0,0,0-3.19.7,13.23,13.23,0,0,0-3.24,2.29l-2.52-4.26q3.38-4,10.39-4a13.17,13.17,0,0,1,4,.56,9,9,0,0,1,3,1.62,7,7,0,0,1,1.93,2.5,7.77,7.77,0,0,1,.68,3.29,6.86,6.86,0,0,1-1.31,4.34,10.24,10.24,0,0,1-4.32,2.9,8.48,8.48,0,0,1,5,2.53A7.53,7.53,0,0,1,33.61,37.44Z"/><path class="cls-1" d="M37.16,45.93l.05-3.53c.93-1.09,1.91-2.18,2.95-3.25L43.24,36q1.53-1.59,2.92-3.11a29,29,0,0,0,2.46-3.07,17.54,17.54,0,0,0,1.68-3.05,7.82,7.82,0,0,0,.63-3A3.35,3.35,0,0,0,49.76,21a4.27,4.27,0,0,0-2.88-1,4.85,4.85,0,0,0-2.18.48A5.46,5.46,0,0,0,43,21.74a9,9,0,0,0-1.22,1.69,13.41,13.41,0,0,0-.88,1.84l-4.32-3.14c.3-.68.68-1.46,1.13-2.33a8.84,8.84,0,0,1,2-2.47,10.66,10.66,0,0,1,3.33-2,14.15,14.15,0,0,1,5.24-.82,12.57,12.57,0,0,1,4,.59,9,9,0,0,1,3.09,1.69,7.48,7.48,0,0,1,2,2.65A8.53,8.53,0,0,1,58,22.94a11.82,11.82,0,0,1-1.33,5.35,27.49,27.49,0,0,1-3.22,5,36.58,36.58,0,0,1-4,4.23Q47.42,39.39,46,40.62H58.27v5.31Z"/></svg>