<svg id="Layer_1" data-name="Layer 1" xmlns="http://www.w3.org/2000/svg" viewBox="0 0 62.56 61.94"><defs><style>.cls-1{fill:#777;}</style></defs><path class="cls-1" d="M8.8,51.55l0-2.82c.74-.87,1.53-1.74,2.36-2.6l2.46-2.56c.82-.85,1.6-1.68,2.35-2.49a23.62,23.62,0,0,0,2-2.45,14.58,14.58,0,0,0,1.35-2.44,6.38,6.38,0,0,0,.5-2.44,2.68,2.68,0,0,0-.93-2.12,3.43,3.43,0,0,0-2.31-.81,4,4,0,0,0-1.75.38,4.56,4.56,0,0,0-1.33,1,7.71,7.71,0,0,0-1,1.35,11,11,0,0,0-.7,1.48L8.36,32.51c.24-.54.54-1.16.9-1.85a7.12,7.12,0,0,1,1.57-2,8.81,8.81,0,0,1,2.66-1.59,11.36,11.36,0,0,1,4.2-.65,10,10,0,0,1,3.17.47,7.35,7.35,0,0,1,2.47,1.35,5.79,5.79,0,0,1,1.58,2.12,6.78,6.78,0,0,1,.55,2.79,9.44,9.44,0,0,1-1.06,4.29,22.5,22.5,0,0,1-2.57,4,30.28,30.28,0,0,1-3.17,3.38c-1.11,1-2,1.84-2.81,2.5h9.83v4.24Z"/><path class="cls-1" d="M45.91,45.21a5.49,5.49,0,0,1-2.26,4.67,10.39,10.39,0,0,1-6.28,1.67,13.63,13.63,0,0,1-3.74-.47,9.51,9.51,0,0,1-2.89-1.32,6.14,6.14,0,0,1-1.88-2.06A5.51,5.51,0,0,1,28.2,45a5.44,5.44,0,0,1,1.2-3.63,10.23,10.23,0,0,1,4-2.54c-1-.61-1.78-1.15-2.38-1.61a6.6,6.6,0,0,1-1.38-1.36A4,4,0,0,1,29,34.45a7.66,7.66,0,0,1-.18-1.77,5.53,5.53,0,0,1,2.09-4.63q2.09-1.62,6.41-1.62a12.87,12.87,0,0,1,3.4.42,8.27,8.27,0,0,1,2.61,1.2,5.27,5.27,0,0,1,2.23,4.39,5.57,5.57,0,0,1-1.06,3.42A10.37,10.37,0,0,1,41,38.6a9.08,9.08,0,0,1,3.76,2.71A6.44,6.44,0,0,1,45.91,45.21Zm-4.79-.45a2.4,2.4,0,0,0-.29-1.24,2.68,2.68,0,0,0-.84-.91,7.5,7.5,0,0,0-1.33-.75c-.52-.23-1.1-.47-1.75-.71a7.51,7.51,0,0,0-2.63,1.34,2.42,2.42,0,0,0-.75,1.84,2.56,2.56,0,0,0,1.08,2.18,4.81,4.81,0,0,0,2.91.8,4.46,4.46,0,0,0,2.63-.7A2.16,2.16,0,0,0,41.12,44.76Zm-.68-11.42a2.31,2.31,0,0,0-1-1.92,3.92,3.92,0,0,0-2.5-.75,3.42,3.42,0,0,0-2.23.7,2.17,2.17,0,0,0-.86,1.76q0,1.89,3.45,3.38a5.45,5.45,0,0,0,2.41-1.37A2.67,2.67,0,0,0,40.44,33.34Z"/></svg>