<svg id="Layer_1" data-name="Layer 1" xmlns="http://www.w3.org/2000/svg" viewBox="0 0 62.56 61.94"><defs><style>.cls-1{fill:#777;}</style></defs><path class="cls-1" d="M5.53,43.53l0-3.45q1.37-1.61,2.88-3.18l3-3.13c1-1,1.95-2.05,2.86-3a26.72,26.72,0,0,0,2.4-3,16.81,16.81,0,0,0,1.65-3,7.65,7.65,0,0,0,.62-3,3.25,3.25,0,0,0-1.15-2.59,4.14,4.14,0,0,0-2.81-1,4.65,4.65,0,0,0-2.14.47,5.49,5.49,0,0,0-1.63,1.22,8.83,8.83,0,0,0-1.18,1.65,13.38,13.38,0,0,0-.86,1.8L5,20.26c.3-.66.66-1.42,1.1-2.27A8.67,8.67,0,0,1,8,15.57a10.39,10.39,0,0,1,3.25-2,14.09,14.09,0,0,1,5.13-.8,12.29,12.29,0,0,1,3.88.58,8.55,8.55,0,0,1,3,1.65,7.16,7.16,0,0,1,1.93,2.59,8.37,8.37,0,0,1,.67,3.41,11.58,11.58,0,0,1-1.29,5.24,28.1,28.1,0,0,1-3.15,4.87,37.4,37.4,0,0,1-3.87,4.13q-2,1.85-3.43,3.05h12v5.19Z"/><path class="cls-1" d="M50.59,33.61a11.05,11.05,0,0,1-.73,4.1,8.75,8.75,0,0,1-5.24,5.11,11.86,11.86,0,0,1-4.2.71,11.53,11.53,0,0,1-4.4-.8,9.35,9.35,0,0,1-3.38-2.28,10.71,10.71,0,0,1-2.18-3.54,13.07,13.07,0,0,1-.77-4.59,16.52,16.52,0,0,1,.93-5.42,29.06,29.06,0,0,1,2.44-5.22,37.07,37.07,0,0,1,3.37-4.78,44.23,44.23,0,0,1,3.78-4.08h7.43a48.16,48.16,0,0,0-9.89,12.71c.46-.26.87-.48,1.25-.65a7.17,7.17,0,0,1,1-.42,5.06,5.06,0,0,1,1-.22,8.36,8.36,0,0,1,1.17-.07,8.14,8.14,0,0,1,3.38.69,7.57,7.57,0,0,1,2.63,1.95,9.25,9.25,0,0,1,1.72,3A11,11,0,0,1,50.59,33.61Zm-5.85.13a4.35,4.35,0,0,0-1.05-3.07,3.61,3.61,0,0,0-2.79-1.13,5.82,5.82,0,0,0-4.08,1.73q-.14.66-.18,1a6.68,6.68,0,0,0,0,.86,4.88,4.88,0,0,0,1.19,3.42,4,4,0,0,0,3.11,1.31,3.58,3.58,0,0,0,2.79-1.13A4.2,4.2,0,0,0,44.74,33.74Z"/></svg>