<svg id="Layer_1" data-name="Layer 1" xmlns="http://www.w3.org/2000/svg" viewBox="0 0 62.56 61.94"><defs><style>.cls-1{fill:#444;}</style></defs><path class="cls-1" d="M41.55,36.2a11.13,11.13,0,0,1-.75,4.19,9,9,0,0,1-2.1,3.18,9.29,9.29,0,0,1-3.26,2,12.14,12.14,0,0,1-4.29.72,11.82,11.82,0,0,1-4.5-.82,9.66,9.66,0,0,1-3.46-2.33A10.74,10.74,0,0,1,21,39.57a13.16,13.16,0,0,1-.8-4.7,16.78,16.78,0,0,1,1-5.54A28.28,28.28,0,0,1,23.62,24a38.84,38.84,0,0,1,3.44-4.9,49.33,49.33,0,0,1,3.87-4.17h7.6A46.92,46.92,0,0,0,33,21a48.39,48.39,0,0,0-4.55,7c.47-.27.9-.5,1.28-.68a9,9,0,0,1,1.08-.43,6,6,0,0,1,1-.22A8.57,8.57,0,0,1,33,26.54a8.36,8.36,0,0,1,3.46.7,7.8,7.8,0,0,1,2.69,2,9.82,9.82,0,0,1,1.76,3.07A11.58,11.58,0,0,1,41.55,36.2Zm-6,.13a4.46,4.46,0,0,0-1.06-3.14A3.73,3.73,0,0,0,31.64,32a5.94,5.94,0,0,0-4.18,1.77c-.09.45-.15.78-.18,1a7,7,0,0,0,0,.88,5,5,0,0,0,1.22,3.5,4.08,4.08,0,0,0,3.18,1.35,3.69,3.69,0,0,0,2.85-1.16A4.29,4.29,0,0,0,35.56,36.33Z"/></svg>