<svg id="Layer_1" data-name="Layer 1" xmlns="http://www.w3.org/2000/svg" viewBox="0 0 62.56 61.94"><defs><style>.cls-1{fill:#777;}</style></defs><path class="cls-1" d="M24.68,43.35a6,6,0,0,1-2.37,4.89,8.51,8.51,0,0,1-2.81,1.4,12.48,12.48,0,0,1-3.67.5A15.63,15.63,0,0,1,13,49.92a9.73,9.73,0,0,1-2.33-.72,8.79,8.79,0,0,1-2.05-1.29,15.25,15.25,0,0,1-1.94-2l2.37-3.2c1.88,2.11,3.88,3.17,6,3.17a4.31,4.31,0,0,0,2.82-.84,3.19,3.19,0,0,0,.81-3.76,3,3,0,0,0-1.22-1.21,7,7,0,0,0-2.41-.71,19.46,19.46,0,0,0-3.82-.07V35.06a26.31,26.31,0,0,0,3.62,0,6.54,6.54,0,0,0,2.23-.49,2.47,2.47,0,0,0,1.15-1A3.3,3.3,0,0,0,18.63,32a2.55,2.55,0,0,0-1-2A4.07,4.07,0,0,0,15,29.26a6,6,0,0,0-2.56.57,10.46,10.46,0,0,0-2.59,1.82l-2-3.4C9.63,26.09,12.41,25,16.15,25a10.48,10.48,0,0,1,3.18.45,7.19,7.19,0,0,1,2.42,1.29,5.75,5.75,0,0,1,1.54,2,6.23,6.23,0,0,1,.54,2.64,5.55,5.55,0,0,1-1,3.47,8.22,8.22,0,0,1-3.46,2.31,6.8,6.8,0,0,1,4,2A6,6,0,0,1,24.68,43.35Z"/><path class="cls-1" d="M44.63,42a9.09,9.09,0,0,1-.6,3.35,7.27,7.27,0,0,1-1.68,2.55,7.41,7.41,0,0,1-2.61,1.63,9.59,9.59,0,0,1-3.44.58,9.44,9.44,0,0,1-3.59-.65,7.63,7.63,0,0,1-2.77-1.87,8.68,8.68,0,0,1-1.78-2.89A10.63,10.63,0,0,1,27.53,41a13.44,13.44,0,0,1,.76-4.43,23,23,0,0,1,2-4.27A31.43,31.43,0,0,1,33,28.35,37.25,37.25,0,0,1,36.13,25h6.08a38.28,38.28,0,0,0-4.46,4.82,39.39,39.39,0,0,0-3.63,5.58c.37-.22.72-.4,1-.54a6.93,6.93,0,0,1,.86-.34,4,4,0,0,1,.83-.18,7,7,0,0,1,1-.06,6.55,6.55,0,0,1,2.76.57,6,6,0,0,1,2.15,1.59,7.61,7.61,0,0,1,1.41,2.46A8.94,8.94,0,0,1,44.63,42Zm-4.79.1A3.57,3.57,0,0,0,39,39.62a2.94,2.94,0,0,0-2.28-.92,4.76,4.76,0,0,0-3.34,1.41q-.11.54-.15.81a6.62,6.62,0,0,0,0,.71,4,4,0,0,0,1,2.79A3.27,3.27,0,0,0,36.7,45.5,3,3,0,0,0,39,44.57,3.44,3.44,0,0,0,39.84,42.13Z"/></svg>