<svg id="Layer_1" data-name="Layer 1" xmlns="http://www.w3.org/2000/svg" viewBox="0 0 62.56 61.94"><defs><style>.cls-1{fill:#777;}</style></defs><path class="cls-1" d="M6.09,49.18l0-2.82c.74-.87,1.53-1.74,2.35-2.6L11,41.2q1.23-1.28,2.34-2.49a21.54,21.54,0,0,0,2-2.46,12.89,12.89,0,0,0,1.35-2.43,6.21,6.21,0,0,0,.51-2.44,2.69,2.69,0,0,0-.94-2.12,3.38,3.38,0,0,0-2.3-.81,4,4,0,0,0-1.75.38,4.43,4.43,0,0,0-1.33,1,7.23,7.23,0,0,0-1,1.35,11.76,11.76,0,0,0-.71,1.48L5.66,30.14q.36-.81.9-1.86a7.38,7.38,0,0,1,1.56-2,9,9,0,0,1,2.67-1.59A11.34,11.34,0,0,1,15,24.06a10.1,10.1,0,0,1,3.18.47,7.18,7.18,0,0,1,2.47,1.35A5.9,5.9,0,0,1,22.21,28a6.94,6.94,0,0,1,.55,2.79,9.5,9.5,0,0,1-1.06,4.28,22.28,22.28,0,0,1-2.58,4A29.38,29.38,0,0,1,16,42.44c-1.1,1-2,1.84-2.8,2.5H23v4.24Z"/><path class="cls-1" d="M43.82,36.19q0,6.86-2.37,9.93t-7,3.06c-3.1,0-5.44-1-7-3.08s-2.36-5.21-2.36-9.46.79-7.39,2.36-9.47a8.28,8.28,0,0,1,7-3.11Q43.82,24.06,43.82,36.19Zm-5.65.2a16.21,16.21,0,0,0-.94-5.92,2.85,2.85,0,0,0-2.76-1.77,3,3,0,0,0-2.78,1.92,17.36,17.36,0,0,0-1,6.36,15.69,15.69,0,0,0,.94,5.62,3,3,0,0,0,2.82,1.94,2.87,2.87,0,0,0,2.7-1.87A16.64,16.64,0,0,0,38.17,36.39Z"/></svg>