<svg id="Layer_1" data-name="Layer 1" xmlns="http://www.w3.org/2000/svg" viewBox="0 0 62.56 61.94"><defs><style>.cls-1{fill:#081735;}</style></defs><path class="cls-1" d="M11.65,51.55l0-2.82c.74-.87,1.53-1.74,2.35-2.6l2.47-2.56q1.23-1.27,2.34-2.49a22.37,22.37,0,0,0,2-2.45,13.28,13.28,0,0,0,1.35-2.44,6.21,6.21,0,0,0,.51-2.44,2.69,2.69,0,0,0-.94-2.12,3.38,3.38,0,0,0-2.3-.81,4,4,0,0,0-1.75.38,4.43,4.43,0,0,0-1.33,1,7.23,7.23,0,0,0-1,1.35A12.46,12.46,0,0,0,14.67,35l-3.45-2.52c.24-.54.54-1.16.9-1.85a7.27,7.27,0,0,1,1.56-2,9,9,0,0,1,2.67-1.59,11.34,11.34,0,0,1,4.19-.65,10.1,10.1,0,0,1,3.18.47,7.45,7.45,0,0,1,2.47,1.35,6,6,0,0,1,1.58,2.12,6.94,6.94,0,0,1,.55,2.79,9.57,9.57,0,0,1-1.06,4.29,22.56,22.56,0,0,1-2.58,4,29.38,29.38,0,0,1-3.17,3.38c-1.1,1-2,1.84-2.8,2.5h9.82v4.24Z"/><path class="cls-1" d="M48.33,44.76A6,6,0,0,1,46,49.65a8.51,8.51,0,0,1-2.81,1.4,12.43,12.43,0,0,1-3.67.5,15.79,15.79,0,0,1-2.79-.22,9.65,9.65,0,0,1-2.32-.72,8.85,8.85,0,0,1-2.06-1.29,15.92,15.92,0,0,1-1.94-2l2.38-3.2q2.8,3.16,6,3.17a4.31,4.31,0,0,0,2.82-.84,3.22,3.22,0,0,0,.82-3.76,3,3,0,0,0-1.23-1.21,7,7,0,0,0-2.41-.71,19.44,19.44,0,0,0-3.82-.07V36.47a26.32,26.32,0,0,0,3.62,0A6.54,6.54,0,0,0,40.79,36a2.42,2.42,0,0,0,1.15-1,3.3,3.3,0,0,0,.35-1.58,2.59,2.59,0,0,0-1-2,4.07,4.07,0,0,0-2.59-.76,6,6,0,0,0-2.56.57,10.46,10.46,0,0,0-2.59,1.82l-2-3.4c1.8-2.16,4.57-3.23,8.31-3.23a10.44,10.44,0,0,1,3.18.45,7.19,7.19,0,0,1,2.42,1.29,5.78,5.78,0,0,1,1.55,2,6.23,6.23,0,0,1,.54,2.64,5.49,5.49,0,0,1-1.05,3.47A8.24,8.24,0,0,1,43,38.59a6.81,6.81,0,0,1,4,2A6,6,0,0,1,48.33,44.76Z"/></svg>