<svg id="Layer_1" data-name="Layer 1" xmlns="http://www.w3.org/2000/svg" viewBox="0 0 62.56 61.94"><defs><style>.cls-1{fill:#510000;}</style></defs><path class="cls-1" d="M12.11,47.34l.05-3.53c.93-1.09,1.91-2.18,2.94-3.25l3.09-3.2q1.53-1.59,2.92-3.11a27.66,27.66,0,0,0,2.45-3.07,17,17,0,0,0,1.69-3.05,7.82,7.82,0,0,0,.63-3.05,3.35,3.35,0,0,0-1.17-2.65,4.27,4.27,0,0,0-2.88-1,4.82,4.82,0,0,0-2.18.48A5.63,5.63,0,0,0,18,23.15a8.94,8.94,0,0,0-1.21,1.69,13.41,13.41,0,0,0-.88,1.84l-4.32-3.14c.3-.68.68-1.45,1.13-2.32a8.87,8.87,0,0,1,2-2.48,10.9,10.9,0,0,1,3.33-2,14.25,14.25,0,0,1,5.25-.82,12.75,12.75,0,0,1,4,.59,9.16,9.16,0,0,1,3.1,1.69,7.48,7.48,0,0,1,2,2.65A8.53,8.53,0,0,1,33,24.35a11.82,11.82,0,0,1-1.33,5.35,28,28,0,0,1-3.22,5,36.58,36.58,0,0,1-4,4.23Q22.37,40.8,20.93,42H33.22v5.31Z"/><path class="cls-1" d="M46.4,47.34V22.8c-.6.69-1.17,1.32-1.71,1.87s-1.12,1.15-1.75,1.78L40,22.4q1.35-1.17,2.61-2.34C43.3,19.4,44,18.7,44.78,18s1.37-1.42,1.86-2h5.75V47.34Z"/></svg>