<svg id="Layer_1" data-name="Layer 1" xmlns="http://www.w3.org/2000/svg" viewBox="0 0 62.56 61.94"><defs><style>.cls-1{fill:#510000;}</style></defs><path class="cls-1" d="M25.29,45.93H19.71V38.19H8.15V14.47h5.76V33.15h5.8V25.54h5.54v7.61h4v5h-4Z"/><path class="cls-1" d="M54.41,29.68q0,8.58-3,12.41t-8.77,3.84q-5.8,0-8.77-3.86T31,30.24q0-7.92,2.95-11.82t8.77-3.9Q54.41,14.52,54.41,29.68Zm-7.07.26q-.14-5.18-1.17-7.4a3.56,3.56,0,0,0-3.44-2.22,3.81,3.81,0,0,0-3.49,2.41c-.72,1.54-1.13,4.19-1.21,7.94a19.19,19.19,0,0,0,1.17,7,3.75,3.75,0,0,0,3.53,2.42,3.58,3.58,0,0,0,3.37-2.34Q47.21,35.44,47.34,29.94Z"/></svg>