<svg id="Layer_1" data-name="Layer 1" xmlns="http://www.w3.org/2000/svg" viewBox="0 0 62.56 61.94"><defs><style>.cls-1{fill:#777;}</style></defs><path class="cls-1" d="M26.56,49.74H22.1V43.55H12.85v-19h4.6V39.52H22.1V33.44h4.43v6.08h3.2v4H26.56Z"/><path class="cls-1" d="M31.89,49.74l0-2.82c.74-.87,1.53-1.74,2.35-2.6l2.47-2.56c.82-.85,1.59-1.68,2.34-2.49a21.54,21.54,0,0,0,2-2.46,12.89,12.89,0,0,0,1.35-2.43,6.21,6.21,0,0,0,.51-2.44A2.69,2.69,0,0,0,42,29.82a3.4,3.4,0,0,0-2.3-.81,4,4,0,0,0-1.75.38,4.43,4.43,0,0,0-1.33,1,7.23,7.23,0,0,0-1,1.35,12.34,12.34,0,0,0-.71,1.47L31.46,30.7q.36-.81.9-1.86a7.38,7.38,0,0,1,1.56-2,9,9,0,0,1,2.67-1.59,11.34,11.34,0,0,1,4.19-.65,10.1,10.1,0,0,1,3.18.47,7.27,7.27,0,0,1,2.47,1.35A6,6,0,0,1,48,28.56a6.94,6.94,0,0,1,.55,2.79,9.5,9.5,0,0,1-1.06,4.28,22.28,22.28,0,0,1-2.58,4A29.38,29.38,0,0,1,41.75,43c-1.1,1-2,1.84-2.8,2.49h9.82v4.25Z"/></svg>