<svg id="Layer_1" data-name="Layer 1" xmlns="http://www.w3.org/2000/svg" viewBox="0 0 62.56 61.94"><defs><style>.cls-1{fill:#444;}</style></defs><path class="cls-1" d="M27,35.52a9.43,9.43,0,0,1-2.91,7.4Q21.23,45.53,16,45.53a15.14,15.14,0,0,1-6-1.15A13.25,13.25,0,0,1,5.25,41l2.52-4.44q4,3.65,7.83,3.65A6.07,6.07,0,0,0,19.52,39a3.89,3.89,0,0,0,1.53-3.17,4.42,4.42,0,0,0-1.28-3.43,5.35,5.35,0,0,0-3.72-1.17,5.37,5.37,0,0,0-2.36.51,9.88,9.88,0,0,0-2.23,1.6L7.59,31.12l.45-17H26l.05,5.31H13.8l-.22,7.38c.44-.21.81-.39,1.13-.52a9,9,0,0,1,.94-.34,5.11,5.11,0,0,1,1-.18c.35,0,.74,0,1.18,0a9.71,9.71,0,0,1,3.75.7,8.29,8.29,0,0,1,2.91,2,9.2,9.2,0,0,1,1.88,3.1A11.42,11.42,0,0,1,27,35.52Z"/><path class="cls-1" d="M53.58,29.28q0,8.58-2.95,12.41t-8.77,3.84q-5.82,0-8.77-3.86t-3-11.83q0-7.92,3-11.82t8.77-3.9Q53.58,14.12,53.58,29.28Zm-7.06.25q-.14-5.18-1.18-7.39a3.54,3.54,0,0,0-3.44-2.22,3.81,3.81,0,0,0-3.48,2.4q-1.08,2.33-1.22,8a19.37,19.37,0,0,0,1.18,7,3.74,3.74,0,0,0,3.52,2.42,3.59,3.59,0,0,0,3.38-2.34Q46.39,35,46.52,29.53Z"/></svg>