<svg id="Layer_1" data-name="Layer 1" xmlns="http://www.w3.org/2000/svg" viewBox="0 0 62.56 61.94"><defs><style>.cls-1{fill:#444;}</style></defs><path class="cls-1" d="M27.57,38.85a7.66,7.66,0,0,1-.76,3.42A7.56,7.56,0,0,1,24.61,45a10.75,10.75,0,0,1-3.52,1.75,15.72,15.72,0,0,1-4.59.63A20.27,20.27,0,0,1,13,47.06a12.34,12.34,0,0,1-2.91-.9,10.79,10.79,0,0,1-2.56-1.62,18.9,18.9,0,0,1-2.43-2.46l3-4q3.51,4,7.51,4a5.51,5.51,0,0,0,3.54-1,3.7,3.7,0,0,0-.52-6.22,8.63,8.63,0,0,0-3-.88,23.38,23.38,0,0,0-4.77-.1V28.48a33.37,33.37,0,0,0,4.53.05,8.16,8.16,0,0,0,2.79-.61,3.09,3.09,0,0,0,1.44-1.28,4.19,4.19,0,0,0,.42-2,3.25,3.25,0,0,0-1.3-2.49,5.14,5.14,0,0,0-3.24-.94,7.57,7.57,0,0,0-3.2.7A13.23,13.23,0,0,0,9,24.23L6.51,20q3.38-4,10.4-4a13.22,13.22,0,0,1,4,.56,9,9,0,0,1,3,1.62,7,7,0,0,1,1.94,2.5,7.77,7.77,0,0,1,.67,3.29,6.86,6.86,0,0,1-1.3,4.34,10.24,10.24,0,0,1-4.32,2.9,8.48,8.48,0,0,1,5,2.53A7.57,7.57,0,0,1,27.57,38.85Z"/><path class="cls-1" d="M53.58,31.09q0,8.58-2.95,12.41t-8.77,3.84q-5.82,0-8.77-3.86t-3-11.83q0-7.92,3-11.82t8.77-3.9Q53.58,15.93,53.58,31.09Zm-7.06.26q-.14-5.18-1.18-7.4a3.54,3.54,0,0,0-3.44-2.22,3.8,3.8,0,0,0-3.48,2.41q-1.08,2.31-1.22,8a19.36,19.36,0,0,0,1.18,7,3.74,3.74,0,0,0,3.52,2.42,3.59,3.59,0,0,0,3.38-2.34Q46.39,36.85,46.52,31.35Z"/></svg>