<svg id="Layer_1" data-name="Layer 1" xmlns="http://www.w3.org/2000/svg" viewBox="0 0 62.56 61.94"><defs><style>.cls-1{fill:#777;}</style></defs><path class="cls-1" d="M15.33,42.43v-24c-.58.68-1.14,1.28-1.67,1.83L12,22,9,18q1.32-1.14,2.55-2.28,1.07-1,2.16-2.07a26.36,26.36,0,0,0,1.81-2h5.63V42.43Z"/><path class="cls-1" d="M30.12,42.43l0-3.45q1.36-1.6,2.88-3.18l3-3.13c1-1,1.95-2.05,2.86-3a26.72,26.72,0,0,0,2.4-3,18.18,18.18,0,0,0,1.65-3,7.64,7.64,0,0,0,.61-3,3.26,3.26,0,0,0-1.14-2.59,4.17,4.17,0,0,0-2.82-1,4.63,4.63,0,0,0-2.13.47,5.36,5.36,0,0,0-1.63,1.22,8.88,8.88,0,0,0-1.19,1.65,14.71,14.71,0,0,0-.86,1.8l-4.22-3.07c.29-.67.66-1.42,1.1-2.27a9,9,0,0,1,1.91-2.43,10.63,10.63,0,0,1,3.26-1.94,13.81,13.81,0,0,1,5.13-.8,12.23,12.23,0,0,1,3.87.58,8.68,8.68,0,0,1,3,1.65,7.16,7.16,0,0,1,1.93,2.59A8.5,8.5,0,0,1,50.49,20a11.47,11.47,0,0,1-1.3,5.24,27.4,27.4,0,0,1-3.14,4.86,37.64,37.64,0,0,1-3.88,4.14q-2,1.85-3.43,3.05h12v5.19Z"/></svg>