<svg id="Layer_1" data-name="Layer 1" xmlns="http://www.w3.org/2000/svg" viewBox="0 0 62.56 61.94"><defs><style>.cls-1{fill:#081735;}</style></defs><path class="cls-1" d="M28.45,49.74H24V43.55H14.73v-19h4.61V39.52H24V33.44h4.43v6.08h3.2v4H28.45Z"/><path class="cls-1" d="M33.77,49.74l0-2.82c.74-.87,1.53-1.74,2.36-2.6l2.46-2.56q1.23-1.27,2.34-2.49a21.66,21.66,0,0,0,2-2.46,14.12,14.12,0,0,0,1.35-2.43,6.38,6.38,0,0,0,.5-2.44,2.66,2.66,0,0,0-.94-2.12,3.38,3.38,0,0,0-2.3-.81,4,4,0,0,0-1.75.38,4.56,4.56,0,0,0-1.33,1,7.23,7.23,0,0,0-1,1.35,10.89,10.89,0,0,0-.7,1.47L33.34,30.7q.36-.81.9-1.86a7.23,7.23,0,0,1,1.57-2,8.81,8.81,0,0,1,2.66-1.59,11.36,11.36,0,0,1,4.2-.65,10,10,0,0,1,3.17.47,7.18,7.18,0,0,1,2.47,1.35,5.9,5.9,0,0,1,1.58,2.12,6.78,6.78,0,0,1,.55,2.79,9.37,9.37,0,0,1-1.06,4.28,22.78,22.78,0,0,1-2.57,4A30.28,30.28,0,0,1,43.64,43c-1.11,1-2,1.84-2.81,2.49h9.83v4.25Z"/></svg>