<svg id="Layer_1" data-name="Layer 1" xmlns="http://www.w3.org/2000/svg" viewBox="0 0 62.56 61.94"><defs><style>.cls-1{fill:#777;}</style></defs><path class="cls-1" d="M10.18,41.22l0-3.45q1.37-1.6,2.88-3.18l3-3.13c1-1,1.95-2.05,2.86-3a26.72,26.72,0,0,0,2.4-3,17.39,17.39,0,0,0,1.64-3,7.48,7.48,0,0,0,.62-3,3.28,3.28,0,0,0-1.14-2.59,4.17,4.17,0,0,0-2.82-1,4.63,4.63,0,0,0-2.13.47,5.36,5.36,0,0,0-1.63,1.22,8.88,8.88,0,0,0-1.19,1.65,14.71,14.71,0,0,0-.86,1.8L9.65,18c.29-.66.66-1.42,1.1-2.27a8.81,8.81,0,0,1,1.91-2.42,10.45,10.45,0,0,1,3.26-1.95,14,14,0,0,1,5.12-.8,12.25,12.25,0,0,1,3.88.58,8.68,8.68,0,0,1,3,1.65,7.28,7.28,0,0,1,1.93,2.59,8.54,8.54,0,0,1,.67,3.41A11.47,11.47,0,0,1,29.25,24a27.47,27.47,0,0,1-3.14,4.87A38.44,38.44,0,0,1,22.23,33q-2,1.85-3.43,3.05h12v5.19Z"/><path class="cls-1" d="M54.48,31.44a9.19,9.19,0,0,1-2.84,7.23c-1.9,1.7-4.55,2.55-8,2.55a14.84,14.84,0,0,1-5.85-1.12,12.87,12.87,0,0,1-4.63-3.3l2.46-4.34Q39.57,36,43.31,36a6,6,0,0,0,3.83-1.2,3.82,3.82,0,0,0,1.49-3.1,4.35,4.35,0,0,0-1.25-3.36,5.23,5.23,0,0,0-3.63-1.14,5.29,5.29,0,0,0-2.31.5,9.27,9.27,0,0,0-2.18,1.57l-3.78-2.16.44-16.63h17.6l0,5.19h-12l-.22,7.22q.64-.32,1.11-.51a9.29,9.29,0,0,1,.92-.33,4.8,4.8,0,0,1,1-.18c.34,0,.72,0,1.15,0a9.57,9.57,0,0,1,3.68.69A8.09,8.09,0,0,1,52,24.5a8.84,8.84,0,0,1,1.83,3A11.1,11.1,0,0,1,54.48,31.44Z"/></svg>