<svg id="Layer_1" data-name="Layer 1" xmlns="http://www.w3.org/2000/svg" viewBox="0 0 62.56 61.94"><defs><style>.cls-1{fill:#081735;}</style></defs><path class="cls-1" d="M20.14,49.18V29.56c-.48.55-.93,1.05-1.37,1.49l-1.4,1.42L15,29.23c.72-.62,1.42-1.24,2.09-1.87s1.17-1.09,1.77-1.69,1.09-1.14,1.48-1.61h4.6V49.18Z"/><path class="cls-1" d="M48.73,41.18A7.55,7.55,0,0,1,46.4,47.1a9.44,9.44,0,0,1-6.52,2.08,12.16,12.16,0,0,1-4.78-.91,10.67,10.67,0,0,1-3.8-2.7l2-3.55c2.13,1.94,4.22,2.92,6.26,2.92a4.81,4.81,0,0,0,3.13-1,3.09,3.09,0,0,0,1.23-2.54,3.5,3.5,0,0,0-1-2.74,4.94,4.94,0,0,0-4.86-.52,7.68,7.68,0,0,0-1.78,1.28l-3.1-1.77.36-13.6h14.4l0,4.24H38.14L38,34.21l.91-.42.75-.27a4,4,0,0,1,.79-.14c.28,0,.59,0,.94,0a7.72,7.72,0,0,1,3,.57,6.53,6.53,0,0,1,2.32,1.59A7.25,7.25,0,0,1,48.18,38,8.88,8.88,0,0,1,48.73,41.18Z"/></svg>