<svg id="Layer_1" data-name="Layer 1" xmlns="http://www.w3.org/2000/svg" viewBox="0 0 62.56 61.94"><defs><style>.cls-1{fill:#777;}</style></defs><path class="cls-1" d="M35.61,33.16a7.57,7.57,0,0,1-.74,3.34,7.46,7.46,0,0,1-2.16,2.63,10.77,10.77,0,0,1-3.44,1.72,15.73,15.73,0,0,1-4.49.61,18.59,18.59,0,0,1-3.41-.28,12,12,0,0,1-2.84-.87A11.28,11.28,0,0,1,16,38.73a18.88,18.88,0,0,1-2.38-2.42l2.9-3.92Q20,36.27,23.9,36.27a5.34,5.34,0,0,0,3.46-1,3.57,3.57,0,0,0,1.34-2.69,3.52,3.52,0,0,0-.35-1.91,3.62,3.62,0,0,0-1.5-1.48,8.51,8.51,0,0,0-3-.86,23.78,23.78,0,0,0-4.66-.1V23a31.78,31.78,0,0,0,4.42.05,8,8,0,0,0,2.73-.6,3,3,0,0,0,1.41-1.25,4,4,0,0,0,.41-1.92,3.16,3.16,0,0,0-1.27-2.44,5.06,5.06,0,0,0-3.17-.92,7.35,7.35,0,0,0-3.12.69,12.42,12.42,0,0,0-3.17,2.23L15,14.7q3.3-4,10.17-3.95a12.63,12.63,0,0,1,3.88.55,8.82,8.82,0,0,1,3,1.58,6.94,6.94,0,0,1,1.89,2.45,7.56,7.56,0,0,1,.66,3.22,6.73,6.73,0,0,1-1.28,4.24,10.06,10.06,0,0,1-4.22,2.83,8.27,8.27,0,0,1,4.87,2.48A7.35,7.35,0,0,1,35.61,33.16Z"/><path class="cls-1" d="M48.45,41.46v-24c-.58.67-1.14,1.28-1.67,1.83L45.07,21l-2.91-4q1.32-1.14,2.55-2.28,1.07-1,2.16-2.07c.73-.73,1.34-1.39,1.82-2h5.62V41.46Z"/></svg>