<svg id="Layer_1" data-name="Layer 1" xmlns="http://www.w3.org/2000/svg" viewBox="0 0 62.56 61.94"><defs><style>.cls-1{fill:#777;}</style></defs><path class="cls-1" d="M38.77,43.76a6.22,6.22,0,0,1-.61,2.74,6.07,6.07,0,0,1-1.77,2.15,8.51,8.51,0,0,1-2.81,1.4,12.43,12.43,0,0,1-3.67.51,15.74,15.74,0,0,1-2.79-.23,10.11,10.11,0,0,1-2.32-.71,9.24,9.24,0,0,1-2.06-1.3,16.51,16.51,0,0,1-1.94-2l2.38-3.21q2.81,3.16,6,3.17A4.42,4.42,0,0,0,32,45.48a3.24,3.24,0,0,0,.81-3.77A2.93,2.93,0,0,0,31.6,40.5a7.14,7.14,0,0,0-2.41-.71,19.42,19.42,0,0,0-3.82-.07V35.47a26.32,26.32,0,0,0,3.62,0A6.32,6.32,0,0,0,31.22,35a2.42,2.42,0,0,0,1.15-1,3.3,3.3,0,0,0,.35-1.58,2.61,2.61,0,0,0-1-2,4.11,4.11,0,0,0-2.59-.75,5.92,5.92,0,0,0-2.55.56,10.57,10.57,0,0,0-2.6,1.83l-2-3.41q2.7-3.22,8.31-3.23a10.44,10.44,0,0,1,3.18.45,7.09,7.09,0,0,1,2.42,1.29,5.73,5.73,0,0,1,1.55,2,6.15,6.15,0,0,1,.54,2.63,5.47,5.47,0,0,1-1.05,3.47,8.18,8.18,0,0,1-3.45,2.32,6.74,6.74,0,0,1,4,2A6,6,0,0,1,38.77,43.76Z"/></svg>