<svg id="Layer_1" data-name="Layer 1" xmlns="http://www.w3.org/2000/svg" viewBox="0 0 62.56 61.94"><defs><style>.cls-1{fill:#444;}</style></defs><path class="cls-1" d="M29,45.53H23.39V37.79H11.82V14.07h5.76V32.75h5.81V25.14h5.53v7.61h4v5H29Z"/><path class="cls-1" d="M56.24,35.52a9.43,9.43,0,0,1-2.91,7.4q-2.91,2.61-8.15,2.61a15.11,15.11,0,0,1-6-1.15A13.25,13.25,0,0,1,34.46,41L37,36.57q4,3.65,7.83,3.65A6,6,0,0,0,48.72,39a3.89,3.89,0,0,0,1.53-3.17A4.39,4.39,0,0,0,49,32.39a6.16,6.16,0,0,0-6.07-.66,9.66,9.66,0,0,0-2.23,1.6L36.8,31.12l.45-17h18l0,5.31H43l-.23,7.38c.44-.21.82-.39,1.14-.52a7.64,7.64,0,0,1,.94-.34,4.87,4.87,0,0,1,1-.18c.35,0,.74,0,1.18,0a9.76,9.76,0,0,1,3.76.7,8.34,8.34,0,0,1,2.9,2,9.2,9.2,0,0,1,1.88,3.1A11.42,11.42,0,0,1,56.24,35.52Z"/></svg>