<svg id="Layer_1" data-name="Layer 1" xmlns="http://www.w3.org/2000/svg" viewBox="0 0 62.56 61.94"><defs><style>.cls-1{fill:#081735;}</style></defs><path class="cls-1" d="M8,49.18l0-2.82c.74-.87,1.53-1.74,2.36-2.6l2.46-2.56q1.23-1.28,2.34-2.49a21.66,21.66,0,0,0,2-2.46,14.12,14.12,0,0,0,1.35-2.43,6.38,6.38,0,0,0,.5-2.44,2.66,2.66,0,0,0-.94-2.12,3.38,3.38,0,0,0-2.3-.81,4,4,0,0,0-1.75.38,4.56,4.56,0,0,0-1.33,1,7.71,7.71,0,0,0-1,1.35,10.45,10.45,0,0,0-.7,1.48L7.54,30.14q.36-.81.9-1.86a7.23,7.23,0,0,1,1.57-2,8.81,8.81,0,0,1,2.66-1.59,11.36,11.36,0,0,1,4.2-.65,10,10,0,0,1,3.17.47,7.18,7.18,0,0,1,2.47,1.35A5.9,5.9,0,0,1,24.09,28a6.78,6.78,0,0,1,.55,2.79,9.37,9.37,0,0,1-1.06,4.28,22.78,22.78,0,0,1-2.57,4,30.28,30.28,0,0,1-3.17,3.38c-1.11,1-2,1.84-2.81,2.5h9.83v4.24Z"/><path class="cls-1" d="M45.7,36.19q0,6.86-2.36,9.93c-1.58,2-3.91,3.06-7,3.06s-5.44-1-7-3.08S27,40.89,27,36.64s.78-7.39,2.36-9.47,3.91-3.11,7-3.11Q45.7,24.06,45.7,36.19Zm-5.65.2a16,16,0,0,0-.94-5.92,2.84,2.84,0,0,0-2.75-1.77,3,3,0,0,0-2.79,1.92,17.41,17.41,0,0,0-1,6.36,15.47,15.47,0,0,0,.94,5.62,3,3,0,0,0,2.82,1.94,2.87,2.87,0,0,0,2.7-1.87A16.89,16.89,0,0,0,40.05,36.39Z"/></svg>