<svg id="Layer_1" data-name="Layer 1" xmlns="http://www.w3.org/2000/svg" viewBox="0 0 62.56 61.94"><defs><style>.cls-1{fill:#777;}</style></defs><path class="cls-1" d="M24.83,46.35H19.37V38.78H8.07V15.59H13.7V33.85h5.67V26.42h5.42v7.43H28.7v4.89H24.83Z"/><path class="cls-1" d="M52,38.05a7.44,7.44,0,0,1-.74,3.34A7.26,7.26,0,0,1,49.12,44a10.5,10.5,0,0,1-3.43,1.71,15.42,15.42,0,0,1-4.49.62,18.59,18.59,0,0,1-3.41-.28A11.88,11.88,0,0,1,35,45.2a11.34,11.34,0,0,1-2.51-1.58,18.85,18.85,0,0,1-2.37-2.42L33,37.28q3.44,3.88,7.35,3.88a5.29,5.29,0,0,0,3.45-1,3.5,3.5,0,0,0,1.34-2.69,3.43,3.43,0,0,0-.34-1.91,3.62,3.62,0,0,0-1.5-1.48,8.36,8.36,0,0,0-3-.86,23.88,23.88,0,0,0-4.67-.1V27.91a31.92,31.92,0,0,0,4.43.05,8,8,0,0,0,2.72-.6,3,3,0,0,0,1.41-1.25,4,4,0,0,0,.42-1.92,3.17,3.17,0,0,0-1.28-2.44,5,5,0,0,0-3.16-.92,7.4,7.4,0,0,0-3.13.69,12.78,12.78,0,0,0-3.17,2.23l-2.46-4.16q3.3-4,10.16-3.95a12.69,12.69,0,0,1,3.89.55,8.77,8.77,0,0,1,3,1.58,7,7,0,0,1,1.9,2.45A7.55,7.55,0,0,1,51,23.43a6.69,6.69,0,0,1-1.28,4.24,10,10,0,0,1-4.22,2.84A8.21,8.21,0,0,1,50.35,33,7.3,7.3,0,0,1,52,38.05Z"/></svg>