<svg id="Layer_1" data-name="Layer 1" xmlns="http://www.w3.org/2000/svg" viewBox="0 0 62.56 61.94"><defs><style>.cls-1{fill:#777;}</style></defs><path class="cls-1" d="M10.58,40.89l.05-3.45c.9-1.07,1.87-2.13,2.88-3.18l3-3.13c1-1,1.95-2.05,2.86-3a26.72,26.72,0,0,0,2.4-3,16.81,16.81,0,0,0,1.65-3,7.65,7.65,0,0,0,.62-3,3.28,3.28,0,0,0-1.15-2.59,4.14,4.14,0,0,0-2.81-1A4.65,4.65,0,0,0,18,16a5.49,5.49,0,0,0-1.63,1.22,8.83,8.83,0,0,0-1.18,1.65,13.38,13.38,0,0,0-.86,1.8l-4.23-3.07c.3-.66.66-1.42,1.1-2.27a8.67,8.67,0,0,1,1.92-2.42A10.39,10.39,0,0,1,16.32,11a14.09,14.09,0,0,1,5.13-.8,12.29,12.29,0,0,1,3.88.58,8.64,8.64,0,0,1,3,1.65A7.16,7.16,0,0,1,30.28,15,8.37,8.37,0,0,1,31,18.41a11.58,11.58,0,0,1-1.29,5.24,28.1,28.1,0,0,1-3.15,4.87,37.4,37.4,0,0,1-3.87,4.13c-1.35,1.23-2.5,2.25-3.43,3.05h12v5.19Z"/><path class="cls-1" d="M44.11,40.89v-24c-.59.68-1.14,1.28-1.67,1.83s-1.1,1.12-1.72,1.73l-2.9-3.95c.88-.77,1.73-1.53,2.55-2.29s1.42-1.33,2.16-2.06,1.33-1.4,1.81-2H50V40.89Z"/></svg>