<svg id="Layer_1" data-name="Layer 1" xmlns="http://www.w3.org/2000/svg" viewBox="0 0 62.56 61.94"><defs><style>.cls-1{fill:#777;}</style></defs><path class="cls-1" d="M12.13,51.55l0-2.82c.75-.87,1.53-1.74,2.36-2.6L17,43.57q1.22-1.27,2.34-2.49a23.62,23.62,0,0,0,2-2.45,14.58,14.58,0,0,0,1.35-2.44,6.38,6.38,0,0,0,.5-2.44,2.68,2.68,0,0,0-.93-2.12,3.43,3.43,0,0,0-2.31-.81,3.9,3.9,0,0,0-1.74.38,4.61,4.61,0,0,0-1.34,1,7.71,7.71,0,0,0-1,1.35,12.37,12.37,0,0,0-.7,1.48l-3.46-2.52c.24-.54.54-1.16.9-1.85a7.31,7.31,0,0,1,1.57-2,8.81,8.81,0,0,1,2.66-1.59,11.4,11.4,0,0,1,4.2-.65,10,10,0,0,1,3.17.47,7.4,7.4,0,0,1,2.48,1.35,5.87,5.87,0,0,1,1.57,2.12,6.78,6.78,0,0,1,.55,2.79,9.44,9.44,0,0,1-1.06,4.29,22.5,22.5,0,0,1-2.57,4A30.28,30.28,0,0,1,22,44.81c-1.1,1-2,1.84-2.81,2.5H29v4.24Z"/><path class="cls-1" d="M31.89,51.55l0-2.82c.74-.87,1.53-1.74,2.35-2.6l2.47-2.56c.82-.85,1.59-1.68,2.34-2.49a22.37,22.37,0,0,0,2-2.45,13.28,13.28,0,0,0,1.35-2.44,6.21,6.21,0,0,0,.51-2.44A2.69,2.69,0,0,0,42,31.63a3.4,3.4,0,0,0-2.3-.81,4,4,0,0,0-1.75.38,4.43,4.43,0,0,0-1.33,1,7.23,7.23,0,0,0-1,1.35A12.46,12.46,0,0,0,34.91,35l-3.45-2.52c.24-.54.54-1.16.9-1.85a7.27,7.27,0,0,1,1.56-2,9,9,0,0,1,2.67-1.59,11.34,11.34,0,0,1,4.19-.65A10.1,10.1,0,0,1,44,26.9a7.45,7.45,0,0,1,2.47,1.35A6,6,0,0,1,48,30.37a6.94,6.94,0,0,1,.55,2.79,9.57,9.57,0,0,1-1.06,4.29,22.56,22.56,0,0,1-2.58,4,29.38,29.38,0,0,1-3.17,3.38c-1.1,1-2,1.84-2.8,2.5h9.82v4.24Z"/></svg>