<svg id="Layer_1" data-name="Layer 1" xmlns="http://www.w3.org/2000/svg" viewBox="0 0 62.56 61.94"><defs><style>.cls-1{fill:#777;}</style></defs><path class="cls-1" d="M39.38,44.22a5.48,5.48,0,0,1-2.26,4.66,10.32,10.32,0,0,1-6.28,1.68,13.74,13.74,0,0,1-3.75-.48,9.56,9.56,0,0,1-2.88-1.32,6.14,6.14,0,0,1-1.88-2.06,6,6,0,0,1,.54-6.33,10.16,10.16,0,0,1,4-2.54c-1-.61-1.78-1.15-2.38-1.61a6.6,6.6,0,0,1-1.38-1.36,4,4,0,0,1-.67-1.41,7.6,7.6,0,0,1-.18-1.77,5.51,5.51,0,0,1,2.09-4.63q2.09-1.62,6.41-1.62a12.87,12.87,0,0,1,3.4.42,8.28,8.28,0,0,1,2.61,1.21A5.23,5.23,0,0,1,39,31.45,5.54,5.54,0,0,1,38,34.86a10.37,10.37,0,0,1-3.51,2.74,8.9,8.9,0,0,1,3.75,2.72A6.34,6.34,0,0,1,39.38,44.22Zm-4.79-.46a2.4,2.4,0,0,0-.29-1.24,2.77,2.77,0,0,0-.84-.91,8.18,8.18,0,0,0-1.33-.75c-.52-.23-1.1-.47-1.75-.71a7.51,7.51,0,0,0-2.63,1.34A2.43,2.43,0,0,0,27,43.33a2.55,2.55,0,0,0,1.08,2.18,4.81,4.81,0,0,0,2.91.8,4.39,4.39,0,0,0,2.63-.7A2.16,2.16,0,0,0,34.59,43.76Zm-.68-11.42a2.31,2.31,0,0,0-1-1.92,3.91,3.91,0,0,0-2.5-.74,3.47,3.47,0,0,0-2.23.69,2.15,2.15,0,0,0-.86,1.77q0,1.89,3.45,3.37a5.36,5.36,0,0,0,2.41-1.37A2.67,2.67,0,0,0,33.91,32.34Z"/></svg>