<svg id="Layer_1" data-name="Layer 1" xmlns="http://www.w3.org/2000/svg" viewBox="0 0 62.56 61.94"><defs><style>.cls-1{fill:#444;}</style></defs><path class="cls-1" d="M29.24,37.44a7.79,7.79,0,0,1-.75,3.42,7.68,7.68,0,0,1-2.21,2.69,10.75,10.75,0,0,1-3.52,1.75,15.72,15.72,0,0,1-4.59.63,20.27,20.27,0,0,1-3.48-.28,12.34,12.34,0,0,1-2.91-.9,10.79,10.79,0,0,1-2.56-1.62,18.9,18.9,0,0,1-2.43-2.46l3-4q3.51,4,7.51,4a5.51,5.51,0,0,0,3.54-1,3.65,3.65,0,0,0,1.37-2.75,3.61,3.61,0,0,0-.36-2,3.65,3.65,0,0,0-1.53-1.51,8.63,8.63,0,0,0-3-.88,23.31,23.31,0,0,0-4.76-.1V27.07a33.22,33.22,0,0,0,4.52.05,8.16,8.16,0,0,0,2.79-.61,3.09,3.09,0,0,0,1.44-1.28,4.19,4.19,0,0,0,.42-2,3.25,3.25,0,0,0-1.3-2.49,5.14,5.14,0,0,0-3.24-.94,7.57,7.57,0,0,0-3.2.7,13.23,13.23,0,0,0-3.24,2.29L8.18,18.56q3.38-4,10.4-4a13.22,13.22,0,0,1,4,.56,9,9,0,0,1,3,1.62,7,7,0,0,1,1.94,2.5,7.77,7.77,0,0,1,.67,3.29,6.86,6.86,0,0,1-1.3,4.34,10.24,10.24,0,0,1-4.32,2.9,8.48,8.48,0,0,1,5,2.53A7.57,7.57,0,0,1,29.24,37.44Z"/><path class="cls-1" d="M54.17,35.79A11.13,11.13,0,0,1,53.42,40a9,9,0,0,1-5.35,5.22,11.94,11.94,0,0,1-4.3.73,11.81,11.81,0,0,1-4.49-.82,9.47,9.47,0,0,1-3.46-2.34,10.72,10.72,0,0,1-2.23-3.61,13.2,13.2,0,0,1-.79-4.7,16.74,16.74,0,0,1,1-5.54,28.66,28.66,0,0,1,2.48-5.34,39.87,39.87,0,0,1,3.45-4.89,45,45,0,0,1,3.87-4.17h7.6a46.77,46.77,0,0,0-5.57,6,48.1,48.1,0,0,0-4.55,7c.47-.27.9-.49,1.28-.67a9,9,0,0,1,1.08-.43,6.1,6.1,0,0,1,1-.22,8.66,8.66,0,0,1,1.19-.07,8.29,8.29,0,0,1,3.46.7,7.58,7.58,0,0,1,2.69,2,9.65,9.65,0,0,1,1.77,3.07A11.58,11.58,0,0,1,54.17,35.79Zm-6,.12a4.43,4.43,0,0,0-1.07-3.13,3.66,3.66,0,0,0-2.85-1.16,5.94,5.94,0,0,0-4.18,1.77c-.09.45-.15.78-.18,1a6.75,6.75,0,0,0,0,.88,5,5,0,0,0,1.22,3.5,4.14,4.14,0,0,0,3.19,1.34A3.69,3.69,0,0,0,47.12,39,4.36,4.36,0,0,0,48.19,35.91Z"/></svg>