<svg id="Layer_1" data-name="Layer 1" xmlns="http://www.w3.org/2000/svg" viewBox="0 0 62.56 61.94"><defs><style>.cls-1{fill:#510000;}</style></defs><path class="cls-1" d="M44.87,38.42a6.85,6.85,0,0,1-2.82,5.82q-2.82,2.1-7.85,2.1a17.42,17.42,0,0,1-4.68-.59,11.68,11.68,0,0,1-3.61-1.66,7.59,7.59,0,0,1-2.34-2.56,7.43,7.43,0,0,1,.67-7.92,12.85,12.85,0,0,1,5-3.18,35.37,35.37,0,0,1-3-2,8.23,8.23,0,0,1-1.73-1.7A5,5,0,0,1,23.72,25a9.54,9.54,0,0,1-.22-2.21A6.92,6.92,0,0,1,26.11,17q2.61-2,8-2a16,16,0,0,1,4.25.53A10.23,10.23,0,0,1,41.63,17a6.57,6.57,0,0,1,2.07,2.36,6.7,6.7,0,0,1,.72,3.12,7,7,0,0,1-1.32,4.27,13,13,0,0,1-4.39,3.43,11.19,11.19,0,0,1,4.7,3.39A8,8,0,0,1,44.87,38.42Zm-6-.58a3.14,3.14,0,0,0-.36-1.55,3.53,3.53,0,0,0-1.06-1.13,9.82,9.82,0,0,0-1.66-.94c-.65-.29-1.38-.58-2.19-.89A9.33,9.33,0,0,0,30.34,35a3,3,0,0,0-.95,2.3A3.2,3.2,0,0,0,30.74,40a6.05,6.05,0,0,0,3.65,1,5.52,5.52,0,0,0,3.28-.87A2.72,2.72,0,0,0,38.89,37.84ZM38,23.57a2.89,2.89,0,0,0-1.19-2.4,4.94,4.94,0,0,0-3.13-.93,4.36,4.36,0,0,0-2.79.86,2.73,2.73,0,0,0-1.08,2.22q0,2.36,4.32,4.21a6.83,6.83,0,0,0,3-1.71A3.34,3.34,0,0,0,38,23.57Z"/></svg>