<svg id="Layer_1" data-name="Layer 1" xmlns="http://www.w3.org/2000/svg" viewBox="0 0 62.56 61.94"><defs><style>.cls-1{fill:#081735;}</style></defs><path class="cls-1" d="M28.57,43.35a6,6,0,0,1-2.37,4.89,8.51,8.51,0,0,1-2.81,1.4,12.5,12.5,0,0,1-3.68.5,15.79,15.79,0,0,1-2.79-.22,9.8,9.8,0,0,1-2.32-.72,8.79,8.79,0,0,1-2-1.29,14.63,14.63,0,0,1-1.94-2L13,42.73c1.87,2.11,3.88,3.17,6,3.17a4.34,4.34,0,0,0,2.83-.84,2.9,2.9,0,0,0,1.1-2.2,2.86,2.86,0,0,0-.29-1.56,3,3,0,0,0-1.22-1.21A7,7,0,0,0,19,39.38a19.33,19.33,0,0,0-3.81-.07V35.06a26.31,26.31,0,0,0,3.62,0A6.6,6.6,0,0,0,21,34.61a2.47,2.47,0,0,0,1.15-1A3.3,3.3,0,0,0,22.52,32a2.58,2.58,0,0,0-1-2,4.07,4.07,0,0,0-2.59-.76,6,6,0,0,0-2.56.57,10.28,10.28,0,0,0-2.59,1.82l-2-3.4C13.52,26.09,16.29,25,20,25a10.42,10.42,0,0,1,3.17.45,7,7,0,0,1,2.42,1.29,5.66,5.66,0,0,1,1.55,2,6.23,6.23,0,0,1,.54,2.64,5.55,5.55,0,0,1-1,3.47,8.22,8.22,0,0,1-3.46,2.31,6.77,6.77,0,0,1,4,2A6,6,0,0,1,28.57,43.35Z"/><path class="cls-1" d="M48.33,43.35A6,6,0,0,1,46,48.24a8.51,8.51,0,0,1-2.81,1.4,12.43,12.43,0,0,1-3.67.5,15.79,15.79,0,0,1-2.79-.22,9.65,9.65,0,0,1-2.32-.72,8.85,8.85,0,0,1-2.06-1.29,15.92,15.92,0,0,1-1.94-2l2.38-3.2q2.8,3.17,6,3.17a4.31,4.31,0,0,0,2.82-.84,3.22,3.22,0,0,0,.82-3.76,3,3,0,0,0-1.23-1.21,7,7,0,0,0-2.41-.71,19.44,19.44,0,0,0-3.82-.07V35.06a26.32,26.32,0,0,0,3.62,0,6.54,6.54,0,0,0,2.23-.49,2.42,2.42,0,0,0,1.15-1A3.3,3.3,0,0,0,42.29,32a2.59,2.59,0,0,0-1-2,4.07,4.07,0,0,0-2.59-.76,6,6,0,0,0-2.56.57,10.46,10.46,0,0,0-2.59,1.82l-2-3.4C33.29,26.09,36.06,25,39.8,25a10.44,10.44,0,0,1,3.18.45,7.09,7.09,0,0,1,2.42,1.29,5.78,5.78,0,0,1,1.55,2,6.23,6.23,0,0,1,.54,2.64,5.49,5.49,0,0,1-1.05,3.47A8.24,8.24,0,0,1,43,37.18a6.81,6.81,0,0,1,4,2A6,6,0,0,1,48.33,43.35Z"/></svg>