<svg id="Layer_1" data-name="Layer 1" xmlns="http://www.w3.org/2000/svg" viewBox="0 0 62.56 61.94"><defs><style>.cls-1{fill:#444;}</style></defs><path class="cls-1" d="M26.14,45.53H20.56V37.79H9V14.07h5.76V32.75h5.81V25.14h5.53v7.61h4v5h-4Z"/><path class="cls-1" d="M54.17,35.38a11.18,11.18,0,0,1-.75,4.2,9,9,0,0,1-5.35,5.22,12.86,12.86,0,0,1-8.79-.09,9.47,9.47,0,0,1-3.46-2.34,10.66,10.66,0,0,1-2.23-3.62,13.11,13.11,0,0,1-.79-4.69,17,17,0,0,1,1-5.54,29.36,29.36,0,0,1,2.49-5.34,39.87,39.87,0,0,1,3.45-4.89,43.69,43.69,0,0,1,3.87-4.17h7.6a46.77,46.77,0,0,0-5.57,6,48.1,48.1,0,0,0-4.55,7c.47-.27.9-.49,1.28-.67A7.56,7.56,0,0,1,43.4,26a6.12,6.12,0,0,1,1-.23,10.74,10.74,0,0,1,1.19-.06,8.29,8.29,0,0,1,3.46.7,7.58,7.58,0,0,1,2.69,2,9.35,9.35,0,0,1,1.76,3.07A11.32,11.32,0,0,1,54.17,35.38Zm-6,.13a4.48,4.48,0,0,0-1.07-3.14,3.69,3.69,0,0,0-2.85-1.15A6,6,0,0,0,40.09,33q-.14.68-.18,1a6.63,6.63,0,0,0,0,.88,5,5,0,0,0,1.22,3.49,4.11,4.11,0,0,0,3.19,1.35,3.66,3.66,0,0,0,2.85-1.16A4.33,4.33,0,0,0,48.19,35.51Z"/></svg>