<svg id="Layer_1" data-name="Layer 1" xmlns="http://www.w3.org/2000/svg" viewBox="0 0 62.56 61.94"><defs><style>.cls-1{fill:#777;}</style></defs><path class="cls-1" d="M22.2,49.74H17.73V43.55H8.48v-19h4.61V39.52h4.64V33.43h4.43v6.09h3.21v4H22.2Z"/><path class="cls-1" d="M44.63,41.63A9.09,9.09,0,0,1,44,45a7.27,7.27,0,0,1-1.68,2.55,7.41,7.41,0,0,1-2.61,1.63,9.59,9.59,0,0,1-3.44.58,9.44,9.44,0,0,1-3.59-.65,7.76,7.76,0,0,1-2.77-1.87,8.62,8.62,0,0,1-1.78-2.9,10.57,10.57,0,0,1-.64-3.75,13.41,13.41,0,0,1,.77-4.43,23,23,0,0,1,2-4.27A30.71,30.71,0,0,1,33,28a37.42,37.42,0,0,1,3.09-3.34h6.08A39.23,39.23,0,0,0,34.12,35a10.39,10.39,0,0,1,1-.54,5.65,5.65,0,0,1,.86-.34,4,4,0,0,1,.83-.18,6.8,6.8,0,0,1,1-.06,6.72,6.72,0,0,1,2.77.56,6.18,6.18,0,0,1,2.15,1.6,7.61,7.61,0,0,1,1.41,2.46A9.18,9.18,0,0,1,44.63,41.63Zm-4.79.1A3.56,3.56,0,0,0,39,39.22a3,3,0,0,0-2.28-.93,4.77,4.77,0,0,0-3.34,1.42c-.08.36-.12.63-.15.81a6.54,6.54,0,0,0,0,.7,4,4,0,0,0,1,2.8A3.27,3.27,0,0,0,36.7,45.1,3,3,0,0,0,39,44.17,3.46,3.46,0,0,0,39.84,41.73Z"/></svg>