<svg id="Layer_1" data-name="Layer 1" xmlns="http://www.w3.org/2000/svg" viewBox="0 0 62.56 61.94"><defs><style>.cls-1{fill:#444;}</style></defs><path class="cls-1" d="M17.68,45V20.43c-.6.69-1.17,1.32-1.71,1.87s-1.13,1.15-1.76,1.78l-3-4q1.35-1.17,2.61-2.34c.72-.66,1.46-1.36,2.21-2.11a25.43,25.43,0,0,0,1.85-2h5.75V45Z"/><path class="cls-1" d="M54.17,34.83A11.13,11.13,0,0,1,53.42,39a9.08,9.08,0,0,1-2.09,3.18,9.22,9.22,0,0,1-3.26,2,11.94,11.94,0,0,1-4.3.73,11.81,11.81,0,0,1-4.49-.82,9.47,9.47,0,0,1-3.46-2.34,10.72,10.72,0,0,1-2.23-3.61,13.2,13.2,0,0,1-.79-4.7,17,17,0,0,1,1-5.54,29.68,29.68,0,0,1,2.49-5.34,39.87,39.87,0,0,1,3.45-4.89,43.69,43.69,0,0,1,3.87-4.17h7.6a46.77,46.77,0,0,0-5.57,6,48.1,48.1,0,0,0-4.55,7c.47-.27.9-.49,1.28-.67a9,9,0,0,1,1.08-.43,6.1,6.1,0,0,1,1-.22,8.66,8.66,0,0,1,1.19-.07,8.29,8.29,0,0,1,3.46.7,7.58,7.58,0,0,1,2.69,2,9.45,9.45,0,0,1,1.76,3.07A11.34,11.34,0,0,1,54.17,34.83Zm-6,.12a4.43,4.43,0,0,0-1.07-3.13,3.66,3.66,0,0,0-2.85-1.16,5.94,5.94,0,0,0-4.18,1.77c-.09.45-.15.78-.18,1a6.75,6.75,0,0,0,0,.88,5,5,0,0,0,1.22,3.5,4.14,4.14,0,0,0,3.19,1.34A3.69,3.69,0,0,0,47.12,38,4.36,4.36,0,0,0,48.19,35Z"/></svg>