<svg id="Layer_1" data-name="Layer 1" xmlns="http://www.w3.org/2000/svg" viewBox="0 0 62.56 61.94"><defs><style>.cls-1{fill:#510000;}</style></defs><path class="cls-1" d="M27.86,35.52A9.43,9.43,0,0,1,25,42.92Q22,45.53,16.79,45.53a15.09,15.09,0,0,1-6-1.15A13.25,13.25,0,0,1,6.08,41L8.6,36.57q4,3.65,7.83,3.65A6,6,0,0,0,20.34,39a3.89,3.89,0,0,0,1.53-3.17,4.42,4.42,0,0,0-1.28-3.43,5.33,5.33,0,0,0-3.71-1.17,5.42,5.42,0,0,0-2.37.51,9.84,9.84,0,0,0-2.22,1.6L8.42,31.12l.45-17h18l0,5.31H14.63l-.23,7.38c.44-.21.82-.39,1.14-.52a7.64,7.64,0,0,1,.94-.34,4.87,4.87,0,0,1,1-.18c.35,0,.74,0,1.18,0a9.76,9.76,0,0,1,3.76.7,8.34,8.34,0,0,1,2.9,2,9.2,9.2,0,0,1,1.88,3.1A11.42,11.42,0,0,1,27.86,35.52Z"/><path class="cls-1" d="M54.41,29.28q0,8.58-3,12.41t-8.77,3.84q-5.8,0-8.77-3.86T31,29.84Q31,21.92,33.91,18t8.77-3.9Q54.41,14.12,54.41,29.28Zm-7.07.25q-.14-5.18-1.17-7.39a3.56,3.56,0,0,0-3.44-2.22,3.81,3.81,0,0,0-3.49,2.4c-.72,1.55-1.13,4.2-1.21,8a19.19,19.19,0,0,0,1.17,7,3.75,3.75,0,0,0,3.53,2.42,3.58,3.58,0,0,0,3.37-2.34Q47.21,35,47.34,29.53Z"/></svg>