<svg id="Layer_1" data-name="Layer 1" xmlns="http://www.w3.org/2000/svg" viewBox="0 0 62.56 61.94"><defs><style>.cls-1{fill:#777;}</style></defs><path class="cls-1" d="M21.76,43.35a6,6,0,0,1-2.37,4.89,8.51,8.51,0,0,1-2.81,1.4,12.5,12.5,0,0,1-3.68.5,15.79,15.79,0,0,1-2.79-.22,9.8,9.8,0,0,1-2.32-.72,8.79,8.79,0,0,1-2-1.29,14.63,14.63,0,0,1-1.94-2l2.37-3.2c1.87,2.11,3.88,3.17,6,3.17A4.34,4.34,0,0,0,15,45.06a2.9,2.9,0,0,0,1.1-2.2,2.86,2.86,0,0,0-.29-1.56,3,3,0,0,0-1.22-1.21,7,7,0,0,0-2.42-.71,19.33,19.33,0,0,0-3.81-.07V35.06a26.31,26.31,0,0,0,3.62,0,6.6,6.6,0,0,0,2.23-.49,2.47,2.47,0,0,0,1.15-1A3.3,3.3,0,0,0,15.71,32a2.58,2.58,0,0,0-1-2,4.07,4.07,0,0,0-2.59-.76,6,6,0,0,0-2.56.57,10.28,10.28,0,0,0-2.59,1.82l-2-3.4C6.71,26.09,9.48,25,13.23,25a10.42,10.42,0,0,1,3.17.45,7.09,7.09,0,0,1,2.42,1.29,5.78,5.78,0,0,1,1.55,2,6.23,6.23,0,0,1,.54,2.64,5.55,5.55,0,0,1-1,3.47,8.22,8.22,0,0,1-3.46,2.31,6.77,6.77,0,0,1,4,2A6,6,0,0,1,21.76,43.35Z"/><path class="cls-1" d="M42,43.8a5.51,5.51,0,0,1-2.26,4.67,10.41,10.41,0,0,1-6.28,1.67,13.65,13.65,0,0,1-3.75-.47,9.74,9.74,0,0,1-2.89-1.32,6.11,6.11,0,0,1-1.87-2.06,5.51,5.51,0,0,1-.67-2.7A5.4,5.4,0,0,1,25.45,40a10,10,0,0,1,4-2.54c-1-.61-1.77-1.15-2.37-1.61a6.67,6.67,0,0,1-1.39-1.36A3.94,3.94,0,0,1,25,33a7.11,7.11,0,0,1-.19-1.77,5.53,5.53,0,0,1,2.09-4.63Q29,25,33.35,25a12.82,12.82,0,0,1,3.4.42,8.06,8.06,0,0,1,2.61,1.2A5.28,5.28,0,0,1,41,28.54,5.38,5.38,0,0,1,41.6,31a5.57,5.57,0,0,1-1.07,3.42A10.37,10.37,0,0,1,37,37.19a9,9,0,0,1,3.76,2.71A6.45,6.45,0,0,1,42,43.8Zm-4.79-.45a2.5,2.5,0,0,0-.29-1.24A2.71,2.71,0,0,0,36,41.2a7.16,7.16,0,0,0-1.33-.75c-.52-.23-1.1-.47-1.74-.71a7.42,7.42,0,0,0-2.63,1.34,2.39,2.39,0,0,0-.76,1.84,2.56,2.56,0,0,0,1.08,2.18,4.82,4.82,0,0,0,2.92.8,4.43,4.43,0,0,0,2.62-.7A2.17,2.17,0,0,0,37.17,43.35Zm-.69-11.42A2.32,2.32,0,0,0,35.53,30a3.94,3.94,0,0,0-2.5-.75,3.38,3.38,0,0,0-2.23.7,2.16,2.16,0,0,0-.87,1.76q0,1.89,3.46,3.38a5.51,5.51,0,0,0,2.41-1.37A2.71,2.71,0,0,0,36.48,31.93Z"/></svg>