<svg id="Layer_1" data-name="Layer 1" xmlns="http://www.w3.org/2000/svg" viewBox="0 0 62.56 61.94"><defs><style>.cls-1{fill:#022749;}</style></defs><path class="cls-1" d="M9.28,43.53l.05-3.45C10.23,39,11.2,38,12.21,36.9l3-3.13c1-1,2-2.05,2.86-3a26.72,26.72,0,0,0,2.4-3,16.81,16.81,0,0,0,1.65-3,7.65,7.65,0,0,0,.62-3,3.28,3.28,0,0,0-1.15-2.59,4.14,4.14,0,0,0-2.81-1,4.65,4.65,0,0,0-2.14.47A5.49,5.49,0,0,0,15,19.88a8.83,8.83,0,0,0-1.18,1.65,13.38,13.38,0,0,0-.86,1.8L8.75,20.26c.3-.66.66-1.42,1.1-2.27a8.67,8.67,0,0,1,1.92-2.42,10.39,10.39,0,0,1,3.25-2,14.09,14.09,0,0,1,5.13-.8A12.29,12.29,0,0,1,24,13.4a8.64,8.64,0,0,1,3,1.65A7.16,7.16,0,0,1,29,17.64a8.37,8.37,0,0,1,.67,3.41,11.58,11.58,0,0,1-1.29,5.24,28.1,28.1,0,0,1-3.15,4.87,37.4,37.4,0,0,1-3.87,4.13c-1.35,1.23-2.5,2.25-3.43,3.05h12v5.19Z"/><path class="cls-1" d="M42.63,43.53H36L47.52,18H33.7V12.82H54.43v4.57Z"/></svg>