<svg id="Layer_1" data-name="Layer 1" xmlns="http://www.w3.org/2000/svg" viewBox="0 0 62.56 61.94"><defs><style>.cls-1{fill:#510000;}</style></defs><path class="cls-1" d="M40.21,46.34h-6l.36-13.27A8.24,8.24,0,0,1,32,34.64a9,9,0,0,1-3,.45,9.48,9.48,0,0,1-3.76-.72,8.19,8.19,0,0,1-2.9-2,9,9,0,0,1-1.87-3.17A12.24,12.24,0,0,1,19.78,25a12.28,12.28,0,0,1,.78-4.48A9.3,9.3,0,0,1,26.32,15,13.77,13.77,0,0,1,31,14.26a9.85,9.85,0,0,1,7.29,2.61,9.37,9.37,0,0,1,2.48,7.24Zm-5.72-22.9A3.67,3.67,0,0,0,34.2,22a3.82,3.82,0,0,0-.81-1.14,3.66,3.66,0,0,0-1.24-.77,4.32,4.32,0,0,0-1.53-.27,4.13,4.13,0,0,0-3.28,1.4A5.62,5.62,0,0,0,26.12,25a4.92,4.92,0,0,0,1.06,3.37,3.67,3.67,0,0,0,2.95,1.22,4,4,0,0,0,3.06-1.22A5,5,0,0,0,34.45,25Z"/></svg>