<svg id="Layer_1" data-name="Layer 1" xmlns="http://www.w3.org/2000/svg" viewBox="0 0 62.56 61.94"><defs><style>.cls-1{fill:#777;}</style></defs><path class="cls-1" d="M27.51,43.35a6,6,0,0,1-2.37,4.89,8.51,8.51,0,0,1-2.81,1.4,12.5,12.5,0,0,1-3.68.5,15.79,15.79,0,0,1-2.79-.22,9.8,9.8,0,0,1-2.32-.72,8.79,8.79,0,0,1-2-1.29,14.63,14.63,0,0,1-1.94-2l2.37-3.2c1.88,2.11,3.88,3.17,6,3.17a4.31,4.31,0,0,0,2.82-.84,2.9,2.9,0,0,0,1.1-2.2,2.86,2.86,0,0,0-.29-1.56,3,3,0,0,0-1.22-1.21,7,7,0,0,0-2.41-.71,19.46,19.46,0,0,0-3.82-.07V35.06a26.31,26.31,0,0,0,3.62,0A6.54,6.54,0,0,0,20,34.61a2.47,2.47,0,0,0,1.15-1A3.3,3.3,0,0,0,21.46,32a2.58,2.58,0,0,0-1-2,4.07,4.07,0,0,0-2.59-.76,6,6,0,0,0-2.56.57,10.28,10.28,0,0,0-2.59,1.82l-2-3.4C12.46,26.09,15.24,25,19,25a10.42,10.42,0,0,1,3.17.45,7,7,0,0,1,2.42,1.29,5.66,5.66,0,0,1,1.55,2,6.23,6.23,0,0,1,.54,2.64,5.55,5.55,0,0,1-1,3.47,8.22,8.22,0,0,1-3.46,2.31,6.8,6.8,0,0,1,4,2A6,6,0,0,1,27.51,43.35Z"/><path class="cls-1" d="M46.84,42.14a7.55,7.55,0,0,1-2.32,5.92A9.46,9.46,0,0,1,38,50.14a12.19,12.19,0,0,1-4.78-.91,10.63,10.63,0,0,1-3.79-2.7l2-3.55c2.13,1.94,4.22,2.92,6.26,2.92a4.83,4.83,0,0,0,3.13-1,3.09,3.09,0,0,0,1.23-2.54,3.54,3.54,0,0,0-1-2.74,4.28,4.28,0,0,0-3-.93,4.16,4.16,0,0,0-1.89.41,7.68,7.68,0,0,0-1.78,1.28l-3.1-1.77L31.65,25h14.4l0,4.24H36.26l-.18,5.91c.35-.17.65-.31.91-.42l.75-.27a3.82,3.82,0,0,1,.79-.14c.27,0,.59,0,.94,0a7.67,7.67,0,0,1,3,.57,6.57,6.57,0,0,1,2.33,1.59,7.25,7.25,0,0,1,1.5,2.48A9.11,9.11,0,0,1,46.84,42.14Z"/></svg>