<svg id="Layer_1" data-name="Layer 1" xmlns="http://www.w3.org/2000/svg" viewBox="0 0 62.56 61.94"><defs><style>.cls-1{fill:#777;}</style></defs><path class="cls-1" d="M6.11,51.55l0-2.82c.75-.87,1.53-1.74,2.36-2.6L11,43.57q1.21-1.27,2.34-2.49a22.37,22.37,0,0,0,2-2.45,14.58,14.58,0,0,0,1.35-2.44,6.2,6.2,0,0,0,.5-2.44,2.68,2.68,0,0,0-.93-2.12,3.41,3.41,0,0,0-2.31-.81,3.93,3.93,0,0,0-1.74.38,4.43,4.43,0,0,0-1.33,1,7.28,7.28,0,0,0-1,1.35A12.37,12.37,0,0,0,9.13,35L5.68,32.51c.24-.54.54-1.16.9-1.85a7.27,7.27,0,0,1,1.56-2,8.87,8.87,0,0,1,2.67-1.59A11.34,11.34,0,0,1,15,26.43a10,10,0,0,1,3.17.47,7.4,7.4,0,0,1,2.48,1.35,6,6,0,0,1,1.58,2.12,6.94,6.94,0,0,1,.55,2.79,9.45,9.45,0,0,1-1.07,4.29,22,22,0,0,1-2.57,4A29.38,29.38,0,0,1,16,44.81c-1.1,1-2,1.84-2.81,2.5H23v4.24Z"/><path class="cls-1" d="M33.4,51.55H28l9.43-20.88H26.09V26.43H43v3.73Z"/></svg>