<svg id="Layer_1" data-name="Layer 1" xmlns="http://www.w3.org/2000/svg" viewBox="0 0 62.56 61.94"><defs><style>.cls-1{fill:#510000;}</style></defs><path class="cls-1" d="M29.34,37.44a7.54,7.54,0,0,1-3,6.11,10.75,10.75,0,0,1-3.52,1.75,15.72,15.72,0,0,1-4.59.63,20.27,20.27,0,0,1-3.48-.28,12.34,12.34,0,0,1-2.91-.9,10.79,10.79,0,0,1-2.56-1.62,18.9,18.9,0,0,1-2.43-2.46l3-4q3.51,4,7.51,4a5.51,5.51,0,0,0,3.54-1,3.65,3.65,0,0,0,1.37-2.75,3.61,3.61,0,0,0-.36-2,3.65,3.65,0,0,0-1.53-1.51,8.63,8.63,0,0,0-3-.88,23.38,23.38,0,0,0-4.77-.1V27.07a33.37,33.37,0,0,0,4.53.05,8.16,8.16,0,0,0,2.79-.61,3.09,3.09,0,0,0,1.44-1.28,4.19,4.19,0,0,0,.42-2,3.25,3.25,0,0,0-1.3-2.49,5.14,5.14,0,0,0-3.24-.94,7.57,7.57,0,0,0-3.2.7,13.23,13.23,0,0,0-3.24,2.29L8.28,18.56q3.38-4,10.4-4a13.22,13.22,0,0,1,4,.56,9,9,0,0,1,3,1.62,7,7,0,0,1,1.94,2.5,7.77,7.77,0,0,1,.67,3.29A6.86,6.86,0,0,1,27,26.83a10.24,10.24,0,0,1-4.32,2.9,8.48,8.48,0,0,1,5,2.53A7.57,7.57,0,0,1,29.34,37.44Z"/><path class="cls-1" d="M52.83,45.93h-6l.36-13.28a8.25,8.25,0,0,1-2.56,1.58,9,9,0,0,1-3,.45A9.43,9.43,0,0,1,37.83,34a8.23,8.23,0,0,1-2.91-2.05,9,9,0,0,1-1.86-3.17,12.23,12.23,0,0,1-.66-4.14,12.28,12.28,0,0,1,.79-4.48A9.23,9.23,0,0,1,39,14.59a13.76,13.76,0,0,1,4.66-.75,9.85,9.85,0,0,1,7.29,2.61,9.39,9.39,0,0,1,2.47,7.25ZM47.12,23a3.62,3.62,0,0,0-.29-1.46A3.87,3.87,0,0,0,46,20.41a3.64,3.64,0,0,0-1.24-.76,4.32,4.32,0,0,0-1.53-.27A4.14,4.14,0,0,0,40,20.77a5.64,5.64,0,0,0-1.21,3.83A4.93,4.93,0,0,0,39.81,28a3.68,3.68,0,0,0,2.94,1.22A4.06,4.06,0,0,0,45.81,28a5,5,0,0,0,1.26-3.37Z"/></svg>