<svg id="Layer_1" data-name="Layer 1" xmlns="http://www.w3.org/2000/svg" viewBox="0 0 62.56 61.94"><defs><style>.cls-1{fill:#510000;}</style></defs><path class="cls-1" d="M32.07,37.44a7.54,7.54,0,0,1-3,6.11,10.85,10.85,0,0,1-3.52,1.75,15.72,15.72,0,0,1-4.59.63,20.27,20.27,0,0,1-3.48-.28,12.34,12.34,0,0,1-2.91-.9,10.79,10.79,0,0,1-2.56-1.62,18.9,18.9,0,0,1-2.43-2.46l3-4q3.51,4,7.51,4a5.51,5.51,0,0,0,3.54-1A3.65,3.65,0,0,0,25,36.83a3.61,3.61,0,0,0-.36-2,3.65,3.65,0,0,0-1.53-1.51,8.63,8.63,0,0,0-3-.88,23.38,23.38,0,0,0-4.77-.1V27.07a33.37,33.37,0,0,0,4.53.05,8.16,8.16,0,0,0,2.79-.61,3.09,3.09,0,0,0,1.44-1.28,4.19,4.19,0,0,0,.42-2,3.25,3.25,0,0,0-1.3-2.49A5.14,5.14,0,0,0,20,19.83a7.57,7.57,0,0,0-3.2.7,13.23,13.23,0,0,0-3.24,2.29L11,18.56q3.38-4,10.4-4a13.22,13.22,0,0,1,4,.56,9,9,0,0,1,3,1.62,7,7,0,0,1,1.94,2.5A7.77,7.77,0,0,1,31,22.49a6.86,6.86,0,0,1-1.3,4.34,10.24,10.24,0,0,1-4.32,2.9,8.48,8.48,0,0,1,5,2.53A7.57,7.57,0,0,1,32.07,37.44Z"/><path class="cls-1" d="M56.78,37.44A7.8,7.8,0,0,1,56,40.86a7.68,7.68,0,0,1-2.21,2.69A10.69,10.69,0,0,1,50.3,45.3a15.72,15.72,0,0,1-4.59.63,20.48,20.48,0,0,1-3.49-.28,12.4,12.4,0,0,1-2.9-.9,10.85,10.85,0,0,1-2.57-1.62,18.9,18.9,0,0,1-2.43-2.46l3-4q3.51,4,7.52,4a5.46,5.46,0,0,0,3.53-1,3.62,3.62,0,0,0,1.37-2.75,3.44,3.44,0,0,0-.36-2,3.65,3.65,0,0,0-1.53-1.51,8.57,8.57,0,0,0-3-.88,23.38,23.38,0,0,0-4.77-.1V27.07a33.22,33.22,0,0,0,4.52.05,8.1,8.1,0,0,0,2.79-.61,3,3,0,0,0,1.44-1.28,4.07,4.07,0,0,0,.43-2,3.26,3.26,0,0,0-1.31-2.49,5.14,5.14,0,0,0-3.24-.94,7.52,7.52,0,0,0-3.19.7,13.23,13.23,0,0,0-3.24,2.29l-2.52-4.26q3.38-4,10.39-4a13.17,13.17,0,0,1,4,.56,9,9,0,0,1,3,1.62A7,7,0,0,1,55,19.2a7.77,7.77,0,0,1,.68,3.29,6.86,6.86,0,0,1-1.31,4.34,10.24,10.24,0,0,1-4.32,2.9,8.48,8.48,0,0,1,5,2.53A7.53,7.53,0,0,1,56.78,37.44Z"/></svg>