<svg id="Layer_1" data-name="Layer 1" xmlns="http://www.w3.org/2000/svg" viewBox="0 0 62.56 61.94"><defs><style>.cls-1{fill:#777;}</style></defs><path class="cls-1" d="M41.43,35.65a10.89,10.89,0,0,1-.73,4.1,8.82,8.82,0,0,1-5.24,5.11,11.86,11.86,0,0,1-4.2.71,11.67,11.67,0,0,1-4.39-.8,9.42,9.42,0,0,1-3.39-2.29,10.42,10.42,0,0,1-2.17-3.54,12.77,12.77,0,0,1-.78-4.59,16.22,16.22,0,0,1,.94-5.41,28,28,0,0,1,2.43-5.22,37.88,37.88,0,0,1,3.37-4.79,47.18,47.18,0,0,1,3.78-4.08h7.44A46.87,46.87,0,0,0,33,20.75a48.18,48.18,0,0,0-4.44,6.82c.46-.26.88-.48,1.25-.66a8.5,8.5,0,0,1,1.05-.42,6.85,6.85,0,0,1,1-.22,10.06,10.06,0,0,1,1.16-.06,8.26,8.26,0,0,1,3.38.68,7.47,7.47,0,0,1,2.63,2,9.22,9.22,0,0,1,1.73,3A11.34,11.34,0,0,1,41.43,35.65Zm-5.85.12a4.35,4.35,0,0,0-1-3.06,3.61,3.61,0,0,0-2.79-1.14,5.82,5.82,0,0,0-4.09,1.73q-.14.66-.18,1a6.85,6.85,0,0,0,0,.87,4.9,4.9,0,0,0,1.19,3.41,4,4,0,0,0,3.11,1.32,3.65,3.65,0,0,0,2.8-1.13A4.27,4.27,0,0,0,35.58,35.77Z"/></svg>