<svg id="Layer_1" data-name="Layer 1" xmlns="http://www.w3.org/2000/svg" viewBox="0 0 62.56 61.94"><defs><style>.cls-1{fill:#777;}</style></defs><path class="cls-1" d="M11,51.55l0-2.82c.75-.87,1.53-1.74,2.36-2.6l2.47-2.56Q17,42.3,18.16,41.08a23.62,23.62,0,0,0,2-2.45,14.58,14.58,0,0,0,1.35-2.44,6.38,6.38,0,0,0,.5-2.44A2.68,2.68,0,0,0,21,31.63a3.43,3.43,0,0,0-2.31-.81A3.9,3.9,0,0,0,17,31.2a4.61,4.61,0,0,0-1.34,1,7.71,7.71,0,0,0-1,1.35A12.37,12.37,0,0,0,14,35l-3.46-2.52c.24-.54.54-1.16.9-1.85a7.31,7.31,0,0,1,1.57-2,8.81,8.81,0,0,1,2.66-1.59,11.36,11.36,0,0,1,4.2-.65A10,10,0,0,1,23,26.9a7.25,7.25,0,0,1,2.47,1.35,5.79,5.79,0,0,1,1.58,2.12,6.78,6.78,0,0,1,.55,2.79,9.44,9.44,0,0,1-1.06,4.29,22.5,22.5,0,0,1-2.57,4,30.28,30.28,0,0,1-3.17,3.38c-1.1,1-2,1.84-2.81,2.5h9.83v4.24Z"/><path class="cls-1" d="M38.39,51.55V31.93c-.48.55-.94,1-1.37,1.49s-.9.92-1.41,1.42L33.24,31.6c.72-.62,1.42-1.24,2.09-1.87s1.16-1.09,1.76-1.69,1.1-1.13,1.49-1.61h4.6V51.55Z"/></svg>