<svg id="Layer_1" data-name="Layer 1" xmlns="http://www.w3.org/2000/svg" viewBox="0 0 62.56 61.94"><defs><style>.cls-1{fill:#510000;}</style></defs><path class="cls-1" d="M21.33,45V20.43c-.6.69-1.17,1.32-1.71,1.87s-1.12,1.15-1.75,1.78l-3-4q1.35-1.17,2.61-2.34c.72-.66,1.45-1.36,2.2-2.11s1.37-1.42,1.86-2h5.75V45Z"/><path class="cls-1" d="M57.06,35a9.43,9.43,0,0,1-2.91,7.4C52.21,44.1,49.5,45,46,45a15.28,15.28,0,0,1-6-1.14,13.28,13.28,0,0,1-4.74-3.38L37.8,36q4,3.65,7.83,3.65a6.07,6.07,0,0,0,3.92-1.23,3.89,3.89,0,0,0,1.53-3.17,4.39,4.39,0,0,0-1.29-3.43,6.16,6.16,0,0,0-6.07-.66,9.66,9.66,0,0,0-2.23,1.6l-3.87-2.2.45-17h18l0,5.31H43.83l-.22,7.38c.43-.21.81-.38,1.13-.52s.64-.25.94-.34a5.15,5.15,0,0,1,1-.18c.35,0,.75,0,1.18,0a9.72,9.72,0,0,1,3.76.7,8.29,8.29,0,0,1,2.91,2A9.18,9.18,0,0,1,56.38,31,11.2,11.2,0,0,1,57.06,35Z"/></svg>