<svg id="Layer_1" data-name="Layer 1" xmlns="http://www.w3.org/2000/svg" viewBox="0 0 62.56 61.94"><defs><style>.cls-1{fill:#510000;}</style></defs><path class="cls-1" d="M44.15,37.85a7.66,7.66,0,0,1-.76,3.42A7.56,7.56,0,0,1,41.19,44a10.85,10.85,0,0,1-3.52,1.75,15.72,15.72,0,0,1-4.59.63,19.51,19.51,0,0,1-3.49-.28,12.88,12.88,0,0,1-2.9-.89,11.17,11.17,0,0,1-2.56-1.63,18.9,18.9,0,0,1-2.43-2.46l3-4q3.51,4,7.51,4a5.46,5.46,0,0,0,3.53-1,3.7,3.7,0,0,0-.51-6.22,8.85,8.85,0,0,0-3-.88,24.92,24.92,0,0,0-4.77-.1v-5.3a33,33,0,0,0,4.52,0,7.82,7.82,0,0,0,2.79-.61,3,3,0,0,0,1.44-1.28,4,4,0,0,0,.43-2,3.25,3.25,0,0,0-1.3-2.49,5.14,5.14,0,0,0-3.24-.94,7.58,7.58,0,0,0-3.2.71,12.9,12.9,0,0,0-3.24,2.28L23.09,19q3.38-4,10.4-4a12.79,12.79,0,0,1,4,.57,9,9,0,0,1,3,1.61,7.05,7.05,0,0,1,1.93,2.51,7.74,7.74,0,0,1,.68,3.29,6.85,6.85,0,0,1-1.31,4.33,10.15,10.15,0,0,1-4.32,2.9,8.42,8.42,0,0,1,5,2.53A7.53,7.53,0,0,1,44.15,37.85Z"/></svg>