<svg id="Layer_1" data-name="Layer 1" xmlns="http://www.w3.org/2000/svg" viewBox="0 0 62.56 61.94"><defs><style>.cls-1{fill:#777;}</style></defs><path class="cls-1" d="M24,43.35a6.22,6.22,0,0,1-.61,2.74,6,6,0,0,1-1.76,2.15,8.46,8.46,0,0,1-2.82,1.4,12.39,12.39,0,0,1-3.67.5,15.79,15.79,0,0,1-2.79-.22A9.65,9.65,0,0,1,10,49.2a8.79,8.79,0,0,1-2-1.29,15.29,15.29,0,0,1-1.95-2l2.38-3.2q2.81,3.17,6,3.17a4.36,4.36,0,0,0,2.83-.84,2.9,2.9,0,0,0,1.1-2.2A2.86,2.86,0,0,0,18,41.3a2.93,2.93,0,0,0-1.23-1.21,6.92,6.92,0,0,0-2.41-.71,19.33,19.33,0,0,0-3.81-.07V35.06a26.18,26.18,0,0,0,3.61,0,6.61,6.61,0,0,0,2.24-.49,2.47,2.47,0,0,0,1.15-1A3.3,3.3,0,0,0,17.91,32a2.61,2.61,0,0,0-1-2,4.1,4.1,0,0,0-2.6-.76,6,6,0,0,0-2.55.57,10.28,10.28,0,0,0-2.59,1.82l-2-3.4C8.91,26.09,11.68,25,15.43,25a10.42,10.42,0,0,1,3.17.45A7.09,7.09,0,0,1,21,26.76a5.78,5.78,0,0,1,1.55,2,6.23,6.23,0,0,1,.54,2.64,5.55,5.55,0,0,1-1,3.47,8.22,8.22,0,0,1-3.46,2.31,6.81,6.81,0,0,1,4,2A6,6,0,0,1,24,43.35Z"/><path class="cls-1" d="M42.75,50.14H37.93l.28-10.62a6.54,6.54,0,0,1-2.05,1.26,7.15,7.15,0,0,1-2.41.36,7.69,7.69,0,0,1-3-.57,6.71,6.71,0,0,1-2.32-1.64,7.29,7.29,0,0,1-1.49-2.54A10.72,10.72,0,0,1,27,29.5a7.55,7.55,0,0,1,1.79-2.72,7.76,7.76,0,0,1,2.82-1.71,11,11,0,0,1,3.73-.59,7.87,7.87,0,0,1,5.83,2.08,7.54,7.54,0,0,1,2,5.8ZM38.18,31.82a2.78,2.78,0,0,0-.24-1.17,2.8,2.8,0,0,0-1.63-1.53,3.62,3.62,0,0,0-1.23-.22A3.34,3.34,0,0,0,32.45,30a4.53,4.53,0,0,0-1,3.06,4,4,0,0,0,.85,2.7,3,3,0,0,0,2.36,1,3.22,3.22,0,0,0,2.44-1,4,4,0,0,0,1-2.7Z"/></svg>