<svg id="Layer_1" data-name="Layer 1" xmlns="http://www.w3.org/2000/svg" viewBox="0 0 62.56 61.94"><defs><style>.cls-1{fill:#444;}</style></defs><path class="cls-1" d="M8.09,47.34l.05-3.53c.93-1.09,1.91-2.18,2.95-3.25l3.08-3.2q1.53-1.59,2.92-3.11a29,29,0,0,0,2.46-3.07,17.54,17.54,0,0,0,1.68-3.05,7.82,7.82,0,0,0,.63-3.05,3.35,3.35,0,0,0-1.17-2.65,4.27,4.27,0,0,0-2.88-1,4.88,4.88,0,0,0-2.18.48A5.58,5.58,0,0,0,14,23.15a9,9,0,0,0-1.22,1.69,14.68,14.68,0,0,0-.88,1.84L7.55,23.54c.3-.68.68-1.45,1.13-2.32a8.74,8.74,0,0,1,2-2.48,10.66,10.66,0,0,1,3.33-2,14.15,14.15,0,0,1,5.24-.82,12.86,12.86,0,0,1,4,.59,9.21,9.21,0,0,1,3.09,1.69,7.36,7.36,0,0,1,2,2.65,8.53,8.53,0,0,1,.69,3.49A11.7,11.7,0,0,1,27.6,29.7a27.49,27.49,0,0,1-3.22,5,36.58,36.58,0,0,1-4,4.23Q18.35,40.8,16.91,42H29.2v5.31Z"/><path class="cls-1" d="M54.17,37.2a11.13,11.13,0,0,1-.75,4.19,9,9,0,0,1-5.35,5.22,11.94,11.94,0,0,1-4.3.73,11.81,11.81,0,0,1-4.49-.82,9.47,9.47,0,0,1-3.46-2.34,10.72,10.72,0,0,1-2.23-3.61,13.2,13.2,0,0,1-.79-4.7,16.74,16.74,0,0,1,1-5.54A29,29,0,0,1,36.24,25a39.87,39.87,0,0,1,3.45-4.89,45,45,0,0,1,3.87-4.17h7.6a46.77,46.77,0,0,0-5.57,6,48.1,48.1,0,0,0-4.55,7c.47-.27.9-.49,1.28-.67a9,9,0,0,1,1.08-.43,6.1,6.1,0,0,1,1-.22,8.66,8.66,0,0,1,1.19-.07,8.29,8.29,0,0,1,3.46.7,7.58,7.58,0,0,1,2.69,2,9.65,9.65,0,0,1,1.77,3.07A11.58,11.58,0,0,1,54.17,37.2Zm-6,.12a4.43,4.43,0,0,0-1.07-3.13A3.66,3.66,0,0,0,44.27,33a5.94,5.94,0,0,0-4.18,1.77c-.09.45-.15.78-.18,1a6.75,6.75,0,0,0,0,.88,5,5,0,0,0,1.22,3.5,4.14,4.14,0,0,0,3.19,1.34,3.69,3.69,0,0,0,2.85-1.15A4.36,4.36,0,0,0,48.19,37.32Z"/></svg>