<svg id="Layer_1" data-name="Layer 1" xmlns="http://www.w3.org/2000/svg" viewBox="0 0 62.56 61.94"><defs><style>.cls-1{fill:#510000;}</style></defs><path class="cls-1" d="M7.26,47.34l0-3.53c.93-1.09,1.91-2.18,3-3.25l3.08-3.2q1.53-1.59,2.92-3.11a29,29,0,0,0,2.46-3.07,17.54,17.54,0,0,0,1.68-3.05A7.82,7.82,0,0,0,21,25.08a3.35,3.35,0,0,0-1.17-2.65,4.27,4.27,0,0,0-2.88-1,4.85,4.85,0,0,0-2.18.48,5.58,5.58,0,0,0-1.66,1.25,9,9,0,0,0-1.22,1.69A14.68,14.68,0,0,0,11,26.68L6.72,23.54c.3-.68.68-1.45,1.13-2.32a8.74,8.74,0,0,1,2-2.48,10.66,10.66,0,0,1,3.33-2,14.15,14.15,0,0,1,5.24-.82,12.86,12.86,0,0,1,4,.59,9.21,9.21,0,0,1,3.09,1.69,7.48,7.48,0,0,1,2,2.65,8.53,8.53,0,0,1,.69,3.49,11.7,11.7,0,0,1-1.33,5.35,27.49,27.49,0,0,1-3.22,5,36.58,36.58,0,0,1-4,4.23Q17.52,40.8,16.08,42H28.37v5.31Z"/><path class="cls-1" d="M41.37,47.34H34.58l11.79-26.1H32.24V15.93H53.43V20.6Z"/></svg>