<svg id="Layer_1" data-name="Layer 1" xmlns="http://www.w3.org/2000/svg" viewBox="0 0 62.56 61.94"><defs><style>.cls-1{fill:#510000;}</style></defs><path class="cls-1" d="M17.78,45V20.43c-.6.69-1.17,1.32-1.71,1.87s-1.13,1.15-1.76,1.78l-3-4q1.35-1.17,2.61-2.34c.72-.66,1.46-1.36,2.21-2.11a25.43,25.43,0,0,0,1.85-2h5.75V45Z"/><path class="cls-1" d="M52.83,45h-6l.36-13.28a8.25,8.25,0,0,1-2.56,1.58,9,9,0,0,1-3,.45A9.43,9.43,0,0,1,37.83,33,8.23,8.23,0,0,1,34.92,31a9,9,0,0,1-1.86-3.17,12.23,12.23,0,0,1-.66-4.14,12.28,12.28,0,0,1,.79-4.48A9.23,9.23,0,0,1,39,13.63a13.76,13.76,0,0,1,4.66-.75,9.85,9.85,0,0,1,7.29,2.61,9.39,9.39,0,0,1,2.47,7.25ZM47.12,22.06a3.62,3.62,0,0,0-.29-1.46A3.87,3.87,0,0,0,46,19.45a3.64,3.64,0,0,0-1.24-.76,4.32,4.32,0,0,0-1.53-.27A4.14,4.14,0,0,0,40,19.81a5.64,5.64,0,0,0-1.21,3.83A4.93,4.93,0,0,0,39.81,27a3.68,3.68,0,0,0,2.94,1.22A4.06,4.06,0,0,0,45.81,27a5,5,0,0,0,1.26-3.37Z"/></svg>