<svg id="Layer_1" data-name="Layer 1" xmlns="http://www.w3.org/2000/svg" viewBox="0 0 62.56 61.94"><defs><style>.cls-1{fill:#081735;}</style></defs><path class="cls-1" d="M12.84,51.55l0-2.82c.74-.87,1.53-1.74,2.35-2.6l2.47-2.56c.82-.85,1.59-1.68,2.34-2.49a22.37,22.37,0,0,0,2-2.45,13.9,13.9,0,0,0,1.35-2.44,6.21,6.21,0,0,0,.51-2.44,2.69,2.69,0,0,0-.94-2.12,3.4,3.4,0,0,0-2.3-.81,4,4,0,0,0-1.75.38,4.43,4.43,0,0,0-1.33,1,6.8,6.8,0,0,0-1,1.35A12.46,12.46,0,0,0,15.86,35l-3.45-2.52c.24-.54.54-1.16.9-1.85a7.27,7.27,0,0,1,1.56-2,8.87,8.87,0,0,1,2.67-1.59,11.34,11.34,0,0,1,4.19-.65,10,10,0,0,1,3.17.47,7.4,7.4,0,0,1,2.48,1.35A6,6,0,0,1,29,30.37a6.94,6.94,0,0,1,.55,2.79,9.57,9.57,0,0,1-1.06,4.29,22.56,22.56,0,0,1-2.58,4,29.38,29.38,0,0,1-3.17,3.38c-1.1,1-2,1.84-2.8,2.5h9.82v4.24Z"/><path class="cls-1" d="M40.27,51.55V31.93c-.48.55-.94,1-1.37,1.49l-1.4,1.42L35.12,31.6c.72-.62,1.42-1.24,2.09-1.87S38.37,28.64,39,28s1.1-1.13,1.49-1.61h4.6V51.55Z"/></svg>