<svg id="Layer_1" data-name="Layer 1" xmlns="http://www.w3.org/2000/svg" viewBox="0 0 62.56 61.94"><defs><style>.cls-1{fill:#444;}</style></defs><path class="cls-1" d="M32.07,37.44a7.47,7.47,0,0,1-3,6.11,10.75,10.75,0,0,1-3.52,1.75,15.72,15.72,0,0,1-4.59.63,20.27,20.27,0,0,1-3.48-.28,12.34,12.34,0,0,1-2.91-.9,10.79,10.79,0,0,1-2.56-1.62,18.9,18.9,0,0,1-2.43-2.46l3-4q3.51,4,7.51,4a5.51,5.51,0,0,0,3.54-1A3.65,3.65,0,0,0,25,36.83a3.61,3.61,0,0,0-.36-2,3.65,3.65,0,0,0-1.53-1.51,8.63,8.63,0,0,0-3-.88,23.38,23.38,0,0,0-4.77-.1V27.07a33.37,33.37,0,0,0,4.53.05,8.16,8.16,0,0,0,2.79-.61,3.09,3.09,0,0,0,1.44-1.28,4.19,4.19,0,0,0,.42-2,3.25,3.25,0,0,0-1.3-2.49A5.14,5.14,0,0,0,20,19.83a7.57,7.57,0,0,0-3.2.7,13.23,13.23,0,0,0-3.24,2.29L11,18.56q3.38-4,10.4-4a13.22,13.22,0,0,1,4,.56,9,9,0,0,1,3,1.62,7,7,0,0,1,1.94,2.5A7.77,7.77,0,0,1,31,22.49a6.86,6.86,0,0,1-1.3,4.34,10.24,10.24,0,0,1-4.32,2.9,8.48,8.48,0,0,1,5,2.53A7.57,7.57,0,0,1,32.07,37.44Z"/><path class="cls-1" d="M56.24,35.92a9.43,9.43,0,0,1-2.91,7.4q-2.91,2.61-8.15,2.61a15.28,15.28,0,0,1-6-1.14,13.28,13.28,0,0,1-4.74-3.38L37,37q4,3.64,7.83,3.65a6,6,0,0,0,3.91-1.23,3.89,3.89,0,0,0,1.53-3.17A4.39,4.39,0,0,0,49,32.79a6.16,6.16,0,0,0-6.07-.66,9.66,9.66,0,0,0-2.23,1.6l-3.87-2.2.45-17h18l0,5.31H43l-.23,7.38,1.14-.52a9.74,9.74,0,0,1,.94-.34,4.87,4.87,0,0,1,1-.18c.35,0,.74,0,1.18,0a9.76,9.76,0,0,1,3.76.7,8.34,8.34,0,0,1,2.9,2,9.2,9.2,0,0,1,1.88,3.1A11.42,11.42,0,0,1,56.24,35.92Z"/></svg>