<svg id="Layer_1" data-name="Layer 1" xmlns="http://www.w3.org/2000/svg" viewBox="0 0 62.56 61.94"><defs><style>.cls-1{fill:#777;}</style></defs><path class="cls-1" d="M17.44,49.18V29.56c-.49.55-.94,1.05-1.37,1.49s-.9.92-1.41,1.42l-2.37-3.24c.72-.62,1.41-1.24,2.08-1.87s1.17-1.09,1.77-1.69,1.09-1.14,1.48-1.61h4.6V49.18Z"/><path class="cls-1" d="M46.45,42.39a6,6,0,0,1-2.37,4.89,8.51,8.51,0,0,1-2.81,1.4,12.5,12.5,0,0,1-3.68.5A15.79,15.79,0,0,1,34.8,49a9.8,9.8,0,0,1-2.32-.72,8.79,8.79,0,0,1-2-1.29,14.63,14.63,0,0,1-1.94-2l2.37-3.2q2.82,3.16,6,3.17a4.34,4.34,0,0,0,2.83-.84,2.9,2.9,0,0,0,1.1-2.2,2.86,2.86,0,0,0-.29-1.56,3,3,0,0,0-1.22-1.21,7,7,0,0,0-2.42-.71,19.33,19.33,0,0,0-3.81-.07V34.1a26.31,26.31,0,0,0,3.62,0,6.6,6.6,0,0,0,2.23-.49,2.47,2.47,0,0,0,1.15-1,3.3,3.3,0,0,0,.34-1.58,2.58,2.58,0,0,0-1-2,4.07,4.07,0,0,0-2.59-.76,6,6,0,0,0-2.56.57,10.28,10.28,0,0,0-2.59,1.82l-2-3.4c1.8-2.16,4.57-3.23,8.32-3.23a10.42,10.42,0,0,1,3.17.45,7.09,7.09,0,0,1,2.42,1.29,5.66,5.66,0,0,1,1.55,2,6.23,6.23,0,0,1,.54,2.64,5.55,5.55,0,0,1-1,3.47,8.22,8.22,0,0,1-3.46,2.31,6.77,6.77,0,0,1,4,2A6,6,0,0,1,46.45,42.39Z"/></svg>