<svg id="Layer_1" data-name="Layer 1" xmlns="http://www.w3.org/2000/svg" viewBox="0 0 62.56 61.94"><defs><style>.cls-1{fill:#444;}</style></defs><path class="cls-1" d="M9.13,47.34l0-3.53c.93-1.09,1.92-2.18,2.95-3.25s2.06-2.14,3.08-3.2,2-2.1,2.93-3.11a27.66,27.66,0,0,0,2.45-3.07,17,17,0,0,0,1.69-3.05,7.82,7.82,0,0,0,.63-3.05,3.35,3.35,0,0,0-1.17-2.65,4.27,4.27,0,0,0-2.88-1,4.82,4.82,0,0,0-2.18.48A5.63,5.63,0,0,0,15,23.15a8.94,8.94,0,0,0-1.21,1.69,13.41,13.41,0,0,0-.88,1.84L8.59,23.54c.3-.68.67-1.45,1.12-2.32a8.92,8.92,0,0,1,2-2.48,10.9,10.9,0,0,1,3.33-2,14.19,14.19,0,0,1,5.24-.82,12.82,12.82,0,0,1,4,.59,9,9,0,0,1,3.09,1.69,7.25,7.25,0,0,1,2,2.65A8.53,8.53,0,0,1,30,24.35a11.81,11.81,0,0,1-1.32,5.35,28,28,0,0,1-3.22,5,36.58,36.58,0,0,1-4,4.23Q19.39,40.8,18,42H30.23v5.31Z"/><path class="cls-1" d="M55.52,39.41a6.86,6.86,0,0,1-2.82,5.83q-2.82,2.1-7.85,2.1a17,17,0,0,1-4.68-.6,11.61,11.61,0,0,1-3.62-1.65,7.6,7.6,0,0,1-2.33-2.57,7.41,7.41,0,0,1,.67-7.91,12.66,12.66,0,0,1,5-3.18,35.37,35.37,0,0,1-3-2,8.23,8.23,0,0,1-1.73-1.7A5,5,0,0,1,34.37,26a9.39,9.39,0,0,1-.22-2.2A6.89,6.89,0,0,1,36.76,18q2.61-2,8-2a16.05,16.05,0,0,1,4.25.53A10,10,0,0,1,52.28,18a6.53,6.53,0,0,1,2.79,5.49,7,7,0,0,1-1.32,4.27,13,13,0,0,1-4.39,3.43,11.09,11.09,0,0,1,4.69,3.39A8,8,0,0,1,55.52,39.41Zm-6-.57a3.14,3.14,0,0,0-.36-1.55,3.45,3.45,0,0,0-1.06-1.14,10.22,10.22,0,0,0-1.66-.93c-.65-.29-1.38-.58-2.19-.89A9.33,9.33,0,0,0,41,36a3,3,0,0,0-1,2.29A3.23,3.23,0,0,0,41.39,41,6.05,6.05,0,0,0,45,42a5.52,5.52,0,0,0,3.28-.87A2.72,2.72,0,0,0,49.54,38.84Zm-.86-14.27a2.89,2.89,0,0,0-1.19-2.4,5,5,0,0,0-3.13-.93,4.36,4.36,0,0,0-2.79.86,2.72,2.72,0,0,0-1.08,2.21c0,1.58,1.44,3,4.32,4.22a6.83,6.83,0,0,0,3-1.71A3.34,3.34,0,0,0,48.68,24.57Z"/></svg>