<svg id="Layer_1" data-name="Layer 1" xmlns="http://www.w3.org/2000/svg" viewBox="0 0 62.56 61.94"><defs><style>.cls-1{fill:#777;}</style></defs><path class="cls-1" d="M18.62,49.18V29.56c-.48.55-.93,1.05-1.36,1.49s-.9.92-1.41,1.42l-2.37-3.24c.72-.62,1.41-1.24,2.08-1.87s1.17-1.09,1.77-1.69a21.6,21.6,0,0,0,1.48-1.61h4.6V49.18Z"/><path class="cls-1" d="M38.39,49.18V29.56c-.48.55-.94,1.05-1.37,1.49s-.9.92-1.41,1.42l-2.37-3.24c.72-.62,1.42-1.24,2.09-1.87s1.16-1.09,1.76-1.69,1.1-1.13,1.49-1.61h4.6V49.18Z"/></svg>