<svg id="Layer_1" data-name="Layer 1" xmlns="http://www.w3.org/2000/svg" viewBox="0 0 62.56 61.94"><defs><style>.cls-1{fill:#777;}</style></defs><path class="cls-1" d="M15.43,49.18V29.56c-.48.55-.94,1.05-1.37,1.49l-1.4,1.42-2.38-3.24c.72-.62,1.42-1.24,2.09-1.87s1.16-1.09,1.76-1.69,1.1-1.13,1.49-1.61h4.6V49.18Z"/><path class="cls-1" d="M44.63,41.07a9.18,9.18,0,0,1-.6,3.36A7.32,7.32,0,0,1,42.35,47a7.58,7.58,0,0,1-2.61,1.64,9.81,9.81,0,0,1-3.44.57,9.44,9.44,0,0,1-3.59-.65,7.63,7.63,0,0,1-2.77-1.87,8.68,8.68,0,0,1-1.78-2.89A10.63,10.63,0,0,1,27.52,40a13.46,13.46,0,0,1,.77-4.43,23.25,23.25,0,0,1,2-4.27A31.43,31.43,0,0,1,33,27.39a37.25,37.25,0,0,1,3.09-3.33h6.08a38.28,38.28,0,0,0-4.46,4.82,39.39,39.39,0,0,0-3.63,5.58,10.39,10.39,0,0,1,1-.54,6.93,6.93,0,0,1,.86-.34,4,4,0,0,1,.83-.18,6.8,6.8,0,0,1,1-.06,6.57,6.57,0,0,1,2.77.57A6,6,0,0,1,42.7,35.5,7.72,7.72,0,0,1,44.11,38,9.18,9.18,0,0,1,44.63,41.07Zm-4.79.1A3.57,3.57,0,0,0,39,38.66a2.94,2.94,0,0,0-2.28-.92,4.76,4.76,0,0,0-3.34,1.41c-.08.36-.12.63-.15.81a6.62,6.62,0,0,0,0,.71,4,4,0,0,0,1,2.79,3.27,3.27,0,0,0,2.55,1.08A3,3,0,0,0,39,43.61,3.44,3.44,0,0,0,39.84,41.17Z"/></svg>