<svg id="Layer_1" data-name="Layer 1" xmlns="http://www.w3.org/2000/svg" viewBox="0 0 62.56 61.94"><defs><style>.cls-1{fill:#777;}</style></defs><path class="cls-1" d="M41.38,38a7.57,7.57,0,0,1-.74,3.34A7.44,7.44,0,0,1,38.48,44,10.56,10.56,0,0,1,35,45.71a15.3,15.3,0,0,1-4.48.62,18.59,18.59,0,0,1-3.41-.28,11.74,11.74,0,0,1-2.84-.87,11,11,0,0,1-2.51-1.59,19.44,19.44,0,0,1-2.38-2.41l2.91-3.92q3.44,3.87,7.35,3.87a5.33,5.33,0,0,0,3.45-1,3.55,3.55,0,0,0,1.34-2.69,3.48,3.48,0,0,0-.35-1.92A3.55,3.55,0,0,0,32.62,34a8.43,8.43,0,0,0-2.94-.87A24.82,24.82,0,0,0,25,33.08V27.89a33.43,33.43,0,0,0,4.42.05,8,8,0,0,0,2.73-.6,3,3,0,0,0,1.41-1.25A4,4,0,0,0,34,24.16a3.18,3.18,0,0,0-1.28-2.43,5,5,0,0,0-3.17-.92,7.38,7.38,0,0,0-3.12.69,12.6,12.6,0,0,0-3.17,2.23l-2.46-4.17q3.3-3.94,10.16-3.95a12.62,12.62,0,0,1,3.88.56,8.65,8.65,0,0,1,3,1.58,6.85,6.85,0,0,1,1.89,2.45,7.55,7.55,0,0,1,.66,3.21,6.69,6.69,0,0,1-1.27,4.24,10,10,0,0,1-4.23,2.84A8.25,8.25,0,0,1,39.71,33,7.4,7.4,0,0,1,41.38,38Z"/></svg>