<svg id="Layer_1" data-name="Layer 1" xmlns="http://www.w3.org/2000/svg" viewBox="0 0 62.56 61.94"><defs><style>.cls-1{fill:#777;}</style></defs><path class="cls-1" d="M28.81,46.35H23.35V38.78H12V15.59h5.64V33.85h5.67V26.42h5.41v7.43h3.92v4.89H28.81Z"/><path class="cls-1" d="M55.47,36.56a9.23,9.23,0,0,1-2.84,7.24q-2.85,2.55-8,2.55a14.83,14.83,0,0,1-5.84-1.12,12.87,12.87,0,0,1-4.63-3.3l2.46-4.34q3.91,3.57,7.66,3.57A5.85,5.85,0,0,0,48.12,40a3.79,3.79,0,0,0,1.5-3.1,4.32,4.32,0,0,0-1.25-3.35,6,6,0,0,0-5.94-.64,9.5,9.5,0,0,0-2.18,1.56l-3.79-2.15.44-16.63H54.5l0,5.19h-12L42.32,28c.42-.2.79-.37,1.11-.5a9.14,9.14,0,0,1,.91-.33,4.77,4.77,0,0,1,1-.18c.34,0,.72,0,1.15,0a9.48,9.48,0,0,1,3.67.69A8.11,8.11,0,0,1,53,29.62a8.89,8.89,0,0,1,1.84,3A11.18,11.18,0,0,1,55.47,36.56Z"/></svg>