<svg id="Layer_1" data-name="Layer 1" xmlns="http://www.w3.org/2000/svg" viewBox="0 0 62.56 61.94"><defs><style>.cls-1{fill:#777;}</style></defs><path class="cls-1" d="M23.47,49.74H19V43.55H9.75v-19h4.61V39.52H19V33.43h4.42v6.09h3.21v4H23.47Z"/><path class="cls-1" d="M46.15,43.4a5.46,5.46,0,0,1-2.26,4.66,10.32,10.32,0,0,1-6.28,1.68,14.15,14.15,0,0,1-3.75-.47A9.34,9.34,0,0,1,31,47.94a6.11,6.11,0,0,1-1.88-2,5.51,5.51,0,0,1-.66-2.7,5.44,5.44,0,0,1,1.2-3.63,10.12,10.12,0,0,1,4-2.54c-1-.62-1.78-1.15-2.38-1.61a6.6,6.6,0,0,1-1.38-1.36,3.93,3.93,0,0,1-.67-1.42,7.51,7.51,0,0,1-.18-1.76,5.53,5.53,0,0,1,2.09-4.63c1.39-1.08,3.53-1.63,6.41-1.63A12.86,12.86,0,0,1,41,25a8.06,8.06,0,0,1,2.61,1.2,5.27,5.27,0,0,1,2.23,4.39,5.59,5.59,0,0,1-1.06,3.42,10.49,10.49,0,0,1-3.51,2.74A9,9,0,0,1,45,39.5,6.38,6.38,0,0,1,46.15,43.4ZM41.36,43a2.46,2.46,0,0,0-.29-1.25,2.87,2.87,0,0,0-.84-.91,8.18,8.18,0,0,0-1.33-.74c-.52-.23-1.1-.47-1.75-.71a7.34,7.34,0,0,0-2.63,1.34,2.42,2.42,0,0,0-.75,1.84,2.56,2.56,0,0,0,1.08,2.18,4.8,4.8,0,0,0,2.91.79,4.46,4.46,0,0,0,2.63-.69A2.16,2.16,0,0,0,41.36,43Zm-.68-11.42a2.34,2.34,0,0,0-1-1.93,4,4,0,0,0-2.5-.74,3.47,3.47,0,0,0-2.23.69,2.15,2.15,0,0,0-.86,1.77q0,1.89,3.45,3.37A5.36,5.36,0,0,0,40,33.33,2.67,2.67,0,0,0,40.68,31.53Z"/></svg>