<svg id="Layer_1" data-name="Layer 1" xmlns="http://www.w3.org/2000/svg" viewBox="0 0 62.56 61.94"><defs><style>.cls-1{fill:#081735;}</style></defs><path class="cls-1" d="M17.31,49.18V29.56c-.48.55-.93,1.05-1.37,1.49l-1.4,1.42-2.38-3.24c.72-.62,1.42-1.24,2.09-1.87s1.17-1.09,1.77-1.69a21.6,21.6,0,0,0,1.48-1.61h4.6V49.18Z"/><path class="cls-1" d="M46.51,41.07a9,9,0,0,1-.6,3.36A7.32,7.32,0,0,1,44.23,47a7.4,7.4,0,0,1-2.61,1.64,9.75,9.75,0,0,1-3.43.57,9.46,9.46,0,0,1-3.6-.65,7.71,7.71,0,0,1-2.77-1.87A8.84,8.84,0,0,1,30,43.77,10.63,10.63,0,0,1,29.41,40a13.44,13.44,0,0,1,.76-4.43,23.93,23.93,0,0,1,2-4.27,31.43,31.43,0,0,1,2.76-3.92A35.89,35.89,0,0,1,38,24.06H44.1a36.85,36.85,0,0,0-4.46,4.82A39.47,39.47,0,0,0,36,34.46q.57-.33,1-.54a7,7,0,0,1,.87-.34,3.84,3.84,0,0,1,.83-.18,6.8,6.8,0,0,1,1-.06,6.63,6.63,0,0,1,2.77.57,6.12,6.12,0,0,1,2.15,1.59A7.72,7.72,0,0,1,46,38,9.18,9.18,0,0,1,46.51,41.07Zm-4.79.1a3.57,3.57,0,0,0-.85-2.51,2.94,2.94,0,0,0-2.28-.92,4.77,4.77,0,0,0-3.35,1.41c-.07.36-.12.63-.14.81a4.53,4.53,0,0,0,0,.71,4,4,0,0,0,1,2.79,3.27,3.27,0,0,0,2.54,1.08,3,3,0,0,0,2.29-.93A3.44,3.44,0,0,0,41.72,41.17Z"/></svg>