<svg id="Layer_1" data-name="Layer 1" xmlns="http://www.w3.org/2000/svg" viewBox="0 0 62.56 61.94"><defs><style>.cls-1{fill:#081735;}</style></defs><path class="cls-1" d="M24.08,49.74H19.62V43.55H10.36v-19H15V39.52h4.65V33.43H24v6.09h3.21v4H24.08Z"/><path class="cls-1" d="M46.51,41.63a8.89,8.89,0,0,1-.6,3.35,7.18,7.18,0,0,1-4.29,4.18,10.36,10.36,0,0,1-7-.07,7.84,7.84,0,0,1-2.77-1.87A8.78,8.78,0,0,1,30,44.32a10.57,10.57,0,0,1-.63-3.75,13.4,13.4,0,0,1,.76-4.43,23.61,23.61,0,0,1,2-4.27A30.71,30.71,0,0,1,34.92,28,36.05,36.05,0,0,1,38,24.61H44.1a37.6,37.6,0,0,0-4.46,4.83A38.91,38.91,0,0,0,36,35q.57-.33,1-.54a5.74,5.74,0,0,1,.87-.34,3.84,3.84,0,0,1,.83-.18,7.23,7.23,0,0,1,3.72.5,6.27,6.27,0,0,1,2.15,1.6A7.61,7.61,0,0,1,46,38.52,9.18,9.18,0,0,1,46.51,41.63Zm-4.79.1a3.55,3.55,0,0,0-.85-2.51,3,3,0,0,0-2.28-.93,4.78,4.78,0,0,0-3.35,1.42c-.07.36-.12.63-.14.81a4.47,4.47,0,0,0,0,.7A4,4,0,0,0,36,44a3.27,3.27,0,0,0,2.54,1.08,3,3,0,0,0,2.29-.93A3.45,3.45,0,0,0,41.72,41.73Z"/></svg>