<svg id="Layer_1" data-name="Layer 1" xmlns="http://www.w3.org/2000/svg" viewBox="0 0 62.56 61.94"><defs><style>.cls-1{fill:#444;}</style></defs><path class="cls-1" d="M24.47,45.93H18.89V38.19H7.32V14.47h5.76V33.15h5.81V25.54h5.53v7.61h4v5h-4Z"/><path class="cls-1" d="M53.58,29.68q0,8.58-2.95,12.41t-8.77,3.84q-5.82,0-8.77-3.86t-3-11.83q0-7.92,3-11.82t8.77-3.9Q53.58,14.52,53.58,29.68Zm-7.06.26q-.14-5.18-1.18-7.4a3.54,3.54,0,0,0-3.44-2.22,3.8,3.8,0,0,0-3.48,2.41Q37.34,25,37.2,30.67a19.37,19.37,0,0,0,1.18,7,3.74,3.74,0,0,0,3.52,2.42,3.59,3.59,0,0,0,3.38-2.34Q46.39,35.44,46.52,29.94Z"/></svg>