<svg id="Layer_1" data-name="Layer 1" xmlns="http://www.w3.org/2000/svg" viewBox="0 0 62.56 61.94"><defs><style>.cls-1{fill:#777;}</style></defs><path class="cls-1" d="M23,44.76a6,6,0,0,1-2.37,4.89,8.51,8.51,0,0,1-2.81,1.4,12.5,12.5,0,0,1-3.68.5,15.79,15.79,0,0,1-2.79-.22A9.8,9.8,0,0,1,9,50.61a8.79,8.79,0,0,1-2-1.29,14.63,14.63,0,0,1-1.94-2l2.37-3.2c1.87,2.11,3.88,3.17,6,3.17a4.34,4.34,0,0,0,2.83-.84,2.9,2.9,0,0,0,1.1-2.2,2.86,2.86,0,0,0-.29-1.56,3,3,0,0,0-1.22-1.21,7,7,0,0,0-2.42-.71,19.33,19.33,0,0,0-3.81-.07V36.47a26.31,26.31,0,0,0,3.62,0A6.6,6.6,0,0,0,15.47,36a2.47,2.47,0,0,0,1.15-1A3.3,3.3,0,0,0,17,33.42a2.58,2.58,0,0,0-1-2,4.07,4.07,0,0,0-2.59-.76,6,6,0,0,0-2.56.57,10.28,10.28,0,0,0-2.59,1.82l-2-3.4c1.8-2.16,4.57-3.23,8.32-3.23a10.42,10.42,0,0,1,3.17.45,7.09,7.09,0,0,1,2.42,1.29,5.66,5.66,0,0,1,1.55,2,6.23,6.23,0,0,1,.54,2.64,5.55,5.55,0,0,1-1,3.47,8.22,8.22,0,0,1-3.46,2.31,6.77,6.77,0,0,1,4,2A6,6,0,0,1,23,44.76Z"/><path class="cls-1" d="M43.82,38.56q0,6.86-2.37,9.93t-7,3.06c-3.1,0-5.44-1-7-3.08S25.06,43.26,25.06,39s.79-7.38,2.36-9.46a8.26,8.26,0,0,1,7-3.12Q43.82,26.43,43.82,38.56Zm-5.65.2a16.21,16.21,0,0,0-.94-5.92,2.85,2.85,0,0,0-2.76-1.77A3,3,0,0,0,31.69,33a17.36,17.36,0,0,0-1,6.36A15.69,15.69,0,0,0,31.65,45a3,3,0,0,0,2.82,1.94A2.86,2.86,0,0,0,37.17,45,16.64,16.64,0,0,0,38.17,38.76Z"/></svg>