<svg id="Layer_1" data-name="Layer 1" xmlns="http://www.w3.org/2000/svg" viewBox="0 0 62.56 61.94"><defs><style>.cls-1{fill:#081735;}</style></defs><path class="cls-1" d="M26.57,43.35A6.22,6.22,0,0,1,26,46.09a6.07,6.07,0,0,1-1.77,2.15,8.51,8.51,0,0,1-2.81,1.4,12.43,12.43,0,0,1-3.67.5,15.79,15.79,0,0,1-2.79-.22,9.65,9.65,0,0,1-2.32-.72,8.59,8.59,0,0,1-2-1.29,15.29,15.29,0,0,1-2-2L11,42.73q2.81,3.17,6,3.17a4.36,4.36,0,0,0,2.83-.84,3.23,3.23,0,0,0,.81-3.76,2.93,2.93,0,0,0-1.23-1.21A6.92,6.92,0,0,0,17,39.38a19.42,19.42,0,0,0-3.82-.07V35.06a26.32,26.32,0,0,0,3.62,0A6.54,6.54,0,0,0,19,34.61a2.5,2.5,0,0,0,1.16-1A3.42,3.42,0,0,0,20.52,32a2.59,2.59,0,0,0-1.05-2,4.05,4.05,0,0,0-2.59-.76,5.93,5.93,0,0,0-2.55.57,10.5,10.5,0,0,0-2.6,1.82l-2-3.4C11.52,26.09,14.29,25,18,25a10.44,10.44,0,0,1,3.18.45,7.09,7.09,0,0,1,2.42,1.29,5.78,5.78,0,0,1,1.55,2,6.23,6.23,0,0,1,.54,2.64,5.49,5.49,0,0,1-1,3.47,8.18,8.18,0,0,1-3.45,2.31,6.81,6.81,0,0,1,4,2A6,6,0,0,1,26.57,43.35Z"/><path class="cls-1" d="M46.51,42a8.89,8.89,0,0,1-.6,3.35,7.2,7.2,0,0,1-4.28,4.18,9.62,9.62,0,0,1-3.44.58,9.46,9.46,0,0,1-3.6-.65,7.71,7.71,0,0,1-2.77-1.87A8.84,8.84,0,0,1,30,44.73,10.63,10.63,0,0,1,29.41,41a13.44,13.44,0,0,1,.76-4.43,23,23,0,0,1,2-4.27,30.34,30.34,0,0,1,2.75-3.92A35.89,35.89,0,0,1,38,25H44.1a37.55,37.55,0,0,0-4.46,4.82A39.47,39.47,0,0,0,36,35.42q.57-.33,1-.54a7,7,0,0,1,.87-.34,3.84,3.84,0,0,1,.83-.18,6.8,6.8,0,0,1,1-.06,6.63,6.63,0,0,1,2.77.57,6.12,6.12,0,0,1,2.15,1.59A7.61,7.61,0,0,1,46,38.92,9.18,9.18,0,0,1,46.51,42Zm-4.79.1a3.57,3.57,0,0,0-.85-2.51,2.94,2.94,0,0,0-2.28-.92,4.77,4.77,0,0,0-3.35,1.41c-.07.36-.12.63-.14.81a4.53,4.53,0,0,0,0,.71,4,4,0,0,0,1,2.79,3.27,3.27,0,0,0,2.54,1.08,3,3,0,0,0,2.29-.93A3.44,3.44,0,0,0,41.72,42.13Z"/></svg>