<svg id="Layer_1" data-name="Layer 1" xmlns="http://www.w3.org/2000/svg" viewBox="0 0 62.56 61.94"><defs><style>.cls-1{fill:#444;}</style></defs><path class="cls-1" d="M43.61,36.33a9.42,9.42,0,0,1-2.91,7.4c-1.94,1.74-4.65,2.61-8.15,2.61a15.32,15.32,0,0,1-6-1.14,13.28,13.28,0,0,1-4.74-3.38l2.52-4.44C27,39.82,29.63,41,32.18,41A6.07,6.07,0,0,0,36.1,39.8a3.89,3.89,0,0,0,1.53-3.17,4.39,4.39,0,0,0-1.29-3.43A5.31,5.31,0,0,0,32.63,32a5.21,5.21,0,0,0-2.36.52A9.09,9.09,0,0,0,28,34.15l-3.87-2.21.45-17h18l.05,5.31H30.38l-.22,7.38c.43-.21.81-.38,1.13-.52s.64-.24.94-.33a5.11,5.11,0,0,1,1-.18c.35,0,.74-.05,1.18-.05a9.71,9.71,0,0,1,3.75.71,8.26,8.26,0,0,1,2.91,2,9.36,9.36,0,0,1,1.88,3.1A11.46,11.46,0,0,1,43.61,36.33Z"/></svg>