<svg id="Layer_1" data-name="Layer 1" xmlns="http://www.w3.org/2000/svg" viewBox="0 0 62.56 61.94"><defs><style>.cls-1{fill:#444;}</style></defs><path class="cls-1" d="M20.51,45V20.43c-.6.69-1.17,1.32-1.71,1.87S17.67,23.45,17,24.08l-3-4q1.35-1.17,2.61-2.34c.72-.66,1.46-1.36,2.21-2.11a25.43,25.43,0,0,0,1.85-2h5.75V45Z"/><path class="cls-1" d="M56.24,35a9.43,9.43,0,0,1-2.91,7.4Q50.42,45,45.18,45a15.28,15.28,0,0,1-6-1.14,13.28,13.28,0,0,1-4.74-3.38L37,36q4,3.65,7.83,3.65a6,6,0,0,0,3.91-1.23,3.89,3.89,0,0,0,1.53-3.17A4.39,4.39,0,0,0,49,31.83a6.16,6.16,0,0,0-6.07-.66,9.66,9.66,0,0,0-2.23,1.6l-3.87-2.2.45-17h18l0,5.31H43l-.23,7.38,1.14-.52a9.74,9.74,0,0,1,.94-.34,4.87,4.87,0,0,1,1-.18c.35,0,.74,0,1.18,0a9.76,9.76,0,0,1,3.76.7,8.34,8.34,0,0,1,2.9,2A9.2,9.2,0,0,1,55.56,31,11.42,11.42,0,0,1,56.24,35Z"/></svg>