<svg id="Layer_1" data-name="Layer 1" xmlns="http://www.w3.org/2000/svg" viewBox="0 0 62.56 61.94"><defs><style>.cls-1{fill:#444;}</style></defs><path class="cls-1" d="M28.52,37.44a7.54,7.54,0,0,1-3,6.11A10.85,10.85,0,0,1,22,45.3a15.72,15.72,0,0,1-4.59.63A20.48,20.48,0,0,1,14,45.65a12.4,12.4,0,0,1-2.9-.9A10.79,10.79,0,0,1,8.5,43.13a18.9,18.9,0,0,1-2.43-2.46l3-4q3.51,4,7.51,4a5.46,5.46,0,0,0,3.53-1,3.7,3.7,0,0,0-.51-6.22,8.63,8.63,0,0,0-3-.88,23.38,23.38,0,0,0-4.77-.1V27.07a33.23,33.23,0,0,0,4.52.05,8,8,0,0,0,2.79-.61,3,3,0,0,0,1.44-1.28,4.07,4.07,0,0,0,.43-2,3.25,3.25,0,0,0-1.3-2.49,5.14,5.14,0,0,0-3.24-.94,7.57,7.57,0,0,0-3.2.7A13.23,13.23,0,0,0,10,22.82L7.46,18.56q3.38-4,10.4-4a13.22,13.22,0,0,1,4,.56,9,9,0,0,1,3,1.62,7,7,0,0,1,1.93,2.5,7.77,7.77,0,0,1,.68,3.29,6.92,6.92,0,0,1-1.3,4.34,10.35,10.35,0,0,1-4.33,2.9,8.45,8.45,0,0,1,5,2.53A7.53,7.53,0,0,1,28.52,37.44Z"/><path class="cls-1" d="M52,45.93H46l.36-13.28a8.25,8.25,0,0,1-2.56,1.58,9,9,0,0,1-3,.45A9.51,9.51,0,0,1,37,34a8.28,8.28,0,0,1-2.9-2.05,9.18,9.18,0,0,1-1.87-3.17,12.49,12.49,0,0,1-.65-4.14,12.07,12.07,0,0,1,.79-4.48,9.23,9.23,0,0,1,5.76-5.53,13.7,13.7,0,0,1,4.65-.75,9.88,9.88,0,0,1,7.3,2.61,9.43,9.43,0,0,1,2.47,7.25ZM46.29,23A3.46,3.46,0,0,0,46,21.56a3.54,3.54,0,0,0-2-1.91,4.23,4.23,0,0,0-1.52-.27,4.13,4.13,0,0,0-3.29,1.39,5.64,5.64,0,0,0-1.21,3.83A5,5,0,0,0,39,28a3.72,3.72,0,0,0,3,1.22A4.06,4.06,0,0,0,45,28a5,5,0,0,0,1.26-3.37Z"/></svg>