<svg id="Layer_1" data-name="Layer 1" xmlns="http://www.w3.org/2000/svg" viewBox="0 0 62.56 61.94"><defs><style>.cls-1{fill:#022749;}</style></defs><path class="cls-1" d="M17.06,47.69v-24c-.59.68-1.15,1.28-1.67,1.83s-1.1,1.12-1.72,1.73l-2.9-4c.88-.77,1.73-1.53,2.55-2.29s1.42-1.33,2.15-2.06,1.34-1.4,1.82-2h5.62V47.69Z"/><path class="cls-1" d="M53.8,31.81q0,8.39-2.89,12.13t-8.57,3.75q-5.69,0-8.58-3.77T30.87,32.36q0-7.75,2.89-11.57T42.34,17Q53.8,17,53.8,31.81Zm-6.91.24c-.08-3.37-.47-5.78-1.15-7.23a3.48,3.48,0,0,0-3.36-2.17A3.72,3.72,0,0,0,39,25c-.71,1.52-1.1,4.11-1.19,7.78a19,19,0,0,0,1.15,6.86A3.66,3.66,0,0,0,42.38,42a3.51,3.51,0,0,0,3.3-2.29C46.4,38.2,46.81,35.64,46.89,32.05Z"/></svg>