<svg id="Layer_1" data-name="Layer 1" xmlns="http://www.w3.org/2000/svg" viewBox="0 0 62.56 61.94"><defs><style>.cls-1{fill:#777;}</style></defs><path class="cls-1" d="M32.26,33.16a7.44,7.44,0,0,1-.74,3.34,7.33,7.33,0,0,1-2.15,2.63,10.88,10.88,0,0,1-3.44,1.72,15.78,15.78,0,0,1-4.49.61A18.59,18.59,0,0,1,18,41.18a11.88,11.88,0,0,1-2.84-.87,11.34,11.34,0,0,1-2.51-1.58,18.85,18.85,0,0,1-2.37-2.42l2.9-3.92q3.43,3.88,7.35,3.88a5.29,5.29,0,0,0,3.45-1,3.5,3.5,0,0,0,1.34-2.69A3.43,3.43,0,0,0,25,30.65a3.62,3.62,0,0,0-1.5-1.48,8.58,8.58,0,0,0-3-.86,23.88,23.88,0,0,0-4.67-.1V23a31.92,31.92,0,0,0,4.43.05,7.91,7.91,0,0,0,2.72-.6,3,3,0,0,0,1.41-1.25,4,4,0,0,0,.42-1.92,3.19,3.19,0,0,0-1.27-2.44,5.08,5.08,0,0,0-3.17-.92,7.4,7.4,0,0,0-3.13.69,12.56,12.56,0,0,0-3.16,2.23L11.67,14.7q3.3-4,10.16-3.95a12.69,12.69,0,0,1,3.89.55,8.77,8.77,0,0,1,3,1.58,7,7,0,0,1,1.9,2.45,7.56,7.56,0,0,1,.66,3.22A6.73,6.73,0,0,1,30,22.79a10.06,10.06,0,0,1-4.22,2.83,8.21,8.21,0,0,1,4.86,2.48A7.3,7.3,0,0,1,32.26,33.16Z"/><path class="cls-1" d="M56.42,33.16a7.57,7.57,0,0,1-.74,3.34,7.46,7.46,0,0,1-2.16,2.63,10.77,10.77,0,0,1-3.44,1.72,15.73,15.73,0,0,1-4.49.61,18.66,18.66,0,0,1-3.41-.28,11.8,11.8,0,0,1-2.83-.87,11.34,11.34,0,0,1-2.51-1.58,18.88,18.88,0,0,1-2.38-2.42l2.91-3.92q3.42,3.88,7.34,3.88a5.34,5.34,0,0,0,3.46-1,3.57,3.57,0,0,0,1.34-2.69,3.43,3.43,0,0,0-.35-1.91,3.51,3.51,0,0,0-1.5-1.48,8.44,8.44,0,0,0-2.95-.86,23.78,23.78,0,0,0-4.66-.1V23a31.78,31.78,0,0,0,4.42.05,8,8,0,0,0,2.73-.6,3,3,0,0,0,1.41-1.25A4,4,0,0,0,49,19.3a3.2,3.2,0,0,0-1.28-2.44,5.06,5.06,0,0,0-3.17-.92,7.38,7.38,0,0,0-3.12.69,12.6,12.6,0,0,0-3.17,2.23L35.83,14.7q3.3-4,10.16-3.95a12.63,12.63,0,0,1,3.88.55,8.82,8.82,0,0,1,3,1.58,6.94,6.94,0,0,1,1.89,2.45,7.56,7.56,0,0,1,.66,3.22,6.73,6.73,0,0,1-1.27,4.24,10.1,10.1,0,0,1-4.23,2.83,8.24,8.24,0,0,1,4.87,2.48A7.35,7.35,0,0,1,56.42,33.16Z"/></svg>