<svg id="Layer_1" data-name="Layer 1" xmlns="http://www.w3.org/2000/svg" viewBox="0 0 62.56 61.94"><defs><style>.cls-1{fill:#777;}</style></defs><path class="cls-1" d="M29.27,43.35a6,6,0,0,1-2.37,4.89,8.46,8.46,0,0,1-2.82,1.4,12.39,12.39,0,0,1-3.67.5,15.79,15.79,0,0,1-2.79-.22,9.65,9.65,0,0,1-2.32-.72,8.79,8.79,0,0,1-2.05-1.29,14.63,14.63,0,0,1-1.94-2l2.37-3.2c1.87,2.11,3.88,3.17,6,3.17a4.36,4.36,0,0,0,2.83-.84,2.9,2.9,0,0,0,1.1-2.2,2.86,2.86,0,0,0-.29-1.56,3,3,0,0,0-1.22-1.21,7,7,0,0,0-2.42-.71,19.33,19.33,0,0,0-3.81-.07V35.06a26.18,26.18,0,0,0,3.61,0,6.61,6.61,0,0,0,2.24-.49,2.47,2.47,0,0,0,1.15-1A3.3,3.3,0,0,0,23.22,32a2.58,2.58,0,0,0-1-2,4.1,4.1,0,0,0-2.6-.76,6,6,0,0,0-2.55.57,10.28,10.28,0,0,0-2.59,1.82l-2-3.4C14.22,26.09,17,25,20.74,25a10.42,10.42,0,0,1,3.17.45,7.09,7.09,0,0,1,2.42,1.29,5.78,5.78,0,0,1,1.55,2,6.23,6.23,0,0,1,.54,2.64,5.55,5.55,0,0,1-1,3.47,8.22,8.22,0,0,1-3.46,2.31,6.81,6.81,0,0,1,4,2A6,6,0,0,1,29.27,43.35Z"/><path class="cls-1" d="M46.55,50.14H42.08V44H32.83V25h4.61V39.92h4.64V33.84h4.43v6.08h3.21v4H46.55Z"/></svg>