<svg id="Layer_1" data-name="Layer 1" xmlns="http://www.w3.org/2000/svg" viewBox="0 0 62.56 61.94"><defs><style>.cls-1{fill:#444;}</style></defs><path class="cls-1" d="M28.15,45.53H22.57V37.79H11V14.07h5.76V32.75h5.81V25.14H28.1v7.61h4v5h-4Z"/><path class="cls-1" d="M56,37a7.47,7.47,0,0,1-3,6.11,10.75,10.75,0,0,1-3.52,1.75,15.72,15.72,0,0,1-4.59.63,20.27,20.27,0,0,1-3.48-.28,12.34,12.34,0,0,1-2.91-.9,10.79,10.79,0,0,1-2.56-1.62,18.41,18.41,0,0,1-2.43-2.47l3-4c2.34,2.64,4.84,4,7.52,4a5.5,5.5,0,0,0,3.53-1,3.65,3.65,0,0,0,1.37-2.75,3.61,3.61,0,0,0-.36-2A3.65,3.65,0,0,0,47,33a8.64,8.64,0,0,0-3-.88,23.51,23.51,0,0,0-4.78-.1V26.67a33.37,33.37,0,0,0,4.53,0,8.16,8.16,0,0,0,2.79-.61A3.09,3.09,0,0,0,48,24.83a4.19,4.19,0,0,0,.42-2,3.25,3.25,0,0,0-1.3-2.49,5.14,5.14,0,0,0-3.24-.94,7.57,7.57,0,0,0-3.2.7,13.44,13.44,0,0,0-3.24,2.28l-2.52-4.25q3.38-4,10.4-4a13.22,13.22,0,0,1,4,.56,8.92,8.92,0,0,1,3,1.62,7,7,0,0,1,1.94,2.5,7.77,7.77,0,0,1,.67,3.29,6.86,6.86,0,0,1-1.3,4.34,10.24,10.24,0,0,1-4.32,2.9,8.48,8.48,0,0,1,5,2.53A7.52,7.52,0,0,1,56,37Z"/></svg>