<svg id="Layer_1" data-name="Layer 1" xmlns="http://www.w3.org/2000/svg" viewBox="0 0 62.56 61.94"><defs><style>.cls-1{fill:#777;}</style></defs><path class="cls-1" d="M26.69,43.35a6.22,6.22,0,0,1-.61,2.74,6,6,0,0,1-1.76,2.15,8.56,8.56,0,0,1-2.82,1.4,12.43,12.43,0,0,1-3.67.5A15.79,15.79,0,0,1,15,49.92a9.65,9.65,0,0,1-2.32-.72,8.79,8.79,0,0,1-2.05-1.29,15.29,15.29,0,0,1-1.95-2l2.38-3.2q2.81,3.17,6,3.17a4.36,4.36,0,0,0,2.83-.84A2.86,2.86,0,0,0,21,42.86a2.76,2.76,0,0,0-.28-1.56,2.93,2.93,0,0,0-1.23-1.21,6.92,6.92,0,0,0-2.41-.71,19.42,19.42,0,0,0-3.82-.07V35.06a26.32,26.32,0,0,0,3.62,0,6.61,6.61,0,0,0,2.24-.49,2.47,2.47,0,0,0,1.15-1A3.3,3.3,0,0,0,20.64,32a2.61,2.61,0,0,0-1-2,4.1,4.1,0,0,0-2.6-.76,5.93,5.93,0,0,0-2.55.57,10.28,10.28,0,0,0-2.59,1.82l-2-3.4c1.8-2.16,4.57-3.23,8.31-3.23a10.44,10.44,0,0,1,3.18.45,7.09,7.09,0,0,1,2.42,1.29,5.78,5.78,0,0,1,1.55,2,6.23,6.23,0,0,1,.54,2.64,5.49,5.49,0,0,1-1.05,3.47,8.11,8.11,0,0,1-3.45,2.31,6.81,6.81,0,0,1,4,2A6,6,0,0,1,26.69,43.35Z"/><path class="cls-1" d="M46.45,43.35a6,6,0,0,1-2.37,4.89,8.51,8.51,0,0,1-2.81,1.4,12.5,12.5,0,0,1-3.68.5,15.79,15.79,0,0,1-2.79-.22,9.8,9.8,0,0,1-2.32-.72,8.79,8.79,0,0,1-2-1.29,14.63,14.63,0,0,1-1.94-2l2.37-3.2q2.82,3.17,6,3.17a4.34,4.34,0,0,0,2.83-.84,2.9,2.9,0,0,0,1.1-2.2,2.86,2.86,0,0,0-.29-1.56,3,3,0,0,0-1.22-1.21,7,7,0,0,0-2.42-.71,19.33,19.33,0,0,0-3.81-.07V35.06a26.31,26.31,0,0,0,3.62,0,6.6,6.6,0,0,0,2.23-.49,2.47,2.47,0,0,0,1.15-1A3.3,3.3,0,0,0,40.4,32a2.58,2.58,0,0,0-1-2,4.07,4.07,0,0,0-2.59-.76,6,6,0,0,0-2.56.57,10.28,10.28,0,0,0-2.59,1.82l-2-3.4C31.4,26.09,34.17,25,37.92,25a10.42,10.42,0,0,1,3.17.45,7.09,7.09,0,0,1,2.42,1.29,5.66,5.66,0,0,1,1.55,2,6.23,6.23,0,0,1,.54,2.64,5.55,5.55,0,0,1-1,3.47,8.22,8.22,0,0,1-3.46,2.31,6.77,6.77,0,0,1,4,2A6,6,0,0,1,46.45,43.35Z"/></svg>