<svg id="Layer_1" data-name="Layer 1" xmlns="http://www.w3.org/2000/svg" viewBox="0 0 62.56 61.94"><defs><style>.cls-1{fill:#022749;}</style></defs><path class="cls-1" d="M13.22,45.4v-24c-.58.68-1.14,1.28-1.67,1.83L9.84,25,6.93,21q1.32-1.14,2.55-2.28,1.06-1,2.16-2.07c.73-.73,1.34-1.39,1.82-2h5.62V45.4Z"/><path class="cls-1" d="M47.5,45.4H41.6l.36-13A8.08,8.08,0,0,1,39.45,34a8.9,8.9,0,0,1-3,.44,9.24,9.24,0,0,1-3.67-.7,8.08,8.08,0,0,1-2.84-2,9,9,0,0,1-1.83-3.1,12.2,12.2,0,0,1-.64-4.05,11.89,11.89,0,0,1,.77-4.37,9.36,9.36,0,0,1,2.18-3.33,9.46,9.46,0,0,1,3.46-2.09A13.62,13.62,0,0,1,38.48,14a9.64,9.64,0,0,1,7.13,2.55A9.16,9.16,0,0,1,48,23.66ZM41.91,23a3.48,3.48,0,0,0-2.29-3.3,4.28,4.28,0,0,0-1.49-.26,4,4,0,0,0-3.21,1.36,5.47,5.47,0,0,0-1.19,3.74,4.85,4.85,0,0,0,1,3.3A3.59,3.59,0,0,0,37.64,29a4,4,0,0,0,3-1.19,4.88,4.88,0,0,0,1.23-3.3Z"/></svg>