<svg id="Layer_1" data-name="Layer 1" xmlns="http://www.w3.org/2000/svg" viewBox="0 0 62.56 61.94"><defs><style>.cls-1{fill:#022749;}</style></defs><path class="cls-1" d="M33.92,33.16a7.44,7.44,0,0,1-.74,3.34A7.33,7.33,0,0,1,31,39.13a10.88,10.88,0,0,1-3.44,1.72,15.78,15.78,0,0,1-4.49.61,18.59,18.59,0,0,1-3.41-.28,11.88,11.88,0,0,1-2.84-.87,11.58,11.58,0,0,1-2.51-1.58A18.85,18.85,0,0,1,12,36.31l2.9-3.92q3.44,3.88,7.35,3.88a5.29,5.29,0,0,0,3.45-1,3.91,3.91,0,0,0,1-4.6,3.62,3.62,0,0,0-1.5-1.48,8.58,8.58,0,0,0-3-.86,23.8,23.8,0,0,0-4.66-.1V23a31.77,31.77,0,0,0,4.42.05,8,8,0,0,0,2.73-.6,2.93,2.93,0,0,0,1.4-1.25,4,4,0,0,0,.42-1.92,3.19,3.19,0,0,0-1.27-2.44,5.08,5.08,0,0,0-3.17-.92,7.4,7.4,0,0,0-3.13.69,12.56,12.56,0,0,0-3.16,2.23L13.33,14.7q3.3-4,10.17-3.95a12.67,12.67,0,0,1,3.88.55,8.77,8.77,0,0,1,2.95,1.58,6.85,6.85,0,0,1,1.9,2.45,7.56,7.56,0,0,1,.66,3.22,6.73,6.73,0,0,1-1.28,4.24,10.06,10.06,0,0,1-4.22,2.83,8.21,8.21,0,0,1,4.86,2.48A7.3,7.3,0,0,1,33.92,33.16Z"/><path class="cls-1" d="M57.55,31.67a9.23,9.23,0,0,1-2.84,7.24q-2.85,2.55-8,2.55a14.83,14.83,0,0,1-5.84-1.12A12.87,12.87,0,0,1,36.26,37l2.46-4.34q3.91,3.57,7.66,3.57a5.9,5.9,0,0,0,3.82-1.2A3.82,3.82,0,0,0,51.7,32a4.32,4.32,0,0,0-1.25-3.35A6,6,0,0,0,44.51,28a9.27,9.27,0,0,0-2.18,1.57l-3.79-2.16L39,10.75h17.6l.05,5.19h-12l-.22,7.21c.42-.2.79-.37,1.11-.5a9.14,9.14,0,0,1,.91-.33,4.77,4.77,0,0,1,1-.18c.34,0,.72,0,1.15,0a9.48,9.48,0,0,1,3.67.69,8.11,8.11,0,0,1,2.84,1.94,8.89,8.89,0,0,1,1.84,3A11.18,11.18,0,0,1,57.55,31.67Z"/></svg>