<svg id="Layer_1" data-name="Layer 1" xmlns="http://www.w3.org/2000/svg" viewBox="0 0 62.56 61.94"><defs><style>.cls-1{fill:#510000;}</style></defs><path class="cls-1" d="M22.87,45V20.43c-.6.69-1.17,1.32-1.71,1.87S20,23.45,19.4,24.08l-3-4q1.35-1.17,2.61-2.34c.72-.66,1.46-1.36,2.21-2.11s1.36-1.42,1.85-2h5.75V45Z"/><path class="cls-1" d="M38,45l0-3.53c.93-1.09,1.91-2.18,2.95-3.25L44.06,35Q45.59,33.4,47,31.88a28.87,28.87,0,0,0,2.45-3.07,17.61,17.61,0,0,0,1.69-3,7.82,7.82,0,0,0,.63-3.05,3.35,3.35,0,0,0-1.17-2.65,4.27,4.27,0,0,0-2.88-1,4.89,4.89,0,0,0-2.19.48,5.58,5.58,0,0,0-1.66,1.25,9,9,0,0,0-1.22,1.69,15.29,15.29,0,0,0-.87,1.84l-4.32-3.14c.3-.68.67-1.45,1.12-2.32a8.88,8.88,0,0,1,2-2.48,10.66,10.66,0,0,1,3.33-2,14.15,14.15,0,0,1,5.24-.82,12.86,12.86,0,0,1,4,.59,9.21,9.21,0,0,1,3.09,1.69,7.36,7.36,0,0,1,2,2.65A8.53,8.53,0,0,1,58.82,22a11.7,11.7,0,0,1-1.33,5.35,27.44,27.44,0,0,1-3.21,5,36.58,36.58,0,0,1-4,4.23q-2.07,1.89-3.51,3.12H59.09V45Z"/></svg>