<svg id="Layer_1" data-name="Layer 1" xmlns="http://www.w3.org/2000/svg" viewBox="0 0 62.56 61.94"><defs><style>.cls-1{fill:#081735;}</style></defs><path class="cls-1" d="M12.47,51.55l0-2.82c.74-.87,1.53-1.74,2.36-2.6l2.46-2.56c.82-.85,1.6-1.68,2.35-2.49a23.62,23.62,0,0,0,2-2.45A14.58,14.58,0,0,0,23,36.19a6.38,6.38,0,0,0,.5-2.44,2.66,2.66,0,0,0-.94-2.12,3.38,3.38,0,0,0-2.3-.81,4,4,0,0,0-1.75.38,4.56,4.56,0,0,0-1.33,1,7.71,7.71,0,0,0-1,1.35A11,11,0,0,0,15.5,35L12,32.51c.24-.54.54-1.16.9-1.85a7.12,7.12,0,0,1,1.57-2,8.81,8.81,0,0,1,2.66-1.59,11.36,11.36,0,0,1,4.2-.65,10,10,0,0,1,3.17.47A7.35,7.35,0,0,1,27,28.25a5.79,5.79,0,0,1,1.58,2.12,6.78,6.78,0,0,1,.55,2.79,9.44,9.44,0,0,1-1.06,4.29,23.08,23.08,0,0,1-2.57,4,30.28,30.28,0,0,1-3.17,3.38c-1.11,1-2,1.84-2.81,2.5h9.83v4.24Z"/><path class="cls-1" d="M48.73,43.55a7.55,7.55,0,0,1-2.33,5.92,9.44,9.44,0,0,1-6.52,2.08,12.16,12.16,0,0,1-4.78-.91,10.67,10.67,0,0,1-3.8-2.7l2-3.55c2.13,1.94,4.22,2.92,6.26,2.92a4.81,4.81,0,0,0,3.13-1,3.09,3.09,0,0,0,1.23-2.53,3.52,3.52,0,0,0-1-2.75,4.94,4.94,0,0,0-4.86-.52,7.68,7.68,0,0,0-1.78,1.28L33.17,40l.36-13.6h14.4l0,4.24H38.14L38,36.58l.91-.42.75-.27a4,4,0,0,1,.79-.14c.28,0,.59,0,.94,0a7.72,7.72,0,0,1,3,.57,6.53,6.53,0,0,1,2.32,1.59,7.25,7.25,0,0,1,1.5,2.48A8.88,8.88,0,0,1,48.73,43.55Z"/></svg>