<svg id="Layer_1" data-name="Layer 1" xmlns="http://www.w3.org/2000/svg" viewBox="0 0 62.56 61.94"><defs><style>.cls-1{fill:#022749;}</style></defs><path class="cls-1" d="M29.6,33.16a7.44,7.44,0,0,1-.75,3.34,7.33,7.33,0,0,1-2.15,2.63,10.88,10.88,0,0,1-3.44,1.72,15.78,15.78,0,0,1-4.49.61,18.59,18.59,0,0,1-3.41-.28,11.88,11.88,0,0,1-2.84-.87A11.28,11.28,0,0,1,10,38.73a18.25,18.25,0,0,1-2.38-2.42l2.9-3.92q3.44,3.88,7.35,3.88a5.34,5.34,0,0,0,3.46-1,3.57,3.57,0,0,0,1.34-2.69,3.52,3.52,0,0,0-.35-1.91,3.62,3.62,0,0,0-1.5-1.48,8.51,8.51,0,0,0-2.95-.86,23.78,23.78,0,0,0-4.66-.1V23a31.78,31.78,0,0,0,4.42.05,8,8,0,0,0,2.73-.6,3,3,0,0,0,1.41-1.25,4.13,4.13,0,0,0,.41-1.92,3.19,3.19,0,0,0-1.27-2.44,5.06,5.06,0,0,0-3.17-.92,7.32,7.32,0,0,0-3.12.69,12.42,12.42,0,0,0-3.17,2.23L9,14.7q3.3-4,10.17-3.95a12.67,12.67,0,0,1,3.88.55,8.92,8.92,0,0,1,3,1.58,6.94,6.94,0,0,1,1.89,2.45,7.56,7.56,0,0,1,.66,3.22,6.73,6.73,0,0,1-1.28,4.24,10.06,10.06,0,0,1-4.22,2.83,8.27,8.27,0,0,1,4.87,2.48A7.35,7.35,0,0,1,29.6,33.16Z"/><path class="cls-1" d="M42.27,41.46H35.62L47.15,15.94H33.34V10.75H54.06v4.57Z"/></svg>