<svg id="Layer_1" data-name="Layer 1" xmlns="http://www.w3.org/2000/svg" viewBox="0 0 62.56 61.94"><defs><style>.cls-1{fill:#022749;}</style></defs><path class="cls-1" d="M16.19,42.45v-24c-.58.68-1.14,1.29-1.67,1.83L12.8,22l-2.9-4c.88-.76,1.73-1.53,2.55-2.29s1.42-1.33,2.16-2.06a26.3,26.3,0,0,0,1.81-2H22V42.45Z"/><path class="cls-1" d="M51.88,32.54a10.93,10.93,0,0,1-.74,4.1,8.71,8.71,0,0,1-5.23,5.1,12.63,12.63,0,0,1-8.6-.09,9.35,9.35,0,0,1-3.38-2.28,10.45,10.45,0,0,1-2.18-3.54A12.85,12.85,0,0,1,31,31.24a16.52,16.52,0,0,1,.93-5.42,29.33,29.33,0,0,1,2.43-5.22,38.82,38.82,0,0,1,3.37-4.78,45.72,45.72,0,0,1,3.79-4.08h7.43a46.13,46.13,0,0,0-5.45,5.9A47.14,47.14,0,0,0,39,24.46c.46-.27.88-.49,1.25-.66a7.74,7.74,0,0,1,1.06-.42,5.87,5.87,0,0,1,1-.22,8.27,8.27,0,0,1,1.17-.07,8.14,8.14,0,0,1,3.38.69,7.66,7.66,0,0,1,2.63,1.95,9.55,9.55,0,0,1,1.72,3A11.06,11.06,0,0,1,51.88,32.54ZM46,32.66a4.34,4.34,0,0,0-1-3.07,3.62,3.62,0,0,0-2.79-1.13,5.84,5.84,0,0,0-4.09,1.73c-.08.44-.14.77-.17,1a6.41,6.41,0,0,0,0,.86,4.89,4.89,0,0,0,1.2,3.42,4,4,0,0,0,3.11,1.32A3.61,3.61,0,0,0,45,35.64,4.2,4.2,0,0,0,46,32.66Z"/></svg>