<svg id="Layer_1" data-name="Layer 1" xmlns="http://www.w3.org/2000/svg" viewBox="0 0 62.56 61.94"><defs><style>.cls-1{fill:#777;}</style></defs><path class="cls-1" d="M14.71,49.18V29.56c-.48.55-.94,1.05-1.37,1.49s-.9.92-1.41,1.42L9.56,29.23c.72-.62,1.41-1.24,2.09-1.87s1.16-1.09,1.76-1.69a21.6,21.6,0,0,0,1.48-1.61h4.6V49.18Z"/><path class="cls-1" d="M42.75,49.18H37.93l.28-10.62a6.54,6.54,0,0,1-2.05,1.26,7.15,7.15,0,0,1-2.41.36,7.69,7.69,0,0,1-3-.57A6.71,6.71,0,0,1,28.42,38a7.29,7.29,0,0,1-1.49-2.54,10.72,10.72,0,0,1,.1-6.89,7.55,7.55,0,0,1,1.79-2.72,7.76,7.76,0,0,1,2.82-1.71,11,11,0,0,1,3.73-.59A7.87,7.87,0,0,1,41.2,25.6a7.54,7.54,0,0,1,2,5.8ZM38.18,30.86a2.78,2.78,0,0,0-.24-1.17,2.8,2.8,0,0,0-1.63-1.53,3.62,3.62,0,0,0-1.23-.22,3.34,3.34,0,0,0-2.63,1.12,4.53,4.53,0,0,0-1,3.06,4,4,0,0,0,.85,2.7,3,3,0,0,0,2.36,1,3.22,3.22,0,0,0,2.44-1,4,4,0,0,0,1-2.7Z"/></svg>