<svg id="Layer_1" data-name="Layer 1" xmlns="http://www.w3.org/2000/svg" viewBox="0 0 62.56 61.94"><defs><style>.cls-1{fill:#081735;}</style></defs><path class="cls-1" d="M25.35,49.74H20.89V43.55H11.64v-19h4.61V39.52h4.64V33.43h4.43v6.09h3.2v4H25.35Z"/><path class="cls-1" d="M48,43.4a5.47,5.47,0,0,1-2.25,4.66,10.34,10.34,0,0,1-6.28,1.68,14,14,0,0,1-3.75-.47,9.4,9.4,0,0,1-2.89-1.33,6.08,6.08,0,0,1-1.87-2,5.93,5.93,0,0,1,.54-6.33,10,10,0,0,1,4-2.54c-1-.62-1.77-1.15-2.37-1.61a6.67,6.67,0,0,1-1.39-1.36,4.1,4.1,0,0,1-.67-1.42,7.51,7.51,0,0,1-.18-1.76A5.53,5.53,0,0,1,33,26.24c1.39-1.08,3.53-1.63,6.41-1.63a12.8,12.8,0,0,1,3.4.43,8.06,8.06,0,0,1,2.61,1.2,5.2,5.2,0,0,1,2.23,4.39,5.59,5.59,0,0,1-1.06,3.42,10.49,10.49,0,0,1-3.51,2.74,9,9,0,0,1,3.76,2.71A6.44,6.44,0,0,1,48,43.4ZM43.25,43A2.57,2.57,0,0,0,43,41.7a2.91,2.91,0,0,0-.85-.91,7.78,7.78,0,0,0-1.33-.74c-.52-.23-1.1-.47-1.75-.71a7.28,7.28,0,0,0-2.62,1.34,2.39,2.39,0,0,0-.76,1.84,2.56,2.56,0,0,0,1.08,2.18,4.82,4.82,0,0,0,2.92.79,4.43,4.43,0,0,0,2.62-.69A2.17,2.17,0,0,0,43.25,43Zm-.69-11.42a2.35,2.35,0,0,0-1-1.93,4,4,0,0,0-2.5-.74,3.48,3.48,0,0,0-2.24.69A2.18,2.18,0,0,0,36,31.32q0,1.89,3.46,3.37a5.41,5.41,0,0,0,2.41-1.36A2.71,2.71,0,0,0,42.56,31.53Z"/></svg>