<svg id="Layer_1" data-name="Layer 1" xmlns="http://www.w3.org/2000/svg" viewBox="0 0 62.56 61.94"><defs><style>.cls-1{fill:#777;}</style></defs><path class="cls-1" d="M31.58,33.49a7.57,7.57,0,0,1-.74,3.34,7.46,7.46,0,0,1-2.16,2.63,10.77,10.77,0,0,1-3.44,1.72,15.73,15.73,0,0,1-4.49.61,18.66,18.66,0,0,1-3.41-.28,11.8,11.8,0,0,1-2.83-.87A11.34,11.34,0,0,1,12,39.06a18.88,18.88,0,0,1-2.38-2.42l2.91-3.92Q16,36.61,19.87,36.6a5.34,5.34,0,0,0,3.46-1,3.57,3.57,0,0,0,1.34-2.69A3.43,3.43,0,0,0,24.32,31a3.57,3.57,0,0,0-1.5-1.48,8.51,8.51,0,0,0-2.95-.86,23.78,23.78,0,0,0-4.66-.1V23.35a31.78,31.78,0,0,0,4.42,0,8,8,0,0,0,2.73-.6,3,3,0,0,0,1.41-1.25,4,4,0,0,0,.42-1.92,3.21,3.21,0,0,0-1.28-2.44,5.06,5.06,0,0,0-3.17-.92,7.35,7.35,0,0,0-3.12.69,12.42,12.42,0,0,0-3.17,2.23L11,15q3.3-4,10.16-3.95a12.63,12.63,0,0,1,3.88.55,8.82,8.82,0,0,1,3,1.58,6.94,6.94,0,0,1,1.89,2.45,7.56,7.56,0,0,1,.66,3.22,6.67,6.67,0,0,1-1.28,4.24A10,10,0,0,1,25,26a8.24,8.24,0,0,1,4.87,2.48A7.35,7.35,0,0,1,31.58,33.49Z"/><path class="cls-1" d="M54.55,41.79h-5.9l.35-13a8.08,8.08,0,0,1-2.51,1.54,8.84,8.84,0,0,1-2.94.44,9.29,9.29,0,0,1-3.68-.71,8,8,0,0,1-2.84-2A8.86,8.86,0,0,1,35.21,25a12,12,0,0,1-.64-4.05,11.89,11.89,0,0,1,.77-4.37,9.23,9.23,0,0,1,2.18-3.33A9.5,9.5,0,0,1,41,11.14a13.68,13.68,0,0,1,4.56-.72A9.62,9.62,0,0,1,52.65,13a9.16,9.16,0,0,1,2.42,7.08ZM49,19.39a3.44,3.44,0,0,0-1.08-2.55,3.64,3.64,0,0,0-1.21-.75,4.38,4.38,0,0,0-1.5-.26A4,4,0,0,0,42,17.19a5.52,5.52,0,0,0-1.19,3.74,4.85,4.85,0,0,0,1,3.3,3.63,3.63,0,0,0,2.88,1.19,4,4,0,0,0,3-1.19,4.88,4.88,0,0,0,1.23-3.3Z"/></svg>