<svg id="Layer_1" data-name="Layer 1" xmlns="http://www.w3.org/2000/svg" viewBox="0 0 62.56 61.94"><defs><style>.cls-1{fill:#777;}</style></defs><path class="cls-1" d="M7.76,51.55l0-2.82c.74-.87,1.53-1.74,2.36-2.6l2.46-2.56Q13.85,42.3,15,41.08a21.24,21.24,0,0,0,2-2.45,13.28,13.28,0,0,0,1.35-2.44,6.21,6.21,0,0,0,.51-2.44,2.66,2.66,0,0,0-.94-2.12,3.38,3.38,0,0,0-2.3-.81,4,4,0,0,0-1.75.38,4.56,4.56,0,0,0-1.33,1,7.23,7.23,0,0,0-1,1.35,11,11,0,0,0-.7,1.48L7.33,32.51c.24-.54.54-1.16.9-1.85a7.12,7.12,0,0,1,1.57-2,8.81,8.81,0,0,1,2.66-1.59,11.34,11.34,0,0,1,4.19-.65,10.06,10.06,0,0,1,3.18.47,7.35,7.35,0,0,1,2.47,1.35,5.9,5.9,0,0,1,1.58,2.12,6.78,6.78,0,0,1,.55,2.79,9.44,9.44,0,0,1-1.06,4.29,22.56,22.56,0,0,1-2.58,4,29.31,29.31,0,0,1-3.16,3.38c-1.11,1-2,1.84-2.81,2.5h9.83v4.24Z"/><path class="cls-1" d="M44.63,43.44A9.18,9.18,0,0,1,44,46.8a7.32,7.32,0,0,1-1.68,2.54A7.41,7.41,0,0,1,39.74,51a9.59,9.59,0,0,1-3.44.58,9.44,9.44,0,0,1-3.59-.65A7.63,7.63,0,0,1,29.94,49a8.68,8.68,0,0,1-1.78-2.89,10.63,10.63,0,0,1-.63-3.76A13.44,13.44,0,0,1,28.29,38a23,23,0,0,1,2-4.27A31.43,31.43,0,0,1,33,29.76a37.25,37.25,0,0,1,3.09-3.33h6.08a38.28,38.28,0,0,0-4.46,4.82,39.39,39.39,0,0,0-3.63,5.58c.37-.22.72-.4,1-.54A6.93,6.93,0,0,1,36,36a4,4,0,0,1,.83-.18,7,7,0,0,1,1-.06,6.55,6.55,0,0,1,2.76.57,6,6,0,0,1,2.15,1.59,7.61,7.61,0,0,1,1.41,2.46A8.94,8.94,0,0,1,44.63,43.44Zm-4.79.1A3.57,3.57,0,0,0,39,41a2.94,2.94,0,0,0-2.28-.92,4.76,4.76,0,0,0-3.34,1.41q-.11.54-.15.81a6.62,6.62,0,0,0,0,.71,4,4,0,0,0,1,2.79,3.27,3.27,0,0,0,2.55,1.08A3,3,0,0,0,39,46,3.44,3.44,0,0,0,39.84,43.54Z"/></svg>