<svg id="Layer_1" data-name="Layer 1" xmlns="http://www.w3.org/2000/svg" viewBox="0 0 62.56 61.94"><defs><style>.cls-1{fill:#777;}</style></defs><path class="cls-1" d="M24.2,50.56l0-2.83c.74-.87,1.53-1.74,2.36-2.6l2.46-2.56q1.23-1.27,2.34-2.49a22.49,22.49,0,0,0,2-2.45,14.58,14.58,0,0,0,1.35-2.44,6.34,6.34,0,0,0,.5-2.44,2.66,2.66,0,0,0-.94-2.12,3.38,3.38,0,0,0-2.3-.81,3.85,3.85,0,0,0-1.75.39,4.53,4.53,0,0,0-1.33,1,7.43,7.43,0,0,0-1,1.36,10.89,10.89,0,0,0-.7,1.47l-3.46-2.51q.36-.82.9-1.86a7,7,0,0,1,1.57-2,8.62,8.62,0,0,1,2.66-1.6,11.58,11.58,0,0,1,4.2-.65,10.33,10.33,0,0,1,3.17.47,7.35,7.35,0,0,1,2.47,1.35,5.94,5.94,0,0,1,1.58,2.13,6.78,6.78,0,0,1,.55,2.79,9.4,9.4,0,0,1-1.06,4.28,23.08,23.08,0,0,1-2.57,4,31.3,31.3,0,0,1-3.17,3.39c-1.11,1-2,1.83-2.81,2.49h9.83v4.25Z"/></svg>