<svg id="Layer_1" data-name="Layer 1" xmlns="http://www.w3.org/2000/svg" viewBox="0 0 62.56 61.94"><defs><style>.cls-1{fill:#444;}</style></defs><path class="cls-1" d="M22,45V20.43c-.6.69-1.17,1.32-1.71,1.87s-1.12,1.15-1.75,1.78l-3-4q1.35-1.17,2.61-2.34c.72-.66,1.45-1.36,2.2-2.11s1.37-1.42,1.86-2H28V45Z"/><path class="cls-1" d="M37.16,45l.05-3.53c.93-1.09,1.91-2.18,2.95-3.25L43.24,35q1.53-1.59,2.92-3.11a29,29,0,0,0,2.46-3.07,17.54,17.54,0,0,0,1.68-3,7.82,7.82,0,0,0,.63-3.05,3.35,3.35,0,0,0-1.17-2.65,4.27,4.27,0,0,0-2.88-1,4.82,4.82,0,0,0-2.18.48A5.46,5.46,0,0,0,43,20.78a9,9,0,0,0-1.22,1.69,14,14,0,0,0-.88,1.84l-4.32-3.14c.3-.68.68-1.45,1.13-2.32a8.88,8.88,0,0,1,2-2.48,10.66,10.66,0,0,1,3.33-2,14.15,14.15,0,0,1,5.24-.82,12.86,12.86,0,0,1,4,.59,9.21,9.21,0,0,1,3.09,1.69,7.48,7.48,0,0,1,2,2.65A8.53,8.53,0,0,1,58,22a11.82,11.82,0,0,1-1.33,5.35,27.49,27.49,0,0,1-3.22,5,36.58,36.58,0,0,1-4,4.23Q47.42,38.43,46,39.66H58.27V45Z"/></svg>