<svg id="Layer_1" data-name="Layer 1" xmlns="http://www.w3.org/2000/svg" viewBox="0 0 62.56 61.94"><defs><style>.cls-1{fill:#777;}</style></defs><path class="cls-1" d="M36.94,42.44a9,9,0,0,1-.6,3.36A7.2,7.2,0,0,1,32.06,50a9.85,9.85,0,0,1-3.44.58A9.46,9.46,0,0,1,25,49.9,7.71,7.71,0,0,1,22.25,48a8.74,8.74,0,0,1-1.78-2.89,10.63,10.63,0,0,1-.63-3.76A13.44,13.44,0,0,1,20.6,37a23.3,23.3,0,0,1,2-4.27,30.34,30.34,0,0,1,2.75-3.92,37.21,37.21,0,0,1,3.1-3.33h6.08a37,37,0,0,0-4.46,4.83,38.82,38.82,0,0,0-3.64,5.57c.38-.21.72-.39,1-.54a6.37,6.37,0,0,1,.86-.34,5.56,5.56,0,0,1,.83-.18,6.9,6.9,0,0,1,1-.05,6.63,6.63,0,0,1,2.77.56A6.15,6.15,0,0,1,35,36.88a7.67,7.67,0,0,1,1.41,2.45A9.18,9.18,0,0,1,36.94,42.44Zm-4.79.1A3.57,3.57,0,0,0,31.3,40,3,3,0,0,0,29,39.11a4.77,4.77,0,0,0-3.35,1.41c-.07.36-.12.63-.14.81a4.61,4.61,0,0,0,0,.71,4,4,0,0,0,1,2.79A3.27,3.27,0,0,0,29,45.91,3,3,0,0,0,31.3,45,3.48,3.48,0,0,0,32.15,42.54Z"/></svg>