<svg id="Layer_1" data-name="Layer 1" xmlns="http://www.w3.org/2000/svg" viewBox="0 0 62.56 61.94"><defs><style>.cls-1{fill:#081735;}</style></defs><path class="cls-1" d="M21.68,49.18V29.56c-.48.55-.94,1.05-1.37,1.49l-1.4,1.42-2.38-3.24c.72-.62,1.41-1.24,2.09-1.87s1.16-1.09,1.76-1.69,1.1-1.13,1.49-1.61h4.6V49.18Z"/><path class="cls-1" d="M33.77,49.18l0-2.82c.74-.87,1.53-1.74,2.36-2.6l2.46-2.56q1.23-1.28,2.34-2.49a21.24,21.24,0,0,0,2-2.45,14,14,0,0,0,1.36-2.44,6.38,6.38,0,0,0,.5-2.44,2.66,2.66,0,0,0-.94-2.12,3.38,3.38,0,0,0-2.3-.81,4,4,0,0,0-1.75.38,4.56,4.56,0,0,0-1.33,1,7.23,7.23,0,0,0-1,1.35,11,11,0,0,0-.7,1.48l-3.46-2.52c.24-.54.54-1.16.9-1.85a7.12,7.12,0,0,1,1.57-2,8.81,8.81,0,0,1,2.66-1.59,11.34,11.34,0,0,1,4.19-.65,10.06,10.06,0,0,1,3.18.47,7.35,7.35,0,0,1,2.47,1.35A5.9,5.9,0,0,1,49.89,28a6.78,6.78,0,0,1,.55,2.79,9.44,9.44,0,0,1-1.06,4.29,22.56,22.56,0,0,1-2.58,4,30.27,30.27,0,0,1-3.16,3.39c-1.11,1-2,1.83-2.81,2.49h9.83v4.24Z"/></svg>