<svg id="Layer_1" data-name="Layer 1" xmlns="http://www.w3.org/2000/svg" viewBox="0 0 62.56 61.94"><defs><style>.cls-1{fill:#510000;}</style></defs><path class="cls-1" d="M26.24,45.53H20.66V37.79H9.09V14.07h5.76V32.75h5.81V25.14h5.53v7.61h4v5h-4Z"/><path class="cls-1" d="M52.83,45.53h-6l.36-13.28a8.25,8.25,0,0,1-2.56,1.58,9,9,0,0,1-3,.45,9.43,9.43,0,0,1-3.75-.72,8.36,8.36,0,0,1-2.91-2.05,9.1,9.1,0,0,1-1.86-3.17,12.23,12.23,0,0,1-.66-4.14,12.24,12.24,0,0,1,.79-4.48,9.54,9.54,0,0,1,2.23-3.4A9.72,9.72,0,0,1,39,14.18a14,14,0,0,1,4.66-.74,9.85,9.85,0,0,1,7.29,2.61,9.39,9.39,0,0,1,2.47,7.25ZM47.12,22.62a3.59,3.59,0,0,0-.29-1.46A3.74,3.74,0,0,0,46,20a3.64,3.64,0,0,0-1.24-.76A4.32,4.32,0,0,0,43.25,19,4.14,4.14,0,0,0,40,20.37a5.64,5.64,0,0,0-1.21,3.83,4.93,4.93,0,0,0,1.06,3.37,3.68,3.68,0,0,0,2.94,1.22,4.06,4.06,0,0,0,3.06-1.22,5,5,0,0,0,1.26-3.37Z"/></svg>