<svg id="Layer_1" data-name="Layer 1" xmlns="http://www.w3.org/2000/svg" viewBox="0 0 62.56 61.94"><defs><style>.cls-1{fill:#510000;}</style></defs><path class="cls-1" d="M34.43,37.44a7.54,7.54,0,0,1-3,6.11A10.85,10.85,0,0,1,28,45.3a15.72,15.72,0,0,1-4.59.63,20.48,20.48,0,0,1-3.49-.28,12.4,12.4,0,0,1-2.9-.9,10.79,10.79,0,0,1-2.56-1.62A18.9,18.9,0,0,1,12,40.67l3-4q3.51,4,7.51,4a5.46,5.46,0,0,0,3.53-1,3.7,3.7,0,0,0-.51-6.22,8.63,8.63,0,0,0-3-.88,23.38,23.38,0,0,0-4.77-.1V27.07a33.23,33.23,0,0,0,4.52.05A8,8,0,0,0,25,26.51a3,3,0,0,0,1.44-1.28,4.07,4.07,0,0,0,.43-2,3.25,3.25,0,0,0-1.3-2.49,5.14,5.14,0,0,0-3.24-.94,7.57,7.57,0,0,0-3.2.7,13.23,13.23,0,0,0-3.24,2.29l-2.52-4.26q3.37-4,10.4-4a13.22,13.22,0,0,1,4,.56,9,9,0,0,1,3,1.62,7,7,0,0,1,1.94,2.5,7.77,7.77,0,0,1,.67,3.29,6.86,6.86,0,0,1-1.3,4.34,10.24,10.24,0,0,1-4.32,2.9,8.42,8.42,0,0,1,5,2.53A7.53,7.53,0,0,1,34.43,37.44Z"/><path class="cls-1" d="M38,45.93l0-3.53c.93-1.09,1.91-2.18,2.95-3.25L44.06,36q1.53-1.59,2.93-3.11a28.87,28.87,0,0,0,2.45-3.07,17.61,17.61,0,0,0,1.69-3.05,7.82,7.82,0,0,0,.63-3A3.35,3.35,0,0,0,50.59,21a4.27,4.27,0,0,0-2.88-1,4.89,4.89,0,0,0-2.19.48,5.58,5.58,0,0,0-1.66,1.25,9,9,0,0,0-1.22,1.69,14.6,14.6,0,0,0-.87,1.84l-4.32-3.14c.3-.68.67-1.46,1.12-2.33a8.84,8.84,0,0,1,2-2.47,10.66,10.66,0,0,1,3.33-2,14.15,14.15,0,0,1,5.24-.82,12.57,12.57,0,0,1,4,.59,9,9,0,0,1,3.09,1.69,7.36,7.36,0,0,1,2,2.65,8.53,8.53,0,0,1,.69,3.49,11.7,11.7,0,0,1-1.33,5.35,27.44,27.44,0,0,1-3.21,5,36.58,36.58,0,0,1-4,4.23q-2.07,1.89-3.51,3.12H59.09v5.31Z"/></svg>