<svg id="Layer_1" data-name="Layer 1" xmlns="http://www.w3.org/2000/svg" viewBox="0 0 62.56 61.94"><defs><style>.cls-1{fill:#081735;}</style></defs><path class="cls-1" d="M40.65,43.76a6,6,0,0,1-2.37,4.89,8.46,8.46,0,0,1-2.82,1.4,12.38,12.38,0,0,1-3.67.51A15.74,15.74,0,0,1,29,50.33a10.11,10.11,0,0,1-2.32-.71,9.18,9.18,0,0,1-2.05-1.3,15.83,15.83,0,0,1-1.95-2l2.38-3.21c1.87,2.11,3.88,3.17,6,3.17a4.42,4.42,0,0,0,2.83-.83,2.94,2.94,0,0,0,1.1-2.2,2.87,2.87,0,0,0-.29-1.57,2.93,2.93,0,0,0-1.23-1.21,7.14,7.14,0,0,0-2.41-.71,19.33,19.33,0,0,0-3.81-.07V35.47a26.18,26.18,0,0,0,3.61,0A6.38,6.38,0,0,0,33.11,35a2.47,2.47,0,0,0,1.15-1,3.3,3.3,0,0,0,.34-1.58,2.63,2.63,0,0,0-1-2,4.16,4.16,0,0,0-2.6-.75,6,6,0,0,0-2.55.56,10.35,10.35,0,0,0-2.59,1.83l-2-3.41q2.7-3.22,8.32-3.23a10.42,10.42,0,0,1,3.17.45,7.09,7.09,0,0,1,2.42,1.29,5.73,5.73,0,0,1,1.55,2,6.15,6.15,0,0,1,.54,2.63,5.53,5.53,0,0,1-1,3.47A8.23,8.23,0,0,1,35.3,37.6a6.74,6.74,0,0,1,4,2A6,6,0,0,1,40.65,43.76Z"/></svg>