<svg id="Layer_1" data-name="Layer 1" xmlns="http://www.w3.org/2000/svg" viewBox="0 0 62.56 61.94"><defs><style>.cls-1{fill:#510000;}</style></defs><path class="cls-1" d="M42.37,36.2a11.13,11.13,0,0,1-.75,4.19,9.13,9.13,0,0,1-2.09,3.18,9.47,9.47,0,0,1-3.26,2,12.16,12.16,0,0,1-4.3.72,11.86,11.86,0,0,1-4.5-.82A9.66,9.66,0,0,1,24,43.19a10.9,10.9,0,0,1-2.22-3.62,13.17,13.17,0,0,1-.79-4.7A16.77,16.77,0,0,1,22,29.33,29.59,29.59,0,0,1,24.44,24a37.92,37.92,0,0,1,3.45-4.9,47.67,47.67,0,0,1,3.86-4.17h7.61a47,47,0,0,0-5.58,6,47.48,47.48,0,0,0-4.54,7c.47-.27.89-.5,1.27-.68a10.49,10.49,0,0,1,1.08-.43,6.21,6.21,0,0,1,1-.22,8.57,8.57,0,0,1,1.19-.07,8.33,8.33,0,0,1,3.46.7,7.8,7.8,0,0,1,2.69,2,9.45,9.45,0,0,1,1.76,3.07A11.34,11.34,0,0,1,42.37,36.2Zm-6,.13a4.46,4.46,0,0,0-1.07-3.14A3.69,3.69,0,0,0,32.47,32a5.93,5.93,0,0,0-4.18,1.77c-.09.45-.15.78-.18,1a6.75,6.75,0,0,0-.05.88,5,5,0,0,0,1.22,3.5,4.08,4.08,0,0,0,3.18,1.35,3.71,3.71,0,0,0,2.86-1.16A4.33,4.33,0,0,0,36.39,36.33Z"/></svg>