<svg id="Layer_1" data-name="Layer 1" xmlns="http://www.w3.org/2000/svg" viewBox="0 0 62.56 61.94"><defs><style>.cls-1{fill:#081735;}</style></defs><path class="cls-1" d="M16.44,49.18V29.56c-.48.55-.93,1.05-1.36,1.49s-.9.92-1.41,1.42L11.3,29.23c.72-.62,1.41-1.24,2.08-1.87s1.17-1.09,1.77-1.69,1.09-1.14,1.48-1.61h4.6V49.18Z"/><path class="cls-1" d="M45.89,42.84a5.5,5.5,0,0,1-2.25,4.67,10.43,10.43,0,0,1-6.29,1.67,13.63,13.63,0,0,1-3.74-.47,9.63,9.63,0,0,1-2.89-1.32,6,6,0,0,1-1.87-2.06A5.93,5.93,0,0,1,29.39,39a10,10,0,0,1,4-2.54c-1-.61-1.78-1.15-2.38-1.61a6.6,6.6,0,0,1-1.38-1.36A4,4,0,0,1,29,32.08a7.66,7.66,0,0,1-.18-1.77,5.53,5.53,0,0,1,2.09-4.63q2.09-1.62,6.41-1.62a12.82,12.82,0,0,1,3.4.42,8.06,8.06,0,0,1,2.61,1.2,5.2,5.2,0,0,1,2.23,4.39,5.57,5.57,0,0,1-1.06,3.42A10.37,10.37,0,0,1,41,36.23a9,9,0,0,1,3.76,2.71A6.44,6.44,0,0,1,45.89,42.84Zm-4.79-.45a2.5,2.5,0,0,0-.28-1.24,2.82,2.82,0,0,0-.85-.91,7.5,7.5,0,0,0-1.33-.75c-.52-.23-1.1-.47-1.75-.71a7.51,7.51,0,0,0-2.63,1.34A2.42,2.42,0,0,0,33.51,42a2.56,2.56,0,0,0,1.08,2.18,4.81,4.81,0,0,0,2.91.8,4.46,4.46,0,0,0,2.63-.7A2.16,2.16,0,0,0,41.1,42.39ZM40.42,31a2.32,2.32,0,0,0-1-1.92A4,4,0,0,0,37,28.3a3.47,3.47,0,0,0-2.23.69,2.21,2.21,0,0,0-.86,1.77q0,1.89,3.45,3.38a5.5,5.5,0,0,0,2.42-1.37A2.71,2.71,0,0,0,40.42,31Z"/></svg>