<svg id="Layer_1" data-name="Layer 1" xmlns="http://www.w3.org/2000/svg" viewBox="0 0 62.56 61.94"><defs><style>.cls-1{fill:#022749;}</style></defs><path class="cls-1" d="M41.93,37.15a9.23,9.23,0,0,1-2.84,7.23q-2.85,2.55-8,2.55a14.83,14.83,0,0,1-5.84-1.12,12.91,12.91,0,0,1-4.64-3.3l2.47-4.34q3.91,3.57,7.65,3.57a5.93,5.93,0,0,0,3.83-1.2,3.82,3.82,0,0,0,1.5-3.11,4.29,4.29,0,0,0-1.26-3.35,5.2,5.2,0,0,0-3.63-1.14,5.29,5.29,0,0,0-2.31.5A9.24,9.24,0,0,0,26.71,35l-3.79-2.16.44-16.63H41l0,5.19H29l-.22,7.22q.64-.31,1.11-.51c.32-.13.62-.24.92-.33a4.8,4.8,0,0,1,1-.18c.35,0,.73,0,1.16,0a9.48,9.48,0,0,1,3.67.69,8.11,8.11,0,0,1,2.84,1.94,9,9,0,0,1,1.84,3A11.1,11.1,0,0,1,41.93,37.15Z"/></svg>