<svg id="Layer_1" data-name="Layer 1" xmlns="http://www.w3.org/2000/svg" viewBox="0 0 62.56 61.94"><defs><style>.cls-1{fill:#777;}</style></defs><path class="cls-1" d="M3.73,40.89l0-3.45q1.37-1.61,2.88-3.18c1-1,2-2.09,3-3.13s1.95-2.05,2.86-3a26.72,26.72,0,0,0,2.4-3,16.81,16.81,0,0,0,1.65-3,7.65,7.65,0,0,0,.62-3,3.25,3.25,0,0,0-1.15-2.59,4.14,4.14,0,0,0-2.81-1A4.67,4.67,0,0,0,11.1,16a5.32,5.32,0,0,0-1.62,1.22,8.88,8.88,0,0,0-1.19,1.65,13.38,13.38,0,0,0-.86,1.8L3.21,17.62c.29-.66.66-1.42,1.1-2.27a8.62,8.62,0,0,1,1.91-2.42A10.45,10.45,0,0,1,9.48,11a14,14,0,0,1,5.12-.8,12.29,12.29,0,0,1,3.88.58,8.55,8.55,0,0,1,3,1.65A7,7,0,0,1,23.43,15a8.37,8.37,0,0,1,.68,3.41,11.6,11.6,0,0,1-1.3,5.24,28.1,28.1,0,0,1-3.15,4.87,37.4,37.4,0,0,1-3.87,4.13q-2,1.85-3.43,3.05h12v5.19Z"/><path class="cls-1" d="M48.57,32.59a7.65,7.65,0,0,1-.74,3.35,7.52,7.52,0,0,1-2.16,2.62,10.38,10.38,0,0,1-3.44,1.72,15.36,15.36,0,0,1-4.48.61,18.51,18.51,0,0,1-3.41-.28,11.74,11.74,0,0,1-2.84-.87A11,11,0,0,1,29,38.16a19.56,19.56,0,0,1-2.38-2.42l2.91-3.91c2.29,2.58,4.73,3.87,7.35,3.87a5.33,5.33,0,0,0,3.45-1A3.53,3.53,0,0,0,41.66,32a3.43,3.43,0,0,0-.35-1.91,3.51,3.51,0,0,0-1.5-1.48,8.67,8.67,0,0,0-2.94-.86,23.24,23.24,0,0,0-4.67-.09v-5.2a31.78,31.78,0,0,0,4.42.05,7.58,7.58,0,0,0,2.73-.6,3,3,0,0,0,1.41-1.25,4,4,0,0,0,.42-1.92,3.21,3.21,0,0,0-1.28-2.44,5.06,5.06,0,0,0-3.17-.92,7.38,7.38,0,0,0-3.12.69,12.86,12.86,0,0,0-3.17,2.23L28,14.13q3.3-3.95,10.16-4a12.63,12.63,0,0,1,3.88.55,8.82,8.82,0,0,1,3,1.58,6.94,6.94,0,0,1,1.89,2.45A7.56,7.56,0,0,1,47.53,18a6.73,6.73,0,0,1-1.27,4.24A9.94,9.94,0,0,1,42,25.05a8.26,8.26,0,0,1,4.87,2.48A7.37,7.37,0,0,1,48.57,32.59Z"/></svg>