<svg id="Layer_1" data-name="Layer 1" xmlns="http://www.w3.org/2000/svg" viewBox="0 0 62.56 61.94"><defs><style>.cls-1{fill:#777;}</style></defs><path class="cls-1" d="M12.35,51.55l0-2.82c.74-.87,1.52-1.74,2.35-2.6l2.47-2.56c.82-.85,1.59-1.68,2.34-2.49a22.37,22.37,0,0,0,2-2.45,13.28,13.28,0,0,0,1.35-2.44,6.21,6.21,0,0,0,.51-2.44,2.69,2.69,0,0,0-.94-2.12,3.41,3.41,0,0,0-2.31-.81,4,4,0,0,0-1.74.38,4.43,4.43,0,0,0-1.33,1,6.8,6.8,0,0,0-1,1.35A12.46,12.46,0,0,0,15.37,35l-3.45-2.52c.24-.54.54-1.16.9-1.85a7.27,7.27,0,0,1,1.56-2,8.87,8.87,0,0,1,2.67-1.59,11.34,11.34,0,0,1,4.19-.65,10,10,0,0,1,3.17.47,7.4,7.4,0,0,1,2.48,1.35,6,6,0,0,1,1.58,2.12A6.94,6.94,0,0,1,29,33.16,9.45,9.45,0,0,1,28,37.45a22,22,0,0,1-2.57,4,29.38,29.38,0,0,1-3.17,3.38c-1.1,1-2,1.84-2.8,2.5h9.82v4.24Z"/><path class="cls-1" d="M46.55,51.55H42.08V45.36H32.83v-19h4.61V41.33h4.64V35.25h4.43v6.08h3.21v4H46.55Z"/></svg>