<svg id="Layer_1" data-name="Layer 1" xmlns="http://www.w3.org/2000/svg" viewBox="0 0 62.56 61.94"><defs><style>.cls-1{fill:#777;}</style></defs><path class="cls-1" d="M27,36.59a7.62,7.62,0,0,1-.74,3.35,7.44,7.44,0,0,1-2.16,2.63,10.6,10.6,0,0,1-3.43,1.71,15.43,15.43,0,0,1-4.49.61,19.57,19.57,0,0,1-3.41-.27,12.35,12.35,0,0,1-2.84-.87,11,11,0,0,1-2.51-1.59,18.73,18.73,0,0,1-2.37-2.41L8,35.83q3.43,3.87,7.35,3.87a5.37,5.37,0,0,0,3.45-1A3.55,3.55,0,0,0,20.09,36a3.38,3.38,0,0,0-.35-1.92,3.55,3.55,0,0,0-1.5-1.47,8.43,8.43,0,0,0-2.94-.87,23.21,23.21,0,0,0-4.67-.09V26.46a33.43,33.43,0,0,0,4.42.05,8,8,0,0,0,2.73-.6,3,3,0,0,0,1.41-1.25,4,4,0,0,0,.42-1.93,3.15,3.15,0,0,0-1.28-2.43,5,5,0,0,0-3.16-.93,7.26,7.26,0,0,0-3.13.7A12.6,12.6,0,0,0,8.87,22.3L6.41,18.13q3.3-3.94,10.16-3.95a12.62,12.62,0,0,1,3.88.56,8.8,8.8,0,0,1,3,1.57,7,7,0,0,1,1.89,2.45A7.63,7.63,0,0,1,26,22a6.71,6.71,0,0,1-1.27,4.24,9.94,9.94,0,0,1-4.23,2.83,8.32,8.32,0,0,1,4.87,2.48A7.39,7.39,0,0,1,27,36.59Z"/><path class="cls-1" d="M52.43,29q0,8.39-2.89,12.14T41,44.89q-5.69,0-8.57-3.77T29.51,29.56q0-7.75,2.89-11.56T41,14.18Q52.43,14.18,52.43,29Zm-6.91.25Q45.4,24.19,44.38,22A3.49,3.49,0,0,0,41,19.86a3.69,3.69,0,0,0-3.4,2.35Q36.55,24.48,36.42,30a18.92,18.92,0,0,0,1.15,6.87A3.66,3.66,0,0,0,41,39.22a3.49,3.49,0,0,0,3.3-2.29C45,35.4,45.44,32.85,45.52,29.26Z"/></svg>