<svg id="Layer_1" data-name="Layer 1" xmlns="http://www.w3.org/2000/svg" viewBox="0 0 62.56 61.94"><defs><style>.cls-1{fill:#510000;}</style></defs><path class="cls-1" d="M13.51,47.34l0-3.53c.93-1.09,1.91-2.18,2.95-3.25l3.08-3.2q1.53-1.59,2.93-3.11A28.87,28.87,0,0,0,25,31.18a17.61,17.61,0,0,0,1.69-3.05,8,8,0,0,0,.63-3.05,3.35,3.35,0,0,0-1.17-2.65,4.29,4.29,0,0,0-2.88-1A4.89,4.89,0,0,0,21,21.9a5.58,5.58,0,0,0-1.66,1.25,9,9,0,0,0-1.22,1.69,13.33,13.33,0,0,0-.87,1.84L13,23.54c.29-.68.67-1.45,1.12-2.32a8.74,8.74,0,0,1,2-2.48,10.66,10.66,0,0,1,3.33-2,14.15,14.15,0,0,1,5.24-.82,12.86,12.86,0,0,1,4,.59,9.21,9.21,0,0,1,3.09,1.69,7.36,7.36,0,0,1,2,2.65,8.53,8.53,0,0,1,.69,3.49A11.7,11.7,0,0,1,33,29.7a27.44,27.44,0,0,1-3.21,5,37.47,37.47,0,0,1-4,4.23Q23.77,40.8,22.33,42H34.61v5.31Z"/><path class="cls-1" d="M56.25,47.34H50.67V39.6H39.11V15.88h5.76V34.56h5.8V27h5.54v7.61h4v5h-4Z"/></svg>