<svg id="Layer_1" data-name="Layer 1" xmlns="http://www.w3.org/2000/svg" viewBox="0 0 62.56 61.94"><defs><style>.cls-1{fill:#777;}</style></defs><path class="cls-1" d="M25.77,46.35H20.31V38.78H9V15.59h5.64V33.85h5.67V26.42h5.41v7.43h3.92v4.89H25.77Z"/><path class="cls-1" d="M32.28,46.35l0-3.46q1.36-1.59,2.89-3.17l3-3.13c1-1,2-2.05,2.86-3a28.65,28.65,0,0,0,2.4-3,16.81,16.81,0,0,0,1.65-3,7.64,7.64,0,0,0,.61-3A3.26,3.26,0,0,0,44.6,22a4.16,4.16,0,0,0-2.82-1,4.64,4.64,0,0,0-2.13.48A5.49,5.49,0,0,0,38,22.7a9.37,9.37,0,0,0-1.19,1.65,14.62,14.62,0,0,0-.85,1.8l-4.23-3.07c.29-.67.66-1.42,1.1-2.27a8.85,8.85,0,0,1,1.92-2.43A10.57,10.57,0,0,1,38,16.44a13.84,13.84,0,0,1,5.13-.8,12.29,12.29,0,0,1,3.88.58,8.72,8.72,0,0,1,3,1.65A7.16,7.16,0,0,1,52,20.46a8.34,8.34,0,0,1,.67,3.41,11.43,11.43,0,0,1-1.3,5.23A27.12,27.12,0,0,1,48.21,34a37.57,37.57,0,0,1-3.87,4.14q-2,1.85-3.44,3h12v5.19Z"/></svg>