<svg id="Layer_1" data-name="Layer 1" xmlns="http://www.w3.org/2000/svg" viewBox="0 0 62.56 61.94"><defs><style>.cls-1{fill:#444;}</style></defs><path class="cls-1" d="M24.54,46.34l0-3.53q1.4-1.64,3-3.25l3.08-3.2q1.53-1.59,2.93-3.11A28.87,28.87,0,0,0,36,30.18a17.61,17.61,0,0,0,1.69-3.05,7.79,7.79,0,0,0,.63-3.05,3.33,3.33,0,0,0-1.17-2.64,4.23,4.23,0,0,0-2.88-1,4.89,4.89,0,0,0-2.19.48,5.58,5.58,0,0,0-1.66,1.25,9.32,9.32,0,0,0-1.22,1.69,15.29,15.29,0,0,0-.87,1.84L24,22.54c.3-.68.67-1.45,1.12-2.32a8.88,8.88,0,0,1,2-2.48,10.66,10.66,0,0,1,3.33-2,14.15,14.15,0,0,1,5.24-.82,12.86,12.86,0,0,1,4,.59,9.21,9.21,0,0,1,3.09,1.69,7.31,7.31,0,0,1,2,2.66,8.48,8.48,0,0,1,.69,3.48A11.66,11.66,0,0,1,44,28.7a27.44,27.44,0,0,1-3.21,5,37.53,37.53,0,0,1-4,4.24Q34.8,39.8,33.36,41H45.64v5.31Z"/></svg>