<svg id="Layer_1" data-name="Layer 1" xmlns="http://www.w3.org/2000/svg" viewBox="0 0 62.56 61.94"><defs><style>.cls-1{fill:#444;}</style></defs><path class="cls-1" d="M32.44,37.44a7.66,7.66,0,0,1-.76,3.42,7.76,7.76,0,0,1-2.2,2.69A10.85,10.85,0,0,1,26,45.3a15.72,15.72,0,0,1-4.59.63,20.48,20.48,0,0,1-3.49-.28,12.4,12.4,0,0,1-2.9-.9,10.85,10.85,0,0,1-2.57-1.62A18.9,18.9,0,0,1,10,40.67l3-4q3.51,4,7.52,4a5.46,5.46,0,0,0,3.53-1,3.62,3.62,0,0,0,1.37-2.75,3.52,3.52,0,0,0-.35-2,3.74,3.74,0,0,0-1.54-1.51,8.57,8.57,0,0,0-3-.88,23.38,23.38,0,0,0-4.77-.1V27.07a33.23,33.23,0,0,0,4.52.05A8,8,0,0,0,23,26.51a3,3,0,0,0,1.44-1.28,4.07,4.07,0,0,0,.43-2,3.26,3.26,0,0,0-1.31-2.49,5.14,5.14,0,0,0-3.24-.94,7.52,7.52,0,0,0-3.19.7,13.23,13.23,0,0,0-3.24,2.29l-2.52-4.26q3.38-4,10.39-4a13.17,13.17,0,0,1,4,.56,9,9,0,0,1,3,1.62,7,7,0,0,1,1.93,2.5,7.77,7.77,0,0,1,.68,3.29,6.86,6.86,0,0,1-1.31,4.34,10.24,10.24,0,0,1-4.32,2.9,8.48,8.48,0,0,1,5,2.53A7.53,7.53,0,0,1,32.44,37.44Z"/><path class="cls-1" d="M45.58,45.93V21.39c-.6.69-1.17,1.32-1.71,1.87S42.74,24.41,42.11,25l-3-4.05q1.35-1.17,2.61-2.34c.72-.66,1.46-1.36,2.21-2.11a25.43,25.43,0,0,0,1.85-2h5.75V45.93Z"/></svg>