<svg id="Layer_1" data-name="Layer 1" xmlns="http://www.w3.org/2000/svg" viewBox="0 0 62.56 61.94"><defs><style>.cls-1{fill:#022749;}</style></defs><path class="cls-1" d="M29.53,33.16a7.57,7.57,0,0,1-.74,3.34,7.46,7.46,0,0,1-2.16,2.63,10.77,10.77,0,0,1-3.44,1.72,15.71,15.71,0,0,1-4.48.61,18.59,18.59,0,0,1-3.41-.28,11.74,11.74,0,0,1-2.84-.87A11.34,11.34,0,0,1,10,38.73a19.56,19.56,0,0,1-2.38-2.42l2.91-3.92q3.43,3.88,7.35,3.88a5.33,5.33,0,0,0,3.45-1,3.53,3.53,0,0,0,1.34-2.69,3.43,3.43,0,0,0-.35-1.91,3.51,3.51,0,0,0-1.5-1.48,8.45,8.45,0,0,0-2.94-.86,23.91,23.91,0,0,0-4.67-.1V23a31.78,31.78,0,0,0,4.42.05,8,8,0,0,0,2.73-.6,3,3,0,0,0,1.41-1.25,4,4,0,0,0,.42-1.92,3.2,3.2,0,0,0-1.28-2.44,5.06,5.06,0,0,0-3.17-.92,7.38,7.38,0,0,0-3.12.69,12.6,12.6,0,0,0-3.17,2.23L8.94,14.7q3.3-4,10.16-3.95A12.63,12.63,0,0,1,23,11.3a8.82,8.82,0,0,1,3,1.58,6.94,6.94,0,0,1,1.89,2.45,7.56,7.56,0,0,1,.66,3.22,6.73,6.73,0,0,1-1.27,4.24A10,10,0,0,1,23,25.62a8.21,8.21,0,0,1,4.87,2.48A7.35,7.35,0,0,1,29.53,33.16Z"/><path class="cls-1" d="M54.21,33.71a6.72,6.72,0,0,1-2.75,5.7q-2.76,2.06-7.68,2.05a16.73,16.73,0,0,1-4.58-.58,11.61,11.61,0,0,1-3.53-1.62,7.39,7.39,0,0,1-2.29-2.51,6.72,6.72,0,0,1-.81-3.3A6.63,6.63,0,0,1,34,29,12.33,12.33,0,0,1,39,25.9c-1.21-.74-2.17-1.4-2.91-2a8.09,8.09,0,0,1-1.69-1.66,4.9,4.9,0,0,1-.82-1.73,9.58,9.58,0,0,1-.22-2.16,6.74,6.74,0,0,1,2.56-5.66q2.55-2,7.83-2a15.43,15.43,0,0,1,4.16.52,9.78,9.78,0,0,1,3.19,1.47,6.46,6.46,0,0,1,2,2.31,6.55,6.55,0,0,1,.7,3.05,6.86,6.86,0,0,1-1.29,4.18,12.84,12.84,0,0,1-4.29,3.35,11,11,0,0,1,4.59,3.31A7.8,7.8,0,0,1,54.21,33.71Zm-5.85-.56A3.06,3.06,0,0,0,48,31.64a3.5,3.5,0,0,0-1-1.12,10.64,10.64,0,0,0-1.63-.91c-.63-.28-1.34-.57-2.14-.87A9.21,9.21,0,0,0,40,30.38a3,3,0,0,0-.92,2.25A3.14,3.14,0,0,0,40.4,35.3a5.94,5.94,0,0,0,3.56,1,5.46,5.46,0,0,0,3.21-.85A2.64,2.64,0,0,0,48.36,33.15Zm-.83-14a2.82,2.82,0,0,0-1.17-2.34,4.82,4.82,0,0,0-3.06-.91,4.28,4.28,0,0,0-2.73.84,2.68,2.68,0,0,0-1,2.17q0,2.31,4.22,4.12a6.73,6.73,0,0,0,2.95-1.67A3.28,3.28,0,0,0,47.53,19.19Z"/></svg>