<svg id="Layer_1" data-name="Layer 1" xmlns="http://www.w3.org/2000/svg" viewBox="0 0 62.56 61.94"><defs><style>.cls-1{fill:#510000;}</style></defs><path class="cls-1" d="M16.83,46.34V21.81q-.9,1-1.71,1.86c-.54.56-1.12,1.15-1.75,1.78l-3-4.05q1.35-1.17,2.61-2.34c.72-.65,1.45-1.36,2.2-2.11s1.37-1.42,1.86-2h5.75V46.34Z"/><path class="cls-1" d="M54.41,30.09q0,8.58-3,12.42t-8.77,3.83q-5.8,0-8.77-3.86T31,30.66q0-7.93,2.95-11.83t8.77-3.9Q54.41,14.93,54.41,30.09Zm-7.07.26q-.14-5.18-1.17-7.4a3.57,3.57,0,0,0-3.44-2.21,3.78,3.78,0,0,0-3.49,2.4c-.72,1.55-1.13,4.2-1.21,8a19.17,19.17,0,0,0,1.17,7,3.77,3.77,0,0,0,3.53,2.43,3.59,3.59,0,0,0,3.37-2.35Q47.21,35.85,47.34,30.35Z"/></svg>