<svg id="Layer_1" data-name="Layer 1" xmlns="http://www.w3.org/2000/svg" viewBox="0 0 62.56 61.94"><defs><style>.cls-1{fill:#510000;}</style></defs><path class="cls-1" d="M8.92,47.34l0-3.53c.93-1.09,1.91-2.18,2.95-3.25L15,37.36q1.53-1.59,2.93-3.11a28.87,28.87,0,0,0,2.45-3.07,17.61,17.61,0,0,0,1.69-3.05,7.82,7.82,0,0,0,.63-3.05,3.35,3.35,0,0,0-1.17-2.65,4.27,4.27,0,0,0-2.88-1,4.89,4.89,0,0,0-2.19.48,5.58,5.58,0,0,0-1.66,1.25,9,9,0,0,0-1.22,1.69,14.6,14.6,0,0,0-.87,1.84L8.38,23.54c.3-.68.67-1.45,1.12-2.32a8.74,8.74,0,0,1,2-2.48,10.66,10.66,0,0,1,3.33-2A14.15,14.15,0,0,1,20,15.93a12.86,12.86,0,0,1,4,.59,9.12,9.12,0,0,1,3.09,1.69,7.25,7.25,0,0,1,2,2.65,8.53,8.53,0,0,1,.69,3.49,11.7,11.7,0,0,1-1.33,5.35,27.44,27.44,0,0,1-3.21,5,36.58,36.58,0,0,1-4,4.23Q19.18,40.8,17.74,42H30v5.31Z"/><path class="cls-1" d="M55,37.2a11.13,11.13,0,0,1-.75,4.19,9,9,0,0,1-5.36,5.22,12.86,12.86,0,0,1-8.79-.09,9.55,9.55,0,0,1-3.46-2.34,10.88,10.88,0,0,1-2.23-3.61,13.43,13.43,0,0,1-.79-4.7,16.74,16.74,0,0,1,1-5.54A28.37,28.37,0,0,1,37.07,25a38.74,38.74,0,0,1,3.44-4.89,46.44,46.44,0,0,1,3.87-4.17H52a46.77,46.77,0,0,0-5.57,6,48.94,48.94,0,0,0-4.55,7c.47-.27.9-.49,1.28-.67a9,9,0,0,1,1.08-.43,6,6,0,0,1,1-.22,8.57,8.57,0,0,1,1.19-.07,8.36,8.36,0,0,1,3.46.7,7.67,7.67,0,0,1,2.69,2,9.82,9.82,0,0,1,1.76,3.07A11.58,11.58,0,0,1,55,37.2Zm-6,.12a4.39,4.39,0,0,0-1.07-3.13A3.66,3.66,0,0,0,45.09,33a5.94,5.94,0,0,0-4.18,1.77c-.09.45-.15.78-.18,1a7,7,0,0,0,0,.88,5,5,0,0,0,1.22,3.5,4.1,4.1,0,0,0,3.18,1.34,3.69,3.69,0,0,0,2.85-1.15A4.31,4.31,0,0,0,49,37.32Z"/></svg>