<svg id="Layer_1" data-name="Layer 1" xmlns="http://www.w3.org/2000/svg" viewBox="0 0 62.56 61.94"><defs><style>.cls-1{fill:#777;}</style></defs><path class="cls-1" d="M18.26,49.18V29.56c-.48.55-.94,1.05-1.37,1.49l-1.4,1.42-2.38-3.24c.72-.62,1.42-1.24,2.09-1.87s1.16-1.09,1.76-1.69,1.1-1.14,1.49-1.61h4.6V49.18Z"/><path class="cls-1" d="M46.84,41.18a7.55,7.55,0,0,1-2.32,5.92A9.46,9.46,0,0,1,38,49.18a12.19,12.19,0,0,1-4.78-.91,10.63,10.63,0,0,1-3.79-2.7l2-3.55c2.13,1.94,4.22,2.92,6.26,2.92a4.83,4.83,0,0,0,3.13-1,3.09,3.09,0,0,0,1.23-2.54,3.54,3.54,0,0,0-1-2.74,4.28,4.28,0,0,0-3-.93,4.16,4.16,0,0,0-1.89.41,7.68,7.68,0,0,0-1.78,1.28l-3.1-1.77.36-13.6h14.4l0,4.24H36.26l-.18,5.91c.35-.17.65-.31.91-.42s.5-.19.75-.27a3.82,3.82,0,0,1,.79-.14c.27,0,.59,0,.94,0a7.67,7.67,0,0,1,3,.57A6.57,6.57,0,0,1,44.8,35.5,7.25,7.25,0,0,1,46.3,38,9.11,9.11,0,0,1,46.84,41.18Z"/></svg>