<svg id="Layer_1" data-name="Layer 1" xmlns="http://www.w3.org/2000/svg" viewBox="0 0 62.56 61.94"><defs><style>.cls-1{fill:#510000;}</style></defs><path class="cls-1" d="M29.79,45.53H24.21V37.79H12.65V14.07h5.76V32.75h5.8V25.14h5.54v7.61h4v5h-4Z"/><path class="cls-1" d="M57.06,35.52a9.43,9.43,0,0,1-2.91,7.4Q51.24,45.53,46,45.53a15.11,15.11,0,0,1-6-1.15A13.25,13.25,0,0,1,35.28,41l2.52-4.44q4,3.65,7.83,3.65A6.07,6.07,0,0,0,49.55,39a3.89,3.89,0,0,0,1.53-3.17,4.39,4.39,0,0,0-1.29-3.43,6.16,6.16,0,0,0-6.07-.66,9.66,9.66,0,0,0-2.23,1.6l-3.87-2.21.45-17h18l0,5.31H43.83l-.22,7.38c.43-.21.81-.39,1.13-.52a8.28,8.28,0,0,1,.94-.34,5,5,0,0,1,1-.18c.35,0,.75,0,1.18,0a9.76,9.76,0,0,1,3.76.7,8.38,8.38,0,0,1,2.91,2,9.18,9.18,0,0,1,1.87,3.1A11.2,11.2,0,0,1,57.06,35.52Z"/></svg>