<svg id="Layer_1" data-name="Layer 1" xmlns="http://www.w3.org/2000/svg" viewBox="0 0 62.56 61.94"><defs><style>.cls-1{fill:#022749;}</style></defs><path class="cls-1" d="M10.44,43.53l0-3.45q1.37-1.61,2.88-3.18l3-3.13c1-1,1.95-2.05,2.86-3a27.77,27.77,0,0,0,2.39-3,16.81,16.81,0,0,0,1.65-3,7.65,7.65,0,0,0,.62-3,3.28,3.28,0,0,0-1.14-2.59,4.18,4.18,0,0,0-2.82-1,4.63,4.63,0,0,0-2.13.47,5.24,5.24,0,0,0-1.63,1.22A8.88,8.88,0,0,0,15,21.53a14.71,14.71,0,0,0-.86,1.8L9.91,20.26c.29-.66.66-1.42,1.1-2.27a8.81,8.81,0,0,1,1.91-2.42,10.45,10.45,0,0,1,3.26-2,14,14,0,0,1,5.12-.8,12.29,12.29,0,0,1,3.88.58,8.68,8.68,0,0,1,3,1.65,7.14,7.14,0,0,1,1.92,2.59,8.37,8.37,0,0,1,.68,3.41,11.6,11.6,0,0,1-1.3,5.24,27.53,27.53,0,0,1-3.15,4.87,37.4,37.4,0,0,1-3.87,4.13q-2,1.85-3.43,3.05h12v5.19Z"/><path class="cls-1" d="M55.8,35.78A6.71,6.71,0,0,1,53,41.48q-2.76,2.06-7.68,2.05A16.73,16.73,0,0,1,40.78,43a11.72,11.72,0,0,1-3.53-1.62A7.36,7.36,0,0,1,35,38.82a6.61,6.61,0,0,1-.82-3.29,6.6,6.6,0,0,1,1.48-4.44A12.28,12.28,0,0,1,40.53,28c-1.2-.75-2.17-1.41-2.9-2a8.16,8.16,0,0,1-1.7-1.66,5.05,5.05,0,0,1-.81-1.73,9,9,0,0,1-.22-2.16,6.74,6.74,0,0,1,2.55-5.65q2.55-2,7.83-2a15.38,15.38,0,0,1,4.16.52,9.68,9.68,0,0,1,3.19,1.47,6.49,6.49,0,0,1,2,2.31,6.68,6.68,0,0,1,.7,3.05,6.8,6.8,0,0,1-1.3,4.18,12.64,12.64,0,0,1-4.29,3.35A10.84,10.84,0,0,1,54.36,31,7.76,7.76,0,0,1,55.8,35.78ZM50,35.22a3.09,3.09,0,0,0-.35-1.51,3.54,3.54,0,0,0-1-1.12,10.18,10.18,0,0,0-1.63-.91q-.95-.42-2.13-.87a9,9,0,0,0-3.21,1.64,2.94,2.94,0,0,0-.93,2.25A3.14,3.14,0,0,0,42,37.37a5.88,5.88,0,0,0,3.57,1,5.38,5.38,0,0,0,3.21-.85A2.66,2.66,0,0,0,50,35.22Zm-.84-13.95A2.85,2.85,0,0,0,48,18.92,4.82,4.82,0,0,0,44.89,18a4.18,4.18,0,0,0-2.73.85A2.65,2.65,0,0,0,41.1,21q0,2.31,4.23,4.12a6.63,6.63,0,0,0,3-1.67A3.31,3.31,0,0,0,49.11,21.27Z"/></svg>