<svg id="Layer_1" data-name="Layer 1" xmlns="http://www.w3.org/2000/svg" viewBox="0 0 62.56 61.94"><defs><style>.cls-1{fill:#777;}</style></defs><path class="cls-1" d="M25,49.74H20.56V43.55H11.31v-19h4.61V39.52h4.64V33.43H25v6.09h3.2v4H25Z"/><path class="cls-1" d="M46.84,41.74a7.56,7.56,0,0,1-2.32,5.92A9.46,9.46,0,0,1,38,49.74a12.19,12.19,0,0,1-4.78-.91,10.63,10.63,0,0,1-3.79-2.7l2-3.55q3.19,2.91,6.26,2.91a4.82,4.82,0,0,0,3.13-1A3.09,3.09,0,0,0,42.06,42a3.54,3.54,0,0,0-1-2.74,4.28,4.28,0,0,0-3-.94,4.17,4.17,0,0,0-1.89.42A7.39,7.39,0,0,0,34.39,40l-3.1-1.77.36-13.61h14.4l0,4.25H36.26l-.18,5.91c.35-.17.65-.31.91-.42a5.63,5.63,0,0,1,.75-.27,3.82,3.82,0,0,1,.79-.14,8.81,8.81,0,0,1,.94,0,7.67,7.67,0,0,1,3,.57,6.45,6.45,0,0,1,2.33,1.59,7.25,7.25,0,0,1,1.5,2.48A9.11,9.11,0,0,1,46.84,41.74Z"/></svg>