<svg id="Layer_1" data-name="Layer 1" xmlns="http://www.w3.org/2000/svg" viewBox="0 0 62.56 61.94"><defs><style>.cls-1{fill:#081735;}</style></defs><path class="cls-1" d="M30.93,43.35a6,6,0,0,1-2.37,4.89,8.51,8.51,0,0,1-2.81,1.4,12.5,12.5,0,0,1-3.68.5,15.79,15.79,0,0,1-2.79-.22A9.8,9.8,0,0,1,17,49.2a8.79,8.79,0,0,1-2.05-1.29,14.63,14.63,0,0,1-1.94-2l2.37-3.2c1.87,2.11,3.88,3.17,6,3.17a4.34,4.34,0,0,0,2.83-.84,2.9,2.9,0,0,0,1.1-2.2A2.86,2.86,0,0,0,25,41.3a3,3,0,0,0-1.22-1.21,7,7,0,0,0-2.42-.71,19.33,19.33,0,0,0-3.81-.07V35.06a26.31,26.31,0,0,0,3.62,0,6.6,6.6,0,0,0,2.23-.49,2.47,2.47,0,0,0,1.15-1A3.3,3.3,0,0,0,24.88,32a2.58,2.58,0,0,0-1-2,4.07,4.07,0,0,0-2.59-.76,6,6,0,0,0-2.56.57,10.28,10.28,0,0,0-2.59,1.82l-2-3.4C15.88,26.09,18.65,25,22.4,25a10.42,10.42,0,0,1,3.17.45A7.09,7.09,0,0,1,28,26.76a5.78,5.78,0,0,1,1.55,2,6.23,6.23,0,0,1,.54,2.64,5.55,5.55,0,0,1-1,3.47,8.22,8.22,0,0,1-3.46,2.31,6.77,6.77,0,0,1,4,2A6,6,0,0,1,30.93,43.35Z"/><path class="cls-1" d="M33.77,50.14l0-2.82c.74-.87,1.53-1.74,2.36-2.6l2.46-2.56q1.23-1.27,2.34-2.49a20.49,20.49,0,0,0,2-2.46,13.56,13.56,0,0,0,1.36-2.43,6.38,6.38,0,0,0,.5-2.44,2.66,2.66,0,0,0-.94-2.12,3.38,3.38,0,0,0-2.3-.81,4,4,0,0,0-1.75.38,4.56,4.56,0,0,0-1.33,1,7.23,7.23,0,0,0-1,1.35,10.45,10.45,0,0,0-.7,1.48L33.34,31.1c.24-.54.54-1.16.9-1.85a7.12,7.12,0,0,1,1.57-2,8.81,8.81,0,0,1,2.66-1.59A11.34,11.34,0,0,1,42.66,25a10.06,10.06,0,0,1,3.18.47,7.18,7.18,0,0,1,2.47,1.35A5.9,5.9,0,0,1,49.89,29a6.78,6.78,0,0,1,.55,2.79A9.44,9.44,0,0,1,49.38,36a22.56,22.56,0,0,1-2.58,4,29.31,29.31,0,0,1-3.16,3.38c-1.11,1-2,1.84-2.81,2.5h9.83v4.24Z"/></svg>