<svg id="Layer_1" data-name="Layer 1" xmlns="http://www.w3.org/2000/svg" viewBox="0 0 62.56 61.94"><defs><style>.cls-1{fill:#777;}</style></defs><path class="cls-1" d="M24.2,49.74H19.74V43.55H10.49v-19H15.1V39.52h4.64V33.44h4.43v6.08h3.2v4H24.2Z"/><path class="cls-1" d="M46.45,43a6,6,0,0,1-2.37,4.89,8.51,8.51,0,0,1-2.81,1.4,12.5,12.5,0,0,1-3.68.5,15.79,15.79,0,0,1-2.79-.22,9.8,9.8,0,0,1-2.32-.72,8.79,8.79,0,0,1-2-1.29,14.63,14.63,0,0,1-1.94-2l2.37-3.2q2.82,3.16,6,3.16a4.34,4.34,0,0,0,2.83-.83,2.9,2.9,0,0,0,1.1-2.2,2.84,2.84,0,0,0-.29-1.56,3,3,0,0,0-1.22-1.21A7,7,0,0,0,36.87,39a19.33,19.33,0,0,0-3.81-.07V34.66a28,28,0,0,0,3.62,0,6.6,6.6,0,0,0,2.23-.49,2.47,2.47,0,0,0,1.15-1,3.3,3.3,0,0,0,.34-1.58,2.58,2.58,0,0,0-1-2,4.07,4.07,0,0,0-2.59-.76,6,6,0,0,0-2.56.57,10.28,10.28,0,0,0-2.59,1.82l-2-3.4c1.8-2.16,4.57-3.23,8.32-3.23a10.42,10.42,0,0,1,3.17.45,7.09,7.09,0,0,1,2.42,1.29,5.58,5.58,0,0,1,1.55,2A6.21,6.21,0,0,1,45.6,31a5.51,5.51,0,0,1-1,3.47,8.13,8.13,0,0,1-3.46,2.32,6.77,6.77,0,0,1,4,2A6,6,0,0,1,46.45,43Z"/></svg>