<svg id="Layer_1" data-name="Layer 1" xmlns="http://www.w3.org/2000/svg" viewBox="0 0 62.56 61.94"><defs><style>.cls-1{fill:#081735;}</style></defs><path class="cls-1" d="M41.26,44.22A5.5,5.5,0,0,1,39,48.88a10.34,10.34,0,0,1-6.28,1.68A13.64,13.64,0,0,1,29,50.08a9.63,9.63,0,0,1-2.89-1.32,6,6,0,0,1-1.87-2.06,5.93,5.93,0,0,1,.54-6.33,10.11,10.11,0,0,1,4-2.54c-1-.61-1.78-1.15-2.38-1.61A6.6,6.6,0,0,1,25,34.86a4.14,4.14,0,0,1-.67-1.41,7.6,7.6,0,0,1-.18-1.77,5.54,5.54,0,0,1,2.09-4.63q2.09-1.62,6.41-1.62a12.82,12.82,0,0,1,3.4.42,8.28,8.28,0,0,1,2.61,1.21,5.17,5.17,0,0,1,2.23,4.39,5.54,5.54,0,0,1-1.06,3.41,10.37,10.37,0,0,1-3.51,2.74,8.94,8.94,0,0,1,3.76,2.72A6.4,6.4,0,0,1,41.26,44.22Zm-4.78-.46a2.5,2.5,0,0,0-.29-1.24,2.92,2.92,0,0,0-.85-.91A8.18,8.18,0,0,0,34,40.86c-.52-.23-1.1-.47-1.75-.71a7.44,7.44,0,0,0-2.62,1.34,2.41,2.41,0,0,0-.76,1.84A2.55,2.55,0,0,0,30,45.51a4.81,4.81,0,0,0,2.91.8,4.39,4.39,0,0,0,2.63-.7A2.17,2.17,0,0,0,36.48,43.76Zm-.69-11.42a2.32,2.32,0,0,0-.95-1.92,3.94,3.94,0,0,0-2.51-.74,3.47,3.47,0,0,0-2.23.69,2.18,2.18,0,0,0-.86,1.77q0,1.89,3.46,3.37a5.42,5.42,0,0,0,2.41-1.37A2.71,2.71,0,0,0,35.79,32.34Z"/></svg>