<svg id="Layer_1" data-name="Layer 1" xmlns="http://www.w3.org/2000/svg" viewBox="0 0 62.56 61.94"><defs><style>.cls-1{fill:#510000;}</style></defs><path class="cls-1" d="M8.19,47.34l.05-3.53c.93-1.09,1.91-2.18,2.95-3.25l3.08-3.2q1.53-1.59,2.92-3.11a29,29,0,0,0,2.46-3.07,17.54,17.54,0,0,0,1.68-3.05A7.82,7.82,0,0,0,22,25.08a3.35,3.35,0,0,0-1.17-2.65,4.27,4.27,0,0,0-2.88-1,4.85,4.85,0,0,0-2.18.48,5.58,5.58,0,0,0-1.66,1.25,9,9,0,0,0-1.22,1.69A14.68,14.68,0,0,0,12,26.68L7.65,23.54c.3-.68.68-1.45,1.13-2.32a8.74,8.74,0,0,1,2-2.48,10.66,10.66,0,0,1,3.33-2,14.15,14.15,0,0,1,5.24-.82,12.86,12.86,0,0,1,4,.59,9.21,9.21,0,0,1,3.09,1.69,7.48,7.48,0,0,1,2,2.65A8.53,8.53,0,0,1,29,24.35,11.7,11.7,0,0,1,27.7,29.7a27.49,27.49,0,0,1-3.22,5,36.58,36.58,0,0,1-4,4.23Q18.45,40.8,17,42H29.3v5.31Z"/><path class="cls-1" d="M52.83,47.34h-6l.36-13.28a8.25,8.25,0,0,1-2.56,1.58,9,9,0,0,1-3,.45,9.43,9.43,0,0,1-3.75-.72,8.23,8.23,0,0,1-2.91-2,9,9,0,0,1-1.86-3.17A12.23,12.23,0,0,1,32.4,26a12.28,12.28,0,0,1,.79-4.48A9.23,9.23,0,0,1,39,16a13.76,13.76,0,0,1,4.66-.75,9.85,9.85,0,0,1,7.29,2.61,9.39,9.39,0,0,1,2.47,7.25ZM47.12,24.43A3.62,3.62,0,0,0,46.83,23,3.87,3.87,0,0,0,46,21.82a3.64,3.64,0,0,0-1.24-.76,4.32,4.32,0,0,0-1.53-.27A4.14,4.14,0,0,0,40,22.18,5.64,5.64,0,0,0,38.75,26a4.93,4.93,0,0,0,1.06,3.37,3.68,3.68,0,0,0,2.94,1.22,4.06,4.06,0,0,0,3.06-1.22A5,5,0,0,0,47.07,26Z"/></svg>