<svg id="Layer_1" data-name="Layer 1" xmlns="http://www.w3.org/2000/svg" viewBox="0 0 62.56 61.94"><defs><style>.cls-1{fill:#022749;}</style></defs><path class="cls-1" d="M27.89,46.35H22.43V38.78H11.12V15.59h5.64V33.85h5.67V26.42h5.41v7.43h3.92v4.89H27.89Z"/><path class="cls-1" d="M55.61,38.6a6.71,6.71,0,0,1-2.76,5.7c-1.84,1.36-4.4,2.05-7.68,2.05a16.73,16.73,0,0,1-4.58-.58,11.61,11.61,0,0,1-3.53-1.62,7.59,7.59,0,0,1-2.29-2.51,6.72,6.72,0,0,1-.81-3.3,6.63,6.63,0,0,1,1.47-4.43,12.4,12.4,0,0,1,4.91-3.12c-1.2-.74-2.17-1.4-2.9-2a8.42,8.42,0,0,1-1.7-1.66,5,5,0,0,1-.81-1.73,9,9,0,0,1-.22-2.16,6.76,6.76,0,0,1,2.55-5.66q2.55-2,7.83-2a15.38,15.38,0,0,1,4.16.52,9.68,9.68,0,0,1,3.19,1.47,6.46,6.46,0,0,1,2,2.31,6.56,6.56,0,0,1,.71,3,6.86,6.86,0,0,1-1.3,4.18,13,13,0,0,1-4.29,3.35,11,11,0,0,1,4.59,3.31A7.81,7.81,0,0,1,55.61,38.6ZM49.76,38a3,3,0,0,0-.36-1.52,3.58,3.58,0,0,0-1-1.11,10.64,10.64,0,0,0-1.63-.91q-.95-.42-2.13-.87a9,9,0,0,0-3.21,1.64,2.94,2.94,0,0,0-.93,2.25,3.14,3.14,0,0,0,1.32,2.67,6,6,0,0,0,3.57,1,5.48,5.48,0,0,0,3.21-.85A2.66,2.66,0,0,0,49.76,38Zm-.84-14a2.82,2.82,0,0,0-1.17-2.34,4.77,4.77,0,0,0-3-.91,4.24,4.24,0,0,0-2.73.84,2.66,2.66,0,0,0-1.06,2.17c0,1.53,1.41,2.91,4.23,4.12a6.68,6.68,0,0,0,2.94-1.67A3.28,3.28,0,0,0,48.92,24.08Z"/></svg>