<svg id="Layer_1" data-name="Layer 1" xmlns="http://www.w3.org/2000/svg" viewBox="0 0 62.56 61.94"><defs><style>.cls-1{fill:#081735;}</style></defs><path class="cls-1" d="M15.64,50.56V30.93c-.48.55-.93,1.05-1.37,1.49s-.9.92-1.4,1.42L10.49,30.6c.72-.62,1.42-1.24,2.09-1.86s1.17-1.09,1.77-1.69a21.54,21.54,0,0,0,1.48-1.62h4.6V50.56Z"/><path class="cls-1" d="M45.7,37.56q0,6.86-2.36,9.93c-1.58,2-3.91,3.07-7,3.07s-5.44-1-7-3.09S27,42.26,27,38s.78-7.38,2.36-9.46,3.91-3.12,7-3.12Q45.71,25.43,45.7,37.56Zm-5.65.2a15.89,15.89,0,0,0-.94-5.91,2.83,2.83,0,0,0-2.75-1.78A3,3,0,0,0,33.57,32a17.41,17.41,0,0,0-1,6.36A15.47,15.47,0,0,0,33.54,44a3,3,0,0,0,2.82,1.94A2.86,2.86,0,0,0,39.06,44,16.89,16.89,0,0,0,40.05,37.76Z"/></svg>