<svg id="Layer_1" data-name="Layer 1" xmlns="http://www.w3.org/2000/svg" viewBox="0 0 62.56 61.94"><defs><style>.cls-1{fill:#777;}</style></defs><path class="cls-1" d="M13.74,43.82v-24c-.59.67-1.15,1.28-1.68,1.82s-1.1,1.12-1.71,1.74l-2.91-4c.88-.76,1.73-1.52,2.56-2.28s1.42-1.34,2.15-2.07a24.81,24.81,0,0,0,1.82-2h5.62V43.82Z"/><path class="cls-1" d="M48.67,34a9.23,9.23,0,0,1-2.84,7.23q-2.85,2.57-8,2.56A15,15,0,0,1,32,42.7a13,13,0,0,1-4.63-3.3l2.46-4.34c2.61,2.38,5.16,3.56,7.66,3.56a5.9,5.9,0,0,0,3.82-1.2,3.79,3.79,0,0,0,1.5-3.1A4.32,4.32,0,0,0,41.57,31a5.19,5.19,0,0,0-3.63-1.15,5.09,5.09,0,0,0-2.31.51,9.5,9.5,0,0,0-2.18,1.56l-3.79-2.16L30.1,13.1H47.7l0,5.2h-12l-.22,7.21c.42-.2.79-.37,1.11-.5a6.3,6.3,0,0,1,.91-.33,4.77,4.77,0,0,1,1-.18c.34,0,.72,0,1.15,0a9.48,9.48,0,0,1,3.67.69,8,8,0,0,1,2.84,1.94,8.89,8.89,0,0,1,1.84,3A11.18,11.18,0,0,1,48.67,34Z"/></svg>