<svg id="Layer_1" data-name="Layer 1" xmlns="http://www.w3.org/2000/svg" viewBox="0 0 62.56 61.94"><defs><style>.cls-1{fill:#777;}</style></defs><path class="cls-1" d="M39.16,42.55a7.54,7.54,0,0,1-2.33,5.92,9.44,9.44,0,0,1-6.52,2.09,12.16,12.16,0,0,1-4.78-.92,10.67,10.67,0,0,1-3.8-2.7l2-3.55c2.14,2,4.22,2.92,6.26,2.92a4.86,4.86,0,0,0,3.14-1,3.11,3.11,0,0,0,1.22-2.53,3.52,3.52,0,0,0-1-2.75,4.26,4.26,0,0,0-3-.93,4.36,4.36,0,0,0-1.89.41A7.68,7.68,0,0,0,26.7,40.8L23.61,39,24,25.43H38.36l0,4.25H28.57l-.18,5.9c.35-.17.66-.31.91-.41a6.86,6.86,0,0,1,.75-.27,4,4,0,0,1,.79-.15c.28,0,.59,0,.94,0a7.72,7.72,0,0,1,3,.56,6.66,6.66,0,0,1,2.32,1.59,7.54,7.54,0,0,1,1.51,2.48A9.15,9.15,0,0,1,39.16,42.55Z"/></svg>