<svg id="Layer_1" data-name="Layer 1" xmlns="http://www.w3.org/2000/svg" viewBox="0 0 62.56 61.94"><defs><style>.cls-1{fill:#081735;}</style></defs><path class="cls-1" d="M22.41,50.14H18V44H8.69V25H13.3V39.92H18V33.84h4.42v6.08h3.21v4H22.41Z"/><path class="cls-1" d="M45.7,37.15q0,6.85-2.36,9.93c-1.58,2-3.91,3.06-7,3.06s-5.44-1-7-3.08S27,41.85,27,37.6s.78-7.39,2.36-9.47,3.91-3.11,7-3.11Q45.71,25,45.7,37.15Zm-5.65.2a16,16,0,0,0-.94-5.92,2.84,2.84,0,0,0-2.75-1.77,3,3,0,0,0-2.79,1.92,17.41,17.41,0,0,0-1,6.36,15.47,15.47,0,0,0,.94,5.62,3,3,0,0,0,2.82,1.94,2.87,2.87,0,0,0,2.7-1.87A16.89,16.89,0,0,0,40.05,37.35Z"/></svg>