<svg id="Layer_1" data-name="Layer 1" xmlns="http://www.w3.org/2000/svg" viewBox="0 0 62.56 61.94"><defs><style>.cls-1{fill:#777;}</style></defs><path class="cls-1" d="M22.58,41.74a7.57,7.57,0,0,1-2.33,5.92,9.42,9.42,0,0,1-6.52,2.08A12.16,12.16,0,0,1,9,48.83a10.67,10.67,0,0,1-3.8-2.7l2-3.55c2.14,1.94,4.22,2.91,6.26,2.91a4.83,4.83,0,0,0,3.14-1A3.11,3.11,0,0,0,17.79,42a3.5,3.5,0,0,0-1-2.74,4.27,4.27,0,0,0-3-.94,4.23,4.23,0,0,0-1.89.42A7.59,7.59,0,0,0,10.12,40L7,38.22l.36-13.61h14.4l0,4.25H12l-.18,5.91.91-.42a6.86,6.86,0,0,1,.75-.27,4,4,0,0,1,.79-.14,8.93,8.93,0,0,1,.94,0,7.72,7.72,0,0,1,3,.57,6.41,6.41,0,0,1,2.32,1.59A7.27,7.27,0,0,1,22,38.54,9.11,9.11,0,0,1,22.58,41.74Z"/><path class="cls-1" d="M43.82,36.74q0,6.87-2.37,9.93t-7,3.07q-4.65,0-7-3.08T25.06,37.2q0-6.35,2.36-9.47a8.26,8.26,0,0,1,7-3.12Q43.82,24.61,43.82,36.74ZM38.17,37A16.21,16.21,0,0,0,37.23,31a2.85,2.85,0,0,0-2.76-1.77,3,3,0,0,0-2.78,1.92,17.36,17.36,0,0,0-1,6.36,15.69,15.69,0,0,0,.94,5.62,3,3,0,0,0,2.82,1.94,2.87,2.87,0,0,0,2.7-1.88A16.58,16.58,0,0,0,38.17,37Z"/></svg>