<svg id="Layer_1" data-name="Layer 1" xmlns="http://www.w3.org/2000/svg" viewBox="0 0 426.85 435.85"><defs><style>.cls-1,.cls-17,.cls-21,.cls-5{fill:none;}.cls-2{fill:#de195a;}.cls-3{fill:#cd1d5d;}.cls-4{fill:#ee4984;}.cls-5{stroke:#c51e57;}.cls-17,.cls-21,.cls-5{stroke-miterlimit:10;}.cls-6{opacity:0.25;}.cls-7{fill:#fe4786;}.cls-8{fill:#f8f6f0;}.cls-9{fill:#7e57a3;}.cls-10{fill:#12170d;}.cls-11{fill:#e91a68;}.cls-12{opacity:0.81;}.cls-13{fill:#ff8db6;}.cls-14{fill:#a21d42;}.cls-15{fill:#ee3644;}.cls-16{fill:#fff;}.cls-17{stroke:#ec1262;stroke-width:2px;}.cls-18{fill:#f49093;}.cls-19{fill:#de1959;}.cls-20{fill:#c51e57;}.cls-21{stroke:#66002e;}</style></defs><rect class="cls-1" x="-659.25" y="-270.76" width="1600" height="900"/><rect class="cls-1" x="-659.25" y="-270.76" width="1600" height="900"/><path class="cls-2" d="M380.64,277.6c-.45-1.34-.83-2.66-1.28-4-1.64-4.84-4.12-9.79-13.29-15.73-.33-.22,9.35,11.29,6.1,17.21a5.32,5.32,0,0,1-.55.79c-4.72,5.61-7.16-3.06-9.09-3.24-2.38-.21-3.21-.09-4.72-1.28a4,4,0,0,1-.71-.72l0,0a8,8,0,0,1-1.35-4.22c-1.07-10.69.24-14.82-1.84-18.65a10.64,10.64,0,0,0-4.66-4.31,30.46,30.46,0,0,0-2.82-1.26c-2.73-1.14-6-2.7-9.74-4.57-4.91-2.47-10.53-5.48-16.41-8.75-6.43-3.57-13.17-7.44-19.69-11.24-3.23-1.88-6.39-3.75-9.44-5.55-5.16-3.06-10-5.95-14.12-8.45l-5-3c-5.69-3.47-9.23-5.66-9.23-5.66l4-32.56,27.2,21.35,17.58,13.78,7.52,5.91,17.55,13.76,13.15,10.32,10.16,8,2.51,2s25.57,20.2,31.53,37.76C396.93,283.8,387,286.67,380.64,277.6Z"/><path class="cls-3" d="M379.36,273.6c-.88,2.55-4,3.33-7.19,1.48,3.25-5.92-6.43-17.43-6.1-17.21C375.25,263.81,377.72,268.75,379.36,273.6Z"/><path class="cls-4" d="M311.64,197.51l-20.51,14.55c-5.16-3.06-10-5.95-14.12-8.45l-5-3c6.19-5,14.51-11.29,22-16.87Z"/><path class="cls-4" d="M336.71,217.18l-16.45,11.67c-6.43-3.57-13.17-7.44-19.69-11.24,5.54-4.38,12.3-9.5,18.59-14.19Z"/><path class="cls-4" d="M360,235.47l-10.79,8a30.46,30.46,0,0,0-2.82-1.26c-2.73-1.14-6-2.7-9.74-4.57,4.35-3.37,9-6.92,13.19-10.1Z"/><path class="cls-5" d="M394.06,275.2c-6-17.56-31.53-37.76-31.53-37.76l-2.51-2-10.16-8-13.15-10.32-17.55-13.76-7.52-5.91-17.58-13.78-27.2-21.35-4,32.56s3.54,2.19,9.23,5.66l5,3c4.14,2.5,9,5.39,14.12,8.45,3.05,1.8,6.21,3.67,9.44,5.55,6.52,3.8,13.26,7.67,19.69,11.24,5.88,3.27,11.5,6.28,16.41,8.75,3.71,1.87,7,3.43,9.74,4.57a30.46,30.46,0,0,1,2.82,1.26,10.64,10.64,0,0,1,4.66,4.31c2.08,3.83.77,8,1.84,18.65a8,8,0,0,0,1.35,4.22l0,0a4,4,0,0,0,.71.72c1.51,1.19,2.34,1.07,4.72,1.28,1.93.18,4.37,8.85,9.09,3.24a5.32,5.32,0,0,0,.55-.79c3.25-5.92-6.43-17.43-6.1-17.21h0c-.25-.12,9.34,11.31,6.1,17.21,3.15,1.85,6.31,1.07,7.19-1.48h0c.45,1.34.83,2.66,1.28,4C387,286.67,396.93,283.8,394.06,275.2Z"/><ellipse class="cls-6" cx="226.93" cy="382.99" rx="108.16" ry="27.68"/><path class="cls-2" d="M198.37,319.67c-1.09,18.95-1.83,33.27-1.87,41.84h0v.13a20.32,20.32,0,0,1-2,9.37,17.62,17.62,0,0,1-3.6,4.86,35.37,35.37,0,0,1-5.91,4.37c-1.15.71-2.34,1.41-3.71,2.14a104.81,104.81,0,0,1-12.54,5.53c-2.94,1.13-6.41,2.38-10.58,3.82-8.7,3-13.34,4.36-19.3,3.41-2.57-.41-7.06-1.18-8.37-4.26-1.65-3.82,2.63-8.86,4.4-10.93a30.16,30.16,0,0,1,10.47-7.77,67.39,67.39,0,0,1,15.85-5c5.62-.94,8.59-.46,12.14-2.28a13.6,13.6,0,0,0,3.16-2.25,22.3,22.3,0,0,0,5.48-9.11h0c2.15-6.13,3.49-15.18,3.22-28.62"/><path class="cls-4" d="M181,382.53a104.81,104.81,0,0,1-12.54,5.53c-6.06-6.59-18.2-13.11-23.38-15.73a61.42,61.42,0,0,1,5.7-2.3,59.28,59.28,0,0,1,10.14-2.69C167.87,371.24,176.51,378.58,181,382.53Z"/><path class="cls-4" d="M196.45,361.57v.13a20.34,20.34,0,0,1-2,9.38,17.72,17.72,0,0,1-3.6,4.85c-3.32-7.57-10.28-11.43-14.39-13.2a22.34,22.34,0,0,0,5.48-9.12A79.5,79.5,0,0,1,196.45,361.57Z"/><path class="cls-5" d="M185.2,324.93c.27,13.44-1.07,22.49-3.22,28.62h0l0,.07h0a25,25,0,0,1-3.94,7.45,15.44,15.44,0,0,1-1.49,1.6,13.6,13.6,0,0,1-3.16,2.25c-3.55,1.82-6.52,1.34-12.15,2.28a67.48,67.48,0,0,0-15.84,5l-.16.08-.16.07h0A30,30,0,0,0,134.88,380c-1.77,2.07-6,7.11-4.4,10.93,1.31,3.08,5.8,3.85,8.37,4.26,6,.95,10.6-.4,19.3-3.41,4-1.38,7.37-2.6,10.24-3.69l0,0c3.76-1.44,6.64-2.66,9-3.76,1.45-.68,2.72-1.31,3.85-1.92,1.37-.73,2.56-1.43,3.71-2.14a35.46,35.46,0,0,0,5.85-4.32h0a18.51,18.51,0,0,0,2-2.24,17.81,17.81,0,0,0,1.66-2.68,20.32,20.32,0,0,0,2-9.37v-.13h0c0-8.57.78-22.89,1.87-41.84Z"/><path class="cls-2" d="M278,327c.12.49-1.17,13,4.13,21h0a13.94,13.94,0,0,0,5.67,5,40.15,40.15,0,0,0,4.19,1.66c3.3,1.11,6.86,2,10.37,2.94,5.49,1.54,10.88,3.39,15,7.06h0a20.37,20.37,0,0,1,5.67,8.47c5.57,15.34-21.67,9.06-26.75,5.76l-.3-.22c-1.69-1.31-4.9-3.52-8.35-5.7a79.91,79.91,0,0,0-9.8-5.46,8.17,8.17,0,0,0-2.81-.83,8.46,8.46,0,0,1-7.81-7.78h0a12.75,12.75,0,0,1,.17-3.89c1.54-8.16,1.23-29.53.62-32"/><path class="cls-4" d="M292,354.65c-3.7,2.91-11.2,9-14.15,12.85a8.39,8.39,0,0,0-2.82-.83,8.47,8.47,0,0,1-7.81-7.78c2.3-2,10.55-9.15,14.92-10.9a13.78,13.78,0,0,0,5.66,5A38.23,38.23,0,0,0,292,354.65Z"/><path class="cls-4" d="M317.35,364.61c-4.67.48-13.15,3-21.08,14.23l-.31-.22c-1.68-1.3-4.89-3.52-8.34-5.7,3.79-4.61,10.36-12.24,14.72-15.37C307.83,359.09,313.22,360.94,317.35,364.61Z"/><path class="cls-5" d="M323.08,373.12a20.37,20.37,0,0,0-5.67-8.47h0a22.36,22.36,0,0,0-3.35-2.46,46.46,46.46,0,0,0-11.72-4.64l0,0c-3.49-1-7-1.82-10.29-2.92a40.15,40.15,0,0,1-4.19-1.66,13.94,13.94,0,0,1-5.67-5h0c-5.3-7.94-4-20.49-4.13-21l-10-4c.61,2.46.92,23.83-.62,32a13.38,13.38,0,0,0-.18,3.83l-.07.06a8.47,8.47,0,0,0,7.81,7.78,8.39,8.39,0,0,1,2.82.83l0,0,.05,0a80.88,80.88,0,0,1,9.74,5.42h0c3.45,2.18,6.66,4.4,8.34,5.7l.31.22h0l.06,0C301.41,382.18,328.65,388.46,323.08,373.12Z"/><path class="cls-7" d="M124,151.17c.79-3.64,16.19-70.93,80.59-80.71a.48.48,0,0,0,.26-.82c-2.13-2-8.49-7.43-11.68-10.17a.48.48,0,0,1,.47-.81,81.12,81.12,0,0,1,11,4.52.46.46,0,0,0,.6-.11c1.46-1.76,8.59-10.4,8.89-10.59s-4.41,11.35-4.08,11.57,17.52-12.46,24.46-11.58h0c.07.1-17.89,13-16.32,16,.6,1.14,3.81.54,4.53.42,11.62-2,37,7.1,54.72,21.93,25.82,21.6,31.08,51.73,32.17,59.64.7,5.05.51,15.11.15,35.24-.32,17.45-.86,31.78-1.29,41.43a.58.58,0,0,0,0,.19c4.61,12.72,7.17,18.09,9.39,19.27,3.48,1.85-5.36,2.28-8.68-4.67a.48.48,0,0,0-.89.09c-.68,2.72-1.47,9.15,4.52,13.48l.06.05c.56.6,9.31,10.06-5.35.33a.49.49,0,0,0-.73.27c-1,3.76-5.3,23.1,10.85,21.31a.47.47,0,0,1,.52.56c-.71,3-14.47,14.76-20.6,13.09-6,.12.49,7.21,5,8s7.7,1.34,5.5,2.32-15.53,4.16-18.47,3.79-.61,7,4.28,8.68.13,5.14-3.18,4.41-10-2.74-9.9.1,3.3,6.26,3.42,7.11-17.95,8.06-39.71-12.32a.18.18,0,0,0-.07-.05c-4.84-3.12-3.73,3.83,4.32,10.78,4.28,5.26-17.24,6.85-35.22-10.88-.12-.12-13.52,14.23-33.68,12.33a.48.48,0,0,1-.33-.77c1.67-2.16,6.17-8.93,6.38-9.85.24-1.1-11.86,7.22-21.52,5.26-1.22-.49,6.31-11.56-2.13-11.74a.32.32,0,0,0-.14,0c-8.43,2-13,17.51-31.53,13.67a.47.47,0,0,1-.31-.71c1.27-2.05,6.53-8.92,3.42-16.82a.47.47,0,0,0-.47-.3c-4.89.27-13.65-.89-15.62-3.1a.47.47,0,0,1,.07-.69c1.73-1.34,8.84-8.25,5.6-13.9a.47.47,0,0,0-.3-.23c-5.89-1.49-19.27-16.12-16.22-27.42a.47.47,0,0,1,.78-.21c2.61,2.54,10.17,18.47,15.61,3.9a.31.31,0,0,0,0-.13c.62-6.38,2.2-55.6,3-62.06s1.1-22.62-.61-22.62-4.52,7.58-5.74,7.71,2.59-18,3.88-25.82a.48.48,0,0,0-.72-.48c-1.87,1.18-6.15,4-7.69,2.82-1.83-1.38,7.29-9.41,8.45-10.42A.44.44,0,0,0,124,151.17Z"/><path class="cls-5" d="M123.88,151.17c.78-3.64,16.18-70.93,80.59-80.71a.47.47,0,0,0,.25-.82c-2.12-2-8.49-7.43-11.67-10.17a.47.47,0,0,1,.46-.81,80.59,80.59,0,0,1,11,4.52.46.46,0,0,0,.6-.11c1.46-1.76,8.59-10.4,8.89-10.59s-4.41,11.35-4.08,11.57,17.53-12.46,24.47-11.58h0c.08.1-17.88,13-16.31,16,.59,1.14,3.81.54,4.52.42,11.63-2,37,7.1,54.72,21.93,25.83,21.6,31.09,51.73,32.18,59.64.69,5.05.51,15.11.14,35.24-.31,17.45-.85,31.78-1.28,41.43a.58.58,0,0,0,0,.19c4.6,12.72,7.17,18.09,9.39,19.27,3.47,1.85-5.36,2.28-8.68-4.67a.48.48,0,0,0-.89.09c-.68,2.72-1.48,9.15,4.52,13.48l.06.05c.55.6,9.3,10.06-5.36.33a.48.48,0,0,0-.72.27c-1,3.76-5.3,23.1,10.84,21.31a.47.47,0,0,1,.53.56c-.71,3-14.47,14.76-20.6,13.09-6,.12.49,7.21,5,8s7.7,1.34,5.5,2.32-15.53,4.16-18.46,3.79-.61,7,4.28,8.68.12,5.14-3.18,4.41-10-2.74-9.91.1,3.31,6.26,3.43,7.11-18,8.06-39.71-12.32l-.07-.05c-4.85-3.12-3.73,3.83,4.32,10.78,4.28,5.26-17.25,6.85-35.22-10.88-.12-.12-13.53,14.23-33.68,12.33a.48.48,0,0,1-.33-.77c1.67-2.16,6.17-8.93,6.37-9.85.25-1.1-11.86,7.22-21.52,5.26-1.22-.49,6.32-11.56-2.13-11.74a.36.36,0,0,0-.14,0c-8.43,2-13,17.51-31.53,13.67a.47.47,0,0,1-.31-.71c1.27-2.05,6.54-8.92,3.43-16.82a.49.49,0,0,0-.47-.3c-4.9.27-13.65-.89-15.62-3.1a.46.46,0,0,1,.06-.69c1.74-1.34,8.85-8.25,5.61-13.9a.52.52,0,0,0-.3-.23c-5.89-1.49-19.27-16.12-16.23-27.42a.47.47,0,0,1,.78-.21c2.62,2.54,10.17,18.47,15.62,3.9l0-.13c.61-6.38,2.2-55.6,3-62.06s1.1-22.62-.61-22.62-4.53,7.58-5.75,7.71,2.59-18,3.88-25.82A.47.47,0,0,0,123,159c-1.86,1.18-6.14,4-7.68,2.82-1.84-1.38,7.29-9.41,8.45-10.42A.5.5,0,0,0,123.88,151.17Z"/><ellipse class="cls-8" cx="212.41" cy="161.99" rx="33.29" ry="37.79"/><ellipse class="cls-9" cx="221.09" cy="165.37" rx="18.97" ry="21.54"/><ellipse class="cls-10" cx="221.67" cy="164.79" rx="6.84" ry="7.77"/><ellipse class="cls-8" cx="228.51" cy="159.2" rx="5.56" ry="6.31"/><ellipse class="cls-8" cx="276.44" cy="161.18" rx="30.74" ry="34.9"/><ellipse class="cls-9" cx="284.46" cy="164.3" rx="17.52" ry="19.89"/><ellipse class="cls-10" cx="285" cy="163.77" rx="6.32" ry="7.17"/><ellipse class="cls-8" cx="291.32" cy="158.6" rx="5.14" ry="5.83"/><path class="cls-11" d="M227.4,104.64c-.25-.18-9.69-8.48-12.42-7.45s-4.52,4.19-.58,7.45c0,.08-14-4.8-13.7,3.16-.17-.34-11.38-.51-6.33,6.16-.43-.17-9.15,3.34-6.33,8.73,14.91-9,22.23-9.78,26.16-8.65a38.14,38.14,0,0,0,6.78,1.21c4.37.39,8.07.72,9.42-1.2S230.47,108.2,227.4,104.64Z"/><path class="cls-11" d="M263.37,106.43c.22-.15,8.16-7.13,10.45-6.27s3.81,3.53.5,6.27c0,.07,11.8-4,11.52,2.66.14-.29,9.57-.43,5.32,5.18.36-.14,7.71,2.81,5.33,7.35-12.54-7.53-18.7-8.23-22-7.29a30.21,30.21,0,0,1-5.71,1c-3.67.33-6.78.61-7.92-1S260.79,109.43,263.37,106.43Z"/><g class="cls-12"><ellipse class="cls-13" cx="181.14" cy="95.97" rx="15.65" ry="7.83" transform="translate(-18.38 143.04) rotate(-41.19)"/><ellipse class="cls-13" cx="151.98" cy="130.21" rx="24.32" ry="12.5" transform="translate(-31.46 210.24) rotate(-64.16)"/></g><path class="cls-14" d="M255.51,224.22A56.68,56.68,0,0,0,278.3,218c3.8-2,7.47-4.61,11.89-3.68,4.63,1,7.37,5.23,8.41,6.87,7.41,11.54,5.7,33.95-7.31,48.62-8.35,9.42-18.63,12.58-24.62,14.34-1.75.51-44.17,12.28-66.3-14.53-12.05-14.6-16.14-38.28-6.87-51.18,1.37-1.91,4-5.53,8.59-7,9.12-3,16.26,5.53,31.77,10.13A67.38,67.38,0,0,0,255.51,224.22Z"/><path class="cls-15" d="M301.06,251.67a46.84,46.84,0,0,1-9.81,18.17c-8.35,9.42-18.64,12.58-24.63,14.34-1.74.51-44.16,12.28-66.29-14.53a49.91,49.91,0,0,1-6.37-10c4.73-7.67,9.56-10.64,12.86-12,15.08-6.11,25.11,10.75,47,8,10.51-1.32,10.81-5.52,22.87-6.83A57.21,57.21,0,0,1,301.06,251.67Z"/><path class="cls-16" d="M221.2,216.45c-1.26,9.38-9.52,15.69-16.93,14.74-5.21-.68-10-4.94-12-10.88.36-.63.76-1.24,1.18-1.83,1.38-1.91,4-5.53,8.59-7C208.28,209.4,213.57,212.69,221.2,216.45Z"/><path class="cls-16" d="M295.5,217.31c-.57,11.9-6.81,19.55-11.44,19.48-4.26-.06-9.43-6.67-10.95-16.39a48.59,48.59,0,0,0,5.18-2.37c3.8-2,7.47-4.6,11.89-3.67A10.92,10.92,0,0,1,295.5,217.31Z"/><path class="cls-16" d="M213.32,280.34a44,44,0,0,1-13-10.69,48.57,48.57,0,0,1-4.63-6.7c7-7.28,15.57-9.3,19.37-6.68C219.37,259.23,220.4,270,213.32,280.34Z"/><path class="cls-16" d="M247.16,287.1a73.2,73.2,0,0,1-23.68-2.58c-.18-11.47,5.15-20.15,11.75-21.62,3.48-.77,8.68.16,11.49,3.63,2.06,2.55,2.11,5.56,2.19,9.42A33.08,33.08,0,0,1,247.16,287.1Z"/><path class="cls-16" d="M283,277a57.46,57.46,0,0,1-16.34,7.14c-.38.11-2.71.77-6.34,1.43-1.64-3.4-3.77-9.59-1.52-15.9.6-1.69,1.79-5,5.06-6.79a11.41,11.41,0,0,1,11,.58C279.89,266.59,282.19,273.8,283,277Z"/><path class="cls-16" d="M300.77,252.75c-.14.46-.29.92-.45,1.37a46,46,0,0,1-9,15.72,43.7,43.7,0,0,1-3.53,3.54c-7-6.36-7-16-2.82-20.14a9,9,0,0,1,3.58-2.08A15.89,15.89,0,0,1,300.77,252.75Z"/><path class="cls-16" d="M246.2,223.94c-2.25,8.65-9.1,13.68-13.93,13-5.41-.78-11.26-9.14-9.14-19.54a74.12,74.12,0,0,0,10.72,4.18A64.5,64.5,0,0,0,246.2,223.94Z"/><path class="cls-16" d="M259.84,237.49c-4.42,0-9.81-5.39-10.78-13.34,2,.12,4.16.15,6.44.07a62,62,0,0,0,15.22-2.95C271.18,230.84,264.82,237.52,259.84,237.49Z"/><path class="cls-17" d="M292.92,267.88c.38-.49.75-1,1.11-1.49l.25-.35c.38-.54.75-1.08,1.1-1.63l.1-.15q1.18-1.87,2.19-3.84l.1-.21c.3-.6.59-1.21.87-1.82l.07-.16c5.87-13.17,5.52-28.23-.11-37a18.75,18.75,0,0,0-4.2-4.85h0c-.19-.15-.39-.29-.6-.43l0,0c-.2-.14-.4-.26-.61-.39l0,0-.65-.35h0a9.74,9.74,0,0,0-2.26-.79,9.92,9.92,0,0,0-5.45.46,46.73,46.73,0,0,0-6.45,3.22q-1.08.57-2.31,1.14l-.21.1-1.09.48-.21.09c-.44.19-.89.38-1.36.56h0c-.76.3-1.56.59-2.39.87h0c-1.51.51-3.14,1-4.91,1.4l-.34.08c-.45.1-.91.21-1.38.3l-.55.11-1.27.24-.65.11-1.28.19-.69.1-1.4.17-.63.07-2.06.19h-.05l-1.75,0h-2l-1.24,0-1.06-.05c-1.2-.06-2.35-.14-3.46-.25l-1.25-.14-.73-.09-1.18-.16-.75-.12-.74-.12-.81-.14-.52-.1a62,62,0,0,1-6.12-1.49C223,218.34,216.24,213.2,210,211.44l-.15-.05c-.49-.13-1-.24-1.46-.33l-.28-.05-.39-.07-.51-.06-.41,0-.39,0-.32,0h-.87l-.51,0-.25,0c-.24,0-.47.06-.71.1l-.09,0-.66.14-.2.05-.76.22c-4.61,1.51-7.21,5.14-8.59,7-.27.38-.53.77-.78,1.16a2,2,0,0,0-.11.2c-.1.16-.2.31-.29.47v0c-6,10.35-4.71,26.22,1.67,39.31l0,0a50.6,50.6,0,0,0,6.36,10c10.8,13.08,26.43,17,39.8,17.48h0l1.3,0h4l.54,0,.77,0,.42,0h0a98.66,98.66,0,0,0,13.15-1.49h0c3.64-.67,6-1.32,6.35-1.43,1.1-.32,2.36-.7,3.71-1.15l.23-.07.64-.22.65-.23.38-.14.55-.2.35-.13.8-.31.11-.05,1-.4.19-.08.88-.39.13-.06c.71-.32,1.43-.66,2.16-1l0,0a43.69,43.69,0,0,0,10.18-7.12l0,0c.89-.84,1.77-1.73,2.63-2.7.49-.56,1-1.13,1.42-1.7Z"/><path class="cls-4" d="M280.51,27.72a9.13,9.13,0,0,0-4.51-1.8c-3.51-.34-6.26,1.73-7.52,2.68-7.41,5.57-13.45,29-13.45,47.12,0,3.35,6.21,7.54,7.63,6.77.84-.46.41-2.73.26-3.56-1.62-9.25-.91-30.45,5.68-33.29,4.14-1.78,10.49,3.74,12.49,1.33a2.21,2.21,0,0,0,.47-1.31"/><ellipse class="cls-18" cx="279.29" cy="37.19" rx="5.68" ry="10.03" transform="translate(-2.25 26.13) rotate(-5.34)"/><path class="cls-5" d="M281.19,46.65c-3.54.33-6.84-4-7.37-9.61s1.92-10.47,5.47-10.8"/><path class="cls-5" d="M262.66,81.78c.84-.46.41-2.73.26-3.56C261.3,69,262,47.77,268.6,44.94c4.14-1.79,10.49,3.73,12.49,1.32l0,0c2.62-1,4.29-5.31,3.83-10.28-.39-4.21-2.21-7.67-4.43-8.94h0a9.13,9.13,0,0,0-4.51-1.8c-3.51-.34-6.26,1.73-7.52,2.68C261.07,33.46,255,56.92,255,75"/><path class="cls-19" d="M140.85,188.51a11.11,11.11,0,0,1-11.51,2q-1.11.15-2.43.39c-1.84.33-4,.79-6.24,1.44a61.75,61.75,0,0,0-12.85,5.26h0a60.45,60.45,0,0,0-17.24,14.12,64.47,64.47,0,0,0-7.47,11.06,72.6,72.6,0,0,0-6.45,17,71.28,71.28,0,0,0,2.55,41.75c1.83-1.8,7.65-7.17,13.9-7.25a6,6,0,0,1,4.37,1.3c1.43,1.33,2.18,3.81,1.27,5.18s-3.63,4.46-7.49,1.74c-2.69-1.88-5.87.67-5.29,2.57.15.5.83,1,3.3,1.71,7.54,2.12,10.63.5,12.82,2.69,1.79,1.79,2.22,5.34.64,7.21A5.11,5.11,0,0,1,97,297.72c-2.41-1.15-2-4-4.55-5a3.49,3.49,0,0,0-3.5.37c-1.47,1.44-.46,5.22,1.5,6.19,1.06.51,1.56-.18,3,.24a5.69,5.69,0,0,1,3.81,4.27,4.7,4.7,0,0,1-.81,4c-1.55,1.78-4.19,1.28-4.56,1.21a7.13,7.13,0,0,1-3.74-2.3c-2.37-2.39-2.13-4.31-4-5-1-.34-2.44-.32-2.94.42-1.19,1.76,4.5,5.5,3.49,8.8-.77,2.5-5.18,4.26-7.81,2.88a6.2,6.2,0,0,1-2.54-3.39,12.47,12.47,0,0,1-.85-5.16c0-7.25-4.16-8.4-3.79-15.42.11-2.1.55-3.18.2-5.6a16.12,16.12,0,0,0-2-5.76c-2.5-4.5-7.12-31.52,5.51-60.21.1-.23.21-.47.31-.71a124.34,124.34,0,0,1,5.78-11.63,66.63,66.63,0,0,1,15.12-18.23.69.69,0,0,0,.13-.11,94.17,94.17,0,0,1,12.75-8.73c5-2.93,10-5.38,14-7.19,5.05-2.29,8.52-3.56,8.52-3.56h.49c5.92,0,11,3.4,12.78,8.34C144.58,179.8,144.61,185,140.85,188.51Z"/><path class="cls-4" d="M120.67,192.33l-12.85,5.26h0a42,42,0,0,0-13-10,94.17,94.17,0,0,1,12.75-8.73A38.24,38.24,0,0,1,120.67,192.33Z"/><path class="cls-4" d="M90.57,211.71a64.47,64.47,0,0,0-7.47,11.06,38.79,38.79,0,0,0-9.63-4.51c.1-.23.21-.47.31-.71a124.34,124.34,0,0,1,5.78-11.63A37.23,37.23,0,0,1,90.57,211.71Z"/><path class="cls-4" d="M74.78,257.27a35,35,0,0,0-9.48-5.12,101.59,101.59,0,0,1,1.56-13,38.11,38.11,0,0,1,9,3.62A68.77,68.77,0,0,0,74.78,257.27Z"/><path class="cls-5" d="M143.39,176.43c-1.74-4.94-6.86-8.34-12.78-8.34h-.49s-3.47,1.27-8.52,3.56c-4,1.81-9,4.26-14,7.19a94.17,94.17,0,0,0-12.75,8.73.69.69,0,0,1-.13.11,66.63,66.63,0,0,0-15.12,18.23,124.34,124.34,0,0,0-5.78,11.63c-.1.24-.21.48-.31.71a99.19,99.19,0,0,0-6.55,20.94l-.06,0q-.64,3.48-1,6.77c-2.12,16.68.46,29.54,2.12,32.52a16.12,16.12,0,0,1,2,5.76c.35,2.42-.09,3.5-.2,5.6-.37,7,3.79,8.17,3.79,15.42a12.47,12.47,0,0,0,.85,5.16A6.2,6.2,0,0,0,77,313.8c2.63,1.38,7-.38,7.81-2.88,1-3.3-4.68-7-3.49-8.8.5-.74,2-.76,2.94-.42,1.85.65,1.61,2.57,4,5a7.13,7.13,0,0,0,3.74,2.3c.37.07,3,.57,4.56-1.21a4.7,4.7,0,0,0,.81-4,5.69,5.69,0,0,0-3.81-4.27c-1.47-.42-2,.27-3-.24-2-1-3-4.75-1.5-6.19a3.49,3.49,0,0,1,3.5-.37c2.55,1,2.14,3.86,4.55,5a5.11,5.11,0,0,0,5.71-1.09c1.58-1.87,1.15-5.42-.64-7.21-2.19-2.19-5.28-.57-12.82-2.69-2.47-.7-3.15-1.21-3.3-1.71-.58-1.9,2.6-4.45,5.29-2.57,3.86,2.72,6.55-.34,7.49-1.74s.16-3.85-1.27-5.18a6,6,0,0,0-4.37-1.3c-6.25.08-12.07,5.45-13.9,7.25a72.52,72.52,0,0,1-4.55-24.3l.13.09a68.85,68.85,0,0,1,.5-10.35,71.25,71.25,0,0,1,1.37-7.19,72.6,72.6,0,0,1,6.45-17,64.47,64.47,0,0,1,7.47-11.06,60.45,60.45,0,0,1,17.24-14.12h0l12.85-5.26c2.29-.65,4.4-1.11,6.24-1.44q1.32-.24,2.43-.39a11.11,11.11,0,0,0,11.51-2C144.61,185,144.58,179.8,143.39,176.43Z"/><path class="cls-20" d="M179,78.56A38.64,38.64,0,0,1,180,85a39,39,0,0,0-2-6.18l1-.3Z"/><path class="cls-20" d="M263.56,79.82a32.23,32.23,0,0,0,.85,8,32.26,32.26,0,0,1-1.85-7.89l1-.06Z"/><path class="cls-20" d="M255.52,74.91a32.81,32.81,0,0,0,.86,8,32.33,32.33,0,0,1-1.85-7.9l1-.06Z"/><path class="cls-4" d="M182.69,67.13C180,59,176.15,47.7,166,40.85a32.81,32.81,0,0,0-10.66-4.61h0a4.21,4.21,0,0,0-1.64-.33c-4.14,0-7.51,6.27-7.51,14s3.37,14,7.51,14c3,0,5.57-3.25,6.78-7.95a4.87,4.87,0,0,1,3.08-1.59c7.62-.56,14.44,22.54,15.13,24.93l6.49-3.15A77,77,0,0,0,182.69,67.13Zm-30.12-6.92c-3.06,0-5.53-4.62-5.53-10.31s2.47-10.31,5.53-10.31,5.53,4.62,5.53,10.31S155.62,60.21,152.57,60.21Z"/><path class="cls-18" d="M158.1,49.9c0,5.69-2.48,10.31-5.53,10.31S147,55.59,147,49.9s2.47-10.31,5.53-10.31S158.1,44.21,158.1,49.9Z"/><path class="cls-5" d="M185.13,76.14a77,77,0,0,0-2.44-9C180,59,176.15,47.7,166,40.85a32.81,32.81,0,0,0-10.66-4.61h0a4.21,4.21,0,0,0-1.64-.33c-4.14,0-7.51,6.27-7.51,14s3.37,14,7.51,14c3,0,5.57-3.25,6.78-7.95a4.87,4.87,0,0,1,3.08-1.59c7.62-.56,14.44,22.54,15.13,24.93M152.57,60.21c-3.06,0-5.53-4.62-5.53-10.31s2.47-10.31,5.53-10.31,5.53,4.62,5.53,10.31S155.62,60.21,152.57,60.21Z"/><path class="cls-5" d="M158.1,49.9c0,5.69-2.48,10.31-5.53,10.31S147,55.59,147,49.9s2.47-10.31,5.53-10.31S158.1,44.21,158.1,49.9Z"/><path class="cls-20" d="M185.62,76a39,39,0,0,1,.3,6.56,38.94,38.94,0,0,0-1.28-6.36l1-.2Z"/><path class="cls-21" d="M394.06,275.2c-.19-.55-.39-1.1-.61-1.66-3.58-8.85-11.7-18.18-18.72-25.14-1.32-1.3-2.59-2.52-3.8-3.64-.8-.75-1.57-1.45-2.29-2.1-3.61-3.25-6.11-5.22-6.11-5.22l-2.51-2-10.16-8-13.15-10.32-17.55-13.76-7.52-5.91-2.09-1.63c.08-3.27.16-6.66.22-10.19.36-20.13.55-30.19-.15-35.24-1.09-7.91-6.35-38-32.17-59.64A101.47,101.47,0,0,0,263.25,81l-.09-.53a12.92,12.92,0,0,0-.24-2.21,61.88,61.88,0,0,1-.73-9.7c0-9.66,1.75-20.87,6.41-22.88,4.14-1.78,10.49,3.74,12.49,1.33l0,0c2.38-.92,4-4.56,3.9-9a20,20,0,0,0-.07-2c-.39-4.21-2.21-7.67-4.43-8.94h0a11.68,11.68,0,0,0-1.22-.75v0h0a8.46,8.46,0,0,0-3.26-1c-3.51-.34-6.26,1.73-7.52,2.68C261.08,33.45,255,56.87,255,75h0V75h0v.71a2.92,2.92,0,0,0,.14.86s0,.09,0,.15c-10.82-5.15-21.51-8.11-28.91-8.12a20.94,20.94,0,0,0-3.67.27,16.87,16.87,0,0,1-2.27.26c-.93,0-1.84-.13-2.13-.68-1.57-3,16.39-15.89,16.32-16h0a6.06,6.06,0,0,0-.75,0c-7-.11-22.21,10.88-23.71,11.58-.19-.53,4.4-11.75,4.08-11.53a.63.63,0,0,0-.14.13c0-.1,0-.15,0-.13-.3.19-7.43,8.83-8.89,10.59a.41.41,0,0,1-.25.15.43.43,0,0,1-.22,0,81.12,81.12,0,0,0-11-4.52.37.37,0,0,0-.23,0,.47.47,0,0,0-.36.82c3.18,2.74,9.55,8.22,11.67,10.17a.47.47,0,0,1-.25.82A91.58,91.58,0,0,0,185,75.59a76.62,76.62,0,0,0-2.32-8.46C180,59,176.15,47.7,166,40.85a32.81,32.81,0,0,0-10.66-4.61h0a4.21,4.21,0,0,0-1.64-.33c-4.14,0-7.51,6.27-7.51,14s3.37,14,7.51,14c3,0,5.57-3.25,6.78-7.95a4.89,4.89,0,0,1,3.08-1.59c7.08-.52,13.47,19.38,14.89,24.12-42.67,20.74-53.86,69.6-54.52,72.69a.5.5,0,0,1-.15.25c-1.16,1-10.29,9-8.45,10.42a1.72,1.72,0,0,0,1.14.27c1.93,0,5.13-2.11,6.67-3.09a.41.41,0,0,1,.59.48c-.5,3.05-1.39,7.71-2.21,12.22l-2.27,1.05c-.8.38-1.62.77-2.46,1.19-1.16.56-2.35,1.17-3.57,1.8-1.83,1-3.72,2-5.61,3.09a94.17,94.17,0,0,0-12.75,8.73l-.11.09,0,0a63.69,63.69,0,0,0-6.79,6.59l-.46.53q-1.62,1.86-3,3.73c-.71,1-1.4,1.89-2,2.84-1,1.53-2,3.05-2.83,4.54a121.92,121.92,0,0,0-5.78,11.63c-.1.24-.21.48-.31.71-.4.9-.78,1.8-1.14,2.69a3.42,3.42,0,0,1-.13.34c-.31.78-.62,1.56-.91,2.34,0,.08-.05.16-.08.25-.3.8-.59,1.61-.86,2.41v0c-.29.88-.58,1.75-.84,2.62v0a98.93,98.93,0,0,0-2.57,10.24l-.06,0h0q-.64,3.48-1,6.77c-.26,2.05-.45,4.05-.58,6v.2c-.19,2.87-.24,5.58-.19,8.1v.15c0,2.5.2,4.81.42,6.89a1.23,1.23,0,0,0,0,.2c.06.63.14,1.24.21,1.83a.77.77,0,0,1,0,.15c.17,1.24.36,2.38.56,3.41a2.33,2.33,0,0,0,0,.28c.08.41.17.8.25,1.17l.06.27c.21.85.42,1.6.62,2.22l.09.26c.08.21.15.42.22.6l.09.21c.1.23.2.44.29.61a15.6,15.6,0,0,1,1.24,2.68,15.9,15.9,0,0,1,.77,3.08,13.9,13.9,0,0,1-.07,4.18c-.05.43-.1.89-.13,1.42-.37,7,3.78,8.17,3.79,15.42a12.47,12.47,0,0,0,.85,5.16,11.5,11.5,0,0,0,.91,1.83,5.28,5.28,0,0,0,.69.87,3.63,3.63,0,0,0,.94.69,4.89,4.89,0,0,0,2.78.45c2.23-.23,4.5-1.6,5-3.33,1-3.3-4.68-7-3.49-8.8a1,1,0,0,1,.23-.24,2.07,2.07,0,0,1,1.07-.37,2.88,2.88,0,0,1,.42,0,4,4,0,0,1,1.22.21c1.85.65,1.61,2.57,4,5a7.13,7.13,0,0,0,3.74,2.3,5.91,5.91,0,0,0,1.2.12,5,5,0,0,0,2.43-.59,3.57,3.57,0,0,0,.93-.74h0a4.7,4.7,0,0,0,.81-4,5.69,5.69,0,0,0-3.81-4.27c-1.47-.42-2,.27-3-.24-2-1-3-4.75-1.5-6.19a2.45,2.45,0,0,1,1.44-.61l.19,0a4.37,4.37,0,0,1,1.87.28c2.55,1,2.14,3.86,4.55,5a5,5,0,0,0,3,.35,6.69,6.69,0,0,0,.77-.2,4.66,4.66,0,0,0,1.36-.72,4.42,4.42,0,0,0,.54-.52,4.22,4.22,0,0,0,.82-1.67,5.05,5.05,0,0,0,.14-1,6.11,6.11,0,0,0-1.6-4.58,3.89,3.89,0,0,0-1.35-.88,4.48,4.48,0,0,0-.52-.16c-2.14-.57-5.29-.06-10.95-1.65-2.47-.7-3.15-1.21-3.3-1.71a2.37,2.37,0,0,1,1-2.41,3.78,3.78,0,0,1,.61-.4L88,282a3.43,3.43,0,0,1,3.29.41,4.87,4.87,0,0,0,3.76,1l.2,0a4.84,4.84,0,0,0,1.34-.55,6.79,6.79,0,0,0,1.17-.92,8.53,8.53,0,0,0,.59-.66c.17-.21.31-.41.43-.59.91-1.37.16-3.85-1.27-5.18a5.59,5.59,0,0,0-3.92-1.3H93.1a13.77,13.77,0,0,0-5,1.1c-.57.23-1.13.48-1.67.76-.34.17-.68.35-1,.54A28.18,28.18,0,0,0,82,279c-.5.39-1,.78-1.35,1.13-.61.53-1.09,1-1.43,1.33-.13-.34-.27-.73-.41-1.13,0-.12-.09-.24-.13-.37-.12-.33-.24-.69-.36-1.06a4.56,4.56,0,0,1-.14-.44c-.13-.39-.26-.82-.4-1.25l-.21-.72c-.08-.29-.17-.59-.25-.89s-.25-.91-.37-1.38c-.08-.31-.16-.61-.23-.93s-.18-.73-.26-1.1-.11-.49-.16-.74c-.17-.78-.33-1.59-.48-2.42,0-.15,0-.28-.08-.43-.08-.45-.15-.92-.23-1.39,0-.23-.07-.48-.1-.72-.22-1.53-.41-3.14-.53-4.82,0-.29,0-.58-.06-.88,0-.51-.07-1-.09-1.55s0-1,0-1.56c0-.17,0-.34,0-.52l.13.09h0c0-1,0-2,0-3l0-1.12c0-.65.06-1.32.1-2,0-.44,0-.89.08-1.34.08-1,.17-1.93.3-2.92h0q.23-1.71.57-3.48a.17.17,0,0,1,0-.07c.23-1.2.49-2.41.79-3.64a72.6,72.6,0,0,1,6.45-17,64.47,64.47,0,0,1,7.47-11.06c1.22-1.45,2.54-2.89,4-4.29.54-.52,1.09-1,1.65-1.55a60.49,60.49,0,0,1,11.62-8.28h0l5.25-2.15,7.6-3.1a61.28,61.28,0,0,1,6.11-1.43c-.09,3.56-.32,7-.62,9.32-.85,6.46-2.44,55.68-3,62.06l0,.13c-1.68,4.48-3.55,6.07-5.43,6.06-4.16-.19-8.27-8.22-10.06-10a.45.45,0,0,0-.34-.12.47.47,0,0,0-.57.33c-3,11.3,10.34,25.93,16.23,27.42a.52.52,0,0,1,.3.23c3.24,5.65-3.87,12.56-5.61,13.9a.46.46,0,0,0-.06.69c1.74,1.95,8.75,3.08,13.74,3.14.67,0,1.31,0,1.89,0a.48.48,0,0,1,.46.29c3.11,7.9-2.16,14.77-3.43,16.82a.47.47,0,0,0,.31.71,28.28,28.28,0,0,0,5,.6c14.58.45,19-12.46,26.67-14.27h.09c8.32.25.84,11.24,2.05,11.73a16.63,16.63,0,0,0,3.74.29c8-.2,16.41-5.4,17.71-5.63,0,0,.09,0,.07.08-.2.92-4.7,7.69-6.37,9.85a.48.48,0,0,0,.33.77c1.28.12,2.53.17,3.76.17.56,0,1.11,0,1.65,0a121.12,121.12,0,0,1-.7,16.54c-.15,1.18-.31,2.3-.49,3.36s-.37,2.08-.58,3a45.43,45.43,0,0,1-1.45,5.17h0l0,.07h0c-.17.49-.35.95-.53,1.4l-.17.41c-.13.32-.27.63-.41.93-.06.13-.11.26-.17.38q-.28.6-.57,1.14l-.12.21c-.16.29-.32.57-.49.84l-.24.39-.39.6-.25.36c-.2.27-.4.54-.6.79a15.44,15.44,0,0,1-1.49,1.6,13.6,13.6,0,0,1-3.16,2.25c-3.55,1.82-6.52,1.34-12.15,2.28a67.48,67.48,0,0,0-15.84,5l-.16.08-.16.07h0q-1.53.74-2.91,1.56h0c-.45.27-.89.55-1.33.84l-.07.05c-.42.28-.82.56-1.21.85l-.18.14c-.36.27-.71.54-1.05.83-.11.08-.2.17-.31.26-.29.25-.59.5-.87.77s-.33.32-.49.48-.43.41-.64.63c-.36.38-.72.78-1.07,1.19l-.77.91a29.28,29.28,0,0,0-2.29,3.16c-1.32,2.18-2.27,4.71-1.34,6.86,1.31,3.08,5.8,3.85,8.37,4.26a23.16,23.16,0,0,0,8.62-.22c.75-.15,1.52-.33,2.32-.54l1.23-.33c2.09-.6,4.41-1.38,7.13-2.32,1-.34,2-.68,2.91-1l2.27-.81.38-.14c1.69-.6,3.22-1.17,4.64-1.72h0l0,0c.65-.24,1.26-.48,1.85-.72l.46-.18,1.62-.65.37-.15,1.15-.48.53-.23,1.2-.52.57-.25.69-.32.56-.26h0l1.9-.91.31-.16c.57-.29,1.13-.57,1.64-.85,1.37-.73,2.56-1.43,3.71-2.14a35.46,35.46,0,0,0,5.85-4.32h0a18.51,18.51,0,0,0,2-2.24c.3-.4.59-.82.86-1.25l0,0a15.74,15.74,0,0,0,.78-1.4A18.18,18.18,0,0,0,196,366.7a23.21,23.21,0,0,0,.49-5.06v-.13h0c0-8.11.7-21.37,1.7-38.82A49,49,0,0,0,213.52,313c10.73,10.55,22.7,14.24,29.7,14.37,4.81.13,7.33-1.4,5.59-3.54-6.51-5.62-8.48-11.25-6.43-11.53a3.68,3.68,0,0,1,2,.75l.07.05c8.93,8.37,17.25,12.09,23.94,13.5.07,1.51.12,3.37.15,5.43,0,1.14,0,2.34,0,3.57s0,2.49,0,3.77a107.06,107.06,0,0,1-1.09,15.6c-.06.36-.12.7-.16,1s0,.54-.06.8c0,.06,0,.12,0,.18a11.9,11.9,0,0,0,.05,1.81l-.07.06a8.47,8.47,0,0,0,7.81,7.78,4.39,4.39,0,0,1,1.19.22,15.87,15.87,0,0,1,1.63.61h0l0,0,.05,0,1,.46.58.29.53.26.75.4.44.23.83.45.41.23,1,.57.29.16,1,.61.28.16,1.09.67.22.13,1.21.75.08.05h0c.86.55,1.71,1.09,2.52,1.63,2.44,1.6,4.56,3.09,5.82,4.07l.31.22h0l.06,0c2.86,1.86,12.73,4.66,19.82,4,.4,0,.78-.08,1.16-.14a8.54,8.54,0,0,0,5.29-2.42,4.57,4.57,0,0,0,.51-.71,5.36,5.36,0,0,0,.71-2.74,9.28,9.28,0,0,0-.31-2.39c-.12-.44-.26-.9-.43-1.38a20.37,20.37,0,0,0-5.67-8.47h0a20,20,0,0,0-1.62-1.3l-.1-.07c-.53-.38-1.07-.75-1.63-1.09h0l-.23-.13c-.45-.27-.92-.53-1.39-.78l-.58-.28c-.38-.2-.77-.38-1.16-.56l-.57-.25c-.55-.24-1.1-.46-1.67-.68l-.21-.08c-.54-.2-1.08-.39-1.63-.57l-.59-.2-1.32-.41-.55-.17-1.82-.53,0,0c-2.45-.68-4.91-1.31-7.3-2l-.47-.13c-.85-.25-1.69-.51-2.52-.79a40.15,40.15,0,0,1-4.19-1.66,13,13,0,0,1-1.72-1,13.63,13.63,0,0,1-2.82-2.52,16.34,16.34,0,0,1-1.13-1.5h0a22.33,22.33,0,0,1-2.86-6.56,33.6,33.6,0,0,1-.74-3.44,54.24,54.24,0,0,1-.52-10.74c4-.37,6.27-1.49,6.22-1.8-.12-.85-3.3-4.28-3.42-7.11-.05-1.06.86-1.44,2.18-1.47,2.23,0,5.56.91,7.6,1.37a5,5,0,0,0,1.29.09c3.09-.12,6.35-3,2-4.5-4.85-1.69-7.16-8.91-4.34-8.68a6.12,6.12,0,0,0,.66,0c3.81,0,15.79-2.9,17.87-3.82s-1-1.59-5.5-2.32-10.93-7.75-5.1-7.94a5.14,5.14,0,0,0,1.27.15c6.56.13,18.74-10.42,19.41-13.25a.47.47,0,0,0-.52-.56h-.13c-.5.05-1,.09-1.44.1-14.29.39-10.26-17.77-9.28-21.41a.47.47,0,0,1,.42-.33.64.64,0,0,1,.18.06c5.11,3.39,7.37,4.45,8.13,4.37,1.75,0-2.28-4.3-2.65-4.7l-.06-.05c-6-4.33-5.2-10.76-4.52-13.48a.46.46,0,0,1,.38-.34.45.45,0,0,1,.39.25,10.18,10.18,0,0,0,8.41,5.84c1.25,0,1.71-.47.39-1.17-2.22-1.18-4.78-6.55-9.39-19.27a.58.58,0,0,1,0-.19c.07-1.49.14-3.1.21-4.81l1.76,1,4.94,2.8q2.46,1.4,4.87,2.73c4.41,2.45,8.67,4.76,12.6,6.8l3.81,1.95c3.71,1.87,7,3.43,9.74,4.57.42.17.87.35,1.35.56s1,.43,1.47.7a11.17,11.17,0,0,1,4.21,3.55,8,8,0,0,1,.45.76,9.15,9.15,0,0,1,.85,2.23,25.78,25.78,0,0,1,.47,5.63c0,2.69.05,6.11.52,10.79,0,.14,0,.29,0,.45a9.85,9.85,0,0,0,.45,2.15,5.48,5.48,0,0,0,.85,1.62l0,0a4,4,0,0,0,.71.72,4.67,4.67,0,0,0,2.58,1.09l.61.07,1.53.12c.84.08,1.79,1.78,3,3.2.17.21.35.4.53.59a5.48,5.48,0,0,0,.56.52,4.56,4.56,0,0,0,.59.42,2.54,2.54,0,0,0,2.39.18c.13-.05.25-.12.39-.19a6.52,6.52,0,0,0,1.66-1.48,5.32,5.32,0,0,0,.55-.79,5.66,5.66,0,0,0,.66-2.45,10,10,0,0,0-.29-2.77c-.11-.47-.25-1-.41-1.44-1.78-5.31-6.29-10.7-6.06-10.55h0a55.39,55.39,0,0,1,4.85,7.65v0c.21.42.4.85.58,1.27l.07.16q.27.63.48,1.26l.07.18c.14.4.24.8.34,1.2,0,.08,0,.16.07.24.09.38.15.76.2,1.13,0,.09,0,.19.05.29,0,.34,0,.67,0,1,0,.11,0,.24,0,.35a6.19,6.19,0,0,1-.15,1c0,.1,0,.21-.05.32a4.52,4.52,0,0,1-.46,1.17,6.93,6.93,0,0,0,3.17,1c.09,0,.17,0,.26,0a4.74,4.74,0,0,0,1-.11h0a3.6,3.6,0,0,0,2.75-2.39h0c.45,1.34.83,2.66,1.28,4C387,286.67,396.93,283.8,394.06,275.2Z"/><rect class="cls-1" x="-659.25" y="-270.76" width="1600" height="900"/></svg>