<svg id="Layer_1" data-name="Layer 1" xmlns="http://www.w3.org/2000/svg" viewBox="0 0 1004.19 491.29"><defs><style>.cls-1{fill:#fffcc0;}.cls-2{fill:#ffc50b;}.cls-3{fill:#f79c41;}.cls-4{fill:#d605cc;}</style></defs><path class="cls-1" d="M853.19,171.57c-.23-.11-2.62-1.2-6.37-2.8a20,20,0,0,0,5.85-14.13A123.53,123.53,0,0,1,854.56,136,20,20,0,0,0,842,113.6,20,20,0,0,0,824.2,86.35c-.58,0-14.45-.62-28.37-.82h-.3a20,20,0,0,0-19.18,14.34q-2.51,8.51-4.49,17.07a19.76,19.76,0,0,0-4.94,3.2A44.25,44.25,0,0,0,752,115l-.27,0a52.45,52.45,0,0,0-7.47-.54,48.93,48.93,0,0,0-9.86,1,20,20,0,0,0-16.51-1.26,62.74,62.74,0,0,1-12.5,2.67l-.25-.22a20,20,0,0,0-18.26-3.94c-4.33,1.21-11.57,1.94-19.37,1.94-1.44,0-2.37,0-2.49,0l-.74,0a20,20,0,0,0-10.9,3.23c-5.6-1-13.61-2.46-21.37-3.9A20,20,0,0,0,609.79,126a48.48,48.48,0,0,0-31.69-11.87h-.47a47.13,47.13,0,0,0-23.06,6.21c-2.14-16.24-8.86-35.9-29.94-46.31a62,62,0,0,0-28-6.67,65.76,65.76,0,0,0-32.33,8.74c-21.86,12.14-35,37-36.92,68.4-9.22-18.36-26-29.77-46.25-29.77H380a55.17,55.17,0,0,0-6.46.55A20,20,0,0,0,361,110.89a20.67,20.67,0,0,0-2.71.18c-.33.05-5.15.71-11.61,1.71a37.79,37.79,0,0,0-1.22-9,3,3,0,0,0-.08-.32C341.48,89.4,328.25,80,312.42,80a41.25,41.25,0,0,0-16.75,3.62c-13.45,5.82-21.76,18.06-22.19,31.3-6-.69-11.73-1.77-14.17-2.3a17.7,17.7,0,0,0-2-.33c.66-12.72,1.55-25,2.63-36a20,20,0,0,0-19.9-22,20.39,20.39,0,0,0-2.8.2c-17.49,2.47-33.69,5.5-34.37,5.62a20,20,0,0,0-16.28,18.42,71.52,71.52,0,0,0-40.81-12.62c-1.84,0-3.72.07-5.58.2-35,2.48-52.46,29.89-51.66,55.6.5,18.46,9,31.29,19.4,40.49a322.44,322.44,0,0,0-18.6,27,20,20,0,0,0,.7,21.6c15.56,22.6,39.5,35,67.41,35a67.67,67.67,0,0,0,32.73-8.32,20,20,0,0,0,20.69,8.74c.15,0,15.56-3.06,27.55-3.06.63,0,1.27,0,1.9-.09a19.93,19.93,0,0,0,24.34,5.36,97.06,97.06,0,0,1,20-6.65,20,20,0,0,0,15.87,4.39c5-.78,10-1.48,14.35-2.06-.68,10.63-1.55,20.36-2.57,28.5a20,20,0,0,0,19.8,22.5c3.93,0,16.08.73,25,3.79a19.95,19.95,0,0,0,18.55-3c1.21,28.11-.32,55.78-3.68,71.36a20,20,0,0,0,12.86,23.07c14.9,5.29,30.39,6.4,40.76,6.4a118,118,0,0,0,33.72-4.51,62,62,0,0,0,8.22-3.19q-3.21,4.26-6.54,7.9a20,20,0,0,0,2.63,29.43c.56.43,13.95,10.61,28,20.78A20,20,0,0,0,520,442.16c16-23.83,27.42-62.36,38.48-99.62,5.52-18.58,10.72-36.13,16-49.91A20,20,0,0,0,559,265.78c-13.38-2.2-28.74-4.82-28.89-4.85a20.3,20.3,0,0,0-3.38-.29,20,20,0,0,0-16.76,9.09,20,20,0,0,0-6.16-1l-.78,0c-4.62.17-9.21.51-13.44.9,0-.25-.06-.49-.1-.74a53.06,53.06,0,0,0-11.22-26,64.59,64.59,0,0,0,18,2.56c13.47,0,26.15-4.21,35.71-11.86a80,80,0,0,0,6.28-5.5c11.29,12.78,27,17.83,40.22,17.83,1.17,0,2.35,0,3.55-.12a55.46,55.46,0,0,0,17.85-4.24c-3.92,7-9.64,17.67-14.61,29A20,20,0,0,0,598.83,298c-.4,25.58-3.22,58.31-7.17,79.13a20,20,0,0,0,26.41,22.55c10.18-3.65,25.4-4.49,30.38-4.51a20,20,0,0,0,15.1-6.89,19.42,19.42,0,0,0,1.82-2.45,68.47,68.47,0,0,0,37.57,13.18h.15c.81,0,1.62,0,2.44,0a69.84,69.84,0,0,0,51.52-23.34c11.18-12.37,23.74-34.72,20.08-70.93-2.74-27.35-12.06-47.56-24.22-61.19,3.63.57,7.49,1.22,11.22,1.9a20.42,20.42,0,0,0,3.63.33,20,20,0,0,0,17.64-10.62,43.86,43.86,0,0,0,20.94,9.89,50,50,0,0,0,8.91.82,45.11,45.11,0,0,0,34.2-15.57c8.38-9.5,13.52-22.44,15.28-38.47A20,20,0,0,0,853.19,171.57ZM427.77,225.91h-.5a68.92,68.92,0,0,0,11-25.87c3.77,11.83,9.24,21.66,16.48,29.59A92.91,92.91,0,0,0,427.77,225.91Zm72.62-58.39c0-.13,0-.27,0-.4l.47.19ZM711.53,330.38c-1.17-2.52-2.72-8-2.19-17.23a34.08,34.08,0,0,1,2.37-10.71,39.73,39.73,0,0,1,1.92,10.68c0,.06,0,.12,0,.18C714.13,322.49,712.65,327.89,711.53,330.38Z"/><path class="cls-2" d="M853.19,171.57s-6.4-2.79-6.38-2.8a20,20,0,0,0,5.84-14A113.67,113.67,0,0,1,854,139.23c.37-2.57,1-5.12.85-7.73A20.06,20.06,0,0,0,842,113.65a20.8,20.8,0,0,0,.33-13.5,20,20,0,0,0-17.91-13.7l-3.43-.1L807.19,86c-4.38-.06-9.53-.47-13.72-.21a20,20,0,0,0-12.08,5.81c-3.38,3.23-4.87,7.67-6,12.09-1.29,4.41-2.31,9-3.48,13.41a20.07,20.07,0,0,0-4.91,3.18l-.07.07-.1,0c-9.79-5.57-21.63-6.82-32.56-4.71a19.91,19.91,0,0,0-14.35-1.86A70.9,70.9,0,0,1,705.38,117a20.27,20.27,0,0,0-19-4c-6.6,1.59-13.44,1.84-20.2,1.82A20.74,20.74,0,0,0,653.47,118l-.08,0h-.09l-12.08-2.2c-3.71-.61-8.43-1.73-12.06-2a19.86,19.86,0,0,0-19.11,12.32l-.14.35-.3-.25a51.33,51.33,0,0,0-12.41-7.79,47.45,47.45,0,0,0-42.46,2.22l-.44.25-.07-.5C552.62,108,548.34,95.67,540,86.21,518.59,63,481.89,62.56,457.43,81.33c-19.4,14.76-28,39.57-29.3,63.22l-.17,2.77-1.25-2.47c-10-20.18-30.55-32.11-53.09-28.68l-.38.06-.3-.24a18.94,18.94,0,0,0-12.41-4.16,67.36,67.36,0,0,0-6.83.85l-6.91,1-1.06.16c.33-14.53-8.4-27-22.35-31.26-12.92-4-27.74-.36-37.69,8.69a33.86,33.86,0,0,0-11.09,24.86c-5.86-.58-11.66-1.69-17.45-2.74l-1.11-.18c.57-11.49,1.32-23,2.37-34.43,2.59-14.67-9.24-25.94-23.82-22.6-7.76,1.21-16.93,2.6-24.68,4l-4.1.74c-1.36.25-2.77.49-4,.8A18.69,18.69,0,0,0,188,78.6l-.17,2.57c-23.71-17.6-61.38-19.88-83,2.14-21.08,21.64-19.11,58.26,4.22,77.56l1.22,1.07-1,1.29a285.1,285.1,0,0,0-19.12,28.08,18.37,18.37,0,0,0,.54,17.31c1,1.58,2.53,3.64,3.68,5.18a77.47,77.47,0,0,0,55.09,29.84,67.74,67.74,0,0,0,41.29-8.58,18.41,18.41,0,0,0,19.3,9.45c5.54-1,11.06-1.9,16.66-2.49,4.77-.57,9.63-.64,14.43-.84l.61.76a18.13,18.13,0,0,0,19.58,5.81c1.8-.59,3.6-1.6,5.37-2.3a99.29,99.29,0,0,1,17.52-5.52l.92-.19.73.61c4.75,4,11,4.85,17,3.56l11.71-1.69,2.39-.35c-.62,10.84-1.62,21.68-2.84,32.49a18.22,18.22,0,0,0,19.3,18.88,106.93,106.93,0,0,1,17,1.95c3.26.56,6.49,1.82,9.71,2.58a18,18,0,0,0,14.33-3.33l2.95-2.24c.95,24.91,1.1,50.07-3.46,74.7a19.3,19.3,0,0,0,0,9.16,18.2,18.2,0,0,0,9.62,11.8,84.48,84.48,0,0,0,16.16,4.68c18.57,3.48,38.13,3.49,56.47-1.23,5.67-1.21,11.83-4.49,17.1-6.88-3.41,4.5-7.68,10.3-11.56,14.43-6.6,7.59-5.25,20.1,2.84,26.1,6.34,4.67,21.75,16.24,28,20.85a18.42,18.42,0,0,0,23.49-1.66,19.62,19.62,0,0,0,3.19-4.1,154.25,154.25,0,0,0,10.56-19.43c18.48-40.83,27.34-85.05,42.71-127.06a20,20,0,0,0,1.64-10.27,18.74,18.74,0,0,0-12.4-15.42c-2.86-1-7.71-1.48-10.75-2.09l-22-3.72a18.93,18.93,0,0,0-18.59,9.12,22.61,22.61,0,0,0-10.6-1l-10.19.67-1.13.07-.14-1.09a52.36,52.36,0,0,0-11-26.23l-2.28-2.79,3.46,1C493.8,246.29,511,245,525,237.14a65.89,65.89,0,0,0,13.37-10.45,52.42,52.42,0,0,0,28.79,17.08,54.62,54.62,0,0,0,34.75-3.94L600.63,242q-4.12,7.32-7.93,14.8c-2.51,5-5,10.08-7.12,15.16a19.26,19.26,0,0,0,14,25.52v.57c-.65,27-2.79,54-7.55,80.54a19.6,19.6,0,0,0,12.79,20.69c5,1.92,10.56,1.16,15.49-.76A111.45,111.45,0,0,1,647,394.83a20,20,0,0,0,18-9.16l.2-.33.32.23a67.66,67.66,0,0,0,27.6,12c30.34,6.24,62.17-11.54,75.29-39.13,9.18-18.28,10.57-39.44,7.75-59.45s-9.87-40-23.43-55.29l-.26-.3.39.07,9,1.54a24,24,0,0,0,9,.42,20,20,0,0,0,14.35-10.38,43.1,43.1,0,0,0,15,8.46,46.9,46.9,0,0,0,33.66-1.72c16-7.22,25.78-23.7,29.13-40.47.81-4.22,1.73-8.5,1.6-12.82a20.13,20.13,0,0,0-11.6-17Zm0,0a20.13,20.13,0,0,1,11.63,17c.15,4.32-.78,8.61-1.57,12.83-2.35,11.23-7.13,22.22-15.16,30.57-12,12.87-31.17,17.28-47.75,11.8a43.45,43.45,0,0,1-15-8.4c-2.14,5.07-8.37,9.49-14.27,10.38a24.26,24.26,0,0,1-9.14-.41l-9-1.53.13-.22a90.15,90.15,0,0,1,15.87,25.94c10.76,27.87,13.47,61.79,0,89.19-18.94,39.1-68.08,53.6-103.74,27.48l.52-.1a20.35,20.35,0,0,1-8,7.33,21.75,21.75,0,0,1-10.61,2.25,125.23,125.23,0,0,0-21.32,2.44c-3.57.63-6.89,2.05-10.4,2.89a20.53,20.53,0,0,1-24.43-22.51c.89-5.36,1.83-10.61,2.51-16a574.06,574.06,0,0,0,4.7-64.44l.54.7a20.74,20.74,0,0,1-14.55-27.31c2.19-5.28,4.62-10.3,7.13-15.35s5.16-10,7.91-14.9l1.07,1.19a55.69,55.69,0,0,1-33.5,3.21,54.22,54.22,0,0,1-29.19-16.8l1.42,0A58.07,58.07,0,0,1,510.6,244.9a65.33,65.33,0,0,1-32.68-.92l1.18-1.78a52.17,52.17,0,0,1,7.71,12.86,58.63,58.63,0,0,1,3.9,14.46l-1.27-1,10.28-.72a25,25,0,0,1,10.59.78l-1.4.5a21.3,21.3,0,0,1,20.44-9.53c3.68.59,24.3,4,27.64,4.57,12.48,1,21.9,12.28,19.83,24.81a26.47,26.47,0,0,1-1.63,5.63c-5.13,13.93-9.32,28.24-13.57,42.53-8.55,28.61-16.44,57.62-28.73,84.94a155.9,155.9,0,0,1-10.75,19.89,23.74,23.74,0,0,1-3.67,4.69,21.84,21.84,0,0,1-27.88,2c-5.44-4.13-21.28-15.71-27-20a25.11,25.11,0,0,1-4.43-4,21.89,21.89,0,0,1-.13-28c1.31-1.48,2.45-2.75,3.68-4.22s2.3-2.86,3.41-4.32l2.19,2.69c-20.58,9.27-47.35,9.46-69.26,5.43a86.48,86.48,0,0,1-17.07-5A21.92,21.92,0,0,1,370.36,377a23,23,0,0,1-.05-10.85c4.23-23,4.22-46.72,3.42-70.07l3.1,1.46A22,22,0,0,1,363.08,302c-4.66,0-8.85-2.2-13.4-3a101.46,101.46,0,0,0-13.05-1.69c-1.67-.07-3.29-.2-4.94-.2a21.81,21.81,0,0,1-8.91-2.1,22.28,22.28,0,0,1-12.24-24.35c1-8.83,1.78-17.73,2.37-26.64l2.23,2.09-7.76,1.11-3.88.55c-6.94,1.5-14.58.31-20.09-4.45l1.65.41c-7.81,1.52-15.2,4.58-22.5,7.67a22,22,0,0,1-23.76-7.09l1.68.71-1.83.08-1.66,0c-1.09,0-2.18.07-3.27.11A178.65,178.65,0,0,0,214,247.64l-3.29.6a21.86,21.86,0,0,1-22.15-9.67l2.48.62a70.93,70.93,0,0,1-39.22,8.35c-22.49-1.18-44.35-11.84-58.55-29.46L91.58,216,90,213.82a41.13,41.13,0,0,1-2.35-3.41A21.93,21.93,0,0,1,86.43,191l.6-1.3.69-1.26c2.06-3.43,4.2-6.81,6.44-10.11,4-5.87,8.1-11.6,12.37-17.24l.24,2.36C82.1,142.93,79.88,104,102.5,81c22.08-22.4,60.17-20.94,84.9-3.7l-2.29,1.12a22.12,22.12,0,0,1,2.4-8.57,21.52,21.52,0,0,1,13.6-10.81c1.48-.37,2.82-.58,4.2-.84l4.12-.72q8.23-1.43,16.5-2.71c5.29-.59,11.71-2.34,16.95-1.64,12.65,1.76,20.31,13.65,18,25.91-1.06,11-1.84,22.15-2.44,33.25l-1.06-1.25c5.39,1,10.76,2.07,16.2,2.67l-1.3,1.11c.39-14.49,10.55-27.47,23.87-32.66,13-5.54,29.3-4.12,40.17,5.37,7.31,6.2,11.21,15.74,11.22,25.23l-1.08-.91,6.94-1c7.48-1.45,14.4-1.29,20.6,3.76l-.67-.18c16.57-2.54,34.13,3.49,45.3,16.07a59.49,59.49,0,0,1,9.38,13.67l-1.42.3c1.47-25,11.17-51.47,32.66-65.95C484,61.38,520,62.87,540.63,85.66c8.41,9.6,12.71,22.14,14.28,34.65l-.51-.26a48.3,48.3,0,0,1,13.89-5.22,48.89,48.89,0,0,1,41.68,11l-.43.11a20.39,20.39,0,0,1,19.64-12.62c4,.29,8.26,1.43,12.13,2l12.08,2.22-.18,0a20.25,20.25,0,0,1,6.25-2.68,23.41,23.41,0,0,1,6.77-.54c6.72,0,13.53-.21,20.08-1.78a20.35,20.35,0,0,1,19.17,4.09l-.15,0a70.22,70.22,0,0,0,10.95-2.16,21,21,0,0,1,18.16.79,49.38,49.38,0,0,1,16.65-.54A44.57,44.57,0,0,1,767,120l-.17,0a20.14,20.14,0,0,1,5-3.22l-.08.1c1.69-6.67,3.07-13.45,5.57-19.86a20.16,20.16,0,0,1,16.16-11.5,23.26,23.26,0,0,1,3.44-.09l3.44.1,6.87.21,13.74.41,3.44.11a21.7,21.7,0,0,1,3.41.48c11.72,2.55,18.79,15.64,14.23,26.86,7.1,2.39,12.77,10.09,12.9,17.88.15,2.61-.49,5.17-.86,7.74a111.85,111.85,0,0,0-1.37,15.51,20,20,0,0,1-5.87,14s6.37,2.8,6.37,2.79Z"/><path class="cls-2" d="M427.77,225.91h-.5a50.29,50.29,0,0,0,6.42-12.55c2.18-6,3.11-12.61,4-18.89a162.48,162.48,0,0,0,9,20.31,104.6,104.6,0,0,0,12.24,17.88c-9.83-4.08-20.42-6.9-31.16-6.76Zm0,0c9.19,0,18.37.4,27.4,2.44l-1.39,2.2a57.68,57.68,0,0,1-10.6-13.85,67.37,67.37,0,0,1-6.24-16.22l2.76-.14a84.11,84.11,0,0,1-12.43,25.58s.51,0,.5,0Z"/><path class="cls-2" d="M500.39,167.52c-.47.7-1.41.31-1.7-.33l2.33-1.62c.28-.27.44-.27.5,0l.71,3.36-.63.07c-.8.11-1.69-.58-1.21-1.49Zm0,0c.58-.77.46-1.71-.3-1.91l.08,3.43c-.26.16-.41,0-.45-.37l2.33-1.62a1,1,0,0,0-1.66.47Z"/><path class="cls-2" d="M711.53,330.38c-3.89-6.26-4.38-14.23-3.62-21.41.46-4,2.49-8.65,4-12.42,1.26,3.84,3,8.54,3.28,12.55.53,7.14.2,15-3.64,21.28Zm0,0a48.26,48.26,0,0,0,.63-13.93,53.29,53.29,0,0,0-2.35-13.39l3.76.12a41.51,41.51,0,0,0-2.77,13.23,46.85,46.85,0,0,0,.73,14Z"/><path class="cls-3" d="M456,378.24c-16.64,5.07-43,5.07-61.89-1.63,6.09-28.21,6.49-85.23-1.22-126,32.47-8.93,74.28-7.31,79.35,26.38,2.44,16-6.7,29-20.09,35.31,13.8,2.43,24.76,8.93,28,25.57C484.19,359.16,472.42,373.16,456,378.24Zm-35.1-99.65c1.21,8.32,2,17.86,2.63,27.4,11.37-1.83,20.1-6.7,20.7-15C444.82,280.82,435.89,275.14,420.88,278.59Zm3.45,47.9c.4,10.35.4,20.09,0,27.6,18.87,1.82,27.39-5.28,26.18-15.23C449.49,330.34,440.36,325.47,424.33,326.49Z"/><path class="cls-3" d="M505.9,436.07c-14-10.14-27.6-20.49-27.6-20.49,11.17-12.18,21.11-28.41,29-46.48-19.69-38.56-32.47-72-32.47-72a280.89,280.89,0,0,1,31.45-3.25S510,318,518.49,339.07a254.06,254.06,0,0,0,10.75-53.38s15.43,2.64,29,4.88C542.43,332.17,527.82,403.4,505.9,436.07Z"/><path class="cls-3" d="M613.86,386c5.28-27.81,8.93-77.32,7.1-105.53,0,0-7.1,1.22-14.81,3.24A331.47,331.47,0,0,1,624.21,249,155.1,155.1,0,0,1,650,249c-3.65,38.76-3.65,98.43,1,131.31C651,380.27,629.69,380.27,613.86,386Z"/><path class="cls-3" d="M706.4,384.12c-26.79-1.22-53.58-24.35-48.71-71.43,4.27-41.61,27.4-66.16,53.38-65.76,18.47.21,44,18.27,48.7,64.94C764.85,362,733,385.14,706.4,384.12Zm2.44-107.56c-10.35.41-20.91,17.46-21.92,35.52-1.22,21.51,5.88,38.76,21.1,39.37,16.65.81,24.36-16.44,23.14-39.17C730.35,294,721.22,276.16,708.84,276.56Z"/><path class="cls-3" d="M160,230.92c-20.3,0-38.36-8.12-50.94-26.38,8.11-13.6,20.29-29,20.29-29,9.34,18.06,31.66,26.58,39.17,18.06,6.09-6.7,0-17.46-19.48-26.38-18.47-8.53-37.34-18.47-38-41-.41-13,7.3-33.28,33.08-35.11s44.44,13.4,54,33.49a210,210,0,0,0-28.62,17.65c-3-8.72-10.75-15.22-17.86-15.22-5.68,0-8.52,4.06-7.91,8.73.81,8.73,9.34,11.77,23.95,17.25,21.71,7.71,34.29,21.31,34.7,38.15C202.8,217.93,180.47,230.92,160,230.92Z"/><path class="cls-3" d="M258.4,235.59c-1.83-18.67-9.54-35.72-19.69-41.2.41,12.58,1.22,24.15,2.24,33.89-14.21,0-31.46,3.45-31.46,3.45,5.68-39.78,5.28-106.34-.41-146.93,0,0,16.24-3,33.49-5.48-2.64,26.79-4.26,62.1-4.06,94.37,9.94-4.46,17.45-17.45,19.08-36.53,0,0,19.48,4.26,32.26,3.25-3,19.28-13.39,36.12-30.84,45.46,14.81,6.08,28,20.7,31.86,40.18C273.62,228.08,258.4,235.59,258.4,235.59Z"/><path class="cls-3" d="M317.86,132.49c-9.34,3-19.28,0-21.31-7.71-2-7.1,1.62-14.41,9.74-17.86,9.34-4.26,20.09-1.22,22.32,6.9C330.44,120.92,328,129,317.86,132.49Zm-17.86,99c4.06-25.57,2.43-63.32-1.22-88.28a206.73,206.73,0,0,0,28.82-4.47c-1.62,22.73.2,67,3,88.69C330.64,227.47,315.63,229.09,300,231.53Z"/><path class="cls-3" d="M382.39,227.88a29.23,29.23,0,0,1-22.12-9.34c.81,24,2.84,48.1,5.88,66.57-14.2-4.88-31.45-4.88-31.45-4.88,4.67-36.93,5.88-100.45,3.24-140.23,12.18-2.23,25.58-4.06,25.58-4.06-.82,3.45-1.22,7.71-1.83,12.38A32.73,32.73,0,0,1,383,139.8c19.68-.41,33.08,16.84,34.5,40.18C418.72,201.7,408.37,227.67,382.39,227.88ZM370,162.93c-8.52,3.25-10.76,16-7.31,26.18,3.25,9.34,12.59,13.19,19.89,8.73,6.5-3.86,7.51-15.63,4.67-24.15C384.62,166,377.52,160.09,370,162.93Z"/><path class="cls-3" d="M522.1,223c-12.38,9.95-31.26,8.93-42,3.25-14.82-7.91-27.4-23.13-30-59.46-2.84-37.54,11.16-59.67,26.59-68.19,13.19-7.51,28.21-8.32,41.6-1.62,16.44,8.12,19.89,25.37,19.89,47.69,0,0-17,.2-32.47,4.06-.81-14.61-4.47-22.33-11-21.92-6.29.2-17.25,12.58-16.85,38.15.41,27.2,8.93,35.92,14.62,37.34,7.3,1.63,14-5.48,14-16.64a208.46,208.46,0,0,1,34.09-2.23C541.17,200.68,534.48,213.26,522.1,223Z"/><path class="cls-3" d="M583.18,230.92c-12,.81-31-5.07-36.12-29.63-5.89-28.21,7.91-61.9,33.28-62.1,18.26-.2,34.09,17.66,35.72,45.66C617.48,209.2,606.11,229.3,583.18,230.92Zm-3.25-61.69c-8.72.81-14,15-11.77,27.8,1.63,10.75,7.31,15.22,12.79,14.61,8.11-.81,12.38-11.36,11.57-22.12C591.5,176.73,586,168.82,579.93,169.23Z"/><path class="cls-3" d="M671.05,230.31c.2-3,.4-6.29.4-9.33-7.5,5.88-16,7.91-25.36,6.69-24.76-3.24-30.85-41.19-15.22-89.09,14.2,2.64,29,5.28,29,5.28-9.95,28.41-9.95,58.44-.21,60.07,4.27.81,8.32-.81,11.77-5.28-.6-20.29-2.43-41.4-4.66-59.05,0,0,16.44.6,28-2.64-3,30.64-2.64,63.52,1.42,90.92A126.83,126.83,0,0,0,671.05,230.31Z"/><path class="cls-3" d="M740.05,226.25c9.94-28.41,7.3-59.87-1.22-62.3-4.06-1.22-7.92.4-11.37,5.07.82,23.14,2.44,47.9,4.06,63.93,0,0-14.61-1-28.41-.61,2.23-28.82,2-62.1-.81-89.9,0,0,14.41-.61,25-4.47v8.93a29.38,29.38,0,0,1,24.15-7.1c24.56,3.85,30.65,38.76,18.87,91.12C755.88,228.28,740.05,226.25,740.05,226.25Z"/><path class="cls-3" d="M812.49,230.51c-23.54-4.26-27.8-37.74-24-73.06-4.66.21-7.51.41-7.51.41.41-9.13,1.63-17.66,1.63-17.66l8.52-.4a269.73,269.73,0,0,1,6.9-29.23c13.8.21,27.8.82,27.8.82a173.1,173.1,0,0,0-8.52,27l20.09-1a144.13,144.13,0,0,0-2.23,22.33,206.16,206.16,0,0,0-21.92-2.24c-4.26,25.37-3,45.26,1.42,46.88,4.47,1.83,6.9-8.11,6.7-19.88,13.6,4.66,26,10.35,26,10.35C844.35,222.6,829.13,233.56,812.49,230.51Z"/><path class="cls-4" d="M449,371.24c-16.64,5.07-43,5.07-61.89-1.63,6.09-28.21,6.49-85.23-1.22-126,32.47-8.93,74.28-7.31,79.35,26.38,2.44,16-6.7,29-20.09,35.31,13.8,2.43,24.76,8.93,28,25.57C477.19,352.16,465.42,366.16,449,371.24Zm-35.1-99.65c1.21,8.32,2,17.86,2.63,27.4,11.37-1.83,20.1-6.7,20.7-15C437.82,273.82,428.89,268.14,413.88,271.59Zm3.45,47.9c.4,10.35.4,20.09,0,27.6,18.87,1.82,27.39-5.28,26.18-15.23C442.49,323.34,433.36,318.47,417.33,319.49Z"/><path class="cls-4" d="M498.9,429.07c-14-10.14-27.6-20.49-27.6-20.49,11.17-12.18,21.11-28.41,29-46.48-19.69-38.56-32.47-72-32.47-72a280.89,280.89,0,0,1,31.45-3.25S503,311,511.49,332.07a254.06,254.06,0,0,0,10.75-53.38s15.43,2.64,29,4.88C535.43,325.17,520.82,396.4,498.9,429.07Z"/><path class="cls-4" d="M606.86,379c5.28-27.81,8.93-77.32,7.1-105.53,0,0-7.1,1.22-14.81,3.24A331.47,331.47,0,0,1,617.21,242,155.1,155.1,0,0,1,643,242c-3.65,38.76-3.65,98.43,1,131.31C644,373.27,622.69,373.27,606.86,379Z"/><path class="cls-4" d="M699.4,377.12c-26.79-1.22-53.58-24.35-48.71-71.43,4.27-41.61,27.4-66.16,53.38-65.76,18.47.21,44,18.27,48.7,64.94C757.85,355,726,378.14,699.4,377.12Zm2.44-107.56c-10.35.41-20.91,17.46-21.92,35.52-1.22,21.51,5.88,38.76,21.1,39.37,16.65.81,24.36-16.44,23.14-39.17C723.35,287,714.22,269.16,701.84,269.56Z"/><path class="cls-4" d="M153,223.92c-20.3,0-38.36-8.12-50.94-26.38,8.11-13.6,20.29-29,20.29-29,9.34,18.06,31.66,26.58,39.17,18.06,6.09-6.7,0-17.46-19.48-26.38-18.47-8.53-37.34-18.47-38-41-.41-13,7.3-33.28,33.08-35.11s44.44,13.4,54,33.49a210,210,0,0,0-28.62,17.65c-3-8.72-10.75-15.22-17.86-15.22-5.68,0-8.52,4.06-7.91,8.73.81,8.73,9.34,11.77,23.95,17.25,21.71,7.71,34.29,21.31,34.7,38.15C195.8,210.93,173.47,223.92,153,223.92Z"/><path class="cls-4" d="M251.4,228.59c-1.83-18.67-9.54-35.72-19.69-41.2.41,12.58,1.22,24.15,2.24,33.89-14.21,0-31.46,3.45-31.46,3.45,5.68-39.78,5.28-106.34-.41-146.93,0,0,16.24-3,33.49-5.48-2.64,26.79-4.26,62.1-4.06,94.37,9.94-4.46,17.45-17.45,19.08-36.53,0,0,19.48,4.26,32.26,3.25-3,19.28-13.39,36.12-30.84,45.46,14.81,6.08,28,20.7,31.86,40.18C266.62,221.08,251.4,228.59,251.4,228.59Z"/><path class="cls-4" d="M310.86,125.49c-9.34,3-19.28,0-21.31-7.71-2-7.1,1.62-14.41,9.74-17.86,9.34-4.26,20.09-1.22,22.32,6.9C323.44,113.92,321,122,310.86,125.49Zm-17.86,99c4.06-25.57,2.43-63.32-1.22-88.28a206.73,206.73,0,0,0,28.82-4.47c-1.62,22.73.2,67,3,88.69C323.64,220.47,308.63,222.09,293,224.53Z"/><path class="cls-4" d="M375.39,220.88a29.23,29.23,0,0,1-22.12-9.34c.81,24,2.84,48.1,5.88,66.57-14.2-4.88-31.45-4.88-31.45-4.88,4.67-36.93,5.88-100.45,3.24-140.23,12.18-2.23,25.58-4.06,25.58-4.06-.82,3.45-1.22,7.71-1.83,12.38A32.73,32.73,0,0,1,376,132.8c19.68-.41,33.08,16.84,34.5,40.18C411.72,194.7,401.37,220.67,375.39,220.88ZM363,155.93c-8.52,3.25-10.76,16-7.31,26.18,3.25,9.34,12.59,13.19,19.89,8.73,6.5-3.86,7.51-15.63,4.67-24.15C377.62,159,370.52,153.09,363,155.93Z"/><path class="cls-4" d="M515.1,216c-12.38,9.95-31.26,8.93-42,3.25-14.82-7.91-27.4-23.13-30-59.46-2.84-37.54,11.16-59.67,26.59-68.19,13.19-7.51,28.21-8.32,41.6-1.62,16.44,8.12,19.89,25.37,19.89,47.69,0,0-17,.2-32.47,4.06-.81-14.61-4.47-22.33-11-21.92-6.29.2-17.25,12.58-16.85,38.15.41,27.2,8.93,35.92,14.62,37.34,7.3,1.63,14-5.48,14-16.64a208.46,208.46,0,0,1,34.09-2.23C534.17,193.68,527.48,206.26,515.1,216Z"/><path class="cls-4" d="M576.18,223.92c-12,.81-31-5.07-36.12-29.63-5.89-28.21,7.91-61.9,33.28-62.1,18.26-.2,34.09,17.66,35.72,45.66C610.48,202.2,599.11,222.3,576.18,223.92Zm-3.25-61.69c-8.72.81-14,15-11.77,27.8,1.63,10.75,7.31,15.22,12.79,14.61,8.11-.81,12.38-11.36,11.57-22.12C584.5,169.73,579,161.82,572.93,162.23Z"/><path class="cls-4" d="M664.05,223.31c.2-3,.4-6.29.4-9.33-7.5,5.88-16,7.91-25.36,6.69-24.76-3.24-30.85-41.19-15.22-89.09,14.2,2.64,29,5.28,29,5.28-9.95,28.41-9.95,58.44-.21,60.07,4.27.81,8.32-.81,11.77-5.28-.6-20.29-2.43-41.4-4.66-59.05,0,0,16.44.6,28-2.64-3,30.64-2.64,63.52,1.42,90.92A126.83,126.83,0,0,0,664.05,223.31Z"/><path class="cls-4" d="M733.05,219.25c9.94-28.41,7.3-59.87-1.22-62.3-4.06-1.22-7.92.4-11.37,5.07.82,23.14,2.44,47.9,4.06,63.93,0,0-14.61-1-28.41-.61,2.23-28.82,2-62.1-.81-89.9,0,0,14.41-.61,25-4.47v8.93a29.38,29.38,0,0,1,24.15-7.1c24.56,3.85,30.65,38.76,18.87,91.12C748.88,221.28,733.05,219.25,733.05,219.25Z"/><path class="cls-4" d="M805.49,223.51c-23.54-4.26-27.8-37.74-24-73.06-4.66.21-7.51.41-7.51.41.41-9.13,1.63-17.66,1.63-17.66l8.52-.4a269.73,269.73,0,0,1,6.9-29.23c13.8.21,27.8.82,27.8.82a173.1,173.1,0,0,0-8.52,27l20.09-1a144.13,144.13,0,0,0-2.23,22.33,206.16,206.16,0,0,0-21.92-2.24c-4.26,25.37-3,45.26,1.42,46.88,4.47,1.83,6.9-8.11,6.7-19.88,13.6,4.66,26,10.35,26,10.35C837.35,215.6,822.13,226.56,805.49,223.51Z"/></svg>