<svg id="Layer_1" data-name="Layer 1" xmlns="http://www.w3.org/2000/svg" xmlns:xlink="http://www.w3.org/1999/xlink" viewBox="0 0 1600 450"><defs><style>.cls-1{fill:none;}.cls-2{fill:url(#radial-gradient);}.cls-3{opacity:0.05;}.cls-4{fill:#fff;opacity:0.8;}.cls-5{fill:url(#radial-gradient-2);}.cls-6{fill:url(#radial-gradient-3);}.cls-7{fill:url(#radial-gradient-4);}.cls-8{fill:url(#radial-gradient-5);}.cls-9{fill:url(#radial-gradient-6);}.cls-10{fill:url(#radial-gradient-7);}.cls-11{fill:#022749;}.cls-12{clip-path:url(#clip-path);}.cls-13{fill:url(#linear-gradient);}.cls-14{fill:#032616;}.cls-15{fill:#011c24;}.cls-16{fill:#042f33;}</style><radialGradient id="radial-gradient" cx="296.75" cy="382.64" r="86.77" gradientTransform="translate(-50.27 -183.75) scale(0.97 0.95)" gradientUnits="userSpaceOnUse"><stop offset="0" stop-color="#fff200"/><stop offset="0.37" stop-color="#fff200"/><stop offset="0.84" stop-color="#ffb600"/><stop offset="0.9" stop-color="#fcb102"/><stop offset="0.96" stop-color="#f4a309"/><stop offset="1" stop-color="#ed970f"/></radialGradient><radialGradient id="radial-gradient-2" cx="497.1" cy="486.39" r="86.77" xlink:href="#radial-gradient"/><radialGradient id="radial-gradient-3" cx="697.45" cy="525.18" r="86.77" xlink:href="#radial-gradient"/><radialGradient id="radial-gradient-4" cx="897.8" cy="544.13" r="86.77" xlink:href="#radial-gradient"/><radialGradient id="radial-gradient-5" cx="1098.15" cy="468.74" r="86.77" xlink:href="#radial-gradient"/><radialGradient id="radial-gradient-6" cx="1298.5" cy="374.54" r="86.77" xlink:href="#radial-gradient"/><radialGradient id="radial-gradient-7" cx="1498.85" cy="310.09" r="86.77" xlink:href="#radial-gradient"/><clipPath id="clip-path"><rect class="cls-1" x="1620" y="-954.35" width="1600" height="900"/></clipPath><linearGradient id="linear-gradient" x1="1825.61" y1="86.86" x2="2564.4" y2="-83.67" gradientUnits="userSpaceOnUse"><stop offset="0.02" stop-color="#024e20"/><stop offset="0.82" stop-color="#024e20"/><stop offset="0.94" stop-color="#024e20"/></linearGradient></defs><path class="cls-2" d="M286.34,254.15c-7.26,5.07-43.92-26.54-52.82-26.63s-46.23,30.78-53.38,25.56,12.12-49.24,9.46-57.58-44.07-33.68-41.23-42,51.41-3.89,58.67-9S226,93,234.92,93.07s19.66,46.83,26.81,52.05,55.8,1.79,58.47,10.14-39.27,32.84-42.11,41.13S293.6,249.09,286.34,254.15Z"/><path class="cls-3" d="M277.86,148.11c-4.16,44-45,78.89-95.87,81.62-3,11.09-5,21-1.85,23.36,7.15,5.21,44.47-25.65,53.37-25.56s45.57,31.69,52.83,26.62-11.1-49.47-8.26-57.76,44.78-32.77,42.12-41.12C318.36,149.52,294.74,149.35,277.86,148.11Z"/><path class="cls-4" d="M233.92,96.35c-.34,0-3.72,7-5.12,10.25-4.22,9.91-7.89,20-11.76,30-1.28,3.3-2.63,6.57-5,8.88a16.37,16.37,0,0,1-7.74,3.9,51.83,51.83,0,0,1-9.08,1c-8.8.43-17.72.31-26.51.51a47.14,47.14,0,0,0-11.54,1.76c-2,.53-6,2.8-6,3.13s4.74-.9,6.54-1.4c3.55-1,7.37-1,11.22-1.13,8.82-.2,17.53.47,26.33,0,3.1-.15,8.85-.42,12-1.15a18.22,18.22,0,0,0,8.61-4.36c2.76-2.66,4.29-6.49,5.28-9.91,3.82-13.12,4.88-16.56,9.42-30.55C231.58,104,234.24,96.32,233.92,96.35Z"/><path class="cls-5" d="M480.7,353c-7.26,5.07-43.92-26.54-52.83-26.63S381.65,357.18,374.5,352s12.12-49.24,9.46-57.59-44.07-33.67-41.23-42,51.41-3.89,58.66-9,19-51.59,27.89-51.5,19.65,46.83,26.81,52.05,55.8,1.79,58.46,10.14-39.26,32.84-42.1,41.13S488,348,480.7,353Z"/><path class="cls-3" d="M472.22,247c-4.16,44-45,78.89-95.88,81.62-3,11.09-5,21-1.84,23.35,7.15,5.22,44.47-25.64,53.37-25.55S473.44,358.1,480.7,353s-11.1-49.47-8.26-57.76,44.78-32.77,42.11-41.12C512.72,248.4,489.09,248.23,472.22,247Z"/><path class="cls-4" d="M428.28,195.23c-.34,0-3.73,7-5.12,10.25-4.22,9.91-7.89,20-11.76,30-1.28,3.3-2.63,6.57-5,8.88a16.37,16.37,0,0,1-7.74,3.9,51.83,51.83,0,0,1-9.08,1c-8.8.43-17.72.31-26.52.51a47.59,47.59,0,0,0-11.53,1.75c-1.95.54-6,2.81-6,3.14s4.74-.9,6.53-1.4a46.54,46.54,0,0,1,11.23-1.13c8.82-.2,17.53.47,26.32,0,3.11-.15,8.86-.42,12-1.15a18.22,18.22,0,0,0,8.61-4.36c2.76-2.66,4.28-6.49,5.28-9.91,3.82-13.13,4.88-16.56,9.42-30.55C425.94,202.83,428.6,195.2,428.28,195.23Z"/><path class="cls-6" d="M675.06,390c-7.26,5.07-43.92-26.54-52.83-26.63S576,394.15,568.86,388.93s12.12-49.23,9.46-57.58-44.07-33.68-41.24-42,51.41-3.89,58.67-9,19-51.59,27.89-51.5,19.65,46.84,26.8,52.05,55.81,1.8,58.47,10.15-39.26,32.83-42.1,41.12S682.32,384.94,675.06,390Z"/><path class="cls-3" d="M666.57,284c-4.15,44-45,78.89-95.87,81.63-3,11.08-5,21-1.84,23.35,7.15,5.21,44.47-25.65,53.37-25.56s45.57,31.7,52.83,26.63-11.1-49.48-8.26-57.77,44.78-32.77,42.11-41.12C707.08,285.37,683.45,285.21,666.57,284Z"/><path class="cls-4" d="M622.63,232.2c-.33,0-3.72,7-5.11,10.26-4.22,9.9-7.89,20-11.76,30-1.28,3.31-2.63,6.58-5,8.89a16.4,16.4,0,0,1-7.74,3.89,50.89,50.89,0,0,1-9.08,1c-8.8.43-17.73.31-26.52.52a46.57,46.57,0,0,0-11.53,1.75c-2,.54-6,2.81-6,3.13s4.74-.9,6.53-1.4a46,46,0,0,1,11.23-1.12c8.82-.21,17.52.47,26.32,0a85.74,85.74,0,0,0,12-1.14,18.15,18.15,0,0,0,8.61-4.37c2.76-2.66,4.28-6.49,5.28-9.91,3.81-13.12,4.87-16.56,9.42-30.55C620.3,239.81,623,232.17,622.63,232.2Z"/><path class="cls-7" d="M869.42,408.07c-7.26,5.07-43.92-26.54-52.83-26.63S770.37,412.21,763.22,407s12.12-49.24,9.46-57.59-44.08-33.68-41.24-42,51.41-3.89,58.67-9S809.09,246.9,818,247s19.65,46.83,26.8,52,55.81,1.8,58.47,10.15S864,342,861.17,350.3,876.68,403,869.42,408.07Z"/><path class="cls-3" d="M860.93,302c-4.15,44-45,78.89-95.87,81.63-3,11.08-5,21-1.85,23.35,7.16,5.22,44.48-25.65,53.38-25.56s45.57,31.7,52.83,26.63-11.1-49.48-8.26-57.77,44.78-32.77,42.11-41.12C901.44,303.44,877.81,303.27,860.93,302Z"/><path class="cls-4" d="M817,250.26c-.33,0-3.72,7-5.11,10.26-4.22,9.9-7.89,20-11.76,30-1.28,3.31-2.63,6.58-5,8.89a16.4,16.4,0,0,1-7.74,3.89,50.89,50.89,0,0,1-9.08,1c-8.8.44-17.73.31-26.52.52a47,47,0,0,0-11.53,1.75c-2,.54-6,2.81-6,3.14s4.74-.91,6.53-1.4c3.55-1,7.37-1,11.23-1.13,8.82-.21,17.52.47,26.32,0a85.46,85.46,0,0,0,12-1.14,18.21,18.21,0,0,0,8.62-4.36c2.75-2.67,4.28-6.5,5.28-9.91,3.81-13.13,4.87-16.57,9.42-30.56C814.66,257.87,817.32,250.24,817,250.26Z"/><path class="cls-8" d="M1063.78,336.22c-7.26,5.07-43.92-26.54-52.83-26.63s-46.22,30.77-53.37,25.56,12.12-49.24,9.46-57.59-44.08-33.68-41.24-42,51.41-3.89,58.67-9,19-51.58,27.89-51.49,19.65,46.83,26.8,52,55.81,1.8,58.47,10.15-39.26,32.83-42.1,41.12S1071,331.15,1063.78,336.22Z"/><path class="cls-3" d="M1055.29,230.17c-4.16,44-45,78.89-95.87,81.63-3,11.08-5,21-1.85,23.35,7.15,5.22,44.47-25.65,53.38-25.56s45.57,31.7,52.82,26.63-11.09-49.48-8.25-57.77,44.78-32.77,42.11-41.12C1095.8,231.59,1072.17,231.42,1055.29,230.17Z"/><path class="cls-4" d="M1011.35,178.41c-.33,0-3.72,7-5.11,10.26-4.22,9.9-7.9,20-11.77,30-1.28,3.31-2.62,6.58-5,8.89a16.4,16.4,0,0,1-7.74,3.89,51,51,0,0,1-9.08,1c-8.8.44-17.73.32-26.52.52a47.67,47.67,0,0,0-11.54,1.75c-1.94.54-6,2.81-6,3.14s4.74-.91,6.53-1.4c3.55-1,7.37-1,11.22-1.13,8.83-.21,17.53.47,26.33,0a85.6,85.6,0,0,0,12-1.14,18.21,18.21,0,0,0,8.62-4.36c2.75-2.67,4.28-6.5,5.28-9.91,3.81-13.13,4.87-16.57,9.42-30.56C1009,186,1011.68,178.39,1011.35,178.41Z"/><path class="cls-9" d="M1258.14,246.43c-7.26,5.07-43.92-26.54-52.83-26.63s-46.22,30.78-53.37,25.56,12.12-49.24,9.46-57.58-44.08-33.68-41.24-42,51.41-3.89,58.67-9,19-51.59,27.89-51.5,19.65,46.83,26.8,52.05,55.81,1.79,58.47,10.14-39.26,32.84-42.1,41.13S1265.39,241.36,1258.14,246.43Z"/><path class="cls-3" d="M1249.65,140.39c-4.16,44-45,78.89-95.87,81.62-3,11.09-5,21-1.85,23.36,7.15,5.21,44.47-25.65,53.38-25.56s45.57,31.69,52.82,26.62S1247,197,1249.88,188.67s44.78-32.77,42.11-41.12C1290.16,141.8,1266.53,141.63,1249.65,140.39Z"/><path class="cls-4" d="M1205.71,88.63c-.33,0-3.72,7-5.11,10.25-4.23,9.91-7.9,20-11.77,30-1.28,3.3-2.62,6.57-5,8.88a16.42,16.42,0,0,1-7.74,3.9,51.93,51.93,0,0,1-9.08,1c-8.8.43-17.73.31-26.52.51a47.21,47.21,0,0,0-11.54,1.76c-2,.53-6,2.8-6,3.13s4.74-.9,6.53-1.4c3.55-1,7.37-1,11.22-1.13,8.83-.2,17.53.47,26.33,0,3.1-.15,8.85-.42,12-1.15a18.21,18.21,0,0,0,8.62-4.36c2.75-2.66,4.28-6.49,5.27-9.91,3.82-13.13,4.88-16.56,9.43-30.55C1203.38,96.23,1206,88.6,1205.71,88.63Z"/><path class="cls-10" d="M1452.49,185c-7.25,5.07-43.91-26.54-52.82-26.63s-46.22,30.78-53.37,25.56,12.12-49.24,9.45-57.58-44.07-33.68-41.23-42,51.41-3.89,58.67-9,19-51.59,27.89-51.5,19.65,46.83,26.8,52.05,55.81,1.79,58.47,10.14-39.26,32.84-42.1,41.13S1459.75,179.94,1452.49,185Z"/><path class="cls-3" d="M1444,79c-4.16,44-45,78.89-95.87,81.62-3,11.09-5,21-1.85,23.36,7.15,5.21,44.47-25.65,53.38-25.56s45.56,31.69,52.82,26.62-11.09-49.47-8.25-57.76,44.77-32.77,42.11-41.12C1484.52,80.38,1460.89,80.21,1444,79Z"/><path class="cls-4" d="M1400.07,27.21c-.33,0-3.72,7-5.11,10.25-4.23,9.91-7.9,20-11.77,30-1.28,3.3-2.62,6.57-5,8.88a16.41,16.41,0,0,1-7.75,3.9,51.82,51.82,0,0,1-9.07,1c-8.8.43-17.73.31-26.52.51a47.21,47.21,0,0,0-11.54,1.76c-2,.53-6,2.8-6,3.13s4.75-.9,6.54-1.4c3.55-1,7.37-1,11.22-1.13,8.83-.2,17.53.47,26.33,0,3.1-.15,8.85-.42,12-1.15a18.21,18.21,0,0,0,8.62-4.36c2.75-2.66,4.28-6.49,5.27-9.91,3.82-13.13,4.88-16.56,9.43-30.55C1397.74,34.81,1400.4,27.18,1400.07,27.21Z"/><path class="cls-11" d="M234.33,210.34V167.9q-1.56,1.8-3,3.23c-.94,1-1.95,2-3,3.08l-5.14-7c1.56-1.35,3.06-2.7,4.52-4.05q1.86-1.69,3.81-3.65a44,44,0,0,0,3.21-3.5h9.94v54.33Z"/><path class="cls-11" d="M410.52,311.12l.08-6.11c1.61-1.88,3.3-3.75,5.1-5.61l5.33-5.54c1.76-1.83,3.45-3.63,5.06-5.38a49.77,49.77,0,0,0,4.24-5.31,29.88,29.88,0,0,0,2.91-5.27,13.45,13.45,0,0,0,1.09-5.27,5.77,5.77,0,0,0-2-4.58,7.34,7.34,0,0,0-5-1.76,8.26,8.26,0,0,0-3.77.84,9.4,9.4,0,0,0-2.88,2.16,15.42,15.42,0,0,0-2.11,2.92,25.43,25.43,0,0,0-1.51,3.18L409.59,270c.51-1.17,1.16-2.51,1.94-4a15.57,15.57,0,0,1,3.39-4.28,18.66,18.66,0,0,1,5.76-3.45,24.75,24.75,0,0,1,9.06-1.41,22,22,0,0,1,6.86,1,15.59,15.59,0,0,1,5.35,2.92,12.78,12.78,0,0,1,3.41,4.59,14.69,14.69,0,0,1,1.19,6,20.37,20.37,0,0,1-2.29,9.26,48.85,48.85,0,0,1-5.57,8.61,64.22,64.22,0,0,1-6.85,7.32c-2.38,2.17-4.41,4-6.07,5.39H447v9.18Z"/><path class="cls-11" d="M642.08,329.56a13.42,13.42,0,0,1-1.31,5.92,13.06,13.06,0,0,1-3.82,4.64,18.54,18.54,0,0,1-6.08,3,27.37,27.37,0,0,1-7.94,1.08,34.44,34.44,0,0,1-6-.48,21.43,21.43,0,0,1-5-1.55,19.6,19.6,0,0,1-4.43-2.8,34.15,34.15,0,0,1-4.21-4.27l5.14-6.93q6.07,6.85,13,6.85a9.44,9.44,0,0,0,6.11-1.8,6.25,6.25,0,0,0,2.37-4.76,6.14,6.14,0,0,0-.62-3.38,6.35,6.35,0,0,0-2.65-2.61,15.19,15.19,0,0,0-5.21-1.53,41.76,41.76,0,0,0-8.25-.16v-9.19a58.11,58.11,0,0,0,7.82.09,13.87,13.87,0,0,0,4.82-1.06,5.32,5.32,0,0,0,2.5-2.21A7.17,7.17,0,0,0,629,305a5.63,5.63,0,0,0-2.25-4.31,9,9,0,0,0-5.61-1.63,12.92,12.92,0,0,0-5.52,1.23,22.23,22.23,0,0,0-5.6,3.94l-4.36-7.36q5.83-7,18-7a22.48,22.48,0,0,1,6.87,1,15.57,15.57,0,0,1,5.23,2.79,12.32,12.32,0,0,1,3.35,4.34,13.32,13.32,0,0,1,1.16,5.68,11.87,11.87,0,0,1-2.25,7.5q-2.26,2.91-7.47,5a14.67,14.67,0,0,1,8.61,4.38C641.09,322.83,642.08,325.82,642.08,329.56Z"/><path class="cls-11" d="M831.63,363H822V349.59H802v-41h10v32.3h10V327.72h9.57v13.15h6.93v8.64h-6.85Z"/><path class="cls-11" d="M1028.87,271.38q0,8.28-5,12.79t-14.1,4.51a26.54,26.54,0,0,1-10.34-2,23,23,0,0,1-8.2-5.84l4.36-7.67q6.93,6.3,13.54,6.3a10.45,10.45,0,0,0,6.77-2.13,6.71,6.71,0,0,0,2.65-5.48,7.61,7.61,0,0,0-2.22-5.93q-2.22-2-6.42-2a9.13,9.13,0,0,0-4.09.9,16.82,16.82,0,0,0-3.85,2.76l-6.69-3.81.78-29.42h31.13l.07,9.18H1006l-.39,12.77c.75-.36,1.41-.66,2-.9a15.28,15.28,0,0,1,1.63-.58,8.14,8.14,0,0,1,1.7-.31c.6-.05,1.28-.08,2-.08a16.86,16.86,0,0,1,6.49,1.22,14.22,14.22,0,0,1,5,3.44,15.94,15.94,0,0,1,3.25,5.36A19.71,19.71,0,0,1,1028.87,271.38Z"/><path class="cls-11" d="M1224.22,184.76a19.39,19.39,0,0,1-1.29,7.25,15.53,15.53,0,0,1-9.26,9,22.35,22.35,0,0,1-15.21-.15,16.64,16.64,0,0,1-6-4,18.58,18.58,0,0,1-3.85-6.25,22.73,22.73,0,0,1-1.37-8.13,29.17,29.17,0,0,1,1.65-9.58,51.06,51.06,0,0,1,4.3-9.23,68.29,68.29,0,0,1,6-8.47,82.73,82.73,0,0,1,6.69-7.21H1219a82,82,0,0,0-9.64,10.44,84.06,84.06,0,0,0-7.86,12.06c.81-.47,1.55-.86,2.21-1.17a14.17,14.17,0,0,1,1.87-.74,10.77,10.77,0,0,1,1.79-.39,15.88,15.88,0,0,1,2.06-.12,14.47,14.47,0,0,1,6,1.22,13.4,13.4,0,0,1,4.65,3.45,16.83,16.83,0,0,1,3,5.32A19.9,19.9,0,0,1,1224.22,184.76Zm-10.35.22a7.7,7.7,0,0,0-1.84-5.43,6.41,6.41,0,0,0-4.94-2,10.29,10.29,0,0,0-7.23,3.06c-.15.77-.26,1.36-.31,1.74a12.37,12.37,0,0,0-.08,1.53,8.71,8.71,0,0,0,2.11,6.05,7.11,7.11,0,0,0,5.51,2.33,6.43,6.43,0,0,0,4.94-2A7.5,7.5,0,0,0,1213.87,185Z"/><path class="cls-11" d="M1398.21,142.25h-11.75l20.39-45.14h-24.44V87.93h36.66V96Z"/><g class="cls-12"><path class="cls-13" d="M1578.26-90.22s185.87-42.89,519.94,28.6,731.45,15.46,777.94-.88c-1.52,50.15-5.61,98.47-9.49,143.24L1578.26,79.32Z"/><path class="cls-14" d="M1341.67,55.45l5.41-42s584.19-26,669.94-18c0,0-4.64-21-13.13-24,0,0,19.31-3,20.85,24,0,0,0-40-12.36-47,0,0,30.13,6,27.81,47l140.6,8s-8.5-11-13.91-14c0,0,15.43-7,23.94,6,0,0-10-31-16.21-35,0,0,17.18-2,21.72,30,0,0,15.36-17,20-14.5,0,0-17,26.5-13.9,27.5,0,0,555.66,19.11,659.95,26.11l-4.24,56.23Z"/><path class="cls-15" d="M1575.5,12.9S1411.82-31.69,1413-76.42,1550.07-44.61,1603.59,0c-155.83-185.14-75.39-79.93-119.27-142.59s3.79-93.74,82.06,1.22c62.68,92.1,81.16,119,81.16,119s-45.7-125-63.56-191,40.44-110,85.5,5.23c9.93-36.24,10.82-39.83,10.82-39.83s-13.37,54.62.36-9.23,69.37-25.42,38.44,68.23c33.59-34.25-10.57,4.56,36.5-29.36s104.71,4.5,44,81.55-42.11,55.37-42.11,55.37l-42.55,48L1827.44-81c77-25.28,110.07,9.47,23,64-56.22,28-103.93,49.08-103.93,49.08s48-.68,126-5.23,77.16,61.41-11.75,59.7C1757.42,58.82,1575.5,12.9,1575.5,12.9"/><path class="cls-16" d="M1495.48-170.39S1616.71-2.83,1633.11,12.38c0,0-122.77-179.32-137.63-182.77"/><path class="cls-16" d="M1595.49,9S1433.4-60.66,1430.21-64.69,1579.11-4.11,1595.49,9"/></g></svg>