<svg id="Layer_1" data-name="Layer 1" xmlns="http://www.w3.org/2000/svg" viewBox="0 0 237.65 199.06"><defs><style>.cls-1{fill:#c34804;stroke:#7c320d;}.cls-1,.cls-16,.cls-2,.cls-5{stroke-miterlimit:10;}.cls-2{fill:#fcf200;stroke:#a89c0b;}.cls-3{fill:#fec119;}.cls-4{fill:#f2a905;}.cls-5{fill:#ff7e2a;stroke:#af440e;}.cls-6{fill:#fb6010;}.cls-7{fill:#fde664;}.cls-8{fill:#febe42;}.cls-9{fill:#ff631e;}.cls-10{fill:#dc0604;}.cls-11{fill:#8c0606;}.cls-12{fill:#f9f2f2;}.cls-13{fill:#683c3c;}.cls-14{fill:#30252b;}.cls-15{fill:#fff;}.cls-16{fill:#d10409;stroke:#a30814;}.cls-17{fill:#ffe632;}.cls-18{fill:#ffd713;}.cls-19{fill:#fd1441;}</style></defs><path class="cls-1" d="M86.18,144.51s-3.75,3.06-5.22,26.14c0,0-6.6.11-6.71.91s6.59,1.93,6.59,1.93,4.55,9.09,6.25,10.45,3,.12-2-7.84c0,0,3.29,1.48,7.27,3.75,0,0,3.18.46-3.64-5.11,0,0,.91-1,6.26.57,0,0,6-1.48-10.69-4.32a44.73,44.73,0,0,1,5.8-23.64C96.87,135.3,86.18,144.51,86.18,144.51Z"/><path class="cls-1" d="M119.27,146.1s-3.12,3.71-.31,26.66c0,0-6.45,1.33-6.42,2.13s6.84.68,6.84.68,6.15,8.1,8.07,9.12,2.93-.43-3.46-7.33c0,0,3.52.85,7.85,2.34,0,0,3.21-.14-4.52-4.35,0,0,.7-1.17,6.24-.6,0,0,5.65-2.56-11.29-2.27a44.72,44.72,0,0,1,1.32-24.3C128.07,135.08,119.27,146.1,119.27,146.1Z"/><path class="cls-2" d="M33.9,71S26.74,59.84,20.49,58.81s-2.27,5.91,0,8c0,0-10.91-5.8-14.43-.91S17.31,76.43,17.31,76.43,3.56,75.86,3.79,81.88,12.08,88,18,87.68c0,0-12,3.3-9.43,8.75s14-1.25,14-1.25-3.64,3.64-.8,5.12,7.62-1.14,9.32-5.91S33.9,71,33.9,71Z"/><path class="cls-3" d="M33.11,71.09a2.56,2.56,0,0,0-.16-.24c-.77-1.17-4.31-6.27-8-7.38-4.21-1.25-3.64,2.84-.34,5.69,0,0-7.85-3.19-10.35.11s7.73,8,7.73,8-9.89,0-9.89,4.44,10.69,4.2,10.69,4.2S15.49,88.25,15,93.25s12.05-1.93,12.05-1.93-4.55,4-3,6.25,6.48.11,7.27-3.64S33.11,71.09,33.11,71.09Z"/><path class="cls-4" d="M32.54,70.75s-7.27-6.48-4.89.91c0,0-5.45-1.25-4.09,2.5s3.75,4.09,3.75,4.09-5.45.57-6.59,3.86c0,0,.34,3,6,2.27a8.42,8.42,0,0,0-3.52,4.55c-.79,3,5.68,1.25,5.68,1.25S25,93.25,27.43,94.5a3.24,3.24,0,0,0,4-.57S24.81,80.18,32.54,70.75Z"/><path class="cls-5" d="M172.81,91.86a70.94,70.94,0,0,1-1,8.27,61.88,61.88,0,0,1-3.65,12.68,60.33,60.33,0,0,1-16.14,22.55c-30.52,27.1-69.62,27-109.17-21.43l-.79-1.42S28.45,94.27,28.45,75.86a4.69,4.69,0,0,1,.09-.78c.41-2.18,2.84-8,17-5.18,13.79,2.72,36.32,7.32,60.34.28,1.89-.56,3.79-1.18,5.7-1.89h0a85.41,85.41,0,0,0,10.17-4.53c.74-.39,1.47-.79,2.2-1.2,0,0,2.22-.34.52-9s-3.07-26.59,14.15-27.79S163.64,46,167.73,57.62a94.35,94.35,0,0,1,4.64,20.13A82.26,82.26,0,0,1,172.81,91.86Z"/><path class="cls-6" d="M172.81,91.86a70.94,70.94,0,0,1-1,8.27c-7.84-.94-10.42-8.42-10.42-8.42s-1.53,3.41-11.08,3.41-10.23-8.35-10.23-8.35-3.58,3.24-12.78,1.54-7.16-10.58-7.16-10.58c-13.09.71-15-3.75-14.33-7.55,1.89-.56,3.79-1.18,5.7-1.89h0a85.41,85.41,0,0,0,10.17-4.53c.74-.39,1.47-.79,2.2-1.2,0,0,2.22-.34.52-9s-3.07-26.59,14.15-27.79S163.64,46,167.73,57.62a94.35,94.35,0,0,1,4.64,20.13A82.26,82.26,0,0,1,172.81,91.86Z"/><path class="cls-7" d="M173.26,91.63c-7.82.81-11.38-6.45-11.38-6.45s-2,4.94-11.08,4.6-8.7-8.52-8.7-8.52-5.63,4.77-12.78,2-5.12-9.88-5.12-9.88c-12.32,1.45-13.49-2.06-12.21-5.36h0a85.23,85.23,0,0,0,10.17-4.53c.73-.38,1.47-.78,2.2-1.19,0,0,2.22-.34.51-9S121.81,26.71,139,25.52s25.06,20.28,29.15,31.87a94.35,94.35,0,0,1,4.64,20.13A81.26,81.26,0,0,1,173.26,91.63Z"/><path class="cls-8" d="M172.37,77.75C167.28,80.32,159,76.37,159,76.37c-9.72,5.46-14.33-1.19-14.33-1.19-12.1,1.87-13.12-6.65-13.12-6.65-7.42.09-9.52-2.43-9.88-4.77.74-.39,1.47-.79,2.2-1.2,0,0,2.22-.34.52-9s-3.07-26.59,14.15-27.79S163.64,46,167.73,57.62A94.35,94.35,0,0,1,172.37,77.75Z"/><path class="cls-9" d="M168.19,112.33a60.41,60.41,0,0,1-16.14,22.55c-30.52,27.1-69.62,27-109.17-21.43L42.09,112S28.45,93.79,28.45,75.38a4.59,4.59,0,0,1,.09-.78C31.77,86,44.83,122.5,81.47,136.24,120.71,151,154.16,128.32,168.19,112.33Z"/><path class="cls-10" d="M139.83,54.32s-.68,5.12,4.32,9.61a13.47,13.47,0,0,0,10.74,3.41L144.71,54.21Z"/><path class="cls-11" d="M142.33,55.4c.42.43,1.45,5.2,12.7,12.11,0,0-5.8-9.12-5.8-10.06S142.33,55.4,142.33,55.4Z"/><path class="cls-10" d="M139.43,54.21s5.63-3.58,8.18-3.92,14.83,1.36,17.9,9.21c0,0-21.14.51-26.08-3.76Z"/><ellipse class="cls-11" cx="147.53" cy="51.77" rx="1.16" ry="0.57"/><ellipse class="cls-12" cx="135.17" cy="44.32" rx="5.64" ry="6.79" transform="translate(-4.89 69.2) rotate(-28.23)"/><path class="cls-13" d="M140.19,41.63a8.31,8.31,0,0,1,1,4.78,5.64,5.64,0,0,1-2.57,4.31,5.84,5.84,0,0,1-5.26.31,8.09,8.09,0,0,1-4.77-8.89,5.87,5.87,0,0,1,3.17-4.21,5.65,5.65,0,0,1,5,.24A8.22,8.22,0,0,1,140.19,41.63Zm-.09,0a7.65,7.65,0,0,0-3.45-3.3,5.26,5.26,0,0,0-4.66,0,5.21,5.21,0,0,0-2.56,3.87,7.72,7.72,0,0,0,4.27,8,4.95,4.95,0,0,0,7.24-3.87A7.65,7.65,0,0,0,140.1,41.68Z"/><ellipse class="cls-14" cx="134.05" cy="44.43" rx="3.68" ry="4.75" transform="translate(-5.68 64.94) rotate(-26.69)"/><ellipse class="cls-15" cx="135.16" cy="42.06" rx="1.25" ry="1.61" transform="translate(-4.49 65.18) rotate(-26.69)"/><ellipse class="cls-12" cx="150" cy="40.44" rx="5.64" ry="6.79" transform="translate(-1.29 75.76) rotate(-28.23)"/><path class="cls-13" d="M155,37.75a8.24,8.24,0,0,1,1,4.78,5.64,5.64,0,0,1-2.56,4.31,5.86,5.86,0,0,1-5.27.31,8.12,8.12,0,0,1-4.77-8.89,5.87,5.87,0,0,1,3.17-4.21,5.65,5.65,0,0,1,5,.25A8.23,8.23,0,0,1,155,37.75Zm-.09,0a7.57,7.57,0,0,0-3.45-3.29,4.94,4.94,0,0,0-7.22,3.89,7.76,7.76,0,0,0,4.27,8,4.95,4.95,0,0,0,7.24-3.87A7.58,7.58,0,0,0,154.93,37.8Z"/><ellipse class="cls-14" cx="148.88" cy="40.56" rx="3.68" ry="4.75" transform="translate(-2.35 71.18) rotate(-26.69)"/><ellipse class="cls-15" cx="149.99" cy="38.19" rx="1.25" ry="1.61" transform="translate(-1.17 71.43) rotate(-26.69)"/><path class="cls-10" d="M130.17,33.8a4.64,4.64,0,0,1,2.65-1.33.87.87,0,0,1,.77.22.91.91,0,0,1,.15.35,2.06,2.06,0,0,1,.07.92,1.9,1.9,0,0,1-.89,1.17,13.11,13.11,0,0,1-1.35.68A6.46,6.46,0,0,0,130,37a3.15,3.15,0,0,1-1.17.92c-.35.11-1,0-1.07-.43s.32-.94.49-1.25A9.66,9.66,0,0,1,130.17,33.8Z"/><path class="cls-10" d="M145.75,30.31a5.12,5.12,0,0,0-3,.85,1,1,0,0,0-.47.71.76.76,0,0,0,.11.36,1.64,1.64,0,0,0,2,1c.52-.09,1-.29,1.53-.43a6.81,6.81,0,0,1,2.05-.24,3.38,3.38,0,0,0,1.55-.12c.35-.16.76-.7.58-1.08s-.88-.49-1.21-.59A9.61,9.61,0,0,0,145.75,30.31Z"/><path class="cls-16" d="M135.18,18.82a1.57,1.57,0,0,0,.72-.84,8.7,8.7,0,0,0,.78-2.54c.1-.69.19-1.51.81-1.84a1.7,1.7,0,0,1,.81-.15,2,2,0,0,1,1.26.29,2.25,2.25,0,0,1,.64,1,10,10,0,0,1,1,4,5.29,5.29,0,0,0,.11,2.57,5.7,5.7,0,0,0,2.49-3.53,1,1,0,0,1,.29-.62.71.71,0,0,1,.32-.1,1.38,1.38,0,0,1,1.07.45,4.21,4.21,0,0,1,.67,1l.46.85a12.36,12.36,0,0,1,.64,1.32,5.36,5.36,0,0,1-.42,4.57,2.33,2.33,0,0,1-.66.77,2.23,2.23,0,0,1-1.52.33,14.28,14.28,0,0,1-1.55-.33,18.83,18.83,0,0,0-5.46-.07c.13.09,0,.26-.2.29-1.76.42-3.67.27-5.3,1.06a9.4,9.4,0,0,0-1.69,1.13,24.14,24.14,0,0,0-4.57,4.22,10.27,10.27,0,0,1-.93,1.14,24.78,24.78,0,0,1-2.36,1.57,13.12,13.12,0,0,0-2.06,2.39A4.8,4.8,0,0,1,118,39.56a4.55,4.55,0,0,1-2.94-.53,5.79,5.79,0,0,1-2.62-2.21,4.62,4.62,0,0,1-.28-3.61,7.29,7.29,0,0,1,2.06-3.05,4.46,4.46,0,0,0,.91-1c.22-.39.3-.85.5-1.25a3.4,3.4,0,0,1,2.71-1.65c1.1-.13,2.21,0,3.31,0,.24,0,.54-.07.57-.31a.47.47,0,0,0-.15-.36,6.42,6.42,0,0,0-2.15-1.72c-.86-.41-1.8-.62-2.68-1a3.6,3.6,0,0,1-2-1.88,3,3,0,0,1,.87-3.07,6.69,6.69,0,0,1,3-1.52A11.09,11.09,0,0,1,123.2,16,6.43,6.43,0,0,1,127,17.66a5.43,5.43,0,0,0,1.59,1.4,20.54,20.54,0,0,1,.29-3.59,18.09,18.09,0,0,0,.08-2.33,1.09,1.09,0,0,1,.29-.87c.33-.26.81-.06,1.17.15a10.13,10.13,0,0,1,1.36.87,7,7,0,0,1,1.08,1.1A11.18,11.18,0,0,1,135.18,18.82Z"/><path class="cls-17" d="M123.75,108.25c-.35,4.44-1,25.4-42.79,18.75a50.59,50.59,0,0,1-20.49-9.76,39.2,39.2,0,0,1-11.91-15.81A8.16,8.16,0,0,1,48,98.49c.08-2,1.35-4.13,6.82-2.86-.28-.17-5.72-3.49-3.22-6.64a4.11,4.11,0,0,1,5.53-1.25c-.55-.42-3.63-2.87-1.62-4.89,1.29-1.29,6.37.24,12.31,1.55,4.29.95,9,1.78,13.1,1.35,9.71-1,27.61-3.41,35.12,3.92A29.76,29.76,0,0,1,120.45,95,20.8,20.8,0,0,1,123.75,108.25Z"/><path class="cls-18" d="M123.75,108.25c-.35,4.44-1,25.4-42.79,18.75a50.59,50.59,0,0,1-20.49-9.76,5.51,5.51,0,0,1,4-2.48c-1.75-.86-3.74-2.06-3.88-4a3.83,3.83,0,0,1,2-3.37,11.5,11.5,0,0,1,3.9-1.25,9.64,9.64,0,0,1-3.17-1.5,3.27,3.27,0,0,1-1.27-3.1C62.53,99.6,65,99,67,99.09c-2.26-.31-3.43-3.33-2.36-5.36s3.64-2.9,5.89-2.53c-2.13-.56-4.54-3.87-3.28-6.13a2.13,2.13,0,0,1,.64-.67c4.29.95,9,1.78,13.1,1.35,9.71-1,27.61-3.41,35.12,3.92A29.76,29.76,0,0,1,120.45,95,20.8,20.8,0,0,1,123.75,108.25Z"/><path class="cls-19" d="M123.75,108.25c-.35,4.44-1,25.4-42.79,18.75,0,0-23.7-4.26-32.4-25.57A8.16,8.16,0,0,1,48,98.49c12.28,22.82,47.6,29.29,63.09,21.87,12-5.75,10.8-18.8,9.32-25.38A20.8,20.8,0,0,1,123.75,108.25Z"/></svg>