<svg id="Layer_1" data-name="Layer 1" xmlns="http://www.w3.org/2000/svg" viewBox="0 0 38.12 29.18"><defs><style>.cls-1{fill:#66441c;}.cls-2{fill:#fff;stroke:#66441c;stroke-miterlimit:10;stroke-width:0.5px;}.cls-3{fill:#30200f;}.cls-4{fill:#efdece;}</style></defs><path class="cls-1" d="M11.7,5.88c-.28,0-5.31,1-6,4,0,0,4-3,6.55-2.42Z"/><path class="cls-1" d="M27.31,6.63c.27,0,5.15,1.65,5.53,4.68,0,0-3.58-3.51-6.22-3.18Z"/><path class="cls-2" d="M16.61,17.51c0,3.53-2.34,6.4-5.23,6.4S6.14,21,6.14,17.51a7.22,7.22,0,0,1,.76-3.29,5.12,5.12,0,0,1,4.48-3.1,5.35,5.35,0,0,1,4.84,4A7.7,7.7,0,0,1,16.61,17.51Z"/><path class="cls-2" d="M32.7,18.69c0,3.53-2.35,6.4-5.24,6.4s-5.23-2.87-5.23-6.4a7.38,7.38,0,0,1,.87-3.53,5.06,5.06,0,0,1,4.36-2.86,5.39,5.39,0,0,1,4.9,4.15A7.4,7.4,0,0,1,32.7,18.69Z"/><ellipse class="cls-3" cx="11.96" cy="19.28" rx="3.24" ry="3.73"/><ellipse class="cls-4" cx="13.08" cy="17.82" rx="1.29" ry="1.49"/><ellipse class="cls-3" cx="27.04" cy="20.56" rx="3.24" ry="3.73"/><ellipse class="cls-4" cx="28.16" cy="19.1" rx="1.29" ry="1.49"/></svg>