<svg id="Layer_1" data-name="Layer 1" xmlns="http://www.w3.org/2000/svg" viewBox="0 0 118.12 70.59"><defs><style>.cls-1,.cls-3{fill:#fff;}.cls-1{stroke:#3d2d16;}.cls-1,.cls-4{stroke-miterlimit:10;stroke-width:0.75px;}.cls-2{fill:#3d2d16;}.cls-4{fill:#f9dad2;stroke:#4c2606;}</style></defs><path class="cls-1" d="M42.54,46.44c0,7.6-5.82,13.76-13,13.76s-13-6.16-13-13.76A14.55,14.55,0,0,1,17.57,41a13,13,0,0,1,12-8.34A13.13,13.13,0,0,1,42,42.41,14.86,14.86,0,0,1,42.54,46.44Z"/><ellipse class="cls-2" cx="29.35" cy="46.29" rx="8.71" ry="9.21"/><ellipse class="cls-3" cx="26.35" cy="41.41" rx="2.39" ry="2.53"/><path class="cls-1" d="M104.55,48.92c0,7.61-5.83,13.77-13,13.77s-13-6.16-13-13.77a14.33,14.33,0,0,1,.88-5,12.77,12.77,0,0,1,24.23-.08A14.33,14.33,0,0,1,104.55,48.92Z"/><ellipse class="cls-2" cx="91.22" cy="48.91" rx="8.57" ry="9.07"/><ellipse class="cls-3" cx="88.71" cy="43.76" rx="2.39" ry="2.53"/><path class="cls-2" d="M87.14,21.05s13-2.21,19.17,6.4c.25.35.84.19.81-.22-.2-2.62-1.62-8-9.68-9.57C84.74,15.17,87.14,21.05,87.14,21.05Z"/><path class="cls-2" d="M37.57,15.75s-13-2.21-19.18,6.4a.44.44,0,0,1-.8-.22c.2-2.62,1.61-8,9.67-9.57C40,9.87,37.57,15.75,37.57,15.75Z"/><path class="cls-4" d="M42,42.41a54.43,54.43,0,0,0-5.53-1.47,47.19,47.19,0,0,0-8.15-1c-1.4,0-2.71,0-3.93,0-.52,0-1,.07-1.49.12a36.8,36.8,0,0,0-5.31.89,13,13,0,0,1,12-8.34A13.13,13.13,0,0,1,42,42.41Z"/><path class="cls-4" d="M103.64,43.86a34.17,34.17,0,0,0-6.43-1.43,40.26,40.26,0,0,0-6.68-.29c-1.35.06-2.65.17-3.87.32L85,42.7a51.46,51.46,0,0,0-5.56,1.24,12.77,12.77,0,0,1,24.23-.08Z"/></svg>