<svg id="Layer_1" data-name="Layer 1" xmlns="http://www.w3.org/2000/svg" viewBox="0 0 53.18 32.24"><defs><style>.cls-1{fill:#66441c;}.cls-2{fill:#fff;stroke:#66441c;}.cls-2,.cls-5{stroke-miterlimit:10;stroke-width:0.5px;}.cls-3{fill:#30200f;}.cls-4{fill:#efdece;}.cls-5{fill:#ffef9f;stroke:#7c4c00;}</style></defs><path class="cls-1" d="M16.35,4.4c-.34,0-6.56,1.28-7.47,4.93,0,0,4.91-3.78,8.08-3Z"/><path class="cls-1" d="M35.6,5.33c.34,0,6.36,2,6.83,5.76,0,0-4.42-4.32-7.67-3.92Z"/><path class="cls-2" d="M22.41,18.75c0,4.36-2.89,7.89-6.45,7.89S9.5,23.11,9.5,18.75a9,9,0,0,1,1.13-4.45A6.21,6.21,0,0,1,16,10.86a6.42,6.42,0,0,1,5.71,4.23A9.27,9.27,0,0,1,22.41,18.75Z"/><path class="cls-2" d="M42.26,20.2c0,4.36-2.89,7.89-6.46,7.89s-6.45-3.53-6.45-7.89a9,9,0,0,1,.91-4,6.3,6.3,0,0,1,5.54-3.87,6.44,6.44,0,0,1,5.75,4.3A9.07,9.07,0,0,1,42.26,20.2Z"/><ellipse class="cls-3" cx="16.67" cy="20.93" rx="3.99" ry="4.6"/><ellipse class="cls-4" cx="18.05" cy="19.13" rx="1.6" ry="1.84"/><ellipse class="cls-3" cx="35.27" cy="22.51" rx="3.99" ry="4.6"/><ellipse class="cls-4" cx="36.65" cy="20.71" rx="1.6" ry="1.84"/><path class="cls-5" d="M21.67,15.09a31.17,31.17,0,0,0-11-.79A6.21,6.21,0,0,1,16,10.86,6.42,6.42,0,0,1,21.67,15.09Z"/><path class="cls-5" d="M41.55,16.62a37.27,37.27,0,0,0-11.29-.43,6.3,6.3,0,0,1,5.54-3.87A6.44,6.44,0,0,1,41.55,16.62Z"/></svg>