<svg id="Layer_1" data-name="Layer 1" xmlns="http://www.w3.org/2000/svg" viewBox="0 0 154.24 100.59"><defs><style>.cls-1,.cls-4{fill:#f8f6f0;}.cls-1,.cls-5{stroke:#7f796a;stroke-miterlimit:10;}.cls-2{fill:#7e57a3;}.cls-3{fill:#12170d;}.cls-5{fill:#fe4786;}</style></defs><path class="cls-1" d="M72.69,48c0,20.87-14.9,37.79-33.29,37.79S6.11,68.87,6.11,48A42.58,42.58,0,0,1,7.56,37a40,40,0,0,1,3.16-8.13C16.5,17.68,27.18,10.21,39.4,10.21c10.55,0,20,5.57,26.05,14.27a38.28,38.28,0,0,1,2.48,4,0,0,0,0,0,0,0c.57,1.07,1.09,2.18,1.57,3.32a0,0,0,0,0,0,0A42,42,0,0,1,72.69,48Z"/><ellipse class="cls-2" cx="48.08" cy="51.38" rx="18.97" ry="21.54"/><ellipse class="cls-3" cx="48.67" cy="50.8" rx="6.84" ry="7.77"/><ellipse class="cls-4" cx="55.51" cy="45.21" rx="5.56" ry="6.31"/><path class="cls-1" d="M137.18,47.19c0,19.28-13.76,34.9-30.74,34.9S75.69,66.47,75.69,47.19a39.47,39.47,0,0,1,1.23-9.81,37.23,37.23,0,0,1,2.49-6.85c5.21-10.86,15.36-18.24,27-18.24,9,0,17,4.36,22.66,11.32h0a36.09,36.09,0,0,1,6.26,11.76A39.09,39.09,0,0,1,137.18,47.19Z"/><ellipse class="cls-2" cx="114.46" cy="50.31" rx="17.52" ry="19.89"/><ellipse class="cls-3" cx="115" cy="49.78" rx="6.32" ry="7.17"/><ellipse class="cls-4" cx="121.32" cy="44.62" rx="5.14" ry="5.83"/><path class="cls-5" d="M65.45,24.48C38.68,21.12,17.28,31.18,7.56,37a40,40,0,0,1,3.16-8.13C16.5,17.68,27.18,10.21,39.4,10.21,50,10.21,59.36,15.78,65.45,24.48Z"/><path class="cls-5" d="M67.94,28.54c.57,1.07,1.09,2.18,1.57,3.32A21.09,21.09,0,0,1,67.94,28.54Z"/><path class="cls-5" d="M129.1,23.61A93.93,93.93,0,0,0,76.92,37.38a37.23,37.23,0,0,1,2.49-6.85c5.21-10.86,15.36-18.24,27-18.24C115.41,12.29,123.48,16.65,129.1,23.61Z"/></svg>