<svg id="Layer_1" data-name="Layer 1" xmlns="http://www.w3.org/2000/svg" viewBox="0 0 160.94 165.65"><defs><style>.cls-1,.cls-3{fill:#ffd15f;}.cls-2{fill:none;}.cls-2,.cls-3{stroke:#d67d13;}.cls-2,.cls-3,.cls-4,.cls-5,.cls-6{stroke-miterlimit:10;}.cls-4{fill:#c34804;stroke:#7c320d;}.cls-5{fill:#ffe783;}.cls-5,.cls-6{stroke:#7c4c00;}.cls-6{fill:#ffef9f;}.cls-7{fill:#66441c;}.cls-8{fill:#fff;}.cls-9{fill:#30200f;}.cls-10{fill:#efdece;}.cls-11{fill:#e57d28;}.cls-12{fill:#84083a;}</style></defs><path class="cls-1" d="M59.55,79.58s-1-8.09-8.88-2.43-20.3,10.92-40.32,3.77c0,0,.43,3.91,7.47,6.88,0,0-5.92-.41,4.37,5.93,0,0-4.37.67,6.63,6.6,0,0-2.68,3,10.15,4.45s22.56-15,22.56-15L60.12,79.71"/><path class="cls-2" d="M59.55,79.58s-1-8.09-8.88-2.43-20.3,10.92-40.32,3.77c0,0,.43,3.91,7.47,6.88,0,0-5.92-.41,4.37,5.93,0,0-4.37.67,6.63,6.6,0,0-2.68,3,10.15,4.45s22.56-15,22.56-15L60.12,79.71"/><path class="cls-1" d="M16.56,86.85s14.8,7.55,34-3.23"/><path class="cls-2" d="M16.56,86.85s14.8,7.55,34-3.23"/><path class="cls-1" d="M20.93,93.19a36.3,36.3,0,0,0,31.15-4.45"/><path class="cls-2" d="M20.93,93.19a36.3,36.3,0,0,0,31.15-4.45"/><path class="cls-1" d="M27.83,99.66s16.78,3.5,25.52-5.66"/><path class="cls-2" d="M27.83,99.66s16.78,3.5,25.52-5.66"/><path class="cls-3" d="M95.93,82.81s1-8.08,8.88-2.42,20.3,10.91,40.32,3.77c0,0-.43,3.91-7.48,6.87,0,0,5.93-.4-4.37,5.93,0,0,4.37.68-6.62,6.6,0,0,2.68,3-10.15,4.45S94,93.05,94,93.05L95.36,83"/><path class="cls-3" d="M138.92,90.09s-14.8,7.55-34-3.24"/><path class="cls-3" d="M134.55,96.42A36.32,36.32,0,0,1,103.4,92"/><path class="cls-3" d="M127.65,102.89s-16.78,3.5-25.52-5.66"/><path class="cls-4" d="M67.88,123.1l1,4.43a.66.66,0,0,1,0,.44c-.08.13-.31.19-.39.06a62.89,62.89,0,0,1-1,11.61,5.5,5.5,0,0,1-.61,2c-.73,1.22-2.2,1.81-3.53,2.42-1,.45-2,1-2.91,1.49-.39.23-.84.56-.81,1a2,2,0,0,0,1.74-.13q1.68-.71,3.3-1.56a2.72,2.72,0,0,1,1.89-.48,2.11,2.11,0,0,1,1.32,1.43,5.62,5.62,0,0,0,.85,1.82.53.53,0,0,0,.41.22c.33,0,.64-.32.56-.63-.17-.74,0-1.51-.14-2.25.93.39,1.18.65,2.1,1a5.09,5.09,0,0,0,3.47.57.56.56,0,0,0,.31-.2c.12-.2,0-.44-.2-.61a9.83,9.83,0,0,0-2.4-1.94c-.9-.52-2-1-2.4-1.9a3.93,3.93,0,0,1-.25-.89,23.1,23.1,0,0,1,1.15-12.45"/><path class="cls-4" d="M86.66,122.3l-.83,4.42a.73.73,0,0,0,0,.44c.06.14.26.19.33.06A75.12,75.12,0,0,0,87,138.83a6.59,6.59,0,0,0,.53,2,6.43,6.43,0,0,0,3,2.42,28.73,28.73,0,0,1,2.49,1.49c.34.24.72.56.7,1a1.46,1.46,0,0,1-1.5-.13c-1-.47-1.91-1-2.83-1.56a2.13,2.13,0,0,0-1.62-.48A2,2,0,0,0,86.66,145a6.35,6.35,0,0,1-.72,1.82.46.46,0,0,1-.36.22.54.54,0,0,1-.48-.63c.15-.74,0-1.51.12-2.25-.8.39-1,.65-1.8,1a3.85,3.85,0,0,1-3,.57.45.45,0,0,1-.27-.2c-.1-.2,0-.44.17-.61A9,9,0,0,1,82.4,143c.78-.53,1.69-1,2.06-1.91a3.86,3.86,0,0,0,.22-.89,26.78,26.78,0,0,0-1-12.45"/><path class="cls-5" d="M92.57,74.23h0l-.07,0a15.31,15.31,0,0,0,5,8.23,29.08,29.08,0,0,1,6.7,8.62l-1.35-.2c2,3.1,2.19,8.22,2.19,8.22,1.12,12.73-6.91,20.95-10.5,22.77a13.57,13.57,0,0,0-6.28,6.54c-.84,1.89-4.58,3.23-5.29,1s-1.89-2.5-1.89-2.5l-7.34-.06s.29,3.63-3.67,3.23-3-5.11-6.69-7.21S51.38,112.66,49.9,104C48.46,95.49,51,90.8,51.16,90.57l-1.54,1.07c.91-4.92,7.25-10.17,9.79-13.14a16.8,16.8,0,0,0,3.25-7.15"/><path class="cls-6" d="M105.35,63l-1.82-1.11a5.77,5.77,0,0,1,.86,4.54L103,64.52l0,2.54C101.59,75,93.37,77.8,92.35,78.13h0c-16,5.86-25.61,1.07-30.79-1.92a19.62,19.62,0,0,1-5.09-4.45c-3.73-4.27-3.38-10.08-3.38-10.08l-1.52,2A5,5,0,0,1,53,58.1l-1.8.58a4.72,4.72,0,0,1,3-4.52l-2.52.26c.5-2.77,3.69-3.85,3.69-3.85a28.22,28.22,0,0,1,7.14-13c4.16-4.51,13.5-6.79,13.5-6.79L73.9,28.37l3.53,1.45A4.33,4.33,0,0,1,77,25s1.08,4.89,4.22,5.72S86.29,32,86.29,32c16.86,5.82,17.39,22.66,17.39,22.66a19.33,19.33,0,0,1,1.51,4.87,4.3,4.3,0,0,0-1.82-1C105.22,61.66,105.35,63,105.35,63Z"/><path class="cls-7" d="M71.17,37.9c-.28,0-5.21,1.27-5.8,4.23,0,0,3.79-3.21,6.37-2.71Z"/><path class="cls-7" d="M86.66,37.89c.27,0,5.18,1.39,5.71,4.37,0,0-3.72-3.3-6.32-2.85Z"/><ellipse class="cls-8" cx="71.41" cy="49.42" rx="5.19" ry="6.34" transform="translate(-2.29 3.49) rotate(-2.76)"/><path class="cls-7" d="M76.59,49.18a7.59,7.59,0,0,1-1.08,4.35A5.07,5.07,0,0,1,71.73,56a5.18,5.18,0,0,1-4.28-1.88,7.38,7.38,0,0,1-1.72-4.43A7.47,7.47,0,0,1,67,45.12a5.18,5.18,0,0,1,4.08-2.28,5,5,0,0,1,4,2.11A7.47,7.47,0,0,1,76.59,49.18Zm0,0A7,7,0,0,0,75,45a4.68,4.68,0,0,0-3.87-1.7,4.56,4.56,0,0,0-3.39,2.26,7,7,0,0,0-1,4,7.11,7.11,0,0,0,1.38,3.93,4.57,4.57,0,0,0,3.59,1.93,4.67,4.67,0,0,0,3.69-2.06A6.87,6.87,0,0,0,76.59,49.18Z"/><ellipse class="cls-8" cx="87.39" cy="49.83" rx="5.19" ry="6.34" transform="matrix(1, -0.05, 0.05, 1, -2.29, 4.26)"/><path class="cls-7" d="M82.21,50.08a6.91,6.91,0,0,0,1.61,4.13,4.63,4.63,0,0,0,3.87,1.7,4.55,4.55,0,0,0,3.39-2.26,7.17,7.17,0,0,0,1-4,7,7,0,0,0-1.39-3.93,4.52,4.52,0,0,0-3.59-1.92,4.66,4.66,0,0,0-3.69,2A7,7,0,0,0,82.21,50.08Zm0,0a7.56,7.56,0,0,1,1.09-4.35,5,5,0,0,1,3.78-2.49,5.19,5.19,0,0,1,4.28,1.88,7.54,7.54,0,0,1,.43,9,5.18,5.18,0,0,1-4.08,2.28,5.05,5.05,0,0,1-4-2.11A7.61,7.61,0,0,1,82.21,50.08Z"/><ellipse class="cls-9" cx="72.07" cy="51.15" rx="3.21" ry="3.7" transform="translate(-2.38 3.52) rotate(-2.76)"/><ellipse class="cls-10" cx="73.11" cy="49.65" rx="1.28" ry="1.48" transform="translate(-2.3 3.57) rotate(-2.76)"/><ellipse class="cls-9" cx="87.06" cy="51.7" rx="3.21" ry="3.7" transform="translate(-2.38 4.24) rotate(-2.76)"/><ellipse class="cls-10" cx="88.09" cy="50.2" rx="1.28" ry="1.48" transform="translate(-2.31 4.29) rotate(-2.76)"/><path class="cls-11" d="M67.72,59.79a29.78,29.78,0,0,0,8.21-4.06c3.81-2.8,6.53-.6,9.62,2.07s5.57,2.7,5.57,2.7S86.4,63.76,85,65.87s-5.82,6.57-12-.05S67.72,59.79,67.72,59.79Z"/><path class="cls-12" d="M67.81,59.4A19.9,19.9,0,0,0,70.43,61a19,19,0,0,0,2.73,1.23A15.06,15.06,0,0,0,76,63a13.41,13.41,0,0,0,2.9.23,29.12,29.12,0,0,0,5.91-.78,27.91,27.91,0,0,0,2.94-.82c1-.27,1.94-.65,2.92-1l.06.08A25.94,25.94,0,0,1,85,63.19a22.75,22.75,0,0,1-6.13,1A14.23,14.23,0,0,1,72.85,63a16.44,16.44,0,0,1-5.11-3.5Z"/></svg>