<svg id="Layer_1" data-name="Layer 1" xmlns="http://www.w3.org/2000/svg" viewBox="0 0 223.53 199.06"><defs><style>.cls-1{fill:#d10409;stroke:#a30814;}.cls-1,.cls-2,.cls-3,.cls-6{stroke-miterlimit:10;}.cls-2{fill:#c34804;stroke:#7c320d;}.cls-3{fill:#fcf200;stroke:#a89c0b;}.cls-4{fill:#fec119;}.cls-5{fill:#f2a905;}.cls-6{fill:#ff7e2a;stroke:#af440e;}.cls-7{fill:#ff631e;}.cls-8{fill:#ffe632;}.cls-9{fill:#ffd713;}.cls-10{fill:#fd1441;}.cls-11{fill:#dc0604;}.cls-12{fill:#fb6010;}.cls-13{fill:#fde664;}.cls-14{fill:#febe42;}.cls-15{fill:#f9f2f2;}.cls-16{fill:#683c3c;}.cls-17{fill:#30252b;}.cls-18{fill:#fff;}.cls-19{fill:#8c0606;}</style></defs><path class="cls-1" d="M203.31,110.89c3.22-1.27,6-3.9,6.23-7.06a1.77,1.77,0,0,0-.62-1.68,2.35,2.35,0,0,0-1.37-.25,16.33,16.33,0,0,0-5.1.95A40.56,40.56,0,0,1,204.9,98c.78-1.63,1.15-3.6.16-5.13s-3.77-2.08-4.93-.65c-.35.44-.53,1-1,1.3a1.76,1.76,0,0,1-2.17-.63,4.08,4.08,0,0,1-.53-2.2,12,12,0,0,0-1.05-5,5.27,5.27,0,0,0-4.41-2.89c-1.92,0-3.79,1.67-3.32,3.34-.4,1.1-2.38.76-3.09-.22s-.76-2.24-1.48-3.2a4,4,0,0,0-5-.78,3.51,3.51,0,0,0-1.27,4.53c-2-1.35-4.13-2.75-6.62-2.92S164.88,85,165,87.24c.09,1.5,1.46,2.74,3,3.35a22.81,22.81,0,0,0,4.89,1c7.9,1.21,11.31,5.09,15.47,11.25.91,1.34.41,3.52.45,5.11a5.28,5.28,0,0,0,1.78,3.34C192.43,113.29,201.3,111.68,203.31,110.89Z"/><path class="cls-2" d="M85.82,150.1s-3.67,3-5.12,25.58c0,0-6.45.11-6.56.89s6.45,1.89,6.45,1.89,4.45,8.89,6.12,10.23,2.89.11-2-7.67c0,0,3.22,1.44,7.12,3.67,0,0,3.11.44-3.56-5,0,0,.89-1,6.11.56,0,0,5.9-1.45-10.45-4.23a43.77,43.77,0,0,1,5.67-23.13C96.28,141.09,85.82,150.1,85.82,150.1Z"/><path class="cls-2" d="M104.07,147.82s-3,3.63-.3,26.09c0,0-6.31,1.3-6.28,2.08s6.69.67,6.69.67,6,7.92,7.9,8.92,2.86-.42-3.38-7.17c0,0,3.43.83,7.67,2.29,0,0,3.14-.14-4.42-4.26,0,0,.69-1.15,6.11-.58,0,0,5.53-2.51-11-2.22a43.72,43.72,0,0,1,1.29-23.79C112.68,137,104.07,147.82,104.07,147.82Z"/><path class="cls-3" d="M50.27,39s.18-12.95-4.36-17.17-5,3.59-4.3,6.49c0,0-5.76-10.63-11.28-8.55s3.46,14.7,3.46,14.7-10.91-7.9-14-2.87,3.44,9.5,8.44,12.42c0,0-11.6-3.83-12.42,2S27.9,52.6,27.9,52.6s-4.93,1-3.41,3.74,6.82,3.2,10.79.23S50.27,39,50.27,39Z"/><path class="cls-4" d="M49.56,38.67v-.28C49.56,37,49.44,31,47,28c-2.75-3.3-4.5.35-3.35,4.45,0,0-4.67-6.84-8.49-5.51s2,10.67,2,10.67-8.06-5.35-10.46-1.73,6.44,9.21,6.44,9.21-7.22-2-10.3,1.84S33.7,51.91,33.7,51.91s-5.86.79-5.79,3.5,5.22,3.6,7.9,1S49.56,38.67,49.56,38.67Z"/><path class="cls-5" d="M49.28,38.09s-2.43-9.22-4.48-1.9c0,0-3.77-4-4.69-.18s.85,5.37.85,5.37S36.2,38.89,33.49,41c0,0-1.32,2.59,3.68,5.11a8.17,8.17,0,0,0-5.33,1.8c-2.25,2,4,4.1,4,4.1s-4.81.41-3.54,2.72a3.18,3.18,0,0,0,3.55,1.69S37.87,41.6,49.28,38.09Z"/><path class="cls-6" d="M152.24,131.19a68.53,68.53,0,0,1-5.26,6.22,61.57,61.57,0,0,1-9.84,8.37,59.18,59.18,0,0,1-25.37,9.65C72.23,161,40.41,139.78,34.35,78.9l.12-1.59s-1.25-22.25,8.71-37.26a3.92,3.92,0,0,1,.49-.6c1.52-1.55,6.63-5,16.63,4.95C70.07,54.09,81,65.9,107.06,78.14c1.75.82,22,7.13,19,18.79-1,4,37.4,14.71,33.43,22.51A80.29,80.29,0,0,1,152.24,131.19Z"/><path class="cls-7" d="M137.4,145.38A59.05,59.05,0,0,1,112,155c-39.54,5.59-71.36-15.65-77.42-76.53l.12-1.58s-1.25-22.25,8.71-37.27a4.22,4.22,0,0,1,.49-.59c-3.5,11-12.63,47.87,9.81,78.9C77.78,151.19,117.3,150.83,137.4,145.38Z"/><path class="cls-8" d="M120.48,120.79c-1.44,4.1-7.35,23.76-45.18,7a49.58,49.58,0,0,1-16.93-14.39,38.28,38.28,0,0,1-7.28-17.94,7.92,7.92,0,0,1,.24-2.91c.59-1.9,2.31-3.57,7.17-1-.22-.23-4.53-4.74-1.38-7.09a4,4,0,0,1,5.55.2c-.42-.53-2.71-3.62-.3-5,1.54-.89,6,1.83,11.24,4.56,3.82,2,8.09,3.95,12.06,4.57,9.44,1.47,27,3.71,32.23,12.53a30.07,30.07,0,0,1,2.8,6.12A20.37,20.37,0,0,1,120.48,120.79Z"/><path class="cls-9" d="M120.48,120.79c-1.44,4.1-7.35,23.76-45.18,7a49.58,49.58,0,0,1-16.93-14.39,5.41,5.41,0,0,1,4.45-1.32c-1.44-1.26-3-2.9-2.67-4.78a3.76,3.76,0,0,1,2.74-2.68,11,11,0,0,1,4-.2,9.35,9.35,0,0,1-2.62-2.22,3.18,3.18,0,0,1-.42-3.25c.91-1.71,3.38-1.63,5.24-1.07-2.07-.87-2.41-4-.89-5.67s4.17-1.83,6.21-.92c-1.88-1.06-3.32-4.8-1.57-6.61a2.06,2.06,0,0,1,.77-.48c3.82,2,8.09,3.95,12.06,4.57,9.44,1.47,27,3.71,32.23,12.53a30.07,30.07,0,0,1,2.8,6.12A20.37,20.37,0,0,1,120.48,120.79Z"/><path class="cls-10" d="M120.48,120.79c-1.44,4.1-7.35,23.76-45.18,7,0,0-21.34-10-24.21-32.33a7.92,7.92,0,0,1,.24-2.91c5.88,24.66,37.66,39.66,54.18,36.53,12.78-2.42,14.94-15.06,15.19-21.66A20.37,20.37,0,0,1,120.48,120.79Z"/><path class="cls-11" d="M184,95.68a5,5,0,0,0-2.91-.93.94.94,0,0,0-.77.32.9.9,0,0,0-.12.36,2,2,0,0,0,.05.9,1.89,1.89,0,0,0,1.07,1,15,15,0,0,0,1.48.47,6.8,6.8,0,0,1,1.8.92,3.19,3.19,0,0,0,1.33.74c.37.06,1-.16,1.06-.57s-.46-.87-.67-1.14A9.84,9.84,0,0,0,184,95.68Z"/><path class="cls-6" d="M137.14,145.78a46,46,0,0,0,14.6-11.42c1.4-1.61,2.62-3.17,3.65-4.6l.11-.16a53.28,53.28,0,0,0,4.06-6.53c29.36,3.34,39.15-16.46,29.81-27.14-9.11-10.4-17.57-9.4-38.37-6.26h0l-1.67.26a30.28,30.28,0,0,1-7.52.08c-.38,0-.77-.08-1.15-.13-6.54-.82-13.94-3.16-21.18-6.09-1.3-.52-2.59-1.07-3.88-1.63A250.24,250.24,0,0,1,83.94,65.24l36,19.13"/><path class="cls-12" d="M155.56,122.85a52.8,52.8,0,0,1-4.06,6.52l-.12.17a57.38,57.38,0,0,1-3.65,4.59c-6.27-2.16-3.52-9.95-3.52-9.95-8.45-2.44-3.11-10.23-3.11-10.23-9.79-2.89-3.78-11.79-3.78-11.79-9.57-6.89-.67-12.23-.67-12.23v-.27l1.14.13a30.28,30.28,0,0,0,7.52-.08l1.68-.26h0c20.79-3.14,29.26-4.14,38.36,6.26C194.7,106.39,184.92,126.18,155.56,122.85Z"/><path class="cls-13" d="M159.56,123.07a53.28,53.28,0,0,1-4.06,6.53l-.11.16a4.22,4.22,0,0,1-.27-2.94,7,7,0,0,1-6.76-1.63c-1.67-1.76-1.88-4.89-.12-6.56.52-.51,1.19-.88,1.51-1.53a4.2,4.2,0,0,1-5.32-2.61,5.7,5.7,0,0,1,1.94-6,5.14,5.14,0,0,1-5.6-3.83,5.06,5.06,0,0,1,3.53-5.77c-1.44.37-3.25-.57-4.21-1.56-1.6-1.63-1.38-2.56-.22-4.26.74-1.08,1.36-2.08,1.94-3.1a30.28,30.28,0,0,0,7.52-.08l1.67-.26h0c20.8-3.14,29.26-4.14,38.37,6.26C198.71,106.61,188.92,126.41,159.56,123.07Z"/><path class="cls-14" d="M159.56,123.07a53.28,53.28,0,0,1-4.06,6.53c-4.38-2.41-.27-6.86,1.53-8.54-.79.29-2.3.07-5-2.66-3.94-3.94,1.77-6.77,3.66-7.56-4.68,1.7-6.33-2-6.33-2-4.9-4.46,4-8.46,4-8.46s-7.56.22-6.45-5.11a8.24,8.24,0,0,1,4.12-5.6h0c20.8-3.14,29.26-4.14,38.37,6.26C198.71,106.61,188.92,126.41,159.56,123.07Z"/><ellipse class="cls-15" cx="179.36" cy="107.72" rx="6.64" ry="5.52" transform="translate(-28.68 129.94) rotate(-37.09)"/><path class="cls-16" d="M182.72,112.17a8.12,8.12,0,0,1-4.48,1.67,5.52,5.52,0,0,1-4.56-1.83,5.72,5.72,0,0,1-1.1-5.05,7.93,7.93,0,0,1,7.89-6,5.77,5.77,0,0,1,4.56,2.43,5.53,5.53,0,0,1,.51,4.89A8.07,8.07,0,0,1,182.72,112.17Zm-.06-.08a7.43,7.43,0,0,0,2.66-3.83,4.84,4.84,0,0,0-4.85-6.4,7.33,7.33,0,0,0-4.38,1.54,7.42,7.42,0,0,0-2.68,3.79,4.85,4.85,0,0,0,4.83,6.42A7.52,7.52,0,0,0,182.66,112.09Z"/><ellipse class="cls-17" cx="180.24" cy="109.72" rx="4.65" ry="3.6" transform="translate(-30.2 125.23) rotate(-35.54)"/><ellipse class="cls-18" cx="181.54" cy="107.37" rx="1.58" ry="1.22" transform="translate(-28.59 125.54) rotate(-35.54)"/><path class="cls-11" d="M179.94,116.06s-3.33,3.81-1.68,10.17a13.17,13.17,0,0,0,6.92,8.59L184,118.61Z"/><path class="cls-19" d="M181.39,118.3c.12.57-1.63,5,3.81,16.74,0,0,.21-10.58.71-11.34S181.39,118.3,181.39,118.3Z"/><path class="cls-11" d="M179.67,115.76s6.53.12,8.8,1.23,11.35,9.13,9.61,17.19c0,0-17.51-11-19.24-17.17Z"/><ellipse class="cls-19" cx="187.6" cy="118.14" rx="0.56" ry="1.14" transform="translate(-14.56 209.15) rotate(-56.44)"/><path class="cls-11" d="M179.19,92.76a4.66,4.66,0,0,1,2.88.35.83.83,0,0,1,.5.6.85.85,0,0,1-.06.36,2.16,2.16,0,0,1-.44.8,1.9,1.9,0,0,1-1.36.47,14.39,14.39,0,0,1-1.47-.18,6.27,6.27,0,0,0-1.93.09,3,3,0,0,1-1.45.12c-.34-.1-.77-.54-.64-.93s.77-.6,1.07-.75A9.55,9.55,0,0,1,179.19,92.76Z"/></svg>