<svg id="Layer_1" data-name="Layer 1" xmlns="http://www.w3.org/2000/svg" viewBox="0 0 160.94 165.65"><defs><style>.cls-1,.cls-3{fill:#ffd15f;}.cls-2{fill:none;}.cls-2,.cls-3{stroke:#d67d13;}.cls-2,.cls-3,.cls-4,.cls-5,.cls-6{stroke-miterlimit:10;}.cls-4{fill:#c34804;stroke:#7c320d;}.cls-5{fill:#ffe783;}.cls-5,.cls-6{stroke:#7c4c00;}.cls-6{fill:#ffef9f;}.cls-7{fill:#66441c;}.cls-8{fill:#fff;}.cls-9{fill:#30200f;}.cls-10{fill:#efdece;}.cls-11{fill:#e57d28;}.cls-12{fill:#84083a;}</style></defs><path class="cls-1" d="M59.55,76.43s-1-8.46-8.88-2.54-20.3,11.42-40.32,4c0,0,.43,4.09,7.47,7.19,0,0-5.92-.42,4.37,6.2,0,0-4.37.71,6.63,6.91,0,0-2.68,3.1,10.15,4.65S61.53,87.14,61.53,87.14L60.12,76.57"/><path class="cls-2" d="M59.55,76.43s-1-8.46-8.88-2.54-20.3,11.42-40.32,4c0,0,.43,4.09,7.47,7.19,0,0-5.92-.42,4.37,6.2,0,0-4.37.71,6.63,6.91,0,0-2.68,3.1,10.15,4.65S61.53,87.14,61.53,87.14L60.12,76.57"/><path class="cls-1" d="M16.56,84s14.8,7.9,34-3.38"/><path class="cls-2" d="M16.56,84s14.8,7.9,34-3.38"/><path class="cls-1" d="M20.93,90.67A34.92,34.92,0,0,0,52.08,86"/><path class="cls-2" d="M20.93,90.67A34.92,34.92,0,0,0,52.08,86"/><path class="cls-1" d="M27.83,97.43s16.78,3.67,25.52-5.92"/><path class="cls-2" d="M27.83,97.43s16.78,3.67,25.52-5.92"/><path class="cls-3" d="M95.93,79.81s1-8.46,8.88-2.53,20.3,11.41,40.32,3.94c0,0-.43,4.09-7.48,7.19,0,0,5.93-.42-4.37,6.21,0,0,4.37.7-6.62,6.9,0,0,2.68,3.1-10.15,4.66S94,90.53,94,90.53L95.36,80"/><path class="cls-3" d="M138.92,87.43s-14.8,7.89-34-3.39"/><path class="cls-3" d="M134.55,94.05A34.92,34.92,0,0,1,103.4,89.4"/><path class="cls-3" d="M127.65,100.82s-16.78,3.66-25.52-5.92"/><path class="cls-4" d="M67.88,122l1,4.63a.75.75,0,0,1,0,.47c-.08.14-.31.19-.39,0a68.67,68.67,0,0,1-1,12.15,6,6,0,0,1-.61,2.07c-.73,1.28-2.2,1.9-3.53,2.53a29.11,29.11,0,0,0-2.91,1.57c-.39.24-.84.58-.81,1a1.87,1.87,0,0,0,1.74-.14c1.12-.49,2.22-1,3.3-1.63a2.68,2.68,0,0,1,1.89-.5,2.18,2.18,0,0,1,1.32,1.5,6,6,0,0,0,.85,1.9.54.54,0,0,0,.41.23.59.59,0,0,0,.56-.66c-.17-.78,0-1.58-.14-2.35.93.41,1.18.68,2.1,1.09a4.94,4.94,0,0,0,3.47.59.53.53,0,0,0,.31-.21c.12-.21,0-.46-.2-.64a9.91,9.91,0,0,0-2.4-2c-.9-.55-2-1-2.4-2a4.42,4.42,0,0,1-.25-.93,25.23,25.23,0,0,1,1.15-13"/><path class="cls-4" d="M86.66,121.12l-.83,4.63a.8.8,0,0,0,0,.46c.06.14.26.19.33.06A82.09,82.09,0,0,0,87,138.41a7.08,7.08,0,0,0,.53,2.07,6.37,6.37,0,0,0,3,2.53,27.29,27.29,0,0,1,2.49,1.57,1.34,1.34,0,0,1,.7,1c-.44.34-1,.11-1.5-.13-1-.5-1.91-1-2.83-1.64a2.07,2.07,0,0,0-1.62-.5,2.1,2.1,0,0,0-1.14,1.5,6.75,6.75,0,0,1-.72,1.9c-.09.13-.22.25-.36.23a.56.56,0,0,1-.48-.66c.15-.77,0-1.58.12-2.35-.8.41-1,.68-1.8,1.09a3.7,3.7,0,0,1-3,.6.45.45,0,0,1-.27-.22c-.1-.21,0-.45.17-.63a9.21,9.21,0,0,1,2.06-2c.78-.55,1.69-1,2.06-2a4.07,4.07,0,0,0,.22-.93,29.27,29.27,0,0,0-1-13"/><path class="cls-5" d="M92.57,70.83h0l-.07,0a16.17,16.17,0,0,0,5,8.6,30.47,30.47,0,0,1,6.7,9l-1.35-.21c2,3.25,2.19,8.6,2.19,8.6,1.12,13.32-6.91,21.92-10.5,23.83a13.93,13.93,0,0,0-6.28,6.84c-.84,2-4.58,3.37-5.29,1S81.06,126,81.06,126l-7.34-.07a3.07,3.07,0,0,1-3.67,3.39c-3.94-.43-3-5.36-6.69-7.55S51.38,111,49.9,102c-1.44-8.87,1.13-13.78,1.26-14l-1.54,1.12c.91-5.15,7.25-10.64,9.79-13.75a18,18,0,0,0,3.25-7.47"/><path class="cls-6" d="M105.35,54.87l-1.82-1.11a5.77,5.77,0,0,1,.86,4.54L103,56.4l0,2.54C101.59,66.88,93.37,69.69,92.35,70h0c-16,5.86-25.61,1.07-30.79-1.92a19.62,19.62,0,0,1-5.09-4.45c-3.73-4.27-3.38-10.07-3.38-10.07l-1.52,2A5,5,0,0,1,53,50l-1.8.58a4.72,4.72,0,0,1,3-4.52l-2.52.27c.5-2.78,3.69-3.85,3.69-3.85a28.24,28.24,0,0,1,7.14-13c4.16-4.51,13.5-6.79,13.5-6.79L73.9,20.25l3.53,1.46A4.35,4.35,0,0,1,77,16.86s1.08,4.89,4.22,5.72,5.08,1.32,5.08,1.32c16.86,5.82,17.39,22.66,17.39,22.66a19.34,19.34,0,0,1,1.51,4.86,4.3,4.3,0,0,0-1.82-1C105.22,53.54,105.35,54.87,105.35,54.87Z"/><path class="cls-7" d="M71.17,29.78c-.28,0-5.21,1.27-5.8,4.24,0,0,3.79-3.22,6.37-2.71Z"/><path class="cls-7" d="M86.66,29.77c.27,0,5.18,1.39,5.71,4.37,0,0-3.72-3.3-6.32-2.85Z"/><ellipse class="cls-8" cx="71.41" cy="41.31" rx="5.19" ry="6.34" transform="translate(-1.9 3.48) rotate(-2.76)"/><path class="cls-7" d="M76.59,41.06a7.57,7.57,0,0,1-1.08,4.35,5,5,0,0,1-3.78,2.48A5.18,5.18,0,0,1,67.45,46a7.38,7.38,0,0,1-1.72-4.43A7.47,7.47,0,0,1,67,37a5.18,5.18,0,0,1,4.08-2.28,5,5,0,0,1,4,2.11A7.49,7.49,0,0,1,76.59,41.06Zm0,0A7,7,0,0,0,75,36.92a4.67,4.67,0,0,0-3.87-1.69,4.52,4.52,0,0,0-3.39,2.25,7,7,0,0,0-1,4.05,7.14,7.14,0,0,0,1.38,3.94,4.56,4.56,0,0,0,3.59,1.92,4.67,4.67,0,0,0,3.69-2.06A6.85,6.85,0,0,0,76.59,41.06Z"/><ellipse class="cls-8" cx="87.39" cy="41.71" rx="5.19" ry="6.34" transform="matrix(1, -0.05, 0.05, 1, -1.9, 4.25)"/><path class="cls-7" d="M82.21,42a7,7,0,0,0,1.61,4.14,4.65,4.65,0,0,0,3.87,1.69,4.52,4.52,0,0,0,3.39-2.26,7.13,7.13,0,0,0,1-4.05,7,7,0,0,0-1.39-3.93,4.52,4.52,0,0,0-3.59-1.92,4.67,4.67,0,0,0-3.69,2.06A7,7,0,0,0,82.21,42Zm0,0a7.58,7.58,0,0,1,1.09-4.35,5,5,0,0,1,3.78-2.48A5.18,5.18,0,0,1,91.36,37a7.54,7.54,0,0,1,.43,9,5.18,5.18,0,0,1-4.08,2.28,5,5,0,0,1-4-2.11A7.59,7.59,0,0,1,82.21,42Z"/><ellipse class="cls-9" cx="72.07" cy="43.03" rx="3.21" ry="3.7" transform="translate(-1.99 3.51) rotate(-2.76)"/><ellipse class="cls-10" cx="73.11" cy="41.53" rx="1.28" ry="1.48" transform="translate(-1.91 3.56) rotate(-2.76)"/><ellipse class="cls-9" cx="87.06" cy="43.58" rx="3.21" ry="3.7" transform="translate(-1.99 4.24) rotate(-2.76)"/><ellipse class="cls-10" cx="88.09" cy="42.08" rx="1.28" ry="1.48" transform="translate(-1.92 4.28) rotate(-2.76)"/><path class="cls-11" d="M67.72,51.67a29.78,29.78,0,0,0,8.21-4.06c3.81-2.8,6.53-.6,9.62,2.08s5.57,2.69,5.57,2.69S86.4,55.64,85,57.76s-5.82,6.56-12-.06S67.72,51.67,67.72,51.67Z"/><path class="cls-12" d="M67.81,51.28a20,20,0,0,0,2.62,1.63,19,19,0,0,0,2.73,1.22,15.9,15.9,0,0,0,2.84.76,14.07,14.07,0,0,0,2.9.22,28.44,28.44,0,0,0,5.91-.78,27.91,27.91,0,0,0,2.94-.82c1-.27,1.94-.65,2.92-1l.06.09A26.38,26.38,0,0,1,85,55.07a22.76,22.76,0,0,1-6.13,1,14.53,14.53,0,0,1-6.06-1.25,16.64,16.64,0,0,1-5.11-3.51Z"/></svg>