<svg id="Layer_1" data-name="Layer 1" xmlns="http://www.w3.org/2000/svg" viewBox="0 0 213.18 189.18"><defs><style>.cls-1,.cls-3{fill:#ffd15f;}.cls-2{fill:none;}.cls-2,.cls-3{stroke:#d67d13;}.cls-2,.cls-3,.cls-4,.cls-5,.cls-6{stroke-miterlimit:10;}.cls-4{fill:#c34804;stroke:#7c320d;}.cls-5{fill:#ffe783;}.cls-5,.cls-6{stroke:#7c4c00;}.cls-6{fill:#ffef9f;}.cls-7{fill:#e57d28;}.cls-8{fill:#84083a;}</style></defs><path class="cls-1" d="M84.38,78.51s-1.23-10.52-11-3.16S48.07,89.56,23.16,80.26c0,0,.53,5.09,9.3,8.95,0,0-7.37-.52,5.44,7.72,0,0-5.44.88,8.24,8.6,0,0-3.33,3.85,12.63,5.78S86.84,91.84,86.84,91.84L85.08,78.69"/><path class="cls-2" d="M84.38,78.51s-1.23-10.52-11-3.16S48.07,89.56,23.16,80.26c0,0,.53,5.09,9.3,8.95,0,0-7.37-.52,5.44,7.72,0,0-5.44.88,8.24,8.6,0,0-3.33,3.85,12.63,5.78S86.84,91.84,86.84,91.84L85.08,78.69"/><path class="cls-1" d="M30.88,88s18.42,9.83,42.28-4.21"/><path class="cls-2" d="M30.88,88s18.42,9.83,42.28-4.21"/><path class="cls-1" d="M36.32,96.23a43.43,43.43,0,0,0,38.76-5.79"/><path class="cls-2" d="M36.32,96.23a43.43,43.43,0,0,0,38.76-5.79"/><path class="cls-1" d="M44.91,104.65s20.88,4.56,31.75-7.37"/><path class="cls-2" d="M44.91,104.65s20.88,4.56,31.75-7.37"/><path class="cls-3" d="M129.64,82.72s1.23-10.52,11.05-3.16S166,93.77,190.86,84.47c0,0-.52,5.09-9.29,9,0,0,7.36-.52-5.44,7.72,0,0,5.44.88-8.25,8.6,0,0,3.34,3.86-12.63,5.78s-28.06-19.47-28.06-19.47l1.75-13.15"/><path class="cls-3" d="M183.15,92.19S164.73,102,140.87,88"/><path class="cls-3" d="M177.71,100.44a43.45,43.45,0,0,1-38.77-5.79"/><path class="cls-3" d="M169.11,108.86s-20.87,4.56-31.75-7.37"/><path class="cls-4" d="M94.74,135.17,96,140.93a.89.89,0,0,1,0,.58c-.1.17-.38.24-.48.07a86.92,86.92,0,0,1-1.2,15.11,7.85,7.85,0,0,1-.76,2.58c-.91,1.59-2.74,2.36-4.4,3.15a35.9,35.9,0,0,0-3.61,2c-.5.3-1,.72-1,1.3a2.32,2.32,0,0,0,2.16-.16q2.1-.93,4.1-2a3.32,3.32,0,0,1,2.36-.63,2.73,2.73,0,0,1,1.65,1.87,7.29,7.29,0,0,0,1,2.36.69.69,0,0,0,.51.29.74.74,0,0,0,.7-.83c-.22-1,0-2-.17-2.92,1.15.51,1.46.84,2.61,1.36,1.36.6,2.9,1.22,4.31.74a.68.68,0,0,0,.39-.27c.15-.26-.05-.57-.24-.79a12.67,12.67,0,0,0-3-2.52c-1.13-.68-2.45-1.28-3-2.47a5.18,5.18,0,0,1-.31-1.17,31.4,31.4,0,0,1,1.43-16.21"/><path class="cls-4" d="M118.12,134.12l-1,5.76a.92.92,0,0,0,0,.57c.08.18.33.25.41.08a101.68,101.68,0,0,0,1,15.11,8.58,8.58,0,0,0,.65,2.58c.78,1.59,2.36,2.36,3.78,3.14a33.51,33.51,0,0,1,3.1,1.95,1.63,1.63,0,0,1,.87,1.31c-.54.42-1.26.14-1.86-.17a40,40,0,0,1-3.52-2,2.59,2.59,0,0,0-2-.63,2.67,2.67,0,0,0-1.42,1.88,8.26,8.26,0,0,1-.9,2.36c-.11.15-.26.3-.44.28a.7.7,0,0,1-.6-.82c.19-1,0-2,.15-2.92-1,.51-1.26.84-2.24,1.35-1.18.61-2.49,1.23-3.71.75a.59.59,0,0,1-.33-.27.8.8,0,0,1,.21-.79,11.32,11.32,0,0,1,2.56-2.52c1-.68,2.1-1.28,2.57-2.48a5.45,5.45,0,0,0,.27-1.16,36.39,36.39,0,0,0-1.23-16.21"/><path class="cls-5" d="M142.54,53.51,140.34,52a7.22,7.22,0,0,1,.8,5.7l-1.67-2.46-.18,3.17c-2.14,9.78-12.53,12.78-13.82,13.12h0l-.09,0a20.08,20.08,0,0,0,6.23,10.7c5.09,4.3,8.33,11.23,8.33,11.23l-1.67-.26c2.46,4,2.73,10.69,2.73,10.69,1.4,16.58-8.6,27.28-13.07,29.66a17.33,17.33,0,0,0-7.81,8.51c-1,2.45-5.7,4.2-6.58,1.31s-2.36-3.25-2.36-3.25l-9.13-.08s.36,4.73-4.56,4.2-3.68-6.66-8.33-9.38-14.91-13.33-16.75-24.64c-1.79-11,1.41-17.15,1.57-17.45L72,94.21c1.13-6.4,9-13.24,12.19-17.11a22.19,22.19,0,0,0,4-9.29,4.58,4.58,0,0,1-1-.48,24.14,24.14,0,0,1-6.06-5.83C76.84,56,77.63,48.77,77.63,48.77l-2,2.38c-1.14-4.74,2.19-6.85,2.19-6.85l-2.27.62c.44-4.57,4-5.44,4-5.44l-3.15.18c.79-3.42,4.82-4.57,4.82-4.57a35.17,35.17,0,0,1,9.66-15.78c5.43-5.36,17.18-7.64,17.18-7.64L105.52,8.6l4.3,2a5.41,5.41,0,0,1-.27-6s1.06,6.14,4.92,7.36,6.23,1.94,6.23,1.94C141.3,22.11,141,43.08,141,43.08a24.11,24.11,0,0,1,1.58,6.13,5.34,5.34,0,0,0-2.2-1.4C142.45,51.84,142.54,53.51,142.54,53.51Z"/><path class="cls-6" d="M142.54,53.51,140.34,52a7.22,7.22,0,0,1,.8,5.7l-1.67-2.46-.18,3.17c-2.14,9.78-12.53,12.78-13.82,13.12h0c-17.27,1.71-29.59-.72-38.15-4.23a24.14,24.14,0,0,1-6.06-5.83C76.84,56,77.63,48.77,77.63,48.77l-2,2.38c-1.14-4.74,2.19-6.85,2.19-6.85l-2.27.62c.44-4.57,4-5.44,4-5.44l-3.15.18c.79-3.42,4.82-4.57,4.82-4.57a35.17,35.17,0,0,1,9.66-15.78c5.43-5.36,17.18-7.64,17.18-7.64L105.52,8.6l4.3,2a5.41,5.41,0,0,1-.27-6s1.06,6.14,4.92,7.36,6.23,1.94,6.23,1.94C141.3,22.11,141,43.08,141,43.08a24.11,24.11,0,0,1,1.58,6.13,5.34,5.34,0,0,0-2.2-1.4C142.45,51.84,142.54,53.51,142.54,53.51Z"/><path class="cls-7" d="M96,47.29a36.93,36.93,0,0,0,10.44-4.57c4.91-3.24,8.15-.35,11.84,3.16S125,49.57,125,49.57s-6,3.77-7.89,6.31-7.63,7.81-14.91-.79S96,47.29,96,47.29Z"/><path class="cls-8" d="M96.09,46.81a22.42,22.42,0,0,0,3.09,2.26,19.47,19.47,0,0,0,3.31,1.76,18,18,0,0,0,7.15,1.61,30.31,30.31,0,0,0,7.45-.66,36.72,36.72,0,0,0,3.69-.9c1.24-.32,2.44-.75,3.66-1.18l0,.08a32.19,32.19,0,0,1-7.22,2.75,28.24,28.24,0,0,1-7.66.91,17.93,17.93,0,0,1-7.46-1.91A20.44,20.44,0,0,1,96,46.88Z"/></svg>