<svg id="Layer_1" data-name="Layer 1" xmlns="http://www.w3.org/2000/svg" viewBox="0 0 223.53 199.06"><defs><style>.cls-1{fill:#c34804;stroke:#7c320d;}.cls-1,.cls-18,.cls-2,.cls-5{stroke-miterlimit:10;}.cls-2{fill:#fcf200;stroke:#a89c0b;}.cls-3{fill:#fec119;}.cls-4{fill:#f2a905;}.cls-5{fill:#ff7e2a;stroke:#af440e;}.cls-6{fill:#ff631e;}.cls-7{fill:#ffe632;}.cls-8{fill:#ffd713;}.cls-9{fill:#fd1441;}.cls-10{fill:#fb6010;}.cls-11{fill:#fde664;}.cls-12{fill:#febe42;}.cls-13{fill:#f9f2f2;}.cls-14{fill:#683c3c;}.cls-15{fill:#30252b;}.cls-16{fill:#fff;}.cls-17{fill:#dc0604;}.cls-18{fill:#d10409;stroke:#a30814;}.cls-19{fill:#8c0606;}</style></defs><path class="cls-1" d="M94.66,142.39s-3.76,3.07-5.23,26.14c0,0-6.59.11-6.71.91s6.59,1.93,6.59,1.93,4.55,9.09,6.25,10.46,3,.11-2-7.85c0,0,3.29,1.48,7.27,3.75,0,0,3.18.46-3.63-5.11,0,0,.9-1,6.25.57,0,0,6-1.48-10.69-4.32a44.74,44.74,0,0,1,5.8-23.64C105.34,133.18,94.66,142.39,94.66,142.39Z"/><path class="cls-1" d="M127.74,144s-3.12,3.71-.31,26.66c0,0-6.45,1.33-6.42,2.13s6.84.68,6.84.68,6.15,8.1,8.07,9.12,2.93-.43-3.46-7.33c0,0,3.52.85,7.85,2.35,0,0,3.21-.15-4.52-4.36,0,0,.7-1.17,6.24-.59,0,0,5.65-2.57-11.29-2.27a44.76,44.76,0,0,1,1.32-24.31C136.54,133,127.74,144,127.74,144Z"/><path class="cls-2" d="M42.38,68.86S35.22,57.72,29,56.7s-2.27,5.91,0,8c0,0-10.91-5.8-14.43-.91S25.78,74.31,25.78,74.31,12,73.74,12.26,79.77s8.29,6.13,14.2,5.79c0,0-12,3.3-9.43,8.75s14-1.25,14-1.25-3.64,3.64-.8,5.12,7.62-1.14,9.32-5.91S42.38,68.86,42.38,68.86Z"/><path class="cls-3" d="M41.58,69s0-.09-.15-.24c-.78-1.17-4.32-6.27-8-7.37-4.21-1.25-3.64,2.84-.34,5.68,0,0-7.85-3.18-10.35.11s7.73,8,7.73,8-9.89,0-9.89,4.43,10.69,4.2,10.69,4.2S24,86.13,23.51,91.13,35.56,89.2,35.56,89.2s-4.55,4-3,6.25,6.48.11,7.28-3.64S41.58,69,41.58,69Z"/><path class="cls-4" d="M41,68.63s-7.27-6.48-4.89.91c0,0-5.45-1.25-4.09,2.5s3.75,4.09,3.75,4.09-5.45.57-6.59,3.86c0,0,.34,3,6,2.28a8.37,8.37,0,0,0-3.53,4.54c-.79,3,5.68,1.25,5.68,1.25s-3.86,3.07-1.47,4.32a3.26,3.26,0,0,0,4-.57S33.28,78.06,41,68.63Z"/><path class="cls-5" d="M182.76,90.41c-.15,2.71-4.37,15.44-6.1,19.67a60.38,60.38,0,0,1-16.14,22.54C130,159.73,90.9,159.61,51.35,111.2l-.79-1.42S36.92,91.54,36.92,73.13a4.75,4.75,0,0,1,.09-.79c.41-2.18,2.84-8,17-5.18,13.79,2.73,36.33,7.32,60.34.28q2.84-.82,5.7-1.89h0A82.86,82.86,0,0,0,130.18,61c.74-.38,1.47-.78,2.21-1.19,0,0,3.56-.95,5.2-9.65,1.69-9,2.28-28.44,22.23-30.36,19.33-1.85,21,19.81,22.94,31.94,1.59,9.89,1.59,18.05,1.59,27C184.35,84.06,183.05,85.44,182.76,90.41Z"/><path class="cls-6" d="M176.66,110.21a60.33,60.33,0,0,1-16.14,22.55c-30.52,27.1-69.62,27-109.17-21.43l-.79-1.42S36.92,91.67,36.92,73.26a4.69,4.69,0,0,1,.09-.78c3.24,11.36,16.29,47.9,52.93,61.64C129.18,148.83,162.63,126.2,176.66,110.21Z"/><path class="cls-7" d="M132.22,106.13c-.35,4.44-1,25.41-42.79,18.75a50.59,50.59,0,0,1-20.49-9.76A39.13,39.13,0,0,1,57,99.31a8.16,8.16,0,0,1-.52-2.94c.09-2,1.35-4.12,6.82-2.86-.28-.17-5.72-3.48-3.22-6.64a4.11,4.11,0,0,1,5.53-1.25C65.09,85.2,62,82.75,64,80.73c1.29-1.28,6.37.24,12.31,1.55,4.29,1,9,1.78,13.1,1.35,9.71-1,27.61-3.41,35.12,3.92a29.76,29.76,0,0,1,4.37,5.31A20.83,20.83,0,0,1,132.22,106.13Z"/><path class="cls-8" d="M132.22,106.13c-.35,4.44-1,25.41-42.79,18.75a50.59,50.59,0,0,1-20.49-9.76,5.5,5.5,0,0,1,4-2.47c-1.75-.87-3.74-2.07-3.88-4a3.83,3.83,0,0,1,2-3.37A11.5,11.5,0,0,1,75,104a9.44,9.44,0,0,1-3.17-1.5,3.26,3.26,0,0,1-1.27-3.1c.45-1.93,2.92-2.5,4.89-2.43-2.26-.32-3.43-3.34-2.36-5.37s3.64-2.9,5.89-2.53c-2.13-.56-4.54-3.87-3.28-6.13a2.13,2.13,0,0,1,.64-.67c4.29,1,9,1.78,13.1,1.35,9.71-1,27.61-3.41,35.12,3.92a29.76,29.76,0,0,1,4.37,5.31A20.83,20.83,0,0,1,132.22,106.13Z"/><path class="cls-9" d="M132.22,106.13c-.35,4.44-1,25.41-42.79,18.75,0,0-23.7-4.26-32.4-25.57a8.16,8.16,0,0,1-.52-2.94c12.28,22.82,47.6,29.29,63.09,21.87,12-5.74,10.81-18.8,9.32-25.38A20.83,20.83,0,0,1,132.22,106.13Z"/><path class="cls-10" d="M182.75,86.19c-.34,2.64-1.77,6.11-2.46,8.81-7.62-1.47-8.68-9.75-8.68-9.75s-1.74,3.23-11.09,2.57-9.43-8.9-9.43-8.9-3.73,2.92-12.63.61-6.27-10.85-6.27-10.85c-12.87-.23-13.09.55-12.17-3.13,1.89-.41-1.11.72.8.16h0c3.4-1,11.79-6.27,15.24-7.78.75-.32.18-.09.93-.44,0,0,2.56-8.37,4.15-16.92,2-10.82,5.17-19.21,17.9-18.8,16.93.54,17.94,18.9,21.14,30.54a92.8,92.8,0,0,1,3.13,20A80.34,80.34,0,0,1,182.75,86.19Z"/><path class="cls-11" d="M182.75,86.19c-7.72.24-10.24-7.3-10.24-7.3s-2.34,4.69-11.17,3.73-7.92-9-7.92-9a13.15,13.15,0,0,1-12.66,1.11c-6.82-3.17-4.32-10-4.32-10-12.16.57-11.79.56-10.3-2.58h0a82.19,82.19,0,0,0,10.15-3.84c.74-.33,2.13-3.53,2.87-3.88a11.75,11.75,0,0,0,6.43-12c-1.06-8.64-1.93-21.56,15-21.53s16.83,19.61,20,31.25a109.48,109.48,0,0,1,3.18,21.53C184,78,183.38,81.34,182.75,86.19Z"/><path class="cls-12" d="M183.82,74.71c-5.16,2.16-13.47-4.65-13.47-4.65-9.9,4.66-13.94-2.17-13.94-2.17-12,1-12.39-7.43-12.39-7.43-7.27-.43-6.48-1.67-6.66-4,.75-.32-1.82,2.2-1.07,1.85a52.08,52.08,0,0,0,2.53-11.66c.71-7.24,2.06-20.32,12.44-23.22,1.68-.47,4.08-2.49,6.44-2.48a36.52,36.52,0,0,1,8.44.82c11.43,3.55,13.27,12.17,15.57,25.94C182.39,51.81,183.44,65.93,183.82,74.71Z"/><ellipse class="cls-13" cx="154.65" cy="39.31" rx="5.54" ry="6.66" transform="translate(-1.86 8.2) rotate(-3.02)"/><path class="cls-14" d="M160.23,39a8.15,8.15,0,0,1-1.12,4.66A5.6,5.6,0,0,1,155,46.44a5.8,5.8,0,0,1-4.82-1.93,8,8,0,0,1-.52-9.91,5.8,5.8,0,0,1,4.58-2.42,5.56,5.56,0,0,1,4.35,2.32A8.11,8.11,0,0,1,160.23,39Zm-.1,0a7.4,7.4,0,0,0-1.68-4.37,4.86,4.86,0,0,0-8,.44,7.44,7.44,0,0,0-1.18,4.5A7.36,7.36,0,0,0,150.87,44a4.87,4.87,0,0,0,8-.41A7.51,7.51,0,0,0,160.13,39Z"/><ellipse class="cls-15" cx="153.61" cy="38.94" rx="3.61" ry="4.66" transform="translate(-0.95 3.97) rotate(-1.48)"/><ellipse class="cls-16" cx="155.59" cy="37.3" rx="1.23" ry="1.58" transform="translate(-0.91 4.02) rotate(-1.48)"/><ellipse class="cls-13" cx="170.27" cy="40.67" rx="5.54" ry="6.66" transform="translate(-1.91 9.02) rotate(-3.02)"/><path class="cls-14" d="M175.85,40.37A8,8,0,0,1,174.73,45a5.55,5.55,0,0,1-4.08,2.77,5.8,5.8,0,0,1-4.82-1.93,7.87,7.87,0,0,1-2-4.86,8,8,0,0,1,1.47-5,5.81,5.81,0,0,1,4.59-2.42,5.59,5.59,0,0,1,4.35,2.32A8.1,8.1,0,0,1,175.85,40.37Zm-.09,0A7.47,7.47,0,0,0,174.07,36a4.85,4.85,0,0,0-8,.44,7.63,7.63,0,0,0,.46,8.86,4.86,4.86,0,0,0,8-.41A7.51,7.51,0,0,0,175.76,40.38Z"/><ellipse class="cls-15" cx="169.23" cy="40.3" rx="3.61" ry="4.66" transform="matrix(1, -0.03, 0.03, 1, -0.98, 4.38)"/><ellipse class="cls-16" cx="171.21" cy="38.66" rx="1.23" ry="1.58" transform="translate(-0.94 4.43) rotate(-1.48)"/><path class="cls-17" d="M153.22,27.82a4.64,4.64,0,0,1,2.9-.07.86.86,0,0,1,.59.52.77.77,0,0,1,0,.37,2,2,0,0,1-.32.85,1.88,1.88,0,0,1-1.28.67,14.63,14.63,0,0,1-1.48,0,6.16,6.16,0,0,0-1.9.37,3.06,3.06,0,0,1-1.43.33c-.35,0-.84-.43-.77-.83s.68-.71,1-.9A9.59,9.59,0,0,1,153.22,27.82Z"/><path class="cls-17" d="M170.73,29.89a4.94,4.94,0,0,0-3-.5.93.93,0,0,0-.72.43.9.9,0,0,0-.06.37,2,2,0,0,0,.18.89,1.89,1.89,0,0,0,1.21.85c.5.14,1,.17,1.54.26a6.78,6.78,0,0,1,1.92.64,3.13,3.13,0,0,0,1.43.54c.37,0,1-.3,1-.71s-.57-.8-.83-1A9.42,9.42,0,0,0,170.73,29.89Z"/><path class="cls-18" d="M166.15,15.26a1.6,1.6,0,0,0,1-.44,8.5,8.5,0,0,0,1.76-1.93c.37-.57.8-1.26,1.48-1.3a1.77,1.77,0,0,1,.78.2,2,2,0,0,1,1,.79,2.2,2.2,0,0,1,.13,1.17,9.84,9.84,0,0,1-.79,3.92,5,5,0,0,0-1,2.32,5.63,5.63,0,0,0,3.68-2.09,1,1,0,0,1,.51-.43.62.62,0,0,1,.33,0,1.37,1.37,0,0,1,.76.85,3.8,3.8,0,0,1,.18,1.16l.06.95a11.39,11.39,0,0,1,0,1.43,5.28,5.28,0,0,1-2.28,3.9,2.33,2.33,0,0,1-.91.4,2.23,2.23,0,0,1-1.48-.34,12.62,12.62,0,0,1-1.24-.94,18.27,18.27,0,0,0-4.82-2.35c.07.13-.16.21-.31.18-1.73-.37-3.37-1.3-5.14-1.28a9.48,9.48,0,0,0-2,.3,23.69,23.69,0,0,0-5.83,1.84,9.1,9.1,0,0,1-1.3.62,25,25,0,0,1-2.75.41,12.75,12.75,0,0,0-2.83,1.26,4.7,4.7,0,0,1-3,.61,4.44,4.44,0,0,1-2.39-1.71,5.6,5.6,0,0,1-1.4-3.06,4.5,4.5,0,0,1,1.26-3.32,7.17,7.17,0,0,1,3.1-1.85,4.33,4.33,0,0,0,1.22-.49c.36-.25.62-.62,1-.9a3.32,3.32,0,0,1,3.1-.33c1,.34,2,1,2.94,1.39.21.1.51.16.64,0a.5.5,0,0,0,0-.38,6.25,6.25,0,0,0-1.2-2.42c-.59-.73-1.34-1.31-2-2a3.47,3.47,0,0,1-1-2.53,3,3,0,0,1,2-2.36,6.61,6.61,0,0,1,3.28-.11,11,11,0,0,1,3.87,1.34,6.2,6.2,0,0,1,2.65,3.07,5.47,5.47,0,0,0,.83,1.91,20.31,20.31,0,0,1,1.76-3.07,16.29,16.29,0,0,0,1-2c.14-.28.32-.59.63-.65s.74.29,1,.63a9.79,9.79,0,0,1,.85,1.34,6.45,6.45,0,0,1,.49,1.42A10.94,10.94,0,0,1,166.15,15.26Z"/><path class="cls-17" d="M154.12,49.45s-.7,8.35,6.32,18.89c0,0,1.85,2,4.37-6.34,2.2-7.28-2.33-13.51-7.76-14.15C156.25,47.75,154.91,49.37,154.12,49.45Z"/><path class="cls-19" d="M155.37,49.13s-.7,8.35,6.32,18.89c0,0,1.21.51,3.73-7.84S161.55,48.51,155.37,49.13Z"/><path class="cls-17" d="M157.05,47.85l5.13-1.53s5.24,2,8.12,4.61c2.2,2-4.19,12.07-6.79,17.23-.43.85.46-.14,0,0-1.81.55-4.42-10.07-8.28-17C154.5,49.83,155.76,48.19,157.05,47.85Z"/><ellipse class="cls-19" cx="167.26" cy="51.87" rx="1.4" ry="0.68" transform="translate(95.79 211.74) rotate(-83.14)"/><ellipse class="cls-19" cx="157.94" cy="51.36" rx="1.4" ry="0.68" transform="translate(88.09 202.04) rotate(-83.14)"/></svg>