<svg id="Layer_1" data-name="Layer 1" xmlns="http://www.w3.org/2000/svg" viewBox="0 0 309.18 611.29"><defs><style>.cls-1{fill:#050505;opacity:0.2;}.cls-2{fill:#342517;}.cls-3{fill:#f9dad2;stroke:#4c2606;}.cls-12,.cls-13,.cls-14,.cls-29,.cls-3,.cls-30,.cls-5,.cls-6,.cls-7,.cls-8,.cls-9{stroke-miterlimit:10;}.cls-4{fill:#dd9f8f;}.cls-5{fill:#ffa4c2;}.cls-13,.cls-5,.cls-8{stroke:#563b35;}.cls-10,.cls-6{fill:#fbd3c7;}.cls-6{stroke:#453323;}.cls-7{fill:#153c89;stroke:#1c688e;}.cls-7,.cls-9{stroke-width:0.5px;}.cls-8{fill:#ff85b4;}.cls-9{fill:#f4e8df;stroke:#3a3213;}.cls-11{fill:#453323;}.cls-12{fill:#fe66ca;}.cls-12,.cls-29{stroke:#af1086;stroke-width:2px;}.cls-13{fill:#f9f1ef;}.cls-14{fill:#faf079;stroke:#9a9435;}.cls-15{fill:#ba8313;}.cls-16{fill:#f86909;}.cls-17{fill:#342516;}.cls-18{fill:#b26b51;}.cls-19{fill:#eaa698;opacity:0.5;}.cls-20{fill:#8c3d35;}.cls-21{fill:#7a2f2b;}.cls-22{fill:#f9988f;}.cls-23{fill:#f58778;}.cls-24{fill:#fff7f4;}.cls-25{fill:#f48a71;}.cls-26{fill:#ef4b3b;}.cls-27{fill:#fffa71;}.cls-28{fill:#cc0098;}.cls-29{fill:#e852bb;}.cls-30{fill:#e7d760;stroke:#baa73b;}</style></defs><ellipse class="cls-1" cx="153.34" cy="555.63" rx="140.95" ry="33.5"/><path class="cls-2" d="M214.18,87.68s5,45.59.12,78.65,11.08,42.55-9.46,61.37-60.5,27.36-77.37,9.74c0,0-11.36,3.63-38.46-.54s-47.45-17.37-39.72-44.69,4.32-63.44,5.65-84.87,26.7-46.74,79.65-32S214.18,87.68,214.18,87.68Z"/><path class="cls-3" d="M134.48,245.19c-29,8.27-26-21.91-26-21.91s4.1-2.3,5.9-9.08c.92-3.54,1.23-8.3,0-14.59-3.54-18.34,34.93-5.33,34.93-5.33l2.36,5.93,3.56,2.95s-3.74,6.34-.82,12.82a14.29,14.29,0,0,0,3.77,4.94S163.47,236.9,134.48,245.19Z"/><path class="cls-4" d="M154.38,216c-6.5,2.22-13.6,3.78-20.19,3.32a56,56,0,0,1-19.85-5.1c.92-3.54,1.23-8.3,0-14.59-3.54-18.34,34.93-5.33,34.93-5.33l2.36,5.93,3.56,2.95S151.46,209.5,154.38,216Z"/><path class="cls-5" d="M121.06,551.47s-70,16.68-78.19,5.15,10.31-18.79,26.07-25.45a10.71,10.71,0,0,0,1-.44c9.72-4.23,15.59-8.79,18.51-11.47A7.69,7.69,0,0,0,91,514c.27-6,.2-14.87,0-23.62v0c-.34-14.45-1.06-28.53-1.06-28.53l33.92,1.54s-.44,12.57-.68,27.44c-.21,12-.28,25.48.1,35.09a83.21,83.21,0,0,0,.89,10.47C126.52,549.34,121.06,551.47,121.06,551.47Z"/><path class="cls-6" d="M123.77,463.32s-.44,12.57-.68,27.44c-16.79,6.21-26.61,3.6-32.18-.41v0c-.34-14.45-1.06-28.53-1.06-28.53Z"/><path class="cls-7" d="M125.38,546.25c-.8,5.21-3.53,6.28-3.53,6.28s-72.12,17.29-80.58,5.34a12.4,12.4,0,0,1-.86-1.38c-6.07-11.13,12.11-18.36,27.72-25l1-.46c1,3.19,3.57,6.4,9.58,7.68,12.92,2.71,39.6-4.12,45.3-12.74a84.79,84.79,0,0,0,.92,10.86A28.08,28.08,0,0,1,125.38,546.25Z"/><path class="cls-8" d="M90.15,482.4s1.51,4.24,16.06,4.24,17.87-3,17.87-3,3,9.09-1.51,12.72c0,0-12.42,5.46-31.51-.3C91.06,496,87.73,492.09,90.15,482.4Z"/><path class="cls-5" d="M272.21,549.13c-7.28,12.12-78.35.93-78.35.93s-5.6-1.68-4.19-14.87a78.88,78.88,0,0,0,.07-10.51c-.24-6.52-2.68-16.89-5.33-26.44-.48-1.82-1-3.6-1.47-5.32l-2-6.66c-.07-.17-.1-.34-.17-.52-6.66-21.52-8.17-29.39-8.17-29.39L204.36,450s1.65,4.08,3.71,10.47A178.48,178.48,0,0,1,213,478.81c.41,1.85.76,3.78,1.1,5.7.38,1.44.76,2.81,1.1,4.19l.31,1.06v0c1.48,5.73,2.95,11.4,5.49,20.53a8.89,8.89,0,0,0,2.89,5.08c3.12,2.44,9.34,6.56,19.36,10a9,9,0,0,0,1,.38C260.47,531.21,279.46,537,272.21,549.13Z"/><path class="cls-7" d="M273.76,547.52a11.91,11.91,0,0,1-1.07,2.32c-7.33,12.59-79.1.8-79.1.8s-2.54-.79-3.8-5.4a28,28,0,0,1-.46-10,87.85,87.85,0,0,0,0-10.91c6.24,8.17,32.82,13,45.22,9.28,5.77-1.74,8.05-5.13,8.77-8.42a10,10,0,0,0,1,.39C259.76,530.84,277.56,536.52,273.76,547.52Z"/><path class="cls-9" d="M242.66,526.3s3.1,13.05-6.54,6.87S236.64,523,242.66,526.3Z"/><path class="cls-9" d="M242.26,527.63s13.2-2.41,3.65-8.64S236.81,523.52,242.26,527.63Z"/><path class="cls-6" d="M215.59,488.49l-.41.21c-8.1,4.6-22.22,4.81-32.24,4.22-.72,0-1.38-.07-2-.14a22.08,22.08,0,0,1-.34-6.66,1.26,1.26,0,0,0,.34.14c-.07-.17-.1-.34-.17-.52-6.66-21.52-8.17-29.39-8.17-29.39L204.36,450s1.65,4.08,3.71,10.47A178.48,178.48,0,0,1,213,478.81a2.06,2.06,0,0,0,.14-.38A22.3,22.3,0,0,1,215.59,488.49Z"/><path class="cls-8" d="M215.59,488.49c0,.48-.07.93-.1,1.27v0a6.72,6.72,0,0,1-.62,2.19c-17.31,9.31-30.35,6.32-30.35,6.32s-.07,0-.11-.07a7.87,7.87,0,0,1-3.5-5.46,22.08,22.08,0,0,1-.34-6.66,1.26,1.26,0,0,0,.34.14c1.2.48,5.77,1.75,17.51-.58s14.08-5.74,14.56-6.87a2.06,2.06,0,0,0,.14-.38A22.3,22.3,0,0,1,215.59,488.49Z"/><path class="cls-10" d="M187.51,286S201.8,311.49,217,309.8c10.9-1.21,41.2-55.34,41.2-55.34l-14.34-12.93L213,273.85l-6.87-11.72Z"/><path class="cls-11" d="M187.56,286c5.79,9.15,15.77,22.52,27.4,23.32,3.44.4,6-2.09,8.33-4.39a63.75,63.75,0,0,0,4.49-5.07,250.94,250.94,0,0,0,15.63-22.35c4.87-7.69,9.53-15.54,14-23.46l.18,1.1-14.3-13,1.17,0c-7.71,8.06-23.29,24.17-31.07,32.16l-.57.58-.4-.69-6.77-11.78.82.06L187.56,286Zm-.1,0L206.1,262c0,.08,6.87,11.71,6.92,11.79h-.11c.07-.06,30.88-32.34,30.94-32.4s14.33,13,14.42,13C254,262.33,249,270.24,244.18,278c-6.22,9.53-12.42,19.24-20.38,27.44-2,1.88-4.25,4.21-7.15,4.48-12.46.71-23.41-14.31-29.19-23.93Z"/><path class="cls-10" d="M213.76,272.63s-5.25,2-5.25,10.51"/><path class="cls-11" d="M213.78,272.68a17,17,0,0,0-4.3,7.5c-.31,1-.55,2-.92,3h-.1c0-3.08.66-6.36,2.81-8.69a7.56,7.56,0,0,1,2.48-1.86l0,.09Z"/><path class="cls-6" d="M240.43,245s.4-10.1,4-16c0,0,2.22-3.84,11.71-6.87,6.33-2,8.8-4.13,9.74-5.31a.88.88,0,0,1,1.38-.07c1.95,2.34,5.92,8.86-4.66,14.06,0,0,.21,9.09,9.3,10.51,0,0,10.09,1.81,16.15,5.65,0,0,8.89,3,4.45,6.87,0,0,2.22,5.25-7.07,4.65,0,0,1.61,4.64-7.07,5.05s-25-2-25-2"/><line class="cls-6" x1="290.52" y1="248.4" x2="269.31" y2="243.75"/><line class="cls-6" x1="291.73" y1="254.05" x2="268.3" y2="248.4"/><line class="cls-6" x1="285.47" y1="258.5" x2="265.88" y2="254.25"/><path class="cls-6" d="M263.35,230.57s-2.47,11.06-8.33,14.09"/><path class="cls-10" d="M270.72,241.53s-3,7.67-6.66,17"/><path class="cls-11" d="M270.77,241.55a48.26,48.26,0,0,1-4.39,13,35,35,0,0,1-2.28,4l-.09,0c1.62-4.25,5-12.76,6.67-17l.09,0Z"/><path class="cls-6" d="M29.55,401.4s.31,11.51,4.85,2.73l5.15-20H29.35"/><path class="cls-6" d="M24.1,404.13s-1.51,8.48,2.12,6.66,3.94-6.06,8.18-23.63-4.85-13.94-4.85-13.94"/><path class="cls-6" d="M19.25,401.7s-2.72,5.76,0,8.79,6.06-4.24,10.3-18.79l3.64-10.9"/><path class="cls-6" d="M24.5,388.57S32,384.13,42.28,390s3-14.34,3-14.34l-9.49-6.26S21.27,382.31,24.5,388.57Z"/><path class="cls-6" d="M52.28,360.2c1.51,20-2.43,25.45-2.43,25.45l-.91,8.48c-.9,15.45-5.75,7-5.75,7s-1.82-12.43-6.06-17-10.3,4.24-15.45,14.54-8.79,7.27-8.79,7.27c1.09-8,5.52-19.33,11-30.09C29.05,365.74,35.31,356,35.31,356s8.58-22.92,12-35.85S60.26,285,60.26,285l23.83,10.09S77,320.71,54.4,354.44c0,0-1.42,3.23-2.43,6.46"/><path class="cls-12" d="M214.18,260.9l-28.7,31.53s-3.81-3.4-10-7.9h0c-9-6.6-23-15.49-37.67-19.57-16.62-4.64-35,13.11-45.29,25.16a129.87,129.87,0,0,0-8,10.37L50.57,281.13S52.49,276.25,56,269A201.14,201.14,0,0,1,74.4,238.31c14.93-20.23,38.48-21.9,38.48-21.9s-16.27,29.14,17.25,26.33,25.85-23,25.85-23c13.36-.79,25.48,8.51,25.48,8.51l23,23Z"/><path class="cls-13" d="M92.53,290.12a129.87,129.87,0,0,0-8,10.37L50.57,281.13S52.49,276.25,56,269Z"/><path class="cls-13" d="M214.18,260.9l-28.7,31.53s-3.81-3.4-10-7.9l28.95-33.34Z"/><path class="cls-13" d="M113.33,214.41s-4.11,14.7,10.17,19.85,12.38,7.87,12.38,7.87-4.76,15.46-20.31,9.4-19-25.15-4.77-35.15Z"/><path class="cls-13" d="M154.6,213.08s4.21,15.41-8.22,20.56-10.78,7.88-10.78,7.88,4.14,15.45,17.69,9.39,16.58-25.15,4.14-35.15Z"/><path class="cls-12" d="M83.18,260s-4.24,23-2.42,63c0,0-2.43,36.05-9.09,64.23S58.34,456,58.34,456s-7,6.66,35.14,9.39,123.31-3.94,127-18.79c0,0-21.81-53-36.05-112.4l-1.82-13V263.65"/><path class="cls-14" d="M80.76,323s-3.94,5.15-1.52,15.45c0,0,28.06,9.76,64.12,6.12s41.32-9.15,41.32-9.15,3.63-5.45-.91-13.94c0,0-59.38,19.4-101.8,2.43"/><path class="cls-14" d="M155,294.78a6.76,6.76,0,0,1-.73,1.35,7.13,7.13,0,0,1-3.1,2.5c-1.89.79-7.46.2-8.22-2.1.89,2.67,2.2,4,.82,7a9,9,0,0,1-1.83,2.59,9.72,9.72,0,0,1-1.24,1.07,10.78,10.78,0,0,1-2.73,1.47,8.39,8.39,0,0,1-2,.45,6.55,6.55,0,0,1-1.4,0c-5.13-.48-8.7-6.28-7.28-11.62-.25.93-3.49,2.46-4.35,2.68a11.13,11.13,0,0,1-6.69-.19,8,8,0,0,1-1.8-1,7.81,7.81,0,0,1-1.23-1.08,6.5,6.5,0,0,1-1.62-4.56h0c0-.36,0-.72,0-1.08,0-.16,0-.31,0-.46.67-5,5.31-8.66,10.27-7-2.77-3.07-5-6.6-3.78-9.55a4.62,4.62,0,0,1,.74-1.25,8.48,8.48,0,0,1,3.11-2.26,7.83,7.83,0,0,1,1.47-.52,7,7,0,0,1,1.73-.22c3.25,0,5.93,2.32,6.94,5.64-.26-3.26,2.58-7.28,5.4-8.45a7.81,7.81,0,0,1,3.94-.44,10.33,10.33,0,0,1,1.88.4h0a11,11,0,0,1,4.23,2.35,6.65,6.65,0,0,1,1,1.08,5.93,5.93,0,0,1,.4.62c2.93,5.2-1.76,9.83-5.47,12.93,4.26-1.78,10,.53,11.56,4.91a6.29,6.29,0,0,1,.35,1.57c0,.1,0,.2,0,.3A6.61,6.61,0,0,1,155,294.78Z"/><path class="cls-15" d="M138.65,294.46c3.62-2.89,5.11-8.23.91-12.33a8.6,8.6,0,0,0-12.9,1c-2.93,3.79-2.58,9.47,1.61,12.05A8.85,8.85,0,0,0,138.65,294.46Z"/><path class="cls-16" d="M137.85,293.51c3.08-2.45,4.35-7,.79-10.47a7.31,7.31,0,0,0-11,.83c-2.49,3.22-2.19,8,1.37,10.24A7.5,7.5,0,0,0,137.85,293.51Z"/><path class="cls-9" d="M69.55,533.9s-13.33-1.51-4.24-8.48S74.7,529.36,69.55,533.9Z"/><path class="cls-9" d="M68.43,533.08s-2.21,13.23,6.89,6.36S74.15,529.35,68.43,533.08Z"/><path class="cls-9" d="M125.38,546.25c-.8,5.21-3.53,6.28-3.53,6.28s-72.12,17.29-80.58,5.34a12.4,12.4,0,0,1-.86-1.38c4.16,1.26,11,2.32,21.87,1.75C82.72,557.18,117.91,552.54,125.38,546.25Z"/><path class="cls-9" d="M273.76,547.52a11.91,11.91,0,0,1-1.07,2.32c-7.33,12.59-79.1.8-79.1.8s-2.54-.79-3.8-5.4c5.4,2.6,18.41,5.89,49.73,7.08C259.76,553.08,269.52,550.76,273.76,547.52Z"/><path class="cls-17" d="M54.18,110.55c0,45.31,35.74,74.12,80.28,74.12s80.65-36.74,80.65-82-23.34-83.74-82.05-83.74C71.53,18.88,54.18,65.23,54.18,110.55Z"/><path class="cls-3" d="M196.2,146.66c3.2-4.31,7.36-8.47,12.31-7.67s7.35,5.44,6.39,13.43-2.71,12.14-8.79,16.94-9.27,7.19-15.66,2.87C189.33,163.44,194.61,149.54,196.2,146.66Z"/><path class="cls-18" d="M192.11,169.55a3.68,3.68,0,0,0,2.44-.24,15.9,15.9,0,0,0,2.26-1,7.84,7.84,0,0,0,3.35-3.77,7.62,7.62,0,0,0,.28-5,7.45,7.45,0,0,0-1.35-2.57c.34-.56.71-1.11,1.08-1.64a49.71,49.71,0,0,1,3.21-4.11c1.14-1.3,2.27-2.68,3.81-3.27a3,3,0,0,1,2.36.06,2.28,2.28,0,0,1,1.45,1.92,2.32,2.32,0,0,0-1.26-2.26,3.35,3.35,0,0,0-2.75-.32c-1.84.56-3.08,2-4.25,3.32a30.56,30.56,0,0,0-3.1,4.31c-.31.52-.6,1.06-.89,1.6-.05.09-.08.18-.14.28a3.87,3.87,0,0,1,.27.43,7.9,7.9,0,0,1,.94,2.41,7.54,7.54,0,0,1-.44,4.55,7.87,7.87,0,0,1-2.91,3.55,22.39,22.39,0,0,1-2.07,1.21A4,4,0,0,1,192.11,169.55Zm12.89-5a48.92,48.92,0,0,1-4.51,2.82,24.08,24.08,0,0,0,4.88-2.29,10.43,10.43,0,0,0,3.79-4,9.55,9.55,0,0,0,.81-5.43,20.93,20.93,0,0,0-1.4-5.2,39.92,39.92,0,0,1,.76,5.26,9.75,9.75,0,0,1-.92,5A10.77,10.77,0,0,1,205,164.56Z"/><path class="cls-3" d="M73.85,146.93c-3.25-4.38-7.46-8.6-12.49-7.79s-7.46,5.52-6.48,13.62,2.75,12.33,8.91,17.19,9.41,7.3,15.89,2.92C80.82,164,75.47,149.85,73.85,146.93Z"/><path class="cls-18" d="M75.68,169.52a18.23,18.23,0,0,1-2.1-1.22,8,8,0,0,1-3-3.6,7.61,7.61,0,0,1-.44-4.62,8.09,8.09,0,0,1,.95-2.44c.08-.15.18-.3.27-.44l-.14-.28c-.29-.55-.58-1.09-.9-1.63a31.46,31.46,0,0,0-3.15-4.37c-1.18-1.31-2.44-2.8-4.3-3.37a3.44,3.44,0,0,0-2.79.32,2.38,2.38,0,0,0-1.29,2.3,2.33,2.33,0,0,1,1.48-1.95,3.1,3.1,0,0,1,2.39-.06c1.57.6,2.71,2,3.86,3.32a47,47,0,0,1,3.26,4.16c.38.55.75,1.11,1.1,1.68a7.3,7.3,0,0,0-1.37,2.6,7.7,7.7,0,0,0,.28,5.1,7.94,7.94,0,0,0,3.4,3.83,15.35,15.35,0,0,0,2.3,1.05,3.7,3.7,0,0,0,2.47.25A4,4,0,0,1,75.68,169.52Zm-14.22-8.29a9.91,9.91,0,0,1-.93-5.07,39.38,39.38,0,0,1,.78-5.33,21.59,21.59,0,0,0-1.43,5.28,9.62,9.62,0,0,0,.82,5.5,10.6,10.6,0,0,0,3.85,4,25.1,25.1,0,0,0,5,2.33,50.42,50.42,0,0,1-4.58-2.86A11,11,0,0,1,61.46,161.23Z"/><path class="cls-3" d="M70.15,122.83c.07.58-5.74,1.18-5.68,1.76,2.29,19.35,5.85,37.87,8.45,47.47a37,37,0,0,0,4.4,10.18,42,42,0,0,0,12.07,12.27,141.54,141.54,0,0,0,21.49,11.63,108,108,0,0,0,10.9,4.2,41.34,41.34,0,0,0,11.86,2.28A46.41,46.41,0,0,0,147,210.14c10.34-3.23,21.28-8.83,27.19-11.94,8.64-4.51,19.15-14.2,21.62-24.49a479.82,479.82,0,0,0,9.26-48.17c.87-6.5-4.71-9-10.06-28.34-7.16-25.88-17-36.14-57.84-36.14C66,61.06,67.88,102.86,70.15,122.83Z"/><path class="cls-19" d="M200.72,151.42S194,107.73,179.5,95.9s-16.59-19.43-16.59-19.43S159,98.58,134.08,108l1.09-13.27A32.4,32.4,0,0,1,120.34,108l2.4-16.75a259.24,259.24,0,0,0-37.27,18c-18.07,10.84-17.31,46.56-17.31,46.56L75.42,81.8l61.76-25.63,39.3-1.54L203.1,91.28,199,119.85Z"/><path class="cls-20" d="M144.06,158.44c-2.28,7-12.94,9-16.21,1.56,5.22,4.55,11.61,3,16.21-1.56Z"/><path class="cls-19" d="M158.18,170.78c1-.4,2.16-2,3.07-2.58a7.22,7.22,0,0,1,3-1c1.38-.13,3.06.37,3.34,1.62a2.79,2.79,0,0,1-1.46,2.61,8.9,8.9,0,0,1-5.31,1.65,2.68,2.68,0,0,1-2.2-.84c-.45-.64.07-1.77.89-1.64Z"/><path class="cls-19" d="M113.58,173.56c-.64-.71-1.67-2.69-2.5-3.21a4.16,4.16,0,0,0-1.77-.71,3,3,0,0,0-3,2,3.59,3.59,0,0,0,.78,3.44,6.94,6.94,0,0,0,3.25,2,5.09,5.09,0,0,0,2.59.24,2.25,2.25,0,0,0,1.8-1.61,2.14,2.14,0,0,0-1.12-2.07,7.42,7.42,0,0,0-2.47-.82Z"/><path class="cls-21" d="M109.28,172.5a21.4,21.4,0,0,0,1.11,2.55c2.46,4.94,8.31,14.06,15.73,17.46a20.74,20.74,0,0,0,17.27-.31c7.09-3.34,10.3-7.31,14.37-14,1.33-2.17,2.74-4.63,4.41-7.45,0,0,.4-.52-.26-.55a4.17,4.17,0,0,0-1.11.19c-4,1.11-14.1,6.73-29.77,6-12-.59-18.63-3.24-21-4.43a.56.56,0,0,0-.72.25A.47.47,0,0,0,109.28,172.5Z"/><path class="cls-22" d="M110.39,175.05c2.46,4.94,8.31,14.06,15.73,17.46a20.74,20.74,0,0,0,17.27-.31c7.09-3.34,10.3-7.31,14.37-14C153,183.44,145,190.3,135.33,191,122,191.87,113,179.19,110.39,175.05Z"/><path class="cls-23" d="M109.28,172.2a51.08,51.08,0,0,0,27.29,6.35c14.46-.61,22.73-6.37,25.34-8.34a3.79,3.79,0,0,0-1.11.19c-4,1.11-14.1,6.73-29.77,6-12-.59-18.63-3.24-21-4.42A.53.53,0,0,0,109.28,172.2Z"/><path class="cls-24" d="M156,173.27c-.31.12-17.14,10.24-40.28,1.9,0,0,3.33,7.62,17.29,8.34C149,184.34,156,173.27,156,173.27Z"/><path class="cls-25" d="M135.26,190.77c3.29-.19,7.39-1.06,9-2.52-2.9-2.85-6.64-.76-9.8-1.67-6.61-1.91-8.9.47-9.76,1.78C126.62,189.88,130.7,191,135.26,190.77Z"/><path class="cls-17" d="M59.8,133.69a82.17,82.17,0,0,0,6.27,12.25c.41.72,3.51,4.63,3.37,5.48,0,0-5.16-34.2,19.42-46.73,9.59-4.89,19.46-8.82,29.16-13.32s19.32-9.2,28.61-14.65c4.9-2.87,10.18-5.94,14.5-10,16.18,27.47,36.74,28.08,38.54,74.14.1,2.45.33,4.89.5,7.33l.55,3.2s4-3.51,11-25.28c7.63-22.84-10.72-39.55-21.92-58.72C172.05,37,151.65,40.65,144.06,39.89c-13.38-1.33-13.42,8.23-26.57,11C88.65,57,77.86,52,71.74,84.37,68.1,103.66,52.5,116.1,59.8,133.69Z"/><path class="cls-17" d="M137.18,75.17a42.12,42.12,0,0,1,0,27.17,58.65,58.65,0,0,0,24.73-40.71"/><path class="cls-17" d="M144.06,72.3s-.41,9.87-21.32,30.76c0,0,7.75-13.79,3.34-27.89"/><path class="cls-26" d="M206.44,141.56a154.43,154.43,0,0,0-3-41.77A79.47,79.47,0,0,0,193.25,70C180.92,49.14,156.2,37.6,132.33,38.5,111.78,39.3,89.89,48,78.1,65.4a88.73,88.73,0,0,0-11.89,38.69,154.39,154.39,0,0,0-1.63,23.09,128.23,128.23,0,0,0,1.49,18.76,113.86,113.86,0,0,1-7-42.49c1.24-11.32,3.7-22.62,8.5-33A54.67,54.67,0,0,1,78.52,53.7c18.78-18.78,47.53-25.89,73.21-20.43A77.29,77.29,0,0,1,186.67,51c13.73,12.21,20.92,29.91,23.85,47.68,1.51,14.3-.23,29.13-4.08,42.88Z"/><path class="cls-12" d="M210,78c6.48-5.81,15.54-6.29,7.26-15.51s-26.71-6.17-26.71-6.17-5,18,3.25,27.22S203.53,83.77,210,78Z"/><path class="cls-12" d="M170.77,34.22c6.48-5.82,7.93-14.77,16.2-5.55s3.25,27.23,3.25,27.23S171.78,59,163.51,49.73,164.29,40,170.77,34.22Z"/><circle class="cls-27" cx="169.65" cy="46.99" r="1.87"/><circle class="cls-27" cx="176.91" cy="50.64" r="1.87"/><circle class="cls-27" cx="178.02" cy="39.49" r="1.87"/><path class="cls-27" d="M187.06,44a1.87,1.87,0,1,0-2.65-.15A1.87,1.87,0,0,0,187.06,44Z"/><circle class="cls-27" cx="183.59" cy="34.48" r="1.87"/><path class="cls-27" d="M181.2,54.25a1.87,1.87,0,0,1,3.11,1.56c-1.14,0-2.39,0-3.73-.05A1.87,1.87,0,0,1,181.2,54.25Z"/><path class="cls-27" d="M173.26,53.82a1.86,1.86,0,0,1,.44.93,24.85,24.85,0,0,1-3.13-1l0,0A1.88,1.88,0,0,1,173.26,53.82Z"/><path class="cls-27" d="M190.14,36.16h0a26.17,26.17,0,0,1,.67,3.19,1.94,1.94,0,0,1-.84-.53A1.88,1.88,0,0,1,190.14,36.16Z"/><path class="cls-27" d="M189.42,49.39a1.86,1.86,0,0,1,1.67-3.09c-.07,1.33-.19,2.58-.34,3.71A1.85,1.85,0,0,1,189.42,49.39Z"/><path class="cls-27" d="M168.68,40.31a1.87,1.87,0,0,1-2.64-.14,1.9,1.9,0,0,1-.45-1.55c.76-.47,1.57-1,2.39-1.49a1.86,1.86,0,0,1,.7,3.18Z"/><path class="cls-27" d="M163.25,42.67a1.87,1.87,0,0,1-.15,2.64,1.81,1.81,0,0,1-1.46.46,3.9,3.9,0,0,1-.11-3.69A1.86,1.86,0,0,1,163.25,42.67Z"/><path class="cls-27" d="M177.19,30.16a1.87,1.87,0,0,1-2.79,2.5,1.93,1.93,0,0,1-.44-.91c.62-.76,1.19-1.51,1.74-2.21A1.88,1.88,0,0,1,177.19,30.16Z"/><path class="cls-27" d="M182.63,27.8a1.88,1.88,0,0,1-3.06-1.9,4,4,0,0,1,3.68.54A1.92,1.92,0,0,1,182.63,27.8Z"/><circle class="cls-27" cx="197.17" cy="77.67" r="1.87"/><circle class="cls-27" cx="194.96" cy="69.59" r="1.87"/><circle class="cls-27" cx="205.54" cy="70.16" r="1.87"/><path class="cls-27" d="M202.07,60.69a1.88,1.88,0,1,1-.14,2.65A1.88,1.88,0,0,1,202.07,60.69Z"/><circle class="cls-27" cx="211.12" cy="65.16" r="1.87"/><path class="cls-27" d="M191.2,65.41a1.88,1.88,0,0,0,.15-2.65,1.92,1.92,0,0,0-1.36-.62c-.15,1.13-.28,2.38-.35,3.71A1.88,1.88,0,0,0,191.2,65.41Z"/><path class="cls-27" d="M190.77,73.35a1.85,1.85,0,0,0-.87-.55,23.74,23.74,0,0,0,.67,3.23l.06,0A1.87,1.87,0,0,0,190.77,73.35Z"/><path class="cls-27" d="M210.15,58.47l0,0a26.08,26.08,0,0,0-3.1-1,1.78,1.78,0,0,0,.44.89A1.87,1.87,0,0,0,210.15,58.47Z"/><path class="cls-27" d="M196.92,57.76a1.88,1.88,0,0,0,2.65.14,1.84,1.84,0,0,0,.61-1.47c-1.33-.08-2.59-.09-3.73-.06A1.92,1.92,0,0,0,196.92,57.76Z"/><path class="cls-27" d="M203.72,79.35a1.88,1.88,0,0,0-.15,2.65,1.84,1.84,0,0,0,1.49.61c.55-.7,1.12-1.45,1.74-2.21a1.77,1.77,0,0,0-.44-.9A1.87,1.87,0,0,0,203.72,79.35Z"/><path class="cls-27" d="M200.78,84.5a1.87,1.87,0,0,0-3.26,1.26,3.9,3.9,0,0,0,3.66.51A1.84,1.84,0,0,0,200.78,84.5Z"/><path class="cls-27" d="M214.73,72a1.87,1.87,0,1,0-1.93,3c.81-.53,1.62-1,2.38-1.49A1.9,1.9,0,0,0,214.73,72Z"/><path class="cls-27" d="M217.66,66.84a1.88,1.88,0,0,0-.14,2.65,1.86,1.86,0,0,0,1.69.59,3.9,3.9,0,0,0-.14-3.71A1.88,1.88,0,0,0,217.66,66.84Z"/><path class="cls-28" d="M174.38,43.83c2-2.81,10.21,7.19,10.21,7.19S172.4,46.64,174.38,43.83Z"/><path class="cls-28" d="M182.05,40.62c2.07-1,4.55,9.29,4.55,9.29S180,41.63,182.05,40.62Z"/><path class="cls-28" d="M200.83,73.31c3-1.66-6.05-10.93-6.05-10.93S197.83,75,200.83,73.31Z"/><path class="cls-28" d="M204.85,66c1.24-2-8.75-5.53-8.75-5.53S203.62,68,204.85,66Z"/><rect class="cls-29" x="184.75" y="50.47" width="11.24" height="11.24" rx="3.33" transform="translate(11.21 141.47) rotate(-41.9)"/><path class="cls-30" d="M198.5,169.21s-5.3,11,1.22,12.9,4.49-10.44,4.49-10.44-1.69,10.39-3.7,4Z"/><path class="cls-30" d="M70.4,169.9s5.3,11-1.22,12.9-4.49-10.44-4.49-10.44,1.69,10.39,3.7,4Z"/></svg>