<svg id="Layer_1" data-name="Layer 1" xmlns="http://www.w3.org/2000/svg" viewBox="0 0 221.65 200.47"><defs><style>.cls-1,.cls-3{fill:#ffd15f;}.cls-2{fill:none;}.cls-2,.cls-3{stroke:#d67d13;}.cls-2,.cls-3,.cls-4,.cls-5,.cls-6{stroke-miterlimit:10;}.cls-4{fill:#c34804;stroke:#7c320d;}.cls-5{fill:#ffe783;}.cls-5,.cls-6{stroke:#7c4c00;}.cls-6{fill:#ffef9f;}.cls-7{fill:#66441c;}.cls-8{fill:#fff;}.cls-9{fill:#30200f;}.cls-10{fill:#efdece;}.cls-11{fill:#e57d28;}.cls-12{fill:#84083a;}</style></defs><path class="cls-1" d="M84.66,88.21s-1.22-10.52-11-3.16S48.35,99.26,23.44,90c0,0,.53,5.09,9.3,9,0,0-7.37-.52,5.44,7.72,0,0-5.44.88,8.24,8.6,0,0-3.33,3.85,12.63,5.78s28.07-19.47,28.07-19.47L85.37,88.39"/><path class="cls-2" d="M84.66,88.21s-1.22-10.52-11-3.16S48.35,99.26,23.44,90c0,0,.53,5.09,9.3,9,0,0-7.37-.52,5.44,7.72,0,0-5.44.88,8.24,8.6,0,0-3.33,3.85,12.63,5.78s28.07-19.47,28.07-19.47L85.37,88.39"/><path class="cls-1" d="M31.16,97.68s18.42,9.83,42.28-4.21"/><path class="cls-2" d="M31.16,97.68s18.42,9.83,42.28-4.21"/><path class="cls-1" d="M36.6,105.93a43.45,43.45,0,0,0,38.77-5.79"/><path class="cls-2" d="M36.6,105.93a43.45,43.45,0,0,0,38.77-5.79"/><path class="cls-1" d="M45.19,114.35S66.07,118.91,77,107"/><path class="cls-2" d="M45.19,114.35S66.07,118.91,77,107"/><path class="cls-3" d="M129.92,92.42S131.15,81.9,141,89.26s25.26,14.21,50.17,4.91c0,0-.53,5.09-9.3,9,0,0,7.37-.52-5.44,7.72,0,0,5.44.88-8.24,8.6,0,0,3.33,3.86-12.63,5.78s-28.07-19.47-28.07-19.47l1.75-13.15"/><path class="cls-3" d="M183.43,101.89s-18.42,9.83-42.28-4.21"/><path class="cls-3" d="M178,110.14a43.45,43.45,0,0,1-38.77-5.79"/><path class="cls-3" d="M169.39,118.56s-20.87,4.56-31.75-7.37"/><path class="cls-4" d="M95,144.87l1.21,5.76a.89.89,0,0,1,0,.58c-.09.17-.38.24-.48.07a87.9,87.9,0,0,1-1.19,15.11,7.64,7.64,0,0,1-.77,2.58c-.91,1.59-2.74,2.36-4.4,3.15a37,37,0,0,0-3.61,1.95c-.49.3-1,.72-1,1.3a2.32,2.32,0,0,0,2.16-.16q2.1-.93,4.11-2a3.3,3.3,0,0,1,2.35-.63A2.73,2.73,0,0,1,95,174.42a7.51,7.51,0,0,0,1,2.36.69.69,0,0,0,.51.29.75.75,0,0,0,.71-.83c-.23-1,0-2-.18-2.92,1.15.51,1.46.84,2.61,1.36,1.37.6,2.9,1.22,4.31.74a.62.62,0,0,0,.39-.27c.15-.26-.05-.57-.24-.79a12.67,12.67,0,0,0-3-2.52c-1.12-.68-2.44-1.28-3-2.47a5.18,5.18,0,0,1-.31-1.17A31.51,31.51,0,0,1,99.33,152"/><path class="cls-4" d="M118.4,143.82l-1,5.76a1,1,0,0,0,0,.57c.08.18.33.25.42.08a100.34,100.34,0,0,0,1,15.11,8.6,8.6,0,0,0,.66,2.58c.77,1.59,2.35,2.36,3.77,3.14a33.51,33.51,0,0,1,3.1,1.95,1.63,1.63,0,0,1,.87,1.31c-.54.42-1.26.14-1.86-.17a40,40,0,0,1-3.52-2,2.59,2.59,0,0,0-2-.63,2.67,2.67,0,0,0-1.42,1.88,7.71,7.71,0,0,1-.9,2.36c-.11.15-.26.3-.44.28a.7.7,0,0,1-.6-.82c.19-1,0-2,.15-2.92-1,.51-1.25.84-2.24,1.35-1.18.61-2.49,1.23-3.7.75a.61.61,0,0,1-.34-.27.82.82,0,0,1,.21-.79,11.32,11.32,0,0,1,2.56-2.52c1-.68,2.1-1.28,2.57-2.48a5.45,5.45,0,0,0,.27-1.16,36.39,36.39,0,0,0-1.23-16.21"/><path class="cls-5" d="M125.75,81.25h0l-.09,0A20.18,20.18,0,0,0,131.86,92c5.09,4.29,8.33,11.22,8.33,11.22l-1.67-.26c2.45,4,2.72,10.7,2.72,10.7,1.4,16.58-8.6,27.28-13.07,29.65a17.37,17.37,0,0,0-7.81,8.51c-1,2.46-5.7,4.2-6.58,1.31s-2.36-3.25-2.36-3.25l-9.13-.08s.36,4.73-4.56,4.21-3.68-6.66-8.33-9.39S74.49,131.28,72.65,120c-1.79-11,1.41-17.15,1.57-17.45l-1.92,1.4c1.14-6.41,9-13.24,12.19-17.11a22.34,22.34,0,0,0,4-9.3"/><path class="cls-6" d="M142,57.88l-2.43-1.08a7.2,7.2,0,0,1,1.81,5.46l-2.09-2.11.39,3.14c-.35,10-10,14.82-11.24,15.39h0c-18.72,9.85-31.4,5.52-38.29,2.68a24.4,24.4,0,0,1-7-4.65c-5.3-4.65-5.82-11.88-5.82-11.88l-1.56,2.7c-2-4.46.94-7.13.94-7.13l-2.13,1c-.39-4.57,3-6.08,3-6.08l-3.07.75c.16-3.51,3.93-5.36,3.93-5.36a35.12,35.12,0,0,1,6.67-17.26c4.39-6.24,15.54-10.59,15.54-10.59l-3.06-2.56,4.6,1.21a5.42,5.42,0,0,1-1.35-5.91s2.14,5.86,6.15,6.37,6.48.79,6.48.79c21.75,4.41,25.17,25.1,25.17,25.1a24.36,24.36,0,0,1,2.65,5.75,5.37,5.37,0,0,0-2.41-1C141.62,56.25,142,57.88,142,57.88Z"/><path class="cls-7" d="M95.73,32.52c-.34,0-6.21,2.43-6.46,6.18,0,0,4.15-4.59,7.42-4.39Z"/><path class="cls-7" d="M114.84,30c.34-.06,6.62.86,7.75,4.45,0,0-5.12-3.46-8.25-2.48Z"/><ellipse class="cls-8" cx="97.92" cy="46.7" rx="6.45" ry="7.89" transform="translate(-6.78 18.3) rotate(-10.32)"/><path class="cls-7" d="M104.27,45.55a9.3,9.3,0,0,1-.64,5.53,6.22,6.22,0,0,1-4.25,3.63,6.35,6.35,0,0,1-5.5-1.63,9.31,9.31,0,0,1-2-10.92,6.32,6.32,0,0,1,4.57-3.46,6.2,6.2,0,0,1,5.26,1.89A9.31,9.31,0,0,1,104.27,45.55Zm0,0a8.67,8.67,0,0,0-2.65-4.86,5.84,5.84,0,0,0-5.07-1.5,5.73,5.73,0,0,0-3.89,3.36,9.07,9.07,0,0,0,1.8,9.9,5.72,5.72,0,0,0,4.83,1.77,5.85,5.85,0,0,0,4.22-3.2A8.66,8.66,0,0,0,104.27,45.55Z"/><ellipse class="cls-8" cx="117.7" cy="44.58" rx="6.45" ry="7.89" transform="translate(-6.08 21.81) rotate(-10.32)"/><path class="cls-7" d="M111.35,45.74A8.74,8.74,0,0,0,114,50.59a5.86,5.86,0,0,0,5.07,1.51,5.74,5.74,0,0,0,3.9-3.36,9.11,9.11,0,0,0-1.81-9.91,5.7,5.7,0,0,0-4.82-1.76,5.84,5.84,0,0,0-4.22,3.19A8.77,8.77,0,0,0,111.35,45.74Zm0,0A9.42,9.42,0,0,1,112,40.2a6.23,6.23,0,0,1,4.26-3.63,6.36,6.36,0,0,1,5.5,1.63,9.35,9.35,0,0,1,2,10.92,6.38,6.38,0,0,1-4.58,3.47,6.24,6.24,0,0,1-5.26-1.9A9.35,9.35,0,0,1,111.35,45.74Z"/><ellipse class="cls-9" cx="99.02" cy="48.72" rx="3.99" ry="4.6" transform="translate(-7.13 18.53) rotate(-10.32)"/><ellipse class="cls-10" cx="100.05" cy="46.71" rx="1.6" ry="1.84" transform="translate(-6.75 18.69) rotate(-10.32)"/><ellipse class="cls-9" cx="117.59" cy="46.94" rx="3.99" ry="4.6" transform="translate(-6.51 21.83) rotate(-10.32)"/><ellipse class="cls-10" cx="118.63" cy="44.93" rx="1.6" ry="1.84" transform="translate(-6.13 21.99) rotate(-10.32)"/><path class="cls-11" d="M95.07,60.1a37.07,37.07,0,0,0,9.45-6.36c4.25-4.08,8-1.81,12.22,1s7.3,2.42,7.3,2.42-5.28,4.79-6.63,7.62-6.11,9-14.81,1.9S95.07,60.1,95.07,60.1Z"/><path class="cls-12" d="M95.11,59.61a22.29,22.29,0,0,0,3.45,1.66,18.52,18.52,0,0,0,3.57,1.14,17.92,17.92,0,0,0,7.32.31,30.32,30.32,0,0,0,7.21-2,34.64,34.64,0,0,0,3.47-1.55c1.16-.53,2.27-1.17,3.39-1.82l.07.08a32.48,32.48,0,0,1-6.61,4,28.46,28.46,0,0,1-7.38,2.28,18,18,0,0,1-7.68-.55,20.44,20.44,0,0,1-6.87-3.47Z"/></svg>