<svg id="Layer_1" data-name="Layer 1" xmlns="http://www.w3.org/2000/svg" viewBox="0 0 38.12 29.18"><defs><style>.cls-1{fill:#66441c;}.cls-2{fill:#fff;stroke:#66441c;}.cls-2,.cls-5{stroke-miterlimit:10;stroke-width:0.5px;}.cls-3{fill:#30200f;}.cls-4{fill:#efdece;}.cls-5{fill:#ffef9f;stroke:#7c4c00;}</style></defs><path class="cls-1" d="M11.7,5.88c-.28,0-5.31,1-6,4,0,0,4-3,6.55-2.42Z"/><path class="cls-1" d="M27.31,6.63c.27,0,5.15,1.65,5.53,4.68,0,0-3.58-3.51-6.22-3.18Z"/><path class="cls-2" d="M16.62,17.51a7.62,7.62,0,0,1-.46,2.62,5.3,5.3,0,0,1-4.78,3.78A5.35,5.35,0,0,1,6.56,20h0a7.43,7.43,0,0,1-.41-2.49c0-3.53,2.34-6.39,5.23-6.39S16.62,14,16.62,17.51Z"/><path class="cls-2" d="M32.7,18.69A7.51,7.51,0,0,1,32,22a5.13,5.13,0,0,1-4.5,3.14c-2.47,0-4.54-2.1-5.08-4.92a7.14,7.14,0,0,1-.15-1.48c0-3.53,2.34-6.39,5.23-6.39S32.7,15.16,32.7,18.69Z"/><ellipse class="cls-3" cx="11.96" cy="19.28" rx="3.24" ry="3.73"/><ellipse class="cls-4" cx="13.08" cy="17.82" rx="1.29" ry="1.49"/><ellipse class="cls-3" cx="27.04" cy="20.56" rx="3.24" ry="3.73"/><ellipse class="cls-4" cx="28.16" cy="19.1" rx="1.29" ry="1.49"/><path class="cls-5" d="M16.22,15.07a20.86,20.86,0,0,0-9.32-.85,5.12,5.12,0,0,1,4.48-3.1A5.35,5.35,0,0,1,16.22,15.07Z"/><path class="cls-5" d="M32.36,16.45a32.07,32.07,0,0,0-9.26-1.29,5.06,5.06,0,0,1,4.36-2.86A5.39,5.39,0,0,1,32.36,16.45Z"/></svg>