<svg id="Layer_1" data-name="Layer 1" xmlns="http://www.w3.org/2000/svg" width="183.82" height="243.53" viewBox="0 0 183.82 243.53">
  <defs>
    <style>
      .cls-1 {
        fill: #dd1a5b;
      }

      .cls-16, .cls-2 {
        fill: #ef4a86;
      }

      .cls-3 {
        fill: #66082f;
      }

      .cls-4 {
        fill: #a5ce48;
      }

      .cls-5, .cls-9 {
        fill: none;
      }

      .cls-5 {
        stroke: #66082f;
      }

      .cls-16, .cls-5, .cls-9 {
        stroke-miterlimit: 10;
      }

      .cls-6 {
        fill: #a31d42;
      }

      .cls-7 {
        fill: #ef3845;
      }

      .cls-8 {
        fill: #fff3e0;
      }

      .cls-9 {
        stroke: #cf1c63;
      }

      .cls-10 {
        fill: #cf1c63;
      }

      .cls-11 {
        fill: #f7f5f2;
      }

      .cls-12 {
        fill: #010101;
        opacity: 0.28;
      }

      .cls-13 {
        fill: #8058a3;
      }

      .cls-14 {
        fill: #180c0d;
      }

      .cls-15 {
        fill: #e81f69;
      }

      .cls-16 {
        stroke: #750f32;
      }

      .cls-17 {
        opacity: 0.54;
      }

      .cls-18 {
        fill: #fff;
      }

      .cls-19 {
        fill: #d83c78;
      }

      .cls-20 {
        fill: #eb1863;
      }
    </style>
  </defs>
  <g>
    <path class="cls-1" d="M138,215.2a2.23,2.23,0,0,1-1.49,1,40.14,40.14,0,0,1-7.8,1.07,37.86,37.86,0,0,1-9.16-.78c-9.43-1.92-9.36-5.54-17-6.46-4.61-.57-8.09.28-9.22-1.77-.93-1.64-.5-5-.5-5a3.49,3.49,0,0,0,.07-.85c.78-7.38-.14-16.89-5.6-28.17,10.07-2.48,20.07-5,20.07-4.89a58.06,58.06,0,0,0-2.84,5.67,66.39,66.39,0,0,0-4.11,11.78c-.92,4-2,9.08.71,11.64a5,5,0,0,0,1.35.85c18.94-2.06,28.94-1.35,30.08,2.27a3.25,3.25,0,0,1-.22,2.27c2.35,1.56,6.32,4.54,5.68,6.17-.14.42-.64.85-2,1.06h0C137.91,212.29,138.55,214.13,138,215.2Z"/>
    <path class="cls-2" d="M93,201.09a44.43,44.43,0,0,0,0-6.82,12.35,12.35,0,0,1,6.49-2.34,8.57,8.57,0,0,0,1,5.7C97.61,197.86,94.85,199.59,93,201.09Z"/>
    <path class="cls-1" d="M107.4,169.37a58.06,58.06,0,0,0-2.84,5.67c-.42,1-.92,2.13-1.41,3.27a63.7,63.7,0,0,1-12.92,2.91,57.44,57.44,0,0,0-2.9-7C97.47,171.71,107.4,169.23,107.4,169.37Z"/>
    <path class="cls-3" d="M136.11,211.37a22.19,22.19,0,0,0-9-2.77,24.33,24.33,0,0,0-3.19-.14c1.06-.07,2.13-.07,3.19-.07a22.52,22.52,0,0,1,9.37,2.34l-.36.64Z"/>
    <path class="cls-4" d="M63.84,207.54c-.14.71-.21,1.42-.28,2.12"/>
    <path class="cls-4" d="M58.24,208.18c.07,1.2.14,1.91.14,2.12"/>
    <path class="cls-1" d="M76.12,219.81c-10.86,7.95-32.14,2.84-31.57-1.28.49-3.47,10.07-8.79,13.76-10.35-.92-10.29-6-53.21-6-53.64S74.91,171,74.91,171s-8.23,19-11,36.54C71.65,210.66,76.83,217.82,76.12,219.81Z"/>
    <path class="cls-2" d="M65.84,199.67c-.52,2.14-1,4.32-1.4,6.48a35.63,35.63,0,0,0-6.38-.23c-.19-1.86-.43-4.08-.7-6.55A35.71,35.71,0,0,1,65.84,199.67Z"/>
    <path class="cls-1" d="M74.84,172.56s-1.63,3.83-3.76,9.72a64.22,64.22,0,0,1-16.1-4.9c-1.21-10.49-2.27-19.72-2.42-21.07C55.47,158.16,74.84,172.56,74.84,172.56Z"/>
    <polygon class="cls-3" points="102.71 199.75 96.4 200.1 102.64 199.03 102.71 199.75"/>
    <path class="cls-3" d="M132.37,204.32a12.16,12.16,0,0,0-8-1.56,12.4,12.4,0,0,1,8.44,1c-.07-.07-.42.57-.42.57Z"/>
    <path class="cls-2" d="M103.28,177.9a65.56,65.56,0,0,0-2.37,6.81A21.44,21.44,0,0,0,92,188.09a51.66,51.66,0,0,0-1.56-5.67C92.9,180.61,98.13,177.42,103.28,177.9Z"/>
    <path class="cls-2" d="M71.9,180.15c-1,2.72-2.09,5.94-3.17,9.44-4-2.2-8.94-2-12.23-1.43-.42-3.66-.86-7.45-1.28-11.11C58.85,176.24,67,175.15,71.9,180.15Z"/>
    <path class="cls-5" d="M138,215.2a2.23,2.23,0,0,1-1.49,1,40.14,40.14,0,0,1-7.8,1.07,37.86,37.86,0,0,1-9.16-.78c-9.43-1.92-9.36-5.54-17-6.46-4.61-.57-8.09.28-9.22-1.77-.93-1.64-.5-5-.5-5a3.49,3.49,0,0,0,.07-.85c.78-7.38-.14-16.89-5.6-28.17,10.07-2.48,20.07-5,20.07-4.89a58.06,58.06,0,0,0-2.84,5.67,66.39,66.39,0,0,0-4.11,11.78c-.92,4-2,9.08.71,11.64a5,5,0,0,0,1.35.85c18.94-2.06,28.94-1.35,30.08,2.27a3.25,3.25,0,0,1-.22,2.27c2.35,1.56,6.32,4.54,5.68,6.17-.14.42-.64.85-2,1.06h0C137.91,212.29,138.55,214.13,138,215.2Z"/>
    <path class="cls-5" d="M76.4,219.81c-10.85,7.95-32.14,2.84-31.57-1.28.5-3.47,10.08-8.79,13.76-10.35-.92-10.29-6-53.21-6-53.64S75.19,171,75.19,171s-8.15,19-11,36.54C72,210.66,77.18,217.82,76.4,219.81Z"/>
    <path class="cls-2" d="M160,122.89c2.76-2.27,8.65-6.46,11.28-3.48,3.33,3.91,3.76,6.89,1.06,9.65-.21.07,2.77,2.13-.57,6.1.08.29,1.64,6.39-6.1,8.16-8.08,1.85-7.8-1.56-7.8-1.56a9.35,9.35,0,0,1-8.51-2.48c-.22.07-18.94,1.56-21.71-.36s-5.54-10.42-5.54-10.42V97.28s7,20.22,9.3,22.49,15.82,15.25,19.93,13.12l-.85-.07s-5.11-5.39,1.35-9.86,8.94-1,9.36,4,.08,8.94-2.62,9.16-4.12-5.18-1.35-6"/>
    <path class="cls-1" d="M147.35,139.56c-1.49.11-3.76.25-6.23.36a11.47,11.47,0,0,1-.13-11.43,40.72,40.72,0,0,0,5.17,3.45,11.28,11.28,0,0,0,1.19,7.62Z"/>
    <path class="cls-1" d="M132.62,139.63c-2.48-.07-4.39-.35-5.17-.85-2.77-1.84-5.54-10.43-5.54-10.43V111c.64-2.76,1.63-4.82,2.91-5.74,2.2,5.88,5,13.12,6.39,14.4l.49.49A56.17,56.17,0,0,0,132.62,139.63Z"/>
    <path class="cls-5" d="M160,122.89c2.76-2.27,8.65-6.46,11.28-3.48,3.33,3.91,3.76,6.89,1.06,9.65-.21.07,2.77,2.13-.57,6.1.08.29,1.64,6.39-6.1,8.16-8.08,1.85-7.8-1.56-7.8-1.56a9.35,9.35,0,0,1-8.51-2.48c-.22.07-18.94,1.56-21.71-.36s-5.54-10.42-5.54-10.42V97.28s7,20.22,9.3,22.49,15.82,15.25,19.93,13.12l-.85-.07s-5.11-5.39,1.35-9.86,8.94-1,9.36,4,.08,8.94-2.62,9.16-4.12-5.18-1.35-6"/>
    <path class="cls-3" d="M172.49,129.42a12.07,12.07,0,0,1-9.15.64,12.28,12.28,0,0,0,8.8-1.21l.35.57Z"/>
    <path class="cls-3" d="M172,135.45a12.07,12.07,0,0,1-9.15.64,12.25,12.25,0,0,0,8.79-1.21l.36.57Z"/>
    <path class="cls-3" d="M157.81,141.83c1.56-2.91,5.25-3.62,8.3-3.33l1.35.21h-.22c-.14.07-.07.07-.07.07.22-.71.36-1.91-.56-2.2v-.07a.84.84,0,0,1,.78.29,2.74,2.74,0,0,1,.42,2.19.42.42,0,0,1-.35.36,16.27,16.27,0,0,0-5.25-.21,6.94,6.94,0,0,0-4.4,2.69Z"/>
    <path class="cls-2" d="M135.12,155.73c.41.07-4.16,5.31-11.21,4.65-.49.12,1.73,3.22,5.72,2.18a26.19,26.19,0,0,1-17.72,2.86c.21.43,2.86,5.11,12.09,3.55a22.54,22.54,0,0,1-20.81,3.85,12.16,12.16,0,0,0,13.39,4.51c-.2.06-11.91,9.6-25.56-2.7-.09.23-8.68,12.4-25.86,7.25-.49-.43,9.66-4.25,10.4-10.07,0-.13,0-.24,0-.37a1.21,1.21,0,0,1-.35.33c-2,1.6-12.58,7.68-22.66,4.73.42-.11,8.86-4.29,10.35-7.72a3.05,3.05,0,0,0,.16-.45,7.59,7.59,0,0,1-.73.23c-3.34.93-17,4.14-20.31,2.72.52,0,6.78-6.44,10-7.67-.17-.15-11.51,3.17-13.24,2.73s1.89-6.41,1-10.24S36,145.34,35.05,142a59,59,0,0,1-1-9.33v0a73.64,73.64,0,0,1-.19-10.12c1.26-36.76,32.17-83,65.95-82.15,17.32.42,36.77,13.23,37.13,23.94.26,7.81-9.4,20.92-7.45,27.78.28,1,1.06,3-.14,4.64s-3.83,1.94-4.83,4.23a5.48,5.48,0,0,0-.36,1.18,96.12,96.12,0,0,0-.42,22.37c.47,4.29.84,7.58,1,10.26h0a7.23,7.23,0,0,0,6.63,4.68c-.08.17-2,1.53-6.6,1.06q-.08.78-.21,1.5a20.07,20.07,0,0,1-.56,2.29,15.44,15.44,0,0,0,7.37,3A20.67,20.67,0,0,1,122,149a13.41,13.41,0,0,1-3.55-.8,34.83,34.83,0,0,0,2.41,2.74C123.78,153.82,129,157.77,135.12,155.73Z"/>
    <path class="cls-3" d="M135.12,155.73a.17.17,0,0,1,0,.17,5.45,5.45,0,0,1-.93,1,13.68,13.68,0,0,1-10.27,3.49c-.05.41.59.94.92,1.22a5.51,5.51,0,0,0,4.94.81l-.07.1a23.58,23.58,0,0,1-8.65,3.07,25.58,25.58,0,0,1-9.15-.08l.14-.18a6.39,6.39,0,0,0,2.3,2.26c2.87,1.73,6.43,1.69,9.64,1.18l0,.33s0,.05,0,.06a23.3,23.3,0,0,1-9.84,4.52,22.75,22.75,0,0,1-11-.66l.3-.15s0-.08,0-.09l.06.08a12,12,0,0,0,13,4.18l.15.51-.11.08a19.94,19.94,0,0,1-6.2,2.88c-7.25,2-14.11-.88-19.53-5.7l.48-.11a4.67,4.67,0,0,1-.3.43,22.12,22.12,0,0,1-11.63,7.5,25,25,0,0,1-5.38.79c-.52,0-2.19,0-2.72-.08-.71,0-2-.28-2.69-.36-1.2-.22-2.38-.57-3.58-.84a.41.41,0,0,1-.17-.45c.13-.34.59-.53.86-.72,3-1.71,6.17-3.46,8.24-6.25a6.44,6.44,0,0,0,1.32-3.33l.67.13a.66.66,0,0,1-.21.28l-.17.14-.31.24c-6.57,4.33-15,6.75-22.75,4.64l-1-.28,1-.44a40.38,40.38,0,0,0,5.77-3.31c1.69-1.21,3.74-2.63,4.46-4.6l.56.44c-1.67.58-3.61,1-5.28,1.37a94.94,94.94,0,0,1-10.59,1.85,13.84,13.84,0,0,1-5.51-.23l.16-.8s-.07,0,0,0c.6-.43,1.62-1.4,2.2-1.89,2.45-2.09,4.73-4.39,7.71-5.75l-.14.72a.22.22,0,0,0,.12.11.11.11,0,1,1,.05,0l-.17,0c-1.6.37-3.91,1-5.5,1.38a38,38,0,0,1-7.21,1.34,1.12,1.12,0,0,1-1-.55,2.31,2.31,0,0,1-.11-1.39c.5-2.89,2-5.87,1.39-8.73-1.25-4.85-3.41-9.51-4.85-14.37a50.58,50.58,0,0,1-.92-9.4.44.44,0,0,0,0,.47l-.07-.2C31,102.84,46.62,69.46,69.9,51c8.14-6.26,18-10.92,28.42-11a48.22,48.22,0,0,1,34.59,15c2.51,2.91,4.67,6.66,4.25,10.66-.85,6.43-4.35,12.09-6.37,18.16-.77,2.36-1.57,4.9-1.2,7.38.37,1.87,1.29,4.07-.13,5.76-1.24,1.48-3.46,1.94-4.44,3.56-.65.86-.73,2.54-.89,3.58a100.26,100.26,0,0,0,.06,23l.74,7.68a7.33,7.33,0,0,0,6.45,4.51l.34,0-.2.22c-1.9,1.43-4.52,1.28-6.78,1.13l.17-.14a24.46,24.46,0,0,1-.79,3.82l-.05-.15a15.32,15.32,0,0,0,7.3,3l.42.05-.43.17c-4,1.66-8.76,2.42-12.93.82l.07-.12c3.82,5,10,9.85,16.62,7.64Zm0,0c-6.57,2.26-12.86-2.6-16.71-7.53l-.15-.2.22.08c4.21,1.58,8.81.76,12.88-.91v.22a15.57,15.57,0,0,1-7.44-3l-.07-.06,0-.09a29.23,29.23,0,0,0,.78-3.92,15.84,15.84,0,0,0,3.51,0,6.71,6.71,0,0,0,3.06-1l.14.25a7.52,7.52,0,0,1-6.82-4.85l-.79-7.64A98.44,98.44,0,0,1,123.6,104c.1-.94.3-3,1-3.8,1.9-2.79,6.17-2.63,4.91-7-1.81-5.74,1.63-11.47,3.61-16.73,1.75-4.59,4.46-9.57,3.1-14.55-3.2-9.33-14.09-15.42-22.89-18.62C87.16,33.46,63.36,53.35,50.21,74.46c-11,17.05-17.38,38.93-15.79,58.41l.07-.28c.28,4,.35,8,1.86,11.8,1.32,3.81,2.87,7.55,3.9,11.53a8.37,8.37,0,0,1,0,3.19c-.29,2-1.07,3.95-1.44,5.89-.09.45,0,.95.07.89a4.39,4.39,0,0,0,1.28,0c3.33-.49,7-1.53,10.29-2.34l.75-.18a3.19,3.19,0,0,1,.82-.13.88.88,0,0,1,.3.09l.72.38-.85.34c-3.5,1.66-6.28,4.7-9.26,7.15a2.09,2.09,0,0,1-.91.53l.17-.79c3.34.82,7-.11,10.37-.58,2.5-.43,5.32-1.07,7.82-1.66,1.16-.29,2.23-.58,3.28-.93-.66,2.67-2.93,4.26-5,5.73a39.44,39.44,0,0,1-6,3.41v-.73c7.68,2.08,16.15-.35,22.55-4.81,0,0,.09-.11,0,0l.67.13c-.55,4.8-5.34,7.42-9.08,9.64l-.83.48-.39.24a1.25,1.25,0,0,0-.17.12l0,0,0-.06a.3.3,0,0,0-.21-.36,37.76,37.76,0,0,0,6.08,1.18,22.66,22.66,0,0,0,14.3-3.52,20.34,20.34,0,0,0,5.34-5,38.16,38.16,0,0,0,4.4,3.29,18.51,18.51,0,0,0,20.7-.15,3.29,3.29,0,0,1,.44-.28l.15.51a13.18,13.18,0,0,1-5.72.38,12.86,12.86,0,0,1-7.84-4.81.6.6,0,0,1-.14-.42l0-.23.28.08a22.12,22.12,0,0,0,20.07-3.36,2.71,2.71,0,0,1,.67-.42l0,.33c-4.24.69-9.73.4-12.22-3.66l-.12-.23.26.05c6,1.29,12.42-.06,17.7-2.68a5.27,5.27,0,0,1-5.74-1.84c0-.12-.22-.34,0-.44a13.47,13.47,0,0,0,10.82-4,3.88,3.88,0,0,0,.26-.31c.06-.1.2-.22.14-.34Z"/>
    <path class="cls-6" d="M115.71,110.21a13.16,13.16,0,0,0,.22,3.22c0,.14,0,.29.09.44s.13.56.21.84A19.07,19.07,0,0,0,117,117a0,0,0,0,0,0,0c.25.58.5,1.12.74,1.61s.53,1,.74,1.4a5.79,5.79,0,0,1,.55,1.13v0a6.25,6.25,0,0,1-1.64,4.85,10.53,10.53,0,0,1-2.58,2,18.15,18.15,0,0,1-1.65.83,23.17,23.17,0,0,1-2.85,1c-.68.2-1.39.37-2.12.52s-1.48.27-2.26.38h0c-1.16.17-2.36.28-3.59.35h0c-.7,0-1.48.08-2.19.06a49.67,49.67,0,0,1-15.13-2.33c-.64-.22-1.28-.44-1.92-.7l-.26-.1c-1.16-.51-2.33-1-3.43-1.59l-4.51-3.08a15.29,15.29,0,0,1-3.43-4.06,11,11,0,0,1-.88-1.71c-.09-.24-.19-.48-.26-.72-.25-.74-.48-1.46-.69-2.18a44.71,44.71,0,0,1-1.16-5.24c-.16-1-.27-1.91-.35-2.84C67,93.84,71.93,84.52,72.32,84.33h0c.29.71.6,1.4.92,2.07A40.23,40.23,0,0,0,80,96.46c.42.44.84.87,1.28,1.28.25.25.52.48.77.71l.19.16a28.58,28.58,0,0,0,4.54,3.28,29.09,29.09,0,0,0,5.78,2.61c.43.15.85.28,1.28.4l.22.06a6.63,6.63,0,0,0,1.23.28,37.73,37.73,0,0,0,10.65.83c.3,0,.59,0,.88-.06,1.39-.1,2.74-.25,4-.44,1.63-.27,3.19-.61,4.66-1,.95-.24,1.86-.48,2.71-.73l-.08.1A10.85,10.85,0,0,0,115.71,110.21Z"/>
    <path class="cls-7" d="M119.11,121.19a.16.16,0,0,1,0,.1,6.18,6.18,0,0,1-1.64,4.86c-2.74,3.06-8.47,4.82-15,5.12a19.79,19.79,0,0,1-2.2.06A49.67,49.67,0,0,1,85.09,129c-.73-.25-1.45-.49-2.18-.8-1.23-.51-2.33-1-3.43-1.59L75,123.53a15.29,15.29,0,0,1-3.43-4.06,11.36,11.36,0,0,1-1.14-2.42c-.26-.76-.49-1.52-.7-2.26h0c7.65-1.39,22.36-2.59,29.55,6.61.11,0,10.95-6.8,19.27-1.35h0A5.23,5.23,0,0,1,119.11,121.19Z"/>
    <path class="cls-8" d="M84.34,122.62a11.13,11.13,0,0,1-1.21,5.61l-.26-.1c-1.16-.51-2.33-1-3.43-1.59l-4.51-3.08a15.29,15.29,0,0,1-3.43-4.06,12,12,0,0,1-.88-1.71c2.89-2.77,6.82-3.56,9.53-2.3C82.49,116.54,84.15,119.36,84.34,122.62Z"/>
    <path class="cls-8" d="M100.18,131.26a49.67,49.67,0,0,1-15.13-2.33c-.73-.25-1.45-.49-2.18-.8a11.24,11.24,0,0,1,3.61-5.25c2.79-2.23,6.3-2.92,8.92-1.72C98.54,122.61,100.7,126.75,100.18,131.26Z"/>
    <path class="cls-8" d="M117.43,126.08c-2.74,3.07-8.47,4.75-15.06,5.12a11.43,11.43,0,0,1,1.9-6.64c.4-.52,3.74-5.33,8-4.51a6.21,6.21,0,0,1,4.22,3A15.58,15.58,0,0,1,117.43,126.08Z"/>
    <path class="cls-8" d="M81.27,97.74c-2.68,1.28-5.61,1.19-7.47-.19-2.76-2-3.51-7.2-.53-11.16A39.7,39.7,0,0,0,80,96.46C80.41,96.9,80.84,97.33,81.27,97.74Z"/>
    <path class="cls-8" d="M86.77,101.9a29.62,29.62,0,0,0,5.78,2.6,8,8,0,0,1-3.28,3.2,6,6,0,0,1-5.53-.11c-2.09-1.39-2.94-5-1.51-9A29.9,29.9,0,0,0,86.77,101.9Z"/>
    <path class="cls-8" d="M95.28,105.24a37.73,37.73,0,0,0,10.65.83,20.86,20.86,0,0,1-2.88,3.64c-1.46,1.47-2.77,2.74-4.52,2.66a5.31,5.31,0,0,1-4.09-3,7.62,7.62,0,0,1-.61-4.44l.22.06A7,7,0,0,0,95.28,105.24Z"/>
    <path class="cls-8" d="M115.51,104.59c-.8,5.3-3.21,8.68-5.48,8.71a3.86,3.86,0,0,1-3.07-1.9c-1-1.65-.62-3.79-.15-5.39,1.39-.1,2.74-.25,4-.44C112.48,105.3,114.05,105,115.51,104.59Z"/>
    <path class="cls-9" d="M118.51,120a9.29,9.29,0,0,1,.58,1.14.33.33,0,0,1,0,.1,6.16,6.16,0,0,1-1.64,4.85c-2.74,3.07-8.47,4.83-15.06,5.13-.71,0-1.42.08-2.2.06A50,50,0,0,1,85.07,129c-.73-.25-1.46-.49-2.18-.8a36.24,36.24,0,0,1-3.43-1.58L75,123.5a15.33,15.33,0,0,1-3.43-4.07A10.92,10.92,0,0,1,70.38,117c-.26-.75-.5-1.51-.71-2.26a42.68,42.68,0,0,1-1.15-5.24c-.15-1-.26-1.91-.35-2.84-1.16-13,4-22.42,4.18-22.32.3.7.6,1.37.92,2a44,44,0,0,0,2.63,4.79A39.19,39.19,0,0,0,80,96.49c.41.43.81.84,1.22,1.23s.66.62,1,.91a28.91,28.91,0,0,0,10.29,5.9c.44.14.87.28,1.31.39l.24.07c.43.12.79.17,1.23.29a37.09,37.09,0,0,0,10.58.86l.91-.06c1.4-.1,2.76-.27,4.08-.48,1.62-.26,3.18-.6,4.64-1,.93-.23,1.81-.47,2.65-.7l.08,0a10.74,10.74,0,0,0-2.52,6.27,13.67,13.67,0,0,0,.22,3.22c0,.15.06.29.09.44s.13.56.21.84A17.5,17.5,0,0,0,117,117s0,0,0,0c.24.58.49,1.12.74,1.6S118.3,119.63,118.51,120Z"/>
    <path class="cls-10" d="M117.87,103.71c2.86-1,5.78-2.11,8.08-4.09-2.15,2.18-5,3.48-7.83,4.71l-.25-.62Z"/>
    <path class="cls-11" d="M128.23,87.55c-1.22,3.34-3,8.19-7.58,10.44a9.92,9.92,0,0,1-6.72.9A9.22,9.22,0,0,1,111,97.52a10.33,10.33,0,0,1-3.78-4.33,8.09,8.09,0,0,1-.48-1.32,20.1,20.1,0,0,1-.09-9.75c1.54-5.62,8-14.09,14.82-12.42,4.94,1.21,8.16,7.31,8.13,12.25A16.49,16.49,0,0,1,128.23,87.55Z"/>
    <path class="cls-12" d="M126.61,73.25a9.4,9.4,0,0,0-5.25-3.74C114.58,67.88,108,76.35,106.54,82a20.05,20.05,0,0,0,.1,9.74,13.52,13.52,0,0,0,.48,1.33,10.25,10.25,0,0,0,3.77,4.33,9.93,9.93,0,0,0,2.94,1.36l.7.16a8.8,8.8,0,0,1-2.45-.25A10.38,10.38,0,0,1,109,97.21a11.69,11.69,0,0,1-4-4.54,8.78,8.78,0,0,1-.53-1.41A21.44,21.44,0,0,1,104.33,81C106,75,112.81,66.1,120,67.83A10.48,10.48,0,0,1,126.61,73.25Z"/>
    <ellipse class="cls-13" cx="119.3" cy="84.19" rx="6.44" ry="4.94" transform="translate(8.8 179.64) rotate(-76.03)"/>
    <ellipse class="cls-14" cx="119.34" cy="83.87" rx="3.43" ry="2.64" transform="translate(9.15 179.44) rotate(-76.03)"/>
    <ellipse class="cls-11" cx="117.7" cy="82.29" rx="1.26" ry="0.96" transform="translate(9.43 176.64) rotate(-76.03)"/>
    <path class="cls-11" d="M104.3,77.43c-1.64,3.77-4,9.25-9.47,11.52a11.4,11.4,0,0,1-7.81.57,10.48,10.48,0,0,1-3.3-1.77,11.86,11.86,0,0,1-4-5.26,8.57,8.57,0,0,1-.47-1.57,23.24,23.24,0,0,1,.57-11.25C81.93,63.29,90,54,97.73,56.36c5.62,1.74,8.92,9,8.54,14.7A19.36,19.36,0,0,1,104.3,77.43Z"/>
    <path class="cls-12" d="M103.42,60.81a10.87,10.87,0,0,0-5.8-4.68c-7.71-2.35-15.85,7-18,13.36a23.22,23.22,0,0,0-.56,11.25,15.66,15.66,0,0,0,.46,1.56,11.92,11.92,0,0,0,4.06,5.26,11.37,11.37,0,0,0,3.29,1.78l.8.23a10.11,10.11,0,0,1-2.8-.46,12.15,12.15,0,0,1-3.5-1.86,13.35,13.35,0,0,1-4.32-5.53,11.46,11.46,0,0,1-.52-1.65,24.78,24.78,0,0,1,.61-11.89C79.45,61.45,88,51.6,96.2,54.1,99.42,55,101.86,57.63,103.42,60.81Z"/>
    <ellipse class="cls-13" cx="94.23" cy="72.94" rx="7.45" ry="5.71" transform="matrix(0.3, -0.95, 0.95, 0.3, -3.54, 141.05)"/>
    <ellipse class="cls-14" cx="94.3" cy="72.56" rx="3.97" ry="3.05" transform="translate(-3.14 140.86) rotate(-72.6)"/>
    <ellipse class="cls-11" cx="92.51" cy="70.63" rx="1.45" ry="1.11" transform="translate(-2.55 137.79) rotate(-72.6)"/>
    <g>
      <path class="cls-3" d="M121.47,69.7c-7.85-1.52-14.77,8.6-15,15.59-1.18,14.15,13.84,18.6,20,5.71,1.23-2.84,2.69-5.78,3-8.9.1-5.11-2.79-10.91-8-12.4Zm0,0c5.25,1.44,8.16,7.27,8.29,12.41-.16,3.21-1.51,6.21-2.67,9.17-2.21,6.09-9.89,10.85-15.91,6.94a11,11,0,0,1-5.32-8.88,17.86,17.86,0,0,1,2.61-11.76c2.76-4.32,7.4-9.1,13-7.88Z"/>
      <path class="cls-3" d="M97.73,56.36c-6.35-1.71-12,3.49-15.25,8.39A20,20,0,0,0,79.19,77.9a12,12,0,0,0,5.29,9.82c6.36,4.48,14.53-.11,17.61-6.4,1.61-3.2,3.49-6.5,4-10.1.45-5.89-2.49-12.78-8.36-14.86Zm0,0c6,2,8.91,9,8.69,14.89-.42,3.69-2.19,7-3.74,10.39-3,6.83-12.05,11.77-18.75,6.86a12.68,12.68,0,0,1-5.51-10.56A20.6,20.6,0,0,1,82.2,64.57c3.47-4.81,9.16-10,15.53-8.21Z"/>
    </g>
    <path class="cls-15" d="M100.31,45.05c-.12-.08-4.64-4.06-6-3.57s-2.17,2-.28,3.57c0,0-6.73-2.3-6.56,1.52-.08-.16-5.46-.25-3,3-.2-.08-4.38,1.6-3,4.19C88.59,49.42,92.1,49,94,49.56a18.39,18.39,0,0,0,3.25.58c2.09.18,3.86.34,4.51-.58S101.78,46.76,100.31,45.05Z"/>
    <path class="cls-15" d="M122.54,58c.1,0,4-1.5,4.76-.86s.92,1.84-.69,2.4c0,0,5,.15,3.91,2.6.09-.08,3.62,1.18,1.25,2.68.15,0,2.47,2.12.95,3.47-3.61-4.56-5.8-5.68-7.16-5.79a12.78,12.78,0,0,1-2.26-.42c-1.41-.4-2.61-.73-2.8-1.49S121.16,58.78,122.54,58Z"/>
    <g>
      <path class="cls-16" d="M112.62,43.42c.51-.61,4.14-3.68.94-7.6.12,0,6,2.93,2.84,8.9.21-.19,6.12-5,.85-10.19,0,.13,7.3,1.5,2.51,11.5a6.82,6.82,0,0,0,5.42-5.74c.14.33,2.46,4.15-1.1,9"/>
      <path class="cls-16" d="M112.62,43.68c.51-.61,4.14-3.69.94-7.6.12.05,6,2.93,2.84,8.9.21-.19,6.12-5,.85-10.19,0,.12,7.3,1.49,2.51,11.5a6.82,6.82,0,0,0,5.42-5.74c.14.32,2.46,4.15-1.1,9"/>
    </g>
    <g class="cls-17">
      <ellipse class="cls-18" cx="72.35" cy="59.59" rx="6.7" ry="3.35" transform="translate(-21.34 62.39) rotate(-41.19)"/>
      <ellipse class="cls-18" cx="59.88" cy="74.24" rx="10.41" ry="5.35" transform="translate(-33.04 95.77) rotate(-64.16)"/>
    </g>
    <path class="cls-16" d="M106,41.86c.5-.82,5.07-17.71-10.34-23.55C89,17.22,83.87,30.82,97.1,29c4.2-1.18,4-1.91,4-1.91s8.81,9.21-.09,15.42"/>
    <path class="cls-16" d="M105.8,41.86c.5-.82,5.07-17.71-10.34-23.55C88.87,17.22,83.71,30.82,96.94,29c4.2-1.18,4-1.91,4-1.91s8.81,9.21-.09,15.42"/>
    <ellipse class="cls-18" cx="93.26" cy="24.3" rx="2.04" ry="4.18" transform="translate(-3.1 22.64) rotate(-13.62)"/>
    <path class="cls-16" d="M128.55,52.8C138.75,48.73,140.31,37,140,37c-5.44.51-11.87-3-12.64-8.14.89-5.74,16.85-7.57,17,4-1,19.15-14.22,22.57-14.22,22.57"/>
    <ellipse class="cls-18" cx="132.05" cy="30.87" rx="2.04" ry="4.18" transform="translate(2.23 70.08) rotate(-29.96)"/>
    <path class="cls-19" d="M51.52,101.7a40.91,40.91,0,0,0-9.22,11.7,43.53,43.53,0,0,0-2.62,5.75c-2.49,6.31-3.5,14.25-3.57,24.47a57.87,57.87,0,0,1-1.94-10.8c-.07-1.91-.45-4.66-.38-6.72,0-.78.07-1.49.07-2.27.07-1.49.14-3,.28-4.47A132.35,132.35,0,0,1,36,105.74c4.4-2.2,9.36-4.26,13.19-4.33h.29A12.93,12.93,0,0,1,51.52,101.7Z"/>
    <path class="cls-20" d="M67.14,84.19c1.43-4.14,8.17-4.11,9.52,0a10.6,10.6,0,0,0-9.52,0Z"/>
    <path class="cls-20" d="M81.52,93.73c12.25,10.12,18.23,9.34,33.23,8.25-13.21,4.38-24.45,3.63-33.23-8.25Z"/>
    <path class="cls-20" d="M63.51,107.09a35.32,35.32,0,0,0,16,24.25c-10.1-2.94-17.33-13.8-16-24.25Z"/>
    <path class="cls-2" d="M50.24,102.33c-7.66-2.34-25.89,9.86-25.61,9.86-2.41,3.48-2.27,22.06-2.2,30.15,3.41-.14,9.58-.21,10.93,1.28,1.77,1.91,4.54,14.61-1,17.09-3.05,1.56-5.18.71-5.74-3.61a.81.81,0,0,0-.08-.43h0c.08.07.08.21.08.43-.15,1.27-1.78,5-3.27,5-1.13-.07-2.62-2.27-2.62-5.53-.64,3.47-2.41,5.89-4.12,6-2.34.07-3.9-4.69-4.18-5.61-1.78-5.6.28-11,1.7-14-.14-4.83-.28-8.66-.35-10.86-.5-13.83-.79-18.09,2-22.77.21-.28,1.42-1.77,3.9-4.75C25.27,97.86,28,94.45,30.73,91.76A66.71,66.71,0,0,1,45.49,80.55,13.85,13.85,0,0,1,50,85.66,14.59,14.59,0,0,1,51.37,94"/>
    <path class="cls-1" d="M22.68,135.85c0,1.83,0,3.6,0,5.22a14.74,14.74,0,0,0-8.37,1.71c-.08-2.51-.15-4.62-.2-6.22C16.66,135.51,19.78,134.85,22.68,135.85Z"/>
    <path class="cls-1" d="M40.17,104a53.11,53.11,0,0,0-6.38,2.69c0-4.76-2.82-8.91-5.74-11.9.56-.62,1.1-1.18,1.63-1.71a54.22,54.22,0,0,1,4.11-3.79C37.37,92.69,41.22,97.92,40.17,104Z"/>
    <path class="cls-5" d="M26.66,156.63s-.62-6.2.76-7.62"/>
    <path class="cls-5" d="M20.83,156.81s-.62-6.19.76-7.62"/>
    <path class="cls-1" d="M24.49,112.75c-.85,1.53-1.37,5.08-1.67,9.34a21.48,21.48,0,0,0-9.22-5.15,16,16,0,0,1,2.17-7.34l.49-.6A24.51,24.51,0,0,1,24.49,112.75Z"/>
    <path class="cls-12" d="M50.77,98.82l-.42,3.27C42.62,99.75,24.46,112,24.74,112c-2.41,3.47-2.27,22.13-2.13,30.15,3.41-.14,9.58-.21,10.93,1.28,1.06,1.2,2.48,6.31,2.27,10.71-.29-4.05-1.56-8-2.49-9-1.56-1.63-8.51-1.63-12.34-1.42-.07-9-.28-29.73,2.48-33.56C23,110.1,41.41,98,50.77,98.82Z"/>
    <path class="cls-3" d="M50.37,102.38c-6.87-1.74-19.59,5.93-25.35,9.79a1.47,1.47,0,0,0-.13.1l0,0c.07-.09-.13-.25-.14-.2l.12.23c-1.17,2.19-1.28,4.87-1.58,7.3s-.35,5.05-.43,7.58c-.15,5.06-.12,10.12-.06,15.19l-.26-.25c1.6-.07,3.21-.1,4.82-.06,2,.13,4.18.08,6,1.12,1,.83,1.31,2.15,1.72,3.31,1.08,4.32,2.17,10.64-1.53,14-4.08,2.73-6.65,1.05-7.19-3.47a4.5,4.5,0,0,1,.05-1.15l.52.59a.69.69,0,0,1,.17.43,8.24,8.24,0,0,1-1.16,3.4c-.58.95-1.35,2.32-2.67,2.15-2.28-.88-2.7-3.74-2.8-5.87l.77.07c-.55,2.44-1.39,5.34-4.1,6.25-1.5.28-2.62-1-3.33-2.08a16.6,16.6,0,0,1-2.21-10.92,24.69,24.69,0,0,1,2.23-7.15l-.05.22-.59-17c0-5.64-.79-11.89,2.31-16.94,6.8-7.89,13-16.5,21.28-22.89a73.75,73.75,0,0,1,8.72-5.75l.13-.07.12.08A14,14,0,0,1,51.57,94h-.1a14.72,14.72,0,0,0-1.08-7.54,13.54,13.54,0,0,0-4.89-5.73h.25a73.52,73.52,0,0,0-8.59,5.81C29,93,23,101.67,16.3,109.58c-2.81,4.62-2.18,10.9-2.1,16.31l.55,17V143c-2.14,4.32-3.26,9.38-1.68,14.05.66,1.75,1.75,5.12,3.91,5,2.14-.69,3.06-3.52,3.5-5.59l.77.07c0,1.79.41,4.3,2.17,5.14.8.07,1.48-1.1,1.89-1.78a8,8,0,0,0,1.08-3c0-.05,0-.07,0,0l.6-.22a12.37,12.37,0,0,0,.62,2.58c.92,2.59,3.63,2,5.5.66,3.63-2.63,2.52-13.26-.11-16.34-3.26-1.51-7.19-1-10.73-1v-.26c0-8.86-.2-17.79,1.15-26.58a11.16,11.16,0,0,1,1.18-3.65l.12.23s-.21-.12-.13-.22l0,0h0l0,0,.05,0,.09-.07c5.39-3.62,19.4-11.81,25.52-9.55Z"/>
    <path class="cls-3" d="M163.34,130.06c-2.23.6-2.4,4.88-.49,6-2.49-.17-2.9-3.71-1.49-5.33a1.75,1.75,0,0,1,2-.7Z"/>
    <path class="cls-3" d="M163.28,130c-2.39-.36-2.77-3.64-1.58-5.39a2.21,2.21,0,0,1,2.14-1.1,10.49,10.49,0,0,0,3.81.44.88.88,0,0,0,.77-.81.85.85,0,0,1-.08.69c-1.07,1.26-3.39.77-4.62.61a1.35,1.35,0,0,0-1.19.72c-.95,1.48-1,3.89.75,4.84Z"/>
  </g>
</svg>
