<svg id="Layer_1" data-name="Layer 1" xmlns="http://www.w3.org/2000/svg" viewBox="0 0 223.53 199.06"><defs><style>.cls-1{fill:#c34804;stroke:#7c320d;}.cls-1,.cls-16,.cls-2,.cls-5{stroke-miterlimit:10;}.cls-2{fill:#fcf200;stroke:#a89c0b;}.cls-3{fill:#fec119;}.cls-4{fill:#f2a905;}.cls-5{fill:#ff7e2a;stroke:#af440e;}.cls-6{fill:#fb6010;}.cls-7{fill:#fde664;}.cls-8{fill:#febe42;}.cls-9{fill:#ff631e;}.cls-10{fill:#dc0604;}.cls-11{fill:#8c0606;}.cls-12{fill:#f9f2f2;}.cls-13{fill:#683c3c;}.cls-14{fill:#30252b;}.cls-15{fill:#fff;}.cls-16{fill:#d10409;stroke:#a30814;}.cls-17{fill:#ffe632;}.cls-18{fill:#ffd713;}.cls-19{fill:#fd1441;}</style></defs><path class="cls-1" d="M94.66,142.39s-3.76,3.07-5.23,26.14c0,0-6.59.11-6.71.91s6.59,1.93,6.59,1.93,4.55,9.09,6.25,10.46,3,.11-2-7.85c0,0,3.29,1.48,7.27,3.75,0,0,3.18.46-3.63-5.11,0,0,.9-1,6.25.57,0,0,6-1.48-10.69-4.32a44.74,44.74,0,0,1,5.8-23.64C105.34,133.18,94.66,142.39,94.66,142.39Z"/><path class="cls-1" d="M127.74,144s-3.12,3.71-.31,26.66c0,0-6.45,1.33-6.42,2.13s6.84.68,6.84.68,6.15,8.1,8.07,9.12,2.93-.43-3.46-7.33c0,0,3.52.85,7.85,2.35,0,0,3.21-.15-4.52-4.36,0,0,.7-1.17,6.24-.59,0,0,5.65-2.57-11.29-2.27a44.76,44.76,0,0,1,1.32-24.31C136.54,133,127.74,144,127.74,144Z"/><path class="cls-2" d="M42.38,68.86S35.22,57.72,29,56.7s-2.27,5.91,0,8c0,0-10.91-5.8-14.43-.91S25.78,74.31,25.78,74.31,12,73.74,12.26,79.77s8.29,6.13,14.2,5.79c0,0-12,3.3-9.43,8.75s14-1.25,14-1.25-3.64,3.64-.8,5.12,7.62-1.14,9.32-5.91S42.38,68.86,42.38,68.86Z"/><path class="cls-3" d="M41.58,69s0-.09-.15-.24c-.78-1.17-4.32-6.27-8-7.37-4.21-1.25-3.64,2.84-.34,5.68,0,0-7.85-3.18-10.35.11s7.73,8,7.73,8-9.89,0-9.89,4.43,10.69,4.2,10.69,4.2S24,86.13,23.51,91.13,35.56,89.2,35.56,89.2s-4.55,4-3,6.25,6.48.11,7.28-3.64S41.58,69,41.58,69Z"/><path class="cls-4" d="M41,68.63s-7.27-6.48-4.89.91c0,0-5.45-1.25-4.09,2.5s3.75,4.09,3.75,4.09-5.45.57-6.59,3.86c0,0,.34,3,6,2.28a8.37,8.37,0,0,0-3.53,4.54c-.79,3,5.68,1.25,5.68,1.25s-3.86,3.07-1.47,4.32a3.26,3.26,0,0,0,4-.57S33.28,78.06,41,68.63Z"/><path class="cls-5" d="M181.28,89.74a72.84,72.84,0,0,1-1,8.27,62.37,62.37,0,0,1-3.66,12.68,60.33,60.33,0,0,1-16.14,22.55c-30.52,27.1-69.62,27-109.17-21.43l-.79-1.42S36.92,92.16,36.92,73.74A4.69,4.69,0,0,1,37,73c.41-2.18,2.84-8,17-5.18,13.79,2.73,36.33,7.32,60.34.28q2.84-.82,5.7-1.89h0a84.4,84.4,0,0,0,10.16-4.53c.74-.38,1.47-.78,2.21-1.19,0,0,2.21-.34.51-9s-3.07-26.59,14.15-27.79S172.11,43.91,176.2,55.5a94.35,94.35,0,0,1,4.64,20.13A82.26,82.26,0,0,1,181.28,89.74Z"/><path class="cls-6" d="M181.28,89.74a72.84,72.84,0,0,1-1,8.27c-7.85-.94-10.43-8.41-10.43-8.41S168.36,93,158.81,93s-10.23-8.36-10.23-8.36S145,87.89,135.8,86.19s-7.16-10.57-7.16-10.57c-13.09.7-15-3.76-14.33-7.56q2.84-.82,5.7-1.89h0a84.4,84.4,0,0,0,10.16-4.53c.74-.38,1.47-.78,2.21-1.19,0,0,2.21-.34.51-9s-3.07-26.59,14.15-27.79S172.11,43.91,176.2,55.5a94.35,94.35,0,0,1,4.64,20.13A82.26,82.26,0,0,1,181.28,89.74Z"/><path class="cls-7" d="M181.73,89.51c-7.82.81-11.38-6.45-11.38-6.45s-2,5-11.08,4.6-8.7-8.52-8.7-8.52-5.63,4.77-12.78,2-5.12-9.89-5.12-9.89c-12.32,1.46-13.49-2.06-12.2-5.36h0a83.66,83.66,0,0,0,10.17-4.53c.73-.38,1.47-.78,2.2-1.19,0,0,2.22-.34.51-9s-3.06-26.6,14.15-27.79,25.06,20.28,29.15,31.88a93.46,93.46,0,0,1,4.64,20.12A81.29,81.29,0,0,1,181.73,89.51Z"/><path class="cls-8" d="M180.84,75.63c-5.09,2.58-13.33-1.38-13.33-1.38-9.72,5.46-14.33-1.19-14.33-1.19-12.1,1.88-13.12-6.65-13.12-6.65-7.42.09-9.52-2.42-9.88-4.77.74-.38,1.47-.78,2.21-1.19,0,0,2.21-.34.51-9s-3.07-26.59,14.15-27.79S172.11,43.91,176.2,55.5A94.35,94.35,0,0,1,180.84,75.63Z"/><path class="cls-9" d="M176.66,110.21a60.33,60.33,0,0,1-16.14,22.55c-30.52,27.1-69.62,27-109.17-21.43l-.79-1.42S36.92,91.67,36.92,73.26a4.69,4.69,0,0,1,.09-.78c3.24,11.36,16.29,47.9,52.93,61.64C129.18,148.83,162.63,126.2,176.66,110.21Z"/><path class="cls-10" d="M148.3,52.21s-.68,5.11,4.32,9.6a13.47,13.47,0,0,0,10.74,3.41L153.19,52.09Z"/><path class="cls-11" d="M150.8,53.29c.42.42,1.45,5.2,12.7,12.1,0,0-5.8-9.12-5.8-10.06S150.8,53.29,150.8,53.29Z"/><path class="cls-10" d="M147.9,52.09s5.63-3.58,8.18-3.92,14.84,1.37,17.9,9.21c0,0-21.14.51-26.08-3.75Z"/><ellipse class="cls-11" cx="156" cy="49.65" rx="1.16" ry="0.57"/><ellipse class="cls-12" cx="143.64" cy="42.21" rx="5.64" ry="6.79" transform="translate(-2.88 72.96) rotate(-28.23)"/><path class="cls-13" d="M148.66,39.51a8.24,8.24,0,0,1,1,4.78,5.66,5.66,0,0,1-2.57,4.32,5.87,5.87,0,0,1-5.26.3A8.09,8.09,0,0,1,137,40a5.87,5.87,0,0,1,3.17-4.21,5.65,5.65,0,0,1,5,.25A8.23,8.23,0,0,1,148.66,39.51Zm-.09.05a7.63,7.63,0,0,0-3.45-3.29,4.94,4.94,0,0,0-7.22,3.89,7.72,7.72,0,0,0,4.27,8,4.95,4.95,0,0,0,7.24-3.87A7.66,7.66,0,0,0,148.57,39.56Z"/><ellipse class="cls-14" cx="142.52" cy="42.32" rx="3.68" ry="4.75" transform="translate(-3.82 68.51) rotate(-26.69)"/><ellipse class="cls-15" cx="143.63" cy="39.95" rx="1.25" ry="1.61" transform="translate(-2.64 68.76) rotate(-26.69)"/><ellipse class="cls-12" cx="158.47" cy="38.33" rx="5.64" ry="6.79" transform="translate(0.72 79.51) rotate(-28.23)"/><path class="cls-13" d="M163.49,35.63a8.24,8.24,0,0,1,1,4.78,5.68,5.68,0,0,1-2.56,4.32,5.92,5.92,0,0,1-5.27.31,8.14,8.14,0,0,1-4.77-8.89A5.87,5.87,0,0,1,155,31.93a5.64,5.64,0,0,1,5,.25A8.29,8.29,0,0,1,163.49,35.63Zm-.09,0A7.58,7.58,0,0,0,160,32.39a4.94,4.94,0,0,0-7.22,3.89,7.76,7.76,0,0,0,4.27,8,4.94,4.94,0,0,0,7.24-3.86A7.61,7.61,0,0,0,163.4,35.68Z"/><ellipse class="cls-14" cx="157.35" cy="38.44" rx="3.68" ry="4.75" transform="translate(-0.5 74.76) rotate(-26.69)"/><ellipse class="cls-15" cx="158.46" cy="36.07" rx="1.25" ry="1.61" transform="translate(0.68 75.01) rotate(-26.69)"/><path class="cls-10" d="M138.64,31.68a4.7,4.7,0,0,1,2.65-1.33.71.71,0,0,1,.92.57,2.09,2.09,0,0,1,.07.93,1.91,1.91,0,0,1-.89,1.16,12,12,0,0,1-1.34.68,6.59,6.59,0,0,0-1.6,1.17,3.05,3.05,0,0,1-1.17.92c-.35.11-1,0-1.07-.43s.32-.94.49-1.24A9.71,9.71,0,0,1,138.64,31.68Z"/><path class="cls-10" d="M154.22,28.19a5.12,5.12,0,0,0-3,.85,1,1,0,0,0-.47.71.83.83,0,0,0,.11.37,1.92,1.92,0,0,0,.55.74,1.89,1.89,0,0,0,1.48.26c.52-.09,1-.29,1.53-.43a6.8,6.8,0,0,1,2.05-.23,3.25,3.25,0,0,0,1.55-.13c.35-.16.76-.69.58-1.08s-.88-.48-1.21-.59A9.61,9.61,0,0,0,154.22,28.19Z"/><path class="cls-16" d="M143.65,16.7a1.57,1.57,0,0,0,.72-.84,8.7,8.7,0,0,0,.78-2.54c.1-.69.19-1.51.81-1.83a1.7,1.7,0,0,1,.81-.16,2,2,0,0,1,1.26.29,2.25,2.25,0,0,1,.64,1,10,10,0,0,1,1,3.95,5.16,5.16,0,0,0,.12,2.57,5.72,5.72,0,0,0,2.48-3.53,1,1,0,0,1,.29-.61.62.62,0,0,1,.32-.11,1.41,1.41,0,0,1,1.07.45,4.21,4.21,0,0,1,.67,1l.46.86a11.35,11.35,0,0,1,.64,1.31,5.36,5.36,0,0,1-.42,4.57,2,2,0,0,1-2.18,1.1,12.24,12.24,0,0,1-1.55-.33,18.83,18.83,0,0,0-5.46-.07c.13.09,0,.26-.2.29-1.76.42-3.67.27-5.3,1.06a10.59,10.59,0,0,0-1.69,1.13,23.87,23.87,0,0,0-4.57,4.23,10.27,10.27,0,0,1-.93,1.14c-.69.65-1.61,1-2.36,1.57A12.73,12.73,0,0,0,129,35.59a4.75,4.75,0,0,1-2.48,1.86,4.58,4.58,0,0,1-3-.54,5.78,5.78,0,0,1-2.62-2.21,4.62,4.62,0,0,1-.28-3.61A7.29,7.29,0,0,1,122.69,28a4.64,4.64,0,0,0,.91-1c.22-.39.3-.85.5-1.26a3.41,3.41,0,0,1,2.71-1.65c1.1-.13,2.21,0,3.31,0,.24,0,.54-.07.58-.31a.54.54,0,0,0-.16-.36,6.18,6.18,0,0,0-2.15-1.71c-.86-.42-1.8-.62-2.68-1a3.57,3.57,0,0,1-2-1.88,3,3,0,0,1,.87-3.07,6.69,6.69,0,0,1,3-1.52,11.08,11.08,0,0,1,4.16-.44,6.31,6.31,0,0,1,3.77,1.68A5.52,5.52,0,0,0,137,16.94a20.62,20.62,0,0,1,.29-3.59A18.09,18.09,0,0,0,137.4,11a1.09,1.09,0,0,1,.29-.87c.33-.26.81-.05,1.17.15a11.23,11.23,0,0,1,1.36.87,6.61,6.61,0,0,1,1.08,1.1A11.18,11.18,0,0,1,143.65,16.7Z"/><path class="cls-17" d="M132.22,106.13c-.35,4.44-1,25.41-42.79,18.75a50.59,50.59,0,0,1-20.49-9.76A39.13,39.13,0,0,1,57,99.31a8.16,8.16,0,0,1-.52-2.94c.09-2,1.35-4.12,6.82-2.86-.28-.17-5.72-3.48-3.22-6.64a4.11,4.11,0,0,1,5.53-1.25C65.09,85.2,62,82.75,64,80.73c1.29-1.28,6.37.24,12.31,1.55,4.29,1,9,1.78,13.1,1.35,9.71-1,27.61-3.41,35.12,3.92a29.76,29.76,0,0,1,4.37,5.31A20.83,20.83,0,0,1,132.22,106.13Z"/><path class="cls-18" d="M132.22,106.13c-.35,4.44-1,25.41-42.79,18.75a50.59,50.59,0,0,1-20.49-9.76,5.5,5.5,0,0,1,4-2.47c-1.75-.87-3.74-2.07-3.88-4a3.83,3.83,0,0,1,2-3.37A11.5,11.5,0,0,1,75,104a9.44,9.44,0,0,1-3.17-1.5,3.26,3.26,0,0,1-1.27-3.1c.45-1.93,2.92-2.5,4.89-2.43-2.26-.32-3.43-3.34-2.36-5.37s3.64-2.9,5.89-2.53c-2.13-.56-4.54-3.87-3.28-6.13a2.13,2.13,0,0,1,.64-.67c4.29,1,9,1.78,13.1,1.35,9.71-1,27.61-3.41,35.12,3.92a29.76,29.76,0,0,1,4.37,5.31A20.83,20.83,0,0,1,132.22,106.13Z"/><path class="cls-19" d="M132.22,106.13c-.35,4.44-1,25.41-42.79,18.75,0,0-23.7-4.26-32.4-25.57a8.16,8.16,0,0,1-.52-2.94c12.28,22.82,47.6,29.29,63.09,21.87,12-5.74,10.81-18.8,9.32-25.38A20.83,20.83,0,0,1,132.22,106.13Z"/></svg>