<svg xmlns="http://www.w3.org/2000/svg" xmlns:xlink="http://www.w3.org/1999/xlink" width="196.49" height="234.17" viewBox="0 0 196.49 234.17">
  <defs>
    <style>
      .cls-1, .cls-17, .cls-21, .cls-24, .cls-36, .cls-38, .cls-41, .cls-45, .cls-46 {
        fill: none;
      }

      .cls-2 {
        isolation: isolate;
      }

      .cls-3 {
        clip-path: url(#clip-path);
      }

      .cls-4 {
        fill: #911a1d;
      }

      .cls-5 {
        fill: #775b24;
      }

      .cls-6 {
        fill: #24180e;
      }

      .cls-7, .cls-8 {
        mix-blend-mode: multiply;
        opacity: 0.5;
      }

      .cls-7 {
        fill: url(#linear-gradient);
      }

      .cls-8 {
        fill: url(#linear-gradient-2);
      }

      .cls-9 {
        fill: #734626;
      }

      .cls-10, .cls-11 {
        opacity: 0.39;
      }

      .cls-10 {
        fill: url(#linear-gradient-3);
      }

      .cls-11 {
        fill: url(#linear-gradient-4);
      }

      .cls-12 {
        fill: #906c29;
      }

      .cls-13 {
        clip-path: url(#clip-path-2);
      }

      .cls-14, .cls-19 {
        fill: #bb7c2a;
      }

      .cls-15 {
        fill: #bb6d29;
      }

      .cls-16, .cls-37, .cls-39 {
        fill: #ffdcae;
      }

      .cls-16, .cls-17, .cls-38, .cls-39, .cls-41, .cls-45 {
        stroke: #8a5121;
      }

      .cls-16, .cls-17, .cls-19, .cls-21, .cls-24, .cls-36, .cls-38, .cls-39, .cls-40, .cls-41, .cls-45, .cls-46 {
        stroke-miterlimit: 10;
      }

      .cls-18 {
        fill: #fcbd72;
      }

      .cls-19, .cls-40 {
        stroke: #bb7c2a;
      }

      .cls-20 {
        fill: #df7f26;
      }

      .cls-21, .cls-24 {
        stroke: #231f20;
      }

      .cls-22 {
        fill: #f3d9ab;
      }

      .cls-23 {
        fill: #f4daac;
      }

      .cls-24, .cls-45 {
        stroke-width: 0.25px;
      }

      .cls-25 {
        fill: #f6f6f6;
      }

      .cls-26 {
        fill: #3e3224;
      }

      .cls-27 {
        fill: #fff;
      }

      .cls-28 {
        fill: #8a5121;
      }

      .cls-29 {
        fill: #231f20;
      }

      .cls-30 {
        fill: #ae6327;
      }

      .cls-31 {
        fill: #87441e;
      }

      .cls-32 {
        fill: #9e4a23;
      }

      .cls-33 {
        fill: #f27070;
      }

      .cls-34, .cls-35 {
        fill: #f2dcad;
      }

      .cls-34 {
        mix-blend-mode: screen;
        opacity: 0.2;
      }

      .cls-36 {
        stroke: #7f1416;
      }

      .cls-38, .cls-39 {
        stroke-width: 0.5px;
      }

      .cls-40 {
        fill: #cb832a;
      }

      .cls-41 {
        stroke-width: 0.75px;
      }

      .cls-42 {
        fill: #7e1416;
      }

      .cls-43 {
        fill: #ce4746;
      }

      .cls-44 {
        fill: #56100f;
      }

      .cls-46 {
        stroke: #513016;
      }
    </style>
    <clipPath id="clip-path">
      <path class="cls-1" d="M-61,68.11c1.89,9,8.61,42.73-.69,73.46l-3.79,4.08-57.75,2.81-87.24-32.12,6.68-52.68,41.6-11.43Z"/>
    </clipPath>
    <linearGradient id="linear-gradient" x1="-7766.45" y1="-68.11" x2="-7831.95" y2="-72.05" gradientTransform="matrix(1, -0.05, 0.05, 1, 7865.34, -115.01)" gradientUnits="userSpaceOnUse">
      <stop offset="0" stop-color="#563729"/>
      <stop offset="0.15" stop-color="#845b3e"/>
      <stop offset="0.3" stop-color="#ac794f"/>
      <stop offset="0.43" stop-color="#c48c5a"/>
      <stop offset="0.5" stop-color="#cd935e"/>
      <stop offset="0.64" stop-color="#ca8f5b"/>
      <stop offset="0.78" stop-color="#c08252"/>
      <stop offset="0.93" stop-color="#af6e43"/>
      <stop offset="1" stop-color="#a5613a"/>
    </linearGradient>
    <linearGradient id="linear-gradient-2" x1="-7756.59" y1="-76.43" x2="-7831.13" y2="-80.92" xlink:href="#linear-gradient"/>
    <linearGradient id="linear-gradient-3" x1="-7823.12" y1="-97.91" x2="-7736.36" y2="-97.91" gradientTransform="matrix(1, -0.05, 0.05, 1, 7865.34, -115.01)" gradientUnits="userSpaceOnUse">
      <stop offset="0" stop-color="#542d29"/>
      <stop offset="0.15" stop-color="#462524"/>
      <stop offset="0.44" stop-color="#31191c"/>
      <stop offset="0.73" stop-color="#241217"/>
      <stop offset="0.99" stop-color="#201015"/>
    </linearGradient>
    <linearGradient id="linear-gradient-4" x1="-7832.12" y1="-149.62" x2="-7755.37" y2="-149.62" xlink:href="#linear-gradient-3"/>
    <clipPath id="clip-path-2">
      <path class="cls-1" d="M47.49,74.23c-.6-.14-6,36-.14,57.38,5.76,21,33.39,16.88,33.39,16.88l75.89-2.19s48-24.48,38.65-60.68-52.59-44.49-78.15-26.81S47.49,74.23,47.49,74.23Z"/>
    </clipPath>
  </defs>
  <g class="cls-2">
    <g id="Layer_1" data-name="Layer 1">
      <g class="cls-3">
        <path class="cls-4" d="M-11.72,100.89C-8,99.11-3.3,99,.8,99.84A20,20,0,0,0-11,101.64a2.56,2.56,0,0,1-.47.23l-.21-1Z"/>
      </g>
      <g>
        <g>
          <path class="cls-5" d="M109.41,79.89s-1.22,32.13-2.66,52.89-10,20.09-22.2,23.34-29.7,1.44-35.89.39S37.87,149.83,37.15,126s-.34-44.47,4-71.59S78.7,26.46,87.48,32.21C102.49,42,103.92,45.47,109.41,79.89Z"/>
          <path class="cls-6" d="M45.09,113.37c2.46,29.29,5.37,37.57,20.89,39,1.43.13,14.15,2.75,15.56,2.72,13.81-.23,18.6-10.07,20.73-25.14,6.11-43.31-2.24-74-2.24-74C94.64,42.24,88.28,39.4,79.73,37.14S70.28,36.65,61,38.82c-4.18,1,4.81,1.46-.56,4.1C49.54,48.28,43.26,91.56,45.09,113.37Z"/>
          <path class="cls-7" d="M39.05,140.67s9,20.33,38.83,11.83c2.71-.77,5.53-.05,8.28.62,9.78,2.38,9.12,2.11,18.32.68,0,0,1.25,4.09-24.85,20.94-3.55,2.3-.92,18.55-1.73,24.5-.93,6.82-3.19,16.27-7.88,15.89-4.44-.37-13,6.07-16.47-19.25-1-7.43-.24-23-4.81-25.66C40.19,165.16,39.84,157.16,39.05,140.67Z"/>
          <path class="cls-8" d="M52.53,164.94c4.23,2,5.64,6.7,7.2,12.14,1.72,6,.64,21.36,7.38,19.76s8.16-18.09,9.06-23.26c.79-4.5,12.92-4,16.23-5.75,4.94-2.64,5.72-9.7,8.93-12.15-11.87.68-21.1,1.43-27.11.3a86.84,86.84,0,0,0-9.66-.85c-21.9-1-24.78-13.57-24.78-13.57-.05.42-.08.83-.11,1.25C41.34,153.5,46.13,161.91,52.53,164.94Z"/>
          <path class="cls-9" d="M46.43,150.26c-5.63,2.59,61.41,14.24,83.39-5.17,0,0,16.27-9.86-30.8-6.89C55.24,144.25,43.89,138.68,46.43,150.26Z"/>
          <path class="cls-10" d="M129.77,143.65c-25.9,16.36-79.07,8.51-83.46,3.61-.47.53.06,2.9.14,3.25-5.64,2.58,61.4,14.24,83.38-5.18,0,0,3.69-2.23,2.47-4.25A7.25,7.25,0,0,1,129.77,143.65Z"/>
          <path class="cls-11" d="M51.38,153.33c-6.19-1.05-10.78-6.67-11.51-30.52s0-39.24,4.39-66.36c2-12.28,3.14-14.18,10-19.31C45.57,41.88,42.67,44.43,40.33,59,36,86.1,35.21,101.5,35.94,125.34s5.32,29.47,11.51,30.52,14.55,4.53,39.9,4.61c2.78,0,24.58-5.91,26.68-7.69-1.08.52-22,3.2-25.18,3.3C76.44,156.5,57.57,154.38,51.38,153.33Z"/>
          <path class="cls-12" d="M45.88,142.84s18.06,16.1,83.89.78c0,0,16.26-9.85-30.81-6.88Z"/>
        </g>
        <g class="cls-13">
          <g>
            <path class="cls-14" d="M56.48,104.92h0a28.08,28.08,0,0,1-4,14.62,24.48,24.48,0,0,1-1.58,2.27,25.79,25.79,0,0,1-5.26,5l-1,.73c-2.65-.22-4.52,0-8.46-1.64a16.48,16.48,0,0,1-10.29-14.73c-.2-4-.34-7.7-3-11.14a13.09,13.09,0,0,0-1.09-1.22,15.12,15.12,0,0,0-3.61-2.62c.66.65,5.42,5.45,4.61,12.17-.75,6.23-5.73,9.55-7.31,10.61-6.76,4.51-16.4,4.15-22.63.45C-18,112.94-21.68,94.49-15.63,80a33.53,33.53,0,0,1,2.93-5.56C-5,62.61,9.9,56.93,22.78,59.36,36.28,61.91,44,72.71,45,74.14c7.82,10.91,5.73,21.16,10,28.67A14.58,14.58,0,0,0,56.48,104.92Z"/>
            <path class="cls-15" d="M65.34,123a33.69,33.69,0,0,1-29.14,2.91A25.68,25.68,0,0,0,58,100.65a15.81,15.81,0,0,0,2.51,2.45A39.8,39.8,0,0,0,62.57,117,32.59,32.59,0,0,0,65.34,123Z"/>
            <path class="cls-16" d="M54.36,103.44c-.65.39-2.57-1.75-3.21-2.46C46.2,95.47,41.52,82.46,36.57,76.5c-8.1-9.76-23.63-8.71-26.41-8.53A38.87,38.87,0,0,0-15.52,80.58,34.15,34.15,0,0,1-12.62,75,35.06,35.06,0,0,1,22.47,60c13.34,2.55,21,13.35,22,14.78C52.2,85.68,50.14,95.93,54.36,103.44Z"/>
            <path class="cls-17" d="M54.36,103.44c-.65.39-2.57-1.75-3.21-2.46C46.2,95.47,41.52,82.46,36.57,76.5c-8.1-9.76-23.63-8.71-26.41-8.53A38.87,38.87,0,0,0-15.52,80.58"/>
            <path class="cls-18" d="M170.06,103.29c-.64,1.1-1.44,2.32-2.42,3.78-2,.5-9.72,2-11-2.51h0c3.68-2,2.09-5.1.6-6.48l-.16-.14a2.28,2.28,0,0,0-1.13-.65c-.56-.09-1.12-.15-1.67-.19a44.36,44.36,0,0,1,8.3-.36c-.15.66-.24,1.55.26,1.93C163.67,99.27,169.29,100.24,170.06,103.29Z"/>
            <path class="cls-14" d="M140.33,74.23c.17-.34,4.61-11.09,10-9.46,2.15,1.35-1.55,8.83-1.55,8.83Z"/>
            <path class="cls-19" d="M171.69,98.42a11.09,11.09,0,0,0-2,.13,18.13,18.13,0,0,0-6.7-1.77l-.58,0h0a42.5,42.5,0,0,0-8.24.37h0a16.55,16.55,0,0,0-2.73.06A9.2,9.2,0,0,0,156.28,90c.45-5.37-4.23-10-9.45-10.17s-10.23,4-10.2,9.4c0,5,4.51,9,9.29,9.27-.58.21-1.15.45-1.71.69l-.22.1a37.54,37.54,0,0,0-8.25,5.12l-.09.07c-1-1.45-2-2.9-3-4.28-7.33,1.72-6.79,9.07-6.75,9.39-7.52-2-3.83-12.17-3.6-12.51-1.72.58-2.92,3.77-3.36,3.77s-.94-3.14,1.69-6.13A14.35,14.35,0,0,0,123.37,92h0a19.74,19.74,0,0,0,3.26-8,3.18,3.18,0,0,1,.88-1.3c1.11-1.13,3.29-2.65,7-5.85l.32-.26a15.51,15.51,0,0,1,5.38-2.44,42.75,42.75,0,0,1,8.67-1.29,20.91,20.91,0,0,1,4.67.08c.07.26-1.85,2.25-1.42,2.69s9.55,1.9,15,9.48C169.82,88.67,172.42,93.61,171.69,98.42Z"/>
            <path class="cls-14" d="M144.08,117.66a.06.06,0,0,0,0,0c-.34-1.32-3.93-7-7.87-12.68l0,0-.2-.28-.08-.12c-1-1.41-2-2.82-2.92-4.16a2.53,2.53,0,0,0-.74-.19c-2.57-.29-4.8,3.64-5.46,4.79a6.29,6.29,0,0,0-.9,2.64,5.88,5.88,0,0,0,.1,1.67,5.17,5.17,0,0,1-2.81-1.25c-2.86-2.63-1.33-8.38-1-9.52.14-.53.28-1,.39-1.26,0-.06.11-.27,0-.33s-.15,0-.21,0a6.52,6.52,0,0,0-1.68,1.28,5.72,5.72,0,0,0-1.42,2.25c0,.08,0,.5-.13.51h0a6.54,6.54,0,0,1-.12-2.16,6.9,6.9,0,0,1,1.88-3.88A13.42,13.42,0,0,0,123,93c.24-.28.47-.55.67-.81a.22.22,0,0,0-.14,0l-.08,0-.63.17a22.82,22.82,0,0,1-7.72.38,5,5,0,0,1-1.42-.36l-.15-.06C108.2,90,102.48,79.6,93,75.58l-.42-.17c-.38-.15-.76-.29-1.15-.42a20.54,20.54,0,0,0-5-1h-.09a39.13,39.13,0,0,0-7.65.77C63.28,78.65,57.43,88,57.43,88a26.8,26.8,0,0,0-3.88,11.84,34.91,34.91,0,0,0,1.39,14.66s2.74,8.59,9,14.43l.21.2a21.4,21.4,0,0,0,6.41,4.33A4.87,4.87,0,0,1,72.67,135a5.36,5.36,0,0,0-.59.38c-3.55,2.48-5.77,7.74-3.64,9.12a1.42,1.42,0,0,0,.41.2,4,4,0,0,0,2.25,0c6.34-1.56,26.48-.83,26.48-.83a7.66,7.66,0,0,0,1.37-.57c3.26-1.82-1-4.3-5.26-6.06l-.72-.29-.32-.13c-1.45-.56-2.81-1-3.78-1.33l-.18-.06A34.19,34.19,0,0,0,100.51,132v.14c.15,6,0,5.27.16,6s1,4.11,4.14,5.4l.22.09a6.41,6.41,0,0,0,1.55.36,66,66,0,0,0,9.2.12c1.71-.07,2.94-.14,3.14-.12s.3-.4.2-1.14c-.31-2.29-3-4.29-5.62-5a8.71,8.71,0,0,0-2.49-.27h0a.11.11,0,0,0,0,0,19.77,19.77,0,0,1,.88-6.08c.41.09.83.17,1.24.23l.22,0a25.16,25.16,0,0,0,3.31.27c.4,0,.8,0,1.19,0a27.86,27.86,0,0,0,5.36-.67l.1,0c7.4-1.68,12.82-5.91,13.68-7.72a5.36,5.36,0,0,1,.73-1.12c1.82-2.23,5.46-4.09,6.35-4.61h0C144.12,117.84,144.11,117.74,144.08,117.66Z"/>
            <path class="cls-20" d="M126.61,142.71a17.13,17.13,0,0,1-2.72.08c-1.73,0-3.86,0-5-.07-.21-1.41-1.46-3.76-5.78-4.83v-6.27a27.19,27.19,0,0,0,10-.43c-1,1.43-2.31,3.94-1.89,6.41C121.27,137.52,126.45,138.2,126.61,142.71Z"/>
            <path class="cls-18" d="M160.55,113a6.71,6.71,0,0,1-1.53,3.21,7.48,7.48,0,0,1-3.5,2.09c-1.73.6-4.37,1.52-6,.13a3.31,3.31,0,0,1-1-1.49h-.09c0-2.22,0-9.9,1.11-10.42,0,.4-.05.88-.05,1.41,0,3.22.57,8.21,4.46,7.68a6.2,6.2,0,0,0,2.68-.9,2.86,2.86,0,0,0,1-1v0a2.91,2.91,0,0,0,.28-.66h.86C159.37,113,160,113,160.55,113Z"/>
            <line class="cls-21" x1="123.41" y1="91.97" x2="123.41" y2="91.97"/>
            <path class="cls-22" d="M170.32,103.86a7.89,7.89,0,0,0-1.34,1.19,8.18,8.18,0,0,0-1.34,2c-2,.5-9.72,2-11-2.51h0c3.68-2,2.09-5.1.6-6.48l-.16-.14a2.28,2.28,0,0,0-1.13-.65c-.56-.09-1.12-.15-1.67-.19a44.36,44.36,0,0,1,8.3-.36,26.82,26.82,0,0,1,3.55.55c1.75.38,2,.6,3.58.93,2.66.55,3.42.22,3.71.78C174,100.07,171.92,102.65,170.32,103.86Z"/>
            <path class="cls-23" d="M168,107a2.85,2.85,0,0,1-.48.14c1-1.47,1.78-2.7,2.42-3.81,0,.08,0,.18.06.28a2.36,2.36,0,0,1,0,.36h0a21.22,21.22,0,0,0,2.1-2.62A11.71,11.71,0,0,0,173.33,99a1.24,1.24,0,0,1,.62.2,1.83,1.83,0,0,1,.66,1.2,4.68,4.68,0,0,1,.11,1.6,6.33,6.33,0,0,1-1.05,2.8,5.29,5.29,0,0,1-2.49,2.12A5,5,0,0,1,168,107Z"/>
            <path class="cls-24" d="M160.72,112.93s0,0,0,.08"/>
            <path class="cls-25" d="M167.55,107.06l-.33.51a27.13,27.13,0,0,1-3.16,3.67,7.43,7.43,0,0,1-2.07,1.53q-.75.08-1.56.12c-.58,0-1.19.06-1.81.07h-.86c-1.23,0-2.38-.07-3.44-.17a17.66,17.66,0,0,0,.91-4.84,17.08,17.08,0,0,0-.15-3.31.25.25,0,0,0,0-.08,11.41,11.41,0,0,1,1.41-.1l.07,0h0l0,.1C157.83,109,165.54,107.58,167.55,107.06Z"/>
            <path class="cls-25" d="M149,83.65h-.27c-3.45,0-6.68,2.81-6.65,6.33a6.63,6.63,0,0,0,6.31,6.25H149a6.6,6.6,0,0,0,6.42-5.73C155.75,86.89,152.58,83.79,149,83.65Zm-3.62,7.84a4.22,4.22,0,1,1,8.38.32,4.19,4.19,0,1,1-8.38-.32Z"/>
            <path class="cls-26" d="M149.78,87a4.46,4.46,0,0,0-4.37,4.51,4.19,4.19,0,1,0,8.38.32A4.45,4.45,0,0,0,149.78,87Zm1.67,4.27a1.46,1.46,0,0,1-1.31-1.47,1.4,1.4,0,1,1,1.31,1.47Z"/>
            <path class="cls-27" d="M152.93,89.9a1.4,1.4,0,1,1-2.79-.11,1.4,1.4,0,1,1,2.79.11Z"/>
            <path class="cls-28" d="M122.84,142.83a5.15,5.15,0,0,0-2.86-4.68,6,6,0,0,1,2.55,1.69,5.73,5.73,0,0,1,1.3,2.91l-1,.08Z"/>
            <path class="cls-29" d="M157.6,112.7a18.8,18.8,0,0,0,4.18-5.1,19.07,19.07,0,0,1-3.66,5.64l-.52-.54Z"/>
            <path class="cls-14" d="M129.86,84.54c0-.12-11.36-6.19-.83-19.75,1.87-2,4.49-.35,5.82,2.85s-.11,11.18-.52,12Z"/>
            <path class="cls-30" d="M131.15,64.79c-8.21,10.56-3.1,16.58-.47,18.77l-.9,1c.05-.13-11.36-6.19-.83-19.75a2.41,2.41,0,0,1,3-.6A2.91,2.91,0,0,0,131.15,64.79Z"/>
            <path class="cls-28" d="M144.12,118.1a21.47,21.47,0,0,1-12-3.42,21,21,0,0,0,11.93,2.42l0,1Z"/>
            <g>
              <path class="cls-31" d="M155.41,106c-4.17.55-5.18,4.66-5.45,6.33a19.44,19.44,0,0,1-.49-5.8,19,19,0,0,1,5.79-2C155.33,105,155.38,105.48,155.41,106Z"/>
              <path class="cls-32" d="M158,113a2.91,2.91,0,0,1-1.23,1.71,6.55,6.55,0,0,1-2.71.93c-2.16.31-3.33-1-3.94-2.89,0-.14-.1-.29-.14-.44.27-1.67,1.28-5.78,5.45-6.33l0,.59c0,.44,0,.9,0,1.37a18.06,18.06,0,0,1-.93,4.9C155.57,113,156.74,113,158,113Z"/>
              <path class="cls-33" d="M158.05,113a3,3,0,0,1-1.24,1.7,6.5,6.5,0,0,1-2.7.93,3.14,3.14,0,0,1-3.38-1.63h0s1.28-4.66,4.5-3.75a17.66,17.66,0,0,1-.67,2.58C155.64,112.9,156.8,113,158.05,113Z"/>
            </g>
            <path class="cls-34" d="M123.41,92l-.11.13c-.19.26-.41.51-.64.77a15.48,15.48,0,0,1-2,1.84c-2.58,2.9-2.18,5.94-1.74,6.12h0c.48-.21,1.65-3.2,3.31-3.76a.15.15,0,0,1,0,.06l0,0,.11,0c-.17.24-2,5.32-.54,9a1.21,1.21,0,0,0,0,.14l-.08.26s-11.07,1.59-13.9-4.41c-6.19-26.48-37-22.27-37-22.27a13.79,13.79,0,0,0-3.5.15c-.36.06-.71.14-1,.22l.42-.34A34.45,34.45,0,0,1,70.12,78c.75-.36,1.38-.62,2.62-1.13a37.8,37.8,0,0,1,4.75-1.71c.16,0,.77-.21,1.58-.38a28.94,28.94,0,0,1,5.45-.63c.92,0,1.6,0,2.09,0a23,23,0,0,1,4.48.68l.57.19.73.28.42.17c9.49,4,15.2,14.45,20.52,16.71l.16.07a5.23,5.23,0,0,0,1.41.36,22.83,22.83,0,0,0,7.73-.39c.32-.07.62-.16.62-.16Z"/>
            <path class="cls-35" d="M113.48,127s9.08.64,14.25-4.17,9.75-1.67,9.45-.52-3.5,7-14.06,8.86c-7.87,1.38-10.05.41-11.43,0"/>
            <path class="cls-35" d="M100.16,127.17s-7,3.34-12.57,3.74A54,54,0,0,1,84,135.18s4.31.11,4.74.06,9.9-2.16,11.55-3.55C100.27,131.8,100.15,127.82,100.16,127.17Z"/>
            <ellipse class="cls-36" cx="160.35" cy="100.2" rx="0.33" ry="0.42"/>
            <ellipse class="cls-36" cx="160.89" cy="102.55" rx="0.42" ry="0.33" transform="translate(27.44 238.9) rotate(-78.13)"/>
            <ellipse class="cls-36" cx="159.71" cy="104.55" rx="0.42" ry="0.33" transform="translate(24.53 239.33) rotate(-78.13)"/>
            <path class="cls-37" d="M171.44,98.19h-.09A12.39,12.39,0,0,1,167,95.84c-3.22-2.74-3.09-5.71-7-10.92A28.65,28.65,0,0,0,155,79.51c-6.94-5-17.91-.9-21.25.48l.68-1.07c.09-.36.17-.72.25-1.09s.15-.71.22-1.06a8.54,8.54,0,0,1,1-.8A9.94,9.94,0,0,1,140,74.36h0a6.93,6.93,0,0,0,.7-.16c.79-.17,1.66-.32,2.65-.47.75-.11,1.54-.22,2.35-.31s1.83-.18,2.68-.24,1.49-.11,2.31-.13,1.71,0,2.47.06a13.1,13.1,0,0,0-1.06,1.73,1.12,1.12,0,0,0-.11.48,1.07,1.07,0,0,0,.06.27c.17.48,2.23,1,2.75,1.12l2.26.9a24.47,24.47,0,0,1,9.81,7.06l.12.16C169.58,88.46,172.17,93.39,171.44,98.19Z"/>
            <path class="cls-38" d="M171.29,98.19h-.09a12.2,12.2,0,0,1-4.31-2.35c-3.22-2.74-3.09-5.71-7-10.92a28,28,0,0,0-5.08-5.41c-6.94-5-17.9-.9-21.24.48l.68-1.07.24-1.09c.08-.36.15-.71.22-1.06a10.61,10.61,0,0,1,1-.8,10,10,0,0,1,4.12-1.61h0a7.1,7.1,0,0,0,.71-.16c.78-.17,1.66-.32,2.65-.47.75-.11,1.54-.22,2.35-.31s1.82-.18,2.68-.24,1.49-.11,2.31-.13,1.7,0,2.46.06a14.35,14.35,0,0,0-1.06,1.73,1,1,0,0,0-.1.48.85.85,0,0,0,.05.27c.17.48,2.23,1,2.75,1.12l2.27.9a24.48,24.48,0,0,1,9.8,7.06l.13.16C169.42,88.46,172,93.39,171.29,98.19Z"/>
            <path class="cls-15" d="M69.14,144.79a2.89,2.89,0,0,1-1.37-1h0c-1-1.92,1-6.24,4.11-8.41.19-.14.38-.26.57-.38a4.74,4.74,0,0,0-2.08-1.44A21.12,21.12,0,0,1,64,129.17l-.13-.13c-8.18-8-10-19.87-10-19.87a29.06,29.06,0,0,1,1.15-15.7,23.85,23.85,0,0,1,4.62-7.84,23.36,23.36,0,0,1,7-5.33C57,99.46,62.14,118.09,72.4,123.17c8.22,4.06,18.44-1.2,20.73-2.44A41.05,41.05,0,0,1,90,127.67a40.52,40.52,0,0,1-5.87,7.9c4.29,3,6.24,3.75,7.19,3.82a10.39,10.39,0,0,1,1.57.2,12.39,12.39,0,0,1,2,.6c1.35.55,4,2.11,3.81,3.05s-3.28.84-7.61,1.14C91.08,144.38,71.8,145.75,69.14,144.79Z"/>
            <ellipse class="cls-36" cx="172.47" cy="101.64" rx="0.2" ry="0.25"/>
            <ellipse class="cls-36" cx="172.17" cy="103.05" rx="0.2" ry="0.25" transform="translate(-17.52 37.63) rotate(-11.87)"/>
            <ellipse class="cls-36" cx="172.93" cy="104.17" rx="0.2" ry="0.25" transform="translate(-17.73 37.81) rotate(-11.87)"/>
            <path class="cls-28" d="M132.79,100.19a8.72,8.72,0,0,0-6.33,10,6.61,6.61,0,0,1-5.58-5.73A14.46,14.46,0,0,1,122,96.8l.54.72c-1.13.38-2,2-2.74,3.06-.19.24-.33.53-.69.63s-.7-.42-.72-.59a7.15,7.15,0,0,1,2.15-6.05c.89-.73,1.77-1.49,2.59-2.3a4.74,4.74,0,0,0,.73-.88,17.66,17.66,0,0,1-3,3.46c-1.21,1.52-2.19,3.6-1.73,5.54,0,.08.12.18,0,.08a.43.43,0,0,0-.17,0s-.11.06-.08,0c.38-.49.66-1.08,1-1.62a5.28,5.28,0,0,1,2.34-2.23l.7-.28-.17,1c-1.55,4.05-1.88,10.49,3.35,11.82l-.53.46c-.3-4.46,2.7-8.83,7.23-9.44Z"/>
            <path class="cls-28" d="M130.43,83.44a.5.5,0,0,0,.13.48l-.19-.16c-6-4.8-4.36-12.75-.29-18.23,1-1.34,2.74-.91,3.64.31a6,6,0,0,1,1.42,3.69,51.51,51.51,0,0,1-.65,7.84,51.24,51.24,0,0,0,.41-7.83,5.81,5.81,0,0,0-1.45-3.47c-.77-1-2.2-1.41-3-.25C126.82,71,125.18,78.65,131,83l.28.23a.52.52,0,0,1,.12.49l-1-.27Z"/>
            <path class="cls-28" d="M111.21,131.22a23.82,23.82,0,0,1,6.61-10,23.32,23.32,0,0,0-5.65,10.26l-1-.28Z"/>
            <path class="cls-28" d="M105.71,115.9c-5.24,4.62-4.61,12.62-5.09,19l-.37-2.56c-.51-5.56-.08-13.5,5.46-16.46Z"/>
            <path class="cls-28" d="M89.8,103.59c5.13,4.78,5.76,12.82,3.26,19.11a35.77,35.77,0,0,1-5.91,9.61c-1.05,1.09-2.06,2.19-3.12,3.25.89-1.21,1.83-2.37,2.73-3.55,6.14-8.28,10.18-19.44,3-28.42Z"/>
            <path class="cls-28" d="M10.43,114.65c-7.79.23-15.95-4.56-18.13-12.35-2.17-7.61.28-16.56,6.61-21.48C8.16,73.08,23.82,75.08,30.72,85c6.09,8.6,5.14,20.33,11.48,28.74a16.26,16.26,0,0,0,9.73,5.82,16.22,16.22,0,0,1-10-5.58C35.3,105.71,36.05,94,30,85.5c-6.66-9.4-21.62-11.27-30.51-4a19.14,19.14,0,0,0-7.06,13c-1.66,11.2,7,19.91,18,20.1Z"/>
            <path class="cls-28" d="M63.06,124.33c-11.58,5.91-29.46,6.2-36.06-7a20.23,20.23,0,0,1-2-10,12.3,12.3,0,0,0-3.94-8.56c-5.9-6-20.81-4-17.86,6.67,1,4.32,9.17,4.9,9.15-.21-.09-2.5-3.31-3.1-5.07-1.83a4,4,0,0,1,3.21-.66c2.57.56,2.76,4.14.83,5.58a6,6,0,0,1-6.61.1c-3-2.09-3.18-6.54-1.56-9.56,3.71-6,13.9-5.34,18.56-.79A13,13,0,0,1,26,107.33a19.36,19.36,0,0,0,1.85,9.57c6.41,12.89,23.72,12.64,35.25,7.43Z"/>
            <path class="cls-28" d="M115.18,144.1a.82.82,0,0,1-.07-.45c.11-2.44-2.71-3.39-4.69-3.84,2.25.16,5.24.92,5.63,3.56l0,.24s.06.24,0,0l-.87.48Z"/>
            <path class="cls-28" d="M98.48,143.26A10.2,10.2,0,0,0,91,138.94,11.14,11.14,0,0,1,97.56,141a8.8,8.8,0,0,1,1.74,1.66l-.82.57Z"/>
            <path class="cls-30" d="M150.13,65.62c-4.44-1.41-8.21,6.72-9.14,8.87l-.62.05c.16-.34,4.33-11,9.37-9.37A1.31,1.31,0,0,1,150.13,65.62Z"/>
            <path class="cls-39" d="M147,79.82h-.46a10.09,10.09,0,0,0-9.74,7.68c0,.08,0,.16-.05.23,0,.24-.07.47-.09.71s0,.52,0,.78a5.37,5.37,0,0,0,0,.7c0,.16,0,.31.05.46l0,.23c.75,4.29,4.77,7.51,9.08,7.86l.23,0h0a23.27,23.27,0,0,1,5.62-1.32h0l.05,0,.08,0A9.17,9.17,0,0,0,156.6,90C157.05,84.62,152.3,80,147,79.82ZM142,90c0-3.54,3.27-6.35,6.77-6.33H149c3.57.14,6.77,3.24,6.46,6.85-.27,3.26-3.28,5.58-6.41,5.73h-.67C145.09,96,142,93.38,142,90Z"/>
            <path class="cls-14" d="M156.75,104.64h0l-.07,0a8.3,8.3,0,0,0-1.4.09h0a18.39,18.39,0,0,0-5.71,1.9c-1.12.52-1.13,8.2-1.11,10.42l-.6.1a30,30,0,0,1-4,.43h-.11c.07-.41-1-2.38-2.65-5.08l-.2-.33c-1.41-2.29-3.21-5-5.07-7.82l-.05-.07a38.59,38.59,0,0,1,8.37-5l.22-.1c.59-.25,1.21-.49,1.83-.71h0a23.43,23.43,0,0,1,5.59-1.26h0a16.5,16.5,0,0,1,4.43.18,2.16,2.16,0,0,1,1,.56l.16.15C158.83,99.48,160.42,102.61,156.75,104.64Z"/>
            <g>
              <path class="cls-4" d="M160.31,100.69c-6.45-3.51-14.08-4.16-21.27-3.14A41.82,41.82,0,0,1,150,96.91a29.73,29.73,0,0,1,10.5,2.78l0,0-.21,1Z"/>
              <path class="cls-4" d="M160.83,103.07c-5.6-3.06-12.22-3.66-18.48-2.79a31.65,31.65,0,0,1,16.58.91,20.17,20.17,0,0,1,2.09.89h0l-.21,1Z"/>
              <path class="cls-4" d="M159.57,105c-4.9-2.69-10.69-3.25-16.17-2.5a27,27,0,0,1,15.53,1.13c.22.1.64.28.85.39,0,0-.21,1-.21,1Z"/>
            </g>
            <path class="cls-17" d="M113.12,131.74a27.24,27.24,0,0,0,10.15-.51"/>
            <path class="cls-17" d="M60.86,125.35a34.88,34.88,0,0,1-5.2-9.35,35.83,35.83,0,0,1-2.3-14.18l.24-3.2"/>
            <path class="cls-17" d="M113.23,131.76v6.15l-.08,0h-.08a16.2,16.2,0,0,0-2.24-.39h0v-.05a20,20,0,0,1,.87-6.08l.14,0,.65.12C112.89,131.63,113.23,131.76,113.23,131.76Z"/>
            <path class="cls-40" d="M142.11,73.56c.12-.25,3.27-7.87,7.07-6.72,1.53,1-1.1,6.26-1.1,6.26Z"/>
            <path class="cls-1" d="M141.88,73.56c.12-.25,3.27-7.87,7.08-6.72,1.52,1-1.1,6.26-1.1,6.26Z"/>
            <path class="cls-17" d="M139.87,74.23a64.69,64.69,0,0,1,9.38-1.35"/>
            <path class="cls-40" d="M130.84,80.82c0-.08-7.26-4-.53-12.62C131.5,66.94,133.18,68,134,70s-.07,7.14-.33,7.66Z"/>
            <path class="cls-1" d="M130.82,81.13c0-.09-7.26-4-.53-12.62,1.19-1.27,2.86-.22,3.71,1.82s-.07,7.14-.33,7.66Z"/>
            <path class="cls-41" d="M174.71,100.34a1.85,1.85,0,0,0-.66-1.21,1.52,1.52,0,0,0-.62-.2h0l.06-.24a3,3,0,0,0-1-.34,4.17,4.17,0,0,0-.59-.08h-.13c.7-4.78-1.89-9.7-4.5-13.29-5.49-7.59-14.61-9-15-9.48a.28.28,0,0,1,0-.26,4.54,4.54,0,0,1,.5-1c.44-.64,1-1.31,1-1.46a21,21,0,0,0-4.44-.08c.87-2,2.89-7,1.18-8a3.9,3.9,0,0,0-2.32,0c-4.08.94-7.29,8.05-7.85,9.33a15.85,15.85,0,0,0-5.12,2.3,35.31,35.31,0,0,0,.38-4.15,12.17,12.17,0,0,0-.55-4.63c-.94-2.26-2.52-3.73-4-3.71a2.43,2.43,0,0,0-1.88.85c-7.26,9.35-4.1,15.13-1.45,17.87a3.29,3.29,0,0,0-.87,1.29,19.71,19.71,0,0,1-3.26,8h0l0,0s0-.06-.06-.06l-.08,0c-.2.06-.4.12-.62.17a22.71,22.71,0,0,1-7.7.38,4.88,4.88,0,0,1-1.4-.35l-.16-.07c-5.3-2.26-11-12.7-20.44-16.72l-.41-.16c-.38-.16-.76-.3-1.15-.43a20.39,20.39,0,0,0-4.94-1H86.4a39.85,39.85,0,0,0-7.62.77C62.39,78.62,56.71,89.14,56.71,89.14a26.47,26.47,0,0,0-2.9,9.28h0c-.05.33-.1.65-.14,1-2.4-7.07-1.82-15.95-8.53-25.33-1-1.43-8.76-12.22-22.26-14.77C10,56.85-4.87,62.53-12.6,74.31a33.83,33.83,0,0,0-2.93,5.55c-6,14.55-2.37,33,8.47,39.44,6.23,3.7,15.86,4.06,22.62-.45a20.43,20.43,0,0,0,3.86-3.23c.41-.47,4.33-5.36,3.22-11.62-.53-3-2.1-5.68-3.23-6.56-.09-.07-.68-.52-.64-.57a6.1,6.1,0,0,1,1.32.72,10.24,10.24,0,0,1,3,3.12,12.9,12.9,0,0,1,1.71,4.12,15.18,15.18,0,0,1,.41,2.28,16.42,16.42,0,0,1,.08,2.53,17.74,17.74,0,0,0,1.73,7,19,19,0,0,0,3.39,5.11,19.47,19.47,0,0,0,5.8,4.11,20.45,20.45,0,0,0,3.31,1.21,25.78,25.78,0,0,0,7.21.71,37,37,0,0,0,5.54-.27A33.46,33.46,0,0,0,58,126.25c1-.3,1.93-.63,2.8-1,.05.06.09.12.14.17A28,28,0,0,0,64,129l.12.13a21.24,21.24,0,0,0,6.35,4.38,4.69,4.69,0,0,1,1.9,1.24l-.33.23a11.22,11.22,0,0,0-4.2,6.12,3.69,3.69,0,0,0,0,2.64h0l.25.27a1.74,1.74,0,0,0,.42.39,1.35,1.35,0,0,0,.36.18l.33.15a11,11,0,0,0,6.24.42c2.07-.26.76.16,6.24-.05,6.36-.25,13-1,16-1.37.25-.08.45-.17.6-.22a1.18,1.18,0,0,0,.28-.12,4.48,4.48,0,0,0,.49-.23c1.27-.71,1.39-1.52.82-2.35-.75-1.36-3.47-2.79-6.18-3.92l-.71-.29-.32-.12c-1.29-.51-2.51-.94-3.44-1.24h0A34.38,34.38,0,0,0,100.49,132c.13,5.85,0,5.14.15,5.92a9,9,0,0,0,1.27,3,6.5,6.5,0,0,0,3,2.6l.22.09a6.61,6.61,0,0,0,1.56.36,69.23,69.23,0,0,0,9.2.12c1.71-.07,2.94-.14,3.14-.12s.3-.45.2-1.14a.15.15,0,0,1,0-.07c.58,0,3.28.06,4.82.07a16.79,16.79,0,0,0,2.7-.08,5.59,5.59,0,0,0-.18-1.21c-.85-3.32-4.76-4-5.18-4a9.71,9.71,0,0,1,.24-2.74,9.58,9.58,0,0,1,1.56-3.47l.13,0,.1,0a33,33,0,0,0,4-1.22,20.75,20.75,0,0,0,5.71-2.89,12,12,0,0,0,3.93-3.62,5.58,5.58,0,0,1,.73-1.11c1.82-2.23,5.46-4.09,6.35-4.61h0c.05,0,0-.14,0-.22a.06.06,0,0,0,0,0h0a29.78,29.78,0,0,0,3.75-.43l.6-.09v-.08l0,0a12.34,12.34,0,0,0,1,1.49c1.63,1.39,4.26.47,6-.13a9,9,0,0,0,2.67-1.32,6.07,6.07,0,0,0,.93-.85,6.69,6.69,0,0,0,1.52-3.14c.26,0,1-.15,1.32-.18a7.62,7.62,0,0,0,.76-.44,7.43,7.43,0,0,0,1.44-1.18,26.4,26.4,0,0,0,3.16-3.67l.27-.41h.07v0l.14,0,.19,0a6,6,0,0,0,3.14-.08,4,4,0,0,0,.51-.24,5.39,5.39,0,0,0,2.14-2,6.22,6.22,0,0,0,1-2.8A4.92,4.92,0,0,0,174.71,100.34Z"/>
            <g>
              <path class="cls-42" d="M166.94,105.87c-.67-.1-1.33-1.24-2.55-2.62-1.41-1.61-2.55-2-3.23-2.94-.75-1.08,2.85-3,6.32-2.88,3.28.12,4.79,1.23,4.53,2.5S169.14,106,166.94,105.87Z"/>
              <path class="cls-43" d="M171.05,99c-2.5-1.36-6.09-1.12-8.78-.37a10.19,10.19,0,0,1,5.21-1.23c3.28.12,4.79,1.23,4.53,2.5a10.09,10.09,0,0,1-.68,1.28C171.62,100.07,171.57,99.38,171.05,99Z"/>
              <path class="cls-44" d="M162.29,98.65c-.72,1.3,2.08,2,3.2,3.17.86.84,1.25,2.49,2.22,2.59,1.39,0,2.71-2.23,4.17-4-.62,1.68-2.95,5.63-4.94,5.49-.67-.1-1.33-1.24-2.55-2.62-1.41-1.61-2.55-2-3.23-2.94C160.83,99.84,161.33,99.21,162.29,98.65Z"/>
              <path class="cls-45" d="M161.13,99.68a.39.39,0,0,0,0,.42,6.3,6.3,0,0,0,1.24,1.13,13.93,13.93,0,0,1,2.13,1.92c.39.45.73.87,1,1.24.61.76,1.09,1.37,1.46,1.42h.09c2.11,0,4.71-4.79,5-6a1.2,1.2,0,0,0-.25-1c-.61-.77-2.16-1.26-4.26-1.35h-.35C164.23,97.48,161.59,98.81,161.13,99.68Z"/>
            </g>
            <path class="cls-46" d="M174.74,101.94s0,0,0-.07a3.73,3.73,0,0,0,0-.58s2-1.37-.07-.68c0-.11,0-.23-.07-.35a1.79,1.79,0,0,0-.66-1.21,1.21,1.21,0,0,0-.61-.2h0c0-.08,0-.16,0-.23a2.85,2.85,0,0,0-1-.35,4.11,4.11,0,0,0-.6-.08h-.13c.7-4.82-1.89-9.77-4.51-13.4-5.5-7.64-14.63-9.11-15.06-9.55a.28.28,0,0,1,0-.26,4.59,4.59,0,0,1,.5-1,7.11,7.11,0,0,0,1-1.47,21.26,21.26,0,0,0-4.46-.08c.88-2,2.9-7,1.18-8.09a3.79,3.79,0,0,0-2.31,0c-4.1.94-7.31,8.11-7.87,9.4a21.74,21.74,0,0,0-3,1.11,6,6,0,0,0-.67.34,11,11,0,0,0-1.42.87,35.82,35.82,0,0,0,.38-4.19,12.33,12.33,0,0,0-.55-4.66c-.94-2.27-2.52-3.76-4-3.74a2.31,2.31,0,0,0-1.56.57,3,3,0,0,0-.43.38c-7.27,9.41-4.11,15.24-1.45,18a3.21,3.21,0,0,0-.87,1.3,20.1,20.1,0,0,1-3.21,8l0,0-.09,0c-.2.06-.4.12-.62.17a22.7,22.7,0,0,1-7.71.39,5.32,5.32,0,0,1-1.41-.36l-.15-.07c-5.31-2.28-11-12.8-20.48-16.85l-.41-.17c-.38-.15-.76-.29-1.16-.42a20.33,20.33,0,0,0-4.94-1h-.09a40,40,0,0,0-7.63.77c-10.71,2.73-16.83,8.17-19.81,11.64a17.62,17.62,0,0,0-1.56,2A13.31,13.31,0,0,0,56.45,89a25.69,25.69,0,0,0-1.84,4.42,28.42,28.42,0,0,0-1.11,4.71c0,.22-.07.44-.1.65l-.07-.23,0,.45C51,91.9,51.48,83.08,44.86,73.77c-1-1.44-8.77-12.32-22.29-14.89A35.77,35.77,0,0,0-6,66.38a33.27,33.27,0,0,0-7,7.73A33.6,33.6,0,0,0-16,79.71c-6.06,14.66-2.37,33.25,8.49,39.74,6.23,3.73,16.29,4.58,23.06,0a20.73,20.73,0,0,0,2.26-1.7C18.32,117.34,25,112.7,22,100c4.52,5.33,2,10.13,4.72,16.65l0,0c.11.26.23.49.35.73a16.24,16.24,0,0,0,8.53,8.4l.32.16a19.87,19.87,0,0,0,3.32,1.22,17.85,17.85,0,0,0,3.55.61c1.33.14,2.58.18,3.75.19h1a33.92,33.92,0,0,0,4.4-.27,33.19,33.19,0,0,0,5.53-1.24c1.06-.32,2.06-.67,3-1l.25.32a28.39,28.39,0,0,0,3,3.4l.13.13a21,21,0,0,0,6.36,4.41A4.85,4.85,0,0,1,72,135l-.22.15A11.71,11.71,0,0,0,68,140c-.73,1.57-1,3.1-.49,4h0a2.09,2.09,0,0,0,.31.36l0,0h0a1.58,1.58,0,0,0,.34.29,1.42,1.42,0,0,0,.41.2h0c.09,0,.16.09.26.13a4.06,4.06,0,0,0,.78.17,12,12,0,0,0,5.56.16h0l1.87,0a41.26,41.26,0,0,0,4.38,0c3.62-.15,7.32-.45,10.39-.76,3.57-.22,6.09-.22,6.53-1l.35-.17a4,4,0,0,0,.57-.4,1.35,1.35,0,0,0,.35-2c-.74-1.36-3.48-2.81-6.19-4l-.71-.29-.32-.13c-1.24-.49-2.41-.9-3.33-1.2a34.3,34.3,0,0,0,11.16-3.29c0,.27,0,.54,0,.82.09,4.25,0,4.43.08,4.85a3.17,3.17,0,0,0,.08.55c.15.69,1,4.14,4.15,5.44l.22.09a6.4,6.4,0,0,0,1.55.37,67.89,67.89,0,0,0,9.22.12c1.71-.07,2.94-.14,3.15-.12,0,0,.07,0,.1-.09s.29-.46.19-1.14c0,0,0-.05,0-.07,1,0,2.65.05,4.13.06h1.2a11.58,11.58,0,0,0,2.21-.09,5.19,5.19,0,0,0-.19-1.22c-.85-3.33-4.76-4-5.19-4a10.29,10.29,0,0,1,.24-2.76,10.08,10.08,0,0,1,1.52-3.43h.09l.09,0a31.14,31.14,0,0,0,4.22-1.31,20.57,20.57,0,0,0,5.63-2.89c.54-.36,1-.72,1.46-1.06l0,0c.15-.12.3-.25.45-.36a8.17,8.17,0,0,0,2-2.23,5.69,5.69,0,0,1,.73-1.13,11.57,11.57,0,0,1,1.58-1.54,33.77,33.77,0,0,1,4.68-3l0,0s0,0,0,0l.07,0h0s0-.12,0-.2a32.1,32.1,0,0,0,3.64-.42l.6-.09v-.07l.1,0V117l0,0a3.13,3.13,0,0,0,3.16,2.22,11.74,11.74,0,0,0,3.84-.87l.63-.23.07,0a9.15,9.15,0,0,0,1.31-.62h0a7.09,7.09,0,0,0,1.58-1.31,6.74,6.74,0,0,0,1.52-3.16c.25,0,.89-.13,1.27-.17h.08a6.53,6.53,0,0,0,1.44-1,8.89,8.89,0,0,0,.74-.68,27.1,27.1,0,0,0,3.16-3.69l.27-.41h0l-.06.09.46-.13.19,0a4.85,4.85,0,0,0,3-.14,4.15,4.15,0,0,0,1.14-.65,3.37,3.37,0,0,0,.35-.29l.17-.15a7.07,7.07,0,0,0,.93-1.13,6.68,6.68,0,0,0,.42-.72s1.77-1,.22-.5a5.36,5.36,0,0,0,.26-.8S176.58,101.42,174.74,101.94Z"/>
            <g>
              <path class="cls-4" d="M172.36,101.16c3.71-1.79,8.42-1.91,12.52-1a19.86,19.86,0,0,0-11.84,1.8,2.56,2.56,0,0,1-.47.23l-.21-1Z"/>
              <path class="cls-4" d="M172.06,102.54a17.67,17.67,0,0,1,10.9-.85,17.19,17.19,0,0,0-10.42,1.71,1.69,1.69,0,0,1-.27.12l-.21-1Z"/>
              <path class="cls-4" d="M172.79,103.69a14.35,14.35,0,0,1,7.15-1.06,21.21,21.21,0,0,1,2.41.37,21.73,21.73,0,0,0-2.41-.12,13.71,13.71,0,0,0-6.68,1.67,1,1,0,0,1-.26.11l-.21-1Z"/>
            </g>
          </g>
        </g>
      </g>
    </g>
  </g>
</svg>
