<svg id="Layer_1" data-name="Layer 1" xmlns="http://www.w3.org/2000/svg" viewBox="0 0 151.06 159.53"><defs><style>.cls-1,.cls-3{fill:#ffd15f;}.cls-2{fill:none;}.cls-2,.cls-3{stroke:#d67d13;}.cls-2,.cls-3,.cls-4,.cls-5,.cls-6{stroke-miterlimit:10;}.cls-4{fill:#c34804;stroke:#7c320d;}.cls-5{fill:#ffe783;}.cls-5,.cls-6{stroke:#7c4c00;}.cls-6{fill:#ffef9f;}.cls-7{fill:#e57d28;}.cls-8{fill:#84083a;}</style></defs><path class="cls-1" d="M55.32,67.49S54.33,59,46.44,65s-20.3,11.42-40.32,4c0,0,.42,4.09,7.47,7.19,0,0-5.92-.43,4.37,6.2,0,0-4.37.71,6.63,6.91,0,0-2.68,3.1,10.15,4.65S57.29,78.2,57.29,78.2L55.88,67.63"/><path class="cls-2" d="M55.32,67.49S54.33,59,46.44,65s-20.3,11.42-40.32,4c0,0,.42,4.09,7.47,7.19,0,0-5.92-.43,4.37,6.2,0,0-4.37.71,6.63,6.91,0,0-2.68,3.1,10.15,4.65S57.29,78.2,57.29,78.2L55.88,67.63"/><path class="cls-1" d="M12.32,75.1s14.8,7.9,34-3.38"/><path class="cls-2" d="M12.32,75.1s14.8,7.9,34-3.38"/><path class="cls-1" d="M16.69,81.73a34.93,34.93,0,0,0,31.16-4.66"/><path class="cls-2" d="M16.69,81.73a34.93,34.93,0,0,0,31.16-4.66"/><path class="cls-1" d="M23.6,88.49s16.77,3.67,25.52-5.92"/><path class="cls-2" d="M23.6,88.49s16.77,3.67,25.52-5.92"/><path class="cls-3" d="M91.69,70.87s1-8.46,8.88-2.54,20.3,11.42,40.32,4c0,0-.42,4.09-7.47,7.19,0,0,5.92-.42-4.37,6.2,0,0,4.37.71-6.63,6.91,0,0,2.68,3.1-10.15,4.65S89.72,81.59,89.72,81.59L91.13,71"/><path class="cls-3" d="M134.69,78.48s-14.8,7.9-34-3.38"/><path class="cls-3" d="M130.32,85.11a34.94,34.94,0,0,1-31.16-4.65"/><path class="cls-3" d="M123.41,91.88S106.63,95.54,97.89,86"/><path class="cls-4" d="M63.64,113l1,4.63a.66.66,0,0,1,0,.46c-.07.14-.3.2-.38.06a70.61,70.61,0,0,1-1,12.15,6.2,6.2,0,0,1-.62,2.07c-.72,1.28-2.2,1.9-3.53,2.53a32.36,32.36,0,0,0-2.9,1.56c-.4.25-.84.59-.81,1.06a1.85,1.85,0,0,0,1.73-.14c1.13-.49,2.23-1,3.3-1.63a2.75,2.75,0,0,1,1.89-.51,2.2,2.2,0,0,1,1.33,1.51,6.13,6.13,0,0,0,.84,1.9.56.56,0,0,0,.41.23.6.6,0,0,0,.57-.66c-.18-.78,0-1.58-.14-2.35.92.41,1.17.67,2.1,1.09a4.9,4.9,0,0,0,3.46.59.58.58,0,0,0,.32-.21c.11-.21,0-.46-.2-.64a10.11,10.11,0,0,0-2.4-2c-.91-.55-2-1-2.4-2a3.86,3.86,0,0,1-.26-.94,25.42,25.42,0,0,1,1.15-13"/><path class="cls-4" d="M82.43,112.18l-.84,4.63a.89.89,0,0,0,0,.46c.07.14.27.19.34.06a80.76,80.76,0,0,0,.82,12.14,6.86,6.86,0,0,0,.53,2.07,6.4,6.4,0,0,0,3,2.53,26,26,0,0,1,2.49,1.57,1.32,1.32,0,0,1,.7,1.05c-.43.34-1,.11-1.49-.13a32,32,0,0,1-2.83-1.64,2.09,2.09,0,0,0-1.63-.5c-.58.17-.93.85-1.14,1.5a6.19,6.19,0,0,1-.72,1.9c-.09.12-.21.25-.35.23a.58.58,0,0,1-.49-.66c.15-.77,0-1.58.12-2.35-.79.41-1,.68-1.8,1.09a3.72,3.72,0,0,1-3,.6.49.49,0,0,1-.27-.22.65.65,0,0,1,.16-.63,9.21,9.21,0,0,1,2.06-2c.78-.55,1.69-1,2.07-2a4.06,4.06,0,0,0,.21-.93,29.26,29.26,0,0,0-1-13"/><path class="cls-5" d="M88.34,61.89h-.11a16.23,16.23,0,0,0,5,8.61,30.34,30.34,0,0,1,6.69,9l-1.34-.21c2,3.25,2.18,8.6,2.18,8.6,1.13,13.32-6.91,21.92-10.5,23.83A14,14,0,0,0,84,118.6c-.84,2-4.58,3.37-5.28,1.05s-1.9-2.61-1.9-2.61L69.48,117a3.07,3.07,0,0,1-3.66,3.39c-3.95-.43-3-5.36-6.7-7.55S47.14,102.1,45.66,93c-1.44-8.87,1.14-13.78,1.26-14l-1.54,1.13c.92-5.15,7.26-10.64,9.8-13.75a17.89,17.89,0,0,0,3.24-7.48"/><path class="cls-6" d="M101.12,45.93,99.3,44.82a5.79,5.79,0,0,1,.85,4.54l-1.43-1.9,0,2.54c-1.34,7.94-9.56,10.75-10.59,11.07h0c-16,5.86-25.6,1.07-30.79-1.92a19.64,19.64,0,0,1-5.08-4.45c-3.73-4.27-3.38-10.08-3.38-10.08l-1.53,2A5,5,0,0,1,48.8,41l-1.8.58a4.7,4.7,0,0,1,3-4.52l-2.53.26c.5-2.77,3.7-3.84,3.7-3.84a28.11,28.11,0,0,1,7.14-13.05c4.15-4.51,13.5-6.79,13.5-6.79l-2.16-2.37,3.53,1.46a4.34,4.34,0,0,1-.45-4.85s1.08,4.89,4.23,5.72S82.05,15,82.05,15c16.86,5.82,17.39,22.67,17.39,22.67A19.21,19.21,0,0,1,101,42.48a4.3,4.3,0,0,0-1.82-1C101,44.6,101.12,45.93,101.12,45.93Z"/><path class="cls-7" d="M63.49,42.73a29.8,29.8,0,0,0,8.2-4.06c3.82-2.8,6.53-.6,9.63,2.08s5.56,2.69,5.56,2.69-4.71,3.26-6.09,5.38-5.83,6.56-12-.06S63.49,42.73,63.49,42.73Z"/><path class="cls-8" d="M63.58,42.34A21,21,0,0,0,66.19,44a19.59,19.59,0,0,0,2.74,1.22,15.67,15.67,0,0,0,2.84.76,14,14,0,0,0,2.89.22,29.22,29.22,0,0,0,5.92-.78,27.74,27.74,0,0,0,2.93-.82c1-.27,1.95-.65,2.93-1l0,.08a25.53,25.53,0,0,1-5.69,2.49,22.69,22.69,0,0,1-6.12,1,14.43,14.43,0,0,1-6.07-1.26,16.44,16.44,0,0,1-5.11-3.5Z"/></svg>