<svg id="Layer_1" data-name="Layer 1" xmlns="http://www.w3.org/2000/svg" width="196.94" height="248.82" viewBox="0 0 196.94 248.82">
  <defs>
    <style>
      .cls-1 {
        fill: #dd1a5b;
      }

      .cls-16, .cls-2 {
        fill: #ef4a86;
      }

      .cls-3 {
        fill: #66082f;
      }

      .cls-4 {
        fill: #a5ce48;
      }

      .cls-5, .cls-9 {
        fill: none;
      }

      .cls-5 {
        stroke: #66082f;
      }

      .cls-16, .cls-5, .cls-9 {
        stroke-miterlimit: 10;
      }

      .cls-6 {
        fill: #a31d42;
      }

      .cls-7 {
        fill: #ef3845;
      }

      .cls-8 {
        fill: #fff3e0;
      }

      .cls-9 {
        stroke: #cf1c63;
      }

      .cls-10 {
        fill: #cf1c63;
      }

      .cls-11 {
        fill: #f7f5f2;
      }

      .cls-12 {
        fill: #010101;
        opacity: 0.28;
      }

      .cls-13 {
        fill: #8058a3;
      }

      .cls-14 {
        fill: #180c0d;
      }

      .cls-15 {
        fill: #e81f69;
      }

      .cls-16 {
        stroke: #750f32;
      }

      .cls-17 {
        opacity: 0.54;
      }

      .cls-18, .cls-19 {
        fill: #fff;
      }

      .cls-19 {
        opacity: 0.7;
      }

      .cls-20 {
        fill: #d83c78;
      }

      .cls-21 {
        fill: #eb1863;
      }
    </style>
  </defs>
  <g>
    <path class="cls-1" d="M146.56,220.49a2.26,2.26,0,0,1-1.49,1,40.24,40.24,0,0,1-7.8,1.06,37.86,37.86,0,0,1-9.16-.78c-9.43-1.92-9.36-5.53-17-6.46-4.61-.56-8.09.29-9.22-1.77-.93-1.63-.5-5-.5-5a3.45,3.45,0,0,0,.07-.85c.78-7.38-.14-16.88-5.6-28.16,10.07-2.49,20.07-5,20.07-4.9a57.6,57.6,0,0,0-2.84,5.68A65.22,65.22,0,0,0,109,192c-.92,4.05-2,9.09.71,11.64a4.79,4.79,0,0,0,1.35.85c18.94-2.06,28.94-1.35,30.08,2.27a3.25,3.25,0,0,1-.22,2.27c2.35,1.56,6.32,4.54,5.68,6.17-.14.43-.64.85-2,1.07h0C146.49,217.58,147.13,219.43,146.56,220.49Z"/>
    <path class="cls-2" d="M101.56,206.38a44.3,44.3,0,0,0,0-6.81,12.27,12.27,0,0,1,6.49-2.34,8.58,8.58,0,0,0,1,5.7C106.19,203.15,103.43,204.89,101.56,206.38Z"/>
    <path class="cls-1" d="M116,174.66a57.6,57.6,0,0,0-2.84,5.68c-.42,1-.92,2.13-1.41,3.26a63,63,0,0,1-12.92,2.91,56.67,56.67,0,0,0-2.9-6.95C106.05,177,116,174.52,116,174.66Z"/>
    <path class="cls-3" d="M144.69,216.66a22.35,22.35,0,0,0-9-2.77,24.33,24.33,0,0,0-3.19-.14c1.06-.07,2.13-.07,3.19-.07a22.52,22.52,0,0,1,9.37,2.34l-.36.64Z"/>
    <path class="cls-4" d="M72.42,212.83c-.14.71-.21,1.42-.28,2.13"/>
    <path class="cls-4" d="M66.82,213.47c.07,1.21.14,1.91.14,2.13"/>
    <path class="cls-1" d="M84.7,225.1c-10.86,8-32.14,2.84-31.57-1.27.49-3.48,10.07-8.8,13.76-10.36-.92-10.29-6-53.21-6-53.63S83.49,176.3,83.49,176.3s-8.23,19-11,36.53C80.23,216,85.41,223.12,84.7,225.1Z"/>
    <path class="cls-2" d="M74.42,205c-.52,2.15-1,4.32-1.4,6.49a35.66,35.66,0,0,0-6.38-.24c-.19-1.85-.43-4.08-.7-6.55A36.79,36.79,0,0,1,74.42,205Z"/>
    <path class="cls-1" d="M83.42,177.85s-1.63,3.84-3.76,9.72a64.66,64.66,0,0,1-16.1-4.89c-1.21-10.5-2.27-19.72-2.42-21.07C64.05,163.45,83.42,177.85,83.42,177.85Z"/>
    <polygon class="cls-3" points="111.29 205.04 104.98 205.39 111.22 204.33 111.29 205.04"/>
    <path class="cls-3" d="M141,209.61a12.22,12.22,0,0,0-8-1.56,12.4,12.4,0,0,1,8.44,1c-.07-.08-.42.56-.42.56Z"/>
    <path class="cls-2" d="M111.86,183.2a66.2,66.2,0,0,0-2.37,6.8,21.58,21.58,0,0,0-8.94,3.38A51.66,51.66,0,0,0,99,187.71C101.48,185.91,106.71,182.71,111.86,183.2Z"/>
    <path class="cls-2" d="M80.48,185.45c-1,2.72-2.09,5.94-3.17,9.43-4-2.19-8.94-2-12.23-1.43-.42-3.66-.86-7.45-1.28-11.11C67.43,181.54,75.55,180.45,80.48,185.45Z"/>
    <path class="cls-5" d="M146.56,220.49a2.26,2.26,0,0,1-1.49,1,40.24,40.24,0,0,1-7.8,1.06,37.86,37.86,0,0,1-9.16-.78c-9.43-1.92-9.36-5.53-17-6.46-4.61-.56-8.09.29-9.22-1.77-.93-1.63-.5-5-.5-5a3.45,3.45,0,0,0,.07-.85c.78-7.38-.14-16.88-5.6-28.16,10.07-2.49,20.07-5,20.07-4.9a57.6,57.6,0,0,0-2.84,5.68A65.22,65.22,0,0,0,109,192c-.92,4.05-2,9.09.71,11.64a4.79,4.79,0,0,0,1.35.85c18.94-2.06,28.94-1.35,30.08,2.27a3.25,3.25,0,0,1-.22,2.27c2.35,1.56,6.32,4.54,5.68,6.17-.14.43-.64.85-2,1.07h0C146.49,217.58,147.13,219.43,146.56,220.49Z"/>
    <path class="cls-5" d="M85,225.1c-10.85,8-32.14,2.84-31.57-1.27.5-3.48,10.07-8.8,13.76-10.36-.92-10.29-6-53.21-6-53.63S83.77,176.3,83.77,176.3s-8.15,19-11,36.53C80.58,216,85.76,223.12,85,225.1Z"/>
    <path class="cls-2" d="M168.59,128.18c2.76-2.27,8.65-6.45,11.28-3.47,3.33,3.9,3.76,6.88,1.06,9.65-.21.07,2.77,2.13-.57,6.1.08.28,1.64,6.38-6.1,8.16-8.08,1.84-7.8-1.56-7.8-1.56a9.38,9.38,0,0,1-8.51-2.49c-.22.07-18.95,1.56-21.71-.35s-5.54-10.43-5.54-10.43V102.57s7,20.22,9.3,22.49,15.82,15.26,19.93,13.13l-.85-.07s-5.11-5.39,1.35-9.86,8.94-1,9.36,4,.07,8.94-2.62,9.15-4.12-5.18-1.35-6"/>
    <path class="cls-1" d="M155.93,144.86c-1.49.11-3.76.25-6.23.35a11.47,11.47,0,0,1-.13-11.43,38.68,38.68,0,0,0,5.17,3.45,11.31,11.31,0,0,0,1.19,7.63Z"/>
    <path class="cls-1" d="M141.2,144.93c-2.48-.07-4.39-.36-5.17-.85-2.77-1.85-5.54-10.43-5.54-10.43V116.27c.64-2.77,1.63-4.83,2.91-5.75,2.2,5.89,5,13.12,6.39,14.4l.49.5A56.18,56.18,0,0,0,141.2,144.93Z"/>
    <path class="cls-5" d="M168.59,128.18c2.76-2.27,8.65-6.45,11.28-3.47,3.33,3.9,3.76,6.88,1.06,9.65-.21.07,2.77,2.13-.57,6.1.08.28,1.64,6.38-6.1,8.16-8.08,1.84-7.8-1.56-7.8-1.56a9.38,9.38,0,0,1-8.51-2.49c-.22.07-18.95,1.56-21.71-.35s-5.54-10.43-5.54-10.43V102.57s7,20.22,9.3,22.49,15.82,15.26,19.93,13.13l-.85-.07s-5.11-5.39,1.35-9.86,8.94-1,9.36,4,.07,8.94-2.62,9.15-4.12-5.18-1.35-6"/>
    <path class="cls-3" d="M181.07,134.71a12.07,12.07,0,0,1-9.15.64,12.28,12.28,0,0,0,8.8-1.21l.35.57Z"/>
    <path class="cls-3" d="M180.58,140.74a12.07,12.07,0,0,1-9.15.64,12.25,12.25,0,0,0,8.79-1.21l.36.57Z"/>
    <path class="cls-3" d="M166.39,147.13c1.56-2.91,5.25-3.62,8.3-3.34L176,144h-.22c-.14.08-.07.08-.07.08.22-.71.36-1.92-.56-2.2v-.07a.83.83,0,0,1,.78.28,2.76,2.76,0,0,1,.42,2.2.42.42,0,0,1-.35.35,16.56,16.56,0,0,0-5.25-.21,7,7,0,0,0-4.4,2.7Z"/>
    <path class="cls-2" d="M143.7,161c.41.06-4.16,5.31-11.21,4.65-.49.11,1.73,3.21,5.72,2.17a26.23,26.23,0,0,1-17.72,2.87c.21.42,2.86,5.1,12.09,3.55a22.57,22.57,0,0,1-20.81,3.85,12.16,12.16,0,0,0,13.39,4.51c-.2.05-11.91,9.6-25.56-2.71-.09.24-8.68,12.41-25.87,7.25-.48-.43,9.67-4.25,10.41-10.07,0-.12,0-.24,0-.36a1.37,1.37,0,0,1-.35.33c-2,1.59-12.58,7.67-22.67,4.73.43-.11,8.87-4.3,10.36-7.73a2.69,2.69,0,0,0,.16-.45,7.59,7.59,0,0,1-.73.23c-3.34.93-17.05,4.15-20.31,2.72.52,0,6.78-6.43,10-7.66-.17-.15-11.51,3.16-13.25,2.72s1.9-6.41,1-10.24-3.78-10.75-4.77-14.14a59.16,59.16,0,0,1-1-9.34v0a73.78,73.78,0,0,1-.19-10.13c1.26-36.75,32.17-83,65.95-82.14,17.32.41,36.77,13.22,37.13,23.94.26,7.8-9.4,20.91-7.45,27.78.28,1,1.06,3-.14,4.64s-3.83,1.94-4.83,4.22a5.83,5.83,0,0,0-.36,1.18,96.19,96.19,0,0,0-.42,22.38c.47,4.29.84,7.57,1,10.25h0a7.22,7.22,0,0,0,6.63,4.68c-.09.17-2,1.53-6.6,1.06q-.08.78-.21,1.5a19.57,19.57,0,0,1-.56,2.29,15.44,15.44,0,0,0,7.37,3,20.67,20.67,0,0,1-9.35,1.67,13.57,13.57,0,0,1-3.56-.8c.11.09,1,1.29,2.42,2.74C132.36,159.11,137.62,163.06,143.7,161Z"/>
    <path class="cls-3" d="M143.7,161a.16.16,0,0,1,0,.16,5.88,5.88,0,0,1-.94,1.05,13.6,13.6,0,0,1-10.26,3.48c0,.41.59.95.92,1.22a5.48,5.48,0,0,0,4.94.81l-.07.11a23.94,23.94,0,0,1-8.65,3.07,25.81,25.81,0,0,1-9.15-.09l.14-.18a6.39,6.39,0,0,0,2.3,2.26c2.87,1.74,6.43,1.7,9.64,1.18l0,.34s0,0-.05.06a23.28,23.28,0,0,1-9.84,4.51,22.63,22.63,0,0,1-11-.66l.3-.15s0-.07,0-.09l.06.08a12,12,0,0,0,13,4.18l.15.51a1.06,1.06,0,0,1-.11.09,19.91,19.91,0,0,1-6.2,2.87c-7.25,2-14.11-.88-19.53-5.7l.48-.11a4.84,4.84,0,0,1-.3.44A22.24,22.24,0,0,1,88,188a25.59,25.59,0,0,1-5.38.78c-.52,0-2.19,0-2.72-.08-.71,0-2-.28-2.69-.36-1.2-.21-2.38-.56-3.58-.84a.4.4,0,0,1-.17-.45c.13-.34.59-.52.86-.72,3-1.71,6.17-3.46,8.24-6.24a6.47,6.47,0,0,0,1.32-3.34l.67.14a.85.85,0,0,1-.21.28l-.17.14-.31.23c-6.57,4.33-15,6.76-22.75,4.65l-1-.28,1-.44a42.39,42.39,0,0,0,5.77-3.31c1.69-1.21,3.74-2.64,4.46-4.61l.56.44c-1.67.59-3.61.95-5.28,1.37A94.94,94.94,0,0,1,56,177.18a13.72,13.72,0,0,1-5.52-.23l.17-.79s-.07,0,0,0c.6-.42,1.62-1.39,2.2-1.89,2.45-2.08,4.73-4.38,7.71-5.74l-.14.72a.2.2,0,0,0,.12.1s.11,0,0,0l-.17,0c-1.6.38-3.91,1-5.5,1.39a38,38,0,0,1-7.21,1.33,1.11,1.11,0,0,1-1-.54,2.33,2.33,0,0,1-.11-1.4c.5-2.88,2-5.87,1.39-8.73-1.25-4.85-3.41-9.5-4.85-14.36a50.69,50.69,0,0,1-.92-9.41.46.46,0,0,0,0,.48l-.07-.21c-2.52-29.8,13.1-63.17,36.38-81.64,8.14-6.27,18-10.93,28.42-11a48.18,48.18,0,0,1,34.59,15c2.51,2.9,4.67,6.66,4.25,10.65-.85,6.43-4.35,12.1-6.37,18.17-.77,2.36-1.57,4.89-1.2,7.38.36,1.86,1.29,4.07-.13,5.75-1.24,1.48-3.46,2-4.44,3.56-.65.86-.73,2.54-.89,3.59a100.26,100.26,0,0,0,.06,23l.74,7.67a7.31,7.31,0,0,0,6.45,4.51l.34,0-.2.22c-1.9,1.43-4.52,1.28-6.78,1.12l.17-.14a24.23,24.23,0,0,1-.79,3.82l0-.15a15.43,15.43,0,0,0,7.3,3l.42,0-.43.17c-4,1.67-8.76,2.42-12.93.82l.07-.11c3.82,5,10,9.84,16.62,7.64Zm0,0c-6.57,2.25-12.86-2.61-16.71-7.54l-.15-.2.22.09c4.21,1.58,8.81.76,12.88-.92v.22a15.57,15.57,0,0,1-7.44-3l-.07,0,0-.1a29.09,29.09,0,0,0,.78-3.91,15.84,15.84,0,0,0,3.51,0,6.59,6.59,0,0,0,3.06-1l.14.26a7.53,7.53,0,0,1-6.82-4.86l-.79-7.63a97.9,97.9,0,0,1-.14-23.08c.1-.94.3-3,.95-3.81,1.91-2.79,6.18-2.62,4.92-7-1.81-5.74,1.63-11.47,3.6-16.72,1.76-4.59,4.47-9.58,3.11-14.56-3.2-9.33-14.09-15.42-22.89-18.62C95.74,38.75,71.94,58.65,58.79,79.75c-11,17-17.38,38.93-15.79,58.41l.07-.28c.28,4,.35,8,1.86,11.8,1.32,3.82,2.87,7.56,3.9,11.54a8.36,8.36,0,0,1,0,3.19c-.29,2-1.07,4-1.44,5.88-.09.46,0,1,.07.9a4.77,4.77,0,0,0,1.28,0c3.33-.49,7-1.53,10.29-2.34l.75-.18a3.2,3.2,0,0,1,.82-.14.71.71,0,0,1,.3.1l.72.37-.85.35c-3.5,1.65-6.28,4.69-9.26,7.14a2.11,2.11,0,0,1-.91.54l.17-.8c3.34.83,7-.11,10.36-.58,2.51-.43,5.33-1.06,7.83-1.66,1.16-.28,2.23-.57,3.28-.92-.66,2.66-2.93,4.25-5,5.73a39.39,39.39,0,0,1-6,3.4v-.72c7.68,2.08,16.14-.35,22.55-4.81,0,0,.09-.12,0,0l.67.14c-.55,4.79-5.34,7.41-9.08,9.64l-.83.47-.39.25a1.25,1.25,0,0,0-.17.12l0,0,0-.06a.29.29,0,0,0-.21-.35A37.83,37.83,0,0,0,79.9,188a22.61,22.61,0,0,0,14.31-3.52,20.34,20.34,0,0,0,5.34-5,38.24,38.24,0,0,0,4.4,3.3,18.51,18.51,0,0,0,20.7-.16c.13-.08.29-.2.44-.28l.15.51a12.3,12.3,0,0,1-13.56-4.42.61.61,0,0,1-.14-.42l0-.23.28.08a22.18,22.18,0,0,0,20.07-3.36,3.07,3.07,0,0,1,.67-.43l0,.34c-4.24.68-9.73.4-12.22-3.67l-.12-.22.26,0c6,1.29,12.42-.06,17.7-2.67a5.27,5.27,0,0,1-5.74-1.85c0-.12-.22-.34,0-.43a13.51,13.51,0,0,0,10.82-4l.26-.3c.06-.11.2-.23.14-.34Z"/>
    <path class="cls-6" d="M124.29,115.5a13.16,13.16,0,0,0,.22,3.22c0,.15,0,.29.09.44s.13.56.21.84a19.07,19.07,0,0,0,.8,2.32s0,0,0,0c.25.58.5,1.12.74,1.6s.53,1,.74,1.41a5.51,5.51,0,0,1,.55,1.13v0a6.24,6.24,0,0,1-1.64,4.85,10.55,10.55,0,0,1-2.58,2,18.11,18.11,0,0,1-1.65.82,23.17,23.17,0,0,1-2.85,1c-.68.19-1.39.36-2.12.51s-1.48.28-2.26.39h0c-1.16.16-2.36.27-3.59.34h0c-.7,0-1.48.09-2.19.06a49.67,49.67,0,0,1-15.13-2.33c-.64-.22-1.28-.43-1.92-.7l-.26-.1c-1.16-.5-2.33-1-3.43-1.58l-4.51-3.08a15.33,15.33,0,0,1-3.43-4.07A11,11,0,0,1,79.2,123c-.09-.24-.19-.47-.26-.71q-.37-1.11-.69-2.19a44.71,44.71,0,0,1-1.16-5.24c-.16-1-.27-1.91-.35-2.84-1.18-12.87,3.77-22.19,4.16-22.38h0c.29.72.6,1.4.92,2.07a40.23,40.23,0,0,0,6.73,10.07c.42.45.84.88,1.28,1.28.25.25.51.49.77.72l.19.16a29.23,29.23,0,0,0,4.54,3.28,29.62,29.62,0,0,0,5.78,2.6c.43.15.85.28,1.28.4l.22.06a7.57,7.57,0,0,0,1.23.29,37.73,37.73,0,0,0,10.65.83l.88-.07c1.39-.09,2.74-.25,4-.44,1.63-.27,3.19-.61,4.66-1,1-.24,1.86-.49,2.71-.74l-.08.11A10.82,10.82,0,0,0,124.29,115.5Z"/>
    <path class="cls-7" d="M127.69,126.49a.17.17,0,0,1,0,.1,6.16,6.16,0,0,1-1.64,4.85c-2.74,3.07-8.47,4.82-15,5.13-.71,0-1.43.08-2.2.05a49.67,49.67,0,0,1-15.13-2.33c-.73-.25-1.45-.49-2.18-.8a36.24,36.24,0,0,1-3.43-1.58l-4.51-3.09a15.14,15.14,0,0,1-3.43-4.06A11.36,11.36,0,0,1,79,122.34c-.26-.76-.5-1.51-.7-2.26h0c7.65-1.38,22.36-2.58,29.55,6.62.11,0,10.94-6.81,19.27-1.36a0,0,0,0,1,0,0A5.23,5.23,0,0,1,127.69,126.49Z"/>
    <path class="cls-8" d="M92.92,127.91a11.13,11.13,0,0,1-1.21,5.61,1.39,1.39,0,0,1-.26-.1c-1.16-.5-2.33-1-3.43-1.58l-4.51-3.08a15.33,15.33,0,0,1-3.43-4.07A12,12,0,0,1,79.2,123c2.89-2.77,6.82-3.55,9.53-2.29C91.07,121.83,92.73,124.65,92.92,127.91Z"/>
    <path class="cls-8" d="M108.75,136.55a49.65,49.65,0,0,1-15.12-2.33c-.73-.24-1.45-.49-2.18-.8a11.26,11.26,0,0,1,3.61-5.25c2.78-2.22,6.3-2.92,8.92-1.72C107.12,127.91,109.28,132.05,108.75,136.55Z"/>
    <path class="cls-8" d="M126,131.37c-2.74,3.07-8.47,4.75-15.06,5.13a11.48,11.48,0,0,1,1.9-6.65c.39-.52,3.74-5.33,8.05-4.51a6.23,6.23,0,0,1,4.22,3A15.45,15.45,0,0,1,126,131.37Z"/>
    <path class="cls-8" d="M89.85,103c-2.68,1.29-5.61,1.19-7.47-.19-2.76-2-3.51-7.2-.53-11.16a39.52,39.52,0,0,0,6.73,10.07C89,102.2,89.42,102.63,89.85,103Z"/>
    <path class="cls-8" d="M95.35,107.19a29.62,29.62,0,0,0,5.78,2.6,7.91,7.91,0,0,1-3.28,3.2,5.93,5.93,0,0,1-5.53-.11c-2.09-1.39-2.94-5-1.51-9A29.23,29.23,0,0,0,95.35,107.19Z"/>
    <path class="cls-8" d="M103.86,110.54a37.73,37.73,0,0,0,10.65.83,21.23,21.23,0,0,1-2.88,3.64c-1.46,1.46-2.77,2.73-4.52,2.65a5.32,5.32,0,0,1-4.09-3,7.65,7.65,0,0,1-.61-4.45l.22.06A8.1,8.1,0,0,0,103.86,110.54Z"/>
    <path class="cls-8" d="M124.09,109.89c-.8,5.29-3.21,8.67-5.48,8.71a3.86,3.86,0,0,1-3.07-1.9c-1-1.65-.63-3.79-.15-5.4,1.39-.09,2.74-.25,4-.44C121.06,110.59,122.63,110.25,124.09,109.89Z"/>
    <path class="cls-9" d="M127.09,125.31a8.1,8.1,0,0,1,.57,1.14.22.22,0,0,1,0,.11,6.17,6.17,0,0,1-1.64,4.85c-2.74,3.07-8.47,4.82-15.06,5.13-.71,0-1.42.08-2.2.05a49.65,49.65,0,0,1-15.12-2.33c-.73-.25-1.46-.49-2.18-.8-1.24-.51-2.33-1-3.43-1.59l-4.51-3.08a15.29,15.29,0,0,1-3.43-4.06A11.36,11.36,0,0,1,79,122.31c-.26-.76-.5-1.52-.71-2.26a42.68,42.68,0,0,1-1.15-5.24c-.15-1-.26-1.91-.35-2.84-1.16-13,4-22.43,4.18-22.32.3.69.6,1.37.92,2a43.81,43.81,0,0,0,2.63,4.78,37.82,37.82,0,0,0,4.11,5.33c.41.43.81.85,1.22,1.24s.66.62,1,.91a29,29,0,0,0,10.29,5.89c.43.15.87.28,1.31.4l.24.07c.43.12.79.17,1.23.29a37.45,37.45,0,0,0,10.58.86l.91-.07c1.4-.1,2.76-.26,4.08-.47,1.62-.27,3.18-.61,4.64-1,.93-.22,1.81-.47,2.65-.7l.08,0a10.74,10.74,0,0,0-2.52,6.27,13.67,13.67,0,0,0,.22,3.22c0,.14.06.29.09.43s.13.57.21.85a17.35,17.35,0,0,0,.8,2.31,0,0,0,0,0,0,0c.24.58.49,1.12.74,1.61S126.88,124.92,127.09,125.31Z"/>
    <path class="cls-10" d="M126.45,109c2.86-1,5.78-2.11,8.08-4.09-2.15,2.19-5,3.49-7.83,4.72l-.25-.63Z"/>
    <path class="cls-11" d="M136.81,92.85c-1.22,3.34-3,8.19-7.58,10.43a9.92,9.92,0,0,1-6.72.9,9,9,0,0,1-2.93-1.36,10.39,10.39,0,0,1-3.78-4.33,8.45,8.45,0,0,1-.48-1.33,20.06,20.06,0,0,1-.09-9.74c1.54-5.63,8-14.1,14.82-12.42,4.94,1.21,8.16,7.3,8.13,12.25A16.79,16.79,0,0,1,136.81,92.85Z"/>
    <path class="cls-12" d="M135.19,78.54a9.45,9.45,0,0,0-5.25-3.74c-6.78-1.63-13.32,6.85-14.82,12.46a20.09,20.09,0,0,0,.1,9.75,13.61,13.61,0,0,0,.48,1.32,10.2,10.2,0,0,0,3.77,4.33,9.89,9.89,0,0,0,2.94,1.37l.7.15a8.8,8.8,0,0,1-2.45-.25,10.67,10.67,0,0,1-3.11-1.42,11.69,11.69,0,0,1-4-4.55,8.77,8.77,0,0,1-.53-1.4,21.48,21.48,0,0,1-.09-10.3c1.62-5.93,8.48-14.87,15.7-13.13A10.47,10.47,0,0,1,135.19,78.54Z"/>
    <ellipse class="cls-13" cx="127.88" cy="89.49" rx="6.44" ry="4.94" transform="translate(10.17 191.99) rotate(-76.03)"/>
    <ellipse class="cls-14" cx="127.92" cy="89.16" rx="3.43" ry="2.64" transform="translate(10.52 191.78) rotate(-76.03)"/>
    <ellipse class="cls-11" cx="126.27" cy="87.58" rx="1.26" ry="0.96" transform="translate(10.8 188.98) rotate(-76.03)"/>
    <path class="cls-11" d="M112.88,82.73c-1.64,3.77-4,9.24-9.47,11.52a11.47,11.47,0,0,1-7.81.57A10.66,10.66,0,0,1,92.3,93a11.86,11.86,0,0,1-4-5.26,8.54,8.54,0,0,1-.47-1.56A23.23,23.23,0,0,1,88.35,75c2.16-6.39,10.25-15.71,18-13.32,5.62,1.74,8.92,9,8.54,14.71A19.43,19.43,0,0,1,112.88,82.73Z"/>
    <path class="cls-12" d="M112,66.1a10.91,10.91,0,0,0-5.8-4.68c-7.71-2.35-15.85,7-18,13.36A23.11,23.11,0,0,0,87.67,86a15.63,15.63,0,0,0,.46,1.57,12,12,0,0,0,4.06,5.26,11.4,11.4,0,0,0,3.29,1.77l.8.23a9.75,9.75,0,0,1-2.8-.46A12.44,12.44,0,0,1,90,92.55,13.47,13.47,0,0,1,85.66,87a11.89,11.89,0,0,1-.52-1.66,24.78,24.78,0,0,1,.61-11.89c2.28-6.73,10.82-16.58,19-14.07C108,60.31,110.44,62.93,112,66.1Z"/>
    <ellipse class="cls-13" cx="102.81" cy="78.23" rx="7.45" ry="5.71" transform="translate(-2.58 152.95) rotate(-72.6)"/>
    <ellipse class="cls-14" cx="102.88" cy="77.86" rx="3.97" ry="3.05" transform="translate(-2.18 152.75) rotate(-72.6)"/>
    <ellipse class="cls-11" cx="101.08" cy="75.92" rx="1.45" ry="1.11" transform="matrix(0.3, -0.95, 0.95, 0.3, -1.58, 149.68)"/>
    <g>
      <path class="cls-3" d="M130.05,75c-7.85-1.53-14.77,8.59-15,15.58-1.18,14.16,13.84,18.6,20,5.72,1.23-2.84,2.69-5.78,2.95-8.91.1-5.1-2.79-10.9-8-12.39Zm0,0c5.25,1.43,8.16,7.26,8.29,12.4-.16,3.22-1.51,6.21-2.67,9.18-2.21,6.08-9.89,10.85-15.91,6.93a11,11,0,0,1-5.32-8.88,17.87,17.87,0,0,1,2.61-11.76c2.76-4.32,7.4-9.1,13-7.87Z"/>
      <path class="cls-3" d="M106.31,61.65c-6.35-1.7-12,3.49-15.25,8.4a20,20,0,0,0-3.29,13.14A12,12,0,0,0,93.06,93c6.36,4.48,14.53-.11,17.61-6.4,1.61-3.2,3.49-6.5,4-10.1.45-5.89-2.49-12.78-8.36-14.86Zm0,0c6,2,8.91,8.95,8.69,14.89-.42,3.7-2.19,7-3.74,10.39-3,6.84-12.05,11.77-18.75,6.86A12.66,12.66,0,0,1,87,83.24a20.64,20.64,0,0,1,3.78-13.38c3.47-4.8,9.16-10,15.53-8.21Z"/>
    </g>
    <path class="cls-15" d="M108.89,50.35c-.12-.09-4.64-4.06-6-3.57s-2.17,2-.28,3.57c0,0-6.73-2.3-6.56,1.51-.08-.16-5.46-.24-3,3-.2-.09-4.39,1.6-3,4.18,7.14-4.29,10.65-4.69,12.53-4.15a17.81,17.81,0,0,0,3.26.58c2.09.19,3.86.35,4.51-.57S110.36,52.05,108.89,50.35Z"/>
    <path class="cls-15" d="M131.12,63.32c.1,0,4-1.51,4.76-.87s.92,1.85-.69,2.4c0,0,4.95.16,3.91,2.61.09-.09,3.62,1.18,1.25,2.67.15,0,2.47,2.12,1,3.48-3.61-4.56-5.8-5.68-7.16-5.8a11.79,11.79,0,0,1-2.26-.42c-1.41-.39-2.61-.73-2.8-1.48S129.74,64.07,131.12,63.32Z"/>
    <g>
      <path class="cls-16" d="M121.2,48.71c.51-.61,4.14-3.68.94-7.59.12,0,6,2.92,2.84,8.9.21-.19,6.12-5,.85-10.19,0,.12,7.3,1.49,2.51,11.5a6.84,6.84,0,0,0,5.42-5.75c.14.33,2.46,4.16-1.1,9.05"/>
      <path class="cls-16" d="M121.2,49c.51-.61,4.14-3.68.94-7.59.12,0,6,2.92,2.84,8.89.21-.18,6.12-5,.85-10.19,0,.13,7.3,1.5,2.51,11.51a6.84,6.84,0,0,0,5.42-5.75c.14.33,2.46,4.16-1.1,9"/>
    </g>
    <g class="cls-17">
      <ellipse class="cls-18" cx="80.93" cy="64.88" rx="6.7" ry="3.35" transform="translate(-22.7 69.35) rotate(-41.19)"/>
      <ellipse class="cls-18" cx="68.46" cy="79.54" rx="10.41" ry="5.35" transform="translate(-32.97 106.48) rotate(-64.16)"/>
    </g>
    <path class="cls-16" d="M114.54,47.15c.5-.82,5.07-17.7-10.34-23.54-6.6-1.1-11.75,12.5,1.48,10.68,4.2-1.19,4-1.92,4-1.92s8.81,9.22-.09,15.42"/>
    <path class="cls-16" d="M114.38,47.15c.5-.82,5.07-17.7-10.34-23.54-6.59-1.1-11.75,12.5,1.48,10.68,4.2-1.19,4-1.92,4-1.92s8.81,9.22-.09,15.42"/>
    <ellipse class="cls-19" cx="101.84" cy="29.59" rx="2.04" ry="4.18" transform="translate(-4.1 24.81) rotate(-13.62)"/>
    <path class="cls-16" d="M137.13,58.09c10.2-4.06,11.76-15.83,11.47-15.85-5.44.52-11.87-3-12.65-8.14.9-5.73,16.86-7.56,17,4-1,19.15-14.22,22.58-14.22,22.58"/>
    <ellipse class="cls-19" cx="140.63" cy="36.16" rx="2.04" ry="4.18" transform="translate(0.74 75.07) rotate(-29.96)"/>
    <path class="cls-20" d="M60.1,107a40.85,40.85,0,0,0-9.22,11.71,43.37,43.37,0,0,0-2.62,5.74c-2.49,6.32-3.5,14.26-3.57,24.47a57.7,57.7,0,0,1-1.94-10.79c-.07-1.92-.45-4.67-.38-6.73,0-.78.07-1.48.07-2.27.07-1.49.14-3,.28-4.46A132.54,132.54,0,0,1,44.57,111c4.4-2.19,9.36-4.25,13.19-4.32h.29A14.33,14.33,0,0,1,60.1,107Z"/>
    <path class="cls-21" d="M75.72,89.49c1.43-4.14,8.17-4.12,9.52,0-3.56-1.53-5.94-1.49-9.52,0Z"/>
    <path class="cls-21" d="M90.1,99c12.25,10.12,18.23,9.34,33.23,8.25C110.12,111.65,98.88,110.9,90.1,99Z"/>
    <path class="cls-21" d="M72.09,112.39a35.3,35.3,0,0,0,16,24.24c-10.1-2.93-17.33-13.79-16-24.24Z"/>
    <path class="cls-2" d="M58.82,107.62c-7.66-2.34-25.89,9.86-25.61,9.86C30.8,121,30.94,139.55,31,147.63c3.41-.14,9.58-.21,10.92,1.28,1.78,1.92,4.55,14.61-1,17.1-3,1.56-5.18.71-5.74-3.62a.84.84,0,0,0-.08-.43h0c.08.07.08.22.08.43-.15,1.28-1.78,5-3.27,5-1.13-.08-2.62-2.27-2.62-5.54-.64,3.48-2.41,5.89-4.12,6-2.34.07-3.9-4.68-4.18-5.6-1.78-5.61.28-11,1.7-14-.14-4.82-.28-8.65-.36-10.85-.49-13.84-.78-18.09,2-22.78.21-.28,1.42-1.77,3.9-4.75,5.61-6.67,8.37-10.07,11.07-12.77A67,67,0,0,1,54.07,85.84,13.85,13.85,0,0,1,58.61,91,14.59,14.59,0,0,1,60,99.32"/>
    <path class="cls-1" d="M31.26,141.15c0,1.82,0,3.59,0,5.22a14.74,14.74,0,0,0-8.37,1.7c-.08-2.51-.15-4.62-.2-6.21C25.24,140.81,28.36,140.15,31.26,141.15Z"/>
    <path class="cls-1" d="M48.75,109.27A53.11,53.11,0,0,0,42.37,112c0-4.76-2.82-8.9-5.74-11.9.56-.61,1.1-1.17,1.63-1.71,1.12-1.14,2.48-2.42,4.11-3.79C46,98,49.8,103.21,48.75,109.27Z"/>
    <path class="cls-5" d="M35.24,161.92s-.62-6.19.76-7.62"/>
    <path class="cls-5" d="M29.41,162.1s-.62-6.19.76-7.61"/>
    <path class="cls-1" d="M33.07,118c-.85,1.54-1.37,5.09-1.67,9.35a21.27,21.27,0,0,0-9.22-5.15,16,16,0,0,1,2.17-7.35l.49-.6A24.71,24.71,0,0,1,33.07,118Z"/>
    <path class="cls-12" d="M59.35,104.12l-.42,3.26C51.2,105,33,117.24,33.32,117.24c-2.41,3.48-2.27,22.14-2.13,30.15,3.41-.14,9.58-.21,10.93,1.28,1.06,1.21,2.48,6.31,2.27,10.71-.29-4-1.57-7.94-2.49-9-1.56-1.63-8.51-1.63-12.34-1.42-.07-9-.29-29.72,2.48-33.55C31.62,115.4,50,103.27,59.35,104.12Z"/>
    <path class="cls-3" d="M59,107.67c-6.87-1.74-19.59,5.94-25.35,9.79a1.47,1.47,0,0,0-.13.1s0,0,0,0-.13-.25-.14-.19l.12.23c-1.17,2.18-1.28,4.86-1.58,7.3s-.35,5-.43,7.57c-.15,5.06-.12,10.13-.06,15.19l-.26-.25c1.6-.07,3.21-.1,4.82,0,2,.12,4.18.07,6,1.11,1,.83,1.31,2.15,1.71,3.32,1.09,4.31,2.18,10.64-1.52,14-4.08,2.73-6.65,1.05-7.19-3.47a4.48,4.48,0,0,1,0-1.15l.52.58a.61.61,0,0,1,.16.43,8.09,8.09,0,0,1-1.15,3.4c-.58,1-1.35,2.32-2.67,2.15-2.29-.88-2.7-3.74-2.8-5.87l.77.07c-.55,2.45-1.39,5.34-4.1,6.25-1.5.28-2.62-1-3.33-2.08a16.59,16.59,0,0,1-2.21-10.92A24.78,24.78,0,0,1,22.42,148l-.05.23-.59-17c-.05-5.64-.79-11.88,2.31-16.93,6.8-7.9,13-16.5,21.28-22.9a74.93,74.93,0,0,1,8.72-5.74l.13-.08.12.09a14,14,0,0,1,5.81,13.68h-.1A14.71,14.71,0,0,0,59,91.78,13.51,13.51,0,0,0,54.08,86h.25a73.52,73.52,0,0,0-8.59,5.81c-8.17,6.44-14.21,15.11-20.86,23-2.81,4.62-2.18,10.9-2.1,16.31l.55,17v.11c-2.14,4.32-3.26,9.39-1.68,14,.66,1.76,1.75,5.13,3.91,5,2.14-.69,3.06-3.51,3.5-5.59l.77.07c.05,1.8.41,4.31,2.17,5.15.8.06,1.48-1.11,1.89-1.78a8.09,8.09,0,0,0,1.08-3c0-.05,0-.07,0,0l.6-.21a12.67,12.67,0,0,0,.62,2.58c.92,2.59,3.63,2,5.5.65,3.63-2.63,2.52-13.26-.11-16.33-3.27-1.51-7.19-1-10.73-1v-.25c0-8.86-.2-17.8,1.15-26.58a11.21,11.21,0,0,1,1.18-3.66l.12.23c0,.05-.21-.11-.13-.21s0,0,0,0l0,0,0,0,.05,0,.09-.07c5.39-3.62,19.4-11.81,25.52-9.55Z"/>
    <path class="cls-3" d="M171.92,135.35c-2.23.61-2.4,4.89-.49,6-2.49-.17-2.9-3.71-1.49-5.33a1.78,1.78,0,0,1,2-.7Z"/>
    <path class="cls-3" d="M171.86,135.34c-2.39-.36-2.77-3.65-1.58-5.39a2.23,2.23,0,0,1,2.13-1.11,10.57,10.57,0,0,0,3.82.44.87.87,0,0,0,.77-.81.85.85,0,0,1-.08.69c-1.07,1.26-3.39.77-4.62.62a1.33,1.33,0,0,0-1.19.72c-1,1.47-1,3.89.75,4.84Z"/>
  </g>
</svg>
