<svg id="Layer_1" data-name="Layer 1" xmlns="http://www.w3.org/2000/svg" viewBox="0 0 221.65 200.47"><defs><style>.cls-1,.cls-3{fill:#ffd15f;}.cls-2{fill:none;}.cls-2,.cls-3{stroke:#d67d13;}.cls-2,.cls-3,.cls-4,.cls-5,.cls-6{stroke-miterlimit:10;}.cls-4{fill:#c34804;stroke:#7c320d;}.cls-5{fill:#ffe783;}.cls-5,.cls-6{stroke:#7c4c00;}.cls-6{fill:#ffef9f;}.cls-7{fill:#66441c;}.cls-8{fill:#fff;}.cls-9{fill:#30200f;}.cls-10{fill:#efdece;}.cls-11{fill:#e57d28;}.cls-12{fill:#84083a;}</style></defs><path class="cls-1" d="M84.66,88.21s-1.22-10.52-11-3.16S48.35,99.26,23.44,90c0,0,.53,5.09,9.3,9,0,0-7.37-.52,5.44,7.72,0,0-5.44.88,8.24,8.6,0,0-3.33,3.85,12.63,5.78s28.07-19.47,28.07-19.47L85.37,88.39"/><path class="cls-2" d="M84.66,88.21s-1.22-10.52-11-3.16S48.35,99.26,23.44,90c0,0,.53,5.09,9.3,9,0,0-7.37-.52,5.44,7.72,0,0-5.44.88,8.24,8.6,0,0-3.33,3.85,12.63,5.78s28.07-19.47,28.07-19.47L85.37,88.39"/><path class="cls-1" d="M31.16,97.68s18.42,9.83,42.28-4.21"/><path class="cls-2" d="M31.16,97.68s18.42,9.83,42.28-4.21"/><path class="cls-1" d="M36.6,105.93a43.45,43.45,0,0,0,38.77-5.79"/><path class="cls-2" d="M36.6,105.93a43.45,43.45,0,0,0,38.77-5.79"/><path class="cls-1" d="M45.19,114.35S66.07,118.91,77,107"/><path class="cls-2" d="M45.19,114.35S66.07,118.91,77,107"/><path class="cls-3" d="M129.92,92.42S131.15,81.9,141,89.26s25.26,14.21,50.17,4.91c0,0-.53,5.09-9.3,9,0,0,7.37-.52-5.44,7.72,0,0,5.44.88-8.24,8.6,0,0,3.33,3.86-12.63,5.78s-28.07-19.47-28.07-19.47l1.75-13.15"/><path class="cls-3" d="M183.43,101.89s-18.42,9.83-42.28-4.21"/><path class="cls-3" d="M178,110.14a43.45,43.45,0,0,1-38.77-5.79"/><path class="cls-3" d="M169.39,118.56s-20.87,4.56-31.75-7.37"/><path class="cls-4" d="M95,144.87l1.21,5.76a.89.89,0,0,1,0,.58c-.09.17-.38.24-.48.07a87.9,87.9,0,0,1-1.19,15.11,7.64,7.64,0,0,1-.77,2.58c-.91,1.59-2.74,2.36-4.4,3.15a37,37,0,0,0-3.61,1.95c-.49.3-1,.72-1,1.3a2.32,2.32,0,0,0,2.16-.16q2.1-.93,4.11-2a3.3,3.3,0,0,1,2.35-.63A2.73,2.73,0,0,1,95,174.42a7.51,7.51,0,0,0,1,2.36.69.69,0,0,0,.51.29.75.75,0,0,0,.71-.83c-.23-1,0-2-.18-2.92,1.15.51,1.46.84,2.61,1.36,1.37.6,2.9,1.22,4.31.74a.62.62,0,0,0,.39-.27c.15-.26-.05-.57-.24-.79a12.67,12.67,0,0,0-3-2.52c-1.12-.68-2.44-1.28-3-2.47a5.18,5.18,0,0,1-.31-1.17A31.51,31.51,0,0,1,99.33,152"/><path class="cls-4" d="M118.4,143.82l-1,5.76a1,1,0,0,0,0,.57c.08.18.33.25.42.08a100.34,100.34,0,0,0,1,15.11,8.6,8.6,0,0,0,.66,2.58c.77,1.59,2.35,2.36,3.77,3.14a33.51,33.51,0,0,1,3.1,1.95,1.63,1.63,0,0,1,.87,1.31c-.54.42-1.26.14-1.86-.17a40,40,0,0,1-3.52-2,2.59,2.59,0,0,0-2-.63,2.67,2.67,0,0,0-1.42,1.88,7.71,7.71,0,0,1-.9,2.36c-.11.15-.26.3-.44.28a.7.7,0,0,1-.6-.82c.19-1,0-2,.15-2.92-1,.51-1.25.84-2.24,1.35-1.18.61-2.49,1.23-3.7.75a.61.61,0,0,1-.34-.27.82.82,0,0,1,.21-.79,11.32,11.32,0,0,1,2.56-2.52c1-.68,2.1-1.28,2.57-2.48a5.45,5.45,0,0,0,.27-1.16,36.39,36.39,0,0,0-1.23-16.21"/><path class="cls-5" d="M142.82,63.21l-2.2-1.49a7.22,7.22,0,0,1,.8,5.7L139.75,65l-.18,3.17c-2.14,9.78-12.53,12.78-13.82,13.12h0l-.09,0A20.13,20.13,0,0,0,131.86,92c5.09,4.3,8.33,11.23,8.33,11.23l-1.67-.26c2.45,4,2.72,10.69,2.72,10.69,1.4,16.58-8.6,27.28-13.07,29.66a17.33,17.33,0,0,0-7.81,8.51c-1,2.45-5.7,4.2-6.58,1.31s-2.36-3.25-2.36-3.25l-9.13-.08s.36,4.73-4.56,4.2-3.68-6.66-8.33-9.38S74.49,131.28,72.65,120c-1.79-11,1.41-17.15,1.57-17.45l-1.92,1.39c1.13-6.4,9-13.24,12.19-17.11a22.19,22.19,0,0,0,4-9.29,4.89,4.89,0,0,1-1-.48,24.16,24.16,0,0,1-6-5.83c-4.39-5.53-3.6-12.73-3.6-12.73l-2,2.38c-1.13-4.74,2.2-6.85,2.2-6.85l-2.28.62c.44-4.57,4-5.44,4-5.44l-3.15.18c.78-3.42,4.82-4.57,4.82-4.57A35,35,0,0,1,91.16,29c5.44-5.36,17.19-7.64,17.19-7.64L105.8,18.3l4.31,2a5.39,5.39,0,0,1-.27-6.05s1,6.14,4.91,7.36S121,23.57,121,23.57c20.61,8.24,20.26,29.21,20.26,29.21a24.11,24.11,0,0,1,1.58,6.13,5.34,5.34,0,0,0-2.2-1.4C142.73,61.54,142.82,63.21,142.82,63.21Z"/><path class="cls-6" d="M142.82,63.21l-2.2-1.49a7.22,7.22,0,0,1,.8,5.7L139.75,65l-.18,3.17c-2.14,9.78-12.53,12.78-13.82,13.12h0C108.45,83,96.12,80.54,87.56,77a24.16,24.16,0,0,1-6-5.83c-4.39-5.53-3.6-12.73-3.6-12.73l-2,2.38c-1.13-4.74,2.2-6.85,2.2-6.85l-2.28.62c.44-4.57,4-5.44,4-5.44l-3.15.18c.78-3.42,4.82-4.57,4.82-4.57A35,35,0,0,1,91.16,29c5.44-5.36,17.19-7.64,17.19-7.64L105.8,18.3l4.31,2a5.39,5.39,0,0,1-.27-6.05s1,6.14,4.91,7.36S121,23.57,121,23.57c20.61,8.24,20.26,29.21,20.26,29.21a24.11,24.11,0,0,1,1.58,6.13,5.34,5.34,0,0,0-2.2-1.4C142.73,61.54,142.82,63.21,142.82,63.21Z"/><path class="cls-7" d="M101.84,30c-.35,0-6.56,1.27-7.47,4.92,0,0,4.9-3.77,8.08-3Z"/><path class="cls-7" d="M121.09,30.9c.34,0,6.35,2,6.83,5.77,0,0-4.42-4.33-7.67-3.92Z"/><ellipse class="cls-8" cx="101.44" cy="44.32" rx="6.45" ry="7.89"/><path class="cls-7" d="M107.9,44.32c.18,6.5-6.81,11.37-11.58,5.55-3.77-4.56-1.46-13.67,5.12-13.69,4.1.17,6.51,4.43,6.46,8.14Zm0,0c.08-3.62-2.55-7.76-6.46-7.64-7.89.63-7.89,14.66,0,15.28,3.91.12,6.54-4,6.46-7.64Z"/><ellipse class="cls-8" cx="121.29" cy="45.78" rx="6.45" ry="7.89"/><path class="cls-7" d="M114.83,45.78c-.07,3.62,2.55,7.76,6.46,7.64,7.89-.63,7.89-14.66,0-15.28-3.9-.12-6.53,4-6.46,7.64Zm0,0c-.18-6.5,6.82-11.38,11.58-5.55,3.77,4.56,1.46,13.66-5.12,13.68-4.1-.16-6.51-4.42-6.46-8.13Z"/><ellipse class="cls-9" cx="102.16" cy="46.5" rx="3.99" ry="4.6"/><ellipse class="cls-10" cx="103.54" cy="44.71" rx="1.6" ry="1.84"/><ellipse class="cls-9" cx="120.76" cy="48.08" rx="3.99" ry="4.6"/><ellipse class="cls-10" cx="122.13" cy="46.28" rx="1.6" ry="1.84"/><path class="cls-11" d="M96.24,57a36.93,36.93,0,0,0,10.44-4.57c4.91-3.24,8.16-.35,11.84,3.16s6.75,3.69,6.75,3.69-6,3.77-7.89,6.31-7.63,7.81-14.91-.79S96.24,57,96.24,57Z"/><path class="cls-12" d="M96.37,56.51c7.25,6.4,15.78,6.76,24.69,4.07,1.24-.32,2.45-.75,3.66-1.18l0,.09c-6.75,3.4-15.29,5.32-22.34,1.74a20.69,20.69,0,0,1-6.14-4.65l.08-.07Z"/></svg>