<svg id="Layer_1" data-name="Layer 1" xmlns="http://www.w3.org/2000/svg" viewBox="0 0 154.24 100.59"><defs><style>.cls-1,.cls-4{fill:#f8f6f0;}.cls-1,.cls-5{stroke:#7f796a;stroke-miterlimit:10;}.cls-2{fill:#7e57a3;}.cls-3{fill:#12170d;}.cls-5{fill:#fe4786;}</style></defs><path class="cls-1" d="M72.7,48a41.69,41.69,0,0,1-1.31,10.46q-.31,1.29-.72,2.55C66,75.47,53.76,85.79,39.4,85.79c-13.61,0-25.3-9.27-30.46-22.55-.12-.3-.24-.61-.35-.92A42,42,0,0,1,6.11,48C6.11,27.13,21,10.21,39.4,10.21S72.7,27.13,72.7,48Z"/><ellipse class="cls-2" cx="48.08" cy="51.38" rx="18.97" ry="21.54"/><ellipse class="cls-3" cx="48.67" cy="50.8" rx="6.84" ry="7.77"/><ellipse class="cls-4" cx="55.51" cy="45.21" rx="5.56" ry="6.31"/><path class="cls-1" d="M137.19,47.19a39.41,39.41,0,0,1-1,8.71c-.09.39-.18.77-.29,1.15-3.74,14.47-15.53,25-29.49,25-13.54,0-25-9.93-29.14-23.74a38.25,38.25,0,0,1-1-4.47,39.65,39.65,0,0,1-.56-6.69c0-19.27,13.76-34.9,30.74-34.9S137.19,27.92,137.19,47.19Z"/><ellipse class="cls-2" cx="114.46" cy="50.31" rx="17.52" ry="19.89"/><ellipse class="cls-3" cx="115" cy="49.78" rx="6.32" ry="7.17"/><ellipse class="cls-4" cx="121.32" cy="44.62" rx="5.14" ry="5.83"/><path class="cls-5" d="M72.7,48a41.69,41.69,0,0,1-1.31,10.46c-2.1.89-4.19,1.68-6.26,2.39a99.72,99.72,0,0,1-30.9,5.23A101.63,101.63,0,0,1,8.94,63.24c-.12-.3-.24-.61-.35-.92A42,42,0,0,1,6.11,48C6.11,27.13,21,10.21,39.4,10.21S72.7,27.13,72.7,48Z"/><path class="cls-5" d="M137.19,47.19a39.41,39.41,0,0,1-1,8.71c-.09.39-.18.77-.29,1.15-1.81.46-3.61.86-5.41,1.22a137.12,137.12,0,0,1-31.05,2.34A154.89,154.89,0,0,1,77.3,58.35a38.25,38.25,0,0,1-1-4.47,39.65,39.65,0,0,1-.56-6.69c0-19.27,13.76-34.9,30.74-34.9S137.19,27.92,137.19,47.19Z"/></svg>