<svg id="Layer_1" data-name="Layer 1" xmlns="http://www.w3.org/2000/svg" viewBox="0 0 223.53 199.06"><defs><style>.cls-1{fill:#c34804;stroke:#7c320d;}.cls-1,.cls-18,.cls-2,.cls-5{stroke-miterlimit:10;}.cls-2{fill:#fcf200;stroke:#a89c0b;}.cls-3{fill:#fec119;}.cls-4{fill:#f2a905;}.cls-5{fill:#ff7e2a;stroke:#af440e;}.cls-6{fill:#ff631e;}.cls-7{fill:#ffe632;}.cls-8{fill:#ffd713;}.cls-9{fill:#fd1441;}.cls-10{fill:#fb6010;}.cls-11{fill:#fde664;}.cls-12{fill:#febe42;}.cls-13{fill:#f9f2f2;}.cls-14{fill:#683c3c;}.cls-15{fill:#30252b;}.cls-16{fill:#fff;}.cls-17{fill:#dc0604;}.cls-18{fill:#d10409;stroke:#a30814;}.cls-19{fill:#8c0606;}</style></defs><path class="cls-1" d="M94.66,142.39s-3.76,3.07-5.23,26.14c0,0-6.59.11-6.71.91s6.59,1.93,6.59,1.93,4.55,9.09,6.25,10.46,3,.11-2-7.85c0,0,3.29,1.48,7.27,3.75,0,0,3.18.46-3.63-5.11,0,0,.9-1,6.25.57,0,0,6-1.48-10.69-4.32a44.74,44.74,0,0,1,5.8-23.64C105.34,133.18,94.66,142.39,94.66,142.39Z"/><path class="cls-1" d="M127.74,144s-3.12,3.71-.31,26.66c0,0-6.45,1.33-6.42,2.13s6.84.68,6.84.68,6.15,8.1,8.07,9.12,2.93-.43-3.46-7.33c0,0,3.52.85,7.85,2.35,0,0,3.21-.15-4.52-4.36,0,0,.7-1.17,6.24-.59,0,0,5.65-2.57-11.29-2.27a44.76,44.76,0,0,1,1.32-24.31C136.54,133,127.74,144,127.74,144Z"/><path class="cls-2" d="M42.38,68.86S35.22,57.72,29,56.7s-2.27,5.91,0,8c0,0-10.91-5.8-14.43-.91S25.78,74.31,25.78,74.31,12,73.74,12.26,79.77s8.29,6.13,14.2,5.79c0,0-12,3.3-9.43,8.75s14-1.25,14-1.25-3.64,3.64-.8,5.12,7.62-1.14,9.32-5.91S42.38,68.86,42.38,68.86Z"/><path class="cls-3" d="M41.58,69s0-.09-.15-.24c-.78-1.17-4.32-6.27-8-7.37-4.21-1.25-3.64,2.84-.34,5.68,0,0-7.85-3.18-10.35.11s7.73,8,7.73,8-9.89,0-9.89,4.43,10.69,4.2,10.69,4.2S24,86.13,23.51,91.13,35.56,89.2,35.56,89.2s-4.55,4-3,6.25,6.48.11,7.28-3.64S41.58,69,41.58,69Z"/><path class="cls-4" d="M41,68.63s-7.27-6.48-4.89.91c0,0-5.45-1.25-4.09,2.5s3.75,4.09,3.75,4.09-5.45.57-6.59,3.86c0,0,.34,3,6,2.28a8.37,8.37,0,0,0-3.53,4.54c-.79,3,5.68,1.25,5.68,1.25s-3.86,3.07-1.47,4.32a3.26,3.26,0,0,0,4-.57S33.28,78.06,41,68.63Z"/><path class="cls-5" d="M181.88,90c-.15,2.71-1.07,4.63-1.56,7.42a62.64,62.64,0,0,1-3.66,12.69,60.38,60.38,0,0,1-16.14,22.54C130,159.73,90.9,159.61,51.35,111.2l-.79-1.42S36.92,91.54,36.92,73.13a4.75,4.75,0,0,1,.09-.79c.41-2.18,2.84-8,17-5.18,13.79,2.73,36.33,7.32,60.34.28q2.84-.82,5.7-1.89h0A82.86,82.86,0,0,0,130.18,61c.74-.38,1.47-.78,2.21-1.19,0,0,.3-.95,1.93-9.65,1.69-9-1.24-27.91,18.71-29.83,19.32-1.85,22.53,20,26,31.77,1.94,6.53,2.15,15.11,3.18,24C182.74,80.49,182.17,85,181.88,90Z"/><path class="cls-6" d="M176.66,110.21a60.33,60.33,0,0,1-16.14,22.55c-30.52,27.1-69.62,27-109.17-21.43l-.79-1.42S36.92,91.67,36.92,73.26a4.69,4.69,0,0,1,.09-.78c3.24,11.36,16.29,47.9,52.93,61.64C129.18,148.83,162.63,126.2,176.66,110.21Z"/><path class="cls-7" d="M132.22,106.13c-.35,4.44-1,25.41-42.79,18.75a50.59,50.59,0,0,1-20.49-9.76A39.13,39.13,0,0,1,57,99.31a8.16,8.16,0,0,1-.52-2.94c.09-2,1.35-4.12,6.82-2.86-.28-.17-5.72-3.48-3.22-6.64a4.11,4.11,0,0,1,5.53-1.25C65.09,85.2,62,82.75,64,80.73c1.29-1.28,6.37.24,12.31,1.55,4.29,1,9,1.78,13.1,1.35,9.71-1,27.61-3.41,35.12,3.92a29.76,29.76,0,0,1,4.37,5.31A20.83,20.83,0,0,1,132.22,106.13Z"/><path class="cls-8" d="M132.22,106.13c-.35,4.44-1,25.41-42.79,18.75a50.59,50.59,0,0,1-20.49-9.76,5.5,5.5,0,0,1,4-2.47c-1.75-.87-3.74-2.07-3.88-4a3.83,3.83,0,0,1,2-3.37A11.5,11.5,0,0,1,75,104a9.44,9.44,0,0,1-3.17-1.5,3.26,3.26,0,0,1-1.27-3.1c.45-1.93,2.92-2.5,4.89-2.43-2.26-.32-3.43-3.34-2.36-5.37s3.64-2.9,5.89-2.53c-2.13-.56-4.54-3.87-3.28-6.13a2.13,2.13,0,0,1,.64-.67c4.29,1,9,1.78,13.1,1.35,9.71-1,27.61-3.41,35.12,3.92a29.76,29.76,0,0,1,4.37,5.31A20.83,20.83,0,0,1,132.22,106.13Z"/><path class="cls-9" d="M132.22,106.13c-.35,4.44-1,25.41-42.79,18.75,0,0-23.7-4.26-32.4-25.57a8.16,8.16,0,0,1-.52-2.94c12.28,22.82,47.6,29.29,63.09,21.87,12-5.74,10.81-18.8,9.32-25.38A20.83,20.83,0,0,1,132.22,106.13Z"/><path class="cls-10" d="M181.87,83.37a71.76,71.76,0,0,1-.7,8.14c-7.73-.69-10.48-8-10.48-8s-1.41,3.39-10.77,3.67-10.29-7.89-10.29-7.89-3.41,3.28-12.5,1.88-7.33-10.17-7.33-10.17c-12.83,1.07-13.05.26-12.51-3.49a20.46,20.46,0,0,0,2.83-.88l3.79-1.33c3.28-1.32,5.37-3.53,8.65-5.38.71-.4.17-.1.88-.53,0,0,1.7-8.58,2.42-17.25.9-11,3.2-19.63,15.9-20.52,16.9-1.17,19.77,17,24.12,28.25A92.49,92.49,0,0,1,181,69.54,79.42,79.42,0,0,1,181.87,83.37Z"/><path class="cls-11" d="M181.87,83.37c-7.66,1-10.92-6.23-10.92-6.23s-1.86,4.91-10.74,4.84-8.78-8.11-8.78-8.11-5.39,4.85-12.49,2.38-5.31-9.55-5.31-9.55c-12,1.79-11.68,1.75-10.51-1.52h0a82.87,82.87,0,0,0,9.7-4.86c.71-.39,1.77-3.72,2.47-4.14a11.74,11.74,0,0,0,5.18-12.62c-1.93-8.49-4.09-21.26,12.77-22.93S172,38.43,176.32,49.69c1.5,3.87,3,12.1,4.31,20.8C181.25,74.76,182,78.48,181.87,83.37Z"/><path class="cls-12" d="M180.87,69.36c-4.92,2.68-13-.78-13-.78-9.38,5.63-14.09-.75-14.09-.75C142,70,140.74,61.68,140.74,61.68c-7.28.31-6.62-1-7-3.3.71-.39-1.59,2.37-.89,1.94,0,0,1.34-5.86,2.37-12.31,1.45-9-1-20,9-23.9,1.62-.64,3.8-2.89,6.15-3.12a37,37,0,0,1,8.48,0c11.73,2.37,14.26,16.82,18,26.42C178.31,51.26,179.6,60.67,180.87,69.36Z"/><ellipse class="cls-13" cx="149.17" cy="39.57" rx="5.54" ry="6.66" transform="translate(-4.3 23.34) rotate(-8.82)"/><path class="cls-14" d="M154.7,38.71a8.08,8.08,0,0,1-.65,4.74,5.54,5.54,0,0,1-3.78,3.17,5.77,5.77,0,0,1-5-1.43,8,8,0,0,1-1.52-9.8,5.82,5.82,0,0,1,4.32-2.88,5.55,5.55,0,0,1,4.56,1.87A8.07,8.07,0,0,1,154.7,38.71Zm-.1,0a7.47,7.47,0,0,0-2.12-4.17,4.86,4.86,0,0,0-8,1.25,7.64,7.64,0,0,0,1.36,8.76,4.85,4.85,0,0,0,8-1.22A7.45,7.45,0,0,0,154.6,38.72Z"/><ellipse class="cls-15" cx="148.1" cy="39.3" rx="3.61" ry="4.66" transform="translate(-3.79 19.08) rotate(-7.28)"/><ellipse class="cls-16" cx="149.9" cy="37.47" rx="1.23" ry="1.58" transform="matrix(0.99, -0.13, 0.13, 0.99, -3.54, 19.29)"/><ellipse class="cls-13" cx="164.85" cy="39.34" rx="5.54" ry="6.66" transform="translate(-4.08 25.74) rotate(-8.82)"/><path class="cls-14" d="M170.38,38.48a8.11,8.11,0,0,1-.65,4.75A5.54,5.54,0,0,1,166,46.4,5.8,5.8,0,0,1,161,45a8,8,0,0,1-1.52-9.81,5.8,5.8,0,0,1,4.32-2.87,5.55,5.55,0,0,1,4.56,1.87A8,8,0,0,1,170.38,38.48Zm-.1,0a7.44,7.44,0,0,0-2.12-4.17,4.85,4.85,0,0,0-8,1.24,7.65,7.65,0,0,0,1.36,8.77,4.85,4.85,0,0,0,8-1.22A7.46,7.46,0,0,0,170.28,38.5Z"/><ellipse class="cls-15" cx="163.78" cy="39.08" rx="3.61" ry="4.66" transform="matrix(0.99, -0.13, 0.13, 0.99, -3.63, 21.06)"/><ellipse class="cls-16" cx="165.58" cy="37.25" rx="1.23" ry="1.58" transform="translate(-3.38 21.28) rotate(-7.28)"/><path class="cls-17" d="M146.59,28.29a4.58,4.58,0,0,1,2.88-.37.85.85,0,0,1,.64.46.92.92,0,0,1,0,.37,2.11,2.11,0,0,1-.24.88,1.9,1.9,0,0,1-1.2.79,14.41,14.41,0,0,1-1.47.19,6.35,6.35,0,0,0-1.86.56,3.07,3.07,0,0,1-1.38.47c-.36,0-.89-.34-.86-.75s.61-.77.87-1A9.38,9.38,0,0,1,146.59,28.29Z"/><path class="cls-17" d="M164.22,28.57a5,5,0,0,0-3.06-.19.94.94,0,0,0-.67.5.93.93,0,0,0,0,.37,1.85,1.85,0,0,0,.27.87,1.88,1.88,0,0,0,1.29.73c.51.08,1,.06,1.55.1a6.64,6.64,0,0,1,2,.45,3.2,3.2,0,0,0,1.47.39c.38,0,.93-.4.89-.81s-.65-.74-.93-.95A9.53,9.53,0,0,0,164.22,28.57Z"/><path class="cls-18" d="M158.18,14.48a1.64,1.64,0,0,0,.95-.54,8.65,8.65,0,0,0,1.55-2.1c.31-.6.66-1.33,1.34-1.44a1.84,1.84,0,0,1,.8.12,2,2,0,0,1,1.08.68,2.19,2.19,0,0,1,.25,1.16,9.81,9.81,0,0,1-.39,4,5,5,0,0,0-.73,2.42,5.63,5.63,0,0,0,3.45-2.46c.12-.19.25-.41.46-.48a.65.65,0,0,1,.34,0,1.36,1.36,0,0,1,.84.77,3.93,3.93,0,0,1,.3,1.13l.15,1a11.22,11.22,0,0,1,.16,1.42,5.27,5.27,0,0,1-1.88,4.1,2.49,2.49,0,0,1-.86.5,2.21,2.21,0,0,1-1.51-.2,13.78,13.78,0,0,1-1.33-.8,18.2,18.2,0,0,0-5-1.85c.08.12-.14.22-.29.2-1.76-.19-3.48-.95-5.25-.75a10.25,10.25,0,0,0-1.94.5A23.5,23.5,0,0,0,145,24.21a9.61,9.61,0,0,1-1.23.75c-.85.38-1.81.39-2.69.69a12.6,12.6,0,0,0-2.69,1.53,4.72,4.72,0,0,1-2.91.91A4.48,4.48,0,0,1,133,26.63a5.71,5.71,0,0,1-1.7-2.9,4.49,4.49,0,0,1,.92-3.43,7.08,7.08,0,0,1,2.9-2.16,4.56,4.56,0,0,0,1.16-.6c.33-.29.55-.69.87-1a3.31,3.31,0,0,1,3-.64A31,31,0,0,1,143.22,17c.22.07.53.1.63-.11a.51.51,0,0,0,0-.38,6.26,6.26,0,0,0-1.44-2.29c-.66-.66-1.46-1.16-2.15-1.8A3.51,3.51,0,0,1,139,10a3,3,0,0,1,1.81-2.56A6.58,6.58,0,0,1,144,7a11,11,0,0,1,4,1,6.18,6.18,0,0,1,3,2.78,5.58,5.58,0,0,0,1,1.82,19.92,19.92,0,0,1,1.45-3.23,17.87,17.87,0,0,0,.83-2.14,1.09,1.09,0,0,1,.55-.71c.39-.13.77.22,1,.52a13.15,13.15,0,0,1,1,1.25,7.4,7.4,0,0,1,.63,1.37A11,11,0,0,1,158.18,14.48Z"/><path class="cls-17" d="M149.67,49.71s.15,8.38,8.19,18.16c0,0,2,1.81,3.71-6.75,1.46-7.47-3.68-13.21-9.15-13.3C151.62,47.81,150.45,49.56,149.67,49.71Z"/><path class="cls-19" d="M150.88,49.27s.15,8.37,8.2,18.15c0,0,1.25.38,2.91-8.18S157,48,150.88,49.27Z"/><path class="cls-17" d="M152.42,47.82l5-2s5.41,1.5,8.54,3.76c2.38,1.72-3,12.43-5,17.82-.34.9.45-.18,0,0-1.74.74-5.41-9.56-10-16.1C150.09,50.05,151.18,48.29,152.42,47.82Z"/><ellipse class="cls-19" cx="162.98" cy="50.79" rx="1.4" ry="0.68" transform="translate(109.19 212.81) rotate(-88.94)"/><ellipse class="cls-19" cx="153.66" cy="51.22" rx="1.4" ry="0.68" transform="translate(99.61 203.91) rotate(-88.94)"/></svg>