<svg xmlns="http://www.w3.org/2000/svg" xmlns:xlink="http://www.w3.org/1999/xlink" width="207.05" height="238.29" viewBox="0 0 207.05 238.29">
  <defs>
    <style>
      .cls-1, .cls-15, .cls-19, .cls-21, .cls-33, .cls-35, .cls-39, .cls-43, .cls-44 {
        fill: none;
      }

      .cls-2 {
        isolation: isolate;
      }

      .cls-3 {
        fill: #775b24;
      }

      .cls-4 {
        fill: #24180e;
      }

      .cls-5, .cls-6 {
        mix-blend-mode: multiply;
        opacity: 0.5;
      }

      .cls-5 {
        fill: url(#linear-gradient);
      }

      .cls-6 {
        fill: url(#linear-gradient-2);
      }

      .cls-7 {
        fill: #734626;
      }

      .cls-8, .cls-9 {
        opacity: 0.39;
      }

      .cls-8 {
        fill: url(#linear-gradient-3);
      }

      .cls-9 {
        fill: url(#linear-gradient-4);
      }

      .cls-10 {
        fill: #906c29;
      }

      .cls-11 {
        clip-path: url(#clip-path);
      }

      .cls-12, .cls-17 {
        fill: #bb7c2a;
      }

      .cls-13 {
        fill: #bb6d29;
      }

      .cls-14, .cls-34, .cls-36 {
        fill: #ffdcae;
      }

      .cls-14, .cls-15, .cls-35, .cls-36, .cls-39, .cls-43 {
        stroke: #8a5121;
      }

      .cls-14, .cls-15, .cls-17, .cls-19, .cls-21, .cls-33, .cls-35, .cls-36, .cls-38, .cls-39, .cls-43, .cls-44 {
        stroke-miterlimit: 10;
      }

      .cls-16 {
        fill: #fcbd72;
      }

      .cls-17, .cls-38 {
        stroke: #bb7c2a;
      }

      .cls-18 {
        fill: #df7f26;
      }

      .cls-19, .cls-21 {
        stroke: #231f20;
      }

      .cls-20 {
        fill: #f3d9ab;
      }

      .cls-21, .cls-43 {
        stroke-width: 0.25px;
      }

      .cls-22 {
        fill: #f6f6f6;
      }

      .cls-23 {
        fill: #3e3224;
      }

      .cls-24 {
        fill: #fff;
      }

      .cls-25 {
        fill: #8a5121;
      }

      .cls-26 {
        fill: #231f20;
      }

      .cls-27 {
        fill: #ae6327;
      }

      .cls-28 {
        fill: #87441e;
      }

      .cls-29 {
        fill: #9e4a23;
      }

      .cls-30 {
        fill: #f27070;
      }

      .cls-31, .cls-32 {
        fill: #f2dcad;
      }

      .cls-31 {
        mix-blend-mode: screen;
        opacity: 0.2;
      }

      .cls-33 {
        stroke: #7f1416;
      }

      .cls-35, .cls-36 {
        stroke-width: 0.5px;
      }

      .cls-37 {
        fill: #911a1d;
      }

      .cls-38 {
        fill: #cb832a;
      }

      .cls-39 {
        stroke-width: 0.75px;
      }

      .cls-40 {
        fill: #7e1416;
      }

      .cls-41 {
        fill: #ce4746;
      }

      .cls-42 {
        fill: #56100f;
      }

      .cls-44 {
        stroke: #513016;
      }

      .cls-45 {
        clip-path: url(#clip-path-2);
      }
    </style>
    <linearGradient id="linear-gradient" x1="-2453.27" y1="170.1" x2="-2518.77" y2="166.16" gradientTransform="matrix(-1, -0.05, -0.05, 1, -2332.87, -104.47)" gradientUnits="userSpaceOnUse">
      <stop offset="0" stop-color="#563729"/>
      <stop offset="0.15" stop-color="#845b3e"/>
      <stop offset="0.3" stop-color="#ac794f"/>
      <stop offset="0.43" stop-color="#c48c5a"/>
      <stop offset="0.5" stop-color="#cd935e"/>
      <stop offset="0.64" stop-color="#ca8f5b"/>
      <stop offset="0.78" stop-color="#c08252"/>
      <stop offset="0.93" stop-color="#af6e43"/>
      <stop offset="1" stop-color="#a5613a"/>
    </linearGradient>
    <linearGradient id="linear-gradient-2" x1="-2443.41" y1="161.78" x2="-2517.95" y2="157.29" xlink:href="#linear-gradient"/>
    <linearGradient id="linear-gradient-3" x1="-2509.94" y1="140.3" x2="-2423.18" y2="140.3" gradientTransform="matrix(-1, -0.05, -0.05, 1, -2332.87, -104.47)" gradientUnits="userSpaceOnUse">
      <stop offset="0" stop-color="#542d29"/>
      <stop offset="0.15" stop-color="#462524"/>
      <stop offset="0.44" stop-color="#31191c"/>
      <stop offset="0.73" stop-color="#241217"/>
      <stop offset="0.99" stop-color="#201015"/>
    </linearGradient>
    <linearGradient id="linear-gradient-4" x1="-2518.94" y1="88.59" x2="-2442.19" y2="88.59" xlink:href="#linear-gradient-3"/>
    <clipPath id="clip-path">
      <path class="cls-1" d="M165.09,69c1.89,9,8.61,42.73-.7,73.46l-3.79,4.08-57.74,2.81L15.62,117.25,22.3,64.57,63.9,53.14Z"/>
    </clipPath>
    <clipPath id="clip-path-2">
      <path class="cls-1" d="M273.57,75.14c-.6-.14-6,36-.14,57.38,5.75,21,33.39,16.88,33.39,16.88l75.89-2.19s48-24.48,38.65-60.68S368.77,42,343.21,59.72,273.57,75.14,273.57,75.14Z"/>
    </clipPath>
  </defs>
  <g class="cls-2">
    <g id="Layer_1" data-name="Layer 1">
      <g>
        <g>
          <path class="cls-3" d="M104.55,80.8s1.22,32.13,2.66,52.89,10,20.09,22.2,23.34,29.7,1.44,35.89.39,10.79-6.68,11.52-30.52.33-44.47-4-71.59-37.53-27.94-46.31-22.19C111.47,43,110,46.38,104.55,80.8Z"/>
          <path class="cls-4" d="M168.87,114.28c-2.46,29.29-5.37,37.57-20.88,39-1.44.13-14.16,2.75-15.57,2.72-13.81-.23-18.6-10.07-20.72-25.14-6.12-43.31,2.23-74,2.23-74,5.39-13.67,11.75-16.51,20.31-18.77s9.44-.49,18.72,1.68c4.18,1-4.81,1.46.56,4.1C164.42,49.19,170.7,92.47,168.87,114.28Z"/>
          <path class="cls-5" d="M174.92,141.58s-9,20.33-38.84,11.83c-2.71-.77-5.53,0-8.27.62-9.78,2.38-9.13,2.11-18.33.69,0,0-1.25,4.08,24.85,20.93,3.55,2.3.93,18.55,1.74,24.5C137,207,139.26,216.42,144,216c4.43-.37,13,6.07,16.46-19.25,1-7.43.24-23,4.81-25.66C173.77,166.07,174.12,158.07,174.92,141.58Z"/>
          <path class="cls-6" d="M161.43,165.85c-4.23,2-5.64,6.7-7.19,12.14-1.73,6-.65,21.36-7.38,19.76s-8.16-18.09-9.07-23.26c-.79-4.5-12.92-4-16.23-5.75-4.94-2.64-5.72-9.7-8.93-12.15,11.87.68,21.1,1.43,27.11.3a86.84,86.84,0,0,1,9.66-.85c21.9-1,24.78-13.57,24.78-13.57,0,.42.08.84.11,1.25C172.62,154.41,167.83,162.82,161.43,165.85Z"/>
          <path class="cls-7" d="M167.53,151.17c5.63,2.59-61.41,14.24-83.39-5.17,0,0-16.27-9.86,30.8-6.89C158.73,145.16,170.07,139.59,167.53,151.17Z"/>
          <path class="cls-8" d="M84.19,144.56c25.9,16.36,79.08,8.51,83.46,3.61.47.53-.06,2.9-.13,3.25,5.63,2.58-61.41,14.24-83.39-5.18,0,0-3.69-2.23-2.47-4.25A7.25,7.25,0,0,0,84.19,144.56Z"/>
          <path class="cls-9" d="M162.58,154.24c6.19-1.05,10.79-6.67,11.51-30.52s0-39.24-4.39-66.36c-2-12.28-3.14-14.18-10-19.31,8.67,4.74,11.57,7.29,13.91,21.84C178,87,178.75,102.41,178,126.25s-5.32,29.47-11.51,30.52-14.54,4.53-39.9,4.61c-2.78,0-24.58-5.91-26.68-7.69,1.08.52,22,3.2,25.18,3.3C137.52,157.41,156.39,155.29,162.58,154.24Z"/>
          <path class="cls-10" d="M168.08,143.75s-18.05,16.1-83.89.78c0,0-16.26-9.85,30.81-6.88Z"/>
        </g>
        <g class="cls-11">
          <g>
            <path class="cls-12" d="M98.48,105.57h0a28.08,28.08,0,0,1-4,14.62,22.19,22.19,0,0,1-1.59,2.27,25.51,25.51,0,0,1-5.25,5l-1,.73c-2.64-.21-4.51,0-8.45-1.63a16.52,16.52,0,0,1-10.3-14.73c-.19-4-.34-7.71-3-11.14a13.24,13.24,0,0,0-1.09-1.23,14.73,14.73,0,0,0-3.6-2.61c.65.64,5.41,5.44,4.61,12.16-.75,6.24-5.74,9.56-7.32,10.61-6.76,4.52-16.4,4.15-22.62.45C24,113.58,20.31,95.13,26.37,80.59A33.18,33.18,0,0,1,29.3,75C37,63.25,51.9,57.57,64.78,60,78.28,62.56,86,73.35,87,74.78,94.85,85.69,92.77,96,97,103.45A15.24,15.24,0,0,0,98.48,105.57Z"/>
            <path class="cls-13" d="M107.34,123.6a33.8,33.8,0,0,1-29.14,2.91A25.7,25.7,0,0,0,100,101.29a15.81,15.81,0,0,0,2.51,2.45,39.86,39.86,0,0,0,2.1,13.93A32.59,32.59,0,0,0,107.34,123.6Z"/>
            <path class="cls-14" d="M96.36,104.08c-.66.39-2.58-1.74-3.21-2.46-5-5.51-9.64-18.52-14.58-24.47-8.1-9.76-23.63-8.72-26.42-8.53a38.77,38.77,0,0,0-25.67,12.6,33.77,33.77,0,0,1,2.9-5.56,35,35,0,0,1,35.08-15c13.35,2.56,21,13.35,22,14.78C94.2,86.32,92.14,96.58,96.36,104.08Z"/>
            <path class="cls-15" d="M96.36,104.08c-.66.39-2.58-1.74-3.21-2.46-5-5.51-9.64-18.52-14.58-24.47-8.1-9.76-23.63-8.72-26.42-8.53a38.77,38.77,0,0,0-25.67,12.6"/>
            <path class="cls-16" d="M212.06,103.94c-.65,1.1-1.45,2.31-2.42,3.77-2,.51-9.72,2-11-2.51h0c3.67-2,2.08-5.11.59-6.49l-.16-.14a2.47,2.47,0,0,0-1.12-.65,16,16,0,0,0-1.68-.18,43.58,43.58,0,0,1,8.31-.36c-.16.66-.24,1.54.26,1.92C205.67,99.92,211.29,100.89,212.06,103.94Z"/>
            <path class="cls-12" d="M182.33,74.88c.17-.35,4.61-11.09,10-9.46,2.15,1.35-1.55,8.82-1.55,8.82Z"/>
            <path class="cls-17" d="M213.69,99.06a13.5,13.5,0,0,0-2,.13A18.42,18.42,0,0,0,205,97.42l-.57,0h0a43.63,43.63,0,0,0-8.23.36h0a17.76,17.76,0,0,0-2.73.06,9.18,9.18,0,0,0,4.82-7.18c.45-5.37-4.23-10-9.44-10.16s-10.23,4-10.2,9.39c0,5,4.51,9,9.29,9.27q-.88.33-1.71.69l-.23.1a37.94,37.94,0,0,0-8.25,5.12l-.08.07c-1-1.45-2-2.9-3-4.27-7.33,1.71-6.8,9.07-6.76,9.38-7.51-2-3.83-12.16-3.59-12.5-1.72.58-2.92,3.76-3.36,3.76s-1-3.13,1.68-6.13a14.38,14.38,0,0,0,2.73-2.73h0a19.86,19.86,0,0,0,3.26-8,3.15,3.15,0,0,1,.87-1.3c1.11-1.13,3.3-2.65,7-5.84l.32-.26a15.39,15.39,0,0,1,5.39-2.45,42,42,0,0,1,8.66-1.28,21.29,21.29,0,0,1,4.67.07c.08.27-1.85,2.26-1.41,2.69s9.54,1.9,15,9.48C211.82,89.32,214.42,94.26,213.69,99.06Z"/>
            <path class="cls-12" d="M186.08,118.31s0,0,0,0c-.35-1.32-3.93-7-7.87-12.67l0,0-.19-.29-.09-.12c-1-1.41-2-2.81-2.92-4.15a2.64,2.64,0,0,0-.73-.2c-2.57-.29-4.81,3.64-5.46,4.8a6.11,6.11,0,0,0-.9,2.63,5.88,5.88,0,0,0,.09,1.67,5.17,5.17,0,0,1-2.8-1.24c-2.87-2.64-1.33-8.38-1-9.53a12.65,12.65,0,0,1,.4-1.25c0-.06.1-.28,0-.33s-.15,0-.21,0a6.57,6.57,0,0,0-1.67,1.28,5.56,5.56,0,0,0-1.43,2.25c0,.07,0,.49-.13.51h0a6.58,6.58,0,0,1-.11-2.16,6.76,6.76,0,0,1,1.88-3.87A14.54,14.54,0,0,0,165,93.65q.36-.41.66-.81a.25.25,0,0,0-.13,0,.13.13,0,0,0-.09,0l-.62.16a23.11,23.11,0,0,1-7.73.39,5.23,5.23,0,0,1-1.41-.36l-.16-.07c-5.32-2.26-11-12.7-20.52-16.71l-.42-.17c-.38-.16-.76-.3-1.16-.43a20.86,20.86,0,0,0-4.95-1h-.09a39.32,39.32,0,0,0-7.66.77c-15.44,3.88-21.29,13.27-21.29,13.27a26.77,26.77,0,0,0-3.87,11.84,34.92,34.92,0,0,0,1.39,14.66s2.74,8.58,9,14.42l.22.2a21.2,21.2,0,0,0,6.4,4.33,4.89,4.89,0,0,1,2.13,1.46c-.2.12-.39.24-.59.38-3.54,2.48-5.77,7.75-3.64,9.13a1.81,1.81,0,0,0,.42.2,4.15,4.15,0,0,0,2.24,0c6.34-1.57,26.49-.84,26.49-.84a7.85,7.85,0,0,0,1.36-.57c3.26-1.81-1-4.3-5.26-6l-.71-.3-.32-.12c-1.45-.57-2.82-1-3.78-1.34l-.18-.06a34.27,34.27,0,0,0,11.82-3.37v.14c.14,6,0,5.27.16,6.05s1,4.11,4.13,5.41l.22.08a6.6,6.6,0,0,0,1.56.37,69.23,69.23,0,0,0,9.2.12c1.7-.07,2.94-.15,3.14-.12s.29-.41.19-1.14c-.3-2.3-3-4.3-5.61-5a8.77,8.77,0,0,0-2.5-.27h0v-.05a19.9,19.9,0,0,1,.87-6.07c.42.08.83.16,1.24.22l.22,0a25.21,25.21,0,0,0,3.32.28h1.19a27.86,27.86,0,0,0,5.36-.68l.09,0c7.41-1.68,12.82-5.91,13.68-7.72a5.42,5.42,0,0,1,.74-1.12c1.82-2.22,5.46-4.09,6.34-4.6h0C186.12,118.48,186.1,118.39,186.08,118.31Z"/>
            <path class="cls-18" d="M168.6,143.35a16.88,16.88,0,0,1-2.71.08c-1.74,0-3.87,0-5-.07-.21-1.41-1.46-3.76-5.78-4.82v-6.28a27.13,27.13,0,0,0,10-.43c-1,1.44-2.31,3.94-1.89,6.42C163.26,138.17,168.44,138.85,168.6,143.35Z"/>
            <path class="cls-16" d="M202.55,113.61a6.79,6.79,0,0,1-1.53,3.2,7.4,7.4,0,0,1-3.5,2.09c-1.73.61-4.37,1.52-6,.14a3.34,3.34,0,0,1-1-1.5h-.09c0-2.22,0-9.9,1.1-10.42,0,.4,0,.89,0,1.42,0,3.22.57,8.2,4.46,7.68a6.24,6.24,0,0,0,2.67-.9,3,3,0,0,0,1-1h0a3.06,3.06,0,0,0,.27-.66h.87C201.36,113.66,202,113.64,202.55,113.61Z"/>
            <line class="cls-19" x1="165.41" y1="92.62" x2="165.41" y2="92.62"/>
            <path class="cls-20" d="M212.31,104.5a8.85,8.85,0,0,0-1.34,1.19,7.82,7.82,0,0,0-1.33,2c-2,.51-9.72,2-11-2.51h0c3.67-2,2.08-5.11.59-6.49l-.16-.14a2.47,2.47,0,0,0-1.12-.65,16,16,0,0,0-1.68-.18,43.58,43.58,0,0,1,8.31-.36,28.75,28.75,0,0,1,3.55.54c1.75.38,2,.6,3.57.93,2.67.55,3.43.23,3.72.79C216,100.71,213.92,103.29,212.31,104.5Z"/>
            <path class="cls-21" d="M202.71,113.57s0,.06,0,.09"/>
            <path class="cls-22" d="M209.55,107.71l-.33.5a28.12,28.12,0,0,1-3.16,3.67,7.47,7.47,0,0,1-2.08,1.53l-1.55.13c-.58,0-1.19.06-1.81.07h-.87c-1.23,0-2.38-.07-3.44-.16a17.74,17.74,0,0,0,.77-8.15s0-.06,0-.08a9.55,9.55,0,0,1,1.41-.1l.07-.05h0l0,.1C199.83,109.68,207.54,108.22,209.55,107.71Z"/>
            <path class="cls-22" d="M191,84.3h-.28c-3.45,0-6.67,2.82-6.65,6.34s3.07,6.05,6.31,6.24H191a6.59,6.59,0,0,0,6.42-5.72C197.75,87.53,194.57,84.44,191,84.3Zm-3.62,7.83a4.21,4.21,0,1,1,8.37.33,4.19,4.19,0,1,1-8.37-.33Z"/>
            <path class="cls-23" d="M191.78,87.62a4.46,4.46,0,0,0-4.37,4.51,4.19,4.19,0,1,0,8.37.33A4.46,4.46,0,0,0,191.78,87.62Zm1.67,4.28a1.49,1.49,0,1,1,1.47-1.36A1.47,1.47,0,0,1,193.45,91.9Z"/>
            <path class="cls-24" d="M194.92,90.54a1.39,1.39,0,1,1-2.78-.11,1.4,1.4,0,1,1,2.78.11Z"/>
            <path class="cls-25" d="M164.83,143.48a5.16,5.16,0,0,0-2.86-4.69,6.11,6.11,0,0,1,2.56,1.69,5.84,5.84,0,0,1,1.3,2.92l-1,.08Z"/>
            <path class="cls-26" d="M199.6,113.34a18.91,18.91,0,0,0,4.18-5.09,19.35,19.35,0,0,1-3.66,5.63l-.52-.54Z"/>
            <path class="cls-12" d="M171.86,85.19c0-.13-11.37-6.2-.83-19.76,1.86-2,4.48-.35,5.82,2.85s-.12,11.18-.52,12Z"/>
            <path class="cls-27" d="M173.14,65.43C164.93,76,170,82,172.67,84.2l-.89,1c0-.13-11.37-6.2-.83-19.76a2.39,2.39,0,0,1,3-.59A2.9,2.9,0,0,0,173.14,65.43Z"/>
            <path class="cls-25" d="M186.12,118.74a21.52,21.52,0,0,1-12-3.41,21,21,0,0,0,11.93,2.41l0,1Z"/>
            <g>
              <path class="cls-28" d="M197.41,106.65c-4.17.54-5.19,4.65-5.45,6.33a19.16,19.16,0,0,1-.49-5.8,18.39,18.39,0,0,1,5.79-2C197.32,105.64,197.38,106.13,197.41,106.65Z"/>
              <path class="cls-29" d="M200,113.67a3,3,0,0,1-1.24,1.7,6.36,6.36,0,0,1-2.7.93c-2.16.32-3.33-1-3.95-2.89-.05-.14-.09-.28-.13-.43.26-1.68,1.28-5.79,5.45-6.33,0,.19,0,.38,0,.58a12.77,12.77,0,0,1,0,1.38,18,18,0,0,1-.93,4.89C197.57,113.6,198.73,113.66,200,113.67Z"/>
              <path class="cls-30" d="M200,113.61a2.87,2.87,0,0,1-1.23,1.7,6.36,6.36,0,0,1-2.71.93,3.12,3.12,0,0,1-3.37-1.62h0s1.28-4.66,4.49-3.74a17.94,17.94,0,0,1-.66,2.57C197.63,113.54,198.8,113.6,200,113.61Z"/>
            </g>
            <path class="cls-31" d="M165.41,92.67l-.11.14c-.2.25-.41.51-.64.76a13.73,13.73,0,0,1-2,1.84c-2.57,2.91-2.17,6-1.74,6.12h0c.47-.2,1.65-3.19,3.31-3.75a.11.11,0,0,0,0,0l0,0,.1,0c-.17.24-2,5.33-.54,9,0,0,0,.1,0,.14l-.09.25s-11.07,1.59-13.89-4.41c-6.2-26.47-37-22.26-37-22.26a13.28,13.28,0,0,0-3.49.15,10,10,0,0,0-1,.22l.43-.34a32.1,32.1,0,0,1,3.46-1.93c.75-.36,1.37-.62,2.62-1.13a38,38,0,0,1,4.74-1.71c.16,0,.77-.2,1.59-.38a28.86,28.86,0,0,1,5.45-.63c.91,0,1.6,0,2.09,0a23.14,23.14,0,0,1,4.48.68l.56.19c.28.09.49.18.73.27l.42.17c9.49,4,15.21,14.45,20.53,16.72l.16.06a5.23,5.23,0,0,0,1.41.36,23.08,23.08,0,0,0,7.72-.38l.63-.17Z"/>
            <path class="cls-32" d="M155.48,127.65s9.07.64,14.25-4.17,9.74-1.68,9.44-.52-3.49,7-14,8.85c-7.88,1.38-10.06.41-11.43,0"/>
            <path class="cls-32" d="M142.15,127.81s-6.94,3.34-12.56,3.75a54.93,54.93,0,0,1-3.57,4.26s4.31.12,4.75.07,9.9-2.17,11.55-3.56C142.26,132.44,142.14,128.46,142.15,127.81Z"/>
            <ellipse class="cls-33" cx="202.35" cy="100.84" rx="0.33" ry="0.42"/>
            <ellipse class="cls-33" cx="202.89" cy="103.19" rx="0.42" ry="0.33" transform="matrix(0.21, -0.98, 0.98, 0.21, 60.16, 280.51)"/>
            <ellipse class="cls-33" cx="201.7" cy="105.2" rx="0.42" ry="0.33" transform="translate(57.25 280.94) rotate(-78.13)"/>
            <path class="cls-34" d="M213.44,98.83h-.09A12.21,12.21,0,0,1,209,96.49c-3.22-2.74-3.09-5.72-7-10.93a28.33,28.33,0,0,0-5.08-5.41c-6.94-5-17.9-.9-21.24.49l.68-1.08c.08-.35.16-.72.24-1.08s.15-.72.22-1.07a12.47,12.47,0,0,1,1-.79A9.9,9.9,0,0,1,182,75h0a5.1,5.1,0,0,0,.71-.16c.78-.16,1.66-.32,2.65-.46.75-.12,1.54-.23,2.35-.32s1.82-.18,2.68-.23,1.49-.12,2.31-.13,1.7,0,2.46.06a15.4,15.4,0,0,0-1.06,1.72,1,1,0,0,0-.1.48.85.85,0,0,0,0,.27c.17.48,2.23,1,2.75,1.12l2.27.9a24.53,24.53,0,0,1,9.81,7.07s.06.07.12.16C211.57,89.1,214.17,94,213.44,98.83Z"/>
            <path class="cls-35" d="M213.29,98.83h-.09a12.21,12.21,0,0,1-4.31-2.34c-3.23-2.74-3.09-5.72-7-10.93a29,29,0,0,0-5.08-5.41c-6.94-5-17.91-.9-21.25.49l.68-1.08c.09-.35.17-.72.25-1.08s.15-.72.22-1.07a9.7,9.7,0,0,1,1-.79A9.81,9.81,0,0,1,181.81,75h0a4.68,4.68,0,0,0,.7-.16c.79-.16,1.66-.32,2.65-.46.76-.12,1.54-.23,2.36-.32s1.82-.18,2.68-.23,1.48-.12,2.3-.13,1.71,0,2.47.06a14,14,0,0,0-1.06,1.72,1.12,1.12,0,0,0-.11.48,1.07,1.07,0,0,0,.06.27c.17.48,2.23,1,2.75,1.12l2.26.9a24.44,24.44,0,0,1,9.81,7.07l.12.16C211.42,89.1,214,94,213.29,98.83Z"/>
            <path class="cls-13" d="M111.13,145.43a3,3,0,0,1-1.37-1h0c-1-1.92,1-6.23,4.11-8.41a5.57,5.57,0,0,1,.57-.37,4.82,4.82,0,0,0-2.08-1.45,20.83,20.83,0,0,1-6.35-4.38l-.13-.12c-8.18-8-10-19.87-10-19.87a28.9,28.9,0,0,1,1.15-15.71,23.76,23.76,0,0,1,4.61-7.83,23.25,23.25,0,0,1,7-5.33c-9.73,19.15-4.55,37.79,5.71,42.86,8.22,4.06,18.44-1.19,20.72-2.43a40.25,40.25,0,0,1-9,14.83c4.29,3,6.24,3.75,7.19,3.82a11.46,11.46,0,0,1,1.57.21,11.62,11.62,0,0,1,2,.6c1.35.55,4,2.1,3.8,3s-3.27.84-7.6,1.15C133.08,145,113.79,146.39,111.13,145.43Z"/>
            <path class="cls-25" d="M174.79,100.84a8.72,8.72,0,0,0-6.34,10,6.6,6.6,0,0,1-5.57-5.72A14.29,14.29,0,0,1,164,97.44l.53.73c-1.13.37-2,2-2.73,3-.2.25-.34.54-.69.64s-.7-.42-.72-.59a7.12,7.12,0,0,1,2.15-6c.88-.74,1.76-1.5,2.58-2.31a4.73,4.73,0,0,0,.74-.87,5.53,5.53,0,0,1-.64,1c-.72.85-1.64,1.78-2.37,2.49-1.29,1.48-2.19,4-1.74,5.62a.27.27,0,0,0-.17,0s-.1,0-.08,0c.39-.49.67-1.07,1-1.61a5.25,5.25,0,0,1,2.33-2.23l.7-.28-.16,1c-1.55,4.06-1.88,10.5,3.34,11.82l-.53.46c-.29-4.46,2.7-8.83,7.24-9.43Z"/>
            <path class="cls-25" d="M172.43,84.08a.47.47,0,0,0,.12.48l-.19-.16c-6-4.8-4.36-12.74-.28-18.23,1-1.34,2.73-.91,3.64.31a6.09,6.09,0,0,1,1.42,3.69,50.17,50.17,0,0,1-.66,7.84,49.94,49.94,0,0,0,.41-7.82,5.77,5.77,0,0,0-1.44-3.48c-.77-1-2.21-1.41-3-.25-3.62,5.15-5.26,12.84.54,17.17a2.15,2.15,0,0,1,.28.23.52.52,0,0,1,.13.5l-1-.28Z"/>
            <path class="cls-25" d="M153.21,131.86a23.75,23.75,0,0,1,6.61-10,23.17,23.17,0,0,0-5.65,10.26l-1-.29Z"/>
            <path class="cls-25" d="M147.71,116.55c-5.24,4.62-4.61,12.62-5.1,19l-.36-2.56c-.52-5.56-.08-13.5,5.46-16.45Z"/>
            <path class="cls-25" d="M131.8,104.23c5.13,4.78,5.76,12.82,3.25,19.11a35.48,35.48,0,0,1-5.91,9.62c-1,1.08-2.06,2.19-3.12,3.24.9-1.21,1.83-2.37,2.74-3.55,6.13-8.27,10.17-19.43,3-28.42Z"/>
            <path class="cls-25" d="M52.42,115.29c-7.78.24-15.94-4.56-18.12-12.35-2.18-7.6.27-16.55,6.61-21.48,9.24-7.73,24.9-5.73,31.8,4.18,6.1,8.6,5.14,20.33,11.48,28.73a16.24,16.24,0,0,0,9.74,5.82,16.15,16.15,0,0,1-10-5.58C77.29,106.35,78.05,94.68,72,86.15c-6.67-9.41-21.63-11.28-30.51-4a19.06,19.06,0,0,0-7.06,13c-1.66,11.2,7,19.9,18,20.09Z"/>
            <path class="cls-25" d="M105.06,125c-11.58,5.92-29.47,6.2-36.06-7A20.22,20.22,0,0,1,67,108,12.3,12.3,0,0,0,63,99.44c-5.89-6-20.8-3.94-17.85,6.67,1,4.33,9.17,4.9,9.14-.21-.09-2.5-3.3-3.1-5.07-1.83a4,4,0,0,1,3.22-.66c2.57.56,2.75,4.15.82,5.58a6,6,0,0,1-6.6.11c-3-2.09-3.18-6.55-1.57-9.57,3.72-6,13.9-5.33,18.56-.79A13,13,0,0,1,68,108a19.28,19.28,0,0,0,1.85,9.58c6.41,12.88,23.71,12.63,35.25,7.42Z"/>
            <path class="cls-25" d="M157.17,144.74a.83.83,0,0,1-.06-.44c.11-2.45-2.72-3.4-4.7-3.85,2.26.16,5.25.92,5.63,3.56l0,.25s.06.23,0,0l-.88.48Z"/>
            <path class="cls-25" d="M140.48,143.91a10.19,10.19,0,0,0-7.49-4.32,11.08,11.08,0,0,1,6.56,2.08,8.91,8.91,0,0,1,1.75,1.67l-.82.57Z"/>
            <path class="cls-27" d="M192.13,66.27c-4.45-1.42-8.22,6.71-9.15,8.87l-.61,0c.16-.35,4.33-11,9.36-9.38A1.27,1.27,0,0,1,192.13,66.27Z"/>
            <path class="cls-36" d="M189,80.47h-.46a10.1,10.1,0,0,0-9.74,7.69c0,.07,0,.15,0,.23,0,.23-.07.47-.09.71s0,.51,0,.77,0,.47,0,.71,0,.3.05.46l0,.22c.75,4.29,4.77,7.52,9.09,7.86l.23,0h0a23.26,23.26,0,0,1,5.62-1.31h0l.05,0,.09,0a9.18,9.18,0,0,0,4.76-7.11C199.05,85.26,194.3,80.67,189,80.47Zm-5,10.16c0-3.54,3.26-6.35,6.76-6.34H191c3.57.14,6.77,3.23,6.47,6.85A6.62,6.62,0,0,1,191,96.87h-.68C187.08,96.68,184,94,184,90.63Z"/>
            <path class="cls-12" d="M198.74,105.28h0l-.06,0a11.12,11.12,0,0,0-1.41.09h0a18.65,18.65,0,0,0-5.71,1.9c-1.12.52-1.12,8.2-1.11,10.42l-.59.1a28.62,28.62,0,0,1-4,.43h-.11c.07-.41-1-2.38-2.65-5.08l-.21-.32c-1.41-2.29-3.2-5.06-5.07-7.83l0-.06a38.28,38.28,0,0,1,8.36-5l.23-.1c.59-.26,1.2-.49,1.83-.71h0a23.06,23.06,0,0,1,5.59-1.26h0a16.53,16.53,0,0,1,4.43.17,2.2,2.2,0,0,1,1,.57l.15.14C200.82,100.13,202.42,103.25,198.74,105.28Z"/>
            <g>
              <path class="cls-37" d="M202.31,101.33c-6.46-3.51-14.08-4.16-21.27-3.13A40.93,40.93,0,0,1,192,97.56a29.71,29.71,0,0,1,10.5,2.77s0,0,0,0l-.2,1Z"/>
              <path class="cls-37" d="M202.83,103.72c-5.61-3.07-12.23-3.67-18.48-2.8a31.61,31.61,0,0,1,16.57.91c.7.26,1.43.57,2.1.89,0,0,0,0,0,0l-.2,1Z"/>
              <path class="cls-37" d="M201.57,105.69c-4.9-2.7-10.69-3.26-16.18-2.51a27,27,0,0,1,15.54,1.14l.84.38s-.2,1-.2,1Z"/>
            </g>
            <path class="cls-15" d="M155.11,132.38a27.75,27.75,0,0,0,4.95.23,26.56,26.56,0,0,0,5.2-.74"/>
            <path class="cls-15" d="M102.86,126a35.09,35.09,0,0,1-5.21-9.35,35.9,35.9,0,0,1-2.29-14.18l.24-3.2"/>
            <path class="cls-15" d="M155.23,132.4v6.16l-.08,0-.08,0a20.29,20.29,0,0,0-2.24-.39h0a.13.13,0,0,0,0,0,20.44,20.44,0,0,1,.88-6.07l.14,0,.65.13Z"/>
            <path class="cls-38" d="M184.1,74.2c.12-.25,3.27-7.87,7.08-6.71,1.52,1-1.1,6.26-1.1,6.26Z"/>
            <path class="cls-1" d="M183.87,74.2c.12-.25,3.27-7.87,7.08-6.71,1.52,1-1.1,6.26-1.1,6.26Z"/>
            <path class="cls-15" d="M181.87,74.88a63.73,63.73,0,0,1,9.38-1.36"/>
            <path class="cls-38" d="M172.84,81.46c0-.08-7.26-3.95-.53-12.62,1.19-1.26,2.86-.22,3.72,1.83s-.08,7.13-.34,7.65Z"/>
            <path class="cls-1" d="M172.81,81.77c0-.08-7.26-4-.53-12.62,1.19-1.26,2.86-.22,3.72,1.82s-.07,7.14-.33,7.66Z"/>
            <path class="cls-39" d="M216.7,101a1.82,1.82,0,0,0-.65-1.2,1.27,1.27,0,0,0-.62-.2h0c0-.08,0-.16,0-.23a3.36,3.36,0,0,0-1-.35c-.2,0-.4-.06-.6-.08h-.12c.69-4.79-1.9-9.7-4.5-13.3-5.5-7.58-14.61-9-15-9.48a.31.31,0,0,1-.06-.26,4.64,4.64,0,0,1,.51-1,7.44,7.44,0,0,0,1-1.45,19.92,19.92,0,0,0-4.45-.09c.88-2,2.9-6.94,1.18-8a3.87,3.87,0,0,0-2.31,0c-4.09.94-7.29,8.06-7.85,9.34A15.84,15.84,0,0,0,177.12,77a37.66,37.66,0,0,0,.37-4.15A12.22,12.22,0,0,0,177,68.2c-.94-2.25-2.52-3.72-4-3.71a2.47,2.47,0,0,0-1.89.86c-7.25,9.34-4.1,15.13-1.44,17.86a3.15,3.15,0,0,0-.87,1.3,20,20,0,0,1-3.26,8h0l0,0s0-.06-.05-.06l-.08,0-.63.16a22.57,22.57,0,0,1-7.69.39,5.32,5.32,0,0,1-1.41-.36l-.15-.07c-5.3-2.26-11-12.69-20.44-16.71l-.42-.17c-.38-.15-.76-.3-1.15-.42a20.25,20.25,0,0,0-4.93-1h-.09a40.06,40.06,0,0,0-7.63.77c-16.38,4.15-22.06,14.67-22.06,14.67a26.36,26.36,0,0,0-2.9,9.27h0c-.06.32-.1.64-.15,1-2.4-7.08-1.81-16-8.53-25.33-1-1.43-8.75-12.23-22.25-14.78C52,57.49,37.13,63.17,29.4,75a33.58,33.58,0,0,0-2.94,5.56c-6.05,14.54-2.36,33,8.48,39.43,6.22,3.7,15.86,4.06,22.62-.45a19.76,19.76,0,0,0,3.85-3.23c.42-.47,4.33-5.35,3.23-11.62-.53-3-2.11-5.68-3.24-6.56-.08-.06-.67-.51-.64-.56a5.89,5.89,0,0,1,1.33.71,10.35,10.35,0,0,1,3,3.12,13.14,13.14,0,0,1,1.71,4.12,17,17,0,0,1,.41,2.28,18,18,0,0,1,.08,2.54,17.83,17.83,0,0,0,1.72,7,19,19,0,0,0,3.39,5.1,19.63,19.63,0,0,0,5.8,4.11,20.23,20.23,0,0,0,3.31,1.21,25.85,25.85,0,0,0,7.22.71,37,37,0,0,0,5.54-.27A33.7,33.7,0,0,0,100,126.9c1-.31,1.93-.64,2.8-1l.13.17a29.55,29.55,0,0,0,3.06,3.52l.13.12a21,21,0,0,0,6.35,4.38,4.8,4.8,0,0,1,1.9,1.24l-.33.23a11.24,11.24,0,0,0-4.21,6.12,3.74,3.74,0,0,0,0,2.64h0a3.2,3.2,0,0,0,.26.28,1.49,1.49,0,0,0,.41.38,1.16,1.16,0,0,0,.37.18l.33.16a11.08,11.08,0,0,0,6.23.41c2.07-.25.77.17,6.24,0,6.37-.25,13-1,16-1.38l.6-.22a1.69,1.69,0,0,0,.27-.11c.18-.08.35-.16.49-.24,1.27-.71,1.39-1.52.82-2.34-.74-1.36-3.47-2.79-6.18-3.92l-.71-.29-.32-.13c-1.29-.51-2.5-.93-3.43-1.23h0a34.15,34.15,0,0,0,11.22-3.26c.14,5.86,0,5.15.15,5.92a9.32,9.32,0,0,0,1.28,3,6.45,6.45,0,0,0,3,2.6l.22.09a6.52,6.52,0,0,0,1.55.36,66.16,66.16,0,0,0,9.21.12c1.7-.07,2.93-.14,3.14-.12s.29-.44.19-1.14c0,0,0,0,0-.06.59,0,3.29.06,4.82.06a17,17,0,0,0,2.71-.08,5,5,0,0,0-.19-1.21c-.85-3.31-4.75-4-5.18-4a10.12,10.12,0,0,1,.24-2.74,10,10,0,0,1,1.56-3.47l.14,0,.09,0a29.37,29.37,0,0,0,4-1.22,20.68,20.68,0,0,0,5.72-2.89,11.94,11.94,0,0,0,3.92-3.61,5,5,0,0,1,.74-1.12c1.81-2.22,5.46-4.09,6.34-4.6l0,0s0-.13,0-.22v0h0a31.59,31.59,0,0,0,3.75-.42l.6-.1v-.07l.05,0a12.88,12.88,0,0,0,1,1.5c1.64,1.38,4.26.47,6-.14a8.63,8.63,0,0,0,2.67-1.32,5.18,5.18,0,0,0,.92-.85,6.69,6.69,0,0,0,1.52-3.14l1.32-.18a7.62,7.62,0,0,0,.76-.43,7.94,7.94,0,0,0,1.45-1.18,27.41,27.41,0,0,0,3.15-3.67l.28-.42h.07v0l.13,0,.2,0a6,6,0,0,0,3.13-.09,5.06,5.06,0,0,0,.52-.23,5.5,5.5,0,0,0,2.13-2,6.09,6.09,0,0,0,1.05-2.8A4.43,4.43,0,0,0,216.7,101Z"/>
            <g>
              <path class="cls-40" d="M208.93,106.51c-.67-.09-1.32-1.24-2.54-2.62-1.42-1.6-2.56-2-3.23-2.94-.76-1.07,2.85-3,6.32-2.88,3.27.13,4.78,1.23,4.53,2.5S211.13,106.67,208.93,106.51Z"/>
              <path class="cls-41" d="M213,99.68c-2.5-1.36-6.09-1.13-8.78-.37a10.26,10.26,0,0,1,5.22-1.24c3.27.13,4.78,1.23,4.53,2.5a9.8,9.8,0,0,1-.69,1.29C213.61,100.71,213.56,100,213,99.68Z"/>
              <path class="cls-42" d="M204.28,99.3c-.71,1.29,2.08,2,3.21,3.16.86.84,1.25,2.5,2.21,2.59,1.4,0,2.72-2.23,4.17-4-.61,1.69-3,5.63-4.94,5.49-.67-.09-1.32-1.24-2.54-2.62-1.42-1.6-2.56-2-3.23-2.94C202.83,100.48,203.33,99.85,204.28,99.3Z"/>
              <path class="cls-43" d="M203.12,100.33a.36.36,0,0,0,0,.41,6,6,0,0,0,1.24,1.13,14.08,14.08,0,0,1,2.13,1.93c.39.44.73.86,1,1.23.61.77,1.1,1.37,1.47,1.42h.09c2.11,0,4.71-4.8,4.95-6a1.11,1.11,0,0,0-.25-1c-.61-.78-2.16-1.27-4.25-1.35h-.35C206.22,98.12,203.58,99.45,203.12,100.33Z"/>
            </g>
            <path class="cls-44" d="M216.74,102.58s0,0,0-.06a4.39,4.39,0,0,0,0-.59s2-1.36-.07-.68c0-.11,0-.22-.06-.35a1.88,1.88,0,0,0-.66-1.21,1.35,1.35,0,0,0-.62-.2h0l.06-.24a3.42,3.42,0,0,0-1-.35c-.2,0-.4-.06-.6-.08h-.12c.7-4.83-1.9-9.78-4.51-13.4-5.5-7.65-14.63-9.11-15.06-9.56a.28.28,0,0,1-.06-.26,4.41,4.41,0,0,1,.51-1,7.35,7.35,0,0,0,1-1.47,19.92,19.92,0,0,0-4.45-.09c.87-2,2.9-7,1.18-8.09A3.9,3.9,0,0,0,190,65c-4.09,1-7.3,8.12-7.87,9.41a19.85,19.85,0,0,0-3,1.11l-.67.33a11.55,11.55,0,0,0-1.41.87,38.23,38.23,0,0,0,.37-4.18,12.21,12.21,0,0,0-.54-4.67c-.94-2.27-2.52-3.75-4-3.74a2.33,2.33,0,0,0-1.55.57,3,3,0,0,0-.43.38c-7.27,9.41-4.11,15.24-1.45,18a3.14,3.14,0,0,0-.87,1.31,20.28,20.28,0,0,1-3.22,8s0,0,0,0l-.08,0-.63.16a22.64,22.64,0,0,1-7.7.39,5.23,5.23,0,0,1-1.41-.36l-.16-.07c-5.31-2.28-11-12.79-20.47-16.84l-.42-.17c-.38-.16-.76-.3-1.15-.43a20.42,20.42,0,0,0-4.94-1h-.09a39.18,39.18,0,0,0-7.64.78c-10.71,2.72-16.83,8.17-19.81,11.63a19.85,19.85,0,0,0-1.56,2c-.49.71-.73,1.14-.73,1.14A25.23,25.23,0,0,0,96.61,94a27.58,27.58,0,0,0-1.11,4.72c0,.22-.07.43-.11.65l-.06-.23,0,.44c-2.28-7.08-1.82-15.9-8.45-25.2-1-1.44-8.77-12.32-22.29-14.89A35.73,35.73,0,0,0,36,67a33.34,33.34,0,0,0-7,7.74A33.91,33.91,0,0,0,26,80.36C19.92,95,23.61,113.6,34.47,120.1c6.24,3.73,16.29,4.57,23.06,0a22.73,22.73,0,0,0,2.27-1.69c.51-.44,7.22-5.09,4.17-17.78,4.52,5.33,2,10.14,4.72,16.65l0,.06c.11.25.23.48.35.72a16.15,16.15,0,0,0,8.52,8.4l.33.17a22.08,22.08,0,0,0,3.31,1.22,18.79,18.79,0,0,0,3.56.6,32.93,32.93,0,0,0,3.75.19h1a32.33,32.33,0,0,0,4.4-.27,33.09,33.09,0,0,0,5.52-1.23c1.07-.32,2.06-.68,3-1l.25.32a29.37,29.37,0,0,0,3,3.41l.12.12a21.19,21.19,0,0,0,6.36,4.42,4.67,4.67,0,0,1,1.89,1.25l-.22.14a11.68,11.68,0,0,0-3.78,4.87c-.74,1.57-1,3.1-.49,4.05h0a2.25,2.25,0,0,0,.32.35v0h0a2.35,2.35,0,0,0,.33.3,1.81,1.81,0,0,0,.42.2h0a1.26,1.26,0,0,0,.26.13,4.38,4.38,0,0,0,.79.17,11.89,11.89,0,0,0,5.55.17h0l1.87,0a35.82,35.82,0,0,0,4.37,0c3.62-.14,7.32-.45,10.39-.76,3.58-.21,6.09-.21,6.53-.95.12-.06.25-.11.35-.17a3.08,3.08,0,0,0,.58-.4,1.34,1.34,0,0,0,.34-2c-.74-1.37-3.47-2.81-6.19-3.95l-.71-.3-.32-.12c-1.24-.49-2.4-.9-3.32-1.21a34.54,34.54,0,0,0,11.15-3.28l0,.81c.09,4.25,0,4.43.09,4.85a2.35,2.35,0,0,0,.08.55c.15.69,1,4.15,4.14,5.45l.22.09a6.61,6.61,0,0,0,1.56.36,66.29,66.29,0,0,0,9.22.12c1.7-.07,2.94-.14,3.14-.12,0,0,.07,0,.11-.08s.29-.46.19-1.15a.13.13,0,0,1,0-.06c1,0,2.65.05,4.13.06h1.19a11.5,11.5,0,0,0,2.21-.09,5,5,0,0,0-.18-1.21c-.85-3.34-4.76-4-5.19-4a9.87,9.87,0,0,1,1.76-6.18l.08,0,.1,0a30.61,30.61,0,0,0,4.22-1.3A20.72,20.72,0,0,0,175,128c.54-.36,1-.71,1.46-1.06l0,0,.44-.36a7.94,7.94,0,0,0,2-2.23,5.36,5.36,0,0,1,.73-1.12,11.47,11.47,0,0,1,1.57-1.54,34,34,0,0,1,4.69-3h0a0,0,0,0,0,0,0l.08,0h0a.2.2,0,0,0,0-.21,32.06,32.06,0,0,0,3.65-.41l.6-.1v-.07h.1v-.08l0,0a3.1,3.1,0,0,0,3.15,2.22,11.67,11.67,0,0,0,3.84-.86l.63-.23.07,0a8.29,8.29,0,0,0,1.32-.62h0a6.23,6.23,0,0,0,1-.72,6.68,6.68,0,0,0,.61-.59,6.86,6.86,0,0,0,1.52-3.17l1.26-.17h.09a6.78,6.78,0,0,0,1.44-1,7.33,7.33,0,0,0,.73-.67,28.16,28.16,0,0,0,3.17-3.7l.27-.41h0l-.06.09a2.61,2.61,0,0,0,.46-.14l.2,0a4.91,4.91,0,0,0,3-.13,4.54,4.54,0,0,0,1.13-.66c.13-.09.24-.19.35-.28l.18-.16a8.22,8.22,0,0,0,.93-1.12,7.37,7.37,0,0,0,.41-.73s1.78-1,.23-.49a7.71,7.71,0,0,0,.26-.81S218.58,102.07,216.74,102.58Z"/>
          </g>
        </g>
      </g>
      <g class="cls-45">
        <path class="cls-44" d="M400.82,102.85s0,0,0-.07a5.71,5.71,0,0,0,0-.58s2-1.37-.08-.68a2.33,2.33,0,0,0-.06-.35,1.83,1.83,0,0,0-.66-1.21,1.24,1.24,0,0,0-.62-.2h0l.06-.23a2.83,2.83,0,0,0-1-.35,4,4,0,0,0-.59-.08h-.13c.7-4.82-1.9-9.77-4.51-13.4-5.5-7.64-14.63-9.11-15.06-9.55a.31.31,0,0,1-.06-.26,4.69,4.69,0,0,1,.51-1,7.35,7.35,0,0,0,1-1.47,21.08,21.08,0,0,0-4.45-.08c.88-2,2.9-7,1.18-8.09a3.82,3.82,0,0,0-2.32,0c-4.09.94-7.3,8.11-7.86,9.4a21.88,21.88,0,0,0-3.05,1.11,6.89,6.89,0,0,0-.66.34,11,11,0,0,0-1.42.87,35.88,35.88,0,0,0,.37-4.19,12.16,12.16,0,0,0-.54-4.66c-.94-2.27-2.52-3.76-4-3.74a2.31,2.31,0,0,0-1.56.57,3,3,0,0,0-.43.38c-7.27,9.41-4.11,15.24-1.45,18a3.21,3.21,0,0,0-.87,1.3,20.1,20.1,0,0,1-3.21,8l0,0-.08,0c-.2.06-.4.12-.63.17a22.64,22.64,0,0,1-7.7.39,5.23,5.23,0,0,1-1.41-.36l-.15-.07c-5.31-2.28-11-12.8-20.48-16.84-.14-.07-.28-.12-.42-.18-.38-.15-.76-.29-1.15-.42a20.42,20.42,0,0,0-4.94-1h-.09a40.09,40.09,0,0,0-7.64.77c-10.71,2.73-16.83,8.17-19.8,11.64a16.31,16.31,0,0,0-1.56,2,13.31,13.31,0,0,0-.74,1.15,24.92,24.92,0,0,0-1.84,4.42A28.42,28.42,0,0,0,279.58,99c0,.22-.07.44-.1.65l-.07-.23,0,.45c-2.28-7.08-1.82-15.9-8.44-25.21-1-1.44-8.77-12.32-22.3-14.89A35.78,35.78,0,0,0,220,67.29,33.72,33.72,0,0,0,213,75a34.31,34.31,0,0,0-2.93,5.6c-6.06,14.66-2.37,33.25,8.48,39.74,6.24,3.73,16.29,4.58,23.07,0a21.76,21.76,0,0,0,2.26-1.7c.52-.44,7.22-5.08,4.17-17.77,4.52,5.33,2,10.13,4.72,16.65l0,.05c.11.26.23.49.35.73a16.22,16.22,0,0,0,8.52,8.4l.33.16a19.87,19.87,0,0,0,3.32,1.22,17.85,17.85,0,0,0,3.55.61c1.32.14,2.58.18,3.75.19h1a33.92,33.92,0,0,0,4.4-.27,33.06,33.06,0,0,0,5.52-1.24c1.07-.32,2.07-.67,3-1l.25.32a28.39,28.39,0,0,0,3,3.4l.13.13a20.83,20.83,0,0,0,6.36,4.41,4.81,4.81,0,0,1,1.88,1.25l-.21.15a11.63,11.63,0,0,0-3.79,4.87c-.73,1.57-1,3.1-.49,4h0a2.57,2.57,0,0,0,.32.36l0,0h0a1.58,1.58,0,0,0,.34.29,1.42,1.42,0,0,0,.41.2h0c.08,0,.16.09.26.13a4.06,4.06,0,0,0,.78.17,12,12,0,0,0,5.56.16h0l1.87,0a41.26,41.26,0,0,0,4.38,0c3.62-.15,7.31-.45,10.39-.76,3.57-.22,6.08-.22,6.52-.95l.36-.17a4,4,0,0,0,.57-.4,1.35,1.35,0,0,0,.35-2c-.75-1.36-3.48-2.81-6.19-4l-.72-.29-.32-.13c-1.24-.49-2.4-.9-3.32-1.2a34.22,34.22,0,0,0,11.15-3.29c0,.27,0,.54,0,.82.08,4.25,0,4.43.08,4.85a3.17,3.17,0,0,0,.08.55c.15.69,1,4.14,4.14,5.44l.22.09a6.6,6.6,0,0,0,1.56.37,67.89,67.89,0,0,0,9.22.12c1.71-.07,2.94-.14,3.15-.12,0,0,.07,0,.1-.09s.29-.46.19-1.14c0,0,0-.05,0-.07,1,0,2.65.05,4.13.06h1.19a11.43,11.43,0,0,0,2.21-.09,5.2,5.2,0,0,0-.18-1.22c-.85-3.33-4.76-4-5.19-4a10.29,10.29,0,0,1,.24-2.76,10.08,10.08,0,0,1,1.52-3.43h.08l.1,0a32.05,32.05,0,0,0,4.22-1.31,20.57,20.57,0,0,0,5.63-2.89c.54-.36,1-.72,1.46-1.06l0,0,.44-.36a8.08,8.08,0,0,0,2-2.23,5.69,5.69,0,0,1,.73-1.13,11.57,11.57,0,0,1,1.58-1.54,34.78,34.78,0,0,1,4.68-3s0,0,0,0,0,0,0,0l.07,0h0s0-.12,0-.2a32.1,32.1,0,0,0,3.64-.42l.6-.09V118l.1,0v-.07l0,0a3.1,3.1,0,0,0,3.15,2.22,11.8,11.8,0,0,0,3.85-.87l.62-.23.07,0a8.78,8.78,0,0,0,1.32-.62h0a6.14,6.14,0,0,0,1-.71,5.73,5.73,0,0,0,.61-.6,6.74,6.74,0,0,0,1.52-3.16l1.26-.17H388a6.53,6.53,0,0,0,1.44-1,8.89,8.89,0,0,0,.74-.68,27.1,27.1,0,0,0,3.16-3.69l.27-.41h0l-.06.09.46-.13.2,0a4.85,4.85,0,0,0,3-.14,4.15,4.15,0,0,0,1.14-.65c.13-.09.23-.19.35-.29l.17-.15a7.07,7.07,0,0,0,.93-1.13,7,7,0,0,0,.41-.72s1.78-1,.23-.5a6.84,6.84,0,0,0,.26-.8S402.66,102.33,400.82,102.85Z"/>
      </g>
    </g>
  </g>
</svg>
