<svg id="Layer_1" data-name="Layer 1" xmlns="http://www.w3.org/2000/svg" viewBox="0 0 118.12 70.59"><defs><style>.cls-1,.cls-3{fill:#fff;}.cls-1{stroke:#3d2d16;stroke-miterlimit:10;stroke-width:0.75px;}.cls-2{fill:#3d2d16;}</style></defs><ellipse class="cls-1" cx="29.53" cy="46.44" rx="13.01" ry="13.77"/><ellipse class="cls-2" cx="29.35" cy="46.29" rx="8.71" ry="9.21"/><ellipse class="cls-3" cx="26.35" cy="41.41" rx="2.39" ry="2.53"/><ellipse class="cls-1" cx="91.54" cy="48.92" rx="13.01" ry="13.77"/><ellipse class="cls-2" cx="91.22" cy="48.91" rx="8.57" ry="9.07"/><ellipse class="cls-3" cx="88.71" cy="43.76" rx="2.39" ry="2.53"/><path class="cls-2" d="M87.14,21.05s13-2.21,19.17,6.4c.25.35.84.19.81-.22-.2-2.62-1.62-8-9.68-9.57C84.74,15.17,87.14,21.05,87.14,21.05Z"/><path class="cls-2" d="M37.57,15.75s-13-2.21-19.18,6.4a.44.44,0,0,1-.8-.22c.2-2.62,1.61-8,9.67-9.57C40,9.87,37.57,15.75,37.57,15.75Z"/></svg>