<svg id="Layer_1" data-name="Layer 1" xmlns="http://www.w3.org/2000/svg" viewBox="0 0 118.12 70.59"><defs><style>.cls-1,.cls-3{fill:#fff;}.cls-1{stroke:#3d2d16;}.cls-1,.cls-4{stroke-miterlimit:10;stroke-width:0.75px;}.cls-2{fill:#3d2d16;}.cls-4{fill:#f9dad2;stroke:#4c2606;}</style></defs><path class="cls-1" d="M42.54,46.44a14.4,14.4,0,0,1-.68,4.39A13.08,13.08,0,0,1,29.53,60.2,13.14,13.14,0,0,1,17,50.13a14.41,14.41,0,0,1-.48-3.69c0-7.61,5.83-13.77,13-13.77S42.54,38.83,42.54,46.44Z"/><ellipse class="cls-2" cx="29.35" cy="46.29" rx="8.71" ry="9.21"/><ellipse class="cls-3" cx="26.35" cy="41.41" rx="2.39" ry="2.53"/><path class="cls-1" d="M104.54,48.92a14.27,14.27,0,0,1-.73,4.55,13.08,13.08,0,0,1-12.28,9.22,13.23,13.23,0,0,1-12.74-11,14.4,14.4,0,0,1-.27-2.81c0-7.6,5.83-13.76,13-13.76S104.54,41.32,104.54,48.92Z"/><ellipse class="cls-2" cx="91.22" cy="48.91" rx="8.57" ry="9.07"/><ellipse class="cls-3" cx="88.71" cy="43.76" rx="2.39" ry="2.53"/><path class="cls-2" d="M87.14,21.05s13-2.21,19.17,6.4c.25.35.84.19.81-.22-.2-2.62-1.62-8-9.68-9.57C84.74,15.17,87.14,21.05,87.14,21.05Z"/><path class="cls-2" d="M37.57,15.75s-13-2.21-19.18,6.4a.44.44,0,0,1-.8-.22c.2-2.62,1.61-8,9.67-9.57C40,9.87,37.57,15.75,37.57,15.75Z"/><path class="cls-4" d="M42.54,46.44a14.4,14.4,0,0,1-.68,4.39A26.58,26.58,0,0,1,36.16,52,52.53,52.53,0,0,1,22,51.2c-1.83-.33-3.52-.7-5-1.07a14.41,14.41,0,0,1-.48-3.69c0-7.61,5.83-13.77,13-13.77S42.54,38.83,42.54,46.44Z"/><path class="cls-4" d="M104.54,48.92a14.27,14.27,0,0,1-.73,4.55,35.26,35.26,0,0,1-6,1.18,38.13,38.13,0,0,1-14.08-1.23,44.87,44.87,0,0,1-5-1.69,14.4,14.4,0,0,1-.27-2.81c0-7.6,5.83-13.76,13-13.76S104.54,41.32,104.54,48.92Z"/></svg>