<svg id="Layer_1" data-name="Layer 1" xmlns="http://www.w3.org/2000/svg" viewBox="0 0 223.53 199.06"><defs><style>.cls-1{fill:#d10409;stroke:#a30814;}.cls-1,.cls-2,.cls-3,.cls-6{stroke-miterlimit:10;}.cls-2{fill:#c34804;stroke:#7c320d;}.cls-3{fill:#fcf200;stroke:#a89c0b;}.cls-4{fill:#fec119;}.cls-5{fill:#f2a905;}.cls-6{fill:#ff7e2a;stroke:#af440e;}.cls-7{fill:#ff631e;}.cls-8{fill:#ffe632;}.cls-9{fill:#ffd713;}.cls-10{fill:#fd1441;}.cls-11{fill:#dc0604;}.cls-12{fill:#fb6010;}.cls-13{fill:#fde664;}.cls-14{fill:#febe42;}.cls-15{fill:#f9f2f2;}.cls-16{fill:#683c3c;}.cls-17{fill:#30252b;}.cls-18{fill:#fff;}.cls-19{fill:#8c0606;}</style></defs><path class="cls-1" d="M203.09,68.47c2.43-2.45,3.93-6,2.86-9a1.77,1.77,0,0,0-1.26-1.29,2.4,2.4,0,0,0-1.34.32,16.24,16.24,0,0,0-4.29,2.93,41.07,41.07,0,0,1,.3-5.41c0-1.81-.4-3.75-1.93-4.76s-4.29-.38-4.77,1.4a4.56,4.56,0,0,1-.42,1.6,1.77,1.77,0,0,1-2.24.3,4.08,4.08,0,0,1-1.37-1.8,11.86,11.86,0,0,0-3-4.2,5.26,5.26,0,0,0-5.2-.86c-1.76.75-2.79,3-1.69,4.39.07,1.17-1.88,1.65-2.91,1s-1.61-1.74-2.65-2.34a4,4,0,0,0-4.89,1.31A3.5,3.5,0,0,0,169,56.8c-2.37-.43-4.89-.84-7.23,0s-4.24,3.48-3.21,5.48c.69,1.34,2.44,1.92,4.08,1.86a22.1,22.1,0,0,0,4.88-1.07c7.71-2.07,12.4.1,18.69,4.06,1.37.86,1.8,3.06,2.47,4.5a5.3,5.3,0,0,0,3,2.34C194.1,75.06,201.57,70,203.09,68.47Z"/><path class="cls-2" d="M85.82,150.1s-3.67,3-5.12,25.58c0,0-6.45.11-6.56.89s6.45,1.89,6.45,1.89,4.45,8.89,6.12,10.23,2.89.11-2-7.67c0,0,3.22,1.44,7.12,3.67,0,0,3.11.44-3.56-5,0,0,.89-1,6.11.56,0,0,5.9-1.45-10.45-4.23a43.77,43.77,0,0,1,5.67-23.13C96.28,141.09,85.82,150.1,85.82,150.1Z"/><path class="cls-2" d="M104.07,147.82s-3,3.63-.3,26.09c0,0-6.31,1.3-6.28,2.08s6.69.67,6.69.67,6,7.92,7.9,8.92,2.86-.42-3.38-7.17c0,0,3.43.83,7.67,2.29,0,0,3.14-.14-4.42-4.26,0,0,.69-1.15,6.11-.58,0,0,5.53-2.51-11-2.22a43.72,43.72,0,0,1,1.29-23.79C112.68,137,104.07,147.82,104.07,147.82Z"/><path class="cls-3" d="M34.06,64.42S29,52.49,23.14,50.47,20,55.79,21.82,58.14c0,0-9.56-7.4-13.77-3.28s9.1,12.07,9.1,12.07S4,64.09,3.2,69.94s7,7.3,12.74,8c0,0-12.17,1.18-10.56,6.87s13.69,1.12,13.69,1.12-4.11,2.9-1.61,4.8,7.53.17,10-4.15S34.06,64.42,34.06,64.42Z"/><path class="cls-4" d="M33.27,64.4l-.11-.26c-.55-1.25-3.11-6.76-6.52-8.44-3.84-1.91-4,2.13-1.27,5.42,0,0-7-4.37-10-1.61s6.13,9,6.13,9S12,66.82,11.24,71.1s9.6,5.83,9.6,5.83S13.43,78,12.16,82.77s11.94.14,11.94.14S19.05,86,20.21,88.45s6.23,1.18,7.62-2.3S33.27,64.4,33.27,64.4Z"/><path class="cls-5" d="M32.78,64s-5.94-7.46-4.86.06c0,0-5.06-2.11-4.37,1.73s2.94,4.57,2.94,4.57-5.35-.36-7,2.63c0,0-.16,2.91,5.43,3.2A8.19,8.19,0,0,0,20.77,80C19.51,82.68,26,82.11,26,82.11S21.81,84.43,23.9,86a3.17,3.17,0,0,0,3.93.12S23.76,71.79,32.78,64Z"/><path class="cls-6" d="M164.54,107.65a69.6,69.6,0,0,1-2.3,7.81,61.19,61.19,0,0,1-5.63,11.63,59.26,59.26,0,0,1-19.32,19.06c-33.94,21.06-71.62,14.46-101.71-38.81l-.54-1.5S24.93,86,28,68.23a3.6,3.6,0,0,1,.21-.74c.76-2,4.06-7.22,17.22-2.18,12.84,4.92,27.64,11.31,56.39,12,1.93.05,23-2.33,25,9.53.7,4.09,40.15-1.63,39.67,7.12A80.68,80.68,0,0,1,164.54,107.65Z"/><path class="cls-7" d="M156.69,126.62a59.16,59.16,0,0,1-19.32,19.06c-33.94,21.07-71.62,14.46-101.71-38.8l-.54-1.51S25,85.52,28.07,67.76a3.8,3.8,0,0,1,.21-.74c1.23,11.5,7.75,48.9,40.8,68.25C104.47,156,140.49,139.71,156.69,126.62Z"/><path class="cls-8" d="M131.28,110.94c.34,4.34,2.86,24.71-38.53,24.61a49.6,49.6,0,0,1-21.28-6.34,38.35,38.35,0,0,1-13.9-13.48,7.75,7.75,0,0,1-1-2.77c-.23-2,.67-4.19,6.16-3.79-.3-.12-6.06-2.51-4.13-5.94a4,4,0,0,1,5.16-2c-.6-.33-3.94-2.23-2.3-4.48,1.05-1.44,6.19-.73,12.13-.37,4.29.27,9,.35,12.87-.68,9.24-2.46,26.18-7.48,34.54-1.53a29.44,29.44,0,0,1,5,4.47A20.26,20.26,0,0,1,131.28,110.94Z"/><path class="cls-9" d="M131.28,110.94c.34,4.34,2.86,24.71-38.53,24.61a49.6,49.6,0,0,1-21.28-6.34,5.41,5.41,0,0,1,3.53-3c-1.83-.57-3.93-1.43-4.36-3.29a3.74,3.74,0,0,1,1.42-3.56,11.17,11.17,0,0,1,3.58-1.8,9.14,9.14,0,0,1-3.29-1,3.18,3.18,0,0,1-1.7-2.8c.14-1.94,2.44-2.86,4.36-3.1-2.24,0-3.82-2.7-3.1-4.82s3.08-3.36,5.32-3.35c-2.15-.22-5-3.05-4.11-5.42a2.12,2.12,0,0,1,.52-.75c4.29.27,9,.35,12.87-.68,9.24-2.46,26.18-7.48,34.54-1.53a29.44,29.44,0,0,1,5,4.47A20.26,20.26,0,0,1,131.28,110.94Z"/><path class="cls-10" d="M131.28,110.94c.34,4.34,2.86,24.71-38.53,24.61,0,0-23.55-.53-35.18-19.82a7.75,7.75,0,0,1-1-2.77c15.32,20.2,50.45,21.11,64.3,11.59,10.72-7.37,7.6-19.81,5.16-25.95A20.26,20.26,0,0,1,131.28,110.94Z"/><path class="cls-11" d="M179.25,62.36a5,5,0,0,0-3,.32,1,1,0,0,0-.58.61.94.94,0,0,0,0,.37,1.89,1.89,0,0,0,.41.81,1.94,1.94,0,0,0,1.39.5c.51,0,1-.11,1.54-.16a6.51,6.51,0,0,1,2,.11,3.39,3.39,0,0,0,1.51.14c.37-.1.85-.55.74-1s-.76-.61-1.07-.77A9.79,9.79,0,0,0,179.25,62.36Z"/><path class="cls-6" d="M156.6,127.09a45.81,45.81,0,0,0,8.76-16.34c.64-2,1.12-4,1.48-5.68,0-.07,0-.13,0-.19A53.05,53.05,0,0,0,168,97.27c28.21-8.79,29.18-30.85,16.33-36.86-12.53-5.84-19.87-1.51-37.63,9.75h0l-1.43.91a30.23,30.23,0,0,1-6.85,3.11l-1.1.34c-6.32,1.89-14,2.73-21.84,3-1.4,0-2.8.07-4.2.07a250.24,250.24,0,0,1-35.81-2.71l40.64,3"/><path class="cls-12" d="M164.21,98.68a51.34,51.34,0,0,1-1.08,7.61,1.62,1.62,0,0,1,0,.19c-.36,1.73-.85,3.65-1.48,5.68-6.61.55-7.24-7.68-7.24-7.68-8.72,1.16-7-8.11-7-8.11-10.12,1.3-8.21-9.26-8.21-9.26-11.54-2.46-5.54-10.93-5.54-10.93l-.1-.25,1.1-.34a30.15,30.15,0,0,0,6.84-3.11l1.43-.91h0C160.68,60.31,168,56,180.54,61.83,193.4,67.83,192.43,89.89,164.21,98.68Z"/><path class="cls-13" d="M168,97.27a53.05,53.05,0,0,1-1.08,7.61c0,.06,0,.12,0,.19a4.25,4.25,0,0,1-1.42-2.58,7,7,0,0,1-6.85,1.23c-2.24-.93-3.69-3.71-2.75-6a6.17,6.17,0,0,0,.76-2,4.19,4.19,0,0,1-5.92-.25,5.67,5.67,0,0,1-.62-6.23A5.14,5.14,0,0,1,143.37,88a5,5,0,0,1,.9-6.7c-1.17.92-3.21.78-4.49.26-2.11-.84-2.29-1.78-1.91-3.81.24-1.28.4-2.45.52-3.61a30.23,30.23,0,0,0,6.85-3.11l1.43-.91h0c17.76-11.26,25.1-15.59,37.63-9.75C197.15,66.42,196.18,88.48,168,97.27Z"/><path class="cls-14" d="M168,97.27a53.05,53.05,0,0,1-1.08,7.61c-5-.44-3-6.17-2-8.43-.6.59-2.08,1-5.68-.41-5.19-2-1.11-6.91.3-8.39-3.59,3.45-6.6.72-6.6.72-6.27-2.1.26-9.35.26-9.35s-6.84,3.25-8-2.08a8.21,8.21,0,0,1,1.52-6.78h0c17.76-11.26,25.1-15.59,37.63-9.75C197.15,66.42,196.18,88.48,168,97.27Z"/><ellipse class="cls-15" cx="179.89" cy="75.24" rx="6.64" ry="5.52" transform="translate(26.6 195.75) rotate(-60.87)"/><path class="cls-16" d="M184.76,78a8,8,0,0,1-3.42,3.34,5.56,5.56,0,0,1-4.91.17,5.77,5.77,0,0,1-3.05-4.18,7.93,7.93,0,0,1,4.82-8.64,5.76,5.76,0,0,1,5.16.39,5.51,5.51,0,0,1,2.43,4.26A7.94,7.94,0,0,1,184.76,78Zm-.09,0a7.45,7.45,0,0,0,.9-4.57,4.83,4.83,0,0,0-7-3.9,7.58,7.58,0,0,0-4.31,7.72,4.84,4.84,0,0,0,7,3.92A7.4,7.4,0,0,0,184.67,77.9Z"/><ellipse class="cls-17" cx="181.51" cy="76.71" rx="4.65" ry="3.6" transform="translate(22.94 193.7) rotate(-59.33)"/><ellipse class="cls-18" cx="181.75" cy="74.04" rx="1.58" ry="1.22" transform="translate(25.35 192.59) rotate(-59.33)"/><path class="cls-11" d="M183.79,82.64s-1.51,4.82,2.57,10a13.17,13.17,0,0,0,9.79,5.07l-7.63-14.35Z"/><path class="cls-19" d="M186,84.1c.34.48.53,5.25,10.24,13.78,0,0-4.08-9.76-3.92-10.66S186,84.1,186,84.1Z"/><path class="cls-11" d="M183.42,82.46S189.44,80,192,80,206,83.82,207.7,91.9c0,0-20.47-3-24.53-8Z"/><ellipse class="cls-19" cx="191.64" cy="81.45" rx="0.56" ry="1.14" transform="translate(78.82 256.47) rotate(-80.22)"/><path class="cls-11" d="M173.71,61.62a4.5,4.5,0,0,1,2.77-.84.86.86,0,0,1,.71.34.9.9,0,0,1,.08.36,2,2,0,0,1-.08.9,1.86,1.86,0,0,1-1.06,1,13.56,13.56,0,0,1-1.41.44,6.33,6.33,0,0,0-1.73.85,2.94,2.94,0,0,1-1.28.7c-.35.05-.92-.19-1-.6s.46-.85.68-1.12A9.52,9.52,0,0,1,173.71,61.62Z"/></svg>