<svg id="Layer_1" data-name="Layer 1" xmlns="http://www.w3.org/2000/svg" viewBox="0 0 53.18 32.24"><defs><style>.cls-1{fill:#66441c;}.cls-2{fill:#fff;stroke:#66441c;}.cls-2,.cls-5{stroke-miterlimit:10;stroke-width:0.5px;}.cls-3{fill:#30200f;}.cls-4{fill:#efdece;}.cls-5{fill:#ffef9f;stroke:#7c4c00;}</style></defs><path class="cls-1" d="M16.35,4.4c-.34,0-6.56,1.28-7.47,4.93,0,0,4.91-3.78,8.08-3Z"/><path class="cls-1" d="M35.6,5.33c.34,0,6.36,2,6.83,5.76,0,0-4.42-4.32-7.67-3.92Z"/><path class="cls-2" d="M22.41,18.75A9.29,9.29,0,0,1,22,21.63c-.94,2.94-3.27,5-6,5s-5.16-2.16-6.06-5.2a9.4,9.4,0,0,1-.39-2.69c0-4.36,2.89-7.89,6.45-7.89S22.41,14.39,22.41,18.75Z"/><path class="cls-2" d="M42.25,20.2a9.26,9.26,0,0,1-.46,2.92c-.95,2.91-3.27,5-6,5-2.95,0-5.43-2.41-6.2-5.7a9.25,9.25,0,0,1-.26-2.19c0-4.35,2.89-7.88,6.46-7.88S42.25,15.85,42.25,20.2Z"/><ellipse class="cls-3" cx="16.67" cy="20.93" rx="3.99" ry="4.6"/><ellipse class="cls-4" cx="18.05" cy="19.13" rx="1.6" ry="1.84"/><ellipse class="cls-3" cx="35.27" cy="22.51" rx="3.99" ry="4.6"/><ellipse class="cls-4" cx="36.65" cy="20.71" rx="1.6" ry="1.84"/><path class="cls-5" d="M22.41,18.75A9.29,9.29,0,0,1,22,21.63a11,11,0,0,1-1.4.33,23.57,23.57,0,0,1-7.77,0c-1.09-.16-2.08-.36-2.9-.55a9.4,9.4,0,0,1-.39-2.69c0-4.36,2.89-7.89,6.45-7.89S22.41,14.39,22.41,18.75Z"/><path class="cls-5" d="M42.25,20.2a9.26,9.26,0,0,1-.46,2.92,14.89,14.89,0,0,1-2.67.58A18.82,18.82,0,0,1,31.3,23c-.63-.19-1.2-.39-1.7-.59a9.25,9.25,0,0,1-.26-2.19c0-4.35,2.89-7.88,6.46-7.88S42.25,15.85,42.25,20.2Z"/></svg>