<svg xmlns="http://www.w3.org/2000/svg" xmlns:xlink="http://www.w3.org/1999/xlink" width="519.71" height="438" viewBox="0 0 519.71 438">
  <defs>
    <style>
      .cls-1, .cls-40, .cls-43, .cls-48, .cls-51 {
        fill: none;
      }

      .cls-2 {
        isolation: isolate;
      }

      .cls-3 {
        fill: #1f383b;
      }

      .cls-4 {
        fill: #1b3031;
      }

      .cls-5 {
        fill: #69bd45;
        stroke: #071538;
      }

      .cls-11, .cls-12, .cls-13, .cls-14, .cls-15, .cls-16, .cls-17, .cls-18, .cls-19, .cls-20, .cls-21, .cls-22, .cls-23, .cls-24, .cls-40, .cls-43, .cls-48, .cls-5, .cls-51 {
        stroke-miterlimit: 10;
      }

      .cls-6 {
        fill: #3f6471;
      }

      .cls-7 {
        fill: #a3b8c7;
      }

      .cls-8 {
        fill: #88a0ad;
      }

      .cls-9 {
        fill: #264148;
      }

      .cls-10 {
        fill: #12141b;
      }

      .cls-11, .cls-12, .cls-13, .cls-14, .cls-15, .cls-16, .cls-17, .cls-18, .cls-19, .cls-20, .cls-21, .cls-22, .cls-23, .cls-24 {
        fill: #ccc9e5;
        stroke-width: 0.25px;
      }

      .cls-11 {
        stroke: url(#radial-gradient);
      }

      .cls-12 {
        stroke: url(#radial-gradient-2);
      }

      .cls-13 {
        stroke: url(#radial-gradient-3);
      }

      .cls-14 {
        stroke: url(#radial-gradient-4);
      }

      .cls-15 {
        stroke: url(#radial-gradient-5);
      }

      .cls-16 {
        stroke: url(#radial-gradient-6);
      }

      .cls-17 {
        stroke: url(#radial-gradient-7);
      }

      .cls-18 {
        stroke: url(#radial-gradient-8);
      }

      .cls-19 {
        stroke: url(#radial-gradient-9);
      }

      .cls-20 {
        stroke: url(#radial-gradient-10);
      }

      .cls-21 {
        stroke: url(#radial-gradient-11);
      }

      .cls-22 {
        stroke: url(#radial-gradient-12);
      }

      .cls-23 {
        stroke: url(#radial-gradient-13);
      }

      .cls-24 {
        stroke: url(#radial-gradient-14);
      }

      .cls-25, .cls-36 {
        fill: #fff;
      }

      .cls-25, .cls-35 {
        mix-blend-mode: overlay;
      }

      .cls-25 {
        opacity: 0.2;
      }

      .cls-26 {
        fill: #648794;
      }

      .cls-27, .cls-31 {
        mix-blend-mode: multiply;
      }

      .cls-27, .cls-35 {
        opacity: 0.5;
      }

      .cls-28 {
        fill: #23366e;
      }

      .cls-29 {
        fill: #224088;
      }

      .cls-30 {
        fill: #00273d;
      }

      .cls-32 {
        fill: #127dc2;
      }

      .cls-33 {
        fill: #fbef46;
      }

      .cls-34 {
        fill: #f1e913;
      }

      .cls-37 {
        fill: #fdeb07;
      }

      .cls-38 {
        fill: #0a3a5b;
      }

      .cls-39 {
        fill: #e2ba23;
      }

      .cls-40 {
        stroke: #293559;
      }

      .cls-41 {
        clip-path: url(#clip-path);
      }

      .cls-42 {
        fill: #ef4a86;
      }

      .cls-43 {
        stroke: #cf1c63;
      }

      .cls-44 {
        fill: #f7f5f2;
      }

      .cls-45 {
        fill: #ee2d77;
      }

      .cls-46 {
        fill: #7e57a4;
      }

      .cls-47 {
        fill: #180c0d;
      }

      .cls-48 {
        stroke: #d83b77;
      }

      .cls-49 {
        fill: #ea1c68;
      }

      .cls-50 {
        fill: #cf1c63;
      }

      .cls-51 {
        stroke: #070707;
      }

      .cls-52 {
        fill: #a31d42;
      }

      .cls-53 {
        fill: #ef3744;
      }

      .cls-54 {
        fill: #fff3e0;
      }

      .cls-55 {
        fill: #f2728e;
      }

      .cls-56 {
        fill: #010101;
      }

      .cls-57 {
        fill: #d83c78;
      }

      .cls-58 {
        fill: #d5e6ad;
      }

      .cls-59 {
        fill: #3c3c4c;
      }

      .cls-60 {
        fill: #504e63;
      }

      .cls-61 {
        fill: #2f5f64;
      }

      .cls-62 {
        fill: #f59194;
      }

      .cls-63 {
        opacity: 0.29;
        fill: url(#radial-gradient-15);
      }

      .cls-64, .cls-65, .cls-66, .cls-67, .cls-68 {
        opacity: 0.39;
      }

      .cls-64 {
        fill: url(#linear-gradient);
      }

      .cls-65 {
        fill: url(#linear-gradient-2);
      }

      .cls-66 {
        fill: url(#linear-gradient-3);
      }

      .cls-67 {
        fill: url(#linear-gradient-4);
      }
    </style>
    <radialGradient id="radial-gradient" cx="165.45" cy="153.64" r="1.95" gradientTransform="translate(-2.46 62.82) rotate(-0.58)" gradientUnits="userSpaceOnUse">
      <stop offset="0" stop-color="#dfdfde"/>
      <stop offset="0.27" stop-color="#dcdcdb"/>
      <stop offset="0.44" stop-color="#d4d4d3"/>
      <stop offset="0.58" stop-color="#c5c5c5"/>
      <stop offset="0.71" stop-color="#b0b1b0"/>
      <stop offset="0.83" stop-color="#959696"/>
      <stop offset="0.94" stop-color="#757676"/>
      <stop offset="1" stop-color="#5e5f5f"/>
    </radialGradient>
    <radialGradient id="radial-gradient-2" cx="149.07" cy="161.65" r="1.95" xlink:href="#radial-gradient"/>
    <radialGradient id="radial-gradient-3" cx="132.09" cy="173.28" r="1.95" xlink:href="#radial-gradient"/>
    <radialGradient id="radial-gradient-4" cx="180.87" cy="148.67" r="1.95" xlink:href="#radial-gradient"/>
    <radialGradient id="radial-gradient-5" cx="199.68" cy="143.71" r="1.95" xlink:href="#radial-gradient"/>
    <radialGradient id="radial-gradient-6" cx="220.06" cy="140.57" r="1.95" xlink:href="#radial-gradient"/>
    <radialGradient id="radial-gradient-7" cx="242.27" cy="138.22" r="1.95" xlink:href="#radial-gradient"/>
    <radialGradient id="radial-gradient-8" cx="261.87" cy="137.7" r="1.95" xlink:href="#radial-gradient"/>
    <radialGradient id="radial-gradient-9" cx="280.94" cy="137.96" r="1.95" xlink:href="#radial-gradient"/>
    <radialGradient id="radial-gradient-10" cx="303.67" cy="140.05" r="1.95" xlink:href="#radial-gradient"/>
    <radialGradient id="radial-gradient-11" cx="325.62" cy="143.71" r="1.95" xlink:href="#radial-gradient"/>
    <radialGradient id="radial-gradient-12" cx="346.79" cy="148.15" r="1.95" xlink:href="#radial-gradient"/>
    <radialGradient id="radial-gradient-13" cx="368.21" cy="156.51" r="1.95" xlink:href="#radial-gradient"/>
    <radialGradient id="radial-gradient-14" cx="388.07" cy="168.01" r="1.95" xlink:href="#radial-gradient"/>
    <clipPath id="clip-path">
      <path class="cls-1" d="M125.16,235.77c8.37,4.56,150.36,69.74,270.38-6.67L357.49,89.23c-8.67-31.85-39.37-56.8-78.53-63.1-1.16-.18-2.33-.36-3.51-.52-53.55-7.43-104.42,22-115,65.57Z"/>
    </clipPath>
    <radialGradient id="radial-gradient-15" cx="289.24" cy="145.48" r="127.35" gradientTransform="translate(-32.93) scale(1.01 1)" gradientUnits="userSpaceOnUse">
      <stop offset="0.15" stop-color="#5a8cc9"/>
      <stop offset="0.35" stop-color="#5c90ca"/>
      <stop offset="0.56" stop-color="#639dcc"/>
      <stop offset="0.79" stop-color="#6fb3cf"/>
      <stop offset="1" stop-color="#7dced3"/>
    </radialGradient>
    <linearGradient id="linear-gradient" x1="259.2" y1="166.23" x2="259.2" y2="28.03" gradientUnits="userSpaceOnUse">
      <stop offset="0.15" stop-color="#85c0e0" stop-opacity="0"/>
      <stop offset="0.37" stop-color="#85c0e0" stop-opacity="0.01"/>
      <stop offset="0.5" stop-color="#85c1df" stop-opacity="0.05"/>
      <stop offset="0.6" stop-color="#84c2df" stop-opacity="0.11"/>
      <stop offset="0.68" stop-color="#83c3dd" stop-opacity="0.21"/>
      <stop offset="0.76" stop-color="#82c5dc" stop-opacity="0.32"/>
      <stop offset="0.83" stop-color="#81c7da" stop-opacity="0.47"/>
      <stop offset="0.9" stop-color="#80c9d8" stop-opacity="0.65"/>
      <stop offset="0.96" stop-color="#7eccd5" stop-opacity="0.84"/>
      <stop offset="1" stop-color="#7dced3"/>
    </linearGradient>
    <linearGradient id="linear-gradient-2" x1="259.78" y1="178.62" x2="259.78" y2="40.43" xlink:href="#linear-gradient"/>
    <linearGradient id="linear-gradient-3" x1="4018.65" y1="-4054.61" x2="4018.65" y2="-4192.93" gradientTransform="matrix(0.2, -1.05, 0.46, 0.09, 1298.03, 4712.59)" xlink:href="#linear-gradient"/>
    <linearGradient id="linear-gradient-4" x1="4859.36" y1="6242.17" x2="4859.36" y2="6103.84" gradientTransform="matrix(-0.2, -1.05, -0.46, 0.09, 4120.61, 4712.59)" xlink:href="#linear-gradient"/>
  </defs>
  <g class="cls-2">
    <g id="Layer_1" data-name="Layer 1">
      <g>
        <g>
          <g>
            <path class="cls-3" d="M453,325.83c.32,31.61-86.75,95.19-194.93,96.28S61.56,361.38,61.24,329.77s87.12-58.11,195.3-59.2S452.68,294.22,453,325.83Z"/>
            <path class="cls-4" d="M258,414.45c-84.64.85-193.89-54-196.65-86,0,.45-.1.89-.1,1.34.32,31.61,88.64,93.43,196.82,92.34S453.31,357.44,453,325.83c0-.45-.09-.89-.13-1.33C450.75,356.53,344.44,413.58,258,414.45Z"/>
            <ellipse class="cls-5" cx="261.21" cy="390.52" rx="21.22" ry="14.83"/>
            <ellipse class="cls-5" cx="119.91" cy="358.54" rx="14.83" ry="21.22" transform="translate(-258.11 363.76) rotate(-72.3)"/>
            <ellipse class="cls-5" cx="403.09" cy="349.82" rx="21.22" ry="14.83" transform="translate(-87.28 139.12) rotate(-17.7)"/>
          </g>
          <path class="cls-6" d="M496.2,301.14s-70.5,57.15-238.39,60.93C72.48,363.93,17.54,306,17.54,306l-.19-19.39L496,281.75Z"/>
          <g>
            <path class="cls-7" d="M18.09,288.12s14.44-50.84,98.78-81.65c90.87-33.19,194.12-29.12,266.8-8.25S491.59,258.28,496,281.92c0,0-61.49,53.06-241.95,54.87S18.09,288.12,18.09,288.12Z"/>
            <path class="cls-8" d="M496,281.75s-61.49,53.23-241.95,55-236-48.67-236-48.67,278.81,45.8,254.76-58.48C272.85,229.64,437.4,240.18,496,281.75Z"/>
            <g>
              <path class="cls-9" d="M125.29,234.59s50,30.18,138.5,29.29S395.41,229,395.41,229s-27.81-35.89-134.76-34.81S125.29,234.59,125.29,234.59Z"/>
              <path class="cls-10" d="M136,239.9l-10.74-5.31s28.93-39.29,135.36-40.36S395.41,229,395.41,229l-7.85,4s-31.91-33-127-32S136,239.9,136,239.9Z"/>
              <g>
                <circle class="cls-11" cx="164.52" cy="214.79" r="1.83"/>
                <circle class="cls-12" cx="148.23" cy="222.97" r="1.83"/>
                <circle class="cls-13" cx="131.36" cy="234.76" r="1.83"/>
                <circle class="cls-14" cx="179.89" cy="209.67" r="1.83"/>
                <circle class="cls-15" cx="198.65" cy="204.52" r="1.83"/>
                <circle class="cls-16" cx="219" cy="201.18" r="1.83"/>
                <circle class="cls-17" cx="241.18" cy="198.6" r="1.83"/>
                <circle class="cls-18" cx="260.78" cy="197.88" r="1.83"/>
                <circle class="cls-19" cx="279.85" cy="197.95" r="1.83"/>
                <circle class="cls-20" cx="302.6" cy="199.81" r="1.83"/>
                <circle class="cls-21" cx="324.59" cy="203.25" r="1.83"/>
                <circle class="cls-22" cx="345.8" cy="207.48" r="1.83"/>
                <circle class="cls-23" cx="367.31" cy="215.63" r="1.83"/>
                <circle class="cls-24" cx="387.28" cy="226.92" r="1.83"/>
              </g>
            </g>
            <path class="cls-25" d="M141.18,241.84s-38.88,11.4-69.38,72c0,0,7.89,4,28.58,8.73,0,0,16.53-48.14,61.65-72.86Z"/>
          </g>
          <path class="cls-26" d="M18.09,288.12s52,50.52,236,48.67,241.82-55.1,241.82-55.1-51.51,61.9-241,63.8S18.09,288.12,18.09,288.12Z"/>
          <g>
            <g>
              <g class="cls-27">
                <path class="cls-28" d="M285.69,295.3a28.79,28.79,0,1,1-29.38-28.2A28.81,28.81,0,0,1,285.69,295.3Z"/>
              </g>
              <g>
                <path class="cls-29" d="M285,293.58A28.15,28.15,0,1,1,256.29,266,28.16,28.16,0,0,1,285,293.58Z"/>
                <path class="cls-30" d="M284.73,293.58A28.37,28.37,0,0,1,260.5,322c-14.63,2.11-28.16-8.42-31-22.59-2.7-13.43,5.38-26.84,18-31.6,14.12-5.32,29.78,2.53,35.33,16.14a28,28,0,0,1,1.92,9.67c0,.16.57.16.56,0-.4-11.65-7.86-22.42-19.08-26.14a29,29,0,0,0-30.16,7.45c-8.62,9-9.8,22.92-3.71,33.57,5.67,9.91,17.14,15,28.29,13.7,14.28-1.66,24.76-14.45,24.66-28.58C285.29,293.43,284.73,293.42,284.73,293.58Z"/>
              </g>
              <g class="cls-31">
                <path class="cls-32" d="M279.83,293.68a23,23,0,1,1-23.43-22.47A23,23,0,0,1,279.83,293.68Z"/>
              </g>
              <g>
                <path class="cls-33" d="M277.42,293.74a20.55,20.55,0,1,1-21-20.12A20.56,20.56,0,0,1,277.42,293.74Z"/>
                <path class="cls-34" d="M277.14,293.73A20.7,20.7,0,0,1,258,314.56c-11.53.9-21-8.83-21.4-20-.43-10.91,8.48-20,19.12-20.84,11.53-.89,21,8.83,21.41,20,0,.16.57.17.55,0a21,21,0,0,0-21.24-20.25c-11.45,0-20.43,9.86-20.4,21.07,0,11.5,10.11,20.27,21.23,20.24,11.45,0,20.43-9.85,20.41-21.06C277.7,293.59,277.13,293.57,277.14,293.73Z"/>
              </g>
              <g class="cls-35">
                <path class="cls-36" d="M265.55,280.24c1.91,4.54-1.68,10.4-8,13.06s-13,1.13-14.95-3.42,1.68-10.4,8-13.06S263.65,275.69,265.55,280.24Z"/>
              </g>
              <path class="cls-37" d="M258.25,273.67a17.42,17.42,0,1,1-3.59.07,20.57,20.57,0,1,0,3.59-.07Z"/>
            </g>
            <g>
              <g class="cls-27">
                <path class="cls-28" d="M414.86,260.3c7.23,13.84,24.43,24.82,38.4,24.53s19.44-11.73,12.2-25.56-24.42-24.81-38.4-24.52S407.62,246.47,414.86,260.3Z"/>
              </g>
              <g>
                <path class="cls-29" d="M417.51,258.81c7,13.38,23.61,24,37.13,23.71s18.79-11.34,11.8-24.72-23.63-24-37.14-23.7S410.51,245.44,417.51,258.81Z"/>
                <path class="cls-38" d="M417.24,258.83a47.42,47.42,0,0,0,29.92,23c9,2.19,20.62.23,22.47-10.44,1-6-1.8-12.17-5-17a48,48,0,0,0-14.46-13.77c-8.35-5.35-21.05-9.68-30.32-4-8,4.85-6.2,15.3-2.64,22.31.07.15.62.11.54,0-2.73-5.39-4.4-11.76-1.66-17.48,3-6.22,10.54-7.56,16.73-6.94,13.67,1.36,26.93,11.57,33.31,23.45,2.84,5.27,4.35,11.85,1.67,17.47-3,6.21-10.55,7.57-16.73,6.95-13.67-1.37-26.93-11.58-33.32-23.45C417.7,258.65,417.15,258.69,417.24,258.83Z"/>
              </g>
              <path class="cls-28" d="M466.44,257.8a45.56,45.56,0,0,0-13.7-15.31,41.81,41.81,0,0,1,12,13.67c6.52,12.44,1.6,22.75-11,23s-28.05-9.63-34.57-22.07-1.7-22.52,10.57-23h-.43c-13.51.28-18.79,11.34-11.79,24.71s23.61,24,37.13,23.71S473.43,271.18,466.44,257.8Z"/>
              <path class="cls-28" d="M423.32,257.77c5.65,10.81,19.07,19.38,30,19.15s15.18-9.15,9.53-20-19.08-19.37-30-19.15S417.66,247,423.32,257.77Z"/>
              <g>
                <path class="cls-33" d="M425.24,256.72c5.11,9.77,17.25,17.51,27.11,17.31s13.72-8.29,8.61-18-17.24-17.52-27.1-17.31S420.14,247,425.24,256.72Z"/>
                <path class="cls-39" d="M425,256.71c4.92,9.09,15.39,17,26,17.41,4.2.15,8.46-.84,11-4.48,2.84-4.07,1.28-9.62-.74-13.65-4.59-9.15-15.64-17-26-17.41-4.21-.14-8.47.85-11,4.49-2.83,4.07-1.27,9.62.76,13.64.06.16.61.15.54,0-1.88-3.75-3-8-1.53-12.05,1.77-4.86,7.4-6.13,12-5.81,10.13.73,20,8.42,24.7,17.13,2,3.64,3,8,1.54,12-1.78,4.86-7.41,6.14-12,5.81-10.13-.72-20-8.42-24.7-17.12C425.44,256.57,424.9,256.59,425,256.71Z"/>
              </g>
              <path class="cls-37" d="M461,256c-5.1-9.77-17.24-17.52-27.1-17.31s-13.72,8.27-8.62,18,17.25,17.51,27.11,17.31S466.07,265.74,461,256Zm-10.52,11.48c-7.89.16-17.6-6-21.69-13.85s-1-14.27,6.89-14.44,17.61,6,21.69,13.85S458.33,267.3,450.44,267.47Z"/>
            </g>
            <g>
              <g class="cls-27">
                <path class="cls-28" d="M104.73,263.42c-7,14-23.92,25.31-37.9,25.3S47.16,277.38,54.12,263.4,78,238.1,92,238.11,111.69,249.45,104.73,263.42Z"/>
              </g>
              <g>
                <path class="cls-29" d="M102.05,262c-6.73,13.52-23.13,24.46-36.64,24.45s-19-10.95-12.3-24.47,23.14-24.46,36.65-24.44S108.78,248.47,102.05,262Z"/>
                <path class="cls-38" d="M102.32,262a47.45,47.45,0,0,1-29.45,23.56c-9,2.38-20.61.65-22.68-10-1.16-5.95,1.56-12.21,4.63-17.12A47.88,47.88,0,0,1,69,244.4c8.24-5.51,20.85-10.1,30.23-4.65,8.06,4.68,6.51,15.17,3.09,22.25-.07.15-.61.12-.54,0,2.62-5.44,4.16-11.84,1.31-17.51-3.09-6.15-10.69-7.34-16.86-6.6C72.58,239.5,59.53,250,53.39,262c-2.73,5.32-4.11,11.93-1.32,17.5,3.09,6.15,10.7,7.35,16.87,6.61C82.58,284.45,95.63,274,101.78,262,101.85,261.83,102.4,261.86,102.32,262Z"/>
              </g>
              <path class="cls-28" d="M53.11,262a45.45,45.45,0,0,1,13.38-15.58,41.94,41.94,0,0,0-11.69,13.9c-6.26,12.57-1.14,22.78,11.44,22.78s27.86-10.19,34.13-22.76,1.24-22.54-11-22.78c.14,0,.28,0,.42,0,13.52,0,19,10.95,12.29,24.46s-23.13,24.46-36.64,24.45S46.39,275.48,53.11,262Z"/>
              <path class="cls-28" d="M96.22,261.06c-5.43,10.91-18.68,19.76-29.6,19.75S51.26,272,56.69,261,75.38,241.29,86.3,241.3,101.66,250.15,96.22,261.06Z"/>
              <g>
                <path class="cls-33" d="M94.28,260.05c-4.92,9.86-16.89,17.85-26.76,17.85s-13.88-8-9-17.87,16.88-17.86,26.75-17.85S99.19,250.18,94.28,260.05Z"/>
                <path class="cls-39" d="M94.54,260c-4.74,9.19-15,17.33-25.66,17.93-4.2.23-8.48-.67-11.07-4.26-2.93-4-1.48-9.59.47-13.66,4.4-9.24,15.29-17.34,25.66-17.93,4.2-.23,8.48.68,11.08,4.26,2.91,4,1.47,9.6-.48,13.66-.06.16-.61.16-.54,0,1.81-3.8,2.87-8,1.29-12.09-1.87-4.82-7.52-6-12.12-5.56-10.11.93-19.8,8.81-24.35,17.62-1.91,3.68-2.84,8.1-1.29,12.07,1.87,4.82,7.52,6,12.12,5.56,10.12-.92,19.8-8.82,24.35-17.6C94.08,259.9,94.62,259.91,94.54,260Z"/>
              </g>
              <path class="cls-37" d="M67.52,277.9c9.87,0,21.84-8,26.76-17.85s.89-17.86-9-17.87-21.84,8-26.75,17.85S57.65,277.89,67.52,277.9ZM62.13,257c3.92-7.9,13.5-14.29,21.4-14.29s11.11,6.41,7.17,14.3S77.19,271.3,69.3,271.3,58.19,264.9,62.13,257Z"/>
            </g>
          </g>
          <path class="cls-40" d="M133.94,200.71q-8.59,2.67-17.07,5.76c-75.58,27.61-95,71.3-98.25,80.08H17.35L17.54,306s12,12.71,43.88,26c3,23.2,49,60.32,113.94,78.85,1.78.51,3.58,1,5.39,1.48,5.69,1.51,11.53,2.87,17.48,4.07l1.53.31.27.05c3,.58,6,1.12,9,1.62l.38.06q6.87,1.1,13.92,1.9,1.89.21,3.78.39l1.07.11a284.4,284.4,0,0,0,29.84,1.28,291.25,291.25,0,0,0,75.23-10.81c70.6-19.71,119.94-61.66,119.7-85.47h0c0-.3,0-.6-.05-.9,29.6-12.72,43.27-23.79,43.27-23.79l-.2-19.39,0,0c-4.51-23.3-38.78-61.48-109-82.52"/>
        </g>
        <g class="cls-41">
          <g>
            <path class="cls-42" d="M307.65,192.61c-.52,0,12.32,11.31,2.63,17.77.32-.37,1.36-10.41-3.31-9.93-.2.5-7,25.86,2.59,39.49-.4-.1-7.81,4.47-14.94,0-.09-.07.93,7.33,10.49,9.77-.3,0-7,4.6-14.18-1.9.83.8,9.15,9.31,4.06,20.28-.18-.28-2.24-12.28-8.9-15.75.09.19,7,30.38-7.32,36.85.19-.29,7-21.57-7.41-26.07.28.19,4,21.94-9.09,27.76.28.09,2.06-12.29-3.56-17.17.19,0-13,24.76-35.82,14.63.23,0,12.52-5.21,13.4-13.73-.53.84-16.32,9.58-26.7,5.29.13.06,15.7-8,6.08-14.34a20.59,20.59,0,0,1-11.31,7.75c-.31.08-.64.15-1,.21a18,18,0,0,1-7.84-.26,12.24,12.24,0,0,0,2.91-2.4c3.52-3.53,8.73-10.44,6.8-17.11a70.72,70.72,0,0,1-11,.22c-3.43-.26-6.67-1-8-2.61,0-.07,8.09-4.21,6.18-11.77-.38.53-17.95,12.53-28-4.13a22.25,22.25,0,0,0,13.32-1.78,24.21,24.21,0,0,0,8.93-8,36.27,36.27,0,0,0,5.62-11.34c3.95-12.53,17.86-45.94,18-51.1a1.22,1.22,0,0,0-.19-.74c-1.43-2-10.19,2.19-10.19,2.19s4-14.05,8.7-16.17,7.15-13,7.15-13c1.65-.66,5.95-4.63,7.11-7.78s6.78-48,43.2-52,47.51,23.18,49.33,29.88,0,32,1.16,35.18,4.71,10.34,3.29,12.65-7.84,7.71-7.84,9.51-1.92,22,6.3,25.19C324.88,191.19,312.4,194.79,307.65,192.61Z"/>
            <path class="cls-43" d="M307.66,192.89c-.52,0,12.32,11.31,2.63,17.77.33-.37,1.36-10.41-3.31-9.93-.2.5-7,25.86,2.59,39.49-.4-.1-7.81,4.47-14.94,0-.09-.07.93,7.33,10.49,9.78-.3,0-7,4.59-14.18-1.91.83.8,9.15,9.31,4.06,20.28-.18-.28-2.24-12.28-8.9-15.75.09.19,7,30.38-7.32,36.85.19-.28,7-21.57-7.41-26.07.28.19,4,21.94-9.09,27.76.28.09,2.06-12.29-3.56-17.16.19,0-13,24.75-35.82,14.62.23,0,12.52-5.21,13.4-13.72-.53.83-16.32,9.57-26.7,5.28.13.07,15.7-8.05,6.08-14.34a20.54,20.54,0,0,1-11.31,7.75l-1,.22a18.17,18.17,0,0,1-7.84-.27,12.24,12.24,0,0,0,2.91-2.4c3.52-3.53,8.73-10.43,6.8-17.11a70.09,70.09,0,0,1-11,.23c-3.43-.27-6.67-1-8-2.62,0-.07,8.09-4.21,6.18-11.76-.38.52-18,12.52-28-4.14A22.25,22.25,0,0,0,177.74,234a24.12,24.12,0,0,0,8.93-8,36.36,36.36,0,0,0,5.62-11.33c4-12.54,17.86-45.94,18-51.11a1.25,1.25,0,0,0-.19-.74c-1.43-2-10.19,2.19-10.19,2.19s4-14.05,8.7-16.17,7.15-13,7.15-13c1.65-.66,5.95-4.63,7.11-7.77s6.78-48,43.2-52,47.51,23.17,49.33,29.87,0,32,1.16,35.18,4.71,10.34,3.29,12.65S312,161.4,312,163.2s-1.92,22,6.3,25.2C324.89,191.47,312.41,195.07,307.66,192.89Z"/>
            <g>
              <g>
                <g>
                  <path class="cls-44" d="M315,127.69c0,4.26.09,10.45-4.11,14.91a11.94,11.94,0,0,1-7.15,3.83,11.23,11.23,0,0,1-3.87-.29,12.38,12.38,0,0,1-6.06-3.27,9,9,0,0,1-1.1-1.29,24,24,0,0,1-4.21-10.89c-.64-7,3.09-19.2,11.4-20.18,6.06-.72,12.23,4.76,14.29,10.32A20.11,20.11,0,0,1,315,127.69Z"/>
                  <path class="cls-45" d="M307.2,112.32a11.32,11.32,0,0,0-7.47-2c-8.29,1-12.06,13.29-11.37,20.22a24,24,0,0,0,4.21,10.89,15.29,15.29,0,0,0,1.1,1.29,12.24,12.24,0,0,0,6.05,3.27,11.66,11.66,0,0,0,3.87.29l.85-.12a10,10,0,0,1-2.85.75,12.9,12.9,0,0,1-4.09-.28,13.88,13.88,0,0,1-6.42-3.42,10.31,10.31,0,0,1-1.19-1.35,25.59,25.59,0,0,1-4.43-11.51c-.68-7.34,3.25-20.26,12.07-21.35C301,108.52,304.39,110,307.2,112.32Z"/>
                  <g>
                    <ellipse class="cls-46" cx="308.16" cy="129.11" rx="7.72" ry="5.92" transform="translate(164.41 430.71) rotate(-87.25)"/>
                    <ellipse class="cls-47" cx="308.14" cy="128.71" rx="4.11" ry="3.16" transform="translate(164.77 430.31) rotate(-87.25)"/>
                    <ellipse class="cls-44" cx="306.66" cy="125.56" rx="1.5" ry="1.15" transform="translate(166.52 425.83) rotate(-87.25)"/>
                  </g>
                </g>
                <path class="cls-48" d="M315,127.69c0,4.26.09,10.45-4.11,14.91a11.94,11.94,0,0,1-7.15,3.83,11.23,11.23,0,0,1-3.87-.29,12.38,12.38,0,0,1-6.06-3.27,9,9,0,0,1-1.1-1.29,24,24,0,0,1-4.21-10.89c-.64-7,3.09-19.2,11.4-20.18,6.06-.72,12.23,4.76,14.29,10.32A20.11,20.11,0,0,1,315,127.69Z"/>
              </g>
              <g>
                <g>
                  <path class="cls-44" d="M283.93,126.41c-.25,4.92-.62,12.07-5.77,16.92a13.78,13.78,0,0,1-8.53,3.93,12.75,12.75,0,0,1-4.45-.6,14.16,14.16,0,0,1-6.76-4.2,10.19,10.19,0,0,1-1.18-1.56A27.85,27.85,0,0,1,253.13,128c-.26-8.07,4.9-21.95,14.56-22.5,7-.42,13.79,6.34,15.77,12.9C284.17,121.05,284.1,123.07,283.93,126.41Z"/>
                  <path class="cls-45" d="M276,108.13a13.12,13.12,0,0,0-8.49-2.81c-9.64.61-14.84,14.51-14.53,22.56A27.62,27.62,0,0,0,257,140.74c.2.29.6.87,1.18,1.56a14.16,14.16,0,0,0,6.76,4.2,13.47,13.47,0,0,0,4.45.6l1-.08a11.93,11.93,0,0,1-3.33.67,15,15,0,0,1-4.71-.61,16.07,16.07,0,0,1-7.17-4.39,11.63,11.63,0,0,1-1.28-1.64,29.42,29.42,0,0,1-4.32-13.59c-.28-8.52,5.15-23.16,15.41-23.81C269,103.31,272.86,105.23,276,108.13Z"/>
                  <g>
                    <ellipse class="cls-46" cx="273.25" cy="125.9" rx="9.61" ry="7.36" transform="translate(122.42 386.22) rotate(-84.65)"/>
                    <ellipse class="cls-47" cx="274.26" cy="125.56" rx="5.12" ry="3.93" transform="translate(123.67 386.91) rotate(-84.65)"/>
                    <ellipse class="cls-44" cx="271.8" cy="122.83" rx="1.87" ry="1.43" transform="translate(124.16 381.99) rotate(-84.65)"/>
                  </g>
                </g>
                <path class="cls-48" d="M283.93,126.41c-.25,4.92-.62,12.07-5.77,16.92a13.78,13.78,0,0,1-8.53,3.93,12.75,12.75,0,0,1-4.45-.6,14.16,14.16,0,0,1-6.76-4.2,10.19,10.19,0,0,1-1.18-1.56A27.85,27.85,0,0,1,253.13,128c-.26-8.07,4.9-21.95,14.56-22.5,7-.42,13.79,6.34,15.77,12.9C284.17,121.05,284.1,123.07,283.93,126.41Z"/>
              </g>
              <path class="cls-49" d="M265.82,91.76c-.17,0-6.92-2.6-8.18-1.5s-1.59,3.17,1.19,4.13c0,0-8.52.25-6.73,4.46-.16-.15-6.22,2-2.16,4.59-.26,0-4.25,3.65-1.64,6,6.21-7.83,10-9.75,12.32-9.94a21.7,21.7,0,0,0,3.89-.72c2.43-.67,4.48-1.24,4.82-2.54S268.19,93.06,265.82,91.76Z"/>
              <path class="cls-49" d="M296.22,97c.11-.06,3.89-3.38,5-3s1.81,1.68.23,3c0,0,5.63-1.91,5.48,1.28.07-.14,4.56-.2,2.54,2.47.17-.07,3.66,1.35,2.53,3.5-6-3.59-8.9-3.93-10.47-3.48a14.86,14.86,0,0,1-2.72.48c-1.75.15-3.23.28-3.77-.49S295,98.38,296.22,97Z"/>
            </g>
            <g>
              <path class="cls-50" d="M302.61,165.57a41.26,41.26,0,0,0,14.25-7.75,41.47,41.47,0,0,1-13.95,8.7l-.3-1Z"/>
              <path class="cls-51" d="M244.85,143.77v0"/>
              <g>
                <path class="cls-52" d="M307.34,201.08c-.29.34-.6.68-.91,1a27.17,27.17,0,0,1-6.28,5,31.89,31.89,0,0,1-9.84,3.69l-.49.1c-.32.07-.65.12-1,.17-.48.08-1,.16-1.44.22l-.46.06c-.49.05-1,.11-1.47.14-1.32.11-2.67.17-4,.15-.1,0-.21,0-.32,0-1.65,0-3.31-.11-4.94-.27l-1.15-.14c-1.2-.16-2.39-.34-3.57-.56-.4-.08-.79-.15-1.18-.24l-.13,0h0c-8.52-1.78-16.12-5.26-20.52-8.8A16.06,16.06,0,0,1,247,198.9c-.12-.16-.22-.3-.32-.46a38.14,38.14,0,0,1-2.22-6.36c-5-19,.49-45.28.3-49.09a41.09,41.09,0,0,0,1.9,6.8,30.4,30.4,0,0,0,4.65,8.31,25.13,25.13,0,0,0,4.09,4.15,1.37,1.37,0,0,0,.18.16,29.88,29.88,0,0,0,3.11,2.17,35,35,0,0,0,11.73,4.28c.84.16,1.68.29,2.53.4.36,0,.72.09,1.09.12h.09l1.44.13h0c1,.07,1.94.12,2.9.14a68.6,68.6,0,0,0,9.67-.46l.31,0c2.48-.3,4.78-.68,6.81-1.08,1.62-.31,3.08-.65,4.3-1,.75-.17,1.41-.35,2-.49q.36-.09.72-.21l.41-.12c-.38,2.15-.69,4.16-.92,6.06C298.77,196.27,306.77,201.65,307.34,201.08Z"/>
                <path class="cls-53" d="M306.43,202.09a27.17,27.17,0,0,1-6.28,5,31.89,31.89,0,0,1-9.84,3.69l-.49.1c-.32.07-.65.12-1,.17-.48.08-1,.16-1.44.22l-.46.06c-.49.05-1,.11-1.47.14-1.32.11-2.67.17-4,.15-.1,0-.21,0-.32,0-1.65,0-3.31-.11-4.94-.27l-1.15-.14c-1.2-.16-2.39-.34-3.57-.56-.4-.08-.79-.15-1.18-.24l-.13,0h0c-8.52-1.78-16.12-5.26-20.52-8.8A16.06,16.06,0,0,1,247,198.9c-.12-.16-.22-.3-.32-.46a38.14,38.14,0,0,1-2.22-6.36c8.44-1.74,22.34-2.57,33.05,6.9C278.47,198.74,294.19,190.24,306.43,202.09Z"/>
                <g>
                  <path class="cls-54" d="M288.44,169.17l-.21.41c-.13.25-.27.53-.41.82l-.09.17c-.09.17-.16.33-.24.5-1.16,2.44-1.44,3.49-1.9,4.4a6.21,6.21,0,0,1-5.47,3.62c-2.52-.11-5.86-3.28-8.76-8.44-.33-.57-.65-1.17-1-1.79.84.16,1.68.29,2.53.4.36,0,.72.09,1.09.12h.09l1.44.13h0c1,.07,1.94.12,2.9.14a68.6,68.6,0,0,0,9.67-.46Z"/>
                  <path class="cls-54" d="M272.93,169.26c-.42.35-.95.8-1.57,1.39l-.14.13-.15.14-.39.37c-1.94,1.87-2.58,2.76-3.33,3.45a6.23,6.23,0,0,1-6.39,1.47c-2.27-1-4.24-5-5.17-10.58-.18-1.06-.32-2.2-.41-3.38a1.37,1.37,0,0,0,.18.16,29.88,29.88,0,0,0,3.11,2.17,35,35,0,0,0,11.73,4.28C271.24,169,272.08,169.15,272.93,169.26Z"/>
                  <path class="cls-54" d="M258.67,164.58c-.38.12-.8.26-1.25.43l-.18.07a5.44,5.44,0,0,0-.52.19c-.33.13-.65.24-.93.36-1.85.73-2.66,1.2-3.49,1.49a6.21,6.21,0,0,1-6.45-1.19c-2.13-2.25-2-8.6.79-16.14a30.4,30.4,0,0,0,4.65,8.31,25.13,25.13,0,0,0,4.09,4.15,1.37,1.37,0,0,0,.18.16A29.88,29.88,0,0,0,258.67,164.58Z"/>
                  <path class="cls-54" d="M302.24,166.44c-2.6,8.57-7.75,11.65-10.8,9.41-1.35-1-2.27-3-2.88-5-.08-.29-.16-.56-.23-.83a3.48,3.48,0,0,1-.1-.44c0-.12-.07-.25-.1-.38l.31,0c2.48-.3,4.78-.68,6.81-1.08,1.62-.31,3.08-.65,4.3-1,.75-.17,1.41-.35,2-.49Q301.88,166.56,302.24,166.44Z"/>
                  <path class="cls-54" d="M270.18,210.36c-8.52-1.78-16.12-5.26-20.52-8.8A15.33,15.33,0,0,1,247,198.9c2-2.8,5.15-6,8.69-5.77,3.72.27,6.26,4.18,10.9,11.08C268.07,206.51,269.26,208.6,270.18,210.36Z"/>
                  <path class="cls-54" d="M284.37,211.45c-1,.08-1.92.13-2.89.15-.1,0-.21,0-.32,0-1.65,0-3.31-.11-4.94-.27l-1.15-.14c-1.2-.16-2.39-.34-3.57-.56-.4-.08-.79-.15-1.18-.24a8,8,0,0,1,.23-5.81c.91-2,2.9-4.46,5.18-4.64C278.94,199.69,283,204.09,284.37,211.45Z"/>
                  <path class="cls-54" d="M300.15,207.07a31.89,31.89,0,0,1-9.84,3.69c-1,.19-1.94.36-2.9.49l-.45.07h0a8.46,8.46,0,0,1-1.82-5.9c.21-2.22,1.3-5.23,3.39-6.14C291.4,198,296.49,200.78,300.15,207.07Z"/>
                </g>
              </g>
              <path class="cls-43" d="M301.9,172.09q.35-2.85.92-6.06l-1.13.33-2,.49c-1.23.3-2.68.63-4.31,1a78.1,78.1,0,0,1-16.78,1.57c-1,0-1.93-.07-2.9-.14h0l-1.45-.13h-.09c-6.56-.7-13.11-2.68-18.46-7a26.33,26.33,0,0,1-4.27-4.3,34.11,34.11,0,0,1-6.5-14.89s0,0,0,0c0,5.05-6.53,36.74,1.91,55.23q.15.22.33.45a15,15,0,0,0,2.68,2.67c4.4,3.54,12,7,20.52,8.8h0c.43.1.86.18,1.31.26,1.18.23,2.37.41,3.57.57l1.14.13a50.37,50.37,0,0,0,9.27.13,41.72,41.72,0,0,0,4.33-.59,29.69,29.69,0,0,0,17.46-9.71s0,0,0,0C306.43,201,299,195.21,301.9,172.09Z"/>
            </g>
            <g>
              <ellipse class="cls-55" cx="236.66" cy="105.63" rx="8.86" ry="4.43" transform="translate(39.96 274.39) rotate(-64.68)"/>
              <ellipse class="cls-55" cx="229.69" cy="134.82" rx="13.76" ry="7.08" transform="translate(24.37 304.47) rotate(-69.98)"/>
            </g>
            <path class="cls-50" d="M239,144.1c1.11-2.21,3.55-4.91,6.07-4.4a14.69,14.69,0,0,1,4.57,3.73c-1.25-.67-2.51-1.5-3.72-2.22a8.54,8.54,0,0,0-1.13-.57c-2-.22-4.16,2-5.79,3.46Z"/>
            <path class="cls-50" d="M256.07,157.13a51.7,51.7,0,0,0,49.52,3.15,53.54,53.54,0,0,0,6.52-3.56c-16,12.33-39.88,12.55-56,.41Z"/>
            <path class="cls-50" d="M239,184.69c.17,2.66.48,5.32.82,8,.56,3.18.74,6.64,2.41,9.38,2.48,1.93,5.72,3.3,8.52,4.83a33.09,33.09,0,0,0,3.61,1.72,44.82,44.82,0,0,1-7.5-2.88c-1.83-.94-3.88-1.62-5.39-3.06-1.91-2.93-2-6.59-2.41-9.91a51.39,51.39,0,0,1-.06-8Z"/>
            <rect class="cls-56" x="286.2" y="215.42" width="12.21" height="47.71" rx="4.13" transform="translate(-66.42 120.9) rotate(-21.04)"/>
            <rect class="cls-56" x="330.89" y="206.61" width="12.21" height="47.71" rx="4.13" transform="translate(-60.27 136.35) rotate(-21.04)"/>
            <path class="cls-42" d="M308.33,216.06l9-1.13,0,17.38a25.23,25.23,0,0,1-10.06,3.52"/>
            <path class="cls-57" d="M312.13,234.35a22.91,22.91,0,0,1-8.05,2.45l1-20.06,7-.9Z"/>
            <path class="cls-43" d="M307.68,216l9-1.13,0,17.38a25.15,25.15,0,0,1-10.05,3.52"/>
            <ellipse class="cls-58" cx="298.98" cy="236.18" rx="4.54" ry="3.24" transform="translate(45.2 520.36) rotate(-86.54)"/>
            <ellipse class="cls-58" cx="231.49" cy="217.62" rx="3.73" ry="4.88" transform="translate(0.3 435.55) rotate(-86.54)"/>
            <path class="cls-59" d="M254.38,264.26s32.6-38.33,113.16-19.72c0,0-15.65,5.46-15.8,5.82S287.5,272.18,254.38,264.26Z"/>
            <g>
              <path class="cls-42" d="M212.56,212.62a55.23,55.23,0,0,0,10.71,19.87,54.1,54.1,0,0,0,7.9,7.61,69.57,69.57,0,0,0,37.17.26,65.4,65.4,0,0,0,11.1-4.22c1-.46,1.87-.93,2.74-1.4,6.52,1.26,9,3.55,10,5.53.15.32.34.74.59,1.21a5.27,5.27,0,0,0,2.3,2.37,4.35,4.35,0,0,0,3.3.2c1.9-.86,2.95-4.05,1.76-7.61h.06a3.1,3.1,0,0,0,2.26-.17c.79-.45,1.25-1.35,1.53-3.05a19.58,19.58,0,0,0-.62-8.46c1.12-.4,3.52-1.45,4.42-3.72,1.56-3.91-2.18-9.25-6.37-10.71a9.68,9.68,0,0,0-6.44.25,28.43,28.43,0,0,0-6.74,3.77c-2.38,1.67-3.21,2.87-8,6.59l-.86.66c-2.14,1.63-3.2,2.45-4.1,3-4.29,2.6-8.32,3-13.15,3.52A50,50,0,0,1,244.83,227c-1.86-.48-3.4-1-4.5-1.38-3.31-8.16-5.76-14.66-7.31-18.9-3.08-8.38-4.8-13.65-9.13-14.89a8.43,8.43,0,0,0-5.32.43"/>
              <path class="cls-42" d="M212.56,212.62a55.23,55.23,0,0,0,10.71,19.87,54.1,54.1,0,0,0,7.9,7.61,69.57,69.57,0,0,0,37.17.26,65.4,65.4,0,0,0,11.1-4.22c1-.46,1.87-.93,2.74-1.4,6.52,1.26,9,3.55,10,5.53.15.32.34.74.59,1.21a5.27,5.27,0,0,0,2.3,2.37,4.35,4.35,0,0,0,3.3.2c1.9-.86,2.95-4.05,1.76-7.61h.06a3.1,3.1,0,0,0,2.26-.17c.79-.45,1.25-1.35,1.53-3.05a19.58,19.58,0,0,0-.62-8.46c1.12-.4,3.52-1.45,4.42-3.72,1.56-3.91-2.18-9.25-6.37-10.71a9.68,9.68,0,0,0-6.44.25,28.43,28.43,0,0,0-6.74,3.77c-2.38,1.67-3.21,2.87-8,6.59l-.86.66c-2.14,1.63-3.2,2.45-4.1,3-4.29,2.6-8.32,3-13.15,3.52A50,50,0,0,1,244.83,227c-1.86-.48-3.4-1-4.5-1.38-3.31-8.16-5.76-14.66-7.31-18.9-3.08-8.38-4.8-13.65-9.13-14.89a8.43,8.43,0,0,0-5.32.43"/>
              <path class="cls-42" d="M303.79,224.83s-3.37-5.26-8.34-6.57"/>
              <path class="cls-42" d="M300.69,237s-3.38-5.26-8.34-6.57"/>
            </g>
            <g>
              <polyline class="cls-57" points="281.17 234.19 281.23 234.37 281.26 234.77"/>
              <path class="cls-57" d="M211.42,218l0-.08"/>
              <path class="cls-57" d="M281.51,238.36c-.85.49-1.75,1-2.7,1.47a65.63,65.63,0,0,1-11,4.49,69.52,69.52,0,0,1-37.16.63,54.42,54.42,0,0,1-8.08-7.42A55.24,55.24,0,0,1,211.42,218s-.18-4.28.86-5a54.41,54.41,0,0,0,18.53,26.56,71.11,71.11,0,0,0,37.55.29,68.33,68.33,0,0,0,11.22-4.22l1.68-.84Z"/>
              <path class="cls-57" d="M212.28,213c.24-.18.55-.16.94.15"/>
            </g>
            <path class="cls-60" d="M293.55,257.12a10.43,10.43,0,0,1-6.15,3.2,10.75,10.75,0,0,1-8.25-2.56c0-1.83,0-3.68,0-5.54q0-7.83.31-16.08c1-.46,1.87-.93,2.74-1.4,6.52,1.26,9,3.55,10,5.53.15.32.34.74.59,1.21,0,1.56,0,3.1.1,4.61C293,250,293.23,253.65,293.55,257.12Z"/>
            <path class="cls-60" d="M296,204.48c-.1.58-.21,1.16-.31,1.75-.25,1.42-.5,2.87-.72,4.36a28.43,28.43,0,0,0-6.74,3.77c-2.38,1.67-3.21,2.87-8,6.59q.52-8,1.28-15.55c.05-.6.11-1.19.18-1.78.43-.33,5.22-3.87,10.34-2A9.61,9.61,0,0,1,296,204.48Z"/>
            <path class="cls-59" d="M297.8,205.55a3.14,3.14,0,0,1-2.13.68c.11-.59.22-1.18.32-1.75a9.61,9.61,0,0,0-4-2.84c-5.12-1.9-9.92,1.64-10.35,2l-.18,1.79a2.86,2.86,0,0,1-1.48-1.16,3,3,0,0,1-.4-2.15c.19-.23,4.66-5.45,11.24-4.34a12.22,12.22,0,0,1,8.08,5.51A3.14,3.14,0,0,1,297.8,205.55Z"/>
            <path class="cls-59" d="M327.11,196.63A9.81,9.81,0,0,1,310,201.24a11.66,11.66,0,0,1,6.16-6C321.76,193,326.73,196.36,327.11,196.63Z"/>
            <path class="cls-60" d="M318.81,212.29c-1.14,1.87-1.06,3.84-.1,4.66a1.89,1.89,0,0,0,.68.37,15.28,15.28,0,0,0-2.3,1.87A68.68,68.68,0,0,0,310,201.24a9.81,9.81,0,0,0,17.09-4.61c1.08,2.7,2.14,5.66,3.1,8.87A15.83,15.83,0,0,0,318.81,212.29Z"/>
            <path class="cls-42" d="M344.07,222.35a4.6,4.6,0,0,1-2.57.47,5.63,5.63,0,0,1-1.24,5.63,4.5,4.5,0,0,1-2.3,1.1,3.85,3.85,0,0,1,.23.44c1,2.18.71,4.49-.64,5.73a3.83,3.83,0,0,1-2.17.95c-.19-.11-.4-.24-.64-.36a15.48,15.48,0,0,0-2.53-1.1,13.79,13.79,0,0,0-6.79-.66c-2.75.49-3.86,1.77-6.52,1.92h-.51a3.11,3.11,0,0,1-2-.56,3.8,3.8,0,0,1-1.15-2.93,5.79,5.79,0,0,1,1.41-3.44,3,3,0,0,1-2.3.13c-1.14-.55-1.71-2.44-1.09-4.54a15.7,15.7,0,0,1,3.82-5.95,15.28,15.28,0,0,1,2.3-1.87,2.05,2.05,0,0,1-.68-.37c-1-.82-1-2.79.1-4.66a15.83,15.83,0,0,1,11.4-6.79,15.37,15.37,0,0,1,3.83.08,15.8,15.8,0,0,1,12.55,10.26C347.07,218.7,346,221.31,344.07,222.35Z"/>
            <path class="cls-43" d="M344.31,222.3a4.51,4.51,0,0,1-2.57.47,5.62,5.62,0,0,1-1.24,5.63,4.5,4.5,0,0,1-2.3,1.1,3.22,3.22,0,0,1,.23.45c1,2.18.71,4.48-.64,5.72a3.93,3.93,0,0,1-2.17,1c-.19-.12-.4-.24-.64-.37a14.71,14.71,0,0,0-2.53-1.09,13.64,13.64,0,0,0-6.79-.67c-2.75.5-3.86,1.78-6.52,1.92l-.51,0a3.11,3.11,0,0,1-2-.56,3.83,3.83,0,0,1-1.15-2.94,5.76,5.76,0,0,1,1.41-3.43,3,3,0,0,1-2.3.13c-1.14-.56-1.71-2.44-1.09-4.54a15.74,15.74,0,0,1,3.82-6,15.92,15.92,0,0,1,2.3-1.87,1.86,1.86,0,0,1-.68-.36c-1-.82-1-2.8.1-4.67a15.82,15.82,0,0,1,11.4-6.78,15.36,15.36,0,0,1,3.83.07,15.79,15.79,0,0,1,12.55,10.27C347.31,218.65,346.27,221.27,344.31,222.3Z"/>
            <path class="cls-60" d="M334.12,248a11.47,11.47,0,0,1-16.3-1,68.83,68.83,0,0,0,.89-6.94c.09-1.13.16-2.32.19-3.56,2.66-.15,3.77-1.43,6.52-1.92a13.64,13.64,0,0,1,6.79.67,14.71,14.71,0,0,1,2.53,1.09c0,1.28,0,2.52-.06,3.73C334.58,242.9,334.38,245.55,334.12,248Z"/>
            <path class="cls-50" d="M319.39,217.32c7.45-2.49,17.6-1.75,22.11,5.5-5.55-6.14-14.42-6.52-22.11-5.5Z"/>
            <path class="cls-50" d="M316.66,229.55c6-4.69,15.63-5.76,21.3,0a26.67,26.67,0,0,0-3.76-1.93c-5.79-2.14-12.13-.68-17.54,1.93Z"/>
            <ellipse class="cls-61" cx="305.72" cy="248.36" rx="1.28" ry="2.75" transform="translate(39.36 538.54) rotate(-86.54)"/>
            <ellipse class="cls-61" cx="314.05" cy="252.37" rx="1.28" ry="2.75" transform="translate(43.19 550.62) rotate(-86.54)"/>
            <ellipse class="cls-61" cx="321.5" cy="256.38" rx="1.28" ry="2.75" transform="translate(46.18 561.82) rotate(-86.54)"/>
            <ellipse class="cls-61" cx="340.12" cy="245.78" rx="1.28" ry="2.75" transform="translate(74.27 570.45) rotate(-86.54)"/>
            <ellipse class="cls-61" cx="347.65" cy="247.52" rx="1.28" ry="2.75" transform="translate(79.6 579.6) rotate(-86.54)"/>
            <ellipse class="cls-61" cx="353.85" cy="249.13" rx="1.28" ry="2.75" transform="translate(83.82 587.31) rotate(-86.54)"/>
            <ellipse class="cls-61" cx="298.03" cy="251.93" rx="1.28" ry="2.75" transform="translate(28.57 534.21) rotate(-86.54)"/>
            <ellipse class="cls-61" cx="306.36" cy="255.94" rx="1.28" ry="2.75" transform="translate(32.4 546.29) rotate(-86.54)"/>
            <ellipse class="cls-61" cx="313.96" cy="259.21" rx="1.28" ry="2.75" transform="translate(36.28 556.96) rotate(-86.54)"/>
            <g>
              <path class="cls-43" d="M212.56,212.62a55.23,55.23,0,0,0,10.71,19.87,54.1,54.1,0,0,0,7.9,7.61,69.57,69.57,0,0,0,37.17.26,65.4,65.4,0,0,0,11.1-4.22c1-.46,1.87-.93,2.74-1.4,6.52,1.26,9,3.55,10,5.53.15.32.34.74.59,1.21a5.27,5.27,0,0,0,2.3,2.37,4.35,4.35,0,0,0,3.3.2c1.9-.86,2.95-4.05,1.76-7.61h.06a3.1,3.1,0,0,0,2.26-.17c.79-.45,1.25-1.35,1.53-3.05a19.58,19.58,0,0,0-.62-8.46c1.12-.4,3.52-1.45,4.42-3.72,1.56-3.91-2.18-9.25-6.37-10.71a9.68,9.68,0,0,0-6.44.25,28.43,28.43,0,0,0-6.74,3.77c-2.38,1.67-3.21,2.87-8,6.59l-.86.66c-2.14,1.63-3.2,2.45-4.1,3-4.29,2.6-8.32,3-13.15,3.52A50,50,0,0,1,244.83,227c-1.86-.48-3.4-1-4.5-1.38-3.31-8.16-5.76-14.66-7.31-18.9-3.08-8.38-4.8-13.65-9.13-14.89a8.43,8.43,0,0,0-5.32.43"/>
              <path class="cls-43" d="M212.56,212.62a55.23,55.23,0,0,0,10.71,19.87,54.1,54.1,0,0,0,7.9,7.61,69.57,69.57,0,0,0,37.17.26,65.4,65.4,0,0,0,11.1-4.22c1-.46,1.87-.93,2.74-1.4,6.52,1.26,9,3.55,10,5.53.15.32.34.74.59,1.21a5.27,5.27,0,0,0,2.3,2.37,4.35,4.35,0,0,0,3.3.2c1.9-.86,2.95-4.05,1.76-7.61h.06a3.1,3.1,0,0,0,2.26-.17c.79-.45,1.25-1.35,1.53-3.05a19.58,19.58,0,0,0-.62-8.46c1.12-.4,3.52-1.45,4.42-3.72,1.56-3.91-2.18-9.25-6.37-10.71a9.68,9.68,0,0,0-6.44.25,28.43,28.43,0,0,0-6.74,3.77c-2.38,1.67-3.21,2.87-8,6.59l-.86.66c-2.14,1.63-3.2,2.45-4.1,3-4.29,2.6-8.32,3-13.15,3.52A50,50,0,0,1,244.83,227c-1.86-.48-3.4-1-4.5-1.38-3.31-8.16-5.76-14.66-7.31-18.9-3.08-8.38-4.8-13.65-9.13-14.89a8.43,8.43,0,0,0-5.32.43"/>
              <path class="cls-43" d="M303.79,224.83s-3.37-5.26-8.34-6.57"/>
              <path class="cls-43" d="M300.69,237s-3.38-5.26-8.34-6.57"/>
            </g>
            <g>
              <path class="cls-42" d="M295.29,84.92c5.75-13.07-3.52-25.42-3.81-25.17-4.58,5.44-13.76,8-19.17,4-4.4-6.14,8.75-22.39,19.46-11.75,16.54,18.7,7.4,33.93,7.4,33.93"/>
              <path class="cls-43" d="M295.61,84.81c5.75-13.07-3.52-25.42-3.81-25.17-4.58,5.44-13.76,8-19.17,4-4.4-6.14,8.75-22.39,19.46-11.75,16.54,18.7,7.4,33.93,7.4,33.93"/>
              <path class="cls-42" d="M258.66,80.11c.27-1.23-1.35-23.93-22.78-24.51-8.58,1.48-9.09,20.4,6.39,12.49,4.65-3.26,4.06-4.06,4.06-4.06s14.77,7.55,6.5,19"/>
              <path class="cls-43" d="M258.47,80.18c.27-1.23-1.36-23.93-22.79-24.51-8.57,1.48-9.08,20.4,6.4,12.49,4.65-3.26,4-4.06,4-4.06s14.78,7.55,6.5,19"/>
              <path class="cls-42" d="M265.27,78.46c.36-1,3.5-6.29-2.1-9.73.16,0,8.56,1,7.3,9.71.17-.31,5.38-8.76-3.32-12.88,0,.16,9.6-1.29,8,13.06a8.93,8.93,0,0,0,4.19-9.38c.31.34,4.8,4.05,2.52,11.58"/>
              <path class="cls-43" d="M265.38,78.78c.36-1,3.5-6.3-2.1-9.74.16,0,8.56,1,7.3,9.72.17-.32,5.38-8.76-3.32-12.88,0,.16,9.61-1.29,8,13.05a8.91,8.91,0,0,0,4.19-9.38c.31.34,4.8,4.06,2.52,11.59"/>
              <ellipse class="cls-62" cx="235.54" cy="63.97" rx="2.66" ry="5.44" transform="translate(2.96 137.98) rotate(-32.85)"/>
              <ellipse class="cls-62" cx="278.53" cy="61.37" rx="2.66" ry="5.44" transform="translate(144.78 313.28) rotate(-74.46)"/>
            </g>
          </g>
        </g>
        <g>
          <g>
            <path class="cls-63" d="M124.58,236C133,240.57,275,305.76,395,229.35L356.92,89.48c-8.67-31.85-39.37-56.81-78.53-63.1-1.16-.19-2.33-.37-3.51-.53-53.55-7.42-104.42,22-115,65.58Z"/>
            <path class="cls-64" d="M353.07,166.23s-42.26-61.4-94.41-61.4-94.4,61.4-94.4,61.4c-23.69-5.07-11.65-140.1,94.4-138.07C355.53,23.32,382.53,159.66,353.07,166.23Z"/>
            <path class="cls-65" d="M353.65,178.62s-42.27-61.39-94.41-61.39-94.41,61.39-94.41,61.39c-23.68-5.06-11.65-140.09,94.41-138.06C356.1,35.72,383.1,172.06,353.65,178.62Z"/>
            <path class="cls-66" d="M232.94,63.85s-36.49,39.06-46.66,93.71S175.21,250,175.21,250c-37.39-12.42-45.81,12-24.2-99C167.67,49.05,235.66,32.42,232.94,63.85Z"/>
            <path class="cls-67" d="M284.66,63.85s36.49,39.06,46.66,93.71S342.39,250,342.39,250c37.39-12.42,45.81,12,24.2-99C349.93,49.05,281.94,32.42,284.66,63.85Z"/>
          </g>
          <g class="cls-68">
            <path class="cls-36" d="M354.64,156.88c-.38-5.26-2.48-10.47-4.1-15.48-1.79-5.1-3.81-10.12-6-15.05a216,216,0,0,0-15-28.51c-5.62-9-12.63-17-19.62-24.79-7.08-7.64-15-14.31-24.81-19.28l.21-.77a41.85,41.85,0,0,1,16.24,4.62c15.77,7.83,25.57,21.86,33.5,37a194.13,194.13,0,0,1,13.17,30.3c3,9.12,5.72,18.37,7,27.9a16.94,16.94,0,0,1,.12,4.23l-.79-.15Z"/>
          </g>
        </g>
      </g>
    </g>
  </g>
</svg>
