<svg id="Layer_1" data-name="Layer 1" xmlns="http://www.w3.org/2000/svg" viewBox="0 0 357.18 412.24"><defs><style>.cls-1{fill:#de195a;}.cls-2{fill:#cd1d5d;}.cls-3{fill:#ee4984;}.cls-12,.cls-16,.cls-4{fill:none;stroke-miterlimit:10;}.cls-4{stroke:#c51e57;}.cls-5{fill:#fe4786;}.cls-6{fill:#e91a68;}.cls-7{opacity:0.81;}.cls-8{fill:#ff8db6;}.cls-9{fill:#a21d42;}.cls-10{fill:#ee3644;}.cls-11{fill:#fff;}.cls-12{stroke:#ec1262;stroke-width:2px;}.cls-13{fill:#f49093;}.cls-14{fill:#de1959;}.cls-15{fill:#c51e57;}.cls-16{stroke:#66002e;}</style></defs><path class="cls-1" d="M327.52,273.46c-.45-1.34-.84-2.66-1.28-4-1.65-4.84-4.12-9.79-13.29-15.73-.34-.21,9.35,11.29,6.1,17.21a6,6,0,0,1-.55.8c-4.73,5.6-7.16-3.07-9.1-3.25-2.37-.21-3.2-.09-4.71-1.27a4.9,4.9,0,0,1-.72-.72s0,0,0,0a8.08,8.08,0,0,1-1.34-4.22c-1.07-10.69.24-14.81-1.84-18.65a10.75,10.75,0,0,0-4.66-4.31,30.46,30.46,0,0,0-2.82-1.26c-2.73-1.14-6-2.7-9.74-4.57C278.63,231,273,228,267.13,224.7c-6.42-3.56-13.17-7.43-19.68-11.23L238,207.92c-5.16-3.07-10-6-14.11-8.46l-5-3c-5.69-3.46-9.24-5.66-9.24-5.66l4-32.56,27.21,21.35,17.57,13.79,7.53,5.9L283.58,213l13.15,10.33,10.17,8,2.5,2S335,253.5,340.94,271.05C343.81,279.65,333.83,282.52,327.52,273.46Z"/><path class="cls-2" d="M326.24,269.45c-.88,2.55-4.05,3.34-7.19,1.48,3.25-5.92-6.43-17.42-6.1-17.21C322.12,259.66,324.6,264.61,326.24,269.45Z"/><path class="cls-3" d="M258.51,193.37,238,207.92c-5.16-3.07-10-6-14.11-8.46l-5-3c6.19-5,14.51-11.29,22-16.87Z"/><path class="cls-3" d="M283.58,213,267.13,224.7c-6.42-3.56-13.17-7.43-19.68-11.23,5.54-4.39,12.3-9.51,18.59-14.2Z"/><path class="cls-3" d="M306.9,231.33l-10.79,7.95a30.46,30.46,0,0,0-2.82-1.26c-2.73-1.14-6-2.7-9.74-4.57,4.35-3.37,9-6.92,13.18-10.09Z"/><path class="cls-4" d="M340.94,271.05c-6-17.55-31.54-37.76-31.54-37.76l-2.5-2-10.17-8L283.58,213,266,199.27l-7.53-5.9-17.57-13.79-27.21-21.35-4,32.56s3.55,2.2,9.24,5.66l5,3c4.14,2.5,9,5.39,14.11,8.46l9.45,5.55c6.51,3.8,13.26,7.67,19.68,11.23,5.89,3.27,11.5,6.28,16.42,8.75,3.7,1.87,7,3.43,9.74,4.57a30.46,30.46,0,0,1,2.82,1.26,10.75,10.75,0,0,1,4.66,4.31c2.08,3.84.77,8,1.84,18.65a8.08,8.08,0,0,0,1.34,4.22s0,0,0,0a4.9,4.9,0,0,0,.72.72c1.51,1.18,2.34,1.06,4.71,1.27,1.94.18,4.37,8.85,9.1,3.25a6,6,0,0,0,.55-.8c3.25-5.92-6.44-17.42-6.1-17.21h0c-.25-.13,9.34,11.3,6.1,17.2,3.14,1.85,6.31,1.07,7.19-1.48h0c.44,1.35.83,2.67,1.28,4C333.83,282.52,343.81,279.65,340.94,271.05Z"/><path class="cls-1" d="M145.25,315.52c-1.1,19-1.83,33.27-1.88,41.84h0v.13a20.31,20.31,0,0,1-2,9.38,17.55,17.55,0,0,1-3.61,4.85,34.73,34.73,0,0,1-5.9,4.37c-1.15.71-2.34,1.41-3.71,2.14a106.17,106.17,0,0,1-12.54,5.54c-2.94,1.12-6.41,2.38-10.58,3.82-8.7,3-13.35,4.35-19.3,3.41-2.58-.41-7.06-1.19-8.38-4.26-1.64-3.83,2.64-8.86,4.4-10.93A30.2,30.2,0,0,1,92.23,368a58.74,58.74,0,0,1,5.7-2.31A61.21,61.21,0,0,1,108.07,363c5.63-.94,8.6-.46,12.15-2.28a13.75,13.75,0,0,0,3.16-2.24,22.23,22.23,0,0,0,5.47-9.12h0c2.15-6.12,3.5-15.18,3.22-28.62"/><path class="cls-3" d="M127.83,378.38a106.48,106.48,0,0,1-12.55,5.54c-6-6.59-18.2-13.12-23.37-15.73a57.73,57.73,0,0,1,5.7-2.31,61,61,0,0,1,10.14-2.69C114.74,367.09,123.39,374.43,127.83,378.38Z"/><path class="cls-3" d="M143.32,357.43v.13a20.28,20.28,0,0,1-2,9.37,17.6,17.6,0,0,1-3.61,4.86c-3.31-7.57-10.27-11.43-14.38-13.21a22.19,22.19,0,0,0,5.47-9.11A78.84,78.84,0,0,1,143.32,357.43Z"/><path class="cls-4" d="M132.07,320.78c.28,13.44-1.07,22.5-3.22,28.62h0a.24.24,0,0,1,0,.08h0a25,25,0,0,1-3.93,7.44,18.06,18.06,0,0,1-1.49,1.61,13.75,13.75,0,0,1-3.16,2.24c-3.55,1.82-6.52,1.34-12.15,2.28a61.21,61.21,0,0,0-10.14,2.69,58.74,58.74,0,0,0-5.7,2.31l-.16.08-.16.07h0a29.91,29.91,0,0,0-10.17,7.62c-1.76,2.07-6,7.1-4.4,10.93,1.32,3.07,5.8,3.85,8.38,4.26,6,.94,10.6-.4,19.3-3.41,4-1.39,7.37-2.6,10.23-3.7l0,0c3.77-1.44,6.65-2.66,9-3.77,1.46-.67,2.72-1.31,3.86-1.92,1.37-.73,2.56-1.43,3.71-2.14a35.46,35.46,0,0,0,5.85-4.32v0a19.48,19.48,0,0,0,2-2.25,17.71,17.71,0,0,0,1.66-2.67,20.31,20.31,0,0,0,2-9.38v-.13h0c0-8.57.78-22.89,1.88-41.84Z"/><path class="cls-1" d="M224.92,322.86c.12.49-1.17,13,4.13,21h0a13.84,13.84,0,0,0,5.66,5,38.23,38.23,0,0,0,4.2,1.66c3.3,1.11,6.85,2,10.37,2.95,5.49,1.53,10.88,3.38,15,7.05h0A20.36,20.36,0,0,1,270,369c5.57,15.34-21.66,9-26.74,5.75l-.31-.22c-1.68-1.3-4.89-3.52-8.34-5.69a80.87,80.87,0,0,0-9.8-5.47,8.41,8.41,0,0,0-2.81-.83,8.47,8.47,0,0,1-7.82-7.78h0a12.76,12.76,0,0,1,.17-3.89c1.54-8.15,1.23-29.52.62-32"/><path class="cls-3" d="M238.83,350.51c-3.69,2.9-11.2,9-14.15,12.84a8.41,8.41,0,0,0-2.81-.83,8.45,8.45,0,0,1-7.81-7.77c2.29-2,10.54-9.15,14.91-10.9a13.92,13.92,0,0,0,5.67,5A38.09,38.09,0,0,0,238.83,350.51Z"/><path class="cls-3" d="M264.22,360.46c-4.66.48-13.14,3-21.07,14.23a2.77,2.77,0,0,1-.31-.22c-1.69-1.3-4.9-3.52-8.34-5.69,3.79-4.62,10.35-12.25,14.72-15.37C254.71,354.94,260.1,356.8,264.22,360.46Z"/><path class="cls-4" d="M270,369a20.36,20.36,0,0,0-5.66-8.48h0a24.15,24.15,0,0,0-3.35-2.45,46.09,46.09,0,0,0-11.72-4.64h0c-3.49-1-7-1.81-10.29-2.92a38.23,38.23,0,0,1-4.2-1.66,13.84,13.84,0,0,1-5.66-5h0c-5.3-7.94-4-20.49-4.13-21l-10-4c.61,2.46.92,23.83-.62,32a12.71,12.71,0,0,0-.18,3.83l-.07.07a8.45,8.45,0,0,0,7.81,7.77,8.41,8.41,0,0,1,2.81.83l0,0,.06,0a79.74,79.74,0,0,1,9.74,5.43h0c3.44,2.17,6.65,4.39,8.34,5.69a2.77,2.77,0,0,0,.31.22h0l.06,0C248.29,378,275.52,384.32,270,369Z"/><path class="cls-5" d="M70.88,147c.78-3.63,16.18-70.92,80.59-80.71a.47.47,0,0,0,.25-.81c-2.12-2-8.49-7.44-11.67-10.17a.47.47,0,0,1,.46-.81,78.76,78.76,0,0,1,11,4.52.48.48,0,0,0,.59-.11c1.46-1.77,8.59-10.4,8.89-10.6s-4.41,11.35-4.08,11.57,17.53-12.46,24.47-11.57h0c.08.1-17.88,13-16.31,16,.59,1.14,3.81.54,4.52.42,11.63-2,37,7.1,54.72,21.93,25.83,21.61,31.09,51.74,32.18,59.64.69,5,.51,15.11.15,35.24-.32,17.45-.86,31.78-1.29,41.44a.57.57,0,0,0,0,.18c4.6,12.73,7.17,18.09,9.39,19.27,3.48,1.86-5.36,2.28-8.68-4.66a.47.47,0,0,0-.89.09c-.68,2.72-1.48,9.14,4.52,13.47l.06.06c.55.59,9.31,10.06-5.36.33a.47.47,0,0,0-.72.27c-1,3.76-5.3,23.1,10.85,21.3a.47.47,0,0,1,.52.57c-.71,3-14.47,14.76-20.6,13.08-6,.13.49,7.22,5,7.95s7.71,1.35,5.5,2.33-15.53,4.15-18.46,3.79-.61,7,4.28,8.68.12,5.13-3.18,4.4-10-2.73-9.9.1,3.3,6.26,3.42,7.11-18,8.07-39.71-12.31c0,0-.05,0-.07-.06-4.85-3.12-3.73,3.83,4.32,10.79,4.28,5.25-17.24,6.84-35.22-10.89-.12-.12-13.53,14.24-33.68,12.33a.47.47,0,0,1-.33-.76c1.67-2.17,6.17-8.93,6.37-9.86.25-1.1-11.86,7.22-21.52,5.26-1.22-.49,6.32-11.55-2.13-11.74l-.14,0c-8.43,2-13,17.51-31.53,13.68a.48.48,0,0,1-.31-.72c1.27-2,6.54-8.91,3.43-16.81a.47.47,0,0,0-.47-.3c-4.9.27-13.65-.9-15.62-3.11a.47.47,0,0,1,.06-.69c1.74-1.33,8.85-8.25,5.61-13.9a.51.51,0,0,0-.3-.22c-5.89-1.49-19.27-16.13-16.23-27.43a.48.48,0,0,1,.79-.21c2.61,2.54,10.16,18.47,15.61,3.9a.27.27,0,0,0,0-.12c.62-6.38,2.2-55.6,3-62.06s1.1-22.62-.61-22.62-4.53,7.58-5.75,7.7,2.59-18,3.88-25.81a.47.47,0,0,0-.72-.48c-1.86,1.17-6.14,4-7.68,2.81-1.84-1.37,7.29-9.41,8.45-10.41A.53.53,0,0,0,70.88,147Z"/><path class="cls-4" d="M70.75,147c.79-3.63,16.19-70.92,80.59-80.71a.47.47,0,0,0,.26-.81c-2.13-2-8.49-7.44-11.68-10.17a.48.48,0,0,1,.47-.81,78.62,78.62,0,0,1,11,4.52.49.49,0,0,0,.6-.11c1.46-1.77,8.59-10.4,8.89-10.6s-4.41,11.35-4.08,11.57,17.52-12.46,24.47-11.57h0c.07.1-17.89,13-16.32,16,.6,1.14,3.81.54,4.53.42,11.63-2,37,7.1,54.72,21.93,25.83,21.61,31.09,51.74,32.17,59.64.7,5,.52,15.11.15,35.24-.31,17.45-.86,31.78-1.28,41.44a.37.37,0,0,0,0,.18c4.61,12.73,7.17,18.09,9.39,19.27,3.48,1.86-5.35,2.28-8.68-4.66a.47.47,0,0,0-.88.09c-.69,2.72-1.48,9.14,4.51,13.47l.07.06c.55.59,9.3,10.06-5.36.33a.48.48,0,0,0-.73.27c-1,3.76-5.3,23.1,10.85,21.3a.47.47,0,0,1,.52.57c-.71,3-14.46,14.76-20.6,13.08-6,.13.49,7.22,5,7.95s7.7,1.35,5.5,2.33-15.53,4.15-18.46,3.79-.62,7,4.27,8.68.13,5.13-3.17,4.4-10-2.73-9.91.1,3.3,6.26,3.42,7.11-18,8.07-39.7-12.31l-.08-.06c-4.84-3.12-3.73,3.83,4.32,10.79,4.28,5.25-17.24,6.84-35.21-10.89-.12-.12-13.53,14.24-33.68,12.33a.47.47,0,0,1-.33-.76c1.66-2.17,6.16-8.93,6.37-9.86.24-1.1-11.86,7.22-21.52,5.26-1.22-.49,6.31-11.55-2.13-11.74l-.14,0c-8.43,2-13,17.51-31.53,13.68a.48.48,0,0,1-.31-.72c1.27-2,6.53-8.91,3.42-16.81a.46.46,0,0,0-.47-.3c-4.89.27-13.64-.9-15.62-3.11a.47.47,0,0,1,.07-.69c1.74-1.33,8.85-8.25,5.6-13.9a.46.46,0,0,0-.3-.22c-5.89-1.49-19.27-16.13-16.22-27.43a.47.47,0,0,1,.78-.21c2.61,2.54,10.17,18.47,15.62,3.9l0-.12c.61-6.38,2.19-55.6,3.05-62.06s1.1-22.62-.62-22.62-4.52,7.58-5.74,7.7,2.59-18,3.88-25.81a.47.47,0,0,0-.72-.48c-1.86,1.17-6.14,4-7.69,2.81-1.83-1.37,7.3-9.41,8.45-10.41A.46.46,0,0,0,70.75,147Z"/><path class="cls-6" d="M174.28,100.49c-.26-.17-9.7-8.47-12.42-7.45s-4.52,4.2-.59,7.45c0,.08-14-4.79-13.69,3.17-.17-.35-11.38-.52-6.33,6.16-.43-.17-9.16,3.33-6.33,8.72,14.9-9,22.22-9.78,26.15-8.65a38.59,38.59,0,0,0,6.79,1.21c4.37.39,8.07.72,9.41-1.2S177.35,104.05,174.28,100.49Z"/><path class="cls-6" d="M210.25,102.28c.22-.14,8.16-7.13,10.45-6.26s3.8,3.52.49,6.26c0,.07,11.81-4,11.52,2.66.15-.28,9.58-.43,5.33,5.19.36-.15,7.7,2.8,5.33,7.34-12.55-7.53-18.7-8.23-22-7.28a32.41,32.41,0,0,1-5.71,1c-3.67.33-6.79.6-7.92-1S207.67,105.28,210.25,102.28Z"/><g class="cls-7"><ellipse class="cls-8" cx="128.01" cy="91.83" rx="15.65" ry="7.83" transform="translate(-28.79 107.03) rotate(-41.19)"/><ellipse class="cls-8" cx="98.86" cy="126.07" rx="24.32" ry="12.5" transform="translate(-57.69 160.09) rotate(-64.16)"/></g><path class="cls-9" d="M202.39,220.08a56.49,56.49,0,0,0,22.78-6.2c3.8-2,7.47-4.6,11.9-3.67,4.63,1,7.36,5.23,8.41,6.87,7.4,11.53,5.69,33.94-7.31,48.61-8.35,9.42-18.64,12.58-24.63,14.34-1.74.51-44.16,12.29-66.29-14.52-12.06-14.61-16.15-38.29-6.87-51.18,1.37-1.91,4-5.53,8.58-7,9.13-3,16.27,5.53,31.78,10.13A67.67,67.67,0,0,0,202.39,220.08Z"/><path class="cls-10" d="M247.94,247.52a46.77,46.77,0,0,1-9.81,18.17c-8.36,9.42-18.64,12.58-24.63,14.34-1.75.51-44.17,12.29-66.3-14.53a50,50,0,0,1-6.36-10c4.72-7.67,9.56-10.63,12.85-12,15.09-6.12,25.12,10.75,47.05,8,10.5-1.32,10.8-5.52,22.86-6.84A57.26,57.26,0,0,1,247.94,247.52Z"/><path class="cls-11" d="M168.07,212.3c-1.25,9.38-9.51,15.7-16.93,14.74-5.2-.67-10-4.94-12-10.87a20.66,20.66,0,0,1,1.19-1.84c1.37-1.91,4-5.53,8.59-7C155.16,205.26,160.45,208.54,168.07,212.3Z"/><path class="cls-11" d="M242.38,213.17c-.58,11.89-6.81,19.54-11.44,19.47-4.26-.06-9.43-6.67-11-16.39a47.69,47.69,0,0,0,5.18-2.37c3.8-2,7.48-4.6,11.9-3.67A11,11,0,0,1,242.38,213.17Z"/><path class="cls-11" d="M160.2,276.2a44.2,44.2,0,0,1-13-10.69,48.68,48.68,0,0,1-4.63-6.71c7-7.28,15.57-9.3,19.36-6.67C166.24,255.09,167.27,265.88,160.2,276.2Z"/><path class="cls-11" d="M194,283a73.26,73.26,0,0,1-23.69-2.58c-.17-11.48,5.15-20.16,11.76-21.62,3.48-.77,8.67.16,11.48,3.63,2.06,2.54,2.12,5.55,2.19,9.42A33.46,33.46,0,0,1,194,283Z"/><path class="cls-11" d="M229.87,272.89A57.78,57.78,0,0,1,213.54,280c-.39.1-2.71.76-6.35,1.43-1.63-3.41-3.77-9.6-1.51-15.91.6-1.69,1.78-5,5-6.79a11.43,11.43,0,0,1,11,.58C226.77,262.44,229.07,269.66,229.87,272.89Z"/><path class="cls-11" d="M247.65,248.61c-.14.45-.29.91-.45,1.37a46.09,46.09,0,0,1-9,15.71,39.33,39.33,0,0,1-3.53,3.54c-6.95-6.35-7-16-2.81-20.13a8.94,8.94,0,0,1,3.57-2.09A15.88,15.88,0,0,1,247.65,248.61Z"/><path class="cls-11" d="M193.08,219.8c-2.26,8.65-9.1,13.68-13.94,13-5.4-.78-11.25-9.14-9.14-19.54a72.69,72.69,0,0,0,10.73,4.18A65,65,0,0,0,193.08,219.8Z"/><path class="cls-11" d="M206.72,233.34c-4.43,0-9.81-5.38-10.79-13.33,2,.11,4.17.14,6.45.07a61.77,61.77,0,0,0,15.21-3C218.05,226.69,211.7,233.38,206.72,233.34Z"/><path class="cls-12" d="M239.79,263.73c.39-.49.76-1,1.12-1.49l.25-.34c.38-.54.74-1.09,1.1-1.64l.09-.14a43.23,43.23,0,0,0,2.19-3.85l.11-.21c.3-.6.59-1.21.86-1.82l.08-.16c5.87-13.16,5.52-28.23-.11-37a18.92,18.92,0,0,0-4.2-4.85h0c-.2-.15-.39-.3-.6-.44l0,0c-.2-.13-.4-.26-.61-.38l0,0c-.21-.12-.42-.24-.64-.35h0a9.49,9.49,0,0,0-7.72-.33,49.09,49.09,0,0,0-6.45,3.22c-.71.38-1.48.76-2.31,1.15l-.21.09c-.35.17-.71.33-1.09.49l-.2.09-1.37.55h0c-.75.3-1.55.59-2.39.87h0c-1.5.5-3.14,1-4.9,1.4l-.35.07-1.38.31-.54.1c-.42.09-.85.17-1.28.24l-.64.11-1.29.2-.68.09c-.46.07-.93.12-1.41.17l-.63.08c-.67.07-1.35.13-2.05.18h-.05c-.59,0-1.18,0-1.75,0h-2c-.42,0-.84,0-1.25,0l-1,0c-1.2-.06-2.35-.14-3.46-.25l-1.26-.14-.73-.09-1.18-.16-.75-.11-.73-.12-.82-.15-.52-.1a63,63,0,0,1-6.12-1.48c-10.86-3.22-17.61-8.36-23.82-10.13l-.14,0c-.49-.14-1-.25-1.46-.34l-.28,0-.4-.06a4.43,4.43,0,0,0-.51-.06l-.4,0-.39,0h-1l-.23,0-.51,0-.26,0-.7.1-.09,0c-.22,0-.45.09-.67.15l-.19,0c-.25.07-.51.14-.77.23-4.6,1.51-7.21,5.13-8.58,7-.28.38-.53.77-.78,1.17l-.12.19c-.1.16-.2.31-.29.48h0c-6,10.36-4.72,26.22,1.67,39.31l0,0a50.52,50.52,0,0,0,6.37,10c10.8,13.08,26.42,17,39.8,17.48h0l1.3,0h3.18l.78,0h.54l.77,0H194a95.44,95.44,0,0,0,13.15-1.49h0c3.64-.67,6-1.33,6.35-1.44,1.1-.32,2.35-.69,3.71-1.14l.22-.08.64-.22.66-.23.38-.14.55-.2.35-.13.79-.31.12-.05,1-.4.19-.08.88-.38.14-.06c.7-.33,1.42-.67,2.15-1l0,0a44.3,44.3,0,0,0,10.18-7.12l0,0c.89-.84,1.77-1.74,2.63-2.71.49-.55,1-1.12,1.42-1.7Z"/><path class="cls-3" d="M227.38,23.57a9.22,9.22,0,0,0-4.5-1.8c-3.51-.33-6.26,1.74-7.53,2.69C208,30,201.9,53.48,201.9,71.57c0,3.35,6.22,7.55,7.64,6.77.84-.46.4-2.73.26-3.56-1.62-9.24-.91-30.45,5.67-33.28,4.14-1.79,10.5,3.74,12.5,1.32a2.2,2.2,0,0,0,.46-1.31"/><ellipse class="cls-13" cx="226.16" cy="33.05" rx="5.68" ry="10.03" transform="translate(-2.09 21.17) rotate(-5.34)"/><path class="cls-4" d="M228.07,42.51c-3.55.33-6.85-4-7.37-9.61s1.92-10.48,5.46-10.81"/><path class="cls-4" d="M209.54,77.63c.84-.46.4-2.72.26-3.56-1.62-9.24-.91-30.44,5.67-33.28C219.61,39,226,44.53,228,42.11h0c2.62-1,4.3-5.32,3.83-10.29-.39-4.21-2.2-7.67-4.43-8.94h0a9.12,9.12,0,0,0-4.5-1.81c-3.51-.33-6.26,1.74-7.53,2.69-7.4,5.56-13.45,29-13.45,47.11"/><path class="cls-14" d="M87.72,184.36a11.07,11.07,0,0,1-11.5,2l-2.44.39a63.41,63.41,0,0,0-6.24,1.45,62.67,62.67,0,0,0-12.85,5.25h0a58.53,58.53,0,0,0-5.13,3.14,60.54,60.54,0,0,0-12.1,11A64.23,64.23,0,0,0,30,218.63a72.27,72.27,0,0,0-6.44,17,71.3,71.3,0,0,0,2.54,41.75c1.84-1.81,7.65-7.17,13.9-7.26a6,6,0,0,1,4.38,1.3c1.42,1.33,2.18,3.82,1.26,5.19S42,281,38.12,278.31c-2.68-1.88-5.86.66-5.28,2.57.15.49.83,1,3.3,1.7,7.54,2.12,10.62.51,12.82,2.7,1.79,1.78,2.22,5.33.63,7.2a5.08,5.08,0,0,1-5.71,1.1c-2.4-1.16-2-4-4.55-5a3.5,3.5,0,0,0-3.5.37c-1.46,1.44-.45,5.22,1.51,6.19,1,.52,1.55-.18,3,.24a5.66,5.66,0,0,1,3.8,4.27,4.65,4.65,0,0,1-.8,4c-1.55,1.78-4.19,1.29-4.56,1.22a7.11,7.11,0,0,1-3.75-2.31c-2.37-2.39-2.13-4.3-4-4.95-1-.35-2.44-.32-2.94.42-1.19,1.75,4.49,5.49,3.49,8.8-.77,2.49-5.19,4.25-7.82,2.88a6.25,6.25,0,0,1-2.53-3.4,12.3,12.3,0,0,1-.85-5.16c0-7.25-4.17-8.39-3.8-15.42.12-2.1.55-3.18.21-5.59a16.21,16.21,0,0,0-2-5.77c-2.51-4.5-7.12-31.51,5.5-60.2l.32-.72a126.5,126.5,0,0,1,5.77-11.63,66.66,66.66,0,0,1,15.13-18.22.69.69,0,0,1,.13-.11,95.06,95.06,0,0,1,12.74-8.74,157.75,157.75,0,0,1,14.05-7.18C73.53,165.23,77,164,77,164h.48c5.92,0,11,3.4,12.79,8.34C91.46,175.65,91.48,180.89,87.72,184.36Z"/><path class="cls-3" d="M67.54,188.19l-12.85,5.25h0a41.57,41.57,0,0,0-13-10,95.06,95.06,0,0,1,12.74-8.74A38.1,38.1,0,0,1,67.54,188.19Z"/><path class="cls-3" d="M37.45,207.56A64.23,64.23,0,0,0,30,218.63a38.43,38.43,0,0,0-9.63-4.51l.32-.72a126.5,126.5,0,0,1,5.77-11.63A37.4,37.4,0,0,1,37.45,207.56Z"/><path class="cls-3" d="M21.66,253.13A34.67,34.67,0,0,0,12.17,248a101.27,101.27,0,0,1,1.57-13,38,38,0,0,1,9,3.61A68.11,68.11,0,0,0,21.66,253.13Z"/><path class="cls-4" d="M90.27,172.28c-1.74-4.94-6.87-8.34-12.79-8.34H77s-3.47,1.28-8.52,3.57a157.75,157.75,0,0,0-14.05,7.18,95.06,95.06,0,0,0-12.74,8.74.69.69,0,0,0-.13.11,66.66,66.66,0,0,0-15.13,18.22,126.5,126.5,0,0,0-5.77,11.63l-.32.72a99.46,99.46,0,0,0-6.54,20.93h-.06c-.44,2.31-.77,4.57-1,6.76-2.11,16.68.47,29.54,2.13,32.52a16.21,16.21,0,0,1,2,5.77c.34,2.41-.09,3.49-.21,5.59-.37,7,3.79,8.17,3.8,15.42a12.3,12.3,0,0,0,.85,5.16,6.25,6.25,0,0,0,2.53,3.4c2.63,1.37,7.05-.39,7.82-2.88,1-3.31-4.68-7-3.49-8.8.5-.74,2-.77,2.94-.42,1.84.65,1.6,2.56,4,4.95a7.11,7.11,0,0,0,3.75,2.31c.37.07,3,.56,4.56-1.22a4.65,4.65,0,0,0,.8-4,5.66,5.66,0,0,0-3.8-4.27c-1.48-.42-2,.28-3-.24-2-1-3-4.75-1.51-6.19a3.5,3.5,0,0,1,3.5-.37c2.55,1,2.15,3.86,4.55,5a5.08,5.08,0,0,0,5.71-1.1c1.59-1.87,1.16-5.42-.63-7.2-2.2-2.19-5.28-.58-12.82-2.7-2.47-.69-3.15-1.21-3.3-1.7-.58-1.91,2.6-4.45,5.28-2.57,3.87,2.71,6.56-.34,7.49-1.74s.16-3.86-1.26-5.19a6,6,0,0,0-4.38-1.3c-6.25.09-12.06,5.45-13.9,7.26A73,73,0,0,1,21.53,253l.13.09a68.67,68.67,0,0,1,.49-10.35,67.69,67.69,0,0,1,1.38-7.19,72.27,72.27,0,0,1,6.44-17,64.23,64.23,0,0,1,7.48-11.07,60.54,60.54,0,0,1,12.1-11,58.53,58.53,0,0,1,5.13-3.14h0l12.85-5.25a63.41,63.41,0,0,1,6.24-1.45l2.44-.39a11.07,11.07,0,0,0,11.5-2C91.48,180.89,91.46,175.65,90.27,172.28Z"/><path class="cls-15" d="M125.84,74.41a38.8,38.8,0,0,1,1,6.48,39,39,0,0,0-2-6.18Z"/><path class="cls-15" d="M210.43,75.67c0,1.32.07,2.67.19,4a20.39,20.39,0,0,0,.67,4,21.45,21.45,0,0,1-1.17-3.88c-.28-1.32-.51-2.65-.69-4Z"/><path class="cls-15" d="M202.4,70.77c0,1.32.07,2.66.19,4a20.49,20.49,0,0,0,.67,4,21.7,21.7,0,0,1-1.17-3.88c-.28-1.33-.51-2.66-.69-4Z"/><path class="cls-3" d="M129.56,63c-2.72-8.13-6.53-19.43-16.72-26.27a32.64,32.64,0,0,0-10.67-4.62h0a4.18,4.18,0,0,0-1.63-.34c-4.15,0-7.51,6.27-7.51,14s3.36,14,7.51,14c3,0,5.57-3.25,6.78-8a4.92,4.92,0,0,1,3.08-1.59c7.61-.55,14.44,22.55,15.13,24.93L132,72A77,77,0,0,0,129.56,63ZM99.45,56.06c-3.06,0-5.54-4.61-5.54-10.3s2.48-10.32,5.54-10.32S105,40.06,105,45.76,102.5,56.06,99.45,56.06Z"/><path class="cls-13" d="M105,45.76c0,5.69-2.48,10.3-5.53,10.3s-5.54-4.61-5.54-10.3,2.48-10.32,5.54-10.32S105,40.06,105,45.76Z"/><path class="cls-4" d="M132,72a77,77,0,0,0-2.45-9c-2.72-8.13-6.53-19.43-16.72-26.27a32.64,32.64,0,0,0-10.67-4.62h0a4.18,4.18,0,0,0-1.63-.34c-4.15,0-7.51,6.27-7.51,14s3.36,14,7.51,14c3,0,5.57-3.25,6.78-8a4.92,4.92,0,0,1,3.08-1.59c7.61-.55,14.44,22.55,15.13,24.93M99.45,56.06c-3.06,0-5.54-4.61-5.54-10.3s2.48-10.32,5.54-10.32S105,40.06,105,45.76,102.5,56.06,99.45,56.06Z"/><path class="cls-4" d="M105,45.76c0,5.69-2.48,10.3-5.53,10.3s-5.54-4.61-5.54-10.3,2.48-10.32,5.54-10.32S105,40.06,105,45.76Z"/><path class="cls-15" d="M132.5,71.82a39.92,39.92,0,0,1,.3,6.55A39.16,39.16,0,0,0,131.52,72Z"/><path class="cls-16" d="M340.94,271.05c-.19-.55-.39-1.1-.62-1.65-3.57-8.85-11.69-18.18-18.71-25.14-1.32-1.31-2.6-2.53-3.8-3.65-.8-.75-1.57-1.45-2.29-2.1-3.62-3.25-6.12-5.22-6.12-5.22l-2.5-2-10.17-8L283.58,213,266,199.27l-7.53-5.9-2.08-1.64q.12-4.89.22-10.19c.36-20.13.54-30.19-.15-35.24-1.09-7.9-6.35-38-32.18-59.64a100.25,100.25,0,0,0-14.2-9.84l-.09-.54a12.3,12.3,0,0,0-.23-2.21,60.46,60.46,0,0,1-.74-9.7c0-9.66,1.75-20.86,6.41-22.87,4.14-1.79,10.5,3.74,12.5,1.32h0c2.39-.93,4-4.57,3.9-9a15.69,15.69,0,0,0-.07-2c-.39-4.21-2.2-7.67-4.43-8.94h0a11.34,11.34,0,0,0-1.21-.76v0h0a8.69,8.69,0,0,0-3.26-1c-3.51-.33-6.26,1.74-7.53,2.69-7.4,5.55-13.43,29-13.45,47.05h0v0h0v0c0,.22,0,.45,0,.67a3.43,3.43,0,0,0,.14.87s0,.09,0,.14c-10.82-5.14-21.52-8.11-28.91-8.12a22.89,22.89,0,0,0-3.67.27,15.52,15.52,0,0,1-2.27.26c-.94,0-1.84-.13-2.13-.68-1.57-3,16.39-15.88,16.31-16h0a4.65,4.65,0,0,0-.76,0c-7-.12-22.21,10.87-23.71,11.57-.18-.53,4.41-11.75,4.08-11.53a1.43,1.43,0,0,0-.13.13c0-.09,0-.15,0-.13-.3.2-7.43,8.83-8.89,10.6a.45.45,0,0,1-.25.14.4.4,0,0,1-.22,0,78.76,78.76,0,0,0-11-4.52.46.46,0,0,0-.23,0,.48.48,0,0,0-.36.83c3.19,2.73,9.55,8.22,11.68,10.17a.47.47,0,0,1-.26.81,92.24,92.24,0,0,0-19.45,5.13A75.43,75.43,0,0,0,129.56,63c-2.72-8.13-6.53-19.43-16.72-26.27a32.64,32.64,0,0,0-10.67-4.62h0a4.18,4.18,0,0,0-1.63-.34c-4.15,0-7.51,6.27-7.51,14s3.36,14,7.51,14c3,0,5.57-3.25,6.78-8a4.92,4.92,0,0,1,3.08-1.59c7.07-.51,13.47,19.38,14.89,24.12C82.6,95.07,71.42,143.94,70.75,147a.46.46,0,0,1-.15.26c-1.15,1-10.28,9-8.45,10.41a1.71,1.71,0,0,0,1.15.27c1.93,0,5.12-2.11,6.66-3.08a.51.51,0,0,1,.2-.06.48.48,0,0,1,.4.54c-.51,3-1.4,7.7-2.22,12.22l-2.26,1c-.8.37-1.62.76-2.47,1.18-1.15.57-2.35,1.17-3.56,1.81-1.83.95-3.72,2-5.62,3.08a95.06,95.06,0,0,0-12.74,8.74l-.11.09,0,0a62.86,62.86,0,0,0-6.8,6.59l-.46.53c-1.07,1.23-2.07,2.48-3,3.72-.71,1-1.4,1.9-2,2.84-1,1.53-2,3.05-2.83,4.54a126.5,126.5,0,0,0-5.77,11.63c-.1.24-.22.48-.32.72-.39.9-.77,1.79-1.13,2.69-.05.11-.09.22-.13.33-.31.78-.62,1.57-.91,2.35l-.09.24c-.29.81-.58,1.62-.85,2.42h0c-.3.88-.58,1.76-.85,2.63v0a102.11,102.11,0,0,0-2.56,10.24h-.06c-.44,2.31-.77,4.57-1,6.76s-.45,4-.57,6l0,.2c-.18,2.86-.23,5.57-.19,8.09v.15c.05,2.51.2,4.81.41,6.9a1.23,1.23,0,0,1,0,.2c.07.63.14,1.24.22,1.83,0,.05,0,.1,0,.15.16,1.24.35,2.38.55,3.4l.06.29c.08.41.16.79.25,1.17l.06.26c.2.86.41,1.6.62,2.23l.09.25c.07.22.15.42.22.6l.09.22a4.84,4.84,0,0,0,.29.6A18,18,0,0,1,16.08,277a16,16,0,0,1,.77,3.09,13.47,13.47,0,0,1-.08,4.17c-.05.44-.1.9-.13,1.42-.37,7,3.79,8.17,3.8,15.42a12.3,12.3,0,0,0,.85,5.16,11.84,11.84,0,0,0,.9,1.83,5.3,5.3,0,0,0,.7.88,4.32,4.32,0,0,0,.93.69,4.94,4.94,0,0,0,2.79.44c2.22-.23,4.5-1.6,5-3.32,1-3.31-4.68-7-3.49-8.8a.92.92,0,0,1,.23-.25,2.07,2.07,0,0,1,1.06-.37l.42,0a4,4,0,0,1,1.23.22c1.84.65,1.6,2.56,4,4.95a7.11,7.11,0,0,0,3.75,2.31,7.17,7.17,0,0,0,1.19.11,4.91,4.91,0,0,0,2.44-.59,3.37,3.37,0,0,0,.93-.74h0a4.65,4.65,0,0,0,.8-4,5.66,5.66,0,0,0-3.8-4.27c-1.48-.42-2,.28-3-.24-2-1-3-4.75-1.51-6.19a2.54,2.54,0,0,1,1.44-.6l.2-.05a4.48,4.48,0,0,1,1.86.28c2.55,1,2.15,3.86,4.55,5a5.09,5.09,0,0,0,3,.34,4.71,4.71,0,0,0,.76-.2,4.54,4.54,0,0,0,1.36-.72,3.8,3.8,0,0,0,.54-.52,4,4,0,0,0,.82-1.66,5.16,5.16,0,0,0,.15-1,6.12,6.12,0,0,0-1.6-4.57,3.84,3.84,0,0,0-1.35-.88,4.51,4.51,0,0,0-.52-.17c-2.15-.57-5.3-.06-11-1.65-2.47-.69-3.15-1.21-3.3-1.7a2.38,2.38,0,0,1,1-2.42,3.17,3.17,0,0,1,.61-.39c.12-.07.25-.12.38-.18a3.42,3.42,0,0,1,3.28.42,4.93,4.93,0,0,0,3.76,1l.21-.05a4.51,4.51,0,0,0,1.34-.55,6,6,0,0,0,1.16-.92,6.81,6.81,0,0,0,.59-.65c.17-.22.32-.42.43-.59.92-1.37.16-3.86-1.26-5.19a5.65,5.65,0,0,0-3.93-1.3H40a14,14,0,0,0-5,1.1c-.57.23-1.13.48-1.67.76-.34.17-.67.36-1,.55a29.11,29.11,0,0,0-3.47,2.38c-.5.4-1,.78-1.35,1.13-.6.53-1.08,1-1.43,1.34-.13-.35-.26-.73-.41-1.13,0-.12-.08-.25-.13-.37l-.35-1.06-.15-.44q-.2-.6-.39-1.26-.11-.34-.21-.72c-.09-.29-.17-.59-.26-.89l-.36-1.38-.24-.93c-.08-.35-.17-.72-.25-1.1s-.11-.49-.16-.73q-.26-1.17-.48-2.43c0-.14-.06-.28-.08-.43-.08-.45-.16-.91-.23-1.38,0-.24-.07-.48-.11-.72-.22-1.54-.4-3.14-.53-4.82l-.06-.88-.09-1.56c0-.51,0-1,0-1.55,0-.18,0-.35,0-.52l.13.09h0v0c0-1,0-2,0-3,0-.37,0-.74,0-1.12q0-1,.09-2c0-.45.05-.89.09-1.35.07-1,.17-1.93.29-2.91h0c.16-1.15.35-2.31.57-3.49a.13.13,0,0,0,0-.06c.23-1.2.5-2.42.8-3.64a72.27,72.27,0,0,1,6.44-17,64.23,64.23,0,0,1,7.48-11.07c1.21-1.45,2.54-2.88,4-4.29.53-.52,1.09-1,1.65-1.55a61,61,0,0,1,6.48-5.13c1.72-1.18,3.44-2.22,5.13-3.15h0L60,191.29l7.59-3.1a59.55,59.55,0,0,1,6.11-1.42c-.09,3.55-.31,7-.61,9.32-.86,6.46-2.44,55.68-3.05,62.06l0,.12c-1.68,4.49-3.56,6.08-5.43,6.06-4.16-.19-8.28-8.22-10.06-10a.49.49,0,0,0-.34-.12.47.47,0,0,0-.57.33c-3.05,11.3,10.33,25.94,16.22,27.43a.46.46,0,0,1,.3.22c3.25,5.65-3.86,12.57-5.6,13.9a.47.47,0,0,0-.07.69c1.74,1.95,8.76,3.09,13.75,3.14q1,0,1.89,0a.47.47,0,0,1,.45.3c3.11,7.9-2.15,14.77-3.42,16.81a.48.48,0,0,0,.31.72,28.11,28.11,0,0,0,5,.59c14.57.45,19-12.46,26.66-14.27h.09c8.32.25.84,11.25,2.06,11.73a16,16,0,0,0,3.73.29c8-.2,16.41-5.4,17.72-5.62,0,0,.08,0,.07.07-.21.93-4.71,7.69-6.37,9.86a.47.47,0,0,0,.33.76c1.28.12,2.53.17,3.76.17l1.65,0a120.79,120.79,0,0,1-.71,16.53c-.14,1.18-.3,2.3-.48,3.37s-.38,2.07-.59,3a43.27,43.27,0,0,1-1.45,5.16h0a.14.14,0,0,1,0,.07h0c-.17.48-.34.95-.52,1.4-.06.13-.12.27-.17.4-.14.32-.27.63-.41.94l-.18.38q-.27.59-.57,1.14a2,2,0,0,1-.11.2c-.16.29-.33.57-.49.85l-.24.38c-.13.21-.26.41-.4.6l-.25.36c-.19.27-.39.54-.59.79a18.06,18.06,0,0,1-1.49,1.61,13.75,13.75,0,0,1-3.16,2.24c-3.55,1.82-6.52,1.34-12.15,2.28a61.21,61.21,0,0,0-10.14,2.69,58.74,58.74,0,0,0-5.7,2.31l-.16.08-.16.07h0c-1,.5-2,1-2.91,1.56l0,0c-.45.27-.9.55-1.33.83l-.08.06c-.41.27-.81.55-1.21.84l-.17.14c-.36.27-.71.54-1.06.83l-.3.26c-.29.25-.59.51-.87.77l-.49.48-.64.63q-.56.58-1.08,1.2l-.76.9a27,27,0,0,0-2.29,3.17c-1.32,2.17-2.27,4.7-1.35,6.86,1.32,3.07,5.8,3.85,8.38,4.25a23.37,23.37,0,0,0,8.62-.21c.75-.15,1.52-.33,2.32-.54l1.23-.34c2.09-.59,4.41-1.37,7.13-2.31l2.91-1,2.27-.81.38-.13c1.68-.61,3.22-1.18,4.64-1.72l0,0,0,0,1.86-.72.46-.19c.56-.22,1.1-.43,1.62-.65l.36-.15,1.15-.48.54-.22,1.2-.53.56-.25.7-.32.56-.26h0c.68-.31,1.31-.61,1.91-.91l.31-.16c.57-.29,1.12-.57,1.64-.85,1.37-.73,2.56-1.43,3.71-2.14a36,36,0,0,0,5.85-4.31h0v0a20.38,20.38,0,0,0,2-2.25c.3-.4.58-.81.85-1.25l0,0c.28-.44.54-.91.79-1.39a19,19,0,0,0,1.52-4.32,23,23,0,0,0,.48-5.06v-.13h0c0-8.1.71-21.36,1.7-38.81a48.73,48.73,0,0,0,15.33-9.67c10.72,10.55,22.69,14.24,29.7,14.38,4.81.12,7.33-1.41,5.59-3.54-6.52-5.63-8.49-11.25-6.43-11.54a3.68,3.68,0,0,1,2,.75l.08.06c8.93,8.37,17.24,12.08,23.93,13.49.07,1.51.13,3.37.16,5.44,0,1.13,0,2.33,0,3.56s0,2.5,0,3.77a109.85,109.85,0,0,1-1.09,15.6c-.07.36-.12.71-.16,1s-.05.54-.06.8a1.24,1.24,0,0,0,0,.18,11.86,11.86,0,0,0,.06,1.81l-.07.07a8.45,8.45,0,0,0,7.81,7.77,4.53,4.53,0,0,1,1.19.22c.47.15,1,.35,1.62.61h0l0,0,.06,0,1,.47.57.28c.18.09.36.17.54.27l.75.39.44.23.82.46.41.22,1,.57.29.16,1,.61.28.17,1.09.66.21.13c.41.25.82.5,1.22.76l.08,0h0c.86.54,1.71,1.09,2.52,1.62,2.43,1.6,4.56,3.09,5.82,4.07a2.77,2.77,0,0,0,.31.22h0l.06,0c2.86,1.86,12.72,4.66,19.82,4,.39,0,.78-.08,1.15-.13a8.6,8.6,0,0,0,5.29-2.42,4.46,4.46,0,0,0,.52-.71,5.39,5.39,0,0,0,.71-2.75,9.38,9.38,0,0,0-.32-2.39A12.54,12.54,0,0,0,270,369a20.36,20.36,0,0,0-5.66-8.48h0c-.52-.46-1.07-.89-1.62-1.3l-.11-.07q-.78-.57-1.62-1.08h0l-.23-.13c-.46-.28-.92-.53-1.4-.78l-.57-.29c-.38-.19-.77-.38-1.16-.55L257,356c-.55-.23-1.11-.46-1.67-.67l-.21-.08-1.63-.58-.59-.19c-.44-.15-.88-.28-1.33-.42l-.54-.17-1.82-.52h0c-2.45-.68-4.92-1.3-7.3-2l-.48-.14c-.85-.25-1.69-.51-2.51-.79a38.23,38.23,0,0,1-4.2-1.66,13.65,13.65,0,0,1-1.72-1,13.88,13.88,0,0,1-2.81-2.53,12.79,12.79,0,0,1-1.13-1.5h0a22.24,22.24,0,0,1-2.87-6.56c-.31-1.15-.55-2.3-.74-3.43a53.93,53.93,0,0,1-.51-10.74c4-.38,6.26-1.5,6.22-1.81-.12-.85-3.3-4.28-3.42-7.11,0-1.05.85-1.44,2.17-1.47,2.24,0,5.57.92,7.61,1.37a4.55,4.55,0,0,0,1.28.09c3.1-.12,6.36-3,2-4.49-4.85-1.7-7.17-8.92-4.35-8.68a4.65,4.65,0,0,0,.67,0c3.8,0,15.79-2.89,17.86-3.81s-1-1.59-5.5-2.33-10.93-7.74-5.09-7.94a4.71,4.71,0,0,0,1.27.15c6.55.13,18.74-10.41,19.41-13.24a.47.47,0,0,0-.52-.57h-.13c-.5,0-1,.09-1.44.11-14.29.39-10.26-17.78-9.28-21.41a.46.46,0,0,1,.41-.34.44.44,0,0,1,.19.07c5.1,3.38,7.36,4.44,8.13,4.36,1.74.06-2.28-4.3-2.65-4.69l-.06-.06c-6-4.33-5.2-10.75-4.52-13.47a.45.45,0,0,1,.37-.34.44.44,0,0,1,.39.25,10.18,10.18,0,0,0,8.41,5.83c1.26,0,1.72-.46.4-1.17-2.22-1.18-4.79-6.54-9.39-19.27a.57.57,0,0,1,0-.18c.07-1.49.14-3.11.21-4.82l1.75,1,4.94,2.81,4.87,2.72c4.42,2.46,8.68,4.76,12.61,6.8,1.31.68,2.58,1.34,3.81,1.95,3.7,1.87,7,3.43,9.74,4.57l1.34.56c.48.21,1,.44,1.48.7a11.09,11.09,0,0,1,4.2,3.56c.16.24.32.49.46.75a9.15,9.15,0,0,1,.85,2.23,26.41,26.41,0,0,1,.47,5.63c0,2.69.05,6.11.52,10.79,0,.14,0,.29,0,.45a11.18,11.18,0,0,0,.45,2.15,5.71,5.71,0,0,0,.85,1.62s0,0,0,0a4.9,4.9,0,0,0,.72.72,4.61,4.61,0,0,0,2.58,1.09l.61.06,1.52.12c.85.08,1.79,1.78,3,3.21a7.29,7.29,0,0,0,.53.58,6.67,6.67,0,0,0,.55.52,4.56,4.56,0,0,0,.59.42,2.61,2.61,0,0,0,1.66.38,2.69,2.69,0,0,0,.74-.19c.12-.06.25-.12.38-.2a6.47,6.47,0,0,0,1.67-1.47,6,6,0,0,0,.55-.8,5.61,5.61,0,0,0,.65-2.45,9.85,9.85,0,0,0-.28-2.76c-.11-.48-.25-1-.41-1.45-1.79-5.3-6.29-10.69-6.06-10.55h0a55.06,55.06,0,0,1,4.84,7.64l0,0c.21.42.4.85.58,1.28l.07.15c.18.42.33.85.48,1.27l.07.18c.13.4.24.79.34,1.19l.07.25c.09.38.14.75.19,1.12a2.93,2.93,0,0,1,.05.29,6.72,6.72,0,0,1,0,1c0,.12,0,.24,0,.36a7.52,7.52,0,0,1-.15.95,3.06,3.06,0,0,1-.05.32,5.37,5.37,0,0,1-.46,1.17,6.81,6.81,0,0,0,3.17,1l.25,0a4.76,4.76,0,0,0,1-.11h0a3.62,3.62,0,0,0,2.75-2.39h0c.44,1.35.83,2.67,1.28,4C333.83,282.52,343.81,279.65,340.94,271.05Z"/></svg>