<svg id="Layer_1" data-name="Layer 1" xmlns="http://www.w3.org/2000/svg" width="195.88" height="255.18" viewBox="0 0 195.88 255.18">
  <defs>
    <style>
      .cls-1, .cls-2 {
        fill: #ef4a86;
      }

      .cls-1, .cls-5 {
        stroke: #750f32;
      }

      .cls-1, .cls-13, .cls-17, .cls-5 {
        stroke-miterlimit: 10;
      }

      .cls-3 {
        fill: #750f32;
      }

      .cls-4 {
        fill: #dd1a5b;
      }

      .cls-13, .cls-17, .cls-5 {
        fill: none;
      }

      .cls-6 {
        fill: #df195a;
      }

      .cls-7 {
        fill: #f7f5f2;
      }

      .cls-8 {
        fill: #010101;
        opacity: 0.28;
      }

      .cls-9 {
        fill: #7e57a4;
      }

      .cls-10 {
        fill: #180c0d;
      }

      .cls-11 {
        fill: #66082f;
      }

      .cls-12 {
        fill: #cf1c63;
      }

      .cls-13 {
        stroke: #070707;
      }

      .cls-14 {
        fill: #a31d42;
      }

      .cls-15 {
        fill: #ef3845;
      }

      .cls-16 {
        fill: #fff3e0;
      }

      .cls-17 {
        stroke: #cf1c63;
      }

      .cls-18 {
        opacity: 0.63;
      }

      .cls-19, .cls-20 {
        fill: #fff;
      }

      .cls-20 {
        opacity: 0.7;
      }
    </style>
  </defs>
  <g>
    <path class="cls-1" d="M151.56,44.36l.78-2.23c.07.11-.69,2.07-.32,2.61l11.15-2.3c1.2-.62,3.63-2.68,2.17-8.83l-.11.15C164,31.63,162.71,31.14,162,31c-4-.89-7.08,4.6-8.81,7.77A46,46,0,0,0,151.56,44.36Z"/>
    <path class="cls-1" d="M169,49.88l0,0-.07.11a21.34,21.34,0,0,1-2.81,3.81,33.63,33.63,0,0,1-3.28,2.93c-2.55,2.11-3.06,2.13-4,3.3a3.56,3.56,0,0,0-.26.31,14.1,14.1,0,0,0-1.9,3.54c-.41,1-.86,1.87-1.31,2.79-.68,1.39-1.39,2.78-2,4.2-.3.72-.67,1.54-1.23,2.69-.72,1.46-1.73,3.46-3.34,6.46s-3.75,7-6.75,12.47l-6.11,11.1-1.05,1.9c.13-6.53.39-14.09.73-23.23l0,0c.33-.32.68-.66,1-1l0,0a107.37,107.37,0,0,0,8.6-9.8c.55-.71,1.1-1.43,1.65-2.18h0c.31-.42.63-.85.94-1.29.17-.23.33-.46.49-.7,1.66-2.34,3.14-4.64,4.46-6.85,1-1.73,2-3.41,2.8-5,.51-1,1-1.89,1.41-2.8l-4.74-7c-.25-.35-.47-.68-.66-1,0-.1,0-.18,0-.28h0a.38.38,0,0,1,0-.1c0-.48.05-1,0-1.57-.13-2.4,5.48-6.22,8.63-6.4a1.65,1.65,0,0,1,1.31.5s0,0,.05.05c1.1,1.17,1.29,3.9,1.3,5.45v.07c0,.33,0,.6,0,.79s0,.27,0,.27h0a.66.66,0,0,0-.09.19h0a.93.93,0,0,0,0,.23.67.67,0,0,0,0,.2v0a1,1,0,0,0,0,.24c0,.07,0,.15.07.23a2.56,2.56,0,0,0,.11.24l.13.23c0,.07.1.15.16.22a1.84,1.84,0,0,0,.17.22l0,0a3.8,3.8,0,0,0,.33.37.93.93,0,0,0,.14.14.41.41,0,0,1,.09.1l.08.06c.05.06.11.1.16.16l.64.56.09.09c0,.05.08.08.09.11s0,0,0,0,0,0,0,0,0,0,0,.07a1.89,1.89,0,0,0-.09.38,2,2,0,0,0,0,.85,1.5,1.5,0,0,0,.23.58,1.41,1.41,0,0,0,.14.18l0,0a.81.81,0,0,0,.19.18.16.16,0,0,0,.07.07l.25.16a1.92,1.92,0,0,0,.25.12,3.37,3.37,0,0,0,.48.15,1.59,1.59,0,0,0,.3.06l.32,0a6.48,6.48,0,0,0,1.24,0Z"/>
    <path class="cls-1" d="M162.88,42.36c0,.33,0,.61,0,.79s0,.27,0,.27a.88.88,0,0,0-.09.2h0c-.51,1.52,2.42,3.35,2.26,3.48s0,0,0,.07a8.3,8.3,0,0,0,1.25-.31c2.05-.67,5.21-2.51,6.56-7.51h-.06l0,0c-.19-10.59-6.68-6.92-7.65-5.93C166.56,39.66,164.1,41.73,162.88,42.36Z"/>
    <path class="cls-1" d="M165,47.18l-.09.38h0a2,2,0,0,0,0,.85c.27,1.39,2,1.83,4,1.47a8.71,8.71,0,0,0,6.18-4.34c2.23-4.5-1.67-6.17-2.32-6.18-1.35,5-4.51,6.84-6.56,7.51A8.3,8.3,0,0,1,165,47.18Z"/>
    <g>
      <path class="cls-2" d="M163,43.37a6.19,6.19,0,0,1-6.89-.77"/>
      <path class="cls-3" d="M163.22,43.8a6.53,6.53,0,0,1-7.15-1.2,6,6,0,0,0,6.63.34l.52.86Z"/>
    </g>
    <path class="cls-4" d="M142.75,90c-1.76,2.59-3.36,6.84-5.7,10.25.12-5.25-.08-12.61.23-20l0,0c1.17-.93,2.38-1.92,3.62-3a.13.13,0,0,0,0,.06C141.38,80.39,142.17,85.91,142.75,90Z"/>
    <path class="cls-4" d="M158.06,60.2c-.71,1-3.05,6.32-3.07,6.25l-1.7-6c.94-1.76,1.81-3.45,2.59-5.09a1,1,0,0,1,.07.15c.67,1.49,1.37,3,2,4.56C158,60.11,158,60.15,158.06,60.2Z"/>
    <path class="cls-4" d="M151.47,73.53C150.8,75,148.3,80,148.28,79.9c-.73-2.51-1.52-5.19-2.35-8.08l-.14-.32c.49-.72,1.08-1.32,1.58-2.08h0q.42-.64.84-1.32c.16-.23.31-.47.45-.71l.07.14c.86,1.9,1.81,4,2.67,5.85C151.42,73.43,151.45,73.48,151.47,73.53Z"/>
    <path class="cls-4" d="M63.24,166.73c-3.24,5-6.17,9.43-8.75,13.3l-.22.34q-2.49,3.74-4.55,6.78l-2.38,3.49c-.68,1-1.31,1.9-1.89,2.76-1.39,2-2.52,3.81-3.53,5.65a43.38,43.38,0,0,0-2.31,5c-2.85,7.29-4.22,15.77-5,20.29-.32,1.91-.5,3.52-.68,4.58.8.18,8.47,2.16,10.08,8a4.39,4.39,0,0,1,.06,3.21c-.8,1.67-3,2.05-16.46,2.11-5,0-8.23,0-9.34-2a3.94,3.94,0,0,1-.31-2.41c1.73-10.64,3.34-14.42,3.34-14.42,6-13.92,5.57-19.12,9.84-20.3a6.88,6.88,0,0,1,4.39.38l2.1-6.69,2-6.22,2.79-8.89q1.14-3.61,2.27-7.25c.92-2.91,1.84-5.84,2.75-8.76.68-2.17,1.36-4.35,2.05-6.51A30.82,30.82,0,0,0,63.24,166.73Z"/>
    <path class="cls-2" d="M55,180.21l-.72.16q-2.49,3.74-4.55,6.78a28.08,28.08,0,0,1-6.66-4.79c-.22-.21-.43-.43-.64-.65q1.14-3.61,2.27-7.25a28.56,28.56,0,0,0,5.87,3.91A32,32,0,0,0,54.49,180,4.24,4.24,0,0,0,55,180.21Z"/>
    <path class="cls-2" d="M45.63,193.45c-1.45,2.11-2.63,3.88-3.67,5.61A16.11,16.11,0,0,1,39.53,198a19,19,0,0,1-2.13-1.35l2-6.22a18.21,18.21,0,0,0,2.3,1.48A17.55,17.55,0,0,0,45.63,193.45Z"/>
    <path class="cls-5" d="M63.24,166.73c-3.24,5-6.17,9.43-8.75,13.3l-.22.34q-2.49,3.74-4.55,6.78l-2.38,3.49c-.68,1-1.31,1.9-1.89,2.76-1.39,2-2.52,3.81-3.53,5.65a43.38,43.38,0,0,0-2.31,5c-2.85,7.29-4.22,15.77-5,20.29-.32,1.91-.5,3.52-.68,4.58.8.18,8.47,2.16,10.08,8a4.39,4.39,0,0,1,.06,3.21c-.8,1.67-3,2.05-16.46,2.11-5,0-8.23,0-9.34-2a3.94,3.94,0,0,1-.31-2.41c1.73-10.64,3.34-14.42,3.34-14.42,6-13.92,5.57-19.12,9.84-20.3a6.88,6.88,0,0,1,4.39.38l2.1-6.69,2-6.22,2.79-8.89q1.14-3.61,2.27-7.25c.92-2.91,1.84-5.84,2.75-8.76.68-2.17,1.36-4.35,2.05-6.51A30.82,30.82,0,0,0,63.24,166.73Z"/>
    <path class="cls-3" d="M40.1,242.06c-.12-2.86-1.73-5.73-4.67-6.42a10.43,10.43,0,0,0-2.9-.35,10.15,10.15,0,0,1,3,.11c3.17.44,5.23,3.51,5.6,6.51l-1,.15Z"/>
    <path class="cls-3" d="M32.54,242.31c-.12-2.86-1.73-5.73-4.67-6.41a10.44,10.44,0,0,0-2.9-.36,10.51,10.51,0,0,1,3,.12c3.17.44,5.23,3.5,5.6,6.51l-1,.14Z"/>
    <path class="cls-3" d="M33.51,229.34a4.82,4.82,0,0,0-2.94-.21,5.25,5.25,0,0,1,3.27-.74l-.33,1Z"/>
    <path class="cls-6" d="M102.39,173.25l-3.58,3.25C100,174.8,101.35,173.31,102.39,173.25Z"/>
    <path class="cls-4" d="M161.06,168.45c-1.43,4.3-3.34,6.89-8.8,13.71-9.61,12-11.38,13.56-14.38,14.93-1,.47-8.18,3.75-11.39.75-1.77-1.64-1.63-4.44-1.5-6.28.22-3,.6-6,1.08-9,.37-2.28.79-4.52,1.24-6.7.84-4,1.79-7.78,2.66-11-16.77,10.5-24,13.09-25.57,11.25-.61-.75-.61-2.46-1.63-2.8a1,1,0,0,0-.38,0l25.47-23.07c.68-.61,1.63-1.57,2.86-2.52,3.89-3.14,13.36-9.62,16.29-7.43,2,1.5.21,6.34-5.25,23.11l-1,3c-.84,2.58-1.6,5-2.29,7.11-1.1,3.43-2,6.23-2.65,8.25a49.61,49.61,0,0,1,9.34-13.37c5-5,13.78-11.79,16.57-9.68C163.79,160.27,161.88,166.07,161.06,168.45Z"/>
    <path class="cls-2" d="M138,142.3a127.16,127.16,0,0,1-12.28,24.81c-8.71,5.27-14.4,8-17.78,9,10.71-6.8,18.78-18.27,24.74-30.31A60.52,60.52,0,0,1,138,142.3Z"/>
    <path class="cls-2" d="M140.83,166.34c-.08.26-.16.52-.25.79-.73,2.24-1.42,4.36-2.05,6.33a.1.1,0,0,0-.05,0,111.4,111.4,0,0,1-11.87,8.95l-.54.07c.37-2.28.79-4.52,1.24-6.7a99.27,99.27,0,0,0,13.46-9.43Z"/>
    <path class="cls-5" d="M98.81,176.5c1.22-1.7,2.54-3.19,3.58-3.25a1,1,0,0,1,.38,0c1,.34,1,2.05,1.63,2.8,1.57,1.84,8.8-.75,25.57-11.25-.87,3.2-1.82,7-2.66,11-.45,2.18-.87,4.42-1.24,6.7-.48,3-.86,6.06-1.08,9-.13,1.84-.27,4.64,1.5,6.28,3.21,3,10.37-.28,11.39-.75,3-1.37,4.77-2.94,14.38-14.93,5.46-6.82,7.37-9.41,8.8-13.71.82-2.38,2.73-8.18.68-9.75-2.79-2.11-11.59,4.64-16.57,9.68a49.61,49.61,0,0,0-9.34,13.37c.66-2,1.55-4.82,2.65-8.25.69-2.14,1.45-4.53,2.29-7.11l1-3c5.46-16.77,7.23-21.61,5.25-23.11-2.93-2.19-12.4,4.29-16.29,7.43-1.23,1-2.18,1.91-2.86,2.52"/>
    <path class="cls-1" d="M132.51,119.64c-.39,0,9.25,8.49,2,13.34.25-.28,1-7.81-2.48-7.45-.15.37-5.22,19.41,1.94,29.63-.3-.07-5.86,3.36-11.21,0-.07,0,.7,5.51,7.87,7.34A8.8,8.8,0,0,1,120,161.07c.62.6,6.87,7,3.05,15.22-.14-.21-1.68-9.22-6.68-11.82.07.14,5.27,22.8-5.49,27.65.14-.21,5.28-16.18-5.56-19.56.21.15,3,16.47-6.83,20.83.21.07,1.55-9.22-2.67-12.88.14,0-9.78,18.58-26.88,11,.17,0,9.39-3.91,10-10.3-.39.62-12.24,7.18-20,4,.11,0,11.79-6,4.57-10.77A15.45,15.45,0,0,1,55,180.21l-.72.16a13.66,13.66,0,0,1-5.89-.2,9.07,9.07,0,0,0,2.18-1.8c2.65-2.65,6.55-7.83,5.11-12.84a52.92,52.92,0,0,1-8.23.17c-2.57-.2-5-.73-6-2,0,0,6.08-3.15,4.65-8.83-.29.4-13.48,9.41-21-3.1a16.74,16.74,0,0,0,10-1.33,18.16,18.16,0,0,0,6.71-6,27.54,27.54,0,0,0,4.22-8.51c3-9.4,13.4-34.47,13.52-38.35A.93.93,0,0,0,59.3,97c-1.07-1.5-7.64,1.65-7.64,1.65s3-10.55,6.53-12.14,5.36-9.77,5.36-9.77a13.82,13.82,0,0,0,5.34-5.83c.87-2.36,5.09-36,32.42-39s35.66,17.4,37,22.43,0,24,.87,26.4,3.53,7.76,2.47,9.49-5.89,5.79-5.89,7.14-1.44,16.49,4.73,18.91C145.44,118.58,136.08,121.28,132.51,119.64Z"/>
    <path class="cls-5" d="M132.52,119.85c-.39,0,9.25,8.49,2,13.34.25-.28,1-7.81-2.48-7.45-.15.37-5.22,19.41,1.94,29.63-.3-.07-5.86,3.36-11.21,0-.07-.05.7,5.51,7.87,7.34A8.8,8.8,0,0,1,120,161.28c.62.6,6.86,7,3,15.22-.14-.21-1.69-9.21-6.68-11.82.06.14,5.27,22.8-5.49,27.65.14-.21,5.27-16.18-5.57-19.56.21.15,3,16.47-6.82,20.83.21.07,1.55-9.22-2.67-12.88.14,0-9.79,18.58-26.89,11,.18,0,9.4-3.91,10.06-10.3-.4.63-12.24,7.18-20,4,.1,0,11.79-6,4.57-10.77A15.45,15.45,0,0,1,55,180.42l-.73.16a13.62,13.62,0,0,1-5.88-.2,9.28,9.28,0,0,0,2.18-1.8c2.65-2.65,6.55-7.83,5.11-12.84a52.92,52.92,0,0,1-8.23.17c-2.57-.2-5-.73-6-2,0-.05,6.08-3.15,4.64-8.82-.28.39-13.47,9.4-21-3.11a16.66,16.66,0,0,0,10-1.33,18.12,18.12,0,0,0,6.7-6,27.06,27.06,0,0,0,4.22-8.51c3-9.4,13.41-34.47,13.52-38.35a.87.87,0,0,0-.14-.55c-1.07-1.51-7.64,1.64-7.64,1.64s3-10.55,6.53-12.14S63.56,77,63.56,77a13.7,13.7,0,0,0,5.34-5.83c.87-2.36,5.09-36,32.42-39s35.66,17.39,37,22.42,0,24,.88,26.4,3.53,7.76,2.46,9.5-5.88,5.78-5.88,7.13-1.45,16.5,4.72,18.91C145.45,118.79,136.09,121.49,132.52,119.85Z"/>
    <g>
      <path class="cls-7" d="M138.06,70.92c0,3.2.07,7.85-3.08,11.19A8.93,8.93,0,0,1,129.6,85a7.93,7.93,0,0,1-2.9-.22,9.29,9.29,0,0,1-4.55-2.45,7.14,7.14,0,0,1-.82-1,18.1,18.1,0,0,1-3.16-8.18c-.48-5.22,2.32-14.41,8.56-15.14,4.54-.55,9.18,3.57,10.72,7.74A15.12,15.12,0,0,1,138.06,70.92Z"/>
      <path class="cls-8" d="M132.18,59.39a8.48,8.48,0,0,0-5.61-1.49c-6.22.77-9,10-8.54,15.17a18.1,18.1,0,0,0,3.16,8.18,10.86,10.86,0,0,0,.83,1,9.68,9.68,0,0,0,7.45,2.68l.63-.09a7.74,7.74,0,0,1-2.13.56,9.82,9.82,0,0,1-3.08-.21,10.29,10.29,0,0,1-4.81-2.57,8.25,8.25,0,0,1-.9-1,19.22,19.22,0,0,1-3.33-8.64c-.5-5.51,2.45-15.2,9.07-16A9.43,9.43,0,0,1,132.18,59.39Z"/>
      <g>
        <ellipse class="cls-9" cx="131.84" cy="65.67" rx="5.79" ry="4.44" transform="translate(59.92 194.2) rotate(-87.25)"/>
        <ellipse class="cls-10" cx="131.82" cy="65.37" rx="3.09" ry="2.37" transform="translate(60.19 193.9) rotate(-87.25)"/>
        <ellipse class="cls-7" cx="130.71" cy="63" rx="1.13" ry="0.87" transform="translate(61.5 190.54) rotate(-87.25)"/>
      </g>
    </g>
    <path class="cls-11" d="M138.06,70.92a23.92,23.92,0,0,1-.53,6.54c-1,4.26-4.89,8.2-9.54,7.8s-7.8-3.69-9.3-8a17,17,0,0,1,3.54-17.36c7.09-6.58,17,3,15.83,11Zm0,0a13.45,13.45,0,0,0-1-5.9c-2.27-5.2-9.77-9.54-14.34-4.58A17,17,0,0,0,119.55,77c1.34,4,4.09,7.31,8.5,7.76,3.23.43,6.4-1.6,8.1-4.3s1.94-6.26,1.91-9.51Z"/>
    <g>
      <path class="cls-7" d="M114.71,70c-.19,3.69-.46,9.06-4.33,12.7a10.34,10.34,0,0,1-6.4,3,9.52,9.52,0,0,1-3.34-.46A10.76,10.76,0,0,1,95.56,82a8.38,8.38,0,0,1-.88-1.17,20.78,20.78,0,0,1-3.08-9.66c-.2-6.06,3.67-16.47,10.92-16.89,5.28-.31,10.35,4.76,11.84,9.69A17.62,17.62,0,0,1,114.71,70Z"/>
      <path class="cls-8" d="M108.72,56.24a9.88,9.88,0,0,0-6.37-2.11C95.11,54.59,91.21,65,91.44,71.06a20.78,20.78,0,0,0,3.09,9.66c.15.21.45.65.88,1.17A10.7,10.7,0,0,0,100.49,85a9.87,9.87,0,0,0,3.33.46l.75-.06a9.32,9.32,0,0,1-2.51.5,11.1,11.1,0,0,1-3.53-.46,12.09,12.09,0,0,1-5.39-3.29,9.75,9.75,0,0,1-1-1.23,22.23,22.23,0,0,1-3.24-10.21c-.21-6.39,3.87-17.38,11.57-17.86A10.93,10.93,0,0,1,108.72,56.24Z"/>
      <ellipse class="cls-9" cx="106.69" cy="63.27" rx="5.13" ry="6.7" transform="matrix(1, -0.06, 0.06, 1, -3.34, 6.01)"/>
      <ellipse class="cls-10" cx="107.35" cy="62.93" rx="2.74" ry="3.57" transform="translate(-3.32 6.05) rotate(-3.18)"/>
      <ellipse class="cls-7" cx="105.37" cy="61.3" rx="1" ry="1.31" transform="translate(-3.24 5.93) rotate(-3.18)"/>
    </g>
    <path class="cls-11" d="M114.71,70a28,28,0,0,1-1.07,7.51c-1.47,4.84-6.22,9.09-11.53,8.31C96.61,85,93.45,81,92,76c-1.58-4.58-.81-9.6,1.12-13.94,3.16-7.61,10.59-10.9,17.06-4.73A16.31,16.31,0,0,1,114.08,63a15.75,15.75,0,0,1,.63,6.92Zm0,0a15.69,15.69,0,0,0-.71-6.88c-2.32-6.18-10.58-11.75-16.29-6.32a19.64,19.64,0,0,0-4.85,18.92c1.32,4.77,4.2,8.72,9.33,9.56,3.72.72,7.52-1.42,9.66-4.43s2.67-7.1,2.86-10.85Z"/>
    <path class="cls-4" d="M101.12,44c-.13,0-5.2-2-6.14-1.12s-1.19,2.38.89,3.1c0,0-6.39.19-5.05,3.35-.12-.12-4.67,1.51-1.62,3.44-.2,0-3.19,2.74-1.23,4.49,4.66-5.88,7.49-7.32,9.24-7.46a16,16,0,0,0,2.93-.54c1.82-.5,3.36-.93,3.61-1.91S102.9,44.93,101.12,44Z"/>
    <path class="cls-4" d="M123.94,47.85c.07-.05,2.92-2.54,3.73-2.23s1.36,1.26.18,2.24c0,0,4.22-1.43,4.11,1,0-.11,3.42-.15,1.9,1.85.13-.05,2.75,1,1.9,2.63-4.48-2.7-6.68-2.95-7.86-2.62a10.62,10.62,0,0,1-2,.36c-1.31.12-2.43.22-2.83-.36S123,48.92,123.94,47.85Z"/>
    <path class="cls-12" d="M128.69,99.23a30.7,30.7,0,0,0,10.73-5.7A31.17,31.17,0,0,1,129,100.18l-.3-1Z"/>
    <path class="cls-13" d="M85.38,83h0"/>
    <path class="cls-14" d="M132.28,126c-.22.26-.45.51-.68.75a20.45,20.45,0,0,1-4.72,3.75,24.17,24.17,0,0,1-7.39,2.77l-.36.07c-.24,0-.49.09-.73.12s-.72.13-1.08.17l-.34,0c-.37.05-.74.09-1.11.11a27.26,27.26,0,0,1-3,.11,1.92,1.92,0,0,1-.24,0c-1.24,0-2.48-.08-3.71-.2l-.86-.1c-.9-.12-1.79-.26-2.68-.43l-.88-.17-.1,0h0C98,131.63,92.29,129,89,126.36a11.51,11.51,0,0,1-2-2c-.09-.11-.17-.22-.25-.34a29.46,29.46,0,0,1-1.66-4.77c-3.74-14.23.37-34,.23-36.85a30.15,30.15,0,0,0,1.42,5.1,23,23,0,0,0,3.49,6.24,18.91,18.91,0,0,0,3.07,3.12l.14.11a21.67,21.67,0,0,0,2.33,1.63,26.12,26.12,0,0,0,8.81,3.22c.62.12,1.26.21,1.89.29l.82.1h.07c.36,0,.72.07,1.08.09h0c.73.06,1.45.09,2.17.11a53,53,0,0,0,7.26-.35l.24,0c1.86-.22,3.58-.51,5.1-.81,1.22-.24,2.31-.49,3.23-.71.56-.13,1.06-.26,1.48-.37l.54-.16a2.8,2.8,0,0,0,.31-.09c-.29,1.61-.52,3.13-.69,4.55C125.85,122.39,131.85,126.43,132.28,126Z"/>
    <path class="cls-15" d="M131.6,126.75a20.45,20.45,0,0,1-4.72,3.75,24.17,24.17,0,0,1-7.39,2.77l-.36.07c-.24,0-.49.09-.73.12s-.72.13-1.08.17l-.34,0c-.37.05-.74.09-1.11.11a27.26,27.26,0,0,1-3,.11,1.92,1.92,0,0,1-.24,0c-1.24,0-2.48-.08-3.71-.2l-.86-.1c-.9-.12-1.79-.26-2.68-.43l-.88-.17-.1,0h0C98,131.63,92.29,129,89,126.36a11.51,11.51,0,0,1-2-2c-.09-.11-.17-.22-.25-.34a29.46,29.46,0,0,1-1.66-4.77c6.33-1.31,16.77-1.93,24.8,5.17C110.61,124.25,122.41,117.86,131.6,126.75Z"/>
    <g>
      <path class="cls-16" d="M118.1,102.05l-.17.31c-.09.18-.19.4-.3.61a.83.83,0,0,1-.07.13l-.18.38c-.87,1.83-1.08,2.62-1.42,3.3a4.68,4.68,0,0,1-4.11,2.72c-1.89-.09-4.4-2.46-6.58-6.34-.24-.42-.48-.87-.71-1.34.62.12,1.26.21,1.89.29l.82.1h.07c.36,0,.72.07,1.08.09h0c.73.06,1.45.09,2.17.11a53,53,0,0,0,7.26-.35Z"/>
      <path class="cls-16" d="M106.45,102.11c-.31.27-.71.61-1.18,1l-.1.1-.11.1-.29.28c-1.46,1.41-1.94,2.07-2.5,2.59a4.67,4.67,0,0,1-4.8,1.1c-1.7-.73-3.18-3.71-3.88-7.94-.13-.79-.24-1.65-.31-2.53l.14.11a21.67,21.67,0,0,0,2.33,1.63,26.12,26.12,0,0,0,8.81,3.22C105.18,101.94,105.82,102,106.45,102.11Z"/>
      <path class="cls-16" d="M95.75,98.6c-.28.1-.6.2-.94.33l-.13,0-.39.14-.7.27c-1.39.55-2,.9-2.62,1.12a4.66,4.66,0,0,1-4.84-.89c-1.6-1.69-1.47-6.46.59-12.12a23,23,0,0,0,3.49,6.24,18.91,18.91,0,0,0,3.07,3.12l.14.11A21.67,21.67,0,0,0,95.75,98.6Z"/>
      <path class="cls-16" d="M128.45,100c-1.95,6.43-5.81,8.75-8.1,7.06a7.12,7.12,0,0,1-2.16-3.75c-.07-.21-.13-.42-.18-.62s-.06-.22-.08-.33,0-.19-.07-.29l.24,0c1.86-.22,3.58-.51,5.1-.81,1.22-.24,2.31-.49,3.23-.71.56-.13,1.06-.26,1.48-.37Z"/>
      <path class="cls-16" d="M104.39,133C98,131.63,92.29,129,89,126.36a11.51,11.51,0,0,1-2-2c1.52-2.1,3.86-4.53,6.52-4.33s4.7,3.14,8.18,8.32A52.2,52.2,0,0,1,104.39,133Z"/>
      <path class="cls-16" d="M115,133.78c-.72.07-1.44.1-2.17.11a1.92,1.92,0,0,1-.24,0c-1.24,0-2.48-.08-3.71-.2l-.86-.1c-.9-.12-1.79-.26-2.68-.43l-.88-.17a6,6,0,0,1,.17-4.37c.68-1.5,2.18-3.34,3.88-3.47C111,125,114,128.25,115,133.78Z"/>
      <path class="cls-16" d="M126.88,130.5a24.17,24.17,0,0,1-7.39,2.77c-.72.14-1.45.26-2.17.36l-.33.05h0a6.25,6.25,0,0,1-1.37-4.42c.15-1.67,1-3.93,2.54-4.61C120.31,123.71,124.14,125.77,126.88,130.5Z"/>
    </g>
    <path class="cls-17" d="M128.2,104.24c.17-1.42.4-2.94.68-4.55l-.84.25c-.42.11-.92.24-1.48.37-.92.22-2,.47-3.23.71a58.42,58.42,0,0,1-12.6,1.18c-.72,0-1.45,0-2.18-.11h0l-1.09-.09h-.07a26.12,26.12,0,0,1-13.85-5.24,18.83,18.83,0,0,1-3.2-3.23,25.61,25.61,0,0,1-4.89-11.17,0,0,0,1,0,0,0c0,3.79-4.9,27.57,1.44,41.45a4.15,4.15,0,0,0,.24.34,11.6,11.6,0,0,0,2,2c3.3,2.66,9,5.27,15.4,6.61h0l1,.19c.88.17,1.78.31,2.68.43l.85.1a37.64,37.64,0,0,0,7,.09,31.74,31.74,0,0,0,3.25-.44,22.28,22.28,0,0,0,13.11-7.29s0,0,0,0C131.59,125.93,126,121.59,128.2,104.24Z"/>
    <path class="cls-1" d="M61.15,100.63c-10-28.4-11.68-33.83-12.47-37.12-.63-2.51-1.48-4.93-2.12-7.44a12.82,12.82,0,0,0-1.48-4.15c-.66-1.17-1.13-1.37-2.77-3.2a8.93,8.93,0,0,0,1.55-.62c3.07-1.75,3-2.71,3-2.71s1.33-.58,1.28-.53a103.37,103.37,0,0,0,6.47,16.65c.23.48.47,1,.71,1.42h0a106,106,0,0,0,9,14.68v0"/>
    <path class="cls-1" d="M55.37,35.92a2,2,0,0,1-.06.34A6.94,6.94,0,0,1,55,37.37a4,4,0,0,1-.16.49c-.08.22-.16.44-.26.65s-.16.36-.25.53-.19.36-.29.53-.19.33-.29.49l0,0c-.11.16-.21.32-.33.48a5.92,5.92,0,0,1-.35.48c-.1.13-.19.26-.29.38l-.07.08c-.25.3-.51.58-.76.86-.4.41-.8.79-1.21,1.14s-.8.67-1.19,1l-.37.27c-.43.31-.82.57-1.18.79a12.89,12.89,0,0,1-1.62.88s.09,1-3,2.72a9.15,9.15,0,0,1-1.55.61,5.92,5.92,0,0,1-1.08.22l-.24,0a3.76,3.76,0,0,1-2-.4,3.33,3.33,0,0,1-.54-.35,4.31,4.31,0,0,1-.67-.68A7.48,7.48,0,0,1,36,45.74l-.12-.54a12.19,12.19,0,0,1-.22-1.67s-4.13,1.15-6.79-1.14c-3.3-4.54,3.24-9.59,3.4-9.32.74-6.64,6.4-6.76,6.27-6.65,9.87-8.16,10.13,1,10.13,1s3.86-2.68,6.08,3.14A10.48,10.48,0,0,1,55.37,35.92Z"/>
    <g>
      <path class="cls-1" d="M55.37,35.92a2,2,0,0,1-.06.34A6.94,6.94,0,0,1,55,37.37a4,4,0,0,1-.16.49c-.08.22-.16.44-.26.65s-.16.36-.25.53-.19.36-.29.53-.19.33-.29.49l0,0c-.11.16-.21.32-.33.48a5.92,5.92,0,0,1-.35.48c-.1.13-.19.26-.29.38l-.07.08c-.25.3-.51.58-.76.86-.4.41-.8.79-1.21,1.14s-.8.67-1.19,1l-.37.27c-.43.31-.82.57-1.18.79a12.89,12.89,0,0,1-1.62.88s.09,1-3,2.72a9.15,9.15,0,0,1-1.55.61,5.18,5.18,0,0,1-1.08.22l-.24,0a3.65,3.65,0,0,1-2-.4,3.33,3.33,0,0,1-.54-.35,3.59,3.59,0,0,1-.67-.68A7.48,7.48,0,0,1,36,45.74l-.12-.54a12.19,12.19,0,0,1-.22-1.67s-4.13,1.15-6.79-1.14c-3.3-4.54,3.24-9.59,3.4-9.32.74-6.64,6.4-6.76,6.27-6.65,9.87-8.16,10.13,1,10.13,1s3.86-2.68,6.08,3.14A10.48,10.48,0,0,1,55.37,35.92Z"/>
      <g>
        <path class="cls-2" d="M48.69,27.45S40.85,31.4,43,37.31c.59,1.52,4.82.86,7.36-1.62"/>
        <path class="cls-3" d="M48.91,27.9c-3.37,1.64-7.59,5.68-5.49,9.67,2.14,1.15,5.22-.39,6.93-1.88a9,9,0,0,1-4.53,2.45,3.46,3.46,0,0,1-2.64-.28c-.39-.26-.48-.85-.61-1.25a6.92,6.92,0,0,1,1.77-6.24A15.42,15.42,0,0,1,48.46,27l.45.89Z"/>
      </g>
      <g>
        <path class="cls-2" d="M38.56,26.42s-3.94,15.76,4.58,11.15"/>
        <path class="cls-3" d="M39,26.54c-.69,2.83-3.08,12.54,2.2,11.71a7.71,7.71,0,0,0,1.9-.68,7.45,7.45,0,0,1-1.88.8c-4.36,1-4-5.2-3.79-8a36,36,0,0,1,.6-4.09l1,.24Z"/>
      </g>
      <g>
        <path class="cls-2" d="M32.29,33.07s.3,14,7.31,4.87"/>
        <path class="cls-3" d="M32.79,33.06c.06,2.35.3,9.61,4.2,7.33a11.21,11.21,0,0,0,2.61-2.45,11.14,11.14,0,0,1-2.47,2.66c-2.8,2.11-4.39-1.6-4.81-3.86a25,25,0,0,1-.53-3.66l1,0Z"/>
      </g>
      <g>
        <path class="cls-2" d="M46.38,46.44s-4.46.24-6.16-3.82"/>
        <path class="cls-3" d="M46.41,46.93a6.64,6.64,0,0,1-6.19-4.31,6.17,6.17,0,0,0,6.13,3.32l.06,1Z"/>
      </g>
    </g>
    <path class="cls-4" d="M61.76,74.91a10.06,10.06,0,0,1-4,3.59,8.9,8.9,0,0,1-3.44,1.24c-1.29-3.94-2.42-7.24-3.15-9.59A8.07,8.07,0,0,0,54,69.32a9.25,9.25,0,0,0,3-2.21C58.57,70,60.16,72.53,61.76,74.91Z"/>
    <path class="cls-4" d="M53.82,61.06a9.37,9.37,0,0,1-2.37,1.56,4.88,4.88,0,0,1-2.28.82c-.44-1.68-1-3.48-1.46-5.16-.35-1.24-.53-2.3-.86-3.16a5.13,5.13,0,0,0,2.43-.61,4.62,4.62,0,0,0,1.21-.93C50.86,54.42,52.77,58.45,53.82,61.06Z"/>
    <g class="cls-18">
      <ellipse class="cls-19" cx="79.24" cy="54.37" rx="6.65" ry="3.33" transform="translate(-3.79 102.74) rotate(-64.68)"/>
      <ellipse class="cls-19" cx="74" cy="76.27" rx="10.33" ry="5.31" transform="translate(-23 119.68) rotate(-69.98)"/>
    </g>
    <path class="cls-4" d="M81,83.24c.35-2.26,2.8-4.5,4.73-3.9a6.9,6.9,0,0,1,3.25,3.4,22.57,22.57,0,0,1-3.81-1.51.64.64,0,0,0,.24,0c-1.42-.13-3,1.38-4.41,2Z"/>
    <path class="cls-4" d="M93.8,93a42.85,42.85,0,0,0,42.06-.31C124.38,102.83,105.36,103,93.8,93Z"/>
    <path class="cls-4" d="M81,113.7c.39,2,.77,4,1.11,5.92.49,2.3.7,4.77,1.8,6.71a.79.79,0,0,0,.31.27c1,.67,2.1,1.27,3.15,1.91,1.54.88,3.64,2.26,5.16,3.12a28.82,28.82,0,0,1-8.64-3,4.54,4.54,0,0,1-1.52-1.07c-1.58-2.33-1.63-5.2-1.81-7.77A25.41,25.41,0,0,1,81,113.7Z"/>
    <g>
      <path class="cls-1" d="M101.69,32.5s2.6-4.88-6.76-6.92c-.31.39,8.34-4.32,10.85,5.58.55,0,3.93-8.49-9-12.73.16-.32,12.74,0,14.47,12.65-.08-.15,3.85-4.48,0-8.72.31-.16,5.74.31,4.4,10.53"/>
      <path class="cls-1" d="M101.69,32.5s2.6-4.88-6.76-6.92c-.31.39,8.34-4.32,10.85,5.58.55,0,3.93-8.49-9-12.73.16-.32,12.74,0,14.47,12.65-.08-.15,3.85-4.48,0-8.72.31-.16,5.74.31,4.4,10.53"/>
      <g>
        <path class="cls-1" d="M122.41,36.37S130.46,14,118.3,11s-15.62,12.35-3.44,7.86c3.38-2,2.36-4.24,2.36-4.24s6.21,2,2.83,20"/>
        <path class="cls-1" d="M114.91,18.58c-4.7,1.73-7.08.51-7.51-1.48,1.06,1.32,3.47,1.82,7.43.37a5,5,0,0,0,2.54-2.78C117.51,15.41,117.48,17.08,114.91,18.58Z"/>
        <path class="cls-1" d="M122.41,36.37S130.46,14,118.3,11s-15.62,12.35-3.44,7.86c3.38-2,2.36-4.24,2.36-4.24s6.21,2,2.83,20"/>
      </g>
      <g>
        <path class="cls-1" d="M98.83,35.35c-.32-.23-.48-12.5-21.47-5.58s-13,24.53-2.28,12.66c4.8-5.43.32-6.92.32-6.92s15.33-9.12,20.44,1.18"/>
        <path class="cls-1" d="M75,42.43c-4.76,5.28-9,4.73-10.35,1.88,1.76,2,5.56,1.93,9.77-2.75,2.26-2.56,2.47-4.24,2-5.31C77.36,37.16,78,39,75,42.43Z"/>
        <path class="cls-1" d="M98.83,35.36c-.32-.24-.48-12.5-21.47-5.58s-13,24.53-2.28,12.65c4.8-5.42.32-6.92.32-6.92s15.33-9.12,20.44,1.18"/>
      </g>
    </g>
    <ellipse class="cls-20" cx="69.66" cy="42.62" rx="4.18" ry="2.04" transform="translate(-9.15 21.2) rotate(-16.25)"/>
    <ellipse class="cls-20" cx="112.26" cy="16.37" rx="4.18" ry="2.04" transform="translate(-0.94 23.9) rotate(-12.1)"/>
  </g>
</svg>
