<svg id="Layer_1" data-name="Layer 1" xmlns="http://www.w3.org/2000/svg" viewBox="0 0 379.76 391.76"><defs><style>.cls-1{fill:#c34804;stroke:#7c320d;}.cls-1,.cls-14,.cls-2,.cls-3{stroke-miterlimit:10;}.cls-2{fill:#ffd713;stroke:#937b16;}.cls-3{fill:#ff7e2a;stroke:#af440e;}.cls-4{fill:#ff631e;}.cls-5{fill:#fb6010;}.cls-6{fill:#fde664;}.cls-7{fill:#febe42;}.cls-8{fill:#dc0604;}.cls-9{fill:#8c0606;}.cls-10{fill:#f9f2f2;}.cls-11{fill:#683c3c;}.cls-12{fill:#30252b;}.cls-13{fill:#fff;}.cls-14{fill:#d10409;stroke:#a30814;}</style></defs><path class="cls-1" d="M232.78,306.84s-5.21,6.88,1.9,47.45c0,0-11.37,3-11.23,4.39s12.22.58,12.22.58,11.68,13.84,15.21,15.49,5.16-1-6.83-12.72c0,0,6.33,1.17,14.17,3.44,0,0,5.7-.54-8.44-7.33,0,0,1.14-2.15,11.06-1.64,0,0,9.81-5.08-20.31-3a79.65,79.65,0,0,1,.13-43.36C247.42,286.42,232.78,306.84,232.78,306.84Z"/><path class="cls-1" d="M172.13,304.36s4.08,6.37-1.77,47.11c0,0,9,1.95,8.86,3.37s-9.67,1.62-9.67,1.62-9.32,14.69-12.12,16.62-4.07-.59,5.48-13.17c0,0-5,1.71-11.23,4.62,0,0-4.5,0,6.72-8,0,0-.89-2-8.74-.68,0,0-7.73-4.19,16.08-4.7a98.8,98.8,0,0,0,.14-42.88C160.67,285.42,172.13,304.36,172.13,304.36Z"/><path class="cls-2" d="M245.25,190.41s-.93-20.81,20.43-9.59,53.43,19.65,98.79-6.21c0,0,.58,10-15.21,20.28,0,0,14.12-3.33-8.12,16.69,0,0,10.82,0-13.28,19.27,0,0,7.68,6.45-22.66,15.2s-60.53-29-60.53-29L243.94,191"/><path class="cls-2" d="M351.94,192s-32.62,24.85-83.28,5.09"/><path class="cls-2" d="M344,209.72s-34.64,21-77,.93"/><path class="cls-2" d="M330,228.76s-39,15.41-63.87-4.34"/><path class="cls-2" d="M140.74,189.29S139,168.49,116.47,182s-57.4,25.35-111.91,4.55c0,0,.71,10.05,19.85,18.52,0,0-16.32-1.78,11.39,15.71,0,0-12.16,1.17,17.55,17.73,0,0-7.76,7.24,27.54,12.65S145,215.73,145,215.73l-2.72-26"/><path class="cls-2" d="M21,202.46s40,21.17,94.31-4"/><path class="cls-2" d="M32.35,219.21s41.79,17.1,86.66-7.43"/><path class="cls-2" d="M50.7,236.62s46,11.08,71.2-11.25"/><path class="cls-3" d="M269.57,268.18c-34,87.47-131.82,56.18-148.83,14.88s-2.43-68,14.58-99.63c1.11-2.05,2.17-4.11,3.19-6.15a285.92,285.92,0,0,0,21.1-57l5.61,5.77L217.93,96s-4.86,38.87,32.8,87.46c10.09,13,16.13,25.15,19.55,35.92C279.66,248.81,269.57,268.18,269.57,268.18Z"/><path class="cls-4" d="M269.57,268.18c-34,87.47-131.82,56.18-148.83,14.88s-2.43-68,14.58-99.63c1.11-2.05,2.17-4.11,3.19-6.15-11.44,36.73-23.24,95.12,6.23,121,44.64,39.18,123,6.37,124.83-66.52.11-4.49.35-8.6.71-12.38C279.66,248.81,269.57,268.18,269.57,268.18Z"/><path class="cls-5" d="M155.65,117.88c-2.83,12.71-5.6,32.24-9.7,41.26,3.64.72,3.64-10.32,6.93-12a34.05,34.05,0,0,0,1.8,15.18c1.64,4.57,6.21,9.44,10.57,7.32a8.47,8.47,0,0,1,2.52-1.17,4.55,4.55,0,0,1,3,1.19c3.9,2.8,7.92,5.75,12.64,6.57s10.34-1.24,11.84-5.8c3.86,3.7,8,7.55,13.24,8.64s11.69-1.89,12.25-7.21c.6,2.65,4,3.64,6.65,3.22s5.24-1.72,8-1.66a18.42,18.42,0,0,0,4.12.16c2.49-.5,4.06-3.18,4.16-5.72s-.93-5-1.93-7.31l-15.24-35.39c-6.26,4.12-13.86,9.33-20.26,13.22a16.07,16.07,0,0,1-4.77,2.22,15.49,15.49,0,0,1-4.71.08c-6.54-.56-13.57-1.62-18.24-6.23-3.29-3.25-5.36-8.19-9.78-9.53-1.15-.35-2.38-.42-3.51-.83C162.45,123.05,158.4,116.86,155.65,117.88Z"/><path class="cls-6" d="M156.71,92.12c-1.42,12.7-2.1,37.34-6.21,46.37,3.64.71.3-1.21,3.59-2.92a34.22,34.22,0,0,0,1.81,15.18c1.64,4.57,6.21,9.44,10.57,7.32A8.36,8.36,0,0,1,169,156.9a4.54,4.54,0,0,1,3,1.19c3.89,2.8,7.92,5.75,12.64,6.57s10.34-1.24,11.84-5.8c3.86,3.7,8,7.55,13.24,8.64s11.68-1.9,12.25-7.21c.6,2.65,4,3.64,6.65,3.22s5.23-1.73,8-1.66a18.31,18.31,0,0,0,4.11.16c2.5-.5,4.07-3.18,4.16-5.72s-.92-5-1.93-7.31q-7.62-17.7-15.23-35.39c-6.26,4.12-13.86,9.32-20.27,13.22a16,16,0,0,1-4.77,2.22,15.49,15.49,0,0,1-4.71.08c-6.53-.56-13.56-1.62-18.23-6.23-3.29-3.25-5.36-8.19-9.79-9.53-1.15-.35-2.38-.42-3.51-.83C163.66,111.51,159.46,91.09,156.71,92.12Z"/><path class="cls-7" d="M236.56,138.89c-2.63,15.39-24.55,7.05-24.55,7.05-18.38,7.5-25-5.26-25-5.26-21.82.65-21.74-14.65-21.74-14.65-13.14-1.47-8.26-12.35-9.36-28.09s.44-47.7,31.14-46,39.84,41.38,44.51,62.78C233.13,122.08,236.7,123,236.56,138.89Z"/><path class="cls-8" d="M182.91,102.73s-2.33,8.89,5.52,17.93a24,24,0,0,0,18.24,8.4l-15.09-25.45Z"/><path class="cls-9" d="M187.1,105.19c.65.85,1.41,9.51,19.78,24.2,0,0-8.24-17.4-8-19.06S187.1,105.19,187.1,105.19Z"/><path class="cls-8" d="M182.23,102.44s10.74-5.09,15.34-5.13S206.34,98.44,210,113c0,0-20.33.8-28.13-7.82Z"/><ellipse class="cls-9" cx="197.09" cy="99.91" rx="1.01" ry="2.08" transform="translate(73.57 283.13) rotate(-82.9)"/><ellipse class="cls-10" cx="177.36" cy="84.02" rx="9.63" ry="12.03" transform="translate(-16.76 55.17) rotate(-16.9)"/><path class="cls-11" d="M186.35,80.38a14.43,14.43,0,0,1,.62,8.45,11.36,11.36,0,0,1-1.74,4,8.78,8.78,0,0,1-3.37,2.87,9.13,9.13,0,0,1-8.73-.73,14.39,14.39,0,0,1-5.55-7,15.15,15.15,0,0,1-.4-8.89,9.94,9.94,0,0,1,5.69-6.68,8,8,0,0,1,4.4-.45,10.37,10.37,0,0,1,4,1.68A13.65,13.65,0,0,1,186.35,80.38Zm-.09,0a13.47,13.47,0,0,0-5.12-6.6,8.47,8.47,0,0,0-8-.93A9.3,9.3,0,0,0,168,79.28a14.28,14.28,0,0,0,.51,8.33,13.42,13.42,0,0,0,5.08,6.6,8.48,8.48,0,0,0,8,1,9.33,9.33,0,0,0,5.1-6.39A14.26,14.26,0,0,0,186.26,80.42Z"/><ellipse class="cls-12" cx="177.81" cy="88.37" rx="4.84" ry="6.49" transform="translate(-17.8 54.3) rotate(-16.55)"/><ellipse class="cls-13" cx="179.64" cy="85.33" rx="1.64" ry="2.2" transform="translate(-16.86 54.69) rotate(-16.55)"/><ellipse class="cls-10" cx="204.96" cy="81.14" rx="9.45" ry="12.01" transform="translate(-14.24 57.82) rotate(-15.52)"/><path class="cls-11" d="M213.77,77.5a14.69,14.69,0,0,1,.62,8.38,11.4,11.4,0,0,1-1.66,4,8.7,8.7,0,0,1-3.28,2.91,8,8,0,0,1-4.41.79,9.65,9.65,0,0,1-4.25-1.5,14.17,14.17,0,0,1-5.43-7,15.38,15.38,0,0,1-.41-8.81,9.94,9.94,0,0,1,5.53-6.72,7.69,7.69,0,0,1,4.36-.48,10,10,0,0,1,4,1.68A13.59,13.59,0,0,1,213.77,77.5Zm-.1,0a13.36,13.36,0,0,0-5-6.6,9.28,9.28,0,0,0-3.88-1.5,7.29,7.29,0,0,0-4.09.6,9.34,9.34,0,0,0-4.92,6.43,14.46,14.46,0,0,0,.52,8.26,13.32,13.32,0,0,0,5,6.59,9.21,9.21,0,0,0,3.86,1.51,7.19,7.19,0,0,0,4.09-.59,9.28,9.28,0,0,0,4.94-6.42A14.44,14.44,0,0,0,213.67,77.54Z"/><ellipse class="cls-12" cx="205.4" cy="85.48" rx="4.75" ry="6.48" transform="matrix(0.96, -0.27, 0.27, 0.96, -15.37, 57.98)"/><ellipse class="cls-13" cx="207.19" cy="82.45" rx="1.61" ry="2.2" transform="translate(-14.5 58.35) rotate(-15.5)"/><path class="cls-8" d="M170.37,64.32a8.3,8.3,0,0,1,5-1.77,1.56,1.56,0,0,1,1.31.57,1.58,1.58,0,0,1,.19.64,3.54,3.54,0,0,1-.08,1.65,3.42,3.42,0,0,1-1.83,1.87c-.81.39-1.69.6-2.53.91a11.1,11.1,0,0,0-3.07,1.7,5.52,5.52,0,0,1-2.28,1.38c-.63.12-1.69-.26-1.8-1s.77-1.6,1.15-2.1A17.28,17.28,0,0,1,170.37,64.32Z"/><path class="cls-8" d="M198.67,61.58a9.09,9.09,0,0,0-5.5.84,1.75,1.75,0,0,0-1,1.15,1.53,1.53,0,0,0,.11.67,3.52,3.52,0,0,0,.8,1.44,3.45,3.45,0,0,0,2.57.78,26.64,26.64,0,0,0,2.8-.42,11.88,11.88,0,0,1,3.67,0,5.92,5.92,0,0,0,2.77.12c.66-.21,1.5-1.06,1.27-1.78s-1.45-1.05-2-1.32A17.72,17.72,0,0,0,198.67,61.58Z"/><path class="cls-14" d="M181.13,53.35s-.61,8.5,9.11,12.14,4.25-14.57,4.25-14.57,9.72-2.43,1.22-17.62-10.94-6.07-10.94-6.07-4.25-14-13.36-3.65S169,36.94,169,36.94s-6.83-.2-2.43,17.62c0,0-7.39,1.06-1.82,7.9C164.73,62.46,174.45,47.88,181.13,53.35Z"/></svg>