<svg id="Layer_1" data-name="Layer 1" xmlns="http://www.w3.org/2000/svg" viewBox="0 0 221.65 200.47"><defs><style>.cls-1,.cls-3{fill:#ffd15f;}.cls-2{fill:none;}.cls-2,.cls-3{stroke:#d67d13;}.cls-2,.cls-3,.cls-4,.cls-5,.cls-6{stroke-miterlimit:10;}.cls-4{fill:#c34804;stroke:#7c320d;}.cls-5{fill:#ffe783;}.cls-5,.cls-6{stroke:#7c4c00;}.cls-6{fill:#ffef9f;}.cls-7{fill:#66441c;}.cls-8{fill:#fff;}.cls-9{fill:#30200f;}.cls-10{fill:#efdece;}.cls-11{fill:#e57d28;}.cls-12{fill:#84083a;}</style></defs><path class="cls-1" d="M84.66,88.21s-1.22-10.52-11-3.16S48.35,99.26,23.44,90c0,0,.53,5.09,9.3,9,0,0-7.37-.52,5.44,7.72,0,0-5.44.88,8.24,8.6,0,0-3.33,3.85,12.63,5.78s28.07-19.47,28.07-19.47L85.37,88.39"/><path class="cls-2" d="M84.66,88.21s-1.22-10.52-11-3.16S48.35,99.26,23.44,90c0,0,.53,5.09,9.3,9,0,0-7.37-.52,5.44,7.72,0,0-5.44.88,8.24,8.6,0,0-3.33,3.85,12.63,5.78s28.07-19.47,28.07-19.47L85.37,88.39"/><path class="cls-1" d="M31.16,97.68s18.42,9.83,42.28-4.21"/><path class="cls-2" d="M31.16,97.68s18.42,9.83,42.28-4.21"/><path class="cls-1" d="M36.6,105.93a43.45,43.45,0,0,0,38.77-5.79"/><path class="cls-2" d="M36.6,105.93a43.45,43.45,0,0,0,38.77-5.79"/><path class="cls-1" d="M45.19,114.35S66.07,118.91,77,107"/><path class="cls-2" d="M45.19,114.35S66.07,118.91,77,107"/><path class="cls-3" d="M129.92,92.42S131.15,81.9,141,89.26s25.26,14.21,50.17,4.91c0,0-.53,5.09-9.3,9,0,0,7.37-.52-5.44,7.72,0,0,5.44.88-8.24,8.6,0,0,3.33,3.86-12.63,5.78s-28.07-19.47-28.07-19.47l1.75-13.15"/><path class="cls-3" d="M183.43,101.89s-18.42,9.83-42.28-4.21"/><path class="cls-3" d="M178,110.14a43.45,43.45,0,0,1-38.77-5.79"/><path class="cls-3" d="M169.39,118.56s-20.87,4.56-31.75-7.37"/><path class="cls-4" d="M95,144.87l1.21,5.76a.89.89,0,0,1,0,.58c-.09.17-.38.24-.48.07a87.9,87.9,0,0,1-1.19,15.11,7.64,7.64,0,0,1-.77,2.58c-.91,1.59-2.74,2.36-4.4,3.15a37,37,0,0,0-3.61,1.95c-.49.3-1,.72-1,1.3a2.32,2.32,0,0,0,2.16-.16q2.1-.93,4.11-2a3.3,3.3,0,0,1,2.35-.63A2.73,2.73,0,0,1,95,174.42a7.51,7.51,0,0,0,1,2.36.69.69,0,0,0,.51.29.75.75,0,0,0,.71-.83c-.23-1,0-2-.18-2.92,1.15.51,1.46.84,2.61,1.36,1.37.6,2.9,1.22,4.31.74a.62.62,0,0,0,.39-.27c.15-.26-.05-.57-.24-.79a12.67,12.67,0,0,0-3-2.52c-1.12-.68-2.44-1.28-3-2.47a5.18,5.18,0,0,1-.31-1.17A31.51,31.51,0,0,1,99.33,152"/><path class="cls-4" d="M118.4,143.82l-1,5.76a1,1,0,0,0,0,.57c.08.18.33.25.42.08a100.34,100.34,0,0,0,1,15.11,8.6,8.6,0,0,0,.66,2.58c.77,1.59,2.35,2.36,3.77,3.14a33.51,33.51,0,0,1,3.1,1.95,1.63,1.63,0,0,1,.87,1.31c-.54.42-1.26.14-1.86-.17a40,40,0,0,1-3.52-2,2.59,2.59,0,0,0-2-.63,2.67,2.67,0,0,0-1.42,1.88,7.71,7.71,0,0,1-.9,2.36c-.11.15-.26.3-.44.28a.7.7,0,0,1-.6-.82c.19-1,0-2,.15-2.92-1,.51-1.25.84-2.24,1.35-1.18.61-2.49,1.23-3.7.75a.61.61,0,0,1-.34-.27.82.82,0,0,1,.21-.79,11.32,11.32,0,0,1,2.56-2.52c1-.68,2.1-1.28,2.57-2.48a5.45,5.45,0,0,0,.27-1.16,36.39,36.39,0,0,0-1.23-16.21"/><path class="cls-5" d="M125.75,81.25h0l-.09,0A20.18,20.18,0,0,0,131.86,92c5.09,4.29,8.33,11.22,8.33,11.22l-1.67-.26c2.45,4,2.72,10.7,2.72,10.7,1.4,16.58-8.6,27.28-13.07,29.65a17.37,17.37,0,0,0-7.81,8.51c-1,2.46-5.7,4.2-6.58,1.31s-2.36-3.25-2.36-3.25l-9.13-.08s.36,4.73-4.56,4.21-3.68-6.66-8.33-9.39S74.49,131.28,72.65,120c-1.79-11,1.41-17.15,1.57-17.45l-1.92,1.4c1.14-6.41,9-13.24,12.19-17.11a22.34,22.34,0,0,0,4-9.3"/><path class="cls-6" d="M140.22,68.24l-1.94-1.81a7.17,7.17,0,0,1-.1,5.75l-1.27-2.68-.66,3.09c-3.63,9.33-14.36,10.69-15.69,10.82a0,0,0,0,1,0,0c-20.92,3.13-31.47-5.14-37-10.09a24.22,24.22,0,0,1-5.08-6.7c-3.47-6.14-1.58-13.13-1.58-13.13l-2.36,2c-.39-4.86,3.23-6.43,3.23-6.43l-2.35.26c1.14-4.44,4.83-4.75,4.83-4.75L77,44.3c1.31-3.26,5.47-3.76,5.47-3.76a35.14,35.14,0,0,1,12-14.1c6.2-4.45,18.16-4.88,18.16-4.88l-2-3.43,3.94,2.67a5.41,5.41,0,0,1,.68-6s.09,6.24,3.71,8,5.85,2.88,5.85,2.88c19.08,11.34,15.49,32,15.49,32a24.22,24.22,0,0,1,.61,6.3,5.33,5.33,0,0,0-2-1.72C140.39,66.58,140.22,68.24,140.22,68.24Z"/><path class="cls-7" d="M104.89,29.05c-.34-.08-6.67.24-8.14,3.71,0,0,5.43-3,8.45-1.7Z"/><path class="cls-7" d="M123.76,33c.34.06,6,3,5.86,6.75,0,0-3.7-5-7-5.06Z"/><ellipse class="cls-8" cx="102.28" cy="43.16" rx="7.89" ry="6.45" transform="translate(43.77 137.51) rotate(-81.08)"/><path class="cls-7" d="M108.65,44.16a9.23,9.23,0,0,1-2.43,5,6.2,6.2,0,0,1-5.21,2,6.37,6.37,0,0,1-4.65-3.35,9.33,9.33,0,0,1,1.71-11,6.37,6.37,0,0,1,5.47-1.77,6.21,6.21,0,0,1,4.34,3.52A9.31,9.31,0,0,1,108.65,44.16Zm0,0a8.64,8.64,0,0,0-.9-5.45,5.85,5.85,0,0,0-4.29-3.09,5.73,5.73,0,0,0-4.78,1.88,9.06,9.06,0,0,0-1.56,10,5.71,5.71,0,0,0,4,3.26,5.87,5.87,0,0,0,5-1.63A8.75,8.75,0,0,0,108.65,44.16Z"/><ellipse class="cls-8" cx="121.65" cy="47.68" rx="7.89" ry="6.45" transform="translate(55.69 160.46) rotate(-81.08)"/><path class="cls-7" d="M115.28,46.68a8.71,8.71,0,0,0,.89,5.45,5.88,5.88,0,0,0,4.3,3.1,5.77,5.77,0,0,0,4.78-1.89,9.06,9.06,0,0,0,1.56-10,5.75,5.75,0,0,0-4-3.26,5.87,5.87,0,0,0-5,1.63A8.75,8.75,0,0,0,115.28,46.68Zm0,0a9.23,9.23,0,0,1,2.43-5,6.2,6.2,0,0,1,5.21-2A6.35,6.35,0,0,1,127.58,43a9.33,9.33,0,0,1-1.73,11,6.35,6.35,0,0,1-5.46,1.77,6.26,6.26,0,0,1-4.34-3.52A9.31,9.31,0,0,1,115.28,46.68Z"/><ellipse class="cls-9" cx="102.65" cy="45.43" rx="4.6" ry="3.99" transform="translate(41.85 139.79) rotate(-81.08)"/><ellipse class="cls-10" cx="104.29" cy="43.87" rx="1.84" ry="1.6" transform="translate(44.78 140.09) rotate(-81.08)"/><ellipse class="cls-9" cx="120.77" cy="49.87" rx="4.6" ry="3.99" transform="translate(52.77 161.45) rotate(-81.08)"/><ellipse class="cls-10" cx="122.41" cy="48.31" rx="1.84" ry="1.6" transform="translate(55.7 161.75) rotate(-81.08)"/><path class="cls-11" d="M95.17,54.87a37.11,37.11,0,0,0,11-2.89c5.36-2.45,8.11.92,11.21,5s6.1,4.69,6.1,4.69-6.56,2.79-8.78,5-8.75,6.52-14.61-3.1S95.17,54.87,95.17,54.87Z"/><path class="cls-12" d="M95.37,54.42a23.83,23.83,0,0,0,2.7,2.71,19.82,19.82,0,0,0,3,2.25,18,18,0,0,0,6.8,2.7,30.51,30.51,0,0,0,7.47.5,37.06,37.06,0,0,0,3.78-.32c1.28-.12,2.53-.35,3.8-.59l0,.09a32.52,32.52,0,0,1-7.56,1.59,28.07,28.07,0,0,1-7.71-.29,17.63,17.63,0,0,1-7.07-3,20.48,20.48,0,0,1-5.35-5.55Z"/></svg>